# Blender 4.4.3
# www.blender.org
mtllib AIRCON.mtl
o AIRCON
v 263.052338 19.143469 -416.870789
v 263.052338 17.824171 -416.870789
v 264.418640 19.143469 -417.727112
v 264.418640 17.824171 -417.727112
v 263.234589 17.824171 -419.616364
v 261.868286 17.824171 -418.760040
v 263.234589 19.143469 -419.616364
v 261.868286 19.143469 -418.760040
v 265.968353 19.143471 -415.835541
v 265.968353 17.824173 -415.835541
v 265.112030 19.143469 -417.201843
v 265.112030 17.824171 -417.201843
v 263.222778 17.824173 -416.017792
v 264.079102 17.824173 -414.651489
v 263.222778 19.143471 -416.017792
v 264.079102 19.143471 -414.651489
v 243.012589 19.143471 -406.941376
v 243.012589 17.824173 -406.941376
v 242.156265 19.143471 -408.307678
v 242.156265 17.824173 -408.307678
v 240.267044 17.824175 -407.123627
v 241.123352 17.824175 -405.757324
v 240.267044 19.143471 -407.123627
v 241.123352 19.143471 -405.757324
v 244.047882 19.143471 -409.857391
v 244.047882 17.824173 -409.857391
v 242.681580 19.143471 -409.001068
v 242.681580 17.824173 -409.001068
v 243.865631 17.824175 -407.111847
v 245.231934 17.824175 -407.968170
v 243.865631 19.143471 -407.111847
v 245.231934 19.143471 -407.968170
v -80.380882 16.201567 -689.513733
v -80.380882 14.882269 -689.513733
v -80.376472 16.201567 -691.126221
v -80.376472 14.882269 -691.126221
v -82.606071 14.882270 -691.132324
v -82.610489 14.882270 -689.519836
v -82.606071 16.201567 -691.132324
v -82.610489 16.201567 -689.519836
v -77.949814 16.201567 -691.428162
v -77.949814 14.882269 -691.428162
v -79.562286 16.201567 -691.432556
v -79.562286 14.882269 -691.432556
v -79.568382 14.882270 -689.202942
v -77.955917 14.882270 -689.198547
v -79.568382 16.201567 -689.202942
v -77.955917 16.201567 -689.198547
v 512.739075 4.971781 -228.964462
v 512.739075 3.652485 -228.964462
v 512.273193 4.971781 -230.508179
v 512.273193 3.652485 -230.508179
v 510.138672 3.652485 -229.864059
v 510.604492 3.652485 -228.320343
v 510.138672 4.971781 -229.864059
v 510.604492 4.971781 -228.320343
v 522.835754 4.971783 -193.589355
v 522.835754 3.652488 -193.589355
v 522.369873 4.971783 -195.133072
v 522.369873 3.652487 -195.133072
v 520.235352 3.652487 -194.488953
v 520.701172 3.652488 -192.945236
v 520.235352 4.971783 -194.488953
v 520.701172 4.971783 -192.945236
v 501.479462 4.971778 -266.394012
v 501.479462 3.652482 -266.394012
v 501.013611 4.971778 -267.937744
v 501.013611 3.652482 -267.937744
v 498.879059 3.652482 -267.293640
v 499.344910 3.652482 -265.749908
v 498.879059 4.971778 -267.293640
v 499.344910 4.971778 -265.749908
v 499.484009 4.971784 -186.727066
v 499.484009 3.652488 -186.727066
v 499.018158 4.971784 -188.270782
v 499.018158 3.652488 -188.270782
v 496.883606 3.652488 -187.626663
v 497.349457 3.652488 -186.082947
v 496.883606 4.971784 -187.626663
v 497.349457 4.971784 -186.082947
v -141.784546 18.223616 -690.112305
v -141.784546 16.904320 -690.112305
v -143.396866 18.223616 -690.133728
v -143.396866 16.904320 -690.133728
v -143.426498 16.904320 -687.904358
v -141.814178 16.904320 -687.882874
v -143.426498 18.223616 -687.904358
v -141.814178 18.223616 -687.882874
v -105.011528 18.223616 -689.070068
v -105.011528 16.904320 -689.070068
v -106.623856 18.223616 -689.091492
v -106.623856 16.904320 -689.091492
v -106.653496 16.904320 -686.862061
v -105.041168 16.904320 -686.840637
v -106.653496 18.223616 -686.862061
v -105.041168 18.223616 -686.840637
v -180.867081 18.223616 -690.665405
v -180.867081 16.904320 -690.665405
v -182.479416 18.223616 -690.686829
v -182.479416 16.904320 -690.686829
v -182.509048 16.904320 -688.457397
v -180.896729 16.904320 -688.435974
v -182.509048 18.223616 -688.457397
v -180.896729 18.223616 -688.435974
v -105.511444 18.223618 -664.736023
v -105.511444 16.904322 -664.736023
v -107.123772 18.223618 -664.757446
v -107.123772 16.904322 -664.757446
v -107.153412 16.904322 -662.528015
v -105.541077 16.904322 -662.506592
v -107.153412 18.223618 -662.528015
v -105.541077 18.223618 -662.506592
v -217.595154 19.762793 -671.512329
v -217.595154 18.210434 -671.512329
v -216.927612 19.762793 -672.263367
v -216.927612 18.210434 -672.263367
v -218.384628 18.210434 -673.551208
v -219.052185 18.210434 -672.800171
v -218.384644 19.762793 -673.551208
v -219.052185 19.762793 -672.800171
v -233.184647 19.762794 -654.700195
v -233.184647 18.210436 -654.700195
v -232.517120 19.762794 -655.451172
v -232.517120 18.210436 -655.451172
v -233.974121 18.210436 -656.738953
v -234.641663 18.210436 -655.987976
v -233.974121 19.762794 -656.738953
v -234.641663 19.762794 -655.987976
v -201.392029 19.762793 -689.697327
v -201.392029 18.210434 -689.697327
v -200.724487 19.762793 -690.448364
v -200.724487 18.210434 -690.448364
v -202.181503 18.210434 -691.736145
v -202.849030 18.210434 -690.985168
v -202.181488 19.762793 -691.736145
v -202.849030 19.762793 -690.985168
v -249.016357 19.762794 -668.840149
v -249.016357 18.210436 -668.840149
v -248.348816 19.762793 -669.591125
v -248.348816 18.210434 -669.591125
v -249.805832 18.210434 -670.878906
v -250.473358 18.210434 -670.127930
v -249.805832 19.762793 -670.878906
v -250.473358 19.762793 -670.127930
v 11.719620 7.639610 -23.631462
v 11.719620 6.320313 -23.631462
v 10.107147 7.639610 -23.631462
v 10.107147 6.320313 -23.631462
v 10.107147 6.320313 -21.401850
v 11.719620 6.320313 -21.401850
v 10.107147 7.639611 -21.401850
v 11.719620 7.639611 -21.401850
v 9.863968 7.639611 -21.435080
v 9.863968 6.320313 -21.435080
v 9.863968 7.639610 -23.047552
v 9.863968 6.320313 -23.047552
v 7.634356 6.320313 -23.047552
v 7.634356 6.320313 -21.435080
v 7.634356 7.639610 -23.047552
v 7.634356 7.639611 -21.435080
v 33.972389 7.639610 -23.631462
v 33.972389 6.320313 -23.631462
v 32.359913 7.639610 -23.631462
v 32.359913 6.320313 -23.631462
v 32.359913 6.320313 -21.401850
v 33.972389 6.320313 -21.401850
v 32.359913 7.639611 -21.401850
v 33.972389 7.639611 -21.401850
v 32.116730 7.639611 -21.435080
v 32.116730 6.320313 -21.435080
v 32.116730 7.639610 -23.047552
v 32.116730 6.320313 -23.047552
v 29.887121 6.320313 -23.047552
v 29.887121 6.320313 -21.435080
v 29.887121 7.639610 -23.047552
v 29.887121 7.639611 -21.435080
v 126.985161 7.639610 -23.631462
v 126.985161 6.320313 -23.631462
v 125.372688 7.639610 -23.631462
v 125.372688 6.320313 -23.631462
v 125.372688 6.320313 -21.401850
v 126.985161 6.320313 -21.401850
v 125.372688 7.639611 -21.401850
v 126.985161 7.639611 -21.401850
v 125.129501 7.639611 -21.435080
v 125.129501 6.320313 -21.435080
v 125.129501 7.639610 -23.047552
v 125.129501 6.320313 -23.047552
v 122.899887 6.320313 -23.047552
v 122.899895 6.320313 -21.435080
v 122.899895 7.639610 -23.047552
v 122.899895 7.639611 -21.435080
vn 0.5311 -0.0000 0.8473
vn -0.5311 -0.0000 -0.8473
vn -0.0000 -1.0000 -0.0000
vn 0.8473 -0.0000 -0.5310
vn 0.8473 -0.0000 -0.5311
vn -0.0000 1.0000 -0.0000
vn -0.8473 -0.0000 0.5310
vn -0.8473 -0.0000 0.5311
vn -0.5310 -0.0000 -0.8473
vn -0.5310 -0.0000 -0.8474
vn 0.5310 -0.0000 0.8474
vn 0.5310 -0.0000 0.8473
vn 1.0000 -0.0000 0.0027
vn -1.0000 -0.0000 -0.0027
vn 0.0027 -0.0000 -1.0000
vn -0.0027 -0.0000 1.0000
vn 0.0028 -0.0000 -1.0000
vn -0.0028 -0.0000 1.0000
vn 0.9574 -0.0000 -0.2889
vn -0.9574 -0.0000 0.2889
vn -0.2889 -0.0000 -0.9574
vn 0.2889 -0.0000 0.9574
vn 0.0133 -0.0000 -0.9999
vn -0.0133 -0.0000 0.9999
vn -0.9999 -0.0000 -0.0133
vn 0.9999 -0.0000 0.0133
vn 0.0134 -0.0000 -0.9999
vn 0.0132 -0.0000 -0.9999
vn -0.0134 -0.0000 0.9999
vn 0.7474 -0.0000 0.6644
vn 0.7474 -0.0000 0.6643
vn 0.7475 -0.0000 0.6643
vn -0.7475 -0.0000 -0.6643
vn -0.7474 -0.0000 -0.6644
vn 0.6622 -0.0000 -0.7493
vn 0.6623 -0.0000 -0.7493
vn -0.6623 -0.0000 0.7493
vn -0.6622 -0.0000 0.7493
vn -0.0000 -0.0000 -1.0000
vn -0.0000 -0.0000 1.0000
vn -1.0000 -0.0000 -0.0000
vn 1.0000 -0.0000 -0.0000
vt 0.500000 1.999500
vt 0.500000 1.000499
vt 0.000500 1.999500
vt 0.000500 1.000499
vt 0.500000 1.000500
vt 0.000500 1.000500
vt 0.500000 1.999501
vt 0.000500 1.999501
vt 0.984900 1.660000
vt 0.984900 1.010000
vt 0.514900 1.660000
vt 0.514900 1.010000
vt 0.999501 1.999500
vt 0.999500 1.000499
vt 0.510000 1.999501
vt 0.510000 1.000500
vt 0.510000 1.000499
vt 0.510000 1.999500
vt 0.999501 1.000500
vt 0.999500 1.999501
s 1
usemtl AIRCON.012
f 1/1/1 2/2/1 3/3/1
f 4/4/1 3/3/1 2/2/1
f 5/5/2 6/6/2 7/7/2
f 8/8/2 7/7/2 6/6/2
f 4/9/3 2/10/3 5/11/3
f 6/12/3 5/11/3 2/10/3
f 3/13/4 4/14/4 7/15/5
f 5/16/5 7/15/5 4/14/4
f 1/9/6 3/10/6 8/11/6
f 7/12/6 8/11/6 3/10/6
f 2/17/7 1/18/7 6/19/8
f 8/20/8 6/19/8 1/18/7
f 9/1/5 10/2/5 11/3/5
f 12/4/5 11/3/5 10/2/5
f 13/5/8 14/6/8 15/7/8
f 16/8/8 15/7/8 14/6/8
f 12/9/3 10/10/3 13/11/3
f 14/12/3 13/11/3 10/10/3
f 11/13/2 12/14/9 15/15/9
f 13/16/10 15/15/9 12/14/9
f 9/9/6 11/10/6 16/11/6
f 15/12/6 16/11/6 11/10/6
f 10/17/11 9/18/12 14/19/1
f 16/20/1 14/19/1 9/18/12
f 17/1/5 18/2/5 19/3/5
f 20/4/5 19/3/5 18/2/5
f 21/5/8 22/6/8 23/7/8
f 24/8/7 23/7/8 22/6/8
f 20/9/3 18/10/3 21/11/3
f 22/12/3 21/11/3 18/10/3
f 19/13/2 20/14/2 23/15/2
f 21/16/10 23/15/2 20/14/2
f 17/9/6 19/10/6 24/11/6
f 23/12/6 24/11/6 19/10/6
f 18/17/11 17/18/12 22/19/1
f 24/20/1 22/19/1 17/18/12
f 25/1/2 26/2/2 27/3/2
f 28/4/2 27/3/2 26/2/2
f 29/5/11 30/6/12 31/7/12
f 32/8/1 31/7/12 30/6/12
f 28/9/3 26/10/3 29/11/3
f 30/12/3 29/11/3 26/10/3
f 27/13/8 28/14/8 31/15/8
f 29/16/8 31/15/8 28/14/8
f 25/9/6 27/10/6 32/11/6
f 31/12/6 32/11/6 27/10/6
f 26/17/5 25/18/5 30/19/5
f 32/20/5 30/19/5 25/18/5
f 33/1/13 34/2/13 35/3/13
f 36/4/13 35/3/13 34/2/13
f 37/5/14 38/6/14 39/7/14
f 40/8/14 39/7/14 38/6/14
f 36/9/3 34/10/3 37/11/3
f 38/12/3 37/11/3 34/10/3
f 35/13/15 36/14/15 39/15/15
f 37/16/15 39/15/15 36/14/15
f 33/9/6 35/10/6 40/11/6
f 39/12/6 40/11/6 35/10/6
f 34/17/16 33/18/16 38/19/16
f 40/20/16 38/19/16 33/18/16
f 41/1/17 42/2/15 43/3/15
f 44/4/15 43/3/15 42/2/15
f 45/5/18 46/6/16 47/7/16
f 48/8/16 47/7/16 46/6/16
f 44/9/3 42/10/3 45/11/3
f 46/12/3 45/11/3 42/10/3
f 43/13/14 44/14/14 47/15/14
f 45/16/14 47/15/14 44/14/14
f 41/9/6 43/10/6 48/11/6
f 47/12/6 48/11/6 43/10/6
f 42/17/13 41/18/13 46/19/13
f 48/20/13 46/19/13 41/18/13
f 49/1/19 50/2/19 51/3/19
f 52/4/19 51/3/19 50/2/19
f 53/5/20 54/6/20 55/7/20
f 56/8/20 55/7/20 54/6/20
f 52/9/3 50/10/3 53/11/3
f 54/12/3 53/11/3 50/10/3
f 51/13/21 52/14/21 55/15/21
f 53/16/21 55/15/21 52/14/21
f 49/9/6 51/10/6 56/11/6
f 55/12/6 56/11/6 51/10/6
f 50/17/22 49/18/22 54/19/22
f 56/20/22 54/19/22 49/18/22
f 57/1/19 58/2/19 59/3/19
f 60/4/19 59/3/19 58/2/19
f 61/5/20 62/6/20 63/7/20
f 64/8/20 63/7/20 62/6/20
f 60/9/3 58/10/3 61/11/3
f 62/12/3 61/11/3 58/10/3
f 59/13/21 60/14/21 63/15/21
f 61/16/21 63/15/21 60/14/21
f 57/9/6 59/10/6 64/11/6
f 63/12/6 64/11/6 59/10/6
f 58/17/22 57/18/22 62/19/22
f 64/20/22 62/19/22 57/18/22
f 65/1/19 66/2/19 67/3/19
f 68/4/19 67/3/19 66/2/19
f 69/5/20 70/6/20 71/7/20
f 72/8/20 71/7/20 70/6/20
f 68/9/3 66/10/3 69/11/3
f 70/12/3 69/11/3 66/10/3
f 67/13/21 68/14/21 71/15/21
f 69/16/21 71/15/21 68/14/21
f 65/9/6 67/10/6 72/11/6
f 71/12/6 72/11/6 67/10/6
f 66/17/22 65/18/22 70/19/22
f 72/20/22 70/19/22 65/18/22
f 73/1/19 74/2/19 75/3/19
f 76/4/19 75/3/19 74/2/19
f 77/5/20 78/6/20 79/7/20
f 80/8/20 79/7/20 78/6/20
f 76/9/3 74/10/3 77/11/3
f 78/12/3 77/11/3 74/10/3
f 75/13/21 76/14/21 79/15/21
f 77/16/21 79/15/21 76/14/21
f 73/9/6 75/10/6 80/11/6
f 79/12/6 80/11/6 75/10/6
f 74/17/22 73/18/22 78/19/22
f 80/20/22 78/19/22 73/18/22
f 81/1/23 82/2/23 83/3/23
f 84/4/23 83/3/23 82/2/23
f 85/5/24 86/6/24 87/7/24
f 88/8/24 87/7/24 86/6/24
f 84/9/3 82/10/3 85/11/3
f 86/12/3 85/11/3 82/10/3
f 83/13/25 84/14/25 87/15/25
f 85/16/25 87/15/25 84/14/25
f 81/9/6 83/10/6 88/11/6
f 87/12/6 88/11/6 83/10/6
f 82/17/26 81/18/26 86/19/26
f 88/20/26 86/19/26 81/18/26
f 89/1/27 90/2/23 91/3/23
f 92/4/28 91/3/23 90/2/23
f 93/5/29 94/6/24 95/7/24
f 96/8/24 95/7/24 94/6/24
f 92/9/3 90/10/3 93/11/3
f 94/12/3 93/11/3 90/10/3
f 91/13/25 92/14/25 95/15/25
f 93/16/25 95/15/25 92/14/25
f 89/9/6 91/10/6 96/11/6
f 95/12/6 96/11/6 91/10/6
f 90/17/26 89/18/26 94/19/26
f 96/20/26 94/19/26 89/18/26
f 97/1/23 98/2/23 99/3/23
f 100/4/23 99/3/23 98/2/23
f 101/5/24 102/6/24 103/7/24
f 104/8/24 103/7/24 102/6/24
f 100/9/3 98/10/3 101/11/3
f 102/12/3 101/11/3 98/10/3
f 99/13/25 100/14/25 103/15/25
f 101/16/25 103/15/25 100/14/25
f 97/9/6 99/10/6 104/11/6
f 103/12/6 104/11/6 99/10/6
f 98/17/26 97/18/26 102/19/26
f 104/20/26 102/19/26 97/18/26
f 105/1/23 106/2/23 107/3/23
f 108/4/23 107/3/23 106/2/23
f 109/5/24 110/6/24 111/7/24
f 112/8/24 111/7/24 110/6/24
f 108/9/3 106/10/3 109/11/3
f 110/12/3 109/11/3 106/10/3
f 107/13/25 108/14/25 111/15/25
f 109/16/25 111/15/25 108/14/25
f 105/9/6 107/10/6 112/11/6
f 111/12/6 112/11/6 107/10/6
f 106/17/26 105/18/26 110/19/26
f 112/20/26 110/19/26 105/18/26
f 113/1/30 114/2/31 115/3/31
f 116/4/32 115/3/31 114/2/31
f 117/5/33 118/6/33 119/7/33
f 120/8/34 119/7/34 118/6/34
f 115/13/35 116/14/36 119/15/36
f 117/16/36 119/15/36 116/14/36
f 113/9/6 115/10/6 120/11/6
f 119/12/6 120/11/6 115/10/6
f 114/17/37 113/18/37 118/19/37
f 120/20/38 118/19/37 113/18/37
f 121/1/31 122/2/31 123/3/31
f 124/4/30 123/3/31 122/2/31
f 125/5/34 126/6/34 127/7/34
f 128/8/34 127/7/34 126/6/34
f 123/13/36 124/14/36 127/15/36
f 125/16/35 127/15/36 124/14/36
f 121/9/6 123/10/6 128/11/6
f 127/12/6 128/11/6 123/10/6
f 122/17/37 121/18/37 126/19/37
f 128/20/38 126/19/37 121/18/37
f 129/1/32 130/2/31 131/3/31
f 132/4/30 131/3/31 130/2/31
f 133/5/33 134/6/33 135/7/33
f 136/8/34 135/7/34 134/6/34
f 131/13/36 132/14/36 135/15/36
f 133/16/35 135/15/36 132/14/36
f 129/9/6 131/10/6 136/11/6
f 135/12/6 136/11/6 131/10/6
f 130/17/37 129/18/37 134/19/37
f 136/20/38 134/19/37 129/18/37
f 137/1/30 138/2/30 139/3/30
f 140/4/30 139/3/30 138/2/30
f 141/5/34 142/6/34 143/7/34
f 144/8/34 143/7/34 142/6/34
f 139/13/35 140/14/36 143/15/36
f 141/16/36 143/15/36 140/14/36
f 137/9/6 139/10/6 144/11/6
f 143/12/6 144/11/6 139/10/6
f 138/17/38 137/18/37 142/19/37
f 144/20/37 142/19/37 137/18/37
f 145/1/39 146/2/39 147/3/39
f 148/4/39 147/3/39 146/2/39
f 149/5/40 150/6/40 151/7/40
f 152/8/40 151/7/40 150/6/40
f 148/9/3 146/10/3 149/11/3
f 150/12/3 149/11/3 146/10/3
f 147/13/41 148/14/41 151/15/41
f 149/16/41 151/15/41 148/14/41
f 145/9/6 147/10/6 152/11/6
f 151/12/6 152/11/6 147/10/6
f 146/17/42 145/18/42 150/19/42
f 152/20/42 150/19/42 145/18/42
f 153/1/42 154/2/42 155/3/42
f 156/4/42 155/3/42 154/2/42
f 157/5/41 158/6/41 159/7/41
f 160/8/41 159/7/41 158/6/41
f 156/9/3 154/10/3 157/11/3
f 158/12/3 157/11/3 154/10/3
f 155/13/39 156/14/39 159/15/39
f 157/16/39 159/15/39 156/14/39
f 153/9/6 155/10/6 160/11/6
f 159/12/6 160/11/6 155/10/6
f 154/17/40 153/18/40 158/19/40
f 160/20/40 158/19/40 153/18/40
f 161/1/39 162/2/39 163/3/39
f 164/4/39 163/3/39 162/2/39
f 165/5/40 166/6/40 167/7/40
f 168/8/40 167/7/40 166/6/40
f 164/9/3 162/10/3 165/11/3
f 166/12/3 165/11/3 162/10/3
f 163/13/41 164/14/41 167/15/41
f 165/16/41 167/15/41 164/14/41
f 161/9/6 163/10/6 168/11/6
f 167/12/6 168/11/6 163/10/6
f 162/17/42 161/18/42 166/19/42
f 168/20/42 166/19/42 161/18/42
f 169/1/42 170/2/42 171/3/42
f 172/4/42 171/3/42 170/2/42
f 173/5/41 174/6/41 175/7/41
f 176/8/41 175/7/41 174/6/41
f 172/9/3 170/10/3 173/11/3
f 174/12/3 173/11/3 170/10/3
f 171/13/39 172/14/39 175/15/39
f 173/16/39 175/15/39 172/14/39
f 169/9/6 171/10/6 176/11/6
f 175/12/6 176/11/6 171/10/6
f 170/17/40 169/18/40 174/19/40
f 176/20/40 174/19/40 169/18/40
f 177/1/39 178/2/39 179/3/39
f 180/4/39 179/3/39 178/2/39
f 181/5/40 182/6/40 183/7/40
f 184/8/40 183/7/40 182/6/40
f 180/9/3 178/10/3 181/11/3
f 182/12/3 181/11/3 178/10/3
f 179/13/41 180/14/41 183/15/41
f 181/16/41 183/15/41 180/14/41
f 177/9/6 179/10/6 184/11/6
f 183/12/6 184/11/6 179/10/6
f 178/17/42 177/18/42 182/19/42
f 184/20/42 182/19/42 177/18/42
f 185/1/42 186/2/42 187/3/42
f 188/4/42 187/3/42 186/2/42
f 189/5/41 190/6/41 191/7/41
f 192/8/41 191/7/41 190/6/41
f 188/9/3 186/10/3 189/11/3
f 190/12/3 189/11/3 186/10/3
f 187/13/39 188/14/39 191/15/39
f 189/16/39 191/15/39 188/14/39
f 185/9/6 187/10/6 192/11/6
f 191/12/6 192/11/6 187/10/6
f 186/17/40 185/18/40 190/19/40
f 192/20/40 190/19/40 185/18/40
