# Blender 4.4.3
# www.blender.org
mtllib AIRCONOLD.mtl
o AIRCONOLD
v 2.537938 1.328545 -26.368580
v 1.996274 1.328545 -26.924219
v 2.575084 0.842815 -26.404793
v 2.033421 0.842815 -26.960432
v 3.023754 1.401006 -26.842176
v 3.060901 0.915275 -26.878389
v 2.482090 1.401006 -27.397816
v 2.519237 0.915275 -27.434029
v 8.018345 1.328545 -26.618269
v 7.284003 1.328545 -26.869026
v 8.035109 0.842815 -26.667362
v 7.300768 0.842815 -26.918119
v 8.237590 1.401006 -27.260330
v 8.254354 0.915275 -27.309423
v 7.503249 1.401006 -27.511087
v 7.520013 0.915275 -27.560181
v 9.735689 1.328545 -26.913712
v 9.029858 1.328545 -26.591320
v 9.714136 0.842815 -26.960899
v 9.008305 0.842815 -26.638508
v 9.453810 1.401006 -27.530846
v 9.432257 0.915275 -27.578033
v 8.747978 1.401006 -27.208454
v 8.726425 0.915275 -27.255642
v 15.289799 1.328545 -26.913712
v 14.583967 1.328545 -26.591318
v 15.268248 0.842815 -26.960899
v 14.562414 0.842815 -26.638506
v 15.007919 1.401006 -27.530846
v 14.986366 0.915275 -27.578033
v 14.302088 1.401006 -27.208452
v 14.280537 0.915275 -27.255640
v -26.905458 1.328545 -26.368580
v -27.447123 1.328545 -26.924219
v -26.868313 0.842815 -26.404793
v -27.409975 0.842815 -26.960432
v -26.419643 1.401006 -26.842176
v -26.382496 0.915275 -26.878389
v -26.961308 1.401006 -27.397816
v -26.924160 0.915275 -27.434029
v -21.425053 1.328545 -26.618269
v -22.159393 1.328545 -26.869026
v -21.408287 0.842815 -26.667362
v -22.142628 0.842815 -26.918119
v -21.205807 1.401006 -27.260330
v -21.189041 0.915275 -27.309423
v -21.940147 1.401006 -27.511087
v -21.923384 0.915275 -27.560181
v -19.707706 1.328545 -26.913712
v -20.413540 1.328545 -26.591320
v -19.729259 0.842815 -26.960899
v -20.435093 0.842815 -26.638508
v -19.989586 1.401006 -27.530846
v -20.011139 0.915275 -27.578033
v -20.695419 1.401006 -27.208454
v -20.716972 0.915275 -27.255642
v -14.153597 1.328545 -26.913712
v -14.859428 1.328545 -26.591318
v -14.175149 0.842815 -26.960899
v -14.880981 0.842815 -26.638506
v -14.435476 1.401006 -27.530846
v -14.457029 0.915275 -27.578033
v -15.141308 1.401006 -27.208452
v -15.162860 0.915275 -27.255640
v 67.060669 1.328545 -26.368580
v 66.519005 1.328545 -26.924219
v 67.097816 0.842815 -26.404793
v 66.556152 0.842815 -26.960432
v 67.546486 1.401006 -26.842176
v 67.583633 0.915275 -26.878389
v 67.004822 1.401006 -27.397816
v 67.041969 0.915275 -27.434029
v 72.541077 1.328545 -26.618269
v 71.806732 1.328545 -26.869026
v 72.557838 0.842815 -26.667362
v 71.823502 0.842815 -26.918119
v 72.760323 1.401006 -27.260330
v 72.777084 0.915275 -27.309423
v 72.025978 1.401006 -27.511087
v 72.042747 0.915275 -27.560181
v 74.258423 1.328545 -26.913712
v 73.552589 1.328545 -26.591320
v 74.236870 0.842815 -26.960899
v 73.531036 0.842815 -26.638508
v 73.976540 1.401006 -27.530846
v 73.954987 0.915275 -27.578033
v 73.270706 1.401006 -27.208454
v 73.249161 0.915275 -27.255642
v 79.812531 1.328545 -26.913712
v 79.106705 1.328545 -26.591318
v 79.790977 0.842815 -26.960899
v 79.085144 0.842815 -26.638506
v 79.530655 1.401006 -27.530846
v 79.509102 0.915275 -27.578033
v 78.824821 1.401006 -27.208452
v 78.803268 0.915275 -27.255640
v 37.617302 1.328545 -26.368580
v 37.075638 1.328545 -26.924219
v 37.654446 0.842815 -26.404793
v 37.112785 0.842815 -26.960432
v 38.103115 1.401006 -26.842176
v 38.140263 0.915275 -26.878389
v 37.561451 1.401006 -27.397816
v 37.598598 0.915275 -27.434029
v 43.097710 1.328545 -26.618269
v 42.363365 1.328545 -26.869026
v 43.114471 0.842815 -26.667362
v 42.380131 0.842815 -26.918119
v 43.316952 1.401006 -27.260330
v 43.333717 0.915275 -27.309423
v 42.582611 1.401006 -27.511087
v 42.599373 0.915275 -27.560181
v 44.815052 1.328545 -26.913712
v 44.109222 1.328545 -26.591320
v 44.793499 0.842815 -26.960899
v 44.087666 0.842815 -26.638508
v 44.533173 1.401006 -27.530846
v 44.511620 0.915275 -27.578033
v 43.827339 1.401006 -27.208454
v 43.805786 0.915275 -27.255642
v 50.369164 1.328545 -26.913712
v 49.663330 1.328545 -26.591318
v 50.347610 0.842815 -26.960899
v 49.641777 0.842815 -26.638506
v 50.087280 1.401006 -27.530846
v 50.065727 0.915275 -27.578033
v 49.381451 1.401006 -27.208452
v 49.359898 0.915275 -27.255640
v 102.647781 1.328545 -26.368580
v 102.106117 1.328545 -26.924219
v 102.684929 0.842815 -26.404793
v 102.143265 0.842815 -26.960432
v 103.133598 1.401006 -26.842176
v 103.170746 0.915275 -26.878389
v 102.591934 1.401006 -27.397816
v 102.629082 0.915275 -27.434029
v 108.128189 1.328545 -26.618269
v 107.393845 1.328545 -26.869026
v 108.144958 0.842815 -26.667362
v 107.410614 0.842815 -26.918119
v 108.347435 1.401006 -27.260330
v 108.364197 0.915275 -27.309423
v 107.613098 1.401006 -27.511087
v 107.629860 0.915275 -27.560181
v 109.845535 1.328545 -26.913712
v 109.139702 1.328545 -26.591320
v 109.823982 0.842815 -26.960899
v 109.118149 0.842815 -26.638508
v 109.563660 1.401006 -27.530846
v 109.542099 0.915275 -27.578033
v 108.857826 1.401006 -27.208454
v 108.836273 0.915275 -27.255642
v 115.399643 1.328545 -26.913712
v 114.693817 1.328545 -26.591318
v 115.378098 0.842815 -26.960899
v 114.672264 0.842815 -26.638506
v 115.117767 1.401006 -27.530846
v 115.096214 0.915275 -27.578033
v 114.411934 1.401006 -27.208452
v 114.390381 0.915275 -27.255640
v 132.091171 1.328545 -26.368580
v 131.549500 1.328545 -26.924219
v 132.128311 0.842815 -26.404793
v 131.586639 0.842815 -26.960432
v 132.576981 1.401006 -26.842176
v 132.614120 0.915275 -26.878389
v 132.035309 1.401006 -27.397816
v 132.072464 0.915275 -27.434029
v 137.571579 1.328545 -26.618269
v 136.837234 1.328545 -26.869026
v 137.588333 0.842815 -26.667362
v 136.853989 0.842815 -26.918119
v 137.790817 1.401006 -27.260330
v 137.807587 0.915275 -27.309423
v 137.056473 1.401006 -27.511087
v 137.073242 0.915275 -27.560181
v 139.288910 1.328545 -26.913712
v 138.583084 1.328545 -26.591320
v 139.267365 0.842815 -26.960899
v 138.561539 0.842815 -26.638508
v 139.007034 1.401006 -27.530846
v 138.985489 0.915275 -27.578033
v 138.301208 1.401006 -27.208454
v 138.279648 0.915275 -27.255642
v 144.843033 1.328545 -26.913712
v 144.137192 1.328545 -26.591318
v 144.821472 0.842815 -26.960899
v 144.115646 0.842815 -26.638506
v 144.561142 1.401006 -27.530846
v 144.539597 0.915275 -27.578033
v 143.855316 1.401006 -27.208452
v 143.833771 0.915275 -27.255640
v 536.793823 14.269639 -155.251450
v 536.793823 13.789515 -155.251450
v 537.120850 13.789515 -156.471924
v 537.120850 14.269639 -156.471924
v 535.900391 14.269639 -154.358017
v 535.900391 13.789515 -154.358017
v 534.679871 14.269639 -154.030991
v 534.679871 13.789515 -154.030991
v 533.459412 14.269639 -154.358017
v 533.459412 13.789515 -154.358017
v 532.565979 14.269639 -155.251450
v 532.565979 13.789515 -155.251450
v 532.238953 14.269639 -156.471924
v 532.238953 13.789515 -156.471924
v 532.565979 14.269639 -157.692383
v 532.565979 13.789515 -157.692383
v 533.459412 14.269638 -158.585815
v 533.459412 13.789514 -158.585815
v 534.679932 14.269638 -158.912842
v 534.679932 13.789514 -158.912842
v 535.900391 14.269638 -158.585815
v 535.900391 13.789514 -158.585815
v 536.793823 14.269639 -157.692383
v 536.793823 13.789515 -157.692383
v 536.793823 10.283852 -155.251450
v 537.120850 10.283852 -156.471924
v 535.900391 10.283852 -154.358017
v 534.679871 10.283852 -154.030991
v 533.459412 10.283852 -154.358017
v 532.565979 10.283852 -155.251450
v 532.238953 10.283852 -156.471924
v 532.565979 10.283852 -157.692383
v 533.459412 10.283851 -158.585815
v 534.679932 10.283851 -158.912842
v 535.900391 10.283851 -158.585815
v 536.793823 10.283852 -157.692383
vn -0.7120 -0.1062 0.6941
vn 0.6980 -0.0000 0.7161
vn 0.7120 0.1062 -0.6941
vn -0.6980 -0.0000 -0.7161
vn -0.6980 -0.0000 -0.7160
vn -0.3213 -0.1062 0.9410
vn 0.9463 -0.0000 0.3232
vn 0.9463 -0.0000 0.3231
vn 0.3213 0.1062 -0.9410
vn -0.9463 -0.0000 -0.3232
vn 0.4131 -0.1062 0.9045
vn 0.9096 -0.0000 -0.4155
vn -0.4131 0.1062 -0.9045
vn -0.9096 -0.0000 0.4155
vn -0.6981 -0.0000 -0.7160
vn -0.9463 -0.0000 -0.3231
vn 0.9464 -0.0000 0.3231
vn 0.6980 -0.0000 0.7160
vn 0.9463 0.0001 0.3232
vn -0.9464 -0.0000 -0.3231
vn 0.9659 -0.0000 0.2588
vn 0.8660 -0.0000 0.5000
vn 0.7071 -0.0000 0.7071
vn 0.8660 -0.0000 0.5001
vn -0.0000 -0.0000 1.0000
vn 0.2588 -0.0000 0.9659
vn -0.5000 -0.0000 0.8660
vn -0.7071 -0.0000 0.7071
vn -0.8660 -0.0000 0.5000
vn -0.9659 -0.0000 0.2588
vn -0.8661 -0.0000 0.5000
vn -0.8660 -0.0000 -0.5000
vn -0.9659 -0.0000 -0.2588
vn -0.7071 -0.0000 -0.7071
vn -0.0000 -0.0000 -1.0000
vn -0.2588 -0.0000 -0.9659
vn 0.5000 -0.0000 -0.8660
vn 0.8660 -0.0000 -0.5000
vn 0.9659 -0.0000 -0.2588
vn -0.2588 -0.0000 0.9659
vn 0.2588 -0.0000 -0.9659
vn 0.7071 -0.0000 -0.7071
vt 0.011070 1.998150
vt 0.499816 1.998158
vt 0.011074 0.999996
vt 0.499819 1.000004
vt 0.502027 1.996305
vt 1.001846 1.996312
vt 0.502030 0.999996
vt 1.001849 1.000004
vt -0.166667 1.999501
vt -0.166667 1.879162
vt -0.125000 1.879162
vt -0.125000 1.999501
vt -0.208333 1.999501
vt -0.208333 1.879162
vt -0.250000 1.999501
vt -0.250000 1.879162
vt -0.291667 1.999501
vt -0.291667 1.879162
vt -0.333333 1.999501
vt -0.333333 1.879162
vt -0.375000 1.999501
vt -0.375000 1.879162
vt -0.416667 1.999501
vt -0.416667 1.879162
vt -0.458333 1.999501
vt -0.458333 1.879162
vt -0.500000 1.999501
vt -0.500000 1.879162
vt -0.041667 1.999501
vt -0.041667 1.879162
vt 0.000000 1.879162
vt 0.000000 1.999501
vt -0.083333 1.999501
vt -0.083333 1.879162
vt -0.166667 1.000499
vt -0.125000 1.000499
vt -0.208333 1.000499
vt -0.250000 1.000499
vt -0.291667 1.000499
vt -0.333333 1.000499
vt -0.375000 1.000499
vt -0.416667 1.000499
vt -0.458333 1.000499
vt -0.500000 1.000499
vt -0.041667 1.000499
vt 0.000000 1.000499
vt -0.083333 1.000499
s 1
usemtl AIRCONOLD
f 1/1/1 2/2/1 3/3/1
f 4/4/1 3/3/1 2/2/1
f 5/5/2 1/6/2 6/7/2
f 3/8/2 6/7/2 1/6/2
f 7/1/3 5/2/3 8/3/3
f 6/4/3 8/3/3 5/2/3
f 2/5/4 7/6/4 4/7/4
f 8/8/5 4/7/5 7/6/5
f 9/1/6 10/2/6 11/3/6
f 12/4/6 11/3/6 10/2/6
f 13/5/7 9/6/7 14/7/7
f 11/8/8 14/7/8 9/6/8
f 15/1/9 13/2/9 16/3/9
f 14/4/9 16/3/9 13/2/9
f 10/5/10 15/6/10 12/7/10
f 16/8/10 12/7/10 15/6/10
f 17/1/11 18/2/11 19/3/11
f 20/4/11 19/3/11 18/2/11
f 21/5/12 17/6/12 22/7/12
f 19/8/12 22/7/12 17/6/12
f 23/1/13 21/2/13 24/3/13
f 22/4/13 24/3/13 21/2/13
f 18/5/14 23/6/14 20/7/14
f 24/8/14 20/7/14 23/6/14
f 25/1/11 26/2/11 27/3/11
f 28/4/11 27/3/11 26/2/11
f 29/5/12 25/6/12 30/7/12
f 27/8/12 30/7/12 25/6/12
f 31/1/13 29/2/13 32/3/13
f 30/4/13 32/3/13 29/2/13
f 26/5/14 31/6/14 28/7/14
f 32/8/14 28/7/14 31/6/14
f 33/1/1 34/2/1 35/3/1
f 36/4/1 35/3/1 34/2/1
f 37/5/2 33/6/2 38/7/2
f 35/8/2 38/7/2 33/6/2
f 39/1/3 37/2/3 40/3/3
f 38/4/3 40/3/3 37/2/3
f 34/5/4 39/6/4 36/7/4
f 40/8/15 36/7/15 39/6/15
f 41/1/6 42/2/6 43/3/6
f 44/4/6 43/3/6 42/2/6
f 45/5/7 41/6/7 46/7/7
f 43/8/7 46/7/7 41/6/7
f 47/1/9 45/2/9 48/3/9
f 46/4/9 48/3/9 45/2/9
f 42/5/10 47/6/10 44/7/10
f 48/8/16 44/7/16 47/6/16
f 49/1/11 50/2/11 51/3/11
f 52/4/11 51/3/11 50/2/11
f 53/5/12 49/6/12 54/7/12
f 51/8/12 54/7/12 49/6/12
f 55/1/13 53/2/13 56/3/13
f 54/4/13 56/3/13 53/2/13
f 50/5/14 55/6/14 52/7/14
f 56/8/14 52/7/14 55/6/14
f 57/1/11 58/2/11 59/3/11
f 60/4/11 59/3/11 58/2/11
f 61/5/12 57/6/12 62/7/12
f 59/8/12 62/7/12 57/6/12
f 63/1/13 61/2/13 64/3/13
f 62/4/13 64/3/13 61/2/13
f 58/5/14 63/6/14 60/7/14
f 64/8/14 60/7/14 63/6/14
f 65/1/1 66/2/1 67/3/1
f 68/4/1 67/3/1 66/2/1
f 69/5/2 65/6/2 70/7/2
f 67/8/2 70/7/2 65/6/2
f 71/1/3 69/2/3 72/3/3
f 70/4/3 72/3/3 69/2/3
f 66/5/4 71/6/4 68/7/4
f 72/8/4 68/7/4 71/6/4
f 73/1/6 74/2/6 75/3/6
f 76/4/6 75/3/6 74/2/6
f 77/5/7 73/6/7 78/7/7
f 75/8/7 78/7/7 73/6/7
f 79/1/9 77/2/9 80/3/9
f 78/4/9 80/3/9 77/2/9
f 74/5/10 79/6/10 76/7/10
f 80/8/10 76/7/10 79/6/10
f 81/1/11 82/2/11 83/3/11
f 84/4/11 83/3/11 82/2/11
f 85/5/12 81/6/12 86/7/12
f 83/8/12 86/7/12 81/6/12
f 87/1/13 85/2/13 88/3/13
f 86/4/13 88/3/13 85/2/13
f 82/5/14 87/6/14 84/7/14
f 88/8/14 84/7/14 87/6/14
f 89/1/11 90/2/11 91/3/11
f 92/4/11 91/3/11 90/2/11
f 93/5/12 89/6/12 94/7/12
f 91/8/12 94/7/12 89/6/12
f 95/1/13 93/2/13 96/3/13
f 94/4/13 96/3/13 93/2/13
f 90/5/14 95/6/14 92/7/14
f 96/8/14 92/7/14 95/6/14
f 97/1/1 98/2/1 99/3/1
f 100/4/1 99/3/1 98/2/1
f 101/5/2 97/6/2 102/7/2
f 99/8/2 102/7/2 97/6/2
f 103/1/3 101/2/3 104/3/3
f 102/4/3 104/3/3 101/2/3
f 98/5/4 103/6/4 100/7/4
f 104/8/15 100/7/15 103/6/15
f 105/1/6 106/2/6 107/3/6
f 108/4/6 107/3/6 106/2/6
f 109/5/8 105/6/8 110/7/8
f 107/8/7 110/7/7 105/6/7
f 111/1/9 109/2/9 112/3/9
f 110/4/9 112/3/9 109/2/9
f 106/5/10 111/6/10 108/7/10
f 112/8/16 108/7/16 111/6/16
f 113/1/11 114/2/11 115/3/11
f 116/4/11 115/3/11 114/2/11
f 117/5/12 113/6/12 118/7/12
f 115/8/12 118/7/12 113/6/12
f 119/1/13 117/2/13 120/3/13
f 118/4/13 120/3/13 117/2/13
f 114/5/14 119/6/14 116/7/14
f 120/8/14 116/7/14 119/6/14
f 121/1/11 122/2/11 123/3/11
f 124/4/11 123/3/11 122/2/11
f 125/5/12 121/6/12 126/7/12
f 123/8/12 126/7/12 121/6/12
f 127/1/13 125/2/13 128/3/13
f 126/4/13 128/3/13 125/2/13
f 122/5/14 127/6/14 124/7/14
f 128/8/14 124/7/14 127/6/14
f 129/1/1 130/2/1 131/3/1
f 132/4/1 131/3/1 130/2/1
f 133/5/2 129/6/2 134/7/2
f 131/8/2 134/7/2 129/6/2
f 135/1/3 133/2/3 136/3/3
f 134/4/3 136/3/3 133/2/3
f 130/5/4 135/6/4 132/7/4
f 136/8/4 132/7/4 135/6/4
f 137/1/6 138/2/6 139/3/6
f 140/4/6 139/3/6 138/2/6
f 141/5/7 137/6/7 142/7/7
f 139/8/17 142/7/17 137/6/17
f 143/1/9 141/2/9 144/3/9
f 142/4/9 144/3/9 141/2/9
f 138/5/10 143/6/10 140/7/10
f 144/8/10 140/7/10 143/6/10
f 145/1/11 146/2/11 147/3/11
f 148/4/11 147/3/11 146/2/11
f 149/5/12 145/6/12 150/7/12
f 147/8/12 150/7/12 145/6/12
f 151/1/13 149/2/13 152/3/13
f 150/4/13 152/3/13 149/2/13
f 146/5/14 151/6/14 148/7/14
f 152/8/14 148/7/14 151/6/14
f 153/1/11 154/2/11 155/3/11
f 156/4/11 155/3/11 154/2/11
f 157/5/12 153/6/12 158/7/12
f 155/8/12 158/7/12 153/6/12
f 159/1/13 157/2/13 160/3/13
f 158/4/13 160/3/13 157/2/13
f 154/5/14 159/6/14 156/7/14
f 160/8/14 156/7/14 159/6/14
f 161/1/1 162/2/1 163/3/1
f 164/4/1 163/3/1 162/2/1
f 165/5/18 161/6/18 166/7/18
f 163/8/18 166/7/18 161/6/18
f 167/1/3 165/2/3 168/3/3
f 166/4/3 168/3/3 165/2/3
f 162/5/4 167/6/4 164/7/4
f 168/8/4 164/7/4 167/6/4
f 169/1/6 170/2/6 171/3/6
f 172/4/6 171/3/6 170/2/6
f 173/5/17 169/6/17 174/7/17
f 171/8/19 174/7/19 169/6/19
f 175/1/9 173/2/9 176/3/9
f 174/4/9 176/3/9 173/2/9
f 170/5/20 175/6/20 172/7/20
f 176/8/10 172/7/10 175/6/10
f 177/1/11 178/2/11 179/3/11
f 180/4/11 179/3/11 178/2/11
f 181/5/12 177/6/12 182/7/12
f 179/8/12 182/7/12 177/6/12
f 183/1/13 181/2/13 184/3/13
f 182/4/13 184/3/13 181/2/13
f 178/5/14 183/6/14 180/7/14
f 184/8/14 180/7/14 183/6/14
f 185/1/11 186/2/11 187/3/11
f 188/4/11 187/3/11 186/2/11
f 189/5/12 185/6/12 190/7/12
f 187/8/12 190/7/12 185/6/12
f 191/1/13 189/2/13 192/3/13
f 190/4/13 192/3/13 189/2/13
f 186/5/14 191/6/14 188/7/14
f 192/8/14 188/7/14 191/6/14
f 193/9/21 194/10/22 195/11/21
f 195/11/21 196/12/21 193/9/21
f 197/13/23 198/14/23 194/10/22
f 194/10/24 193/9/23 197/13/23
f 199/15/25 200/16/25 198/14/26
f 198/14/26 197/13/26 199/15/25
f 201/17/27 202/18/27 200/16/25
f 200/16/25 199/15/25 201/17/27
f 203/19/28 204/20/29 202/18/27
f 202/18/27 201/17/27 203/19/28
f 205/21/30 206/22/30 204/20/29
f 204/20/31 203/19/30 205/21/30
f 207/23/32 208/24/32 206/22/33
f 206/22/33 205/21/33 207/23/32
f 209/25/34 210/26/34 208/24/32
f 208/24/32 207/23/32 209/25/34
f 211/27/35 212/28/35 210/26/36
f 210/26/36 209/25/36 211/27/35
f 213/29/37 214/30/37 212/31/35
f 212/31/35 211/32/35 213/29/37
f 215/33/38 216/34/38 214/30/37
f 214/30/37 213/29/37 215/33/38
f 196/12/39 195/11/39 216/34/38
f 216/34/38 215/33/38 196/12/39
f 217/35/22 218/36/21 195/11/21
f 195/11/21 194/10/22 217/35/22
f 219/37/23 217/35/22 194/10/22
f 194/10/22 198/14/23 219/37/23
f 220/38/26 219/37/26 198/14/26
f 198/14/26 200/16/25 220/38/26
f 221/39/27 220/38/40 200/16/25
f 200/16/25 202/18/27 221/39/27
f 222/40/29 221/39/27 202/18/27
f 202/18/27 204/20/29 222/40/29
f 223/41/30 222/40/29 204/20/29
f 204/20/29 206/22/30 223/41/30
f 224/42/32 223/41/33 206/22/33
f 206/22/33 208/24/32 224/42/32
f 225/43/34 224/42/32 208/24/32
f 208/24/32 210/26/34 225/43/34
f 226/44/36 225/43/36 210/26/36
f 210/26/36 212/28/35 226/44/36
f 227/45/41 226/46/41 212/31/35
f 212/31/35 214/30/37 227/45/41
f 228/47/38 227/45/42 214/30/37
f 214/30/37 216/34/38 228/47/38
f 218/36/39 228/47/38 216/34/38
f 216/34/38 195/11/39 218/36/39
