# Blender 4.4.3
# www.blender.org
mtllib BARRELA.mtl
o BARRELA
v 153.805618 -1.667088 -19.743725
v 153.805618 -1.667088 -20.266602
v 153.988464 -1.667088 -20.005163
v 153.509766 -1.667088 -20.166742
v 153.509766 -1.667088 -19.843584
v 153.794327 -1.588799 -20.227230
v 153.951920 -1.588799 -20.005163
v 153.539322 -1.588799 -20.142408
v 153.539322 -1.588799 -19.867918
v 153.794327 -1.588799 -19.783096
v 153.788834 -0.846376 -20.209930
v 153.934158 -0.846375 -20.005163
v 153.553711 -0.846375 -20.131716
v 153.553711 -0.846375 -19.878611
v 153.788834 -0.846375 -19.800396
v 20.867796 11.544666 -341.250610
v 20.588192 11.544666 -341.686554
v 20.886692 11.544666 -341.328827
v 20.392221 11.544666 -341.451355
v 20.802464 11.544666 -341.210236
v 20.727430 11.544666 -341.182587
v 20.883522 11.544666 -341.569244
v 20.740307 11.622955 -341.629517
v 20.852575 11.622955 -341.549805
v 20.749989 11.544666 -341.658966
v 20.430206 11.622955 -341.446503
v 20.599577 11.622955 -341.647217
v 20.576244 11.622955 -341.214081
v 20.564156 11.544666 -341.177734
v 20.782602 11.622955 -341.239807
v 20.718220 11.622955 -341.214417
v 20.856071 11.622955 -341.344452
v 20.837284 11.622955 -341.277924
v 20.734964 12.365378 -341.616058
v 20.837530 12.365378 -341.540344
v 20.448067 12.365378 -341.445099
v 20.604132 12.365378 -341.629639
v 20.582727 12.365378 -341.230774
v 20.773838 12.365378 -341.252777
v 20.714546 12.365378 -341.228638
v 20.841921 12.365378 -341.350891
v 20.823431 12.365378 -341.289642
v 21.009233 11.544666 -342.320038
v 20.513136 11.544666 -342.485229
v 20.818954 11.544666 -342.576141
v 20.514410 11.544666 -342.172974
v 20.821014 11.544666 -342.070892
v 20.546925 11.622955 -342.462097
v 20.807407 11.622955 -342.541443
v 20.546839 11.622955 -342.193359
v 20.807268 11.622955 -342.106628
v 20.968309 11.622955 -342.321777
v 20.561604 12.365378 -342.451416
v 20.801794 12.365378 -342.524597
v 20.561525 12.365378 -342.203613
v 20.801666 12.365378 -342.123657
v 20.950159 12.365378 -342.322021
v 20.701847 11.544666 -341.897308
v 20.205750 11.544666 -342.062500
v 20.511568 11.544666 -342.153381
v 20.207022 11.544666 -341.750244
v 20.513626 11.544666 -341.648163
v 20.239536 11.622955 -342.039337
v 20.500021 11.622955 -342.118713
v 20.239452 11.622955 -341.770599
v 20.499882 11.622955 -341.683899
v 20.660923 11.622955 -341.899017
v 20.254217 12.365378 -342.028687
v 20.494406 12.365378 -342.101868
v 20.254137 12.365378 -341.780884
v 20.494278 12.365378 -341.700897
v 20.642773 12.365378 -341.899292
v 21.173946 11.544666 -341.834534
v 20.677849 11.544666 -341.999725
v 20.983667 11.544666 -342.090607
v 20.679121 11.544666 -341.687469
v 20.985725 11.544666 -341.585358
v 20.711637 11.622955 -341.976562
v 20.972120 11.622955 -342.055939
v 20.711552 11.622955 -341.707825
v 20.971981 11.622955 -341.621124
v 21.133022 11.622955 -341.836243
v 20.726316 12.365378 -341.965881
v 20.966507 12.365378 -342.039062
v 20.726236 12.365378 -341.718079
v 20.966377 12.365378 -341.638123
v 21.114872 12.365378 -341.836517
v 20.894554 11.544666 -341.488129
v 20.863716 11.622955 -341.480377
v 20.848972 12.365378 -341.476257
v 20.901834 11.544666 -341.407043
v 20.871105 11.622955 -341.410980
v 20.856657 12.365378 -341.412140
v 11.132156 11.477367 -343.124115
v 10.853964 11.477367 -343.566833
v 11.147883 11.477367 -343.442749
v 10.656584 11.477367 -343.324860
v 10.828516 11.477367 -343.051239
v 10.865348 11.555656 -343.527496
v 11.116937 11.555656 -343.423309
v 10.694567 11.555656 -343.320007
v 10.840607 11.555656 -343.087585
v 11.101645 11.555656 -343.151428
v 10.869904 12.298079 -343.509918
v 11.101892 12.298079 -343.413849
v 10.712427 12.298079 -343.318604
v 10.847090 12.298079 -343.104279
v 11.087791 12.298079 -343.163147
v 11.273595 11.477367 -344.193542
v 10.777498 11.477367 -344.358734
v 11.083316 11.477367 -344.449646
v 10.778770 11.477367 -344.046478
v 11.085375 11.477367 -343.944397
v 10.811285 11.555656 -344.335602
v 11.071769 11.555656 -344.414948
v 10.811200 11.555656 -344.066864
v 11.071630 11.555656 -343.980133
v 11.232670 11.555656 -344.195282
v 10.825965 12.298079 -344.324921
v 11.066155 12.298079 -344.398102
v 10.825886 12.298079 -344.077118
v 11.066027 12.298079 -343.997162
v 11.214521 12.298079 -344.195526
v 10.966208 11.477367 -343.770813
v 10.470111 11.477367 -343.936005
v 10.775929 11.477367 -344.026886
v 10.471384 11.477367 -343.623749
v 10.777988 11.477367 -343.521667
v 10.503899 11.555656 -343.912842
v 10.764381 11.555656 -343.992218
v 10.503813 11.555656 -343.644104
v 10.764243 11.555656 -343.557404
v 10.925283 11.555656 -343.772522
v 10.518579 12.298079 -343.902191
v 10.758768 12.298079 -343.975372
v 10.518499 12.298079 -343.654388
v 10.758640 12.298079 -343.574402
v 10.907134 12.298079 -343.772797
v 11.438307 11.477367 -343.708038
v 10.942210 11.477367 -343.873230
v 11.248029 11.477367 -343.964111
v 10.943483 11.477367 -343.560974
v 11.250088 11.477367 -343.458862
v 10.975998 11.555656 -343.850067
v 11.236481 11.555656 -343.929443
v 10.975912 11.555656 -343.581329
v 11.236342 11.555656 -343.494629
v 11.397383 11.555656 -343.709747
v 10.990678 12.298079 -343.839386
v 11.230867 12.298079 -343.912567
v 10.990599 12.298079 -343.591583
v 11.230740 12.298079 -343.511627
v 11.379234 12.298079 -343.710022
v -278.251587 20.147837 -452.408112
v -278.529785 20.147837 -452.850861
v -278.235840 20.147837 -452.726776
v -278.727173 20.147837 -452.608887
v -278.555237 20.147837 -452.335266
v -278.518402 20.226126 -452.811493
v -278.266815 20.226126 -452.707336
v -278.689178 20.226126 -452.604004
v -278.543152 20.226126 -452.371582
v -278.282104 20.226126 -452.435425
v -278.513855 20.968548 -452.793945
v -278.281830 20.968548 -452.697876
v -278.671326 20.968548 -452.602600
v -278.536652 20.968548 -452.388306
v -278.295959 20.968548 -452.447174
v -278.110138 20.147837 -453.477570
v -278.606232 20.147837 -453.642761
v -278.300415 20.147837 -453.733643
v -278.604980 20.147837 -453.330505
v -278.298370 20.147837 -453.228394
v -278.572449 20.226126 -453.619598
v -278.311981 20.226126 -453.698975
v -278.572540 20.226126 -453.350861
v -278.312103 20.226126 -453.264130
v -278.151062 20.226126 -453.479279
v -278.557770 20.968548 -453.608917
v -278.317566 20.968548 -453.682098
v -278.557861 20.968548 -453.361115
v -278.317719 20.968548 -453.281158
v -278.169220 20.968548 -453.479523
v -278.417542 20.147837 -453.054810
v -278.913635 20.147837 -453.220001
v -278.607819 20.147837 -453.310913
v -278.912354 20.147837 -452.907776
v -278.605774 20.147837 -452.805664
v -278.879852 20.226126 -453.196869
v -278.619354 20.226126 -453.276245
v -278.879944 20.226126 -452.928131
v -278.619507 20.226126 -452.841400
v -278.458466 20.226126 -453.056549
v -278.865173 20.968548 -453.186188
v -278.624969 20.968548 -453.259369
v -278.865234 20.968548 -452.938385
v -278.625122 20.968548 -452.858429
v -278.476624 20.968548 -453.056793
v -277.945435 20.147837 -452.992035
v -278.441528 20.147837 -453.157227
v -278.135712 20.147837 -453.248108
v -278.440277 20.147837 -452.844971
v -278.133667 20.147837 -452.742889
v -278.407745 20.226126 -453.134094
v -278.147247 20.226126 -453.213440
v -278.407837 20.226126 -452.865356
v -278.147400 20.226126 -452.778625
v -277.986359 20.226126 -452.993774
v -278.393066 20.968548 -453.123413
v -278.152863 20.968548 -453.196594
v -278.393158 20.968548 -452.875610
v -278.153015 20.968548 -452.795654
v -278.004517 20.968548 -452.994019
v 267.922699 13.075961 -423.084106
v 268.150085 13.075960 -423.554962
v 268.201050 13.075960 -423.240021
v 267.840240 13.075960 -423.593719
v 267.699707 13.075960 -423.302734
v 268.122803 13.154250 -423.524414
v 268.168121 13.154250 -423.255920
v 267.856293 13.154250 -423.558929
v 267.736908 13.154250 -423.311768
v 267.929626 13.154251 -423.124512
v 268.110321 13.896672 -423.511230
v 268.152130 13.896672 -423.263641
v 267.864594 13.896672 -423.543060
v 267.754486 13.896672 -423.315155
v 267.932220 13.896673 -423.142456
v 268.903961 13.075960 -423.532227
v 268.780487 13.075960 -424.040314
v 269.019928 13.075960 -423.829437
v 268.516571 13.075960 -423.873413
v 268.592896 13.075960 -423.559387
v 268.778809 13.154250 -423.999390
v 268.984406 13.154250 -423.820801
v 268.551056 13.154250 -423.856750
v 268.615875 13.154250 -423.590027
v 268.883698 13.154250 -423.567810
v 268.777557 13.896672 -423.981262
v 268.967133 13.896672 -423.816620
v 268.567566 13.896672 -423.849731
v 268.627319 13.896672 -423.603821
v 268.874298 13.896672 -423.583313
v 268.382538 13.075960 -423.568176
v 268.259064 13.075960 -424.076263
v 268.498474 13.075960 -423.865417
v 267.995148 13.075960 -423.909363
v 268.071472 13.075960 -423.595337
v 268.257385 13.154250 -424.035339
v 268.462952 13.154250 -423.856781
v 268.029633 13.154250 -423.892700
v 268.094452 13.154250 -423.625977
v 268.362274 13.154250 -423.603760
v 268.256134 13.896672 -424.017242
v 268.445709 13.896672 -423.852570
v 268.046112 13.896672 -423.885712
v 268.105896 13.896672 -423.639771
v 268.352844 13.896672 -423.619293
v 268.580048 13.075961 -423.134827
v 268.456573 13.075960 -423.642883
v 268.695984 13.075960 -423.432037
v 268.192657 13.075960 -423.476013
v 268.268982 13.075961 -423.161987
v 268.454895 13.154250 -423.601990
v 268.660461 13.154250 -423.423401
v 268.227142 13.154250 -423.459351
v 268.291962 13.154250 -423.192627
v 268.559784 13.154250 -423.170410
v 268.453644 13.896672 -423.583862
v 268.643219 13.896672 -423.419220
v 268.243652 13.896672 -423.452332
v 268.303406 13.896672 -423.206390
v 268.550354 13.896672 -423.185913
v 269.169098 13.075961 -423.868164
v 269.396515 13.075961 -424.339020
v 269.447449 13.075961 -424.024078
v 269.086670 13.075961 -424.377777
v 268.946106 13.075961 -424.086761
v 269.369202 13.154250 -424.308472
v 269.414551 13.154250 -424.039978
v 269.102692 13.154250 -424.343018
v 268.983337 13.154250 -424.095825
v 269.176056 13.154250 -423.908539
v 269.356720 13.896672 -424.295288
v 269.398529 13.896672 -424.047699
v 269.110992 13.896672 -424.327118
v 269.000916 13.896672 -424.099213
v 269.178650 13.896672 -423.926514
v 270.150391 13.075960 -424.316284
v 270.026917 13.075960 -424.824341
v 270.266327 13.075960 -424.613525
v 269.763000 13.075960 -424.657471
v 269.839325 13.075960 -424.343445
v 270.025238 13.154250 -424.783447
v 270.230804 13.154250 -424.604858
v 269.797485 13.154250 -424.640808
v 269.862305 13.154250 -424.374084
v 270.130127 13.154250 -424.351868
v 270.023987 13.896672 -424.765320
v 270.213562 13.896672 -424.600677
v 269.813995 13.896672 -424.633789
v 269.873749 13.896672 -424.387848
v 270.120697 13.896672 -424.367401
v 269.628967 13.075960 -424.352234
v 269.505463 13.075960 -424.860321
v 269.744873 13.075960 -424.649475
v 269.241547 13.075960 -424.693420
v 269.317871 13.075960 -424.379395
v 269.503784 13.154250 -424.819397
v 269.709381 13.154250 -424.640839
v 269.276031 13.154250 -424.676758
v 269.340851 13.154250 -424.410034
v 269.608673 13.154250 -424.387817
v 269.502533 13.896672 -424.801300
v 269.692108 13.896672 -424.636658
v 269.292542 13.896672 -424.669769
v 269.352295 13.896672 -424.423828
v 269.599243 13.896672 -424.403351
v 269.826477 13.075960 -423.918884
v 269.702972 13.075960 -424.426941
v 269.942413 13.075960 -424.216095
v 269.439056 13.075960 -424.260040
v 269.515381 13.075960 -423.946045
v 269.701294 13.154250 -424.386017
v 269.906891 13.154250 -424.207458
v 269.473541 13.154250 -424.243408
v 269.538361 13.154250 -423.976654
v 269.806183 13.154250 -423.954468
v 269.700043 13.896672 -424.367920
v 269.889618 13.896672 -424.203247
v 269.490051 13.896672 -424.236389
v 269.549835 13.896672 -423.990448
v 269.796753 13.896672 -423.969971
v 226.385544 13.075963 -405.285065
v 225.914703 13.075963 -405.512451
v 226.229645 13.075963 -405.563416
v 225.875946 13.075963 -405.202606
v 226.166946 13.075963 -405.062073
v 225.945251 13.154252 -405.485168
v 226.213760 13.154252 -405.530518
v 225.910736 13.154252 -405.218658
v 226.157898 13.154252 -405.099274
v 226.345169 13.154252 -405.291992
v 225.958450 13.896674 -405.472717
v 226.206024 13.896674 -405.514496
v 225.926605 13.896674 -405.226959
v 226.154510 13.896674 -405.116852
v 226.327209 13.896674 -405.294586
v 225.937454 13.075963 -406.266327
v 225.429367 13.075963 -406.142883
v 225.640228 13.075963 -406.382294
v 225.596268 13.075963 -405.878967
v 225.910278 13.075963 -405.955261
v 225.470276 13.154252 -406.141205
v 225.648849 13.154252 -406.346771
v 225.612915 13.154252 -405.913452
v 225.879639 13.154252 -405.978241
v 225.901855 13.154252 -406.246063
v 225.488388 13.896674 -406.139954
v 225.653046 13.896674 -406.329498
v 225.619919 13.896674 -405.929932
v 225.865860 13.896674 -405.989685
v 225.886353 13.896674 -406.236664
v 225.901489 13.075963 -405.744904
v 225.393402 13.075963 -405.621429
v 225.604279 13.075963 -405.860840
v 225.560303 13.075963 -405.357513
v 225.874313 13.075963 -405.433838
v 225.434326 13.154252 -405.619751
v 225.612900 13.154252 -405.825317
v 225.576965 13.154252 -405.391998
v 225.843689 13.154252 -405.456818
v 225.865891 13.154252 -405.724640
v 225.452438 13.896674 -405.618500
v 225.617096 13.896674 -405.808075
v 225.583954 13.896674 -405.408508
v 225.829895 13.896674 -405.468262
v 225.850372 13.896674 -405.715210
v 226.334839 13.075963 -405.942413
v 225.826767 13.075963 -405.818939
v 226.037628 13.075963 -406.058350
v 225.993668 13.075963 -405.555023
v 226.307678 13.075963 -405.631348
v 225.867691 13.154252 -405.817261
v 226.046249 13.154252 -406.022827
v 226.010315 13.154252 -405.589508
v 226.277054 13.154252 -405.654327
v 226.299255 13.154252 -405.922150
v 225.885788 13.896674 -405.816010
v 226.050461 13.896674 -406.005585
v 226.017319 13.896674 -405.606018
v 226.263290 13.896674 -405.665771
v 226.283752 13.896674 -405.912720
v 225.601471 13.075963 -406.531464
v 225.130630 13.075963 -406.758850
v 225.445587 13.075963 -406.809814
v 225.091888 13.075963 -406.449005
v 225.382874 13.075963 -406.308472
v 225.161179 13.154252 -406.731567
v 225.429688 13.154252 -406.776886
v 225.126663 13.154252 -406.465057
v 225.373825 13.154252 -406.345673
v 225.561096 13.154252 -406.538391
v 225.174377 13.896674 -406.719086
v 225.421967 13.896674 -406.760895
v 225.142548 13.896674 -406.473358
v 225.370453 13.896674 -406.363251
v 225.543137 13.896674 -406.540985
v 225.153381 13.075963 -407.512726
v 224.645294 13.075963 -407.389252
v 224.856155 13.075963 -407.628693
v 224.812195 13.075963 -407.125336
v 225.126205 13.075963 -407.201660
v 224.686218 13.154252 -407.387573
v 224.864777 13.154252 -407.593170
v 224.828842 13.154252 -407.159821
v 225.095581 13.154252 -407.224640
v 225.117783 13.154252 -407.492462
v 224.704315 13.896674 -407.386322
v 224.868988 13.896674 -407.575897
v 224.835861 13.896674 -407.176300
v 225.081787 13.896674 -407.236084
v 225.102280 13.896674 -407.483063
v 225.117416 13.075963 -406.991302
v 224.609344 13.075963 -406.867828
v 224.820206 13.075963 -407.107239
v 224.776230 13.075963 -406.603912
v 225.090256 13.075963 -406.680206
v 224.650253 13.154252 -406.866150
v 224.828827 13.154252 -407.071716
v 224.792892 13.154252 -406.638397
v 225.059616 13.154252 -406.703217
v 225.081833 13.154252 -406.971039
v 224.668365 13.896674 -406.864899
v 224.833023 13.896674 -407.054474
v 224.799896 13.896674 -406.654877
v 225.045837 13.896674 -406.714630
v 225.066299 13.896674 -406.961609
v 225.550781 13.075963 -407.188812
v 225.042694 13.075963 -407.065338
v 225.253571 13.075963 -407.304749
v 225.209595 13.075963 -406.801422
v 225.523621 13.075963 -406.877716
v 225.083618 13.154252 -407.063660
v 225.262192 13.154252 -407.269226
v 225.226257 13.154252 -406.835907
v 225.492981 13.154252 -406.900726
v 225.515182 13.154252 -407.168549
v 225.101730 13.896674 -407.062408
v 225.266388 13.896674 -407.251984
v 225.233246 13.896674 -406.852386
v 225.479218 13.896674 -406.912170
v 225.499695 13.896674 -407.159119
v 339.437866 13.016584 -411.692413
v 339.159668 13.016584 -412.135162
v 339.453583 13.016584 -412.011078
v 338.962280 13.016584 -411.893188
v 339.134216 13.016584 -411.619568
v 339.171082 13.094873 -412.095825
v 339.422638 13.094873 -411.991638
v 339.000275 13.094873 -411.888306
v 339.146301 13.094873 -411.655914
v 339.407349 13.094873 -411.719757
v 339.175629 13.837296 -412.078247
v 339.407593 13.837296 -411.982178
v 339.018127 13.837296 -411.886902
v 339.152802 13.837296 -411.672607
v 339.393494 13.837296 -411.731476
v 339.579315 13.016584 -412.761871
v 339.083191 13.016584 -412.927063
v 339.389038 13.016584 -413.017944
v 339.084473 13.016584 -412.614807
v 339.391083 13.016584 -412.512695
v 339.117004 13.094873 -412.903900
v 339.377472 13.094873 -412.983276
v 339.116913 13.094873 -412.635162
v 339.377319 13.094873 -412.548462
v 339.538391 13.094873 -412.763580
v 339.131683 13.837296 -412.893219
v 339.371857 13.837296 -412.966400
v 339.131592 13.837296 -412.645447
v 339.371735 13.837296 -412.565460
v 339.520233 13.837296 -412.763855
v 339.271912 13.016584 -412.339142
v 338.775818 13.016584 -412.504333
v 339.081635 13.016584 -412.595215
v 338.777100 13.016584 -412.192078
v 339.083710 13.016584 -412.089966
v 338.809601 13.094873 -412.481171
v 339.070099 13.094873 -412.560547
v 338.809509 13.094873 -412.212433
v 339.069946 13.094873 -412.125702
v 339.230988 13.094873 -412.340851
v 338.824280 13.837296 -412.470490
v 339.064484 13.837296 -412.543671
v 338.824219 13.837296 -412.222687
v 339.064362 13.837296 -412.142731
v 339.212830 13.837296 -412.341125
v 339.744019 13.016584 -412.276337
v 339.247925 13.016584 -412.441559
v 339.553741 13.016584 -412.532440
v 339.249207 13.016584 -412.129272
v 339.555786 13.016584 -412.027191
v 339.281708 13.094873 -412.418396
v 339.542175 13.094873 -412.497742
v 339.281616 13.094873 -412.149658
v 339.542053 13.094873 -412.062927
v 339.703094 13.094873 -412.278076
v 339.296387 13.837296 -412.407715
v 339.536591 13.837296 -412.480896
v 339.296326 13.837296 -412.159912
v 339.536438 13.837296 -412.079956
v 339.684937 13.837296 -412.278320
v 564.702637 -3.266118 -94.601280
v 564.702637 -3.266118 -95.124161
v 564.885498 -3.266118 -94.862724
v 564.406738 -3.266118 -95.024300
v 564.406738 -3.266118 -94.701149
v 564.691345 -3.187829 -95.084793
v 564.848938 -3.187829 -94.862717
v 564.436340 -3.187829 -94.999969
v 564.436340 -3.187829 -94.725479
v 564.691345 -3.187829 -94.640656
v 564.685852 -2.445407 -95.067490
v 564.831177 -2.445407 -94.862717
v 564.450684 -2.445407 -94.989281
v 564.450684 -2.445407 -94.736176
v 564.685852 -2.445407 -94.657959
v 566.406799 -3.266118 -94.601288
v 566.406799 -3.266118 -95.124161
v 566.589661 -3.266118 -94.862717
v 566.110962 -3.266118 -95.024307
v 566.110962 -3.266118 -94.701141
v 566.395508 -3.187829 -95.084793
v 566.553101 -3.187829 -94.862724
v 566.140503 -3.187829 -94.999962
v 566.140503 -3.187829 -94.725479
v 566.395508 -3.187829 -94.640656
v 566.390015 -2.445407 -95.067490
v 566.535339 -2.445407 -94.862724
v 566.154907 -2.445407 -94.989273
v 566.154907 -2.445407 -94.736168
v 566.390015 -2.445407 -94.657959
v 567.758423 -3.266118 -94.601288
v 567.758423 -3.266118 -95.124161
v 567.941284 -3.266118 -94.862724
v 567.462524 -3.266118 -95.024292
v 567.462524 -3.266118 -94.701149
v 567.747131 -3.187829 -95.084793
v 567.904724 -3.187829 -94.862717
v 567.492126 -3.187829 -94.999969
v 567.492126 -3.187829 -94.725471
v 567.747131 -3.187829 -94.640656
v 567.741638 -2.445407 -95.067490
v 567.886963 -2.445407 -94.862717
v 567.506470 -2.445407 -94.989281
v 567.506470 -2.445407 -94.736176
v 567.741638 -2.445407 -94.657959
v 569.179199 -3.266118 -94.601288
v 569.179199 -3.266118 -95.124161
v 569.362061 -3.266118 -94.862724
v 568.883362 -3.266118 -95.024307
v 568.883362 -3.266118 -94.701149
v 569.167908 -3.187829 -95.084793
v 569.325500 -3.187829 -94.862724
v 568.912903 -3.187829 -94.999969
v 568.912903 -3.187829 -94.725471
v 569.167908 -3.187829 -94.640656
v 569.162415 -2.445407 -95.067490
v 569.307739 -2.445407 -94.862717
v 568.927307 -2.445407 -94.989281
v 568.927307 -2.445407 -94.736168
v 569.162415 -2.445407 -94.657959
v 89.942627 -1.667088 -19.743721
v 89.942627 -1.667088 -20.266602
v 90.125473 -1.667088 -20.005161
v 89.646759 -1.667088 -20.166740
v 89.646759 -1.667088 -19.843582
v 89.931335 -1.588799 -20.227230
v 90.088928 -1.588799 -20.005161
v 89.676331 -1.588799 -20.142406
v 89.676331 -1.588799 -19.867916
v 89.931335 -1.588799 -19.783096
v 89.925842 -0.846376 -20.209927
v 90.071167 -0.846375 -20.005161
v 89.690704 -0.846375 -20.131714
v 89.690704 -0.846375 -19.878609
v 89.925842 -0.846375 -19.800396
v 91.236984 -1.667088 -19.743721
v 91.236984 -1.667088 -20.266602
v 91.419846 -1.667088 -20.005161
v 90.941132 -1.667088 -20.166740
v 90.941132 -1.667088 -19.843582
v 91.225693 -1.588799 -20.227230
v 91.383286 -1.588799 -20.005161
v 90.970703 -1.588799 -20.142406
v 90.970703 -1.588799 -19.867916
v 91.225693 -1.588799 -19.783096
v 91.220200 -0.846376 -20.209927
v 91.365524 -0.846375 -20.005161
v 90.985077 -0.846375 -20.131714
v 90.985077 -0.846375 -19.878609
v 91.220200 -0.846375 -19.800396
v 92.720970 -1.667088 -19.743725
v 92.720970 -1.667088 -20.266602
v 92.903824 -1.667088 -20.005161
v 92.425110 -1.667088 -20.166740
v 92.425110 -1.667088 -19.843582
v 92.709686 -1.588799 -20.227230
v 92.867279 -1.588799 -20.005161
v 92.454681 -1.588799 -20.142406
v 92.454681 -1.588799 -19.867916
v 92.709686 -1.588799 -19.783096
v 92.704193 -0.846376 -20.209927
v 92.849503 -0.846375 -20.005161
v 92.469055 -0.846375 -20.131714
v 92.469055 -0.846375 -19.878609
v 92.704193 -0.846375 -19.800396
v 28.319727 -1.667088 -19.743725
v 28.319727 -1.667088 -20.266602
v 28.502583 -1.667088 -20.005161
v 28.023870 -1.667088 -20.166740
v 28.023870 -1.667088 -19.843586
v 28.308430 -1.588799 -20.227230
v 28.466024 -1.588799 -20.005161
v 28.053440 -1.588799 -20.142406
v 28.053440 -1.588799 -19.867920
v 28.308430 -1.588799 -19.783096
v 28.302937 -0.846376 -20.209930
v 28.448261 -0.846375 -20.005161
v 28.067816 -0.846375 -20.131714
v 28.067816 -0.846375 -19.878613
v 28.302937 -0.846375 -19.800396
v 26.292263 -1.667088 -19.743725
v 26.292263 -1.667088 -20.266602
v 26.475107 -1.667088 -20.005161
v 25.996395 -1.667088 -20.166740
v 25.996395 -1.667088 -19.843586
v 26.280966 -1.588799 -20.227230
v 26.438560 -1.588799 -20.005161
v 26.025967 -1.588799 -20.142406
v 26.025967 -1.588799 -19.867920
v 26.280966 -1.588799 -19.783096
v 26.275473 -0.846376 -20.209930
v 26.420799 -0.846375 -20.005161
v 26.040340 -0.846375 -20.131718
v 26.040340 -0.846375 -19.878613
v 26.275473 -0.846375 -19.800396
v 24.940655 -1.667088 -19.743725
v 24.940655 -1.667088 -20.266602
v 25.123510 -1.667088 -20.005161
v 24.644798 -1.667088 -20.166740
v 24.644798 -1.667088 -19.843586
v 24.929371 -1.588799 -20.227230
v 25.086964 -1.588799 -20.005161
v 24.674370 -1.588799 -20.142406
v 24.674370 -1.588799 -19.867920
v 24.929371 -1.588799 -19.783096
v 24.923878 -0.846376 -20.209930
v 25.069189 -0.846375 -20.005161
v 24.688744 -0.846375 -20.131718
v 24.688744 -0.846375 -19.878613
v 24.923878 -0.846375 -19.800396
v -43.871674 -1.667088 -19.843586
v -43.871674 -1.667088 -20.366467
v -43.688820 -1.667088 -20.105026
v -44.167534 -1.667088 -20.266605
v -44.167534 -1.667088 -19.943447
v -43.882973 -1.588799 -20.327095
v -43.725372 -1.588799 -20.105026
v -44.137970 -1.588799 -20.242271
v -44.137970 -1.588799 -19.967781
v -43.882973 -1.588799 -19.882961
v -43.888458 -0.846376 -20.309792
v -43.743141 -0.846375 -20.105026
v -44.123589 -0.846376 -20.231579
v -44.123589 -0.846375 -19.978474
v -43.888458 -0.846375 -19.900261
v -42.167496 -1.667088 -19.843586
v -42.167496 -1.667088 -20.366467
v -41.984642 -1.667088 -20.105026
v -42.463356 -1.667088 -20.266605
v -42.463356 -1.667088 -19.943447
v -42.178780 -1.588799 -20.327091
v -42.021187 -1.588799 -20.105026
v -42.433784 -1.588799 -20.242271
v -42.433784 -1.588799 -19.967781
v -42.178780 -1.588799 -19.882961
v -42.184273 -0.846376 -20.309792
v -42.038963 -0.846375 -20.105026
v -42.419411 -0.846376 -20.231579
v -42.419411 -0.846375 -19.978474
v -42.184273 -0.846375 -19.900261
v -40.815887 -1.667088 -19.843586
v -40.815887 -1.667088 -20.366467
v -40.633034 -1.667088 -20.105026
v -41.111740 -1.667088 -20.266605
v -41.111740 -1.667088 -19.943447
v -40.827187 -1.588799 -20.327091
v -40.669594 -1.588799 -20.105026
v -41.082184 -1.588799 -20.242271
v -41.082184 -1.588799 -19.967781
v -40.827187 -1.588799 -19.882961
v -40.832680 -0.846376 -20.309792
v -40.687355 -0.846375 -20.105026
v -41.067810 -0.846376 -20.231579
v -41.067810 -0.846375 -19.978474
v -40.832680 -0.846375 -19.900261
v -39.395096 -1.667088 -19.843586
v -39.395096 -1.667088 -20.366467
v -39.212257 -1.667088 -20.105026
v -39.690964 -1.667088 -20.266605
v -39.690964 -1.667088 -19.943447
v -39.406395 -1.588799 -20.327091
v -39.248802 -1.588799 -20.105026
v -39.661392 -1.588799 -20.242271
v -39.661392 -1.588799 -19.967781
v -39.406395 -1.588799 -19.882961
v -39.411888 -0.846376 -20.309792
v -39.266563 -0.846375 -20.105026
v -39.647018 -0.846376 -20.231579
v -39.647018 -0.846375 -19.978474
v -39.411888 -0.846375 -19.900261
vn -0.0000 -1.0000 -0.0000
vn 0.7616 0.3600 -0.5388
vn 0.7980 0.2159 -0.5626
vn 0.7984 0.2035 -0.5666
vn 0.7592 0.3765 -0.5309
vn -0.2910 0.3935 -0.8720
vn -0.3097 0.2201 -0.9250
vn -0.3073 0.2278 -0.9239
vn -0.2953 0.3836 -0.8750
vn -0.9356 0.3531 -0.0000
vn -0.9790 0.2038 -0.0000
vn -0.9790 0.2037 -0.0000
vn -0.9355 0.3532 -0.0000
vn -0.2921 0.3854 0.8753
vn -0.3092 0.2261 0.9237
vn -0.3080 0.2185 0.9260
vn -0.2937 0.3953 0.8703
vn 0.7573 0.3736 0.5357
vn 0.7997 0.2062 0.5639
vn 0.7958 0.2186 0.5647
vn 0.7654 0.3572 0.5353
vn 0.8153 0.0195 -0.5786
vn -0.3156 0.0198 -0.9487
vn -0.9998 0.0194 -0.0000
vn -0.3156 0.0198 0.9487
vn 0.8153 0.0195 0.5786
vn -0.0000 1.0000 -0.0000
vn 0.5280 0.3818 -0.7586
vn 0.3514 0.2070 -0.9131
vn 0.5653 0.2216 -0.7945
vn 0.3292 0.3791 -0.8648
vn -0.7028 0.3952 -0.5915
vn -0.7473 0.2195 -0.6272
vn -0.7438 0.2291 -0.6279
vn -0.7103 0.3812 -0.5917
vn -0.7921 0.3535 0.4977
vn -0.8289 0.2039 0.5209
vn -0.8289 0.2039 0.5208
vn -0.7920 0.3535 0.4978
vn 0.1823 0.3932 0.9012
vn 0.4574 0.2223 0.8610
vn 0.1863 0.2167 0.9583
vn 0.4095 0.4221 0.8088
vn 0.8843 0.4070 0.2290
vn 0.9477 0.2150 0.2360
vn 0.9338 0.2414 0.2642
vn 0.8999 0.3859 0.2030
vn 0.3602 0.0211 -0.9326
vn 0.5940 0.0223 -0.8042
vn -0.7636 0.0199 -0.6454
vn -0.7634 0.0200 -0.6456
vn -0.8466 0.0194 0.5319
vn -0.8466 0.0194 0.5318
vn 0.4900 0.0205 0.8715
vn 0.1848 0.0213 0.9825
vn 0.9651 0.0215 0.2610
vn 0.9570 0.0224 0.2891
vn -0.2706 0.3603 -0.8927
vn -0.2817 0.2159 -0.9349
vn -0.2854 0.2038 -0.9365
vn -0.2639 0.3764 -0.8881
vn -0.9193 0.3936 0.0006
vn -0.9755 0.2201 0.0016
vn -0.9737 0.2278 -0.0003
vn -0.9235 0.3835 0.0038
vn -0.2956 0.3535 0.8875
vn -0.3093 0.2038 0.9289
vn -0.3093 0.2040 0.9288
vn -0.2955 0.3533 0.8876
vn 0.7383 0.3853 0.5536
vn 0.7787 0.2261 0.5852
vn 0.7813 0.2184 0.5848
vn 0.7329 0.3954 0.5536
vn 0.7474 0.3738 -0.5493
vn 0.7876 0.2064 -0.5806
vn 0.7872 0.2188 -0.5767
vn 0.7497 0.3574 -0.5570
vn -0.2914 0.0195 -0.9564
vn -0.2913 0.0195 -0.9564
vn -0.9998 0.0198 -0.0003
vn -0.3158 0.0194 0.9486
vn -0.3158 0.0193 0.9486
vn 0.8004 0.0198 0.5991
vn 0.8066 0.0195 -0.5908
vn -0.2706 0.3601 -0.8928
vn -0.2819 0.2160 -0.9348
vn -0.2853 0.2036 -0.9366
vn -0.2641 0.3766 -0.8879
vn -0.2956 0.3532 0.8876
vn -0.3094 0.2038 0.9289
vn -0.2957 0.3533 0.8876
vn 0.7383 0.3853 0.5537
vn 0.7787 0.2261 0.5853
vn 0.7813 0.2184 0.5847
vn 0.7329 0.3952 0.5537
vn 0.7474 0.3739 -0.5492
vn 0.7877 0.2063 -0.5805
vn 0.7872 0.2188 -0.5766
vn 0.7497 0.3573 -0.5570
vn -0.3161 0.0194 0.9485
vn 0.8005 0.0198 0.5990
vn 0.8065 0.0195 -0.5909
vn -0.2707 0.3601 -0.8928
vn -0.2817 0.2160 -0.9349
vn -0.2855 0.2036 -0.9365
vn -0.2637 0.3766 -0.8880
vn -0.9193 0.3935 0.0006
vn -0.9737 0.2277 -0.0003
vn -0.9235 0.3836 0.0038
vn -0.3092 0.2039 0.9289
vn -0.3092 0.2038 0.9289
vn -0.2955 0.3536 0.8875
vn 0.7382 0.3855 0.5537
vn 0.7812 0.2185 0.5848
vn 0.7329 0.3953 0.5537
vn 0.7475 0.3739 -0.5491
vn 0.7876 0.2063 -0.5806
vn 0.7872 0.2188 -0.5765
vn 0.7497 0.3573 -0.5571
vn -0.2912 0.0195 -0.9565
vn 0.8003 0.0198 0.5992
vn 0.9191 0.3786 -0.1094
vn 0.9118 0.3914 -0.1241
vn 0.9650 0.2158 -0.1491
vn 0.9716 0.1995 -0.1275
vn 0.9844 0.0206 -0.1747
vn 0.9889 0.0199 -0.1470
vn 0.9278 0.3703 0.0463
vn 0.9776 0.2038 0.0516
vn 0.9981 0.0201 0.0579
vn 0.0011 0.2343 0.9722
vn -0.0159 0.0226 0.9996
vn 0.0108 0.4063 0.9137
vn 0.4705 0.4482 0.7601
vn 0.5455 0.2392 0.8033
vn 0.5951 0.0212 0.8033
vn 0.1520 0.4260 -0.8919
vn 0.1363 0.2309 -0.9634
vn 0.1057 0.0192 -0.9942
vn 0.3581 0.3602 -0.8614
vn 0.3764 0.2159 -0.9009
vn 0.3745 0.2037 -0.9046
vn 0.3605 0.3764 -0.8534
vn -0.7104 0.3935 -0.5835
vn -0.7543 0.2200 -0.6185
vn -0.7518 0.2277 -0.6188
vn -0.7157 0.3834 -0.5838
vn -0.7921 0.3534 0.4977
vn -0.8290 0.2039 0.5208
vn -0.7922 0.3533 0.4976
vn 0.2185 0.3854 0.8965
vn 0.2296 0.2260 0.9467
vn 0.2319 0.2185 0.9479
vn 0.2143 0.3952 0.8933
vn 0.9261 0.3738 0.0507
vn 0.9771 0.2063 0.0520
vn 0.9742 0.2187 0.0548
vn 0.9329 0.3573 0.0460
vn 0.3825 0.0195 -0.9237
vn -0.7720 0.0198 -0.6354
vn -0.7720 0.0198 -0.6353
vn -0.8465 0.0194 0.5320
vn 0.2375 0.0198 0.9712
vn 0.9982 0.0195 0.0561
vn -0.2853 0.2038 -0.9365
vn -0.2640 0.3763 -0.8881
vn -0.2955 0.3535 0.8875
vn -0.2954 0.3533 0.8877
vn 0.7381 0.3854 0.5537
vn 0.7329 0.3954 0.5537
vn 0.7476 0.3737 -0.5491
vn 0.7873 0.2187 -0.5765
vn -0.2816 0.2160 -0.9349
vn -0.2636 0.3766 -0.8881
vn -0.2955 0.3532 0.8877
vn 0.7382 0.3853 0.5537
vn 0.7786 0.2261 0.5853
vn 0.7812 0.2184 0.5848
vn 0.7474 0.3739 -0.5491
vn 0.8004 0.0198 0.5992
vn 0.8067 0.0195 -0.5907
vn 0.8067 0.0195 -0.5906
vn -0.2705 0.3602 -0.8928
vn -0.2640 0.3766 -0.8880
vn -0.9737 0.2279 -0.0003
vn -0.2956 0.3533 0.8876
vn -0.3093 0.2039 0.9288
vn 0.7381 0.3855 0.5537
vn 0.7812 0.2186 0.5848
vn 0.7330 0.3952 0.5537
vn -0.2916 0.0195 -0.9564
vn -0.2916 0.0195 -0.9563
vn 0.8005 0.0198 0.5991
vn 0.3762 0.2161 -0.9010
vn 0.3745 0.2036 -0.9046
vn 0.3602 0.3769 -0.8534
vn -0.7102 0.3939 -0.5835
vn -0.7543 0.2201 -0.6185
vn -0.7517 0.2281 -0.6188
vn -0.7156 0.3835 -0.5838
vn -0.7920 0.3538 0.4976
vn -0.8290 0.2038 0.5209
vn -0.8289 0.2042 0.5208
vn -0.7922 0.3531 0.4977
vn 0.2184 0.3852 0.8966
vn 0.2317 0.2184 0.9480
vn 0.2144 0.3951 0.8932
vn 0.9261 0.3739 0.0507
vn 0.9770 0.2066 0.0520
vn 0.9326 0.3579 0.0461
vn 0.3824 0.0195 -0.9238
vn 0.3823 0.0195 -0.9238
vn -0.7720 0.0197 -0.6353
vn -0.7721 0.0197 -0.6352
vn -0.8466 0.0193 0.5319
vn 0.9982 0.0195 0.0562
vn 0.9982 0.0195 0.0563
vn -0.2818 0.2159 -0.9349
vn -0.2643 0.3765 -0.8879
vn -0.9755 0.2201 0.0015
vn -0.9235 0.3835 0.0037
vn -0.3094 0.2037 0.9289
vn -0.2957 0.3531 0.8876
vn 0.7383 0.3849 0.5538
vn 0.7788 0.2261 0.5852
vn 0.7812 0.2182 0.5849
vn 0.7330 0.3953 0.5535
vn 0.7474 0.3740 -0.5492
vn 0.7876 0.2066 -0.5805
vn 0.7495 0.3579 -0.5569
vn -0.9998 0.0198 -0.0004
vn -0.3160 0.0193 0.9486
vn 0.8066 0.0196 -0.5907
vn -0.2705 0.3601 -0.8928
vn -0.2640 0.3764 -0.8880
vn -0.9192 0.3937 0.0006
vn -0.9755 0.2198 0.0016
vn -0.9737 0.2280 -0.0003
vn -0.9238 0.3829 0.0038
vn -0.2956 0.3531 0.8877
vn -0.3093 0.2037 0.9289
vn -0.2954 0.3533 0.8876
vn 0.7381 0.3856 0.5537
vn 0.7787 0.2260 0.5853
vn 0.7329 0.3952 0.5538
vn 0.7475 0.3739 -0.5490
vn 0.7877 0.2061 -0.5805
vn 0.7873 0.2189 -0.5764
vn 0.7499 0.3568 -0.5571
vn -0.9998 0.0197 -0.0003
vn -0.9998 0.0197 -0.0002
vn -0.3160 0.0194 0.9486
vn 0.8066 0.0195 -0.5907
vn -0.2852 0.2037 -0.9366
vn -0.9189 0.3945 0.0006
vn -0.9754 0.2203 0.0015
vn -0.9736 0.2284 -0.0003
vn -0.9234 0.3838 0.0037
vn -0.2956 0.3534 0.8875
vn -0.2956 0.3536 0.8875
vn 0.7382 0.3855 0.5536
vn 0.7788 0.2259 0.5853
vn 0.7812 0.2186 0.5847
vn 0.7331 0.3949 0.5538
vn 0.7877 0.2061 -0.5806
vn 0.7871 0.2188 -0.5767
vn 0.7498 0.3569 -0.5571
vn -0.9998 0.0197 -0.0004
vn -0.9998 0.0196 -0.0004
vn 0.9201 0.3602 -0.1540
vn 0.9633 0.2158 -0.1596
vn 0.9654 0.2037 -0.1630
vn 0.9147 0.3762 -0.1480
vn 0.1172 0.3936 -0.9118
vn 0.1234 0.2202 -0.9676
vn 0.1250 0.2278 -0.9657
vn 0.1147 0.3837 -0.9163
vn -0.8423 0.3535 -0.4069
vn -0.8815 0.2041 -0.4258
vn -0.8815 0.2039 -0.4259
vn -0.8422 0.3540 -0.4067
vn -0.6438 0.3850 0.6612
vn -0.6802 0.2259 0.6973
vn -0.6801 0.2183 0.6998
vn -0.6431 0.3950 0.6561
vn 0.4487 0.3742 0.8116
vn 0.4747 0.2066 0.8556
vn 0.4707 0.2189 0.8547
vn 0.4564 0.3577 0.8147
vn 0.9859 0.0195 -0.1664
vn 0.9859 0.0195 -0.1665
vn 0.1286 0.0198 -0.9915
vn 0.1287 0.0198 -0.9915
vn -0.9002 0.0194 -0.4350
vn -0.6968 0.0198 0.7170
vn 0.4826 0.0195 0.8756
vn 0.4828 0.0195 0.8755
vn 0.6128 0.3602 -0.7034
vn 0.6425 0.2160 -0.7353
vn 0.6420 0.2037 -0.7391
vn 0.6121 0.3766 -0.6953
vn -0.4886 0.3935 -0.7787
vn -0.5194 0.2202 -0.8257
vn -0.5167 0.2278 -0.8253
vn -0.4937 0.3836 -0.7805
vn -0.9090 0.3534 0.2209
vn -0.9513 0.2038 0.2312
vn -0.9513 0.2039 0.2312
vn -0.9090 0.3533 0.2210
vn -0.0772 0.3855 0.9195
vn -0.0824 0.2261 0.9706
vn -0.0807 0.2185 0.9725
vn -0.0800 0.3953 0.9151
vn 0.8622 0.3739 0.3418
vn 0.9102 0.2064 0.3590
vn 0.9066 0.2188 0.3608
vn 0.8701 0.3575 0.3395
vn 0.6555 0.0195 -0.7550
vn -0.5307 0.0198 -0.8473
vn -0.9715 0.0194 0.2361
vn -0.9715 0.0195 0.2361
vn -0.0828 0.0198 0.9964
vn -0.0829 0.0198 0.9964
vn 0.9289 0.0195 0.3697
vn 0.6129 0.3600 -0.7034
vn 0.6425 0.2161 -0.7352
vn 0.6421 0.2035 -0.7391
vn 0.6121 0.3768 -0.6952
vn -0.5193 0.2201 -0.8258
vn -0.9091 0.3532 0.2209
vn -0.9514 0.2035 0.2312
vn -0.9093 0.3527 0.2210
vn -0.0771 0.3854 0.9195
vn -0.0808 0.2185 0.9725
vn -0.0797 0.3953 0.9151
vn 0.8622 0.3739 0.3417
vn 0.9066 0.2187 0.3608
vn 0.8700 0.3576 0.3394
vn 0.6556 0.0195 -0.7548
vn -0.5306 0.0198 -0.8474
vn -0.0827 0.0198 0.9964
vn -0.0826 0.0198 0.9964
vn 0.6128 0.3602 -0.7033
vn 0.6425 0.2159 -0.7352
vn 0.6421 0.2037 -0.7391
vn 0.6122 0.3765 -0.6953
vn -0.4887 0.3934 -0.7787
vn -0.5169 0.2277 -0.8252
vn -0.4935 0.3834 -0.7807
vn -0.9091 0.3533 0.2209
vn -0.9513 0.2036 0.2312
vn -0.9092 0.3529 0.2210
vn -0.0772 0.3854 0.9195
vn 0.8623 0.3738 0.3417
vn 0.9102 0.2063 0.3590
vn 0.8701 0.3573 0.3394
vn 0.6555 0.0195 -0.7549
vn -0.0828 0.0197 0.9964
vn -0.0829 0.0197 0.9964
vn 0.9200 0.3604 -0.1540
vn 0.9632 0.2162 -0.1596
vn 0.9653 0.2038 -0.1631
vn 0.9144 0.3768 -0.1479
vn 0.1236 0.2201 -0.9676
vn 0.1250 0.2279 -0.9656
vn 0.1150 0.3835 -0.9164
vn -0.8426 0.3530 -0.4068
vn -0.8816 0.2040 -0.4257
vn -0.8817 0.2035 -0.4257
vn -0.8422 0.3538 -0.4068
vn -0.6436 0.3858 0.6610
vn -0.6802 0.2261 0.6973
vn -0.6801 0.2187 0.6998
vn -0.6430 0.3952 0.6560
vn 0.4488 0.3739 0.8117
vn 0.4750 0.2064 0.8554
vn 0.4709 0.2188 0.8546
vn 0.4566 0.3575 0.8147
vn 0.1284 0.0198 -0.9915
vn -0.9003 0.0194 -0.4348
vn -0.9003 0.0194 -0.4349
vn 0.6126 0.3606 -0.7033
vn 0.6426 0.2158 -0.7352
vn 0.6419 0.2040 -0.7391
vn 0.6125 0.3760 -0.6953
vn -0.4888 0.3935 -0.7786
vn -0.5194 0.2201 -0.8257
vn -0.9513 0.2040 0.2312
vn -0.9089 0.3537 0.2209
vn -0.0824 0.2260 0.9706
vn -0.0800 0.3952 0.9151
vn 0.9103 0.2062 0.3590
vn 0.8703 0.3569 0.3394
vn -0.5305 0.0198 -0.8474
vn -0.9716 0.0193 0.2360
vn 0.9289 0.0196 0.3697
vn 0.6426 0.2160 -0.7352
vn 0.6421 0.2036 -0.7391
vn 0.6121 0.3767 -0.6952
vn -0.4937 0.3835 -0.7805
vn -0.9090 0.3533 0.2209
vn -0.9513 0.2037 0.2312
vn -0.9091 0.3531 0.2210
vn -0.0806 0.2185 0.9725
vn 0.8621 0.3741 0.3417
vn 0.9103 0.2061 0.3591
vn 0.9065 0.2191 0.3609
vn 0.8704 0.3567 0.3394
vn 0.6557 0.0195 -0.7548
vn -0.5309 0.0198 -0.8472
vn -0.5310 0.0197 -0.8472
vn 0.9289 0.0195 0.3698
vn 0.6127 0.3603 -0.7035
vn 0.6425 0.2160 -0.7352
vn 0.6419 0.2037 -0.7392
vn 0.6123 0.3767 -0.6952
vn -0.4888 0.3934 -0.7787
vn -0.5194 0.2200 -0.8257
vn -0.5168 0.2277 -0.8252
vn -0.4938 0.3832 -0.7806
vn -0.0772 0.3852 0.9196
vn -0.0825 0.2260 0.9706
vn -0.0807 0.2183 0.9725
vn 0.8621 0.3743 0.3417
vn 0.9102 0.2064 0.3591
vn 0.8702 0.3573 0.3393
vn 0.6556 0.0196 -0.7548
vn -0.5305 0.0197 -0.8475
vn -0.9715 0.0193 0.2361
vn -0.0824 0.0198 0.9964
vn -0.0823 0.0198 0.9964
vn -0.1541 0.3601 -0.9201
vn -0.1597 0.2159 -0.9633
vn -0.1631 0.2036 -0.9654
vn -0.1480 0.3764 -0.9146
vn -0.9118 0.3935 -0.1172
vn -0.9676 0.2202 -0.1235
vn -0.9657 0.2277 -0.1251
vn -0.9163 0.3837 -0.1146
vn -0.4069 0.3534 0.8423
vn -0.4258 0.2038 0.8816
vn -0.4259 0.2040 0.8815
vn -0.4067 0.3532 0.8425
vn 0.6611 0.3854 0.6438
vn 0.6973 0.2260 0.6802
vn 0.6998 0.2185 0.6801
vn 0.6559 0.3952 0.6431
vn 0.8116 0.3741 -0.4487
vn 0.8556 0.2062 -0.4748
vn 0.8546 0.2190 -0.4708
vn 0.8150 0.3569 -0.4564
vn -0.1664 0.0195 -0.9859
vn -0.1663 0.0195 -0.9859
vn -0.9915 0.0198 -0.1285
vn -0.4349 0.0194 0.9003
vn -0.4348 0.0194 0.9003
vn 0.7170 0.0198 0.6967
vn 0.7171 0.0198 0.6967
vn 0.8757 0.0195 -0.4824
vn -0.7034 0.3603 -0.6128
vn -0.7351 0.2160 -0.6426
vn -0.7391 0.2037 -0.6421
vn -0.6952 0.3766 -0.6122
vn -0.7788 0.3932 0.4888
vn -0.8258 0.2201 0.5193
vn -0.8253 0.2276 0.5168
vn -0.7806 0.3835 0.4937
vn 0.2207 0.3534 0.9090
vn 0.2311 0.2038 0.9513
vn 0.2310 0.2039 0.9513
vn 0.2209 0.3533 0.9091
vn 0.9194 0.3856 0.0771
vn 0.9706 0.2261 0.0824
vn 0.9725 0.2186 0.0807
vn 0.9151 0.3952 0.0799
vn 0.3418 0.3737 -0.8623
vn 0.3591 0.2064 -0.9102
vn 0.3609 0.2187 -0.9066
vn 0.3395 0.3574 -0.8701
vn -0.7548 0.0195 -0.6556
vn -0.8473 0.0198 0.5307
vn -0.8473 0.0197 0.5308
vn 0.2361 0.0193 0.9715
vn 0.9964 0.0198 0.0827
vn 0.3696 0.0195 -0.9290
vn -0.6951 0.3766 -0.6123
vn -0.7787 0.3935 0.4887
vn -0.8257 0.2201 0.5194
vn -0.8252 0.2277 0.5169
vn -0.7806 0.3835 0.4936
vn 0.2210 0.3533 0.9090
vn 0.2312 0.2038 0.9513
vn 0.2313 0.2039 0.9513
vn 0.2208 0.3533 0.9091
vn 0.9196 0.3851 0.0771
vn 0.9706 0.2262 0.0824
vn 0.9726 0.2183 0.0806
vn 0.9150 0.3955 0.0799
vn 0.3417 0.3738 -0.8623
vn 0.3591 0.2063 -0.9102
vn 0.3608 0.2188 -0.9066
vn 0.3395 0.3573 -0.8701
vn -0.8474 0.0197 0.5306
vn 0.2359 0.0194 0.9716
vn 0.2358 0.0194 0.9716
vn 0.9964 0.0198 0.0826
vn 0.3699 0.0195 -0.9289
vn -0.7034 0.3601 -0.6128
vn -0.7351 0.2161 -0.6426
vn -0.7391 0.2035 -0.6421
vn -0.6951 0.3769 -0.6122
vn -0.8257 0.2201 0.5193
vn -0.8252 0.2278 0.5168
vn 0.2210 0.3534 0.9090
vn 0.9195 0.3855 0.0771
vn 0.9707 0.2260 0.0823
vn 0.9725 0.2186 0.0806
vn 0.9152 0.3951 0.0799
vn 0.3417 0.3737 -0.8623
vn 0.3608 0.2187 -0.9066
vn -0.7548 0.0195 -0.6557
vn -0.8474 0.0198 0.5306
vn 0.9964 0.0197 0.0826
vn -0.1538 0.3603 -0.9201
vn -0.1595 0.2159 -0.9633
vn -0.1628 0.2038 -0.9654
vn -0.1480 0.3764 -0.9145
vn -0.9118 0.3936 -0.1172
vn -0.9677 0.2200 -0.1234
vn -0.9656 0.2279 -0.1251
vn -0.9165 0.3833 -0.1146
vn -0.4068 0.3534 0.8424
vn -0.4258 0.2038 0.8815
vn -0.4259 0.2039 0.8815
vn -0.4067 0.3533 0.8425
vn 0.6612 0.3852 0.6438
vn 0.6998 0.2183 0.6801
vn 0.8117 0.3739 -0.4488
vn 0.8555 0.2065 -0.4749
vn 0.8546 0.2187 -0.4709
vn 0.8148 0.3576 -0.4564
vn -0.9915 0.0198 -0.1284
vn 0.7171 0.0197 0.6967
vn 0.8758 0.0195 -0.4824
vn -0.7035 0.3602 -0.6127
vn -0.7351 0.2159 -0.6426
vn -0.7392 0.2037 -0.6420
vn -0.6952 0.3764 -0.6124
vn -0.7786 0.3937 0.4886
vn -0.8252 0.2279 0.5168
vn 0.2312 0.2039 0.9513
vn 0.2208 0.3534 0.9091
vn 0.9195 0.3854 0.0771
vn 0.9725 0.2184 0.0806
vn 0.3417 0.3739 -0.8622
vn 0.3609 0.2188 -0.9066
vn -0.8474 0.0197 0.5305
vn -0.7034 0.3600 -0.6128
vn -0.8257 0.2202 0.5194
vn -0.8253 0.2277 0.5168
vn -0.7805 0.3837 0.4936
vn 0.2209 0.3534 0.9090
vn 0.2312 0.2040 0.9513
vn 0.2209 0.3536 0.9090
vn 0.9151 0.3953 0.0799
vn 0.3417 0.3736 -0.8624
vn 0.3608 0.2186 -0.9067
vn 0.3395 0.3575 -0.8700
vn -0.8474 0.0198 0.5305
vn -0.8475 0.0198 0.5305
vn -0.7034 0.3602 -0.6128
vn -0.7805 0.3836 0.4936
vn 0.2209 0.3536 0.9089
vn 0.9195 0.3856 0.0771
vn 0.9706 0.2260 0.0823
vn 0.3417 0.3739 -0.8623
vn -0.8475 0.0197 0.5305
vn -0.8475 0.0197 0.5304
vn 0.2361 0.0194 0.9715
vn 0.3698 0.0195 -0.9289
vn 0.3582 0.3600 -0.8614
vn 0.3747 0.2036 -0.9045
vn 0.3603 0.3765 -0.8535
vn -0.7100 0.3943 -0.5834
vn -0.7517 0.2283 -0.6188
vn -0.7157 0.3833 -0.5838
vn -0.7919 0.3538 0.4976
vn -0.7920 0.3534 0.4978
vn 0.2183 0.3855 0.8965
vn 0.2294 0.2261 0.9467
vn 0.2318 0.2185 0.9479
vn 0.2141 0.3954 0.8932
vn 0.9261 0.3740 0.0507
vn 0.9770 0.2067 0.0519
vn 0.9742 0.2188 0.0548
vn 0.9326 0.3580 0.0460
vn 0.3825 0.0195 -0.9238
vn -0.7720 0.0196 -0.6353
vn 0.2377 0.0198 0.9711
vn 0.2378 0.0198 0.9711
vn -0.2708 0.3603 -0.8927
vn -0.2854 0.2037 -0.9365
vn -0.9191 0.3939 0.0006
vn -0.9755 0.2200 0.0016
vn -0.9736 0.2281 -0.0003
vn -0.9236 0.3832 0.0038
vn -0.3094 0.2039 0.9288
vn 0.7381 0.3854 0.5538
vn 0.7786 0.2262 0.5853
vn 0.7811 0.2185 0.5849
vn 0.7328 0.3956 0.5536
vn 0.7475 0.3738 -0.5491
vn 0.7877 0.2064 -0.5805
vn -0.2917 0.0195 -0.9563
vn -0.3162 0.0194 0.9485
vn -0.3163 0.0194 0.9485
vn 0.8065 0.0195 -0.5910
vn -0.2706 0.3603 -0.8928
vn -0.2818 0.2160 -0.9348
vn -0.2643 0.3766 -0.8879
vn -0.9192 0.3939 0.0006
vn -0.9755 0.2199 0.0016
vn -0.9237 0.3832 0.0038
vn -0.2956 0.3531 0.8876
vn -0.3094 0.2038 0.9288
vn 0.7788 0.2260 0.5851
vn 0.7330 0.3952 0.5536
vn 0.7473 0.3742 -0.5491
vn 0.7877 0.2062 -0.5805
vn 0.7872 0.2191 -0.5765
vn -0.9998 0.0199 -0.0003
vn -0.9998 0.0199 -0.0002
vn 0.8005 0.0197 0.5991
vn -0.2705 0.3603 -0.8928
vn -0.9192 0.3938 0.0006
vn 0.7382 0.3856 0.5534
vn 0.7813 0.2187 0.5846
vn 0.7329 0.3951 0.5539
vn 0.7876 0.2062 -0.5806
vn 0.7871 0.2191 -0.5766
vn 0.7498 0.3571 -0.5570
vn 0.8004 0.0197 0.5991
vn 0.8004 0.0197 0.5992
vn 0.7614 0.3606 -0.5387
vn 0.7981 0.2157 -0.5626
vn 0.7984 0.2040 -0.5666
vn 0.7593 0.3760 -0.5311
vn -0.2909 0.3939 -0.8719
vn -0.3096 0.2201 -0.9250
vn -0.3073 0.2281 -0.9239
vn -0.2954 0.3834 -0.8751
vn -0.9355 0.3534 -0.0000
vn -0.9790 0.2039 -0.0000
vn -0.9355 0.3533 -0.0000
vn -0.3080 0.2184 0.9260
vn -0.2937 0.3954 0.8703
vn 0.7574 0.3733 0.5358
vn 0.7996 0.2070 0.5638
vn 0.7958 0.2181 0.5648
vn 0.7649 0.3587 0.5350
vn 0.8154 0.0195 -0.5786
vn 0.8153 0.0195 -0.5787
vn -0.3155 0.0197 -0.9487
vn -0.3156 0.0197 -0.9487
vn -0.9998 0.0195 -0.0000
vn 0.8153 0.0194 0.5787
vn 0.8153 0.0193 0.5787
vn 0.7618 0.3595 -0.5389
vn 0.7979 0.2163 -0.5626
vn 0.7985 0.2031 -0.5667
vn 0.7588 0.3775 -0.5307
vn -0.2911 0.3935 -0.8721
vn -0.3074 0.2277 -0.9239
vn -0.2953 0.3835 -0.8750
vn -0.9790 0.2040 -0.0000
vn -0.9357 0.3528 -0.0000
vn -0.2921 0.3853 0.8754
vn -0.3093 0.2259 0.9238
vn -0.2938 0.3950 0.8704
vn 0.7571 0.3741 0.5356
vn 0.7997 0.2060 0.5639
vn 0.7957 0.2191 0.5647
vn 0.7656 0.3565 0.5355
vn 0.8153 0.0196 -0.5787
vn -0.9998 0.0193 -0.0000
vn 0.8153 0.0196 0.5786
vn 0.8153 0.0196 0.5787
vn 0.7615 0.3605 -0.5387
vn 0.7981 0.2156 -0.5627
vn 0.7594 0.3756 -0.5312
vn -0.2910 0.3937 -0.8720
vn -0.3073 0.2279 -0.9239
vn -0.2954 0.3835 -0.8750
vn -0.9352 0.3542 -0.0000
vn -0.9789 0.2045 -0.0000
vn -0.3092 0.2262 0.9237
vn -0.2937 0.3955 0.8702
vn 0.7572 0.3738 0.5357
vn 0.7997 0.2063 0.5639
vn 0.7958 0.2188 0.5647
vn 0.7654 0.3572 0.5354
vn 0.8154 0.0194 -0.5786
vn 0.8153 0.0194 -0.5787
vn -0.3155 0.0197 0.9487
vn -0.3156 0.0197 0.9487
vn 0.7614 0.3605 -0.5387
vn 0.7981 0.2155 -0.5627
vn 0.7595 0.3755 -0.5312
vn -0.9789 0.2046 -0.0000
vn -0.2921 0.3850 0.8755
vn -0.3080 0.2181 0.9260
vn -0.2937 0.3957 0.8702
vn 0.7573 0.3733 0.5358
vn 0.7958 0.2184 0.5648
vn 0.7616 0.3601 -0.5388
vn 0.7984 0.2036 -0.5666
vn 0.7592 0.3765 -0.5310
vn 0.8153 0.0195 0.5787
vn 0.7615 0.3603 -0.5388
vn 0.7980 0.2160 -0.5626
vn 0.7984 0.2037 -0.5666
vn 0.7591 0.3766 -0.5310
vn -0.2910 0.3936 -0.8720
vn -0.3074 0.2278 -0.9239
vn -0.2921 0.3853 0.8753
vn 0.7997 0.2064 0.5639
vn 0.7653 0.3574 0.5353
vn 0.7615 0.3602 -0.5388
vn 0.7592 0.3764 -0.5310
vn 0.7654 0.3571 0.5354
vn 0.8154 0.0195 0.5786
vn -0.3093 0.2261 0.9237
vn -0.2938 0.3953 0.8703
vn 0.7572 0.3739 0.5357
vn 0.7957 0.2188 0.5647
vn 0.7616 0.3602 -0.5388
vn 0.7592 0.3766 -0.5309
vn 0.7654 0.3573 0.5353
vn 0.7572 0.3737 0.5357
vn 0.7958 0.2187 0.5647
vn 0.7591 0.3766 -0.5309
vn 0.7572 0.3739 0.5356
vt 0.500000 1.000499
vt -0.066962 1.000499
vt 1.500000 1.000499
vt 0.309200 1.000499
vt 0.690800 1.000499
vt 1.933038 1.095796
vt 1.500000 1.095796
vt 1.933038 1.000499
vt 0.309200 1.095796
vt -0.066962 1.095796
vt 0.690800 1.095796
vt 1.066962 1.095796
vt 1.066962 1.000499
vt 1.933038 1.999501
vt 1.500000 1.999501
vt 0.309200 1.999501
vt -0.066962 1.999501
vt 0.690800 1.999501
vt 1.066962 1.999501
vt 0.425156 1.583258
vt 0.574844 1.537734
vt 0.517668 1.611393
vt 0.425156 1.492210
vt 0.517668 1.464075
vt 0.749977 1.000499
vt 0.547699 1.000499
vt 0.595400 1.000499
vt 1.716347 1.095796
vt 1.716518 1.000499
vt 0.878881 1.000499
vt 0.972921 1.095796
vt 0.878881 1.095796
vt 0.972922 1.000499
vt 1.175210 1.095796
vt 1.175211 1.000499
vt 1.716515 1.999501
vt 0.972929 1.999501
vt 0.878898 1.999501
vt 1.175234 1.999501
vt 0.546257 1.574563
vt 0.471416 1.478141
vt 0.494542 1.471108
vt 0.531964 1.482492
vt 1.391709 1.000499
vt 1.249928 1.000499
vt 0.716523 1.000499
vt 1.391704 1.095796
vt 1.391779 1.999501
vt 0.560555 1.519326
vt 1.283460 1.000499
vt 1.283457 1.095796
vt 0.999953 1.000499
vt 1.283507 1.999501
vt 0.546260 1.500909
s 1
usemtl BARRELA.003
f 1/1/1 2/2/1 3/3/1
f 1/1/1 4/4/1 2/2/1
f 1/1/1 5/5/1 4/4/1
f 3/3/2 6/6/3 7/7/4
f 3/3/2 2/8/5 6/6/3
f 2/2/6 8/9/7 6/10/8
f 2/2/6 4/4/9 8/9/7
f 4/4/10 9/11/11 8/9/12
f 4/4/10 5/5/13 9/11/11
f 5/5/14 10/12/15 9/11/16
f 5/5/14 1/13/17 10/12/15
f 1/13/18 7/7/19 10/12/20
f 1/13/18 3/3/21 7/7/19
f 7/7/4 11/14/22 12/15/22
f 7/7/4 6/6/3 11/14/22
f 6/10/8 13/16/23 11/17/23
f 6/10/8 8/9/7 13/16/23
f 8/9/12 14/18/24 13/16/24
f 8/9/12 9/11/11 14/18/24
f 9/11/16 15/19/25 14/18/25
f 9/11/16 10/12/15 15/19/25
f 10/12/20 12/15/26 15/19/26
f 10/12/20 7/7/19 12/15/26
f 13/20/27 12/21/27 11/22/27
f 13/20/27 14/23/27 15/24/27
f 13/20/27 15/24/27 12/21/27
f 16/1/1 17/2/1 18/25/1
f 16/1/1 19/4/1 17/2/1
f 20/26/1 21/27/1 19/4/1
f 22/3/28 23/28/29 24/7/30
f 22/3/28 25/29/31 23/28/29
f 17/2/32 26/9/33 27/10/34
f 17/2/32 19/4/35 26/9/33
f 19/4/36 28/11/37 26/9/38
f 19/4/36 29/5/39 28/11/37
f 21/30/40 30/31/41 31/32/42
f 21/30/40 20/33/43 30/31/41
f 16/13/44 32/34/45 33/12/46
f 16/13/44 18/35/47 32/34/45
f 24/7/30 34/36/48 35/15/49
f 24/7/30 23/28/29 34/36/48
f 27/10/34 36/16/50 37/17/51
f 27/10/34 26/9/33 36/16/50
f 26/9/38 38/18/52 36/16/53
f 26/9/38 28/11/37 38/18/52
f 31/32/42 39/37/54 40/38/55
f 31/32/42 30/31/41 39/37/54
f 33/12/46 41/39/56 42/19/57
f 33/12/46 32/34/45 41/39/56
f 36/20/27 35/21/27 34/40/27
f 36/20/27 40/41/27 39/42/27
f 36/20/27 42/24/27 41/43/27
f 43/1/1 44/2/1 45/3/1
f 43/1/1 46/4/1 44/2/1
f 43/1/1 47/5/1 46/4/1
f 45/3/58 48/6/59 49/7/60
f 45/3/58 44/8/61 48/6/59
f 44/2/62 50/9/63 48/10/64
f 44/2/62 46/4/65 50/9/63
f 46/4/66 51/11/67 50/9/68
f 46/4/66 47/5/69 51/11/67
f 47/5/70 52/12/71 51/11/72
f 47/5/70 43/13/73 52/12/71
f 43/13/74 49/7/75 52/12/76
f 43/13/74 45/3/77 49/7/75
f 49/7/60 53/14/78 54/15/79
f 49/7/60 48/6/59 53/14/78
f 48/10/64 55/16/80 53/17/80
f 48/10/64 50/9/63 55/16/80
f 50/9/68 56/18/81 55/16/82
f 50/9/68 51/11/67 56/18/81
f 51/11/72 57/19/83 56/18/83
f 51/11/72 52/12/71 57/19/83
f 52/12/76 54/15/84 57/19/84
f 52/12/76 49/7/75 54/15/84
f 55/20/27 54/21/27 53/22/27
f 55/20/27 56/23/27 57/24/27
f 55/20/27 57/24/27 54/21/27
f 58/1/1 59/2/1 60/3/1
f 58/1/1 61/4/1 59/2/1
f 58/1/1 62/5/1 61/4/1
f 60/3/85 63/6/86 64/7/87
f 60/3/85 59/8/88 63/6/86
f 59/2/62 65/9/63 63/10/64
f 59/2/62 61/4/65 65/9/63
f 61/4/89 66/11/90 65/9/90
f 61/4/89 62/5/91 66/11/90
f 62/5/92 67/12/93 66/11/94
f 62/5/92 58/13/95 67/12/93
f 58/13/96 64/7/97 67/12/98
f 58/13/96 60/3/99 64/7/97
f 64/7/87 68/14/78 69/15/79
f 64/7/87 63/6/86 68/14/78
f 63/10/64 70/16/80 68/17/80
f 63/10/64 65/9/63 70/16/80
f 65/9/90 71/18/100 70/16/100
f 65/9/90 66/11/90 71/18/100
f 66/11/94 72/19/101 71/18/101
f 66/11/94 67/12/93 72/19/101
f 67/12/98 69/15/102 72/19/102
f 67/12/98 64/7/97 69/15/102
f 70/20/27 69/21/27 68/22/27
f 70/20/27 71/23/27 72/24/27
f 70/20/27 72/24/27 69/21/27
f 73/1/1 74/2/1 75/3/1
f 73/1/1 76/4/1 74/2/1
f 73/1/1 77/5/1 76/4/1
f 75/3/103 78/6/104 79/7/105
f 75/3/103 74/8/106 78/6/104
f 74/2/107 80/9/63 78/10/108
f 74/2/107 76/4/109 80/9/63
f 76/4/69 81/11/110 80/9/111
f 76/4/69 77/5/112 81/11/110
f 77/5/113 82/12/93 81/11/114
f 77/5/113 73/13/115 82/12/93
f 73/13/116 79/7/117 82/12/118
f 73/13/116 75/3/119 79/7/117
f 79/7/105 83/14/79 84/15/120
f 79/7/105 78/6/104 83/14/79
f 78/10/108 85/16/80 83/17/80
f 78/10/108 80/9/63 85/16/80
f 80/9/111 86/18/82 85/16/82
f 80/9/111 81/11/110 86/18/82
f 81/11/114 87/19/121 86/18/121
f 81/11/114 82/12/93 87/19/121
f 82/12/118 84/15/84 87/19/84
f 82/12/118 79/7/117 84/15/84
f 85/20/27 84/21/27 83/22/27
f 85/20/27 86/23/27 87/24/27
f 85/20/27 87/24/27 84/21/27
f 88/44/122 22/3/123 24/7/124
f 88/45/1 25/46/1 22/3/1
f 88/44/122 24/7/124 89/47/125
f 89/47/125 24/7/124 35/15/126
f 89/47/125 35/15/126 90/48/127
f 36/20/27 90/49/27 35/21/27
f 18/35/47 91/50/128 92/51/129
f 18/25/1 17/2/1 91/52/1
f 18/35/47 92/51/129 32/34/45
f 32/34/45 92/51/129 93/53/130
f 32/34/45 93/53/130 41/39/56
f 36/20/27 41/43/27 93/54/27
f 92/51/129 90/48/127 93/53/130
f 36/20/27 93/54/27 90/49/27
f 92/51/129 89/47/125 90/48/127
f 91/50/128 89/47/125 92/51/129
f 91/50/128 88/44/122 89/47/125
f 91/52/1 17/2/1 88/45/1
f 28/11/131 40/38/55 38/18/132
f 36/20/27 38/23/27 40/41/27
f 28/11/131 31/32/42 40/38/55
f 29/5/133 31/32/42 28/11/131
f 29/5/133 21/30/40 31/32/42
f 21/27/1 29/5/1 19/4/1
f 20/33/43 16/13/134 33/12/135
f 16/1/1 20/26/1 19/4/1
f 20/33/43 33/12/135 30/31/41
f 30/31/41 33/12/135 42/19/136
f 30/31/41 42/19/136 39/37/54
f 36/20/27 39/42/27 42/24/27
f 25/29/31 17/8/137 27/6/138
f 88/45/1 17/2/1 25/46/1
f 25/29/31 27/6/138 23/28/29
f 23/28/29 27/6/138 37/14/139
f 23/28/29 37/14/139 34/36/48
f 36/20/27 34/40/27 37/22/27
f 94/1/1 95/2/1 96/3/1
f 94/1/1 97/4/1 95/2/1
f 94/1/1 98/5/1 97/4/1
f 96/3/140 99/6/141 100/7/142
f 96/3/140 95/8/143 99/6/141
f 95/2/144 101/9/145 99/10/146
f 95/2/144 97/4/147 101/9/145
f 97/4/148 102/11/149 101/9/38
f 97/4/148 98/5/150 102/11/149
f 98/5/151 103/12/152 102/11/153
f 98/5/151 94/13/154 103/12/152
f 94/13/155 100/7/156 103/12/157
f 94/13/155 96/3/158 100/7/156
f 100/7/142 104/14/159 105/15/159
f 100/7/142 99/6/141 104/14/159
f 99/10/146 106/16/160 104/17/161
f 99/10/146 101/9/145 106/16/160
f 101/9/38 107/18/162 106/16/162
f 101/9/38 102/11/149 107/18/162
f 102/11/153 108/19/163 107/18/163
f 102/11/153 103/12/152 108/19/163
f 103/12/157 105/15/164 108/19/164
f 103/12/157 100/7/156 105/15/164
f 106/20/27 105/21/27 104/22/27
f 106/20/27 107/23/27 108/24/27
f 106/20/27 108/24/27 105/21/27
f 109/1/1 110/2/1 111/3/1
f 109/1/1 112/4/1 110/2/1
f 109/1/1 113/5/1 112/4/1
f 111/3/58 114/6/59 115/7/165
f 111/3/58 110/8/166 114/6/59
f 110/2/62 116/9/63 114/10/64
f 110/2/62 112/4/65 116/9/63
f 112/4/167 117/11/110 116/9/68
f 112/4/167 113/5/168 117/11/110
f 113/5/169 118/12/93 117/11/114
f 113/5/169 109/13/170 118/12/93
f 109/13/171 115/7/75 118/12/172
f 109/13/171 111/3/77 115/7/75
f 115/7/165 119/14/79 120/15/79
f 115/7/165 114/6/59 119/14/79
f 114/10/64 121/16/80 119/17/80
f 114/10/64 116/9/63 121/16/80
f 116/9/68 122/18/81 121/16/82
f 116/9/68 117/11/110 122/18/81
f 117/11/114 123/19/83 122/18/83
f 117/11/114 118/12/93 123/19/83
f 118/12/172 120/15/84 123/19/84
f 118/12/172 115/7/75 120/15/84
f 121/20/27 120/21/27 119/22/27
f 121/20/27 122/23/27 123/24/27
f 121/20/27 123/24/27 120/21/27
f 124/1/1 125/2/1 126/3/1
f 124/1/1 127/4/1 125/2/1
f 124/1/1 128/5/1 127/4/1
f 126/3/103 129/6/173 130/7/105
f 126/3/103 125/8/174 129/6/173
f 125/2/107 131/9/63 129/10/108
f 125/2/107 127/4/109 131/9/63
f 127/4/175 132/11/111 131/9/111
f 127/4/175 128/5/69 132/11/111
f 128/5/176 133/12/177 132/11/178
f 128/5/176 124/13/95 133/12/177
f 124/13/179 130/7/117 133/12/118
f 124/13/179 126/3/119 130/7/117
f 130/7/105 134/14/78 135/15/79
f 130/7/105 129/6/173 134/14/78
f 129/10/108 136/16/80 134/17/80
f 129/10/108 131/9/63 136/16/80
f 131/9/111 137/18/81 136/16/81
f 131/9/111 132/11/111 137/18/81
f 132/11/178 138/19/180 137/18/83
f 132/11/178 133/12/177 138/19/180
f 133/12/118 135/15/181 138/19/182
f 133/12/118 130/7/117 135/15/181
f 136/20/27 135/21/27 134/22/27
f 136/20/27 137/23/27 138/24/27
f 136/20/27 138/24/27 135/21/27
f 139/1/1 140/2/1 141/3/1
f 139/1/1 142/4/1 140/2/1
f 139/1/1 143/5/1 142/4/1
f 141/3/183 144/6/104 145/7/87
f 141/3/183 140/8/184 144/6/104
f 140/2/62 146/9/63 144/10/185
f 140/2/62 142/4/65 146/9/63
f 142/4/186 147/11/187 146/9/67
f 142/4/186 143/5/112 147/11/187
f 143/5/188 148/12/71 147/11/189
f 143/5/188 139/13/190 148/12/71
f 139/13/96 145/7/97 148/12/98
f 139/13/96 141/3/99 145/7/97
f 145/7/87 149/14/191 150/15/192
f 145/7/87 144/6/104 149/14/191
f 144/10/185 151/16/80 149/17/80
f 144/10/185 146/9/63 151/16/80
f 146/9/67 152/18/82 151/16/81
f 146/9/67 147/11/187 152/18/82
f 147/11/189 153/19/193 152/18/193
f 147/11/189 148/12/71 153/19/193
f 148/12/98 150/15/102 153/19/102
f 148/12/98 145/7/97 150/15/102
f 151/20/27 150/21/27 149/22/27
f 151/20/27 152/23/27 153/24/27
f 151/20/27 153/24/27 150/21/27
f 154/1/1 155/2/1 156/3/1
f 154/1/1 157/4/1 155/2/1
f 154/1/1 158/5/1 157/4/1
f 156/3/140 159/6/194 160/7/195
f 156/3/140 155/8/196 159/6/194
f 155/2/197 161/9/198 159/10/199
f 155/2/197 157/4/200 161/9/198
f 157/4/201 162/11/202 161/9/203
f 157/4/201 158/5/204 162/11/202
f 158/5/205 163/12/152 162/11/206
f 158/5/205 154/13/207 163/12/152
f 154/13/208 160/7/209 163/12/157
f 154/13/208 156/3/210 160/7/209
f 160/7/195 164/14/211 165/15/212
f 160/7/195 159/6/194 164/14/211
f 159/10/199 166/16/213 164/17/214
f 159/10/199 161/9/198 166/16/213
f 161/9/203 167/18/215 166/16/215
f 161/9/203 162/11/202 167/18/215
f 162/11/206 168/19/163 167/18/163
f 162/11/206 163/12/152 168/19/163
f 163/12/157 165/15/216 168/19/217
f 163/12/157 160/7/209 165/15/216
f 166/20/27 165/21/27 164/22/27
f 166/20/27 167/23/27 168/24/27
f 166/20/27 168/24/27 165/21/27
f 169/1/1 170/2/1 171/3/1
f 169/1/1 172/4/1 170/2/1
f 169/1/1 173/5/1 172/4/1
f 171/3/85 174/6/218 175/7/87
f 171/3/85 170/8/219 174/6/218
f 170/2/107 176/9/220 174/10/64
f 170/2/107 172/4/221 176/9/220
f 172/4/186 177/11/222 176/9/187
f 172/4/186 173/5/223 177/11/222
f 173/5/224 178/12/225 177/11/226
f 173/5/224 169/13/227 178/12/225
f 169/13/228 175/7/229 178/12/98
f 169/13/228 171/3/230 175/7/229
f 175/7/87 179/14/191 180/15/192
f 175/7/87 174/6/218 179/14/191
f 174/10/64 181/16/231 179/17/231
f 174/10/64 176/9/220 181/16/231
f 176/9/187 182/18/232 181/16/232
f 176/9/187 177/11/222 182/18/232
f 177/11/226 183/19/83 182/18/180
f 177/11/226 178/12/225 183/19/83
f 178/12/98 180/15/233 183/19/233
f 178/12/98 175/7/229 180/15/233
f 181/20/27 180/21/27 179/22/27
f 181/20/27 182/23/27 183/24/27
f 181/20/27 183/24/27 180/21/27
f 184/1/1 185/2/1 186/3/1
f 184/1/1 187/4/1 185/2/1
f 184/1/1 188/5/1 187/4/1
f 186/3/234 189/6/59 190/7/87
f 186/3/234 185/8/235 189/6/59
f 185/2/236 191/9/237 189/10/238
f 185/2/236 187/4/239 191/9/237
f 187/4/240 192/11/67 191/9/241
f 187/4/240 188/5/242 192/11/67
f 188/5/243 193/12/244 192/11/189
f 188/5/243 184/13/245 193/12/244
f 184/13/246 190/7/247 193/12/248
f 184/13/246 186/3/249 190/7/247
f 190/7/87 194/14/191 195/15/192
f 190/7/87 189/6/59 194/14/191
f 189/10/238 196/16/250 194/17/251
f 189/10/238 191/9/237 196/16/250
f 191/9/241 197/18/252 196/16/252
f 191/9/241 192/11/67 197/18/252
f 192/11/189 198/19/83 197/18/180
f 192/11/189 193/12/244 198/19/83
f 193/12/248 195/15/181 198/19/253
f 193/12/248 190/7/247 195/15/181
f 196/20/27 195/21/27 194/22/27
f 196/20/27 197/23/27 198/24/27
f 196/20/27 198/24/27 195/21/27
f 199/1/1 200/2/1 201/3/1
f 199/1/1 202/4/1 200/2/1
f 199/1/1 203/5/1 202/4/1
f 201/3/183 204/6/59 205/7/254
f 201/3/183 200/8/166 204/6/59
f 200/2/255 206/9/256 204/10/257
f 200/2/255 202/4/258 206/9/256
f 202/4/259 207/11/68 206/9/187
f 202/4/259 203/5/260 207/11/68
f 203/5/261 208/12/262 207/11/263
f 203/5/261 199/13/264 208/12/262
f 199/13/74 205/7/265 208/12/266
f 199/13/74 201/3/267 205/7/265
f 205/7/254 209/14/79 210/15/79
f 205/7/254 204/6/59 209/14/79
f 204/10/257 211/16/268 209/17/269
f 204/10/257 206/9/256 211/16/268
f 206/9/187 212/18/252 211/16/252
f 206/9/187 207/11/68 212/18/252
f 207/11/263 213/19/83 212/18/180
f 207/11/263 208/12/262 213/19/83
f 208/12/266 210/15/253 213/19/253
f 208/12/266 205/7/265 210/15/253
f 211/20/27 210/21/27 209/22/27
f 211/20/27 212/23/27 213/24/27
f 211/20/27 213/24/27 210/21/27
f 214/1/1 215/2/1 216/3/1
f 214/1/1 217/4/1 215/2/1
f 214/1/1 218/5/1 217/4/1
f 216/3/270 219/6/271 220/7/272
f 216/3/270 215/8/273 219/6/271
f 215/2/274 221/9/275 219/10/276
f 215/2/274 217/4/277 221/9/275
f 217/4/278 222/11/279 221/9/280
f 217/4/278 218/5/281 222/11/279
f 218/5/282 223/12/283 222/11/284
f 218/5/282 214/13/285 223/12/283
f 214/13/286 220/7/287 223/12/288
f 214/13/286 216/3/289 220/7/287
f 220/7/272 224/14/290 225/15/291
f 220/7/272 219/6/271 224/14/290
f 219/10/276 226/16/292 224/17/293
f 219/10/276 221/9/275 226/16/292
f 221/9/280 227/18/294 226/16/294
f 221/9/280 222/11/279 227/18/294
f 222/11/284 228/19/295 227/18/295
f 222/11/284 223/12/283 228/19/295
f 223/12/288 225/15/296 228/19/297
f 223/12/288 220/7/287 225/15/296
f 226/20/27 225/21/27 224/22/27
f 226/20/27 227/23/27 228/24/27
f 226/20/27 228/24/27 225/21/27
f 229/1/1 230/2/1 231/3/1
f 229/1/1 232/4/1 230/2/1
f 229/1/1 233/5/1 232/4/1
f 231/3/298 234/6/299 235/7/300
f 231/3/298 230/8/301 234/6/299
f 230/2/302 236/9/303 234/10/304
f 230/2/302 232/4/305 236/9/303
f 232/4/306 237/11/307 236/9/308
f 232/4/306 233/5/309 237/11/307
f 233/5/310 238/12/311 237/11/312
f 233/5/310 229/13/313 238/12/311
f 229/13/314 235/7/315 238/12/316
f 229/13/314 231/3/317 235/7/315
f 235/7/300 239/14/318 240/15/318
f 235/7/300 234/6/299 239/14/318
f 234/10/304 241/16/319 239/17/319
f 234/10/304 236/9/303 241/16/319
f 236/9/308 242/18/320 241/16/321
f 236/9/308 237/11/307 242/18/320
f 237/11/312 243/19/322 242/18/323
f 237/11/312 238/12/311 243/19/322
f 238/12/316 240/15/324 243/19/324
f 238/12/316 235/7/315 240/15/324
f 241/20/27 240/21/27 239/22/27
f 241/20/27 242/23/27 243/24/27
f 241/20/27 243/24/27 240/21/27
f 244/1/1 245/2/1 246/3/1
f 244/1/1 247/4/1 245/2/1
f 244/1/1 248/5/1 247/4/1
f 246/3/325 249/6/326 250/7/327
f 246/3/325 245/8/328 249/6/326
f 245/2/302 251/9/329 249/10/304
f 245/2/302 247/4/305 251/9/329
f 247/4/330 252/11/331 251/9/308
f 247/4/330 248/5/332 252/11/331
f 248/5/333 253/12/311 252/11/334
f 248/5/333 244/13/335 253/12/311
f 244/13/336 250/7/315 253/12/337
f 244/13/336 246/3/338 250/7/315
f 250/7/327 254/14/339 255/15/339
f 250/7/327 249/6/326 254/14/339
f 249/10/304 256/16/340 254/17/319
f 249/10/304 251/9/329 256/16/340
f 251/9/308 257/18/320 256/16/320
f 251/9/308 252/11/331 257/18/320
f 252/11/334 258/19/341 257/18/342
f 252/11/334 253/12/311 258/19/341
f 253/12/337 255/15/324 258/19/324
f 253/12/337 250/7/315 255/15/324
f 256/20/27 255/21/27 254/22/27
f 256/20/27 257/23/27 258/24/27
f 256/20/27 258/24/27 255/21/27
f 259/1/1 260/2/1 261/3/1
f 259/1/1 262/4/1 260/2/1
f 259/1/1 263/5/1 262/4/1
f 261/3/343 264/6/344 265/7/345
f 261/3/343 260/8/346 264/6/344
f 260/2/347 266/9/329 264/10/348
f 260/2/347 262/4/349 266/9/329
f 262/4/350 267/11/351 266/9/308
f 262/4/350 263/5/352 267/11/351
f 263/5/353 268/12/311 267/11/312
f 263/5/353 259/13/313 268/12/311
f 259/13/354 265/7/355 268/12/316
f 259/13/354 261/3/356 265/7/355
f 265/7/345 269/14/357 270/15/318
f 265/7/345 264/6/344 269/14/357
f 264/10/348 271/16/319 269/17/319
f 264/10/348 266/9/329 271/16/319
f 266/9/308 272/18/320 271/16/320
f 266/9/308 267/11/351 272/18/320
f 267/11/312 273/19/358 272/18/359
f 267/11/312 268/12/311 273/19/358
f 268/12/316 270/15/324 273/19/324
f 268/12/316 265/7/355 270/15/324
f 271/20/27 270/21/27 269/22/27
f 271/20/27 272/23/27 273/24/27
f 271/20/27 273/24/27 270/21/27
f 274/1/1 275/2/1 276/3/1
f 274/1/1 277/4/1 275/2/1
f 274/1/1 278/5/1 277/4/1
f 276/3/360 279/6/361 280/7/362
f 276/3/360 275/8/363 279/6/361
f 275/2/274 281/9/364 279/10/365
f 275/2/274 277/4/366 281/9/364
f 277/4/367 282/11/368 281/9/369
f 277/4/367 278/5/370 282/11/368
f 278/5/371 283/12/372 282/11/373
f 278/5/371 274/13/374 283/12/372
f 274/13/375 280/7/376 283/12/377
f 274/13/375 276/3/378 280/7/376
f 280/7/362 284/14/291 285/15/291
f 280/7/362 279/6/361 284/14/291
f 279/10/365 286/16/379 284/17/379
f 279/10/365 281/9/364 286/16/379
f 281/9/369 287/18/380 286/16/381
f 281/9/369 282/11/368 287/18/380
f 282/11/373 288/19/295 287/18/295
f 282/11/373 283/12/372 288/19/295
f 283/12/377 285/15/296 288/19/296
f 283/12/377 280/7/376 285/15/296
f 286/20/27 285/21/27 284/22/27
f 286/20/27 287/23/27 288/24/27
f 286/20/27 288/24/27 285/21/27
f 289/1/1 290/2/1 291/3/1
f 289/1/1 292/4/1 290/2/1
f 289/1/1 293/5/1 292/4/1
f 291/3/382 294/6/383 295/7/384
f 291/3/382 290/8/385 294/6/383
f 290/2/386 296/9/387 294/10/348
f 290/2/386 292/4/305 296/9/387
f 292/4/306 297/11/388 296/9/308
f 292/4/306 293/5/389 297/11/388
f 293/5/353 298/12/390 297/11/312
f 293/5/353 289/13/391 298/12/390
f 289/13/354 295/7/392 298/12/316
f 289/13/354 291/3/393 295/7/392
f 295/7/384 299/14/357 300/15/318
f 295/7/384 294/6/383 299/14/357
f 294/10/348 301/16/394 299/17/394
f 294/10/348 296/9/387 301/16/394
f 296/9/308 302/18/395 301/16/395
f 296/9/308 297/11/388 302/18/395
f 297/11/312 303/19/322 302/18/359
f 297/11/312 298/12/390 303/19/322
f 298/12/316 300/15/396 303/19/396
f 298/12/316 295/7/392 300/15/396
f 301/20/27 300/21/27 299/22/27
f 301/20/27 302/23/27 303/24/27
f 301/20/27 303/24/27 300/21/27
f 304/1/1 305/2/1 306/3/1
f 304/1/1 307/4/1 305/2/1
f 304/1/1 308/5/1 307/4/1
f 306/3/298 309/6/397 310/7/398
f 306/3/298 305/8/399 309/6/397
f 305/2/302 311/9/329 309/10/304
f 305/2/302 307/4/400 311/9/329
f 307/4/401 312/11/402 311/9/308
f 307/4/401 308/5/403 312/11/402
f 308/5/310 313/12/311 312/11/404
f 308/5/310 304/13/313 313/12/311
f 304/13/405 310/7/406 313/12/407
f 304/13/405 306/3/408 310/7/406
f 310/7/398 314/14/409 315/15/339
f 310/7/398 309/6/397 314/14/409
f 309/10/304 316/16/410 314/17/411
f 309/10/304 311/9/329 316/16/410
f 311/9/308 317/18/395 316/16/395
f 311/9/308 312/11/402 317/18/395
f 312/11/404 318/19/342 317/18/342
f 312/11/404 313/12/311 318/19/342
f 313/12/407 315/15/412 318/19/324
f 313/12/407 310/7/406 315/15/412
f 316/20/27 315/21/27 314/22/27
f 316/20/27 317/23/27 318/24/27
f 316/20/27 318/24/27 315/21/27
f 319/1/1 320/2/1 321/3/1
f 319/1/1 322/4/1 320/2/1
f 319/1/1 323/5/1 322/4/1
f 321/3/413 324/6/414 325/7/415
f 321/3/413 320/8/416 324/6/414
f 320/2/417 326/9/418 324/10/419
f 320/2/417 322/4/420 326/9/418
f 322/4/401 327/11/307 326/9/308
f 322/4/401 323/5/403 327/11/307
f 323/5/421 328/12/422 327/11/423
f 323/5/421 319/13/391 328/12/422
f 319/13/424 325/7/425 328/12/407
f 319/13/424 321/3/426 325/7/425
f 325/7/415 329/14/339 330/15/427
f 325/7/415 324/6/414 329/14/339
f 324/10/419 331/16/394 329/17/428
f 324/10/419 326/9/418 331/16/394
f 326/9/308 332/18/429 331/16/429
f 326/9/308 327/11/307 332/18/429
f 327/11/423 333/19/430 332/18/431
f 327/11/423 328/12/422 333/19/430
f 328/12/407 330/15/412 333/19/324
f 328/12/407 325/7/425 330/15/412
f 331/20/27 330/21/27 329/22/27
f 331/20/27 332/23/27 333/24/27
f 331/20/27 333/24/27 330/21/27
f 334/1/1 335/2/1 336/3/1
f 334/1/1 337/4/1 335/2/1
f 334/1/1 338/5/1 337/4/1
f 336/3/432 339/6/433 340/7/434
f 336/3/432 335/8/435 339/6/433
f 335/2/436 341/9/437 339/10/438
f 335/2/436 337/4/439 341/9/437
f 337/4/440 342/11/441 341/9/442
f 337/4/440 338/5/443 342/11/441
f 338/5/444 343/12/445 342/11/446
f 338/5/444 334/13/447 343/12/445
f 334/13/448 340/7/449 343/12/450
f 334/13/448 336/3/451 340/7/449
f 340/7/434 344/14/452 345/15/453
f 340/7/434 339/6/433 344/14/452
f 339/10/438 346/16/454 344/17/454
f 339/10/438 341/9/437 346/16/454
f 341/9/442 347/18/455 346/16/456
f 341/9/442 342/11/441 347/18/455
f 342/11/446 348/19/457 347/18/458
f 342/11/446 343/12/445 348/19/457
f 343/12/450 345/15/459 348/19/459
f 343/12/450 340/7/449 345/15/459
f 346/20/27 345/21/27 344/22/27
f 346/20/27 347/23/27 348/24/27
f 346/20/27 348/24/27 345/21/27
f 349/1/1 350/2/1 351/3/1
f 349/1/1 352/4/1 350/2/1
f 349/1/1 353/5/1 352/4/1
f 351/3/460 354/6/461 355/7/462
f 351/3/460 350/8/463 354/6/461
f 350/2/464 356/9/465 354/10/466
f 350/2/464 352/4/467 356/9/465
f 352/4/468 357/11/469 356/9/470
f 352/4/468 353/5/471 357/11/469
f 353/5/472 358/12/473 357/11/474
f 353/5/472 349/13/475 358/12/473
f 349/13/476 355/7/477 358/12/478
f 349/13/476 351/3/479 355/7/477
f 355/7/462 359/14/480 360/15/480
f 355/7/462 354/6/461 359/14/480
f 354/10/466 361/16/481 359/17/482
f 354/10/466 356/9/465 361/16/481
f 356/9/470 362/18/483 361/16/483
f 356/9/470 357/11/469 362/18/483
f 357/11/474 363/19/484 362/18/484
f 357/11/474 358/12/473 363/19/484
f 358/12/478 360/15/485 363/19/485
f 358/12/478 355/7/477 360/15/485
f 361/20/27 360/21/27 359/22/27
f 361/20/27 362/23/27 363/24/27
f 361/20/27 363/24/27 360/21/27
f 364/1/1 365/2/1 366/3/1
f 364/1/1 367/4/1 365/2/1
f 364/1/1 368/5/1 367/4/1
f 366/3/460 369/6/461 370/7/462
f 366/3/460 365/8/486 369/6/461
f 365/2/487 371/9/488 369/10/489
f 365/2/487 367/4/490 371/9/488
f 367/4/491 372/11/492 371/9/493
f 367/4/491 368/5/494 372/11/492
f 368/5/495 373/12/496 372/11/497
f 368/5/495 364/13/498 373/12/496
f 364/13/499 370/7/500 373/12/501
f 364/13/499 366/3/502 370/7/500
f 370/7/462 374/14/480 375/15/480
f 370/7/462 369/6/461 374/14/480
f 369/10/489 376/16/503 374/17/503
f 369/10/489 371/9/488 376/16/503
f 371/9/493 377/18/504 376/16/505
f 371/9/493 372/11/492 377/18/504
f 372/11/497 378/19/506 377/18/506
f 372/11/497 373/12/496 378/19/506
f 373/12/501 375/15/507 378/19/507
f 373/12/501 370/7/500 375/15/507
f 376/20/27 375/21/27 374/22/27
f 376/20/27 377/23/27 378/24/27
f 376/20/27 378/24/27 375/21/27
f 379/1/1 380/2/1 381/3/1
f 379/1/1 382/4/1 380/2/1
f 379/1/1 383/5/1 382/4/1
f 381/3/508 384/6/509 385/7/510
f 381/3/508 380/8/511 384/6/509
f 380/2/487 386/9/512 384/10/513
f 380/2/487 382/4/490 386/9/512
f 382/4/514 387/11/492 386/9/493
f 382/4/514 383/5/494 387/11/492
f 383/5/515 388/12/516 387/11/517
f 383/5/515 379/13/518 388/12/516
f 379/13/519 385/7/500 388/12/520
f 379/13/519 381/3/502 385/7/500
f 385/7/510 389/14/521 390/15/521
f 385/7/510 384/6/509 389/14/521
f 384/10/513 391/16/522 389/17/522
f 384/10/513 386/9/512 391/16/522
f 386/9/493 392/18/504 391/16/505
f 386/9/493 387/11/492 392/18/504
f 387/11/517 393/19/523 392/18/523
f 387/11/517 388/12/516 393/19/523
f 388/12/520 390/15/507 393/19/507
f 388/12/520 385/7/500 390/15/507
f 391/20/27 390/21/27 389/22/27
f 391/20/27 392/23/27 393/24/27
f 391/20/27 393/24/27 390/21/27
f 394/1/1 395/2/1 396/3/1
f 394/1/1 397/4/1 395/2/1
f 394/1/1 398/5/1 397/4/1
f 396/3/524 399/6/525 400/7/526
f 396/3/524 395/8/527 399/6/525
f 395/2/528 401/9/529 399/10/530
f 395/2/528 397/4/531 401/9/529
f 397/4/532 402/11/533 401/9/534
f 397/4/532 398/5/535 402/11/533
f 398/5/536 403/12/445 402/11/537
f 398/5/536 394/13/447 403/12/445
f 394/13/538 400/7/539 403/12/540
f 394/13/538 396/3/541 400/7/539
f 400/7/526 404/14/453 405/15/453
f 400/7/526 399/6/525 404/14/453
f 399/10/530 406/16/542 404/17/542
f 399/10/530 401/9/529 406/16/542
f 401/9/534 407/18/455 406/16/455
f 401/9/534 402/11/533 407/18/455
f 402/11/537 408/19/543 407/18/543
f 402/11/537 403/12/445 408/19/543
f 403/12/540 405/15/459 408/19/544
f 403/12/540 400/7/539 405/15/459
f 406/20/27 405/21/27 404/22/27
f 406/20/27 407/23/27 408/24/27
f 406/20/27 408/24/27 405/21/27
f 409/1/1 410/2/1 411/3/1
f 409/1/1 412/4/1 410/2/1
f 409/1/1 413/5/1 412/4/1
f 411/3/545 414/6/546 415/7/547
f 411/3/545 410/8/548 414/6/546
f 410/2/549 416/9/512 414/10/550
f 410/2/549 412/4/490 416/9/512
f 412/4/514 417/11/551 416/9/493
f 412/4/514 413/5/552 417/11/551
f 413/5/553 418/12/496 417/11/554
f 413/5/553 409/13/498 418/12/496
f 409/13/555 415/7/500 418/12/556
f 409/13/555 411/3/502 415/7/500
f 415/7/547 419/14/521 420/15/521
f 415/7/547 414/6/546 419/14/521
f 414/10/550 421/16/503 419/17/557
f 414/10/550 416/9/512 421/16/503
f 416/9/493 422/18/483 421/16/483
f 416/9/493 417/11/551 422/18/483
f 417/11/554 423/19/484 422/18/484
f 417/11/554 418/12/496 423/19/484
f 418/12/556 420/15/485 423/19/485
f 418/12/556 415/7/500 420/15/485
f 421/20/27 420/21/27 419/22/27
f 421/20/27 422/23/27 423/24/27
f 421/20/27 423/24/27 420/21/27
f 424/1/1 425/2/1 426/3/1
f 424/1/1 427/4/1 425/2/1
f 424/1/1 428/5/1 427/4/1
f 426/3/558 429/6/546 430/7/510
f 426/3/558 425/8/548 429/6/546
f 425/2/487 431/9/559 429/10/560
f 425/2/487 427/4/561 431/9/559
f 427/4/562 432/11/563 431/9/551
f 427/4/562 428/5/564 432/11/563
f 428/5/515 433/12/473 432/11/474
f 428/5/515 424/13/565 433/12/473
f 424/13/566 430/7/477 433/12/567
f 424/13/566 426/3/568 430/7/477
f 430/7/510 434/14/480 435/15/480
f 430/7/510 429/6/546 434/14/480
f 429/10/560 436/16/569 434/17/570
f 429/10/560 431/9/559 436/16/569
f 431/9/551 437/18/483 436/16/483
f 431/9/551 432/11/563 437/18/483
f 432/11/474 438/19/506 437/18/506
f 432/11/474 433/12/473 438/19/506
f 433/12/567 435/15/507 438/19/507
f 433/12/567 430/7/477 435/15/507
f 436/20/27 435/21/27 434/22/27
f 436/20/27 437/23/27 438/24/27
f 436/20/27 438/24/27 435/21/27
f 439/1/1 440/2/1 441/3/1
f 439/1/1 442/4/1 440/2/1
f 439/1/1 443/5/1 442/4/1
f 441/3/571 444/6/546 445/7/462
f 441/3/571 440/8/548 444/6/546
f 440/2/487 446/9/488 444/10/560
f 440/2/487 442/4/572 446/9/488
f 442/4/562 447/11/563 446/9/492
f 442/4/562 443/5/573 447/11/563
f 443/5/574 448/12/575 447/11/517
f 443/5/574 439/13/475 448/12/575
f 439/13/576 445/7/477 448/12/501
f 439/13/576 441/3/479 445/7/477
f 445/7/462 449/14/480 450/15/480
f 445/7/462 444/6/546 449/14/480
f 444/10/560 451/16/577 449/17/578
f 444/10/560 446/9/488 451/16/577
f 446/9/492 452/18/579 451/16/579
f 446/9/492 447/11/563 452/18/579
f 447/11/517 453/19/506 452/18/506
f 447/11/517 448/12/575 453/19/506
f 448/12/501 450/15/580 453/19/507
f 448/12/501 445/7/477 450/15/580
f 451/20/27 450/21/27 449/22/27
f 451/20/27 452/23/27 453/24/27
f 451/20/27 453/24/27 450/21/27
f 454/1/1 455/2/1 456/3/1
f 454/1/1 457/4/1 455/2/1
f 454/1/1 458/5/1 457/4/1
f 456/3/581 459/6/141 460/7/582
f 456/3/581 455/8/583 459/6/141
f 455/2/584 461/9/198 459/10/585
f 455/2/584 457/4/586 461/9/198
f 457/4/587 462/11/37 461/9/203
f 457/4/587 458/5/588 462/11/37
f 458/5/589 463/12/590 462/11/591
f 458/5/589 454/13/592 463/12/590
f 454/13/593 460/7/594 463/12/595
f 454/13/593 456/3/596 460/7/594
f 460/7/582 464/14/597 465/15/211
f 460/7/582 459/6/141 464/14/597
f 459/10/585 466/16/213 464/17/598
f 459/10/585 461/9/198 466/16/213
f 461/9/203 467/18/215 466/16/215
f 461/9/203 462/11/37 467/18/215
f 462/11/591 468/19/599 467/18/600
f 462/11/591 463/12/590 468/19/599
f 463/12/595 465/15/164 468/19/164
f 463/12/595 460/7/594 465/15/164
f 466/20/27 465/21/27 464/22/27
f 466/20/27 467/23/27 468/24/27
f 466/20/27 468/24/27 465/21/27
f 469/1/1 470/2/1 471/3/1
f 469/1/1 472/4/1 470/2/1
f 469/1/1 473/5/1 472/4/1
f 471/3/601 474/6/104 475/7/602
f 471/3/601 470/8/184 474/6/104
f 470/2/603 476/9/604 474/10/605
f 470/2/603 472/4/606 476/9/604
f 472/4/259 477/11/607 476/9/607
f 472/4/259 473/5/259 477/11/607
f 473/5/608 478/12/609 477/11/610
f 473/5/608 469/13/611 478/12/609
f 469/13/612 475/7/613 478/12/172
f 469/13/612 471/3/77 475/7/613
f 475/7/602 479/14/192 480/15/614
f 475/7/602 474/6/104 479/14/192
f 474/10/605 481/16/231 479/17/231
f 474/10/605 476/9/604 481/16/231
f 476/9/607 482/18/615 481/16/616
f 476/9/607 477/11/607 482/18/615
f 477/11/610 483/19/101 482/18/101
f 477/11/610 478/12/609 483/19/101
f 478/12/172 480/15/102 483/19/617
f 478/12/172 475/7/613 480/15/102
f 481/20/27 480/21/27 479/22/27
f 481/20/27 482/23/27 483/24/27
f 481/20/27 483/24/27 480/21/27
f 484/1/1 485/2/1 486/3/1
f 484/1/1 487/4/1 485/2/1
f 484/1/1 488/5/1 487/4/1
f 486/3/618 489/6/619 490/7/254
f 486/3/618 485/8/620 489/6/619
f 485/2/621 491/9/622 489/10/605
f 485/2/621 487/4/623 491/9/622
f 487/4/624 492/11/625 491/9/241
f 487/4/624 488/5/186 492/11/625
f 488/5/70 493/12/626 492/11/94
f 488/5/70 484/13/627 493/12/626
f 484/13/628 490/7/629 493/12/630
f 484/13/628 486/3/249 490/7/629
f 490/7/254 494/14/191 495/15/192
f 490/7/254 489/6/619 494/14/191
f 489/10/605 496/16/631 494/17/632
f 489/10/605 491/9/622 496/16/631
f 491/9/241 497/18/232 496/16/232
f 491/9/241 492/11/625 497/18/232
f 492/11/94 498/19/193 497/18/633
f 492/11/94 493/12/626 498/19/193
f 493/12/630 495/15/84 498/19/102
f 493/12/630 490/7/629 495/15/84
f 496/20/27 495/21/27 494/22/27
f 496/20/27 497/23/27 498/24/27
f 496/20/27 498/24/27 495/21/27
f 499/1/1 500/2/1 501/3/1
f 499/1/1 502/4/1 500/2/1
f 499/1/1 503/5/1 502/4/1
f 501/3/634 504/6/173 505/7/254
f 501/3/634 500/8/106 504/6/173
f 500/2/635 506/9/63 504/10/185
f 500/2/635 502/4/65 506/9/63
f 502/4/186 507/11/625 506/9/187
f 502/4/186 503/5/91 507/11/625
f 503/5/636 508/12/244 507/11/637
f 503/5/636 499/13/638 508/12/244
f 499/13/628 505/7/639 508/12/640
f 499/13/628 501/3/641 505/7/639
f 505/7/254 509/14/79 510/15/79
f 505/7/254 504/6/173 509/14/79
f 504/10/185 511/16/631 509/17/632
f 504/10/185 506/9/63 511/16/631
f 506/9/187 512/18/252 511/16/252
f 506/9/187 507/11/625 512/18/252
f 507/11/637 513/19/642 512/18/643
f 507/11/637 508/12/244 513/19/642
f 508/12/640 510/15/84 513/19/233
f 508/12/640 505/7/639 510/15/84
f 511/20/27 510/21/27 509/22/27
f 511/20/27 512/23/27 513/24/27
f 511/20/27 513/24/27 510/21/27
f 514/1/1 515/2/1 516/3/1
f 514/1/1 517/4/1 515/2/1
f 514/1/1 518/5/1 517/4/1
f 516/3/644 519/6/645 520/7/646
f 516/3/644 515/8/647 519/6/645
f 515/2/648 521/9/649 519/10/650
f 515/2/648 517/4/651 521/9/649
f 517/4/652 522/11/11 521/9/653
f 517/4/652 518/5/654 522/11/11
f 518/5/14 523/12/15 522/11/655
f 518/5/14 514/13/656 523/12/15
f 514/13/657 520/7/658 523/12/659
f 514/13/657 516/3/660 520/7/658
f 520/7/646 524/14/661 525/15/662
f 520/7/646 519/6/645 524/14/661
f 519/10/650 526/16/663 524/17/664
f 519/10/650 521/9/649 526/16/663
f 521/9/653 527/18/24 526/16/665
f 521/9/653 522/11/11 527/18/24
f 522/11/655 528/19/25 527/18/25
f 522/11/655 523/12/15 528/19/25
f 523/12/659 525/15/666 528/19/667
f 523/12/659 520/7/658 525/15/666
f 526/20/27 525/21/27 524/22/27
f 526/20/27 527/23/27 528/24/27
f 526/20/27 528/24/27 525/21/27
f 529/1/1 530/2/1 531/3/1
f 529/1/1 532/4/1 530/2/1
f 529/1/1 533/5/1 532/4/1
f 531/3/668 534/6/669 535/7/670
f 531/3/668 530/8/671 534/6/669
f 530/2/672 536/9/7 534/10/673
f 530/2/672 532/4/674 536/9/7
f 532/4/654 537/11/12 536/9/675
f 532/4/654 533/5/676 537/11/12
f 533/5/677 538/12/678 537/11/655
f 533/5/677 529/13/679 538/12/678
f 529/13/680 535/7/681 538/12/682
f 529/13/680 531/3/683 535/7/681
f 535/7/670 539/14/684 540/15/684
f 535/7/670 534/6/669 539/14/684
f 534/10/673 541/16/23 539/17/23
f 534/10/673 536/9/7 541/16/23
f 536/9/675 542/18/24 541/16/685
f 536/9/675 537/11/12 542/18/24
f 537/11/655 543/19/25 542/18/25
f 537/11/655 538/12/678 543/19/25
f 538/12/682 540/15/686 543/19/687
f 538/12/682 535/7/681 540/15/686
f 541/20/27 540/21/27 539/22/27
f 541/20/27 542/23/27 543/24/27
f 541/20/27 543/24/27 540/21/27
f 544/1/1 545/2/1 546/3/1
f 544/1/1 547/4/1 545/2/1
f 544/1/1 548/5/1 547/4/1
f 546/3/688 549/6/689 550/7/646
f 546/3/688 545/8/690 549/6/689
f 545/2/691 551/9/649 549/10/692
f 545/2/691 547/4/693 551/9/649
f 547/4/694 552/11/12 551/9/695
f 547/4/694 548/5/10 552/11/12
f 548/5/14 553/12/696 552/11/655
f 548/5/14 544/13/697 553/12/696
f 544/13/698 550/7/699 553/12/700
f 544/13/698 546/3/701 550/7/699
f 550/7/646 554/14/702 555/15/703
f 550/7/646 549/6/689 554/14/702
f 549/10/692 556/16/663 554/17/664
f 549/10/692 551/9/649 556/16/663
f 551/9/695 557/18/24 556/16/665
f 551/9/695 552/11/12 557/18/24
f 552/11/655 558/19/704 557/18/705
f 552/11/655 553/12/696 558/19/704
f 553/12/700 555/15/666 558/19/666
f 553/12/700 550/7/699 555/15/666
f 556/20/27 555/21/27 554/22/27
f 556/20/27 557/23/27 558/24/27
f 556/20/27 558/24/27 555/21/27
f 559/1/1 560/2/1 561/3/1
f 559/1/1 562/4/1 560/2/1
f 559/1/1 563/5/1 562/4/1
f 561/3/706 564/6/707 565/7/646
f 561/3/706 560/8/708 564/6/707
f 560/2/648 566/9/649 564/10/650
f 560/2/648 562/4/651 566/9/649
f 562/4/694 567/11/12 566/9/709
f 562/4/694 563/5/676 567/11/12
f 563/5/710 568/12/696 567/11/711
f 563/5/710 559/13/712 568/12/696
f 559/13/713 565/7/699 568/12/714
f 559/13/713 561/3/701 565/7/699
f 565/7/646 569/14/661 570/15/662
f 565/7/646 564/6/707 569/14/661
f 564/10/650 571/16/23 569/17/23
f 564/10/650 566/9/649 571/16/23
f 566/9/709 572/18/24 571/16/665
f 566/9/709 567/11/12 572/18/24
f 567/11/711 573/19/25 572/18/25
f 567/11/711 568/12/696 573/19/25
f 568/12/714 570/15/666 573/19/667
f 568/12/714 565/7/699 570/15/666
f 571/20/27 570/21/27 569/22/27
f 571/20/27 572/23/27 573/24/27
f 571/20/27 573/24/27 570/21/27
f 574/1/1 575/2/1 576/3/1
f 574/1/1 577/4/1 575/2/1
f 574/1/1 578/5/1 577/4/1
f 576/3/715 579/6/3 580/7/716
f 576/3/715 575/8/717 579/6/3
f 575/2/6 581/9/7 579/10/8
f 575/2/6 577/4/674 581/9/7
f 577/4/652 582/11/653 581/9/653
f 577/4/652 578/5/654 582/11/653
f 578/5/14 583/12/15 582/11/16
f 578/5/14 574/13/17 583/12/15
f 574/13/698 580/7/699 583/12/700
f 574/13/698 576/3/21 580/7/699
f 580/7/716 584/14/662 585/15/662
f 580/7/716 579/6/3 584/14/662
f 579/10/8 586/16/23 584/17/23
f 579/10/8 581/9/7 586/16/23
f 581/9/653 587/18/685 586/16/685
f 581/9/653 582/11/653 587/18/685
f 582/11/16 588/19/25 587/18/25
f 582/11/16 583/12/15 588/19/25
f 583/12/700 585/15/718 588/19/718
f 583/12/700 580/7/699 585/15/718
f 586/20/27 585/21/27 584/22/27
f 586/20/27 587/23/27 588/24/27
f 586/20/27 588/24/27 585/21/27
f 589/1/1 590/2/1 591/3/1
f 589/1/1 592/4/1 590/2/1
f 589/1/1 593/5/1 592/4/1
f 591/3/719 594/6/720 595/7/721
f 591/3/719 590/8/722 594/6/720
f 590/2/723 596/9/7 594/10/724
f 590/2/723 592/4/693 596/9/7
f 592/4/652 597/11/653 596/9/653
f 592/4/652 593/5/652 597/11/653
f 593/5/725 598/12/15 597/11/655
f 593/5/725 589/13/656 598/12/15
f 589/13/698 595/7/726 598/12/700
f 589/13/698 591/3/727 595/7/726
f 595/7/721 599/14/662 600/15/662
f 595/7/721 594/6/720 599/14/662
f 594/10/724 601/16/23 599/17/23
f 594/10/724 596/9/7 601/16/23
f 596/9/653 602/18/24 601/16/24
f 596/9/653 597/11/653 602/18/24
f 597/11/655 603/19/25 602/18/25
f 597/11/655 598/12/15 603/19/25
f 598/12/700 600/15/718 603/19/718
f 598/12/700 595/7/726 600/15/718
f 601/20/27 600/21/27 599/22/27
f 601/20/27 602/23/27 603/24/27
f 601/20/27 603/24/27 600/21/27
f 604/1/1 605/2/1 606/3/1
f 604/1/1 607/4/1 605/2/1
f 604/1/1 608/5/1 607/4/1
f 606/3/728 609/6/3 610/7/721
f 606/3/728 605/8/729 609/6/3
f 605/2/723 611/9/7 609/10/8
f 605/2/723 607/4/674 611/9/7
f 607/4/654 612/11/11 611/9/653
f 607/4/654 608/5/13 612/11/11
f 608/5/14 613/12/15 612/11/16
f 608/5/14 604/13/17 613/12/15
f 604/13/698 610/7/19 613/12/700
f 604/13/698 606/3/730 610/7/19
f 610/7/721 614/14/661 615/15/661
f 610/7/721 609/6/3 614/14/661
f 609/10/8 616/16/23 614/17/23
f 609/10/8 611/9/7 616/16/23
f 611/9/653 617/18/24 616/16/24
f 611/9/653 612/11/11 617/18/24
f 612/11/16 618/19/25 617/18/25
f 612/11/16 613/12/15 618/19/25
f 613/12/700 615/15/731 618/19/731
f 613/12/700 610/7/19 615/15/731
f 616/20/27 615/21/27 614/22/27
f 616/20/27 617/23/27 618/24/27
f 616/20/27 618/24/27 615/21/27
f 619/1/1 620/2/1 621/3/1
f 619/1/1 622/4/1 620/2/1
f 619/1/1 623/5/1 622/4/1
f 621/3/719 624/6/720 625/7/721
f 621/3/719 620/8/722 624/6/720
f 620/2/6 626/9/7 624/10/724
f 620/2/6 622/4/674 626/9/7
f 622/4/654 627/11/11 626/9/653
f 622/4/654 623/5/654 627/11/11
f 623/5/14 628/12/732 627/11/655
f 623/5/14 619/13/733 628/12/732
f 619/13/734 625/7/726 628/12/735
f 619/13/734 621/3/727 625/7/726
f 625/7/721 629/14/22 630/15/22
f 625/7/721 624/6/720 629/14/22
f 624/10/724 631/16/23 629/17/23
f 624/10/724 626/9/7 631/16/23
f 626/9/653 632/18/24 631/16/24
f 626/9/653 627/11/11 632/18/24
f 627/11/655 633/19/25 632/18/25
f 627/11/655 628/12/732 633/19/25
f 628/12/735 630/15/718 633/19/718
f 628/12/735 625/7/726 630/15/718
f 631/20/27 630/21/27 629/22/27
f 631/20/27 632/23/27 633/24/27
f 631/20/27 633/24/27 630/21/27
f 634/1/1 635/2/1 636/3/1
f 634/1/1 637/4/1 635/2/1
f 634/1/1 638/5/1 637/4/1
f 636/3/736 639/6/720 640/7/721
f 636/3/736 635/8/737 639/6/720
f 635/2/6 641/9/7 639/10/8
f 635/2/6 637/4/674 641/9/7
f 637/4/652 642/11/653 641/9/653
f 637/4/652 638/5/652 642/11/653
f 638/5/14 643/12/15 642/11/655
f 638/5/14 634/13/17 643/12/15
f 634/13/698 640/7/699 643/12/700
f 634/13/698 636/3/738 640/7/699
f 640/7/721 644/14/22 645/15/662
f 640/7/721 639/6/720 644/14/22
f 639/10/8 646/16/23 644/17/23
f 639/10/8 641/9/7 646/16/23
f 641/9/653 647/18/24 646/16/24
f 641/9/653 642/11/653 647/18/24
f 642/11/655 648/19/25 647/18/25
f 642/11/655 643/12/15 648/19/25
f 643/12/700 645/15/718 648/19/718
f 643/12/700 640/7/699 645/15/718
f 646/20/27 645/21/27 644/22/27
f 646/20/27 647/23/27 648/24/27
f 646/20/27 648/24/27 645/21/27
f 649/1/1 650/2/1 651/3/1
f 649/1/1 652/4/1 650/2/1
f 649/1/1 653/5/1 652/4/1
f 651/3/715 654/6/3 655/7/716
f 651/3/715 650/8/717 654/6/3
f 650/2/723 656/9/7 654/10/8
f 650/2/723 652/4/674 656/9/7
f 652/4/654 657/11/653 656/9/653
f 652/4/654 653/5/652 657/11/653
f 653/5/14 658/12/15 657/11/655
f 653/5/14 649/13/733 658/12/15
f 649/13/739 655/7/699 658/12/740
f 649/13/739 651/3/738 655/7/699
f 655/7/716 659/14/661 660/15/661
f 655/7/716 654/6/3 659/14/661
f 654/10/8 661/16/23 659/17/23
f 654/10/8 656/9/7 661/16/23
f 656/9/653 662/18/24 661/16/24
f 656/9/653 657/11/653 662/18/24
f 657/11/655 663/19/25 662/18/25
f 657/11/655 658/12/15 663/19/25
f 658/12/740 660/15/731 663/19/731
f 658/12/740 655/7/699 660/15/731
f 661/20/27 660/21/27 659/22/27
f 661/20/27 662/23/27 663/24/27
f 661/20/27 663/24/27 660/21/27
f 664/1/1 665/2/1 666/3/1
f 664/1/1 667/4/1 665/2/1
f 664/1/1 668/5/1 667/4/1
f 666/3/728 669/6/720 670/7/721
f 666/3/728 665/8/741 669/6/720
f 665/2/6 671/9/7 669/10/8
f 665/2/6 667/4/674 671/9/7
f 667/4/13 672/11/11 671/9/11
f 667/4/13 668/5/654 672/11/11
f 668/5/14 673/12/15 672/11/655
f 668/5/14 664/13/733 673/12/15
f 664/13/734 670/7/699 673/12/735
f 664/13/734 666/3/738 670/7/699
f 670/7/721 674/14/661 675/15/661
f 670/7/721 669/6/720 674/14/661
f 669/10/8 676/16/23 674/17/23
f 669/10/8 671/9/7 676/16/23
f 671/9/11 677/18/24 676/16/24
f 671/9/11 672/11/11 677/18/24
f 672/11/655 678/19/25 677/18/25
f 672/11/655 673/12/15 678/19/25
f 673/12/735 675/15/731 678/19/731
f 673/12/735 670/7/699 675/15/731
f 676/20/27 675/21/27 674/22/27
f 676/20/27 677/23/27 678/24/27
f 676/20/27 678/24/27 675/21/27
f 679/1/1 680/2/1 681/3/1
f 679/1/1 682/4/1 680/2/1
f 679/1/1 683/5/1 682/4/1
f 681/3/715 684/6/3 685/7/716
f 681/3/715 680/8/717 684/6/3
f 680/2/723 686/9/7 684/10/8
f 680/2/723 682/4/674 686/9/7
f 682/4/654 687/11/653 686/9/11
f 682/4/654 683/5/652 687/11/653
f 683/5/14 688/12/15 687/11/16
f 683/5/14 679/13/656 688/12/15
f 679/13/698 685/7/699 688/12/740
f 679/13/698 681/3/738 685/7/699
f 685/7/716 689/14/661 690/15/661
f 685/7/716 684/6/3 689/14/661
f 684/10/8 691/16/23 689/17/23
f 684/10/8 686/9/7 691/16/23
f 686/9/11 692/18/24 691/16/24
f 686/9/11 687/11/653 692/18/24
f 687/11/16 693/19/25 692/18/25
f 687/11/16 688/12/15 693/19/25
f 688/12/740 690/15/731 693/19/731
f 688/12/740 685/7/699 690/15/731
f 691/20/27 690/21/27 689/22/27
f 691/20/27 692/23/27 693/24/27
f 691/20/27 693/24/27 690/21/27
f 694/1/1 695/2/1 696/3/1
f 694/1/1 697/4/1 695/2/1
f 694/1/1 698/5/1 697/4/1
f 696/3/719 699/6/720 700/7/721
f 696/3/719 695/8/741 699/6/720
f 695/2/723 701/9/7 699/10/8
f 695/2/723 697/4/693 701/9/7
f 697/4/13 702/11/11 701/9/11
f 697/4/13 698/5/13 702/11/11
f 698/5/725 703/12/15 702/11/655
f 698/5/725 694/13/733 703/12/15
f 694/13/742 700/7/726 703/12/735
f 694/13/742 696/3/727 700/7/726
f 700/7/721 704/14/22 705/15/662
f 700/7/721 699/6/720 704/14/22
f 699/10/8 706/16/23 704/17/23
f 699/10/8 701/9/7 706/16/23
f 701/9/11 707/18/24 706/16/24
f 701/9/11 702/11/11 707/18/24
f 702/11/655 708/19/25 707/18/25
f 702/11/655 703/12/15 708/19/25
f 703/12/735 705/15/26 708/19/718
f 703/12/735 700/7/726 705/15/26
f 706/20/27 705/21/27 704/22/27
f 706/20/27 707/23/27 708/24/27
f 706/20/27 708/24/27 705/21/27
f 709/1/1 710/2/1 711/3/1
f 709/1/1 712/4/1 710/2/1
f 709/1/1 713/5/1 712/4/1
f 711/3/736 714/6/720 715/7/721
f 711/3/736 710/8/737 714/6/720
f 710/2/723 716/9/7 714/10/8
f 710/2/723 712/4/674 716/9/7
f 712/4/652 717/11/11 716/9/653
f 712/4/652 713/5/654 717/11/11
f 713/5/14 718/12/15 717/11/16
f 713/5/14 709/13/17 718/12/15
f 709/13/742 715/7/699 718/12/735
f 709/13/742 711/3/738 715/7/699
f 715/7/721 719/14/22 720/15/662
f 715/7/721 714/6/720 719/14/22
f 714/10/8 721/16/23 719/17/23
f 714/10/8 716/9/7 721/16/23
f 716/9/653 722/18/24 721/16/24
f 716/9/653 717/11/11 722/18/24
f 717/11/16 723/19/25 722/18/25
f 717/11/16 718/12/15 723/19/25
f 718/12/735 720/15/26 723/19/718
f 718/12/735 715/7/699 720/15/26
f 721/20/27 720/21/27 719/22/27
f 721/20/27 722/23/27 723/24/27
f 721/20/27 723/24/27 720/21/27
