# Blender 4.4.3
# www.blender.org
mtllib BILLBRDA.mtl
o BILLBRDA
v 270.743408 17.826067 -424.494537
v 261.445801 17.826067 -418.667328
v 271.225403 17.826067 -423.725494
v 261.927795 17.826067 -417.898285
v 274.500580 17.826067 -418.499786
v 265.202942 17.826069 -412.672577
v 274.887238 17.826067 -417.882843
v 265.589600 17.826069 -412.055634
v 274.887238 21.926067 -417.882843
v 265.589600 21.926069 -412.055634
v 280.302582 21.926069 -409.242371
v 271.004944 21.926069 -403.415161
v 277.462433 17.826069 -407.462341
v 271.004944 17.826069 -403.415161
v 271.429810 17.826069 -402.737305
v 277.887299 17.826069 -406.784454
v 280.302582 17.826069 -409.242371
v 280.727417 17.826069 -408.564484
v 269.113434 17.826067 -427.095276
v 259.815796 17.826067 -421.268066
v 224.975128 17.826069 -408.105743
v 230.802322 17.826069 -398.808136
v 225.744171 17.826069 -408.587738
v 231.571365 17.826069 -399.290131
v 230.969894 17.826069 -411.862915
v 236.797089 17.826069 -402.565277
v 231.586823 17.826069 -412.249573
v 237.414032 17.826069 -402.951965
v 231.596176 17.883080 -412.255859
v 246.732361 17.826069 -408.792114
v 242.007339 17.826069 -414.824768
v 246.054504 17.826069 -408.367279
v 242.685211 17.826069 -415.249634
v 240.227310 17.826067 -417.664917
v 240.905182 17.826067 -418.089752
v 222.374390 17.826069 -406.475769
v 228.201599 17.826069 -397.178131
v -95.017326 14.884165 -700.119446
v -95.047348 14.884165 -689.146667
v -94.109726 14.884165 -700.116943
v -94.139755 14.884165 -689.144165
v -87.942505 14.884165 -700.100037
v -87.972534 14.884165 -689.127319
v -87.214417 14.884165 -700.098083
v -87.244438 14.884165 -689.125305
v -87.203156 14.941175 -700.098389
v -76.247253 14.884164 -689.095215
v -77.026382 14.884165 -696.718323
v -77.047234 14.884165 -689.097412
v -76.226387 14.884165 -696.716125
v -77.017212 14.884165 -700.070190
v -76.217216 14.884165 -700.067993
v -98.086617 14.884165 -700.127808
v -98.116646 14.884165 -689.155090
v 450.591614 3.518489 -261.956238
v 475.337585 3.518495 -178.978012
v 499.258118 3.518488 -276.469666
v 524.004089 3.518494 -193.491470
v -191.983246 16.770330 -640.808655
v -105.405548 16.770330 -639.376892
v -191.143524 16.770327 -691.586243
v -104.565842 16.770327 -690.154480
v -229.738922 18.052767 -723.445312
v -265.769043 18.052771 -683.278992
v -196.620605 18.052771 -694.035889
v -232.650711 18.052773 -653.869568
v 129.195526 3.582449 -40.213589
v 133.344452 3.582449 -40.213589
v 129.195526 3.582448 -69.912109
v 133.344452 3.582448 -69.912109
v 143.716904 3.582449 -40.213589
v 147.865814 3.582449 -40.213589
v 143.716904 3.582448 -69.912109
v 147.865814 3.582448 -69.912109
v 211.843079 3.582449 -40.213589
v 215.991974 3.582449 -40.213589
v 211.843079 3.582448 -69.912109
v 215.991974 3.582448 -69.912109
v 182.537018 3.582449 -40.213589
v 186.685928 3.582449 -40.213589
v 182.537018 3.582448 -69.912109
v 186.685928 3.582448 -69.912109
v 197.058350 3.582449 -40.213589
v 201.207275 3.582449 -40.213589
v 197.058350 3.582448 -69.912109
v 201.207275 3.582448 -69.912109
v -36.648254 3.169321 -19.180433
v -35.966846 3.169321 -19.180433
v -35.966846 3.169321 -20.097706
v -36.648254 3.169321 -20.097706
v -16.669785 3.169321 -19.180433
v -16.669785 3.169321 -20.097706
v 4.582371 3.169321 -19.180433
v 4.582371 3.169321 -20.097706
v 23.955832 3.169321 -19.180433
v 23.955832 3.169321 -20.097704
v 24.795675 3.169321 -19.180433
v 24.795675 3.169321 -20.097706
v -35.966846 3.169320 -30.760189
v -36.648254 3.169320 -30.760189
v -35.749989 6.320457 -20.510929
v -16.043518 6.320457 -20.510929
v -16.043518 6.320457 -30.346958
v -35.749989 6.320457 -30.346958
v 3.955742 6.320457 -20.510929
v 3.955742 6.320457 -30.346958
v 23.739689 6.320457 -20.510931
v 23.739689 6.320457 -30.346962
v 24.795675 3.169320 -30.760189
v 23.955832 3.169320 -30.760189
v -0.548857 -0.628630 -27.599192
v -0.283644 -0.628630 -27.599192
v -0.283644 -0.628630 -27.338188
v -0.548857 -0.628630 -27.338188
v 2.482090 1.401006 -27.397816
v 1.996274 1.328545 -26.924219
v 3.023754 1.401006 -26.842176
v 2.537938 1.328545 -26.368580
v 2.575084 0.842815 -26.404793
v 2.033421 0.842815 -26.960432
v 3.060901 0.915275 -26.878389
v 2.519237 0.915275 -27.434029
v 5.164021 -0.628630 -27.599192
v 5.429233 -0.628630 -27.599192
v 5.429233 -0.628630 -27.338188
v 5.164020 -0.628630 -27.338188
v 7.503249 1.401006 -27.511087
v 7.284003 1.328545 -26.869026
v 8.237590 1.401006 -27.260330
v 8.018345 1.328545 -26.618269
v 8.035109 0.842815 -26.667362
v 7.300768 0.842815 -26.918119
v 8.254354 0.915275 -27.309423
v 7.520013 0.915275 -27.560181
v 8.747978 1.401006 -27.208454
v 9.029858 1.328545 -26.591320
v 9.453810 1.401006 -27.530846
v 9.735689 1.328545 -26.913712
v 9.714136 0.842815 -26.960899
v 9.008305 0.842815 -26.638508
v 9.432257 0.915275 -27.578033
v 8.726425 0.915275 -27.255642
v 21.650911 -0.628630 -27.599190
v 21.916124 -0.628630 -27.599190
v 21.916124 -0.628630 -27.338186
v 21.650911 -0.628630 -27.338186
v 14.302088 1.401006 -27.208452
v 14.583967 1.328545 -26.591318
v 15.007919 1.401006 -27.530846
v 15.289799 1.328545 -26.913712
v 15.268248 0.842815 -26.960899
v 14.562414 0.842815 -26.638506
v 14.986366 0.915275 -27.578033
v 14.280537 0.915275 -27.255640
v -29.992254 -0.628630 -27.599192
v -29.727041 -0.628630 -27.599192
v -29.727041 -0.628630 -27.338188
v -29.992254 -0.628630 -27.338188
v -26.961308 1.401006 -27.397816
v -27.447123 1.328545 -26.924219
v -26.419643 1.401006 -26.842176
v -26.905458 1.328545 -26.368580
v -26.868313 0.842815 -26.404793
v -27.409975 0.842815 -26.960432
v -26.382496 0.915275 -26.878389
v -26.924160 0.915275 -27.434029
v -24.279377 -0.628630 -27.599192
v -24.014164 -0.628630 -27.599192
v -24.014164 -0.628630 -27.338188
v -24.279377 -0.628630 -27.338188
v -21.940147 1.401006 -27.511087
v -22.159393 1.328545 -26.869026
v -21.205807 1.401006 -27.260330
v -21.425053 1.328545 -26.618269
v -21.408287 0.842815 -26.667362
v -22.142628 0.842815 -26.918119
v -21.189041 0.915275 -27.309423
v -21.923384 0.915275 -27.560181
v -20.695419 1.401006 -27.208454
v -20.413540 1.328545 -26.591320
v -19.989586 1.401006 -27.530846
v -19.707706 1.328545 -26.913712
v -19.729259 0.842815 -26.960899
v -20.435093 0.842815 -26.638508
v -20.011139 0.915275 -27.578033
v -20.716972 0.915275 -27.255642
v -7.792485 -0.628630 -27.599190
v -7.527272 -0.628630 -27.599190
v -7.527272 -0.628630 -27.338186
v -7.792485 -0.628630 -27.338186
v -15.141308 1.401006 -27.208452
v -14.859428 1.328545 -26.591318
v -14.435476 1.401006 -27.530846
v -14.153597 1.328545 -26.913712
v -14.175149 0.842815 -26.960899
v -14.880981 0.842815 -26.638506
v -14.457029 0.915275 -27.578033
v -15.162860 0.915275 -27.255640
v 27.874491 3.169321 -19.180433
v 28.555897 3.169321 -19.180433
v 28.555897 3.169321 -20.097706
v 27.874491 3.169321 -20.097706
v 47.852959 3.169321 -19.180433
v 47.852959 3.169321 -20.097706
v 69.105118 3.169321 -19.180433
v 69.105118 3.169321 -20.097706
v 88.478577 3.169321 -19.180433
v 88.478577 3.169321 -20.097704
v 89.318420 3.169321 -19.180433
v 89.318420 3.169321 -20.097706
v 28.555897 3.169320 -30.760189
v 27.874491 3.169320 -30.760189
v 28.772755 6.320457 -20.510929
v 48.479225 6.320457 -20.510929
v 48.479225 6.320457 -30.346958
v 28.772755 6.320457 -30.346958
v 68.478485 6.320457 -20.510929
v 68.478485 6.320457 -30.346958
v 88.262436 6.320457 -20.510931
v 88.262436 6.320457 -30.346962
v 89.318420 3.169320 -30.760189
v 88.478577 3.169320 -30.760189
v 48.479225 6.320458 -15.036888
v 68.478485 6.320458 -15.036888
v 63.973873 -0.628630 -27.599192
v 64.239090 -0.628630 -27.599192
v 64.239090 -0.628630 -27.338188
v 63.973873 -0.628630 -27.338188
v 67.004822 1.401006 -27.397816
v 66.519005 1.328545 -26.924219
v 67.546486 1.401006 -26.842176
v 67.060669 1.328545 -26.368580
v 67.097816 0.842815 -26.404793
v 66.556152 0.842815 -26.960432
v 67.583633 0.915275 -26.878389
v 67.041969 0.915275 -27.434029
v 69.686752 -0.628630 -27.599192
v 69.951965 -0.628630 -27.599192
v 69.951965 -0.628630 -27.338188
v 69.686752 -0.628630 -27.338188
v 72.025978 1.401006 -27.511087
v 71.806732 1.328545 -26.869026
v 72.760323 1.401006 -27.260330
v 72.541077 1.328545 -26.618269
v 72.557838 0.842815 -26.667362
v 71.823502 0.842815 -26.918119
v 72.777084 0.915275 -27.309423
v 72.042747 0.915275 -27.560181
v 73.270706 1.401006 -27.208454
v 73.552589 1.328545 -26.591320
v 73.976540 1.401006 -27.530846
v 74.258423 1.328545 -26.913712
v 74.236870 0.842815 -26.960899
v 73.531036 0.842815 -26.638508
v 73.954987 0.915275 -27.578033
v 73.249161 0.915275 -27.255642
v 86.173645 -0.628630 -27.599190
v 86.438858 -0.628630 -27.599190
v 86.438858 -0.628630 -27.338186
v 86.173645 -0.628630 -27.338186
v 78.824821 1.401006 -27.208452
v 79.106705 1.328545 -26.591318
v 79.530655 1.401006 -27.530846
v 79.812531 1.328545 -26.913712
v 79.790977 0.842815 -26.960899
v 79.085144 0.842815 -26.638506
v 79.509102 0.915275 -27.578033
v 78.803268 0.915275 -27.255640
v 34.530502 -0.628630 -27.599192
v 34.795715 -0.628630 -27.599192
v 34.795715 -0.628630 -27.338188
v 34.530502 -0.628630 -27.338188
v 37.561451 1.401006 -27.397816
v 37.075638 1.328545 -26.924219
v 38.103115 1.401006 -26.842176
v 37.617302 1.328545 -26.368580
v 37.654446 0.842815 -26.404793
v 37.112785 0.842815 -26.960432
v 38.140263 0.915275 -26.878389
v 37.598598 0.915275 -27.434029
v 40.243382 -0.628630 -27.599192
v 40.508595 -0.628630 -27.599192
v 40.508595 -0.628630 -27.338188
v 40.243382 -0.628630 -27.338188
v 42.582611 1.401006 -27.511087
v 42.363365 1.328545 -26.869026
v 43.316952 1.401006 -27.260330
v 43.097710 1.328545 -26.618269
v 43.114471 0.842815 -26.667362
v 42.380131 0.842815 -26.918119
v 43.333717 0.915275 -27.309423
v 42.599373 0.915275 -27.560181
v 43.827339 1.401006 -27.208454
v 44.109222 1.328545 -26.591320
v 44.533173 1.401006 -27.530846
v 44.815052 1.328545 -26.913712
v 44.793499 0.842815 -26.960899
v 44.087666 0.842815 -26.638508
v 44.511620 0.915275 -27.578033
v 43.805786 0.915275 -27.255642
v 56.730274 -0.628630 -27.599190
v 56.995487 -0.628630 -27.599190
v 56.995487 -0.628630 -27.338186
v 56.730274 -0.628630 -27.338186
v 49.381451 1.401006 -27.208452
v 49.663330 1.328545 -26.591318
v 50.087280 1.401006 -27.530846
v 50.369164 1.328545 -26.913712
v 50.347610 0.842815 -26.960899
v 49.641777 0.842815 -26.638506
v 50.065727 0.915275 -27.578033
v 49.359898 0.915275 -27.255640
v 92.904976 3.169321 -19.180433
v 93.586380 3.169321 -19.180433
v 93.586380 3.169321 -20.097706
v 92.904976 3.169321 -20.097706
v 112.883446 3.169321 -19.180433
v 112.883446 3.169321 -20.097706
v 134.135605 3.169321 -19.180433
v 134.135605 3.169321 -20.097706
v 153.509064 3.169321 -19.180433
v 153.509064 3.169321 -20.097704
v 154.348907 3.169321 -19.180433
v 154.348907 3.169321 -20.097706
v 93.586380 3.169320 -30.760189
v 92.904976 3.169320 -30.760189
v 93.803238 6.320457 -20.510929
v 113.509712 6.320457 -20.510929
v 113.509712 6.320457 -30.346958
v 93.803238 6.320457 -30.346958
v 133.508972 6.320457 -20.510929
v 133.508972 6.320457 -30.346958
v 153.292923 6.320457 -20.510931
v 153.292923 6.320457 -30.346962
v 154.348907 3.169320 -30.760189
v 153.509064 3.169320 -30.760189
v 99.560989 -0.628630 -27.599192
v 99.826202 -0.628630 -27.599192
v 99.826202 -0.628630 -27.338188
v 99.560989 -0.628630 -27.338188
v 102.591934 1.401006 -27.397816
v 102.106117 1.328545 -26.924219
v 103.133598 1.401006 -26.842176
v 102.647781 1.328545 -26.368580
v 102.684929 0.842815 -26.404793
v 102.143265 0.842815 -26.960432
v 103.170746 0.915275 -26.878389
v 102.629082 0.915275 -27.434029
v 105.273865 -0.628630 -27.599192
v 105.539078 -0.628630 -27.599192
v 105.539078 -0.628630 -27.338188
v 105.273865 -0.628630 -27.338188
v 107.613098 1.401006 -27.511087
v 107.393845 1.328545 -26.869026
v 108.347435 1.401006 -27.260330
v 108.128189 1.328545 -26.618269
v 108.144958 0.842815 -26.667362
v 107.410614 0.842815 -26.918119
v 108.364197 0.915275 -27.309423
v 107.629860 0.915275 -27.560181
v 108.857826 1.401006 -27.208454
v 109.139702 1.328545 -26.591320
v 109.563660 1.401006 -27.530846
v 109.845535 1.328545 -26.913712
v 109.823982 0.842815 -26.960899
v 109.118149 0.842815 -26.638508
v 109.542099 0.915275 -27.578033
v 108.836273 0.915275 -27.255642
v 121.760757 -0.628630 -27.599190
v 122.025970 -0.628630 -27.599190
v 122.025970 -0.628630 -27.338186
v 121.760757 -0.628630 -27.338186
v 114.411934 1.401006 -27.208452
v 114.693817 1.328545 -26.591318
v 115.117767 1.401006 -27.530846
v 115.399643 1.328545 -26.913712
v 115.378098 0.842815 -26.960899
v 114.672264 0.842815 -26.638506
v 115.096214 0.915275 -27.578033
v 114.390381 0.915275 -27.255640
v 129.004364 -0.628630 -27.599192
v 129.269577 -0.628630 -27.599192
v 129.269577 -0.628630 -27.338188
v 129.004364 -0.628630 -27.338188
v 132.035309 1.401006 -27.397816
v 131.549500 1.328545 -26.924219
v 132.576981 1.401006 -26.842176
v 132.091171 1.328545 -26.368580
v 132.128311 0.842815 -26.404793
v 131.586639 0.842815 -26.960432
v 132.614120 0.915275 -26.878389
v 132.072464 0.915275 -27.434029
v 134.717255 -0.628630 -27.599192
v 134.982452 -0.628630 -27.599192
v 134.982452 -0.628630 -27.338188
v 134.717239 -0.628630 -27.338188
v 137.056473 1.401006 -27.511087
v 136.837234 1.328545 -26.869026
v 137.790817 1.401006 -27.260330
v 137.571579 1.328545 -26.618269
v 137.588333 0.842815 -26.667362
v 136.853989 0.842815 -26.918119
v 137.807587 0.915275 -27.309423
v 137.073242 0.915275 -27.560181
v 138.301208 1.401006 -27.208454
v 138.583084 1.328545 -26.591320
v 139.007034 1.401006 -27.530846
v 139.288910 1.328545 -26.913712
v 139.267365 0.842815 -26.960899
v 138.561539 0.842815 -26.638508
v 138.985489 0.915275 -27.578033
v 138.279648 0.915275 -27.255642
v 151.204132 -0.628630 -27.599190
v 151.469360 -0.628630 -27.599190
v 151.469360 -0.628630 -27.338186
v 151.204132 -0.628630 -27.338186
v 143.855316 1.401006 -27.208452
v 144.137192 1.328545 -26.591318
v 144.561142 1.401006 -27.530846
v 144.843033 1.328545 -26.913712
v 144.821472 0.842815 -26.960899
v 144.115646 0.842815 -26.638506
v 144.539597 0.915275 -27.578033
v 143.833771 0.915275 -27.255640
vn -0.0000 1.0000 -0.0000
vn 0.0072 1.0000 0.0017
vn 0.0036 1.0000 0.0008
vn 0.0052 1.0000 0.0052
vn 0.0026 1.0000 0.0026
vn -0.0000 -1.0000 -0.0000
vn -0.0760 0.9943 0.0741
vn 0.0760 -0.9943 -0.0741
vn -0.0343 0.9943 0.1005
vn 0.0343 -0.9943 -0.1005
vn 0.0441 0.9943 0.0966
vn -0.0441 -0.9943 -0.0966
vt 0.282524 1.999500
vt 0.282524 1.000500
vt 0.365919 1.999500
vt 0.365919 1.000500
vt 0.932599 1.999500
vt 0.932599 1.000499
vt 0.999500 1.999500
vt 0.999500 1.000499
vt 0.000500 1.999501
vt 0.000499 1.000500
vt 0.399770 1.694336
vt 0.399769 1.000499
vt 0.600230 1.000499
vt 0.600231 1.694336
vt 0.399770 1.999501
vt 0.600231 1.999500
vt 0.000500 1.000500
vt 0.000500 3.998502
vt 0.000499 1.001499
vt 0.999501 3.998501
vt 0.999500 1.001499
vt 0.000500 1.000499
vt 0.000499 1.999500
vt 0.999501 1.000500
vt 0.999501 1.999501
vt 0.004995 1.000501
vt 0.115783 1.000501
vt 0.115784 1.079635
vt 0.004995 1.079635
vt 3.253243 1.000500
vt 3.253243 1.079634
vt 6.708575 1.000500
vt 6.708575 1.079634
vt 9.858456 1.000499
vt 9.858457 1.079634
vt 9.995005 1.000499
vt 9.995005 1.079634
vt 0.115784 1.999501
vt 0.004995 1.999501
vt 0.000500 1.357688
vt 0.999500 1.357687
vt 0.999501 1.999500
vt 9.995005 1.999499
vt 9.858457 1.999499
vt 0.000000 2.000000
vt 0.000000 1.000000
vt 1.000000 2.000000
vt 1.000000 1.000000
s 1
usemtl BLBRDA.006
f 1/1/1 2/2/1 3/3/1
f 4/4/1 3/3/1 2/2/1
f 3/3/1 4/4/1 5/5/1
f 6/6/1 5/5/1 4/4/1
f 5/5/1 6/6/1 7/7/1
f 8/8/1 7/7/1 6/6/1
f 9/9/1 10/10/1 11/7/1
f 12/8/1 11/7/1 10/10/1
f 13/11/1 14/12/1 15/13/1
f 15/13/1 16/14/1 13/11/1
f 17/15/1 13/11/1 16/14/1
f 16/14/1 18/16/1 17/15/1
f 2/2/1 1/1/1 19/9/1
f 19/9/1 20/17/1 2/2/1
f 21/1/1 22/2/1 23/3/1
f 24/4/1 23/3/1 22/2/1
f 23/3/1 24/4/1 25/5/1
f 26/6/1 25/5/1 24/4/1
f 25/5/1 26/6/1 27/7/1
f 28/8/1 27/7/1 26/6/1
f 29/9/2 28/10/3 35/7/3
f 30/8/1 35/7/3 28/10/3
f 31/11/1 32/12/1 30/13/1
f 30/13/1 33/14/1 31/11/1
f 34/15/1 31/11/1 33/14/1
f 33/14/1 35/16/1 34/15/1
f 22/2/1 21/1/1 36/9/1
f 36/9/1 37/17/1 22/2/1
f 38/1/1 39/2/1 40/3/1
f 41/4/1 40/3/1 39/2/1
f 40/3/1 41/4/1 42/5/1
f 43/6/1 42/5/1 41/4/1
f 42/5/1 43/6/1 44/7/1
f 45/8/1 44/7/1 43/6/1
f 46/9/4 45/10/5 52/7/5
f 47/8/1 52/7/5 45/10/5
f 48/11/1 49/12/1 47/13/1
f 47/13/1 50/14/1 48/11/1
f 51/15/1 48/11/1 50/14/1
f 50/14/1 52/16/1 51/15/1
f 39/2/1 38/1/1 53/9/1
f 53/9/1 54/17/1 39/2/1
f 55/18/1 56/19/1 57/20/1
f 58/21/1 57/20/1 56/19/1
f 59/18/1 60/19/1 61/20/1
f 62/21/1 61/20/1 60/19/1
f 63/18/1 64/19/1 65/20/1
f 66/21/1 65/20/1 64/19/1
f 67/22/1 68/23/1 69/24/1
f 70/25/1 69/24/1 68/23/1
f 71/22/1 72/23/1 73/24/1
f 74/25/1 73/24/1 72/23/1
f 75/22/1 76/23/1 77/24/1
f 78/25/1 77/24/1 76/23/1
f 79/22/1 80/23/1 81/24/1
f 82/25/1 81/24/1 80/23/1
f 83/22/1 84/23/1 85/24/1
f 86/25/1 85/24/1 84/23/1
f 87/26/1 88/27/1 89/28/1
f 89/28/1 90/29/1 87/26/1
f 88/27/1 91/30/1 92/31/1
f 92/31/1 89/28/1 88/27/1
f 91/30/1 93/32/1 94/33/1
f 94/33/1 92/31/1 91/30/1
f 93/32/1 95/34/1 96/35/1
f 96/35/1 94/33/1 93/32/1
f 95/34/1 97/36/1 98/37/1
f 98/37/1 96/35/1 95/34/1
f 90/29/1 89/28/1 99/38/1
f 99/38/1 100/39/1 90/29/1
f 101/17/1 102/8/1 103/7/1
f 103/7/1 104/9/1 101/17/1
f 102/40/1 105/41/1 106/42/1
f 106/42/1 103/9/1 102/40/1
f 105/10/1 107/8/1 108/42/1
f 108/42/1 106/9/1 105/10/1
f 96/35/1 98/37/1 109/43/1
f 109/43/1 110/44/1 96/35/1
f 111/17/6 112/9/6 113/42/6
f 113/42/6 114/8/6 111/17/6
f 115/45/7 116/46/7 117/47/7
f 118/48/7 117/47/7 116/46/7
f 119/46/8 120/48/8 121/45/8
f 122/47/8 121/45/8 120/48/8
f 123/17/6 124/9/6 125/42/6
f 125/42/6 126/8/6 123/17/6
f 127/45/9 128/46/9 129/47/9
f 130/48/9 129/47/9 128/46/9
f 131/46/10 132/48/10 133/45/10
f 134/47/10 133/45/10 132/48/10
f 135/45/11 136/46/11 137/47/11
f 138/48/11 137/47/11 136/46/11
f 139/46/12 140/48/12 141/45/12
f 142/47/12 141/45/12 140/48/12
f 143/17/6 144/9/6 145/42/6
f 145/42/6 146/8/6 143/17/6
f 147/45/11 148/46/11 149/47/11
f 150/48/11 149/47/11 148/46/11
f 151/46/12 152/48/12 153/45/12
f 154/47/12 153/45/12 152/48/12
f 155/17/6 156/9/6 157/42/6
f 157/42/6 158/8/6 155/17/6
f 159/45/7 160/46/7 161/47/7
f 162/48/7 161/47/7 160/46/7
f 163/46/8 164/48/8 165/45/8
f 166/47/8 165/45/8 164/48/8
f 167/17/6 168/9/6 169/42/6
f 169/42/6 170/8/6 167/17/6
f 171/45/9 172/46/9 173/47/9
f 174/48/9 173/47/9 172/46/9
f 175/46/10 176/48/10 177/45/10
f 178/47/10 177/45/10 176/48/10
f 179/45/11 180/46/11 181/47/11
f 182/48/11 181/47/11 180/46/11
f 183/46/12 184/48/12 185/45/12
f 186/47/12 185/45/12 184/48/12
f 187/17/6 188/9/6 189/42/6
f 189/42/6 190/8/6 187/17/6
f 191/45/11 192/46/11 193/47/11
f 194/48/11 193/47/11 192/46/11
f 195/46/12 196/48/12 197/45/12
f 198/47/12 197/45/12 196/48/12
f 199/26/1 200/27/1 201/28/1
f 201/28/1 202/29/1 199/26/1
f 200/27/1 203/30/1 204/31/1
f 204/31/1 201/28/1 200/27/1
f 203/30/1 205/32/1 206/33/1
f 206/33/1 204/31/1 203/30/1
f 205/32/1 207/34/1 208/35/1
f 208/35/1 206/33/1 205/32/1
f 207/34/1 209/36/1 210/37/1
f 210/37/1 208/35/1 207/34/1
f 202/29/1 201/28/1 211/38/1
f 211/38/1 212/39/1 202/29/1
f 213/17/1 214/8/1 215/7/1
f 215/7/1 216/9/1 213/17/1
f 214/40/1 217/41/1 218/42/1
f 218/42/1 215/9/1 214/40/1
f 217/10/1 219/8/1 220/42/1
f 220/42/1 218/9/1 217/10/1
f 208/35/1 210/37/1 221/43/1
f 221/43/1 222/44/1 208/35/1
f 217/41/1 214/40/1 223/17/1
f 223/17/1 224/8/1 217/41/1
f 225/17/6 226/9/6 227/42/6
f 227/42/6 228/8/6 225/17/6
f 229/45/7 230/46/7 231/47/7
f 232/48/7 231/47/7 230/46/7
f 233/46/8 234/48/8 235/45/8
f 236/47/8 235/45/8 234/48/8
f 237/17/6 238/9/6 239/42/6
f 239/42/6 240/8/6 237/17/6
f 241/45/9 242/46/9 243/47/9
f 244/48/9 243/47/9 242/46/9
f 245/46/10 246/48/10 247/45/10
f 248/47/10 247/45/10 246/48/10
f 249/45/11 250/46/11 251/47/11
f 252/48/11 251/47/11 250/46/11
f 253/46/12 254/48/12 255/45/12
f 256/47/12 255/45/12 254/48/12
f 257/17/6 258/9/6 259/42/6
f 259/42/6 260/8/6 257/17/6
f 261/45/11 262/46/11 263/47/11
f 264/48/11 263/47/11 262/46/11
f 265/46/12 266/48/12 267/45/12
f 268/47/12 267/45/12 266/48/12
f 269/17/6 270/9/6 271/42/6
f 271/42/6 272/8/6 269/17/6
f 273/45/7 274/46/7 275/47/7
f 276/48/7 275/47/7 274/46/7
f 277/46/8 278/48/8 279/45/8
f 280/47/8 279/45/8 278/48/8
f 281/17/6 282/9/6 283/42/6
f 283/42/6 284/8/6 281/17/6
f 285/45/9 286/46/9 287/47/9
f 288/48/9 287/47/9 286/46/9
f 289/46/10 290/48/10 291/45/10
f 292/47/10 291/45/10 290/48/10
f 293/45/11 294/46/11 295/47/11
f 296/48/11 295/47/11 294/46/11
f 297/46/12 298/48/12 299/45/12
f 300/47/12 299/45/12 298/48/12
f 301/17/6 302/9/6 303/42/6
f 303/42/6 304/8/6 301/17/6
f 305/45/11 306/46/11 307/47/11
f 308/48/11 307/47/11 306/46/11
f 309/46/12 310/48/12 311/45/12
f 312/47/12 311/45/12 310/48/12
f 313/26/1 314/27/1 315/28/1
f 315/28/1 316/29/1 313/26/1
f 314/27/1 317/30/1 318/31/1
f 318/31/1 315/28/1 314/27/1
f 317/30/1 319/32/1 320/33/1
f 320/33/1 318/31/1 317/30/1
f 319/32/1 321/34/1 322/35/1
f 322/35/1 320/33/1 319/32/1
f 321/34/1 323/36/1 324/37/1
f 324/37/1 322/35/1 321/34/1
f 316/29/1 315/28/1 325/38/1
f 325/38/1 326/39/1 316/29/1
f 327/17/1 328/8/1 329/7/1
f 329/7/1 330/9/1 327/17/1
f 328/40/1 331/41/1 332/42/1
f 332/42/1 329/9/1 328/40/1
f 331/10/1 333/8/1 334/42/1
f 334/42/1 332/9/1 331/10/1
f 322/35/1 324/37/1 335/43/1
f 335/43/1 336/44/1 322/35/1
f 337/17/6 338/9/6 339/42/6
f 339/42/6 340/8/6 337/17/6
f 341/45/7 342/46/7 343/47/7
f 344/48/7 343/47/7 342/46/7
f 345/46/8 346/48/8 347/45/8
f 348/47/8 347/45/8 346/48/8
f 349/17/6 350/9/6 351/42/6
f 351/42/6 352/8/6 349/17/6
f 353/45/9 354/46/9 355/47/9
f 356/48/9 355/47/9 354/46/9
f 357/46/10 358/48/10 359/45/10
f 360/47/10 359/45/10 358/48/10
f 361/45/11 362/46/11 363/47/11
f 364/48/11 363/47/11 362/46/11
f 365/46/12 366/48/12 367/45/12
f 368/47/12 367/45/12 366/48/12
f 369/17/6 370/9/6 371/42/6
f 371/42/6 372/8/6 369/17/6
f 373/45/11 374/46/11 375/47/11
f 376/48/11 375/47/11 374/46/11
f 377/46/12 378/48/12 379/45/12
f 380/47/12 379/45/12 378/48/12
f 381/17/6 382/9/6 383/42/6
f 383/42/6 384/8/6 381/17/6
f 385/45/7 386/46/7 387/47/7
f 388/48/7 387/47/7 386/46/7
f 389/46/8 390/48/8 391/45/8
f 392/47/8 391/45/8 390/48/8
f 393/17/6 394/9/6 395/42/6
f 395/42/6 396/8/6 393/17/6
f 397/45/9 398/46/9 399/47/9
f 400/48/9 399/47/9 398/46/9
f 401/46/10 402/48/10 403/45/10
f 404/47/10 403/45/10 402/48/10
f 405/45/11 406/46/11 407/47/11
f 408/48/11 407/47/11 406/46/11
f 409/46/12 410/48/12 411/45/12
f 412/47/12 411/45/12 410/48/12
f 413/17/6 414/9/6 415/42/6
f 415/42/6 416/8/6 413/17/6
f 417/45/11 418/46/11 419/47/11
f 420/48/11 419/47/11 418/46/11
f 421/46/12 422/48/12 423/45/12
f 424/47/12 423/45/12 422/48/12
