# Blender 4.4.3
# www.blender.org
mtllib BILLBRDBK.mtl
o BILLBRDBK
v -271.655823 16.931444 -198.118759
v -276.153503 16.931444 -205.437973
v -271.655823 20.540550 -198.118759
v -276.153503 20.540550 -205.437973
v -229.183319 20.714256 -270.976288
v -230.346954 20.714256 -282.925385
v -229.183319 25.856070 -270.976288
v -230.346954 25.856071 -282.925415
v -230.496689 20.714254 -284.514069
v -231.660324 20.714254 -296.463196
v -230.496689 25.856071 -284.514069
v -231.660324 25.856070 -296.463196
v -232.109406 20.714254 -298.220520
v -233.273041 20.714254 -310.169617
v -232.109406 25.856068 -298.220520
v -233.273041 25.856068 -310.169647
v -233.422791 20.714252 -311.758331
v -234.586426 20.714251 -323.707428
v -233.422791 25.856068 -311.758331
v -234.586426 25.856066 -323.707458
v -234.865677 20.714251 -325.055847
v -236.029297 20.714251 -337.004913
v -234.865677 25.856066 -325.055847
v -236.029312 25.856066 -337.004944
v -254.025543 8.713279 -57.594231
v -259.558258 8.713280 -51.022377
v -254.025543 12.322384 -57.594231
v -259.558258 12.322385 -51.022377
v 304.478760 15.118621 -387.951050
v 309.433228 15.118621 -391.354279
v 304.478760 17.643833 -387.951050
v 309.433228 17.643833 -391.354279
v 299.270966 15.118622 -384.360382
v 304.225433 15.118621 -387.763611
v 299.270966 17.445244 -384.360382
v 304.225433 17.445244 -387.763611
v 314.931152 15.118621 -395.230225
v 319.885620 15.118620 -398.633453
v 314.931152 17.643831 -395.230225
v 319.885620 17.643831 -398.633453
v 309.723358 15.118621 -391.639526
v 314.677826 15.118621 -395.042755
v 309.723358 17.533962 -391.639526
v 314.677826 17.533962 -395.042755
v 330.072876 15.118620 -406.050903
v 334.993530 15.118620 -409.502838
v 330.072876 17.643831 -406.050903
v 334.993530 17.643831 -409.502838
v 324.900757 15.118620 -402.409027
v 329.821411 15.118620 -405.860962
v 324.900757 17.413633 -402.409027
v 329.821411 17.413633 -405.860962
v -24.361519 13.526404 -310.785583
v -18.352280 13.526404 -310.652344
v -24.361519 16.051617 -310.785583
v -18.352280 16.051617 -310.652344
v -30.685879 13.526404 -310.914734
v -24.676638 13.526404 -310.781494
v -30.685879 15.853026 -310.914734
v -24.676640 15.853026 -310.781494
v -11.625792 13.526404 -310.585144
v -5.616550 13.526404 -310.451874
v -11.625791 16.051617 -310.585144
v -5.616550 16.051617 -310.451874
v -17.950150 13.526404 -310.714264
v -11.940908 13.526404 -310.581024
v -17.950150 15.941747 -310.714264
v -11.940909 15.941747 -310.581024
v 6.984806 13.526404 -310.518585
v 12.995066 13.526404 -310.444641
v 6.984808 16.051617 -310.518585
v 12.995066 16.051617 -310.444641
v 0.659485 13.526404 -310.585358
v 6.669744 13.526404 -310.511383
v 0.659481 15.821418 -310.585358
v 6.669741 15.821418 -310.511383
v 361.877228 14.580247 -462.029602
v 356.933075 14.580248 -458.611389
v 361.877228 16.111849 -462.029602
v 356.933075 16.111849 -458.611389
v 367.074127 14.580247 -465.636078
v 362.129974 14.580247 -462.217834
v 367.074097 15.913258 -465.636078
v 362.129974 15.913258 -462.217834
v 351.446899 14.580248 -454.718842
v 346.502777 14.580248 -451.300629
v 351.446899 16.111849 -454.718842
v 346.502777 16.111849 -451.300629
v 356.643799 14.580248 -458.325287
v 351.699646 14.580248 -454.907074
v 356.643799 16.001980 -458.325287
v 351.699646 16.001980 -454.907074
v 334.960388 14.585530 -446.764679
v 329.191223 14.585530 -445.077759
v 334.960388 17.110743 -446.764679
v 329.191223 17.110741 -445.077759
v 341.028717 14.585529 -448.550598
v 335.259552 14.585530 -446.863708
v 341.028717 16.880543 -448.550598
v 335.259552 16.880543 -446.863708
v 574.363342 7.061469 -527.304443
v 570.625854 7.061468 -533.966736
v 574.363342 10.018373 -527.304443
v 570.625854 10.018373 -533.966736
v 558.056641 7.749736 -546.059814
v 552.016724 7.749735 -550.736816
v 558.056641 10.959028 -546.059814
v 552.016724 10.959027 -550.736816
v 570.453979 7.390473 -534.881653
v 558.972778 7.390473 -545.654053
v 570.453979 10.460135 -534.881653
v 558.972778 10.460134 -545.654053
v 542.360291 8.237207 -557.911682
v 536.274536 8.237206 -562.528870
v 542.360291 11.446499 -557.911682
v 536.274536 11.446498 -562.528870
v 548.773438 8.237207 -553.063782
v 542.687683 8.237207 -557.680969
v 548.773438 11.153939 -553.063782
v 542.687683 11.153939 -557.680969
v 487.950775 -1.069283 -329.376312
v 489.577698 -1.069282 -323.589966
v 487.950775 1.455928 -329.376312
v 489.577698 1.455929 -323.589966
v 486.227905 -1.069283 -335.462860
v 487.854828 -1.069283 -329.676514
v 486.227905 1.257339 -335.462860
v 487.854828 1.257339 -329.676514
v 491.477173 -1.069282 -317.136902
v 493.104126 -1.069281 -311.350555
v 491.477173 1.455930 -317.136902
v 493.104126 1.455930 -311.350555
v 489.754333 -1.069282 -323.223450
v 491.381256 -1.069282 -317.437103
v 489.754333 1.346060 -323.223450
v 491.381256 1.346060 -317.437103
v 496.846832 -1.069281 -299.317657
v 498.530762 -1.069280 -293.547638
v 496.846832 1.455931 -299.317657
v 498.530762 1.455932 -293.547638
v 493.441803 -1.069281 -310.864960
v 496.747955 -1.069281 -299.616882
v 493.441803 1.225731 -310.864960
v 496.747955 1.225732 -299.616882
v 498.730835 -1.069280 -292.699829
v 502.036987 -1.069279 -281.451752
v 498.730835 1.225733 -292.699829
v 502.036987 1.225734 -281.451752
v 491.163513 1.945578 -315.745453
v 492.790436 1.945579 -309.959106
v 491.163513 4.470791 -315.745453
v 492.790436 4.470792 -309.959106
v 489.440643 1.945578 -321.832001
v 491.067566 1.945578 -316.045654
v 489.440643 4.272201 -321.832001
v 491.067566 4.272201 -316.045654
v 529.928406 1.044465 -368.934082
v 536.645630 1.044464 -372.571838
v 529.928406 4.001369 -368.934082
v 536.645630 4.001369 -372.571838
v 551.175537 1.587171 -380.574982
v 557.892761 1.587171 -384.212708
v 551.175537 4.796464 -380.574982
v 557.892761 4.796464 -384.212708
v 537.005920 1.115358 -372.838745
v 550.830261 1.115357 -380.371948
v 537.005920 4.185017 -372.838745
v 550.830261 4.185016 -380.371948
v 571.760803 1.587171 -392.223114
v 578.441895 1.587171 -395.926941
v 571.760803 4.796463 -392.223145
v 578.441895 4.796463 -395.926941
v 564.736572 1.587172 -388.312897
v 571.417603 1.587171 -392.016724
v 564.736572 4.503904 -388.312897
v 571.417603 4.503902 -392.016724
v 518.619507 -0.108584 -358.099487
v 523.341431 -0.108584 -364.104309
v 518.619507 3.100707 -358.099487
v 523.341431 3.100707 -364.104309
v 513.661194 -0.108584 -351.771301
v 518.383179 -0.108584 -357.776123
v 513.661194 2.808149 -351.771301
v 518.383118 2.808147 -357.776123
v 527.482056 -1.698671 -337.315186
v 512.803894 -1.698672 -343.008606
v 527.482056 1.370986 -337.315186
v 512.803894 1.370987 -343.008606
v 409.812744 -1.489128 14.243315
v 415.821991 -1.489128 14.376563
v 409.812744 1.036084 14.243314
v 415.821991 1.036084 14.376562
v 403.488373 -1.489128 14.114174
v 409.497620 -1.489128 14.247422
v 403.488373 0.837494 14.114174
v 409.497620 0.837494 14.247422
v 422.548462 -1.489128 14.443769
v 428.557709 -1.489128 14.577016
v 422.548462 1.036084 14.443768
v 428.557709 1.036084 14.577016
v 416.224121 -1.489128 14.314629
v 422.233337 -1.489128 14.447876
v 416.224121 0.926215 14.314628
v 422.233337 0.926215 14.447875
v 441.159058 -1.489128 14.510303
v 447.169312 -1.489128 14.584268
v 441.159058 1.036084 14.510303
v 447.169312 1.036084 14.584268
v 434.833740 -1.489128 14.443555
v 440.843994 -1.489128 14.517519
v 434.833740 0.805885 14.443554
v 440.843994 0.805885 14.517518
v 454.197296 -1.660035 14.358932
v 460.206543 -1.660035 14.492181
v 454.197296 0.865177 14.358932
v 460.206543 0.865177 14.492180
v 447.872925 -1.660035 14.229792
v 453.882172 -1.660035 14.363040
v 447.872925 0.666587 14.229792
v 453.882172 0.666587 14.363040
v 466.933014 -1.660035 14.559386
v 472.942261 -1.660035 14.692634
v 466.933014 0.865177 14.559385
v 472.942261 0.865177 14.692634
v 460.608673 -1.660035 14.430246
v 466.617920 -1.660035 14.563494
v 460.608673 0.755308 14.430245
v 466.617889 0.755308 14.563493
v 485.543610 -1.660035 14.625921
v 491.553894 -1.660035 14.699885
v 485.543610 0.865177 14.625920
v 491.553894 0.865177 14.699885
v 479.218292 -1.660035 14.559173
v 485.228546 -1.660035 14.633137
v 479.218292 0.634978 14.559172
v 485.228546 0.634978 14.633136
v -306.019653 0.404564 -864.453064
v -317.260925 0.404564 -864.605652
v -306.019653 5.127651 -864.453064
v -317.260925 5.127651 -864.605652
v -294.189117 0.404564 -864.313171
v -305.430359 0.404564 -864.465759
v -294.189117 4.756215 -864.313171
v -305.430359 4.756214 -864.465759
v -261.551178 -0.803273 -810.569092
v -250.315674 -0.803273 -810.178528
v -261.551178 3.919815 -810.569092
v -250.315674 3.919815 -810.178528
v -273.376099 -0.803273 -810.959412
v -262.140625 -0.803273 -810.568848
v -273.376099 3.714319 -810.959412
v -262.140625 3.714319 -810.568848
v -249.798141 -0.447393 -808.225342
v -239.195374 -0.447392 -789.031067
v -249.798141 3.845137 -808.225342
v -239.195389 3.845137 -789.031067
v -259.250122 4.835640 -809.219116
v -248.014633 4.835640 -808.828552
v -259.250122 9.558728 -809.219116
v -248.014633 9.558728 -808.828552
v -271.075073 4.835640 -809.609436
v -259.839569 4.835640 -809.218872
v -271.075073 9.187291 -809.609436
v -259.839569 9.187292 -809.218872
v -204.905151 -6.260888 -815.307312
v -214.182922 -6.260890 -830.533569
v -204.905151 -1.355504 -815.307312
v -214.182922 -1.355504 -830.533569
v -198.262238 -6.260884 -797.434692
v -205.008850 -6.260887 -813.939270
v -198.262238 -1.355501 -797.434692
v -205.008850 -1.355502 -813.939270
v -159.285553 -2.262050 -716.057617
v -129.663315 -1.556261 -718.885193
v -159.285553 4.316864 -716.057617
v -129.663315 5.022653 -718.885193
v -188.168930 -4.160414 -723.496948
v -161.518280 -3.102632 -716.183960
v -188.168930 2.629275 -723.496948
v -161.518280 3.687062 -716.183960
v -118.308022 1.071533 -726.535156
v -111.690536 1.071533 -730.112854
v -118.308022 4.231962 -726.535156
v -111.690536 4.231962 -730.112854
v -125.265656 1.071533 -722.757751
v -118.648163 1.071533 -726.335449
v -125.265656 3.943857 -722.757751
v -118.648163 3.943857 -726.335449
v 360.894257 32.555424 -912.283569
v 365.824585 32.555424 -908.845398
v 360.894257 35.080635 -912.283569
v 365.824585 35.080635 -908.845398
v 355.699249 32.787804 -915.892761
v 360.629578 32.787804 -912.454590
v 355.699249 35.114426 -915.892761
v 360.629578 35.114426 -912.454590
v 371.388733 32.272472 -905.065186
v 376.319031 32.272472 -901.627014
v 371.388733 34.797684 -905.065186
v 376.319031 34.797684 -901.627014
v 366.193726 32.400650 -908.674377
v 371.124054 32.400650 -905.236206
v 366.193726 34.815994 -908.674377
v 371.124054 34.815994 -905.236206
v 386.694763 32.116745 -894.329224
v 391.658722 32.116745 -890.939941
v 386.694763 34.641956 -894.329224
v 391.658722 34.641956 -890.939941
v 381.464417 32.223255 -897.887024
v 386.428406 32.223255 -894.497681
v 381.464417 34.518269 -897.887024
v 386.428375 34.518269 -894.497681
v 323.811127 34.069607 -937.384338
v 328.858704 34.069611 -934.120789
v 323.811127 36.594818 -937.384338
v 328.858704 36.594822 -934.120789
v 318.493042 34.200611 -940.809570
v 323.540619 34.200611 -937.546021
v 318.493042 36.527233 -940.809570
v 323.540619 36.527233 -937.546021
v 334.551727 33.759869 -930.537537
v 339.599304 33.759869 -927.273987
v 334.551727 36.285080 -930.537537
v 339.599304 36.285080 -927.273987
v 329.233643 33.966450 -933.962769
v 334.281219 33.966450 -930.699219
v 329.233643 36.381794 -933.962769
v 334.281219 36.381794 -930.699219
v 349.818420 33.091953 -920.079041
v 354.780060 33.091953 -916.686340
v 349.818420 35.617165 -920.079041
v 354.780060 35.617165 -916.686340
v 344.590515 33.274574 -923.640442
v 349.552185 33.274574 -920.247681
v 344.590515 35.569588 -923.640442
v 349.552185 35.569588 -920.247681
v 444.587067 31.782902 -733.044556
v 456.588806 31.893480 -738.562561
v 444.587067 35.586987 -733.044556
v 456.588806 35.697567 -738.562561
v 431.960663 31.666533 -727.227173
v 443.962433 31.777111 -732.745178
v 431.960663 35.171455 -727.227173
v 443.962433 35.282032 -732.745178
v 469.988129 32.017181 -744.812927
v 481.989899 32.127762 -750.330994
v 469.988159 35.821266 -744.812927
v 481.989899 35.931847 -750.330994
v 457.361755 31.900814 -738.995544
v 469.363525 32.011395 -744.513611
v 457.361755 35.539387 -738.995544
v 469.363495 35.649967 -744.513611
v 219.984070 23.413662 -620.160095
v 236.611115 24.290152 -628.072937
v 219.984070 28.959044 -620.160095
v 236.611115 29.835537 -628.072937
v 202.490250 22.491291 -611.822510
v 219.117310 23.367779 -619.735413
v 202.490265 27.600567 -611.822510
v 219.117294 28.477058 -619.735413
v 255.184647 25.270662 -637.002380
v 271.811707 26.147152 -644.915222
v 255.184662 30.816048 -637.002380
v 271.811707 31.692535 -644.915222
v 237.690842 24.348291 -628.664795
v 254.317902 25.224783 -636.577637
v 237.690857 29.652401 -628.664795
v 254.317902 30.528891 -636.577637
v 294.183807 26.840679 -655.367615
v 306.162323 27.441751 -660.939941
v 294.183807 30.644768 -655.367615
v 306.162323 31.245838 -660.939941
v 281.582092 26.208157 -649.493225
v 293.560608 26.809227 -655.065552
v 281.582092 29.665461 -649.493225
v 293.560608 30.266531 -655.065552
v 270.714050 17.919401 -424.206085
v 274.045959 17.919401 -418.889832
v 270.714050 19.151831 -424.206085
v 274.045959 19.151831 -418.889832
v 270.966614 22.038008 -403.539673
v 267.114227 22.038008 -409.686371
v 270.966614 23.910517 -403.539673
v 267.114227 23.910517 -409.686371
v -191.201019 3.988807 -1.623266
v -191.201019 3.988809 8.750067
v -191.201019 6.747149 -1.623268
v -191.201019 6.747149 8.750064
v -191.201050 3.988806 -12.744024
v -191.201050 3.988808 -2.370693
v -191.201050 6.747148 -12.744026
v -191.201050 6.747149 -2.370694
v -199.004150 1.960801 6.849869
v -199.004150 1.960801 8.819619
v -199.004150 3.553253 6.849868
v -199.004150 3.553255 8.819618
v -204.811417 1.960801 6.849869
v -204.811417 1.960802 8.819619
v -204.811417 3.553253 6.849868
v -204.811417 3.553255 8.819619
v -210.663788 2.049382 6.849868
v -210.663788 2.049383 8.819619
v -210.663788 3.641835 6.849867
v -210.663788 3.641836 8.819618
v -216.392090 2.274997 6.849869
v -216.392090 2.274999 8.819620
v -216.392090 3.867450 6.849868
v -216.392090 3.867452 8.819620
v -222.359619 2.463321 6.849869
v -222.359619 2.463322 8.819620
v -222.359619 4.055773 6.849868
v -222.359619 4.055775 8.819620
v -227.416336 2.688747 6.849868
v -227.416336 2.688748 8.819619
v -227.416336 4.281199 6.849867
v -227.416336 4.281199 8.819618
v -233.383865 2.839866 6.849868
v -233.383865 2.839867 8.819619
v -233.383865 4.432319 6.849867
v -233.383865 4.432320 8.819618
v -240.513000 3.151856 6.849869
v -240.513000 3.151857 8.819619
v -240.513016 4.744308 6.849867
v -240.513000 4.744308 8.819618
v -246.480545 3.476579 6.849867
v -246.480545 3.476580 8.819619
v -246.480545 5.069030 6.849867
v -246.480545 5.069031 8.819618
v 400.491699 16.768917 -436.480255
v 394.866364 12.960448 -444.345551
v 416.447021 16.768917 -447.946075
v 410.726013 12.960449 -455.742645
v 396.662781 20.122183 -440.804443
v 392.602478 18.684225 -446.454590
v 413.728058 20.122183 -453.067902
v 409.667725 18.684229 -458.718048
v 400.058472 18.684229 -436.079163
v 417.123718 18.684229 -448.342621
v 380.156067 17.315735 -422.245209
v 374.530731 13.507267 -430.110504
v 396.111389 17.315737 -433.711029
v 390.390381 13.507268 -441.507599
v 376.327148 20.669001 -426.569397
v 372.266846 19.231045 -432.219543
v 393.392426 20.669003 -438.832855
v 389.332092 19.231047 -444.483002
v 379.722839 19.231047 -421.844116
v 396.788086 19.231049 -434.107574
v 429.889465 16.220367 -457.578766
v 424.264130 12.411899 -465.444061
v 445.844788 16.220367 -469.044586
v 440.123779 12.411900 -476.841156
v 426.060547 19.573633 -461.902954
v 422.000244 18.135675 -467.553101
v 443.125824 19.573633 -474.166412
v 439.065491 18.135679 -479.816559
v 429.456238 18.135677 -457.177673
v 446.521484 18.135679 -469.441132
v 547.702332 1.106879 -278.601624
v 538.423889 -2.701590 -275.877960
v 542.125732 1.106879 -297.441437
v 532.880737 -2.701590 -294.604858
v 542.358948 4.460144 -276.408997
v 535.687317 3.022188 -274.434204
v 536.394409 4.460145 -296.559448
v 529.722839 3.022190 -294.584656
v 547.938477 3.022189 -278.060547
v 541.973999 3.022191 -298.210968
v 554.772217 1.067384 -253.584229
v 545.493774 -2.741085 -250.860565
v 549.195618 1.067383 -272.424042
v 539.950623 -2.741085 -269.587463
v 549.428833 4.420650 -251.391602
v 542.757202 2.982693 -249.416809
v 543.464294 4.420650 -271.542053
v 536.792725 2.982695 -269.567261
v 555.008362 2.982694 -253.043137
v 549.043884 2.982695 -273.193573
v 567.094604 1.067388 -198.379105
v 557.816162 -2.741081 -195.655441
v 561.518005 1.067388 -217.218933
v 552.273010 -2.741081 -214.382324
v 561.751221 4.420654 -196.186478
v 555.079590 2.982697 -194.211685
v 555.786682 4.420654 -216.336929
v 549.115112 2.982699 -214.362137
v 567.330750 2.982698 -197.838013
v 561.366272 2.982700 -217.988464
v -290.065796 24.423216 -296.577057
v -280.395935 20.614748 -296.542755
v -290.091217 24.423220 -276.929230
v -280.421204 20.614752 -277.012726
v -284.319092 27.776482 -297.155487
v -277.361328 26.338526 -297.146484
v -284.346283 27.776485 -276.140839
v -277.388550 26.338531 -276.131836
v -290.137909 26.338528 -297.163025
v -290.165100 26.338531 -276.148376
v -290.510590 24.423214 -322.533173
v -280.840729 20.614746 -322.498871
v -290.536011 24.423218 -302.885345
v -280.865997 20.614750 -302.968842
v -284.763885 27.776480 -323.111603
v -277.806122 26.338524 -323.102600
v -284.791077 27.776484 -302.096954
v -277.833344 26.338530 -302.087952
v -290.582703 26.338526 -323.119141
v -290.609894 26.338530 -302.104492
v -290.319489 24.423210 -378.998871
v -280.649628 20.614742 -378.964569
v -290.344910 24.423214 -359.351044
v -280.674896 20.614746 -359.434540
v -284.572784 27.776476 -379.577301
v -277.615021 26.338520 -379.568298
v -284.599976 27.776480 -358.562653
v -277.642242 26.338526 -358.553650
v -290.391602 26.338522 -379.584839
v -290.418793 26.338526 -358.570190
v 377.562683 1.067405 32.463955
v 377.596985 -2.741064 22.794086
v 397.210510 1.067405 32.489372
v 397.127014 -2.741063 22.819355
v 376.984253 4.420670 26.717243
v 376.993256 2.982713 19.759499
v 397.998901 4.420672 26.744429
v 398.007904 2.982716 19.786690
v 376.976715 2.982715 32.536076
v 397.991364 2.982718 32.563263
v 351.604858 1.067405 32.789303
v 351.639160 -2.741064 23.119434
v 371.252686 1.067405 32.814720
v 371.169189 -2.741063 23.144703
v 351.026428 4.420670 27.042591
v 351.035431 2.982713 20.084846
v 372.041077 4.420672 27.069777
v 372.050079 2.982716 20.112038
v 351.018890 2.982715 32.861423
v 372.033539 2.982718 32.888611
v 295.155029 1.067405 29.202614
v 295.189331 -2.741065 19.532745
v 314.802856 1.067405 29.228031
v 314.719360 -2.741064 19.558014
v 294.576599 4.420670 23.455902
v 294.585602 2.982713 16.498158
v 315.591248 4.420672 23.483088
v 315.600250 2.982716 16.525349
v 294.569061 2.982715 29.274734
v 315.583710 2.982718 29.301922
v -177.128876 3.509754 32.622925
v -177.094574 -0.298715 22.953056
v -157.481064 3.509754 32.648342
v -157.564529 -0.298714 22.978325
v -177.707306 6.863019 26.876211
v -177.698303 5.425063 19.918468
v -156.692673 6.863021 26.903397
v -156.683670 5.425066 19.945656
v -177.714828 5.425064 32.695045
v -156.700195 5.425067 32.722229
v -120.679047 2.740024 29.346844
v -120.644737 -1.068446 19.676975
v -101.031235 2.740024 29.372261
v -101.114708 -1.068445 19.702244
v -121.257477 6.093289 23.600132
v -121.248474 4.655333 16.642387
v -100.242844 6.093291 23.627317
v -100.233841 4.655335 16.669579
v -121.265007 4.655334 29.418964
v -100.250366 4.655336 29.446152
v -94.721222 2.740024 29.021494
v -94.686913 -1.068446 19.351627
v -75.073410 2.740024 29.046911
v -75.156883 -1.068445 19.376896
v -95.299652 6.093289 23.274782
v -95.290649 4.655333 16.317039
v -74.285019 6.093291 23.301968
v -74.276016 4.655335 16.344227
v -95.307182 4.655334 29.093616
v -74.292542 4.655336 29.120802
v 47.014915 4.595364 33.561367
v 47.064484 -0.908064 19.587925
v 75.406982 4.595365 33.598099
v 75.286354 -0.908064 19.624439
v 46.179047 9.440999 25.257080
v 46.192055 7.363079 15.202794
v 46.168167 7.363081 33.665585
v 15.811848 9.440990 25.217791
v 15.824852 7.363070 15.163505
v 15.800964 7.363072 33.626297
v 15.937840 1.929888 32.991287
v 15.987411 -0.908069 19.550867
v 46.760540 1.929893 33.028015
v 46.639915 -0.908064 19.587379
v 76.546249 9.440996 25.296366
v 76.559250 7.363076 15.242078
v 106.913452 9.441002 25.335651
v 106.926453 7.363085 15.281368
v 76.535362 7.363079 33.704872
v 106.902573 7.363087 33.744156
v 75.661346 1.929896 33.065403
v 75.710922 -0.908064 19.624985
v 106.484047 1.929899 33.102131
v 106.363419 -0.908059 19.661497
v -334.067719 24.548143 -529.507080
v -324.398224 20.739676 -529.598877
v -333.837006 24.548147 -509.860626
v -324.168884 20.739679 -510.070129
v -328.329041 27.901409 -530.160400
v -321.371765 26.463453 -530.242065
v -328.082275 27.901413 -509.147186
v -321.125000 26.463459 -509.228882
v -334.147491 26.463453 -530.092041
v -333.900696 26.463459 -509.078857
v -334.067719 24.548143 -554.721436
v -324.398224 20.739674 -554.813171
v -333.837006 24.548145 -535.074951
v -324.168884 20.739677 -535.284485
v -328.329041 27.901409 -555.374756
v -321.371765 26.463451 -555.456421
v -328.082275 27.901411 -534.361511
v -321.125000 26.463457 -534.443237
v -334.147491 26.463451 -555.306396
v -333.900696 26.463457 -534.293213
v -334.067719 24.548141 -579.406799
v -324.398224 20.739672 -579.498535
v -333.837006 24.548143 -559.760315
v -324.168884 20.739676 -559.969849
v -328.329041 27.901407 -580.060120
v -321.371765 26.463449 -580.141785
v -328.082275 27.901409 -559.046875
v -321.125000 26.463455 -559.128601
v -334.147491 26.463449 -579.991760
v -333.900696 26.463455 -558.978577
v 401.707550 40.679466 -973.815735
v 392.503876 35.176041 -963.301392
v 380.301880 40.679466 -992.468018
v 371.226501 35.176044 -981.841858
v 396.891022 45.525105 -966.999512
v 390.285828 43.447186 -959.419250
v 373.996246 45.525101 -986.949341
v 367.391022 43.447189 -979.369141
v 402.415039 43.447186 -973.338928
v 379.520233 43.447189 -993.288818
v 419.785828 45.525097 -947.049622
v 413.180603 43.447178 -939.469421
v 425.309814 43.447178 -953.389099
v 424.789978 38.102509 -952.999573
v 415.935913 35.264549 -942.887512
v 401.549683 38.102512 -973.246277
v 392.823975 35.264557 -963.022461
v 351.101440 45.525105 -1006.899231
v 344.496246 43.447189 -999.318970
v 356.625427 43.447189 -1013.238647
v 379.760468 38.013996 -992.232788
v 370.906433 35.176044 -982.120789
v 356.520172 38.014000 -1012.479553
v 347.794464 35.176044 -1002.255676
v 514.702942 37.200790 -872.533081
v 505.371826 31.697365 -862.131714
v 493.526245 37.200790 -891.444885
v 484.322021 31.697365 -880.930115
v 509.803711 42.046429 -865.776062
v 503.106598 39.968510 -858.276917
v 487.153778 42.046425 -886.003540
v 480.456665 39.968513 -878.504333
v 515.404602 39.968510 -872.047729
v 492.754639 39.968513 -892.275146
v 532.453613 42.046421 -845.548645
v 525.756531 39.968502 -838.049438
v 538.054504 39.968502 -851.820251
v 537.529907 34.535316 -851.437134
v 528.553284 31.697363 -841.433777
v 514.538147 34.535324 -871.965637
v 505.688477 31.697365 -861.848877
v 464.503876 42.046429 -906.230957
v 457.806763 39.968513 -898.731812
v 470.104736 39.968513 -912.502625
v 492.981995 34.535320 -891.216309
v 484.005341 31.697365 -881.212952
v 469.990234 34.535324 -911.744812
v 461.140533 31.697369 -901.628052
v 374.845367 33.858486 -756.886597
v 378.924805 30.050016 -748.119324
v 357.050232 33.858486 -748.557739
v 361.236328 30.050020 -739.840332
v 377.811768 37.211750 -751.930847
v 380.761200 35.773796 -745.629150
v 358.778687 37.211754 -743.022522
v 361.728119 35.773796 -736.720886
v 375.345093 35.773796 -757.200989
v 356.312042 35.773800 -748.292664
v 352.366333 33.427372 -746.685608
v 356.445770 29.618904 -737.918274
v 334.571198 33.427372 -738.356689
v 338.757294 29.618906 -729.639282
v 355.332733 36.780636 -741.729797
v 358.282166 35.342682 -735.428101
v 336.299652 36.780640 -732.821472
v 339.249115 35.342690 -726.519836
v 352.866089 35.342682 -746.999939
v 333.833008 35.342686 -738.091675
v 329.405609 32.796024 -736.265930
v 333.485046 28.987558 -727.498596
v 311.610474 32.796028 -727.937012
v 315.796570 28.987560 -719.219604
v 332.372009 36.149292 -731.310120
v 335.321442 34.711338 -725.008423
v 313.338928 36.149296 -722.401794
v 316.288391 34.711342 -716.100159
v 329.905334 34.711334 -736.580261
v 310.872284 34.711342 -727.671997
v 22.570728 4.981606 -19.919434
v 15.316553 4.981606 -19.919434
v 22.570728 6.284286 -19.919432
v 15.316553 6.284286 -19.919432
v 13.212849 4.981606 -19.919434
v 5.958673 4.981606 -19.919434
v 13.212849 6.284286 -19.919432
v 5.958673 6.284286 -19.919432
v -17.979029 4.981606 -19.919434
v -25.233200 4.981606 -19.919434
v -17.979029 6.284286 -19.919432
v -25.233200 6.284286 -19.919432
v -27.336887 4.981606 -19.919434
v -34.591064 4.981606 -19.919434
v -27.336887 6.284286 -19.919432
v -34.591064 6.284286 -19.919432
v -2.148332 4.981606 -19.931595
v -9.402508 4.981606 -19.931595
v -2.148332 6.284286 -19.931595
v -9.402508 6.284286 -19.931595
v 47.703274 4.813960 -19.896870
v 69.254433 4.813960 -19.896870
v 69.254433 4.813960 -14.422827
v 47.703274 4.813960 -14.422828
v 87.093582 4.981606 -19.919434
v 79.839409 4.981606 -19.919434
v 87.093582 6.284286 -19.919432
v 79.839409 6.284286 -19.919432
v 77.735703 4.981606 -19.919434
v 70.481529 4.981606 -19.919434
v 77.735703 6.284286 -19.919432
v 70.481529 6.284286 -19.919432
v 46.543827 4.981606 -19.919434
v 39.289658 4.981606 -19.919434
v 46.543827 6.284286 -19.919432
v 39.289658 6.284286 -19.919432
v 37.185966 4.981606 -19.919434
v 29.931791 4.981606 -19.919434
v 37.185966 6.284286 -19.919432
v 29.931791 6.284286 -19.919432
v 62.374565 4.981607 -14.461899
v 55.120388 4.981607 -14.461899
v 62.374565 6.284286 -14.461898
v 55.120388 6.284286 -14.461898
v 152.123947 4.981606 -19.919434
v 144.869766 4.981606 -19.919434
v 152.123947 6.284286 -19.919432
v 144.869766 6.284286 -19.919432
v 142.766068 4.981606 -19.919434
v 135.511887 4.981606 -19.919434
v 142.766068 6.284286 -19.919432
v 135.511887 6.284286 -19.919432
v 111.574188 4.981606 -19.919434
v 104.320015 4.981606 -19.919434
v 111.574188 6.284286 -19.919432
v 104.320015 6.284286 -19.919432
v 102.216324 4.981606 -19.919434
v 94.962151 4.981606 -19.919434
v 102.216324 6.284286 -19.919432
v 94.962151 6.284286 -19.919432
v 127.404907 4.981606 -19.931595
v 120.150726 4.981606 -19.931595
v 127.404907 6.284286 -19.931595
v 120.150726 6.284286 -19.931595
v -160.601944 1.525649 10.773651
v -160.601944 1.525649 12.410243
v -160.601944 1.962400 10.773651
v -160.601944 1.962400 12.410243
v -160.725632 1.525649 12.410243
v -160.725632 1.525649 10.773651
v -160.725632 1.962400 12.410243
v -160.725632 1.962400 10.773651
v -271.335693 22.538870 -376.798676
v -272.972229 22.538870 -376.812958
v -271.335693 22.975620 -376.798676
v -272.972229 22.975620 -376.812958
v -272.971161 22.538870 -376.936646
v -271.334625 22.538870 -376.922363
v -272.971161 22.975620 -376.936646
v -271.334625 22.975620 -376.922363
v 412.234894 14.162238 -493.480591
v 411.342529 14.162238 -494.852478
v 412.234894 14.598989 -493.480591
v 411.342529 14.598989 -494.852478
v 411.446228 14.162238 -494.919922
v 412.338562 14.162238 -493.548035
v 411.446228 14.598989 -494.919922
v 412.338562 14.598989 -493.548035
v 527.159668 0.885838 -403.502777
v 525.662109 0.885837 -404.162964
v 527.159668 1.322588 -403.502777
v 525.662109 1.322588 -404.162964
v 525.712036 0.885837 -404.276154
v 527.209534 0.885838 -403.615967
v 525.712036 1.322588 -404.276154
v 527.209534 1.322588 -403.615967
v 544.012390 -0.738656 -207.006714
v 545.580322 -0.738656 -207.475784
v 544.012390 -0.301905 -207.006714
v 545.580322 -0.301905 -207.475784
v 545.615784 -0.738656 -207.357285
v 544.047852 -0.738656 -206.888214
v 545.615784 -0.301905 -207.357285
v 544.047852 -0.301905 -206.888214
v -111.084854 1.052978 10.781853
v -111.084854 1.052978 12.418445
v -111.084854 1.489730 10.781853
v -111.084854 1.489730 12.418445
v -111.208549 1.052978 12.418445
v -111.208549 1.052978 10.781853
v -111.208549 1.489730 12.418445
v -111.208549 1.489730 10.781853
v -271.360687 21.901934 -327.283478
v -272.997223 21.901934 -327.297760
v -271.360687 22.338684 -327.283478
v -272.997223 22.338684 -327.297760
v -272.996155 21.901934 -327.421448
v -271.359619 21.901934 -327.407166
v -272.996155 22.338684 -327.421448
v -271.359619 22.338684 -327.407166
v 372.228058 15.409500 -464.238770
v 371.335693 15.409500 -465.610687
v 372.228058 15.846251 -464.238770
v 371.335693 15.846251 -465.610687
v 371.439392 15.409500 -465.678131
v 372.331757 15.409500 -464.306213
v 371.439392 15.846251 -465.678131
v 372.331757 15.846251 -464.306213
v 534.259094 -0.738659 -256.027740
v 535.827026 -0.738659 -256.496826
v 534.259094 -0.301907 -256.027740
v 535.827026 -0.301907 -256.496826
v 535.862488 -0.738659 -256.378326
v 534.294556 -0.738659 -255.909241
v 535.862488 -0.301907 -256.378326
v 534.294556 -0.301907 -255.909241
v -317.641541 9.801375 -715.896240
v -319.278137 9.801375 -715.896240
v -317.641541 10.238127 -715.896240
v -319.278137 10.238127 -715.896240
v -319.278137 9.801375 -716.019958
v -317.641541 9.801375 -716.019958
v -319.278137 10.238127 -716.019958
v -317.641541 10.238127 -716.019958
v -61.149147 0.858631 10.742491
v -61.149147 0.858631 12.379083
v -61.149147 1.295383 10.742491
v -61.149147 1.295383 12.379083
v -61.272846 0.858631 12.379083
v -61.272846 0.858631 10.742491
v -61.272846 1.295383 12.379083
v -61.272846 1.295383 10.742491
v -271.457397 19.739090 -277.349701
v -273.093933 19.739090 -277.363983
v -271.457397 20.175840 -277.349701
v -273.093933 20.175840 -277.363983
v -273.092865 19.739090 -277.487671
v -271.456329 19.739090 -277.473389
v -273.092865 20.175840 -277.487671
v -271.456329 20.175840 -277.473389
v 520.165894 -0.738663 -303.984039
v 521.733826 -0.738663 -304.453125
v 520.165894 -0.301911 -303.984039
v 521.733826 -0.301911 -304.453125
v 521.769287 -0.738663 -304.334625
v 520.201355 -0.738663 -303.865540
v 521.769287 -0.301911 -304.334625
v 520.201355 -0.301911 -303.865540
v -317.602234 16.272617 -665.960571
v -319.238831 16.272617 -665.960571
v -317.602234 16.709368 -665.960571
v -319.238831 16.709368 -665.960571
v -319.238831 16.272617 -666.084290
v -317.602234 16.272617 -666.084290
v -319.238831 16.709368 -666.084290
v -317.602234 16.709368 -666.084290
v -317.633362 2.776729 -765.413330
v -319.269958 2.776729 -765.413330
v -317.633362 3.213481 -765.413330
v -319.269958 3.213481 -765.413330
v -319.269958 2.776729 -765.537048
v -317.633362 2.776729 -765.537048
v -319.269958 3.213481 -765.537048
v -317.633362 3.213481 -765.537048
v 155.037521 28.358545 -938.820496
v 150.993423 28.358545 -944.218872
v 155.037476 29.955481 -938.820496
v 150.993393 29.955481 -944.218872
v 151.202972 28.358545 -944.375061
v 155.247055 28.358545 -938.976624
v 151.202927 29.955481 -944.375000
v 155.247009 29.955481 -938.976624
v 447.488922 34.285931 -862.252441
v 444.130707 34.285931 -856.402649
v 447.488953 35.882866 -862.252441
v 444.130768 35.882866 -856.402649
v 443.904419 34.285931 -856.533325
v 447.262604 34.285931 -862.383118
v 443.904449 35.882866 -856.533325
v 447.262634 35.882866 -862.383057
v 333.199921 31.071005 -689.070129
v 336.283417 31.071007 -683.071045
v 333.199951 32.667938 -689.070129
v 336.283478 32.667938 -683.071045
v 336.050690 31.071007 -682.952148
v 332.967194 31.071005 -688.951233
v 336.050751 32.667938 -682.952148
v 332.967224 32.667938 -688.951233
v 365.166718 32.256168 -705.785889
v 368.250214 32.256168 -699.786804
v 365.166748 33.853104 -705.785889
v 368.250275 33.853104 -699.786804
v 368.017487 32.256168 -699.667908
v 364.933990 32.256168 -705.666992
v 368.017548 33.853104 -699.667908
v 364.934021 33.853104 -705.666992
v 396.136749 32.750851 -720.190918
v 399.220245 32.750851 -714.191833
v 396.136780 34.347786 -720.190918
v 399.220306 34.347786 -714.191833
v 398.987518 32.750851 -714.072937
v 395.904022 32.750851 -720.072021
v 398.987579 34.347786 -714.072937
v 395.904053 34.347786 -720.072021
v 42.092705 -1.667740 8.624562
v 42.092751 -1.667969 6.415365
v 42.411800 -1.104515 8.624554
v 42.411980 -1.104675 6.415357
v 42.613762 -1.667740 6.415362
v 42.613720 -1.667968 8.624559
v 42.411999 -1.104356 6.415357
v 16.984375 -1.667738 8.624563
v 16.984419 -1.667968 6.415367
v 17.303471 -1.104513 8.624555
v 17.303646 -1.104673 6.415359
v 17.505432 -1.667739 6.415364
v 17.505388 -1.667966 8.624560
v 17.303669 -1.104354 6.415359
v -8.123896 -1.667736 8.624569
v -8.123852 -1.667965 6.415373
v -7.804800 -1.104510 8.624560
v -7.804625 -1.104671 6.415364
v -7.602839 -1.667736 6.415370
v -7.602883 -1.667964 8.624566
v -7.804603 -1.104351 6.415364
v -30.721375 -1.667734 8.624574
v -30.721331 -1.667963 6.415378
v -30.402279 -1.104508 8.624565
v -30.402103 -1.104668 6.415369
v -30.200317 -1.667734 6.415375
v -30.200361 -1.667961 8.624571
v -30.402081 -1.104349 6.415369
v -255.584122 19.922995 -352.776581
v -253.374924 19.922768 -352.776550
v -253.374924 20.486061 -352.457306
v -253.374924 19.922995 -352.255524
v -255.584122 19.922768 -352.255585
v -253.374924 20.486382 -352.457306
v -255.584106 20.486221 -352.457458
v -255.584076 20.109461 -372.839172
v -253.374878 20.109234 -372.839142
v -253.374878 20.672527 -372.519897
v -253.374878 20.109461 -372.318115
v -255.584076 20.109234 -372.318176
v -253.374878 20.672848 -372.519897
v -255.584061 20.672688 -372.520050
v -255.584106 20.151608 -385.417419
v -253.374908 20.151381 -385.417389
v -253.374908 20.714674 -385.098145
v -253.374908 20.151608 -384.896362
v -255.584106 20.151381 -384.896423
v -253.374908 20.714994 -385.098145
v -255.584091 20.714834 -385.098297
v -255.584076 19.968990 -402.993073
v -253.374878 19.968763 -402.993042
v -253.374878 20.532057 -402.673798
v -253.374878 19.968990 -402.472015
v -255.584076 19.968763 -402.472076
v -253.374878 20.532377 -402.673798
v -255.584061 20.532217 -402.673950
v 286.615662 13.019914 -384.309784
v 287.903625 13.019685 -382.514862
v 287.644257 13.582979 -382.328735
v 287.480316 13.019914 -382.211090
v 286.192352 13.019686 -384.006012
v 287.644257 13.583299 -382.328735
v 286.356384 13.583139 -384.123718
v 306.782745 13.019910 -399.241913
v 308.070709 13.019681 -397.446991
v 307.811340 13.582976 -397.260864
v 307.647400 13.019911 -397.143219
v 306.359436 13.019682 -398.938141
v 307.811340 13.583296 -397.260864
v 306.523468 13.583136 -399.055847
v 327.271057 13.019907 -413.755890
v 328.559021 13.019677 -411.960968
v 328.299652 13.582972 -411.774841
v 328.135712 13.019907 -411.657196
v 326.847748 13.019677 -413.452118
v 328.299652 13.583291 -411.774841
v 327.011780 13.583132 -413.569824
v 344.005035 13.019903 -424.898071
v 345.292999 13.019675 -423.103149
v 345.033630 13.582970 -422.917023
v 344.869690 13.019904 -422.799377
v 343.581726 13.019674 -424.594299
v 345.033630 13.583289 -422.917023
v 343.745758 13.583129 -424.712006
v 151.780289 23.932890 -923.370667
v 153.068253 23.932665 -921.575745
v 152.808884 24.495958 -921.389648
v 152.644943 23.932892 -921.272034
v 151.356995 23.932663 -923.066956
v 152.808868 24.496279 -921.389648
v 151.521027 24.496117 -923.184631
v 155.870407 24.472643 -926.288208
v 157.158371 24.472416 -924.493286
v 156.899002 25.035709 -924.307190
v 156.735062 24.472643 -924.189575
v 155.447113 24.472416 -925.984497
v 156.898987 25.036030 -924.307190
v 155.611145 25.035870 -926.102173
v 159.941055 25.015074 -929.191772
v 161.229019 25.014847 -927.396851
v 160.969650 25.578140 -927.210754
v 160.805710 25.015074 -927.093140
v 159.517761 25.014847 -928.888062
v 160.969635 25.578461 -927.210754
v 159.681793 25.578300 -929.005737
v 147.729263 23.397993 -920.481201
v 149.017227 23.397766 -918.686279
v 148.757858 23.961060 -918.500183
v 148.593918 23.397993 -918.382568
v 147.305969 23.397766 -920.177490
v 148.757843 23.961380 -918.500183
v 147.470001 23.961220 -920.295166
v -300.457825 21.511669 -502.540131
v -302.427551 21.511669 -502.537231
v -300.457825 23.104122 -502.540131
v -302.427551 23.104122 -502.537231
v -300.466309 21.459139 -512.536987
v -302.436066 21.459139 -512.534058
v -300.466309 23.051592 -512.536987
v -302.436066 23.051592 -512.534058
v -300.474884 21.415545 -522.536804
v -302.444641 21.415545 -522.533875
v -300.474884 23.007998 -522.536804
v -302.444641 23.007998 -522.533875
v -300.483276 21.419720 -532.552795
v -302.453033 21.419720 -532.549927
v -300.483276 23.012173 -532.552795
v -302.453033 23.012173 -532.549927
v -300.492035 21.511662 -542.544678
v -302.461792 21.511662 -542.541809
v -300.492035 23.104115 -542.544678
v -302.461792 23.104116 -542.541809
v -299.678589 21.511660 -552.546448
v -301.648315 21.511660 -552.543579
v -299.678589 23.104113 -552.546448
v -301.648315 23.104113 -552.543579
v -300.178070 21.395092 -562.527832
v -302.147827 21.395092 -562.524963
v -300.178070 22.987545 -562.527832
v -302.147827 22.987545 -562.524963
v -300.650940 21.390127 -572.575134
v -302.620697 21.390127 -572.572205
v -300.650940 22.982580 -572.575134
v -302.620697 22.982580 -572.572205
v -301.063416 21.239548 -582.593872
v -303.033173 21.239548 -582.590942
v -301.063416 22.832001 -582.593872
v -303.033173 22.832001 -582.590942
v 278.841339 -2.524829 -25.631439
v 270.394043 -2.524829 -25.631439
v 278.841339 -1.007892 -25.631439
v 270.394043 -1.007892 -25.631439
v 267.944305 -2.524829 -25.631439
v 259.497009 -2.524829 -25.631439
v 267.944305 -1.007892 -25.631439
v 259.497009 -1.007892 -25.631439
v 288.876495 -2.524829 -25.631439
v 280.429169 -2.524829 -25.631439
v 288.876495 -1.007892 -25.631439
v 280.429169 -1.007892 -25.631439
v 536.793762 9.124447 -155.251465
v 535.900330 9.124447 -154.358017
v 534.679871 9.124447 -154.031006
v 533.459412 9.124447 -154.358017
v 532.565979 9.124447 -155.251465
v 532.238953 9.124447 -156.471924
v 532.565979 9.124447 -157.692383
v 536.793762 9.124447 -157.692383
v 537.120789 9.124447 -156.471924
v 533.459412 9.124446 -158.585831
v 534.679871 9.124446 -158.912842
v 535.900330 9.124446 -158.585831
v -286.950500 14.997651 -120.937447
v -295.075592 14.997652 -118.147591
v -286.950500 18.606756 -120.937447
v -295.075592 18.606756 -118.147591
vn 0.8520 -0.0000 -0.5236
vn 0.9953 -0.0000 -0.0969
vn -0.7650 -0.0000 -0.6440
vn 0.5662 -0.0000 0.8243
vn 0.5743 -0.0000 0.8186
vn 0.5743 -0.0000 0.8187
vn -0.0222 -0.0000 0.9998
vn -0.0123 -0.0000 0.9999
vn -0.5687 -0.0000 -0.8226
vn -0.5687 -0.0000 -0.8225
vn -0.2806 -0.0000 -0.9598
vn -0.2807 -0.0000 -0.9598
vn 0.8721 -0.0000 -0.4893
vn 0.6123 -0.0000 -0.7907
vn 0.6122 -0.0000 -0.7907
vn 0.6842 -0.0000 -0.7293
vn 0.6044 -0.0000 -0.7967
vn -0.9627 -0.0000 0.2707
vn -0.9600 -0.0000 0.2802
vn -0.9594 -0.0000 0.2820
vn 0.4762 -0.0000 0.8793
vn 0.4785 -0.0000 0.8781
vn 0.4849 -0.0000 0.8746
vn 0.4848 -0.0000 0.8746
vn 0.7861 -0.0000 0.6181
vn 0.3616 -0.0000 -0.9323
vn 0.0136 -0.0000 -0.9999
vn -0.0348 -0.0000 0.9994
vn -0.0347 -0.0000 0.9994
vn -0.8753 -0.0000 0.4835
vn 0.8540 -0.0000 -0.5203
vn 0.9257 -0.0000 -0.3784
vn 0.9256 -0.0000 -0.3784
vn 0.0950 -0.0000 0.9955
vn -0.2646 -0.0000 0.9644
vn 0.4756 -0.0000 0.8797
vn -0.5720 -0.0000 0.8203
vn -0.5720 -0.0000 0.8202
vn -0.5639 -0.0000 0.8259
vn -0.5639 -0.0000 0.8258
vn -0.5430 -0.0000 0.8398
vn -0.5429 -0.0000 0.8398
vn -0.5644 -0.0000 0.8255
vn -0.5645 -0.0000 0.8255
vn 0.4177 -0.0000 0.9086
vn 0.4297 -0.0000 0.9030
vn 0.4218 -0.0000 0.9067
vn -0.8473 -0.0000 0.5311
vn 0.8473 -0.0000 -0.5311
vn -1.0000 -0.0000 -0.0000
vn 0.2138 -0.9304 0.2976
vn -0.0112 -0.9998 -0.0156
vn 0.1181 -0.9793 0.1644
vn -0.1400 -0.9708 -0.1948
vn 0.3514 -0.9304 -0.1040
vn -0.0184 -0.9998 0.0055
vn 0.1941 -0.9793 -0.0574
vn -0.2300 -0.9708 0.0681
vn -0.3665 -0.9304 -0.0005
vn 0.0192 -0.9998 -0.0000
vn -0.2024 -0.9793 -0.0003
vn 0.2399 -0.9708 0.0003
vn -0.3664 -0.9304 -0.0005
vn -0.0005 -0.9304 0.3665
vn -0.0000 -0.9998 -0.0192
vn -0.0003 -0.9793 0.2024
vn 0.0003 -0.9708 -0.2399
vn -0.0005 -0.9304 0.3664
vn -0.0002 -0.9784 0.2066
vn -0.3664 -0.9304 0.0043
vn 0.0192 -0.9998 -0.0002
vn -0.2024 -0.9793 0.0024
vn 0.2399 -0.9708 -0.0028
vn 0.2407 -0.9304 -0.2763
vn -0.0126 -0.9998 0.0145
vn 0.1330 -0.9793 -0.1526
vn -0.1576 -0.9708 0.1809
vn 0.1357 -0.9784 -0.1558
vn 0.2441 -0.9304 -0.2733
vn -0.0128 -0.9998 0.0143
vn 0.1348 -0.9793 -0.1510
vn -0.1598 -0.9708 0.1789
vn 0.1376 -0.9784 -0.1541
vn -0.1553 -0.9304 -0.3319
vn 0.0081 -0.9998 0.0174
vn -0.0858 -0.9793 -0.1833
vn 0.0082 -0.9998 0.0174
vn 0.1017 -0.9708 0.2173
vn -0.0000 -0.0000 -1.0000
vn -0.0000 -1.0000 -0.0000
vn 1.0000 -0.0000 -0.0000
vn 0.0088 -0.0000 -1.0000
vn 0.0087 -0.0000 -1.0000
vn -0.0087 -0.0000 1.0000
vn 0.8383 -0.0000 -0.5453
vn -0.8383 -0.0000 0.5452
vn -0.8383 -0.0000 0.5453
vn 0.4034 -0.0000 -0.9150
vn -0.4034 -0.0000 0.9150
vn 0.2866 -0.0000 0.9581
vn 0.2866 -0.0000 0.9580
vn -0.2866 -0.0000 -0.9580
vn -0.0088 -0.0000 1.0000
vn 0.8383 -0.0000 -0.5452
vn -0.0000 -0.0000 1.0000
vn 0.8003 -0.0000 -0.5996
vn 0.8003 -0.0000 -0.5995
vn -0.8003 -0.0000 0.5996
vn -0.8673 -0.0000 -0.4979
vn 0.8673 -0.0000 0.4979
vn 0.8673 -0.0001 0.4979
vn -0.8894 -0.0000 0.4571
vn 0.8894 -0.0000 -0.4571
vn -0.8894 -0.0000 0.4572
vn 0.8701 -0.4929 0.0001
vn 0.8700 -0.4930 0.0001
vn 0.8701 -0.4930 0.0001
vn -0.9415 -0.3372 -0.0001
vn -0.9414 -0.3373 -0.0001
vn -0.9414 -0.3372 -0.0001
vn -0.9414 -0.3374 -0.0001
vn -0.0001 -0.4930 0.8701
vn -0.0001 -0.4931 0.8700
vn -0.0001 -0.4930 0.8700
vn -0.0000 -0.3372 -0.9414
vn 0.0001 -0.3373 -0.9414
vn 0.0001 -0.3372 -0.9414
vn -0.7069 -0.4930 0.5072
vn -0.7069 -0.4931 0.5072
vn -0.7069 -0.4931 0.5071
vn 0.7649 -0.3372 -0.5488
vn 0.7649 -0.3373 -0.5488
vn 0.7649 -0.3371 -0.5488
vn 0.7649 -0.3374 -0.5488
vn 0.7649 -0.3374 -0.5487
vn -0.7069 -0.4929 0.5072
vn 0.7649 -0.3373 -0.5487
vn 0.7650 -0.3371 -0.5488
vn -0.7069 -0.4930 0.5071
vn -0.0015 -0.0000 -1.0000
vn -0.0014 -0.0000 -1.0000
vn -0.3248 -0.0000 -0.9458
vt 0.000000 1.000000
vt 1.000000 1.000000
vt 0.000000 2.000000
vt 1.000000 2.000000
vt 0.999500 1.162578
vt 0.000500 1.162578
vt 0.999501 1.837422
vt 0.000500 1.837422
vt 0.002498 2.499251
vt 0.002498 1.000751
vt 4.997502 2.499249
vt 4.997501 1.000749
vt 0.999500 1.999500
vt 0.999500 1.000500
vt 0.000500 1.999499
vt 0.000500 1.000500
vt 0.000500 1.000499
vt 0.932580 1.250250
vt 0.749750 1.067420
vt 0.500000 1.000499
vt 0.250250 1.067420
vt 0.067420 1.250250
vt 0.000500 1.500000
vt 0.067420 1.749750
vt 0.932580 1.749750
vt 0.999500 1.500000
vt 0.250250 1.932580
vt 0.500000 1.999501
vt 0.749750 1.932580
s 1
usemtl BLBRDBK.040
f 1/1/1 2/2/1 3/3/1
f 4/4/1 3/3/1 2/2/1
f 5/1/2 6/2/2 7/3/2
f 8/4/2 7/3/2 6/2/2
f 9/1/2 10/2/2 11/3/2
f 12/4/2 11/3/2 10/2/2
f 13/1/2 14/2/2 15/3/2
f 16/4/2 15/3/2 14/2/2
f 17/1/2 18/2/2 19/3/2
f 20/4/2 19/3/2 18/2/2
f 21/1/2 22/2/2 23/3/2
f 24/4/2 23/3/2 22/2/2
f 25/1/3 26/2/3 27/3/3
f 28/4/3 27/3/3 26/2/3
f 29/1/4 30/2/4 31/3/4
f 32/4/4 31/3/4 30/2/4
f 33/1/4 34/2/4 35/3/4
f 36/4/4 35/3/4 34/2/4
f 37/1/4 38/2/4 39/3/4
f 40/4/4 39/3/4 38/2/4
f 41/1/4 42/2/4 43/3/4
f 44/4/4 43/3/4 42/2/4
f 45/1/5 46/2/5 47/3/5
f 48/4/5 47/3/5 46/2/5
f 49/1/5 50/2/5 51/3/5
f 52/4/6 51/3/5 50/2/5
f 53/1/7 54/2/7 55/3/7
f 56/4/7 55/3/7 54/2/7
f 57/1/7 58/2/7 59/3/7
f 60/4/7 59/3/7 58/2/7
f 61/1/7 62/2/7 63/3/7
f 64/4/7 63/3/7 62/2/7
f 65/1/7 66/2/7 67/3/7
f 68/4/7 67/3/7 66/2/7
f 69/1/8 70/2/8 71/3/8
f 72/4/8 71/3/8 70/2/8
f 73/1/8 74/2/8 75/3/8
f 76/4/8 75/3/8 74/2/8
f 77/1/9 78/2/9 79/3/9
f 80/4/9 79/3/9 78/2/9
f 81/1/10 82/2/9 83/3/10
f 84/4/9 83/3/10 82/2/9
f 85/1/9 86/2/9 87/3/9
f 88/4/9 87/3/9 86/2/9
f 89/1/9 90/2/9 91/3/9
f 92/4/9 91/3/9 90/2/9
f 93/1/11 94/2/11 95/3/11
f 96/4/11 95/3/11 94/2/11
f 97/1/12 98/2/11 99/3/12
f 100/4/11 99/3/12 98/2/11
f 101/1/13 102/2/13 103/3/13
f 104/4/13 103/3/13 102/2/13
f 105/1/14 106/2/15 107/3/14
f 108/4/15 107/3/14 106/2/15
f 109/1/16 110/2/16 111/3/16
f 112/4/16 111/3/16 110/2/16
f 113/1/17 114/2/17 115/3/17
f 116/4/17 115/3/17 114/2/17
f 117/1/17 118/2/17 119/3/17
f 120/4/17 119/3/17 118/2/17
f 121/1/18 122/2/18 123/3/18
f 124/4/18 123/3/18 122/2/18
f 125/1/18 126/2/18 127/3/18
f 128/4/18 127/3/18 126/2/18
f 129/1/18 130/2/18 131/3/18
f 132/4/18 131/3/18 130/2/18
f 133/1/18 134/2/18 135/3/18
f 136/4/18 135/3/18 134/2/18
f 137/1/19 138/2/19 139/3/19
f 140/4/19 139/3/19 138/2/19
f 141/1/20 142/2/20 143/3/20
f 144/4/20 143/3/20 142/2/20
f 145/1/20 146/2/20 147/3/20
f 148/4/20 147/3/20 146/2/20
f 149/1/18 150/2/18 151/3/18
f 152/4/18 151/3/18 150/2/18
f 153/1/18 154/2/18 155/3/18
f 156/4/18 155/3/18 154/2/18
f 157/1/21 158/2/21 159/3/21
f 160/4/21 159/3/21 158/2/21
f 161/1/21 162/2/21 163/3/21
f 164/4/21 163/3/21 162/2/21
f 165/1/22 166/2/22 167/3/22
f 168/4/22 167/3/22 166/2/22
f 169/1/23 170/2/24 171/3/23
f 172/4/24 171/3/23 170/2/24
f 173/1/23 174/2/23 175/3/23
f 176/4/23 175/3/23 174/2/23
f 177/1/25 178/2/25 179/3/25
f 180/4/25 179/3/25 178/2/25
f 181/1/25 182/2/25 183/3/25
f 184/4/25 183/3/25 182/2/25
f 185/1/26 186/2/26 187/3/26
f 188/4/26 187/3/26 186/2/26
f 189/1/7 190/2/7 191/3/7
f 192/4/7 191/3/7 190/2/7
f 193/1/7 194/2/7 195/3/7
f 196/4/7 195/3/7 194/2/7
f 197/1/7 198/2/7 199/3/7
f 200/4/7 199/3/7 198/2/7
f 201/1/7 202/2/7 203/3/7
f 204/4/7 203/3/7 202/2/7
f 205/1/8 206/2/8 207/3/8
f 208/4/8 207/3/8 206/2/8
f 209/1/8 210/2/8 211/3/8
f 212/4/8 211/3/8 210/2/8
f 213/1/7 214/2/7 215/3/7
f 216/4/7 215/3/7 214/2/7
f 217/1/7 218/2/7 219/3/7
f 220/4/7 219/3/7 218/2/7
f 221/1/7 222/2/7 223/3/7
f 224/4/7 223/3/7 222/2/7
f 225/1/7 226/2/7 227/3/7
f 228/4/7 227/3/7 226/2/7
f 229/1/8 230/2/8 231/3/8
f 232/4/8 231/3/8 230/2/8
f 233/1/8 234/2/8 235/3/8
f 236/4/8 235/3/8 234/2/8
f 237/1/27 238/2/27 239/3/27
f 240/4/27 239/3/27 238/2/27
f 241/1/27 242/2/27 243/3/27
f 244/4/27 243/3/27 242/2/27
f 245/1/28 246/2/29 247/3/29
f 248/4/29 247/3/29 246/2/29
f 249/1/29 250/2/29 251/3/29
f 252/4/29 251/3/29 250/2/29
f 253/1/30 254/2/30 255/3/30
f 256/4/30 255/3/30 254/2/30
f 257/1/28 258/2/29 259/3/29
f 260/4/29 259/3/29 258/2/29
f 261/1/29 262/2/29 263/3/29
f 264/4/29 263/3/29 262/2/29
f 265/1/31 266/2/31 267/3/31
f 268/4/31 267/3/31 266/2/31
f 269/1/32 270/2/32 271/3/32
f 272/4/33 271/3/32 270/2/32
f 273/1/34 274/2/34 275/3/34
f 276/4/34 275/3/34 274/2/34
f 277/1/35 278/2/35 279/3/35
f 280/4/35 279/3/35 278/2/35
f 281/1/36 282/2/36 283/3/36
f 284/4/36 283/3/36 282/2/36
f 285/1/36 286/2/36 287/3/36
f 288/4/36 287/3/36 286/2/36
f 289/1/37 290/2/37 291/3/37
f 292/4/37 291/3/37 290/2/37
f 293/1/37 294/2/38 295/3/37
f 296/4/38 295/3/37 294/2/38
f 297/1/38 298/2/37 299/3/38
f 300/4/37 299/3/38 298/2/37
f 301/1/37 302/2/38 303/3/37
f 304/4/38 303/3/37 302/2/38
f 305/1/39 306/2/40 307/3/39
f 308/4/40 307/3/39 306/2/40
f 309/1/40 310/2/39 311/3/39
f 312/4/39 311/3/39 310/2/39
f 313/1/41 314/2/41 315/3/41
f 316/4/41 315/3/41 314/2/41
f 317/1/42 318/2/41 319/3/42
f 320/4/41 319/3/42 318/2/41
f 321/1/41 322/2/41 323/3/41
f 324/4/41 323/3/41 322/2/41
f 325/1/42 326/2/41 327/3/42
f 328/4/41 327/3/42 326/2/41
f 329/1/43 330/2/43 331/3/43
f 332/4/44 331/3/43 330/2/43
f 333/1/44 334/2/44 335/3/44
f 336/4/44 335/3/44 334/2/44
f 337/1/45 338/2/45 339/3/45
f 340/4/45 339/3/45 338/2/45
f 341/1/45 342/2/45 343/3/45
f 344/4/45 343/3/45 342/2/45
f 345/1/45 346/2/45 347/3/45
f 348/4/45 347/3/45 346/2/45
f 349/1/45 350/2/45 351/3/45
f 352/4/45 351/3/45 350/2/45
f 353/1/46 354/2/46 355/3/46
f 356/4/46 355/3/46 354/2/46
f 357/1/46 358/2/46 359/3/46
f 360/4/46 359/3/46 358/2/46
f 361/1/46 362/2/46 363/3/46
f 364/4/46 363/3/46 362/2/46
f 365/1/46 366/2/46 367/3/46
f 368/4/46 367/3/46 366/2/46
f 369/1/47 370/2/47 371/3/47
f 372/4/47 371/3/47 370/2/47
f 373/1/47 374/2/47 375/3/47
f 376/4/47 375/3/47 374/2/47
f 377/1/48 378/2/48 379/3/48
f 380/4/48 379/3/48 378/2/48
f 381/1/49 382/2/49 383/3/49
f 384/4/49 383/3/49 382/2/49
f 385/5/50 386/6/50 387/7/50
f 388/8/50 387/7/50 386/6/50
f 389/5/50 390/6/50 391/7/50
f 392/8/50 391/7/50 390/6/50
f 393/5/50 394/6/50 395/7/50
f 396/8/50 395/7/50 394/6/50
f 397/5/50 398/6/50 399/7/50
f 400/8/50 399/7/50 398/6/50
f 401/5/50 402/6/50 403/7/50
f 404/8/50 403/7/50 402/6/50
f 405/5/50 406/6/50 407/7/50
f 408/8/50 407/7/50 406/6/50
f 409/5/50 410/6/50 411/7/50
f 412/8/50 411/7/50 410/6/50
f 413/5/50 414/6/50 415/7/50
f 416/8/50 415/7/50 414/6/50
f 417/5/50 418/6/50 419/7/50
f 420/8/50 419/7/50 418/6/50
f 421/5/50 422/6/50 423/7/50
f 424/8/50 423/7/50 422/6/50
f 425/5/50 426/6/50 427/7/50
f 428/8/50 427/7/50 426/6/50
f 429/9/51 430/10/51 431/11/51
f 432/12/51 431/11/51 430/10/51
f 433/13/52 434/14/53 435/15/52
f 436/16/53 435/15/52 434/14/53
f 437/14/54 433/13/52 438/16/54
f 435/15/52 438/16/54 433/13/52
f 439/9/51 440/10/51 441/11/51
f 442/12/51 441/11/51 440/10/51
f 443/13/52 444/14/53 445/15/52
f 446/16/53 445/15/52 444/14/53
f 447/14/54 443/13/52 448/16/54
f 445/15/52 448/16/54 443/13/52
f 449/9/51 450/10/51 451/11/51
f 452/12/51 451/11/51 450/10/51
f 453/13/52 454/14/53 455/15/52
f 456/16/53 455/15/52 454/14/53
f 457/14/54 453/13/52 458/16/54
f 455/15/52 458/16/54 453/13/52
f 459/9/55 460/10/55 461/11/55
f 462/12/55 461/11/55 460/10/55
f 463/13/56 464/14/57 465/15/56
f 466/16/57 465/15/56 464/14/57
f 467/14/58 463/13/56 468/16/58
f 465/15/56 468/16/58 463/13/56
f 469/9/55 470/10/55 471/11/55
f 472/12/55 471/11/55 470/10/55
f 473/13/56 474/14/57 475/15/56
f 476/16/57 475/15/56 474/14/57
f 477/14/58 473/13/56 478/16/58
f 475/15/56 478/16/58 473/13/56
f 479/9/55 480/10/55 481/11/55
f 482/12/55 481/11/55 480/10/55
f 483/13/56 484/14/57 485/15/56
f 486/16/57 485/15/56 484/14/57
f 487/14/58 483/13/56 488/16/58
f 485/15/56 488/16/58 483/13/56
f 489/9/59 490/10/59 491/11/59
f 492/12/59 491/11/59 490/10/59
f 493/13/60 494/14/61 495/15/60
f 496/16/61 495/15/60 494/14/61
f 497/14/62 493/13/60 498/16/62
f 495/15/60 498/16/62 493/13/60
f 499/9/63 500/10/63 501/11/63
f 502/12/59 501/11/63 500/10/63
f 503/13/60 504/14/61 505/15/60
f 506/16/61 505/15/60 504/14/61
f 507/14/62 503/13/60 508/16/62
f 505/15/60 508/16/62 503/13/60
f 509/9/63 510/10/63 511/11/59
f 512/12/59 511/11/59 510/10/63
f 513/13/60 514/14/61 515/15/60
f 516/16/61 515/15/60 514/14/61
f 517/14/62 513/13/60 518/16/62
f 515/15/60 518/16/62 513/13/60
f 519/9/64 520/10/64 521/11/64
f 522/12/64 521/11/64 520/10/64
f 523/13/65 524/14/66 525/15/65
f 526/16/66 525/15/65 524/14/66
f 527/14/67 523/13/65 528/16/67
f 525/15/65 528/16/67 523/13/65
f 529/9/64 530/10/64 531/11/64
f 532/12/64 531/11/64 530/10/64
f 533/13/65 534/14/66 535/15/65
f 536/16/66 535/15/65 534/14/66
f 537/14/67 533/13/65 538/16/67
f 535/15/65 538/16/67 533/13/65
f 539/9/68 540/10/68 541/11/64
f 542/12/64 541/11/64 540/10/68
f 543/13/65 544/14/66 545/15/65
f 546/16/66 545/15/65 544/14/66
f 547/14/67 543/13/65 548/16/67
f 545/15/65 548/16/67 543/13/65
f 549/9/64 550/10/64 551/11/64
f 552/12/64 551/11/64 550/10/64
f 553/13/65 554/14/66 555/15/65
f 556/16/66 555/15/65 554/14/66
f 557/14/67 553/13/65 558/16/67
f 555/15/65 558/16/67 553/13/65
f 559/9/64 560/10/64 561/11/64
f 562/12/64 561/11/64 560/10/64
f 563/13/65 564/14/66 565/15/65
f 566/16/66 565/15/65 564/14/66
f 567/14/67 563/13/65 568/16/67
f 565/15/65 568/16/67 563/13/65
f 569/9/64 570/10/64 571/11/64
f 572/12/64 571/11/64 570/10/64
f 573/13/65 574/14/66 575/15/65
f 576/16/66 575/15/65 574/14/66
f 577/14/67 573/13/65 578/16/67
f 575/15/65 578/16/67 573/13/65
f 579/9/64 580/10/64 581/11/64
f 582/12/64 581/11/64 580/10/64
f 583/13/65 584/14/66 593/15/65
f 594/16/66 593/15/65 584/14/66
f 585/14/67 583/13/65 597/16/67
f 593/15/65 597/16/67 583/13/65
f 586/13/65 587/14/66 583/15/65
f 584/16/66 583/15/65 587/14/66
f 588/14/67 586/13/65 585/16/67
f 583/15/65 585/16/67 586/13/65
f 589/9/69 590/10/69 591/11/69
f 592/12/69 591/11/69 590/10/69
f 593/13/65 594/14/66 595/15/65
f 596/16/66 595/15/65 594/14/66
f 597/14/67 593/13/65 598/16/67
f 595/15/65 598/16/67 593/13/65
f 599/9/69 600/10/69 601/11/69
f 602/12/69 601/11/69 600/10/69
f 603/9/70 604/10/70 605/11/70
f 606/12/70 605/11/70 604/10/70
f 607/13/71 608/14/72 609/15/71
f 610/16/72 609/15/71 608/14/72
f 611/14/73 607/13/71 612/16/73
f 609/15/71 612/16/73 607/13/71
f 613/9/70 614/10/70 615/11/70
f 616/12/70 615/11/70 614/10/70
f 617/13/71 618/14/72 619/15/71
f 620/16/72 619/15/71 618/14/72
f 621/14/73 617/13/71 622/16/73
f 619/15/71 622/16/73 617/13/71
f 623/9/70 624/10/70 625/11/70
f 626/12/70 625/11/70 624/10/70
f 627/13/71 628/14/72 629/15/71
f 630/16/72 629/15/71 628/14/72
f 631/14/73 627/13/71 632/16/73
f 629/15/71 632/16/73 627/13/71
f 633/9/74 634/10/74 635/11/74
f 636/12/74 635/11/74 634/10/74
f 637/13/75 638/14/76 639/15/75
f 640/16/76 639/15/75 638/14/76
f 641/14/77 637/13/75 642/16/77
f 639/15/75 642/16/77 637/13/75
f 643/13/75 644/14/76 637/15/75
f 638/16/76 637/15/75 644/14/76
f 645/14/77 643/13/75 641/16/77
f 637/15/75 641/16/77 643/13/75
f 646/9/78 647/10/78 648/11/78
f 649/12/78 648/11/78 647/10/78
f 639/13/75 640/14/76 650/15/75
f 651/16/76 650/15/75 640/14/76
f 642/14/77 639/13/75 652/16/77
f 650/15/75 652/16/77 639/13/75
f 653/9/78 654/10/78 655/11/78
f 656/12/78 655/11/78 654/10/78
f 657/9/79 658/10/79 659/11/79
f 660/12/79 659/11/79 658/10/79
f 661/13/80 662/14/81 663/15/80
f 664/16/81 663/15/80 662/14/81
f 665/14/82 661/13/80 666/16/82
f 663/15/80 666/16/82 661/13/80
f 667/13/80 668/14/81 661/15/80
f 662/16/81 661/15/80 668/14/81
f 669/14/82 667/13/80 665/16/82
f 661/15/80 665/16/82 667/13/80
f 670/9/83 671/10/83 672/11/83
f 673/12/83 672/11/83 671/10/83
f 663/13/80 664/14/81 674/15/80
f 675/16/81 674/15/80 664/14/81
f 666/14/82 663/13/80 676/16/82
f 674/15/80 676/16/82 663/13/80
f 677/9/83 678/10/83 679/11/83
f 680/12/83 679/11/83 678/10/83
f 681/9/84 682/10/84 683/11/84
f 684/12/84 683/11/84 682/10/84
f 685/13/85 686/14/86 687/15/87
f 688/16/86 687/15/87 686/14/86
f 689/14/88 685/13/85 690/16/88
f 687/15/87 690/16/88 685/13/85
f 691/9/84 692/10/84 693/11/84
f 694/12/84 693/11/84 692/10/84
f 695/13/85 696/14/86 697/15/87
f 698/16/86 697/15/87 696/14/86
f 699/14/88 695/13/85 700/16/88
f 697/15/87 700/16/88 695/13/85
f 701/9/84 702/10/84 703/11/84
f 704/12/84 703/11/84 702/10/84
f 705/13/85 706/14/86 707/15/87
f 708/16/86 707/15/87 706/14/86
f 709/14/88 705/13/85 710/16/88
f 707/15/87 710/16/88 705/13/85
f 711/1/89 712/2/89 713/3/89
f 714/4/89 713/3/89 712/2/89
f 715/1/89 716/2/89 717/3/89
f 718/4/89 717/3/89 716/2/89
f 719/1/89 720/2/89 721/3/89
f 722/4/89 721/3/89 720/2/89
f 723/1/89 724/2/89 725/3/89
f 726/4/89 725/3/89 724/2/89
f 727/1/89 728/2/89 729/3/89
f 730/4/89 729/3/89 728/2/89
f 731/17/90 732/14/90 733/13/90
f 733/13/90 734/15/90 731/17/90
f 735/1/89 736/2/89 737/3/89
f 738/4/89 737/3/89 736/2/89
f 739/1/89 740/2/89 741/3/89
f 742/4/89 741/3/89 740/2/89
f 743/1/89 744/2/89 745/3/89
f 746/4/89 745/3/89 744/2/89
f 747/1/89 748/2/89 749/3/89
f 750/4/89 749/3/89 748/2/89
f 751/1/89 752/2/89 753/3/89
f 754/4/89 753/3/89 752/2/89
f 755/1/89 756/2/89 757/3/89
f 758/4/89 757/3/89 756/2/89
f 759/1/89 760/2/89 761/3/89
f 762/4/89 761/3/89 760/2/89
f 763/1/89 764/2/89 765/3/89
f 766/4/89 765/3/89 764/2/89
f 767/1/89 768/2/89 769/3/89
f 770/4/89 769/3/89 768/2/89
f 771/1/89 772/2/89 773/3/89
f 774/4/89 773/3/89 772/2/89
f 775/5/50 776/6/50 777/7/50
f 778/8/50 777/7/50 776/6/50
f 779/5/91 780/6/91 781/7/91
f 782/8/91 781/7/91 780/6/91
f 783/5/92 784/6/93 785/7/93
f 786/8/93 785/7/93 784/6/93
f 787/5/94 788/6/94 789/7/94
f 790/8/94 789/7/94 788/6/94
f 791/5/95 792/6/95 793/7/95
f 794/8/95 793/7/95 792/6/95
f 795/5/96 796/6/97 797/7/96
f 798/8/97 797/7/96 796/6/97
f 799/5/98 800/6/98 801/7/98
f 802/8/98 801/7/98 800/6/98
f 803/5/99 804/6/99 805/7/99
f 806/8/99 805/7/99 804/6/99
f 807/5/100 808/6/101 809/7/100
f 810/8/101 809/7/100 808/6/101
f 811/5/102 812/6/102 813/7/102
f 814/8/102 813/7/102 812/6/102
f 815/5/50 816/6/50 817/7/50
f 818/8/50 817/7/50 816/6/50
f 819/5/91 820/6/91 821/7/91
f 822/8/91 821/7/91 820/6/91
f 823/5/93 824/6/93 825/7/93
f 826/8/92 825/7/93 824/6/93
f 827/5/94 828/6/94 829/7/94
f 830/8/103 829/7/94 828/6/94
f 831/5/104 832/6/95 833/7/104
f 834/8/95 833/7/104 832/6/95
f 835/5/97 836/6/97 837/7/97
f 838/8/97 837/7/97 836/6/97
f 839/5/101 840/6/101 841/7/101
f 842/8/101 841/7/101 840/6/101
f 843/5/102 844/6/102 845/7/102
f 846/8/102 845/7/102 844/6/102
f 847/5/89 848/6/89 849/7/89
f 850/8/89 849/7/89 848/6/89
f 851/5/105 852/6/105 853/7/105
f 854/8/105 853/7/105 852/6/105
f 855/5/50 856/6/50 857/7/50
f 858/8/50 857/7/50 856/6/50
f 859/5/91 860/6/91 861/7/91
f 862/8/91 861/7/91 860/6/91
f 863/5/93 864/6/93 865/7/93
f 866/8/93 865/7/93 864/6/93
f 867/5/94 868/6/94 869/7/94
f 870/8/94 869/7/94 868/6/94
f 871/5/101 872/6/101 873/7/101
f 874/8/101 873/7/101 872/6/101
f 875/5/102 876/6/102 877/7/102
f 878/8/102 877/7/102 876/6/102
f 879/5/89 880/6/89 881/7/89
f 882/8/89 881/7/89 880/6/89
f 883/5/105 884/6/105 885/7/105
f 886/8/105 885/7/105 884/6/105
f 887/5/89 888/6/89 889/7/89
f 890/8/89 889/7/89 888/6/89
f 891/5/105 892/6/105 893/7/105
f 894/8/105 893/7/105 892/6/105
f 895/5/106 896/6/107 897/7/106
f 898/8/107 897/7/106 896/6/107
f 899/5/108 900/6/108 901/7/108
f 902/8/108 901/7/108 900/6/108
f 903/5/109 904/6/109 905/7/109
f 906/8/109 905/7/109 904/6/109
f 907/5/110 908/6/111 909/7/110
f 910/8/111 909/7/110 908/6/111
f 911/5/112 912/6/112 913/7/112
f 914/8/112 913/7/112 912/6/112
f 915/5/113 916/6/113 917/7/113
f 918/8/113 917/7/113 916/6/113
f 919/5/112 920/6/112 921/7/112
f 922/8/114 921/7/112 920/6/112
f 923/5/113 924/6/113 925/7/113
f 926/8/113 925/7/113 924/6/113
f 927/5/112 928/6/112 929/7/112
f 930/8/114 929/7/112 928/6/112
f 931/5/113 932/6/113 933/7/113
f 934/8/113 933/7/113 932/6/113
f 935/5/115 936/6/116 937/7/117
f 938/8/116 937/7/117 936/6/116
f 939/5/118 940/6/119 941/7/120
f 937/8/121 941/7/120 940/6/119
f 942/5/115 943/6/116 944/7/117
f 945/8/116 944/7/117 943/6/116
f 946/5/118 947/6/119 948/7/120
f 944/8/121 948/7/120 947/6/119
f 949/5/115 950/6/116 951/7/117
f 952/8/116 951/7/117 950/6/116
f 953/5/120 954/6/119 955/7/120
f 951/8/119 955/7/120 954/6/119
f 956/5/115 957/6/116 958/7/117
f 959/8/116 958/7/117 957/6/116
f 960/5/118 961/6/119 962/7/120
f 958/8/121 962/7/120 961/6/119
f 963/5/122 964/6/123 969/7/124
f 965/8/123 969/7/124 964/6/123
f 966/5/125 967/6/126 968/7/127
f 969/8/126 968/7/127 967/6/126
f 970/5/124 971/6/124 976/7/124
f 972/8/123 976/7/124 971/6/124
f 973/5/127 974/6/126 975/7/127
f 976/8/126 975/7/127 974/6/126
f 977/5/124 978/6/124 983/7/124
f 979/8/123 983/7/124 978/6/124
f 980/5/127 981/6/126 982/7/127
f 983/8/126 982/7/127 981/6/126
f 984/5/124 985/6/123 990/7/124
f 986/8/123 990/7/124 985/6/123
f 987/5/127 988/6/126 989/7/127
f 990/8/126 989/7/127 988/6/126
f 991/5/128 992/6/129 997/7/128
f 993/8/130 997/7/128 992/6/129
f 994/5/131 995/6/132 996/7/131
f 997/8/132 996/7/131 995/6/132
f 998/5/128 999/6/128 1004/7/128
f 1000/8/128 1004/7/128 999/6/128
f 1001/5/133 1002/6/134 1003/7/131
f 1004/8/135 1003/7/131 1002/6/134
f 1005/5/136 1006/6/128 1011/7/128
f 1007/8/128 1011/7/128 1006/6/128
f 1008/5/131 1009/6/132 1010/7/131
f 1011/8/132 1010/7/131 1009/6/132
f 1012/5/136 1013/6/130 1018/7/128
f 1014/8/130 1018/7/128 1013/6/130
f 1015/5/133 1016/6/132 1017/7/131
f 1018/8/132 1017/7/131 1016/6/132
f 1019/5/136 1020/6/129 1025/7/128
f 1021/8/130 1025/7/128 1020/6/129
f 1022/5/133 1023/6/132 1024/7/131
f 1025/8/137 1024/7/131 1023/6/132
f 1026/5/136 1027/6/129 1032/7/128
f 1028/8/130 1032/7/128 1027/6/129
f 1029/5/133 1030/6/132 1031/7/131
f 1032/8/137 1031/7/131 1030/6/132
f 1033/5/128 1034/6/128 1039/7/128
f 1035/8/130 1039/7/128 1034/6/128
f 1036/5/138 1037/6/132 1038/7/133
f 1039/8/132 1038/7/133 1037/6/132
f 1040/5/136 1041/6/139 1046/7/128
f 1042/8/139 1046/7/128 1041/6/139
f 1043/5/133 1044/6/132 1045/7/131
f 1046/8/132 1045/7/131 1044/6/132
f 1047/5/140 1048/6/140 1049/7/140
f 1050/8/140 1049/7/140 1048/6/140
f 1051/5/140 1052/6/140 1053/7/140
f 1054/8/140 1053/7/140 1052/6/140
f 1055/5/140 1056/6/140 1057/7/140
f 1058/8/140 1057/7/140 1056/6/140
f 1059/5/141 1060/6/140 1061/7/140
f 1062/8/140 1061/7/140 1060/6/140
f 1063/5/140 1064/6/140 1065/7/140
f 1066/8/141 1065/7/140 1064/6/140
f 1067/5/141 1068/6/140 1069/7/140
f 1070/8/140 1069/7/140 1068/6/140
f 1071/5/140 1072/6/140 1073/7/140
f 1074/8/141 1073/7/140 1072/6/140
f 1075/5/140 1076/6/140 1077/7/140
f 1078/8/140 1077/7/140 1076/6/140
f 1079/5/140 1080/6/140 1081/7/140
f 1082/8/140 1081/7/140 1080/6/140
f 1083/1/89 1084/2/89 1085/3/89
f 1086/4/89 1085/3/89 1084/2/89
f 1087/1/89 1088/2/89 1089/3/89
f 1090/4/89 1089/3/89 1088/2/89
f 1091/1/89 1092/2/89 1093/3/89
f 1094/4/89 1093/3/89 1092/2/89
f 1095/18/90 1096/19/90 1097/20/90
f 1097/20/90 1098/21/90 1099/22/90
f 1095/18/90 1097/20/90 1099/22/90
f 1099/22/90 1100/23/90 1101/24/90
f 1095/18/90 1099/22/90 1101/24/90
f 1102/25/90 1103/26/90 1095/18/90
f 1101/24/90 1104/27/90 1105/28/90
f 1095/18/90 1101/24/90 1105/28/90
f 1102/25/90 1095/18/90 1105/28/90
f 1102/25/90 1105/28/90 1106/29/90
f 1107/1/142 1108/2/142 1109/3/142
f 1110/4/142 1109/3/142 1108/2/142
