# Blender 4.4.3
# www.blender.org
mtllib BRDGSDA.mtl
o BRDGSDA
v -193.669220 6.317770 -13.047995
v -193.669220 3.659031 -13.047994
v -193.657257 6.317770 9.090999
v -193.657257 3.659033 9.090999
v -191.343399 3.659031 -13.042223
v -191.343399 6.317770 -13.042225
v -191.331451 6.317771 9.096768
v -191.331451 3.659033 9.096769
v -191.387207 6.317770 -13.042225
v -191.387207 3.659031 -13.042223
v -191.375259 6.317771 9.096768
v -191.375259 3.659033 9.096769
v -193.577499 3.659031 -13.042223
v -193.577499 6.317770 -13.042225
v -193.565552 6.317771 9.096768
v -193.565552 3.659033 9.096769
v -299.777161 25.552404 -597.596497
v -299.777161 22.893665 -597.596497
v -321.915710 25.552404 -597.454834
v -321.915710 22.893665 -597.454834
v -299.769287 22.893665 -595.270691
v -299.769287 25.552404 -595.270691
v -321.907837 25.552404 -595.129028
v -321.907837 22.893665 -595.129028
v -299.769562 25.552404 -595.314514
v -299.769562 22.893665 -595.314514
v -321.908081 25.552404 -595.172852
v -321.908081 22.893665 -595.172852
v -299.782379 22.893665 -597.504761
v -299.782379 25.552404 -597.504761
v -321.920929 25.552404 -597.363098
v -321.920929 22.893665 -597.363098
v -191.322433 0.367942 -780.791260
v -191.322433 -3.088220 -780.791260
v -215.383362 0.367942 -770.701355
v -215.383347 -3.088219 -770.701355
v -190.095078 -3.088220 -778.028198
v -190.095078 0.367942 -778.028198
v -214.155991 0.367943 -767.938293
v -214.155991 -3.088219 -767.938293
v -190.118317 0.367942 -778.080200
v -190.118317 -3.088220 -778.080200
v -214.179230 0.367943 -767.990295
v -214.179230 -3.088219 -767.990295
v -191.280060 -3.088220 -780.679749
v -191.280060 0.367941 -780.679749
v -215.340988 0.367943 -770.589844
v -215.340973 -3.088219 -770.589844
v 553.964233 2.961924 -186.254471
v 553.964233 0.303185 -186.254471
v 536.115906 2.961924 -181.122925
v 536.115906 0.303185 -181.122925
v 554.629028 0.303185 -184.025681
v 554.629028 2.961924 -184.025681
v 536.780640 2.961924 -178.894119
v 536.780640 0.303185 -178.894119
v 553.963257 0.303185 -186.158005
v 553.963257 2.961924 -186.158005
v 536.114929 2.961924 -181.026459
v 536.114929 0.303185 -181.026459
v 554.369141 2.961924 -184.027390
v 554.369141 0.303185 -184.027390
v 536.520813 2.961924 -178.895844
v 536.520813 0.303185 -178.895844
vn -1.0000 -0.0000 0.0005
vn 1.0000 -0.0000 -0.0005
vn -0.0064 -0.0000 -1.0000
vn 0.0064 -0.0000 1.0000
vn -0.3867 -0.0000 -0.9222
vn 0.3867 -0.0000 0.9222
vn -0.2763 -0.0000 -0.9611
vn 0.2763 -0.0000 0.9611
vt 0.004996 1.999501
vt 0.004995 1.000501
vt 9.995005 1.999499
vt 9.995004 1.000499
s 1
usemtl BRDGSDA.005
f 1/1/1 2/2/1 3/3/1
f 4/4/1 3/3/1 2/2/1
f 5/2/2 6/1/2 7/3/2
f 7/3/2 8/4/2 5/2/2
f 9/1/1 10/2/1 11/3/1
f 12/4/1 11/3/1 10/2/1
f 13/2/2 14/1/2 15/3/2
f 15/3/2 16/4/2 13/2/2
f 17/1/3 18/2/3 19/3/3
f 20/4/3 19/3/3 18/2/3
f 21/2/4 22/1/4 23/3/4
f 23/3/4 24/4/4 21/2/4
f 25/1/3 26/2/3 27/3/3
f 28/4/3 27/3/3 26/2/3
f 29/2/4 30/1/4 31/3/4
f 31/3/4 32/4/4 29/2/4
f 33/1/5 34/2/5 35/3/5
f 36/4/5 35/3/5 34/2/5
f 37/2/6 38/1/6 39/3/6
f 39/3/6 40/4/6 37/2/6
f 41/1/5 42/2/5 43/3/5
f 44/4/5 43/3/5 42/2/5
f 45/2/6 46/1/6 47/3/6
f 47/3/6 48/4/6 45/2/6
f 49/1/7 50/2/7 51/3/7
f 52/4/7 51/3/7 50/2/7
f 53/2/8 54/1/8 55/3/8
f 55/3/8 56/4/8 53/2/8
f 57/2/8 58/1/8 59/3/8
f 59/3/8 60/4/8 57/2/8
f 61/1/7 62/2/7 63/3/7
f 64/4/7 63/3/7 62/2/7
