# Blender 4.4.3
# www.blender.org
mtllib BRNCHA.mtl
o BRNCHA
v 209.529999 24.600060 -244.368622
v 209.529999 18.865311 -244.368622
v 200.313599 24.600061 -239.460114
v 200.313599 18.865313 -239.460114
v 209.529999 33.635090 -244.368622
v 209.529999 26.455481 -244.368622
v 202.570526 33.635090 -240.760620
v 202.570526 26.455482 -240.760620
v 209.604538 31.221760 -244.502747
v 209.604538 23.068001 -244.502747
v 205.396683 31.221760 -251.805145
v 205.396698 23.068001 -251.805145
v 42.944435 21.011560 -180.416916
v 42.944435 15.276814 -180.416916
v 38.504364 21.011559 -189.867920
v 38.504364 15.276813 -189.867920
v 42.944435 30.046591 -180.416916
v 42.944435 22.866983 -180.416916
v 39.690033 30.046595 -187.548615
v 39.690033 22.866983 -187.548615
v 43.074654 27.633263 -180.335754
v 43.074654 19.479502 -180.335754
v 50.578903 27.633263 -184.172043
v 50.578903 19.479502 -184.172043
v -91.815567 25.366543 -226.680038
v -91.815567 17.578897 -226.680038
v -104.707703 25.366541 -220.775391
v -104.707703 17.578897 -220.775391
v -91.815567 37.635887 -226.680038
v -91.815567 27.886160 -226.680038
v -101.542664 37.635895 -222.354843
v -101.542664 27.886162 -222.354843
v -91.703629 34.358650 -226.855789
v -91.703629 23.286047 -226.855789
v -96.814072 34.358646 -237.096451
v -96.814072 23.286047 -237.096466
v -73.839005 21.011566 -92.656868
v -73.839005 15.276820 -92.656868
v -78.279068 21.011566 -102.107872
v -78.279068 15.276819 -102.107872
v -73.839005 30.046597 -92.656868
v -73.839005 22.866989 -92.656868
v -77.093399 30.046600 -99.788559
v -77.093399 22.866989 -99.788559
v -73.708786 27.633268 -92.575706
v -73.708786 19.479507 -92.575706
v -66.204529 27.633268 -96.411995
v -66.204529 19.479507 -96.411995
v -234.604843 21.011566 -91.958092
v -234.604843 15.276820 -91.958092
v -239.044907 21.011566 -101.409096
v -239.044907 15.276819 -101.409096
v -234.604843 30.046597 -91.958092
v -234.604843 22.866989 -91.958092
v -237.859238 30.046600 -99.089783
v -237.859238 22.866989 -99.089783
v -234.474594 27.633268 -91.876930
v -234.474594 19.479507 -91.876930
v -226.970322 27.633268 -95.713219
v -226.970322 19.479507 -95.713219
v -204.065796 29.930101 -376.275665
v -204.065796 24.802843 -376.275665
v -213.400452 29.930101 -376.425751
v -213.400452 24.802843 -376.425751
v -204.065796 38.008045 -376.275665
v -204.065796 31.588976 -376.275665
v -211.071930 38.008045 -376.466034
v -211.071930 31.588976 -376.466034
v -203.949417 35.850361 -376.348328
v -203.949417 28.560350 -376.348328
v -204.079834 35.850357 -383.882355
v -204.079834 28.560350 -383.882355
v -227.976624 27.008591 -404.331848
v -227.976624 22.360947 -404.331848
v -236.438126 27.008591 -404.467896
v -236.438126 22.360947 -404.467896
v -227.976624 34.330917 -404.331848
v -227.976624 28.512283 -404.331848
v -234.327408 34.330917 -404.504425
v -234.327408 28.512314 -404.504425
v -227.871140 32.375076 -404.397705
v -227.871140 25.766953 -404.397705
v -227.989349 32.375076 -411.227051
v -227.989349 25.766953 -411.227051
v -262.553802 30.645590 -513.873047
v -262.553802 25.053658 -513.873047
v -272.734467 30.645590 -514.036743
v -272.734467 25.053658 -514.036743
v -262.553802 39.455616 -513.873047
v -262.553802 32.454807 -513.873047
v -270.194916 39.455620 -514.080688
v -270.194916 32.454807 -514.080688
v -262.426880 37.102386 -513.952332
v -262.426880 29.151686 -513.952332
v -262.569122 37.102386 -522.169189
v -262.569122 29.151684 -522.169189
v -277.275635 30.060434 -514.842407
v -277.275635 22.625359 -514.842407
v -275.710724 30.049746 -509.856873
v -275.710724 22.614670 -509.856873
v -277.227509 33.861485 -514.908875
v -277.227509 26.426407 -514.908875
v -272.181519 33.799915 -516.266235
v -272.181519 26.364840 -516.266235
v -273.959412 26.215588 -517.227844
v -273.959442 22.602337 -517.227844
v -278.435211 26.261255 -522.049866
v -278.435211 22.648005 -522.049866
v -273.959442 31.908226 -517.227844
v -273.959442 27.384621 -517.227844
v -277.279205 31.941538 -520.884949
v -277.279205 27.417933 -520.884949
v -273.865692 30.386642 -517.204041
v -273.865692 25.249262 -517.204041
v -270.096466 30.340567 -520.944519
v -270.096466 25.203184 -520.944519
v -280.535553 27.090025 -513.253174
v -280.535553 23.082197 -513.253174
v -286.867493 27.173447 -516.880981
v -286.867493 23.165619 -516.880981
v -280.535553 33.404312 -513.253174
v -280.535553 28.386721 -513.253174
v -285.258636 33.465580 -516.029236
v -285.258636 28.447985 -516.029236
v -280.428467 31.716253 -513.258911
v -280.428467 26.017857 -513.258911
v -277.672577 31.670671 -518.464478
v -277.672577 25.972273 -518.464478
v -282.002563 30.645588 -522.846680
v -282.002563 25.053656 -522.846680
v -292.183197 30.645588 -523.010376
v -292.183197 25.053656 -523.010376
v -282.002563 39.455616 -522.846680
v -282.002563 32.454807 -522.846680
v -289.643646 39.455620 -523.054321
v -289.643646 32.454807 -523.054321
v -281.875641 37.102386 -522.925964
v -281.875641 29.151684 -522.925964
v -282.017853 37.102383 -531.142822
v -282.017853 29.151684 -531.142822
v 526.434204 4.451947 -345.314392
v 526.434204 1.712341 -345.314392
v 522.250000 4.451947 -348.030334
v 522.250000 1.712341 -348.030334
v 526.434204 8.768165 -345.314392
v 526.434204 5.338320 -345.314392
v 523.315796 8.768165 -347.388031
v 523.315796 5.338320 -347.388031
v 526.507507 7.615268 -345.314270
v 526.507507 3.720052 -345.314270
v 528.585632 7.615268 -348.762695
v 528.585632 3.720052 -348.762695
v 11.262910 30.645555 -947.909363
v 11.262910 25.053623 -947.909363
v 1.082254 30.645555 -948.073059
v 1.082253 25.053623 -948.073059
v 11.262910 39.455582 -947.909363
v 11.262910 32.454773 -947.909363
v 3.621810 39.455585 -948.117004
v 3.621809 32.454773 -948.117004
v 11.389828 37.102352 -947.988647
v 11.389828 29.151651 -947.988647
v 11.247599 37.102352 -956.205505
v 11.247600 29.151651 -956.205505
v -3.458913 30.060400 -948.878723
v -3.458913 22.625324 -948.878723
v -1.894004 30.049713 -943.893188
v -1.894004 22.614637 -943.893188
v -3.410795 33.861450 -948.945190
v -3.410796 26.426373 -948.945190
v 1.635201 33.799881 -950.302551
v 1.635181 26.364805 -950.302551
v -0.142706 26.215553 -951.264160
v -0.142715 22.602303 -951.264160
v -4.618507 26.261223 -956.086182
v -4.618507 22.647972 -956.086182
v -0.142715 31.908192 -951.264160
v -0.142715 27.384586 -951.264160
v -3.462487 31.941505 -954.921265
v -3.462496 27.417900 -954.921265
v -0.048986 30.386608 -951.240356
v -0.048985 25.249228 -951.240356
v 3.720237 30.340534 -954.980835
v 3.720237 25.203152 -954.980835
v -6.718836 27.089993 -947.289490
v -6.718836 23.082165 -947.289490
v -13.050783 27.173412 -950.917297
v -13.050783 23.165585 -950.917297
v -6.718836 33.404278 -947.289490
v -6.718836 28.386688 -947.289490
v -11.441912 33.465546 -950.065552
v -11.441914 28.447950 -950.065552
v -6.611748 31.716221 -947.295227
v -6.611748 26.017824 -947.295227
v -3.855859 31.670639 -952.500793
v -3.855860 25.972240 -952.500793
v -8.185833 30.645555 -956.882996
v -8.185833 25.053623 -956.882996
v -18.366488 30.645555 -957.046692
v -18.366489 25.053623 -957.046692
v -8.185833 39.455582 -956.882996
v -8.185833 32.454773 -956.882996
v -15.826933 39.455585 -957.090637
v -15.826933 32.454773 -957.090637
v -8.058914 37.102352 -956.962280
v -8.058914 29.151651 -956.962280
v -8.201143 37.102352 -965.179138
v -8.201143 29.151651 -965.179138
vn -0.4701 -0.0000 -0.8826
vn -0.4603 -0.0000 -0.8878
vn 0.8664 -0.0000 -0.4993
vn 0.9051 -0.0000 -0.4252
vn 0.9098 -0.0000 -0.4151
vn 0.4552 -0.0000 0.8904
vn -0.4164 -0.0000 -0.9092
vn -0.4063 -0.0000 -0.9137
vn 0.8948 -0.0000 -0.4465
vn 0.0161 -0.0000 -0.9999
vn 0.0272 -0.0000 -0.9996
vn 0.9999 -0.0000 -0.0173
vn -0.9541 -0.0000 0.2995
vn 0.2598 -0.0000 0.9657
vn 0.7329 -0.0000 -0.6803
vn 0.7404 -0.0000 -0.6721
vn 0.7044 -0.0000 0.7098
vn 0.4971 -0.0000 -0.8677
vn 0.5067 -0.0000 -0.8621
vn 0.8838 -0.0000 0.4679
vn 0.5445 -0.0000 -0.8388
vn 0.5537 -0.0000 -0.8327
vn 0.8565 -0.0000 0.5162
vn 0.2597 -0.0000 0.9657
vt 0.999500 1.999501
vt 0.999501 1.000500
vt 0.000499 1.999500
vt 0.000500 1.000499
s 1
usemtl BRNCHA
f 1/1/1 2/2/1 3/3/1
f 4/4/1 3/3/1 2/2/1
f 5/1/2 6/2/2 7/3/2
f 8/4/2 7/3/2 6/2/2
f 9/1/3 10/2/3 11/3/3
f 12/4/3 11/3/3 10/2/3
f 13/1/4 14/2/4 15/3/4
f 16/4/4 15/3/4 14/2/4
f 17/1/5 18/2/5 19/3/5
f 20/4/5 19/3/5 18/2/5
f 21/1/6 22/2/6 23/3/6
f 24/4/6 23/3/6 22/2/6
f 25/1/7 26/2/7 27/3/7
f 28/4/7 27/3/7 26/2/7
f 29/1/8 30/2/8 31/3/8
f 32/4/8 31/3/8 30/2/8
f 33/1/9 34/2/9 35/3/9
f 36/4/9 35/3/9 34/2/9
f 37/1/4 38/2/4 39/3/4
f 40/4/4 39/3/4 38/2/4
f 41/1/5 42/2/5 43/3/5
f 44/4/5 43/3/5 42/2/5
f 45/1/6 46/2/6 47/3/6
f 48/4/6 47/3/6 46/2/6
f 49/1/4 50/2/4 51/3/4
f 52/4/4 51/3/4 50/2/4
f 53/1/5 54/2/5 55/3/5
f 56/4/5 55/3/5 54/2/5
f 57/1/6 58/2/6 59/3/6
f 60/4/6 59/3/6 58/2/6
f 61/1/10 62/2/10 63/3/10
f 64/4/10 63/3/10 62/2/10
f 65/1/11 66/2/11 67/3/11
f 68/4/11 67/3/11 66/2/11
f 69/1/12 70/2/12 71/3/12
f 72/4/12 71/3/12 70/2/12
f 73/1/10 74/2/10 75/3/10
f 76/4/10 75/3/10 74/2/10
f 77/1/11 78/2/11 79/3/11
f 80/4/11 79/3/11 78/2/11
f 81/1/12 82/2/12 83/3/12
f 84/4/12 83/3/12 82/2/12
f 85/1/10 86/2/10 87/3/10
f 88/4/10 87/3/10 86/2/10
f 89/1/11 90/2/11 91/3/11
f 92/4/11 91/3/11 90/2/11
f 93/1/12 94/2/12 95/3/12
f 96/4/12 95/3/12 94/2/12
f 97/1/13 98/2/13 99/3/13
f 100/4/13 99/3/13 98/2/13
f 101/1/14 102/2/14 103/3/14
f 104/4/14 103/3/14 102/2/14
f 105/1/15 106/2/15 107/3/15
f 108/4/15 107/3/15 106/2/15
f 109/1/16 110/2/16 111/3/16
f 112/4/16 111/3/16 110/2/16
f 113/1/17 114/2/17 115/3/17
f 116/4/17 115/3/17 114/2/17
f 117/1/18 118/2/18 119/3/18
f 120/4/18 119/3/18 118/2/18
f 121/1/19 122/2/19 123/3/19
f 124/4/19 123/3/19 122/2/19
f 125/1/20 126/2/20 127/3/20
f 128/4/20 127/3/20 126/2/20
f 129/1/10 130/2/10 131/3/10
f 132/4/10 131/3/10 130/2/10
f 133/1/11 134/2/11 135/3/11
f 136/4/11 135/3/11 134/2/11
f 137/1/12 138/2/12 139/3/12
f 140/4/12 139/3/12 138/2/12
f 141/1/21 142/2/21 143/3/21
f 144/4/21 143/3/21 142/2/21
f 145/1/22 146/2/22 147/3/22
f 148/4/22 147/3/22 146/2/22
f 149/1/23 150/2/23 151/3/23
f 152/4/23 151/3/23 150/2/23
f 153/1/10 154/2/10 155/3/10
f 156/4/10 155/3/10 154/2/10
f 157/1/11 158/2/11 159/3/11
f 160/4/11 159/3/11 158/2/11
f 161/1/12 162/2/12 163/3/12
f 164/4/12 163/3/12 162/2/12
f 165/1/13 166/2/13 167/3/13
f 168/4/13 167/3/13 166/2/13
f 169/1/14 170/2/14 171/3/14
f 172/4/24 171/3/14 170/2/14
f 173/1/15 174/2/15 175/3/15
f 176/4/15 175/3/15 174/2/15
f 177/1/16 178/2/16 179/3/16
f 180/4/16 179/3/16 178/2/16
f 181/1/17 182/2/17 183/3/17
f 184/4/17 183/3/17 182/2/17
f 185/1/18 186/2/18 187/3/18
f 188/4/18 187/3/18 186/2/18
f 189/1/19 190/2/19 191/3/19
f 192/4/19 191/3/19 190/2/19
f 193/1/20 194/2/20 195/3/20
f 196/4/20 195/3/20 194/2/20
f 197/1/10 198/2/10 199/3/10
f 200/4/10 199/3/10 198/2/10
f 201/1/11 202/2/11 203/3/11
f 204/4/11 203/3/11 202/2/11
f 205/1/12 206/2/12 207/3/12
f 208/4/12 207/3/12 206/2/12
