# Blender 4.4.3
# www.blender.org
mtllib BRNCHC.mtl
o BRNCHC
v 211.676208 36.172977 -241.022415
v 211.676208 30.438232 -241.022415
v 207.468353 36.172977 -248.324799
v 207.468353 30.438232 -248.324799
v 205.529236 38.230671 -241.420059
v 205.852142 29.030508 -241.309097
v 213.615326 38.230671 -247.927155
v 213.938217 29.030508 -247.816193
v 219.644409 29.273386 -244.624176
v 219.644409 20.732952 -244.624176
v 200.202805 29.273384 -244.333466
v 200.202820 20.732952 -244.333466
v 214.507782 27.094843 -252.951996
v 214.507782 18.554409 -252.951996
v 205.339447 27.094845 -236.005646
v 205.339447 18.554411 -236.005646
v 39.494797 32.584480 -178.441254
v 39.494797 26.849733 -178.441254
v 46.999039 32.584480 -182.277557
v 46.999039 26.849733 -182.277557
v 40.200249 34.642174 -184.560547
v 40.073235 25.442011 -184.243622
v 46.293587 34.642178 -176.158264
v 46.166573 25.442011 -175.841339
v 42.692352 25.684887 -170.302414
v 42.692352 17.144453 -170.302414
v 43.377136 25.684883 -189.734146
v 43.377136 17.144451 -189.734146
v 51.267334 23.506346 -175.014893
v 51.267334 14.965912 -175.014893
v 34.802162 23.506344 -185.021667
v 34.802162 14.965910 -185.021667
v -89.178268 41.082283 -221.969696
v -89.178268 33.294636 -221.969696
v -94.288712 41.082279 -232.210358
v -94.288712 33.294636 -232.210358
v -97.478424 43.876575 -223.008286
v -97.049728 31.382980 -222.831635
v -85.988556 43.876575 -231.171753
v -85.559860 31.382982 -230.995102
v -78.084305 31.712803 -226.204422
v -78.084305 20.115107 -226.204422
v -104.461823 31.712801 -227.390411
v -104.461823 20.115107 -227.390411
v -84.370392 28.754398 -237.910583
v -84.370392 17.156702 -237.910583
v -98.175735 28.754395 -215.684235
v -98.175735 17.156700 -215.684235
v -77.288635 32.584488 -90.681213
v -77.288635 26.849739 -90.681213
v -69.784393 32.584488 -94.517509
v -69.784393 26.849739 -94.517509
v -76.583176 34.642181 -96.800499
v -76.710190 25.442017 -96.483574
v -70.489853 34.642181 -88.398216
v -70.616867 25.442019 -88.081291
v -74.091080 25.684895 -82.542366
v -74.091080 17.144461 -82.542366
v -73.406296 25.684891 -101.974091
v -73.406296 17.144459 -101.974091
v -65.516098 23.506353 -87.254837
v -65.516098 14.965919 -87.254837
v -81.981277 23.506350 -97.261627
v -81.981277 14.965917 -97.261627
v -238.054428 32.584488 -89.982437
v -238.054428 26.849739 -89.982437
v -230.550217 32.584488 -93.818733
v -230.550217 26.849739 -93.818733
v -237.348984 34.642181 -96.101723
v -237.475998 25.442017 -95.784798
v -231.255661 34.642181 -87.699440
v -231.382675 25.442019 -87.382515
v -234.856918 25.684895 -81.843590
v -234.856918 17.144461 -81.843590
v -234.172104 25.684891 -101.275314
v -234.172104 17.144459 -101.275314
v -226.281906 23.506353 -86.556061
v -226.281906 14.965919 -86.556061
v -242.747116 23.506350 -96.562851
v -242.747116 14.965917 -96.562851
v -203.835495 40.277088 -372.728912
v -203.835495 35.149830 -372.728912
v -203.965897 40.277084 -380.262970
v -203.965897 35.149826 -380.262970
v -208.471939 42.116779 -375.701050
v -208.267380 33.891224 -375.474457
v -199.329453 42.116779 -377.290833
v -199.124893 33.891224 -377.064240
v -196.042953 34.108387 -372.096954
v -196.042953 26.472643 -372.096954
v -211.377396 34.108383 -380.285980
v -211.377396 26.472643 -380.285980
v -196.456009 32.160599 -380.835236
v -196.456009 24.524889 -380.835236
v -210.964355 32.160603 -371.547668
v -210.964355 24.524889 -371.547668
v -227.767868 36.387711 -401.116882
v -227.767868 31.740067 -401.116882
v -227.886078 36.387711 -407.946198
v -227.886078 31.740067 -407.946198
v -231.970627 38.055344 -403.811005
v -231.785202 30.599197 -403.605621
v -223.683334 38.055344 -405.252075
v -223.497910 30.599197 -405.046661
v -220.704254 30.796036 -400.544006
v -220.704254 23.874557 -400.544006
v -234.604309 30.796036 -407.967041
v -234.604309 23.874557 -407.967041
v -221.078659 29.030472 -408.464935
v -221.078659 22.108994 -408.464935
v -234.229904 29.030472 -400.046143
v -234.229904 22.108994 -400.046143
v -262.302643 41.930305 -510.004883
v -262.302643 36.338371 -510.004883
v -262.444855 41.930305 -518.221741
v -262.444855 36.338371 -518.221741
v -267.359283 43.936756 -513.246399
v -267.136169 34.965706 -512.999268
v -257.388214 43.936756 -514.980225
v -257.165100 34.965706 -514.733093
v -253.803864 35.202534 -509.315643
v -253.803864 26.874788 -509.315643
v -270.528076 35.202534 -518.246826
v -270.528076 26.874786 -518.246826
v -254.254333 33.078247 -518.845886
v -254.254333 24.750496 -518.845886
v -270.077606 33.078243 -508.716583
v -270.077606 24.750498 -508.716583
v -278.517334 45.200649 -519.175476
v -278.429352 35.498592 -518.554688
v -276.385559 45.187485 -511.506409
v -276.297638 35.485416 -510.885559
v -274.973785 42.488941 -515.978394
v -275.128662 35.904099 -516.097046
v -279.571289 42.551170 -513.494995
v -279.726135 35.966530 -513.613647
v -282.367889 39.985756 -516.432983
v -282.367889 28.913120 -516.432983
v -272.502747 39.866913 -513.385559
v -272.502747 28.794281 -513.385559
v -275.651459 33.530231 -515.381042
v -275.651459 29.916979 -515.381042
v -271.882202 33.481289 -519.121460
v -271.882233 29.868032 -519.121460
v -276.400421 34.829243 -519.189209
v -276.415955 29.033113 -518.974609
v -271.133240 34.775532 -515.313354
v -271.148743 28.979336 -515.098816
v -272.172821 29.149681 -511.108551
v -272.172821 23.768673 -511.108551
v -275.484833 29.168419 -522.903198
v -275.484833 23.787409 -522.903198
v -267.928802 27.726627 -515.580017
v -267.928802 22.345617 -515.580017
v -279.728851 27.856392 -518.431702
v -279.728882 22.475382 -518.431702
v -281.717316 35.199162 -510.738800
v -281.717316 31.191330 -510.738800
v -278.961426 35.151958 -515.944336
v -278.961426 31.144129 -515.944336
v -283.768097 36.658703 -514.523804
v -283.713654 30.228697 -514.291504
v -276.910614 36.570625 -512.159302
v -276.856201 30.140657 -511.927002
v -276.622772 30.315615 -507.363525
v -276.622772 24.346983 -507.363525
v -284.025146 30.393824 -518.758972
v -284.025146 24.425194 -518.758972
v -273.605560 28.746038 -513.500000
v -273.605560 22.777405 -513.500000
v -287.042389 28.928770 -512.622498
v -287.042389 22.960138 -512.622498
v -281.751373 41.930305 -518.978516
v -281.751373 36.338371 -518.978516
v -281.893616 41.930305 -527.195374
v -281.893616 36.338371 -527.195374
v -286.808014 43.936752 -522.220032
v -286.584930 34.965706 -521.972900
v -276.836945 43.936756 -523.953857
v -276.613861 34.965706 -523.706726
v -273.252594 35.202534 -518.289246
v -273.252594 26.874786 -518.289246
v -289.976807 35.202534 -527.220459
v -289.976807 26.874784 -527.220459
v -273.703094 33.078247 -527.819519
v -273.703094 24.750496 -527.819519
v -289.526337 33.078243 -517.690247
v -289.526337 24.750498 -517.690247
v 525.532349 9.980567 -343.643066
v 525.532349 7.240960 -343.643066
v 527.610535 9.980567 -347.091522
v 527.610535 7.240960 -347.091522
v 524.276062 10.963569 -346.304108
v 524.304443 6.568462 -346.143463
v 528.866821 10.963569 -344.430481
v 528.895142 6.568462 -344.269867
v 528.881592 6.684489 -341.146393
v 528.881592 2.604551 -341.146393
v 524.261108 6.684489 -349.204376
v 524.261108 2.604551 -349.204376
v 531.173340 5.643756 -345.220276
v 531.173340 1.563817 -345.220276
v 521.969299 5.643755 -345.130463
v 521.969299 1.563817 -345.130463
v 11.514081 41.930271 -944.041199
v 11.514081 36.338337 -944.041199
v 11.371854 41.930271 -952.258057
v 11.371853 36.338337 -952.258057
v 6.457434 43.936722 -947.282715
v 6.680535 34.965672 -947.035583
v 16.428501 43.936722 -949.016541
v 16.651602 34.965672 -948.769409
v 20.012852 35.202499 -943.351929
v 20.012852 26.874756 -943.351929
v 3.288648 35.202499 -952.283142
v 3.288649 26.874754 -952.283142
v 19.562376 33.078213 -952.882202
v 19.562376 24.750463 -952.882202
v 3.739123 33.078209 -942.752930
v 3.739124 24.750465 -942.752930
v -4.700603 45.200615 -953.211792
v -4.612640 35.498558 -952.591003
v -2.568854 45.187450 -945.542725
v -2.480918 35.485382 -944.921875
v -1.157058 42.488907 -950.014709
v -1.311944 35.904064 -950.133362
v -5.754560 42.551136 -947.531311
v -5.909428 35.966496 -947.649963
v -8.551176 39.985722 -950.469299
v -8.551178 28.913086 -950.469299
v 1.313974 39.866879 -947.421875
v 1.313974 28.794247 -947.421875
v -1.834733 33.530197 -949.417358
v -1.834733 29.916945 -949.417358
v 1.934499 33.481255 -953.157776
v 1.934489 29.868000 -953.157776
v -2.583720 34.829208 -953.225525
v -2.599237 29.033081 -953.010925
v 2.683486 34.775497 -949.349670
v 2.667969 28.979301 -949.135132
v 1.643893 29.149649 -945.144897
v 1.643894 23.768641 -945.144897
v -1.668115 29.168386 -956.939514
v -1.668114 23.787376 -956.939514
v 5.887914 27.726593 -949.616333
v 5.887913 22.345583 -949.616333
v -5.912144 27.856359 -952.468018
v -5.912153 22.475349 -952.468018
v -7.900593 35.199127 -944.775085
v -7.900593 31.191298 -944.775085
v -5.144712 35.151924 -949.980652
v -5.144712 31.144094 -949.980652
v -9.951385 36.658669 -948.560120
v -9.896946 30.228662 -948.327820
v -3.093901 36.570591 -946.195618
v -3.039473 30.140625 -945.963318
v -2.806057 30.315582 -941.399841
v -2.806057 24.346951 -941.399841
v -10.208447 30.393791 -952.795288
v -10.208447 24.425161 -952.795288
v 0.211157 28.746004 -947.536316
v 0.211158 22.777370 -947.536316
v -13.225660 28.928738 -946.658813
v -13.225660 22.960106 -946.658813
v -7.934662 41.930271 -953.014832
v -7.934662 36.338337 -953.014832
v -8.076889 41.930271 -961.231689
v -8.076889 36.338337 -961.231689
v -12.991308 43.936718 -956.256348
v -12.768208 34.965672 -956.009216
v -3.020242 43.936722 -957.990173
v -2.797142 34.965672 -957.743042
v 0.564109 35.202499 -952.325562
v 0.564109 26.874754 -952.325562
v -16.160093 35.202499 -961.256775
v -16.160093 26.874752 -961.256775
v 0.113633 33.078213 -961.855835
v 0.113633 24.750463 -961.855835
v -15.709620 33.078209 -951.726562
v -15.709620 24.750463 -951.726562
vn 0.8664 -0.0000 -0.4993
vn 0.6266 0.0314 0.7787
vn -0.0149 -0.0000 -0.9999
vn -0.0150 -0.0000 -0.9999
vn -0.8795 -0.0000 -0.4758
vn 0.4552 -0.0000 0.8904
vn -0.8091 0.0314 0.5868
vn 0.9994 -0.0000 0.0352
vn 0.5194 -0.0000 -0.8546
vn 0.8948 -0.0000 -0.4465
vn 0.5789 0.0314 0.8148
vn 0.0449 -0.0000 -0.9990
vn -0.8495 -0.0000 -0.5276
vn 0.9999 -0.0000 -0.0173
vn 0.1712 0.0314 0.9847
vn 0.4711 -0.0000 -0.8821
vn -0.5391 -0.0000 -0.8422
vn -0.9634 0.0084 0.2678
vn -0.4748 0.0270 -0.8797
vn -0.2951 -0.0000 0.9555
vn 0.7044 -0.0000 0.7098
vn -0.5922 0.0314 0.8052
vn 0.9628 -0.0000 -0.2704
vn 0.9628 -0.0000 -0.2703
vn 0.2349 -0.0000 -0.9720
vn 0.8838 -0.0000 0.4679
vn -0.3254 0.0314 0.9450
vn -0.3255 0.0314 0.9450
vn 0.8386 -0.0000 -0.5447
vn -0.0652 -0.0000 -0.9979
vn 0.8565 -0.0000 0.5162
vn -0.3777 0.0314 0.9254
vn 0.8675 -0.0000 -0.4974
vn -0.0098 -0.0000 -1.0000
vn -0.2952 -0.0000 0.9554
vn 0.8386 -0.0000 -0.5448
vt 0.999500 1.999501
vt 0.999501 1.000500
vt 0.000499 1.999500
vt 0.000500 1.000499
s 1
usemtl BRNCHC
f 1/1/1 2/2/1 3/3/1
f 4/4/1 3/3/1 2/2/1
f 5/1/2 6/2/2 7/3/2
f 8/4/2 7/3/2 6/2/2
f 9/1/3 10/2/3 11/3/4
f 12/4/4 11/3/4 10/2/3
f 13/1/5 14/2/5 15/3/5
f 16/4/5 15/3/5 14/2/5
f 17/1/6 18/2/6 19/3/6
f 20/4/6 19/3/6 18/2/6
f 21/1/7 22/2/7 23/3/7
f 24/4/7 23/3/7 22/2/7
f 25/1/8 26/2/8 27/3/8
f 28/4/8 27/3/8 26/2/8
f 29/1/9 30/2/9 31/3/9
f 32/4/9 31/3/9 30/2/9
f 33/1/10 34/2/10 35/3/10
f 36/4/10 35/3/10 34/2/10
f 37/1/11 38/2/11 39/3/11
f 40/4/11 39/3/11 38/2/11
f 41/1/12 42/2/12 43/3/12
f 44/4/12 43/3/12 42/2/12
f 45/1/13 46/2/13 47/3/13
f 48/4/13 47/3/13 46/2/13
f 49/1/6 50/2/6 51/3/6
f 52/4/6 51/3/6 50/2/6
f 53/1/7 54/2/7 55/3/7
f 56/4/7 55/3/7 54/2/7
f 57/1/8 58/2/8 59/3/8
f 60/4/8 59/3/8 58/2/8
f 61/1/9 62/2/9 63/3/9
f 64/4/9 63/3/9 62/2/9
f 65/1/6 66/2/6 67/3/6
f 68/4/6 67/3/6 66/2/6
f 69/1/7 70/2/7 71/3/7
f 72/4/7 71/3/7 70/2/7
f 73/1/8 74/2/8 75/3/8
f 76/4/8 75/3/8 74/2/8
f 77/1/9 78/2/9 79/3/9
f 80/4/9 79/3/9 78/2/9
f 81/1/14 82/2/14 83/3/14
f 84/4/14 83/3/14 82/2/14
f 85/1/15 86/2/15 87/3/15
f 88/4/15 87/3/15 86/2/15
f 89/1/16 90/2/16 91/3/16
f 92/4/16 91/3/16 90/2/16
f 93/1/17 94/2/17 95/3/17
f 96/4/17 95/3/17 94/2/17
f 97/1/14 98/2/14 99/3/14
f 100/4/14 99/3/14 98/2/14
f 101/1/15 102/2/15 103/3/15
f 104/4/15 103/3/15 102/2/15
f 105/1/16 106/2/16 107/3/16
f 108/4/16 107/3/16 106/2/16
f 109/1/17 110/2/17 111/3/17
f 112/4/17 111/3/17 110/2/17
f 113/1/14 114/2/14 115/3/14
f 116/4/14 115/3/14 114/2/14
f 117/1/15 118/2/15 119/3/15
f 120/4/15 119/3/15 118/2/15
f 121/1/16 122/2/16 123/3/16
f 124/4/16 123/3/16 122/2/16
f 125/1/17 126/2/17 127/3/17
f 128/4/17 127/3/17 126/2/17
f 129/1/18 130/2/18 131/3/18
f 132/4/18 131/3/18 130/2/18
f 133/1/19 134/2/19 135/3/19
f 136/4/19 135/3/19 134/2/19
f 137/1/20 138/2/20 139/3/20
f 140/4/20 139/3/20 138/2/20
f 141/1/21 142/2/21 143/3/21
f 144/4/21 143/3/21 142/2/21
f 145/1/22 146/2/22 147/3/22
f 148/4/22 147/3/22 146/2/22
f 149/1/23 150/2/23 151/3/24
f 152/4/24 151/3/24 150/2/23
f 153/1/25 154/2/25 155/3/25
f 156/4/25 155/3/25 154/2/25
f 157/1/26 158/2/26 159/3/26
f 160/4/26 159/3/26 158/2/26
f 161/1/27 162/2/28 163/3/28
f 164/4/28 163/3/28 162/2/28
f 165/1/29 166/2/29 167/3/29
f 168/4/29 167/3/29 166/2/29
f 169/1/30 170/2/30 171/3/30
f 172/4/30 171/3/30 170/2/30
f 173/1/14 174/2/14 175/3/14
f 176/4/14 175/3/14 174/2/14
f 177/1/15 178/2/15 179/3/15
f 180/4/15 179/3/15 178/2/15
f 181/1/16 182/2/16 183/3/16
f 184/4/16 183/3/16 182/2/16
f 185/1/17 186/2/17 187/3/17
f 188/4/17 187/3/17 186/2/17
f 189/1/31 190/2/31 191/3/31
f 192/4/31 191/3/31 190/2/31
f 193/1/32 194/2/32 195/3/32
f 196/4/32 195/3/32 194/2/32
f 197/1/33 198/2/33 199/3/33
f 200/4/33 199/3/33 198/2/33
f 201/1/34 202/2/34 203/3/34
f 204/4/34 203/3/34 202/2/34
f 205/1/14 206/2/14 207/3/14
f 208/4/14 207/3/14 206/2/14
f 209/1/15 210/2/15 211/3/15
f 212/4/15 211/3/15 210/2/15
f 213/1/16 214/2/16 215/3/16
f 216/4/16 215/3/16 214/2/16
f 217/1/17 218/2/17 219/3/17
f 220/4/17 219/3/17 218/2/17
f 221/1/18 222/2/18 223/3/18
f 224/4/18 223/3/18 222/2/18
f 225/1/19 226/2/19 227/3/19
f 228/4/19 227/3/19 226/2/19
f 229/1/35 230/2/20 231/3/20
f 232/4/20 231/3/20 230/2/20
f 233/1/21 234/2/21 235/3/21
f 236/4/21 235/3/21 234/2/21
f 237/1/22 238/2/22 239/3/22
f 240/4/22 239/3/22 238/2/22
f 241/1/23 242/2/23 243/3/23
f 244/4/23 243/3/23 242/2/23
f 245/1/25 246/2/25 247/3/25
f 248/4/25 247/3/25 246/2/25
f 249/1/26 250/2/26 251/3/26
f 252/4/26 251/3/26 250/2/26
f 253/1/27 254/2/27 255/3/27
f 256/4/28 255/3/27 254/2/27
f 257/1/36 258/2/29 259/3/29
f 260/4/29 259/3/29 258/2/29
f 261/1/30 262/2/30 263/3/30
f 264/4/30 263/3/30 262/2/30
f 265/1/14 266/2/14 267/3/14
f 268/4/14 267/3/14 266/2/14
f 269/1/15 270/2/15 271/3/15
f 272/4/15 271/3/15 270/2/15
f 273/1/16 274/2/16 275/3/16
f 276/4/16 275/3/16 274/2/16
f 277/1/17 278/2/17 279/3/17
f 280/4/17 279/3/17 278/2/17
