# Blender 4.4.3
# www.blender.org
mtllib BRNCHB.mtl
o BRNCHB
v 209.604538 21.667713 -244.502747
v 209.604538 15.932967 -244.502747
v 205.396698 21.667713 -251.805145
v 205.396683 15.932966 -251.805145
v 214.058655 25.164183 -236.772995
v 214.058655 16.829653 -236.772995
v 209.850800 25.164181 -244.075378
v 209.850800 16.829651 -244.075378
v 216.278870 32.069866 -248.845612
v 216.278870 23.735332 -248.845612
v 209.846375 32.069862 -244.092545
v 209.846375 23.735332 -244.092529
v 212.011017 33.432751 -240.326508
v 212.011017 25.098221 -240.326508
v 209.850800 33.432751 -244.075378
v 209.850800 25.098221 -244.075378
v 43.074654 18.079216 -180.335754
v 43.074654 12.344468 -180.335754
v 50.578903 18.079216 -184.172043
v 50.578903 12.344467 -184.172043
v 35.131226 21.575682 -176.274933
v 35.131226 13.241152 -176.274933
v 42.635468 21.575682 -180.111237
v 42.635468 13.241152 -180.111237
v 47.077286 28.481369 -173.451996
v 47.077286 20.146835 -173.451996
v 42.652832 28.481365 -180.114792
v 42.652824 20.146835 -180.114792
v 38.782967 29.844255 -178.141769
v 38.782967 21.509722 -178.141769
v 42.635468 29.844252 -180.111237
v 42.635468 21.509722 -180.111237
v -91.703629 21.384491 -226.855789
v -91.703629 13.596846 -226.855789
v -96.814072 21.384491 -237.096466
v -96.814072 13.596845 -237.096451
v -86.294113 26.132605 -216.015793
v -86.294113 14.814522 -216.015793
v -91.404541 26.132605 -226.256454
v -91.404541 14.814521 -226.256454
v -82.303345 35.510349 -232.200272
v -82.303345 24.192266 -232.200272
v -91.409149 35.510353 -226.280075
v -91.409149 24.192266 -226.280075
v -88.780960 37.361122 -220.999146
v -88.780960 26.043034 -220.999146
v -91.404541 37.361118 -226.256454
v -91.404541 26.043032 -226.256454
v -73.708786 18.079222 -92.575706
v -73.708786 12.344475 -92.575706
v -66.204529 18.079222 -96.411995
v -66.204529 12.344474 -96.411995
v -81.652206 21.575687 -88.514893
v -81.652206 13.241158 -88.514893
v -74.147964 21.575687 -92.351181
v -74.147964 13.241158 -92.351181
v -69.706161 28.481377 -85.691948
v -69.706161 20.146843 -85.691948
v -74.130600 28.481371 -92.354744
v -74.130600 20.146841 -92.354744
v -78.000473 29.844261 -90.381721
v -78.000473 21.509727 -90.381721
v -74.147964 29.844257 -92.351181
v -74.147964 21.509727 -92.351181
v -234.474594 18.079222 -91.876930
v -234.474594 12.344475 -91.876930
v -226.970322 18.079222 -95.713219
v -226.970322 12.344474 -95.713219
v -242.418015 21.575689 -87.816116
v -242.418015 13.241158 -87.816116
v -234.913803 21.575687 -91.652405
v -234.913803 13.241158 -91.652405
v -230.471970 28.481377 -84.993172
v -230.471970 20.146843 -84.993172
v -234.896408 28.481371 -91.655968
v -234.896408 20.146841 -91.655968
v -238.766281 29.844261 -89.682945
v -238.766281 21.509727 -89.682945
v -234.913742 29.844257 -91.652405
v -234.913742 21.509727 -91.652405
v -203.949417 27.308397 -376.348328
v -203.949417 22.181139 -376.348328
v -204.079834 27.308397 -383.882355
v -204.079834 22.181139 -383.882355
v -203.811386 30.434465 -368.373322
v -203.811386 22.982836 -368.373322
v -203.941788 30.434465 -375.907379
v -203.941788 22.982836 -375.907379
v -196.848221 36.608601 -376.856232
v -196.848221 29.156969 -376.856232
v -203.937820 36.608601 -375.922729
v -203.937820 29.156969 -375.922729
v -203.874832 37.827137 -372.039581
v -203.874847 30.375505 -372.039581
v -203.941788 37.827137 -375.907379
v -203.941788 30.375505 -375.907379
v -227.871140 24.632126 -404.397705
v -227.871140 19.984482 -404.397705
v -227.989349 24.632126 -411.227051
v -227.989349 19.984482 -411.227051
v -227.746017 27.465775 -397.168701
v -227.746017 20.711166 -397.168701
v -227.864227 27.465775 -403.998047
v -227.864227 20.711166 -403.998047
v -221.434189 33.062393 -404.858124
v -221.434189 26.307785 -404.858124
v -227.860641 33.062393 -404.011932
v -227.860641 26.307785 -404.011932
v -227.803543 34.166916 -400.492035
v -227.803543 27.412338 -400.492035
v -227.864227 34.166916 -403.998047
v -227.864227 27.412338 -403.998047
v -262.426880 27.786270 -513.952332
v -262.426880 22.194338 -513.952332
v -262.569122 27.786268 -522.169189
v -262.569122 22.194336 -522.169189
v -262.276337 31.195663 -505.254547
v -262.276337 23.068691 -505.254547
v -262.418549 31.195663 -513.471436
v -262.418549 23.068691 -513.471436
v -254.682114 37.929375 -514.506226
v -254.682114 29.802399 -514.506226
v -262.414246 37.929371 -513.488159
v -262.414246 29.802399 -513.488159
v -262.345551 39.258320 -509.253082
v -262.345551 31.131346 -509.253082
v -262.418549 39.258316 -513.471436
v -262.418549 31.131346 -513.471436
v -278.932159 34.605141 -520.119690
v -278.932129 23.799454 -520.119690
v -277.367218 34.594223 -515.134155
v -277.367218 23.788536 -515.134155
v -282.154541 43.615139 -513.031189
v -282.154541 32.809452 -513.031189
v -277.366302 43.547421 -515.123352
v -277.366302 32.741734 -515.123352
v -273.865692 24.366993 -517.204041
v -273.865692 20.753740 -517.204041
v -270.096466 24.320915 -520.944519
v -270.096466 20.707663 -520.944519
v -277.855530 26.625181 -513.244751
v -277.855530 21.373901 -513.244751
v -274.086304 26.572872 -516.985168
v -274.086304 21.321592 -516.985168
v -270.144348 30.885654 -513.839172
v -270.144348 25.634377 -513.839172
v -274.076538 30.923767 -516.990601
v -274.076538 25.672487 -516.990601
v -276.021301 31.808743 -515.064941
v -276.021301 26.557465 -515.064941
v -274.086304 31.782591 -516.985168
v -274.086273 26.531313 -516.985168
v -280.428467 25.039242 -513.258911
v -280.428467 21.031412 -513.258911
v -277.672577 24.993658 -518.464478
v -277.672577 20.985828 -518.464478
v -283.345642 27.534721 -507.748718
v -283.345642 21.709988 -507.748749
v -280.589752 27.485582 -512.954285
v -280.589752 21.660851 -512.954285
v -275.376617 32.248215 -510.924866
v -275.376617 26.423477 -510.924866
v -280.581238 32.311611 -512.963257
v -280.581238 26.486876 -512.963257
v -282.004547 33.289047 -510.281891
v -282.004547 27.464312 -510.281891
v -280.589752 33.264221 -512.954285
v -280.589752 27.439487 -512.954285
v -281.875641 27.786268 -522.925964
v -281.875641 22.194334 -522.925964
v -282.017853 27.786268 -531.142822
v -282.017853 22.194334 -531.142822
v -281.725067 31.195662 -514.228210
v -281.725067 23.068691 -514.228210
v -281.867310 31.195660 -522.445068
v -281.867310 23.068689 -522.445068
v -274.130859 37.929375 -523.479858
v -274.130859 29.802397 -523.479858
v -281.862976 37.929371 -522.461792
v -281.862976 29.802397 -522.461792
v -281.794281 39.258320 -518.226685
v -281.794281 31.131344 -518.226685
v -281.867310 39.258316 -522.445068
v -281.867310 31.131344 -522.445068
v 526.507507 3.051106 -345.314270
v 526.507507 0.311500 -345.314270
v 528.585632 3.051106 -348.762695
v 528.585632 0.311500 -348.762695
v 524.307739 4.721439 -341.664032
v 524.307739 0.739865 -341.664032
v 526.385864 4.721439 -345.112457
v 526.385864 0.739865 -345.112457
v 529.867004 8.020426 -343.529846
v 529.867004 4.038850 -343.529846
v 526.392029 8.020424 -345.118286
v 526.392029 4.038850 -345.118286
v 525.319031 8.671504 -343.342102
v 525.319031 4.689929 -343.342102
v 526.385864 8.671503 -345.112457
v 526.385864 4.689929 -345.112457
v 11.389828 27.786236 -947.988647
v 11.389828 22.194304 -947.988647
v 11.247600 27.786236 -956.205505
v 11.247599 22.194304 -956.205505
v 11.540380 31.195631 -939.290894
v 11.540380 23.068659 -939.290894
v 11.398152 31.195629 -947.507751
v 11.398151 23.068657 -947.507751
v 19.134605 37.929340 -948.542542
v 19.134605 29.802364 -948.542542
v 11.402473 37.929337 -947.524475
v 11.402473 29.802364 -947.524475
v 11.471169 39.258286 -943.289368
v 11.471169 31.131313 -943.289368
v 11.398152 39.258282 -947.507751
v 11.398151 31.131311 -947.507751
v -5.115438 34.605106 -954.156006
v -5.115429 23.799421 -954.156006
v -3.550491 34.594189 -949.170471
v -3.550491 23.788502 -949.170471
v -8.337812 43.615105 -947.067505
v -8.337812 32.809418 -947.067505
v -3.549583 43.547386 -949.159668
v -3.549582 32.741699 -949.159668
v -0.048985 24.366959 -951.240356
v -0.048985 20.753706 -951.240356
v 3.720237 24.320883 -954.980835
v 3.720237 20.707630 -954.980835
v -4.038803 26.625149 -947.281067
v -4.038803 21.373869 -947.281067
v -0.269580 26.572838 -951.021484
v -0.269581 21.321558 -951.021484
v 3.672374 30.885620 -947.875488
v 3.672374 25.634342 -947.875488
v -0.259823 30.923733 -951.026917
v -0.259832 25.672453 -951.026917
v -2.204600 31.808708 -949.101257
v -2.204600 26.557430 -949.101257
v -0.269580 31.782557 -951.021484
v -0.269571 26.531279 -951.021484
v -6.611748 25.039209 -947.295227
v -6.611757 21.031380 -947.295227
v -3.855859 24.993626 -952.500793
v -3.855868 20.985796 -952.500793
v -9.528923 27.534689 -941.785034
v -9.528913 21.709955 -941.785034
v -6.773024 27.485550 -946.990601
v -6.773024 21.660818 -946.990601
v -1.559896 32.248180 -944.961182
v -1.559896 26.423445 -944.961182
v -6.764534 32.311577 -946.999573
v -6.764536 26.486843 -946.999573
v -8.187824 33.289013 -944.318176
v -8.187824 27.464279 -944.318176
v -6.773024 33.264187 -946.990601
v -6.773024 27.439455 -946.990601
v -8.058914 27.786236 -956.962280
v -8.058914 22.194302 -956.962280
v -8.201143 27.786236 -965.179138
v -8.201145 22.194302 -965.179138
v -7.908361 31.195627 -948.264526
v -7.908363 23.068657 -948.264526
v -8.050591 31.195627 -956.481384
v -8.050591 23.068657 -956.481384
v -0.314137 37.929340 -957.516235
v -0.314137 29.802364 -957.516174
v -8.046268 37.929337 -956.498108
v -8.046270 29.802364 -956.498108
v -7.977573 39.258286 -952.263000
v -7.977573 31.131311 -952.263000
v -8.050591 39.258282 -956.481384
v -8.050591 31.131311 -956.481384
vn 0.8664 -0.0000 -0.4993
vn -0.5943 -0.0000 -0.8043
vn 0.4552 -0.0000 0.8904
vn 0.8331 -0.0000 -0.5532
vn 0.8948 -0.0000 -0.4465
vn -0.5451 -0.0000 -0.8384
vn 0.9999 -0.0000 -0.0173
vn -0.1306 -0.0000 -0.9914
vn -0.1305 -0.0000 -0.9914
vn -0.9541 -0.0000 0.2995
vn 0.4004 -0.0000 0.9163
vn 0.7044 -0.0000 0.7098
vn 0.6254 -0.0000 -0.7803
vn 0.8838 -0.0000 0.4679
vn 0.3647 -0.0000 -0.9311
vn 0.8565 -0.0000 0.5162
vn 0.8565 -0.0000 0.5161
vn 0.4157 -0.0000 -0.9095
vt 0.999500 1.999501
vt 0.999501 1.000500
vt 0.000499 1.999500
vt 0.000500 1.000499
vt 0.000499 1.999501
vt 0.000499 1.000500
vt 0.999501 1.999501
s 1
usemtl BRNCHB
f 1/1/1 2/2/1 3/3/1
f 4/4/1 3/3/1 2/2/1
f 5/5/1 6/6/1 7/7/1
f 8/2/1 7/7/1 6/6/1
f 9/5/2 10/6/2 11/7/2
f 12/2/2 11/7/2 10/6/2
f 13/5/1 14/6/1 15/7/1
f 16/2/1 15/7/1 14/6/1
f 17/1/3 18/2/3 19/3/3
f 20/4/3 19/3/3 18/2/3
f 21/5/3 22/6/3 23/7/3
f 24/2/3 23/7/3 22/6/3
f 25/5/4 26/6/4 27/7/4
f 28/2/4 27/7/4 26/6/4
f 29/5/3 30/6/3 31/7/3
f 32/2/3 31/7/3 30/6/3
f 33/1/5 34/2/5 35/3/5
f 36/4/5 35/3/5 34/2/5
f 37/5/5 38/6/5 39/7/5
f 40/2/5 39/7/5 38/6/5
f 41/5/6 42/6/6 43/7/6
f 44/2/6 43/7/6 42/6/6
f 45/5/5 46/6/5 47/7/5
f 48/2/5 47/7/5 46/6/5
f 49/1/3 50/2/3 51/3/3
f 52/4/3 51/3/3 50/2/3
f 53/5/3 54/6/3 55/7/3
f 56/2/3 55/7/3 54/6/3
f 57/5/4 58/6/4 59/7/4
f 60/2/4 59/7/4 58/6/4
f 61/5/3 62/6/3 63/7/3
f 64/2/3 63/7/3 62/6/3
f 65/1/3 66/2/3 67/3/3
f 68/4/3 67/3/3 66/2/3
f 69/5/3 70/6/3 71/7/3
f 72/2/3 71/7/3 70/6/3
f 73/5/4 74/6/4 75/7/4
f 76/2/4 75/7/4 74/6/4
f 77/5/3 78/6/3 79/7/3
f 80/2/3 79/7/3 78/6/3
f 81/1/7 82/2/7 83/3/7
f 84/4/7 83/3/7 82/2/7
f 85/5/7 86/6/7 87/7/7
f 88/2/7 87/7/7 86/6/7
f 89/5/8 90/6/9 91/7/9
f 92/2/9 91/7/9 90/6/9
f 93/5/7 94/6/7 95/7/7
f 96/2/7 95/7/7 94/6/7
f 97/1/7 98/2/7 99/3/7
f 100/4/7 99/3/7 98/2/7
f 101/5/7 102/6/7 103/7/7
f 104/2/7 103/7/7 102/6/7
f 105/5/9 106/6/9 107/7/9
f 108/2/9 107/7/9 106/6/9
f 109/5/7 110/6/7 111/7/7
f 112/2/7 111/7/7 110/6/7
f 113/1/7 114/2/7 115/3/7
f 116/4/7 115/3/7 114/2/7
f 117/5/7 118/6/7 119/7/7
f 120/2/7 119/7/7 118/6/7
f 121/5/9 122/6/9 123/7/9
f 124/2/9 123/7/9 122/6/9
f 125/5/7 126/6/7 127/7/7
f 128/2/7 127/7/7 126/6/7
f 129/5/10 130/6/10 131/7/10
f 132/2/10 131/7/10 130/6/10
f 133/5/11 134/6/11 135/7/11
f 136/2/11 135/7/11 134/6/11
f 137/1/12 138/2/12 139/3/12
f 140/4/12 139/3/12 138/2/12
f 141/5/12 142/6/12 143/7/12
f 144/2/12 143/7/12 142/6/12
f 145/5/13 146/6/13 147/7/13
f 148/2/13 147/7/13 146/6/13
f 149/5/12 150/6/12 151/7/12
f 152/2/12 151/7/12 150/6/12
f 153/1/14 154/2/14 155/3/14
f 156/4/14 155/3/14 154/2/14
f 157/5/14 158/6/14 159/7/14
f 160/2/14 159/7/14 158/6/14
f 161/5/15 162/6/15 163/7/15
f 164/2/15 163/7/15 162/6/15
f 165/5/14 166/6/14 167/7/14
f 168/2/14 167/7/14 166/6/14
f 169/1/7 170/2/7 171/3/7
f 172/4/7 171/3/7 170/2/7
f 173/5/7 174/6/7 175/7/7
f 176/2/7 175/7/7 174/6/7
f 177/5/9 178/6/9 179/7/9
f 180/2/8 179/7/9 178/6/9
f 181/5/7 182/6/7 183/7/7
f 184/2/7 183/7/7 182/6/7
f 185/1/16 186/2/16 187/3/16
f 188/4/17 187/3/16 186/2/16
f 189/5/17 190/6/17 191/7/17
f 192/2/17 191/7/17 190/6/17
f 193/5/18 194/6/18 195/7/18
f 196/2/18 195/7/18 194/6/18
f 197/5/17 198/6/17 199/7/17
f 200/2/17 199/7/17 198/6/17
f 201/1/7 202/2/7 203/3/7
f 204/4/7 203/3/7 202/2/7
f 205/5/7 206/6/7 207/7/7
f 208/2/7 207/7/7 206/6/7
f 209/5/9 210/6/9 211/7/9
f 212/2/9 211/7/9 210/6/9
f 213/5/7 214/6/7 215/7/7
f 216/2/7 215/7/7 214/6/7
f 217/5/10 218/6/10 219/7/10
f 220/2/10 219/7/10 218/6/10
f 221/5/11 222/6/11 223/7/11
f 224/2/11 223/7/11 222/6/11
f 225/1/12 226/2/12 227/3/12
f 228/4/12 227/3/12 226/2/12
f 229/5/12 230/6/12 231/7/12
f 232/2/12 231/7/12 230/6/12
f 233/5/13 234/6/13 235/7/13
f 236/2/13 235/7/13 234/6/13
f 237/5/12 238/6/12 239/7/12
f 240/2/12 239/7/12 238/6/12
f 241/1/14 242/2/14 243/3/14
f 244/4/14 243/3/14 242/2/14
f 245/5/14 246/6/14 247/7/14
f 248/2/14 247/7/14 246/6/14
f 249/5/15 250/6/15 251/7/15
f 252/2/15 251/7/15 250/6/15
f 253/5/14 254/6/14 255/7/14
f 256/2/14 255/7/14 254/6/14
f 257/1/7 258/2/7 259/3/7
f 260/4/7 259/3/7 258/2/7
f 261/5/7 262/6/7 263/7/7
f 264/2/7 263/7/7 262/6/7
f 265/5/8 266/6/9 267/7/8
f 268/2/9 267/7/8 266/6/9
f 269/5/7 270/6/7 271/7/7
f 272/2/7 271/7/7 270/6/7
