# Blender 4.4.3
# www.blender.org
mtllib BULBGLO_LONG.mtl
o BULBGLO_LONG
v -267.756958 12.054349 -37.693935
v -267.756958 3.254537 -37.693935
v -266.357666 12.054349 -39.168774
v -266.357666 3.254538 -39.168774
v -299.965637 14.510267 -80.731316
v -299.965637 5.710450 -80.731316
v -298.104797 14.510267 -81.550148
v -298.104797 5.710450 -81.550148
v -315.365143 18.176256 -139.277023
v -315.365143 8.872218 -139.277039
v -313.333984 18.176256 -139.363342
v -313.333984 8.872220 -139.363373
v -298.794067 22.513306 -194.954605
v -298.794067 13.209272 -194.954605
v -297.092712 22.513306 -193.710831
v -297.092712 13.209274 -193.710831
v -277.018829 25.270748 -247.769409
v -277.018829 15.966715 -247.769409
v -278.872986 25.270748 -248.603256
v -278.872986 15.966715 -248.603256
v -238.402740 26.621042 -335.158020
v -238.402740 17.317009 -335.158020
v -240.435455 26.621042 -335.123352
v -240.435455 17.317009 -335.123352
v -247.947357 28.944653 -413.847717
v -247.947357 19.640614 -413.847717
v -245.839935 28.944653 -413.872681
v -245.839935 19.640615 -413.872681
v -226.128662 28.241497 -437.390259
v -226.128662 18.937464 -437.390259
v -226.010834 28.241497 -435.360657
v -226.010834 18.937464 -435.360657
v -198.647583 28.697260 -424.416138
v -198.647583 19.393221 -424.416077
v -199.919403 28.697260 -422.830017
v -199.919403 19.393221 -422.830017
v -49.217247 17.880753 -335.322388
v -49.217247 8.576713 -335.322327
v -49.986950 17.880753 -333.440674
v -49.986950 8.576714 -333.440674
v 440.563354 16.630299 -491.028015
v 440.563354 10.098014 -491.028015
v 441.847900 16.630299 -489.452148
v 441.847900 10.098014 -489.452148
v 468.885162 14.892526 -510.706909
v 468.885162 8.360239 -510.706909
v 469.871979 14.892526 -508.929443
v 469.871979 8.360239 -508.929443
v 503.417816 12.000714 -512.565552
v 503.417816 5.468433 -512.565552
v 502.679871 12.000715 -510.591431
v 502.679871 5.468434 -510.591431
v 517.017151 4.080699 -387.148865
v 517.017212 -5.223339 -387.148926
v 518.817566 4.080699 -386.204529
v 518.817566 -5.223339 -386.204529
v 505.443756 3.807064 -344.947449
v 505.443817 -5.496972 -344.947510
v 507.476471 3.807064 -344.982422
v 507.476471 -5.496972 -344.982422
v 543.031555 5.355912 -207.900482
v 543.031555 -3.948125 -207.900482
v 544.953674 5.355912 -208.562988
v 544.953674 -3.948125 -208.562988
v 539.856812 4.327819 -152.225449
v 539.856934 -4.976217 -152.225479
v 541.657288 4.327819 -151.281128
v 541.657288 -4.976217 -151.281128
v 263.182953 5.355929 9.613420
v 263.182953 -3.948107 9.613420
v 263.295319 5.355929 11.643415
v 263.295319 -3.948107 11.643415
v 172.949982 5.460531 -10.903120
v 172.950012 -3.843506 -10.903063
v 172.951874 5.460532 -8.870054
v 172.951874 -3.843506 -8.870054
v 132.457062 5.801551 -10.575090
v 132.457092 -3.502485 -10.575031
v 132.458923 5.801551 -8.542023
v 132.458923 -3.502485 -8.542023
v 62.238304 5.841535 -10.771358
v 62.238342 -3.462502 -10.771301
v 62.240185 5.841536 -8.738293
v 62.240185 -3.462502 -8.738293
v -8.627719 5.230892 -10.812780
v -8.627679 -4.073144 -10.812723
v -8.625835 5.230893 -8.779716
v -8.625835 -4.073143 -8.779716
v -67.292274 5.846515 -10.776089
v -67.292236 -3.457521 -10.776033
v -67.290390 5.846516 -8.743025
v -67.290390 -3.457521 -8.743025
v -274.733856 27.107870 -399.318787
v -274.733856 17.803843 -399.318787
v -276.675446 27.107870 -398.716003
v -276.675446 17.803843 -398.716003
v -316.040466 29.447748 -496.921692
v -316.040497 20.143709 -496.921661
v -318.067230 29.447748 -497.081573
v -318.067230 20.143711 -497.081573
v -315.908508 28.891495 -543.367554
v -315.908508 19.587460 -543.367554
v -317.941406 28.891495 -543.345825
v -317.941406 19.587460 -543.345825
v -306.160034 8.367018 -782.549377
v -306.160034 -1.981590 -782.498596
v -304.096954 8.367018 -782.118652
v -304.096954 -1.981590 -782.067871
v -284.882233 2.659461 -817.846008
v -284.882233 -7.689147 -817.795227
v -283.406860 2.659461 -816.447266
v -283.406891 -7.689147 -816.396484
v -126.858627 5.736452 -755.028442
v -126.858658 -1.528501 -755.028442
v -128.292267 5.736452 -756.573181
v -128.292313 -1.528501 -756.573181
v 65.634483 26.686184 -887.157288
v 65.634483 17.382149 -887.157288
v 65.683403 26.686184 -889.264282
v 65.683403 17.382149 -889.264282
v 261.614166 43.065357 -962.622498
v 261.614197 32.774441 -962.622437
v 261.521271 43.065357 -960.591553
v 261.521271 32.774441 -960.591553
v 285.677338 42.184872 -959.997803
v 285.677338 32.880840 -959.997803
v 285.311646 42.184872 -957.922241
v 285.311646 32.880840 -957.922241
v 502.459778 38.515308 -815.287292
v 502.459778 31.250357 -815.287354
v 503.957611 38.515308 -816.769897
v 503.957611 31.250357 -816.769897
v 498.980713 38.292995 -802.965637
v 498.980743 31.028044 -802.965637
v 500.113861 38.292995 -801.188660
v 500.113892 31.028044 -801.188660
v 323.511047 35.483810 -713.215637
v 323.511017 28.218859 -713.215637
v 322.539795 35.483810 -715.086060
v 322.539795 28.218859 -715.086060
v 185.815704 26.905567 -605.331482
v 185.815735 19.640617 -605.331482
v 187.431152 26.905567 -603.978027
v 187.431152 19.640617 -603.978027
v 180.731110 22.365368 -516.174622
v 180.731110 15.100417 -516.174622
v 182.662552 22.365368 -517.017822
v 182.662552 15.100417 -517.017822
v 214.662994 20.843012 -474.852966
v 214.662994 13.578066 -474.852966
v 215.888550 20.843012 -476.567444
v 215.888550 13.578066 -476.567444
v 312.414429 21.702091 -437.631165
v 312.414429 12.398052 -437.631165
v 312.344818 21.702091 -439.663025
v 312.344818 12.398052 -439.663025
v -222.972748 9.746372 -11.158547
v -222.972748 0.946557 -11.158546
v -222.383148 9.746372 -13.104211
v -222.383148 0.946557 -13.104208
vn 0.7254 -0.0000 0.6883
vn 0.4028 -0.0000 0.9153
vn 0.0425 -0.0000 0.9991
vn -0.5902 -0.0000 0.8073
vn 0.4102 -0.0000 -0.9120
vn 0.4101 -0.0000 -0.9120
vn -0.0170 -0.0000 -0.9999
vn -0.0171 -0.0000 -0.9999
vn 0.0119 -0.0000 0.9999
vn 0.0118 -0.0000 0.9999
vn -0.9983 -0.0000 0.0580
vn -0.7802 -0.0000 -0.6256
vn -0.9256 -0.0000 -0.3786
vn -0.7751 -0.0000 0.6318
vn -0.8743 -0.0000 0.4854
vn -0.9367 -0.0000 -0.3501
vn -0.4645 -0.0000 0.8856
vn 0.0172 -0.0000 0.9999
vn 0.3259 -0.0000 0.9454
vn -0.9985 -0.0000 0.0553
vn -1.0000 -0.0000 0.0009
vn -0.2965 -0.0000 -0.9550
vn 0.0786 -0.0000 -0.9969
vn -0.0107 -0.0000 -0.9999
vn -0.2044 0.0048 0.9789
vn -0.6880 0.0036 0.7257
vn 0.7330 -0.0000 -0.6803
vn 0.9997 -0.0000 0.0232
vn -0.9990 -0.0000 -0.0457
vn -0.9848 -0.0000 -0.1735
vn 0.7035 -0.0000 0.7107
vn -0.8431 -0.0000 0.5377
vn -0.8432 -0.0000 0.5377
vn 0.8875 -0.0000 -0.4608
vn -0.6422 -0.0000 0.7666
vn -0.6422 -0.0000 0.7665
vn 0.4001 -0.0000 0.9165
vn 0.8135 -0.0000 0.5815
vn 0.9994 -0.0000 -0.0342
vn 0.9570 -0.0000 0.2900
vt 0.000000 2.000000
vt 0.000000 1.000000
vt 1.000000 2.000000
vt 1.000000 1.000000
s 1
usemtl BULBGLO_LONG.041
f 1/1/1 2/2/1 3/3/1
f 4/4/1 3/3/1 2/2/1
f 5/1/2 6/2/2 7/3/2
f 8/4/2 7/3/2 6/2/2
f 9/1/3 10/2/3 11/3/3
f 12/4/3 11/3/3 10/2/3
f 13/1/4 14/2/4 15/3/4
f 16/4/4 15/3/4 14/2/4
f 17/1/5 18/2/6 19/3/5
f 20/4/6 19/3/5 18/2/6
f 21/1/7 22/2/8 23/3/7
f 24/4/8 23/3/7 22/2/8
f 25/1/9 26/2/10 27/3/10
f 28/4/10 27/3/10 26/2/10
f 29/1/11 30/2/11 31/3/11
f 32/4/11 31/3/11 30/2/11
f 33/1/12 34/2/12 35/3/12
f 36/4/12 35/3/12 34/2/12
f 37/1/13 38/2/13 39/3/13
f 40/4/13 39/3/13 38/2/13
f 41/1/14 42/2/14 43/3/14
f 44/4/14 43/3/14 42/2/14
f 45/1/15 46/2/15 47/3/15
f 48/4/15 47/3/15 46/2/15
f 49/1/16 50/2/16 51/3/16
f 52/4/16 51/3/16 50/2/16
f 53/1/17 54/2/17 55/3/17
f 56/4/17 55/3/17 54/2/17
f 57/1/18 58/2/18 59/3/18
f 60/4/18 59/3/18 58/2/18
f 61/1/19 62/2/19 63/3/19
f 64/4/19 63/3/19 62/2/19
f 65/1/17 66/2/17 67/3/17
f 68/4/17 67/3/17 66/2/17
f 69/1/20 70/2/20 71/3/20
f 72/4/20 71/3/20 70/2/20
f 73/1/21 74/2/21 75/3/21
f 76/4/21 75/3/21 74/2/21
f 77/1/21 78/2/21 79/3/21
f 80/4/21 79/3/21 78/2/21
f 81/1/21 82/2/21 83/3/21
f 84/4/21 83/3/21 82/2/21
f 85/1/21 86/2/21 87/3/21
f 88/4/21 87/3/21 86/2/21
f 89/1/21 90/2/21 91/3/21
f 92/4/21 91/3/21 90/2/21
f 93/1/22 94/2/22 95/3/22
f 96/4/22 95/3/22 94/2/22
f 97/1/23 98/2/23 99/3/23
f 100/4/23 99/3/23 98/2/23
f 101/1/24 102/2/24 103/3/24
f 104/4/24 103/3/24 102/2/24
f 105/1/25 106/2/25 107/3/25
f 108/4/25 107/3/25 106/2/25
f 109/1/26 110/2/26 111/3/26
f 112/4/26 111/3/26 110/2/26
f 113/1/27 114/2/27 115/3/27
f 116/4/27 115/3/27 114/2/27
f 117/1/28 118/2/28 119/3/28
f 120/4/28 119/3/28 118/2/28
f 121/1/29 122/2/29 123/3/29
f 124/4/29 123/3/29 122/2/29
f 125/1/30 126/2/30 127/3/30
f 128/4/30 127/3/30 126/2/30
f 129/1/31 130/2/31 131/3/31
f 132/4/31 131/3/31 130/2/31
f 133/1/32 134/2/33 135/3/33
f 136/4/33 135/3/33 134/2/33
f 137/1/34 138/2/34 139/3/34
f 140/4/34 139/3/34 138/2/34
f 141/1/35 142/2/36 143/3/36
f 144/4/36 143/3/36 142/2/36
f 145/1/37 146/2/37 147/3/37
f 148/4/37 147/3/37 146/2/37
f 149/1/38 150/2/38 151/3/38
f 152/4/38 151/3/38 150/2/38
f 153/1/39 154/2/39 155/3/39
f 156/4/39 155/3/39 154/2/39
f 157/1/40 158/2/40 159/3/40
f 160/4/40 159/3/40 158/2/40
