# Blender 4.4.3
# www.blender.org
mtllib BULBGLO.mtl
o BULBGLO
v -267.340149 12.225533 -38.642963
v -267.340149 11.506618 -38.642963
v -266.833771 12.225533 -38.157867
v -266.833771 11.506618 -38.157867
v -267.325928 12.225533 -38.143867
v -267.325928 11.506618 -38.143867
v -266.847961 12.225533 -38.656956
v -266.847961 11.506618 -38.656956
v -267.069916 11.859483 -37.898605
v -267.589050 11.862907 -38.395912
v -266.584839 11.869246 -38.404911
v -267.103973 11.872670 -38.902222
v -299.214172 14.681451 -81.445259
v -299.214172 13.962533 -81.445259
v -298.934814 14.681451 -80.802063
v -298.934814 13.962533 -80.802063
v -299.394104 14.681451 -80.979515
v -299.394104 13.962533 -80.979515
v -298.754883 14.681451 -81.267799
v -298.754883 13.962533 -81.267799
v -299.252899 14.315399 -80.654327
v -299.539276 14.318823 -81.313705
v -298.609741 14.325162 -80.933594
v -298.896149 14.328588 -81.593002
v -314.405579 18.347441 -139.668961
v -314.405579 17.628525 -139.668961
v -314.379181 18.347441 -138.968216
v -314.379181 17.628525 -138.968216
v -314.742493 18.347441 -139.300491
v -314.742493 17.628525 -139.300491
v -314.042206 18.347441 -139.336639
v -314.042206 17.628525 -139.336639
v -314.729156 17.981390 -138.946213
v -314.756256 17.984814 -139.664581
v -314.028503 17.991152 -138.972565
v -314.055573 17.994577 -139.690964
v -297.799622 22.684490 -194.662323
v -297.799622 21.965574 -194.662323
v -298.216064 22.684490 -194.098175
v -298.216064 21.965574 -194.098175
v -298.292816 22.684490 -194.584534
v -298.292816 21.965574 -194.584534
v -297.722870 22.684490 -194.175964
v -297.722870 21.965574 -194.175964
v -298.503357 22.318439 -194.299301
v -298.076416 22.321863 -194.877670
v -297.939270 22.328201 -193.882843
v -297.512329 22.331627 -194.461212
v -278.052216 25.441929 -247.849564
v -278.052216 24.723011 -247.849564
v -277.761566 25.441929 -248.487686
v -277.761566 24.723011 -248.487686
v -277.585846 25.441929 -248.027725
v -277.585846 24.723011 -248.027725
v -278.227966 25.441929 -248.309509
v -278.227966 24.723011 -248.309509
v -277.438843 25.075874 -248.350403
v -277.736847 25.079300 -247.696152
v -278.076935 25.085638 -248.641083
v -278.374908 25.089066 -247.986832
v -239.371948 26.792223 -334.790710
v -239.371948 26.073307 -334.790710
v -239.380585 26.792223 -335.491882
v -239.380585 26.073307 -335.491882
v -239.025757 26.792223 -335.150452
v -239.025757 26.073307 -335.150452
v -239.726746 26.792223 -335.132080
v -239.726746 26.073307 -335.132080
v -239.030121 26.426168 -335.504944
v -239.021301 26.429596 -334.786072
v -239.731232 26.435932 -335.496399
v -239.722443 26.439360 -334.777527
v -246.976227 29.115839 -414.210205
v -246.976227 28.396921 -414.210205
v -246.971191 29.115839 -413.508972
v -246.971191 28.396921 -413.508972
v -247.324280 29.115839 -413.852234
v -247.324280 28.396921 -413.852234
v -246.623169 29.115839 -413.867004
v -246.623169 28.396921 -413.867004
v -247.321716 28.749784 -413.497681
v -247.326874 28.753210 -414.216553
v -246.620575 28.759548 -413.502686
v -246.625732 28.762976 -414.221558
v -225.721924 28.412683 -436.436890
v -225.721924 27.693768 -436.436890
v -226.422180 28.412683 -436.399597
v -226.422180 27.693768 -436.399597
v -226.095551 28.412683 -436.768066
v -226.095551 27.693768 -436.768066
v -226.048492 28.412683 -436.068481
v -226.048492 27.693768 -436.068481
v -226.449585 28.046631 -436.749207
v -225.731689 28.050058 -436.787476
v -226.412354 28.056395 -436.049072
v -225.694458 28.059820 -436.087280
v -198.984039 28.868443 -423.435730
v -198.984039 28.149527 -423.435730
v -199.529022 28.868443 -423.877014
v -199.529022 28.149527 -423.877014
v -199.039703 28.868443 -423.931885
v -199.039703 28.149527 -423.931885
v -199.473389 28.868443 -423.380798
v -199.473389 28.149527 -423.380798
v -199.315247 28.502390 -424.155029
v -198.756531 28.505817 -423.702637
v -199.756531 28.512156 -423.610107
v -199.197845 28.515579 -423.157654
v -49.261822 18.051933 -334.286743
v -49.261822 17.333019 -334.286743
v -49.909538 18.051933 -334.555298
v -49.909538 17.333019 -334.555298
v -49.455860 18.051933 -334.746765
v -49.455860 17.333019 -334.746765
v -49.715420 18.051933 -334.095276
v -49.715420 17.333019 -334.095276
v -49.783382 17.685879 -334.882568
v -49.119286 17.689306 -334.607239
v -50.051991 17.695644 -334.234924
v -49.387897 17.699068 -333.959473
v 441.451477 16.801481 -490.493652
v 441.451477 16.082567 -490.493652
v 440.905853 16.801481 -490.053223
v 440.905853 16.082567 -490.053223
v 440.954712 16.801481 -490.543213
v 440.954712 16.082567 -490.543213
v 441.402710 16.801481 -490.003784
v 441.402710 16.082567 -490.003784
v 440.678772 16.435432 -490.320496
v 441.238190 16.438858 -490.772095
v 441.119171 16.445196 -489.774902
v 441.678650 16.448622 -490.226379
v 469.665314 15.063708 -510.024475
v 469.665314 14.344793 -510.024475
v 469.050568 15.063708 -509.687073
v 469.050568 14.344793 -509.687073
v 469.184967 15.063708 -510.160706
v 469.184967 14.344793 -510.160706
v 469.530914 15.063708 -509.550659
v 469.530914 14.344793 -509.550659
v 468.874207 14.697654 -509.990112
v 469.504333 14.701080 -510.336060
v 469.211578 14.707419 -509.375488
v 469.841766 14.710842 -509.721375
v 503.405151 12.171907 -511.529236
v 503.405151 11.452990 -511.529236
v 502.749390 12.171906 -511.777771
v 502.749390 11.452989 -511.777771
v 503.196991 12.171906 -511.983032
v 503.196991 11.452989 -511.983032
v 502.957581 12.171907 -511.323975
v 502.957581 11.452990 -511.323975
v 502.865448 11.805852 -512.108765
v 503.537720 11.809279 -511.853821
v 502.616913 11.815617 -511.453125
v 503.289001 11.819044 -511.198303
v 518.043945 4.251879 -387.006592
v 518.043945 3.532966 -387.006592
v 517.715271 4.251879 -386.387146
v 517.715271 3.532966 -386.387146
v 517.567383 4.251879 -386.856750
v 517.567383 3.532966 -386.856750
v 518.191406 4.251879 -386.536743
v 518.191406 3.532966 -386.536743
v 517.401184 3.885822 -386.543579
v 517.738281 3.889250 -387.178650
v 518.020630 3.895588 -386.214844
v 518.357666 3.899012 -386.849915
v 506.412689 3.978245 -345.314941
v 506.412689 3.259333 -345.314941
v 506.421417 3.978245 -344.613831
v 506.421417 3.259333 -344.613831
v 506.066742 3.978245 -344.955078
v 506.066742 3.259333 -344.955078
v 506.767761 3.978245 -344.973572
v 506.767761 3.259333 -344.973572
v 506.070923 3.612189 -344.600525
v 506.062012 3.615618 -345.319458
v 506.772095 3.621957 -344.609192
v 506.763214 3.625380 -345.328125
v 543.839417 5.527098 -208.549911
v 543.839417 4.808181 -208.549911
v 544.064758 5.527098 -207.885864
v 544.064758 4.808181 -207.885864
v 543.621765 5.527098 -208.100601
v 543.621765 4.808181 -208.100601
v 544.282532 5.527098 -208.335266
v 544.282532 4.808181 -208.335266
v 543.735718 5.161044 -207.764908
v 543.504639 5.164470 -208.445633
v 544.399597 5.170805 -207.990128
v 544.168640 5.174233 -208.670898
v 540.883545 4.499000 -152.083145
v 540.883545 3.780087 -152.083145
v 540.554871 4.499000 -151.463745
v 540.554871 3.780087 -151.463745
v 540.407043 4.499000 -151.933350
v 540.407043 3.780087 -151.933350
v 541.031006 4.499000 -151.613358
v 541.031006 3.780087 -151.613358
v 540.240845 4.132943 -151.620178
v 540.577881 4.136371 -152.255264
v 540.860229 4.142709 -151.291443
v 541.197266 4.146132 -151.926544
v 263.586853 5.527114 10.568178
v 263.586853 4.808198 10.568178
v 262.886536 5.527114 10.603561
v 262.886536 4.808198 10.603561
v 263.214264 5.527114 10.236034
v 263.214264 4.808198 10.236034
v 263.259521 5.527114 10.935814
v 263.259521 4.808198 10.935814
v 262.860229 5.161061 10.253918
v 263.578247 5.164487 10.217552
v 262.895569 5.170822 10.954050
v 263.613556 5.174250 10.917850
v 173.301849 5.631711 -9.928129
v 173.301849 4.912798 -9.928129
v 172.600677 5.631711 -9.930820
v 172.600677 4.912798 -9.930820
v 172.947540 5.631711 -10.280119
v 172.947540 4.912798 -10.280119
v 172.954620 5.631711 -9.578919
v 172.954620 4.912798 -9.578919
v 172.593018 5.265654 -10.281513
v 173.312012 5.269082 -10.278685
v 172.590240 5.275420 -9.580289
v 173.309204 5.278844 -9.577458
v 132.808838 5.972732 -9.600098
v 132.808838 5.253819 -9.600098
v 132.107666 5.972732 -9.602788
v 132.107666 5.253819 -9.602788
v 132.454559 5.972732 -9.952087
v 132.454559 5.253819 -9.952087
v 132.461670 5.972733 -9.250889
v 132.461670 5.253819 -9.250889
v 132.100006 5.606675 -9.953481
v 132.819000 5.610103 -9.950653
v 132.097260 5.616440 -9.252257
v 132.816223 5.619865 -9.249430
v 62.590015 6.012715 -9.796370
v 62.590015 5.293802 -9.796370
v 61.888836 6.012715 -9.799060
v 61.888836 5.293802 -9.799060
v 62.235821 6.012715 -10.148359
v 62.235821 5.293802 -10.148359
v 62.242908 6.012715 -9.447161
v 62.242908 5.293803 -9.447161
v 61.881264 5.646658 -10.149750
v 62.600269 5.650086 -10.146923
v 61.878502 5.656425 -9.448526
v 62.597424 5.659849 -9.445699
v -8.275967 5.402072 -9.837790
v -8.275967 4.683160 -9.837790
v -8.977147 5.402072 -9.840482
v -8.977147 4.683160 -9.840482
v -8.630201 5.402072 -10.189781
v -8.630201 4.683160 -10.189781
v -8.623113 5.402072 -9.488582
v -8.623113 4.683160 -9.488582
v -8.984757 5.036015 -10.191174
v -8.265754 5.039443 -10.188347
v -8.987520 5.045781 -9.489951
v -8.268598 5.049205 -9.487123
v -66.940559 6.017695 -9.801099
v -66.940559 5.298783 -9.801099
v -67.641747 6.017695 -9.803789
v -67.641747 5.298783 -9.803789
v -67.294754 6.017695 -10.153091
v -67.294754 5.298783 -10.153091
v -67.287666 6.017695 -9.451893
v -67.287666 5.298783 -9.451893
v -67.649330 5.651638 -10.154482
v -66.930328 5.655066 -10.151655
v -67.652092 5.661405 -9.453259
v -66.933174 5.664828 -9.450431
v -275.561371 27.279051 -398.694580
v -275.561371 26.560133 -398.694580
v -275.766052 27.279051 -399.365234
v -275.766052 26.560133 -399.365234
v -275.329834 27.279051 -399.136902
v -275.329834 26.560133 -399.136902
v -275.997589 27.279051 -398.922913
v -275.997589 26.560133 -398.922913
v -275.433350 26.912996 -399.476074
v -275.223480 26.916422 -398.788452
v -276.103973 26.922760 -399.271423
v -275.894104 26.926188 -398.583801
v -317.040436 29.618931 -496.648651
v -317.040436 28.900017 -496.648651
v -316.981903 29.618931 -497.347443
v -316.981903 28.900017 -497.347443
v -316.661407 29.618931 -496.973663
v -316.661407 28.900017 -496.973663
v -317.360992 29.618931 -497.022430
v -317.360992 28.900017 -497.022430
v -316.631775 29.252880 -497.326965
v -316.691772 29.256306 -496.610565
v -317.330536 29.262644 -497.385529
v -317.390564 29.266068 -496.669067
v -316.880035 29.062679 -543.006348
v -316.880035 28.343765 -543.006348
v -316.884186 29.062677 -543.707581
v -316.884186 28.343763 -543.707581
v -316.531555 29.062677 -543.363892
v -316.531555 28.343763 -543.363892
v -317.232605 29.062677 -543.349976
v -317.232605 28.343763 -543.349976
v -316.533630 28.696625 -543.718445
v -316.529388 28.700052 -542.999573
v -317.234772 28.706388 -543.714355
v -317.230591 28.709816 -542.995422
v -305.133484 8.538203 -782.693542
v -305.133484 7.819285 -782.693542
v -305.280060 8.538203 -782.007812
v -305.280060 7.819285 -782.007812
v -305.550659 8.538203 -782.419189
v -305.550659 7.819285 -782.419189
v -304.862885 8.538203 -782.282227
v -304.862885 7.819285 -782.282227
v -305.624725 8.172148 -782.072449
v -305.474548 8.175575 -782.775513
v -304.939056 8.181914 -781.925964
v -304.788818 8.185339 -782.628967
v -283.933044 2.830644 -817.429504
v -283.933044 2.111730 -817.429504
v -284.417938 2.830644 -816.922974
v -284.417938 2.111730 -816.922974
v -284.432159 2.830644 -817.415100
v -284.432159 2.111730 -817.415100
v -283.918915 2.830644 -816.937378
v -283.918915 2.111730 -816.937378
v -284.677307 2.464591 -817.158997
v -284.180206 2.468019 -817.678345
v -284.170807 2.474355 -816.674133
v -283.673706 2.477780 -817.193420
v -127.779297 5.907637 -755.504578
v -127.779297 5.188717 -755.504578
v -127.263046 5.907637 -755.979187
v -127.263046 5.188717 -755.979187
v -127.280304 5.907637 -755.487061
v -127.280304 5.188717 -755.487061
v -127.762070 5.907637 -755.996582
v -127.762070 5.188717 -755.996582
v -127.019226 5.541582 -755.726990
v -127.548492 5.545008 -755.240479
v -127.493835 5.551346 -756.243164
v -128.023026 5.554774 -755.756653
v 65.306259 26.857368 -888.140503
v 65.306259 26.138451 -888.140503
v 66.007233 26.857368 -888.120972
v 66.007233 26.138451 -888.120972
v 65.651833 26.857368 -887.780151
v 65.651833 26.138451 -887.780151
v 65.661598 26.857368 -888.481323
v 65.661598 26.138451 -888.481323
v 66.006271 26.491314 -887.770264
v 65.287598 26.494741 -887.790283
v 66.025795 26.501080 -888.471130
v 65.307228 26.504505 -888.491211
v 261.920044 43.236538 -961.632080
v 261.920044 42.517620 -961.632080
v 261.219727 43.236538 -961.667480
v 261.219727 42.517620 -961.667480
v 261.582733 43.236538 -962.000183
v 261.582733 42.517620 -962.000183
v 261.557037 43.236538 -961.299377
v 261.557037 42.517620 -961.299377
v 261.228638 42.870487 -962.018127
v 261.946625 42.873913 -961.981750
v 261.193176 42.880249 -961.317810
v 261.911194 42.883671 -961.281433
v 285.853699 42.356056 -958.976379
v 285.853699 41.637138 -958.976379
v 285.163666 42.356056 -959.101318
v 285.163666 41.637138 -959.101318
v 285.566345 42.356056 -959.384705
v 285.566345 41.637138 -959.384705
v 285.451111 42.356056 -958.692993
v 285.451111 41.637138 -958.692993
v 285.217468 41.990002 -959.447876
v 285.924927 41.993427 -959.319824
v 285.092560 41.999767 -958.757812
v 285.799896 42.003193 -958.629822
v 502.906097 38.686493 -816.222778
v 502.906097 37.967575 -816.222778
v 503.397064 38.686493 -815.722046
v 503.397064 37.967575 -815.722046
v 502.904572 38.686493 -815.723511
v 502.904572 37.967575 -815.723511
v 503.398346 38.686493 -816.221436
v 503.398346 37.967575 -816.221436
v 503.152863 38.320438 -815.470276
v 502.649506 38.323864 -815.983643
v 503.653503 38.330200 -815.961243
v 503.150177 38.333630 -816.474487
v 499.800903 38.464176 -802.331970
v 499.800903 37.745255 -802.331970
v 499.207855 38.464176 -801.957764
v 499.207855 37.745255 -801.957764
v 499.313232 38.464176 -802.438782
v 499.313232 37.745255 -802.438782
v 499.695740 38.464176 -801.851074
v 499.695740 37.745255 -801.851074
v 499.013306 38.098122 -802.249573
v 499.621307 38.101547 -802.633240
v 499.387573 38.107883 -801.656616
v 499.995483 38.111313 -802.040283
v 322.750183 35.654995 -713.919556
v 322.750183 34.936073 -713.919556
v 323.374084 35.654995 -714.239746
v 323.374084 34.936073 -714.239746
v 323.226532 35.654995 -713.769836
v 323.226532 34.936073 -713.769836
v 322.897583 35.654995 -714.389160
v 322.897583 34.936073 -714.389160
v 323.542053 35.288940 -713.931885
v 322.902466 35.292366 -713.603516
v 323.221802 35.298702 -714.555603
v 322.582245 35.302132 -714.227295
v 186.788696 27.076750 -604.973999
v 186.788696 26.357828 -604.973999
v 186.335876 27.076750 -604.438599
v 186.335876 26.357828 -604.438599
v 186.291443 27.076750 -604.929321
v 186.291443 26.357828 -604.929321
v 186.833160 27.076750 -604.483948
v 186.833160 26.357828 -604.483948
v 186.062332 26.710690 -604.658447
v 186.526642 26.714113 -605.207336
v 186.597733 26.720451 -604.205627
v 187.061966 26.723881 -604.754517
v 181.484818 22.536549 -516.886353
v 181.484818 21.817629 -516.886353
v 181.762375 22.536549 -516.242432
v 181.762375 21.817629 -516.242432
v 181.303162 22.536549 -516.421387
v 181.303162 21.817629 -516.421387
v 181.943283 22.536549 -516.707886
v 181.943283 21.817629 -516.707886
v 181.443604 22.170492 -516.095581
v 181.159058 22.173916 -516.755859
v 182.087524 22.180256 -516.373169
v 181.803009 22.183683 -517.033325
v 214.944901 21.014193 -475.850555
v 214.944901 20.295273 -475.850555
v 215.513428 21.014193 -475.440155
v 215.513428 20.295273 -475.440155
v 215.027512 21.014193 -475.358185
v 215.027512 20.295273 -475.358185
v 215.430069 21.014193 -475.932526
v 215.430069 20.295273 -475.932526
v 215.315170 20.648136 -475.150635
v 214.732224 20.651560 -475.571533
v 215.725555 20.657898 -475.719208
v 215.142731 20.661327 -476.140015
v 312.030518 21.873276 -438.593994
v 312.030518 21.154358 -438.593994
v 312.731445 21.873276 -438.614624
v 312.731445 21.154358 -438.614624
v 312.396301 21.873276 -438.254089
v 312.396301 21.154358 -438.254089
v 312.365784 21.873276 -438.954651
v 312.365784 21.154358 -438.954651
v 312.750580 21.507221 -438.264587
v 312.032013 21.510647 -438.243286
v 312.730011 21.516985 -438.965332
v 312.011444 21.520412 -438.944214
v -223.025604 9.917555 -12.193730
v -223.025604 9.198639 -12.193730
v -222.355499 9.917555 -11.987142
v -222.355499 9.198639 -11.987142
v -222.789185 9.917555 -11.753970
v -222.789185 9.198639 -11.753970
v -222.591980 9.917555 -12.426906
v -222.591980 9.198639 -12.426906
v -222.450378 9.551502 -11.649518
v -223.137360 9.554928 -11.861318
v -222.243744 9.561267 -12.319558
v -222.930756 9.564691 -12.531350
vn -0.6918 -0.0000 0.7221
vn 0.7317 -0.0000 0.6816
vn 0.0062 -0.9999 -0.0134
vn 0.0062 -0.9999 -0.0133
vn -0.9172 -0.0000 0.3984
vn 0.4111 -0.0000 0.9116
vn 0.0109 -0.9999 -0.0099
vn -0.9993 -0.0000 0.0376
vn 0.0516 -0.0000 0.9987
vn 0.0515 -0.0000 0.9987
vn 0.0137 -0.9999 -0.0053
vn -0.8045 -0.0000 -0.5939
vn -0.5826 -0.0000 0.8127
vn 0.0140 -0.9999 0.0044
vn 0.9101 -0.0000 0.4145
vn 0.9100 -0.0000 0.4145
vn 0.4018 -0.0000 -0.9157
vn 0.4019 -0.0000 -0.9157
vn -0.0146 -0.9999 -0.0014
vn 0.9999 -0.0000 -0.0123
vn -0.0262 -0.0000 -0.9997
vn -0.0139 -0.9999 0.0049
vn -1.0000 -0.0000 0.0072
vn 0.0211 -0.0000 0.9998
vn 0.0139 -0.9999 -0.0049
vn -0.0533 -0.0000 -0.9986
vn -0.0532 -0.0000 -0.9986
vn -0.0531 -0.0000 -0.9986
vn -0.9977 -0.0000 0.0671
vn 0.0055 -0.9999 0.0136
vn 0.0055 -0.9999 0.0137
vn 0.6293 -0.0000 -0.7772
vn 0.6292 -0.0000 -0.7772
vn -0.7858 -0.0000 -0.6184
vn -0.0051 -0.9999 0.0138
vn 0.3830 -0.0000 -0.9237
vn 0.3830 -0.0000 -0.9238
vn -0.9290 -0.0000 -0.3701
vn -0.0009 -0.9999 0.0147
vn -0.6281 -0.0000 -0.7781
vn -0.6281 -0.0000 -0.7782
vn -0.7693 -0.0000 0.6389
vn 0.0125 -0.9999 0.0078
vn 0.0124 -0.9999 0.0078
vn -0.4811 -0.0000 -0.8767
vn -0.4812 -0.0000 -0.8766
vn -0.8699 -0.0000 0.4933
vn 0.0109 -0.9999 0.0099
vn 0.3544 -0.0000 -0.9351
vn 0.3545 -0.0000 -0.9351
vn -0.9399 -0.0000 -0.3414
vn -0.9399 -0.0000 -0.3415
vn -0.0005 -0.9999 0.0147
vn -0.8833 -0.0000 -0.4687
vn -0.4563 -0.0000 0.8898
vn 0.0145 -0.9999 0.0023
vn -0.9999 -0.0000 0.0124
vn 0.0264 -0.0000 0.9997
vn 0.0263 -0.0000 0.9997
vn -0.9470 -0.0000 0.3214
vn 0.3347 -0.0000 0.9423
vn 0.0117 -0.9999 -0.0090
vn -0.0505 -0.0000 -0.9987
vn -0.9979 -0.0000 0.0645
vn 0.0038 -0.0000 -1.0000
vn -0.9999 -0.0000 0.0101
vn 0.0047 -0.9999 0.0139
vn 0.9564 -0.0000 -0.2919
vn 0.9565 -0.0000 -0.2919
vn -0.3052 -0.0000 -0.9523
vn -0.3051 -0.0000 -0.9523
vn -0.0119 -0.9999 0.0086
vn 0.9965 -0.0000 0.0835
vn 0.0695 -0.0000 -0.9976
vn 0.0696 -0.0000 -0.9976
vn -0.0143 -0.9999 0.0036
vn 1.0000 -0.0000 -0.0059
vn -0.0199 -0.0000 -0.9998
vn -0.0139 -0.9999 0.0048
vn -0.9779 -0.0000 -0.2091
vn -0.9779 -0.0000 -0.2090
vn -0.1952 -0.0000 0.9808
vn -0.1953 -0.0000 0.9807
vn -0.1954 -0.0000 0.9807
vn 0.0146 -0.9999 -0.0018
vn 0.0146 -0.9999 -0.0017
vn -0.7222 -0.0000 -0.6916
vn -0.7224 -0.0000 -0.6915
vn -0.7223 -0.0000 -0.6915
vn -0.7225 -0.0000 -0.6914
vn -0.6813 -0.0000 0.7320
vn -0.6814 -0.0000 0.7319
vn 0.0134 -0.9999 0.0062
vn 0.0133 -0.9999 0.0062
vn 0.6768 -0.0000 0.7362
vn 0.7266 -0.0000 -0.6870
vn 0.7266 -0.0000 -0.6871
vn 0.7265 -0.0000 -0.6871
vn -0.0129 -0.9999 -0.0070
vn -0.0278 -0.0000 0.9996
vn 0.9999 -0.0000 0.0139
vn -0.0044 -0.9999 -0.0141
vn -0.0044 -0.9999 -0.0140
vn 0.0504 -0.0000 -0.9987
vn 0.0505 -0.0000 -0.9987
vn 0.0506 -0.0000 -0.9987
vn -0.9993 -0.0000 -0.0366
vn 0.0041 -0.9999 0.0141
vn 0.0040 -0.9999 0.0141
vn 0.1780 -0.0000 -0.9840
vn 0.1782 -0.0000 -0.9840
vn 0.1784 -0.0000 -0.9840
vn -0.9864 -0.0000 -0.1643
vn -0.9864 -0.0000 -0.1644
vn 0.0022 -0.9999 0.0145
vn 0.0022 -0.9999 0.0146
vn -0.7140 -0.0000 0.7001
vn 0.7101 -0.0000 0.7041
vn 0.7100 -0.0000 0.7042
vn 0.0066 -0.9999 -0.0132
vn -0.5337 -0.0000 -0.8457
vn -0.8382 -0.0000 0.5454
vn -0.8381 -0.0000 0.5455
vn 0.0115 -0.9999 0.0092
vn 0.4564 -0.0000 0.8898
vn 0.4565 -0.0000 0.8897
vn 0.4566 -0.0000 0.8896
vn 0.8831 -0.0000 -0.4691
vn 0.8832 -0.0000 -0.4691
vn 0.8832 -0.0000 -0.4690
vn -0.0106 -0.9999 -0.0102
vn -0.7636 -0.0000 -0.6457
vn -0.7635 -0.0000 -0.6458
vn -0.6350 -0.0000 0.7725
vn -0.6351 -0.0000 0.7724
vn -0.6351 -0.0000 0.7725
vn 0.0137 -0.9999 0.0054
vn -0.9183 -0.0000 0.3958
vn 0.4086 -0.0000 0.9127
vn 0.4085 -0.0000 0.9128
vn -0.5853 -0.0000 0.8108
vn 0.8189 -0.0000 0.5740
vn 0.0043 -0.9999 -0.0141
vn 0.0294 -0.0000 0.9996
vn 0.9991 -0.0000 -0.0435
vn -0.0052 -0.9999 -0.0138
vn -0.2946 -0.0000 0.9556
vn 0.9596 -0.0000 0.2812
vn -0.0005 -0.9999 -0.0147
vn -0.0004 -0.9999 -0.0147
vt 0.000000 2.000000
vt 0.000000 1.000000
vt 1.000000 2.000000
vt 1.000000 1.000000
s 1
usemtl BLUBGLO.041
f 1/1/1 2/2/1 3/3/1
f 4/4/1 3/3/1 2/2/1
f 5/1/2 6/2/2 7/3/2
f 8/4/2 7/3/2 6/2/2
f 9/1/3 10/2/3 11/3/3
f 12/4/4 11/3/3 10/2/3
f 13/1/5 14/2/5 15/3/5
f 16/4/5 15/3/5 14/2/5
f 17/1/6 18/2/6 19/3/6
f 20/4/6 19/3/6 18/2/6
f 21/1/7 22/2/7 23/3/7
f 24/4/7 23/3/7 22/2/7
f 25/1/8 26/2/8 27/3/8
f 28/4/8 27/3/8 26/2/8
f 29/1/9 30/2/9 31/3/9
f 32/4/10 31/3/9 30/2/9
f 33/1/11 34/2/11 35/3/11
f 36/4/11 35/3/11 34/2/11
f 37/1/12 38/2/12 39/3/12
f 40/4/12 39/3/12 38/2/12
f 41/1/13 42/2/13 43/3/13
f 44/4/13 43/3/13 42/2/13
f 45/1/14 46/2/14 47/3/14
f 48/4/14 47/3/14 46/2/14
f 49/1/15 50/2/16 51/3/16
f 52/4/16 51/3/16 50/2/16
f 53/1/17 54/2/18 55/3/18
f 56/4/18 55/3/18 54/2/18
f 57/1/19 58/2/19 59/3/19
f 60/4/19 59/3/19 58/2/19
f 61/1/20 62/2/20 63/3/20
f 64/4/20 63/3/20 62/2/20
f 65/1/21 66/2/21 67/3/21
f 68/4/21 67/3/21 66/2/21
f 69/1/22 70/2/22 71/3/22
f 72/4/22 71/3/22 70/2/22
f 73/1/23 74/2/23 75/3/23
f 76/4/23 75/3/23 74/2/23
f 77/1/24 78/2/24 79/3/24
f 80/4/24 79/3/24 78/2/24
f 81/1/25 82/2/25 83/3/25
f 84/4/25 83/3/25 82/2/25
f 85/1/26 86/2/27 87/3/27
f 88/4/28 87/3/27 86/2/27
f 89/1/29 90/2/29 91/3/29
f 92/4/29 91/3/29 90/2/29
f 93/1/30 94/2/30 95/3/30
f 96/4/31 95/3/30 94/2/30
f 97/1/32 98/2/32 99/3/32
f 100/4/33 99/3/32 98/2/32
f 101/1/34 102/2/34 103/3/34
f 104/4/34 103/3/34 102/2/34
f 105/1/35 106/2/35 107/3/35
f 108/4/35 107/3/35 106/2/35
f 109/1/36 110/2/36 111/3/36
f 112/4/37 111/3/36 110/2/36
f 113/1/38 114/2/38 115/3/38
f 116/4/38 115/3/38 114/2/38
f 117/1/39 118/2/39 119/3/39
f 120/4/39 119/3/39 118/2/39
f 121/1/40 122/2/40 123/3/40
f 124/4/41 123/3/40 122/2/40
f 125/1/42 126/2/42 127/3/42
f 128/4/42 127/3/42 126/2/42
f 129/1/43 130/2/43 131/3/43
f 132/4/44 131/3/43 130/2/43
f 133/1/45 134/2/46 135/3/46
f 136/4/46 135/3/46 134/2/46
f 137/1/47 138/2/47 139/3/47
f 140/4/47 139/3/47 138/2/47
f 141/1/48 142/2/48 143/3/48
f 144/4/48 143/3/48 142/2/48
f 145/1/49 146/2/49 147/3/49
f 148/4/50 147/3/49 146/2/49
f 149/1/51 150/2/51 151/3/51
f 152/4/52 151/3/51 150/2/51
f 153/1/53 154/2/53 155/3/53
f 156/4/53 155/3/53 154/2/53
f 157/1/54 158/2/54 159/3/54
f 160/4/54 159/3/54 158/2/54
f 161/1/55 162/2/55 163/3/55
f 164/4/55 163/3/55 162/2/55
f 165/1/56 166/2/56 167/3/56
f 168/4/56 167/3/56 166/2/56
f 169/1/57 170/2/57 171/3/57
f 172/4/57 171/3/57 170/2/57
f 173/1/58 174/2/58 175/3/58
f 176/4/59 175/3/58 174/2/58
f 177/1/25 178/2/25 179/3/25
f 180/4/25 179/3/25 178/2/25
f 181/1/60 182/2/60 183/3/60
f 184/4/60 183/3/60 182/2/60
f 185/1/61 186/2/61 187/3/61
f 188/4/61 187/3/61 186/2/61
f 189/1/62 190/2/62 191/3/62
f 192/4/62 191/3/62 190/2/62
f 193/1/54 194/2/54 195/3/54
f 196/4/54 195/3/54 194/2/54
f 197/1/55 198/2/55 199/3/55
f 200/4/55 199/3/55 198/2/55
f 201/1/56 202/2/56 203/3/56
f 204/4/56 203/3/56 202/2/56
f 205/1/63 206/2/63 207/3/63
f 208/4/63 207/3/63 206/2/63
f 209/1/64 210/2/64 211/3/64
f 212/4/64 211/3/64 210/2/64
f 213/1/31 214/2/31 215/3/31
f 216/4/31 215/3/31 214/2/31
f 217/1/65 218/2/65 219/3/65
f 220/4/65 219/3/65 218/2/65
f 221/1/66 222/2/66 223/3/66
f 224/4/66 223/3/66 222/2/66
f 225/1/67 226/2/67 227/3/67
f 228/4/67 227/3/67 226/2/67
f 229/1/65 230/2/65 231/3/65
f 232/4/65 231/3/65 230/2/65
f 233/1/66 234/2/66 235/3/66
f 236/4/66 235/3/66 234/2/66
f 237/1/67 238/2/67 239/3/67
f 240/4/67 239/3/67 238/2/67
f 241/1/65 242/2/65 243/3/65
f 244/4/65 243/3/65 242/2/65
f 245/1/66 246/2/66 247/3/66
f 248/4/66 247/3/66 246/2/66
f 249/1/67 250/2/67 251/3/67
f 252/4/67 251/3/67 250/2/67
f 253/1/65 254/2/65 255/3/65
f 256/4/65 255/3/65 254/2/65
f 257/1/66 258/2/66 259/3/66
f 260/4/66 259/3/66 258/2/66
f 261/1/67 262/2/67 263/3/67
f 264/4/67 263/3/67 262/2/67
f 265/1/65 266/2/65 267/3/65
f 268/4/65 267/3/65 266/2/65
f 269/1/66 270/2/66 271/3/66
f 272/4/66 271/3/66 270/2/66
f 273/1/67 274/2/67 275/3/67
f 276/4/67 275/3/67 274/2/67
f 277/1/68 278/2/68 279/3/68
f 280/4/69 279/3/68 278/2/68
f 281/1/70 282/2/70 283/3/70
f 284/4/71 283/3/70 282/2/70
f 285/1/72 286/2/72 287/3/72
f 288/4/72 287/3/72 286/2/72
f 289/1/73 290/2/73 291/3/73
f 292/4/73 291/3/73 290/2/73
f 293/1/74 294/2/75 295/3/74
f 296/4/75 295/3/74 294/2/75
f 297/1/76 298/2/76 299/3/76
f 300/4/76 299/3/76 298/2/76
f 301/1/77 302/2/77 303/3/77
f 304/4/77 303/3/77 302/2/77
f 305/1/78 306/2/78 307/3/78
f 308/4/78 307/3/78 306/2/78
f 309/1/79 310/2/79 311/3/79
f 312/4/79 311/3/79 310/2/79
f 313/1/80 314/2/81 315/3/81
f 316/4/81 315/3/81 314/2/81
f 317/1/82 318/2/83 319/3/83
f 320/4/84 319/3/83 318/2/83
f 321/1/85 322/2/85 323/3/85
f 324/4/86 323/3/85 322/2/85
f 325/1/87 326/2/88 327/3/89
f 328/4/90 327/3/89 326/2/88
f 329/1/91 330/2/91 331/3/91
f 332/4/92 331/3/91 330/2/91
f 333/1/93 334/2/93 335/3/93
f 336/4/94 335/3/93 334/2/93
f 337/1/95 338/2/95 339/3/95
f 340/4/95 339/3/95 338/2/95
f 341/1/96 342/2/97 343/3/97
f 344/4/98 343/3/97 342/2/97
f 345/1/99 346/2/99 347/3/99
f 348/4/99 347/3/99 346/2/99
f 349/1/100 350/2/100 351/3/100
f 352/4/100 351/3/100 350/2/100
f 353/1/101 354/2/101 355/3/101
f 356/4/101 355/3/101 354/2/101
f 357/1/102 358/2/102 359/3/102
f 360/4/103 359/3/102 358/2/102
f 361/1/104 362/2/105 363/3/105
f 364/4/106 363/3/105 362/2/105
f 365/1/107 366/2/107 367/3/107
f 368/4/107 367/3/107 366/2/107
f 369/1/108 370/2/108 371/3/108
f 372/4/109 371/3/108 370/2/108
f 373/1/110 374/2/111 375/3/111
f 376/4/112 375/3/111 374/2/111
f 377/1/113 378/2/113 379/3/113
f 380/4/114 379/3/113 378/2/113
f 381/1/115 382/2/116 383/3/115
f 384/4/116 383/3/115 382/2/116
f 385/1/117 386/2/117 387/3/117
f 388/4/117 387/3/117 386/2/117
f 389/1/118 390/2/118 391/3/118
f 392/4/119 391/3/118 390/2/118
f 393/1/120 394/2/120 395/3/120
f 396/4/120 395/3/120 394/2/120
f 397/1/121 398/2/121 399/3/121
f 400/4/121 399/3/121 398/2/121
f 401/1/122 402/2/123 403/3/123
f 404/4/123 403/3/123 402/2/123
f 405/1/124 406/2/124 407/3/124
f 408/4/124 407/3/124 406/2/124
f 409/1/125 410/2/126 411/3/126
f 412/4/127 411/3/126 410/2/126
f 413/1/128 414/2/129 415/3/129
f 416/4/130 415/3/129 414/2/129
f 417/1/131 418/2/131 419/3/131
f 420/4/131 419/3/131 418/2/131
f 421/1/132 422/2/133 423/3/133
f 424/4/133 423/3/133 422/2/133
f 425/1/134 426/2/135 427/3/136
f 428/4/135 427/3/136 426/2/135
f 429/1/137 430/2/137 431/3/137
f 432/4/137 431/3/137 430/2/137
f 433/1/138 434/2/138 435/3/138
f 436/4/138 435/3/138 434/2/138
f 437/1/139 438/2/140 439/3/140
f 440/4/140 439/3/140 438/2/140
f 441/1/7 442/2/7 443/3/7
f 444/4/7 443/3/7 442/2/7
f 445/1/141 446/2/141 447/3/141
f 448/4/141 447/3/141 446/2/141
f 449/1/142 450/2/142 451/3/142
f 452/4/142 451/3/142 450/2/142
f 453/1/143 454/2/143 455/3/143
f 456/4/143 455/3/143 454/2/143
f 457/1/144 458/2/144 459/3/144
f 460/4/144 459/3/144 458/2/144
f 461/1/145 462/2/145 463/3/145
f 464/4/145 463/3/145 462/2/145
f 465/1/146 466/2/146 467/3/146
f 468/4/146 467/3/146 466/2/146
f 469/1/147 470/2/147 471/3/147
f 472/4/147 471/3/147 470/2/147
f 473/1/148 474/2/148 475/3/148
f 476/4/148 475/3/148 474/2/148
f 477/1/149 478/2/150 479/3/150
f 480/4/150 479/3/150 478/2/150
