# Blender 4.4.3
# www.blender.org
mtllib CEILINGA.mtl
o CEILINGA
v -35.840424 4.990381 -20.210651
v -35.840416 4.990381 -30.583403
v 23.560211 4.990384 -20.210663
v 23.560211 4.990382 -30.583412
v 28.682344 4.990381 -20.210651
v 28.682344 4.990381 -30.583403
v 88.082977 4.990384 -20.210663
v 88.082977 4.990382 -30.583412
v 93.712830 4.990381 -20.210651
v 93.712830 4.990381 -30.583403
v 153.113464 4.990384 -20.210663
v 153.113464 4.990382 -30.583412
v 265.589600 21.526070 -412.055634
v 274.887238 21.526068 -417.882843
v 280.302582 21.526070 -409.242371
v 271.004944 21.526070 -403.415161
v 265.589600 19.426071 -412.055634
v 274.887238 19.426069 -417.882843
v 280.302582 19.426071 -409.242371
v 271.004944 19.426071 -403.415161
vn -0.0000 -1.0000 -0.0000
vt 0.004995 1.999500
vt 0.004995 1.000499
vt 9.995004 1.999500
vt 9.995005 1.000499
vt 0.001498 1.000999
vt 0.001499 2.999001
vt 2.998501 2.999001
vt 2.998500 1.000999
s 1
usemtl CEILINGA.002
f 1/1/1 2/2/1 3/3/1
f 4/4/1 3/3/1 2/2/1
f 5/1/1 6/2/1 7/3/1
f 8/4/1 7/3/1 6/2/1
f 9/1/1 10/2/1 11/3/1
f 12/4/1 11/3/1 10/2/1
f 13/5/1 14/6/1 15/7/1
f 15/7/1 16/8/1 13/5/1
f 17/5/1 18/6/1 19/7/1
f 19/7/1 20/8/1 17/5/1
