# Blender 4.4.3
# www.blender.org
mtllib CEMSTAIRS.mtl
o CEMSTAIRS
v 382.825714 13.833369 -436.071472
v 384.187927 14.746001 -434.196899
v 390.390411 13.833369 -441.507599
v 374.530731 13.833369 -430.110504
v 375.885223 14.750389 -428.216675
v 381.930481 13.833370 -435.428131
v 391.755310 14.742001 -439.647491
v 383.290649 14.746475 -433.550629
v 396.111389 17.641840 -433.711029
v 388.510223 17.641838 -428.248688
v 387.603638 17.641838 -427.597198
v 380.156067 17.641838 -422.245209
v 432.559113 12.738002 -471.405029
v 433.921326 13.650633 -469.530457
v 440.123810 12.738001 -476.841156
v 424.264130 12.738001 -465.444061
v 425.618622 13.655021 -463.550232
v 431.663879 12.738002 -470.761688
v 441.488708 13.646632 -474.981049
v 433.024048 13.651107 -468.884186
v 445.844788 16.546471 -469.044586
v 438.243622 16.546471 -463.582245
v 437.337036 16.546471 -462.930756
v 429.889465 16.546471 -457.578766
v 535.524658 -2.375488 -285.672577
v 537.743164 -1.462857 -286.342010
v 532.880737 -2.375488 -294.604858
v 538.423889 -2.375488 -275.877960
v 540.657959 -1.458468 -276.533783
v 535.837585 -2.375488 -284.615479
v 535.086426 -1.466857 -295.281616
v 538.058167 -1.462383 -285.282043
v 542.125732 1.432982 -297.441437
v 544.782410 1.432981 -288.466125
v 545.099304 1.432981 -287.395630
v 547.702332 1.432980 -278.601624
v 542.594543 -2.414983 -260.655182
v 544.813049 -1.502351 -261.324615
v 539.950623 -2.414983 -269.587463
v 545.493774 -2.414982 -250.860565
v 547.727844 -1.497963 -251.516373
v 542.907471 -2.414983 -259.598083
v 542.156311 -1.506351 -270.264221
v 545.128052 -1.501878 -260.264648
v 549.195618 1.393486 -272.424042
v 551.852295 1.393486 -263.448730
v 552.169189 1.393486 -262.378235
v 554.772217 1.393485 -253.584229
v 554.916931 -2.414979 -205.450058
v 557.135437 -1.502347 -206.119476
v 552.273010 -2.414979 -214.382324
v 557.816162 -2.414978 -195.655441
v 560.050232 -1.497959 -196.311249
v 555.229858 -2.414979 -204.392975
v 554.478699 -1.506347 -215.059097
v 557.450439 -1.501873 -205.059525
v 561.518005 1.393491 -217.218933
v 564.174683 1.393490 -208.243591
v 564.491577 1.393490 -207.173096
v 567.094604 1.393489 -198.379105
v -280.409149 20.940853 -286.328064
v -282.726379 21.853485 -286.318817
v -280.421204 20.940853 -277.012726
v -280.395935 20.940851 -296.542755
v -280.407715 20.940853 -287.430481
v -282.728302 21.849485 -276.992798
v -282.726166 21.853958 -287.424591
v -290.091217 24.749323 -276.929230
v -290.079102 24.749321 -286.289520
v -290.077667 24.749321 -287.405914
v -290.065796 24.749319 -296.577057
v -282.724274 21.857868 -296.550995
v -280.853943 20.940851 -312.284180
v -283.171173 21.853483 -312.274933
v -280.865997 20.940851 -302.968842
v -280.840729 20.940849 -322.498871
v -280.852509 20.940851 -313.386597
v -283.173096 21.849483 -302.948914
v -283.170959 21.853956 -313.380707
v -290.536011 24.749321 -302.885345
v -290.523895 24.749319 -312.245636
v -290.522461 24.749319 -313.362030
v -290.510590 24.749317 -322.533173
v -283.169067 21.857866 -322.507111
v -280.662842 20.940845 -368.749878
v -282.980072 21.853477 -368.740631
v -280.674896 20.940847 -359.434540
v -280.649628 20.940845 -378.964569
v -282.977966 21.857864 -378.972809
v -280.661407 20.940845 -369.852295
v -282.981995 21.849480 -359.414612
v -282.979858 21.853951 -369.846405
v -290.344910 24.749317 -359.351044
v -290.332794 24.749313 -368.711334
v -290.331360 24.749313 -369.827728
v -290.319489 24.749313 -378.998871
v 387.811676 -2.414961 22.807301
v 387.820923 -1.502330 25.124537
v 397.127014 -2.414961 22.819355
v 377.596985 -2.414962 22.794090
v 377.588745 -1.497942 25.122440
v 386.709259 -2.414961 22.805878
v 397.146942 -1.506330 25.126446
v 386.715149 -1.501856 25.124310
v 397.210510 1.393510 32.489372
v 387.850220 1.393509 32.477264
v 386.733826 1.393509 32.475822
v 377.562683 1.393507 32.463955
v 361.853851 -2.414961 23.132648
v 361.863098 -1.502330 25.449884
v 371.169189 -2.414961 23.144703
v 351.639160 -2.414962 23.119438
v 351.630920 -1.497942 25.447788
v 360.751434 -2.414961 23.131226
v 371.189117 -1.506330 25.451794
v 360.757324 -1.501856 25.449657
v 371.252686 1.393510 32.814720
v 361.892395 1.393509 32.802612
v 360.776001 1.393509 32.801170
v 351.604858 1.393507 32.789303
v 305.404022 -2.414962 19.545959
v 305.413269 -1.502330 21.863195
v 314.719360 -2.414962 19.558014
v 295.189331 -2.414963 19.532749
v 295.181091 -1.497942 21.861099
v 304.301605 -2.414962 19.544537
v 314.739288 -1.506330 21.865105
v 304.307495 -1.501856 21.862968
v 314.802856 1.393509 29.228031
v 305.442566 1.393508 29.215925
v 304.326172 1.393508 29.214479
v 295.155029 1.393506 29.202614
v -166.879883 0.027388 22.966269
v -166.870636 0.940019 25.283504
v -157.564529 0.027388 22.978325
v -177.094574 0.027387 22.953058
v -167.982315 0.027388 22.964844
v -157.544617 0.936019 25.285414
v -167.976410 0.940493 25.283278
v -157.481064 3.835858 32.648342
v -166.841324 3.835857 32.636234
v -167.957733 3.835857 32.634789
v -177.128876 3.835855 32.622925
v -177.102829 0.944405 25.281408
v -110.430054 -0.742343 19.690189
v -110.420815 0.170289 22.007425
v -101.114708 -0.742343 19.702244
v -120.644737 -0.742343 19.676979
v -120.653000 0.174677 22.005329
v -111.532478 -0.742343 19.688766
v -101.094788 0.166289 22.009335
v -111.526588 0.170763 22.007198
v -101.031235 3.066128 29.372261
v -110.391495 3.066127 29.360155
v -111.507904 3.066127 29.358709
v -120.679047 3.066125 29.346844
v -84.472229 -0.742343 19.364840
v -84.462990 0.170289 21.682076
v -75.156883 -0.742343 19.376896
v -94.686913 -0.742343 19.351629
v -94.695175 0.174677 21.679979
v -85.574654 -0.742343 19.363415
v -75.136963 0.166289 21.683985
v -85.568764 0.170763 21.681849
v -75.073410 3.066128 29.046911
v -84.433670 3.066127 29.034805
v -85.550079 3.066127 29.033360
v -94.721222 3.066125 29.021494
v 61.825222 -0.436831 19.607018
v 61.838573 0.881968 22.955540
v 75.286362 -0.436830 19.624439
v 47.064484 -0.436832 19.587929
v 60.232159 -0.436831 19.604961
v 75.315140 0.876188 22.958300
v 60.240673 0.882653 22.955212
v 75.406982 5.066600 33.598099
v 61.880932 5.066598 33.580601
v 60.267673 5.066598 33.578514
v 47.014912 5.066597 33.561367
v 47.052547 0.888306 22.952513
v 30.748142 -0.436834 19.569962
v 30.761496 0.164903 22.918480
v 46.639923 -0.436832 19.587379
v 15.987411 -0.436835 19.550873
v 29.155083 -0.436834 19.567905
v 46.668697 0.159125 22.921238
v 29.163597 0.165588 22.918154
v 46.760540 2.401129 33.028015
v 30.803856 2.401126 33.010521
v 29.190598 2.401125 33.008434
v 15.937840 2.401121 32.991287
v 15.975475 0.171239 22.915451
v 90.471649 -0.436828 19.644077
v 90.485001 0.164909 22.992596
v 106.363434 -0.436826 19.661497
v 75.710922 -0.436830 19.624989
v 88.878586 -0.436828 19.642021
v 106.392204 0.159131 22.995356
v 88.887100 0.165594 22.992271
v 106.484047 2.401136 33.102131
v 90.527359 2.401132 33.084637
v 88.914108 2.401131 33.082550
v 75.661346 2.401127 33.065403
v 75.698982 0.171246 22.989569
v -324.278290 21.065779 -519.384827
v -326.595184 21.978411 -519.345398
v -324.168884 21.065781 -510.070129
v -324.398224 21.065779 -529.598877
v -326.726501 21.982798 -529.576782
v -324.291229 21.065779 -520.487183
v -326.475525 21.974411 -510.020142
v -326.609375 21.978884 -520.451111
v -333.837006 24.874250 -509.860626
v -333.946930 24.874247 -519.220215
v -333.960022 24.874247 -520.336548
v -334.067719 24.874247 -529.507080
v -324.278290 21.065777 -544.599182
v -326.595184 21.978409 -544.559753
v -324.168884 21.065779 -535.284485
v -324.398224 21.065777 -554.813171
v -326.726501 21.982796 -554.791077
v -324.291229 21.065777 -545.701538
v -326.475525 21.974411 -535.234497
v -326.609375 21.978882 -545.665405
v -333.837006 24.874249 -535.074951
v -333.946930 24.874247 -544.434570
v -333.960022 24.874247 -545.550903
v -334.067719 24.874245 -554.721436
v -324.278290 21.065775 -569.284546
v -326.595184 21.978407 -569.245117
v -324.168884 21.065777 -559.969849
v -324.398224 21.065775 -579.498535
v -326.726501 21.982794 -579.476440
v -324.291229 21.065775 -570.386902
v -326.475525 21.974409 -559.919861
v -326.609375 21.978880 -570.350769
v -333.837006 24.874247 -559.760315
v -333.946930 24.874245 -569.119934
v -333.960022 24.874245 -570.236267
v -334.067719 24.874243 -579.406799
v 381.375275 35.647274 -972.998474
v 383.561768 36.966072 -975.534668
v 371.226501 35.647274 -981.841858
v 392.503876 35.647274 -963.301392
v 394.719971 36.972412 -965.833069
v 382.576355 35.647274 -971.951904
v 373.391724 36.960293 -984.377075
v 384.767609 36.966759 -974.486206
v 380.301880 41.150703 -992.468018
v 390.499603 41.150703 -983.582031
v 391.715881 41.150703 -982.522217
v 401.707550 41.150700 -973.815735
v 404.807343 35.735786 -952.584656
v 406.993835 36.337524 -955.120789
v 392.823975 35.735790 -963.022461
v 415.935944 35.735783 -942.887512
v 418.152039 36.343861 -945.419250
v 406.008392 35.735786 -951.538086
v 394.989197 36.331745 -965.557678
v 408.199677 36.338207 -954.072388
v 401.549683 38.573750 -973.246277
v 413.582001 38.573746 -962.765869
v 414.798279 38.573746 -961.706055
v 424.789978 38.573742 -952.999573
v 359.777832 35.647274 -991.817871
v 361.964325 36.249012 -994.354065
v 347.794464 35.647278 -1002.255676
v 370.906433 35.647278 -982.120789
v 373.122528 36.255352 -984.652466
v 360.978912 35.647274 -990.771301
v 349.959686 36.243233 -1004.790894
v 363.170166 36.249695 -993.305603
v 356.520172 38.485237 -1012.479553
v 368.552490 38.485233 -1001.999084
v 369.768768 38.485233 -1000.939270
v 379.760468 38.485229 -992.232788
v 494.362244 32.168598 -871.963745
v 496.579468 33.487396 -874.473083
v 484.322021 32.168598 -880.930176
v 505.371826 32.168598 -862.131714
v 507.618622 33.493736 -864.636169
v 495.550476 32.168598 -870.902588
v 486.517975 33.481617 -883.438782
v 497.772461 33.488083 -873.410034
v 493.526245 37.672028 -891.444885
v 503.614899 37.672028 -882.435242
v 504.818176 37.672028 -881.360657
v 514.702942 37.672024 -872.533081
v 517.543762 32.168598 -851.265808
v 519.760986 32.770332 -853.775146
v 505.688477 32.168598 -861.848877
v 528.553284 32.168594 -841.433777
v 530.800110 32.776672 -843.938232
v 518.731934 32.168598 -850.204651
v 507.884430 32.764553 -864.357544
v 520.953918 32.771019 -852.712036
v 514.538147 35.006557 -871.965637
v 526.441833 35.006554 -861.339294
v 527.645142 35.006554 -860.264709
v 537.529907 35.006550 -851.437134
v 472.995789 32.168598 -891.044983
v 475.213013 32.770336 -893.554321
v 461.140533 32.168602 -901.628052
v 484.005371 32.168602 -881.212952
v 486.252136 32.776676 -883.717407
v 474.184021 32.168598 -889.983887
v 463.336487 32.764557 -904.136719
v 476.406006 32.771019 -892.491272
v 469.990234 35.006561 -911.744812
v 481.893890 35.006557 -901.118469
v 483.097168 35.006557 -900.043884
v 492.981995 35.006554 -891.216309
v 369.673279 30.376122 -743.789185
v 368.679932 31.288752 -745.882751
v 361.236328 30.376122 -739.840332
v 378.924805 30.376120 -748.119324
v 377.942535 31.293139 -750.230347
v 370.671753 30.376122 -744.256531
v 360.237610 31.284754 -741.920166
v 369.680908 31.289225 -746.352539
v 357.050232 34.184589 -748.557739
v 365.527893 34.184589 -752.525635
v 366.539032 34.184589 -752.998901
v 374.845367 34.184586 -756.886597
v 347.194275 29.945007 -733.588135
v 346.200897 30.857639 -735.681702
v 338.757294 29.945007 -729.639282
v 356.445770 29.945007 -737.918274
v 355.463501 30.862026 -740.029297
v 348.192749 29.945007 -734.055481
v 337.758575 30.853640 -731.719116
v 347.201874 30.858112 -736.151550
v 334.571198 33.753475 -738.356689
v 343.048859 33.753475 -742.324585
v 344.059998 33.753475 -742.797852
v 352.366333 33.753471 -746.685608
v 324.233521 29.313660 -723.168457
v 323.240173 30.226292 -725.262024
v 315.796570 29.313662 -719.219604
v 333.485046 29.313660 -727.498596
v 332.502777 30.230679 -729.609619
v 325.231995 29.313660 -723.635803
v 314.797852 30.222292 -721.299438
v 324.241150 30.226765 -725.731873
v 311.610474 33.122131 -727.937012
v 320.088135 33.122131 -731.904907
v 321.099274 33.122131 -732.378174
v 329.405609 33.122124 -736.265930
v 403.161346 13.286551 -450.306519
v 404.523560 14.199182 -448.431946
v 410.726044 13.286551 -455.742645
v 394.866364 13.286551 -444.345551
v 396.220856 14.203570 -442.451721
v 402.266113 13.286551 -449.663177
v 412.090942 14.195182 -453.882538
v 403.626282 14.199656 -447.785675
v 416.447021 17.095020 -447.946075
v 408.845856 17.095018 -442.483734
v 407.939270 17.095020 -441.832245
v 400.491699 17.095020 -436.480255
vn -0.2138 0.9304 -0.2976
vn -0.2139 0.9304 -0.2976
vn -0.3514 0.9304 0.1040
vn 0.3665 0.9304 0.0005
vn 0.3664 0.9304 0.0005
vn 0.0005 0.9304 -0.3664
vn 0.0005 0.9304 -0.3665
vn 0.0002 0.9842 -0.1769
vn 0.0003 0.9805 -0.1965
vn 0.0004 0.9844 -0.1761
vn 0.0002 0.9841 -0.1778
vn 0.0004 0.9804 -0.1970
vn 0.0004 0.9842 -0.1771
vn 0.0003 0.9805 -0.1964
vn 0.0004 0.9805 -0.1967
vn 0.0002 0.9763 -0.2166
vn 0.0003 0.9763 -0.2164
vn 0.0003 0.9763 -0.2163
vn 0.0004 0.9764 -0.2162
vn 0.3664 0.9304 -0.0043
vn -0.2407 0.9304 0.2763
vn -0.1162 0.9842 0.1334
vn -0.1292 0.9805 0.1481
vn -0.1158 0.9844 0.1327
vn -0.1168 0.9841 0.1341
vn -0.1295 0.9804 0.1484
vn -0.1165 0.9842 0.1334
vn -0.1291 0.9805 0.1480
vn -0.1293 0.9805 0.1482
vn -0.1422 0.9763 0.1633
vn -0.1422 0.9763 0.1631
vn -0.1421 0.9763 0.1631
vn -0.1421 0.9764 0.1629
vn -0.2441 0.9304 0.2733
vn -0.1178 0.9842 0.1319
vn -0.1309 0.9805 0.1466
vn -0.1174 0.9844 0.1313
vn -0.1185 0.9841 0.1327
vn -0.1313 0.9804 0.1468
vn -0.1181 0.9842 0.1320
vn -0.1309 0.9805 0.1464
vn -0.1311 0.9805 0.1466
vn -0.1442 0.9763 0.1616
vn -0.1442 0.9763 0.1614
vn -0.1441 0.9763 0.1613
vn -0.1441 0.9764 0.1612
vn 0.1553 0.9304 0.3319
vt 2.001998 1.003996
vt 2.003506 2.919138
vt 0.003996 1.003997
vt 7.996003 1.003996
vt 7.996003 2.928345
vt 4.000000 1.003996
vt 0.003996 2.910744
vt 4.000000 2.920132
vt 0.003996 8.996004
vt 2.008292 8.996004
vt 4.000001 8.996004
vt 7.996003 8.996003
s 1
usemtl CEMSTAIRS.021
f 1/1/1 2/2/1 3/3/2
f 4/4/2 5/5/2 6/6/1
f 7/7/2 3/3/2 2/2/1
f 8/8/1 6/6/1 5/5/2
f 9/9/1 7/7/2 10/10/1
f 11/11/1 8/8/1 12/12/1
f 7/7/2 2/2/1 10/10/1
f 8/8/1 5/5/2 12/12/1
f 13/1/1 14/2/1 15/3/2
f 16/4/2 17/5/1 18/6/1
f 19/7/2 15/3/2 14/2/1
f 20/8/1 18/6/1 17/5/1
f 21/9/1 19/7/2 22/10/1
f 23/11/1 20/8/1 24/12/1
f 19/7/2 14/2/1 22/10/1
f 20/8/1 17/5/1 24/12/1
f 25/1/3 26/2/3 27/3/3
f 28/4/3 29/5/3 30/6/3
f 31/7/3 27/3/3 26/2/3
f 32/8/3 30/6/3 29/5/3
f 33/9/3 31/7/3 34/10/3
f 35/11/3 32/8/3 36/12/3
f 31/7/3 26/2/3 34/10/3
f 32/8/3 29/5/3 36/12/3
f 37/1/3 38/2/3 39/3/3
f 40/4/3 41/5/3 42/6/3
f 43/7/3 39/3/3 38/2/3
f 44/8/3 42/6/3 41/5/3
f 45/9/3 43/7/3 46/10/3
f 47/11/3 44/8/3 48/12/3
f 43/7/3 38/2/3 46/10/3
f 44/8/3 41/5/3 48/12/3
f 49/1/3 50/2/3 51/3/3
f 52/4/3 53/5/3 54/6/3
f 55/7/3 51/3/3 50/2/3
f 56/8/3 54/6/3 53/5/3
f 57/9/3 55/7/3 58/10/3
f 59/11/3 56/8/3 60/12/3
f 55/7/3 50/2/3 58/10/3
f 56/8/3 53/5/3 60/12/3
f 61/1/4 62/2/4 63/3/5
f 64/4/4 72/5/4 65/6/5
f 66/7/4 63/3/5 62/2/4
f 67/8/5 65/6/5 72/5/4
f 68/9/4 66/7/4 69/10/4
f 70/11/4 67/8/5 71/12/4
f 66/7/4 62/2/4 69/10/4
f 67/8/5 72/5/4 71/12/4
f 73/1/4 74/2/4 75/3/4
f 76/4/5 84/5/4 77/6/4
f 78/7/4 75/3/4 74/2/4
f 79/8/4 77/6/4 84/5/4
f 80/9/4 78/7/4 81/10/4
f 82/11/5 79/8/4 83/12/4
f 78/7/4 74/2/4 81/10/4
f 79/8/4 84/5/4 83/12/4
f 85/1/4 86/2/5 87/3/4
f 88/4/5 89/5/5 90/6/4
f 91/7/4 87/3/4 86/2/5
f 92/8/4 90/6/4 89/5/5
f 93/9/4 91/7/4 94/10/5
f 95/11/5 92/8/4 96/12/4
f 91/7/4 86/2/5 94/10/5
f 92/8/4 89/5/5 96/12/4
f 97/1/6 98/2/6 99/3/7
f 100/4/7 101/5/7 102/6/6
f 103/7/7 99/3/7 98/2/6
f 104/8/6 102/6/6 101/5/7
f 105/9/7 103/7/7 106/10/7
f 107/11/7 104/8/6 108/12/6
f 103/7/7 98/2/6 106/10/7
f 104/8/6 101/5/7 108/12/6
f 109/1/6 110/2/6 111/3/7
f 112/4/7 113/5/7 114/6/6
f 115/7/7 111/3/7 110/2/6
f 116/8/6 114/6/6 113/5/7
f 117/9/7 115/7/7 118/10/7
f 119/11/7 116/8/6 120/12/7
f 115/7/7 110/2/6 118/10/7
f 116/8/6 113/5/7 120/12/7
f 121/1/6 122/2/6 123/3/7
f 124/4/7 125/5/7 126/6/6
f 127/7/7 123/3/7 122/2/6
f 128/8/6 126/6/6 125/5/7
f 129/9/7 127/7/7 130/10/7
f 131/11/7 128/8/6 132/12/7
f 127/7/7 122/2/6 130/10/7
f 128/8/6 125/5/7 132/12/7
f 133/1/6 134/2/6 135/3/6
f 136/4/7 144/5/7 137/6/7
f 138/7/7 135/3/6 134/2/6
f 139/8/7 137/6/7 144/5/7
f 140/9/7 138/7/7 141/10/7
f 142/11/7 139/8/7 143/12/7
f 138/7/7 134/2/6 141/10/7
f 139/8/7 144/5/7 143/12/7
f 145/1/7 146/2/7 147/3/7
f 148/4/7 149/5/7 150/6/7
f 151/7/7 147/3/7 146/2/7
f 152/8/6 150/6/7 149/5/7
f 153/9/7 151/7/7 154/10/7
f 155/11/7 152/8/6 156/12/7
f 151/7/7 146/2/7 154/10/7
f 152/8/6 149/5/7 156/12/7
f 157/1/7 158/2/7 159/3/7
f 160/4/7 161/5/7 162/6/6
f 163/7/7 159/3/7 158/2/7
f 164/8/6 162/6/6 161/5/7
f 165/9/7 163/7/7 166/10/7
f 167/11/7 164/8/6 168/12/7
f 163/7/7 158/2/7 166/10/7
f 164/8/6 161/5/7 168/12/7
f 169/1/6 170/2/7 171/3/7
f 172/4/7 180/5/7 173/6/7
f 174/7/7 171/3/7 170/2/7
f 175/8/7 173/6/7 180/5/7
f 176/9/7 174/7/7 177/10/7
f 178/11/7 175/8/7 179/12/7
f 174/7/7 170/2/7 177/10/7
f 175/8/7 180/5/7 179/12/7
f 181/1/8 182/2/9 183/3/10
f 184/4/11 192/5/12 185/6/13
f 186/7/14 183/3/10 182/2/9
f 187/8/15 185/6/13 192/5/12
f 188/9/16 186/7/14 189/10/17
f 190/11/18 187/8/15 191/12/19
f 186/7/14 182/2/9 189/10/17
f 187/8/15 192/5/12 191/12/19
f 193/1/8 194/2/9 195/3/10
f 196/4/11 204/5/12 197/6/13
f 198/7/14 195/3/10 194/2/9
f 199/8/15 197/6/13 204/5/12
f 200/9/16 198/7/14 201/10/17
f 202/11/18 199/8/15 203/12/19
f 198/7/14 194/2/9 201/10/17
f 199/8/15 204/5/12 203/12/19
f 205/1/20 206/2/20 207/3/20
f 208/4/20 209/5/20 210/6/20
f 211/7/20 207/3/20 206/2/20
f 212/8/20 210/6/20 209/5/20
f 213/9/20 211/7/20 214/10/20
f 215/11/20 212/8/20 216/12/20
f 211/7/20 206/2/20 214/10/20
f 212/8/20 209/5/20 216/12/20
f 217/1/20 218/2/20 219/3/20
f 220/4/20 221/5/20 222/6/20
f 223/7/20 219/3/20 218/2/20
f 224/8/20 222/6/20 221/5/20
f 225/9/20 223/7/20 226/10/20
f 227/11/20 224/8/20 228/12/20
f 223/7/20 218/2/20 226/10/20
f 224/8/20 221/5/20 228/12/20
f 229/1/20 230/2/20 231/3/20
f 232/4/20 233/5/20 234/6/20
f 235/7/20 231/3/20 230/2/20
f 236/8/20 234/6/20 233/5/20
f 237/9/20 235/7/20 238/10/20
f 239/11/20 236/8/20 240/12/20
f 235/7/20 230/2/20 238/10/20
f 236/8/20 233/5/20 240/12/20
f 241/1/21 242/2/21 243/3/21
f 244/4/21 245/5/21 246/6/21
f 247/7/21 243/3/21 242/2/21
f 248/8/21 246/6/21 245/5/21
f 249/9/21 247/7/21 250/10/21
f 251/11/21 248/8/21 252/12/21
f 247/7/21 242/2/21 250/10/21
f 248/8/21 245/5/21 252/12/21
f 253/1/22 254/2/23 255/3/24
f 256/4/25 257/5/26 258/6/27
f 259/7/28 255/3/24 254/2/23
f 260/8/29 258/6/27 257/5/26
f 261/9/30 259/7/28 262/10/31
f 263/11/32 260/8/29 264/12/33
f 259/7/28 254/2/23 262/10/31
f 260/8/29 257/5/26 264/12/33
f 265/1/22 266/2/23 267/3/24
f 268/4/25 269/5/26 270/6/27
f 271/7/28 267/3/24 266/2/23
f 272/8/29 270/6/27 269/5/26
f 273/9/30 271/7/28 274/10/31
f 275/11/32 272/8/29 276/12/33
f 271/7/28 266/2/23 274/10/31
f 272/8/29 269/5/26 276/12/33
f 277/1/34 278/2/34 279/3/34
f 280/4/34 281/5/34 282/6/34
f 283/7/34 279/3/34 278/2/34
f 284/8/34 282/6/34 281/5/34
f 285/9/34 283/7/34 286/10/34
f 287/11/34 284/8/34 288/12/34
f 283/7/34 278/2/34 286/10/34
f 284/8/34 281/5/34 288/12/34
f 289/1/35 290/2/36 291/3/37
f 292/4/38 293/5/39 294/6/40
f 295/7/41 291/3/37 290/2/36
f 296/8/42 294/6/40 293/5/39
f 297/9/43 295/7/41 298/10/44
f 299/11/45 296/8/42 300/12/46
f 295/7/41 290/2/36 298/10/44
f 296/8/42 293/5/39 300/12/46
f 301/1/35 302/2/36 303/3/37
f 304/4/38 305/5/39 306/6/40
f 307/7/41 303/3/37 302/2/36
f 308/8/42 306/6/40 305/5/39
f 309/9/43 307/7/41 310/10/44
f 311/11/45 308/8/42 312/12/46
f 307/7/41 302/2/36 310/10/44
f 308/8/42 305/5/39 312/12/46
f 313/1/47 314/2/47 315/3/47
f 316/4/47 317/5/47 318/6/47
f 319/7/47 315/3/47 314/2/47
f 320/8/47 318/6/47 317/5/47
f 321/9/47 319/7/47 322/10/47
f 323/11/47 320/8/47 324/12/47
f 319/7/47 314/2/47 322/10/47
f 320/8/47 317/5/47 324/12/47
f 325/1/47 326/2/47 327/3/47
f 328/4/47 329/5/47 330/6/47
f 331/7/47 327/3/47 326/2/47
f 332/8/47 330/6/47 329/5/47
f 333/9/47 331/7/47 334/10/47
f 335/11/47 332/8/47 336/12/47
f 331/7/47 326/2/47 334/10/47
f 332/8/47 329/5/47 336/12/47
f 337/1/47 338/2/47 339/3/47
f 340/4/47 341/5/47 342/6/47
f 343/7/47 339/3/47 338/2/47
f 344/8/47 342/6/47 341/5/47
f 345/9/47 343/7/47 346/10/47
f 347/11/47 344/8/47 348/12/47
f 343/7/47 338/2/47 346/10/47
f 344/8/47 341/5/47 348/12/47
f 349/1/1 350/2/1 351/3/2
f 352/4/2 353/5/1 354/6/1
f 355/7/2 351/3/2 350/2/1
f 356/8/1 354/6/1 353/5/1
f 357/9/1 355/7/2 358/10/2
f 359/11/1 356/8/1 360/12/1
f 355/7/2 350/2/1 358/10/2
f 356/8/1 353/5/1 360/12/1
