# Blender 4.4.3
# www.blender.org
mtllib CEMY.mtl
o CEMY
v -1.435444 -1.538776 -27.598524
v -1.435444 -1.659546 -27.598524
v -1.435444 -1.538776 -27.336897
v -1.435444 -1.659546 -27.336897
v -1.435444 -1.418005 -27.598524
v -1.435444 -1.418005 -27.336897
v -0.588096 -1.659546 -27.336897
v -0.588096 -1.659546 -27.598524
v -0.588096 -1.538776 -27.336897
v -0.588096 -1.538776 -27.598524
v -0.588096 -1.418005 -27.336897
v -0.588096 -1.418005 -27.598524
v -1.435444 -1.659546 -27.136032
v -1.435444 -1.538776 -27.136032
v -0.588096 -1.538776 -27.136030
v -0.588096 -1.659546 -27.136030
v 5.467380 -1.538776 -27.598522
v 5.467380 -1.659546 -27.598522
v 5.467380 -1.538776 -27.336897
v 5.467380 -1.659546 -27.336897
v 5.467380 -1.418005 -27.598522
v 5.467380 -1.418005 -27.336897
v 6.314730 -1.659546 -27.336897
v 6.314730 -1.659546 -27.598522
v 6.314730 -1.538776 -27.336897
v 6.314730 -1.538776 -27.598522
v 6.314730 -1.418005 -27.336897
v 6.314730 -1.418005 -27.598522
v 5.467380 -1.659546 -27.136030
v 5.467380 -1.538776 -27.136030
v 6.314730 -1.538776 -27.136030
v 6.314730 -1.659546 -27.136030
v 21.954273 -1.538776 -27.598520
v 21.954273 -1.659546 -27.598520
v 21.954273 -1.538776 -27.336893
v 21.954273 -1.659546 -27.336893
v 21.954273 -1.418005 -27.598520
v 21.954273 -1.418005 -27.336893
v 22.801620 -1.659546 -27.336893
v 22.801620 -1.659546 -27.598520
v 22.801620 -1.538776 -27.336893
v 22.801620 -1.538776 -27.598520
v 22.801620 -1.418005 -27.336893
v 22.801620 -1.418005 -27.598520
v 21.954269 -1.659546 -27.136028
v 21.954269 -1.538776 -27.136028
v 22.801620 -1.538776 -27.136026
v 22.801620 -1.659546 -27.136026
v -30.878841 -1.538776 -27.598524
v -30.878841 -1.659546 -27.598524
v -30.878841 -1.538776 -27.336897
v -30.878841 -1.659546 -27.336897
v -30.878841 -1.418005 -27.598524
v -30.878841 -1.418005 -27.336897
v -30.031492 -1.659546 -27.336897
v -30.031492 -1.659546 -27.598524
v -30.031492 -1.538776 -27.336897
v -30.031492 -1.538776 -27.598524
v -30.031492 -1.418005 -27.336897
v -30.031492 -1.418005 -27.598524
v -30.878841 -1.659546 -27.136032
v -30.878841 -1.538776 -27.136032
v -30.031492 -1.538776 -27.136030
v -30.031492 -1.659546 -27.136030
v -23.976017 -1.538776 -27.598522
v -23.976017 -1.659546 -27.598522
v -23.976017 -1.538776 -27.336897
v -23.976017 -1.659546 -27.336897
v -23.976017 -1.418005 -27.598522
v -23.976017 -1.418005 -27.336897
v -23.128668 -1.659546 -27.336897
v -23.128668 -1.659546 -27.598522
v -23.128668 -1.538776 -27.336897
v -23.128668 -1.538776 -27.598522
v -23.128668 -1.418005 -27.336897
v -23.128668 -1.418005 -27.598522
v -23.976017 -1.659546 -27.136030
v -23.976017 -1.538776 -27.136030
v -23.128668 -1.538776 -27.136030
v -23.128668 -1.659546 -27.136030
v -7.489125 -1.538776 -27.598520
v -7.489125 -1.659546 -27.598520
v -7.489125 -1.538776 -27.336893
v -7.489125 -1.659546 -27.336893
v -7.489125 -1.418005 -27.598520
v -7.489125 -1.418005 -27.336893
v -6.641774 -1.659546 -27.336893
v -6.641774 -1.659546 -27.598520
v -6.641774 -1.538776 -27.336893
v -6.641774 -1.538776 -27.598520
v -6.641774 -1.418005 -27.336893
v -6.641774 -1.418005 -27.598520
v -7.489125 -1.659546 -27.136028
v -7.489125 -1.538776 -27.136028
v -6.641774 -1.538776 -27.136026
v -6.641774 -1.659546 -27.136026
v 63.087288 -1.538776 -27.598524
v 63.087288 -1.659546 -27.598524
v 63.087288 -1.538776 -27.336897
v 63.087288 -1.659546 -27.336897
v 63.087288 -1.418005 -27.598524
v 63.087288 -1.418005 -27.336897
v 63.934635 -1.659546 -27.336897
v 63.934635 -1.659546 -27.598524
v 63.934635 -1.538776 -27.336897
v 63.934635 -1.538776 -27.598524
v 63.934635 -1.418005 -27.336897
v 63.934635 -1.418005 -27.598524
v 63.087288 -1.659546 -27.136032
v 63.087288 -1.538776 -27.136032
v 63.934635 -1.538776 -27.136030
v 63.934635 -1.659546 -27.136030
v 69.990112 -1.538776 -27.598522
v 69.990112 -1.659546 -27.598522
v 69.990112 -1.538776 -27.336897
v 69.990112 -1.659546 -27.336897
v 69.990112 -1.418005 -27.598522
v 69.990112 -1.418005 -27.336897
v 70.837463 -1.659546 -27.336897
v 70.837463 -1.659546 -27.598522
v 70.837463 -1.538776 -27.336897
v 70.837463 -1.538776 -27.598522
v 70.837463 -1.418005 -27.336897
v 70.837463 -1.418005 -27.598522
v 69.990112 -1.659546 -27.136030
v 69.990112 -1.538776 -27.136030
v 70.837463 -1.538776 -27.136030
v 70.837463 -1.659546 -27.136030
v 86.477005 -1.538776 -27.598520
v 86.477005 -1.659546 -27.598520
v 86.477005 -1.538776 -27.336893
v 86.477005 -1.659546 -27.336893
v 86.477005 -1.418005 -27.598520
v 86.477005 -1.418005 -27.336893
v 87.324356 -1.659546 -27.336893
v 87.324356 -1.659546 -27.598520
v 87.324356 -1.538776 -27.336893
v 87.324356 -1.538776 -27.598520
v 87.324356 -1.418005 -27.336893
v 87.324356 -1.418005 -27.598520
v 86.477005 -1.659546 -27.136028
v 86.477005 -1.538776 -27.136028
v 87.324356 -1.538776 -27.136026
v 87.324356 -1.659546 -27.136026
v 33.643921 -1.538776 -27.598524
v 33.643921 -1.659546 -27.598524
v 33.643917 -1.538776 -27.336897
v 33.643917 -1.659546 -27.336897
v 33.643921 -1.418005 -27.598524
v 33.643917 -1.418005 -27.336897
v 34.491264 -1.659546 -27.336897
v 34.491264 -1.659546 -27.598524
v 34.491264 -1.538776 -27.336897
v 34.491264 -1.538776 -27.598524
v 34.491264 -1.418005 -27.336897
v 34.491264 -1.418005 -27.598524
v 33.643917 -1.659546 -27.136032
v 33.643917 -1.538776 -27.136032
v 34.491264 -1.538776 -27.136030
v 34.491264 -1.659546 -27.136030
v 40.546741 -1.538776 -27.598522
v 40.546741 -1.659546 -27.598522
v 40.546741 -1.538776 -27.336897
v 40.546741 -1.659546 -27.336897
v 40.546741 -1.418005 -27.598522
v 40.546741 -1.418005 -27.336897
v 41.394089 -1.659546 -27.336897
v 41.394089 -1.659546 -27.598522
v 41.394089 -1.538776 -27.336897
v 41.394089 -1.538776 -27.598522
v 41.394089 -1.418005 -27.336897
v 41.394089 -1.418005 -27.598522
v 40.546741 -1.659546 -27.136030
v 40.546741 -1.538776 -27.136030
v 41.394089 -1.538776 -27.136030
v 41.394089 -1.659546 -27.136030
v 57.033634 -1.538776 -27.598520
v 57.033634 -1.659546 -27.598520
v 57.033634 -1.538776 -27.336893
v 57.033634 -1.659546 -27.336893
v 57.033634 -1.418005 -27.598520
v 57.033634 -1.418005 -27.336893
v 57.880985 -1.659546 -27.336893
v 57.880985 -1.659546 -27.598520
v 57.880985 -1.538776 -27.336893
v 57.880985 -1.538776 -27.598520
v 57.880985 -1.418005 -27.336893
v 57.880985 -1.418005 -27.598520
v 57.033634 -1.659546 -27.136028
v 57.033634 -1.538776 -27.136028
v 57.880985 -1.538776 -27.136026
v 57.880985 -1.659546 -27.136026
v 98.674400 -1.538776 -27.598524
v 98.674400 -1.659546 -27.598524
v 98.674400 -1.538776 -27.336897
v 98.674400 -1.659546 -27.336897
v 98.674400 -1.418005 -27.598524
v 98.674400 -1.418005 -27.336897
v 99.521751 -1.659546 -27.336897
v 99.521751 -1.659546 -27.598524
v 99.521751 -1.538776 -27.336897
v 99.521751 -1.538776 -27.598524
v 99.521751 -1.418005 -27.336897
v 99.521751 -1.418005 -27.598524
v 98.674400 -1.659546 -27.136032
v 98.674400 -1.538776 -27.136032
v 99.521751 -1.538776 -27.136030
v 99.521751 -1.659546 -27.136030
v 105.577225 -1.538776 -27.598522
v 105.577225 -1.659546 -27.598522
v 105.577225 -1.538776 -27.336897
v 105.577225 -1.659546 -27.336897
v 105.577225 -1.418005 -27.598522
v 105.577225 -1.418005 -27.336897
v 106.424576 -1.659546 -27.336897
v 106.424576 -1.659546 -27.598522
v 106.424576 -1.538776 -27.336897
v 106.424576 -1.538776 -27.598522
v 106.424576 -1.418005 -27.336897
v 106.424576 -1.418005 -27.598522
v 105.577225 -1.659546 -27.136030
v 105.577225 -1.538776 -27.136030
v 106.424576 -1.538776 -27.136030
v 106.424576 -1.659546 -27.136030
v 122.064117 -1.538776 -27.598520
v 122.064117 -1.659546 -27.598520
v 122.064117 -1.538776 -27.336893
v 122.064117 -1.659546 -27.336893
v 122.064117 -1.418005 -27.598520
v 122.064117 -1.418005 -27.336893
v 122.911469 -1.659546 -27.336893
v 122.911469 -1.659546 -27.598520
v 122.911469 -1.538776 -27.336893
v 122.911469 -1.538776 -27.598520
v 122.911469 -1.418005 -27.336893
v 122.911469 -1.418005 -27.598520
v 122.064117 -1.659546 -27.136028
v 122.064117 -1.538776 -27.136028
v 122.911469 -1.538776 -27.136026
v 122.911469 -1.659546 -27.136026
v 128.117783 -1.538776 -27.598524
v 128.117783 -1.659546 -27.598524
v 128.117783 -1.538776 -27.336897
v 128.117783 -1.659546 -27.336897
v 128.117783 -1.418005 -27.598524
v 128.117783 -1.418005 -27.336897
v 128.965134 -1.659546 -27.336897
v 128.965134 -1.659546 -27.598524
v 128.965134 -1.538776 -27.336897
v 128.965134 -1.538776 -27.598524
v 128.965134 -1.418005 -27.336897
v 128.965134 -1.418005 -27.598524
v 128.117783 -1.659546 -27.136032
v 128.117783 -1.538776 -27.136032
v 128.965134 -1.538776 -27.136030
v 128.965134 -1.659546 -27.136030
v 135.020599 -1.538776 -27.598522
v 135.020599 -1.659546 -27.598522
v 135.020599 -1.538776 -27.336897
v 135.020599 -1.659546 -27.336897
v 135.020599 -1.418005 -27.598522
v 135.020599 -1.418005 -27.336897
v 135.867950 -1.659546 -27.336897
v 135.867950 -1.659546 -27.598522
v 135.867950 -1.538776 -27.336897
v 135.867950 -1.538776 -27.598522
v 135.867950 -1.418005 -27.336897
v 135.867950 -1.418005 -27.598522
v 135.020599 -1.659546 -27.136030
v 135.020599 -1.538776 -27.136030
v 135.867950 -1.538776 -27.136030
v 135.867950 -1.659546 -27.136030
v 151.507492 -1.538776 -27.598520
v 151.507492 -1.659546 -27.598520
v 151.507492 -1.538776 -27.336893
v 151.507492 -1.659546 -27.336893
v 151.507492 -1.418005 -27.598520
v 151.507492 -1.418005 -27.336893
v 152.354843 -1.659546 -27.336893
v 152.354843 -1.659546 -27.598520
v 152.354843 -1.538776 -27.336893
v 152.354843 -1.538776 -27.598520
v 152.354843 -1.418005 -27.336893
v 152.354843 -1.418005 -27.598520
v 151.507492 -1.659546 -27.136028
v 151.507492 -1.538776 -27.136028
v 152.354843 -1.538776 -27.136026
v 152.354843 -1.659546 -27.136026
vn -1.0000 -0.0000 -0.0000
vn 1.0000 -0.0000 -0.0000
vt 0.000500 1.500000
vt 0.000500 1.000500
vt 0.565622 1.500000
vt 0.565622 1.000500
vt 0.000500 1.999501
vt 0.565622 1.999500
vt 0.000500 1.999500
vt 0.999500 1.000500
vt 0.999500 1.500000
vt 0.999500 1.000499
s 1
usemtl CEMY
f 1/1/1 2/2/1 3/3/1
f 4/4/1 3/3/1 2/2/1
f 5/5/1 1/1/1 6/6/1
f 3/3/1 6/6/1 1/1/1
f 7/4/2 8/2/2 9/3/2
f 10/1/2 9/3/2 8/2/2
f 9/3/2 10/1/2 11/6/2
f 12/7/2 11/6/2 10/1/2
f 3/3/1 4/4/1 13/8/1
f 13/8/1 14/9/1 3/3/1
f 7/4/2 9/3/2 15/9/2
f 15/9/2 16/10/2 7/4/2
f 17/1/1 18/2/1 19/3/1
f 20/4/1 19/3/1 18/2/1
f 21/5/1 17/1/1 22/6/1
f 19/3/1 22/6/1 17/1/1
f 23/4/2 24/2/2 25/3/2
f 26/1/2 25/3/2 24/2/2
f 25/3/2 26/1/2 27/6/2
f 28/7/2 27/6/2 26/1/2
f 19/3/1 20/4/1 29/8/1
f 29/8/1 30/9/1 19/3/1
f 23/4/2 25/3/2 31/9/2
f 31/9/2 32/10/2 23/4/2
f 33/1/1 34/2/1 35/3/1
f 36/4/1 35/3/1 34/2/1
f 37/5/1 33/1/1 38/6/1
f 35/3/1 38/6/1 33/1/1
f 39/4/2 40/2/2 41/3/2
f 42/1/2 41/3/2 40/2/2
f 41/3/2 42/1/2 43/6/2
f 44/7/2 43/6/2 42/1/2
f 35/3/1 36/4/1 45/8/1
f 45/8/1 46/9/1 35/3/1
f 39/4/2 41/3/2 47/9/2
f 47/9/2 48/10/2 39/4/2
f 49/1/1 50/2/1 51/3/1
f 52/4/1 51/3/1 50/2/1
f 53/5/1 49/1/1 54/6/1
f 51/3/1 54/6/1 49/1/1
f 55/4/2 56/2/2 57/3/2
f 58/1/2 57/3/2 56/2/2
f 57/3/2 58/1/2 59/6/2
f 60/7/2 59/6/2 58/1/2
f 51/3/1 52/4/1 61/8/1
f 61/8/1 62/9/1 51/3/1
f 55/4/2 57/3/2 63/9/2
f 63/9/2 64/10/2 55/4/2
f 65/1/1 66/2/1 67/3/1
f 68/4/1 67/3/1 66/2/1
f 69/5/1 65/1/1 70/6/1
f 67/3/1 70/6/1 65/1/1
f 71/4/2 72/2/2 73/3/2
f 74/1/2 73/3/2 72/2/2
f 73/3/2 74/1/2 75/6/2
f 76/7/2 75/6/2 74/1/2
f 67/3/1 68/4/1 77/8/1
f 77/8/1 78/9/1 67/3/1
f 71/4/2 73/3/2 79/9/2
f 79/9/2 80/10/2 71/4/2
f 81/1/1 82/2/1 83/3/1
f 84/4/1 83/3/1 82/2/1
f 85/5/1 81/1/1 86/6/1
f 83/3/1 86/6/1 81/1/1
f 87/4/2 88/2/2 89/3/2
f 90/1/2 89/3/2 88/2/2
f 89/3/2 90/1/2 91/6/2
f 92/7/2 91/6/2 90/1/2
f 83/3/1 84/4/1 93/8/1
f 93/8/1 94/9/1 83/3/1
f 87/4/2 89/3/2 95/9/2
f 95/9/2 96/10/2 87/4/2
f 97/1/1 98/2/1 99/3/1
f 100/4/1 99/3/1 98/2/1
f 101/5/1 97/1/1 102/6/1
f 99/3/1 102/6/1 97/1/1
f 103/4/2 104/2/2 105/3/2
f 106/1/2 105/3/2 104/2/2
f 105/3/2 106/1/2 107/6/2
f 108/7/2 107/6/2 106/1/2
f 99/3/1 100/4/1 109/8/1
f 109/8/1 110/9/1 99/3/1
f 103/4/2 105/3/2 111/9/2
f 111/9/2 112/10/2 103/4/2
f 113/1/1 114/2/1 115/3/1
f 116/4/1 115/3/1 114/2/1
f 117/5/1 113/1/1 118/6/1
f 115/3/1 118/6/1 113/1/1
f 119/4/2 120/2/2 121/3/2
f 122/1/2 121/3/2 120/2/2
f 121/3/2 122/1/2 123/6/2
f 124/7/2 123/6/2 122/1/2
f 115/3/1 116/4/1 125/8/1
f 125/8/1 126/9/1 115/3/1
f 119/4/2 121/3/2 127/9/2
f 127/9/2 128/10/2 119/4/2
f 129/1/1 130/2/1 131/3/1
f 132/4/1 131/3/1 130/2/1
f 133/5/1 129/1/1 134/6/1
f 131/3/1 134/6/1 129/1/1
f 135/4/2 136/2/2 137/3/2
f 138/1/2 137/3/2 136/2/2
f 137/3/2 138/1/2 139/6/2
f 140/7/2 139/6/2 138/1/2
f 131/3/1 132/4/1 141/8/1
f 141/8/1 142/9/1 131/3/1
f 135/4/2 137/3/2 143/9/2
f 143/9/2 144/10/2 135/4/2
f 145/1/1 146/2/1 147/3/1
f 148/4/1 147/3/1 146/2/1
f 149/5/1 145/1/1 150/6/1
f 147/3/1 150/6/1 145/1/1
f 151/4/2 152/2/2 153/3/2
f 154/1/2 153/3/2 152/2/2
f 153/3/2 154/1/2 155/6/2
f 156/7/2 155/6/2 154/1/2
f 147/3/1 148/4/1 157/8/1
f 157/8/1 158/9/1 147/3/1
f 151/4/2 153/3/2 159/9/2
f 159/9/2 160/10/2 151/4/2
f 161/1/1 162/2/1 163/3/1
f 164/4/1 163/3/1 162/2/1
f 165/5/1 161/1/1 166/6/1
f 163/3/1 166/6/1 161/1/1
f 167/4/2 168/2/2 169/3/2
f 170/1/2 169/3/2 168/2/2
f 169/3/2 170/1/2 171/6/2
f 172/7/2 171/6/2 170/1/2
f 163/3/1 164/4/1 173/8/1
f 173/8/1 174/9/1 163/3/1
f 167/4/2 169/3/2 175/9/2
f 175/9/2 176/10/2 167/4/2
f 177/1/1 178/2/1 179/3/1
f 180/4/1 179/3/1 178/2/1
f 181/5/1 177/1/1 182/6/1
f 179/3/1 182/6/1 177/1/1
f 183/4/2 184/2/2 185/3/2
f 186/1/2 185/3/2 184/2/2
f 185/3/2 186/1/2 187/6/2
f 188/7/2 187/6/2 186/1/2
f 179/3/1 180/4/1 189/8/1
f 189/8/1 190/9/1 179/3/1
f 183/4/2 185/3/2 191/9/2
f 191/9/2 192/10/2 183/4/2
f 193/1/1 194/2/1 195/3/1
f 196/4/1 195/3/1 194/2/1
f 197/5/1 193/1/1 198/6/1
f 195/3/1 198/6/1 193/1/1
f 199/4/2 200/2/2 201/3/2
f 202/1/2 201/3/2 200/2/2
f 201/3/2 202/1/2 203/6/2
f 204/7/2 203/6/2 202/1/2
f 195/3/1 196/4/1 205/8/1
f 205/8/1 206/9/1 195/3/1
f 199/4/2 201/3/2 207/9/2
f 207/9/2 208/10/2 199/4/2
f 209/1/1 210/2/1 211/3/1
f 212/4/1 211/3/1 210/2/1
f 213/5/1 209/1/1 214/6/1
f 211/3/1 214/6/1 209/1/1
f 215/4/2 216/2/2 217/3/2
f 218/1/2 217/3/2 216/2/2
f 217/3/2 218/1/2 219/6/2
f 220/7/2 219/6/2 218/1/2
f 211/3/1 212/4/1 221/8/1
f 221/8/1 222/9/1 211/3/1
f 215/4/2 217/3/2 223/9/2
f 223/9/2 224/10/2 215/4/2
f 225/1/1 226/2/1 227/3/1
f 228/4/1 227/3/1 226/2/1
f 229/5/1 225/1/1 230/6/1
f 227/3/1 230/6/1 225/1/1
f 231/4/2 232/2/2 233/3/2
f 234/1/2 233/3/2 232/2/2
f 233/3/2 234/1/2 235/6/2
f 236/7/2 235/6/2 234/1/2
f 227/3/1 228/4/1 237/8/1
f 237/8/1 238/9/1 227/3/1
f 231/4/2 233/3/2 239/9/2
f 239/9/2 240/10/2 231/4/2
f 241/1/1 242/2/1 243/3/1
f 244/4/1 243/3/1 242/2/1
f 245/5/1 241/1/1 246/6/1
f 243/3/1 246/6/1 241/1/1
f 247/4/2 248/2/2 249/3/2
f 250/1/2 249/3/2 248/2/2
f 249/3/2 250/1/2 251/6/2
f 252/7/2 251/6/2 250/1/2
f 243/3/1 244/4/1 253/8/1
f 253/8/1 254/9/1 243/3/1
f 247/4/2 249/3/2 255/9/2
f 255/9/2 256/10/2 247/4/2
f 257/1/1 258/2/1 259/3/1
f 260/4/1 259/3/1 258/2/1
f 261/5/1 257/1/1 262/6/1
f 259/3/1 262/6/1 257/1/1
f 263/4/2 264/2/2 265/3/2
f 266/1/2 265/3/2 264/2/2
f 265/3/2 266/1/2 267/6/2
f 268/7/2 267/6/2 266/1/2
f 259/3/1 260/4/1 269/8/1
f 269/8/1 270/9/1 259/3/1
f 263/4/2 265/3/2 271/9/2
f 271/9/2 272/10/2 263/4/2
f 273/1/1 274/2/1 275/3/1
f 276/4/1 275/3/1 274/2/1
f 277/5/1 273/1/1 278/6/1
f 275/3/1 278/6/1 273/1/1
f 279/4/2 280/2/2 281/3/2
f 282/1/2 281/3/2 280/2/2
f 281/3/2 282/1/2 283/6/2
f 284/7/2 283/6/2 282/1/2
f 275/3/1 276/4/1 285/8/1
f 285/8/1 286/9/1 275/3/1
f 279/4/2 281/3/2 287/9/2
f 287/9/2 288/10/2 279/4/2
