# Blender 4.4.3
# www.blender.org
mtllib CNUMB.mtl
o CNUMB
v 20.853851 1.450004 -19.829462
v 20.853903 1.450004 -20.060265
v 20.853851 1.716867 -19.829462
v 20.853903 1.716867 -20.060265
v 16.242712 1.450004 -20.060265
v 16.242712 1.716867 -20.060265
v 6.454028 1.450004 -20.060265
v 6.454028 1.716867 -20.060265
v 11.050446 1.450004 -19.829462
v 11.050495 1.450004 -20.060263
v 11.050446 1.716867 -19.829462
v 11.050495 1.716867 -20.060263
v 1.244847 1.450004 -20.060265
v 1.244847 1.716867 -20.060265
v 20.853851 1.450005 -19.598661
v 20.853851 1.716868 -19.598661
v 16.242662 1.450005 -19.598661
v 16.242662 1.450004 -19.829462
v 16.242662 1.716868 -19.598661
v 16.242662 1.716867 -19.829462
v 11.050446 1.450005 -19.598661
v 11.050446 1.716868 -19.598661
v 6.453954 1.450005 -19.598661
v 6.453954 1.450004 -19.829462
v 6.453954 1.716868 -19.598661
v 6.453954 1.716867 -19.829462
v 1.244772 1.450005 -19.598661
v 1.244772 1.450004 -19.829462
v 1.244772 1.716868 -19.598661
v 1.244772 1.716867 -19.829462
v -3.364350 1.450004 -19.829462
v -3.364325 1.450004 -20.060265
v -3.364350 1.716867 -19.829462
v -3.364325 1.716867 -20.060265
v -3.364374 1.450005 -19.598661
v -3.364374 1.716868 -19.598661
v -13.212049 1.450004 -19.829462
v -13.212025 1.450004 -20.060265
v -13.212049 1.716867 -19.829462
v -13.212025 1.716867 -20.060265
v -8.578388 1.450004 -19.829462
v -8.578363 1.450004 -20.060263
v -8.578388 1.716867 -19.829462
v -8.578363 1.716867 -20.060263
v -18.387077 1.450004 -19.829462
v -18.387026 1.450004 -20.060265
v -18.387077 1.716867 -19.829462
v -18.387026 1.716867 -20.060265
v -28.221697 1.450004 -19.829462
v -28.221647 1.450004 -20.060265
v -28.221697 1.716867 -19.829462
v -28.221647 1.716867 -20.060265
v -22.994032 1.450004 -19.829462
v -22.994007 1.450004 -20.060265
v -22.994032 1.716867 -19.829462
v -22.994007 1.716867 -20.060263
v -32.812084 1.450004 -19.829462
v -32.812061 1.450004 -20.060265
v -32.812084 1.716867 -19.829462
v -32.812061 1.716867 -20.060265
v -8.578388 1.450005 -19.598661
v -8.578388 1.716868 -19.598661
v -13.212074 1.450005 -19.598661
v -13.212074 1.716868 -19.598661
v -18.387077 1.450005 -19.598661
v -18.387077 1.716868 -19.598661
v -22.994032 1.450005 -19.598661
v -22.994032 1.716868 -19.598661
v -28.221697 1.450005 -19.598661
v -28.221697 1.716868 -19.598661
v -32.812111 1.450005 -19.598661
v -32.812111 1.716868 -19.598661
v 85.375816 1.450004 -19.829460
v 85.375816 1.450004 -20.060261
v 85.375816 1.716867 -19.829460
v 85.375816 1.716867 -20.060261
v 85.375816 1.450005 -19.598658
v 85.375816 1.716868 -19.598658
v 80.763229 1.450005 -19.598658
v 80.763229 1.716868 -19.598658
v 75.544785 1.450004 -19.829458
v 75.544807 1.450004 -20.060261
v 75.544785 1.716867 -19.829458
v 75.544807 1.716867 -20.060261
v 75.544785 1.450005 -19.598658
v 75.544785 1.716868 -19.598658
v 80.763229 1.450004 -19.829458
v 80.763229 1.450004 -20.060261
v 80.763229 1.716867 -19.829458
v 80.763229 1.716867 -20.060261
v 71.008080 1.450004 -19.829458
v 71.008080 1.450004 -20.060259
v 71.008080 1.716867 -19.829458
v 71.008080 1.716867 -20.060259
v 71.008057 1.450005 -19.598656
v 71.008057 1.716868 -19.598656
v 65.784851 1.450005 -19.598656
v 65.784851 1.716868 -19.598656
v 61.133549 1.450004 -19.829458
v 61.133575 1.450004 -20.060259
v 61.133549 1.716867 -19.829458
v 61.133575 1.716867 -20.060259
v 61.133522 1.450005 -19.598656
v 61.133522 1.716868 -19.598656
v 65.784851 1.450004 -19.829458
v 65.784874 1.450004 -20.060259
v 65.784851 1.716867 -19.829458
v 65.784874 1.716867 -20.060259
v 55.957924 1.450004 -19.829456
v 55.957951 1.450004 -20.060259
v 55.957924 1.716867 -19.829456
v 55.957951 1.716867 -20.060259
v 55.957901 1.450005 -19.598656
v 55.957901 1.716868 -19.598656
v 51.331963 1.450004 -19.829456
v 51.331985 1.450004 -20.060259
v 51.331963 1.716867 -19.829456
v 51.331985 1.716867 -20.060259
v 51.331963 1.450005 -19.598656
v 51.331963 1.716868 -19.598656
v 41.531418 1.450004 -20.060257
v 41.531418 1.716867 -20.060257
v 46.161819 1.450004 -19.829456
v 46.161819 1.450004 -20.060257
v 46.161819 1.716867 -19.829456
v 46.161819 1.716867 -20.060257
v 36.299271 1.450004 -19.829456
v 36.299294 1.450004 -20.060257
v 36.299271 1.716867 -19.829456
v 36.299294 1.716867 -20.060257
v 31.686684 1.450004 -19.829456
v 31.686710 1.450004 -20.060257
v 31.686684 1.716867 -19.829454
v 31.686710 1.716867 -20.060257
v 46.161819 1.450005 -19.598656
v 46.161819 1.716868 -19.598656
v 41.531395 1.450005 -19.598656
v 41.531395 1.450004 -19.829456
v 41.531395 1.716868 -19.598656
v 41.531395 1.716867 -19.829456
v 36.299271 1.450005 -19.598656
v 36.299271 1.716868 -19.598656
v 31.686684 1.450005 -19.598654
v 31.686684 1.716868 -19.598654
v 150.423416 1.450004 -19.814445
v 150.423416 1.450004 -20.045248
v 150.423416 1.716867 -19.814445
v 150.423416 1.716867 -20.045248
v 150.423416 1.450005 -19.583645
v 150.423416 1.716868 -19.583645
v 145.805298 1.450004 -19.807791
v 145.805298 1.450004 -20.038593
v 145.805298 1.716867 -19.807791
v 145.805298 1.716867 -20.038593
v 145.805298 1.450005 -19.576990
v 145.805298 1.716868 -19.576990
v 140.747345 1.450004 -19.815908
v 140.747345 1.450004 -20.046709
v 140.747345 1.716867 -19.815908
v 140.747345 1.716867 -20.046709
v 140.747345 1.450005 -19.585106
v 140.747345 1.716868 -19.585106
v 136.125854 1.450004 -19.829462
v 136.125854 1.450004 -20.060263
v 136.125854 1.716867 -19.829462
v 136.125854 1.716867 -20.060263
v 136.125854 1.450005 -19.598661
v 136.125854 1.716868 -19.598661
v 130.956543 1.450004 -19.808338
v 130.956543 1.450004 -20.039139
v 130.956543 1.716867 -19.808338
v 130.956543 1.716867 -20.039139
v 130.956543 1.450005 -19.577538
v 130.956543 1.716868 -19.577538
v 126.329254 1.450004 -19.809513
v 126.329254 1.450004 -20.040314
v 126.329254 1.716867 -19.809513
v 126.329254 1.716867 -20.040314
v 126.329254 1.450005 -19.578711
v 126.329254 1.716868 -19.578711
v 120.701775 1.450004 -19.814444
v 120.701775 1.450004 -20.045246
v 120.701775 1.716867 -19.814444
v 120.701775 1.716867 -20.045246
v 120.701775 1.450005 -19.583643
v 120.701775 1.716868 -19.583643
v 116.083656 1.450004 -19.807789
v 116.083656 1.450004 -20.038589
v 116.083656 1.716867 -19.807789
v 116.083656 1.716867 -20.038589
v 116.083656 1.450005 -19.576988
v 116.083656 1.716868 -19.576988
v 111.025696 1.450004 -19.815907
v 111.025696 1.450004 -20.046707
v 111.025696 1.716867 -19.815907
v 111.025696 1.716867 -20.046707
v 111.025696 1.450005 -19.585106
v 111.025696 1.716868 -19.585106
v 106.404221 1.450004 -19.829460
v 106.404221 1.450004 -20.060263
v 106.404221 1.716867 -19.829460
v 106.404221 1.716867 -20.060263
v 106.404221 1.450005 -19.598660
v 106.404221 1.716868 -19.598660
v 101.358971 1.450005 -19.598660
v 101.358971 1.450004 -19.829460
v 101.358971 1.716868 -19.598660
v 101.358971 1.716867 -19.829460
v 96.728561 1.450004 -19.829460
v 96.728561 1.450004 -20.060261
v 96.728561 1.716867 -19.829460
v 96.728561 1.716867 -20.060261
v 96.728561 1.450005 -19.598660
v 96.728561 1.716868 -19.598660
v 101.358971 1.450004 -20.060261
v 101.358971 1.716867 -20.060261
v -126.841125 0.784059 -15.906951
v -126.841125 1.091795 -15.906951
v -126.841110 1.091795 -16.137743
v -126.841110 0.784059 -16.137743
v -126.841110 1.091795 -16.368547
v -126.841110 0.784059 -16.368547
v -263.047058 4.612919 7.031454
v -262.938782 4.612918 6.827634
v -263.047058 4.920654 7.031454
v -262.938782 4.920652 6.827634
v -263.155457 4.612918 7.235223
v -263.155457 4.920653 7.235223
v -306.665741 9.987564 -113.878166
v -306.883453 9.991670 -113.801529
v -306.665741 10.295300 -113.878159
v -306.883453 10.299407 -113.801529
v -306.448059 9.983544 -113.954788
v -306.448059 10.291282 -113.954788
v -292.128418 16.810022 -232.832138
v -291.959412 16.818163 -232.674988
v -292.128418 17.117758 -232.832138
v -291.959412 17.125898 -232.674988
v -292.297394 16.801867 -232.989365
v -292.297394 17.109602 -232.989334
v -236.450867 21.651573 -325.750732
v -236.680405 21.651573 -325.726532
v -236.450867 21.959309 -325.750732
v -236.680405 21.959309 -325.726532
v -236.221375 21.651573 -325.774902
v -236.221375 21.959309 -325.774902
v -272.229614 22.332514 -491.638428
v -272.224121 22.332514 -491.407715
v -272.229614 22.640249 -491.638428
v -272.224121 22.640249 -491.407715
v -272.235077 22.332514 -491.869202
v -272.235077 22.640249 -491.869202
v -295.786133 22.318050 -429.864288
v -295.592346 22.318050 -429.987762
v -295.786133 22.624458 -429.864288
v -295.592346 22.624458 -429.987762
v -295.979950 22.318050 -429.740814
v -295.979950 22.624458 -429.740814
v -38.307396 13.402256 -331.898651
v -38.348839 13.402251 -331.671600
v -38.307396 13.709991 -331.898651
v -38.348839 13.709986 -331.671600
v -38.265938 13.402262 -332.125702
v -38.265938 13.709996 -332.125702
v -152.388626 16.879675 -383.618958
v -152.388626 17.187410 -383.618958
v -152.529114 17.187410 -383.435852
v -152.529114 16.879675 -383.435852
v -152.669632 17.187410 -383.252747
v -152.669632 16.879675 -383.252747
v 82.891022 14.211542 -311.660004
v 82.891022 14.519278 -311.660004
v 82.896469 14.519268 -311.429230
v 82.896469 14.211533 -311.429230
v 82.901924 14.519258 -311.198486
v 82.901924 14.211523 -311.198486
v 201.166214 15.059808 -365.461151
v 201.167130 15.059802 -365.230347
v 201.166214 15.367543 -365.461151
v 201.167130 15.367537 -365.230347
v 201.165344 15.059812 -365.691986
v 201.165344 15.367547 -365.691986
v 278.986267 15.199583 -421.547089
v 279.184204 15.199583 -421.665771
v 278.986267 15.507319 -421.547089
v 279.184204 15.507319 -421.665771
v 278.788300 15.199583 -421.428375
v 278.788300 15.507319 -421.428375
v 411.814758 14.292208 -465.194458
v 411.680969 14.292204 -465.382538
v 411.814758 14.599941 -465.194458
v 411.680969 14.599939 -465.382538
v 411.948608 14.292208 -465.006439
v 411.948608 14.599941 -465.006439
v 540.359680 8.481302 -558.210205
v 540.237061 8.481302 -558.014648
v 540.359680 8.789037 -558.210205
v 540.237061 8.789037 -558.014648
v 540.482361 8.481302 -558.405701
v 540.482361 8.789037 -558.405701
v 525.639709 0.978457 -407.787659
v 525.854858 0.983141 -407.704071
v 525.639709 1.286193 -407.787659
v 525.854858 1.290876 -407.704071
v 525.424622 0.973874 -407.871216
v 525.424622 1.281610 -407.871216
v 523.133667 -1.096806 -302.869843
v 522.912292 -1.096806 -302.804504
v 523.133667 -0.789071 -302.869843
v 522.912292 -0.789071 -302.804504
v 523.355042 -1.096806 -302.935150
v 523.355042 -0.789071 -302.935150
v 536.226440 -1.096797 -183.751984
v 536.226440 -0.789061 -183.751984
v 536.005066 -0.789061 -183.686813
v 536.005066 -1.096797 -183.686813
v 535.783630 -0.789061 -183.621643
v 535.783630 -1.096797 -183.621643
v 403.669098 -1.096822 -19.983587
v 403.669098 -0.789086 -19.983587
v 403.604156 -0.789087 -20.205074
v 403.604156 -1.096822 -20.205074
v 403.539154 -0.789087 -20.426491
v 403.539154 -1.096822 -20.426491
v 232.203781 -0.268062 -15.907094
v 232.203781 -0.268062 -16.137894
v 232.203781 0.039674 -16.137894
v 232.203781 0.039674 -15.907094
v 232.203781 -0.268062 -16.368694
v 232.203781 0.039674 -16.368694
v -8.778809 0.512193 13.440961
v -8.778809 0.512193 13.210162
v -8.778809 0.819928 13.440961
v -8.778809 0.819928 13.210162
v -8.778809 0.512193 13.671765
v -8.778809 0.819928 13.671765
v 548.266724 -1.096788 -45.791019
v 548.266724 -0.789052 -45.791019
v 548.497498 -0.789052 -45.787159
v 548.497498 -1.096788 -45.787159
v 548.728271 -0.789052 -45.783295
v 548.728271 -1.096788 -45.783295
v -300.741180 22.318041 -551.295654
v -300.971008 22.318041 -551.295654
v -300.741180 22.624449 -551.295654
v -300.511383 22.624449 -551.295654
v -300.511383 22.318041 -551.295654
v -300.971008 22.624449 -551.295654
v 222.177246 15.418024 -475.606567
v 222.042480 15.418024 -475.410248
v 222.177261 15.724432 -475.606567
v 222.042480 15.724432 -475.410248
v 222.311966 15.418025 -475.802887
v 222.311966 15.724432 -475.802887
v 252.120117 25.931931 -636.881042
v 252.023010 25.931931 -637.089355
v 252.120117 26.238337 -636.881042
v 252.023010 26.238337 -637.089355
v 252.217224 25.931931 -636.672791
v 252.217239 26.238337 -636.672791
v 345.650696 31.005705 -728.928955
v 345.747803 31.005705 -728.720703
v 345.650696 31.312113 -728.928955
v 345.747803 31.312113 -728.720703
v 345.553558 31.005705 -729.137268
v 345.553558 31.312113 -729.137268
v -320.253662 21.395306 -603.742432
v -320.023865 21.395306 -603.742432
v -320.253662 21.701714 -603.742432
v -320.023865 21.701714 -603.742432
v -320.483459 21.395306 -603.742432
v -320.483459 21.701714 -603.742432
v -303.194519 8.634278 -722.515991
v -303.421600 8.634278 -722.515991
v -303.194519 8.940686 -722.515991
v -303.421600 8.940687 -722.515991
v -302.967438 8.634278 -722.515991
v -302.967438 8.940687 -722.515991
v -270.923950 -4.258773 -850.450989
v -270.870575 -4.264857 -850.227417
v -270.923950 -3.952369 -850.450989
v -270.870575 -3.958449 -850.227417
v -270.977142 -4.252826 -850.674622
v -270.977142 -3.946418 -850.674622
v -175.621552 -4.666664 -756.264465
v -175.758575 -4.666664 -756.080017
v -175.621552 -4.360256 -756.264465
v -175.758575 -4.360256 -756.080017
v -175.484451 -4.666664 -756.448792
v -175.484451 -4.360256 -756.448792
v -73.793030 6.914749 -775.248291
v -74.050568 6.913151 -775.336853
v -73.793030 7.221158 -775.248291
v -74.050568 7.219559 -775.336853
v -73.535568 6.916319 -775.159546
v -73.535568 7.222727 -775.159546
v -5.630371 17.642611 -892.591064
v -5.632294 17.640638 -892.361206
v -5.630371 17.949017 -892.591064
v -5.632294 17.947046 -892.361206
v -5.628326 17.644539 -892.820801
v -5.628326 17.950947 -892.820801
v 107.754936 21.321934 -904.280640
v 107.851250 21.321934 -904.063843
v 107.754936 21.628342 -904.280640
v 107.851250 21.628342 -904.063843
v 107.658607 21.321934 -904.497498
v 107.658607 21.628342 -904.497498
v 361.692993 35.930202 -979.511780
v 361.561188 35.920338 -979.323547
v 361.692993 36.236935 -979.511780
v 361.561188 36.227070 -979.323547
v 361.824799 35.940083 -979.700012
v 361.824799 36.246815 -979.700012
v 450.276337 33.001575 -900.328064
v 450.144562 32.999008 -900.139832
v 450.276337 33.307964 -900.328064
v 450.144562 33.305397 -900.139832
v 450.408112 33.004173 -900.516296
v 450.408112 33.310562 -900.516296
v 219.941925 32.825336 -945.737976
v 219.844513 32.820759 -945.925781
v 219.941925 33.131744 -945.737976
v 219.844513 33.127163 -945.925781
v 220.039337 32.829868 -945.550293
v 220.039337 33.136276 -945.550293
v 415.704224 31.766768 -720.593628
v 415.607178 31.766768 -720.801880
v 415.704224 32.073174 -720.593628
v 415.607178 32.073174 -720.801880
v 415.801331 31.766768 -720.385315
v 415.801331 32.073174 -720.385315
v 160.172714 20.739859 -570.277344
v 160.402512 20.739859 -570.277283
v 160.172714 21.046267 -570.277283
v 160.402512 21.046265 -570.277283
v 159.942917 20.739859 -570.277344
v 159.942917 21.046267 -570.277344
vn 1.0000 -0.0000 0.0001
vn 1.0000 -0.0000 0.0002
vn 1.0000 -0.0000 0.0003
vn 1.0000 -0.0000 -0.0000
vn -1.0000 -0.0000 -0.0001
vn -1.0000 -0.0000 -0.0000
vn 0.8830 -0.0000 0.4694
vn 0.8831 -0.0000 0.4691
vn 0.8829 -0.0000 0.4697
vn 0.8829 -0.0000 0.4696
vn -0.3321 -0.0000 -0.9433
vn -0.3320 -0.0000 -0.9433
vn -0.3322 -0.0000 -0.9432
vn -0.3321 -0.0000 -0.9432
vn -0.6810 -0.0000 0.7322
vn -0.6810 -0.0000 0.7323
vn -0.6812 -0.0001 0.7321
vn -0.6811 -0.0000 0.7322
vn -0.1048 -0.0000 -0.9945
vn -0.1047 -0.0000 -0.9945
vn -0.1049 -0.0000 -0.9945
vn -0.9997 -0.0000 0.0237
vn -0.9997 -0.0000 0.0238
vn 0.5373 -0.0000 0.8434
vn 0.5374 -0.0000 0.8433
vn 0.5372 -0.0000 0.8435
vn -0.9837 -0.0000 -0.1796
vn 0.7934 -0.0000 0.6087
vn 0.7933 -0.0000 0.6088
vn 0.9997 -0.0000 -0.0236
vn -1.0000 -0.0000 0.0039
vn -1.0000 -0.0000 0.0040
vn -1.0000 -0.0000 0.0038
vn 0.5144 -0.0000 0.8576
vn 0.5142 -0.0000 0.8577
vn 0.5140 -0.0000 0.8578
vn 0.5146 -0.0000 0.8575
vn 0.8149 -0.0000 -0.5796
vn 0.8150 -0.0000 -0.5795
vn 0.8147 -0.0000 -0.5799
vn 0.8148 -0.0000 -0.5798
vn 0.8148 -0.0000 -0.5797
vn 0.8146 -0.0000 -0.5800
vn -0.8471 -0.0000 -0.5314
vn -0.8472 -0.0000 -0.5312
vn -0.8472 -0.0000 -0.5313
vn -0.8470 -0.0000 -0.5316
vn -0.8471 -0.0000 -0.5315
vn -0.3622 -0.0000 0.9321
vn -0.3621 -0.0000 0.9321
vn -0.3620 -0.0000 0.9322
vn -0.2830 -0.0000 -0.9591
vn -0.2829 -0.0000 -0.9591
vn 0.2824 -0.0000 0.9593
vn 0.2823 -0.0000 0.9593
vn 0.2825 -0.0000 0.9593
vn -0.9596 -0.0000 0.2814
vn -0.9596 -0.0000 0.2815
vn -0.9595 -0.0000 0.2817
vn 0.0167 -0.0000 -0.9999
vn -0.0000 -0.0000 -1.0000
vn -0.8245 -0.0000 -0.5659
vn -0.8244 0.0001 -0.5659
vn -0.8245 -0.0000 -0.5658
vn -0.8246 -0.0000 -0.5656
vn -0.8245 0.0001 -0.5658
vn 0.9064 -0.0000 -0.4225
vn 0.9063 -0.0000 -0.4226
vn 0.9062 -0.0000 -0.4228
vn 0.9063 -0.0000 -0.4227
vn -0.9063 -0.0000 0.4226
vn -0.9063 -0.0000 0.4227
vn -0.9063 -0.0000 0.4225
vn -0.0000 -0.0000 1.0000
vn -0.9727 -0.0000 0.2319
vn -0.9727 -0.0000 0.2322
vn -0.9728 -0.0000 0.2317
vn -0.9727 -0.0000 0.2321
vn -0.9728 -0.0000 0.2315
vn -0.9729 -0.0000 0.2314
vn -0.8026 -0.0000 -0.5966
vn -0.8027 -0.0000 -0.5963
vn -0.8025 -0.0000 -0.5966
vn -0.8024 -0.0000 -0.5967
vn -0.8023 -0.0000 -0.5969
vn 0.3257 -0.0000 -0.9455
vn 0.3253 -0.0000 -0.9456
vn 0.3256 -0.0000 -0.9455
vn 0.3251 -0.0000 -0.9457
vn 0.3259 -0.0000 -0.9454
vn -1.0000 -0.0000 -0.0086
vn -1.0000 -0.0000 -0.0084
vn -1.0000 -0.0000 -0.0089
vn -0.9139 -0.0000 0.4059
vn -0.9138 -0.0000 0.4061
vn -0.9139 -0.0000 0.4060
vn -0.8192 -0.0000 -0.5736
vn -0.8191 -0.0000 -0.5736
vn -0.8192 -0.0000 -0.5735
vn -0.8192 -0.0000 -0.5734
vn -0.8190 -0.0000 -0.5739
vn 0.8876 -0.0000 -0.4606
vn 0.8877 -0.0000 -0.4605
vn 0.8876 -0.0000 -0.4607
vn 0.8875 -0.0000 -0.4607
vn 0.8875 -0.0000 -0.4608
vn 0.9064 -0.0000 -0.4224
vn -0.0002 -0.0001 1.0000
vn -0.0004 -0.0001 1.0000
vn -0.0004 -0.0000 1.0000
vn -0.0000 -0.0001 1.0000
vt 0.387800 1.500717
vt 0.506008 1.500717
vt 0.387800 1.987366
vt 0.506008 1.987366
vt 0.485069 1.489494
vt 0.603278 1.489494
vt 0.485069 1.976143
vt 0.603278 1.976143
vt 0.670254 1.502588
vt 0.788463 1.502588
vt 0.670254 1.989237
vt 0.788463 1.989237
vt 0.571040 1.501062
vt 0.695058 1.501062
vt 0.571040 2.003493
vt 0.695058 2.003493
vt 0.761911 1.495106
vt 0.880120 1.495106
vt 0.761911 1.981755
vt 0.880120 1.981755
vt 0.109013 1.497321
vt 0.233031 1.497321
vt 0.109013 1.999752
vt 0.233031 1.999752
vt 0.861051 1.513811
vt 0.979259 1.513811
vt 0.861051 2.000460
vt 0.979259 2.000460
vt 0.193188 1.499191
vt 0.317206 1.499191
vt 0.193188 2.001623
vt 0.317206 2.001623
vt 0.110957 1.511941
vt 0.229166 1.511941
vt 0.110957 1.998590
vt 0.229166 1.998590
vt 0.002391 1.510414
vt 0.126409 1.510414
vt 0.002391 2.012846
vt 0.126409 2.012846
vt 0.213838 1.495106
vt 0.332047 1.495106
vt 0.213838 1.981755
vt 0.332047 1.981755
vt 0.303551 1.504803
vt 0.427569 1.504803
vt 0.303551 2.007234
vt 0.427569 2.007234
vt 0.529929 1.011223
vt 0.738122 1.011223
vt 0.529929 1.590348
vt 0.738122 1.590348
vt 0.000000 1.497568
vt 0.124018 1.497568
vt 0.000000 2.000000
vt 0.124018 2.000000
vt 0.099140 1.499439
vt 0.223157 1.499439
vt 0.099140 2.001871
vt 0.223157 2.001871
vt 0.194798 1.509250
vt 0.318816 1.509250
vt 0.194798 2.011682
vt 0.318816 2.011682
vt 0.290457 1.514156
vt 0.414475 1.514156
vt 0.290457 2.016587
vt 0.414475 2.016587
vt 0.388568 1.514156
vt 0.512586 1.514156
vt 0.388568 2.016587
vt 0.512586 2.016587
vt 0.471963 1.514156
vt 0.595981 1.514156
vt 0.471963 2.016587
vt 0.595981 2.016587
vt 0.570520 1.516274
vt 0.694538 1.516274
vt 0.570520 2.018705
vt 0.694538 2.018705
vt 0.664048 1.505050
vt 0.788066 1.505050
vt 0.664048 2.007482
vt 0.788066 2.007482
vt 0.757836 1.509250
vt 0.881854 1.509250
vt 0.757836 2.011682
vt 0.881854 2.011682
vt 0.212495 1.003741
vt 0.212495 1.582866
vt 0.004302 1.582866
vt 0.004302 1.003741
vt 0.221287 1.001871
vt 0.429480 1.001871
vt 0.221287 1.580995
vt 0.429480 1.580995
vt 0.101010 1.499439
vt 0.225028 1.499439
vt 0.101010 2.001871
vt 0.225028 2.001871
s 1
usemtl CNUMB
f 1/1/1 2/2/2 3/3/1
f 4/4/2 3/3/1 2/2/2
f 18/5/1 5/6/2 20/7/1
f 6/8/2 20/7/1 5/6/2
f 24/9/2 7/10/3 26/11/2
f 8/12/3 26/11/2 7/10/3
f 9/13/1 10/14/2 11/15/1
f 12/16/2 11/15/1 10/14/2
f 28/17/2 13/18/3 30/19/2
f 14/20/3 30/19/2 13/18/3
f 15/21/4 1/22/1 16/23/4
f 3/24/1 16/23/4 1/22/1
f 17/21/4 18/22/1 19/23/4
f 20/24/1 19/23/4 18/22/1
f 21/21/4 9/22/1 22/23/4
f 11/24/1 22/23/4 9/22/1
f 23/21/4 24/22/2 25/23/4
f 26/24/2 25/23/4 24/22/2
f 27/21/4 28/22/2 29/23/4
f 30/24/2 29/23/4 28/22/2
f 31/25/1 32/26/1 33/27/1
f 34/28/1 33/27/1 32/26/1
f 35/29/1 31/30/1 36/31/1
f 33/32/1 36/31/1 31/30/1
f 37/33/1 38/34/1 39/35/1
f 40/36/1 39/35/1 38/34/1
f 41/37/1 42/38/1 43/39/1
f 44/40/1 43/39/1 42/38/1
f 45/41/1 46/42/2 47/43/1
f 48/44/2 47/43/1 46/42/2
f 49/1/1 50/2/2 51/3/1
f 52/4/2 51/3/1 50/2/2
f 53/45/1 54/46/1 55/47/1
f 56/48/1 55/47/1 54/46/1
f 57/5/1 58/6/1 59/7/1
f 60/8/1 59/7/1 58/6/1
f 61/29/4 41/30/1 62/31/4
f 43/32/1 62/31/4 41/30/1
f 63/29/1 37/30/1 64/31/1
f 39/32/1 64/31/1 37/30/1
f 65/29/4 45/30/1 66/31/4
f 47/32/1 66/31/4 45/30/1
f 67/29/4 53/30/1 68/31/4
f 55/32/1 68/31/4 53/30/1
f 69/29/4 49/30/1 70/31/4
f 51/32/1 70/31/4 49/30/1
f 71/29/1 57/30/1 72/31/1
f 59/32/1 72/31/1 57/30/1
f 73/41/4 74/42/4 75/43/4
f 76/44/4 75/43/4 74/42/4
f 77/37/4 73/38/4 78/39/4
f 75/40/4 78/39/4 73/38/4
f 79/37/4 87/38/4 80/39/4
f 89/40/4 80/39/4 87/38/4
f 81/1/4 82/2/1 83/3/4
f 84/4/1 83/3/4 82/2/1
f 85/37/4 81/38/4 86/39/4
f 83/40/4 86/39/4 81/38/4
f 87/45/4 88/46/4 89/47/4
f 90/48/4 89/47/4 88/46/4
f 91/5/4 92/6/4 93/7/4
f 94/8/4 93/7/4 92/6/4
f 95/37/1 91/38/4 96/39/1
f 93/40/4 96/39/1 91/38/4
f 97/37/4 105/38/4 98/39/4
f 107/40/4 98/39/4 105/38/4
f 99/9/1 100/10/1 101/11/1
f 102/12/1 101/11/1 100/10/1
f 103/37/1 99/38/1 104/39/1
f 101/40/1 104/39/1 99/38/1
f 105/13/4 106/14/1 107/15/4
f 108/16/1 107/15/4 106/14/1
f 109/17/1 110/18/1 111/19/1
f 112/20/1 111/19/1 110/18/1
f 113/37/1 109/38/1 114/39/1
f 111/40/1 114/39/1 109/38/1
f 115/25/4 116/26/1 117/27/4
f 118/28/1 117/27/4 116/26/1
f 119/21/4 115/22/4 120/23/4
f 117/24/4 120/23/4 115/22/4
f 138/33/4 121/34/1 140/35/4
f 122/36/1 140/35/4 121/34/1
f 123/37/4 124/38/4 125/39/4
f 126/40/4 125/39/4 124/38/4
f 127/41/4 128/42/1 129/43/4
f 130/44/1 129/43/4 128/42/1
f 131/45/1 132/46/1 133/47/1
f 134/48/1 133/47/1 132/46/1
f 135/21/4 123/22/4 136/23/4
f 125/24/4 136/23/4 123/22/4
f 137/21/4 138/22/4 139/23/4
f 140/24/4 139/23/4 138/22/4
f 141/21/4 127/22/4 142/23/4
f 129/24/4 142/23/4 127/22/4
f 143/21/4 131/22/1 144/23/4
f 133/24/1 144/23/4 131/22/1
f 145/49/4 146/50/4 147/51/4
f 148/52/4 147/51/4 146/50/4
f 149/53/4 145/54/4 150/55/4
f 147/56/4 150/55/4 145/54/4
f 151/49/4 152/50/4 153/51/4
f 154/52/4 153/51/4 152/50/4
f 155/57/4 151/58/4 156/59/4
f 153/60/4 156/59/4 151/58/4
f 157/49/4 158/50/4 159/51/4
f 160/52/4 159/51/4 158/50/4
f 161/61/4 157/62/4 162/63/4
f 159/64/4 162/63/4 157/62/4
f 163/49/4 164/50/4 165/51/4
f 166/52/4 165/51/4 164/50/4
f 167/65/4 163/66/4 168/67/4
f 165/68/4 168/67/4 163/66/4
f 169/49/4 170/50/4 171/51/4
f 172/52/4 171/51/4 170/50/4
f 173/69/4 169/70/4 174/71/4
f 171/72/4 174/71/4 169/70/4
f 175/49/4 176/50/4 177/51/4
f 178/52/4 177/51/4 176/50/4
f 179/73/4 175/74/4 180/75/4
f 177/76/4 180/75/4 175/74/4
f 181/49/4 182/50/4 183/51/4
f 184/52/4 183/51/4 182/50/4
f 185/77/4 181/78/4 186/79/4
f 183/80/4 186/79/4 181/78/4
f 187/49/4 188/50/4 189/51/4
f 190/52/4 189/51/4 188/50/4
f 191/81/4 187/82/4 192/83/4
f 189/84/4 192/83/4 187/82/4
f 193/49/4 194/50/4 195/51/4
f 196/52/4 195/51/4 194/50/4
f 197/85/4 193/86/4 198/87/4
f 195/88/4 198/87/4 193/86/4
f 199/25/4 200/26/4 201/27/4
f 202/28/4 201/27/4 200/26/4
f 203/37/4 199/38/4 204/39/4
f 201/40/4 204/39/4 199/38/4
f 205/37/4 206/38/4 207/39/4
f 208/40/4 207/39/4 206/38/4
f 209/33/4 210/34/4 211/35/4
f 212/36/4 211/35/4 210/34/4
f 213/37/4 209/38/4 214/39/4
f 211/40/4 214/39/4 209/38/4
f 206/37/4 215/38/4 208/39/4
f 216/40/4 208/39/4 215/38/4
f 217/89/5 218/90/5 219/91/6
f 219/91/6 220/92/6 217/89/5
f 220/54/6 219/56/6 221/55/6
f 221/55/6 222/53/6 220/54/6
f 223/93/7 224/94/8 225/95/7
f 226/96/8 225/95/7 224/94/8
f 227/97/9 223/98/7 228/99/10
f 225/100/7 228/99/10 223/98/7
f 229/92/11 230/89/12 231/91/12
f 232/90/12 231/91/12 230/89/12
f 233/53/13 229/54/11 234/55/14
f 231/56/12 234/55/14 229/54/11
f 235/93/15 236/94/16 237/95/16
f 238/96/16 237/95/16 236/94/16
f 239/97/17 235/98/15 240/99/18
f 237/100/16 240/99/18 235/98/15
f 241/92/19 242/89/19 243/91/20
f 244/90/19 243/91/20 242/89/19
f 245/53/21 241/54/19 246/55/20
f 243/56/20 246/55/20 241/54/19
f 247/93/22 248/94/23 249/95/22
f 250/96/23 249/95/22 248/94/23
f 251/97/22 247/98/22 252/99/22
f 249/100/22 252/99/22 247/98/22
f 253/93/24 254/94/25 255/95/24
f 256/96/25 255/95/24 254/94/25
f 257/97/25 253/98/24 258/99/26
f 255/100/24 258/99/26 253/98/24
f 259/93/27 260/94/27 261/95/27
f 262/96/27 261/95/27 260/94/27
f 263/97/27 259/98/27 264/99/27
f 261/100/27 264/99/27 259/98/27
f 265/89/28 266/90/29 267/91/29
f 267/91/29 268/92/28 265/89/28
f 268/54/28 267/56/29 269/55/29
f 269/55/29 270/53/29 268/54/28
f 271/89/30 272/90/30 273/91/30
f 273/91/30 274/92/30 271/89/30
f 274/54/30 273/56/30 275/55/30
f 275/55/30 276/53/30 274/54/30
f 277/93/31 278/94/32 279/95/31
f 280/96/32 279/95/31 278/94/32
f 281/97/33 277/98/31 282/99/33
f 279/100/31 282/99/33 277/98/31
f 283/93/34 284/94/35 285/95/35
f 286/96/36 285/95/35 284/94/35
f 287/97/37 283/98/34 288/99/34
f 285/100/35 288/99/34 283/98/34
f 289/93/38 290/94/39 291/95/40
f 292/96/41 291/95/40 290/94/39
f 293/97/42 289/98/38 294/99/43
f 291/100/40 294/99/43 289/98/38
f 295/92/44 296/89/45 297/91/46
f 298/90/45 297/91/46 296/89/45
f 299/53/47 295/54/44 300/55/48
f 297/56/46 300/55/48 295/54/44
f 301/93/49 302/94/49 303/95/50
f 304/96/51 303/95/50 302/94/49
f 305/97/50 301/98/49 306/99/50
f 303/100/50 306/99/50 301/98/49
f 307/92/52 308/89/52 309/91/52
f 310/90/53 309/91/52 308/89/52
f 311/53/53 307/54/52 312/55/53
f 309/56/52 312/55/53 307/54/52
f 313/89/54 314/90/54 315/91/55
f 315/91/55 316/92/54 313/89/54
f 316/54/54 315/56/55 317/55/55
f 317/55/55 318/53/56 316/54/54
f 319/89/57 320/90/57 321/91/58
f 321/91/58 322/92/58 319/89/57
f 322/54/58 321/56/58 323/55/59
f 323/55/59 324/53/59 322/54/58
f 325/89/4 326/92/4 327/91/4
f 327/91/4 328/90/4 325/89/4
f 326/54/4 329/53/4 330/55/4
f 330/55/4 327/56/4 326/54/4
f 331/93/4 332/94/4 333/95/4
f 334/96/4 333/95/4 332/94/4
f 335/97/4 331/98/4 336/99/4
f 333/100/4 336/99/4 331/98/4
f 337/94/60 338/96/60 339/95/60
f 339/95/60 340/93/60 337/94/60
f 340/98/60 339/100/60 341/99/60
f 341/99/60 342/97/60 340/98/60
f 343/92/61 344/89/61 345/91/61
f 345/56/61 346/55/61 343/54/61
f 347/53/61 343/54/61 346/55/61
f 348/90/61 345/91/61 344/89/61
f 349/92/62 350/89/62 351/91/63
f 352/90/64 351/91/63 350/89/62
f 353/53/65 349/54/62 354/55/66
f 351/56/63 354/55/66 349/54/62
f 355/92/67 356/89/67 357/91/68
f 358/90/69 357/91/68 356/89/67
f 359/53/69 355/54/67 360/55/70
f 357/56/68 360/55/70 355/54/67
f 361/93/71 362/94/71 363/95/72
f 364/96/71 363/95/72 362/94/71
f 365/97/73 361/98/71 366/99/71
f 363/100/72 366/99/71 361/98/71
f 367/93/74 368/94/74 369/95/74
f 370/96/74 369/95/74 368/94/74
f 371/97/74 367/98/74 372/99/74
f 369/100/74 372/99/74 367/98/74
f 373/92/61 374/89/61 375/91/61
f 376/90/61 375/91/61 374/89/61
f 377/53/61 373/54/61 378/55/61
f 375/56/61 378/55/61 373/54/61
f 379/93/75 380/94/76 381/95/77
f 382/96/78 381/95/77 380/94/76
f 383/97/79 379/98/75 384/99/80
f 381/100/77 384/99/80 379/98/75
f 385/93/81 386/94/82 387/95/83
f 388/96/82 387/95/83 386/94/82
f 389/97/84 385/98/81 390/99/85
f 387/100/83 390/99/85 385/98/81
f 391/92/86 392/89/87 393/91/88
f 394/90/89 393/91/88 392/89/87
f 395/53/90 391/54/86 396/55/90
f 393/56/88 396/55/90 391/54/86
f 397/93/91 398/94/92 399/95/91
f 400/96/92 399/95/91 398/94/92
f 401/97/93 397/98/91 402/99/93
f 399/100/91 402/99/93 397/98/91
f 403/93/94 404/94/94 405/95/95
f 406/96/95 405/95/95 404/94/94
f 407/97/94 403/98/94 408/99/96
f 405/100/95 408/99/96 403/98/94
f 409/93/97 410/94/97 411/95/97
f 412/96/97 411/95/97 410/94/97
f 413/97/97 409/98/97 414/99/97
f 411/100/97 414/99/97 409/98/97
f 415/93/98 416/94/99 417/95/99
f 418/96/100 417/95/99 416/94/99
f 419/97/101 415/98/98 420/99/98
f 417/100/99 420/99/98 415/98/98
f 421/92/102 422/89/103 423/91/104
f 424/90/105 423/91/104 422/89/103
f 425/53/106 421/54/102 426/55/105
f 423/56/104 426/55/105 421/54/102
f 427/93/107 428/94/107 429/95/67
f 430/96/107 429/95/67 428/94/107
f 431/97/107 427/98/107 432/99/67
f 429/100/67 432/99/67 427/98/107
f 433/93/108 434/94/109 435/95/108
f 436/96/110 435/95/108 434/94/109
f 437/97/74 433/98/108 438/99/111
f 435/100/108 438/99/111 433/98/108
