# Blender 4.4.3
# www.blender.org
mtllib EBOXA.mtl
o EBOXA
v -0.548857 0.192267 -27.599192
v -0.548857 0.192267 -27.338188
v -0.283644 0.192267 -27.338188
v -0.283644 0.192267 -27.599192
v -0.548857 -0.628630 -27.599192
v -0.548857 -0.628630 -27.338188
v -0.283644 -0.628630 -27.338188
v -0.283644 -0.628630 -27.599192
v -2.396551 1.109954 -21.546413
v -2.396550 1.109954 -23.624762
v -2.750202 1.109954 -23.624763
v -2.750202 1.109954 -21.546413
v -2.396550 1.109954 -24.514482
v -2.396549 1.109954 -26.592833
v -2.750201 1.109954 -26.592833
v -2.750202 1.109954 -24.514482
v 0.588386 1.109954 -24.514482
v 0.588386 1.109954 -26.592831
v 0.234735 1.109954 -26.592831
v 0.234734 1.109954 -24.514482
v 0.588386 1.109954 -21.546413
v 0.588386 1.109954 -23.624762
v 0.234734 1.109954 -23.624762
v 0.234734 1.109954 -21.546413
v 5.164021 0.192267 -27.599192
v 5.164020 0.192267 -27.338188
v 5.429233 0.192267 -27.338188
v 5.429233 0.192267 -27.599192
v 5.164021 -0.628630 -27.599192
v 5.164020 -0.628630 -27.338188
v 5.429233 -0.628630 -27.338188
v 5.429233 -0.628630 -27.599192
v 7.416902 1.109954 -21.546413
v 7.416902 1.109954 -23.624762
v 7.063251 1.109954 -23.624762
v 7.063251 1.109954 -21.546413
v 7.416902 1.109954 -24.514482
v 7.416902 1.109954 -26.592831
v 7.063251 1.109954 -26.592831
v 7.063251 1.109954 -24.514482
v 10.401838 1.109954 -24.514481
v 10.401838 1.109954 -26.592831
v 10.048185 1.109954 -26.592831
v 10.048185 1.109954 -24.514481
v 10.401836 1.109954 -21.546412
v 10.401838 1.109954 -23.624760
v 10.048185 1.109954 -23.624760
v 10.048185 1.109954 -21.546412
v 21.650911 0.192267 -27.599190
v 21.650911 0.192267 -27.338186
v 21.916124 0.192267 -27.338186
v 21.916124 0.192267 -27.599190
v 21.650911 -0.628630 -27.599190
v 21.650911 -0.628630 -27.338186
v 21.916124 -0.628630 -27.338186
v 21.916124 -0.628630 -27.599190
v 17.230076 1.109954 -21.546410
v 17.230076 1.109954 -23.624760
v 16.876427 1.109954 -23.624760
v 16.876427 1.109954 -21.546412
v 17.230076 1.109954 -24.514481
v 17.230076 1.109954 -26.592829
v 16.876427 1.109954 -26.592829
v 16.876427 1.109954 -24.514481
v 20.215015 1.109954 -24.514479
v 20.215015 1.109954 -26.592829
v 19.861362 1.109954 -26.592829
v 19.861362 1.109954 -24.514481
v 20.215015 1.109954 -21.546410
v 20.215015 1.109954 -23.624760
v 19.861362 1.109954 -23.624760
v 19.861362 1.109954 -21.546410
v -29.992254 0.192267 -27.599192
v -29.992254 0.192267 -27.338188
v -29.727041 0.192267 -27.338188
v -29.727041 0.192267 -27.599192
v -29.992254 -0.628630 -27.599192
v -29.992254 -0.628630 -27.338188
v -29.727041 -0.628630 -27.338188
v -29.727041 -0.628630 -27.599192
v -31.839949 1.109954 -21.546413
v -31.839947 1.109954 -23.624762
v -32.193600 1.109954 -23.624763
v -32.193600 1.109954 -21.546413
v -31.839947 1.109954 -24.514482
v -31.839947 1.109954 -26.592833
v -32.193596 1.109954 -26.592833
v -32.193600 1.109954 -24.514482
v -28.855011 1.109954 -24.514482
v -28.855011 1.109954 -26.592831
v -29.208662 1.109954 -26.592831
v -29.208662 1.109954 -24.514482
v -28.855011 1.109954 -21.546413
v -28.855011 1.109954 -23.624762
v -29.208662 1.109954 -23.624762
v -29.208664 1.109954 -21.546413
v -24.279377 0.192267 -27.599192
v -24.279377 0.192267 -27.338188
v -24.014164 0.192267 -27.338188
v -24.014164 0.192267 -27.599192
v -24.279377 -0.628630 -27.599192
v -24.279377 -0.628630 -27.338188
v -24.014164 -0.628630 -27.338188
v -24.014164 -0.628630 -27.599192
v -22.026495 1.109954 -21.546413
v -22.026495 1.109954 -23.624762
v -22.380146 1.109954 -23.624762
v -22.380148 1.109954 -21.546413
v -22.026495 1.109954 -24.514482
v -22.026495 1.109954 -26.592831
v -22.380146 1.109954 -26.592831
v -22.380146 1.109954 -24.514482
v -19.041559 1.109954 -24.514481
v -19.041557 1.109954 -26.592831
v -19.395210 1.109954 -26.592831
v -19.395210 1.109954 -24.514481
v -19.041561 1.109954 -21.546412
v -19.041559 1.109954 -23.624760
v -19.395210 1.109954 -23.624760
v -19.395210 1.109954 -21.546412
v -7.792485 0.192267 -27.599190
v -7.792485 0.192267 -27.338186
v -7.527272 0.192267 -27.338186
v -7.527272 0.192267 -27.599190
v -7.792485 -0.628630 -27.599190
v -7.792485 -0.628630 -27.338186
v -7.527272 -0.628630 -27.338186
v -7.527272 -0.628630 -27.599190
v -12.213322 1.109954 -21.546410
v -12.213321 1.109954 -23.624760
v -12.566971 1.109954 -23.624760
v -12.566971 1.109954 -21.546412
v -12.213321 1.109954 -24.514481
v -12.213320 1.109954 -26.592829
v -12.566970 1.109954 -26.592829
v -12.566971 1.109954 -24.514481
v -9.228382 1.109954 -24.514479
v -9.228382 1.109954 -26.592829
v -9.582035 1.109954 -26.592829
v -9.582035 1.109954 -24.514481
v -9.228382 1.109954 -21.546410
v -9.228382 1.109954 -23.624760
v -9.582035 1.109954 -23.624760
v -9.582035 1.109954 -21.546410
v 63.973873 0.192267 -27.599192
v 63.973873 0.192267 -27.338188
v 64.239090 0.192267 -27.338188
v 64.239090 0.192267 -27.599192
v 63.973873 -0.628630 -27.599192
v 63.973873 -0.628630 -27.338188
v 64.239090 -0.628630 -27.338188
v 64.239090 -0.628630 -27.599192
v 62.126183 1.109954 -21.546413
v 62.126183 1.109954 -23.624762
v 61.772530 1.109954 -23.624763
v 61.772530 1.109954 -21.546413
v 62.126183 1.109954 -24.514482
v 62.126183 1.109954 -26.592833
v 61.772530 1.109954 -26.592833
v 61.772530 1.109954 -24.514482
v 65.111115 1.109954 -24.514482
v 65.111115 1.109954 -26.592831
v 64.757469 1.109954 -26.592831
v 64.757469 1.109954 -24.514482
v 65.111115 1.109954 -21.546413
v 65.111115 1.109954 -23.624762
v 64.757469 1.109954 -23.624762
v 64.757462 1.109954 -21.546413
v 69.686752 0.192267 -27.599192
v 69.686752 0.192267 -27.338188
v 69.951965 0.192267 -27.338188
v 69.951965 0.192267 -27.599192
v 69.686752 -0.628630 -27.599192
v 69.686752 -0.628630 -27.338188
v 69.951965 -0.628630 -27.338188
v 69.951965 -0.628630 -27.599192
v 71.939636 1.109954 -21.546413
v 71.939636 1.109954 -23.624762
v 71.585983 1.109954 -23.624762
v 71.585983 1.109954 -21.546413
v 71.939636 1.109954 -24.514482
v 71.939636 1.109954 -26.592831
v 71.585983 1.109954 -26.592831
v 71.585983 1.109954 -24.514482
v 74.924568 1.109954 -24.514481
v 74.924568 1.109954 -26.592831
v 74.570915 1.109954 -26.592831
v 74.570915 1.109954 -24.514481
v 74.924568 1.109954 -21.546412
v 74.924568 1.109954 -23.624760
v 74.570915 1.109954 -23.624760
v 74.570915 1.109954 -21.546412
v 86.173645 0.192267 -27.599190
v 86.173645 0.192267 -27.338186
v 86.438858 0.192267 -27.338186
v 86.438858 0.192267 -27.599190
v 86.173645 -0.628630 -27.599190
v 86.173645 -0.628630 -27.338186
v 86.438858 -0.628630 -27.338186
v 86.438858 -0.628630 -27.599190
v 81.752808 1.109954 -21.546410
v 81.752808 1.109954 -23.624760
v 81.399155 1.109954 -23.624760
v 81.399155 1.109954 -21.546412
v 81.752808 1.109954 -24.514481
v 81.752808 1.109954 -26.592829
v 81.399155 1.109954 -26.592829
v 81.399155 1.109954 -24.514481
v 84.737747 1.109954 -24.514479
v 84.737747 1.109954 -26.592829
v 84.384094 1.109954 -26.592829
v 84.384094 1.109954 -24.514481
v 84.737747 1.109954 -21.546410
v 84.737747 1.109954 -23.624760
v 84.384094 1.109954 -23.624760
v 84.384094 1.109954 -21.546410
v 34.530502 0.192267 -27.599192
v 34.530502 0.192267 -27.338188
v 34.795715 0.192267 -27.338188
v 34.795715 0.192267 -27.599192
v 34.530502 -0.628630 -27.599192
v 34.530502 -0.628630 -27.338188
v 34.795715 -0.628630 -27.338188
v 34.795715 -0.628630 -27.599192
v 32.682812 1.109954 -21.546413
v 32.682812 1.109954 -23.624762
v 32.329163 1.109954 -23.624763
v 32.329163 1.109954 -21.546413
v 32.682812 1.109954 -24.514482
v 32.682812 1.109954 -26.592833
v 32.329163 1.109954 -26.592833
v 32.329163 1.109954 -24.514482
v 35.667747 1.109954 -24.514482
v 35.667747 1.109954 -26.592831
v 35.314095 1.109954 -26.592831
v 35.314095 1.109954 -24.514482
v 35.667747 1.109954 -21.546413
v 35.667747 1.109954 -23.624762
v 35.314095 1.109954 -23.624762
v 35.314095 1.109954 -21.546413
v 40.243382 0.192267 -27.599192
v 40.243382 0.192267 -27.338188
v 40.508595 0.192267 -27.338188
v 40.508595 0.192267 -27.599192
v 40.243382 -0.628630 -27.599192
v 40.243382 -0.628630 -27.338188
v 40.508595 -0.628630 -27.338188
v 40.508595 -0.628630 -27.599192
v 42.496262 1.109954 -21.546413
v 42.496262 1.109954 -23.624762
v 42.142612 1.109954 -23.624762
v 42.142609 1.109954 -21.546413
v 42.496262 1.109954 -24.514482
v 42.496262 1.109954 -26.592831
v 42.142612 1.109954 -26.592831
v 42.142612 1.109954 -24.514482
v 45.481201 1.109954 -24.514481
v 45.481201 1.109954 -26.592831
v 45.127548 1.109954 -26.592831
v 45.127548 1.109954 -24.514481
v 45.481201 1.109954 -21.546412
v 45.481201 1.109954 -23.624760
v 45.127548 1.109954 -23.624760
v 45.127548 1.109954 -21.546412
v 56.730274 0.192267 -27.599190
v 56.730274 0.192267 -27.338186
v 56.995487 0.192267 -27.338186
v 56.995487 0.192267 -27.599190
v 56.730274 -0.628630 -27.599190
v 56.730274 -0.628630 -27.338186
v 56.995487 -0.628630 -27.338186
v 56.995487 -0.628630 -27.599190
v 52.309437 1.109954 -21.546410
v 52.309437 1.109954 -23.624760
v 51.955788 1.109954 -23.624760
v 51.955788 1.109954 -21.546412
v 52.309437 1.109954 -24.514481
v 52.309441 1.109954 -26.592829
v 51.955788 1.109954 -26.592829
v 51.955788 1.109954 -24.514481
v 55.294376 1.109954 -24.514479
v 55.294376 1.109954 -26.592829
v 54.940723 1.109954 -26.592829
v 54.940723 1.109954 -24.514481
v 55.294376 1.109954 -21.546410
v 55.294376 1.109954 -23.624760
v 54.940723 1.109954 -23.624760
v 54.940723 1.109954 -21.546410
v 99.560989 0.192267 -27.599192
v 99.560989 0.192267 -27.338188
v 99.826202 0.192267 -27.338188
v 99.826202 0.192267 -27.599192
v 99.560989 -0.628630 -27.599192
v 99.560989 -0.628630 -27.338188
v 99.826202 -0.628630 -27.338188
v 99.826202 -0.628630 -27.599192
v 97.713295 1.109954 -21.546413
v 97.713295 1.109954 -23.624762
v 97.359642 1.109954 -23.624763
v 97.359642 1.109954 -21.546413
v 97.713295 1.109954 -24.514482
v 97.713295 1.109954 -26.592833
v 97.359650 1.109954 -26.592833
v 97.359642 1.109954 -24.514482
v 100.698227 1.109954 -24.514482
v 100.698227 1.109954 -26.592831
v 100.344582 1.109954 -26.592831
v 100.344582 1.109954 -24.514482
v 100.698227 1.109954 -21.546413
v 100.698227 1.109954 -23.624762
v 100.344582 1.109954 -23.624762
v 100.344582 1.109954 -21.546413
v 105.273865 0.192267 -27.599192
v 105.273865 0.192267 -27.338188
v 105.539078 0.192267 -27.338188
v 105.539078 0.192267 -27.599192
v 105.273865 -0.628630 -27.599192
v 105.273865 -0.628630 -27.338188
v 105.539078 -0.628630 -27.338188
v 105.539078 -0.628630 -27.599192
v 107.526749 1.109954 -21.546413
v 107.526749 1.109954 -23.624762
v 107.173096 1.109954 -23.624762
v 107.173096 1.109954 -21.546413
v 107.526749 1.109954 -24.514482
v 107.526749 1.109954 -26.592831
v 107.173096 1.109954 -26.592831
v 107.173096 1.109954 -24.514482
v 110.511681 1.109954 -24.514481
v 110.511688 1.109954 -26.592831
v 110.158035 1.109954 -26.592831
v 110.158035 1.109954 -24.514481
v 110.511681 1.109954 -21.546412
v 110.511681 1.109954 -23.624760
v 110.158035 1.109954 -23.624760
v 110.158035 1.109954 -21.546412
v 121.760757 0.192267 -27.599190
v 121.760757 0.192267 -27.338186
v 122.025970 0.192267 -27.338186
v 122.025970 0.192267 -27.599190
v 121.760757 -0.628630 -27.599190
v 121.760757 -0.628630 -27.338186
v 122.025970 -0.628630 -27.338186
v 122.025970 -0.628630 -27.599190
v 117.339920 1.109954 -21.546410
v 117.339920 1.109954 -23.624760
v 116.986275 1.109954 -23.624760
v 116.986275 1.109954 -21.546412
v 117.339920 1.109954 -24.514481
v 117.339920 1.109954 -26.592829
v 116.986275 1.109954 -26.592829
v 116.986275 1.109954 -24.514481
v 120.324860 1.109954 -24.514479
v 120.324860 1.109954 -26.592829
v 119.971207 1.109954 -26.592829
v 119.971207 1.109954 -24.514481
v 120.324860 1.109954 -21.546410
v 120.324860 1.109954 -23.624760
v 119.971207 1.109954 -23.624760
v 119.971207 1.109954 -21.546410
v 129.004364 0.192267 -27.599192
v 129.004364 0.192267 -27.338188
v 129.269577 0.192267 -27.338188
v 129.269577 0.192267 -27.599192
v 129.004364 -0.628630 -27.599192
v 129.004364 -0.628630 -27.338188
v 129.269577 -0.628630 -27.338188
v 129.269577 -0.628630 -27.599192
v 127.156677 1.109954 -21.546413
v 127.156677 1.109954 -23.624762
v 126.803024 1.109954 -23.624763
v 126.803024 1.109954 -21.546413
v 127.156677 1.109954 -24.514482
v 127.156677 1.109954 -26.592833
v 126.803024 1.109954 -26.592833
v 126.803024 1.109954 -24.514482
v 130.141617 1.109954 -24.514482
v 130.141617 1.109954 -26.592831
v 129.787964 1.109954 -26.592831
v 129.787964 1.109954 -24.514482
v 130.141617 1.109954 -21.546413
v 130.141617 1.109954 -23.624762
v 129.787964 1.109954 -23.624762
v 129.787964 1.109954 -21.546413
v 134.717255 0.192267 -27.599192
v 134.717239 0.192267 -27.338188
v 134.982452 0.192267 -27.338188
v 134.982452 0.192267 -27.599192
v 134.717255 -0.628630 -27.599192
v 134.717239 -0.628630 -27.338188
v 134.982452 -0.628630 -27.338188
v 134.982452 -0.628630 -27.599192
v 136.970123 1.109954 -21.546413
v 136.970123 1.109954 -23.624762
v 136.616470 1.109954 -23.624762
v 136.616470 1.109954 -21.546413
v 136.970123 1.109954 -24.514482
v 136.970123 1.109954 -26.592831
v 136.616470 1.109954 -26.592831
v 136.616470 1.109954 -24.514482
v 139.955063 1.109954 -24.514481
v 139.955063 1.109954 -26.592831
v 139.601410 1.109954 -26.592831
v 139.601410 1.109954 -24.514481
v 139.955063 1.109954 -21.546412
v 139.955063 1.109954 -23.624760
v 139.601410 1.109954 -23.624760
v 139.601410 1.109954 -21.546412
v 151.204132 0.192267 -27.599190
v 151.204132 0.192267 -27.338186
v 151.469360 0.192267 -27.338186
v 151.469360 0.192267 -27.599190
v 151.204132 -0.628630 -27.599190
v 151.204132 -0.628630 -27.338186
v 151.469360 -0.628630 -27.338186
v 151.469360 -0.628630 -27.599190
v 146.783295 1.109954 -21.546410
v 146.783295 1.109954 -23.624760
v 146.429657 1.109954 -23.624760
v 146.429657 1.109954 -21.546412
v 146.783310 1.109954 -24.514481
v 146.783310 1.109954 -26.592829
v 146.429657 1.109954 -26.592829
v 146.429657 1.109954 -24.514481
v 149.768250 1.109954 -24.514479
v 149.768250 1.109954 -26.592829
v 149.414581 1.109954 -26.592829
v 149.414581 1.109954 -24.514481
v 149.768250 1.109954 -21.546410
v 149.768250 1.109954 -23.624760
v 149.414581 1.109954 -23.624760
v 149.414581 1.109954 -21.546410
vn -0.0000 1.0000 -0.0000
vn -1.0000 -0.0000 -0.0000
vn -0.0000 -0.0000 1.0000
vn 1.0000 -0.0000 -0.0000
vn -0.0000 -0.0000 -1.0000
vn -1.0000 -0.0000 -0.0001
vt 0.000501 1.894169
vt 0.999501 1.894169
vt 0.999502 1.997689
vt 0.000501 1.997689
vt 0.500000 1.000000
vt 1.000000 1.000000
vt 1.000000 1.898438
vt 0.500000 1.898438
vt 0.002797 1.000339
vt 0.457668 1.000339
vt 0.457668 1.893773
vt 0.002797 1.893773
vt -0.448366 1.003827
vt -0.195820 1.003827
vt -0.195820 1.897261
vt -0.448366 1.897261
vt 0.508067 1.678349
vt 0.508067 1.157384
vt 0.999500 1.157384
vt 0.999501 1.678349
s 1
usemtl EBOXA
f 1/1/1 2/2/1 3/3/1
f 3/3/1 4/4/1 1/1/1
f 5/5/2 6/6/2 2/7/2
f 2/7/2 1/8/2 5/5/2
f 6/9/3 7/10/3 3/11/3
f 3/11/3 2/12/3 6/9/3
f 7/5/4 8/6/4 4/7/4
f 4/7/4 3/8/4 7/5/4
f 8/13/5 5/14/5 1/15/5
f 1/15/5 4/16/5 8/13/5
f 9/17/1 10/18/1 11/19/1
f 11/19/1 12/20/1 9/17/1
f 13/17/1 14/18/1 15/19/1
f 15/19/1 16/20/1 13/17/1
f 17/17/1 18/18/1 19/19/1
f 19/19/1 20/20/1 17/17/1
f 21/17/1 22/18/1 23/19/1
f 23/19/1 24/20/1 21/17/1
f 25/1/1 26/2/1 27/3/1
f 27/3/1 28/4/1 25/1/1
f 29/5/2 30/6/2 26/7/2
f 26/7/2 25/8/2 29/5/2
f 30/9/3 31/10/3 27/11/3
f 27/11/3 26/12/3 30/9/3
f 31/5/4 32/6/4 28/7/4
f 28/7/4 27/8/4 31/5/4
f 32/13/5 29/14/5 25/15/5
f 25/15/5 28/16/5 32/13/5
f 33/17/1 34/18/1 35/19/1
f 35/19/1 36/20/1 33/17/1
f 37/17/1 38/18/1 39/19/1
f 39/19/1 40/20/1 37/17/1
f 41/17/1 42/18/1 43/19/1
f 43/19/1 44/20/1 41/17/1
f 45/17/1 46/18/1 47/19/1
f 47/19/1 48/20/1 45/17/1
f 49/1/1 50/2/1 51/3/1
f 51/3/1 52/4/1 49/1/1
f 53/5/2 54/6/2 50/7/2
f 50/7/2 49/8/2 53/5/2
f 54/9/3 55/10/3 51/11/3
f 51/11/3 50/12/3 54/9/3
f 55/5/4 56/6/4 52/7/4
f 52/7/4 51/8/4 55/5/4
f 56/13/5 53/14/5 49/15/5
f 49/15/5 52/16/5 56/13/5
f 57/17/1 58/18/1 59/19/1
f 59/19/1 60/20/1 57/17/1
f 61/17/1 62/18/1 63/19/1
f 63/19/1 64/20/1 61/17/1
f 65/17/1 66/18/1 67/19/1
f 67/19/1 68/20/1 65/17/1
f 69/17/1 70/18/1 71/19/1
f 71/19/1 72/20/1 69/17/1
f 73/1/1 74/2/1 75/3/1
f 75/3/1 76/4/1 73/1/1
f 77/5/2 78/6/2 74/7/2
f 74/7/2 73/8/2 77/5/2
f 78/9/3 79/10/3 75/11/3
f 75/11/3 74/12/3 78/9/3
f 79/5/4 80/6/4 76/7/4
f 76/7/4 75/8/4 79/5/4
f 80/13/5 77/14/5 73/15/5
f 73/15/5 76/16/5 80/13/5
f 81/17/1 82/18/1 83/19/1
f 83/19/1 84/20/1 81/17/1
f 85/17/1 86/18/1 87/19/1
f 87/19/1 88/20/1 85/17/1
f 89/17/1 90/18/1 91/19/1
f 91/19/1 92/20/1 89/17/1
f 93/17/1 94/18/1 95/19/1
f 95/19/1 96/20/1 93/17/1
f 97/1/1 98/2/1 99/3/1
f 99/3/1 100/4/1 97/1/1
f 101/5/2 102/6/2 98/7/2
f 98/7/2 97/8/2 101/5/2
f 102/9/3 103/10/3 99/11/3
f 99/11/3 98/12/3 102/9/3
f 103/5/4 104/6/4 100/7/4
f 100/7/4 99/8/4 103/5/4
f 104/13/5 101/14/5 97/15/5
f 97/15/5 100/16/5 104/13/5
f 105/17/1 106/18/1 107/19/1
f 107/19/1 108/20/1 105/17/1
f 109/17/1 110/18/1 111/19/1
f 111/19/1 112/20/1 109/17/1
f 113/17/1 114/18/1 115/19/1
f 115/19/1 116/20/1 113/17/1
f 117/17/1 118/18/1 119/19/1
f 119/19/1 120/20/1 117/17/1
f 121/1/1 122/2/1 123/3/1
f 123/3/1 124/4/1 121/1/1
f 125/5/2 126/6/2 122/7/2
f 122/7/2 121/8/2 125/5/2
f 126/9/3 127/10/3 123/11/3
f 123/11/3 122/12/3 126/9/3
f 127/5/4 128/6/4 124/7/4
f 124/7/4 123/8/4 127/5/4
f 128/13/5 125/14/5 121/15/5
f 121/15/5 124/16/5 128/13/5
f 129/17/1 130/18/1 131/19/1
f 131/19/1 132/20/1 129/17/1
f 133/17/1 134/18/1 135/19/1
f 135/19/1 136/20/1 133/17/1
f 137/17/1 138/18/1 139/19/1
f 139/19/1 140/20/1 137/17/1
f 141/17/1 142/18/1 143/19/1
f 143/19/1 144/20/1 141/17/1
f 145/1/1 146/2/1 147/3/1
f 147/3/1 148/4/1 145/1/1
f 149/5/2 150/6/2 146/7/2
f 146/7/2 145/8/2 149/5/2
f 150/9/3 151/10/3 147/11/3
f 147/11/3 146/12/3 150/9/3
f 151/5/4 152/6/4 148/7/4
f 148/7/4 147/8/4 151/5/4
f 152/13/5 149/14/5 145/15/5
f 145/15/5 148/16/5 152/13/5
f 153/17/1 154/18/1 155/19/1
f 155/19/1 156/20/1 153/17/1
f 157/17/1 158/18/1 159/19/1
f 159/19/1 160/20/1 157/17/1
f 161/17/1 162/18/1 163/19/1
f 163/19/1 164/20/1 161/17/1
f 165/17/1 166/18/1 167/19/1
f 167/19/1 168/20/1 165/17/1
f 169/1/1 170/2/1 171/3/1
f 171/3/1 172/4/1 169/1/1
f 173/5/2 174/6/2 170/7/2
f 170/7/2 169/8/2 173/5/2
f 174/9/3 175/10/3 171/11/3
f 171/11/3 170/12/3 174/9/3
f 175/5/4 176/6/4 172/7/4
f 172/7/4 171/8/4 175/5/4
f 176/13/5 173/14/5 169/15/5
f 169/15/5 172/16/5 176/13/5
f 177/17/1 178/18/1 179/19/1
f 179/19/1 180/20/1 177/17/1
f 181/17/1 182/18/1 183/19/1
f 183/19/1 184/20/1 181/17/1
f 185/17/1 186/18/1 187/19/1
f 187/19/1 188/20/1 185/17/1
f 189/17/1 190/18/1 191/19/1
f 191/19/1 192/20/1 189/17/1
f 193/1/1 194/2/1 195/3/1
f 195/3/1 196/4/1 193/1/1
f 197/5/2 198/6/2 194/7/2
f 194/7/2 193/8/2 197/5/2
f 198/9/3 199/10/3 195/11/3
f 195/11/3 194/12/3 198/9/3
f 199/5/4 200/6/4 196/7/4
f 196/7/4 195/8/4 199/5/4
f 200/13/5 197/14/5 193/15/5
f 193/15/5 196/16/5 200/13/5
f 201/17/1 202/18/1 203/19/1
f 203/19/1 204/20/1 201/17/1
f 205/17/1 206/18/1 207/19/1
f 207/19/1 208/20/1 205/17/1
f 209/17/1 210/18/1 211/19/1
f 211/19/1 212/20/1 209/17/1
f 213/17/1 214/18/1 215/19/1
f 215/19/1 216/20/1 213/17/1
f 217/1/1 218/2/1 219/3/1
f 219/3/1 220/4/1 217/1/1
f 221/5/2 222/6/2 218/7/2
f 218/7/2 217/8/2 221/5/2
f 222/9/3 223/10/3 219/11/3
f 219/11/3 218/12/3 222/9/3
f 223/5/4 224/6/4 220/7/4
f 220/7/4 219/8/4 223/5/4
f 224/13/5 221/14/5 217/15/5
f 217/15/5 220/16/5 224/13/5
f 225/17/1 226/18/1 227/19/1
f 227/19/1 228/20/1 225/17/1
f 229/17/1 230/18/1 231/19/1
f 231/19/1 232/20/1 229/17/1
f 233/17/1 234/18/1 235/19/1
f 235/19/1 236/20/1 233/17/1
f 237/17/1 238/18/1 239/19/1
f 239/19/1 240/20/1 237/17/1
f 241/1/1 242/2/1 243/3/1
f 243/3/1 244/4/1 241/1/1
f 245/5/2 246/6/2 242/7/2
f 242/7/2 241/8/2 245/5/2
f 246/9/3 247/10/3 243/11/3
f 243/11/3 242/12/3 246/9/3
f 247/5/4 248/6/4 244/7/4
f 244/7/4 243/8/4 247/5/4
f 248/13/5 245/14/5 241/15/5
f 241/15/5 244/16/5 248/13/5
f 249/17/1 250/18/1 251/19/1
f 251/19/1 252/20/1 249/17/1
f 253/17/1 254/18/1 255/19/1
f 255/19/1 256/20/1 253/17/1
f 257/17/1 258/18/1 259/19/1
f 259/19/1 260/20/1 257/17/1
f 261/17/1 262/18/1 263/19/1
f 263/19/1 264/20/1 261/17/1
f 265/1/1 266/2/1 267/3/1
f 267/3/1 268/4/1 265/1/1
f 269/5/2 270/6/2 266/7/2
f 266/7/2 265/8/2 269/5/2
f 270/9/3 271/10/3 267/11/3
f 267/11/3 266/12/3 270/9/3
f 271/5/4 272/6/4 268/7/4
f 268/7/4 267/8/4 271/5/4
f 272/13/5 269/14/5 265/15/5
f 265/15/5 268/16/5 272/13/5
f 273/17/1 274/18/1 275/19/1
f 275/19/1 276/20/1 273/17/1
f 277/17/1 278/18/1 279/19/1
f 279/19/1 280/20/1 277/17/1
f 281/17/1 282/18/1 283/19/1
f 283/19/1 284/20/1 281/17/1
f 285/17/1 286/18/1 287/19/1
f 287/19/1 288/20/1 285/17/1
f 289/1/1 290/2/1 291/3/1
f 291/3/1 292/4/1 289/1/1
f 293/5/2 294/6/2 290/7/2
f 290/7/2 289/8/2 293/5/2
f 294/9/3 295/10/3 291/11/3
f 291/11/3 290/12/3 294/9/3
f 295/5/4 296/6/4 292/7/4
f 292/7/4 291/8/4 295/5/4
f 296/13/5 293/14/5 289/15/5
f 289/15/5 292/16/5 296/13/5
f 297/17/1 298/18/1 299/19/1
f 299/19/1 300/20/1 297/17/1
f 301/17/1 302/18/1 303/19/1
f 303/19/1 304/20/1 301/17/1
f 305/17/1 306/18/1 307/19/1
f 307/19/1 308/20/1 305/17/1
f 309/17/1 310/18/1 311/19/1
f 311/19/1 312/20/1 309/17/1
f 313/1/1 314/2/1 315/3/1
f 315/3/1 316/4/1 313/1/1
f 317/5/2 318/6/2 314/7/2
f 314/7/2 313/8/2 317/5/2
f 318/9/3 319/10/3 315/11/3
f 315/11/3 314/12/3 318/9/3
f 319/5/4 320/6/4 316/7/4
f 316/7/4 315/8/4 319/5/4
f 320/13/5 317/14/5 313/15/5
f 313/15/5 316/16/5 320/13/5
f 321/17/1 322/18/1 323/19/1
f 323/19/1 324/20/1 321/17/1
f 325/17/1 326/18/1 327/19/1
f 327/19/1 328/20/1 325/17/1
f 329/17/1 330/18/1 331/19/1
f 331/19/1 332/20/1 329/17/1
f 333/17/1 334/18/1 335/19/1
f 335/19/1 336/20/1 333/17/1
f 337/1/1 338/2/1 339/3/1
f 339/3/1 340/4/1 337/1/1
f 341/5/2 342/6/2 338/7/2
f 338/7/2 337/8/2 341/5/2
f 342/9/3 343/10/3 339/11/3
f 339/11/3 338/12/3 342/9/3
f 343/5/4 344/6/4 340/7/4
f 340/7/4 339/8/4 343/5/4
f 344/13/5 341/14/5 337/15/5
f 337/15/5 340/16/5 344/13/5
f 345/17/1 346/18/1 347/19/1
f 347/19/1 348/20/1 345/17/1
f 349/17/1 350/18/1 351/19/1
f 351/19/1 352/20/1 349/17/1
f 353/17/1 354/18/1 355/19/1
f 355/19/1 356/20/1 353/17/1
f 357/17/1 358/18/1 359/19/1
f 359/19/1 360/20/1 357/17/1
f 361/1/1 362/2/1 363/3/1
f 363/3/1 364/4/1 361/1/1
f 365/5/2 366/6/2 362/7/2
f 362/7/2 361/8/2 365/5/2
f 366/9/3 367/10/3 363/11/3
f 363/11/3 362/12/3 366/9/3
f 367/5/4 368/6/4 364/7/4
f 364/7/4 363/8/4 367/5/4
f 368/13/5 365/14/5 361/15/5
f 361/15/5 364/16/5 368/13/5
f 369/17/1 370/18/1 371/19/1
f 371/19/1 372/20/1 369/17/1
f 373/17/1 374/18/1 375/19/1
f 375/19/1 376/20/1 373/17/1
f 377/17/1 378/18/1 379/19/1
f 379/19/1 380/20/1 377/17/1
f 381/17/1 382/18/1 383/19/1
f 383/19/1 384/20/1 381/17/1
f 385/1/1 386/2/1 387/3/1
f 387/3/1 388/4/1 385/1/1
f 389/5/6 390/6/6 386/7/6
f 386/7/6 385/8/6 389/5/6
f 390/9/3 391/10/3 387/11/3
f 387/11/3 386/12/3 390/9/3
f 391/5/4 392/6/4 388/7/4
f 388/7/4 387/8/4 391/5/4
f 392/13/5 389/14/5 385/15/5
f 385/15/5 388/16/5 392/13/5
f 393/17/1 394/18/1 395/19/1
f 395/19/1 396/20/1 393/17/1
f 397/17/1 398/18/1 399/19/1
f 399/19/1 400/20/1 397/17/1
f 401/17/1 402/18/1 403/19/1
f 403/19/1 404/20/1 401/17/1
f 405/17/1 406/18/1 407/19/1
f 407/19/1 408/20/1 405/17/1
f 409/1/1 410/2/1 411/3/1
f 411/3/1 412/4/1 409/1/1
f 413/5/2 414/6/2 410/7/2
f 410/7/2 409/8/2 413/5/2
f 414/9/3 415/10/3 411/11/3
f 411/11/3 410/12/3 414/9/3
f 415/5/4 416/6/4 412/7/4
f 412/7/4 411/8/4 415/5/4
f 416/13/5 413/14/5 409/15/5
f 409/15/5 412/16/5 416/13/5
f 417/17/1 418/18/1 419/19/1
f 419/19/1 420/20/1 417/17/1
f 421/17/1 422/18/1 423/19/1
f 423/19/1 424/20/1 421/17/1
f 425/17/1 426/18/1 427/19/1
f 427/19/1 428/20/1 425/17/1
f 429/17/1 430/18/1 431/19/1
f 431/19/1 432/20/1 429/17/1
