# Blender 4.4.3
# www.blender.org
mtllib FENCEB.mtl
o FENCEB
v -87.925339 1.222790 13.720323
v -87.925339 -0.715587 13.720323
v -89.209343 1.237316 13.720326
v -89.222740 -0.715481 13.720323
v -86.693283 -0.715587 13.720330
v -86.714035 1.222295 13.720326
v -128.098602 1.614635 13.720330
v -128.098663 -0.425988 13.720344
v -129.382553 1.560320 13.720326
v -129.396088 -0.407192 13.720336
v -126.866623 -0.443317 13.720330
v -126.887268 1.528442 13.720321
v -168.271881 2.326025 13.720344
v -168.271881 0.402388 13.720344
v -169.555908 2.380432 13.720342
v -169.569275 0.437149 13.720336
v -167.039795 0.369813 13.720340
v -167.060577 2.379155 13.720336
v -168.271683 2.346542 -12.996261
v -168.271683 0.402270 -12.996261
v -166.987686 2.374239 -13.072116
v -166.974258 0.367984 -13.072926
v -169.503769 0.435266 -12.926321
v -169.482941 2.370554 -12.927473
v -128.098358 -0.426024 -16.290512
v -128.098358 0.597763 -16.290512
v -129.330475 -0.408189 -16.175714
v -129.309662 1.559770 -16.177652
v -87.925110 1.229904 -19.893568
v -87.925110 -0.715594 -19.893568
v -86.641098 1.245904 -19.956848
v -86.627716 -0.715594 -19.957487
v -89.157158 -0.715504 -19.829716
v -89.136421 1.284210 -19.830811
v -128.098358 1.542241 -16.290512
v -294.548126 23.031439 -476.042297
v -294.548126 21.095568 -476.042297
v -294.009460 23.092808 -475.010468
v -294.003723 21.095568 -474.999756
v -295.044189 21.095568 -477.042877
v -295.035980 23.023109 -477.025940
v -276.791443 23.025488 -397.235413
v -276.791443 21.095562 -397.235413
v -277.120514 23.039846 -398.149323
v -277.124054 21.095562 -398.158844
v -276.493896 21.095562 -396.352142
v -276.498749 23.025066 -396.367065
v -295.305481 22.091364 -428.737000
v -295.305481 23.127361 -428.737000
v -294.690002 21.095564 -427.685059
v -294.700378 23.058508 -427.702759
v -315.230164 23.010889 -464.590057
v -315.230194 21.095566 -464.590057
v -315.854736 23.030893 -466.121124
v -315.861084 21.095566 -466.137177
v -314.596008 21.095566 -463.135071
v -314.606964 23.095636 -463.159454
v -295.305481 21.095564 -428.737000
v -272.353333 6.549867 -46.682281
v -272.353333 4.605608 -46.682289
v -271.546539 6.552416 -45.802959
v -271.538086 4.545907 -45.793865
v -273.118042 4.662606 -47.534603
v -273.105225 6.597536 -47.520176
v -242.922913 4.881908 -24.026657
v -242.922913 2.923522 -24.026657
v -241.860245 4.852209 -23.483704
v -241.849091 2.875414 -23.478081
v -243.936737 2.969593 -24.558971
v -243.919693 4.940226 -24.549919
v -207.441376 3.587566 -13.049912
v -207.441406 1.642093 -13.049911
v -206.256073 3.570266 -12.911410
v -206.243759 1.608360 -12.910046
v -208.577179 1.674598 -13.195480
v -208.558075 3.673729 -13.192926
v -210.640488 3.621747 8.800690
v -210.640488 1.683459 8.800690
v -212.129593 3.683618 8.791054
v -212.145111 1.731407 8.790859
v -209.211639 1.638281 8.794003
v -209.235733 3.576903 8.794250
v -261.945953 4.331288 7.924765
v -261.946014 5.371776 7.924739
v -260.673706 3.276033 8.100260
v -260.695251 5.248409 8.089386
v -303.383209 7.183018 -21.924576
v -303.383240 5.259397 -21.924610
v -304.377411 7.268400 -23.033218
v -304.387756 5.325370 -23.044868
v -302.417480 5.196929 -20.871542
v -302.433838 7.206717 -20.889191
v -261.945953 3.331176 7.924765
v -310.720734 13.139038 -151.196564
v -310.720734 11.194767 -151.196564
v -310.839508 13.123674 -150.030426
v -310.840668 11.116968 -150.018219
v -310.591583 11.268700 -152.313995
v -310.593872 13.203304 -152.295135
v -306.785034 8.827359 -115.050949
v -306.785034 9.851147 -115.050949
v -307.137024 8.898287 -116.117340
v -307.131226 10.865356 -116.099365
v -292.051788 8.547780 -78.199287
v -292.051788 6.602281 -78.199287
v -291.591766 8.495969 -77.069901
v -291.587036 6.533766 -77.058388
v -292.513336 6.667565 -79.341629
v -292.505554 8.666187 -79.322395
v -327.928986 9.320389 -61.167488
v -327.928986 7.382012 -61.167488
v -328.409973 9.404898 -62.357975
v -328.415009 7.452830 -62.370426
v -327.412292 7.314865 -59.898880
v -327.421478 9.253878 -59.921120
v -342.645844 11.653543 -99.495201
v -342.645874 9.612920 -99.495270
v -342.451904 11.652757 -100.895370
v -342.456818 9.685799 -100.910645
v -342.166901 9.543731 -98.106781
v -342.175079 11.516368 -98.130074
v -336.559509 13.789659 -154.000580
v -336.559509 11.866024 -154.000549
v -336.383209 13.881079 -155.523087
v -336.381256 11.938181 -155.538940
v -336.708801 11.797434 -152.537582
v -336.706451 13.807385 -152.562225
v -306.785034 10.795624 -115.050949
v -302.751862 19.131863 -642.894836
v -302.751862 17.195993 -642.894836
v -302.729675 19.317719 -641.606506
v -302.729431 17.321768 -641.593079
v -302.772583 17.075083 -644.131104
v -302.772247 19.004673 -644.110229
v -301.764740 22.184753 -602.654785
v -301.764740 20.234816 -602.654724
v -301.723236 22.266697 -601.370911
v -301.722809 20.299582 -601.357483
v -301.804016 20.171154 -603.886841
v -301.803345 22.135153 -603.866028
v -300.173248 23.032619 -562.551758
v -300.173248 21.095539 -562.551758
v -300.112427 23.048641 -561.272278
v -300.111786 21.095541 -561.258911
v -300.231018 21.095541 -563.779602
v -300.230072 23.086597 -563.758972
v -320.531677 23.025448 -562.547607
v -320.531677 21.095522 -562.547607
v -320.531677 23.039806 -563.826111
v -320.531677 21.095522 -563.839417
v -320.531677 21.095522 -561.320862
v -320.531677 23.025026 -561.341553
v -320.531677 21.230591 -602.547607
v -320.531677 22.266590 -602.547607
v -320.531677 20.296352 -601.320862
v -320.531677 22.258278 -601.341553
v -320.531677 19.111298 -642.547607
v -320.531677 17.195974 -642.547607
v -320.531677 19.005260 -643.826050
v -320.531677 17.068611 -643.839355
v -320.531677 17.315451 -641.320862
v -320.531677 19.313520 -641.341492
v -320.531677 20.234793 -602.547607
v -300.472626 23.032692 -512.547485
v -300.472595 21.095585 -512.547485
v -300.472595 23.048622 -511.269043
v -300.472595 21.095585 -511.255676
v -300.472595 21.095585 -513.774292
v -300.472595 23.086679 -513.753601
v -320.546326 23.025579 -512.547729
v -320.546326 21.095566 -512.547729
v -320.546326 23.039942 -513.826172
v -320.546326 21.095566 -513.839478
v -320.546326 21.095566 -511.320953
v -320.546326 23.025087 -511.341614
v -242.164368 19.841501 -239.696320
v -242.164368 17.897242 -239.696320
v -242.803665 19.850031 -238.610809
v -242.810425 17.843584 -238.599548
v -241.675491 17.947880 -240.806732
v -241.685516 19.882919 -240.789001
v -272.174133 17.970526 -211.729614
v -272.174133 16.012136 -211.729614
v -273.203339 17.913263 -210.988235
v -273.214172 15.936177 -210.980545
v -271.196106 16.084160 -212.453659
v -271.212463 18.054358 -212.441360
v -299.077148 15.563861 -185.703888
v -299.077148 13.618390 -185.703888
v -299.676147 15.502488 -184.694061
v -299.682343 13.540120 -184.683502
v -298.489258 13.692683 -186.665009
v -298.499237 15.691117 -186.648911
v -321.342987 15.993433 -199.110519
v -321.342987 14.055144 -199.110519
v -320.541931 16.075808 -200.419479
v -320.533478 14.123807 -200.433044
v -322.094391 13.989797 -197.844238
v -322.081909 15.928762 -197.865677
v -292.918091 16.541166 -232.387100
v -292.918091 17.581648 -232.387100
v -293.527344 15.509447 -231.742279
v -293.516998 17.481421 -231.753052
v -278.130859 18.787529 -256.844421
v -278.130829 16.863907 -256.844421
v -277.834442 18.858757 -257.710663
v -277.831390 16.915579 -257.719696
v -278.426086 16.815331 -256.016724
v -278.420990 18.824884 -256.030640
v -292.918091 15.541049 -232.387100
v -303.086182 3.655288 -764.437134
v -303.086182 1.719402 -764.437134
v -303.078918 3.887851 -763.135742
v -303.078857 1.892394 -763.122192
v -303.092590 1.555686 -765.686035
v -303.092468 3.485934 -765.664978
v -302.912994 7.237495 -723.786011
v -302.912994 8.256864 -723.786011
v -302.896637 7.066552 -725.030640
v -302.896912 9.029205 -725.009705
v -303.134644 14.567068 -683.271912
v -303.134644 12.629964 -683.271912
v -303.131775 14.745455 -681.979248
v -303.131744 12.794107 -681.965759
v -303.136841 12.473287 -684.512329
v -303.136810 14.467028 -684.491455
v -302.912994 9.197267 -723.786011
v -320.531708 14.559937 -682.547607
v -320.531708 12.629922 -682.547607
v -320.531708 14.411003 -683.826111
v -320.531708 12.464916 -683.839417
v -320.531708 12.785819 -681.320862
v -320.531708 14.712721 -681.341553
v -320.531708 9.276124 -722.547607
v -320.531708 7.244305 -722.547607
v -320.531708 9.031456 -723.826050
v -320.531708 7.070438 -723.839417
v -320.531708 7.409771 -721.320923
v -320.531708 9.369949 -721.341553
v -320.531708 4.025676 -762.547607
v -320.531708 2.110343 -762.547546
v -320.531708 3.892253 -763.826050
v -320.531708 1.955402 -763.839355
v -320.531708 2.258235 -761.320801
v -320.531677 4.255867 -761.341492
v -240.524277 22.972467 -366.981445
v -240.524277 21.028196 -366.981445
v -240.389755 23.024151 -365.704529
v -240.388351 21.018143 -365.691162
v -240.653427 21.037184 -368.206726
v -240.651230 22.972883 -368.186066
v -236.314331 20.450323 -327.029297
v -236.314331 21.474110 -327.029297
v -236.443466 20.475840 -328.254578
v -236.441269 22.443674 -328.233948
v -232.104370 21.323484 -287.077240
v -232.104370 19.377985 -287.077240
v -231.969849 21.298016 -285.800323
v -231.968445 19.336081 -285.786987
v -232.233521 19.417381 -288.302521
v -232.231323 21.416445 -288.281891
v -274.269623 20.634150 -286.950073
v -274.269684 18.695772 -286.950012
v -274.269684 20.714550 -288.234039
v -274.269684 18.762442 -288.247467
v -274.269684 18.632868 -285.717987
v -274.269684 20.571806 -285.738739
v -274.269684 22.490936 -327.123352
v -274.269684 20.450319 -327.123352
v -274.269684 22.444605 -328.407349
v -274.269684 20.477175 -328.420715
v -274.269684 20.424343 -325.891235
v -274.269684 22.396250 -325.912048
v -274.269684 22.951830 -367.296631
v -274.269684 21.028189 -367.296631
v -274.269684 22.981190 -368.580627
v -274.269684 21.037638 -368.594025
v -274.269684 21.018658 -366.064575
v -274.269684 23.027620 -366.085327
v -236.314331 22.418587 -327.029297
v -213.928299 22.584478 -429.908020
v -213.928299 20.640221 -429.908020
v -214.624207 22.640827 -430.282227
v -214.631546 20.634857 -430.286011
v -213.272980 20.641304 -429.526703
v -213.283905 22.577209 -429.533325
v -237.478287 22.317751 -429.314941
v -237.478287 20.359364 -429.314941
v -238.140076 22.330030 -428.883240
v -238.146896 20.353676 -428.878601
v -236.829712 20.365461 -429.707642
v -236.840744 22.336765 -429.701202
v -244.663315 22.594587 -407.469604
v -244.663315 20.649117 -407.469604
v -244.569458 22.650438 -406.185608
v -244.569458 20.689312 -406.172241
v -244.749496 20.614056 -408.701660
v -244.749496 22.614304 -408.680908
v -189.440262 23.024103 -491.999054
v -189.440262 21.100483 -491.999084
v -185.763596 23.035971 -491.985931
v -185.746094 21.092152 -491.985352
v -192.183578 21.104322 -492.054138
v -192.156448 23.113026 -492.055084
v -274.167511 22.104845 -491.870728
v -274.167511 23.145330 -491.870728
v -274.219788 21.104731 -489.370544
v -274.200012 23.076180 -489.389160
v -274.167511 21.104731 -491.870728
v -119.824295 14.469165 -358.000427
v -119.824295 12.524894 -358.000427
v -120.842957 14.591942 -358.782104
v -120.853592 12.586694 -358.790253
v -118.846848 12.469204 -357.250427
v -118.863297 14.405964 -357.263031
v -151.695892 15.534307 -382.456390
v -151.695892 16.558094 -382.456390
v -150.718430 15.419686 -381.706360
v -150.734894 17.389875 -381.718994
v -183.567490 21.152334 -406.912323
v -183.567505 19.206835 -406.912323
v -184.586166 21.269371 -407.694000
v -184.596786 19.308918 -407.702148
v -182.590042 19.108173 -406.162323
v -182.606506 21.109571 -406.174957
v -140.011581 21.145172 -455.115448
v -140.011581 19.206795 -455.115448
v -139.269806 21.056740 -454.067383
v -139.262070 19.102856 -454.056427
v -140.723343 19.303782 -456.121094
v -140.711349 21.240046 -456.104156
v -116.803139 17.574894 -422.324280
v -116.803139 15.534273 -422.324280
v -116.061371 17.382542 -421.276215
v -116.053604 15.413591 -421.265259
v -117.514908 15.649515 -423.329926
v -117.502922 17.619040 -423.312988
v -93.594711 14.448514 -389.533081
v -93.594711 12.524879 -389.533081
v -92.852921 14.410547 -388.485016
v -92.845192 12.466318 -388.474121
v -94.306488 12.583488 -390.538788
v -94.294479 14.591272 -390.521851
v -151.695892 17.502571 -382.456390
v -235.999527 -6.644642 -813.868591
v -235.999527 -8.580513 -813.868591
v -236.600464 -6.566953 -814.530273
v -236.606888 -8.564007 -814.537048
v -235.448761 -8.593609 -813.215454
v -235.457840 -6.665872 -813.226624
v -266.420990 -4.940465 -823.359436
v -266.420990 -6.890405 -823.359436
v -267.278076 -4.832280 -823.088379
v -267.286957 -6.799100 -823.085388
v -265.530334 -6.975198 -823.497559
v -265.544373 -5.010877 -823.494019
v -295.211273 -1.286414 -797.785706
v -295.211243 -3.223494 -797.785706
v -295.725952 -1.128421 -796.842407
v -295.731232 -3.080031 -796.832520
v -294.701965 -3.358497 -798.682251
v -294.710693 -1.365176 -798.667236
v -320.477234 -0.310852 -814.057312
v -320.477234 -2.240781 -814.057312
v -320.513123 -0.418111 -815.695129
v -320.513336 -2.363656 -815.712219
v -320.471924 -2.122944 -812.486572
v -320.473175 -0.195435 -812.513062
v -272.944336 -4.406386 -850.188232
v -272.944336 -3.370391 -850.188232
v -275.014801 -5.326884 -850.242493
v -274.981476 -3.365222 -850.253601
v -212.969727 -5.051724 -827.383545
v -212.969696 -6.967046 -827.383545
v -211.747162 -5.050862 -825.615906
v -211.734741 -6.986380 -825.597168
v -214.207672 -6.946755 -829.033752
v -214.186310 -4.947045 -829.006348
v -272.944366 -5.402186 -850.188232
v 6.395229 14.333268 -311.195160
v 6.395229 12.389009 -311.195160
v 4.848255 14.386674 -311.183929
v 4.832088 12.380696 -311.179810
v 7.873981 12.396967 -311.196625
v 7.849140 14.332725 -311.189514
v -43.095753 14.127108 -313.202820
v -43.095757 12.168720 -313.202820
v -44.656685 14.139422 -313.524567
v -44.672951 12.163065 -313.528046
v -41.593468 12.174186 -312.915710
v -41.618805 14.145505 -312.920380
v -87.951797 13.991861 -333.544891
v -87.951790 12.046390 -333.544891
v -88.970490 14.006016 -334.326508
v -88.981125 12.044437 -334.334656
v -86.806160 12.048368 -332.675262
v -86.826714 14.048017 -332.690643
v -70.385803 13.984858 -356.742676
v -70.385803 12.046570 -356.742676
v -69.680351 14.001358 -355.757843
v -69.672966 12.048673 -355.747681
v -71.097588 12.044701 -357.748291
v -71.085617 13.982595 -357.731354
v -39.369152 13.169261 -332.385529
v -39.369152 14.209748 -332.385529
v -40.443840 12.163764 -332.782898
v -40.424683 14.135303 -332.778809
v 1.261211 14.313260 -333.729218
v 1.261219 12.389639 -333.729218
v 2.433422 14.341653 -334.057037
v 2.445644 12.398027 -334.060547
v 0.132141 12.381736 -333.430969
v 0.151192 14.390605 -333.435883
v -39.369148 12.169147 -332.385529
v -140.077499 0.344818 -718.692749
v -140.077499 -1.591054 -718.692749
v -141.895828 0.287544 -718.337708
v -141.914795 -1.710930 -718.334290
v -138.343582 -1.476979 -719.079468
v -138.372711 0.448635 -719.072510
v -192.400131 -3.170061 -730.263123
v -192.400116 -5.119998 -730.263123
v -193.639893 -3.256616 -731.658875
v -193.652649 -5.225473 -731.673584
v -191.178558 -5.019224 -728.959778
v -191.199402 -3.058019 -728.981445
v -216.586105 -6.075392 -777.823303
v -216.586105 -8.012468 -777.823303
v -217.104950 -6.121920 -778.994385
v -217.110397 -8.075460 -779.006592
v -216.091232 -7.937067 -776.697754
v -216.099518 -5.947286 -776.716675
v -194.247589 -5.037433 -786.746887
v -194.247589 -6.967360 -786.746887
v -193.748062 -5.010282 -785.570068
v -193.742859 -6.954435 -785.557800
v -194.726913 -6.979121 -787.876099
v -194.718842 -5.049422 -787.857117
v -176.218536 -4.973987 -757.049744
v -176.218536 -3.937988 -757.049744
v -176.987549 -6.051544 -757.647766
v -176.974731 -4.087230 -757.637573
v -146.786148 -0.881035 -750.318359
v -146.786118 -2.796356 -750.318359
v -145.834839 -0.745643 -750.528687
v -145.824966 -2.679764 -750.531006
v -147.705170 -2.906379 -750.140686
v -147.689651 -0.904461 -750.143494
v -176.218536 -5.969787 -757.049744
v 121.511375 15.258004 -311.172058
v 121.511375 13.313732 -311.172058
v 120.300713 15.309731 -311.168762
v 120.288124 13.303724 -311.169678
v 122.723938 13.323207 -311.189026
v 122.703270 15.258896 -311.190796
v 84.091522 12.993928 -311.182037
v 84.091522 14.017714 -311.182037
v 85.256523 13.003889 -311.193268
v 85.236900 14.971986 -311.193146
v 47.026096 14.620399 -311.218414
v 47.026089 12.674900 -311.218384
v 45.812649 14.626576 -311.179901
v 45.799988 12.664976 -311.179443
v 48.190765 12.684357 -311.244385
v 48.171139 14.683919 -311.244049
v 36.204178 14.614251 -365.559235
v 36.204178 12.675874 -365.559235
v 37.666882 14.638535 -365.604156
v 37.682171 12.685835 -365.604553
v 34.801056 12.666445 -365.502960
v 34.824699 14.604486 -365.504028
v 82.804779 15.035584 -365.692139
v 82.804779 12.994963 -365.692139
v 84.266861 14.973054 -365.680786
v 84.282166 13.005453 -365.681396
v 81.400589 12.985002 -365.692657
v 81.424194 14.956638 -365.694031
v 128.529236 15.238363 -365.669281
v 128.529236 13.314726 -365.669281
v 129.853638 15.268239 -365.662628
v 129.867020 13.324698 -365.662567
v 127.124771 13.305225 -365.667267
v 127.148430 15.314182 -365.667389
v 84.091522 14.962193 -311.182037
v 12.522728 12.526707 -365.288208
v 12.522728 14.465084 -365.288208
v 12.592381 12.517278 -363.885712
v 12.591103 14.455318 -363.909332
v -53.835815 11.413605 -798.083618
v -53.835815 9.477719 -798.083618
v -54.613556 11.346995 -797.419128
v -54.621704 9.348404 -797.412231
v -53.082306 9.600084 -798.721924
v -53.095093 11.525523 -798.711121
v -73.011292 5.801219 -775.941467
v -73.011292 6.820583 -775.941467
v -72.541534 5.905657 -776.722839
v -72.549423 7.863678 -776.709717
v -93.685043 4.117742 -747.052979
v -93.684982 2.180634 -747.053101
v -94.891953 4.013364 -745.992188
v -94.904694 2.059076 -745.981079
v -92.558075 2.295929 -748.078491
v -92.576904 4.285081 -748.061157
v -123.314209 3.027034 -767.325073
v -123.314209 1.097018 -767.325073
v -122.865280 3.173331 -768.144653
v -122.860733 1.230334 -768.153320
v -123.766479 0.970733 -766.549316
v -123.758698 2.902381 -766.562256
v -114.345184 7.350678 -801.939819
v -114.345169 5.318860 -801.939819
v -114.079346 7.414062 -803.190308
v -114.076584 5.456260 -803.203369
v -114.600220 5.188316 -800.739868
v -114.595917 7.153483 -800.760132
v -95.327774 11.552539 -847.974731
v -95.327774 9.637197 -847.974731
v -94.353180 11.714241 -849.313477
v -94.342926 9.780455 -849.327332
v -96.243515 9.500360 -846.676208
v -96.228195 11.502805 -846.698242
v -73.011292 7.760993 -775.941467
v 37.644257 19.597929 -835.718262
v 37.644226 17.662058 -835.718262
v 36.646393 19.630594 -835.493408
v 36.636017 17.633045 -835.491089
v 38.601807 17.688038 -835.934082
v 38.585632 19.615152 -835.930420
v 6.423981 17.990713 -828.683228
v 6.423981 16.040775 -828.683228
v 5.513092 17.934240 -828.472290
v 5.503723 15.965687 -828.470093
v 7.381470 16.110884 -828.898926
v 7.365326 18.072626 -828.895386
v -25.693817 15.119262 -818.750000
v -25.693817 13.182181 -818.750000
v -26.719360 15.027883 -818.220581
v -26.730011 13.073659 -818.214966
v -24.702362 13.284425 -819.243042
v -24.719177 15.273767 -819.234863
v -56.439224 15.538416 -881.328247
v -56.439224 13.608490 -881.328247
v -54.960663 15.661717 -882.062134
v -54.945129 13.718566 -882.069702
v -57.847382 13.502782 -880.602722
v -57.823761 15.434076 -880.615112
v -6.822723 17.358759 -892.879456
v -6.822662 18.394762 -892.879456
v -8.268707 16.300390 -892.885742
v -8.242035 18.264406 -892.885742
v 33.175903 19.577375 -892.530396
v 33.175842 17.662050 -892.530396
v 34.454224 19.624422 -892.519287
v 34.467560 17.689363 -892.519165
v 31.949127 17.634539 -892.541138
v 31.969818 19.635090 -892.540894
v -6.822723 16.362959 -892.879456
v 247.098053 15.898131 -349.739410
v 247.098083 13.953874 -349.739410
v 245.878174 15.957502 -349.098358
v 245.865417 13.951586 -349.091766
v 248.263657 13.955922 -350.363647
v 248.244110 15.891783 -350.353088
v 206.752213 15.784480 -333.905396
v 206.752258 13.826094 -333.905396
v 205.434296 15.796547 -333.442749
v 205.420288 13.820186 -333.439484
v 208.036530 13.831611 -334.219940
v 208.014877 15.802931 -334.214569
v 163.165894 15.547383 -319.248413
v 163.165909 13.601911 -319.248413
v 161.811188 15.555079 -318.772583
v 161.796951 13.593430 -318.770660
v 164.445450 13.609902 -319.616272
v 164.423447 15.609451 -319.612946
v 164.483856 15.541035 -365.716217
v 164.483841 13.602746 -365.716217
v 165.652817 15.563776 -365.703217
v 165.664993 13.611154 -365.703125
v 163.362335 13.594701 -365.737518
v 163.381226 15.532701 -365.737091
v 200.072601 14.826778 -365.740356
v 200.072601 15.867265 -365.740356
v 198.950867 13.821066 -365.748810
v 198.969742 15.792610 -365.748596
v 234.916138 15.877709 -372.698151
v 234.916107 13.954088 -372.698120
v 235.946625 15.899920 -373.250244
v 235.957306 13.956229 -373.256012
v 234.475662 13.951931 -372.513123
v 234.492218 15.960705 -372.522217
v 200.072601 13.826665 -365.740356
v 159.798218 25.653669 -894.975525
v 159.798203 23.717798 -894.975525
v 158.757355 25.581450 -894.233093
v 158.746521 23.582823 -894.225342
v 160.796921 23.846544 -895.687866
v 160.780075 25.771906 -895.675842
v 121.218613 21.957642 -869.328186
v 121.218628 20.007702 -869.328186
v 119.808395 21.878984 -868.540833
v 119.793625 19.910213 -868.532593
v 122.565979 20.101919 -870.089417
v 122.543289 22.063225 -870.076538
v 74.975800 19.932014 -847.567627
v 74.975800 17.994934 -847.567627
v 73.453384 19.924082 -846.972046
v 73.437485 17.970749 -846.965881
v 76.435684 18.020613 -848.145203
v 76.411118 20.011215 -848.135437
v 72.473282 19.924843 -892.657288
v 72.473267 17.994917 -892.657288
v 73.660965 19.966021 -892.750366
v 73.673355 18.022032 -892.751404
v 71.332748 17.971878 -892.579773
v 71.351990 19.901749 -892.580933
v 106.718178 21.003498 -903.953369
v 106.718178 22.039497 -903.953369
v 105.768288 19.915079 -903.359924
v 105.784325 21.879570 -903.369812
v 135.401794 25.633131 -929.672058
v 135.401810 23.717808 -929.672119
v 136.306046 25.787319 -930.632446
v 136.315475 23.853395 -930.642517
v 134.533630 23.589617 -928.751892
v 134.548264 25.591841 -928.767395
v 106.718178 20.007700 -903.953369
v 347.441406 15.916067 -419.088501
v 347.441406 13.971808 -419.088501
v 346.393646 15.977701 -418.346283
v 346.382721 13.971808 -418.338531
v 348.446747 13.971807 -419.800690
v 348.429810 15.907701 -419.788696
v 314.660065 15.930201 -395.866119
v 314.660065 13.971814 -395.866119
v 313.612335 15.948113 -395.123901
v 313.601410 13.971814 -395.116150
v 315.665436 13.971814 -396.578308
v 315.648499 15.943226 -396.566315
v 281.878754 15.917291 -372.643738
v 281.878754 13.971819 -372.643738
v 280.831024 15.933379 -371.901520
v 280.820099 13.971820 -371.893768
v 282.884125 13.971819 -373.355927
v 282.867188 15.971501 -373.343933
v 266.855011 15.910086 -393.851990
v 266.855011 13.971799 -393.851990
v 267.902771 15.924506 -394.594208
v 267.913696 13.971799 -394.601959
v 265.849670 13.971799 -393.139801
v 265.866577 15.909662 -393.151794
v 279.363922 14.971913 -420.374329
v 279.363922 16.012400 -420.374329
v 279.997528 13.971800 -419.317688
v 279.986847 15.943249 -419.335480
v 279.363922 13.971800 -420.374329
v 293.903870 15.896219 -448.395905
v 293.903870 13.960349 -448.395905
v 295.101379 15.957587 -447.948181
v 295.113861 13.960349 -447.943512
v 292.754822 13.960348 -448.825531
v 292.774170 15.887888 -448.818298
v 328.813843 15.910289 -444.660248
v 328.813843 13.960350 -444.660248
v 329.918823 15.928124 -444.874603
v 329.930328 13.960350 -444.876953
v 327.749847 13.960350 -444.473663
v 327.767822 15.923258 -444.476654
v 313.126923 37.358742 -1015.325806
v 313.126923 35.426331 -1015.325806
v 314.410980 37.382980 -1014.637756
v 314.425751 35.436279 -1014.633423
v 311.896759 35.415222 -1015.980896
v 311.919800 37.347397 -1015.974731
v 360.970428 35.771046 -980.527893
v 360.970428 36.808048 -980.527893
v 360.064850 34.828999 -981.337402
v 360.080109 36.793644 -981.323730
v 390.498230 34.518948 -954.133362
v 390.498230 32.602909 -954.133362
v 391.441986 34.483814 -953.289673
v 391.451782 32.547276 -953.280945
v 389.592651 32.658001 -954.942810
v 389.607880 34.658001 -954.929199
v 360.970428 34.773594 -980.527893
v 358.387329 34.479141 -914.782104
v 358.387329 32.542900 -914.782104
v 357.331879 34.585266 -915.522095
v 357.320862 32.588074 -915.529846
v 359.399048 32.500229 -914.072388
v 359.382019 34.428848 -914.084351
v 323.714447 35.847828 -938.165894
v 323.714417 33.897675 -938.165894
v 322.540344 35.899494 -938.921265
v 322.528107 33.931854 -938.929077
v 324.841522 33.863720 -937.441223
v 324.822540 35.827442 -937.453430
v 289.503143 36.236454 -954.165222
v 289.503143 34.299381 -954.165222
v 288.346680 36.254276 -954.478210
v 288.334595 34.301189 -954.481384
v 290.609711 34.297199 -953.853333
v 290.591064 36.288288 -953.858704
v 420.026062 33.491558 -927.738708
v 420.026062 31.561760 -927.738708
v 420.969757 33.493378 -926.895142
v 420.979645 31.549112 -926.886353
v 419.120483 31.575216 -928.548218
v 419.135742 33.504375 -928.534607
v 449.553802 32.759686 -901.344238
v 449.553772 33.795727 -901.344177
v 448.648193 31.745937 -902.153687
v 448.663513 33.708588 -902.140076
v 479.081543 34.203884 -874.949646
v 479.081543 32.288925 -874.949646
v 480.025330 34.229156 -874.106079
v 480.035187 32.294224 -874.097229
v 478.175964 32.282742 -875.759155
v 478.191193 34.282543 -875.745544
v 449.553802 31.764519 -901.344238
v 456.672424 34.215786 -845.896667
v 456.672424 32.280293 -845.896667
v 455.625122 34.270023 -846.630005
v 455.614227 32.273106 -846.637634
v 457.677338 32.285969 -845.193054
v 457.660400 34.213066 -845.204895
v 423.906311 33.685585 -868.839722
v 423.906311 31.736275 -868.839722
v 422.859131 33.683479 -869.572998
v 422.848145 31.716114 -869.580688
v 424.911194 31.755753 -868.136108
v 424.894257 33.717701 -868.148010
v 391.140259 33.457058 -891.782776
v 391.140259 31.520109 -891.782776
v 390.092987 33.487225 -892.516052
v 390.082062 31.534376 -892.523743
v 392.145142 31.508059 -891.079102
v 392.128235 33.499199 -891.090942
v 365.153900 15.803375 -463.542084
v 365.153900 13.859118 -463.542084
v 366.200012 15.850460 -464.286652
v 366.210876 13.844412 -464.294403
v 364.150116 13.872276 -462.827637
v 364.167023 15.807952 -462.839661
v 397.883270 14.987626 -486.837494
v 397.883331 13.029239 -486.837524
v 398.929413 14.967240 -487.582062
v 398.940308 12.990539 -487.589844
v 396.879547 13.065360 -486.123077
v 396.896423 15.036168 -486.135101
v 430.612732 13.489129 -510.132935
v 430.612732 11.543658 -510.132935
v 431.658813 13.448935 -510.877472
v 431.669739 11.486787 -510.885284
v 429.608948 11.597203 -509.418488
v 429.625885 13.595988 -509.430511
v 445.683746 13.364969 -488.958252
v 445.683746 11.426682 -488.958252
v 444.637665 13.458507 -488.213654
v 444.626770 11.506623 -488.205933
v 446.687469 11.350528 -489.672668
v 446.670593 13.289679 -489.660645
v 412.954285 14.029350 -465.662781
v 412.954315 15.069835 -465.662811
v 413.958099 12.992498 -466.377258
v 413.941162 14.964571 -466.365204
v 380.224854 15.782740 -442.367371
v 380.224884 13.859118 -442.367371
v 379.178802 15.816527 -441.622803
v 379.167908 13.872952 -441.615051
v 381.228668 13.845175 -443.081787
v 381.211761 15.854152 -443.069763
v 412.954315 13.029235 -465.662811
v 508.609253 33.905941 -848.554993
v 508.609253 31.975925 -848.554993
v 509.552979 33.905739 -847.711426
v 509.562866 31.961212 -847.702576
v 507.703674 31.989914 -849.364502
v 507.718933 33.919197 -849.350830
v 537.035095 33.563755 -779.051514
v 537.035095 31.531935 -779.051514
v 535.148193 33.477501 -777.771118
v 535.131775 31.518137 -777.753296
v 538.742981 31.545076 -780.325317
v 538.721924 33.507824 -780.294250
v 489.409180 33.050270 -754.656128
v 489.409180 31.134932 -754.656128
v 488.250549 33.058243 -754.115784
v 488.238403 31.122860 -754.110168
v 490.521027 31.146458 -755.174561
v 490.502258 33.146389 -755.165771
v 470.575317 33.064354 -790.781921
v 470.575317 31.128473 -790.781921
v 471.751495 33.137733 -791.358643
v 471.764191 31.140614 -791.363647
v 469.456055 31.117008 -790.208862
v 469.474854 33.044693 -790.218506
v 489.438477 33.913036 -822.953613
v 489.438507 31.975929 -822.953613
v 488.391205 33.943546 -823.686951
v 488.380310 31.990662 -823.694580
v 490.443390 31.961956 -822.250000
v 490.426422 33.953285 -822.261902
v 168.278107 29.946203 -962.106201
v 168.278107 28.016190 -962.106201
v 169.467682 30.095261 -963.214172
v 169.480133 28.152288 -963.225708
v 167.136566 27.886440 -961.043091
v 167.155792 29.818153 -961.060974
v 208.449646 33.825600 -997.830322
v 208.449646 31.793781 -997.830322
v 209.941467 33.852760 -998.923523
v 209.957092 31.894573 -998.934875
v 207.025513 31.696489 -996.765808
v 207.049438 33.661106 -996.783875
v 257.676331 36.266197 -1023.505127
v 257.676331 34.349625 -1023.505127
v 259.298279 36.349472 -1024.015991
v 259.315186 34.413567 -1024.021240
v 256.120697 34.286888 -1022.996033
v 256.146912 36.289291 -1023.004761
v 252.734192 35.914921 -957.642517
v 252.734192 33.979034 -957.642517
v 251.611847 35.936451 -957.505981
v 251.600159 33.938770 -957.504517
v 253.816559 34.014717 -957.758423
v 253.798309 35.941631 -957.756592
v 220.925690 31.707176 -946.105530
v 220.925690 32.726543 -946.105530
v 221.786316 31.802790 -946.668518
v 221.771729 33.760960 -946.659180
v 191.315582 29.953302 -920.921997
v 191.315582 28.016195 -920.921997
v 190.349213 29.834000 -919.986328
v 190.339142 27.879553 -919.976562
v 192.245270 28.145451 -921.814514
v 192.229523 30.134373 -921.799500
v 220.925690 33.666946 -946.105530
v 453.156921 32.727024 -737.751282
v 453.156921 30.797098 -737.751282
v 451.998169 32.731945 -737.210999
v 451.986084 30.787565 -737.205383
v 454.268738 30.806238 -738.269775
v 454.250000 32.735584 -738.260986
v 416.904602 31.545805 -720.846619
v 416.904602 32.581799 -720.846619
v 418.016418 30.555990 -721.364990
v 417.997681 32.518833 -721.356323
v 416.904602 30.550005 -720.846619
v 398.870911 32.493465 -754.159119
v 398.870972 30.543526 -754.159119
v 399.997742 32.517540 -754.731567
v 400.009399 30.549831 -754.737488
v 434.406860 32.727711 -772.272827
v 434.406921 30.790628 -772.272888
v 435.552734 32.753258 -772.858521
v 435.564697 30.800255 -772.864685
v 433.307983 30.781572 -771.711304
v 433.326538 32.772781 -771.720764
v 465.449249 11.527034 -534.347046
v 465.449249 9.582762 -534.347046
v 466.635803 11.520167 -535.142517
v 466.650696 9.513548 -535.147583
v 464.249451 9.648205 -533.617859
v 464.272095 11.582951 -533.626648
v 539.025513 7.326930 -559.560913
v 539.025513 8.350717 -559.560913
v 537.608215 7.398736 -560.626587
v 537.635071 9.365793 -560.612183
v 583.387085 6.902062 -506.822113
v 583.387085 4.956562 -506.822113
v 583.930786 6.842425 -505.434082
v 583.936340 4.880139 -505.419617
v 582.849609 5.029202 -508.147614
v 582.858826 7.027699 -508.125336
v 522.313538 5.627538 -479.942413
v 522.313538 3.689160 -479.942413
v 521.871887 5.719087 -481.031097
v 521.867188 3.767093 -481.042419
v 522.724915 3.615435 -478.892670
v 522.718079 5.554557 -478.910370
v 503.585175 8.255259 -507.083191
v 503.585175 6.214634 -507.083191
v 502.765137 8.265903 -507.540619
v 502.756500 6.299063 -507.545227
v 504.356201 6.134568 -506.616455
v 504.343292 8.107388 -506.624573
v 474.618469 10.777588 -508.112671
v 474.618439 8.853951 -508.112671
v 473.757660 10.881811 -507.776855
v 473.748718 8.939048 -507.773254
v 475.455505 8.773074 -508.416962
v 475.441345 10.783234 -508.411987
v 539.025574 9.295195 -559.560852
v 398.798553 32.391289 -712.393311
v 398.798523 30.455418 -712.393311
v 397.639893 32.440422 -711.853027
v 397.627808 30.443050 -711.847351
v 399.910400 30.466476 -712.911804
v 399.891663 32.393837 -712.903015
v 362.546265 31.703262 -695.488586
v 362.546265 29.753323 -695.488586
v 361.387573 31.688530 -694.948303
v 361.375488 29.720413 -694.942688
v 363.658081 29.784023 -696.007080
v 363.639282 31.746418 -695.998291
v 331.575897 30.418455 -677.907471
v 331.575897 28.481379 -677.907471
v 330.409271 30.385958 -677.184326
v 330.395142 28.432350 -677.175659
v 332.617493 28.527523 -678.555420
v 332.599976 30.517805 -678.544556
v 296.935547 30.411289 -706.565125
v 296.935547 28.481365 -706.565125
v 298.145172 30.473732 -707.109863
v 298.161682 28.529943 -707.119080
v 295.916840 28.434814 -706.035828
v 295.932983 30.365108 -706.044678
v 344.504944 30.734930 -728.817749
v 344.504944 31.770937 -728.817749
v 343.393158 29.707895 -728.299316
v 343.411926 31.671366 -728.308044
v 380.757263 32.356560 -745.722473
v 380.757263 30.441238 -745.722473
v 381.915955 32.388073 -746.262756
v 381.928040 30.452862 -746.268433
v 379.645477 30.429514 -745.204041
v 379.664185 32.429779 -745.212769
v 344.504944 29.739134 -728.817749
v 594.231689 4.596263 -451.417480
v 594.231689 2.652005 -451.417450
v 594.221558 4.587342 -449.923950
v 594.221375 2.580714 -449.908356
v 594.224365 2.719941 -452.850464
v 594.224609 4.654688 -452.826355
v 580.636719 2.552087 -400.017120
v 580.636719 0.593700 -400.017120
v 579.353943 2.510288 -399.007477
v 579.347961 0.533368 -398.993011
v 581.338501 0.651405 -401.282166
v 581.329834 2.621841 -401.259644
v 520.320068 0.907482 -361.637115
v 520.320068 -1.037989 -361.637115
v 519.519775 0.880469 -360.633057
v 519.511414 -1.081537 -360.622559
v 521.088013 -0.996049 -362.600555
v 521.075073 1.002923 -362.584351
v 504.580231 0.537899 -374.410858
v 504.580231 -1.400389 -374.410858
v 505.380554 0.575566 -375.414917
v 505.388916 -1.376895 -375.425385
v 503.812286 -1.421894 -373.447388
v 503.825195 0.516326 -373.463623
v 524.975098 0.701378 -406.862274
v 524.975098 1.741863 -406.862244
v 524.547791 -0.343180 -405.813019
v 524.555115 1.629013 -405.830658
v 529.193359 3.381530 -444.011261
v 529.193359 1.457909 -444.011292
v 529.187134 3.466553 -445.188965
v 529.187012 1.523521 -445.201263
v 529.185852 1.396060 -442.881134
v 529.186096 3.405834 -442.900146
v 524.975098 -0.298736 -406.862244
v 290.619781 28.712337 -654.745728
v 290.619751 26.776451 -654.745667
v 289.217529 28.713596 -653.994629
v 289.202881 26.715719 -653.986938
v 291.952728 26.833841 -655.488892
v 291.930359 28.760372 -655.476135
v 253.368195 24.775375 -637.166626
v 253.368164 25.794744 -637.166626
v 254.480011 24.839813 -637.685120
v 254.461273 26.798502 -637.676392
v 217.115921 24.552120 -620.261963
v 217.115906 22.615015 -620.261963
v 215.957214 24.497904 -619.721619
v 215.945129 22.544134 -619.716003
v 218.227707 22.682302 -620.780396
v 218.208984 24.672264 -620.771667
v 193.142029 24.544987 -658.040222
v 193.142029 22.614971 -658.040222
v 194.300674 24.629471 -658.580566
v 194.312775 22.685825 -658.586182
v 192.030182 22.547661 -657.521790
v 192.048920 24.478321 -657.530518
v 229.394318 26.807158 -674.945007
v 229.394287 24.775339 -674.945007
v 230.552994 26.801710 -675.485291
v 230.565079 24.843191 -675.490906
v 228.282486 24.710752 -674.426575
v 228.301239 26.674809 -674.435303
v 265.098846 28.691761 -691.748657
v 265.098877 26.776423 -691.748657
v 266.098328 28.771482 -692.305908
v 266.108704 26.836847 -692.311829
v 264.130737 26.718756 -691.230103
v 264.147125 28.719860 -691.238708
v 253.368164 26.735147 -637.166626
v 189.455750 22.368069 -602.250183
v 189.455765 20.432198 -602.250183
v 188.763809 22.360828 -601.551392
v 188.758698 20.362873 -601.542603
v 190.116272 20.498138 -602.859131
v 190.107742 22.424566 -602.845886
v 180.589447 20.313774 -569.082275
v 180.589447 18.363836 -569.082275
v 180.589447 20.268921 -567.803772
v 180.589447 18.300493 -567.790466
v 180.589462 18.424234 -570.309021
v 180.589447 20.386122 -570.288330
v 181.970749 18.483841 -531.075928
v 181.970749 16.546762 -531.075928
v 182.175232 18.447456 -530.017212
v 182.177444 16.493814 -530.006165
v 181.787216 16.597420 -532.094177
v 181.790207 18.587618 -532.076965
v 161.770813 19.726841 -527.326843
v 161.770813 17.796915 -527.326843
v 161.521500 19.795513 -528.712097
v 161.518982 17.851795 -528.726562
v 162.026611 17.744791 -526.000671
v 162.022156 19.675173 -526.022949
v 159.894714 20.475645 -569.082458
v 159.894714 21.511642 -569.082458
v 159.894699 19.428930 -567.855713
v 159.894699 21.392733 -567.876404
v 160.410767 22.786375 -620.557129
v 160.410767 20.871052 -620.557129
v 160.415939 22.843519 -622.234924
v 160.413986 20.908598 -622.251282
v 160.375793 20.834742 -618.958984
v 160.371597 22.835459 -618.984192
v 159.894714 19.479847 -569.082458
v 195.749695 17.053709 -499.406006
v 195.749695 15.117825 -499.406006
v 196.404480 17.077333 -498.549316
v 196.411377 15.079694 -498.540436
v 195.131699 15.154544 -500.235840
v 195.142029 17.081417 -500.221802
v 221.377197 14.213883 -476.462494
v 221.377197 15.233253 -476.462494
v 220.521072 14.232467 -477.043488
v 220.535446 16.191923 -477.033630
v 256.436676 15.897471 -462.404266
v 256.436676 13.960365 -462.404266
v 257.634186 15.913402 -461.956543
v 257.646667 13.960365 -461.951843
v 255.287598 13.960364 -462.833862
v 255.306976 15.951460 -462.826630
v 247.373718 15.890363 -438.164825
v 247.373718 13.960349 -438.164825
v 246.176224 15.904725 -438.612549
v 246.163727 13.960349 -438.617218
v 248.522781 13.960349 -437.735199
v 248.503403 15.889871 -437.742462
v 208.955994 16.372709 -455.703003
v 208.955994 14.340890 -455.702972
v 207.791565 16.335388 -456.493713
v 207.779449 14.376541 -456.502014
v 210.082687 14.308014 -454.958252
v 210.063644 16.271524 -454.970673
v 178.139450 17.815111 -486.755829
v 178.139450 15.899771 -486.755829
v 177.372589 17.899023 -487.936127
v 177.364670 15.964437 -487.948517
v 178.889328 15.839108 -485.632538
v 178.876587 17.840254 -485.651398
v 221.377197 16.173658 -476.462463
v 374.067566 -0.380286 -18.237776
v 374.067566 -2.324558 -18.237776
v 375.351593 -0.318655 -18.237843
v 375.364960 -2.324559 -18.237831
v 372.835510 -2.324558 -18.237734
v 372.856262 -0.388710 -18.237715
v 402.488037 -2.324580 -20.047241
v 402.488037 -1.300796 -20.047241
v 401.427002 -2.324581 -19.778828
v 401.444946 -0.356316 -19.783169
v 424.933502 -0.379078 -43.628170
v 424.933502 -2.324577 -43.628170
v 425.633911 -0.363079 -44.561687
v 425.641113 -2.324577 -44.571495
v 424.243561 -2.324577 -42.747074
v 424.255310 -0.324856 -42.761806
v 499.862701 -0.386185 13.594738
v 499.862701 -2.324562 13.594738
v 498.150696 -0.371761 13.628017
v 498.132843 -2.324562 13.628145
v 504.640961 -2.324563 13.536057
v 504.613281 -0.386680 13.534842
v 419.199005 -0.283938 13.792433
v 419.199005 -2.324560 13.792433
v 417.512360 -0.356851 13.796186
v 417.494812 -2.324560 13.796061
v 420.817749 -2.324560 13.755459
v 420.790497 -0.353090 13.756342
v 374.068542 -0.400920 13.714298
v 374.068542 -2.324557 13.714298
v 372.784546 -0.380914 13.714342
v 372.771179 -2.324558 13.714354
v 375.300598 -2.324557 13.714209
v 375.279846 -0.315761 13.714211
v 402.488037 -0.356317 -20.047241
v 445.163818 -0.380314 -77.424110
v 445.163818 -2.324574 -77.424110
v 445.817383 -0.318681 -78.529343
v 445.824188 -2.324572 -78.540871
v 444.536682 -2.324574 -76.363586
v 444.547272 -0.388681 -76.381454
v 465.612152 -0.366184 -112.003853
v 465.612152 -2.324571 -112.003853
v 466.265686 -0.348273 -113.109070
v 466.272522 -2.324572 -113.120613
v 464.985016 -2.324572 -110.943344
v 464.995575 -0.353159 -110.961197
v 491.953461 -0.379097 -145.412674
v 491.953461 -2.324568 -145.412674
v 493.370972 -0.363009 -145.702057
v 493.385773 -2.324568 -145.703964
v 490.600037 -2.324568 -145.082550
v 490.622833 -0.324886 -145.086655
v 549.197937 -0.386289 -89.440208
v 549.197937 -2.324576 -89.440208
v 549.206482 -0.371869 -88.698105
v 549.206665 -2.324576 -88.690376
v 549.208252 -2.324577 -90.152176
v 549.207947 -0.386712 -90.140198
v 548.796814 -1.324459 -46.982262
v 548.796814 -0.283972 -46.982262
v 548.817505 -2.324573 -48.214138
v 548.817139 -0.353123 -48.193386
v 548.122559 -0.400944 -6.814629
v 548.122620 -2.324565 -6.814629
v 548.101013 -0.380852 -5.530785
v 548.100830 -2.324565 -5.517380
v 548.143250 -2.324566 -8.046478
v 548.142883 -0.315829 -8.025742
v 548.796875 -2.324573 -46.982239
v 193.287994 -0.836368 13.720184
v 193.287994 1.102009 13.720184
v 194.571991 1.101743 13.720184
v 194.585388 -0.851215 13.720184
v 192.055939 -0.822952 13.720182
v 192.076691 1.114710 13.720182
v 233.461288 -1.520898 13.720194
v 233.461288 0.519724 13.720188
v 234.745285 0.421174 13.720188
v 234.758682 -1.546803 13.720194
v 232.229218 -1.496296 13.720194
v 232.249985 0.474760 13.720188
v 273.634552 -2.204205 13.720201
v 273.634552 -0.280568 13.720198
v 274.918549 -0.274449 13.720198
v 274.931946 -2.218233 13.720201
v 272.402496 -2.190197 13.720201
v 272.423248 -0.181642 13.720201
v 273.634338 -2.204316 -12.996393
v 273.634338 -0.260045 -12.996393
v 272.350342 -0.183796 -13.072258
v 272.336914 -2.189543 -13.073067
v 274.866394 -2.217659 -12.926451
v 274.845642 -0.281592 -12.927610
v 233.461044 -0.497142 -16.290649
v 233.461044 -1.520928 -16.290653
v 234.693115 -1.545531 -16.175854
v 234.672348 0.423149 -16.177792
v 193.287781 -0.836374 -19.893721
v 193.287781 1.109124 -19.893715
v 192.003754 1.139089 -19.956985
v 191.990387 -0.822267 -19.957624
v 194.519836 -0.850457 -19.829857
v 194.499084 1.149506 -19.830954
v 233.461044 0.447337 -16.290649
v 293.721191 -0.366186 -12.272659
v 293.721191 -2.324573 -12.272659
v 295.005188 -0.348273 -12.272751
v 295.018616 -2.324573 -12.272724
v 333.894501 -0.379096 -12.274502
v 333.894501 -2.324567 -12.274502
v 335.178497 -0.363007 -12.274515
v 335.191864 -2.324567 -12.274553
v 332.662445 -2.324567 -12.274433
v 332.683197 -0.324885 -12.274445
v 333.895447 -0.386294 13.715944
v 333.895447 -2.324581 13.715944
v 332.611450 -0.371874 13.716000
v 332.598022 -2.324581 13.716034
v 335.127533 -2.324583 13.715916
v 335.106750 -0.386718 13.715899
v 293.722137 -1.324467 13.717756
v 293.722137 -0.283981 13.717756
v 294.954193 -2.324580 13.717735
v 294.933472 -0.353131 13.717686
v 293.721008 -2.323475 13.720215
v 158.136108 -0.419782 -19.729557
v 153.449661 -0.419784 -19.729557
v 158.136108 -1.667720 -19.729557
v 153.449661 -1.667721 -19.729557
v 88.419212 -0.346540 -19.729568
v 93.640198 -0.346540 -19.729568
v 93.640198 -1.667721 -19.729568
v 88.419212 -1.667721 -19.729568
v 153.114410 1.222790 13.720180
v 153.114410 -0.715587 13.720180
v 151.830414 1.237214 13.720180
v 151.817017 -0.715587 13.720180
v 154.346466 -0.715587 13.720180
v 154.325714 1.222295 13.720180
v 112.941116 1.325038 13.720186
v 112.941116 -0.715583 13.720189
v 111.657120 1.252126 13.720186
v 111.643723 -0.715583 13.720189
v 114.173172 -0.715583 13.720189
v 114.152420 1.255886 13.720186
v 72.767838 1.208057 13.720192
v 72.767838 -0.715579 13.720196
v 71.483833 1.228063 13.720192
v 71.470436 -0.715579 13.720196
v 73.999893 -0.715580 13.720196
v 73.979141 1.293217 13.720192
v 28.609755 -0.273238 -19.729580
v 23.896423 -0.273238 -19.729580
v 28.609755 -1.667721 -19.729580
v 23.896423 -1.667721 -19.729580
v 32.594467 1.222692 13.720181
v 32.594467 -0.715595 13.720181
v 31.310457 1.237113 13.720181
v 31.297066 -0.715595 13.720181
v 33.826523 -0.715595 13.720181
v 33.805771 1.222269 13.720181
v -7.578823 0.284522 13.720188
v -7.578823 1.325009 13.720187
v -6.346771 -0.715591 13.720190
v -6.367519 1.255858 13.720187
v -47.752098 1.208033 13.720193
v -47.752098 -0.715587 13.720196
v -49.036110 1.228125 13.720193
v -49.049500 -0.715587 13.720196
v -46.520042 -0.715587 13.720196
v -46.540794 1.293148 13.720193
v -7.578823 -0.715591 13.720190
v -42.730240 -0.239253 -19.729603
v -45.241066 -0.239253 -19.729603
v -42.730240 -1.667729 -19.729603
v -45.241066 -1.667730 -19.729603
v -37.708572 -0.239253 -19.729603
v -40.219406 -0.239253 -19.729603
v -37.708572 -1.667729 -19.729603
v -40.219406 -1.667729 -19.729603
v 536.101318 -2.324557 -182.404526
v 536.101318 -1.300770 -182.404526
v 536.449219 -2.324557 -181.222610
v 536.443359 -0.356292 -181.242523
v 522.732910 -0.379057 -219.833939
v 522.732910 -2.324556 -219.833939
v 522.265381 -0.363057 -221.029785
v 522.260498 -2.324556 -221.042267
v 523.181519 -2.324555 -218.686462
v 523.174011 -0.324834 -218.705780
v 544.600891 -0.386199 -226.721878
v 544.600891 -2.324575 -226.721878
v 544.637268 -0.371775 -225.473175
v 544.641052 -2.324575 -225.460312
v 544.556519 -2.324576 -227.914795
v 544.562378 -0.386693 -227.894882
v 553.372681 -0.283947 -187.471405
v 553.372742 -2.324569 -187.471405
v 553.735291 -0.356860 -186.239655
v 553.739075 -2.324569 -186.226807
v 553.024780 -2.324569 -188.653320
v 553.030640 -0.353099 -188.633408
v 571.692444 -0.400923 -132.357010
v 571.692444 -2.324561 -132.357010
v 572.143066 -0.380918 -129.318726
v 572.141235 -2.324561 -129.287323
v 571.123047 -2.324561 -135.121399
v 571.130005 -0.315765 -135.073242
v 536.101318 -0.356292 -182.404526
v 523.036499 -2.324566 -304.152039
v 523.036499 -1.300780 -304.152039
v 522.687805 -2.324566 -305.333710
v 522.693665 -0.356302 -305.313812
v 534.407104 -0.379060 -265.621521
v 534.407104 -2.324559 -265.621521
v 534.770508 -0.363061 -264.390015
v 534.774353 -2.324559 -264.377197
v 534.058411 -2.324559 -266.803192
v 534.064270 -0.324838 -266.783295
v 509.479401 -0.386202 -258.265411
v 509.479401 -2.324579 -258.265411
v 509.115997 -0.371778 -259.496887
v 509.112183 -2.324579 -259.509766
v 509.828125 -2.324578 -257.083740
v 509.822266 -0.386696 -257.103638
v 498.108826 -0.283955 -296.795929
v 498.108795 -2.324577 -296.795929
v 497.745392 -0.356869 -298.027435
v 497.741608 -2.324577 -298.040283
v 498.457520 -2.324577 -295.614258
v 498.451660 -0.353107 -295.634155
v 486.695618 -0.139049 -335.618103
v 486.695618 -2.062686 -335.618103
v 486.364563 -0.097513 -337.135376
v 486.361450 -2.040927 -337.151276
v 487.077789 -2.082589 -334.177826
v 487.070831 -0.073464 -334.201935
v 523.036499 -0.356301 -304.152039
vn -0.0000 -0.0000 -1.0000
vn 0.0578 -0.0000 0.9983
vn 0.0590 -0.0000 0.9983
vn 0.0567 -0.0000 0.9984
vn 0.0928 -0.0000 0.9957
vn 0.0505 -0.0000 0.9987
vn 0.0492 -0.0000 0.9988
vn 0.0518 -0.0000 0.9987
vn 0.0517 -0.0000 0.9987
vn -0.8911 -0.0000 0.4537
vn -0.8912 -0.0000 0.4535
vn -0.8865 -0.0000 0.4628
vn -0.8864 -0.0001 0.4629
vn -0.8959 -0.0000 0.4442
vn -0.8959 -0.0001 0.4443
vn 0.9443 -0.0000 -0.3291
vn 0.9409 -0.0000 -0.3388
vn 0.9408 -0.0001 -0.3389
vn 0.9477 -0.0000 -0.3193
vn 0.9476 -0.0001 -0.3194
vn 0.8631 -0.0000 -0.5050
vn 0.9213 -0.0000 -0.3888
vn 0.9214 -0.0000 -0.3886
vn 0.9259 -0.0000 -0.3777
vn 0.9260 0.0001 -0.3776
vn 0.9167 0.0001 -0.3995
vn 0.9168 0.0002 -0.3994
vn -0.7406 -0.0000 0.6719
vn -0.7405 -0.0000 0.6721
vn -0.7368 -0.0000 0.6761
vn -0.7368 -0.0001 0.6761
vn -0.7443 -0.0000 0.6678
vn -0.7443 -0.0000 0.6679
vn -0.4600 -0.0000 0.8879
vn -0.4598 -0.0000 0.8880
vn -0.4550 -0.0000 0.8905
vn -0.4549 -0.0000 0.8905
vn -0.4648 -0.0000 0.8854
vn -0.1217 -0.0000 0.9926
vn -0.1215 -0.0000 0.9926
vn -0.1160 -0.0000 0.9932
vn -0.1160 -0.0000 0.9933
vn -0.1271 -0.0000 0.9919
vn -0.1270 -0.0001 0.9919
vn 0.0011 -0.0000 -1.0000
vn 0.0008 -0.0000 -1.0000
vn 0.0065 -0.0000 -1.0000
vn -0.0046 -0.0000 -1.0000
vn -0.0046 0.0001 -1.0000
vn 0.1366 -0.0000 -0.9906
vn 0.1325 -0.0025 -0.9912
vn 0.1343 -0.0014 -0.9909
vn 0.1301 -0.0040 -0.9915
vn 0.7408 -0.0000 -0.6717
vn 0.7407 -0.0000 -0.6719
vn 0.7445 -0.0000 -0.6676
vn 0.7370 -0.0000 -0.6759
vn 0.7371 0.0001 -0.6758
vn -0.9941 -0.0000 -0.1082
vn -0.9942 -0.0000 -0.1078
vn -0.9949 -0.0000 -0.1013
vn -0.9949 -0.0001 -0.1013
vn -0.9934 -0.0000 -0.1148
vn -0.9934 -0.0000 -0.1147
vn -0.9496 -0.0000 0.3134
vn -0.9496 -0.0000 0.3135
vn -0.9267 -0.0000 0.3759
vn -0.9266 -0.0000 0.3760
vn -0.9261 -0.0000 0.3772
vn -0.9261 -0.0000 0.3773
vn -0.9272 -0.0000 0.3746
vn 0.9267 -0.0000 -0.3758
vn 0.9266 -0.0000 -0.3759
vn 0.9272 -0.0000 -0.3746
vn 0.9261 -0.0000 -0.3772
vn 0.9262 -0.0000 -0.3771
vn 0.9960 -0.0000 -0.0897
vn 0.9944 -0.0010 -0.1060
vn 0.9908 -0.0014 0.1353
vn 0.9912 -0.0035 0.1322
vn 0.9453 -0.0000 -0.3261
vn 0.9454 0.0001 -0.3260
vn 0.9941 -0.0000 0.1084
vn 0.9941 -0.0000 0.1081
vn 0.9934 -0.0000 0.1151
vn 0.9934 0.0001 0.1151
vn 0.9948 -0.0000 0.1016
vn 0.9948 0.0001 0.1016
vn -0.9496 -0.0000 0.3136
vn -0.9999 -0.0000 0.0170
vn -0.9999 -0.0000 0.0172
vn -0.9999 -0.0000 0.0168
vn -0.9995 -0.0000 0.0321
vn -0.9995 -0.0000 0.0323
vn -0.9995 -0.0000 0.0319
vn -0.9989 -0.0000 0.0472
vn -0.9989 -0.0000 0.0475
vn -0.9989 -0.0000 0.0470
vn 1.0000 -0.0000 -0.0000
vn -1.0000 -0.0000 -0.0000
vn -0.8905 -0.0004 -0.4550
vn -0.8893 -0.0000 -0.4574
vn -0.8617 -0.0000 -0.5075
vn -0.8616 0.0001 -0.5075
vn -0.9155 -0.0004 -0.4024
vn -0.9159 -0.0011 -0.4014
vn -0.5899 -0.0000 -0.8075
vn -0.5896 -0.0000 -0.8077
vn -0.5845 -0.0000 -0.8114
vn -0.5844 0.0001 -0.8114
vn -0.5950 -0.0000 -0.8037
vn -0.5949 0.0001 -0.8038
vn -0.8564 -0.0000 -0.5163
vn -0.8567 -0.0000 -0.5157
vn -0.8601 -0.0000 -0.5102
vn -0.8601 -0.0000 -0.5101
vn -0.8531 -0.0000 -0.5218
vn -0.8531 -0.0001 -0.5217
vn 0.8564 -0.0000 0.5164
vn 0.8566 -0.0000 0.5160
vn 0.8529 -0.0000 0.5220
vn 0.8529 -0.0000 0.5221
vn 0.8600 0.0001 0.5104
vn 0.8599 0.0001 0.5104
vn 0.7269 -0.0000 0.6868
vn 0.7269 -0.0001 0.6867
vn 0.7269 -0.0000 0.6867
vn 0.7270 -0.0001 0.6867
vn 0.9441 -0.0000 0.3298
vn 0.9440 -0.0000 0.3301
vn 0.9461 -0.0000 0.3237
vn 0.9462 -0.0000 0.3237
vn 0.9419 -0.0000 0.3359
vn 0.9419 -0.0001 0.3358
vn -1.0000 -0.0000 0.0054
vn -1.0000 -0.0000 0.0053
vn -1.0000 -0.0000 0.0056
vn -1.0000 -0.0000 0.0051
vn -0.9999 -0.0000 -0.0131
vn -1.0000 -0.0000 0.0020
vn -1.0000 -0.0000 0.0022
vn -1.0000 -0.0000 0.0018
vn -1.0000 -0.0001 0.0018
vn 1.0000 -0.0001 -0.0000
vn -0.9945 -0.0000 0.1048
vn 1.0000 -0.0000 0.0001
vn 0.4878 -0.0000 -0.8729
vn 0.4882 -0.0000 -0.8727
vn 0.4735 -0.0000 -0.8808
vn 0.4734 -0.0001 -0.8808
vn 0.5029 -0.0000 -0.8644
vn 0.5026 -0.0001 -0.8645
vn -0.5323 -0.0000 -0.8466
vn -0.5323 -0.0000 -0.8465
vn -0.5464 -0.0000 -0.8376
vn -0.5465 -0.0001 -0.8375
vn -0.5180 -0.0000 -0.8554
vn -0.5182 -0.0001 -0.8553
vn -0.9974 -0.0002 0.0717
vn -0.9975 0.0002 0.0711
vn -0.9974 0.0002 0.0726
vn -0.9974 0.0005 0.0721
vn -0.9975 -0.0003 0.0702
vn -0.9975 -0.0008 0.0710
vn -0.0120 0.0001 0.9999
vn -0.0118 -0.0000 0.9999
vn -0.0037 0.0002 1.0000
vn -0.0037 0.0003 1.0000
vn -0.0204 0.0004 0.9998
vn -0.0206 0.0007 0.9998
vn 0.9998 -0.0000 0.0209
vn 0.9998 -0.0042 0.0175
vn 0.9999 -0.0056 0.0164
vn 0.9999 -0.0099 0.0128
vn 0.6088 -0.0000 -0.7933
vn 0.6088 -0.0000 -0.7934
vn 0.6087 -0.0000 -0.7934
vn -0.8162 -0.0000 0.5777
vn -0.8163 -0.0000 0.5777
vn -0.8162 -0.0000 0.5778
vn 0.7520 -0.0001 -0.6591
vn 0.7526 -0.0000 -0.6585
vn 0.7402 -0.0000 -0.6723
vn 0.7401 -0.0001 -0.6725
vn 0.7644 -0.0000 -0.6447
vn 0.7643 -0.0002 -0.6449
vn -0.2322 0.0002 -0.9727
vn -0.2234 -0.0000 -0.9747
vn -0.3016 -0.0000 -0.9534
vn -0.3015 -0.0001 -0.9535
vn -0.1527 0.0002 -0.9883
vn -0.1517 0.0007 -0.9884
vn -0.8740 -0.0001 -0.4859
vn -0.8734 -0.0000 -0.4871
vn -0.8778 -0.0000 -0.4790
vn -0.8779 -0.0000 -0.4789
vn -0.8695 -0.0000 -0.4939
vn -0.8696 -0.0001 -0.4938
vn 0.9999 0.0002 -0.0120
vn 0.9999 -0.0000 -0.0131
vn 0.9998 -0.0000 -0.0219
vn 0.9998 0.0001 -0.0218
vn 1.0000 0.0003 -0.0031
vn 1.0000 0.0006 -0.0027
vn -0.0262 -0.0000 0.9997
vn -0.0291 0.0030 0.9996
vn -0.0291 0.0031 0.9996
vn -0.0321 0.0062 0.9995
vn -0.8112 0.0001 0.5848
vn -0.8114 -0.0000 0.5845
vn -0.8225 0.0001 0.5687
vn -0.8226 0.0002 0.5687
vn -0.8000 0.0002 0.6000
vn -0.8001 0.0003 0.5998
vn -0.0028 0.0011 -1.0000
vn -0.0049 -0.0006 -1.0000
vn -0.0084 -0.0009 -1.0000
vn -0.0098 -0.0020 -1.0000
vn 0.0010 0.0015 -1.0000
vn 0.0039 0.0037 -1.0000
vn 0.1949 -0.0000 -0.9808
vn 0.1948 -0.0000 -0.9808
vn 0.2019 -0.0000 -0.9794
vn 0.2019 0.0001 -0.9794
vn 0.1878 -0.0000 -0.9822
vn 0.1879 0.0001 -0.9822
vn 0.6067 -0.0000 -0.7949
vn 0.6067 -0.0000 -0.7950
vn 0.6047 -0.0000 -0.7965
vn 0.6047 0.0001 -0.7964
vn -0.8146 -0.0000 0.5800
vn -0.8146 -0.0000 0.5801
vn -0.8129 -0.0000 0.5823
vn -0.8129 -0.0000 0.5824
vn -0.3468 -0.0000 0.9379
vn -0.3484 0.0010 0.9373
vn -0.3476 0.0005 0.9376
vn -0.3492 0.0014 0.9370
vn 0.2623 -0.0000 0.9650
vn 0.2624 -0.0000 0.9650
vn 0.2694 -0.0000 0.9630
vn 0.2554 -0.0000 0.9668
vn 0.2555 -0.0001 0.9668
vn -0.2050 0.0001 -0.9788
vn -0.2041 -0.0000 -0.9790
vn -0.1916 0.0001 -0.9815
vn -0.1915 0.0001 -0.9815
vn -0.2176 0.0001 -0.9760
vn -0.2175 0.0002 -0.9761
vn 0.7384 0.0001 -0.6743
vn 0.7390 -0.0000 -0.6737
vn 0.7477 0.0001 -0.6640
vn 0.7297 0.0001 -0.6838
vn 0.7298 0.0002 -0.6837
vn 0.9149 -0.0000 -0.4038
vn 0.9148 -0.0000 -0.4038
vn 0.9143 -0.0000 -0.4051
vn 0.9154 -0.0000 -0.4025
vn 0.9154 -0.0000 -0.4026
vn -0.9205 -0.0000 0.3907
vn -0.9205 -0.0000 0.3908
vn -0.6139 -0.0000 0.7894
vn -0.6138 -0.0001 0.7894
vn -0.6138 -0.0000 0.7894
vn -0.6138 -0.0001 0.7895
vn 0.2036 -0.0000 0.9791
vn 0.2019 -0.0000 0.9794
vn 0.2160 -0.0000 0.9764
vn 0.2159 -0.0001 0.9764
vn 0.1898 -0.0000 0.9818
vn 0.1898 -0.0001 0.9818
vn -0.0088 -0.0003 -1.0000
vn -0.0081 0.0002 -1.0000
vn -0.0024 0.0002 -1.0000
vn -0.0019 0.0005 -1.0000
vn -0.0146 -0.0004 -0.9999
vn -0.0157 -0.0011 -0.9999
vn -0.0097 -0.0000 -1.0000
vn -0.0269 -0.0000 -0.9996
vn -0.0270 -0.0000 -0.9996
vn -0.0317 -0.0000 -0.9995
vn -0.0318 -0.0000 -0.9995
vn -0.0223 -0.0000 -0.9998
vn -0.0224 -0.0001 -0.9997
vn 0.0354 -0.0000 0.9994
vn 0.0307 -0.0000 0.9995
vn 0.0306 -0.0000 0.9995
vn 0.0401 -0.0000 0.9992
vn 0.0401 0.0001 0.9992
vn -0.0044 0.0002 1.0000
vn -0.0039 -0.0001 1.0000
vn -0.0076 -0.0001 1.0000
vn -0.0073 -0.0004 1.0000
vn -0.0008 0.0003 1.0000
vn -0.0014 0.0007 1.0000
vn -0.0018 -0.0000 1.0000
vn -0.0050 -0.0000 1.0000
vn 0.0014 -0.0000 1.0000
vn 0.9988 -0.0000 -0.0496
vn 0.9988 0.0001 -0.0495
vn -0.6479 -0.0000 -0.7617
vn -0.6481 -0.0000 -0.7616
vn -0.6496 -0.0000 -0.7603
vn -0.6495 -0.0000 -0.7603
vn -0.6464 -0.0000 -0.7630
vn -0.6465 -0.0000 -0.7629
vn -0.8570 -0.0000 -0.5153
vn -0.8571 -0.0000 -0.5152
vn -0.8570 -0.0000 -0.5152
vn -0.6670 -0.0000 -0.7451
vn -0.6663 -0.0000 -0.7457
vn -0.6602 -0.0000 -0.7511
vn -0.6730 -0.0000 -0.7397
vn -0.6730 0.0001 -0.7397
vn 0.8712 -0.0000 0.4909
vn 0.8700 -0.0000 0.4931
vn 0.8771 -0.0000 0.4803
vn 0.8771 -0.0001 0.4803
vn 0.8639 -0.0000 0.5036
vn 0.8641 -0.0001 0.5034
vn 0.9781 -0.0000 0.2079
vn 0.9782 -0.0000 0.2079
vn 0.8127 -0.0000 0.5827
vn 0.8131 -0.0000 0.5821
vn 0.8084 -0.0000 0.5886
vn 0.8084 0.0001 0.5886
vn 0.8172 -0.0000 0.5764
vn 0.8171 0.0001 0.5765
vn -0.2198 -0.0000 -0.9755
vn -0.2199 -0.0000 -0.9755
vn -0.2197 -0.0000 -0.9756
vn -0.2225 -0.0000 -0.9749
vn -0.2228 -0.0000 -0.9749
vn -0.2255 -0.0000 -0.9742
vn -0.2256 -0.0000 -0.9742
vn -0.4516 -0.0000 -0.8922
vn -0.4525 -0.0000 -0.8918
vn -0.4588 -0.0000 -0.8885
vn -0.4589 -0.0001 -0.8885
vn -0.4453 -0.0000 -0.8954
vn -0.4454 -0.0001 -0.8953
vn 0.4510 -0.0000 0.8925
vn 0.4516 -0.0000 0.8922
vn 0.4446 -0.0000 0.8957
vn 0.4445 0.0001 0.8958
vn 0.4580 -0.0000 0.8890
vn 0.4578 0.0001 0.8890
vn -0.0043 -0.0000 1.0000
vn -0.0044 -0.0000 1.0000
vn -0.0045 0.0001 1.0000
vn -0.0087 -0.0000 1.0000
vn -0.4686 -0.0000 -0.8834
vn -0.4652 -0.0000 -0.8852
vn -0.4651 0.0001 -0.8852
vn -0.4721 -0.0000 -0.8816
vn -0.4721 0.0001 -0.8816
vn -0.2848 -0.0000 -0.9586
vn -0.2847 0.0002 -0.9586
vn -0.3308 0.0003 -0.9437
vn -0.3302 0.0008 -0.9439
vn -0.2379 -0.0000 -0.9713
vn -0.2378 -0.0000 -0.9713
vn -0.3043 -0.0005 -0.9526
vn -0.3035 0.0004 -0.9528
vn -0.3306 0.0006 -0.9438
vn -0.3295 0.0015 -0.9442
vn -0.2771 -0.0006 -0.9608
vn -0.2784 -0.0015 -0.9605
vn -0.0150 -0.0000 0.9999
vn -0.0151 -0.0000 0.9999
vn -0.0111 -0.0000 0.9999
vn -0.0110 -0.0000 0.9999
vn -0.0190 -0.0000 0.9998
vn -0.0189 -0.0000 0.9998
vn -0.0075 -0.0000 1.0000
vn 0.4265 0.0005 0.9045
vn 0.4301 -0.0000 0.9028
vn 0.4723 -0.0000 0.8815
vn 0.4723 -0.0000 0.8814
vn 0.3866 0.0002 0.9223
vn 0.3836 0.0010 0.9235
vn -0.5807 -0.0000 -0.8141
vn -0.5807 -0.0000 -0.8142
vn -0.5808 -0.0000 -0.8141
vn -0.4898 -0.0000 -0.8718
vn -0.4896 -0.0000 -0.8719
vn -0.4875 -0.0000 -0.8731
vn -0.4919 -0.0000 -0.8706
vn -0.3661 -0.0000 -0.9306
vn -0.3643 -0.0000 -0.9313
vn -0.3679 -0.0000 -0.9299
vn -0.3678 -0.0000 -0.9299
vn 0.0731 -0.0000 0.9973
vn 0.0729 -0.0000 0.9973
vn 0.0781 -0.0000 0.9969
vn 0.0679 -0.0000 0.9977
vn 0.0680 -0.0001 0.9977
vn 0.5298 -0.0000 0.8481
vn 0.5298 -0.0001 0.8481
vn 0.7277 -0.0000 0.6859
vn 0.7280 -0.0000 0.6855
vn 0.7274 -0.0000 0.6862
vn 0.7273 -0.0000 0.6863
vn -0.5780 -0.0000 -0.8160
vn -0.5781 -0.0000 -0.8160
vn 0.5780 -0.0000 0.8160
vn 0.5781 -0.0000 0.8160
vn 0.8576 -0.0000 -0.5143
vn -0.3502 -0.0000 0.9367
vn 0.1817 -0.0000 0.9834
vn 0.1816 -0.0000 0.9834
vn 0.1905 -0.0000 0.9817
vn 0.1906 -0.0001 0.9817
vn 0.1728 -0.0000 0.9850
vn 0.1729 -0.0001 0.9849
vn -0.4722 0.0009 0.8815
vn -0.4706 -0.0005 0.8824
vn -0.4715 -0.0007 0.8819
vn -0.4704 -0.0016 0.8824
vn -0.4714 0.0011 0.8819
vn -0.4735 0.0028 0.8808
vn -0.6664 -0.0000 0.7456
vn -0.6665 -0.0000 0.7455
vn 0.5742 -0.0000 -0.8187
vn 0.5741 -0.0000 -0.8188
vn 0.5409 -0.0000 -0.8411
vn 0.5410 -0.0000 -0.8410
vn 0.5408 -0.0000 -0.8411
vn 0.2662 -0.0000 -0.9639
vn 0.2663 -0.0000 -0.9639
vn 0.2612 -0.0000 -0.9653
vn 0.2611 -0.0000 -0.9653
vn 0.2712 -0.0000 -0.9625
vn 0.2711 -0.0001 -0.9626
vn -0.6663 -0.0000 0.7457
vn 0.5736 -0.0000 -0.8191
vn 0.5735 -0.0000 -0.8192
vn 0.5736 -0.0000 -0.8192
vn 0.5799 -0.0000 0.8147
vn 0.5798 -0.0000 0.8147
vn -0.5799 -0.0000 -0.8147
vn -0.5798 -0.0000 -0.8147
vn -0.5787 0.0015 -0.8155
vn -0.5802 -0.0006 -0.8145
vn -0.5626 -0.0015 -0.8267
vn -0.5635 -0.0028 -0.8261
vn -0.5954 0.0033 -0.8034
vn -0.5930 0.0064 -0.8052
vn -0.4226 -0.0000 -0.9063
vn -0.4227 -0.0000 -0.9063
vn -0.4225 -0.0000 -0.9063
vn 0.4478 -0.0000 0.8941
vn 0.4479 0.0002 0.8941
vn 0.4400 0.0002 0.8980
vn 0.4395 0.0006 0.8982
vn 0.4558 -0.0000 0.8901
vn 0.4557 -0.0000 0.8902
vn 0.6815 -0.0000 0.7318
vn 0.6816 -0.0000 0.7317
vn 0.5948 -0.0000 0.8039
vn 0.5950 -0.0000 0.8037
vn 0.5911 -0.0000 0.8066
vn 0.5910 -0.0000 0.8066
vn 0.5987 -0.0000 0.8010
vn 0.5987 0.0001 0.8010
vn 0.3056 -0.0000 0.9521
vn 0.3058 -0.0000 0.9521
vn 0.3004 -0.0000 0.9538
vn 0.3003 -0.0000 0.9538
vn 0.3110 -0.0000 0.9504
vn 0.3110 0.0001 0.9504
vn -0.1137 -0.0000 -0.9935
vn -0.1138 -0.0000 -0.9935
vn -0.1208 -0.0000 -0.9927
vn -0.1065 -0.0000 -0.9943
vn -0.1066 -0.0001 -0.9943
vn -0.5474 -0.0000 -0.8369
vn -0.5475 -0.0000 -0.8368
vn -0.6940 -0.0000 -0.7200
vn -0.6942 -0.0000 -0.7198
vn -0.6956 -0.0000 -0.7184
vn -0.6925 -0.0000 -0.7214
vn -0.6926 -0.0000 -0.7213
vn -0.4225 -0.0000 -0.9064
vn 0.4528 -0.0000 0.8916
vn 0.4529 -0.0000 0.8916
vn 0.4530 -0.0000 0.8915
vn 0.4551 -0.0000 0.8905
vn 0.4550 -0.0000 0.8905
vn 0.4551 -0.0000 0.8904
vn 0.5387 -0.0007 0.8425
vn 0.5381 0.0006 0.8429
vn 0.5559 0.0008 0.8313
vn 0.5546 0.0020 0.8321
vn 0.5204 -0.0009 0.8539
vn 0.5218 -0.0022 0.8530
vn -0.6010 -0.0000 0.7993
vn -0.6020 0.0008 0.7985
vn -0.6017 0.0016 0.7987
vn -0.6023 0.0016 0.7982
vn -0.9288 -0.0000 0.3705
vn -0.9290 -0.0000 0.3701
vn -0.9311 -0.0000 0.3647
vn -0.9267 -0.0000 0.3757
vn -0.9268 0.0001 0.3757
vn 0.9288 -0.0000 -0.3707
vn 0.9290 -0.0000 -0.3702
vn 0.9266 -0.0001 -0.3760
vn 0.9310 -0.0000 -0.3649
vn 0.9310 -0.0001 -0.3649
vn 0.5016 -0.0000 -0.8651
vn 0.5034 -0.0000 -0.8641
vn 0.4871 -0.0000 -0.8734
vn 0.4870 -0.0001 -0.8734
vn 0.5178 -0.0000 -0.8555
vn 0.5176 -0.0001 -0.8556
vn -0.3530 -0.0000 -0.9356
vn -0.3520 -0.0000 -0.9360
vn -0.3636 -0.0000 -0.9316
vn -0.3635 -0.0001 -0.9316
vn -0.3417 -0.0000 -0.9398
vn -0.3418 -0.0001 -0.9398
vn -0.6031 -0.0000 0.7977
vn -0.5276 -0.0000 -0.8495
vn -0.5275 -0.0000 -0.8496
vn -0.5268 -0.0000 -0.8500
vn -0.5282 -0.0000 -0.8491
vn 0.4353 0.0001 0.9003
vn 0.4369 -0.0002 0.8995
vn 0.4111 -0.0003 0.9116
vn 0.4117 -0.0008 0.9113
vn 0.4609 0.0001 0.8875
vn 0.4607 0.0002 0.8876
vn 0.4226 -0.0000 0.9063
vn 0.4227 -0.0000 0.9063
vn -1.0000 -0.0000 -0.0008
vn -1.0000 -0.0000 -0.0010
vn -1.0000 -0.0000 -0.0068
vn -1.0000 -0.0000 0.0050
vn -0.7641 0.0005 -0.6451
vn -0.7591 -0.0011 -0.6510
vn -0.6201 -0.0017 -0.7846
vn -0.6220 -0.0038 -0.7830
vn -0.8740 0.0007 -0.4859
vn -0.8733 0.0017 -0.4871
vn -0.7820 -0.0000 -0.6233
vn 0.7820 -0.0000 0.6233
vn 0.9261 -0.0000 0.3772
vn 0.9262 -0.0000 0.3771
vn 0.9262 -0.0001 0.3771
vn 1.0000 -0.0000 0.0006
vn 1.0000 -0.0000 0.0009
vn 1.0000 -0.0000 -0.0053
vn 1.0000 -0.0001 -0.0053
vn 1.0000 -0.0000 0.0066
vn 1.0000 -0.0001 0.0065
vn 0.9261 -0.0001 0.3772
vn -0.4796 -0.0000 -0.8775
vn -0.4794 -0.0000 -0.8776
vn -0.4721 -0.0000 -0.8815
vn -0.4720 0.0001 -0.8816
vn -0.4869 -0.0000 -0.8734
vn -0.4869 0.0001 -0.8735
vn 0.4797 -0.0000 0.8774
vn 0.4793 -0.0000 0.8776
vn 0.4870 -0.0000 0.8734
vn 0.4870 -0.0001 0.8734
vn 0.4722 -0.0000 0.8815
vn 0.4723 -0.0001 0.8814
vn -0.6929 0.0008 -0.7210
vn -0.6958 -0.0005 -0.7182
vn -0.7111 -0.0004 -0.7030
vn -0.7123 -0.0013 -0.7019
vn -0.6770 0.0006 -0.7360
vn -0.6747 0.0021 -0.7381
vn -0.9831 -0.0000 0.1833
vn -0.9830 -0.0000 0.1837
vn -0.9818 -0.0000 0.1897
vn -0.9841 -0.0000 0.1774
vn -0.9841 -0.0000 0.1775
vn 0.9831 -0.0000 -0.1831
vn 0.9830 -0.0000 -0.1834
vn 0.9842 -0.0000 -0.1771
vn 0.9842 0.0001 -0.1771
vn 0.9819 -0.0000 -0.1894
vn 0.9819 0.0001 -0.1893
vn 0.9999 0.0007 0.0133
vn 0.9999 -0.0003 0.0123
vn 1.0000 -0.0005 0.0025
vn 1.0000 -0.0010 0.0019
vn 0.9997 0.0011 0.0232
vn 0.9997 0.0024 0.0248
vn -0.7983 -0.0000 0.6023
vn -0.7982 -0.0000 0.6024
vn -0.7945 -0.0000 0.6072
vn -0.7945 -0.0000 0.6073
vn -0.8020 -0.0000 0.5973
vn -0.8020 -0.0000 0.5974
vn -0.5615 -0.0000 0.8275
vn 0.3502 -0.0000 -0.9367
vn 0.5567 -0.0000 -0.8307
vn 0.5566 -0.0000 -0.8308
vn 0.5618 -0.0000 -0.8273
vn 0.5618 -0.0000 -0.8272
vn 0.5515 -0.0000 -0.8342
vn 0.5515 0.0001 -0.8342
vn 0.8352 -0.0000 -0.5499
vn 0.8351 -0.0000 -0.5502
vn 0.8386 -0.0000 -0.5448
vn 0.8386 0.0001 -0.5447
vn 0.8317 -0.0000 -0.5552
vn 0.8318 0.0001 -0.5551
vn -0.0000 -0.0000 1.0000
vn 0.2452 -0.0000 0.9695
vn 0.2453 -0.0000 0.9694
vn 0.2453 -0.0001 0.9694
vn 0.2454 -0.0001 0.9694
vn 0.7936 -0.0000 0.6084
vn 0.7937 -0.0000 0.6083
vn 0.7999 -0.0000 0.6001
vn 0.7999 -0.0001 0.6001
vn 0.7874 -0.0000 0.6165
vn 0.7874 -0.0001 0.6164
vn -0.0159 -0.0001 -0.9999
vn -0.0158 -0.0000 -0.9999
vn -0.0194 0.0001 -0.9998
vn -0.0193 0.0001 -0.9998
vn -0.0125 -0.0006 -0.9999
vn -0.0126 -0.0008 -0.9999
vn -0.0125 -0.0000 -0.9999
vn -0.0022 -0.0000 -1.0000
vn -0.0021 0.0001 -1.0000
vn -0.0228 0.0001 -0.9997
vn -0.0227 0.0001 -0.9997
vn -0.0001 -0.0000 -1.0000
vn 0.2454 -0.0000 0.9694
vn 0.8608 -0.0000 0.5090
vn 0.2190 -0.0002 0.9757
vn 0.2183 0.0002 0.9759
vn 0.1997 0.0002 0.9799
vn 0.1993 0.0006 0.9799
vn 0.2373 -0.0003 0.9714
vn 0.2379 -0.0007 0.9713
vn -1.0000 -0.0001 -0.0013
vn -1.0000 -0.0000 -0.0014
vn -0.9999 -0.0000 0.0115
vn -0.9999 -0.0000 0.0116
vn -0.9999 -0.0000 -0.0144
vn -0.9999 -0.0001 -0.0143
vn -0.9999 -0.0000 -0.0168
vn -0.9999 0.0001 -0.0168
vn -0.9999 -0.0001 -0.0168
vn -0.9999 -0.0001 -0.0167
vn -0.0578 -0.0000 0.9983
vn -0.0579 -0.0000 0.9983
vn -0.0590 -0.0000 0.9983
vn -0.0567 -0.0000 0.9984
vn -0.0928 -0.0000 0.9957
vn -0.0505 -0.0000 0.9987
vn -0.0492 -0.0000 0.9988
vn -0.0518 -0.0000 0.9987
vn -0.0517 -0.0000 0.9987
vn 0.0001 -0.0000 1.0000
vn -0.0006 -0.0007 -1.0000
vn -0.0009 -0.0011 -1.0000
vn -0.0020 -0.0025 -1.0000
vn 0.9593 -0.0000 -0.2824
vn 0.9313 -0.0000 -0.3641
vn 0.9314 -0.0000 -0.3641
vn 0.9313 -0.0001 -0.3642
vn -0.9995 0.0009 0.0317
vn -0.9994 -0.0005 0.0340
vn -0.9995 -0.0006 0.0301
vn -0.9995 -0.0017 0.0318
vn -0.9994 0.0010 0.0357
vn -0.9995 0.0027 0.0328
vn -0.9593 -0.0000 0.2824
vn -0.9846 -0.0003 0.1747
vn -0.9848 0.0006 0.1739
vn -0.9894 0.0021 0.1454
vn -0.9895 0.0032 0.1447
vn -0.9793 -0.0009 0.2023
vn -0.9792 -0.0014 0.2027
vn -0.9591 -0.0000 0.2830
vn -0.9591 -0.0000 0.2831
vn 0.9591 -0.0000 -0.2830
vn 0.9591 -0.0000 -0.2831
vn 0.9720 0.0001 -0.2349
vn 0.9720 -0.0000 -0.2350
vn 0.9770 0.0001 -0.2131
vn 0.9771 0.0002 -0.2130
vn 0.9666 0.0001 -0.2563
vn 0.9666 0.0003 -0.2561
vt 0.001000 1.999500
vt 0.001000 1.000499
vt 0.511942 1.999500
vt 0.517272 1.000500
vt 1.999001 1.000500
vt 1.999001 1.999501
vt 1.508857 1.000500
vt 1.517112 1.999500
vt 1.999001 1.520127
vt 1.999001 1.490118
vt 2.998503 1.999500
vt 0.001500 1.999500
vt 2.998503 1.000500
vt 0.001500 1.000500
vt 0.000999 1.999500
vt 1.999001 1.999500
vt 0.000999 1.000500
vt 2.038361 1.999500
vt 0.040358 1.999501
vt 2.038361 1.000499
vt 0.040358 1.000500
vt 1.000496 1.999500
vt 0.001495 1.999500
vt 1.000496 1.000500
vt 0.001495 1.000499
vt 2.998498 1.999501
vt 1.999497 1.999500
vt 2.998498 1.000500
vt 1.999497 1.000500
s 1
usemtl FENCEB
f 1/1/1 2/2/1 3/3/1
f 4/4/1 3/3/1 2/2/1
f 2/5/1 1/6/1 5/7/1
f 6/8/1 5/7/1 1/6/1
f 7/1/1 8/2/1 9/3/1
f 10/4/1 9/3/1 8/2/1
f 8/5/1 7/6/1 11/7/1
f 12/8/1 11/7/1 7/6/1
f 13/1/1 14/2/1 15/3/1
f 16/4/1 15/3/1 14/2/1
f 14/5/1 13/6/1 17/7/1
f 18/8/1 17/7/1 13/6/1
f 19/1/2 20/2/2 21/3/3
f 22/4/3 21/3/3 20/2/2
f 20/5/2 19/6/2 23/7/4
f 24/8/4 23/7/4 19/6/2
f 25/5/5 26/9/5 27/7/5
f 28/8/5 27/7/5 26/9/5
f 29/1/6 30/2/6 31/3/7
f 32/4/7 31/3/7 30/2/6
f 30/5/6 29/6/6 33/7/8
f 34/8/9 33/7/8 29/6/6
f 26/9/5 35/6/5 28/8/5
f 36/1/10 37/2/11 38/3/12
f 39/4/13 38/3/12 37/2/11
f 37/5/11 36/6/10 40/7/14
f 41/8/15 40/7/14 36/6/10
f 42/1/16 43/2/16 44/3/17
f 45/4/18 44/3/17 43/2/16
f 43/5/16 42/6/16 46/7/19
f 47/8/20 46/7/19 42/6/16
f 48/10/21 49/6/21 50/7/21
f 51/8/21 50/7/21 49/6/21
f 52/1/22 53/2/23 54/3/24
f 55/4/25 54/3/24 53/2/23
f 53/5/23 52/6/22 56/7/26
f 57/8/27 56/7/26 52/6/22
f 58/5/21 48/10/21 50/7/21
f 59/1/28 60/2/29 61/3/30
f 62/4/31 61/3/30 60/2/29
f 60/5/29 59/6/28 63/7/32
f 64/8/33 63/7/32 59/6/28
f 65/1/34 66/2/35 67/3/36
f 68/4/37 67/3/36 66/2/35
f 66/5/35 65/6/34 69/7/38
f 70/8/38 69/7/38 65/6/34
f 71/1/39 72/2/40 73/3/41
f 74/4/42 73/3/41 72/2/40
f 72/5/40 71/6/39 75/7/43
f 76/8/44 75/7/43 71/6/39
f 77/1/45 78/2/46 79/3/47
f 80/4/47 79/3/47 78/2/46
f 78/5/46 77/6/45 81/7/48
f 82/8/49 81/7/48 77/6/45
f 83/10/50 84/6/51 85/7/52
f 86/8/53 85/7/52 84/6/51
f 87/1/54 88/2/55 89/3/56
f 90/4/56 89/3/56 88/2/55
f 88/5/55 87/6/54 91/7/57
f 92/8/58 91/7/57 87/6/54
f 93/5/50 83/10/50 85/7/52
f 94/1/59 95/2/60 96/3/61
f 97/4/62 96/3/61 95/2/60
f 95/5/60 94/6/59 98/7/63
f 99/8/64 98/7/63 94/6/59
f 100/5/65 101/9/66 102/7/66
f 103/8/66 102/7/66 101/9/66
f 104/1/67 105/2/68 106/3/69
f 107/4/70 106/3/69 105/2/68
f 105/5/68 104/6/67 108/7/71
f 109/8/71 108/7/71 104/6/67
f 110/1/72 111/2/73 112/3/74
f 113/4/74 112/3/74 111/2/73
f 111/5/73 110/6/72 114/7/75
f 115/8/76 114/7/75 110/6/72
f 116/1/77 117/2/78 118/3/79
f 119/4/80 118/3/79 117/2/78
f 117/5/78 116/6/77 120/7/81
f 121/8/82 120/7/81 116/6/77
f 122/1/83 123/2/84 124/3/85
f 125/4/86 124/3/85 123/2/84
f 123/5/84 122/6/83 126/7/87
f 127/8/88 126/7/87 122/6/83
f 101/9/66 128/6/89 103/8/66
f 129/1/90 130/2/90 131/3/91
f 132/4/91 131/3/91 130/2/90
f 130/5/90 129/6/90 133/7/92
f 134/8/92 133/7/92 129/6/90
f 135/1/93 136/2/93 137/3/94
f 138/4/94 137/3/94 136/2/93
f 136/5/93 135/6/93 139/7/95
f 140/8/95 139/7/95 135/6/93
f 141/1/96 142/2/96 143/3/97
f 144/4/97 143/3/97 142/2/96
f 142/5/96 141/6/96 145/7/98
f 146/8/98 145/7/98 141/6/96
f 147/1/99 148/2/99 149/3/99
f 150/4/99 149/3/99 148/2/99
f 148/5/99 147/6/99 151/7/99
f 152/8/99 151/7/99 147/6/99
f 153/10/99 154/6/99 155/7/99
f 156/8/99 155/7/99 154/6/99
f 157/1/99 158/2/99 159/3/99
f 160/4/99 159/3/99 158/2/99
f 158/5/99 157/6/99 161/7/99
f 162/8/99 161/7/99 157/6/99
f 163/5/99 153/10/99 155/7/99
f 164/1/100 165/2/100 166/3/100
f 167/4/100 166/3/100 165/2/100
f 165/5/100 164/6/100 168/7/100
f 169/8/100 168/7/100 164/6/100
f 170/1/99 171/2/99 172/3/99
f 173/4/99 172/3/99 171/2/99
f 171/5/99 170/6/99 174/7/99
f 175/8/99 174/7/99 170/6/99
f 176/1/101 177/2/102 178/3/103
f 179/4/104 178/3/103 177/2/102
f 177/5/102 176/6/101 180/7/105
f 181/8/106 180/7/105 176/6/101
f 182/1/107 183/2/108 184/3/109
f 185/4/110 184/3/109 183/2/108
f 183/5/108 182/6/107 186/7/111
f 187/8/112 186/7/111 182/6/107
f 188/1/113 189/2/114 190/3/115
f 191/4/116 190/3/115 189/2/114
f 189/5/114 188/6/113 192/7/117
f 193/8/118 192/7/117 188/6/113
f 194/1/119 195/2/120 196/3/121
f 197/4/122 196/3/121 195/2/120
f 195/5/120 194/6/119 198/7/123
f 199/8/124 198/7/123 194/6/119
f 200/10/125 201/6/126 202/7/127
f 203/8/128 202/7/127 201/6/126
f 204/1/129 205/2/130 206/3/131
f 207/4/132 206/3/131 205/2/130
f 205/5/130 204/6/129 208/7/133
f 209/8/134 208/7/133 204/6/129
f 210/5/125 200/10/125 202/7/127
f 211/1/135 212/2/136 213/3/137
f 214/4/137 213/3/137 212/2/136
f 212/5/136 211/6/135 215/7/138
f 216/8/138 215/7/138 211/6/135
f 217/5/139 218/9/139 219/7/139
f 220/8/139 219/7/139 218/9/139
f 221/1/140 222/2/140 223/3/141
f 224/4/141 223/3/141 222/2/140
f 222/5/140 221/6/140 225/7/142
f 226/8/143 225/7/142 221/6/140
f 218/9/139 227/6/139 220/8/139
f 228/1/99 229/2/99 230/3/99
f 231/4/99 230/3/99 229/2/99
f 229/5/99 228/6/99 232/7/99
f 233/8/99 232/7/99 228/6/99
f 234/1/99 235/2/99 236/3/99
f 237/4/99 236/3/99 235/2/99
f 235/5/99 234/6/99 238/7/99
f 239/8/99 238/7/99 234/6/99
f 240/1/99 241/2/99 242/3/99
f 243/4/99 242/3/99 241/2/99
f 241/5/99 240/6/99 244/7/99
f 245/8/144 244/7/99 240/6/99
f 246/1/145 247/2/145 248/3/145
f 249/4/145 248/3/145 247/2/145
f 247/5/145 246/6/145 250/7/145
f 251/8/145 250/7/145 246/6/145
f 252/5/145 253/9/145 254/7/145
f 255/8/145 254/7/145 253/9/145
f 256/1/145 257/2/145 258/3/145
f 259/4/145 258/3/145 257/2/145
f 257/5/145 256/6/145 260/7/145
f 261/8/145 260/7/145 256/6/145
f 262/1/99 263/2/99 264/3/99
f 265/4/99 264/3/99 263/2/99
f 263/5/99 262/6/99 266/7/99
f 267/8/146 266/7/99 262/6/99
f 268/1/99 269/2/99 270/3/99
f 271/4/99 270/3/99 269/2/99
f 269/5/99 268/6/99 272/7/99
f 273/8/99 272/7/99 268/6/99
f 274/1/99 275/2/99 276/3/99
f 277/4/99 276/3/99 275/2/99
f 275/5/99 274/6/99 278/7/99
f 279/8/99 278/7/99 274/6/99
f 253/9/145 280/6/145 255/8/145
f 281/1/147 282/2/148 283/3/149
f 284/4/150 283/3/149 282/2/148
f 282/5/148 281/6/147 285/7/151
f 286/8/152 285/7/151 281/6/147
f 287/1/153 288/2/154 289/3/155
f 290/4/156 289/3/155 288/2/154
f 288/5/154 287/6/153 291/7/157
f 292/8/158 291/7/157 287/6/153
f 293/1/159 294/2/160 295/3/161
f 296/4/162 295/3/161 294/2/160
f 294/5/160 293/6/159 297/7/163
f 298/8/164 297/7/163 293/6/159
f 299/1/165 300/2/166 301/3/167
f 302/4/168 301/3/167 300/2/166
f 300/5/166 299/6/165 303/7/169
f 304/8/170 303/7/169 299/6/165
f 305/10/171 306/6/172 307/7/173
f 308/8/174 307/7/173 306/6/172
f 309/5/171 305/10/171 307/7/173
f 310/1/175 311/2/176 312/3/175
f 313/4/175 312/3/175 311/2/176
f 311/5/176 310/6/175 314/7/176
f 315/8/175 314/7/176 310/6/175
f 316/5/175 317/9/176 318/7/175
f 319/8/177 318/7/175 317/9/176
f 320/1/177 321/2/176 322/3/177
f 323/4/176 322/3/177 321/2/176
f 321/5/176 320/6/177 324/7/176
f 325/8/177 324/7/176 320/6/177
f 326/1/178 327/2/179 328/3/178
f 329/4/179 328/3/178 327/2/179
f 327/5/179 326/6/178 330/7/178
f 331/8/180 330/7/178 326/6/178
f 332/1/179 333/2/178 334/3/179
f 335/4/178 334/3/179 333/2/178
f 333/5/178 332/6/179 336/7/178
f 337/8/179 336/7/178 332/6/179
f 338/1/179 339/2/179 340/3/178
f 341/4/178 340/3/178 339/2/179
f 339/5/179 338/6/179 342/7/179
f 343/8/179 342/7/179 338/6/179
f 317/9/176 344/6/177 319/8/177
f 345/1/181 346/2/182 347/3/183
f 348/4/184 347/3/183 346/2/182
f 346/5/182 345/6/181 349/7/185
f 350/8/186 349/7/185 345/6/181
f 351/1/187 352/2/188 353/3/189
f 354/4/190 353/3/189 352/2/188
f 352/5/188 351/6/187 355/7/191
f 356/8/192 355/7/191 351/6/187
f 357/1/193 358/2/194 359/3/195
f 360/4/196 359/3/195 358/2/194
f 358/5/194 357/6/193 361/7/197
f 362/8/198 361/7/197 357/6/193
f 363/1/199 364/2/200 365/3/201
f 366/4/202 365/3/201 364/2/200
f 364/5/200 363/6/199 367/7/203
f 368/8/204 367/7/203 363/6/199
f 369/10/205 370/6/206 371/7/207
f 372/8/208 371/7/207 370/6/206
f 373/1/209 374/2/210 375/3/211
f 376/4/212 375/3/211 374/2/210
f 374/5/210 373/6/209 377/7/213
f 378/8/214 377/7/213 373/6/209
f 379/5/205 369/10/205 371/7/207
f 380/1/215 381/2/216 382/3/217
f 383/4/218 382/3/217 381/2/216
f 381/5/216 380/6/215 384/7/219
f 385/8/220 384/7/219 380/6/215
f 386/1/221 387/2/222 388/3/223
f 389/4/224 388/3/223 387/2/222
f 387/5/222 386/6/221 390/7/225
f 391/8/226 390/7/225 386/6/221
f 392/1/227 393/2/228 394/3/177
f 395/4/177 394/3/177 393/2/228
f 393/5/228 392/6/227 396/7/229
f 397/8/230 396/7/229 392/6/227
f 398/1/231 399/2/232 400/3/233
f 401/4/234 400/3/233 399/2/232
f 399/5/232 398/6/231 402/7/178
f 403/8/178 402/7/178 398/6/231
f 404/10/235 405/6/236 406/7/237
f 407/8/238 406/7/237 405/6/236
f 408/1/239 409/2/240 410/3/241
f 411/4/241 410/3/241 409/2/240
f 409/5/240 408/6/239 412/7/242
f 413/8/243 412/7/242 408/6/239
f 414/5/235 404/10/235 406/7/237
f 415/1/244 416/2/245 417/3/246
f 418/4/247 417/3/246 416/2/245
f 416/5/245 415/6/244 419/7/248
f 420/8/249 419/7/248 415/6/244
f 421/1/250 422/2/251 423/3/252
f 424/4/252 423/3/252 422/2/251
f 422/5/251 421/6/250 425/7/253
f 426/8/254 425/7/253 421/6/250
f 427/1/255 428/2/256 429/3/257
f 430/4/257 429/3/257 428/2/256
f 428/5/256 427/6/255 431/7/258
f 432/8/259 431/7/258 427/6/255
f 433/1/260 434/2/260 435/3/260
f 436/4/261 435/3/260 434/2/260
f 434/5/260 433/6/260 437/7/260
f 438/8/260 437/7/260 433/6/260
f 439/10/262 440/6/263 441/7/264
f 442/8/265 441/7/264 440/6/263
f 443/1/266 444/2/267 445/3/268
f 446/4/269 445/3/268 444/2/267
f 444/5/267 443/6/266 447/7/270
f 448/8/271 447/7/270 443/6/266
f 449/5/264 439/10/262 441/7/264
f 450/1/272 451/2/273 452/3/274
f 453/4/275 452/3/274 451/2/273
f 451/5/273 450/6/272 454/7/276
f 455/8/277 454/7/276 450/6/272
f 456/5/278 457/9/278 458/7/278
f 459/8/278 458/7/278 457/9/278
f 460/1/279 461/2/280 462/3/281
f 463/4/282 462/3/281 461/2/280
f 461/5/280 460/6/279 464/7/283
f 465/8/284 464/7/283 460/6/279
f 466/1/285 467/2/285 468/3/286
f 469/4/287 468/3/286 467/2/285
f 467/5/285 466/6/285 470/7/288
f 471/8/289 470/7/288 466/6/285
f 472/1/290 473/2/291 474/3/292
f 475/4/293 474/3/292 473/2/291
f 473/5/291 472/6/290 476/7/294
f 477/8/295 476/7/294 472/6/290
f 478/1/296 479/2/296 480/3/297
f 481/4/297 480/3/297 479/2/296
f 479/5/296 478/6/296 482/7/298
f 483/8/298 482/7/298 478/6/296
f 457/9/278 484/6/278 459/8/278
f 485/5/299 486/6/299 487/7/299
f 488/8/300 487/7/299 486/6/299
f 489/1/301 490/2/302 491/3/303
f 492/4/304 491/3/303 490/2/302
f 490/5/302 489/6/301 493/7/305
f 494/8/306 493/7/305 489/6/301
f 495/5/307 496/9/308 497/7/309
f 498/8/309 497/7/309 496/9/308
f 499/1/310 500/2/311 501/3/312
f 502/4/312 501/3/312 500/2/311
f 500/5/311 499/6/310 503/7/313
f 504/8/314 503/7/313 499/6/310
f 505/1/315 506/2/316 507/3/317
f 508/4/318 507/3/317 506/2/316
f 506/5/316 505/6/315 509/7/319
f 510/8/320 509/7/319 505/6/315
f 511/1/321 512/2/321 513/3/321
f 514/4/321 513/3/321 512/2/321
f 512/5/321 511/6/321 515/7/322
f 516/8/321 515/7/322 511/6/321
f 517/1/323 518/2/324 519/3/325
f 520/4/326 519/3/325 518/2/324
f 518/5/324 517/6/323 521/7/327
f 522/8/328 521/7/327 517/6/323
f 496/9/308 523/6/307 498/8/309
f 524/1/329 525/2/329 526/3/329
f 527/4/330 526/3/329 525/2/329
f 525/5/329 524/6/329 528/7/329
f 529/8/331 528/7/329 524/6/329
f 530/1/332 531/2/333 532/3/334
f 533/4/335 532/3/334 531/2/333
f 531/5/333 530/6/332 534/7/329
f 535/8/330 534/7/329 530/6/332
f 536/1/336 537/2/337 538/3/338
f 539/4/339 538/3/338 537/2/337
f 537/5/337 536/6/336 540/7/340
f 541/8/341 540/7/340 536/6/336
f 542/1/342 543/2/343 544/3/344
f 545/4/345 544/3/344 543/2/343
f 543/5/343 542/6/342 546/7/346
f 547/8/347 546/7/346 542/6/342
f 548/10/348 549/6/349 550/7/349
f 551/8/350 550/7/349 549/6/349
f 552/1/351 553/2/351 554/3/351
f 555/4/351 554/3/351 553/2/351
f 553/5/351 552/6/351 556/7/351
f 557/8/351 556/7/351 552/6/351
f 558/5/348 548/10/348 550/7/349
f 559/1/352 560/2/352 561/3/353
f 562/4/354 561/3/353 560/2/352
f 560/5/352 559/6/352 563/7/355
f 564/8/356 563/7/355 559/6/352
f 565/1/357 566/2/358 567/3/359
f 568/4/360 567/3/359 566/2/358
f 566/5/358 565/6/357 569/7/361
f 570/8/362 569/7/361 565/6/357
f 571/1/363 572/2/364 573/3/365
f 574/4/366 573/3/365 572/2/364
f 572/5/364 571/6/363 575/7/367
f 576/8/368 575/7/367 571/6/363
f 577/1/369 578/2/370 579/3/371
f 580/4/372 579/3/371 578/2/370
f 578/5/370 577/6/369 581/7/373
f 582/8/374 581/7/373 577/6/369
f 583/10/375 584/6/375 585/7/375
f 586/8/375 585/7/375 584/6/375
f 587/1/376 588/2/377 589/3/378
f 590/4/379 589/3/378 588/2/377
f 588/5/377 587/6/376 591/7/380
f 592/8/381 591/7/380 587/6/376
f 593/5/375 583/10/375 585/7/375
f 594/1/382 595/2/382 596/3/382
f 597/4/383 596/3/382 595/2/382
f 595/5/382 594/6/382 598/7/382
f 599/8/384 598/7/382 594/6/382
f 600/1/385 601/2/386 602/3/387
f 603/4/387 602/3/387 601/2/386
f 601/5/386 600/6/385 604/7/388
f 605/8/388 604/7/388 600/6/385
f 606/1/389 607/2/389 608/3/390
f 609/4/390 608/3/390 607/2/389
f 607/5/389 606/6/389 610/7/391
f 611/8/392 610/7/391 606/6/389
f 612/1/393 613/2/394 614/3/395
f 615/4/395 614/3/395 613/2/394
f 613/5/394 612/6/393 616/7/396
f 617/8/397 616/7/396 612/6/393
f 618/10/398 619/6/398 620/7/398
f 621/8/399 620/7/398 619/6/398
f 622/1/400 623/2/400 624/3/401
f 625/4/401 624/3/401 623/2/400
f 623/5/400 622/6/400 626/7/402
f 627/8/403 626/7/402 622/6/400
f 628/5/398 618/10/398 620/7/398
f 629/1/404 630/2/404 631/3/404
f 632/4/405 631/3/404 630/2/404
f 630/5/404 629/6/404 633/7/404
f 634/8/405 633/7/404 629/6/404
f 635/1/405 636/2/405 637/3/405
f 638/4/404 637/3/405 636/2/405
f 636/5/405 635/6/405 639/7/404
f 640/8/404 639/7/404 635/6/405
f 641/1/404 642/2/404 643/3/405
f 644/4/405 643/3/405 642/2/404
f 642/5/404 641/6/404 645/7/404
f 646/8/405 645/7/404 641/6/404
f 647/1/406 648/2/406 649/3/406
f 650/4/407 649/3/406 648/2/406
f 648/5/406 647/6/406 651/7/406
f 652/8/407 651/7/406 647/6/406
f 653/10/408 654/6/408 655/7/408
f 656/8/408 655/7/408 654/6/408
f 657/5/408 653/10/408 655/7/408
f 658/1/409 659/2/409 660/3/409
f 661/4/409 660/3/409 659/2/409
f 659/5/409 658/6/409 662/7/409
f 663/8/409 662/7/409 658/6/409
f 664/1/410 665/2/411 666/3/412
f 667/4/413 666/3/412 665/2/411
f 665/5/411 664/6/410 668/7/414
f 669/8/415 668/7/414 664/6/410
f 670/1/416 671/2/417 672/3/418
f 673/4/419 672/3/418 671/2/417
f 671/5/417 670/6/416 674/7/420
f 675/8/421 674/7/420 670/6/416
f 676/10/422 677/6/422 678/7/422
f 679/8/423 678/7/422 677/6/422
f 680/1/423 681/2/423 682/3/423
f 683/4/423 682/3/423 681/2/423
f 681/5/423 680/6/423 684/7/423
f 685/8/423 684/7/423 680/6/423
f 686/5/422 676/10/422 678/7/422
f 687/1/424 688/2/424 689/3/425
f 690/4/425 689/3/425 688/2/424
f 688/5/424 687/6/424 691/7/424
f 692/8/424 691/7/424 687/6/424
f 693/1/426 694/2/426 695/3/427
f 696/4/427 695/3/427 694/2/426
f 694/5/426 693/6/426 697/7/428
f 698/8/426 697/7/428 693/6/426
f 699/1/429 700/2/430 701/3/431
f 702/4/432 701/3/431 700/2/430
f 700/5/430 699/6/429 703/7/433
f 704/8/434 703/7/433 699/6/429
f 705/1/423 706/2/422 707/3/423
f 708/4/422 707/3/423 706/2/422
f 706/5/422 705/6/423 709/7/422
f 710/8/423 709/7/422 705/6/423
f 711/10/435 712/6/422 713/7/422
f 714/8/423 713/7/422 712/6/422
f 715/1/423 716/2/422 717/3/422
f 718/4/422 717/3/422 716/2/422
f 716/5/422 715/6/423 719/7/422
f 720/8/423 719/7/422 715/6/423
f 721/5/422 711/10/435 713/7/422
f 722/1/436 723/2/437 724/3/436
f 725/4/438 724/3/436 723/2/437
f 723/5/437 722/6/436 726/7/437
f 727/8/436 726/7/437 722/6/436
f 728/1/438 729/2/436 730/3/436
f 731/4/436 730/3/436 729/2/436
f 729/5/436 728/6/438 732/7/437
f 733/8/437 732/7/437 728/6/438
f 734/1/436 735/2/436 736/3/438
f 737/4/438 736/3/438 735/2/436
f 735/5/436 734/6/436 738/7/436
f 739/8/438 738/7/436 734/6/436
f 740/1/439 741/2/439 742/3/439
f 743/4/439 742/3/439 741/2/439
f 741/5/439 740/6/439 744/7/439
f 745/8/439 744/7/439 740/6/439
f 746/1/440 747/2/439 748/3/440
f 749/4/439 748/3/440 747/2/439
f 747/5/439 746/6/440 750/7/439
f 751/8/440 750/7/439 746/6/440
f 752/1/439 753/2/439 754/3/439
f 755/4/439 754/3/439 753/2/439
f 753/5/439 752/6/439 756/7/439
f 757/8/439 756/7/439 752/6/439
f 758/1/441 759/2/441 760/3/441
f 761/4/441 760/3/441 759/2/441
f 759/5/441 758/6/441 762/7/441
f 763/8/441 762/7/441 758/6/441
f 764/10/441 765/6/441 766/7/441
f 767/8/441 766/7/441 765/6/441
f 768/1/441 769/2/441 770/3/441
f 771/4/441 770/3/441 769/2/441
f 769/5/441 768/6/441 772/7/442
f 773/8/441 772/7/442 768/6/441
f 774/5/441 764/10/441 766/7/441
f 775/1/422 776/2/422 777/3/422
f 778/4/422 777/3/422 776/2/422
f 776/5/422 775/6/422 779/7/422
f 780/8/423 779/7/422 775/6/422
f 781/1/443 782/2/444 783/3/445
f 784/4/446 783/3/445 782/2/444
f 782/5/444 781/6/443 785/7/447
f 786/8/448 785/7/447 781/6/443
f 787/1/449 788/2/449 789/3/450
f 790/4/450 789/3/450 788/2/449
f 788/5/449 787/6/449 791/7/449
f 792/8/451 791/7/449 787/6/449
f 793/1/452 794/2/453 795/3/454
f 796/4/455 795/3/454 794/2/453
f 794/5/453 793/6/452 797/7/456
f 798/8/457 797/7/456 793/6/452
f 799/1/438 800/2/436 801/3/436
f 802/4/438 801/3/436 800/2/436
f 800/5/436 799/6/438 803/7/438
f 804/8/437 803/7/438 799/6/438
f 805/1/458 806/2/458 807/3/459
f 808/4/459 807/3/459 806/2/458
f 806/5/458 805/6/458 809/7/458
f 810/8/458 809/7/458 805/6/458
f 811/1/460 812/2/461 813/3/462
f 814/4/463 813/3/462 812/2/461
f 812/5/461 811/6/460 815/7/464
f 816/8/465 815/7/464 811/6/460
f 817/1/466 818/2/467 819/3/468
f 820/4/469 819/3/468 818/2/467
f 818/5/467 817/6/466 821/7/470
f 822/8/471 821/7/470 817/6/466
f 823/1/472 824/2/473 825/3/474
f 826/4/474 825/3/474 824/2/473
f 824/5/473 823/6/472 827/7/475
f 828/8/476 827/7/475 823/6/472
f 829/5/477 830/9/478 831/7/478
f 832/8/478 831/7/478 830/9/478
f 833/1/479 834/2/480 835/3/481
f 836/4/481 835/3/481 834/2/480
f 834/5/480 833/6/479 837/7/482
f 838/8/483 837/7/482 833/6/479
f 830/9/478 839/6/478 832/8/478
f 840/1/450 841/2/449 842/3/449
f 843/4/484 842/3/449 841/2/449
f 841/5/449 840/6/450 844/7/449
f 845/8/450 844/7/449 840/6/450
f 846/10/449 847/6/449 848/7/449
f 849/8/449 848/7/449 847/6/449
f 850/5/484 846/10/449 848/7/449
f 851/1/485 852/2/486 853/3/486
f 854/4/487 853/3/486 852/2/486
f 855/1/488 856/2/489 857/3/488
f 858/4/490 857/3/488 856/2/489
f 856/5/489 855/6/488 859/7/489
f 860/8/490 859/7/489 855/6/488
f 861/1/491 862/2/492 863/3/493
f 864/4/494 863/3/493 862/2/492
f 862/5/492 861/6/491 865/7/495
f 866/8/496 865/7/495 861/6/491
f 867/5/497 868/9/498 869/7/499
f 870/8/500 869/7/499 868/9/498
f 871/1/501 872/2/502 873/3/503
f 874/4/503 873/3/503 872/2/502
f 872/5/502 871/6/501 875/7/504
f 876/8/505 875/7/504 871/6/501
f 877/1/506 878/2/507 879/3/73
f 880/4/508 879/3/73 878/2/507
f 878/5/507 877/6/506 881/7/509
f 882/8/510 881/7/509 877/6/506
f 883/1/511 884/2/512 885/3/513
f 886/4/514 885/3/513 884/2/512
f 884/5/512 883/6/511 887/7/515
f 888/8/516 887/7/515 883/6/511
f 889/1/517 890/2/518 891/3/519
f 892/4/520 891/3/519 890/2/518
f 890/5/518 889/6/517 893/7/521
f 894/8/522 893/7/521 889/6/517
f 868/9/498 895/6/523 870/8/500
f 896/1/449 897/2/450 898/3/450
f 899/4/449 898/3/450 897/2/450
f 897/5/450 896/6/449 900/7/449
f 901/8/484 900/7/449 896/6/449
f 902/1/449 903/2/450 904/3/449
f 905/4/449 904/3/449 903/2/450
f 903/5/450 902/6/449 906/7/450
f 907/8/450 906/7/450 902/6/449
f 908/1/524 909/2/525 910/3/526
f 911/4/526 910/3/526 909/2/525
f 909/5/525 908/6/524 912/7/527
f 913/8/527 912/7/527 908/6/524
f 914/1/528 915/2/529 916/3/530
f 917/4/531 916/3/530 915/2/529
f 915/5/529 914/6/528 918/7/532
f 919/8/533 918/7/532 914/6/528
f 920/10/534 921/6/534 922/7/534
f 923/8/534 922/7/534 921/6/534
f 924/1/534 925/2/534 926/3/534
f 927/4/535 926/3/534 925/2/534
f 925/5/534 924/6/534 928/7/534
f 929/8/535 928/7/534 924/6/534
f 930/5/534 920/10/534 922/7/534
f 931/1/536 932/2/537 933/3/538
f 934/4/538 933/3/538 932/2/537
f 932/5/537 931/6/536 935/7/138
f 936/8/539 935/7/138 931/6/536
f 937/1/540 938/2/541 939/3/542
f 940/4/543 939/3/542 938/2/541
f 938/5/541 937/6/540 941/7/544
f 942/8/545 941/7/544 937/6/540
f 943/1/546 944/2/546 945/3/546
f 946/4/546 945/3/546 944/2/546
f 944/5/546 943/6/546 947/7/546
f 948/8/546 947/7/546 943/6/546
f 949/1/547 950/2/547 951/3/547
f 952/4/547 951/3/547 950/2/547
f 950/5/547 949/6/547 953/7/547
f 954/8/547 953/7/547 949/6/547
f 955/10/548 956/6/549 957/7/548
f 958/8/550 957/7/548 956/6/549
f 959/1/551 960/2/552 961/3/553
f 962/4/554 961/3/553 960/2/552
f 960/5/552 959/6/551 963/7/555
f 964/8/556 963/7/555 959/6/551
f 965/5/557 955/10/548 957/7/548
f 966/1/558 967/2/559 968/3/560
f 969/4/561 968/3/560 967/2/559
f 967/5/559 966/6/558 970/7/562
f 971/8/563 970/7/562 966/6/558
f 972/5/450 973/9/449 974/7/450
f 975/8/449 974/7/450 973/9/449
f 976/1/449 977/2/449 978/3/449
f 979/4/449 978/3/449 977/2/449
f 977/5/449 976/6/449 980/7/449
f 981/8/449 980/7/449 976/6/449
f 982/1/534 983/2/535 984/3/535
f 985/4/534 984/3/535 983/2/535
f 983/5/535 982/6/534 986/7/534
f 987/8/534 986/7/534 982/6/534
f 988/1/534 989/2/534 990/3/534
f 991/4/534 990/3/534 989/2/534
f 989/5/534 988/6/534 992/7/534
f 993/8/534 992/7/534 988/6/534
f 994/1/564 995/2/565 996/3/566
f 997/4/567 996/3/566 995/2/565
f 995/5/565 994/6/564 998/7/568
f 999/8/569 998/7/568 994/6/564
f 973/9/449 1000/6/449 975/8/449
f 1001/1/570 1002/2/571 1003/3/572
f 1004/4/573 1003/3/572 1002/2/571
f 1002/5/571 1001/6/570 1005/7/574
f 1006/8/575 1005/7/574 1001/6/570
f 1007/1/100 1008/2/100 1009/3/100
f 1010/4/100 1009/3/100 1008/2/100
f 1008/5/100 1007/6/100 1011/7/100
f 1012/8/100 1011/7/100 1007/6/100
f 1013/1/576 1014/2/577 1015/3/578
f 1016/4/578 1015/3/578 1014/2/577
f 1014/5/577 1013/6/576 1017/7/579
f 1018/8/580 1017/7/579 1013/6/576
f 1019/1/581 1020/2/582 1021/3/583
f 1022/4/584 1021/3/583 1020/2/582
f 1020/5/582 1019/6/581 1023/7/585
f 1024/8/586 1023/7/585 1019/6/581
f 1025/10/99 1026/6/99 1027/7/99
f 1028/8/99 1027/7/99 1026/6/99
f 1029/1/587 1030/2/588 1031/3/589
f 1032/4/590 1031/3/589 1030/2/588
f 1030/5/588 1029/6/587 1033/7/591
f 1034/8/592 1033/7/591 1029/6/587
f 1035/5/99 1025/10/99 1027/7/99
f 1036/1/593 1037/2/594 1038/3/595
f 1039/4/596 1038/3/595 1037/2/594
f 1037/5/594 1036/6/593 1040/7/597
f 1041/8/598 1040/7/597 1036/6/593
f 1042/5/599 1043/9/599 1044/7/599
f 1045/8/599 1044/7/599 1043/9/599
f 1046/1/409 1047/2/409 1048/3/409
f 1049/4/409 1048/3/409 1047/2/409
f 1047/5/409 1046/6/409 1050/7/409
f 1051/8/409 1050/7/409 1046/6/409
f 1052/1/600 1053/2/600 1054/3/600
f 1055/4/600 1054/3/600 1053/2/600
f 1053/5/600 1052/6/600 1056/7/600
f 1057/8/600 1056/7/600 1052/6/600
f 1058/1/601 1059/2/602 1060/3/603
f 1061/4/604 1060/3/603 1059/2/602
f 1059/5/602 1058/6/601 1062/7/605
f 1063/8/606 1062/7/605 1058/6/601
f 1064/1/607 1065/2/608 1066/3/609
f 1067/4/610 1066/3/609 1065/2/608
f 1065/5/608 1064/6/607 1068/7/611
f 1069/8/612 1068/7/611 1064/6/607
f 1043/9/599 1070/6/599 1045/8/599
f 1071/1/613 1072/2/613 1073/3/613
f 1074/4/613 1073/3/613 1072/2/613
f 1072/5/613 1071/6/613 1075/7/613
f 1076/8/613 1075/7/613 1071/6/613
f 1077/5/614 1078/9/615 1079/7/616
f 1080/8/617 1079/7/616 1078/9/615
f 1081/1/618 1082/2/619 1083/3/620
f 1084/4/621 1083/3/620 1082/2/619
f 1082/5/619 1081/6/618 1085/7/622
f 1086/8/623 1085/7/622 1081/6/618
f 1087/1/624 1088/2/625 1089/3/626
f 1090/4/627 1089/3/626 1088/2/625
f 1088/5/625 1087/6/624 1091/7/628
f 1092/8/629 1091/7/628 1087/6/624
f 1093/1/630 1094/2/630 1095/3/631
f 1096/4/632 1095/3/631 1094/2/630
f 1094/5/630 1093/6/630 1097/7/633
f 1098/8/634 1097/7/633 1093/6/630
f 1099/1/635 1100/2/635 1101/3/1
f 1102/4/1 1101/3/1 1100/2/635
f 1100/5/635 1099/6/635 1103/7/635
f 1104/8/635 1103/7/635 1099/6/635
f 1078/9/615 1105/6/636 1080/8/617
f 1106/1/637 1107/2/637 1108/3/637
f 1109/4/637 1108/3/637 1107/2/637
f 1107/5/637 1106/6/637 1110/7/637
f 1111/8/637 1110/7/637 1106/6/637
f 1112/1/637 1113/2/637 1114/3/637
f 1115/4/637 1114/3/637 1113/2/637
f 1113/5/637 1112/6/637 1116/7/637
f 1117/8/637 1116/7/637 1112/6/637
f 1118/1/638 1119/2/639 1120/3/640
f 1121/4/641 1120/3/640 1119/2/639
f 1119/5/639 1118/6/638 1122/7/642
f 1123/8/643 1122/7/642 1118/6/638
f 1124/1/644 1125/2/645 1126/3/646
f 1127/4/647 1126/3/646 1125/2/645
f 1125/5/645 1124/6/644 1128/7/648
f 1129/8/649 1128/7/648 1124/6/644
f 1130/10/650 1131/6/650 1132/7/650
f 1133/8/651 1132/7/650 1131/6/650
f 1134/1/650 1135/2/650 1136/3/650
f 1137/4/650 1136/3/650 1135/2/650
f 1135/5/650 1134/6/650 1138/7/650
f 1139/8/652 1138/7/650 1134/6/650
f 1140/5/653 1130/10/650 1132/7/650
f 1141/2/1 1142/1/1 1143/3/1
f 1143/3/1 1144/4/1 1141/2/1
f 1142/6/1 1141/5/1 1145/7/1
f 1145/7/1 1146/8/1 1142/6/1
f 1147/2/1 1148/1/1 1149/3/1
f 1149/3/1 1150/4/1 1147/2/1
f 1148/6/1 1147/5/1 1151/7/1
f 1151/7/1 1152/8/1 1148/6/1
f 1153/2/1 1154/1/1 1155/3/1
f 1155/3/1 1156/4/1 1153/2/1
f 1154/6/1 1153/5/1 1157/7/1
f 1157/7/1 1158/8/1 1154/6/1
f 1159/2/654 1160/1/655 1161/3/656
f 1161/3/656 1162/4/656 1159/2/654
f 1160/6/655 1159/5/654 1163/7/657
f 1163/7/657 1164/8/657 1160/6/655
f 1165/9/658 1166/5/658 1167/7/658
f 1167/7/658 1168/8/658 1165/9/658
f 1169/2/659 1170/1/659 1171/3/660
f 1171/3/660 1172/4/660 1169/2/659
f 1170/6/659 1169/5/659 1173/7/661
f 1173/7/661 1174/8/662 1170/6/659
f 1175/6/658 1165/9/658 1168/8/658
f 1176/1/663 1177/2/663 1178/3/663
f 1179/4/613 1178/3/663 1177/2/663
f 1180/1/613 1181/2/613 1182/3/613
f 1183/4/613 1182/3/613 1181/2/613
f 1181/5/613 1180/6/613 1184/7/663
f 1185/8/613 1184/7/663 1180/6/613
f 1186/1/1 1187/2/1 1188/3/635
f 1189/4/635 1188/3/635 1187/2/1
f 1187/5/1 1186/6/1 1190/7/1
f 1191/8/1 1190/7/1 1186/6/1
f 1192/10/664 1193/6/1 1194/7/665
f 1195/8/635 1194/7/665 1193/6/1
f 1196/5/666 1192/10/664 1194/7/665
f 1197/11/613 1198/12/613 1199/13/613
f 1200/14/613 1199/13/613 1198/12/613
f 1201/15/1 1202/16/1 1203/5/1
f 1203/5/1 1204/17/1 1201/15/1
f 1205/1/1 1206/2/1 1207/3/1
f 1208/4/1 1207/3/1 1206/2/1
f 1206/5/1 1205/6/1 1209/7/1
f 1210/8/1 1209/7/1 1205/6/1
f 1211/1/1 1212/2/1 1213/3/1
f 1214/4/1 1213/3/1 1212/2/1
f 1212/5/1 1211/6/1 1215/7/1
f 1216/8/1 1215/7/1 1211/6/1
f 1217/1/1 1218/2/1 1219/3/1
f 1220/4/1 1219/3/1 1218/2/1
f 1218/5/1 1217/6/1 1221/7/1
f 1222/8/1 1221/7/1 1217/6/1
f 1223/18/613 1224/19/613 1225/20/613
f 1226/21/613 1225/20/613 1224/19/613
f 1227/1/1 1228/2/1 1229/3/1
f 1230/4/1 1229/3/1 1228/2/1
f 1228/5/1 1227/6/1 1231/7/1
f 1232/8/1 1231/7/1 1227/6/1
f 1233/10/1 1234/6/1 1235/7/1
f 1236/8/1 1235/7/1 1234/6/1
f 1237/1/1 1238/2/1 1239/3/1
f 1240/4/1 1239/3/1 1238/2/1
f 1238/5/1 1237/6/1 1241/7/1
f 1242/8/1 1241/7/1 1237/6/1
f 1243/5/1 1233/10/1 1235/7/1
f 1244/22/613 1245/23/613 1246/24/613
f 1247/25/613 1246/24/613 1245/23/613
f 1248/26/613 1249/27/613 1250/28/613
f 1251/29/613 1250/28/613 1249/27/613
f 1249/27/613 1244/22/613 1251/29/613
f 1246/24/613 1251/29/613 1244/22/613
f 1252/5/667 1253/9/667 1254/7/667
f 1255/8/667 1254/7/667 1253/9/667
f 1256/1/668 1257/2/669 1258/3/669
f 1259/4/669 1258/3/669 1257/2/669
f 1257/5/669 1256/6/668 1260/7/669
f 1261/8/670 1260/7/669 1256/6/668
f 1262/1/671 1263/2/672 1264/3/673
f 1265/4/674 1264/3/673 1263/2/672
f 1263/5/672 1262/6/671 1266/7/675
f 1267/8/676 1266/7/675 1262/6/671
f 1268/1/677 1269/2/677 1270/3/677
f 1271/4/677 1270/3/677 1269/2/677
f 1269/5/677 1268/6/677 1272/7/677
f 1273/8/677 1272/7/677 1268/6/677
f 1274/1/678 1275/2/679 1276/3/680
f 1277/4/681 1276/3/680 1275/2/679
f 1275/5/679 1274/6/678 1278/7/682
f 1279/8/683 1278/7/682 1274/6/678
f 1253/9/667 1280/6/667 1255/8/667
f 1281/5/684 1282/9/684 1283/7/684
f 1284/8/684 1283/7/684 1282/9/684
f 1285/1/684 1286/2/684 1287/3/684
f 1288/4/685 1287/3/684 1286/2/684
f 1286/5/684 1285/6/684 1289/7/684
f 1290/8/684 1289/7/684 1285/6/684
f 1291/1/686 1292/2/686 1293/3/686
f 1294/4/686 1293/3/686 1292/2/686
f 1292/5/686 1291/6/686 1295/7/686
f 1296/8/687 1295/7/686 1291/6/686
f 1297/1/686 1298/2/686 1299/3/686
f 1300/4/686 1299/3/686 1298/2/686
f 1298/5/686 1297/6/686 1301/7/686
f 1302/8/686 1301/7/686 1297/6/686
f 1303/1/688 1304/2/689 1305/3/690
f 1306/4/691 1305/3/690 1304/2/689
f 1304/5/689 1303/6/688 1307/7/692
f 1308/8/693 1307/7/692 1303/6/688
f 1282/9/684 1309/6/684 1284/8/684
