# Blender 4.4.3
# www.blender.org
mtllib FENCEATOP.mtl
o FENCEATOP
v 122.984589 2.418194 -8.138672
v 117.963593 2.418194 -8.138672
v 122.984589 1.739179 -8.752041
v 117.963593 1.739179 -8.752039
v 112.941299 2.418194 -8.138672
v 112.941299 1.739179 -8.752041
v 107.920311 2.418194 -8.138672
v 107.920311 1.739179 -8.752039
v 102.898033 2.418194 -8.138672
v 102.898033 1.739179 -8.752041
v 97.877037 2.418194 -8.138672
v 97.877037 1.739179 -8.752039
v 92.854752 2.418194 -8.138672
v 92.854752 1.739179 -8.752041
v 87.833755 2.418194 -8.138672
v 87.833755 1.739179 -8.752039
v 82.811462 2.418194 -8.138672
v 82.811462 1.739179 -8.752041
v 77.790466 2.418194 -8.138672
v 77.790466 1.739179 -8.752039
v 72.768173 2.418194 -8.138672
v 72.768173 1.739179 -8.752041
v 67.747177 2.418194 -8.138672
v 67.747177 1.739179 -8.752039
v 62.724892 2.418194 -8.138672
v 62.724892 1.739179 -8.752041
v 57.703896 2.418194 -8.138672
v 52.681602 2.418194 -8.138672
v 57.703896 1.739179 -8.752039
v 52.681602 1.739179 -8.752041
v 60.303055 2.418194 -8.138672
v 58.847412 1.739179 -8.752039
v 60.292427 1.739179 -8.752041
v 58.858040 2.418194 -8.138672
v 173.140060 2.418194 -8.138672
v 168.180054 2.418194 -8.138672
v 173.140060 1.739178 -8.752041
v 168.180054 1.739179 -8.752039
v 163.157776 2.418194 -8.138672
v 163.157776 1.739179 -8.752041
v 158.136765 2.418194 -8.138672
v 158.136765 1.739179 -8.752039
v 153.114471 2.418194 -8.138672
v 153.114471 1.739179 -8.752041
v 148.093475 2.418194 -8.138672
v 148.093475 1.739179 -8.752039
v 143.071182 2.418194 -8.138672
v 143.071182 1.739179 -8.752041
v 138.050186 2.418194 -8.138672
v 138.050186 1.739179 -8.752039
v 133.027893 2.418194 -8.138672
v 133.027893 1.739179 -8.752041
v 128.006912 2.418194 -8.138672
v 128.006912 1.739179 -8.752039
v -37.708344 2.418187 -8.138672
v -42.729340 2.418187 -8.138672
v -37.708344 1.739170 -8.752043
v -42.729340 1.739170 -8.752041
v -47.751610 2.418187 -8.138672
v -47.751610 1.739170 -8.752043
v -52.772606 2.418187 -8.138672
v -52.772606 1.739170 -8.752041
v -57.794899 2.418187 -8.138672
v -57.794899 1.739170 -8.752043
v -62.815895 2.418187 -8.138672
v -62.815895 1.739170 -8.752041
v -67.838181 2.418187 -8.138672
v -67.838181 1.739170 -8.752043
v 12.508095 2.418187 -8.138672
v 7.487099 2.418187 -8.138672
v 12.508095 1.739170 -8.752043
v 7.487099 1.739170 -8.752041
v 2.464796 2.418187 -8.138672
v 2.464796 1.739170 -8.752043
v -2.556210 2.418187 -8.138672
v -2.556210 1.739170 -8.752041
v -7.578503 2.418187 -8.138672
v -7.578503 1.739170 -8.752043
v -12.599495 2.418187 -8.138672
v -12.599495 1.739170 -8.752041
v -17.621788 2.418187 -8.138672
v -17.621788 1.739170 -8.752043
v -22.642769 2.418187 -8.138672
v -22.642769 1.739170 -8.752041
v -27.665058 2.418187 -8.138672
v -27.665058 1.739170 -8.752043
v -32.686058 2.418187 -8.138672
v -32.686058 1.739170 -8.752041
v 52.681252 2.418187 -8.138672
v 47.660255 2.418187 -8.138672
v 52.681252 1.739170 -8.752043
v 47.660255 1.739170 -8.752041
v 42.637951 2.418187 -8.138672
v 42.637951 1.739170 -8.752043
v 37.616955 2.418187 -8.138672
v 37.616955 1.739170 -8.752041
v 32.594666 2.418187 -8.138672
v 32.594666 1.739170 -8.752043
v 27.573669 2.418187 -8.138672
v 27.573669 1.739170 -8.752041
v 22.551380 2.418187 -8.138672
v 22.551380 1.739170 -8.752043
v 17.530384 2.418187 -8.138672
v 17.530384 1.739170 -8.752041
vn -0.0000 -0.6703 0.7421
vt 4.997499 1.956707
vt 2.500318 1.981271
vt 4.997499 1.000499
vt 2.500318 1.025063
vt 0.002493 1.999500
vt 0.002493 1.043293
vt 3.793004 1.968555
vt 3.069043 1.019469
vt 3.787721 1.012399
vt 3.074327 1.975625
s 1
usemtl FENCEATOP
f 1/1/1 2/2/1 3/3/1
f 4/4/1 3/3/1 2/2/1
f 2/2/1 5/5/1 4/4/1
f 6/6/1 4/4/1 5/5/1
f 5/1/1 7/2/1 6/3/1
f 8/4/1 6/3/1 7/2/1
f 7/2/1 9/5/1 8/4/1
f 10/6/1 8/4/1 9/5/1
f 9/1/1 11/2/1 10/3/1
f 12/4/1 10/3/1 11/2/1
f 11/2/1 13/5/1 12/4/1
f 14/6/1 12/4/1 13/5/1
f 13/1/1 15/2/1 14/3/1
f 16/4/1 14/3/1 15/2/1
f 15/2/1 17/5/1 16/4/1
f 18/6/1 16/4/1 17/5/1
f 17/1/1 19/2/1 18/3/1
f 20/4/1 18/3/1 19/2/1
f 19/2/1 21/5/1 20/4/1
f 22/6/1 20/4/1 21/5/1
f 21/1/1 23/2/1 22/3/1
f 24/4/1 22/3/1 23/2/1
f 23/2/1 25/5/1 24/4/1
f 26/6/1 24/4/1 25/5/1
f 27/2/1 28/5/1 29/4/1
f 30/6/1 29/4/1 28/5/1
f 25/1/1 31/7/1 26/3/1
f 29/4/1 32/8/1 27/2/1
f 33/9/1 26/3/1 31/7/1
f 32/8/1 34/10/1 27/2/1
f 35/1/1 36/2/1 37/3/1
f 38/4/1 37/3/1 36/2/1
f 36/2/1 39/5/1 38/4/1
f 40/6/1 38/4/1 39/5/1
f 39/1/1 41/2/1 40/3/1
f 42/4/1 40/3/1 41/2/1
f 41/2/1 43/5/1 42/4/1
f 44/6/1 42/4/1 43/5/1
f 43/1/1 45/2/1 44/3/1
f 46/4/1 44/3/1 45/2/1
f 45/2/1 47/5/1 46/4/1
f 48/6/1 46/4/1 47/5/1
f 47/1/1 49/2/1 48/3/1
f 50/4/1 48/3/1 49/2/1
f 49/2/1 51/5/1 50/4/1
f 52/6/1 50/4/1 51/5/1
f 51/1/1 53/2/1 52/3/1
f 54/4/1 52/3/1 53/2/1
f 53/2/1 1/5/1 54/4/1
f 3/6/1 54/4/1 1/5/1
f 55/1/1 56/2/1 57/3/1
f 58/4/1 57/3/1 56/2/1
f 56/2/1 59/5/1 58/4/1
f 60/6/1 58/4/1 59/5/1
f 59/1/1 61/2/1 60/3/1
f 62/4/1 60/3/1 61/2/1
f 61/2/1 63/5/1 62/4/1
f 64/6/1 62/4/1 63/5/1
f 63/1/1 65/2/1 64/3/1
f 66/4/1 64/3/1 65/2/1
f 65/2/1 67/5/1 66/4/1
f 68/6/1 66/4/1 67/5/1
f 69/1/1 70/2/1 71/3/1
f 72/4/1 71/3/1 70/2/1
f 70/2/1 73/5/1 72/4/1
f 74/6/1 72/4/1 73/5/1
f 73/1/1 75/2/1 74/3/1
f 76/4/1 74/3/1 75/2/1
f 75/2/1 77/5/1 76/4/1
f 78/6/1 76/4/1 77/5/1
f 77/1/1 79/2/1 78/3/1
f 80/4/1 78/3/1 79/2/1
f 79/2/1 81/5/1 80/4/1
f 82/6/1 80/4/1 81/5/1
f 81/1/1 83/2/1 82/3/1
f 84/4/1 82/3/1 83/2/1
f 83/2/1 85/5/1 84/4/1
f 86/6/1 84/4/1 85/5/1
f 85/1/1 87/2/1 86/3/1
f 88/4/1 86/3/1 87/2/1
f 87/2/1 55/5/1 88/4/1
f 57/6/1 88/4/1 55/5/1
f 89/1/1 90/2/1 91/3/1
f 92/4/1 91/3/1 90/2/1
f 90/2/1 93/5/1 92/4/1
f 94/6/1 92/4/1 93/5/1
f 93/1/1 95/2/1 94/3/1
f 96/4/1 94/3/1 95/2/1
f 95/2/1 97/5/1 96/4/1
f 98/6/1 96/4/1 97/5/1
f 97/1/1 99/2/1 98/3/1
f 100/4/1 98/3/1 99/2/1
f 99/2/1 101/5/1 100/4/1
f 102/6/1 100/4/1 101/5/1
f 101/1/1 103/2/1 102/3/1
f 104/4/1 102/3/1 103/2/1
f 103/2/1 69/5/1 104/4/1
f 71/6/1 104/4/1 69/5/1
