# Blender 4.4.3
# www.blender.org
mtllib FLAGLINEA.mtl
o FLAGLINEA
v 390.250397 12.319433 -414.158752
v 390.250397 11.630783 -414.158752
v 387.378479 12.821810 -415.958344
v 387.378479 12.133162 -415.958344
v 385.216064 13.988002 -418.241089
v 385.216064 13.299354 -418.241089
v 382.964478 16.185450 -420.463135
v 382.964478 15.496805 -420.463135
v 380.739044 18.776541 -422.935242
v 380.739044 18.087893 -422.935242
v 425.270935 12.275620 -438.734436
v 425.270935 11.586970 -438.734436
v 422.399017 12.777997 -440.533997
v 422.399017 12.089348 -440.533997
v 420.236633 14.244602 -442.816772
v 420.236633 13.555955 -442.816772
v 417.985046 16.442051 -445.038788
v 417.985046 15.753406 -445.038788
v 415.759613 19.033140 -447.510895
v 415.759613 18.344492 -447.510895
v 455.411011 10.560938 -460.528748
v 455.411011 9.872290 -460.528748
v 452.539062 11.291455 -462.328308
v 452.539062 10.602807 -462.328308
v 450.376648 12.866498 -464.611084
v 450.376648 12.177850 -464.611084
v 448.125061 15.320048 -466.833099
v 448.125061 14.631403 -466.833099
v 445.899658 18.493486 -469.305206
v 445.899658 17.804838 -469.305206
v 423.337891 17.932550 -467.075653
v 423.337891 17.243902 -467.075653
v 419.793365 17.001698 -464.411407
v 419.793365 16.313047 -464.411407
v 416.860565 16.965876 -462.309601
v 416.860565 16.277227 -462.309601
v 413.182343 17.422464 -459.783539
v 413.182343 16.733820 -459.783539
v 409.560547 18.493488 -457.153015
v 409.560547 17.804840 -457.153015
v 426.132721 19.824547 -461.961273
v 426.132721 19.135899 -461.961273
v 423.653259 18.893694 -460.081299
v 423.653259 18.205046 -460.081299
v 420.720459 18.857872 -457.979492
v 420.720459 18.169224 -457.979492
v 417.042236 19.264265 -455.453430
v 417.042236 18.575619 -455.453430
v 413.420441 20.303295 -452.822937
v 413.420441 19.614647 -452.822937
v 367.917084 12.319435 -420.760498
v 367.917084 11.630785 -420.760498
v 368.862244 12.821811 -423.958435
v 368.862244 12.133162 -423.958435
v 370.007385 13.988003 -426.479584
v 370.007385 13.299355 -426.479584
v 371.662598 16.185450 -428.983154
v 371.662598 15.496805 -428.983154
v 373.605042 18.776541 -431.745178
v 373.605042 18.087893 -431.745178
v 451.324829 11.638843 -478.440826
v 451.324829 10.950191 -478.440826
v 448.062531 12.141220 -477.749786
v 448.062531 11.452570 -477.749786
v 445.300262 13.307411 -477.556702
v 445.300262 12.618763 -477.556702
v 442.310638 15.504859 -477.820618
v 442.310638 14.816213 -477.820618
v 438.956940 18.095947 -478.214111
v 438.956940 17.407299 -478.214111
v -346.651001 20.224211 -558.129761
v -346.651001 19.535559 -558.129761
v -343.568970 20.726585 -559.539429
v -343.568970 20.037937 -559.539429
v -340.473297 21.892780 -560.090820
v -340.473297 21.204132 -560.090820
v -337.379364 24.090229 -560.750122
v -337.379364 23.401583 -560.750122
v -334.090912 26.681320 -561.250061
v -334.090912 25.992672 -561.250061
v -346.467773 19.832161 -532.581604
v -346.467773 19.143511 -532.581604
v -343.385712 20.334538 -533.991272
v -343.385712 19.645889 -533.991272
v -340.290070 21.801144 -534.542664
v -340.290070 21.112495 -534.542664
v -337.196136 23.998590 -535.201965
v -337.196136 23.309946 -535.201965
v -333.907684 26.589682 -535.701904
v -333.907684 25.901033 -535.701904
v -346.466278 18.657547 -506.656891
v -346.466278 17.968899 -506.656891
v -343.384216 19.388065 -508.066620
v -343.384216 18.699417 -508.066620
v -340.288574 20.963108 -508.618011
v -340.288574 20.274460 -508.618011
v -337.194672 23.416658 -509.277283
v -337.194672 22.728012 -509.277283
v -333.906189 26.590097 -509.777222
v -333.906189 25.901449 -509.777222
v -321.833923 26.666677 -528.630676
v -321.833923 25.978029 -528.630676
v -321.983734 25.888926 -532.096497
v -321.983734 25.200277 -532.096497
v -322.085907 26.429853 -535.619873
v -322.085907 25.741203 -535.619873
v -327.527374 27.445423 -529.467468
v -327.527374 26.756775 -529.467468
v -327.458099 26.949358 -532.112976
v -327.458099 26.260710 -532.112976
v -327.747955 27.867180 -534.546570
v -327.747955 27.178532 -534.546570
v -340.101593 20.208677 -590.423767
v -340.101593 19.520027 -590.423767
v -337.949860 20.711054 -587.876160
v -337.949860 20.022406 -587.876160
v -336.473389 21.877247 -585.533630
v -336.473389 21.188599 -585.533630
v -335.292023 24.074696 -582.774658
v -335.292023 23.386049 -582.774658
v -334.052673 26.665785 -579.633667
v -334.052673 25.977137 -579.633667
v -328.946533 19.777922 -499.134216
v -328.946533 19.089272 -499.134216
v -327.730347 20.280296 -502.239227
v -327.730347 19.591648 -502.239227
v -326.373077 21.446489 -504.652771
v -326.373077 20.757841 -504.652771
v -324.509094 23.643936 -507.005035
v -324.509094 22.955290 -507.005035
v -321.842407 26.235025 -509.446350
v -321.842407 25.546377 -509.446350
v 573.036255 -3.239983 -222.697815
v 573.036255 -3.928634 -222.697815
v 570.470581 -2.737608 -220.483398
v 570.470581 -3.426257 -220.483398
v 567.652161 -1.571415 -219.089325
v 567.652161 -2.260062 -219.089325
v 564.865479 0.626036 -217.592148
v 564.865479 -0.062610 -217.592148
v 561.847534 3.217128 -216.193634
v 561.847534 2.528479 -216.193634
v 560.559448 -3.299331 -278.412506
v 560.559448 -3.987981 -278.412506
v 557.993774 -2.796955 -276.198120
v 557.993774 -3.485603 -276.198120
v 555.175293 -1.330349 -274.804077
v 555.175293 -2.018997 -274.804077
v 552.388672 0.867100 -273.306885
v 552.388672 0.178454 -273.306885
v 549.370728 3.458190 -271.908386
v 549.370728 2.769542 -271.908386
v 553.150330 -5.014014 -303.256561
v 553.150330 -5.702664 -303.256561
v 550.584656 -4.283497 -301.042114
v 550.584656 -4.972146 -301.042114
v 547.766235 -2.708454 -299.648071
v 547.766235 -3.397102 -299.648071
v 544.979553 -0.254903 -298.150879
v 544.979553 -0.943549 -298.150879
v 541.961609 2.918537 -296.752411
v 541.961609 2.229889 -296.752411
v 536.192749 2.952653 -275.439514
v 536.192749 2.264004 -275.439514
v 537.304565 2.174901 -272.153473
v 537.304565 1.486253 -272.153473
v 538.386719 2.715830 -268.798859
v 538.386719 2.027181 -268.798859
v 541.928711 4.249597 -276.236542
v 541.928711 3.560948 -276.236542
v 542.601074 3.753530 -273.676941
v 542.601074 3.064882 -273.676941
v 543.559082 4.671353 -271.421143
v 543.559082 3.982706 -271.421143
v 575.767151 -3.255511 -189.859741
v 575.767151 -3.944162 -189.859741
v 572.989502 -2.753135 -191.704956
v 572.989502 -3.441785 -191.704956
v 570.917542 -1.586944 -193.541901
v 570.917542 -2.275592 -193.541901
v 569.012573 0.610504 -195.861115
v 569.012573 -0.078141 -195.861115
v 566.945312 3.201594 -198.530975
v 566.945312 2.512946 -198.530975
v 534.783936 -3.936108 -305.748718
v 534.783936 -4.624758 -305.748718
v 534.483398 -3.433731 -302.427582
v 534.483398 -4.122381 -302.427582
v 533.854248 -2.267539 -299.730988
v 533.854248 -2.956187 -299.730988
v 532.721436 -0.070091 -296.951752
v 532.721436 -0.758736 -296.951752
v 530.842651 2.520999 -293.862762
v 530.842651 1.832350 -293.862762
v 353.013855 36.955215 -1024.566650
v 353.013855 36.266567 -1024.566650
v 355.179932 37.457592 -1020.981201
v 355.179932 36.768936 -1020.981201
v 355.912781 38.924198 -1018.048645
v 355.912781 38.235542 -1018.048645
v 356.825806 41.121647 -1015.033997
v 356.825806 40.432991 -1015.033997
v 357.461151 43.712734 -1011.985107
v 357.461151 43.024078 -1011.985107
v 363.568665 35.780182 -1023.395203
v 363.568665 35.091534 -1023.395203
v 362.547760 36.510700 -1020.163452
v 362.547760 35.822052 -1020.163452
v 360.880981 38.085743 -1017.497192
v 360.880981 37.397095 -1017.497192
v 359.295410 40.539291 -1014.759888
v 359.295410 39.850647 -1014.759888
v 361.048767 43.789314 -986.759888
v 361.048767 43.100666 -986.759888
v 363.720337 43.011566 -984.546936
v 363.720337 42.322918 -984.546936
v 366.402649 43.552494 -982.260132
v 366.402649 42.863846 -982.260132
v 365.487305 44.568062 -990.422485
v 365.487305 43.879410 -990.422485
v 367.403442 44.071995 -988.597107
v 367.403442 43.383347 -988.597107
v 369.403168 44.989819 -987.180237
v 369.403168 44.301170 -987.180237
v 343.767273 36.900555 -1011.727356
v 343.767273 36.211906 -1011.727356
v 345.255219 37.402931 -1008.743042
v 345.255219 36.714283 -1008.743042
v 346.135590 38.569122 -1006.117737
v 346.135590 37.880478 -1006.117737
v 346.630676 40.766571 -1003.157593
v 346.630676 40.077927 -1003.157593
v 346.653564 43.335468 -999.542236
v 346.653564 42.646820 -999.542236
v 316.915253 -3.239963 41.687111
v 316.915253 -3.928614 41.687111
v 315.505554 -2.737588 38.605061
v 315.505554 -3.426237 38.605061
v 314.954163 -1.571395 35.509415
v 314.954163 -2.260043 35.509415
v 314.294861 0.626054 32.415478
v 314.294861 -0.062592 32.415478
v 313.794922 3.217146 29.127029
v 313.794922 2.528497 29.127029
v 373.897522 -3.299307 45.267838
v 373.897522 -3.987957 45.267838
v 372.487823 -2.796931 42.185791
v 372.487823 -3.485579 42.185791
v 371.936432 -1.330325 39.090145
v 371.936432 -2.018973 39.090145
v 371.277161 0.867124 35.996216
v 371.277161 0.178478 35.996216
v 370.777191 3.458213 32.707764
v 370.777191 2.769565 32.707764
v 399.822205 -5.013988 45.092487
v 399.822205 -5.702638 45.092487
v 398.412506 -4.283471 42.010441
v 398.412506 -4.972120 42.010441
v 397.861115 -2.708428 38.914780
v 397.861115 -3.397076 38.914780
v 397.201813 -0.254877 35.820869
v 397.201813 -0.943523 35.820869
v 396.701874 2.918561 32.532413
v 396.701874 2.229913 32.532413
v 377.848419 2.952676 21.040445
v 377.848419 2.264027 21.040445
v 374.382599 2.174924 21.190248
v 374.382599 1.486275 21.190248
v 370.859222 2.715852 21.292414
v 370.859222 2.027203 21.292414
v 377.011658 4.249620 26.770784
v 377.011658 3.560971 26.770784
v 374.366119 3.753553 26.701509
v 374.366119 3.064905 26.701509
v 371.932526 4.671376 26.991348
v 371.932526 3.982728 26.991348
v 284.621246 -3.255494 35.137707
v 284.621246 -3.944145 35.137707
v 287.168823 -2.753119 32.985977
v 287.168823 -3.441768 32.985977
v 289.511383 -1.586927 31.509493
v 289.511383 -2.275575 31.509493
v 292.270355 0.610521 30.328129
v 292.270355 -0.078124 30.328129
v 295.411346 3.201611 29.088772
v 295.411346 2.512963 29.088772
v 407.344879 -3.936083 28.153032
v 407.344879 -4.624733 28.153032
v 404.239868 -3.433706 26.936855
v 404.239868 -4.122356 26.936855
v 401.826324 -2.267514 25.579590
v 401.826324 -2.956162 25.579590
v 399.474060 -0.070067 23.715603
v 399.474060 -0.758712 23.715603
v 397.032745 2.521023 21.048897
v 397.032745 1.832373 21.048897
v 542.430298 33.551090 -864.772339
v 542.430298 32.862438 -864.772339
v 541.409363 34.053463 -861.540649
v 541.409363 33.364815 -861.540649
v 539.742615 35.219658 -858.874390
v 539.742615 34.531010 -858.874390
v 538.157043 37.417107 -856.137024
v 538.157043 36.728462 -856.137024
v 536.322815 40.008198 -853.362244
v 536.322815 39.319550 -853.362244
v 466.574188 33.510242 -924.084351
v 466.574188 32.821594 -924.084351
v 468.740265 34.012619 -920.498901
v 468.740265 33.323963 -920.498901
v 469.473114 35.479225 -917.566284
v 469.473114 34.790569 -917.566284
v 470.386139 37.676674 -914.551697
v 470.386139 36.988018 -914.551697
v 471.021484 40.267761 -911.502808
v 471.021484 39.579105 -911.502808
v 477.128998 32.335209 -922.912903
v 477.128998 31.646559 -922.912903
v 476.108093 33.065727 -919.681213
v 476.108093 32.377079 -919.681213
v 474.441315 34.640770 -917.014954
v 474.441315 33.952122 -917.014954
v 472.855743 37.094318 -914.277588
v 472.855743 36.405674 -914.277588
v 473.809479 40.310638 -885.211670
v 473.809479 39.621990 -885.211670
v 476.481049 39.532890 -882.998718
v 476.481049 38.844242 -882.998718
v 479.163361 40.073818 -880.711914
v 479.163361 39.385170 -880.711914
v 548.433472 33.810642 -850.397400
v 548.433472 33.121990 -850.397400
v 545.100708 34.313019 -850.509460
v 545.100708 33.624371 -850.509460
v 542.372803 35.479210 -850.984924
v 542.372803 34.790562 -850.984924
v 539.533875 37.676659 -851.958618
v 539.533875 36.988014 -851.958618
v 536.372681 40.267750 -853.145447
v 536.372681 39.579102 -853.145447
v 457.224976 34.047657 -911.439331
v 457.224976 33.359009 -911.439331
v 458.712921 34.550034 -908.455017
v 458.712921 33.861385 -908.455017
v 459.593292 35.716225 -905.829651
v 459.593292 35.027576 -905.829651
v 460.088379 37.913673 -902.869568
v 460.088379 37.225029 -902.869568
v 460.111267 40.482571 -899.254211
v 460.111267 39.793922 -899.254211
v 547.708923 30.078197 -837.831482
v 547.708923 29.389545 -837.831482
v 549.033203 30.580572 -834.711731
v 549.033203 29.891924 -834.711731
v 549.499084 31.746765 -831.602112
v 549.499084 31.058117 -831.602112
v 550.072876 33.944218 -828.491150
v 550.072876 33.255573 -828.491150
v 561.434692 30.078196 -830.939575
v 561.434692 29.389545 -830.939575
v 558.828796 30.580574 -828.858826
v 558.828796 29.891924 -828.858826
v 556.446411 31.746767 -827.447449
v 556.446411 31.058121 -827.447449
v 553.656006 33.944221 -826.342529
v 553.656006 33.255573 -826.342529
v 550.481995 36.535309 -825.190186
v 550.481995 35.846661 -825.190186
v 559.863464 30.078197 -833.117981
v 559.863464 29.389545 -833.117981
v 558.842529 30.580572 -829.886292
v 558.842529 29.891924 -829.886292
v 557.175781 31.746765 -827.220032
v 557.175781 31.058117 -827.220032
v 555.590210 33.944218 -824.482666
v 555.590210 33.255573 -824.482666
v 553.755981 36.535309 -821.707886
v 553.755981 35.846661 -821.707886
v 565.816833 30.078197 -818.959900
v 565.816833 29.389547 -818.959900
v 562.484009 30.580576 -819.071899
v 562.484009 29.891926 -819.071899
v 559.756104 31.746769 -819.547424
v 559.756104 31.058123 -819.547424
v 556.917175 33.944221 -820.521118
v 556.917175 33.255573 -820.521118
v 488.629089 31.189081 -810.626587
v 488.629089 30.500429 -810.626587
v 491.779694 31.857084 -811.875549
v 491.779694 31.168434 -811.875549
v 494.899658 33.176834 -812.266602
v 494.899658 32.488186 -812.266602
v 498.023468 35.529362 -812.765503
v 498.023468 34.840717 -812.765503
v 490.373871 31.403019 -821.203552
v 490.373871 30.714369 -821.203552
v 493.782349 32.044407 -819.305359
v 493.782349 31.355759 -819.305359
v 496.346893 33.311131 -817.548706
v 496.346893 32.622482 -817.548706
v 498.734680 35.596672 -815.467285
v 498.734680 34.908024 -815.467285
v 501.333282 38.282303 -813.095215
v 501.333282 37.593655 -813.095215
v 492.668488 31.267742 -801.414246
v 492.668488 30.579090 -801.414246
v 494.757843 31.891161 -803.148926
v 494.757843 31.202513 -803.148926
v 497.463501 33.201813 -804.401123
v 497.463501 32.513165 -804.401123
v 499.869568 35.541977 -806.667419
v 499.869568 34.853333 -806.667419
v 502.334076 38.291332 -809.966125
v 502.334076 37.602684 -809.966125
v 490.806702 31.233681 -805.837646
v 490.806702 30.545029 -805.837646
v 493.704987 31.895304 -807.543335
v 493.704987 31.206657 -807.543335
v 496.247498 33.195816 -808.604614
v 496.247498 32.507172 -808.604614
v 499.105774 35.538010 -809.291138
v 499.105774 34.849361 -809.291138
v -302.803497 20.115843 -357.128632
v -302.803497 19.427193 -357.128632
v -299.727966 20.618217 -358.552490
v -299.727966 19.929569 -358.552490
v -296.634888 21.784410 -359.118134
v -296.634888 21.095762 -359.118134
v -293.544006 23.981861 -359.791656
v -293.544006 23.293215 -359.791656
v -290.257904 26.572952 -360.306732
v -290.257904 25.884304 -360.306732
v -302.986206 20.056503 -300.130493
v -302.986206 19.367853 -300.130493
v -299.910675 20.558880 -301.554352
v -299.910675 19.870232 -301.554352
v -296.817596 22.025486 -302.119965
v -296.817596 21.336838 -302.119965
v -293.726746 24.222935 -302.793488
v -293.726746 23.534288 -302.793488
v -290.440643 26.814024 -303.308563
v -290.440643 26.125376 -303.308563
v -302.691559 18.341824 -274.206848
v -302.691559 17.653173 -274.206848
v -299.616028 19.072342 -275.630737
v -299.616028 18.383692 -275.630737
v -296.522949 20.647385 -276.196381
v -296.522949 19.958736 -276.196381
v -293.432098 23.100935 -276.869904
v -293.432098 22.412289 -276.869904
v -290.145966 26.274374 -277.384949
v -290.145966 25.585726 -277.384949
v -278.740906 26.308487 -296.291138
v -278.740906 25.619839 -296.291138
v -278.906647 25.530735 -299.756226
v -278.906647 24.842087 -299.756226
v -279.025024 26.071663 -303.279083
v -279.025024 25.383015 -303.279083
v -284.475037 27.605431 -297.101501
v -284.475037 26.916782 -297.101501
v -284.417938 27.109364 -299.747314
v -284.417938 26.420715 -299.747314
v -284.718964 28.027187 -302.179535
v -284.718964 27.338539 -302.179535
v -296.402771 20.100309 -389.452423
v -296.402771 19.411659 -389.452423
v -294.239349 20.602686 -386.914795
v -294.239349 19.914038 -386.914795
v -292.752106 21.768879 -384.579041
v -292.752106 21.080231 -384.579041
v -291.558044 23.966326 -381.825531
v -291.558044 23.277681 -381.825531
v -290.304260 26.557417 -378.690277
v -290.304260 25.868769 -378.690277
v -231.632034 18.715208 -323.290833
v -231.632034 18.026560 -323.290833
v -232.598404 19.217585 -326.539185
v -232.598404 18.528936 -326.539185
v -232.712921 20.383778 -329.681519
v -232.712921 19.695127 -329.681519
v -232.934586 22.581230 -332.837128
v -232.934586 21.892582 -332.837128
v -233.014633 25.172319 -335.975067
v -233.014633 24.483671 -335.975067
v -279.771912 19.070555 -347.839355
v -279.771912 18.381905 -347.839355
v -278.692719 19.572931 -344.626556
v -278.692719 18.884283 -344.626556
v -278.468567 20.739124 -341.490234
v -278.468567 20.050476 -341.490234
v -278.136871 22.936575 -338.344238
v -278.136871 22.247929 -338.344238
v -277.947418 25.527666 -335.210968
v -277.947418 24.839018 -335.210968
v -134.303299 11.736679 -352.576385
v -134.303299 11.048031 -352.576385
v -133.215714 12.239056 -355.786377
v -133.215714 11.550406 -355.786377
v -131.494308 13.405247 -358.417572
v -131.494308 12.716599 -358.417572
v -129.852509 15.602698 -361.121582
v -129.852509 14.914050 -361.121582
v -128.172913 18.193789 -363.582062
v -128.172913 17.505140 -363.582062
v -314.101379 18.715200 -427.457397
v -314.101379 18.026552 -427.457397
v -312.106812 19.217577 -430.197479
v -312.106812 18.528929 -430.197479
v -309.679382 20.383770 -432.196198
v -309.679382 19.695120 -432.196198
v -307.306458 22.581223 -434.288147
v -307.306458 21.892574 -434.288147
v -304.517761 25.172312 -436.479523
v -304.517761 24.483664 -436.479523
v 350.270050 29.534555 -759.552673
v 350.270050 28.845903 -759.552673
v 352.827393 30.036930 -757.328613
v 352.827393 29.348282 -757.328613
v 354.608765 31.203125 -754.737549
v 354.608765 30.514477 -754.737549
v 356.487701 33.400574 -752.192566
v 356.487701 32.711929 -752.192566
v 358.301880 35.991665 -749.404663
v 358.301880 35.303017 -749.404663
v 327.081116 28.638340 -748.828186
v 327.081116 27.949692 -748.828186
v 329.638428 29.140717 -746.604126
v 329.638428 28.452070 -746.604126
v 331.419800 30.607325 -744.013062
v 331.419800 29.918676 -744.013062
v 333.298706 32.804771 -741.468079
v 333.298706 32.116127 -741.468079
v 335.112885 35.395863 -738.680176
v 335.112885 34.707214 -738.680176
v 303.474152 26.827301 -738.113586
v 303.474152 26.138653 -738.113586
v 306.031494 27.557819 -735.889587
v 306.031494 26.869171 -735.889587
v 307.812866 29.132864 -733.298462
v 307.812866 28.444214 -733.298462
v 309.691772 31.586412 -730.753540
v 309.691772 30.897768 -730.753540
v 311.505951 34.759853 -727.965576
v 311.505951 34.071205 -727.965576
v 333.663116 34.836437 -724.763428
v 333.663116 34.147789 -724.763428
v 336.757263 34.695110 -726.332092
v 336.757263 34.006462 -726.332092
v 339.923462 35.236038 -727.881104
v 339.923462 34.547390 -727.881104
v 332.072296 35.615181 -730.293762
v 332.072296 34.926533 -730.293762
v 334.509979 35.755543 -731.323914
v 334.509979 35.066895 -731.323914
v 336.606293 36.673367 -732.593506
v 336.606293 35.984718 -732.593506
v 382.384155 29.519024 -766.933899
v 382.384155 28.830374 -766.933899
v 380.953461 30.021400 -763.921753
v 380.953461 29.332752 -763.921753
v 379.430420 31.187593 -761.609192
v 379.430420 30.498945 -761.609192
v 377.406250 33.385040 -759.393250
v 377.406250 32.696396 -759.393250
v 375.058136 35.976131 -756.966675
v 375.058136 35.287483 -756.966675
v 303.863770 27.947678 -719.051086
v 303.863770 27.259027 -719.051086
v 307.193848 28.450054 -719.226746
v 307.193848 27.761406 -719.226746
v 309.952545 29.616247 -718.988159
v 309.952545 28.927597 -718.988159
v 312.864838 31.813694 -718.262817
v 312.864838 31.125048 -718.262817
v 316.189941 34.404781 -716.843323
v 316.189941 33.716133 -716.843323
v 133.698380 2.813684 -39.462563
v 133.698380 2.125035 -39.462563
v 136.494247 1.936761 -39.296185
v 136.494247 1.248113 -39.296185
v 140.054092 2.007702 -39.411728
v 140.054077 1.319054 -39.411728
v 143.254807 2.875598 -39.418262
v 143.254807 2.186951 -39.418262
v 133.670578 2.813683 -49.173878
v 133.670578 2.125034 -49.173878
v 136.466431 1.500420 -49.007496
v 136.466431 0.811771 -49.007496
v 140.026291 1.571361 -49.123039
v 140.026260 0.882713 -49.123039
v 143.226974 2.875597 -49.129578
v 143.226974 2.186950 -49.129578
v -263.430054 6.547545 -43.861435
v -263.430054 5.858899 -43.861435
v -261.036316 9.239686 -48.124668
v -261.036285 8.551041 -48.124683
v -259.299286 12.407725 -50.936657
v -259.299286 11.719078 -50.936657
v -265.752625 4.669922 -40.082970
v -265.752594 3.981278 -40.082985
v -302.010773 12.606553 -115.667847
v -302.010773 11.917906 -115.667847
v -298.190765 15.298694 -117.023102
v -298.190735 14.610049 -117.023102
v -294.931030 18.466734 -117.983917
v -294.931030 17.778086 -117.983917
v -306.364197 10.728931 -113.968536
v -306.364197 10.040287 -113.968536
v 652.689941 2.870143 -143.653061
v 652.689941 2.181495 -143.653061
v 649.479736 3.372520 -142.566467
v 649.479736 2.683871 -142.566467
v 646.343872 4.538712 -142.334991
v 646.343872 3.850064 -142.334991
v 643.198730 6.736165 -141.996063
v 643.198730 6.047514 -141.996063
v 639.765625 8.357153 -141.802795
v 639.765625 7.668505 -141.802795
v 638.833801 1.342115 -176.771301
v 638.833801 0.653467 -176.771301
v 636.792114 1.844492 -174.066116
v 636.792114 1.155844 -174.066116
v 634.330505 3.010685 -172.109695
v 634.330505 2.322036 -172.109695
v 631.921814 5.208135 -170.059143
v 631.921814 4.519488 -170.059143
v 629.302979 7.799224 -168.031448
v 629.302979 7.110576 -168.031448
v 629.052185 2.870140 -200.957581
v 629.052185 2.181491 -200.957581
v 625.841919 3.372516 -199.870987
v 625.841919 2.683868 -199.870987
v 622.706116 4.538708 -199.639526
v 622.706116 3.850061 -199.639526
v 619.560913 6.736160 -199.300583
v 619.560913 6.047512 -199.300583
v 616.127747 8.357148 -199.107330
v 616.127747 7.668500 -199.107330
v 615.188171 1.342110 -234.507370
v 615.188171 0.653463 -234.507370
v 613.146484 1.844487 -231.802231
v 613.146484 1.155839 -231.802231
v 610.684937 3.010681 -229.845795
v 610.684937 2.322031 -229.845795
v 608.276123 5.208131 -227.795212
v 608.276123 4.519484 -227.795212
v 605.657349 7.799220 -225.767563
v 605.657349 7.110572 -225.767563
v 607.372681 2.870136 -259.119446
v 607.372681 2.181486 -259.119446
v 604.162476 3.372511 -258.032837
v 604.162476 2.683863 -258.032837
v 601.026611 4.538703 -257.801331
v 601.026611 3.850056 -257.801331
v 597.881470 6.736156 -257.462463
v 597.881470 6.047507 -257.462463
v 594.448303 8.357144 -257.269226
v 594.448303 7.668496 -257.269226
v 595.080078 1.342106 -292.312561
v 595.080078 0.653459 -292.312561
v 593.038391 1.844483 -289.607361
v 593.038391 1.155835 -289.607361
v 590.576843 3.010676 -287.650940
v 590.576843 2.322027 -287.650940
v 588.168030 5.208127 -285.600403
v 588.168030 4.519480 -285.600403
v 585.549316 7.799215 -283.572693
v 585.549316 7.110568 -283.572693
v 587.651733 2.870132 -316.179504
v 587.651733 2.181483 -316.179504
v 584.441467 3.372508 -315.092957
v 584.441467 2.683860 -315.092957
v 581.305664 4.538700 -314.861511
v 581.305664 3.850052 -314.861511
v 578.160461 6.736151 -314.522522
v 578.160461 6.047503 -314.522522
v 574.727295 8.357140 -314.329285
v 574.727295 7.668491 -314.329285
v 575.748901 1.342102 -350.198425
v 575.748901 0.653455 -350.198425
v 573.707214 1.844480 -347.493286
v 573.707214 1.155831 -347.493286
v 571.245728 3.010673 -345.536865
v 571.245728 2.322024 -345.536865
v 568.836853 5.208123 -343.486206
v 568.836853 4.519475 -343.486206
v 566.218140 7.799211 -341.458618
v 566.218140 7.110563 -341.458618
v 246.391830 17.658205 -408.772797
v 246.391830 16.969559 -408.772797
v 250.077484 16.508957 -409.685760
v 250.077484 15.820309 -409.685760
v 254.467255 15.991424 -410.598816
v 254.467255 15.302775 -410.598816
v 259.936920 17.430199 -411.236938
v 259.936920 16.741549 -411.236938
v 265.836426 20.221581 -411.758698
v 265.836426 19.532932 -411.758698
v 287.247131 14.041535 -408.297974
v 287.247131 13.352889 -408.297974
v 285.164062 15.125013 -408.311066
v 285.164062 14.436364 -408.311066
v 283.432861 16.382021 -408.484253
v 283.432861 15.693372 -408.484253
v 281.711517 18.321894 -408.776276
v 281.711517 17.633247 -408.776276
v 279.934875 21.856298 -409.246246
v 279.934875 21.167650 -409.246246
v 545.181030 0.744166 -364.295593
v 545.181030 0.055516 -364.295593
v 542.697021 1.246541 -361.989868
v 542.697021 0.557893 -361.989868
v 539.930908 2.412734 -360.494812
v 539.930908 1.724086 -360.494812
v 537.200195 4.610183 -358.897827
v 537.200195 3.921536 -358.897827
v 534.147095 6.231173 -357.315979
v 534.147095 5.542525 -357.315979
v 521.004883 -2.296234 -351.574402
v 521.004883 -2.984879 -351.574402
v 518.410217 -1.793854 -349.394073
v 518.410217 -2.482504 -349.394073
v 515.573547 -0.627660 -348.037506
v 515.573547 -1.316310 -348.037506
v 512.767395 1.569790 -346.577148
v 512.767395 0.881141 -346.577148
v 509.761566 4.160877 -345.186157
v 509.761566 3.472230 -345.186157
v 501.905731 -3.249459 -390.526855
v 501.905731 -3.938102 -390.526855
v 505.290649 -2.747079 -390.695953
v 505.290649 -3.435725 -390.695953
v 508.370483 -1.580884 -390.062622
v 508.370483 -2.269535 -390.062622
v 511.488831 0.616565 -389.530243
v 511.488831 -0.072083 -389.530243
v 514.724426 4.440310 -388.821991
v 514.724426 3.751663 -388.821991
v 416.333740 -3.571061 -65.778488
v 416.333740 -4.259710 -65.778488
v 419.653870 -3.068684 -65.098076
v 419.653870 -3.757332 -65.098076
v 422.478577 -1.902491 -63.716671
v 422.478577 -2.591140 -63.716671
v 425.365540 0.294958 -62.423389
v 425.365540 -0.393688 -62.423389
v 428.170074 2.886050 -61.013527
v 428.170074 2.197402 -61.013527
v 403.191315 -3.258165 -44.786224
v 403.191315 -3.946814 -44.786224
v 405.672546 -2.755789 -42.477615
v 405.672546 -3.444438 -42.477615
v 407.365997 -1.589596 -39.828213
v 407.365997 -2.278245 -39.828213
v 409.158447 0.607856 -37.221634
v 409.158447 -0.080793 -37.221634
v 410.819916 3.198945 -34.558411
v 410.819916 2.510297 -34.558411
v 382.611847 -3.926407 -35.414528
v 382.611847 -4.615055 -35.414528
v 383.978271 -3.424028 -32.313026
v 383.978271 -4.112678 -32.313026
v 384.486237 -2.257836 -29.209961
v 384.486237 -2.946486 -29.209961
v 385.102142 -0.060385 -26.107109
v 385.102142 -0.749032 -26.107109
v 385.575348 2.530704 -23.003986
v 385.575348 1.842056 -23.003986
v 354.125824 -3.571059 -34.874519
v 354.125824 -4.259708 -34.874519
v 355.492218 -3.068681 -31.773018
v 355.492218 -3.757329 -31.773018
v 356.000214 -1.902488 -28.669958
v 356.000214 -2.591136 -28.669958
v 356.616119 0.294961 -25.567104
v 356.616119 -0.393684 -25.567104
v 357.089233 2.886052 -22.463957
v 357.089233 2.197404 -22.463957
v 445.986267 -3.324996 -117.652695
v 445.986267 -4.013645 -117.652695
v 449.306458 -2.822620 -116.972267
v 449.306458 -3.511269 -116.972267
v 452.131104 -1.656427 -115.590851
v 452.131104 -2.345075 -115.590851
v 455.018097 0.541025 -114.297577
v 455.018097 -0.147623 -114.297577
v 457.822662 3.132114 -112.887749
v 457.822662 2.443466 -112.887749
v 431.857117 -3.926411 -91.882675
v 431.857117 -4.615059 -91.882675
v 435.177277 -3.424034 -91.202255
v 435.177277 -4.112683 -91.202255
v 438.001953 -2.257842 -89.820831
v 438.001953 -2.946491 -89.820831
v 440.888885 -0.060390 -88.527534
v 440.888885 -0.749038 -88.527534
v 443.693481 2.530699 -87.117737
v 443.693481 1.842051 -87.117737
v 497.095825 -3.926417 -167.256317
v 497.095825 -4.615067 -167.256317
v 498.431671 -3.424039 -164.141541
v 498.431671 -4.112689 -164.141541
v 498.909058 -2.257847 -161.033585
v 498.909058 -2.946497 -161.033585
v 499.494385 -0.060395 -157.924805
v 499.494385 -0.749043 -157.924805
v 499.937042 2.530694 -154.817169
v 499.937042 1.842046 -154.817169
v 463.296936 -3.571068 -149.190323
v 463.296936 -4.259717 -149.190323
v 466.523804 -3.068691 -148.154114
v 466.523804 -3.757339 -148.154114
v 469.182129 -1.902498 -146.474701
v 469.182129 -2.591147 -146.474701
v 471.911926 0.294952 -144.876144
v 471.911926 -0.393694 -144.876144
v 474.547150 2.886043 -143.170685
v 474.547150 2.197395 -143.170685
v 322.197235 -3.571059 -34.986763
v 322.197235 -4.259709 -34.986763
v 323.563629 -3.068681 -31.885258
v 323.563629 -3.757329 -31.885258
v 324.071625 -1.902488 -28.782198
v 324.071625 -2.591136 -28.782198
v 324.687531 0.294961 -25.679323
v 324.687531 -0.393685 -25.679346
v 325.160645 2.886052 -22.576197
v 325.160645 2.197404 -22.576197
v 187.039871 2.813684 -39.462559
v 187.039871 2.125035 -39.462559
v 189.835724 1.936761 -39.296185
v 189.835724 1.248113 -39.296185
v 193.395569 2.007702 -39.411724
v 193.395569 1.319054 -39.411724
v 196.596283 2.875599 -39.418259
v 196.596283 2.186951 -39.418259
v 201.638107 2.813684 -40.352230
v 201.638107 2.125035 -40.352230
v 204.433960 2.775792 -40.185852
v 204.433960 2.087143 -40.185852
v 207.993805 2.846732 -40.301395
v 207.993790 2.158084 -40.301395
v 211.194504 2.875598 -40.307930
v 211.194504 2.186951 -40.307930
v 201.638107 2.813683 -49.173878
v 201.638107 2.125034 -49.173878
v 204.433945 1.255487 -48.956455
v 204.433945 0.566839 -48.956455
v 207.993790 1.326427 -49.071999
v 207.993774 0.637780 -49.071999
v 211.194504 2.875598 -49.129578
v 211.194504 2.186950 -49.129578
v 187.012054 2.813683 -49.173874
v 187.012054 2.125034 -49.173874
v 189.807922 1.500420 -49.007492
v 189.807922 0.811771 -49.007492
v 193.367767 1.571361 -49.123035
v 193.367752 0.882713 -49.123035
v 196.568466 2.875598 -49.129574
v 196.568466 2.186950 -49.129574
v 201.638107 2.813682 -68.992424
v 201.638107 2.125033 -68.992424
v 204.433945 2.500405 -68.826035
v 204.433945 1.811757 -68.826035
v 207.993790 2.571346 -68.941574
v 207.993774 1.882698 -68.941574
v 211.194504 2.875597 -68.948112
v 211.194504 2.186949 -68.948112
v 187.012054 2.813682 -68.992424
v 187.012054 2.125033 -68.992424
v 189.807907 2.562999 -68.826035
v 189.807907 1.874350 -68.826035
v 193.367752 2.633939 -68.941574
v 193.367737 1.945292 -68.941574
v 196.568451 2.875597 -68.948112
v 196.568451 2.186949 -68.948112
v 173.830475 -0.862349 -93.327599
v 173.830475 -1.550997 -93.327599
v 173.987427 1.263160 -89.155411
v 173.987427 0.574515 -89.155403
v 174.003143 4.198124 -85.880630
v 174.003143 3.509477 -85.880630
v 198.681610 -0.862349 -93.592651
v 198.681610 -1.550997 -93.592651
v 198.838562 1.263160 -89.420456
v 198.838562 0.574515 -89.420456
v 198.854279 4.198124 -86.145683
v 198.854279 3.509477 -86.145683
v 214.330994 -0.862349 -93.287689
v 214.330994 -1.550997 -93.287689
v 214.487961 1.263160 -89.115501
v 214.487961 0.574515 -89.115494
v 214.503677 4.198124 -85.840721
v 214.503677 3.509477 -85.840721
v 244.334717 -0.862349 -93.552368
v 244.334717 -1.550997 -93.552368
v 244.491684 1.263160 -89.380180
v 244.491684 0.574515 -89.380173
v 244.507401 4.198124 -86.105400
v 244.507401 3.509477 -86.105400
v 278.551666 -0.862349 -93.592651
v 278.551666 -1.550997 -93.592651
v 278.708618 1.263160 -89.420456
v 278.708618 0.574515 -89.420456
v 278.724335 4.198124 -86.145683
v 278.724335 3.509477 -86.145683
v 294.201050 -0.862349 -93.287689
v 294.201050 -1.550997 -93.287689
v 294.358032 1.263160 -89.115501
v 294.358032 0.574515 -89.115494
v 294.373718 4.198124 -85.840721
v 294.373749 3.509477 -85.840721
v 324.361725 1.263160 -89.380180
v 324.361725 0.574515 -89.380180
v 324.377441 4.198124 -86.105400
v 324.377441 3.509477 -86.105400
v 278.551666 -0.862346 -46.961105
v 278.551666 -1.550994 -46.961105
v 278.708618 1.263164 -42.788918
v 278.708618 0.574519 -42.788918
v 278.724335 4.198128 -39.514133
v 278.724335 3.509480 -39.514133
v 294.201050 -0.862346 -46.656151
v 294.201050 -1.550994 -46.656151
v 294.358032 1.263164 -42.483963
v 294.358032 0.574519 -42.483959
v 294.373718 4.198128 -39.209179
v 294.373749 3.509480 -39.209179
v 157.974243 -0.862346 -47.158672
v 157.974243 -1.550994 -47.158672
v 158.131210 1.263164 -42.986485
v 158.131210 0.574519 -42.986481
v 158.146912 4.198128 -39.711700
v 158.146912 3.509480 -39.711700
v -155.368652 -0.797614 45.107430
v -155.368652 -1.486266 45.107430
v -156.778351 -0.295240 42.025383
v -156.778351 -0.983888 42.025383
v -157.329758 0.870954 38.929733
v -157.329758 0.182306 38.929733
v -157.989059 3.068404 35.835796
v -157.989059 2.379758 35.835796
v -158.488998 5.659494 32.547348
v -158.488998 4.970845 32.547348
v -98.386398 -1.626688 41.825367
v -98.386398 -2.315338 41.825367
v -99.796104 -1.124312 38.743317
v -99.796104 -1.812960 38.743317
v -100.347481 0.342294 35.647678
v -100.347481 -0.346354 35.647678
v -101.006760 2.539742 32.553749
v -101.006760 1.851097 32.553749
v -101.506714 5.130832 29.265299
v -101.506714 4.442184 29.265299
v -72.461700 -3.341370 41.650021
v -72.461700 -4.030019 41.650021
v -73.871422 -2.610852 38.567974
v -73.871422 -3.299501 38.567974
v -74.422813 -1.035809 35.472313
v -74.422813 -1.724457 35.472313
v -75.082108 1.417742 32.378403
v -75.082108 0.729095 32.378403
v -75.582031 4.591180 29.089945
v -75.582031 3.902532 29.089945
v -94.435509 4.625294 17.597979
v -94.435509 3.936646 17.597979
v -97.901321 3.847543 17.747782
v -97.901321 3.158893 17.747782
v -101.424683 4.388471 17.849953
v -101.424683 3.699821 17.849953
v -95.272263 5.922238 23.328318
v -95.272263 5.233590 23.328318
v -97.917786 5.426172 23.259043
v -97.917786 4.737524 23.259043
v -100.351379 6.343996 23.548882
v -100.351379 5.655347 23.548882
v -187.662659 -0.813146 38.558025
v -187.662659 -1.501797 38.558025
v -185.115082 -0.310769 36.406296
v -185.115082 -0.999419 36.406296
v -182.772522 0.855423 34.929813
v -182.772522 0.166774 34.929813
v -180.013565 3.052871 33.748451
v -180.013565 2.364225 33.748451
v -176.872559 5.643961 32.509094
v -176.872559 4.955312 32.509094
v -64.939026 -2.263464 24.710566
v -64.939026 -2.952114 24.710566
v -68.044037 -1.761087 23.494389
v -68.044037 -2.449737 23.494389
v -70.457596 -0.594895 22.137123
v -70.457596 -1.283543 22.137123
v -72.809845 1.602552 20.273136
v -72.809845 0.913906 20.273136
v -75.251175 4.193642 17.606428
v -75.251175 3.504993 17.606428
v 55.062317 -0.947302 44.683163
v 55.062347 -1.635951 44.683174
v 53.701584 -0.444926 41.579182
v 53.701584 -1.133574 41.579182
v 53.199265 0.721267 38.475212
v 53.199265 0.032619 38.475212
v 52.589020 2.918718 35.371216
v 52.589020 2.230070 35.371216
v 52.121490 5.509806 32.267227
v 52.121490 4.821158 32.267227
v 29.712601 -0.947302 44.683167
v 29.712601 -1.635950 44.683167
v 32.639725 -0.444925 41.579189
v 32.639725 -1.133573 41.579189
v 34.557861 0.721267 38.475204
v 34.557861 0.032619 38.475204
v 36.288589 2.918718 35.371216
v 36.288589 2.230070 35.371216
v 37.269196 5.509806 32.267235
v 37.269196 4.821158 32.267235
v 60.854218 -0.947301 44.683159
v 60.854218 -1.635950 44.683159
v 63.781342 -0.444925 41.579182
v 63.781342 -1.133573 41.579182
v 65.699478 0.721267 38.475204
v 65.699478 0.032619 38.475204
v 67.430222 2.918718 35.371220
v 67.430222 2.230070 35.371220
v 68.410812 5.509806 32.267246
v 68.410812 4.821158 32.267246
v -7.097519 -2.475328 39.437969
v -7.097519 -3.163977 39.437969
v -8.458267 -1.972952 36.333992
v -8.458267 -2.661600 36.333992
v -8.960594 -0.806759 33.230000
v -8.960594 -1.495409 33.230000
v -9.570847 1.390691 30.126013
v -9.570854 0.702044 30.126022
v -10.038376 3.981780 27.022034
v -10.038376 3.293132 27.022034
v 21.389450 -2.119981 38.949924
v 21.389450 -2.808630 38.949924
v 20.028702 -1.617604 35.845943
v 20.028702 -2.306252 35.845943
v 19.526382 -0.451412 32.741966
v 19.526382 -1.140061 32.741966
v 18.916138 1.746037 29.637970
v 18.916138 1.057391 29.637978
v 18.448608 4.337128 26.533989
v 18.448608 3.648480 26.533989
v -64.902626 -2.475328 39.169220
v -64.902611 -3.163977 39.169231
v -66.263374 -1.972952 36.065239
v -66.263374 -2.661600 36.065239
v -66.765686 -0.806759 32.961262
v -66.765686 -1.495409 32.961262
v -67.375938 1.390691 29.857273
v -67.375938 0.702044 29.857273
v -67.843460 3.981780 26.753292
v -67.843460 3.293132 26.753292
v -35.617165 -2.119981 38.839207
v -35.617165 -2.808630 38.839207
v -36.977913 -1.617603 35.735226
v -36.977913 -2.306252 35.735226
v -37.480225 -0.451413 32.631237
v -37.480225 -1.140061 32.631237
v -38.090477 1.746036 29.527260
v -38.090477 1.057391 29.527260
v -38.557999 4.337128 26.423271
v -38.557999 3.648479 26.423271
v 59.008621 2.246300 -5.821861
v 59.008636 1.557651 -5.821850
v 57.371597 2.748675 -8.916618
v 57.371597 2.060027 -8.916618
v 55.478958 4.134952 -11.624001
v 55.478958 3.446305 -11.624001
v 53.201279 6.001458 -14.879776
v 53.201279 5.312810 -14.879776
v 60.296936 2.246300 -5.869427
v 60.296936 1.557652 -5.869427
v 62.265274 2.748677 -9.487316
v 62.265274 2.060028 -9.487316
v 64.539902 3.914869 -12.587479
v 64.539902 3.226221 -12.587479
v 67.303986 6.112320 -14.931374
v 67.303986 5.423672 -14.931374
v -68.422981 -0.862343 -32.707420
v -68.422981 -1.550992 -32.707420
v -68.266022 1.263166 -28.535233
v -68.266029 0.574521 -28.535221
v -68.250305 4.198130 -25.260441
v -68.250305 3.509482 -25.260441
v -52.342987 3.091649 -24.177292
v -52.342991 2.403005 -24.177284
v -52.514496 1.314474 -19.885639
v -52.514496 0.625826 -19.885639
v 85.951309 -0.947302 44.683167
v 85.951309 -1.635951 44.683167
v 84.590546 -0.444926 41.579185
v 84.590546 -1.133574 41.579185
v 84.088242 0.721267 38.475197
v 84.088242 0.032619 38.475197
v 83.477997 2.918718 35.371231
v 83.477997 2.230070 35.371231
v 83.010468 5.509806 32.267239
v 83.010468 4.821158 32.267239
v 112.681442 -2.475328 39.477573
v 112.681442 -3.163977 39.477573
v 111.320709 -1.972952 36.373596
v 111.320709 -2.661600 36.373596
v 110.818375 -0.806759 33.269615
v 110.818375 -1.495409 33.269615
v 110.208130 1.390691 30.165636
v 110.208130 0.702044 30.165636
v 109.740601 3.981780 27.061647
v 109.740601 3.293132 27.061647
v 141.168457 -2.119980 38.989532
v 141.168457 -2.808630 38.989532
v 139.807678 -1.617603 35.885551
v 139.807678 -2.306252 35.885551
v 139.305344 -0.451412 32.781570
v 139.305344 -1.140059 32.781570
v 138.695129 1.746037 29.677595
v 138.695129 1.057391 29.677595
v 138.227615 4.337128 26.573606
v 138.227615 3.648480 26.573606
vn 0.5310 -0.0000 -0.8474
vn 0.6482 -0.0000 -0.7615
vn 0.6166 -0.0000 -0.7873
vn 0.7110 -0.0000 -0.7032
vn 0.7182 -0.0000 -0.6958
vn 0.7312 -0.0000 -0.6822
vn 0.7147 -0.0000 -0.6995
vn 0.7432 -0.0000 -0.6691
vn 0.6501 -0.0000 -0.7599
vn 0.6132 -0.0000 -0.7899
vn 0.7106 -0.0000 -0.7036
vn 0.7185 -0.0000 -0.6956
vn 0.7147 -0.0000 -0.6994
vn 0.6529 -0.0000 -0.7574
vn 0.6102 -0.0000 -0.7922
vn 0.7103 -0.0000 -0.7039
vn 0.7188 -0.0000 -0.6952
vn 0.7320 -0.0000 -0.6813
vn 0.7135 -0.0000 -0.7007
vn -0.6009 -0.0000 -0.7994
vn -0.6008 -0.0000 -0.7994
vn -0.5923 -0.0000 -0.8057
vn -0.5910 -0.0000 -0.8066
vn -0.5741 -0.0000 -0.8188
vn -0.5746 -0.0000 -0.8184
vn -0.5780 -0.0000 -0.8160
vn -0.5757 -0.0000 -0.8176
vn -0.5876 -0.0000 -0.8091
vn -0.6042 -0.0000 -0.7968
vn -0.5944 -0.0000 -0.8042
vn -0.5746 -0.0000 -0.8185
vn -0.5780 -0.0000 -0.8161
vn -0.5758 -0.0000 -0.8176
vn 0.9590 -0.0000 0.2834
vn 0.9330 -0.0000 0.3599
vn 0.9415 -0.0000 0.3369
vn 0.8631 -0.0000 0.5050
vn 0.8883 -0.0000 0.4593
vn 0.8229 -0.0000 0.5682
vn 0.8295 -0.0000 0.5585
vn 0.8180 -0.0000 0.5753
vn 0.8179 -0.0000 0.5753
vn -0.2072 -0.0000 -0.9783
vn -0.1276 -0.0000 -0.9918
vn -0.1518 -0.0000 -0.9884
vn 0.0332 -0.0000 -0.9994
vn -0.0189 -0.0000 -0.9998
vn 0.1081 -0.0000 -0.9941
vn 0.0964 -0.0000 -0.9953
vn 0.1164 -0.0000 -0.9932
vn 0.4159 -0.0000 0.9094
vn 0.2798 -0.0000 0.9601
vn 0.3187 -0.0000 0.9479
vn 0.1966 -0.0000 0.9805
vn 0.1864 -0.0000 0.9825
vn 0.1679 -0.0000 0.9858
vn 0.1913 -0.0000 0.9815
vn 0.1503 -0.0000 0.9886
vn 0.4160 -0.0000 0.9094
vn 0.2773 -0.0000 0.9608
vn 0.3227 -0.0000 0.9465
vn 0.1971 -0.0000 0.9804
vn 0.1861 -0.0000 0.9825
vn 0.1504 -0.0000 0.9886
vn 0.2737 -0.0000 0.9618
vn 0.3263 -0.0000 0.9453
vn 0.1975 -0.0000 0.9803
vn 0.1856 -0.0000 0.9826
vn 0.1668 -0.0000 0.9860
vn 0.1931 -0.0000 0.9812
vn 0.1502 -0.0000 0.9887
vn 0.9991 -0.0000 -0.0432
vn 0.9993 -0.0000 -0.0362
vn 0.9994 -0.0000 -0.0359
vn 0.9996 -0.0000 -0.0290
vn 0.9997 -0.0000 0.0262
vn 0.9988 -0.0000 -0.0496
vn 0.9991 -0.0000 -0.0413
vn 0.9930 -0.0000 -0.1183
vn -0.7640 -0.0000 0.6453
vn -0.8135 -0.0000 0.5815
vn -0.7991 -0.0000 0.6012
vn -0.8963 -0.0000 0.4434
vn -0.8720 -0.0000 0.4895
vn -0.9271 -0.0000 0.3749
vn -0.9226 -0.0000 0.3858
vn -0.9302 -0.0000 0.3671
vn 0.9311 -0.0000 0.3647
vn 0.8987 -0.0000 0.4386
vn 0.9091 -0.0000 0.4165
vn 0.8166 -0.0000 0.5772
vn 0.8456 -0.0000 0.5339
vn 0.7097 -0.0000 0.7045
vn 0.7531 -0.0000 0.6580
vn 0.6752 -0.0000 0.7376
vn -0.6534 -0.0000 -0.7570
vn -0.5368 -0.0000 -0.8437
vn -0.5708 -0.0000 -0.8211
vn -0.4627 -0.0000 -0.8865
vn -0.4534 -0.0000 -0.8913
vn -0.4366 -0.0000 -0.8997
vn -0.4579 -0.0000 -0.8890
vn -0.4204 -0.0000 -0.9073
vn -0.5346 -0.0000 -0.8451
vn -0.5742 -0.0000 -0.8187
vn -0.4631 -0.0000 -0.8863
vn -0.4531 -0.0000 -0.8914
vn -0.4365 -0.0000 -0.8997
vn -0.4205 -0.0000 -0.9073
vn -0.5315 -0.0000 -0.8471
vn -0.5773 -0.0000 -0.8165
vn -0.4634 -0.0000 -0.8861
vn -0.4527 -0.0000 -0.8917
vn -0.4355 -0.0000 -0.9002
vn -0.4594 -0.0000 -0.8882
vn -0.9472 -0.0000 0.3205
vn -0.9495 -0.0000 0.3139
vn -0.9496 -0.0000 0.3136
vn -0.9517 -0.0000 0.3070
vn -0.9672 -0.0000 0.2541
vn -0.9452 -0.0000 0.3265
vn -0.9478 -0.0000 0.3188
vn -0.9204 -0.0000 0.3909
vn 0.5533 -0.0000 -0.8330
vn 0.6187 -0.0000 -0.7856
vn 0.5993 -0.0000 -0.8005
vn 0.7368 -0.0000 -0.6761
vn 0.7006 -0.0000 -0.7136
vn 0.7854 -0.0000 -0.6190
vn 0.7781 -0.0000 -0.6282
vn 0.7907 -0.0000 -0.6122
vn -0.9959 -0.0000 -0.0901
vn -0.9854 -0.0000 -0.1701
vn -0.9893 -0.0000 -0.1460
vn -0.9453 -0.0000 -0.3262
vn -0.9610 -0.0000 -0.2765
vn -0.8782 -0.0000 -0.4783
vn -0.9069 -0.0000 -0.4214
vn -0.8544 -0.0000 -0.5197
vn -0.8559 -0.0000 0.5171
vn -0.9325 -0.0000 0.3611
vn -0.9111 -0.0000 0.4121
vn -0.9618 -0.0000 0.2738
vn -0.9662 -0.0000 0.2578
vn -0.9732 -0.0000 0.2298
vn -0.9641 -0.0000 0.2654
vn -0.9790 -0.0000 0.2040
vn -0.9535 -0.0000 -0.3012
vn -0.8971 -0.0000 -0.4418
vn -0.9201 -0.0000 -0.3918
vn -0.8597 -0.0000 -0.5108
vn -0.8534 -0.0000 -0.5212
vn -0.8433 -0.0000 -0.5375
vn -0.8574 -0.0000 -0.5147
vn -0.8342 -0.0000 -0.5515
vn -0.6379 -0.0000 0.7701
vn -0.6433 -0.0000 0.7657
vn -0.6435 -0.0000 0.7654
vn -0.6488 -0.0000 0.7610
vn -0.6898 -0.0000 0.7240
vn -0.6330 -0.0000 0.7742
vn -0.6393 -0.0000 0.7689
vn -0.5782 -0.0000 0.8159
vn -0.8949 -0.0000 0.4462
vn -0.9280 -0.0000 0.3726
vn -0.9186 -0.0000 0.3951
vn -0.9758 -0.0000 0.2187
vn -0.9631 -0.0000 0.2693
vn -0.9985 -0.0000 0.0541
vn -0.9931 -0.0000 0.1174
vn -1.0000 -0.0000 0.0063
vn 0.9094 -0.0000 -0.4159
vn 0.9601 -0.0000 -0.2798
vn 0.9478 -0.0000 -0.3187
vn 0.9805 -0.0000 -0.1966
vn 0.9825 -0.0000 -0.1864
vn 0.9858 -0.0000 -0.1679
vn 0.9815 -0.0000 -0.1914
vn 0.9886 -0.0000 -0.1503
vn 0.9608 -0.0000 -0.2773
vn 0.9465 -0.0000 -0.3227
vn 0.9804 -0.0000 -0.1971
vn 0.9825 -0.0000 -0.1861
vn 0.9618 -0.0000 -0.2738
vn 0.9453 -0.0000 -0.3263
vn 0.9803 -0.0000 -0.1975
vn 0.9826 -0.0000 -0.1856
vn 0.9860 -0.0000 -0.1667
vn 0.9812 -0.0000 -0.1930
vn -0.0432 -0.0000 -0.9991
vn -0.0362 -0.0000 -0.9993
vn -0.0359 -0.0000 -0.9994
vn -0.0290 -0.0000 -0.9996
vn 0.0262 -0.0000 -0.9997
vn -0.0496 -0.0000 -0.9988
vn -0.0413 -0.0000 -0.9991
vn -0.1183 -0.0000 -0.9930
vn 0.6453 -0.0000 0.7640
vn 0.5815 -0.0000 0.8135
vn 0.6013 -0.0000 0.7991
vn 0.4434 -0.0000 0.8963
vn 0.4895 -0.0000 0.8720
vn 0.3750 -0.0000 0.9270
vn 0.3858 -0.0000 0.9226
vn 0.3670 -0.0000 0.9302
vn 0.3647 -0.0000 -0.9311
vn 0.4386 -0.0000 -0.8987
vn 0.4165 -0.0000 -0.9091
vn 0.5772 -0.0000 -0.8166
vn 0.5339 -0.0000 -0.8456
vn 0.7045 -0.0000 -0.7097
vn 0.6579 -0.0000 -0.7531
vn 0.7376 -0.0000 -0.6752
vn -0.9536 -0.0000 -0.3012
vn -0.8998 -0.0000 -0.4362
vn -0.9169 -0.0000 -0.3992
vn -0.8592 -0.0000 -0.5116
vn -0.8539 -0.0000 -0.5205
vn -0.8439 -0.0000 -0.5365
vn -0.8565 -0.0000 -0.5162
vn -0.9618 -0.0000 0.2739
vn -0.9535 -0.0000 -0.3013
vn -0.9200 -0.0000 -0.3918
vn -0.8596 -0.0000 -0.5109
vn -0.8534 -0.0000 -0.5213
vn -0.8432 -0.0000 -0.5376
vn -0.8573 -0.0000 -0.5147
vn -0.8342 -0.0000 -0.5514
vn -0.6433 -0.0000 0.7656
vn 0.0336 -0.0000 -0.9994
vn 0.1141 -0.0000 -0.9935
vn 0.0898 -0.0000 -0.9960
vn 0.2721 -0.0000 -0.9623
vn 0.2216 -0.0000 -0.9751
vn 0.3434 -0.0000 -0.9392
vn 0.3323 -0.0000 -0.9432
vn 0.3515 -0.0000 -0.9362
vn -0.9205 -0.0000 0.3907
vn -0.9674 -0.0000 0.2532
vn -0.9563 -0.0000 0.2925
vn -0.9855 -0.0000 0.1695
vn -0.9872 -0.0000 0.1593
vn -0.9901 -0.0000 0.1406
vn -0.9864 -0.0000 0.1642
vn -0.9924 -0.0000 0.1230
vn -0.6240 -0.0000 -0.7815
vn -0.5589 -0.0000 -0.8292
vn -0.5790 -0.0000 -0.8153
vn -0.4186 -0.0000 -0.9082
vn -0.4653 -0.0000 -0.8852
vn -0.3492 -0.0000 -0.9370
vn -0.3602 -0.0000 -0.9329
vn -0.3414 -0.0000 -0.9399
vn -0.9169 -0.0000 -0.3991
vn -0.8343 -0.0000 -0.5514
vn 0.0335 -0.0000 -0.9994
vn 0.2722 -0.0000 -0.9623
vn 0.2217 -0.0000 -0.9751
vn 0.3686 -0.0000 0.9296
vn 0.2266 -0.0000 0.9740
vn 0.2731 -0.0000 0.9620
vn 0.1461 -0.0000 0.9893
vn 0.1351 -0.0000 0.9908
vn 0.1163 -0.0000 0.9932
vn 0.1411 -0.0000 0.9900
vn 0.0991 -0.0000 0.9951
vn -0.4865 -0.0000 0.8737
vn -0.5329 -0.0000 0.8462
vn -0.5190 -0.0000 0.8548
vn -0.6259 -0.0000 0.7799
vn -0.5959 -0.0000 0.8030
vn -0.6692 -0.0000 0.7431
vn -0.6622 -0.0000 0.7493
vn -0.6741 -0.0000 0.7386
vn 0.6388 -0.0000 0.7694
vn 0.5126 -0.0000 0.8586
vn 0.5576 -0.0000 0.8301
vn 0.6007 -0.0000 0.7994
vn 0.5120 -0.0000 0.8590
vn 0.7682 -0.0000 0.6403
vn 0.7237 -0.0000 0.6901
vn 0.8011 -0.0000 0.5985
vn 0.5072 -0.0000 0.8618
vn 0.4357 -0.0000 0.9001
vn 0.4606 -0.0000 0.8876
vn 0.2851 -0.0000 0.9585
vn 0.3393 -0.0000 0.9407
vn 0.2129 -0.0000 0.9771
vn 0.2254 -0.0000 0.9743
vn 0.2047 -0.0000 0.9788
vn 0.4201 -0.0000 0.9075
vn 0.2842 -0.0000 0.9588
vn 0.3231 -0.0000 0.9464
vn 0.2011 -0.0000 0.9796
vn 0.1909 -0.0000 0.9816
vn 0.1724 -0.0000 0.9850
vn 0.1959 -0.0000 0.9806
vn 0.1549 -0.0000 0.9879
vn 0.2817 -0.0000 0.9595
vn 0.3271 -0.0000 0.9450
vn 0.2016 -0.0000 0.9795
vn 0.1906 -0.0000 0.9817
vn 0.2782 -0.0000 0.9605
vn 0.3306 -0.0000 0.9438
vn 0.2020 -0.0000 0.9794
vn 0.1901 -0.0000 0.9818
vn 0.1712 -0.0000 0.9852
vn 0.9989 -0.0000 -0.0478
vn 0.9992 -0.0000 -0.0408
vn 0.9992 -0.0000 -0.0405
vn 0.9994 -0.0000 -0.0336
vn 0.9998 -0.0000 0.0216
vn 0.9985 -0.0000 -0.0542
vn 0.9989 -0.0000 -0.0459
vn 0.9924 -0.0000 -0.1228
vn -0.7610 -0.0000 0.6487
vn -0.7610 -0.0000 0.6488
vn -0.8108 -0.0000 0.5853
vn -0.7963 -0.0000 0.6049
vn -0.8943 -0.0000 0.4475
vn -0.8698 -0.0000 0.4935
vn -0.9253 -0.0000 0.3792
vn -0.9208 -0.0000 0.3901
vn -0.9285 -0.0000 0.3713
vn 0.9585 -0.0000 -0.2851
vn 0.9897 -0.0000 -0.1432
vn 0.9830 -0.0000 -0.1835
vn 0.9983 -0.0000 -0.0580
vn 0.9989 -0.0000 -0.0476
vn 0.9992 -0.0000 -0.0388
vn 0.9984 -0.0000 -0.0572
vn 0.9997 -0.0000 -0.0255
vn -0.9479 -0.0000 0.3184
vn -0.9841 -0.0000 0.1777
vn -0.9760 -0.0000 0.2177
vn -0.9957 -0.0000 0.0928
vn -0.9966 -0.0000 0.0825
vn -0.9973 -0.0000 0.0737
vn -0.9958 -0.0000 0.0921
vn -0.9982 -0.0000 0.0604
vn 0.9471 -0.0000 0.3209
vn 0.8906 -0.0000 0.4547
vn 0.9084 -0.0000 0.4180
vn 0.8485 -0.0000 0.5293
vn 0.8429 -0.0000 0.5380
vn 0.8347 -0.0000 0.5506
vn 0.8469 -0.0000 0.5318
vn 0.8259 -0.0000 0.5638
vn 0.8085 -0.0000 0.5885
vn 0.7147 -0.0000 0.6995
vn 0.7426 -0.0000 0.6697
vn 0.6522 -0.0000 0.7580
vn 0.6443 -0.0000 0.7648
vn 0.6313 -0.0000 0.7756
vn 0.6484 -0.0000 0.7613
vn 0.6179 -0.0000 0.7863
vn -0.6562 -0.0000 0.7546
vn -0.7586 -0.0000 0.6515
vn -0.7314 -0.0000 0.6819
vn -0.8116 -0.0000 0.5842
vn -0.8176 -0.0000 0.5758
vn -0.8283 -0.0000 0.5603
vn -0.8147 -0.0000 0.5799
vn -0.8382 -0.0000 0.5454
vn -0.7603 -0.0000 0.6495
vn -0.7286 -0.0000 0.6850
vn -0.8113 -0.0000 0.5847
vn -0.8178 -0.0000 0.5755
vn -0.8381 -0.0000 0.5455
vn -0.6563 -0.0000 0.7545
vn -0.7627 -0.0000 0.6467
vn -0.7259 -0.0000 0.6878
vn -0.8111 -0.0000 0.5850
vn -0.8181 -0.0000 0.5751
vn -0.8290 -0.0000 0.5592
vn -0.8138 -0.0000 0.5812
vn 0.4522 -0.0000 0.8919
vn 0.4456 -0.0000 0.8952
vn 0.4461 -0.0000 0.8950
vn 0.4395 -0.0000 0.8982
vn 0.3892 -0.0000 0.9211
vn 0.4625 -0.0000 0.8866
vn 0.4454 -0.0000 0.8953
vn 0.5180 -0.0000 0.8554
vn -0.9033 -0.0000 -0.4291
vn -0.8657 -0.0000 -0.5005
vn -0.8777 -0.0000 -0.4792
vn -0.7741 -0.0000 -0.6330
vn -0.8061 -0.0000 -0.5918
vn -0.7246 -0.0000 -0.6892
vn -0.7327 -0.0000 -0.6806
vn -0.7186 -0.0000 -0.6954
vn 0.0527 -0.0000 0.9986
vn -0.0280 -0.0000 0.9996
vn -0.0036 -0.0000 1.0000
vn -0.1880 -0.0000 0.9822
vn -0.1366 -0.0000 0.9906
vn -0.3483 -0.0000 0.9374
vn -0.2881 -0.0000 0.9576
vn -0.3926 -0.0000 0.9197
vn -0.0594 -0.0000 0.9982
vn -0.0173 -0.0000 0.9999
vn -0.0089 -0.0000 1.0000
vn 0.0160 -0.0000 0.9999
vn 0.0187 -0.0000 0.9998
vn 0.0020 -0.0000 1.0000
vn -0.0188 -0.0000 0.9998
vn -0.0063 -0.0000 1.0000
vn 0.0155 -0.0000 0.9999
vn 0.0195 -0.0000 0.9998
vn 0.8649 -0.0000 0.5020
vn 0.8591 -0.0000 0.5118
vn 0.8576 -0.0000 0.5144
vn 0.8662 0.0001 0.4998
vn 0.8508 -0.0000 0.5255
vn 0.8519 0.0001 0.5237
vn 0.3448 -0.0000 0.9387
vn 0.3538 -0.0000 0.9353
vn 0.2982 -0.0000 0.9545
vn 0.3202 -0.0000 0.9473
vn 0.2827 -0.0000 0.9592
vn 0.3636 -0.0000 0.9315
vn -0.3206 -0.0000 -0.9472
vn -0.1800 -0.0000 -0.9837
vn -0.2200 -0.0000 -0.9755
vn -0.0952 -0.0000 -0.9955
vn -0.0848 -0.0000 -0.9964
vn -0.0727 -0.0000 -0.9974
vn -0.0897 -0.0000 -0.9960
vn -0.0562 -0.0000 -0.9984
vn -0.7982 -0.0000 -0.6024
vn -0.7025 -0.0000 -0.7117
vn -0.7309 -0.0000 -0.6825
vn -0.6390 -0.0000 -0.7692
vn -0.6310 -0.0000 -0.7758
vn -0.6232 -0.0000 -0.7820
vn -0.6378 -0.0000 -0.7702
vn -0.6122 -0.0000 -0.7907
vn -0.0951 -0.0000 -0.9955
vn -0.0898 -0.0000 -0.9960
vn -0.6232 -0.0000 -0.7821
vn -0.6123 -0.0000 -0.7907
vn -0.2199 -0.0000 -0.9755
vn 0.2404 -0.0000 0.9707
vn 0.2243 -0.0000 0.9745
vn 0.2195 -0.0000 0.9756
vn 0.1581 -0.0000 0.9874
vn 0.1621 -0.0000 0.9868
vn 0.1053 -0.0000 0.9944
vn 0.0881 -0.0000 0.9961
vn 0.0063 -0.0000 -1.0000
vn 0.0686 -0.0000 -0.9976
vn 0.0357 -0.0000 -0.9994
vn 0.1481 -0.0000 -0.9890
vn 0.1165 -0.0000 -0.9932
vn 0.2367 -0.0000 -0.9716
vn 0.1821 -0.0000 -0.9833
vn 0.2558 -0.0000 -0.9667
vn -0.6803 -0.0000 -0.7329
vn -0.5669 -0.0000 -0.8238
vn -0.6001 -0.0000 -0.7999
vn -0.4944 -0.0000 -0.8692
vn -0.4853 -0.0000 -0.8743
vn -0.4747 -0.0000 -0.8802
vn -0.4896 -0.0000 -0.8719
vn -0.4600 -0.0000 -0.8879
vn -0.6433 -0.0000 -0.7656
vn -0.5256 -0.0000 -0.8507
vn -0.5599 -0.0000 -0.8286
vn -0.4509 -0.0000 -0.8926
vn -0.4416 -0.0000 -0.8972
vn -0.4326 -0.0000 -0.9016
vn -0.4495 -0.0000 -0.8933
vn -0.4199 -0.0000 -0.9076
vn 0.0499 -0.0000 0.9988
vn -0.0954 -0.0000 0.9954
vn -0.0547 -0.0000 0.9985
vn -0.1801 -0.0000 0.9836
vn -0.1903 -0.0000 0.9817
vn -0.2010 -0.0000 0.9796
vn -0.1796 -0.0000 0.9837
vn -0.2139 -0.0000 0.9769
vn -0.2008 -0.0000 0.9796
vn -0.3406 -0.0000 0.9402
vn -0.3020 -0.0000 0.9533
vn -0.4198 -0.0000 0.9076
vn -0.4292 -0.0000 0.9032
vn -0.4372 -0.0000 0.8994
vn -0.4205 -0.0000 0.9073
vn -0.4491 -0.0000 0.8935
vn -0.6812 -0.0000 0.7321
vn -0.7801 -0.0000 0.6257
vn -0.7539 -0.0000 0.6570
vn -0.8308 -0.0000 0.5566
vn -0.8365 -0.0000 0.5480
vn -0.8413 -0.0000 0.5406
vn -0.8312 -0.0000 0.5560
vn -0.8484 -0.0000 0.5293
vn -0.9151 -0.0000 0.4032
vn -0.9639 -0.0000 0.2663
vn -0.9522 -0.0000 0.3054
vn -0.9831 -0.0000 0.1828
vn -0.9850 -0.0000 0.1726
vn -0.9865 -0.0000 0.1639
vn -0.9833 -0.0000 0.1821
vn -0.9886 -0.0000 0.1508
vn -0.9831 -0.0000 0.1829
vn -0.9886 -0.0000 0.1507
vn -0.9190 -0.0000 0.3942
vn -0.9665 -0.0000 0.2568
vn -0.9552 -0.0000 0.2960
vn -0.9849 -0.0000 0.1732
vn -0.9866 -0.0000 0.1629
vn -0.9880 -0.0000 0.1542
vn -0.9850 -0.0000 0.1724
vn -0.9900 -0.0000 0.1410
vn -0.3057 -0.0000 0.9521
vn -0.4405 -0.0000 0.8978
vn -0.4035 -0.0000 0.9150
vn -0.5157 -0.0000 0.8568
vn -0.5246 -0.0000 0.8514
vn -0.5321 -0.0000 0.8467
vn -0.5164 -0.0000 0.8564
vn -0.5433 -0.0000 0.8395
vn -0.0134 -0.0000 0.9999
vn -0.0136 -0.0000 0.9999
vn 0.0171 -0.0000 0.9999
vn 0.0174 -0.0000 0.9998
vn -0.0775 -0.0000 0.9970
vn -0.0299 -0.0000 0.9996
vn -0.0123 -0.0000 0.9999
vn 0.0243 -0.0000 0.9997
vn 0.0265 -0.0000 0.9996
vn 0.0180 -0.0000 0.9998
vn -0.0148 -0.0000 0.9999
vn -0.0121 -0.0000 0.9999
vn 0.0167 -0.0000 0.9999
vn 0.0178 -0.0000 0.9998
vn -0.0145 -0.0000 0.9999
vn -0.0124 -0.0000 0.9999
vn 0.0168 -0.0000 0.9999
vn 0.0177 -0.0000 0.9998
vn -0.9993 -0.0000 0.0376
vn -0.9999 -0.0000 0.0154
vn -0.9996 -0.0000 0.0280
vn -1.0000 -0.0000 0.0048
vn -1.0000 -0.0001 0.0048
vn 0.9094 -0.0000 -0.4160
vn 0.7376 -0.0000 -0.6753
vn 0.9159 -0.0000 -0.4015
vn 0.9644 -0.0000 -0.2646
vn 0.9528 -0.0000 -0.3037
vn 0.9835 -0.0000 -0.1811
vn 0.9853 -0.0000 -0.1708
vn 0.9868 -0.0000 -0.1621
vn 0.9836 -0.0000 -0.1803
vn 0.9888 -0.0000 -0.1489
vn 0.7275 -0.0000 0.6861
vn 0.8010 -0.0000 0.5986
vn 0.7841 -0.0000 0.6206
vn 0.8651 -0.0000 0.5015
vn 0.8589 -0.0000 0.5122
vn 0.9327 -0.0000 0.3608
vn 0.9011 -0.0000 0.4336
vn 0.9535 -0.0000 0.3012
vn 0.8840 -0.0000 -0.4676
vn 0.8482 -0.0000 -0.5296
vn 0.8594 -0.0000 -0.5114
vn 0.8195 -0.0000 -0.5731
vn 0.8194 -0.0000 -0.5732
vn 0.8784 -0.0000 0.4779
vn 0.8397 -0.0000 0.5431
vn 0.8493 -0.0000 0.5279
vn 0.7113 -0.0000 0.7028
vn 0.7544 -0.0000 0.6564
vn 0.6468 -0.0000 0.7627
vn -0.9992 -0.0000 -0.0399
vt 0.002997 1.999501
vt 0.002997 1.000504
vt 1.501499 1.999499
vt 1.501498 1.000503
vt 3.000000 1.999498
vt 3.000000 1.000502
vt 4.498502 1.999497
vt 4.498502 1.000501
vt 5.997003 1.999496
vt 5.997003 1.000499
s 1
usemtl FLAGLINE.011
f 1/1/1 2/2/1 3/3/2
f 4/4/3 3/3/2 2/2/1
f 3/3/2 4/4/3 5/5/4
f 6/6/5 5/5/4 4/4/3
f 5/5/4 6/6/5 7/7/6
f 8/8/7 7/7/6 6/6/5
f 7/7/6 8/8/7 9/9/8
f 10/10/8 9/9/8 8/8/7
f 11/1/1 12/2/1 13/3/9
f 14/4/10 13/3/9 12/2/1
f 13/3/9 14/4/10 15/5/11
f 16/6/12 15/5/11 14/4/10
f 15/5/11 16/6/12 17/7/6
f 18/8/13 17/7/6 16/6/12
f 17/7/6 18/8/13 19/9/8
f 20/10/8 19/9/8 18/8/13
f 21/1/1 22/2/1 23/3/14
f 24/4/15 23/3/14 22/2/1
f 23/3/14 24/4/15 25/5/16
f 26/6/17 25/5/16 24/4/15
f 25/5/16 26/6/17 27/7/18
f 28/8/19 27/7/18 26/6/17
f 27/7/18 28/8/19 29/9/8
f 30/10/8 29/9/8 28/8/19
f 31/1/20 32/2/21 33/3/22
f 34/4/23 33/3/22 32/2/21
f 33/3/22 34/4/23 35/5/24
f 36/6/25 35/5/24 34/4/23
f 35/5/24 36/6/25 37/7/26
f 38/8/27 37/7/26 36/6/25
f 37/7/26 38/8/27 39/9/28
f 40/10/28 39/9/28 38/8/27
f 41/1/29 42/2/29 43/3/30
f 44/4/22 43/3/30 42/2/29
f 43/3/30 44/4/22 45/5/24
f 46/6/31 45/5/24 44/4/22
f 45/5/24 46/6/31 47/7/32
f 48/8/33 47/7/32 46/6/31
f 47/7/32 48/8/33 49/9/28
f 50/10/28 49/9/28 48/8/33
f 51/1/34 52/2/34 53/3/35
f 54/4/36 53/3/35 52/2/34
f 53/3/35 54/4/36 55/5/37
f 56/6/38 55/5/37 54/4/36
f 55/5/37 56/6/38 57/7/39
f 58/8/40 57/7/39 56/6/38
f 57/7/39 58/8/40 59/9/41
f 60/10/42 59/9/41 58/8/40
f 61/1/43 62/2/43 63/3/44
f 64/4/45 63/3/44 62/2/43
f 63/3/44 64/4/45 65/5/46
f 66/6/47 65/5/46 64/4/45
f 65/5/46 66/6/47 67/7/48
f 68/8/49 67/7/48 66/6/47
f 67/7/48 68/8/49 69/9/50
f 70/10/50 69/9/50 68/8/49
f 71/1/51 72/2/51 73/3/52
f 74/4/53 73/3/52 72/2/51
f 73/3/52 74/4/53 75/5/54
f 76/6/55 75/5/54 74/4/53
f 75/5/54 76/6/55 77/7/56
f 78/8/57 77/7/56 76/6/55
f 77/7/56 78/8/57 79/9/58
f 80/10/58 79/9/58 78/8/57
f 81/1/59 82/2/59 83/3/60
f 84/4/61 83/3/60 82/2/59
f 83/3/60 84/4/61 85/5/62
f 86/6/63 85/5/62 84/4/61
f 85/5/62 86/6/63 87/7/56
f 88/8/57 87/7/56 86/6/63
f 87/7/56 88/8/57 89/9/64
f 90/10/64 89/9/64 88/8/57
f 91/1/59 92/2/59 93/3/65
f 94/4/66 93/3/65 92/2/59
f 93/3/65 94/4/66 95/5/67
f 96/6/68 95/5/67 94/4/66
f 95/5/67 96/6/68 97/7/69
f 98/8/70 97/7/69 96/6/68
f 97/7/69 98/8/70 99/9/71
f 100/10/71 99/9/71 98/8/70
f 101/1/72 102/2/72 103/3/73
f 104/4/74 103/3/73 102/2/72
f 103/3/73 104/4/74 105/5/75
f 106/6/75 105/5/75 104/4/74
f 107/1/76 108/2/76 109/3/77
f 110/4/78 109/3/77 108/2/76
f 109/3/77 110/4/78 111/5/79
f 112/6/79 111/5/79 110/4/78
f 113/1/80 114/2/80 115/3/81
f 116/4/82 115/3/81 114/2/80
f 115/3/81 116/4/82 117/5/83
f 118/6/84 117/5/83 116/4/82
f 117/5/83 118/6/84 119/7/85
f 120/8/86 119/7/85 118/6/84
f 119/7/85 120/8/86 121/9/87
f 122/10/87 121/9/87 120/8/86
f 123/1/88 124/2/88 125/3/89
f 126/4/90 125/3/89 124/2/88
f 125/3/89 126/4/90 127/5/91
f 128/6/92 127/5/91 126/4/90
f 127/5/91 128/6/92 129/7/93
f 130/8/94 129/7/93 128/6/92
f 129/7/93 130/8/94 131/9/95
f 132/10/95 131/9/95 130/8/94
f 133/1/96 134/2/96 135/3/97
f 136/4/98 135/3/97 134/2/96
f 135/3/97 136/4/98 137/5/99
f 138/6/100 137/5/99 136/4/98
f 137/5/99 138/6/100 139/7/101
f 140/8/102 139/7/101 138/6/100
f 139/7/101 140/8/102 141/9/103
f 142/10/103 141/9/103 140/8/102
f 143/1/96 144/2/96 145/3/104
f 146/4/105 145/3/104 144/2/96
f 145/3/104 146/4/105 147/5/106
f 148/6/107 147/5/106 146/4/105
f 147/5/106 148/6/107 149/7/108
f 150/8/102 149/7/108 148/6/107
f 149/7/108 150/8/102 151/9/109
f 152/10/109 151/9/109 150/8/102
f 153/1/96 154/2/96 155/3/110
f 156/4/111 155/3/110 154/2/96
f 155/3/110 156/4/111 157/5/112
f 158/6/113 157/5/112 156/4/111
f 157/5/112 158/6/113 159/7/114
f 160/8/115 159/7/114 158/6/113
f 159/7/114 160/8/115 161/9/103
f 162/10/103 161/9/103 160/8/115
f 163/1/116 164/2/116 165/3/117
f 166/4/118 165/3/117 164/2/116
f 165/3/117 166/4/118 167/5/119
f 168/6/119 167/5/119 166/4/118
f 169/1/120 170/2/120 171/3/121
f 172/4/122 171/3/121 170/2/120
f 171/3/121 172/4/122 173/5/123
f 174/6/123 173/5/123 172/4/122
f 175/1/124 176/2/124 177/3/125
f 178/4/126 177/3/125 176/2/124
f 177/3/125 178/4/126 179/5/127
f 180/6/128 179/5/127 178/4/126
f 179/5/127 180/6/128 181/7/129
f 182/8/130 181/7/129 180/6/128
f 181/7/129 182/8/130 183/9/131
f 184/10/131 183/9/131 182/8/130
f 185/1/132 186/2/132 187/3/133
f 188/4/134 187/3/133 186/2/132
f 187/3/133 188/4/134 189/5/135
f 190/6/136 189/5/135 188/4/134
f 189/5/135 190/6/136 191/7/137
f 192/8/138 191/7/137 190/6/136
f 191/7/137 192/8/138 193/9/139
f 194/10/139 193/9/139 192/8/138
f 195/1/140 196/2/140 197/3/141
f 198/4/142 197/3/141 196/2/140
f 197/3/141 198/4/142 199/5/143
f 200/6/144 199/5/143 198/4/142
f 199/5/143 200/6/144 201/7/145
f 202/8/146 201/7/145 200/6/144
f 201/7/145 202/8/146 203/9/147
f 204/10/147 203/9/147 202/8/146
f 205/1/148 206/2/148 207/3/149
f 208/4/150 207/3/149 206/2/148
f 207/3/149 208/4/150 209/5/151
f 210/6/152 209/5/151 208/4/150
f 209/5/151 210/6/152 211/7/153
f 212/8/154 211/7/153 210/6/152
f 211/7/153 212/8/154 203/9/155
f 204/10/155 203/9/155 212/8/154
f 213/1/156 214/2/156 215/3/157
f 216/4/158 215/3/157 214/2/156
f 215/3/157 216/4/158 217/5/159
f 218/6/159 217/5/159 216/4/158
f 219/1/160 220/2/160 221/3/161
f 222/4/162 221/3/161 220/2/160
f 221/3/161 222/4/162 223/5/163
f 224/6/163 223/5/163 222/4/162
f 225/1/164 226/2/164 227/3/165
f 228/4/166 227/3/165 226/2/164
f 227/3/165 228/4/166 229/5/167
f 230/6/168 229/5/167 228/4/166
f 229/5/167 230/6/168 231/7/169
f 232/8/170 231/7/169 230/6/168
f 231/7/169 232/8/170 233/9/171
f 234/10/171 233/9/171 232/8/170
f 235/1/172 236/2/172 237/3/173
f 238/4/174 237/3/173 236/2/172
f 237/3/173 238/4/174 239/5/175
f 240/6/176 239/5/175 238/4/174
f 239/5/175 240/6/176 241/7/177
f 242/8/178 241/7/177 240/6/176
f 241/7/177 242/8/178 243/9/179
f 244/10/179 243/9/179 242/8/178
f 245/1/172 246/2/172 247/3/180
f 248/4/181 247/3/180 246/2/172
f 247/3/180 248/4/181 249/5/182
f 250/6/183 249/5/182 248/4/181
f 249/5/182 250/6/183 251/7/177
f 252/8/178 251/7/177 250/6/183
f 251/7/177 252/8/178 253/9/179
f 254/10/179 253/9/179 252/8/178
f 255/1/172 256/2/172 257/3/184
f 258/4/185 257/3/184 256/2/172
f 257/3/184 258/4/185 259/5/186
f 260/6/187 259/5/186 258/4/185
f 259/5/186 260/6/187 261/7/188
f 262/8/189 261/7/188 260/6/187
f 261/7/188 262/8/189 263/9/179
f 264/10/179 263/9/179 262/8/189
f 265/1/190 266/2/190 267/3/191
f 268/4/192 267/3/191 266/2/190
f 267/3/191 268/4/192 269/5/193
f 270/6/193 269/5/193 268/4/192
f 271/1/194 272/2/194 273/3/195
f 274/4/196 273/3/195 272/2/194
f 273/3/195 274/4/196 275/5/197
f 276/6/197 275/5/197 274/4/196
f 277/1/198 278/2/198 279/3/199
f 280/4/200 279/3/199 278/2/198
f 279/3/199 280/4/200 281/5/201
f 282/6/202 281/5/201 280/4/200
f 281/5/201 282/6/202 283/7/203
f 284/8/204 283/7/203 282/6/202
f 283/7/203 284/8/204 285/9/205
f 286/10/205 285/9/205 284/8/204
f 287/1/206 288/2/206 289/3/207
f 290/4/208 289/3/207 288/2/206
f 289/3/207 290/4/208 291/5/209
f 292/6/210 291/5/209 290/4/208
f 291/5/209 292/6/210 293/7/211
f 294/8/212 293/7/211 292/6/210
f 293/7/211 294/8/212 295/9/213
f 296/10/213 295/9/213 294/8/212
f 297/1/214 298/2/214 299/3/215
f 300/4/216 299/3/215 298/2/214
f 299/3/215 300/4/216 301/5/217
f 302/6/218 301/5/217 300/4/216
f 301/5/217 302/6/218 303/7/219
f 304/8/220 303/7/219 302/6/218
f 303/7/219 304/8/220 305/9/155
f 306/10/155 305/9/155 304/8/220
f 307/1/140 308/2/140 309/3/141
f 310/4/142 309/3/141 308/2/140
f 309/3/141 310/4/142 311/5/221
f 312/6/144 311/5/221 310/4/142
f 311/5/221 312/6/144 313/7/145
f 314/8/146 313/7/145 312/6/144
f 313/7/145 314/8/146 315/9/147
f 316/10/147 315/9/147 314/8/146
f 317/1/222 318/2/222 319/3/149
f 320/4/223 319/3/149 318/2/222
f 319/3/149 320/4/223 321/5/224
f 322/6/225 321/5/224 320/4/223
f 321/5/224 322/6/225 323/7/226
f 324/8/227 323/7/226 322/6/225
f 323/7/226 324/8/227 315/9/228
f 316/10/228 315/9/228 324/8/227
f 325/1/156 326/2/156 327/3/229
f 328/4/158 327/3/229 326/2/156
f 327/3/229 328/4/158 329/5/159
f 330/6/159 329/5/159 328/4/158
f 331/1/230 332/2/230 333/3/231
f 334/4/232 333/3/231 332/2/230
f 333/3/231 334/4/232 335/5/233
f 336/6/234 335/5/233 334/4/232
f 335/5/233 336/6/234 337/7/235
f 338/8/236 337/7/235 336/6/234
f 337/7/235 338/8/236 339/9/237
f 340/10/237 339/9/237 338/8/236
f 341/1/164 342/2/164 343/3/165
f 344/4/166 343/3/165 342/2/164
f 343/3/165 344/4/166 345/5/167
f 346/6/168 345/5/167 344/4/166
f 345/5/167 346/6/168 347/7/169
f 348/8/170 347/7/169 346/6/168
f 347/7/169 348/8/170 349/9/171
f 350/10/171 349/9/171 348/8/170
f 351/1/238 352/2/238 353/3/239
f 354/4/240 353/3/239 352/2/238
f 353/3/239 354/4/240 355/5/241
f 356/6/242 355/5/241 354/4/240
f 355/5/241 356/6/242 357/7/243
f 358/8/244 357/7/243 356/6/242
f 357/7/243 358/8/244 367/9/245
f 368/10/245 367/9/245 358/8/244
f 359/1/246 360/2/246 361/3/247
f 362/4/248 361/3/247 360/2/246
f 361/3/247 362/4/248 363/5/249
f 364/6/250 363/5/249 362/4/248
f 363/5/249 364/6/250 365/7/251
f 366/8/252 365/7/251 364/6/250
f 365/7/251 366/8/252 367/9/253
f 368/10/253 367/9/253 366/8/252
f 369/1/148 370/2/148 371/3/215
f 372/4/254 371/3/215 370/2/148
f 371/3/215 372/4/254 373/5/217
f 374/6/218 373/5/217 372/4/254
f 373/5/217 374/6/218 375/7/219
f 376/8/220 375/7/219 374/6/218
f 375/7/219 376/8/220 377/9/228
f 378/10/255 377/9/228 376/8/220
f 379/1/256 380/2/256 381/3/231
f 382/4/232 381/3/231 380/2/256
f 381/3/231 382/4/232 383/5/257
f 384/6/258 383/5/257 382/4/232
f 383/5/257 384/6/258 385/7/235
f 386/8/236 385/7/235 384/6/258
f 385/7/235 386/8/236 377/9/237
f 378/10/237 377/9/237 386/8/236
f 387/1/259 388/2/259 389/3/260
f 390/4/261 389/3/260 388/2/259
f 389/3/260 390/4/261 391/5/262
f 392/6/263 391/5/262 390/4/261
f 391/5/262 392/6/263 393/7/264
f 394/8/265 393/7/264 392/6/263
f 393/7/264 394/8/265 403/9/266
f 404/10/266 403/9/266 394/8/265
f 395/1/267 396/2/267 397/3/268
f 398/4/269 397/3/268 396/2/267
f 397/3/268 398/4/269 399/5/270
f 400/6/271 399/5/270 398/4/269
f 399/5/270 400/6/271 401/7/272
f 402/8/273 401/7/272 400/6/271
f 401/7/272 402/8/273 403/9/274
f 404/10/274 403/9/274 402/8/273
f 405/1/275 406/2/275 407/3/276
f 408/4/277 407/3/276 406/2/275
f 407/3/276 408/4/277 409/5/278
f 410/6/279 409/5/278 408/4/277
f 409/5/278 410/6/279 411/7/280
f 412/8/281 411/7/280 410/6/279
f 411/7/280 412/8/281 413/9/282
f 414/10/282 413/9/282 412/8/281
f 415/1/283 416/2/283 417/3/284
f 418/4/285 417/3/284 416/2/283
f 417/3/284 418/4/285 419/5/286
f 420/6/287 419/5/286 418/4/285
f 419/5/286 420/6/287 421/7/288
f 422/8/289 421/7/288 420/6/287
f 421/7/288 422/8/289 413/9/290
f 414/10/290 413/9/290 422/8/289
f 423/1/291 424/2/291 425/3/292
f 426/4/293 425/3/292 424/2/291
f 425/3/292 426/4/293 427/5/294
f 428/6/295 427/5/294 426/4/293
f 427/5/294 428/6/295 429/7/296
f 430/8/297 429/7/296 428/6/295
f 429/7/296 430/8/297 431/9/298
f 432/10/298 431/9/298 430/8/297
f 433/1/291 434/2/291 435/3/299
f 436/4/300 435/3/299 434/2/291
f 435/3/299 436/4/300 437/5/301
f 438/6/302 437/5/301 436/4/300
f 437/5/301 438/6/302 439/7/296
f 440/8/297 439/7/296 438/6/302
f 439/7/296 440/8/297 441/9/298
f 442/10/298 441/9/298 440/8/297
f 443/1/291 444/2/291 445/3/303
f 446/4/304 445/3/303 444/2/291
f 445/3/303 446/4/304 447/5/305
f 448/6/306 447/5/305 446/4/304
f 447/5/305 448/6/306 449/7/307
f 450/8/67 449/7/307 448/6/306
f 449/7/307 450/8/67 451/9/298
f 452/10/298 451/9/298 450/8/67
f 453/1/308 454/2/308 455/3/309
f 456/4/310 455/3/309 454/2/308
f 455/3/309 456/4/310 457/5/311
f 458/6/311 457/5/311 456/4/310
f 459/1/312 460/2/312 461/3/313
f 462/4/314 461/3/313 460/2/312
f 461/3/313 462/4/314 463/5/315
f 464/6/315 463/5/315 462/4/314
f 465/1/316 466/2/317 467/3/318
f 468/4/319 467/3/318 466/2/317
f 467/3/318 468/4/319 469/5/320
f 470/6/321 469/5/320 468/4/319
f 469/5/320 470/6/321 471/7/322
f 472/8/323 471/7/322 470/6/321
f 471/7/322 472/8/323 473/9/324
f 474/10/324 473/9/324 472/8/323
f 475/1/325 476/2/325 477/3/326
f 478/4/327 477/3/326 476/2/325
f 477/3/326 478/4/327 479/5/328
f 480/6/329 479/5/328 478/4/327
f 479/5/328 480/6/329 481/7/330
f 482/8/331 481/7/330 480/6/329
f 481/7/330 482/8/331 483/9/332
f 484/10/332 483/9/332 482/8/331
f 485/1/333 486/2/333 487/3/334
f 488/4/335 487/3/334 486/2/333
f 487/3/334 488/4/335 489/5/336
f 490/6/337 489/5/336 488/4/335
f 489/5/336 490/6/337 491/7/338
f 492/8/339 491/7/338 490/6/337
f 491/7/338 492/8/339 493/9/340
f 494/10/340 493/9/340 492/8/339
f 495/1/341 496/2/341 497/3/342
f 498/4/343 497/3/342 496/2/341
f 497/3/342 498/4/343 499/5/344
f 500/6/345 499/5/344 498/4/343
f 499/5/344 500/6/345 501/7/346
f 502/8/347 501/7/346 500/6/345
f 501/7/346 502/8/347 503/9/348
f 504/10/348 503/9/348 502/8/347
f 505/1/349 506/2/349 507/3/350
f 508/4/351 507/3/350 506/2/349
f 507/3/350 508/4/351 509/5/352
f 510/6/353 509/5/352 508/4/351
f 509/5/352 510/6/353 511/7/354
f 512/8/355 511/7/354 510/6/353
f 511/7/354 512/8/355 513/9/356
f 514/10/356 513/9/356 512/8/355
f 515/1/357 516/2/357 517/3/358
f 518/4/359 517/3/358 516/2/357
f 517/3/358 518/4/359 519/5/360
f 520/6/361 519/5/360 518/4/359
f 519/5/360 520/6/361 521/7/362
f 522/8/363 521/7/362 520/6/361
f 521/7/362 522/8/363 523/9/364
f 524/10/364 523/9/364 522/8/363
f 525/1/357 526/2/357 527/3/365
f 528/4/366 527/3/365 526/2/357
f 527/3/365 528/4/366 529/5/367
f 530/6/368 529/5/367 528/4/366
f 529/5/367 530/6/368 531/7/362
f 532/8/363 531/7/362 530/6/368
f 531/7/362 532/8/363 533/9/369
f 534/10/369 533/9/369 532/8/363
f 535/1/370 536/2/370 537/3/371
f 538/4/372 537/3/371 536/2/370
f 537/3/371 538/4/372 539/5/373
f 540/6/374 539/5/373 538/4/372
f 539/5/373 540/6/374 541/7/375
f 542/8/376 541/7/375 540/6/374
f 541/7/375 542/8/376 543/9/364
f 544/10/364 543/9/364 542/8/376
f 545/1/377 546/2/377 547/3/378
f 548/4/379 547/3/378 546/2/377
f 547/3/378 548/4/379 549/5/380
f 550/6/380 549/5/380 548/4/379
f 551/1/381 552/2/381 553/3/382
f 554/4/383 553/3/382 552/2/381
f 553/3/382 554/4/383 555/5/384
f 556/6/384 555/5/384 554/4/383
f 557/1/385 558/2/385 559/3/386
f 560/4/387 559/3/386 558/2/385
f 559/3/386 560/4/387 561/5/388
f 562/6/389 561/5/388 560/4/387
f 561/5/388 562/6/389 563/7/390
f 564/8/391 563/7/390 562/6/389
f 563/7/390 564/8/391 565/9/392
f 566/10/392 565/9/392 564/8/391
f 567/1/393 568/2/393 569/3/394
f 570/4/395 569/3/394 568/2/393
f 569/3/394 570/4/395 571/5/396
f 572/6/397 571/5/396 570/4/395
f 571/5/396 572/6/397 573/7/398
f 574/8/399 573/7/398 572/6/397
f 573/7/398 574/8/399 575/9/400
f 576/10/400 575/9/400 574/8/399
f 577/1/401 578/2/401 579/3/402
f 580/4/403 579/3/402 578/2/401
f 579/3/402 580/4/403 581/5/404
f 582/6/405 581/5/404 580/4/403
f 581/5/404 582/6/405 583/7/406
f 584/8/406 583/7/406 582/6/405
f 585/1/401 586/2/401 587/3/407
f 588/4/408 587/3/407 586/2/401
f 587/3/407 588/4/408 589/5/409
f 590/6/410 589/5/409 588/4/408
f 589/5/409 590/6/410 591/7/406
f 592/8/406 591/7/406 590/6/410
f 593/5/411 594/6/412 595/7/413
f 596/8/414 595/7/413 594/6/412
f 595/7/413 596/8/414 597/9/415
f 598/10/415 597/9/415 596/8/414
f 599/7/416 600/8/416 593/9/411
f 594/10/412 593/9/411 600/8/416
f 601/5/417 602/6/418 603/7/419
f 604/8/420 603/7/419 602/6/418
f 603/7/419 604/8/420 605/9/421
f 606/10/421 605/9/421 604/8/420
f 607/7/422 608/8/422 601/9/417
f 602/10/418 601/9/417 608/8/422
f 609/1/423 610/2/423 611/3/424
f 612/4/425 611/3/424 610/2/423
f 611/3/424 612/4/425 613/5/426
f 614/6/427 613/5/426 612/4/425
f 613/5/426 614/6/427 615/7/428
f 616/8/429 615/7/428 614/6/427
f 615/7/428 616/8/429 617/9/430
f 618/10/430 617/9/430 616/8/429
f 619/1/431 620/2/431 621/3/432
f 622/4/433 621/3/432 620/2/431
f 621/3/432 622/4/433 623/5/434
f 624/6/435 623/5/434 622/4/433
f 623/5/434 624/6/435 625/7/436
f 626/8/437 625/7/436 624/6/435
f 625/7/436 626/8/437 627/9/438
f 628/10/438 627/9/438 626/8/437
f 629/1/423 630/2/423 631/3/424
f 632/4/425 631/3/424 630/2/423
f 631/3/424 632/4/425 633/5/439
f 634/6/427 633/5/439 632/4/425
f 633/5/439 634/6/427 635/7/428
f 636/8/440 635/7/428 634/6/427
f 635/7/428 636/8/440 637/9/430
f 638/10/430 637/9/430 636/8/440
f 639/1/431 640/2/431 641/3/432
f 642/4/433 641/3/432 640/2/431
f 641/3/432 642/4/433 643/5/434
f 644/6/435 643/5/434 642/4/433
f 643/5/434 644/6/435 645/7/441
f 646/8/437 645/7/441 644/6/435
f 645/7/441 646/8/437 647/9/438
f 648/10/438 647/9/438 646/8/437
f 649/1/423 650/2/423 651/3/424
f 652/4/425 651/3/424 650/2/423
f 651/3/424 652/4/425 653/5/439
f 654/6/427 653/5/439 652/4/425
f 653/5/439 654/6/427 655/7/428
f 656/8/440 655/7/428 654/6/427
f 655/7/428 656/8/440 657/9/430
f 658/10/430 657/9/430 656/8/440
f 659/1/431 660/2/431 661/3/432
f 662/4/433 661/3/432 660/2/431
f 661/3/432 662/4/433 663/5/434
f 664/6/435 663/5/434 662/4/433
f 663/5/434 664/6/435 665/7/441
f 666/8/437 665/7/441 664/6/435
f 665/7/441 666/8/437 667/9/442
f 668/10/442 667/9/442 666/8/437
f 669/1/423 670/2/423 671/3/424
f 672/4/443 671/3/424 670/2/423
f 671/3/424 672/4/443 673/5/439
f 674/6/427 673/5/439 672/4/443
f 673/5/439 674/6/427 675/7/428
f 676/8/440 675/7/428 674/6/427
f 675/7/428 676/8/440 677/9/430
f 678/10/430 677/9/430 676/8/440
f 679/1/431 680/2/431 681/3/432
f 682/4/433 681/3/432 680/2/431
f 681/3/432 682/4/433 683/5/434
f 684/6/435 683/5/434 682/4/433
f 683/5/434 684/6/435 685/7/441
f 686/8/437 685/7/441 684/6/435
f 685/7/441 686/8/437 687/9/442
f 688/10/442 687/9/442 686/8/437
f 689/1/444 690/2/444 691/3/445
f 692/4/446 691/3/445 690/2/444
f 691/3/445 692/4/446 693/5/447
f 694/6/448 693/5/447 692/4/446
f 693/5/447 694/6/448 695/7/266
f 696/8/449 695/7/266 694/6/448
f 695/7/266 696/8/449 697/9/450
f 698/10/450 697/9/450 696/8/449
f 699/1/451 700/2/451 701/3/452
f 702/4/453 701/3/452 700/2/451
f 701/3/452 702/4/453 703/5/454
f 704/6/455 703/5/454 702/4/453
f 703/5/454 704/6/455 705/7/456
f 706/8/457 705/7/456 704/6/455
f 705/7/456 706/8/457 707/9/458
f 708/10/458 707/9/458 706/8/457
f 709/1/459 710/2/459 711/3/460
f 712/4/461 711/3/460 710/2/459
f 711/3/460 712/4/461 713/5/462
f 714/6/463 713/5/462 712/4/461
f 713/5/462 714/6/463 715/7/464
f 716/8/465 715/7/464 714/6/463
f 715/7/464 716/8/465 717/9/466
f 718/10/466 717/9/466 716/8/465
f 719/1/467 720/2/467 721/3/468
f 722/4/469 721/3/468 720/2/467
f 721/3/468 722/4/469 723/5/470
f 724/6/471 723/5/470 722/4/469
f 723/5/470 724/6/471 725/7/472
f 726/8/473 725/7/472 724/6/471
f 725/7/472 726/8/473 727/9/474
f 728/10/474 727/9/474 726/8/473
f 729/1/475 730/2/475 731/3/476
f 732/4/477 731/3/476 730/2/475
f 731/3/476 732/4/477 733/5/478
f 734/6/479 733/5/478 732/4/477
f 733/5/478 734/6/479 735/7/480
f 736/8/481 735/7/480 734/6/479
f 735/7/480 736/8/481 737/9/482
f 738/10/482 737/9/482 736/8/481
f 739/1/483 740/2/483 741/3/484
f 742/4/485 741/3/484 740/2/483
f 741/3/484 742/4/485 743/5/486
f 744/6/487 743/5/486 742/4/485
f 743/5/486 744/6/487 745/7/488
f 746/8/489 745/7/488 744/6/487
f 745/7/488 746/8/489 747/9/490
f 748/10/490 747/9/490 746/8/489
f 749/1/491 750/2/491 751/3/492
f 752/4/493 751/3/492 750/2/491
f 751/3/492 752/4/493 753/5/494
f 754/6/495 753/5/494 752/4/493
f 753/5/494 754/6/495 755/7/496
f 756/8/497 755/7/496 754/6/495
f 755/7/496 756/8/497 757/9/498
f 758/10/498 757/9/498 756/8/497
f 759/1/499 760/2/499 761/3/500
f 762/4/501 761/3/500 760/2/499
f 761/3/500 762/4/501 763/5/502
f 764/6/503 763/5/502 762/4/501
f 763/5/502 764/6/503 765/7/504
f 766/8/505 765/7/504 764/6/503
f 765/7/504 766/8/505 767/9/506
f 768/10/506 767/9/506 766/8/505
f 769/1/499 770/2/499 771/3/500
f 772/4/501 771/3/500 770/2/499
f 771/3/500 772/4/501 773/5/507
f 774/6/503 773/5/507 772/4/501
f 773/5/507 774/6/503 775/7/504
f 776/8/505 775/7/504 774/6/503
f 775/7/504 776/8/505 777/9/508
f 778/10/508 777/9/508 776/8/505
f 779/1/483 780/2/483 781/3/484
f 782/4/485 781/3/484 780/2/483
f 781/3/484 782/4/485 783/5/486
f 784/6/487 783/5/486 782/4/485
f 783/5/486 784/6/487 785/7/488
f 786/8/489 785/7/488 784/6/487
f 785/7/488 786/8/489 787/9/490
f 788/10/490 787/9/490 786/8/489
f 789/1/483 790/2/483 791/3/484
f 792/4/485 791/3/484 790/2/483
f 791/3/484 792/4/485 793/5/486
f 794/6/487 793/5/486 792/4/485
f 793/5/486 794/6/487 795/7/488
f 796/8/489 795/7/488 794/6/487
f 795/7/488 796/8/489 797/9/490
f 798/10/490 797/9/490 796/8/489
f 799/1/509 800/2/509 801/3/510
f 802/4/511 801/3/510 800/2/509
f 801/3/510 802/4/511 803/5/512
f 804/6/513 803/5/512 802/4/511
f 803/5/512 804/6/513 805/7/514
f 806/8/515 805/7/514 804/6/513
f 805/7/514 806/8/515 807/9/516
f 808/10/516 807/9/516 806/8/515
f 809/1/517 810/2/517 811/3/518
f 812/4/519 811/3/518 810/2/517
f 811/3/518 812/4/519 813/5/520
f 814/6/521 813/5/520 812/4/519
f 813/5/520 814/6/521 815/7/522
f 816/8/523 815/7/522 814/6/521
f 815/7/522 816/8/523 817/9/524
f 818/10/524 817/9/524 816/8/523
f 819/1/499 820/2/499 821/3/500
f 822/4/501 821/3/500 820/2/499
f 821/3/500 822/4/501 823/5/502
f 824/6/503 823/5/502 822/4/501
f 823/5/502 824/6/503 825/7/504
f 826/8/505 825/7/504 824/6/503
f 825/7/504 826/8/505 827/9/508
f 828/10/508 827/9/508 826/8/505
f 829/1/401 830/2/401 831/3/402
f 832/4/403 831/3/402 830/2/401
f 831/3/402 832/4/403 833/5/404
f 834/6/405 833/5/404 832/4/403
f 833/5/404 834/6/405 835/7/406
f 836/8/406 835/7/406 834/6/405
f 837/1/401 838/2/401 839/3/525
f 840/4/526 839/3/525 838/2/401
f 839/3/525 840/4/526 841/5/527
f 842/6/528 841/5/527 840/4/526
f 841/5/527 842/6/528 843/7/406
f 844/8/406 843/7/406 842/6/528
f 845/1/529 846/2/529 847/3/530
f 848/4/531 847/3/530 846/2/529
f 847/3/530 848/4/531 849/5/532
f 850/6/533 849/5/532 848/4/531
f 849/5/532 850/6/533 851/7/534
f 852/8/534 851/7/534 850/6/533
f 853/1/401 854/2/401 855/3/407
f 856/4/408 855/3/407 854/2/401
f 855/3/407 856/4/408 857/5/409
f 858/6/410 857/5/409 856/4/408
f 857/5/409 858/6/410 859/7/406
f 860/8/406 859/7/406 858/6/410
f 861/1/401 862/2/401 863/3/535
f 864/4/536 863/3/535 862/2/401
f 863/3/535 864/4/536 865/5/537
f 866/6/538 865/5/537 864/4/536
f 865/5/537 866/6/538 867/7/406
f 868/8/406 867/7/406 866/6/538
f 869/1/401 870/2/401 871/3/539
f 872/4/540 871/3/539 870/2/401
f 871/3/539 872/4/540 873/5/541
f 874/6/542 873/5/541 872/4/540
f 873/5/541 874/6/542 875/7/406
f 876/8/406 875/7/406 874/6/542
f 877/5/543 878/6/543 879/7/544
f 880/8/545 879/7/544 878/6/543
f 879/7/544 880/8/545 881/9/546
f 882/10/546 881/9/546 880/8/545
f 883/5/543 884/6/543 885/7/544
f 886/8/545 885/7/544 884/6/543
f 885/7/544 886/8/545 887/9/546
f 888/10/546 887/9/546 886/8/545
f 889/5/543 890/6/543 891/7/544
f 892/8/545 891/7/544 890/6/543
f 891/7/544 892/8/545 893/9/546
f 894/10/546 893/9/546 892/8/545
f 895/5/543 896/6/543 897/7/544
f 898/8/545 897/7/544 896/6/543
f 897/7/544 898/8/545 899/9/546
f 900/10/546 899/9/546 898/8/545
f 901/5/543 902/6/543 903/7/544
f 904/8/545 903/7/544 902/6/543
f 903/7/544 904/8/545 905/9/546
f 906/10/546 905/9/546 904/8/545
f 907/5/543 908/6/543 909/7/544
f 910/8/545 909/7/544 908/6/543
f 909/7/544 910/8/545 911/9/547
f 912/10/547 911/9/547 910/8/545
f 913/7/546 914/8/546 915/9/546
f 916/10/546 915/9/546 914/8/546
f 917/5/543 918/6/543 919/7/544
f 920/8/545 919/7/544 918/6/543
f 919/7/544 920/8/545 921/9/546
f 922/10/546 921/9/546 920/8/545
f 923/5/543 924/6/543 925/7/544
f 926/8/545 925/7/544 924/6/543
f 925/7/544 926/8/545 927/9/546
f 928/10/547 927/9/546 926/8/545
f 929/5/543 930/6/543 931/7/544
f 932/8/545 931/7/544 930/6/543
f 931/7/544 932/8/545 933/9/546
f 934/10/546 933/9/546 932/8/545
f 935/1/172 936/2/172 937/3/173
f 938/4/174 937/3/173 936/2/172
f 937/3/173 938/4/174 939/5/175
f 940/6/176 939/5/175 938/4/174
f 939/5/175 940/6/176 941/7/177
f 942/8/178 941/7/177 940/6/176
f 941/7/177 942/8/178 943/9/179
f 944/10/179 943/9/179 942/8/178
f 945/1/172 946/2/172 947/3/180
f 948/4/181 947/3/180 946/2/172
f 947/3/180 948/4/181 949/5/182
f 950/6/183 949/5/182 948/4/181
f 949/5/182 950/6/183 951/7/177
f 952/8/178 951/7/177 950/6/183
f 951/7/177 952/8/178 953/9/179
f 954/10/179 953/9/179 952/8/178
f 955/1/548 956/2/548 957/3/184
f 958/4/185 957/3/184 956/2/548
f 957/3/184 958/4/185 959/5/186
f 960/6/187 959/5/186 958/4/185
f 959/5/186 960/6/187 961/7/188
f 962/8/189 961/7/188 960/6/187
f 961/7/188 962/8/189 963/9/179
f 964/10/179 963/9/179 962/8/189
f 965/1/190 966/2/190 967/3/191
f 968/4/192 967/3/191 966/2/190
f 967/3/191 968/4/192 969/5/193
f 970/6/193 969/5/193 968/4/192
f 971/1/194 972/2/194 973/3/195
f 974/4/196 973/3/195 972/2/194
f 973/3/195 974/4/196 975/5/197
f 976/6/197 975/5/197 974/4/196
f 977/1/198 978/2/198 979/3/199
f 980/4/200 979/3/199 978/2/198
f 979/3/199 980/4/200 981/5/201
f 982/6/202 981/5/201 980/4/200
f 981/5/201 982/6/202 983/7/203
f 984/8/204 983/7/203 982/6/202
f 983/7/203 984/8/204 985/9/205
f 986/10/205 985/9/205 984/8/204
f 987/1/206 988/2/206 989/3/207
f 990/4/208 989/3/207 988/2/206
f 989/3/207 990/4/208 991/5/209
f 992/6/210 991/5/209 990/4/208
f 991/5/209 992/6/210 993/7/211
f 994/8/212 993/7/211 992/6/210
f 993/7/211 994/8/212 995/9/549
f 996/10/549 995/9/549 994/8/212
f 997/1/550 998/2/550 999/3/551
f 1000/4/552 999/3/551 998/2/550
f 999/3/551 1000/4/552 1001/5/553
f 1002/6/554 1001/5/553 1000/4/552
f 1001/5/553 1002/6/554 1003/7/555
f 1004/8/556 1003/7/555 1002/6/554
f 1003/7/555 1004/8/556 1005/9/557
f 1006/10/557 1005/9/557 1004/8/556
f 1007/1/558 1008/2/558 1009/3/559
f 1010/4/560 1009/3/559 1008/2/558
f 1009/3/559 1010/4/560 1011/5/561
f 1012/6/562 1011/5/561 1010/4/560
f 1011/5/561 1012/6/562 1013/7/563
f 1014/8/564 1013/7/563 1012/6/562
f 1013/7/563 1014/8/564 1015/9/565
f 1016/10/565 1015/9/565 1014/8/564
f 1017/1/558 1018/2/558 1019/3/559
f 1020/4/560 1019/3/559 1018/2/558
f 1019/3/559 1020/4/560 1021/5/561
f 1022/6/562 1021/5/561 1020/4/560
f 1021/5/561 1022/6/562 1023/7/563
f 1024/8/564 1023/7/563 1022/6/562
f 1023/7/563 1024/8/564 1025/9/565
f 1026/10/565 1025/9/565 1024/8/564
f 1027/1/550 1028/2/550 1029/3/551
f 1030/4/552 1029/3/551 1028/2/550
f 1029/3/551 1030/4/552 1031/5/553
f 1032/6/554 1031/5/553 1030/4/552
f 1031/5/553 1032/6/554 1033/7/555
f 1034/8/556 1033/7/555 1032/6/554
f 1033/7/555 1034/8/556 1035/9/557
f 1036/10/557 1035/9/557 1034/8/556
f 1037/1/550 1038/2/550 1039/3/551
f 1040/4/552 1039/3/551 1038/2/550
f 1039/3/551 1040/4/552 1041/5/553
f 1042/6/554 1041/5/553 1040/4/552
f 1041/5/553 1042/6/554 1043/7/555
f 1044/8/556 1043/7/555 1042/6/554
f 1043/7/555 1044/8/556 1045/9/557
f 1046/10/557 1045/9/557 1044/8/556
f 1047/1/550 1048/2/550 1049/3/551
f 1050/4/552 1049/3/551 1048/2/550
f 1049/3/551 1050/4/552 1051/5/553
f 1052/6/554 1051/5/553 1050/4/552
f 1051/5/553 1052/6/554 1053/7/555
f 1054/8/556 1053/7/555 1052/6/554
f 1053/7/555 1054/8/556 1055/9/557
f 1056/10/557 1055/9/557 1054/8/556
f 1057/1/550 1058/2/550 1059/3/551
f 1060/4/552 1059/3/551 1058/2/550
f 1059/3/551 1060/4/552 1061/5/553
f 1062/6/554 1061/5/553 1060/4/552
f 1061/5/553 1062/6/554 1063/7/555
f 1064/8/556 1063/7/555 1062/6/554
f 1063/7/555 1064/8/556 1065/9/557
f 1066/10/557 1065/9/557 1064/8/556
f 1067/1/566 1068/2/566 1069/3/567
f 1070/4/568 1069/3/567 1068/2/566
f 1069/3/567 1070/4/568 1071/5/569
f 1072/6/569 1071/5/569 1070/4/568
f 1071/5/569 1072/6/569 1073/7/570
f 1074/8/570 1073/7/570 1072/6/569
f 1075/1/571 1076/2/571 1077/3/572
f 1078/4/573 1077/3/572 1076/2/571
f 1077/3/572 1078/4/573 1079/5/574
f 1080/6/575 1079/5/574 1078/4/573
f 1079/5/574 1080/6/575 1081/7/576
f 1082/8/576 1081/7/576 1080/6/575
f 1083/5/543 1084/6/543 1085/7/544
f 1086/8/545 1085/7/544 1084/6/543
f 1085/7/544 1086/8/545 1087/9/546
f 1088/10/546 1087/9/546 1086/8/545
f 1089/7/577 1090/8/577 1091/9/577
f 1092/10/577 1091/9/577 1090/8/577
f 1093/1/550 1094/2/550 1095/3/551
f 1096/4/552 1095/3/551 1094/2/550
f 1095/3/551 1096/4/552 1097/5/553
f 1098/6/554 1097/5/553 1096/4/552
f 1097/5/553 1098/6/554 1099/7/555
f 1100/8/556 1099/7/555 1098/6/554
f 1099/7/555 1100/8/556 1101/9/557
f 1102/10/557 1101/9/557 1100/8/556
f 1103/1/550 1104/2/550 1105/3/551
f 1106/4/552 1105/3/551 1104/2/550
f 1105/3/551 1106/4/552 1107/5/553
f 1108/6/554 1107/5/553 1106/4/552
f 1107/5/553 1108/6/554 1109/7/555
f 1110/8/556 1109/7/555 1108/6/554
f 1109/7/555 1110/8/556 1111/9/557
f 1112/10/557 1111/9/557 1110/8/556
f 1113/1/550 1114/2/550 1115/3/551
f 1116/4/552 1115/3/551 1114/2/550
f 1115/3/551 1116/4/552 1117/5/553
f 1118/6/554 1117/5/553 1116/4/552
f 1117/5/553 1118/6/554 1119/7/555
f 1120/8/556 1119/7/555 1118/6/554
f 1119/7/555 1120/8/556 1121/9/557
f 1122/10/557 1121/9/557 1120/8/556
