# Blender 4.4.3
# www.blender.org
mtllib GARAGES.mtl
o GARAGES
v 128.677841 2.786312 -39.322613
v 128.677841 -1.691036 -39.322613
v 133.862152 2.786312 -39.322613
v 133.862152 -1.691036 -39.322613
v 133.862152 -1.691037 -70.803085
v 128.677841 -1.691037 -70.803085
v 133.862152 2.786311 -70.803085
v 128.677841 2.786311 -70.803085
v 143.199203 2.786312 -39.322613
v 143.199203 -1.691036 -39.322613
v 148.383499 2.786312 -39.322613
v 148.383499 -1.691036 -39.322613
v 148.383499 -1.691036 -70.803085
v 143.199203 -1.691036 -70.803085
v 148.383499 2.786311 -70.803085
v 143.199203 2.786311 -70.803085
v 211.325378 2.786312 -39.322613
v 211.325378 -1.691036 -39.322613
v 216.509674 2.786312 -39.322613
v 216.509674 -1.691036 -39.322613
v 216.509674 -1.691037 -70.803085
v 211.325378 -1.691037 -70.803085
v 216.509674 2.786311 -70.803085
v 211.325378 2.786311 -70.803085
v 182.019318 2.786312 -39.322613
v 182.019318 -1.691036 -39.322613
v 187.203613 2.786312 -39.322613
v 187.203613 -1.691036 -39.322613
v 187.203613 -1.691037 -70.803085
v 182.019318 -1.691037 -70.803085
v 187.203613 2.786311 -70.803085
v 182.019318 2.786311 -70.803085
v 196.540680 2.786312 -39.322613
v 196.540680 -1.691036 -39.322613
v 201.724976 2.786312 -39.322613
v 201.724976 -1.691036 -39.322613
v 201.724976 -1.691037 -70.803085
v 196.540680 -1.691037 -70.803085
v 201.724976 2.786311 -70.803085
v 196.540680 2.786311 -70.803085
vn -0.0000 -0.0000 1.0000
vn -0.0000 -0.0000 -1.0000
vn 1.0000 -0.0000 -0.0000
vn -1.0000 -0.0000 -0.0000
vt 0.647390 1.999500
vt 0.647390 1.000499
vt 0.756432 1.999500
vt 0.756432 1.000499
vt 0.632864 1.000500
vt 0.777438 1.000500
vt 0.632864 1.999501
vt 0.777438 1.999501
vt 0.633930 1.999500
vt 0.633930 1.000499
vt 0.000260 1.999500
vt 0.000260 1.000499
vt 0.633930 1.000500
vt 0.000260 1.000500
vt 0.000260 1.999501
vt 0.765235 2.010724
vt 0.765235 1.011723
vt 0.874277 2.010723
vt 0.874277 1.011723
vt 0.750710 1.011723
vt 0.895283 1.011724
vt 0.750709 2.010724
vt 0.895283 2.010724
vt 0.864375 2.003241
vt 0.864375 1.004241
vt 0.973416 2.003241
vt 0.973416 1.004240
vt 0.849849 1.004241
vt 0.994422 1.004241
vt 0.849849 2.003242
vt 0.994422 2.003242
s 1
usemtl GARAGES.001
f 1/1/1 2/2/1 3/3/1
f 4/4/1 3/3/1 2/2/1
f 5/5/2 6/6/2 7/7/2
f 8/8/2 7/7/2 6/6/2
f 3/9/3 4/10/3 7/11/3
f 5/12/3 7/11/3 4/10/3
f 2/13/4 1/9/4 6/14/4
f 8/15/4 6/14/4 1/9/4
f 9/16/1 10/17/1 11/18/1
f 12/19/1 11/18/1 10/17/1
f 13/20/2 14/21/2 15/22/2
f 16/23/2 15/22/2 14/21/2
f 11/9/3 12/10/3 15/11/3
f 13/12/3 15/11/3 12/10/3
f 10/13/4 9/9/4 14/14/4
f 16/15/4 14/14/4 9/9/4
f 17/24/1 18/25/1 19/26/1
f 20/27/1 19/26/1 18/25/1
f 21/28/2 22/29/2 23/30/2
f 24/31/2 23/30/2 22/29/2
f 19/9/3 20/10/3 23/11/3
f 21/12/3 23/11/3 20/10/3
f 18/13/4 17/9/4 22/14/4
f 24/15/4 22/14/4 17/9/4
f 25/1/1 26/2/1 27/3/1
f 28/4/1 27/3/1 26/2/1
f 29/5/2 30/6/2 31/7/2
f 32/8/2 31/7/2 30/6/2
f 27/9/3 28/10/3 31/11/3
f 29/12/3 31/11/3 28/10/3
f 26/13/4 25/9/4 30/14/4
f 32/15/4 30/14/4 25/9/4
f 33/16/1 34/17/1 35/18/1
f 36/19/1 35/18/1 34/17/1
f 37/20/2 38/21/2 39/22/2
f 40/23/2 39/22/2 38/21/2
f 35/9/3 36/10/3 39/11/3
f 37/12/3 39/11/3 36/10/3
f 34/13/4 33/9/4 38/14/4
f 40/15/4 38/14/4 33/9/4
