# Blender 4.4.3
# www.blender.org
mtllib GBLADESE.mtl
o GBLADESE
v 280.920258 -3.223288 -6.910271
v 280.920258 -2.949059 -6.910276
v 280.920227 -2.949059 -7.548480
v 280.920227 -3.223288 -7.548480
v 545.975830 -3.000805 -156.452484
v 545.975830 -3.275032 -156.452484
v 545.347534 -3.000805 -156.340881
v 545.347534 -3.275032 -156.340881
v 545.688721 -2.789963 -156.150253
v 545.688721 -3.275032 -156.150253
v 545.597168 -2.789963 -156.635956
v 545.597168 -3.275032 -156.635956
v 546.104919 -3.000805 -154.856613
v 546.104919 -3.275032 -154.856613
v 545.478516 -3.000805 -154.978668
v 545.478516 -3.275032 -154.978668
v 545.734497 -2.789964 -154.704361
v 545.734497 -3.275032 -154.704361
v 545.812134 -2.789964 -155.137543
v 545.812134 -3.275032 -155.137558
v 542.476074 -3.000715 -150.864014
v 542.476074 -3.274942 -150.864014
v 542.358521 -3.000715 -151.491302
v 542.358521 -3.274942 -151.491302
v 542.057861 -2.789873 -151.124664
v 542.057861 -3.274942 -151.124664
v 542.771240 -2.789873 -151.259567
v 542.771240 -3.274942 -151.259567
v 539.700134 -3.000715 -149.401749
v 539.700134 -3.274942 -149.401749
v 539.495850 -3.000715 -150.006393
v 539.495850 -3.274942 -150.006393
v 539.245911 -2.789874 -149.600006
v 539.245911 -3.274942 -149.600006
v 539.940613 -2.789874 -149.835999
v 539.940613 -3.274942 -149.835999
v 540.605286 -3.000715 -149.956543
v 540.605286 -3.274942 -149.956543
v 540.464722 -3.000715 -150.579071
v 540.464722 -3.274942 -150.579071
v 540.181030 -2.789873 -150.202377
v 540.181030 -3.274942 -150.202377
v 540.882446 -2.789873 -150.361969
v 540.882446 -3.274942 -150.361969
v 542.533569 -3.000715 -149.595352
v 542.533569 -3.274942 -149.595352
v 542.370117 -3.000715 -150.178436
v 542.370117 -3.274942 -150.178436
v 542.104614 -2.789874 -149.786316
v 542.104614 -3.274942 -149.786316
v 542.801453 -2.789874 -149.984787
v 542.801453 -3.274942 -149.984787
v 537.890015 -3.000714 -146.895752
v 537.890015 -3.274942 -146.895752
v 537.796143 -3.000714 -147.527039
v 537.796143 -3.274942 -147.527039
v 537.486877 -2.789873 -147.172760
v 537.486877 -3.274942 -147.172760
v 538.194946 -2.789873 -147.279190
v 538.194946 -3.274942 -147.279190
v 543.351135 -3.000715 -154.877869
v 543.351135 -3.274942 -154.877869
v 542.738892 -3.000715 -154.697662
v 542.738892 -3.274942 -154.697662
v 543.119873 -2.789873 -154.478821
v 543.119873 -3.274942 -154.478821
v 542.939697 -2.789874 -155.087769
v 542.939697 -3.274942 -155.087769
v 543.494446 -3.000713 -151.662399
v 543.494446 -3.274941 -151.662399
v 542.882202 -3.000713 -151.482178
v 542.882202 -3.274941 -151.482178
v 543.263184 -2.789873 -151.263321
v 543.263184 -3.274941 -151.263321
v 543.083008 -2.789873 -151.872238
v 543.083008 -3.274941 -151.872238
v 542.787415 -3.000714 -156.575256
v 542.787415 -3.274942 -156.575256
v 542.175171 -3.000714 -156.395050
v 542.175171 -3.274942 -156.395050
v 542.556091 -2.789874 -156.176224
v 542.556091 -3.274942 -156.176224
v 542.375916 -2.789874 -156.785141
v 542.375916 -3.274942 -156.785141
v 542.038330 -3.000714 -149.303833
v 542.038330 -3.274941 -149.303833
v 541.426147 -3.000714 -149.123611
v 541.426147 -3.274941 -149.123611
v 541.807068 -2.789872 -148.904755
v 541.807068 -3.274941 -148.904755
v 541.626892 -2.789872 -149.513687
v 541.626892 -3.274941 -149.513687
v 543.560303 -3.000715 -153.167877
v 543.560303 -3.274942 -153.167877
v 542.948120 -3.000715 -152.987656
v 542.948120 -3.274941 -152.987656
v 543.329041 -2.789872 -152.768829
v 543.329041 -3.274941 -152.768829
v 543.148865 -2.789873 -153.377747
v 543.148865 -3.274942 -153.377747
v 541.175354 -3.000715 -152.204620
v 541.175354 -3.274941 -152.204620
v 540.594055 -3.000715 -152.034882
v 540.594055 -3.274941 -152.034882
v 540.974976 -2.789872 -151.816040
v 540.974976 -3.274941 -151.816040
v 540.794861 -2.789872 -152.424973
v 540.794861 -3.274941 -152.424973
v 536.086670 -3.000715 -148.658081
v 536.086670 -3.274942 -148.658081
v 535.969116 -3.000715 -149.285370
v 535.969116 -3.274942 -149.285370
v 535.668457 -2.789873 -148.918732
v 535.668457 -3.274942 -148.918732
v 536.381836 -2.789873 -149.053635
v 536.381836 -3.274942 -149.053635
v 538.244629 -3.000714 -148.249390
v 538.244629 -3.274942 -148.249390
v 538.150757 -3.000714 -148.880676
v 538.150757 -3.274942 -148.880676
v 537.841492 -2.789873 -148.526398
v 537.841492 -3.274942 -148.526398
v 538.549561 -2.789873 -148.632828
v 538.549561 -3.274942 -148.632828
v 541.978638 -3.000714 -156.472198
v 541.978638 -3.274942 -156.472198
v 541.366394 -3.000714 -156.291977
v 541.366394 -3.274942 -156.291977
v 541.747375 -2.789874 -156.073105
v 541.747375 -3.274942 -156.073105
v 541.567200 -2.789874 -156.682037
v 541.567200 -3.274942 -156.682037
vn -1.0000 -0.0000 -0.0000
vn -0.1749 -0.0000 -0.9846
vn 0.9827 -0.0000 -0.1852
vn 0.1912 -0.0000 -0.9815
vn 0.1913 -0.0000 -0.9815
vn 0.9843 -0.0000 0.1764
vn 0.9843 -0.0001 0.1764
vn 0.9829 -0.0000 -0.1842
vn 0.1858 -0.0000 0.9826
vn 0.9474 -0.0000 -0.3201
vn 0.3216 -0.0000 0.9469
vn 0.9754 -0.0000 -0.2203
vn 0.9754 -0.0000 -0.2202
vn 0.2218 -0.0000 0.9751
vn 0.2219 -0.0000 0.9751
vn 0.9629 -0.0000 -0.2699
vn 0.2740 -0.0000 0.9617
vn 0.2739 -0.0000 0.9617
vn 0.2739 -0.0000 0.9618
vn 0.9891 -0.0000 -0.1471
vn 0.1487 -0.0000 0.9889
vn 0.1486 -0.0000 0.9889
vn -0.2824 -0.0000 -0.9593
vn 0.9589 -0.0000 -0.2837
vn -0.2823 -0.0000 -0.9593
vn -0.2825 -0.0000 -0.9593
vn -0.2803 -0.0000 -0.9599
vn 0.9589 -0.0000 -0.2836
vt 0.000500 1.000500
vt 0.000500 1.999501
vt 0.999501 1.999500
vt 0.999500 1.000499
s 1
usemtl GBLADESE.001
f 1/1/1 2/2/1 3/3/1
f 3/3/1 4/4/1 1/1/1
f 5/2/2 6/1/2 7/3/2
f 8/4/2 7/3/2 6/1/2
f 9/2/3 10/1/3 11/3/3
f 12/4/3 11/3/3 10/1/3
f 13/2/4 14/1/4 15/3/5
f 16/4/5 15/3/5 14/1/4
f 17/2/6 18/1/7 19/3/7
f 20/4/7 19/3/7 18/1/7
f 21/2/8 22/1/8 23/3/8
f 24/4/8 23/3/8 22/1/8
f 25/2/9 26/1/9 27/3/9
f 28/4/9 27/3/9 26/1/9
f 29/2/10 30/1/10 31/3/10
f 32/4/10 31/3/10 30/1/10
f 33/2/11 34/1/11 35/3/11
f 36/4/11 35/3/11 34/1/11
f 37/2/12 38/1/12 39/3/12
f 40/4/13 39/3/12 38/1/12
f 41/2/14 42/1/15 43/3/15
f 44/4/15 43/3/15 42/1/15
f 45/2/16 46/1/16 47/3/16
f 48/4/16 47/3/16 46/1/16
f 49/2/17 50/1/18 51/3/19
f 52/4/19 51/3/19 50/1/18
f 53/2/20 54/1/20 55/3/20
f 56/4/20 55/3/20 54/1/20
f 57/2/21 58/1/21 59/3/22
f 60/4/22 59/3/22 58/1/21
f 61/2/23 62/1/23 63/3/23
f 64/4/23 63/3/23 62/1/23
f 65/2/24 66/1/24 67/3/24
f 68/4/24 67/3/24 66/1/24
f 69/2/25 70/1/23 71/3/23
f 72/4/23 71/3/23 70/1/23
f 73/2/24 74/1/24 75/3/24
f 76/4/24 75/3/24 74/1/24
f 77/2/23 78/1/23 79/3/23
f 80/4/25 79/3/23 78/1/23
f 81/2/24 82/1/24 83/3/24
f 84/4/24 83/3/24 82/1/24
f 85/2/23 86/1/23 87/3/23
f 88/4/23 87/3/23 86/1/23
f 89/2/24 90/1/24 91/3/24
f 92/4/24 91/3/24 90/1/24
f 93/2/26 94/1/23 95/3/23
f 96/4/23 95/3/23 94/1/23
f 97/2/24 98/1/24 99/3/24
f 100/4/24 99/3/24 98/1/24
f 101/2/27 102/1/27 103/3/27
f 104/4/27 103/3/27 102/1/27
f 105/2/28 106/1/28 107/3/28
f 108/4/28 107/3/28 106/1/28
f 109/2/8 110/1/8 111/3/8
f 112/4/8 111/3/8 110/1/8
f 113/2/9 114/1/9 115/3/9
f 116/4/9 115/3/9 114/1/9
f 117/2/20 118/1/20 119/3/20
f 120/4/20 119/3/20 118/1/20
f 121/2/21 122/1/21 123/3/22
f 124/4/22 123/3/22 122/1/21
f 125/2/23 126/1/23 127/3/23
f 128/4/23 127/3/23 126/1/23
f 129/2/24 130/1/24 131/3/24
f 132/4/24 131/3/24 130/1/24
