# Blender 4.4.3
# www.blender.org
mtllib GCAB.mtl
o GCAB
v 2.509925 -0.673750 -27.591105
v 0.454898 -0.673750 -27.591105
v 2.509925 -0.673750 -26.870686
v 0.454897 -0.673750 -26.870686
v 3.360450 -0.673750 -27.591105
v 3.360450 -0.673750 -26.870686
v 0.454897 -1.667260 -26.870686
v 0.454898 -1.667260 -27.591105
v 2.509925 -1.667260 -26.870686
v 3.360449 -0.673750 -23.556387
v 2.509925 -0.673750 -23.556387
v 3.360449 -1.667260 -23.556387
v 2.509925 -1.667260 -23.556387
v -4.875033 0.695680 -27.582449
v -5.526597 0.695680 -27.582449
v -4.875034 0.695680 -26.916079
v -5.526597 0.695680 -26.341974
v -4.875034 0.695680 -26.341974
v -4.875034 -1.661051 -26.341974
v -5.526597 -1.661051 -26.341974
v -4.875033 -1.661051 -27.582449
v -4.875034 -1.661051 -26.950817
v -5.526597 -1.661051 -27.582449
v -4.875034 0.695680 -26.310156
v -5.526597 0.695680 -26.310156
v -4.875034 0.695680 -25.643787
v -5.526597 0.695680 -25.069681
v -4.875034 0.695680 -25.069681
v -4.875034 -1.661051 -25.069681
v -5.526597 -1.661051 -25.069681
v -4.875034 -1.661051 -26.310156
v -4.875034 -1.661051 -25.678524
v -5.526597 -1.661051 -26.310156
v -4.875034 0.695680 -21.632507
v -5.526597 0.695680 -21.632507
v -4.875035 0.695680 -20.966137
v -5.526598 0.695680 -20.392033
v -4.875035 0.695680 -20.392031
v -4.875035 -1.661051 -20.392031
v -5.526598 -1.661051 -20.392033
v -4.875034 -1.661051 -21.632507
v -4.875035 -1.661051 -21.000875
v -5.526597 -1.661051 -21.632507
v 13.173901 -0.673750 -21.353033
v 12.323376 -0.673750 -21.353033
v 13.173901 -1.667260 -21.353033
v 12.323376 -1.667260 -21.353033
v 13.173903 -0.673750 -24.667332
v 12.323376 -0.673750 -24.667332
v 12.323376 -1.667260 -24.667332
v 12.090403 0.695680 -26.911703
v 12.090403 0.695680 -27.563267
v 11.424034 0.695680 -26.911703
v 10.849928 0.695680 -27.563267
v 10.849928 0.695680 -26.911703
v 10.849928 -1.661051 -26.911703
v 10.849928 -1.661051 -27.563267
v 12.090403 -1.661051 -26.911703
v 11.458771 -1.661051 -26.911703
v 12.090403 -1.661051 -27.563267
v 10.818110 0.695680 -26.911703
v 10.818110 0.695680 -27.563267
v 10.151739 0.695680 -26.911703
v 9.577636 0.695680 -27.563267
v 9.577636 0.695680 -26.911703
v 9.577636 -1.661051 -26.911703
v 9.577636 -1.661051 -27.563267
v 10.818110 -1.661051 -26.911703
v 10.186478 -1.661051 -26.911703
v 10.818110 -1.661051 -27.563267
v 13.173903 -1.667260 -24.667332
v 4.261825 -0.673750 -27.047470
v 5.112350 -0.673750 -27.047470
v 4.261825 -1.667260 -27.047470
v 5.112350 -1.667260 -27.047470
v 4.261824 -0.673750 -23.733173
v 5.112349 -0.673750 -23.733173
v 5.112349 -1.667260 -23.733173
v 4.261824 -1.667260 -23.733173
v 17.414171 -0.673750 -27.615726
v 17.414171 -0.673750 -26.765202
v 17.414171 -1.667260 -27.615726
v 17.414171 -1.667260 -26.765202
v 14.099873 -0.673750 -27.615726
v 14.099873 -0.673750 -26.765202
v 14.099873 -1.667260 -26.765202
v 22.293499 0.695680 -22.150131
v 22.945065 0.695680 -22.150131
v 22.293499 0.695680 -22.816500
v 22.945065 0.695680 -23.390606
v 22.293503 0.695680 -23.390606
v 22.293503 -1.661051 -23.390606
v 22.945065 -1.661051 -23.390606
v 22.293499 -1.661051 -22.150131
v 22.293499 -1.661051 -22.781761
v 22.945065 -1.661051 -22.150131
v 22.293499 0.695680 -20.877840
v 22.945065 0.695680 -20.877840
v 22.293499 0.695680 -21.544209
v 22.945065 0.695680 -22.118315
v 22.293499 0.695680 -22.118315
v 22.293499 -1.661051 -22.118315
v 22.945065 -1.661051 -22.118315
v 22.293499 -1.661051 -20.877840
v 22.293499 -1.661051 -21.509472
v 22.945065 -1.661051 -20.877840
v 14.099873 -1.667260 -27.615726
v 21.936293 -0.673750 -27.612925
v 21.936293 -0.673750 -26.762400
v 21.936293 -1.667260 -27.612925
v 21.936293 -1.667260 -26.762400
v 18.621994 -0.673750 -27.612923
v 18.621994 -0.673750 -26.762400
v 18.621994 -1.667260 -26.762400
v 18.621994 -1.667260 -27.612923
v 14.738791 0.695680 -25.146490
v 14.087227 0.695680 -25.146490
v 14.738791 0.695680 -24.480120
v 14.087227 0.695680 -23.906015
v 14.738791 0.695680 -23.906015
v 14.738791 -1.661051 -23.906015
v 14.087227 -1.661051 -23.906015
v 14.738791 -1.661051 -25.146490
v 14.738791 -1.661051 -24.514858
v 14.087227 -1.661051 -25.146490
v -26.933472 -0.673750 -27.591105
v -28.988501 -0.673750 -27.591105
v -26.933472 -0.673750 -26.870686
v -28.988501 -0.673750 -26.870686
v -26.082947 -0.673750 -27.591105
v -26.082947 -0.673750 -26.870686
v -28.988501 -1.667260 -26.870686
v -28.988501 -1.667260 -27.591105
v -26.933472 -1.667260 -26.870686
v -26.082947 -0.673750 -23.556387
v -26.933472 -0.673750 -23.556387
v -26.082947 -1.667260 -23.556387
v -26.933472 -1.667260 -23.556387
v -34.318432 0.695680 -27.582449
v -34.969994 0.695680 -27.582449
v -34.318432 0.695680 -26.916079
v -34.969994 0.695680 -26.341974
v -34.318432 0.695680 -26.341974
v -34.318432 -1.661051 -26.341974
v -34.969994 -1.661051 -26.341974
v -34.318432 -1.661051 -27.582449
v -34.318432 -1.661051 -26.950817
v -34.969994 -1.661051 -27.582449
v -34.318432 0.695680 -26.310156
v -34.969994 0.695680 -26.310156
v -34.318432 0.695680 -25.643787
v -34.969994 0.695680 -25.069681
v -34.318432 0.695680 -25.069681
v -34.318432 -1.661051 -25.069681
v -34.969994 -1.661051 -25.069681
v -34.318432 -1.661051 -26.310156
v -34.318432 -1.661051 -25.678524
v -34.969994 -1.661051 -26.310156
v -34.318432 0.695680 -21.632507
v -34.969994 0.695680 -21.632507
v -34.318432 0.695680 -20.966137
v -34.969994 0.695680 -20.392033
v -34.318432 0.695680 -20.392031
v -34.318432 -1.661051 -20.392031
v -34.969994 -1.661051 -20.392033
v -34.318432 -1.661051 -21.632507
v -34.318432 -1.661051 -21.000875
v -34.969994 -1.661051 -21.632507
v -16.269497 -0.673750 -21.353033
v -17.120022 -0.673750 -21.353033
v -16.269497 -1.667260 -21.353033
v -17.120022 -1.667260 -21.353033
v -16.269495 -0.673750 -24.667332
v -17.120020 -0.673750 -24.667332
v -17.120020 -1.667260 -24.667332
v -17.352995 0.695680 -26.911703
v -17.352995 0.695680 -27.563267
v -18.019363 0.695680 -26.911703
v -18.593468 0.695680 -27.563267
v -18.593468 0.695680 -26.911703
v -18.593468 -1.661051 -26.911703
v -18.593468 -1.661051 -27.563267
v -17.352995 -1.661051 -26.911703
v -17.984625 -1.661051 -26.911703
v -17.352995 -1.661051 -27.563267
v -18.625286 0.695680 -26.911703
v -18.625286 0.695680 -27.563267
v -19.291656 0.695680 -26.911703
v -19.865761 0.695680 -27.563267
v -19.865763 0.695680 -26.911703
v -19.865763 -1.661051 -26.911703
v -19.865761 -1.661051 -27.563267
v -18.625286 -1.661051 -26.911703
v -19.256918 -1.661051 -26.911703
v -18.625286 -1.661051 -27.563267
v -16.269495 -1.667260 -24.667332
v -25.181572 -0.673750 -27.047470
v -24.331047 -0.673750 -27.047470
v -25.181572 -1.667260 -27.047470
v -24.331047 -1.667260 -27.047470
v -25.181572 -0.673750 -23.733173
v -24.331049 -0.673750 -23.733173
v -24.331049 -1.667260 -23.733173
v -25.181572 -1.667260 -23.733173
v -12.029225 -0.673750 -27.615726
v -12.029225 -0.673750 -26.765202
v -12.029225 -1.667260 -27.615726
v -12.029225 -1.667260 -26.765202
v -15.343525 -0.673750 -27.615726
v -15.343525 -0.673750 -26.765202
v -15.343525 -1.667260 -26.765202
v -7.149896 0.695680 -22.150131
v -6.498333 0.695680 -22.150131
v -7.149896 0.695680 -22.816500
v -6.498333 0.695680 -23.390606
v -7.149896 0.695680 -23.390606
v -7.149896 -1.661051 -23.390606
v -6.498333 -1.661051 -23.390606
v -7.149896 -1.661051 -22.150131
v -7.149896 -1.661051 -22.781761
v -6.498333 -1.661051 -22.150131
v -7.149896 0.695680 -20.877840
v -6.498333 0.695680 -20.877840
v -7.149896 0.695680 -21.544209
v -6.498333 0.695680 -22.118315
v -7.149896 0.695680 -22.118315
v -7.149896 -1.661051 -22.118315
v -6.498333 -1.661051 -22.118315
v -7.149896 -1.661051 -20.877840
v -7.149896 -1.661051 -21.509472
v -6.498333 -1.661051 -20.877840
v -15.343525 -1.667260 -27.615726
v -7.507104 -0.673750 -27.612925
v -7.507104 -0.673750 -26.762400
v -7.507104 -1.667260 -27.612925
v -7.507104 -1.667260 -26.762400
v -10.821404 -0.673750 -27.612923
v -10.821404 -0.673750 -26.762400
v -10.821404 -1.667260 -26.762400
v -10.821404 -1.667260 -27.612923
v -14.704607 0.695680 -25.146490
v -15.356171 0.695680 -25.146490
v -14.704607 0.695680 -24.480120
v -15.356171 0.695680 -23.906015
v -14.704607 0.695680 -23.906015
v -14.704607 -1.661051 -23.906015
v -15.356171 -1.661051 -23.906015
v -14.704607 -1.661051 -25.146490
v -14.704607 -1.661051 -24.514858
v -15.356171 -1.661051 -25.146490
v 67.032654 -0.673750 -27.591105
v 64.977631 -0.673750 -27.591105
v 67.032654 -0.673750 -26.870686
v 64.977631 -0.673750 -26.870686
v 67.883179 -0.673750 -27.591105
v 67.883179 -0.673750 -26.870686
v 64.977631 -1.667260 -26.870686
v 64.977631 -1.667260 -27.591105
v 67.032654 -1.667260 -26.870686
v 67.883179 -0.673750 -23.556387
v 67.032654 -0.673750 -23.556387
v 67.883179 -1.667260 -23.556387
v 67.032654 -1.667260 -23.556387
v 59.647697 0.695680 -27.582449
v 58.996136 0.695680 -27.582449
v 59.647697 0.695680 -26.916079
v 58.996136 0.695680 -26.341974
v 59.647697 0.695680 -26.341974
v 59.647697 -1.661051 -26.341974
v 58.996136 -1.661051 -26.341974
v 59.647697 -1.661051 -27.582449
v 59.647697 -1.661051 -26.950817
v 58.996136 -1.661051 -27.582449
v 59.647697 0.695680 -26.310156
v 58.996136 0.695680 -26.310156
v 59.647697 0.695680 -25.643787
v 58.996136 0.695680 -25.069681
v 59.647697 0.695680 -25.069681
v 59.647697 -1.661051 -25.069681
v 58.996136 -1.661051 -25.069681
v 59.647697 -1.661051 -26.310156
v 59.647697 -1.661051 -25.678524
v 58.996136 -1.661051 -26.310156
v 59.647697 0.695680 -21.632507
v 58.996136 0.695680 -21.632507
v 59.647697 0.695680 -20.966137
v 58.996132 0.695680 -20.392033
v 59.647697 0.695680 -20.392031
v 59.647697 -1.661051 -20.392031
v 58.996132 -1.661051 -20.392033
v 59.647697 -1.661051 -21.632507
v 59.647697 -1.661051 -21.000875
v 58.996136 -1.661051 -21.632507
v 77.696632 -0.673750 -21.353033
v 76.846107 -0.673750 -21.353033
v 77.696632 -1.667260 -21.353033
v 76.846107 -1.667260 -21.353033
v 77.696632 -0.673750 -24.667332
v 76.846107 -0.673750 -24.667332
v 76.846107 -1.667260 -24.667332
v 76.613129 0.695680 -26.911703
v 76.613129 0.695680 -27.563267
v 75.946762 0.695680 -26.911703
v 75.372658 0.695680 -27.563267
v 75.372658 0.695680 -26.911703
v 75.372658 -1.661051 -26.911703
v 75.372658 -1.661051 -27.563267
v 76.613129 -1.661051 -26.911703
v 75.981506 -1.661051 -26.911703
v 76.613129 -1.661051 -27.563267
v 75.340843 0.695680 -26.911703
v 75.340843 0.695680 -27.563267
v 74.674469 0.695680 -26.911703
v 74.100365 0.695680 -27.563267
v 74.100365 0.695680 -26.911703
v 74.100365 -1.661051 -26.911703
v 74.100365 -1.661051 -27.563267
v 75.340843 -1.661051 -26.911703
v 74.709213 -1.661051 -26.911703
v 75.340843 -1.661051 -27.563267
v 77.696632 -1.667260 -24.667332
v 68.784554 -0.673750 -27.047470
v 69.635078 -0.673750 -27.047470
v 68.784554 -1.667260 -27.047470
v 69.635078 -1.667260 -27.047470
v 68.784554 -0.673750 -23.733173
v 69.635078 -0.673750 -23.733173
v 69.635078 -1.667260 -23.733173
v 68.784554 -1.667260 -23.733173
v 81.936905 -0.673750 -27.615726
v 81.936905 -0.673750 -26.765202
v 81.936905 -1.667260 -27.615726
v 81.936905 -1.667260 -26.765202
v 78.622604 -0.673750 -27.615726
v 78.622604 -0.673750 -26.765202
v 78.622604 -1.667260 -26.765202
v 86.816231 0.695680 -22.150131
v 87.467796 0.695680 -22.150131
v 86.816231 0.695680 -22.816500
v 87.467796 0.695680 -23.390606
v 86.816231 0.695680 -23.390606
v 86.816231 -1.661051 -23.390606
v 87.467796 -1.661051 -23.390606
v 86.816231 -1.661051 -22.150131
v 86.816231 -1.661051 -22.781761
v 87.467796 -1.661051 -22.150131
v 86.816231 0.695680 -20.877840
v 87.467796 0.695680 -20.877840
v 86.816231 0.695680 -21.544209
v 87.467796 0.695680 -22.118315
v 86.816231 0.695680 -22.118315
v 86.816231 -1.661051 -22.118315
v 87.467796 -1.661051 -22.118315
v 86.816231 -1.661051 -20.877840
v 86.816231 -1.661051 -21.509472
v 87.467796 -1.661051 -20.877840
v 78.622604 -1.667260 -27.615726
v 86.459023 -0.673750 -27.612925
v 86.459023 -0.673750 -26.762400
v 86.459023 -1.667260 -27.612925
v 86.459023 -1.667260 -26.762400
v 83.144730 -0.673750 -27.612923
v 83.144730 -0.673750 -26.762400
v 83.144730 -1.667260 -26.762400
v 83.144730 -1.667260 -27.612923
v 79.261520 0.695680 -25.146490
v 78.609955 0.695680 -25.146490
v 79.261520 0.695680 -24.480120
v 78.609955 0.695680 -23.906015
v 79.261520 0.695680 -23.906015
v 79.261520 -1.661051 -23.906015
v 78.609955 -1.661051 -23.906015
v 79.261520 -1.661051 -25.146490
v 79.261520 -1.661051 -24.514858
v 78.609955 -1.661051 -25.146490
v 37.589287 -0.673750 -27.591105
v 35.534260 -0.673750 -27.591105
v 37.589287 -0.673750 -26.870686
v 35.534260 -0.673750 -26.870686
v 38.439812 -0.673750 -27.591105
v 38.439812 -0.673750 -26.870686
v 35.534260 -1.667260 -26.870686
v 35.534260 -1.667260 -27.591105
v 37.589287 -1.667260 -26.870686
v 38.439812 -0.673750 -23.556387
v 37.589287 -0.673750 -23.556387
v 38.439812 -1.667260 -23.556387
v 37.589287 -1.667260 -23.556387
v 30.204327 0.695680 -27.582449
v 29.552765 0.695680 -27.582449
v 30.204327 0.695680 -26.916079
v 29.552765 0.695680 -26.341974
v 30.204327 0.695680 -26.341974
v 30.204327 -1.661051 -26.341974
v 29.552765 -1.661051 -26.341974
v 30.204327 -1.661051 -27.582449
v 30.204327 -1.661051 -26.950817
v 29.552765 -1.661051 -27.582449
v 30.204327 0.695680 -26.310156
v 29.552765 0.695680 -26.310156
v 30.204327 0.695680 -25.643787
v 29.552765 0.695680 -25.069681
v 30.204327 0.695680 -25.069681
v 30.204327 -1.661051 -25.069681
v 29.552765 -1.661051 -25.069681
v 30.204327 -1.661051 -26.310156
v 30.204327 -1.661051 -25.678524
v 29.552765 -1.661051 -26.310156
v 30.204327 0.695680 -21.632507
v 29.552765 0.695680 -21.632507
v 30.204327 0.695680 -20.966137
v 29.552765 0.695680 -20.392033
v 30.204327 0.695680 -20.392031
v 30.204327 -1.661051 -20.392031
v 29.552765 -1.661051 -20.392033
v 30.204327 -1.661051 -21.632507
v 30.204327 -1.661051 -21.000875
v 29.552765 -1.661051 -21.632507
v 48.253262 -0.673750 -21.353033
v 47.402737 -0.673750 -21.353033
v 48.253262 -1.667260 -21.353033
v 47.402737 -1.667260 -21.353033
v 48.253265 -0.673750 -24.667332
v 47.402740 -0.673750 -24.667332
v 47.402740 -1.667260 -24.667332
v 47.169762 0.695680 -26.911703
v 47.169762 0.695680 -27.563267
v 46.503395 0.695680 -26.911703
v 45.929291 0.695680 -27.563267
v 45.929291 0.695680 -26.911703
v 45.929291 -1.661051 -26.911703
v 45.929291 -1.661051 -27.563267
v 47.169762 -1.661051 -26.911703
v 46.538132 -1.661051 -26.911703
v 47.169762 -1.661051 -27.563267
v 45.897472 0.695680 -26.911703
v 45.897472 0.695680 -27.563267
v 45.231102 0.695680 -26.911703
v 44.656998 0.695680 -27.563267
v 44.656998 0.695680 -26.911703
v 44.656998 -1.661051 -26.911703
v 44.656998 -1.661051 -27.563267
v 45.897472 -1.661051 -26.911703
v 45.265839 -1.661051 -26.911703
v 45.897472 -1.661051 -27.563267
v 48.253265 -1.667260 -24.667332
v 39.341187 -0.673750 -27.047470
v 40.191711 -0.673750 -27.047470
v 39.341187 -1.667260 -27.047470
v 40.191711 -1.667260 -27.047470
v 39.341187 -0.673750 -23.733173
v 40.191711 -0.673750 -23.733173
v 40.191711 -1.667260 -23.733173
v 39.341187 -1.667260 -23.733173
v 52.493534 -0.673750 -27.615726
v 52.493534 -0.673750 -26.765202
v 52.493534 -1.667260 -27.615726
v 52.493534 -1.667260 -26.765202
v 49.179234 -0.673750 -27.615726
v 49.179234 -0.673750 -26.765202
v 49.179234 -1.667260 -26.765202
v 57.372864 0.695680 -22.150131
v 58.024426 0.695680 -22.150131
v 57.372864 0.695680 -22.816500
v 58.024426 0.695680 -23.390606
v 57.372864 0.695680 -23.390606
v 57.372864 -1.661051 -23.390606
v 58.024426 -1.661051 -23.390606
v 57.372864 -1.661051 -22.150131
v 57.372864 -1.661051 -22.781761
v 58.024426 -1.661051 -22.150131
v 57.372864 0.695680 -20.877840
v 58.024426 0.695680 -20.877840
v 57.372864 0.695680 -21.544209
v 58.024426 0.695680 -22.118315
v 57.372864 0.695680 -22.118315
v 57.372864 -1.661051 -22.118315
v 58.024426 -1.661051 -22.118315
v 57.372864 -1.661051 -20.877840
v 57.372864 -1.661051 -21.509472
v 58.024426 -1.661051 -20.877840
v 49.179234 -1.667260 -27.615726
v 57.015656 -0.673750 -27.612925
v 57.015656 -0.673750 -26.762400
v 57.015656 -1.667260 -27.612925
v 57.015656 -1.667260 -26.762400
v 53.701355 -0.673750 -27.612923
v 53.701355 -0.673750 -26.762400
v 53.701355 -1.667260 -26.762400
v 53.701355 -1.667260 -27.612923
v 49.818153 0.695680 -25.146490
v 49.166588 0.695680 -25.146490
v 49.818153 0.695680 -24.480120
v 49.166588 0.695680 -23.906015
v 49.818153 0.695680 -23.906015
v 49.818153 -1.661051 -23.906015
v 49.166588 -1.661051 -23.906015
v 49.818153 -1.661051 -25.146490
v 49.818153 -1.661051 -24.514858
v 49.166588 -1.661051 -25.146490
v 102.619774 -0.673750 -27.591105
v 100.564743 -0.673750 -27.591105
v 102.619774 -0.673750 -26.870686
v 100.564743 -0.673750 -26.870686
v 103.470291 -0.673750 -27.591105
v 103.470291 -0.673750 -26.870686
v 100.564743 -1.667260 -26.870686
v 100.564743 -1.667260 -27.591105
v 102.619774 -1.667260 -26.870686
v 103.470291 -0.673750 -23.556387
v 102.619774 -0.673750 -23.556387
v 103.470291 -1.667260 -23.556387
v 102.619774 -1.667260 -23.556387
v 95.234810 0.695680 -27.582449
v 94.583252 0.695680 -27.582449
v 95.234810 0.695680 -26.916079
v 94.583252 0.695680 -26.341974
v 95.234810 0.695680 -26.341974
v 95.234810 -1.661051 -26.341974
v 94.583252 -1.661051 -26.341974
v 95.234810 -1.661051 -27.582449
v 95.234810 -1.661051 -26.950817
v 94.583252 -1.661051 -27.582449
v 95.234810 0.695680 -26.310156
v 94.583252 0.695680 -26.310156
v 95.234810 0.695680 -25.643787
v 94.583252 0.695680 -25.069681
v 95.234810 0.695680 -25.069681
v 95.234810 -1.661051 -25.069681
v 94.583252 -1.661051 -25.069681
v 95.234810 -1.661051 -26.310156
v 95.234810 -1.661051 -25.678524
v 94.583252 -1.661051 -26.310156
v 95.234810 0.695680 -21.632507
v 94.583252 0.695680 -21.632507
v 95.234810 0.695680 -20.966137
v 94.583252 0.695680 -20.392033
v 95.234810 0.695680 -20.392031
v 95.234810 -1.661051 -20.392031
v 94.583252 -1.661051 -20.392033
v 95.234810 -1.661051 -21.632507
v 95.234810 -1.661051 -21.000875
v 94.583252 -1.661051 -21.632507
v 113.283745 -0.673750 -21.353033
v 112.433220 -0.673750 -21.353033
v 113.283745 -1.667260 -21.353033
v 112.433220 -1.667260 -21.353033
v 113.283745 -0.673750 -24.667332
v 112.433220 -0.673750 -24.667332
v 112.433220 -1.667260 -24.667332
v 112.200249 0.695680 -26.911703
v 112.200249 0.695680 -27.563267
v 111.533875 0.695680 -26.911703
v 110.959778 0.695680 -27.563267
v 110.959778 0.695680 -26.911703
v 110.959778 -1.661051 -26.911703
v 110.959778 -1.661051 -27.563267
v 112.200249 -1.661051 -26.911703
v 111.568619 -1.661051 -26.911703
v 112.200249 -1.661051 -27.563267
v 110.927956 0.695680 -26.911703
v 110.927956 0.695680 -27.563267
v 110.261589 0.695680 -26.911703
v 109.687485 0.695680 -27.563267
v 109.687477 0.695680 -26.911703
v 109.687477 -1.661051 -26.911703
v 109.687485 -1.661051 -27.563267
v 110.927956 -1.661051 -26.911703
v 110.296326 -1.661051 -26.911703
v 110.927956 -1.661051 -27.563267
v 113.283745 -1.667260 -24.667332
v 104.371674 -0.673750 -27.047470
v 105.222198 -0.673750 -27.047470
v 104.371674 -1.667260 -27.047470
v 105.222198 -1.667260 -27.047470
v 104.371674 -0.673750 -23.733173
v 105.222198 -0.673750 -23.733173
v 105.222198 -1.667260 -23.733173
v 104.371674 -1.667260 -23.733173
v 117.524017 -0.673750 -27.615726
v 117.524017 -0.673750 -26.765202
v 117.524017 -1.667260 -27.615726
v 117.524017 -1.667260 -26.765202
v 114.209717 -0.673750 -27.615726
v 114.209717 -0.673750 -26.765202
v 114.209717 -1.667260 -26.765202
v 122.403343 0.695680 -22.150131
v 123.054909 0.695680 -22.150131
v 122.403343 0.695680 -22.816500
v 123.054909 0.695680 -23.390606
v 122.403351 0.695680 -23.390606
v 122.403351 -1.661051 -23.390606
v 123.054909 -1.661051 -23.390606
v 122.403343 -1.661051 -22.150131
v 122.403343 -1.661051 -22.781761
v 123.054909 -1.661051 -22.150131
v 122.403343 0.695680 -20.877840
v 123.054909 0.695680 -20.877840
v 122.403343 0.695680 -21.544209
v 123.054909 0.695680 -22.118315
v 122.403343 0.695680 -22.118315
v 122.403343 -1.661051 -22.118315
v 123.054909 -1.661051 -22.118315
v 122.403343 -1.661051 -20.877840
v 122.403343 -1.661051 -21.509472
v 123.054909 -1.661051 -20.877840
v 114.209717 -1.667260 -27.615726
v 122.046135 -0.673750 -27.612925
v 122.046135 -0.673750 -26.762400
v 122.046135 -1.667260 -27.612925
v 122.046135 -1.667260 -26.762400
v 118.731842 -0.673750 -27.612923
v 118.731842 -0.673750 -26.762400
v 118.731842 -1.667260 -26.762400
v 118.731842 -1.667260 -27.612923
v 114.848633 0.695680 -25.146490
v 114.197075 0.695680 -25.146490
v 114.848633 0.695680 -24.480120
v 114.197075 0.695680 -23.906015
v 114.848633 0.695680 -23.906015
v 114.848633 -1.661051 -23.906015
v 114.197075 -1.661051 -23.906015
v 114.848633 -1.661051 -25.146490
v 114.848633 -1.661051 -24.514858
v 114.197075 -1.661051 -25.146490
v 132.063156 -0.673750 -27.591105
v 130.008118 -0.673750 -27.591105
v 132.063156 -0.673750 -26.870686
v 130.008118 -0.673750 -26.870686
v 132.913681 -0.673750 -27.591105
v 132.913681 -0.673750 -26.870686
v 130.008118 -1.667260 -26.870686
v 130.008118 -1.667260 -27.591105
v 132.063156 -1.667260 -26.870686
v 132.913681 -0.673750 -23.556387
v 132.063156 -0.673750 -23.556387
v 132.913681 -1.667260 -23.556387
v 132.063156 -1.667260 -23.556387
v 124.678192 0.695680 -27.582449
v 124.026627 0.695680 -27.582449
v 124.678192 0.695680 -26.916079
v 124.026627 0.695680 -26.341974
v 124.678192 0.695680 -26.341974
v 124.678192 -1.661051 -26.341974
v 124.026627 -1.661051 -26.341974
v 124.678192 -1.661051 -27.582449
v 124.678192 -1.661051 -26.950817
v 124.026627 -1.661051 -27.582449
v 124.678192 0.695680 -26.310156
v 124.026627 0.695680 -26.310156
v 124.678192 0.695680 -25.643787
v 124.026627 0.695680 -25.069681
v 124.678192 0.695680 -25.069681
v 124.678192 -1.661051 -25.069681
v 124.026627 -1.661051 -25.069681
v 124.678192 -1.661051 -26.310156
v 124.678192 -1.661051 -25.678524
v 124.026627 -1.661051 -26.310156
v 124.678192 0.695680 -21.632507
v 124.026627 0.695680 -21.632507
v 124.678192 0.695680 -20.966137
v 124.026627 0.695680 -20.392033
v 124.678192 0.695680 -20.392031
v 124.678192 -1.661051 -20.392031
v 124.026627 -1.661051 -20.392033
v 124.678192 -1.661051 -21.632507
v 124.678192 -1.661051 -21.000875
v 124.026627 -1.661051 -21.632507
v 142.727127 -0.673750 -21.353033
v 141.876602 -0.673750 -21.353033
v 142.727127 -1.667260 -21.353033
v 141.876602 -1.667260 -21.353033
v 142.727127 -0.673750 -24.667332
v 141.876602 -0.673750 -24.667332
v 141.876602 -1.667260 -24.667332
v 141.643631 0.695680 -26.911703
v 141.643631 0.695680 -27.563267
v 140.977264 0.695680 -26.911703
v 140.403152 0.695680 -27.563267
v 140.403152 0.695680 -26.911703
v 140.403152 -1.661051 -26.911703
v 140.403152 -1.661051 -27.563267
v 141.643631 -1.661051 -26.911703
v 141.011993 -1.661051 -26.911703
v 141.643631 -1.661051 -27.563267
v 140.371338 0.695680 -26.911703
v 140.371338 0.695680 -27.563267
v 139.704971 0.695680 -26.911703
v 139.130859 0.695680 -27.563267
v 139.130859 0.695680 -26.911703
v 139.130859 -1.661051 -26.911703
v 139.130859 -1.661051 -27.563267
v 140.371338 -1.661051 -26.911703
v 139.739700 -1.661051 -26.911703
v 140.371338 -1.661051 -27.563267
v 142.727127 -1.667260 -24.667332
v 133.815048 -0.673750 -27.047470
v 134.665573 -0.673750 -27.047470
v 133.815048 -1.667260 -27.047470
v 134.665573 -1.667260 -27.047470
v 133.815048 -0.673750 -23.733173
v 134.665573 -0.673750 -23.733173
v 134.665573 -1.667260 -23.733173
v 133.815048 -1.667260 -23.733173
v 146.967392 -0.673750 -27.615726
v 146.967392 -0.673750 -26.765202
v 146.967392 -1.667260 -27.615726
v 146.967392 -1.667260 -26.765202
v 143.653107 -0.673750 -27.615726
v 143.653107 -0.673750 -26.765202
v 143.653107 -1.667260 -26.765202
v 151.846725 0.695680 -22.150131
v 152.498291 0.695680 -22.150131
v 151.846725 0.695680 -22.816500
v 152.498291 0.695680 -23.390606
v 151.846725 0.695680 -23.390606
v 151.846725 -1.661051 -23.390606
v 152.498291 -1.661051 -23.390606
v 151.846725 -1.661051 -22.150131
v 151.846725 -1.661051 -22.781761
v 152.498291 -1.661051 -22.150131
v 151.846725 0.695680 -20.877840
v 152.498291 0.695680 -20.877840
v 151.846725 0.695680 -21.544209
v 152.498291 0.695680 -22.118315
v 151.846725 0.695680 -22.118315
v 151.846725 -1.661051 -22.118315
v 152.498291 -1.661051 -22.118315
v 151.846725 -1.661051 -20.877840
v 151.846725 -1.661051 -21.509472
v 152.498291 -1.661051 -20.877840
v 143.653107 -1.667260 -27.615726
v 151.489517 -0.673750 -27.612925
v 151.489517 -0.673750 -26.762400
v 151.489517 -1.667260 -27.612925
v 151.489517 -1.667260 -26.762400
v 148.175217 -0.673750 -27.612923
v 148.175217 -0.673750 -26.762400
v 148.175217 -1.667260 -26.762400
v 148.175217 -1.667260 -27.612923
v 144.292023 0.695680 -25.146490
v 143.640457 0.695680 -25.146490
v 144.292023 0.695680 -24.480120
v 143.640457 0.695680 -23.906015
v 144.292023 0.695680 -23.906015
v 144.292023 -1.661051 -23.906015
v 143.640457 -1.661051 -23.906015
v 144.292023 -1.661051 -25.146490
v 144.292023 -1.661051 -24.514858
v 143.640457 -1.661051 -25.146490
vn -0.0000 1.0000 -0.0000
vn -1.0000 -0.0000 -0.0000
vn -0.0000 -0.0000 1.0000
vn 1.0000 -0.0000 -0.0000
vn -0.0000 -0.0000 -1.0000
vt 1.999001 1.974521
vt 0.000999 1.974521
vt 1.999001 1.693550
vt 0.000999 1.693550
vt 0.000500 1.977929
vt 0.000500 1.708033
vt 0.999501 1.977929
vt 0.999501 1.708033
vt 0.178876 1.699616
vt 0.000499 1.699616
vt 0.178876 0.993028
vt 0.000499 0.993028
vt 1.999001 1.695977
vt 0.000999 1.695977
vt 1.999001 1.006786
vt 0.000999 1.006786
vt 1.004233 1.699616
vt 0.728354 1.699616
vt 1.004233 0.993028
vt 0.728354 0.993028
vt 0.001499 2.005392
vt 0.001499 1.687310
vt 2.998501 1.687310
vt 2.998502 2.005392
vt 0.001499 1.687206
vt 0.001499 0.996017
vt 2.998501 0.996017
vt 2.998501 1.687206
vt 0.000500 1.912143
vt 0.000500 1.730389
vt 0.537152 1.912143
vt 0.999501 1.730389
vt 0.999501 1.912143
vt 0.999501 1.310000
vt 0.999501 1.140000
vt 0.000499 1.310000
vt 0.000499 1.140000
vt 0.000500 1.290000
vt 0.000499 1.030000
vt 0.999501 1.290000
vt 0.999501 1.550000
vt 0.999501 1.270000
vt 0.000499 1.550000
vt 0.000500 1.140000
vt 0.000500 1.310000
vt 0.999501 1.030000
vt 0.000499 1.270000
s 1
usemtl GCAB
f 1/1/1 2/2/1 3/3/1
f 4/4/1 3/3/1 2/2/1
f 5/5/1 1/6/1 6/7/1
f 3/8/1 6/7/1 1/6/1
f 4/9/2 2/10/2 7/11/2
f 8/12/2 7/11/2 2/10/2
f 3/13/3 4/14/3 9/15/3
f 7/16/3 9/15/3 4/14/3
f 10/17/3 11/18/3 12/19/3
f 13/20/3 12/19/3 11/18/3
f 6/21/1 3/22/1 11/23/1
f 11/23/1 10/24/1 6/21/1
f 3/25/2 9/26/2 13/27/2
f 13/27/2 11/28/2 3/25/2
f 14/29/1 15/30/1 16/31/1
f 17/32/1 18/33/1 16/31/1
f 18/34/3 17/35/3 19/36/3
f 20/37/3 19/36/3 17/35/3
f 14/38/4 16/39/4 21/40/4
f 19/41/4 22/42/4 18/43/4
f 15/44/5 14/45/5 23/35/5
f 21/34/5 23/35/5 14/45/5
f 16/39/4 22/46/4 21/40/4
f 16/31/1 15/30/1 17/32/1
f 16/47/4 18/43/4 22/42/4
f 24/29/1 25/30/1 26/31/1
f 27/32/1 28/33/1 26/31/1
f 28/34/3 27/35/3 29/36/3
f 30/37/3 29/36/3 27/35/3
f 24/38/4 26/39/4 31/40/4
f 29/41/4 32/42/4 28/43/4
f 25/44/5 24/45/5 33/35/5
f 31/34/5 33/35/5 24/45/5
f 26/39/4 32/46/4 31/40/4
f 26/31/1 25/30/1 27/32/1
f 26/47/4 28/43/4 32/42/4
f 34/29/1 35/30/1 36/31/1
f 37/32/1 38/33/1 36/31/1
f 38/34/3 37/35/3 39/36/3
f 40/37/3 39/36/3 37/35/3
f 34/38/4 36/39/4 41/40/4
f 39/41/4 42/42/4 38/43/4
f 35/44/5 34/45/5 43/35/5
f 41/34/5 43/35/5 34/45/5
f 36/39/4 42/46/4 41/40/4
f 36/31/1 35/30/1 37/32/1
f 36/47/4 38/43/4 42/42/4
f 44/17/3 45/18/3 46/19/3
f 47/20/3 46/19/3 45/18/3
f 48/21/1 49/22/1 45/23/1
f 45/23/1 44/24/1 48/21/1
f 49/25/2 50/26/2 47/27/2
f 47/27/2 45/28/2 49/25/2
f 51/29/1 52/30/1 53/31/1
f 54/32/1 55/33/1 53/31/1
f 55/34/2 54/35/2 56/36/2
f 57/37/2 56/36/2 54/35/2
f 51/38/3 53/39/3 58/40/3
f 56/41/3 59/42/3 55/43/3
f 52/44/4 51/45/4 60/35/4
f 58/34/4 60/35/4 51/45/4
f 53/39/3 59/46/3 58/40/3
f 53/31/1 52/30/1 54/32/1
f 53/47/3 55/43/3 59/42/3
f 61/29/1 62/30/1 63/31/1
f 64/32/1 65/33/1 63/31/1
f 65/34/2 64/35/2 66/36/2
f 67/37/2 66/36/2 64/35/2
f 61/38/3 63/39/3 68/40/3
f 66/41/3 69/42/3 65/43/3
f 62/44/4 61/45/4 70/35/4
f 68/34/4 70/35/4 61/45/4
f 63/39/3 69/46/3 68/40/3
f 63/31/1 62/30/1 64/32/1
f 63/47/3 65/43/3 69/42/3
f 49/18/5 48/17/5 71/19/5
f 71/19/5 50/20/5 49/18/5
f 72/17/5 73/18/5 74/19/5
f 75/20/5 74/19/5 73/18/5
f 76/21/1 77/22/1 73/23/1
f 73/23/1 72/24/1 76/21/1
f 77/25/4 78/26/4 75/27/4
f 75/27/4 73/28/4 77/25/4
f 77/18/3 76/17/3 79/19/3
f 79/19/3 78/20/3 77/18/3
f 80/17/4 81/18/4 82/19/4
f 83/20/4 82/19/4 81/18/4
f 84/21/1 85/22/1 81/23/1
f 81/23/1 80/24/1 84/21/1
f 85/25/3 86/26/3 83/27/3
f 83/27/3 81/28/3 85/25/3
f 87/29/1 88/30/1 89/31/1
f 90/32/1 91/33/1 89/31/1
f 91/34/5 90/35/5 92/36/5
f 93/37/5 92/36/5 90/35/5
f 87/38/2 89/39/2 94/40/2
f 92/41/2 95/42/2 91/43/2
f 88/44/3 87/45/3 96/35/3
f 94/34/3 96/35/3 87/45/3
f 89/39/2 95/46/2 94/40/2
f 89/31/1 88/30/1 90/32/1
f 89/47/2 91/43/2 95/42/2
f 97/29/1 98/30/1 99/31/1
f 100/32/1 101/33/1 99/31/1
f 101/34/5 100/35/5 102/36/5
f 103/37/5 102/36/5 100/35/5
f 97/38/2 99/39/2 104/40/2
f 102/41/2 105/42/2 101/43/2
f 98/44/3 97/45/3 106/35/3
f 104/34/3 106/35/3 97/45/3
f 99/39/2 105/46/2 104/40/2
f 99/31/1 98/30/1 100/32/1
f 99/47/2 101/43/2 105/42/2
f 85/18/2 84/17/2 107/19/2
f 107/19/2 86/20/2 85/18/2
f 108/17/4 109/18/4 110/19/4
f 111/20/4 110/19/4 109/18/4
f 112/21/1 113/22/1 109/23/1
f 109/23/1 108/24/1 112/21/1
f 113/25/3 114/26/3 111/27/3
f 111/27/3 109/28/3 113/25/3
f 113/18/2 112/17/2 115/19/2
f 115/19/2 114/20/2 113/18/2
f 116/29/1 117/30/1 118/31/1
f 119/32/1 120/33/1 118/31/1
f 120/34/3 119/35/3 121/36/3
f 122/37/3 121/36/3 119/35/3
f 116/38/4 118/39/4 123/40/4
f 121/41/4 124/42/4 120/43/4
f 117/44/5 116/45/5 125/35/5
f 123/34/5 125/35/5 116/45/5
f 118/39/4 124/46/4 123/40/4
f 118/31/1 117/30/1 119/32/1
f 118/47/4 120/43/4 124/42/4
f 126/1/1 127/2/1 128/3/1
f 129/4/1 128/3/1 127/2/1
f 130/5/1 126/6/1 131/7/1
f 128/8/1 131/7/1 126/6/1
f 129/9/2 127/10/2 132/11/2
f 133/12/2 132/11/2 127/10/2
f 128/13/3 129/14/3 134/15/3
f 132/16/3 134/15/3 129/14/3
f 135/17/3 136/18/3 137/19/3
f 138/20/3 137/19/3 136/18/3
f 131/21/1 128/22/1 136/23/1
f 136/23/1 135/24/1 131/21/1
f 128/25/2 134/26/2 138/27/2
f 138/27/2 136/28/2 128/25/2
f 139/29/1 140/30/1 141/31/1
f 142/32/1 143/33/1 141/31/1
f 143/34/3 142/35/3 144/36/3
f 145/37/3 144/36/3 142/35/3
f 139/38/4 141/39/4 146/40/4
f 144/41/4 147/42/4 143/43/4
f 140/44/5 139/45/5 148/35/5
f 146/34/5 148/35/5 139/45/5
f 141/39/4 147/46/4 146/40/4
f 141/31/1 140/30/1 142/32/1
f 141/47/4 143/43/4 147/42/4
f 149/29/1 150/30/1 151/31/1
f 152/32/1 153/33/1 151/31/1
f 153/34/3 152/35/3 154/36/3
f 155/37/3 154/36/3 152/35/3
f 149/38/4 151/39/4 156/40/4
f 154/41/4 157/42/4 153/43/4
f 150/44/5 149/45/5 158/35/5
f 156/34/5 158/35/5 149/45/5
f 151/39/4 157/46/4 156/40/4
f 151/31/1 150/30/1 152/32/1
f 151/47/4 153/43/4 157/42/4
f 159/29/1 160/30/1 161/31/1
f 162/32/1 163/33/1 161/31/1
f 163/34/3 162/35/3 164/36/3
f 165/37/3 164/36/3 162/35/3
f 159/38/4 161/39/4 166/40/4
f 164/41/4 167/42/4 163/43/4
f 160/44/5 159/45/5 168/35/5
f 166/34/5 168/35/5 159/45/5
f 161/39/4 167/46/4 166/40/4
f 161/31/1 160/30/1 162/32/1
f 161/47/4 163/43/4 167/42/4
f 169/17/3 170/18/3 171/19/3
f 172/20/3 171/19/3 170/18/3
f 173/21/1 174/22/1 170/23/1
f 170/23/1 169/24/1 173/21/1
f 174/25/2 175/26/2 172/27/2
f 172/27/2 170/28/2 174/25/2
f 176/29/1 177/30/1 178/31/1
f 179/32/1 180/33/1 178/31/1
f 180/34/2 179/35/2 181/36/2
f 182/37/2 181/36/2 179/35/2
f 176/38/3 178/39/3 183/40/3
f 181/41/3 184/42/3 180/43/3
f 177/44/4 176/45/4 185/35/4
f 183/34/4 185/35/4 176/45/4
f 178/39/3 184/46/3 183/40/3
f 178/31/1 177/30/1 179/32/1
f 178/47/3 180/43/3 184/42/3
f 186/29/1 187/30/1 188/31/1
f 189/32/1 190/33/1 188/31/1
f 190/34/2 189/35/2 191/36/2
f 192/37/2 191/36/2 189/35/2
f 186/38/3 188/39/3 193/40/3
f 191/41/3 194/42/3 190/43/3
f 187/44/4 186/45/4 195/35/4
f 193/34/4 195/35/4 186/45/4
f 188/39/3 194/46/3 193/40/3
f 188/31/1 187/30/1 189/32/1
f 188/47/3 190/43/3 194/42/3
f 174/18/5 173/17/5 196/19/5
f 196/19/5 175/20/5 174/18/5
f 197/17/5 198/18/5 199/19/5
f 200/20/5 199/19/5 198/18/5
f 201/21/1 202/22/1 198/23/1
f 198/23/1 197/24/1 201/21/1
f 202/25/4 203/26/4 200/27/4
f 200/27/4 198/28/4 202/25/4
f 202/18/3 201/17/3 204/19/3
f 204/19/3 203/20/3 202/18/3
f 205/17/4 206/18/4 207/19/4
f 208/20/4 207/19/4 206/18/4
f 209/21/1 210/22/1 206/23/1
f 206/23/1 205/24/1 209/21/1
f 210/25/3 211/26/3 208/27/3
f 208/27/3 206/28/3 210/25/3
f 212/29/1 213/30/1 214/31/1
f 215/32/1 216/33/1 214/31/1
f 216/34/5 215/35/5 217/36/5
f 218/37/5 217/36/5 215/35/5
f 212/38/2 214/39/2 219/40/2
f 217/41/2 220/42/2 216/43/2
f 213/44/3 212/45/3 221/35/3
f 219/34/3 221/35/3 212/45/3
f 214/39/2 220/46/2 219/40/2
f 214/31/1 213/30/1 215/32/1
f 214/47/2 216/43/2 220/42/2
f 222/29/1 223/30/1 224/31/1
f 225/32/1 226/33/1 224/31/1
f 226/34/5 225/35/5 227/36/5
f 228/37/5 227/36/5 225/35/5
f 222/38/2 224/39/2 229/40/2
f 227/41/2 230/42/2 226/43/2
f 223/44/3 222/45/3 231/35/3
f 229/34/3 231/35/3 222/45/3
f 224/39/2 230/46/2 229/40/2
f 224/31/1 223/30/1 225/32/1
f 224/47/2 226/43/2 230/42/2
f 210/18/2 209/17/2 232/19/2
f 232/19/2 211/20/2 210/18/2
f 233/17/4 234/18/4 235/19/4
f 236/20/4 235/19/4 234/18/4
f 237/21/1 238/22/1 234/23/1
f 234/23/1 233/24/1 237/21/1
f 238/25/3 239/26/3 236/27/3
f 236/27/3 234/28/3 238/25/3
f 238/18/2 237/17/2 240/19/2
f 240/19/2 239/20/2 238/18/2
f 241/29/1 242/30/1 243/31/1
f 244/32/1 245/33/1 243/31/1
f 245/34/3 244/35/3 246/36/3
f 247/37/3 246/36/3 244/35/3
f 241/38/4 243/39/4 248/40/4
f 246/41/4 249/42/4 245/43/4
f 242/44/5 241/45/5 250/35/5
f 248/34/5 250/35/5 241/45/5
f 243/39/4 249/46/4 248/40/4
f 243/31/1 242/30/1 244/32/1
f 243/47/4 245/43/4 249/42/4
f 251/1/1 252/2/1 253/3/1
f 254/4/1 253/3/1 252/2/1
f 255/5/1 251/6/1 256/7/1
f 253/8/1 256/7/1 251/6/1
f 254/9/2 252/10/2 257/11/2
f 258/12/2 257/11/2 252/10/2
f 253/13/3 254/14/3 259/15/3
f 257/16/3 259/15/3 254/14/3
f 260/17/3 261/18/3 262/19/3
f 263/20/3 262/19/3 261/18/3
f 256/21/1 253/22/1 261/23/1
f 261/23/1 260/24/1 256/21/1
f 253/25/2 259/26/2 263/27/2
f 263/27/2 261/28/2 253/25/2
f 264/29/1 265/30/1 266/31/1
f 267/32/1 268/33/1 266/31/1
f 268/34/3 267/35/3 269/36/3
f 270/37/3 269/36/3 267/35/3
f 264/38/4 266/39/4 271/40/4
f 269/41/4 272/42/4 268/43/4
f 265/44/5 264/45/5 273/35/5
f 271/34/5 273/35/5 264/45/5
f 266/39/4 272/46/4 271/40/4
f 266/31/1 265/30/1 267/32/1
f 266/47/4 268/43/4 272/42/4
f 274/29/1 275/30/1 276/31/1
f 277/32/1 278/33/1 276/31/1
f 278/34/3 277/35/3 279/36/3
f 280/37/3 279/36/3 277/35/3
f 274/38/4 276/39/4 281/40/4
f 279/41/4 282/42/4 278/43/4
f 275/44/5 274/45/5 283/35/5
f 281/34/5 283/35/5 274/45/5
f 276/39/4 282/46/4 281/40/4
f 276/31/1 275/30/1 277/32/1
f 276/47/4 278/43/4 282/42/4
f 284/29/1 285/30/1 286/31/1
f 287/32/1 288/33/1 286/31/1
f 288/34/3 287/35/3 289/36/3
f 290/37/3 289/36/3 287/35/3
f 284/38/4 286/39/4 291/40/4
f 289/41/4 292/42/4 288/43/4
f 285/44/5 284/45/5 293/35/5
f 291/34/5 293/35/5 284/45/5
f 286/39/4 292/46/4 291/40/4
f 286/31/1 285/30/1 287/32/1
f 286/47/4 288/43/4 292/42/4
f 294/17/3 295/18/3 296/19/3
f 297/20/3 296/19/3 295/18/3
f 298/21/1 299/22/1 295/23/1
f 295/23/1 294/24/1 298/21/1
f 299/25/2 300/26/2 297/27/2
f 297/27/2 295/28/2 299/25/2
f 301/29/1 302/30/1 303/31/1
f 304/32/1 305/33/1 303/31/1
f 305/34/2 304/35/2 306/36/2
f 307/37/2 306/36/2 304/35/2
f 301/38/3 303/39/3 308/40/3
f 306/41/3 309/42/3 305/43/3
f 302/44/4 301/45/4 310/35/4
f 308/34/4 310/35/4 301/45/4
f 303/39/3 309/46/3 308/40/3
f 303/31/1 302/30/1 304/32/1
f 303/47/3 305/43/3 309/42/3
f 311/29/1 312/30/1 313/31/1
f 314/32/1 315/33/1 313/31/1
f 315/34/2 314/35/2 316/36/2
f 317/37/2 316/36/2 314/35/2
f 311/38/3 313/39/3 318/40/3
f 316/41/3 319/42/3 315/43/3
f 312/44/4 311/45/4 320/35/4
f 318/34/4 320/35/4 311/45/4
f 313/39/3 319/46/3 318/40/3
f 313/31/1 312/30/1 314/32/1
f 313/47/3 315/43/3 319/42/3
f 299/18/5 298/17/5 321/19/5
f 321/19/5 300/20/5 299/18/5
f 322/17/5 323/18/5 324/19/5
f 325/20/5 324/19/5 323/18/5
f 326/21/1 327/22/1 323/23/1
f 323/23/1 322/24/1 326/21/1
f 327/25/4 328/26/4 325/27/4
f 325/27/4 323/28/4 327/25/4
f 327/18/3 326/17/3 329/19/3
f 329/19/3 328/20/3 327/18/3
f 330/17/4 331/18/4 332/19/4
f 333/20/4 332/19/4 331/18/4
f 334/21/1 335/22/1 331/23/1
f 331/23/1 330/24/1 334/21/1
f 335/25/3 336/26/3 333/27/3
f 333/27/3 331/28/3 335/25/3
f 337/29/1 338/30/1 339/31/1
f 340/32/1 341/33/1 339/31/1
f 341/34/5 340/35/5 342/36/5
f 343/37/5 342/36/5 340/35/5
f 337/38/2 339/39/2 344/40/2
f 342/41/2 345/42/2 341/43/2
f 338/44/3 337/45/3 346/35/3
f 344/34/3 346/35/3 337/45/3
f 339/39/2 345/46/2 344/40/2
f 339/31/1 338/30/1 340/32/1
f 339/47/2 341/43/2 345/42/2
f 347/29/1 348/30/1 349/31/1
f 350/32/1 351/33/1 349/31/1
f 351/34/5 350/35/5 352/36/5
f 353/37/5 352/36/5 350/35/5
f 347/38/2 349/39/2 354/40/2
f 352/41/2 355/42/2 351/43/2
f 348/44/3 347/45/3 356/35/3
f 354/34/3 356/35/3 347/45/3
f 349/39/2 355/46/2 354/40/2
f 349/31/1 348/30/1 350/32/1
f 349/47/2 351/43/2 355/42/2
f 335/18/2 334/17/2 357/19/2
f 357/19/2 336/20/2 335/18/2
f 358/17/4 359/18/4 360/19/4
f 361/20/4 360/19/4 359/18/4
f 362/21/1 363/22/1 359/23/1
f 359/23/1 358/24/1 362/21/1
f 363/25/3 364/26/3 361/27/3
f 361/27/3 359/28/3 363/25/3
f 363/18/2 362/17/2 365/19/2
f 365/19/2 364/20/2 363/18/2
f 366/29/1 367/30/1 368/31/1
f 369/32/1 370/33/1 368/31/1
f 370/34/3 369/35/3 371/36/3
f 372/37/3 371/36/3 369/35/3
f 366/38/4 368/39/4 373/40/4
f 371/41/4 374/42/4 370/43/4
f 367/44/5 366/45/5 375/35/5
f 373/34/5 375/35/5 366/45/5
f 368/39/4 374/46/4 373/40/4
f 368/31/1 367/30/1 369/32/1
f 368/47/4 370/43/4 374/42/4
f 376/1/1 377/2/1 378/3/1
f 379/4/1 378/3/1 377/2/1
f 380/5/1 376/6/1 381/7/1
f 378/8/1 381/7/1 376/6/1
f 379/9/2 377/10/2 382/11/2
f 383/12/2 382/11/2 377/10/2
f 378/13/3 379/14/3 384/15/3
f 382/16/3 384/15/3 379/14/3
f 385/17/3 386/18/3 387/19/3
f 388/20/3 387/19/3 386/18/3
f 381/21/1 378/22/1 386/23/1
f 386/23/1 385/24/1 381/21/1
f 378/25/2 384/26/2 388/27/2
f 388/27/2 386/28/2 378/25/2
f 389/29/1 390/30/1 391/31/1
f 392/32/1 393/33/1 391/31/1
f 393/34/3 392/35/3 394/36/3
f 395/37/3 394/36/3 392/35/3
f 389/38/4 391/39/4 396/40/4
f 394/41/4 397/42/4 393/43/4
f 390/44/5 389/45/5 398/35/5
f 396/34/5 398/35/5 389/45/5
f 391/39/4 397/46/4 396/40/4
f 391/31/1 390/30/1 392/32/1
f 391/47/4 393/43/4 397/42/4
f 399/29/1 400/30/1 401/31/1
f 402/32/1 403/33/1 401/31/1
f 403/34/3 402/35/3 404/36/3
f 405/37/3 404/36/3 402/35/3
f 399/38/4 401/39/4 406/40/4
f 404/41/4 407/42/4 403/43/4
f 400/44/5 399/45/5 408/35/5
f 406/34/5 408/35/5 399/45/5
f 401/39/4 407/46/4 406/40/4
f 401/31/1 400/30/1 402/32/1
f 401/47/4 403/43/4 407/42/4
f 409/29/1 410/30/1 411/31/1
f 412/32/1 413/33/1 411/31/1
f 413/34/3 412/35/3 414/36/3
f 415/37/3 414/36/3 412/35/3
f 409/38/4 411/39/4 416/40/4
f 414/41/4 417/42/4 413/43/4
f 410/44/5 409/45/5 418/35/5
f 416/34/5 418/35/5 409/45/5
f 411/39/4 417/46/4 416/40/4
f 411/31/1 410/30/1 412/32/1
f 411/47/4 413/43/4 417/42/4
f 419/17/3 420/18/3 421/19/3
f 422/20/3 421/19/3 420/18/3
f 423/21/1 424/22/1 420/23/1
f 420/23/1 419/24/1 423/21/1
f 424/25/2 425/26/2 422/27/2
f 422/27/2 420/28/2 424/25/2
f 426/29/1 427/30/1 428/31/1
f 429/32/1 430/33/1 428/31/1
f 430/34/2 429/35/2 431/36/2
f 432/37/2 431/36/2 429/35/2
f 426/38/3 428/39/3 433/40/3
f 431/41/3 434/42/3 430/43/3
f 427/44/4 426/45/4 435/35/4
f 433/34/4 435/35/4 426/45/4
f 428/39/3 434/46/3 433/40/3
f 428/31/1 427/30/1 429/32/1
f 428/47/3 430/43/3 434/42/3
f 436/29/1 437/30/1 438/31/1
f 439/32/1 440/33/1 438/31/1
f 440/34/2 439/35/2 441/36/2
f 442/37/2 441/36/2 439/35/2
f 436/38/3 438/39/3 443/40/3
f 441/41/3 444/42/3 440/43/3
f 437/44/4 436/45/4 445/35/4
f 443/34/4 445/35/4 436/45/4
f 438/39/3 444/46/3 443/40/3
f 438/31/1 437/30/1 439/32/1
f 438/47/3 440/43/3 444/42/3
f 424/18/5 423/17/5 446/19/5
f 446/19/5 425/20/5 424/18/5
f 447/17/5 448/18/5 449/19/5
f 450/20/5 449/19/5 448/18/5
f 451/21/1 452/22/1 448/23/1
f 448/23/1 447/24/1 451/21/1
f 452/25/4 453/26/4 450/27/4
f 450/27/4 448/28/4 452/25/4
f 452/18/3 451/17/3 454/19/3
f 454/19/3 453/20/3 452/18/3
f 455/17/4 456/18/4 457/19/4
f 458/20/4 457/19/4 456/18/4
f 459/21/1 460/22/1 456/23/1
f 456/23/1 455/24/1 459/21/1
f 460/25/3 461/26/3 458/27/3
f 458/27/3 456/28/3 460/25/3
f 462/29/1 463/30/1 464/31/1
f 465/32/1 466/33/1 464/31/1
f 466/34/5 465/35/5 467/36/5
f 468/37/5 467/36/5 465/35/5
f 462/38/2 464/39/2 469/40/2
f 467/41/2 470/42/2 466/43/2
f 463/44/3 462/45/3 471/35/3
f 469/34/3 471/35/3 462/45/3
f 464/39/2 470/46/2 469/40/2
f 464/31/1 463/30/1 465/32/1
f 464/47/2 466/43/2 470/42/2
f 472/29/1 473/30/1 474/31/1
f 475/32/1 476/33/1 474/31/1
f 476/34/5 475/35/5 477/36/5
f 478/37/5 477/36/5 475/35/5
f 472/38/2 474/39/2 479/40/2
f 477/41/2 480/42/2 476/43/2
f 473/44/3 472/45/3 481/35/3
f 479/34/3 481/35/3 472/45/3
f 474/39/2 480/46/2 479/40/2
f 474/31/1 473/30/1 475/32/1
f 474/47/2 476/43/2 480/42/2
f 460/18/2 459/17/2 482/19/2
f 482/19/2 461/20/2 460/18/2
f 483/17/4 484/18/4 485/19/4
f 486/20/4 485/19/4 484/18/4
f 487/21/1 488/22/1 484/23/1
f 484/23/1 483/24/1 487/21/1
f 488/25/3 489/26/3 486/27/3
f 486/27/3 484/28/3 488/25/3
f 488/18/2 487/17/2 490/19/2
f 490/19/2 489/20/2 488/18/2
f 491/29/1 492/30/1 493/31/1
f 494/32/1 495/33/1 493/31/1
f 495/34/3 494/35/3 496/36/3
f 497/37/3 496/36/3 494/35/3
f 491/38/4 493/39/4 498/40/4
f 496/41/4 499/42/4 495/43/4
f 492/44/5 491/45/5 500/35/5
f 498/34/5 500/35/5 491/45/5
f 493/39/4 499/46/4 498/40/4
f 493/31/1 492/30/1 494/32/1
f 493/47/4 495/43/4 499/42/4
f 501/1/1 502/2/1 503/3/1
f 504/4/1 503/3/1 502/2/1
f 505/5/1 501/6/1 506/7/1
f 503/8/1 506/7/1 501/6/1
f 504/9/2 502/10/2 507/11/2
f 508/12/2 507/11/2 502/10/2
f 503/13/3 504/14/3 509/15/3
f 507/16/3 509/15/3 504/14/3
f 510/17/3 511/18/3 512/19/3
f 513/20/3 512/19/3 511/18/3
f 506/21/1 503/22/1 511/23/1
f 511/23/1 510/24/1 506/21/1
f 503/25/2 509/26/2 513/27/2
f 513/27/2 511/28/2 503/25/2
f 514/29/1 515/30/1 516/31/1
f 517/32/1 518/33/1 516/31/1
f 518/34/3 517/35/3 519/36/3
f 520/37/3 519/36/3 517/35/3
f 514/38/4 516/39/4 521/40/4
f 519/41/4 522/42/4 518/43/4
f 515/44/5 514/45/5 523/35/5
f 521/34/5 523/35/5 514/45/5
f 516/39/4 522/46/4 521/40/4
f 516/31/1 515/30/1 517/32/1
f 516/47/4 518/43/4 522/42/4
f 524/29/1 525/30/1 526/31/1
f 527/32/1 528/33/1 526/31/1
f 528/34/3 527/35/3 529/36/3
f 530/37/3 529/36/3 527/35/3
f 524/38/4 526/39/4 531/40/4
f 529/41/4 532/42/4 528/43/4
f 525/44/5 524/45/5 533/35/5
f 531/34/5 533/35/5 524/45/5
f 526/39/4 532/46/4 531/40/4
f 526/31/1 525/30/1 527/32/1
f 526/47/4 528/43/4 532/42/4
f 534/29/1 535/30/1 536/31/1
f 537/32/1 538/33/1 536/31/1
f 538/34/3 537/35/3 539/36/3
f 540/37/3 539/36/3 537/35/3
f 534/38/4 536/39/4 541/40/4
f 539/41/4 542/42/4 538/43/4
f 535/44/5 534/45/5 543/35/5
f 541/34/5 543/35/5 534/45/5
f 536/39/4 542/46/4 541/40/4
f 536/31/1 535/30/1 537/32/1
f 536/47/4 538/43/4 542/42/4
f 544/17/3 545/18/3 546/19/3
f 547/20/3 546/19/3 545/18/3
f 548/21/1 549/22/1 545/23/1
f 545/23/1 544/24/1 548/21/1
f 549/25/2 550/26/2 547/27/2
f 547/27/2 545/28/2 549/25/2
f 551/29/1 552/30/1 553/31/1
f 554/32/1 555/33/1 553/31/1
f 555/34/2 554/35/2 556/36/2
f 557/37/2 556/36/2 554/35/2
f 551/38/3 553/39/3 558/40/3
f 556/41/3 559/42/3 555/43/3
f 552/44/4 551/45/4 560/35/4
f 558/34/4 560/35/4 551/45/4
f 553/39/3 559/46/3 558/40/3
f 553/31/1 552/30/1 554/32/1
f 553/47/3 555/43/3 559/42/3
f 561/29/1 562/30/1 563/31/1
f 564/32/1 565/33/1 563/31/1
f 565/34/2 564/35/2 566/36/2
f 567/37/2 566/36/2 564/35/2
f 561/38/3 563/39/3 568/40/3
f 566/41/3 569/42/3 565/43/3
f 562/44/4 561/45/4 570/35/4
f 568/34/4 570/35/4 561/45/4
f 563/39/3 569/46/3 568/40/3
f 563/31/1 562/30/1 564/32/1
f 563/47/3 565/43/3 569/42/3
f 549/18/5 548/17/5 571/19/5
f 571/19/5 550/20/5 549/18/5
f 572/17/5 573/18/5 574/19/5
f 575/20/5 574/19/5 573/18/5
f 576/21/1 577/22/1 573/23/1
f 573/23/1 572/24/1 576/21/1
f 577/25/4 578/26/4 575/27/4
f 575/27/4 573/28/4 577/25/4
f 577/18/3 576/17/3 579/19/3
f 579/19/3 578/20/3 577/18/3
f 580/17/4 581/18/4 582/19/4
f 583/20/4 582/19/4 581/18/4
f 584/21/1 585/22/1 581/23/1
f 581/23/1 580/24/1 584/21/1
f 585/25/3 586/26/3 583/27/3
f 583/27/3 581/28/3 585/25/3
f 587/29/1 588/30/1 589/31/1
f 590/32/1 591/33/1 589/31/1
f 591/34/5 590/35/5 592/36/5
f 593/37/5 592/36/5 590/35/5
f 587/38/2 589/39/2 594/40/2
f 592/41/2 595/42/2 591/43/2
f 588/44/3 587/45/3 596/35/3
f 594/34/3 596/35/3 587/45/3
f 589/39/2 595/46/2 594/40/2
f 589/31/1 588/30/1 590/32/1
f 589/47/2 591/43/2 595/42/2
f 597/29/1 598/30/1 599/31/1
f 600/32/1 601/33/1 599/31/1
f 601/34/5 600/35/5 602/36/5
f 603/37/5 602/36/5 600/35/5
f 597/38/2 599/39/2 604/40/2
f 602/41/2 605/42/2 601/43/2
f 598/44/3 597/45/3 606/35/3
f 604/34/3 606/35/3 597/45/3
f 599/39/2 605/46/2 604/40/2
f 599/31/1 598/30/1 600/32/1
f 599/47/2 601/43/2 605/42/2
f 585/18/2 584/17/2 607/19/2
f 607/19/2 586/20/2 585/18/2
f 608/17/4 609/18/4 610/19/4
f 611/20/4 610/19/4 609/18/4
f 612/21/1 613/22/1 609/23/1
f 609/23/1 608/24/1 612/21/1
f 613/25/3 614/26/3 611/27/3
f 611/27/3 609/28/3 613/25/3
f 613/18/2 612/17/2 615/19/2
f 615/19/2 614/20/2 613/18/2
f 616/29/1 617/30/1 618/31/1
f 619/32/1 620/33/1 618/31/1
f 620/34/3 619/35/3 621/36/3
f 622/37/3 621/36/3 619/35/3
f 616/38/4 618/39/4 623/40/4
f 621/41/4 624/42/4 620/43/4
f 617/44/5 616/45/5 625/35/5
f 623/34/5 625/35/5 616/45/5
f 618/39/4 624/46/4 623/40/4
f 618/31/1 617/30/1 619/32/1
f 618/47/4 620/43/4 624/42/4
f 626/1/1 627/2/1 628/3/1
f 629/4/1 628/3/1 627/2/1
f 630/5/1 626/6/1 631/7/1
f 628/8/1 631/7/1 626/6/1
f 629/9/2 627/10/2 632/11/2
f 633/12/2 632/11/2 627/10/2
f 628/13/3 629/14/3 634/15/3
f 632/16/3 634/15/3 629/14/3
f 635/17/3 636/18/3 637/19/3
f 638/20/3 637/19/3 636/18/3
f 631/21/1 628/22/1 636/23/1
f 636/23/1 635/24/1 631/21/1
f 628/25/2 634/26/2 638/27/2
f 638/27/2 636/28/2 628/25/2
f 639/29/1 640/30/1 641/31/1
f 642/32/1 643/33/1 641/31/1
f 643/34/3 642/35/3 644/36/3
f 645/37/3 644/36/3 642/35/3
f 639/38/4 641/39/4 646/40/4
f 644/41/4 647/42/4 643/43/4
f 640/44/5 639/45/5 648/35/5
f 646/34/5 648/35/5 639/45/5
f 641/39/4 647/46/4 646/40/4
f 641/31/1 640/30/1 642/32/1
f 641/47/4 643/43/4 647/42/4
f 649/29/1 650/30/1 651/31/1
f 652/32/1 653/33/1 651/31/1
f 653/34/3 652/35/3 654/36/3
f 655/37/3 654/36/3 652/35/3
f 649/38/4 651/39/4 656/40/4
f 654/41/4 657/42/4 653/43/4
f 650/44/5 649/45/5 658/35/5
f 656/34/5 658/35/5 649/45/5
f 651/39/4 657/46/4 656/40/4
f 651/31/1 650/30/1 652/32/1
f 651/47/4 653/43/4 657/42/4
f 659/29/1 660/30/1 661/31/1
f 662/32/1 663/33/1 661/31/1
f 663/34/3 662/35/3 664/36/3
f 665/37/3 664/36/3 662/35/3
f 659/38/4 661/39/4 666/40/4
f 664/41/4 667/42/4 663/43/4
f 660/44/5 659/45/5 668/35/5
f 666/34/5 668/35/5 659/45/5
f 661/39/4 667/46/4 666/40/4
f 661/31/1 660/30/1 662/32/1
f 661/47/4 663/43/4 667/42/4
f 669/17/3 670/18/3 671/19/3
f 672/20/3 671/19/3 670/18/3
f 673/21/1 674/22/1 670/23/1
f 670/23/1 669/24/1 673/21/1
f 674/25/2 675/26/2 672/27/2
f 672/27/2 670/28/2 674/25/2
f 676/29/1 677/30/1 678/31/1
f 679/32/1 680/33/1 678/31/1
f 680/34/2 679/35/2 681/36/2
f 682/37/2 681/36/2 679/35/2
f 676/38/3 678/39/3 683/40/3
f 681/41/3 684/42/3 680/43/3
f 677/44/4 676/45/4 685/35/4
f 683/34/4 685/35/4 676/45/4
f 678/39/3 684/46/3 683/40/3
f 678/31/1 677/30/1 679/32/1
f 678/47/3 680/43/3 684/42/3
f 686/29/1 687/30/1 688/31/1
f 689/32/1 690/33/1 688/31/1
f 690/34/2 689/35/2 691/36/2
f 692/37/2 691/36/2 689/35/2
f 686/38/3 688/39/3 693/40/3
f 691/41/3 694/42/3 690/43/3
f 687/44/4 686/45/4 695/35/4
f 693/34/4 695/35/4 686/45/4
f 688/39/3 694/46/3 693/40/3
f 688/31/1 687/30/1 689/32/1
f 688/47/3 690/43/3 694/42/3
f 674/18/5 673/17/5 696/19/5
f 696/19/5 675/20/5 674/18/5
f 697/17/5 698/18/5 699/19/5
f 700/20/5 699/19/5 698/18/5
f 701/21/1 702/22/1 698/23/1
f 698/23/1 697/24/1 701/21/1
f 702/25/4 703/26/4 700/27/4
f 700/27/4 698/28/4 702/25/4
f 702/18/3 701/17/3 704/19/3
f 704/19/3 703/20/3 702/18/3
f 705/17/4 706/18/4 707/19/4
f 708/20/4 707/19/4 706/18/4
f 709/21/1 710/22/1 706/23/1
f 706/23/1 705/24/1 709/21/1
f 710/25/3 711/26/3 708/27/3
f 708/27/3 706/28/3 710/25/3
f 712/29/1 713/30/1 714/31/1
f 715/32/1 716/33/1 714/31/1
f 716/34/5 715/35/5 717/36/5
f 718/37/5 717/36/5 715/35/5
f 712/38/2 714/39/2 719/40/2
f 717/41/2 720/42/2 716/43/2
f 713/44/3 712/45/3 721/35/3
f 719/34/3 721/35/3 712/45/3
f 714/39/2 720/46/2 719/40/2
f 714/31/1 713/30/1 715/32/1
f 714/47/2 716/43/2 720/42/2
f 722/29/1 723/30/1 724/31/1
f 725/32/1 726/33/1 724/31/1
f 726/34/5 725/35/5 727/36/5
f 728/37/5 727/36/5 725/35/5
f 722/38/2 724/39/2 729/40/2
f 727/41/2 730/42/2 726/43/2
f 723/44/3 722/45/3 731/35/3
f 729/34/3 731/35/3 722/45/3
f 724/39/2 730/46/2 729/40/2
f 724/31/1 723/30/1 725/32/1
f 724/47/2 726/43/2 730/42/2
f 710/18/2 709/17/2 732/19/2
f 732/19/2 711/20/2 710/18/2
f 733/17/4 734/18/4 735/19/4
f 736/20/4 735/19/4 734/18/4
f 737/21/1 738/22/1 734/23/1
f 734/23/1 733/24/1 737/21/1
f 738/25/3 739/26/3 736/27/3
f 736/27/3 734/28/3 738/25/3
f 738/18/2 737/17/2 740/19/2
f 740/19/2 739/20/2 738/18/2
f 741/29/1 742/30/1 743/31/1
f 744/32/1 745/33/1 743/31/1
f 745/34/3 744/35/3 746/36/3
f 747/37/3 746/36/3 744/35/3
f 741/38/4 743/39/4 748/40/4
f 746/41/4 749/42/4 745/43/4
f 742/44/5 741/45/5 750/35/5
f 748/34/5 750/35/5 741/45/5
f 743/39/4 749/46/4 748/40/4
f 743/31/1 742/30/1 744/32/1
f 743/47/4 745/43/4 749/42/4
