# Blender 4.4.3
# www.blender.org
mtllib GDOOR.mtl
o GDOOR
v 236.478455 15.732175 -403.073669
v 232.575592 15.732175 -400.627594
v 236.478455 13.087837 -403.073669
v 231.252731 15.732175 -399.798523
v 231.252731 16.628468 -399.798523
v 236.478455 16.628468 -403.073669
v 231.252731 13.087837 -399.798523
v -87.970894 12.790270 -689.727295
v -92.576920 12.790270 -689.739929
v -87.970894 10.145932 -689.727295
v -94.138115 12.790270 -689.744202
v -94.138115 13.686562 -689.744202
v -87.970894 13.686562 -689.727295
v -94.138115 10.145932 -689.744202
v 475.387573 -3.696522 -270.121063
v 467.738892 -3.696521 -267.840057
v 475.499207 -1.094090 -270.154358
v 467.819641 -1.094090 -267.864136
v 465.764832 -3.696521 -267.251343
v 460.832794 -3.696521 -265.780487
v 465.953308 -1.094090 -267.307556
v 460.819641 -1.094090 -265.776581
v -192.289658 9.555318 -666.912476
v -192.421631 9.555319 -658.932007
v -192.287735 12.157748 -667.028931
v -192.420242 12.157749 -659.016296
v -192.455688 9.555319 -656.872314
v -192.540802 9.555319 -651.726318
v -192.452438 12.157749 -657.068970
v -192.541016 12.157749 -651.712646
v -212.414276 9.563180 -708.675903
v -217.619324 9.563180 -713.298035
v -212.338318 12.625346 -708.608398
v -217.564362 12.625346 -713.249207
v -218.962708 9.563179 -714.490967
v -222.319031 9.563179 -717.471436
v -218.834427 12.625345 -714.377075
v -222.327972 12.625345 -717.479370
v 148.248322 -0.967899 -20.140203
v 148.248322 -1.669177 -20.140203
v 152.522003 -0.967899 -20.140203
v 152.522003 -1.669177 -20.140203
v 148.248322 0.227237 -20.140203
v 152.522003 0.227238 -20.140203
v 148.248322 0.855701 -20.140203
v 152.522003 0.855701 -20.140203
v 148.248337 1.440228 -20.140203
v 152.522018 1.440228 -20.140203
v 143.633423 -0.967900 -20.140203
v 143.633423 -1.669178 -20.140203
v 147.907104 -0.967899 -20.140203
v 147.907104 -1.669177 -20.140203
v 143.633423 0.227237 -20.140203
v 147.907104 0.227238 -20.140203
v 143.633423 0.855700 -20.140203
v 147.907104 0.855701 -20.140203
v 143.633423 1.440228 -20.140203
v 147.907104 1.440228 -20.140203
v 138.435150 -0.967899 -20.140205
v 138.435150 -1.669177 -20.140205
v 142.708832 -0.967899 -20.140205
v 142.708832 -1.669177 -20.140205
v 138.435150 0.227237 -20.140205
v 142.708832 0.227238 -20.140205
v 138.435150 0.855701 -20.140205
v 142.708832 0.855701 -20.140205
v 138.435150 1.440228 -20.140205
v 142.708832 1.440228 -20.140205
v 133.820251 -0.967900 -20.140205
v 133.820251 -1.669178 -20.140205
v 138.093933 -0.967899 -20.140205
v 138.093933 -1.669177 -20.140205
v 133.820251 0.227237 -20.140205
v 138.093933 0.227238 -20.140205
v 133.820251 0.855700 -20.140205
v 138.093933 0.855701 -20.140205
v 133.820251 1.440228 -20.140205
v 138.093933 1.440228 -20.140205
v 128.621704 -0.967899 -20.140207
v 128.621704 -1.669177 -20.140207
v 132.895386 -0.967899 -20.140205
v 132.895386 -1.669177 -20.140205
v 128.621704 0.227237 -20.140207
v 132.895386 0.227238 -20.140205
v 128.621704 0.855701 -20.140207
v 132.895386 0.855701 -20.140205
v 128.621704 1.440228 -20.140207
v 132.895386 1.440228 -20.140205
v 124.006790 -0.967900 -20.140207
v 124.006790 -1.669178 -20.140207
v 128.280472 -0.967899 -20.140207
v 128.280472 -1.669177 -20.140207
v 124.006790 0.227237 -20.140207
v 128.280472 0.227238 -20.140207
v 124.006790 0.855700 -20.140207
v 128.280472 0.855701 -20.140207
v 124.006790 1.440228 -20.140207
v 128.280472 1.440228 -20.140207
v 118.804947 -0.967899 -20.140203
v 118.804947 -1.669177 -20.140203
v 123.078629 -0.967899 -20.140203
v 123.078629 -1.669177 -20.140203
v 118.804947 0.227237 -20.140203
v 123.078629 0.227238 -20.140203
v 118.804947 0.855701 -20.140203
v 123.078629 0.855701 -20.140203
v 118.804947 1.440228 -20.140203
v 123.078629 1.440228 -20.140203
v 114.190041 -0.967900 -20.140203
v 114.190041 -1.669178 -20.140203
v 118.463722 -0.967899 -20.140203
v 118.463722 -1.669177 -20.140203
v 114.190041 0.227237 -20.140203
v 118.463722 0.227238 -20.140203
v 114.190041 0.855700 -20.140203
v 118.463722 0.855701 -20.140203
v 114.190041 1.440228 -20.140203
v 118.463722 1.440228 -20.140203
v 108.991768 -0.967899 -20.140205
v 108.991768 -1.669177 -20.140205
v 113.265450 -0.967899 -20.140205
v 113.265450 -1.669177 -20.140205
v 108.991768 0.227237 -20.140205
v 113.265450 0.227238 -20.140205
v 108.991768 0.855701 -20.140205
v 113.265450 0.855701 -20.140205
v 108.991768 1.440228 -20.140205
v 113.265457 1.440228 -20.140205
v 104.376862 -0.967900 -20.140205
v 104.376862 -1.669178 -20.140205
v 108.650543 -0.967899 -20.140205
v 108.650543 -1.669177 -20.140205
v 104.376862 0.227237 -20.140205
v 108.650543 0.227238 -20.140205
v 104.376862 0.855700 -20.140205
v 108.650543 0.855701 -20.140205
v 104.376862 1.440228 -20.140205
v 108.650543 1.440228 -20.140205
v 99.178314 -0.967899 -20.140207
v 99.178314 -1.669177 -20.140207
v 103.451996 -0.967899 -20.140205
v 103.451996 -1.669177 -20.140205
v 99.178314 0.227237 -20.140207
v 103.451996 0.227238 -20.140205
v 99.178314 0.855701 -20.140207
v 103.452003 0.855701 -20.140205
v 99.178314 1.440228 -20.140207
v 103.452003 1.440228 -20.140205
v 94.563408 -0.967900 -20.140207
v 94.563408 -1.669178 -20.140207
v 98.837097 -0.967899 -20.140205
v 98.837097 -1.669177 -20.140205
v 94.563408 0.227237 -20.140207
v 98.837097 0.227238 -20.140205
v 94.563408 0.855700 -20.140207
v 98.837097 0.855701 -20.140205
v 94.563408 1.440228 -20.140207
v 98.837097 1.440228 -20.140205
v 83.217827 -0.967899 -20.140203
v 83.217827 -1.669177 -20.140203
v 87.491508 -0.967899 -20.140203
v 87.491508 -1.669177 -20.140203
v 83.217827 0.227237 -20.140203
v 87.491508 0.227238 -20.140203
v 83.217827 0.855701 -20.140203
v 87.491508 0.855701 -20.140203
v 83.217827 1.440228 -20.140203
v 87.491508 1.440228 -20.140203
v 78.602921 -0.967900 -20.140205
v 78.602921 -1.669178 -20.140205
v 82.876602 -0.967899 -20.140203
v 82.876602 -1.669177 -20.140203
v 78.602921 0.227237 -20.140205
v 82.876602 0.227238 -20.140203
v 78.602921 0.855700 -20.140205
v 82.876602 0.855701 -20.140203
v 78.602921 1.440228 -20.140205
v 82.876602 1.440228 -20.140203
v 73.404648 -0.967899 -20.140205
v 73.404648 -1.669177 -20.140205
v 77.678329 -0.967899 -20.140205
v 77.678329 -1.669177 -20.140205
v 73.404648 0.227237 -20.140205
v 77.678329 0.227238 -20.140205
v 73.404648 0.855701 -20.140205
v 77.678329 0.855701 -20.140205
v 73.404648 1.440228 -20.140205
v 77.678337 1.440228 -20.140205
v 68.789742 -0.967900 -20.140205
v 68.789742 -1.669178 -20.140205
v 73.063423 -0.967899 -20.140205
v 73.063423 -1.669177 -20.140205
v 68.789742 0.227237 -20.140205
v 73.063423 0.227238 -20.140205
v 68.789742 0.855700 -20.140205
v 73.063431 0.855701 -20.140205
v 68.789742 1.440228 -20.140205
v 73.063431 1.440228 -20.140205
v 63.591194 -0.967899 -20.140207
v 63.591198 -1.669177 -20.140207
v 67.864883 -0.967899 -20.140205
v 67.864883 -1.669177 -20.140205
v 63.591198 0.227237 -20.140207
v 67.864883 0.227238 -20.140205
v 63.591198 0.855701 -20.140207
v 67.864883 0.855701 -20.140205
v 63.591198 1.440228 -20.140207
v 67.864883 1.440228 -20.140205
v 58.976292 -0.967900 -20.140207
v 58.976292 -1.669178 -20.140207
v 63.249973 -0.967899 -20.140207
v 63.249973 -1.669177 -20.140207
v 58.976292 0.227237 -20.140207
v 63.249973 0.227238 -20.140207
v 58.976292 0.855700 -20.140207
v 63.249977 0.855701 -20.140207
v 58.976292 1.440228 -20.140207
v 63.249977 1.440228 -20.140207
v 53.774452 -0.967899 -20.140203
v 53.774452 -1.669177 -20.140203
v 58.048138 -0.967899 -20.140203
v 58.048138 -1.669177 -20.140203
v 53.774452 0.227237 -20.140203
v 58.048138 0.227238 -20.140203
v 53.774452 0.855701 -20.140203
v 58.048138 0.855701 -20.140203
v 53.774456 1.440228 -20.140203
v 58.048141 1.440228 -20.140203
v 49.159550 -0.967900 -20.140203
v 49.159550 -1.669178 -20.140203
v 53.433231 -0.967899 -20.140203
v 53.433231 -1.669177 -20.140203
v 49.159550 0.227237 -20.140203
v 53.433231 0.227238 -20.140203
v 49.159550 0.855700 -20.140203
v 53.433231 0.855701 -20.140203
v 49.159550 1.440228 -20.140203
v 53.433235 1.440228 -20.140203
v 43.961277 -0.967899 -20.140205
v 43.961277 -1.669177 -20.140205
v 48.234962 -0.967899 -20.140205
v 48.234962 -1.669177 -20.140205
v 43.961277 0.227237 -20.140205
v 48.234962 0.227238 -20.140205
v 43.961277 0.855701 -20.140205
v 48.234962 0.855701 -20.140205
v 43.961281 1.440228 -20.140205
v 48.234962 1.440228 -20.140205
v 39.346375 -0.967900 -20.140205
v 39.346375 -1.669178 -20.140205
v 43.620056 -0.967899 -20.140205
v 43.620056 -1.669177 -20.140205
v 39.346375 0.227237 -20.140205
v 43.620056 0.227238 -20.140205
v 39.346375 0.855700 -20.140205
v 43.620056 0.855701 -20.140205
v 39.346375 1.440228 -20.140205
v 43.620056 1.440228 -20.140205
v 34.147827 -0.967899 -20.140207
v 34.147827 -1.669177 -20.140207
v 38.421509 -0.967899 -20.140205
v 38.421509 -1.669177 -20.140205
v 34.147827 0.227237 -20.140207
v 38.421509 0.227238 -20.140205
v 34.147827 0.855701 -20.140207
v 38.421509 0.855701 -20.140205
v 34.147827 1.440228 -20.140207
v 38.421509 1.440228 -20.140205
v 29.532921 -0.967900 -20.140207
v 29.532921 -1.669178 -20.140207
v 33.806602 -0.967899 -20.140207
v 33.806602 -1.669177 -20.140207
v 29.532921 0.227237 -20.140207
v 33.806602 0.227238 -20.140207
v 29.532921 0.855700 -20.140207
v 33.806602 0.855701 -20.140207
v 29.532923 1.440228 -20.140207
v 33.806606 1.440228 -20.140207
v 18.695097 -0.967899 -20.140203
v 18.695097 -1.669177 -20.140203
v 22.968781 -0.967899 -20.140203
v 22.968781 -1.669177 -20.140203
v 18.695097 0.227237 -20.140203
v 22.968781 0.227238 -20.140203
v 18.695097 0.855701 -20.140203
v 22.968781 0.855701 -20.140203
v 18.695099 1.440228 -20.140203
v 22.968784 1.440228 -20.140203
v 14.080193 -0.967900 -20.140205
v 14.080193 -1.669178 -20.140205
v 18.353876 -0.967899 -20.140203
v 18.353876 -1.669177 -20.140203
v 14.080193 0.227237 -20.140205
v 18.353876 0.227238 -20.140203
v 14.080194 0.855700 -20.140205
v 18.353876 0.855701 -20.140203
v 14.080194 1.440228 -20.140205
v 18.353878 1.440228 -20.140203
v 8.881921 -0.967899 -20.140205
v 8.881921 -1.669177 -20.140205
v 13.155603 -0.967899 -20.140205
v 13.155603 -1.669177 -20.140205
v 8.881921 0.227237 -20.140205
v 13.155603 0.227238 -20.140205
v 8.881921 0.855701 -20.140205
v 13.155603 0.855701 -20.140205
v 8.881924 1.440228 -20.140205
v 13.155607 1.440228 -20.140205
v 4.267017 -0.967900 -20.140207
v 4.267017 -1.669178 -20.140207
v 8.540699 -0.967899 -20.140205
v 8.540699 -1.669177 -20.140205
v 4.267017 0.227237 -20.140207
v 8.540699 0.227238 -20.140205
v 4.267017 0.855700 -20.140207
v 8.540701 0.855701 -20.140205
v 4.267018 1.440228 -20.140207
v 8.540702 1.440228 -20.140205
v -0.931532 -0.967899 -20.140207
v -0.931531 -1.669177 -20.140207
v 3.342152 -0.967899 -20.140205
v 3.342152 -1.669177 -20.140205
v -0.931531 0.227237 -20.140207
v 3.342152 0.227238 -20.140205
v -0.931531 0.855701 -20.140207
v 3.342152 0.855701 -20.140205
v -0.931530 1.440228 -20.140207
v 3.342153 1.440228 -20.140205
v -5.546435 -0.967900 -20.140209
v -5.546435 -1.669178 -20.140209
v -1.272752 -0.967899 -20.140207
v -1.272752 -1.669177 -20.140207
v -5.546435 0.227237 -20.140209
v -1.272752 0.227238 -20.140207
v -5.546434 0.855700 -20.140209
v -1.272752 0.855701 -20.140207
v -5.546433 1.440228 -20.140209
v -1.272751 1.440228 -20.140207
v -10.748301 -0.967899 -20.140203
v -10.748301 -1.669177 -20.140203
v -6.474618 -0.967899 -20.140203
v -6.474618 -1.669177 -20.140203
v -10.748301 0.227237 -20.140203
v -6.474618 0.227238 -20.140203
v -10.748301 0.855701 -20.140203
v -6.474618 0.855701 -20.140203
v -10.748298 1.440228 -20.140203
v -6.474614 1.440228 -20.140203
v -15.363207 -0.967900 -20.140205
v -15.363207 -1.669178 -20.140205
v -11.089524 -0.967899 -20.140203
v -11.089524 -1.669177 -20.140203
v -15.363207 0.227237 -20.140205
v -11.089524 0.227238 -20.140203
v -15.363206 0.855700 -20.140205
v -11.089524 0.855701 -20.140203
v -15.363206 1.440228 -20.140205
v -11.089522 1.440228 -20.140203
v -20.561476 -0.967899 -20.140205
v -20.561476 -1.669177 -20.140205
v -16.287794 -0.967899 -20.140205
v -16.287794 -1.669177 -20.140205
v -20.561476 0.227237 -20.140205
v -16.287794 0.227238 -20.140205
v -20.561476 0.855701 -20.140205
v -16.287794 0.855701 -20.140205
v -20.561474 1.440228 -20.140205
v -16.287790 1.440228 -20.140205
v -25.176384 -0.967900 -20.140205
v -25.176384 -1.669178 -20.140205
v -20.902702 -0.967899 -20.140205
v -20.902702 -1.669177 -20.140205
v -25.176384 0.227237 -20.140205
v -20.902702 0.227238 -20.140205
v -25.176384 0.855700 -20.140205
v -20.902700 0.855701 -20.140205
v -25.176382 1.440228 -20.140205
v -20.902699 1.440228 -20.140205
v -30.374929 -0.967899 -20.140207
v -30.374928 -1.669177 -20.140207
v -26.101246 -0.967899 -20.140205
v -26.101246 -1.669177 -20.140205
v -30.374928 0.227237 -20.140207
v -26.101246 0.227238 -20.140205
v -30.374928 0.855701 -20.140207
v -26.101246 0.855701 -20.140205
v -30.374928 1.440228 -20.140207
v -26.101244 1.440228 -20.140205
v -34.989838 -0.967900 -20.140207
v -34.989838 -1.669178 -20.140207
v -30.716152 -0.967899 -20.140207
v -30.716152 -1.669177 -20.140207
v -34.989838 0.227237 -20.140207
v -30.716152 0.227238 -20.140207
v -34.989838 0.855700 -20.140207
v -30.716152 0.855701 -20.140207
v -34.989834 1.440228 -20.140207
v -30.716152 1.440228 -20.140207
v 265.711365 16.261532 -412.991211
v 262.775604 16.261530 -417.675354
v 265.711365 13.087836 -412.991211
v 262.436188 16.261530 -418.216919
v 262.436188 16.628466 -418.216919
v 265.711365 16.628468 -412.991211
v 262.436188 13.087836 -418.216919
vn 0.5311 -0.0000 0.8473
vn -0.0027 -0.0000 1.0000
vn -0.0028 -0.0000 1.0000
vn -0.2858 -0.0000 -0.9583
vn -0.9999 -0.0000 -0.0165
vn 0.6640 -0.0000 -0.7477
vn -0.0000 -0.0000 1.0000
vn -0.8473 -0.0000 0.5311
vt 0.999501 1.746609
vt 0.253391 1.746609
vt 0.999501 1.000499
vt 0.000500 1.746609
vt 0.000500 1.999501
vt 0.999501 1.999501
vt 0.000500 1.000499
vt 0.985130 1.000500
vt 0.000500 1.000500
vt 0.999500 1.999501
vt 0.010896 1.999501
vt 0.962821 1.000500
vt 0.003055 1.000500
vt 0.000500 1.225809
vt 0.999500 1.225809
vt 0.999500 1.000499
vt 0.000500 1.609787
vt 0.999500 1.609786
vt 0.000500 1.811702
vt 0.999500 1.811701
vt 0.999500 1.999500
vt 0.999501 1.895968
vt 0.104032 1.895968
vt 0.000500 1.895968
s 1
usemtl GDOOR.006
f 1/1/1 2/2/1 3/3/1
f 4/4/1 2/2/1 5/5/1
f 1/1/1 5/5/1 2/2/1
f 6/6/1 5/5/1 1/1/1
f 4/4/1 3/3/1 2/2/1
f 7/7/1 3/3/1 4/4/1
f 8/1/2 9/2/2 10/3/3
f 11/4/3 9/2/2 12/5/3
f 8/1/2 12/5/3 9/2/2
f 13/6/2 12/5/3 8/1/2
f 11/4/3 10/3/3 9/2/2
f 14/7/2 10/3/3 11/4/3
f 15/8/4 16/9/4 17/10/4
f 16/9/4 18/11/4 17/10/4
f 19/12/4 20/13/4 21/6/4
f 20/13/4 22/5/4 21/6/4
f 23/8/5 24/9/5 25/10/5
f 24/9/5 26/11/5 25/10/5
f 27/12/5 28/13/5 29/6/5
f 28/13/5 30/5/5 29/6/5
f 31/8/6 32/9/6 33/10/6
f 32/9/6 34/11/6 33/10/6
f 35/12/6 36/13/6 37/6/6
f 36/13/6 38/5/6 37/6/6
f 39/14/7 40/9/7 41/15/7
f 42/16/7 41/15/7 40/9/7
f 43/17/7 39/14/7 44/18/7
f 41/15/7 44/18/7 39/14/7
f 45/19/7 43/17/7 46/20/7
f 44/18/7 46/20/7 43/17/7
f 47/5/7 45/19/7 48/21/7
f 46/20/7 48/21/7 45/19/7
f 49/14/7 50/9/7 51/15/7
f 52/16/7 51/15/7 50/9/7
f 53/17/7 49/14/7 54/18/7
f 51/15/7 54/18/7 49/14/7
f 55/19/7 53/17/7 56/20/7
f 54/18/7 56/20/7 53/17/7
f 57/5/7 55/19/7 58/21/7
f 56/20/7 58/21/7 55/19/7
f 59/14/7 60/9/7 61/15/7
f 62/16/7 61/15/7 60/9/7
f 63/17/7 59/14/7 64/18/7
f 61/15/7 64/18/7 59/14/7
f 65/19/7 63/17/7 66/20/7
f 64/18/7 66/20/7 63/17/7
f 67/5/7 65/19/7 68/21/7
f 66/20/7 68/21/7 65/19/7
f 69/14/7 70/9/7 71/15/7
f 72/16/7 71/15/7 70/9/7
f 73/17/7 69/14/7 74/18/7
f 71/15/7 74/18/7 69/14/7
f 75/19/7 73/17/7 76/20/7
f 74/18/7 76/20/7 73/17/7
f 77/5/7 75/19/7 78/21/7
f 76/20/7 78/21/7 75/19/7
f 79/14/7 80/9/7 81/15/7
f 82/16/7 81/15/7 80/9/7
f 83/17/7 79/14/7 84/18/7
f 81/15/7 84/18/7 79/14/7
f 85/19/7 83/17/7 86/20/7
f 84/18/7 86/20/7 83/17/7
f 87/5/7 85/19/7 88/21/7
f 86/20/7 88/21/7 85/19/7
f 89/14/7 90/9/7 91/15/7
f 92/16/7 91/15/7 90/9/7
f 93/17/7 89/14/7 94/18/7
f 91/15/7 94/18/7 89/14/7
f 95/19/7 93/17/7 96/20/7
f 94/18/7 96/20/7 93/17/7
f 97/5/7 95/19/7 98/21/7
f 96/20/7 98/21/7 95/19/7
f 99/14/7 100/9/7 101/15/7
f 102/16/7 101/15/7 100/9/7
f 103/17/7 99/14/7 104/18/7
f 101/15/7 104/18/7 99/14/7
f 105/19/7 103/17/7 106/20/7
f 104/18/7 106/20/7 103/17/7
f 107/5/7 105/19/7 108/21/7
f 106/20/7 108/21/7 105/19/7
f 109/14/7 110/9/7 111/15/7
f 112/16/7 111/15/7 110/9/7
f 113/17/7 109/14/7 114/18/7
f 111/15/7 114/18/7 109/14/7
f 115/19/7 113/17/7 116/20/7
f 114/18/7 116/20/7 113/17/7
f 117/5/7 115/19/7 118/21/7
f 116/20/7 118/21/7 115/19/7
f 119/14/7 120/9/7 121/15/7
f 122/16/7 121/15/7 120/9/7
f 123/17/7 119/14/7 124/18/7
f 121/15/7 124/18/7 119/14/7
f 125/19/7 123/17/7 126/20/7
f 124/18/7 126/20/7 123/17/7
f 127/5/7 125/19/7 128/21/7
f 126/20/7 128/21/7 125/19/7
f 129/14/7 130/9/7 131/15/7
f 132/16/7 131/15/7 130/9/7
f 133/17/7 129/14/7 134/18/7
f 131/15/7 134/18/7 129/14/7
f 135/19/7 133/17/7 136/20/7
f 134/18/7 136/20/7 133/17/7
f 137/5/7 135/19/7 138/21/7
f 136/20/7 138/21/7 135/19/7
f 139/14/7 140/9/7 141/15/7
f 142/16/7 141/15/7 140/9/7
f 143/17/7 139/14/7 144/18/7
f 141/15/7 144/18/7 139/14/7
f 145/19/7 143/17/7 146/20/7
f 144/18/7 146/20/7 143/17/7
f 147/5/7 145/19/7 148/21/7
f 146/20/7 148/21/7 145/19/7
f 149/14/7 150/9/7 151/15/7
f 152/16/7 151/15/7 150/9/7
f 153/17/7 149/14/7 154/18/7
f 151/15/7 154/18/7 149/14/7
f 155/19/7 153/17/7 156/20/7
f 154/18/7 156/20/7 153/17/7
f 157/5/7 155/19/7 158/21/7
f 156/20/7 158/21/7 155/19/7
f 159/14/7 160/9/7 161/15/7
f 162/16/7 161/15/7 160/9/7
f 163/17/7 159/14/7 164/18/7
f 161/15/7 164/18/7 159/14/7
f 165/19/7 163/17/7 166/20/7
f 164/18/7 166/20/7 163/17/7
f 167/5/7 165/19/7 168/21/7
f 166/20/7 168/21/7 165/19/7
f 169/14/7 170/9/7 171/15/7
f 172/16/7 171/15/7 170/9/7
f 173/17/7 169/14/7 174/18/7
f 171/15/7 174/18/7 169/14/7
f 175/19/7 173/17/7 176/20/7
f 174/18/7 176/20/7 173/17/7
f 177/5/7 175/19/7 178/21/7
f 176/20/7 178/21/7 175/19/7
f 179/14/7 180/9/7 181/15/7
f 182/16/7 181/15/7 180/9/7
f 183/17/7 179/14/7 184/18/7
f 181/15/7 184/18/7 179/14/7
f 185/19/7 183/17/7 186/20/7
f 184/18/7 186/20/7 183/17/7
f 187/5/7 185/19/7 188/21/7
f 186/20/7 188/21/7 185/19/7
f 189/14/7 190/9/7 191/15/7
f 192/16/7 191/15/7 190/9/7
f 193/17/7 189/14/7 194/18/7
f 191/15/7 194/18/7 189/14/7
f 195/19/7 193/17/7 196/20/7
f 194/18/7 196/20/7 193/17/7
f 197/5/7 195/19/7 198/21/7
f 196/20/7 198/21/7 195/19/7
f 199/14/7 200/9/7 201/15/7
f 202/16/7 201/15/7 200/9/7
f 203/17/7 199/14/7 204/18/7
f 201/15/7 204/18/7 199/14/7
f 205/19/7 203/17/7 206/20/7
f 204/18/7 206/20/7 203/17/7
f 207/5/7 205/19/7 208/21/7
f 206/20/7 208/21/7 205/19/7
f 209/14/7 210/9/7 211/15/7
f 212/16/7 211/15/7 210/9/7
f 213/17/7 209/14/7 214/18/7
f 211/15/7 214/18/7 209/14/7
f 215/19/7 213/17/7 216/20/7
f 214/18/7 216/20/7 213/17/7
f 217/5/7 215/19/7 218/21/7
f 216/20/7 218/21/7 215/19/7
f 219/14/7 220/9/7 221/15/7
f 222/16/7 221/15/7 220/9/7
f 223/17/7 219/14/7 224/18/7
f 221/15/7 224/18/7 219/14/7
f 225/19/7 223/17/7 226/20/7
f 224/18/7 226/20/7 223/17/7
f 227/5/7 225/19/7 228/21/7
f 226/20/7 228/21/7 225/19/7
f 229/14/7 230/9/7 231/15/7
f 232/16/7 231/15/7 230/9/7
f 233/17/7 229/14/7 234/18/7
f 231/15/7 234/18/7 229/14/7
f 235/19/7 233/17/7 236/20/7
f 234/18/7 236/20/7 233/17/7
f 237/5/7 235/19/7 238/21/7
f 236/20/7 238/21/7 235/19/7
f 239/14/7 240/9/7 241/15/7
f 242/16/7 241/15/7 240/9/7
f 243/17/7 239/14/7 244/18/7
f 241/15/7 244/18/7 239/14/7
f 245/19/7 243/17/7 246/20/7
f 244/18/7 246/20/7 243/17/7
f 247/5/7 245/19/7 248/21/7
f 246/20/7 248/21/7 245/19/7
f 249/14/7 250/9/7 251/15/7
f 252/16/7 251/15/7 250/9/7
f 253/17/7 249/14/7 254/18/7
f 251/15/7 254/18/7 249/14/7
f 255/19/7 253/17/7 256/20/7
f 254/18/7 256/20/7 253/17/7
f 257/5/7 255/19/7 258/21/7
f 256/20/7 258/21/7 255/19/7
f 259/14/7 260/9/7 261/15/7
f 262/16/7 261/15/7 260/9/7
f 263/17/7 259/14/7 264/18/7
f 261/15/7 264/18/7 259/14/7
f 265/19/7 263/17/7 266/20/7
f 264/18/7 266/20/7 263/17/7
f 267/5/7 265/19/7 268/21/7
f 266/20/7 268/21/7 265/19/7
f 269/14/7 270/9/7 271/15/7
f 272/16/7 271/15/7 270/9/7
f 273/17/7 269/14/7 274/18/7
f 271/15/7 274/18/7 269/14/7
f 275/19/7 273/17/7 276/20/7
f 274/18/7 276/20/7 273/17/7
f 277/5/7 275/19/7 278/21/7
f 276/20/7 278/21/7 275/19/7
f 279/14/7 280/9/7 281/15/7
f 282/16/7 281/15/7 280/9/7
f 283/17/7 279/14/7 284/18/7
f 281/15/7 284/18/7 279/14/7
f 285/19/7 283/17/7 286/20/7
f 284/18/7 286/20/7 283/17/7
f 287/5/7 285/19/7 288/21/7
f 286/20/7 288/21/7 285/19/7
f 289/14/7 290/9/7 291/15/7
f 292/16/7 291/15/7 290/9/7
f 293/17/7 289/14/7 294/18/7
f 291/15/7 294/18/7 289/14/7
f 295/19/7 293/17/7 296/20/7
f 294/18/7 296/20/7 293/17/7
f 297/5/7 295/19/7 298/21/7
f 296/20/7 298/21/7 295/19/7
f 299/14/7 300/9/7 301/15/7
f 302/16/7 301/15/7 300/9/7
f 303/17/7 299/14/7 304/18/7
f 301/15/7 304/18/7 299/14/7
f 305/19/7 303/17/7 306/20/7
f 304/18/7 306/20/7 303/17/7
f 307/5/7 305/19/7 308/21/7
f 306/20/7 308/21/7 305/19/7
f 309/14/7 310/9/7 311/15/7
f 312/16/7 311/15/7 310/9/7
f 313/17/7 309/14/7 314/18/7
f 311/15/7 314/18/7 309/14/7
f 315/19/7 313/17/7 316/20/7
f 314/18/7 316/20/7 313/17/7
f 317/5/7 315/19/7 318/21/7
f 316/20/7 318/21/7 315/19/7
f 319/14/7 320/9/7 321/15/7
f 322/16/7 321/15/7 320/9/7
f 323/17/7 319/14/7 324/18/7
f 321/15/7 324/18/7 319/14/7
f 325/19/7 323/17/7 326/20/7
f 324/18/7 326/20/7 323/17/7
f 327/5/7 325/19/7 328/21/7
f 326/20/7 328/21/7 325/19/7
f 329/14/7 330/9/7 331/15/7
f 332/16/7 331/15/7 330/9/7
f 333/17/7 329/14/7 334/18/7
f 331/15/7 334/18/7 329/14/7
f 335/19/7 333/17/7 336/20/7
f 334/18/7 336/20/7 333/17/7
f 337/5/7 335/19/7 338/21/7
f 336/20/7 338/21/7 335/19/7
f 339/14/7 340/9/7 341/15/7
f 342/16/7 341/15/7 340/9/7
f 343/17/7 339/14/7 344/18/7
f 341/15/7 344/18/7 339/14/7
f 345/19/7 343/17/7 346/20/7
f 344/18/7 346/20/7 343/17/7
f 347/5/7 345/19/7 348/21/7
f 346/20/7 348/21/7 345/19/7
f 349/14/7 350/9/7 351/15/7
f 352/16/7 351/15/7 350/9/7
f 353/17/7 349/14/7 354/18/7
f 351/15/7 354/18/7 349/14/7
f 355/19/7 353/17/7 356/20/7
f 354/18/7 356/20/7 353/17/7
f 357/5/7 355/19/7 358/21/7
f 356/20/7 358/21/7 355/19/7
f 359/14/7 360/9/7 361/15/7
f 362/16/7 361/15/7 360/9/7
f 363/17/7 359/14/7 364/18/7
f 361/15/7 364/18/7 359/14/7
f 365/19/7 363/17/7 366/20/7
f 364/18/7 366/20/7 363/17/7
f 367/5/7 365/19/7 368/21/7
f 366/20/7 368/21/7 365/19/7
f 369/14/7 370/9/7 371/15/7
f 372/16/7 371/15/7 370/9/7
f 373/17/7 369/14/7 374/18/7
f 371/15/7 374/18/7 369/14/7
f 375/19/7 373/17/7 376/20/7
f 374/18/7 376/20/7 373/17/7
f 377/5/7 375/19/7 378/21/7
f 376/20/7 378/21/7 375/19/7
f 379/14/7 380/9/7 381/15/7
f 382/16/7 381/15/7 380/9/7
f 383/17/7 379/14/7 384/18/7
f 381/15/7 384/18/7 379/14/7
f 385/19/7 383/17/7 386/20/7
f 384/18/7 386/20/7 383/17/7
f 387/5/7 385/19/7 388/21/7
f 386/20/7 388/21/7 385/19/7
f 389/14/7 390/9/7 391/15/7
f 392/16/7 391/15/7 390/9/7
f 393/17/7 389/14/7 394/18/7
f 391/15/7 394/18/7 389/14/7
f 395/19/7 393/17/7 396/20/7
f 394/18/7 396/20/7 393/17/7
f 397/5/7 395/19/7 398/21/7
f 396/20/7 398/21/7 395/19/7
f 399/22/8 400/23/8 401/3/8
f 402/24/8 400/23/8 403/5/8
f 399/22/8 403/5/8 400/23/8
f 404/6/8 403/5/8 399/22/8
f 402/24/8 401/3/8 400/23/8
f 405/7/8 401/3/8 402/24/8
