# Blender 4.4.3
# www.blender.org
mtllib GRASSAX.mtl
o GRASSAX
v 555.933350 -3.276710 -123.433975
v 554.846619 -3.276711 -121.948906
v 556.333679 -3.276711 -122.002655
v 548.649719 -3.097390 -118.714050
v 557.957703 -3.166516 -116.196991
v 545.421265 -3.097382 -118.091362
v 559.424438 -3.189116 -110.953354
v 561.544312 -3.276721 -103.375153
v 542.274292 -3.276718 -117.137589
v 539.749939 -3.276718 -115.565544
v 559.878784 -3.276722 -95.370613
v 563.789246 -3.276722 -95.349716
v 536.864929 -3.049977 -113.982849
v 554.481445 -3.276722 -95.388390
v 548.913574 -3.276721 -95.365471
v 535.153015 -3.079978 -112.797775
v 534.158569 -3.097404 -112.109390
v 548.947327 -3.276721 -89.440208
v 532.784668 -3.184995 -110.930244
v 531.660156 -3.256687 -109.965141
v 527.392334 -2.870662 -104.958733
v 528.258911 -3.119534 -97.991493
v 548.967651 -3.276720 -72.091301
v 548.959900 -3.276719 -77.914421
v 529.278748 -3.276722 -89.791962
v 548.883423 -3.276719 -67.070343
v 529.396545 -3.097396 -107.573074
v 548.943481 -3.276721 -84.106499
v 530.227295 -3.276715 -82.165665
v 548.799133 -3.276718 -62.049397
v 548.714844 -3.276717 -57.028450
v 522.926697 -3.276719 -83.317184
v 515.488403 -3.110818 -84.490402
v 515.227295 -3.104995 -84.531593
v 515.118958 -3.097394 -84.348366
v 548.546265 -3.276716 -46.986538
v 548.630554 -3.276717 -52.007504
v 525.343140 -3.097404 -101.638229
v 522.787109 -3.192479 -97.315758
v 526.926208 -3.276718 -88.887543
v 524.782410 -3.426560 -88.063385
v 520.231018 -3.276713 -92.993279
v 521.911865 -3.276718 -86.959846
v 520.054016 -3.426565 -86.245590
v 517.674988 -3.276721 -88.670822
v 454.926666 -3.097394 -0.691074
v 466.348602 -3.276706 13.457129
v 478.933716 -3.276705 13.418051
v 446.992737 -3.276715 3.181579
v 455.614685 -3.276706 13.463165
v 439.715607 -3.276706 6.613522
v 443.355865 -3.276704 13.473816
v 430.329956 -3.276712 7.404263
v 435.019196 -3.276704 13.552027
v 423.841034 -3.097385 8.651063
v 425.357819 -3.276705 13.558105
v 418.004303 -3.097392 9.249874
v 419.200073 -3.276704 13.541752
v 411.691986 -3.097392 8.780939
v 412.219147 -3.276703 13.578894
v 405.480591 -3.276705 9.614037
v 405.855591 -3.276703 13.429550
v 481.890472 -3.276704 -28.156252
v 479.493835 -3.276711 -26.372873
v 531.576782 -3.276708 13.287361
v 476.502991 -3.276711 -22.339046
v 522.393250 -3.276708 13.274553
v 473.005219 -3.097396 -17.720116
v 509.700684 -3.276708 13.354044
v 468.797119 -3.097390 -12.908028
v 499.859619 -3.276707 13.344027
v 466.238708 -3.097388 -10.595888
v 488.345459 -3.276707 13.343037
v 460.367096 -3.097395 -4.980939
v 548.377686 -3.276715 -36.944626
v 512.179871 -3.276711 -67.401886
v 514.252869 -3.583817 -59.482384
v 548.293396 -3.276713 -31.923717
v 516.244690 -3.276715 -51.872921
v 548.209106 -3.276713 -26.902731
v 512.562927 -3.097400 -80.025894
v 510.006866 -3.097399 -75.703407
v 548.461975 -3.276715 -41.965591
v 518.169739 -3.472705 -44.518620
v 548.124878 -3.276713 -21.881763
v 520.039124 -3.177897 -37.376907
v 548.040588 -3.276710 -16.860828
v 521.861694 -3.276712 -30.414005
v 547.956299 -3.276711 -11.839882
v 523.644531 -3.276708 -23.603025
v 547.872009 -3.276708 -6.818890
v 547.703430 -3.276710 3.223000
v 527.112610 -3.215882 -10.353943
v 528.806335 -3.223305 -3.883251
v 547.619141 -3.276707 8.243954
v 530.478638 -3.276707 2.505405
v 547.532471 -3.276709 13.267262
v 525.393250 -3.583816 -16.922310
v 547.787720 -3.276708 -1.797962
v 499.782715 -3.097396 -58.413536
v 497.226685 -3.097396 -54.091072
v 500.970520 -2.951953 -51.348061
v 494.670654 -3.276715 -49.768608
v 502.128448 -3.229512 -44.460155
v 492.114624 -3.276705 -45.446114
v 503.260803 -3.276707 -37.724331
v 489.558563 -3.276713 -41.123657
v 504.371094 -3.276712 -31.119858
v 487.002533 -3.097392 -36.801182
v 505.462219 -2.993270 -24.629488
v 484.446503 -3.097385 -32.478718
v 506.536530 -3.467196 -18.238935
v 507.596375 -3.276706 -11.934479
v 504.894806 -3.276710 -67.058487
v 502.338776 -3.276716 -62.736019
v 506.551605 -3.276716 -59.445019
v 508.152466 -2.969788 -52.088585
v 509.706482 -2.982781 -44.947407
v 511.220917 -3.276714 -37.988125
v 512.701599 -3.583813 -31.184015
v 514.153198 -3.276711 -24.513403
v 515.579651 -3.023158 -17.958363
v 516.984192 -3.189747 -11.504089
v 518.370056 -3.276706 -5.135718
v 507.450836 -3.276711 -71.380936
vn -0.0000 1.0000 -0.0000
vn 0.0063 0.9998 -0.0178
vn -0.0004 0.9999 -0.0108
vn 0.0056 1.0000 0.0067
vn 0.0071 1.0000 -0.0059
vn -0.0251 0.9977 0.0630
vn -0.0072 0.9999 0.0139
vn -0.0203 0.9988 0.0455
vn -0.0022 1.0000 0.0031
vn 0.0298 0.9993 -0.0217
vn 0.0211 0.9997 -0.0087
vn 0.0023 1.0000 0.0015
vn 0.0061 1.0000 0.0060
vn -0.0063 0.9998 0.0162
vn -0.0197 0.9995 0.0228
vn 0.0017 1.0000 0.0012
vn -0.0365 0.9988 0.0317
vn -0.0004 1.0000 0.0045
vn 0.0230 0.9997 -0.0066
vn -0.0316 0.9990 0.0313
vn 0.0012 1.0000 0.0024
vn 0.0184 0.9998 -0.0011
vn -0.0079 0.9999 0.0117
vn 0.0499 0.9983 -0.0300
vn 0.0088 1.0000 -0.0009
vn -0.0012 1.0000 -0.0013
vn 0.0047 1.0000 -0.0009
vn 0.0083 0.9998 -0.0175
vn 0.0319 0.9991 -0.0284
vn 0.0264 0.9993 -0.0259
vn 0.0160 0.9998 -0.0134
vn 0.0032 1.0000 0.0018
vn 0.0049 1.0000 0.0001
vn 0.0053 1.0000 0.0001
vn -0.0311 0.9990 0.0325
vn -0.0068 0.9998 0.0198
vn -0.0277 0.9994 0.0186
vn -0.0044 1.0000 -0.0034
vn 0.0108 0.9998 0.0178
vn -0.0209 0.9998 -0.0007
vn 0.0017 0.9998 -0.0174
vn 0.0503 0.9987 0.0113
vn 0.0046 1.0000 0.0067
vn -0.0027 0.9999 0.0106
vn 0.0007 0.9999 0.0103
vn 0.0005 1.0000 0.0078
vn -0.0067 1.0000 0.0057
vn -0.0033 1.0000 0.0093
vn 0.0076 1.0000 0.0061
vn 0.0157 0.9993 0.0329
vn 0.0102 0.9997 0.0230
vn 0.0012 0.9992 0.0403
vn 0.0014 0.9992 0.0400
vn -0.0069 0.9995 0.0312
vn -0.0013 0.9993 0.0384
vn -0.0285 0.9996 0.0028
vn -0.0171 0.9997 0.0171
vn 0.0102 0.9999 -0.0095
vn 0.0131 0.9999 -0.0093
vn 0.0009 1.0000 0.0005
vn 0.0033 1.0000 0.0037
vn 0.0002 1.0000 0.0059
vn 0.0038 1.0000 0.0047
vn 0.0001 1.0000 0.0069
vn -0.0071 1.0000 0.0026
vn -0.0152 0.9994 0.0296
vn 0.0029 1.0000 0.0024
vn -0.0014 1.0000 -0.0019
vn 0.0278 0.9994 -0.0202
vn -0.0054 1.0000 0.0013
vn -0.0079 0.9999 0.0126
vn 0.0046 1.0000 0.0001
vn 0.0210 0.9997 -0.0090
vn 0.0017 1.0000 -0.0022
vn 0.0121 0.9998 -0.0134
vn 0.0006 1.0000 0.0008
vn -0.0181 0.9997 0.0152
vn -0.0093 0.9998 0.0179
vn -0.0108 0.9999 0.0031
vn 0.0028 1.0000 0.0001
vn 0.0190 0.9994 -0.0288
vn -0.0015 1.0000 0.0055
vn 0.0007 1.0000 0.0007
vn -0.0036 1.0000 0.0087
vn 0.0133 0.9999 -0.0082
vn -0.0006 1.0000 -0.0041
vn 0.0052 0.9996 -0.0282
vn -0.0370 0.9993 -0.0025
vn -0.0227 0.9997 0.0113
vn -0.0252 0.9996 0.0149
vn -0.0180 0.9995 0.0262
vn -0.0025 1.0000 0.0003
vn 0.0042 1.0000 0.0067
vn 0.0096 0.9999 -0.0143
vn 0.0273 0.9992 -0.0302
vn 0.0089 0.9998 -0.0180
vn -0.0028 0.9999 0.0132
vn -0.0077 0.9997 0.0225
vn -0.0175 0.9996 0.0228
vn -0.0040 0.9996 0.0292
vn -0.0004 0.9997 -0.0228
vn 0.0090 0.9999 0.0070
vn 0.0102 0.9999 -0.0130
vn 0.0278 0.9992 -0.0290
vn 0.0245 0.9995 -0.0213
vn 0.0100 0.9998 0.0152
vn -0.0128 0.9991 0.0401
vn 0.0005 1.0000 0.0005
vn 0.0256 0.9988 -0.0409
vn 0.0087 0.9999 -0.0058
vn -0.0106 0.9998 0.0165
vn -0.0076 0.9999 0.0146
vn -0.0129 0.9998 0.0153
vt 0.999501 1.000499
vt 0.961207 1.098637
vt 0.948586 1.001849
vt 0.914843 1.559038
vt 0.742070 1.007322
vt 0.925612 1.778756
vt 0.555546 1.012266
vt 0.924710 1.999501
vt 0.285977 1.019411
vt 0.000500 1.026977
vt 1.689287 0.897016
vt 1.661900 1.038094
vt 0.798970 0.368191
vt 0.760250 0.183793
vt 1.637670 1.196356
vt 0.852045 0.622854
vt 0.905435 0.886138
vt 1.615167 1.293684
vt 1.602095 1.350220
vt 0.709354 0.966920
vt 1.576501 1.431502
vt 1.555553 1.498030
vt 1.431660 1.769197
vt 1.193056 1.825131
vt 0.136001 1.207154
vt 0.328455 1.126565
vt 0.912250 1.890959
vt -0.029057 1.280939
vt 1.498539 1.638192
vt 0.533182 1.041256
vt 0.651076 1.952185
vt -0.194114 1.354724
vt -0.359171 1.428509
vt 0.760117 2.280978
vt 0.871213 2.615970
vt 0.875113 2.627729
vt 0.870114 2.635394
vt 0.752169 2.816207
vt -0.689287 1.576078
vt -0.524229 1.502294
vt 1.341889 1.912142
vt 1.223945 2.092955
vt 0.905250 2.014642
vt 0.898870 2.127349
vt 1.106001 2.273768
vt 0.890328 2.278264
vt 0.884799 2.375939
vt 0.988057 2.454581
vt 0.439506 0.817964
vt 0.179056 0.767456
vt 0.069062 1.537804
vt 0.391168 1.938231
vt -0.133159 0.625419
vt -0.204891 1.195494
vt -0.416121 0.491693
vt -0.517869 0.804663
vt -0.677943 0.214915
vt -0.732724 0.540913
vt -0.878817 0.043648
vt -0.979322 0.232825
vt -1.044676 -0.125403
vt -1.135919 0.035884
vt -1.192377 -0.340261
vt -1.315029 -0.185788
vt -1.374438 -0.514544
vt -1.473103 -0.393112
vt 1.645871 0.839801
vt 1.534155 0.814499
vt 1.737601 3.614141
vt 2.145139 4.122654
vt 1.343447 0.834801
vt 1.503727 3.320759
vt 1.123213 0.855717
vt 1.177733 2.918063
vt 0.879382 0.859510
vt 0.927008 2.603780
vt 0.748540 0.844215
vt 0.633354 2.236375
vt -0.338540 0.172462
vt 1.641196 0.061316
vt 1.370039 0.332233
vt -0.464028 0.390340
vt 1.109498 0.592545
vt -0.589519 0.608222
vt 1.951029 -0.492137
vt 1.925433 -0.222670
vt -0.213049 -0.045418
vt -0.087560 -0.263299
vt 0.857693 0.844127
vt -0.715010 0.826102
vt 0.613167 1.088438
vt -0.840499 1.043982
vt 0.374763 1.326631
vt -0.965988 1.261862
vt 0.141561 1.559627
vt -1.091479 1.479743
vt -1.342459 1.915503
vt -0.312076 2.012863
vt -0.533626 2.234219
vt -1.467948 2.133384
vt -0.752368 2.452768
vt -1.593417 2.351444
vt -0.087181 1.788167
vt -1.216968 1.697623
vt 1.823046 0.855191
vt 1.797449 1.124656
vt 1.603093 1.118712
vt 1.771853 1.394121
vt 1.388668 1.375610
vt 1.746256 1.663587
vt 1.178978 1.626836
vt 1.720660 1.933053
vt 0.973376 1.873163
vt 1.695063 2.202518
vt 0.771327 2.115234
vt 1.669466 2.471983
vt 0.572384 2.353582
vt 1.643869 2.741448
vt 0.376123 2.588720
vt 1.874239 0.316260
vt 1.848643 0.585724
vt 1.624717 0.587791
vt 1.383618 0.850155
vt 1.149575 1.104842
vt 0.921492 1.353042
vt 0.698496 1.595708
vt 0.479874 1.833612
vt 0.265041 2.067395
vt 0.053509 2.297584
vt -0.155207 2.524709
vt 1.899836 0.046795
s 1
usemtl GRASSAX
f 1/1/1 2/2/2 3/3/3
f 2/2/2 4/4/4 5/5/5
f 5/5/5 3/3/3 2/2/2
f 5/5/5 4/4/4 6/6/6
f 6/6/6 7/7/7 5/5/5
f 7/7/7 6/6/6 9/8/8
f 9/8/8 8/9/9 7/7/7
f 8/9/9 9/8/8 12/10/1
f 9/11/8 10/12/10 11/13/1
f 11/13/1 12/14/1 9/11/8
f 10/12/10 13/15/11 14/16/12
f 14/16/12 11/13/1 10/12/10
f 15/17/13 14/16/12 13/15/11
f 15/17/13 13/15/11 16/18/14
f 15/17/13 16/18/14 17/19/15
f 18/20/16 15/17/13 17/19/15
f 18/20/16 17/19/15 19/21/17
f 18/20/16 19/21/17 20/22/18
f 21/23/19 22/24/20 23/25/21
f 23/25/21 24/26/22 21/23/19
f 23/25/21 22/24/20 25/27/23
f 25/27/23 26/28/1 23/25/21
f 20/22/18 27/29/24 28/30/25
f 28/30/25 18/20/16 20/22/18
f 27/29/24 21/23/19 24/26/22
f 24/26/22 28/30/25 27/29/24
f 26/28/1 25/27/23 29/31/26
f 29/31/26 30/32/1 26/28/1
f 31/33/27 30/32/1 29/31/26
f 29/31/26 32/34/28 31/33/27
f 33/35/29 34/36/30 35/37/31
f 35/37/31 81/38/32 36/39/33
f 36/39/33 37/40/34 35/37/31
f 21/23/19 38/41/35 22/24/20
f 22/24/20 38/41/35 25/27/23
f 25/27/23 39/42/36 40/43/37
f 41/44/38 42/45/39 43/46/40
f 33/35/29 44/47/41 45/48/42
f 45/48/42 34/36/30 33/35/29
f 42/45/39 45/48/42 44/47/41
f 44/47/41 43/46/40 42/45/39
f 41/44/38 40/43/37 39/42/36
f 39/42/36 42/45/39 41/44/38
f 38/41/35 39/42/36 25/27/23
f 35/37/31 37/40/34 31/33/27
f 35/37/31 31/33/27 32/34/28
f 35/37/31 32/34/28 33/35/29
f 33/35/29 32/34/28 44/47/41
f 44/47/41 32/34/28 43/46/40
f 29/31/26 41/44/38 43/46/40
f 43/46/40 32/34/28 29/31/26
f 41/44/38 29/31/26 40/43/37
f 40/43/37 29/31/26 25/27/23
f 74/49/43 46/50/44 47/51/45
f 47/51/45 48/52/46 74/49/43
f 46/50/44 49/53/47 50/54/48
f 50/54/48 47/51/45 46/50/44
f 49/53/47 51/55/1 52/56/1
f 52/56/1 50/54/48 49/53/47
f 51/55/1 53/57/49 54/58/1
f 54/58/1 52/56/1 51/55/1
f 53/57/49 55/59/50 56/60/51
f 56/60/51 54/58/1 53/57/49
f 55/59/50 57/61/52 58/62/53
f 58/62/53 56/60/51 55/59/50
f 57/61/52 59/63/54 60/64/55
f 60/64/55 58/62/53 57/61/52
f 59/63/54 61/65/56 62/66/57
f 62/66/57 60/64/55 59/63/54
f 63/67/1 64/68/1 65/69/1
f 65/69/1 97/70/1 63/67/1
f 64/68/1 66/71/58 67/72/1
f 67/72/1 65/69/1 64/68/1
f 66/71/58 68/73/59 69/74/60
f 69/74/60 67/72/1 66/71/58
f 68/73/59 70/75/61 71/76/62
f 71/76/62 69/74/60 68/73/59
f 70/75/61 72/77/63 73/78/64
f 73/78/64 71/76/62 70/75/61
f 72/77/63 74/49/43 48/52/46
f 48/52/46 73/78/64 72/77/63
f 75/79/65 76/80/66 77/81/67
f 77/81/67 78/82/68 75/79/65
f 78/82/68 77/81/67 79/83/69
f 79/83/69 80/84/70 78/82/68
f 81/85/32 82/86/71 83/87/72
f 83/87/72 36/88/33 81/85/32
f 82/86/71 76/80/66 75/79/65
f 75/79/65 83/87/72 82/86/71
f 80/84/70 79/83/69 84/89/73
f 84/89/73 85/90/74 80/84/70
f 85/90/74 84/89/73 86/91/75
f 86/91/75 87/92/76 85/90/74
f 87/92/76 86/91/75 88/93/77
f 88/93/77 89/94/1 87/92/76
f 89/94/1 88/93/77 90/95/78
f 90/95/78 91/96/79 89/94/1
f 92/97/80 93/98/81 94/99/82
f 94/99/82 95/100/83 92/97/80
f 95/100/83 94/99/82 96/101/84
f 96/101/84 97/102/1 95/100/83
f 91/96/79 90/95/78 98/103/85
f 98/103/85 99/104/86 91/96/79
f 99/104/86 98/103/85 93/98/81
f 93/98/81 92/97/80 99/104/86
f 100/105/87 101/106/88 102/107/89
f 102/107/89 101/106/88 103/108/90
f 103/108/90 104/109/91 102/107/89
f 104/109/91 103/108/90 105/110/92
f 105/110/92 106/111/93 104/109/91
f 106/111/93 105/110/92 107/112/94
f 107/112/94 108/113/95 106/111/93
f 108/113/95 107/112/94 109/114/96
f 109/114/96 110/115/97 108/113/95
f 110/115/97 109/114/96 111/116/98
f 111/116/98 112/117/99 110/115/97
f 112/117/99 111/116/98 63/118/100
f 63/118/100 113/119/101 112/117/99
f 114/120/102 115/121/103 116/122/104
f 116/122/104 115/121/103 100/105/87
f 100/105/87 117/123/105 116/122/104
f 117/123/105 100/105/87 102/107/89
f 102/107/89 118/124/106 117/123/105
f 118/124/106 102/107/89 104/109/91
f 104/109/91 119/125/107 118/124/106
f 119/125/107 104/109/91 106/111/93
f 106/111/93 120/126/108 119/125/107
f 120/126/108 106/111/93 108/113/95
f 108/113/95 121/127/109 120/126/108
f 121/127/109 108/113/95 110/115/97
f 110/115/97 122/128/110 121/127/109
f 122/128/110 110/115/97 112/117/99
f 112/117/99 123/129/111 122/128/110
f 123/129/111 112/117/99 113/119/101
f 113/119/101 124/130/112 123/129/111
f 82/86/71 125/131/113 76/80/66
f 76/80/66 125/131/113 114/120/102
f 114/120/102 77/81/67 76/80/66
f 77/81/67 114/120/102 116/122/104
f 116/122/104 79/83/69 77/81/67
f 79/83/69 116/122/104 117/123/105
f 117/123/105 84/89/73 79/83/69
f 84/89/73 117/123/105 118/124/106
f 118/124/106 86/91/75 84/89/73
f 86/91/75 118/124/106 119/125/107
f 119/125/107 88/93/77 86/91/75
f 88/93/77 119/125/107 120/126/108
f 120/126/108 90/95/78 88/93/77
f 90/95/78 120/126/108 121/127/109
f 121/127/109 98/103/85 90/95/78
f 98/103/85 121/127/109 122/128/110
f 122/128/110 93/98/81 98/103/85
f 93/98/81 122/128/110 123/129/111
f 123/129/111 94/99/82 93/98/81
f 94/99/82 123/129/111 124/130/112
f 124/130/112 96/101/84 94/99/82
