# Blender 4.4.3
# www.blender.org
mtllib GRASSC.mtl
o GRASSC
v 506.026062 -2.652771 -349.288879
v 505.567047 -2.713148 -347.992004
v 507.927521 -2.713155 -348.288574
v 509.703369 -2.713148 -347.235016
v 510.264832 -2.589626 -348.622101
v 508.530457 -2.589627 -349.978333
v 505.224945 -2.770714 -346.659485
v 505.003326 -2.825424 -345.440369
v 507.519531 -2.646112 -346.323914
v 509.396057 -2.825424 -345.770508
v 506.598389 -2.589627 -350.539917
v 504.860718 -2.877235 -344.108032
v 504.835083 -2.926102 -342.749786
v 507.347717 -2.746782 -344.397583
v 509.352509 -2.926102 -344.274719
v 504.977234 -2.971982 -341.473724
v 505.241272 -3.014829 -340.123566
v 507.661865 -2.835517 -341.832947
v 509.574188 -3.014829 -342.794830
v 508.213104 -3.182051 -328.574310
v 508.923767 -3.205784 -326.166168
v 511.563904 -3.205784 -326.912750
v 514.946777 -3.205784 -327.911072
v 512.759583 -3.155022 -332.681091
v 509.376709 -3.155030 -331.682800
v 509.634430 -3.226177 -323.757996
v 510.345093 -3.243185 -321.349854
v 513.727966 -3.063865 -322.348145
v 517.110840 -3.243185 -323.346466
v 507.502441 -3.155022 -330.982483
v 505.755249 -3.054600 -338.315186
v 506.347382 -3.091253 -335.951447
v 508.185944 -2.911933 -336.823090
v 510.984589 -3.091254 -337.650146
v 506.920990 -3.124742 -333.428101
v 507.358917 -3.184067 -330.940125
v 508.069580 -3.211096 -328.531982
v 508.780243 -3.234828 -326.123810
v 509.490906 -3.255222 -323.715637
v 506.203888 -3.120298 -335.909088
v 506.777466 -3.153786 -333.385773
v 510.201569 -3.272230 -321.307495
v 529.202271 -3.276704 -142.421707
v 531.533630 -3.276704 -143.063522
v 530.685913 -3.276711 -146.487244
v 525.709412 -3.276705 -144.977325
v 529.839050 -3.276705 -149.911179
v 524.238464 -3.276705 -149.044128
v 535.791138 -3.097391 -147.473526
v 535.303406 -3.276705 -150.966751
v 526.907104 -3.276705 -141.659790
v 533.894897 -3.276703 -143.583572
v 537.056091 -3.240084 -150.663452
v 537.311584 -3.307309 -151.307831
v 541.747742 -3.276704 -146.817352
v 543.147644 -3.276703 -147.953979
v 541.370605 -3.097390 -149.916840
v 537.380676 -3.276705 -151.482086
v 537.453552 -3.306686 -151.331802
v 538.676575 -3.239606 -151.527908
v 538.609619 -3.276703 -152.375015
v 538.111572 -3.276704 -145.201416
v 539.985168 -3.276704 -145.860550
v 538.933228 -3.097384 -148.280258
v 540.026672 -3.276701 -157.322800
v 540.053284 -3.276702 -154.992981
v 541.439514 -3.395332 -156.366379
v 545.566528 -3.276702 -161.587784
v 544.857483 -3.276701 -163.996414
v 543.223389 -3.143811 -163.299316
v 543.410217 -3.276701 -158.318802
v 539.839844 -3.276701 -162.303314
v 546.030212 -3.276703 -156.744476
v 543.579102 -3.276710 -154.918015
v 546.224792 -3.276702 -154.862213
v 544.440002 -3.276703 -149.494766
v 545.379333 -3.276702 -151.204971
v 543.043762 -3.097383 -152.228195
v 539.831055 -3.276703 -153.682785
v 540.061890 -3.249818 -153.118179
v 546.022949 -3.276702 -152.929962
v 540.513855 -3.249085 -154.567169
v 544.148438 -3.276702 -166.405060
v 543.439453 -3.276702 -168.813705
v 542.842163 -3.190110 -168.401474
v 539.458618 -3.276702 -167.405487
v 526.957947 -3.305749 -141.519073
v 529.245728 -3.305749 -142.278519
v 531.569580 -3.305749 -142.918289
v 533.923279 -3.305748 -143.436661
v 545.422546 -3.276701 -158.928024
v 536.167603 -3.240176 -144.846375
v 536.282166 -3.284457 -143.979431
v 536.264893 -3.279881 -144.106598
v 546.140381 -3.285410 -159.143845
v 536.241333 -3.279259 -144.259338
v 545.566956 -3.273954 -158.970520
v 545.992920 -3.279790 -159.103912
v 536.185547 -3.255357 -144.697769
v 540.538940 -3.355820 -153.362289
v 540.829834 -3.395331 -154.976471
v 539.426086 -3.342305 -151.648087
v 537.843750 -3.341851 -150.527161
v 536.751404 -3.205714 -149.895096
v 538.768311 -3.188774 -150.367157
v 540.586731 -3.188684 -151.834213
v 541.361694 -3.198245 -153.783310
v 541.743835 -3.276705 -156.160370
v 493.528931 30.350351 -782.004517
v 491.263092 30.325386 -780.947998
v 494.308868 30.503931 -775.409851
v 488.997375 30.300646 -779.891479
v 486.731628 30.276125 -778.834839
v 489.777435 30.454668 -773.296814
v 493.465942 30.321436 -782.139526
v 491.200134 30.296471 -781.083008
v 488.934387 30.271727 -780.026428
v 486.668671 30.247210 -778.969910
v 498.840424 30.375525 -777.522949
v 495.794647 30.375528 -783.061035
v 484.465851 30.251837 -777.778320
v 482.200073 30.227789 -776.721802
v 485.245880 30.227785 -771.183716
v 479.934326 30.203985 -775.665283
v 477.668549 30.180429 -774.608704
v 480.714325 30.180437 -769.070618
v 484.402893 30.222921 -777.913391
v 482.137115 30.198872 -776.856812
v 479.871338 30.175066 -775.800293
v 477.605591 30.151512 -774.743713
v 466.339691 30.066631 -769.325928
v 464.073914 30.044706 -768.269409
v 467.119659 30.223253 -762.731323
v 461.808167 30.023075 -767.212891
v 459.542358 30.001741 -766.156311
v 462.588135 30.001747 -760.618286
v 466.276733 30.037710 -769.460999
v 464.010986 30.015787 -768.404480
v 461.745239 29.994156 -767.347900
v 459.479431 29.972822 -766.291321
v 471.651184 30.267380 -764.844421
v 468.605438 30.088840 -770.382507
v 475.402710 30.157133 -773.552124
v 473.136993 30.134096 -772.495605
v 476.182770 30.134096 -766.957520
v 470.871216 30.111330 -771.439087
v 475.339722 30.128214 -773.687134
v 473.074036 30.105179 -772.630676
v 470.808258 30.082411 -771.574097
v 468.542480 30.059921 -770.517517
v 495.731750 30.346613 -783.196045
v 166.755188 17.282223 -551.582458
v 166.760254 17.397871 -554.082458
v 163.658310 17.471558 -554.082458
v 166.765350 17.514702 -556.582458
v 166.770493 17.632679 -559.082458
v 163.668564 17.706358 -559.082458
v 166.902756 17.246840 -551.582458
v 166.907822 17.362488 -554.082458
v 166.912933 17.479317 -556.582458
v 166.918060 17.597294 -559.082458
v 163.648254 17.241468 -549.082458
v 166.750183 17.167789 -549.082458
v 166.775696 17.751770 -561.582458
v 166.780945 17.871941 -564.082458
v 163.686798 18.124004 -564.082458
v 166.786240 17.993160 -566.582458
v 166.791565 18.115393 -569.082458
v 163.697418 18.367449 -569.082458
v 166.923279 17.716383 -561.582458
v 166.928513 17.836555 -564.082397
v 166.933807 17.957775 -566.582458
v 166.939148 18.080006 -569.082458
v 166.882385 18.737827 -581.841614
v 167.091827 18.864397 -584.637146
v 163.990204 18.930214 -584.915466
v 167.519363 18.947506 -587.366272
v 168.054321 19.033216 -590.080017
v 163.830750 19.152870 -591.289124
v 167.029800 18.702448 -581.834778
v 167.238205 18.824095 -584.623596
v 167.664810 18.908892 -587.345947
v 168.198608 18.995953 -590.052979
v 163.711395 18.687485 -579.084045
v 166.813324 18.613798 -579.083435
v 166.796967 18.238605 -571.582458
v 166.802368 18.362768 -574.082458
v 163.708221 18.614824 -574.082458
v 166.807831 18.487843 -576.582458
v 166.944519 18.203220 -571.582458
v 166.949951 18.327381 -574.082458
v 166.955399 18.452457 -576.582458
v 166.960907 18.578411 -579.083374
v 166.897781 17.132404 -549.082458
v 160.144226 17.865952 -554.082458
v 160.144226 17.641987 -549.082458
v 160.144226 18.086906 -559.082458
v 160.144241 18.304585 -564.082458
v 160.144226 18.518715 -569.082458
v 160.426910 19.123896 -585.236938
v 160.144226 18.935261 -579.084656
v 160.592300 19.304644 -591.408264
v 160.144226 18.729038 -574.082458
vn -0.0022 0.9986 0.0530
vn 0.0058 0.9989 0.0461
vn -0.0083 0.9992 0.0389
vn -0.0424 0.9969 0.0663
vn -0.0527 0.9963 0.0674
vn -0.0238 0.9978 0.0621
vn -0.0403 0.9990 0.0192
vn -0.0595 0.9977 0.0330
vn 0.0176 0.9998 0.0094
vn 0.0549 0.9972 0.0502
vn -0.0129 0.9989 0.0445
vn -0.0509 0.9980 0.0368
vn -0.0457 0.9982 0.0390
vn 0.0176 0.9988 0.0451
vn 0.0833 0.9950 0.0549
vn -0.0451 0.9982 0.0405
vn -0.0474 0.9982 0.0376
vn 0.0203 0.9996 0.0210
vn 0.0932 0.9955 0.0146
vn -0.0890 0.9954 0.0367
vn -0.0894 0.9954 0.0355
vn -0.0002 1.0000 -0.0001
vn 0.0024 1.0000 0.0082
vn 0.0149 0.9997 0.0176
vn 0.0023 0.9997 0.0232
vn -0.1049 0.9940 0.0316
vn -0.1142 0.9926 0.0407
vn 0.0031 0.9996 -0.0267
vn 0.0241 0.9993 -0.0271
vn -0.0905 0.9953 0.0358
vn -0.0686 0.9972 0.0291
vn -0.1141 0.9926 0.0403
vn -0.0098 0.9997 0.0225
vn 0.0666 0.9978 -0.0027
vn -0.1063 0.9932 0.0475
vn -0.1810 0.9817 0.0599
vn -0.1799 0.9816 0.0634
vn -0.1803 0.9816 0.0622
vn -0.1807 0.9817 0.0609
vn -0.1826 0.9817 0.0545
vn -0.1824 0.9817 0.0550
vn -0.1809 0.9817 0.0603
vn 0.0273 0.9956 0.0901
vn 0.0226 0.9956 0.0914
vn -0.0083 1.0000 0.0005
vn -0.0000 1.0000 -0.0000
vn -0.0117 0.9999 0.0019
vn -0.0169 0.9991 -0.0395
vn 0.0297 0.9956 0.0894
vn 0.0084 0.9968 0.0799
vn 0.0378 0.9963 -0.0773
vn 0.0121 0.9991 0.0395
vn 0.0371 0.9978 0.0552
vn 0.0473 0.9977 0.0483
vn 0.0070 1.0000 0.0066
vn 0.0071 0.9878 0.1556
vn 0.0080 0.9956 0.0932
vn 0.0041 0.9988 -0.0491
vn 0.0229 0.9997 -0.0031
vn 0.0220 0.9980 0.0591
vn 0.0275 0.9977 0.0620
vn 0.0038 1.0000 0.0086
vn 0.0328 0.9992 0.0237
vn 0.0753 0.9964 -0.0382
vn -0.0838 0.9956 -0.0419
vn 0.0365 0.9993 0.0085
vn 0.0720 0.9972 -0.0212
vn 0.0164 0.9999 0.0019
vn -0.0030 1.0000 0.0082
vn -0.0274 0.9996 0.0111
vn 0.0035 0.9997 -0.0254
vn 0.0556 0.9977 0.0388
vn 0.0638 0.9975 0.0292
vn 0.0169 0.9997 -0.0168
vn -0.0003 1.0000 0.0048
vn 0.0138 0.9973 -0.0719
vn 0.0372 0.9993 -0.0098
vn 0.0056 0.9933 -0.1150
vn 0.0896 0.9958 -0.0186
vn 0.1196 0.9922 -0.0352
vn 0.0575 0.9981 -0.0213
vn -0.0317 0.9995 -0.0033
vn 0.0601 0.9817 0.1809
vn 0.0553 0.9817 0.1823
vn 0.0458 0.9817 0.1850
vn 0.0410 0.9817 0.1862
vn -0.0051 1.0000 -0.0003
vn 0.0243 0.9977 0.0631
vn 0.0090 0.9994 0.0347
vn 0.0054 0.9998 0.0185
vn 0.0242 0.9997 -0.0029
vn 0.0367 0.9993 -0.0051
vn 0.0098 0.9995 0.0302
vn -0.0060 1.0000 -0.0010
vn 0.0293 0.9964 0.0794
vn 0.0092 0.9999 -0.0103
vn 0.0406 0.9898 -0.1362
vn 0.0159 0.9967 -0.0790
vn 0.0164 0.9978 -0.0650
vn -0.0125 0.9987 -0.0496
vn -0.0932 0.9950 -0.0362
vn -0.0862 0.9962 -0.0122
vn -0.0519 0.9986 0.0136
vn -0.1448 0.9875 -0.0624
vn -0.0487 0.9947 -0.0909
vn -0.0552 0.9939 -0.0950
vn -0.0058 0.9997 -0.0226
vn -0.0552 0.9939 -0.0951
vn -0.0550 0.9939 -0.0951
vn -0.0297 0.9995 -0.0101
vn -0.0894 0.9816 -0.1685
vn -0.0894 0.9816 -0.1686
vn -0.0893 0.9816 -0.1687
vn -0.0892 0.9816 -0.1686
vn 0.0104 0.9998 -0.0179
vn -0.0485 0.9956 -0.0804
vn -0.0556 0.9947 -0.0864
vn -0.0490 0.9954 -0.0824
vn -0.0233 0.9997 0.0064
vn -0.0489 0.9954 -0.0825
vn -0.0488 0.9954 -0.0825
vn -0.0082 1.0000 0.0045
vn -0.0891 0.9816 -0.1686
vn -0.0891 0.9816 -0.1687
vn -0.0890 0.9816 -0.1688
vn -0.0889 0.9816 -0.1688
vn -0.0542 0.9940 -0.0955
vn -0.0541 0.9940 -0.0956
vn -0.0288 0.9995 -0.0106
vn -0.0547 0.9947 -0.0870
vn -0.0489 0.9952 -0.0848
vn -0.0361 0.9993 0.0075
vn -0.0884 0.9816 -0.1690
vn -0.0883 0.9816 -0.1690
vn -0.0882 0.9816 -0.1692
vn -0.0881 0.9816 -0.1691
vn -0.0049 0.9997 -0.0231
vn -0.0543 0.9939 -0.0955
vn -0.0487 0.9954 -0.0826
vn -0.0486 0.9954 -0.0826
vn 0.0011 1.0000 -0.0065
vn -0.0478 0.9947 -0.0914
vn -0.0888 0.9816 -0.1688
vn -0.0887 0.9816 -0.1689
vn -0.0886 0.9816 -0.1690
vn -0.0885 0.9816 -0.1690
vn -0.0895 0.9816 -0.1686
vn 0.1291 0.9906 0.0458
vn 0.1291 0.9906 0.0463
vn 0.0673 0.9967 0.0460
vn 0.1291 0.9905 0.0468
vn 0.1290 0.9905 0.0472
vn 0.0641 0.9964 0.0552
vn 0.2329 0.9715 0.0452
vn 0.2330 0.9714 0.0456
vn 0.2329 0.9714 0.0461
vn 0.2329 0.9714 0.0465
vn 0.0683 0.9966 0.0455
vn 0.1293 0.9906 0.0456
vn 0.1433 0.9881 0.0553
vn 0.1574 0.9864 0.0480
vn 0.0611 0.9962 0.0613
vn 0.1575 0.9863 0.0484
vn 0.1575 0.9863 0.0488
vn 0.0608 0.9970 0.0479
vn 0.2329 0.9714 0.0470
vn 0.2329 0.9714 0.0474
vn 0.2330 0.9713 0.0478
vn 0.2329 0.9713 0.0482
vn 0.1247 0.9909 0.0501
vn 0.1361 0.9893 0.0528
vn 0.0341 0.9987 0.0385
vn 0.1320 0.9898 0.0542
vn 0.1251 0.9906 0.0562
vn 0.0338 0.9988 0.0342
vn 0.2311 0.9714 0.0554
vn 0.2590 0.9636 0.0657
vn 0.2460 0.9664 0.0739
vn 0.2356 0.9687 0.0776
vn 0.0490 0.9983 0.0314
vn 0.1282 0.9905 0.0490
vn 0.1575 0.9863 0.0491
vn 0.1574 0.9863 0.0495
vn 0.0562 0.9976 0.0399
vn 0.1433 0.9888 0.0422
vn 0.2329 0.9713 0.0486
vn 0.2329 0.9713 0.0489
vn 0.2329 0.9713 0.0493
vn 0.2328 0.9713 0.0495
vn 0.2329 0.9715 0.0449
vn 0.1118 0.9927 0.0446
vn 0.1134 0.9925 0.0445
vn 0.1081 0.9931 0.0445
vn 0.0619 0.9966 0.0552
vn 0.0441 0.9980 0.0442
vn 0.0541 0.9979 0.0353
vn 0.0618 0.9977 0.0293
vn 0.0475 0.9983 0.0327
vn 0.0341 0.9985 0.0438
vt -6.754442 1.024216
vt -6.426556 1.024216
vt -6.426556 1.510311
vt -6.426556 1.996406
vt -7.082324 1.996406
vt -7.082329 1.510311
vt -6.098674 1.024216
vt -5.770788 1.024216
vt -5.770788 1.510311
vt -5.770788 1.996406
vt -7.082329 1.024216
vt -5.442906 1.024216
vt -5.115019 1.024216
vt -5.115019 1.510311
vt -5.115019 1.996406
vt -4.787133 1.024216
vt -4.459252 1.024216
vt -4.459252 1.510311
vt -4.459252 1.996406
vt -2.819829 1.024215
vt -2.491948 1.024215
vt -2.491943 1.510310
vt -2.491943 1.996405
vt -3.147716 1.996405
vt -3.147716 1.510310
vt -2.164062 1.024215
vt -1.836180 1.024215
vt -1.836175 1.510310
vt -1.836175 1.996405
vt -3.147716 1.024215
vt -4.131371 1.024216
vt -3.803484 1.024215
vt -3.803484 1.510310
vt -3.803484 1.996405
vt -3.475597 1.024215
vt 9.322383 0.999972
vt 9.595618 0.999972
vt 9.595618 1.020069
vt 9.322383 1.020069
vt 9.868853 0.999972
vt 10.142094 0.999972
vt 10.142094 1.020069
vt 9.868853 1.020069
vt 8.775907 0.999972
vt 9.049142 0.999972
vt 9.049148 1.020069
vt 8.775907 1.020069
vt 10.415329 0.999972
vt 10.415329 1.020069
vt -5.248941 1.897135
vt -5.143524 1.975276
vt -5.115019 1.973590
vt -4.594911 1.895845
vt -2.752753 1.803078
vt -3.901800 1.923527
vt -3.248705 1.921542
vt 6.316778 1.020070
vt 6.043538 1.020070
vt 6.043538 0.999973
vt 6.316778 0.999973
vt 6.590014 0.999973
vt 6.863249 0.999973
vt 6.863249 1.020070
vt 6.590014 1.020070
vt -2.491948 1.146765
vt -5.770788 1.145521
vt -5.770788 1.040858
vt -2.491948 1.064277
vt -2.491948 1.043772
vt -5.770788 1.062723
vt -2.491948 1.125890
vt -5.770788 1.125056
vt -3.803484 1.889302
vt -3.147716 1.889345
vt -4.459252 1.852660
vt -5.115019 1.851430
vt -5.374638 1.803960
vt -4.780805 1.758050
vt -4.125379 1.757798
vt -3.434631 1.783726
vt -2.808928 1.761438
vt -6.426556 1.990000
vt -5.770788 1.990000
vt -6.754442 1.003595
vt -6.426556 1.003595
vt -6.098674 1.003595
vt -5.770788 1.003595
vt -7.082329 1.990000
vt -5.115019 1.990000
vt -4.787138 1.024216
vt -4.459252 1.990000
vt -5.442901 1.003595
vt -5.115019 1.003594
vt -4.787133 1.003594
vt -4.459252 1.003594
vt -2.491943 1.990000
vt -1.836175 1.990000
vt -2.819829 1.003594
vt -2.491948 1.003594
vt -2.164062 1.003594
vt -1.836180 1.003594
vt -3.147716 1.990000
vt -4.131365 1.024216
vt -3.803484 1.990000
vt -4.131365 1.003594
vt -3.803484 1.003594
vt -3.475597 1.003594
vt -3.147716 1.003594
vt -7.082329 1.003595
vt -6.098669 1.003595
s 1
usemtl GRASSC
f 1/1/1 2/2/2 3/3/3
f 4/4/4 5/5/5 6/6/6
f 7/7/7 8/8/8 9/9/9
f 10/10/10 4/4/4 3/3/3
f 4/4/4 6/6/6 3/3/3
f 1/1/1 6/6/6 11/11/11
f 10/10/10 3/3/3 9/9/9
f 7/7/7 3/3/3 2/2/2
f 12/12/12 13/13/13 14/14/14
f 15/15/15 10/10/10 9/9/9
f 16/16/16 17/17/17 18/18/18
f 19/19/19 15/15/15 14/14/14
f 15/15/15 9/9/9 14/14/14
f 12/12/12 9/9/9 8/8/8
f 19/19/19 14/14/14 18/18/18
f 16/16/16 14/14/14 13/13/13
f 20/20/20 21/21/21 22/22/22
f 23/23/23 24/24/24 25/25/25
f 26/26/26 27/27/27 28/28/28
f 29/29/29 23/23/23 22/22/22
f 23/23/23 25/25/25 22/22/22
f 20/20/20 25/25/25 30/30/30
f 29/29/29 22/22/22 28/28/28
f 26/26/26 22/22/22 21/21/21
f 31/31/31 32/32/32 33/33/33
f 34/34/34 19/19/19 18/18/18
f 35/35/35 30/30/30 25/25/25
f 24/24/24 34/34/34 33/33/33
f 34/34/34 18/18/18 33/33/33
f 31/31/31 18/18/18 17/17/17
f 24/24/24 33/33/33 25/25/25
f 35/35/35 33/33/33 32/32/32
f 22/22/22 26/26/26 28/28/28
f 25/25/25 20/20/20 22/22/22
f 33/33/33 35/35/35 25/25/25
f 18/18/18 31/31/31 33/33/33
f 14/14/14 16/16/16 18/18/18
f 9/9/9 12/12/12 14/14/14
f 3/3/3 7/7/7 9/9/9
f 6/6/6 1/1/1 3/3/3
f 36/36/36 37/37/37 20/38/20
f 20/38/20 30/39/30 36/36/36
f 38/40/38 39/41/39 26/42/26
f 26/42/26 21/43/21 38/40/38
f 40/44/40 41/45/41 35/46/35
f 35/46/35 32/47/32 40/44/40
f 39/41/39 42/48/42 27/49/27
f 27/49/27 26/42/26 39/41/39
f 37/37/37 38/40/38 21/43/21
f 21/43/21 20/38/20 37/37/37
f 41/45/41 36/36/36 30/39/30
f 30/39/30 35/46/35 41/45/41
f 43/1/43 44/2/44 45/3/45
f 46/6/46 45/3/45 47/4/46
f 47/4/46 48/5/46 46/6/46
f 45/3/45 49/9/47 50/10/48
f 50/10/48 47/4/46 45/3/45
f 43/1/43 46/6/46 51/11/49
f 52/7/50 45/3/45 44/2/44
f 50/10/48 53/50/51 54/51/52
f 55/16/53 56/17/54 57/18/55
f 58/15/56 59/52/57 60/53/58
f 60/53/58 61/19/59 58/15/56
f 62/12/60 63/13/61 64/14/62
f 55/16/53 64/14/62 63/13/61
f 65/23/63 66/24/64 67/54/65
f 68/26/66 69/27/67 70/28/68
f 71/22/69 70/28/68 72/29/70
f 72/29/70 65/23/63 71/22/69
f 73/20/46 74/25/71 75/30/46
f 76/31/72 77/32/73 78/33/74
f 79/34/75 61/19/59 80/55/76
f 81/35/77 75/30/46 74/25/71
f 66/24/64 79/34/75 82/56/78
f 76/31/72 57/18/55 56/17/54
f 81/35/77 78/33/74 77/32/73
f 83/1/79 84/2/80 85/3/81
f 70/6/68 85/3/81 86/4/82
f 86/4/82 72/5/70 70/6/68
f 83/1/79 70/6/68 69/11/67
f 70/6/68 83/1/79 85/3/81
f 71/22/69 68/26/66 70/28/68
f 74/25/71 73/20/46 71/22/69
f 78/33/74 81/35/77 74/25/71
f 57/18/55 76/31/72 78/33/74
f 64/14/62 55/16/53 57/18/55
f 64/14/62 49/9/47 62/12/60
f 45/3/45 52/7/50 49/9/47
f 46/6/46 43/1/43 45/3/45
f 43/57/43 51/58/49 87/59/83
f 87/59/83 88/60/84 43/57/43
f 89/61/85 90/62/86 52/63/50
f 52/63/50 44/64/44 89/61/85
f 44/64/44 43/57/43 88/60/84
f 88/60/84 89/61/85 44/64/44
f 68/26/66 71/22/69 91/65/87
f 73/20/46 91/65/87 71/22/69
f 49/9/47 92/66/88 62/12/60
f 52/7/50 92/66/88 49/9/47
f 52/7/50 93/8/89 94/67/90
f 68/26/66 98/68/91 95/69/92
f 52/7/50 94/67/90 96/70/93
f 68/26/66 91/65/87 97/71/94
f 68/26/66 97/71/94 98/68/91
f 52/7/50 99/72/95 92/66/88
f 52/7/50 96/70/93 99/72/95
f 100/73/96 79/34/75 80/55/76
f 101/74/97 66/24/64 82/56/78
f 71/22/69 65/23/63 67/54/65
f 102/75/98 61/19/59 60/53/58
f 59/52/57 54/51/52 53/50/51
f 53/50/51 103/76/99 59/52/57
f 50/10/48 104/77/100 53/50/51
f 53/50/51 104/77/100 64/14/62
f 64/14/62 103/76/99 53/50/51
f 103/76/99 64/14/62 105/78/101
f 105/78/101 64/14/62 57/18/55
f 102/75/98 106/79/102 80/55/76
f 80/55/76 61/19/59 102/75/98
f 80/55/76 106/79/102 78/33/74
f 78/33/74 100/73/96 80/55/76
f 100/73/96 78/33/74 107/80/103
f 107/80/103 78/33/74 74/25/71
f 67/54/65 66/24/64 101/74/97
f 101/74/97 108/81/104 67/54/65
f 67/54/65 108/81/104 71/22/69
f 103/76/99 105/78/101 60/53/58
f 60/53/58 59/52/57 103/76/99
f 60/53/58 105/78/101 57/18/55
f 57/18/55 102/75/98 60/53/58
f 102/75/98 57/18/55 106/79/102
f 106/79/102 57/18/55 78/33/74
f 79/34/75 100/73/96 107/80/103
f 107/80/103 82/56/78 79/34/75
f 82/56/78 107/80/103 74/25/71
f 74/25/71 101/74/97 82/56/78
f 101/74/97 74/25/71 108/81/104
f 108/81/104 74/25/71 71/22/69
f 50/10/48 49/9/47 104/77/100
f 104/77/100 49/9/47 64/14/62
f 59/52/57 58/15/56 54/51/52
f 54/51/52 58/15/56 50/10/48
f 109/1/105 110/2/106 111/82/107
f 112/7/108 113/8/109 114/83/110
f 115/84/111 116/85/112 110/2/106
f 110/2/106 109/1/105 115/84/111
f 117/86/113 118/87/114 113/8/109
f 113/8/109 112/7/108 117/86/113
f 109/1/105 119/88/115 120/11/116
f 112/7/108 111/82/107 110/2/106
f 121/12/117 122/13/118 123/89/119
f 124/90/120 125/17/121 126/91/122
f 127/92/123 128/93/124 122/13/118
f 122/13/118 121/12/117 127/92/123
f 129/94/125 130/95/126 125/17/121
f 125/17/121 124/90/120 129/94/125
f 121/12/117 114/83/110 113/8/109
f 124/90/120 123/89/119 122/13/118
f 131/20/127 132/21/128 133/96/129
f 134/26/130 135/27/131 136/97/132
f 137/98/133 138/99/134 132/21/128
f 132/21/128 131/20/127 137/98/133
f 139/100/135 140/101/136 135/27/131
f 135/27/131 134/26/130 139/100/135
f 131/20/127 141/102/137 142/30/138
f 134/26/130 133/96/129 132/21/128
f 143/103/139 144/32/140 145/104/141
f 146/35/142 142/30/138 141/102/137
f 147/105/143 148/106/144 144/32/140
f 144/32/140 143/103/139 147/105/143
f 149/107/145 150/108/146 142/30/138
f 142/30/138 146/35/142 149/107/145
f 143/103/139 126/91/122 125/17/121
f 146/35/142 145/104/141 144/32/140
f 109/1/105 120/11/116 151/109/147
f 119/88/115 109/1/105 111/82/107
f 151/109/147 115/84/111 109/1/105
f 112/7/108 110/2/106 116/85/112
f 111/82/107 112/7/108 114/83/110
f 116/85/112 117/86/113 112/7/108
f 121/12/117 113/8/109 118/87/114
f 114/83/110 121/12/117 123/89/119
f 118/87/114 127/92/123 121/12/117
f 124/90/120 122/13/118 128/93/124
f 123/89/119 124/90/120 126/91/122
f 128/93/124 129/94/125 124/90/120
f 143/103/139 125/17/121 130/95/126
f 126/91/122 143/103/139 145/104/141
f 130/95/126 147/105/143 143/103/139
f 146/35/142 144/32/140 148/106/144
f 145/104/141 146/35/142 141/102/137
f 148/106/144 149/107/145 146/35/142
f 131/20/127 142/30/138 150/108/146
f 141/102/137 131/20/127 133/96/129
f 150/108/146 137/98/133 131/20/127
f 134/26/130 132/21/128 138/99/134
f 133/96/129 134/26/130 136/97/132
f 138/99/134 139/100/135 134/26/130
f 152/1/148 153/2/149 154/3/150
f 155/7/151 156/8/152 157/9/153
f 158/84/154 159/85/155 153/2/149
f 153/2/149 152/1/148 158/84/154
f 160/110/156 161/87/157 156/8/152
f 156/8/152 155/7/151 160/110/156
f 152/1/148 162/6/158 163/11/159
f 155/7/151 154/3/150 153/2/149
f 164/12/160 165/13/161 166/14/162
f 167/90/163 168/17/164 169/18/165
f 170/92/166 171/93/167 165/13/161
f 165/13/161 164/12/160 170/92/166
f 172/94/168 173/95/169 168/17/164
f 168/17/164 167/90/163 172/94/168
f 164/12/160 157/9/153 156/8/152
f 167/90/163 166/14/162 165/13/161
f 174/20/170 175/21/171 176/22/172
f 177/26/173 178/27/174 179/28/175
f 180/98/176 181/99/177 175/21/171
f 175/21/171 174/20/170 180/98/176
f 182/100/178 183/101/179 178/27/174
f 178/27/174 177/26/173 182/100/178
f 174/20/170 184/25/180 185/30/181
f 177/26/173 176/22/172 175/21/171
f 186/103/182 187/32/183 188/33/184
f 189/35/185 185/30/181 184/25/180
f 190/105/186 191/106/187 187/32/183
f 187/32/183 186/103/182 190/105/186
f 192/107/188 193/108/189 185/30/181
f 185/30/181 189/35/185 192/107/188
f 186/103/182 169/18/165 168/17/164
f 189/35/185 188/33/184 187/32/183
f 152/1/148 163/11/159 194/109/190
f 162/6/158 152/1/148 154/3/150
f 194/109/190 158/84/154 152/1/148
f 155/7/151 153/2/149 159/85/155
f 154/3/150 155/7/151 157/9/153
f 159/85/155 160/110/156 155/7/151
f 164/12/160 156/8/152 161/87/157
f 157/9/153 164/12/160 166/14/162
f 161/87/157 170/92/166 164/12/160
f 167/90/163 165/13/161 171/93/167
f 166/14/162 167/90/163 169/18/165
f 171/93/167 172/94/168 167/90/163
f 186/103/182 168/17/164 173/95/169
f 169/18/165 186/103/182 188/33/184
f 173/95/169 190/105/186 186/103/182
f 189/35/185 187/32/183 191/106/187
f 188/33/184 189/35/185 184/25/180
f 191/106/187 192/107/188 189/35/185
f 174/20/170 185/30/181 193/108/189
f 184/25/180 174/20/170 176/22/172
f 193/108/189 180/98/176 174/20/170
f 177/26/173 175/21/171 181/99/177
f 176/22/172 177/26/173 179/28/175
f 181/99/177 182/100/178 177/26/173
f 195/4/191 196/5/192 162/6/158
f 197/10/193 195/4/191 154/3/150
f 195/4/191 162/6/158 154/3/150
f 197/10/193 154/3/150 157/9/153
f 198/15/194 197/10/193 157/9/153
f 199/19/195 198/15/194 166/14/162
f 198/15/194 157/9/153 166/14/162
f 199/19/195 166/14/162 169/18/165
f 200/23/196 201/24/197 184/25/180
f 202/29/198 200/23/196 176/22/172
f 200/23/196 184/25/180 176/22/172
f 202/29/198 176/22/172 179/28/175
f 203/34/199 199/19/195 169/18/165
f 201/24/197 203/34/199 188/33/184
f 203/34/199 169/18/165 188/33/184
f 201/24/197 188/33/184 184/25/180
