# Blender 4.4.3
# www.blender.org
mtllib GRAVTRANS.mtl
o GRAVTRANS
v 370.971527 32.299107 -949.811829
v 368.348694 32.299107 -946.359741
v 375.136444 31.871216 -946.569275
v 372.513641 31.871216 -943.117188
v 379.287415 31.650042 -943.331848
v 376.664581 31.650042 -939.879761
v 383.424286 31.465263 -940.099365
v 380.801453 31.465263 -936.647278
v 387.547180 31.477406 -936.872009
v 384.924347 31.477406 -933.419922
v 391.656036 31.320992 -933.649780
v 389.033234 31.320992 -930.197693
v 395.750977 30.999119 -930.432495
v 393.128113 30.999119 -926.980408
v 354.171600 33.236366 -962.832458
v 351.548798 33.236366 -959.380371
v 358.392578 32.933537 -959.569763
v 355.769775 32.933537 -956.117676
v 362.599579 32.652966 -956.312012
v 359.976746 32.652966 -952.859924
v 366.792511 32.552711 -953.059387
v 364.169708 32.552711 -949.607300
v 399.831787 30.871326 -927.220276
v 397.208984 30.871326 -923.768188
v 403.898621 30.762268 -924.013184
v 401.275787 30.762270 -920.561096
v 407.951447 30.852776 -920.811096
v 405.328613 30.852776 -917.359009
v 411.990143 30.788511 -917.614075
v 409.367340 30.788511 -914.161987
v 416.014954 30.748684 -914.422119
v 413.392151 30.748684 -910.970032
v 420.025757 30.732788 -911.235291
v 417.402924 30.732788 -907.783203
v 424.022491 30.739077 -908.053467
v 421.399658 30.739077 -904.601379
v 428.005157 30.586893 -904.876709
v 425.382324 30.586893 -901.424622
v 431.973938 30.629902 -901.704956
v 429.351135 30.629902 -898.252869
v 435.928619 30.687006 -898.538330
v 433.305786 30.687008 -895.086243
v 439.869263 30.933556 -895.376831
v 437.246460 30.933556 -891.924683
v 440.964081 30.935896 -895.319153
v 441.958038 30.938578 -891.384033
v 442.292847 30.938578 -895.706543
v 439.854584 30.936373 -891.409912
v 444.963104 30.947794 -896.497559
v 445.598511 30.947794 -892.208923
v 448.377441 30.944706 -897.859497
v 449.418610 30.944708 -893.650879
v 451.596497 30.940907 -899.326904
v 454.837036 30.940908 -896.446777
v 252.038376 33.158566 -1017.028992
v 249.415558 33.158566 -1013.576904
v 254.729218 33.288074 -1012.208496
v 254.891647 33.412033 -1004.554260
v 257.514465 33.412033 -1008.006409
v 252.369843 33.300743 -1008.305115
v 262.872437 33.645561 -1002.003967
v 260.249603 33.645561 -998.551880
v 265.139984 33.791420 -998.995056
v 266.047272 33.928524 -993.025085
v 267.649475 33.928524 -997.053650
v 262.644897 33.771957 -995.640015
v 269.994171 33.998402 -996.794739
v 272.349854 34.077957 -993.211548
v 273.080719 34.077957 -997.484985
v 269.940277 34.025421 -992.722290
v 278.867950 34.017250 -997.668518
v 278.219025 34.017250 -993.381897
v 246.379120 32.881618 -1020.273315
v 243.756287 32.881618 -1016.821228
v 249.392380 33.003284 -1019.410583
v 247.472137 33.036469 -1015.570557
v 285.069763 34.119591 -996.728516
v 284.278625 34.119591 -992.465881
v 291.228668 34.210419 -995.545837
v 290.141388 34.210419 -991.348999
v 297.412689 34.460915 -994.036011
v 295.846527 34.460915 -989.993286
v 303.272644 34.510056 -992.325623
v 301.712036 34.510056 -988.280762
v 309.235413 34.534622 -990.252808
v 307.281189 34.534622 -986.382812
v 314.928009 34.533241 -987.979004
v 312.897156 34.533245 -984.148621
v 320.752136 34.505459 -985.273132
v 318.129303 34.505459 -981.821045
v 326.140411 34.272640 -982.500061
v 323.517578 34.272640 -979.047974
v 331.375244 34.194302 -979.477539
v 328.752411 34.194302 -976.025452
v 336.443726 34.076023 -976.212891
v 333.820923 34.076023 -972.760803
v 341.333679 34.085651 -972.713928
v 338.710876 34.085651 -969.261841
v 345.687561 33.879993 -969.373169
v 343.064758 33.879993 -965.921082
v 349.936615 33.656300 -966.100342
v 347.313782 33.656300 -962.648254
v 567.972412 3.322142 -475.828613
v 563.699829 3.322142 -475.093292
v 569.171387 2.852656 -470.298584
v 564.898804 2.852656 -469.563263
v 570.127625 2.564895 -461.591980
v 565.854980 2.564895 -460.856659
v 570.562012 2.459278 -455.179688
v 566.289368 2.459278 -454.444366
v 570.842102 2.177489 -448.490784
v 566.507141 2.177489 -448.555176
v 570.842041 1.899183 -442.279541
v 566.509705 1.899183 -442.444305
v 569.964355 1.624736 -436.075775
v 565.633484 1.624736 -436.274506
v 475.572327 8.381066 -540.575684
v 471.927979 8.450734 -538.227295
v 486.986115 7.875625 -545.308472
v 487.412384 7.829558 -540.994019
v 497.193481 7.727620 -547.326111
v 496.808899 7.727620 -543.007751
v 504.109192 7.443152 -546.243835
v 502.984039 7.443152 -542.056885
v 511.961212 6.976529 -544.045898
v 510.011200 6.976529 -540.173767
v 519.559021 6.686730 -540.861938
v 517.484070 6.686730 -537.055359
v 527.191833 6.394794 -536.514465
v 524.442139 6.394795 -533.162598
v 534.459229 6.101055 -531.949585
v 531.500000 6.101055 -528.781128
v 540.781067 5.985212 -526.143372
v 537.417419 5.985212 -523.408081
v 546.645386 5.688954 -519.809387
v 543.169556 5.688954 -517.218201
v 550.583069 5.391973 -514.345093
v 546.890625 5.391973 -512.073181
v 554.005859 5.094606 -509.090454
v 550.400879 5.094607 -506.682190
v 557.197266 4.797211 -503.615295
v 553.426514 4.797211 -501.475769
v 559.967590 4.320812 -498.233154
v 556.172668 4.320812 -496.136810
v 562.447571 4.024415 -492.728912
v 558.529175 4.024415 -490.873596
v 564.580078 3.908378 -487.223083
v 560.577698 3.908378 -485.556702
v 566.467590 3.614386 -481.436279
v 562.244873 3.614386 -480.454071
v 568.830322 1.175156 -430.116425
v 564.516724 1.175155 -430.550354
v 567.781006 0.909462 -424.539673
v 563.446045 0.909462 -424.606384
v 566.247559 0.825942 -418.703674
v 560.001038 0.572437 -413.802307
v 564.286682 0.572437 -413.147186
v 561.979553 0.830027 -419.202026
v 561.747986 0.203185 -408.800659
v 557.618530 0.203185 -407.480225
v 564.138000 0.035116 -406.338837
v 560.603577 0.035117 -403.828094
v 569.019104 -0.010988 -404.398712
v 566.599976 -0.059391 -400.800964
v 574.425842 -0.156147 -403.229675
v 572.492310 -0.235902 -399.349304
v 581.717834 -0.275011 -401.833923
v 579.089844 -0.371374 -398.385834
v -172.435532 19.586493 -454.640350
v -174.900681 19.586493 -451.073975
v -170.260101 19.589102 -454.299011
v -169.554001 19.539103 -450.021423
v -165.689224 19.588802 -455.422211
v -164.967712 19.498800 -451.147217
v -159.019287 19.524752 -461.381897
v -157.262482 19.424749 -457.418304
v -150.174240 19.676477 -475.935852
v -150.071213 19.586475 -471.601593
v -273.956726 20.162582 -455.917419
v -275.703125 20.162582 -451.949249
v -270.005493 20.207996 -454.425537
v -270.764252 20.207996 -450.157013
v -267.751404 20.162588 -454.551178
v -265.876068 20.162588 -450.642303
v -264.611115 20.162592 -455.780121
v -262.730408 20.162592 -451.873840
v -259.822510 20.341919 -459.809937
v -258.338654 20.341919 -455.736298
v -253.813690 20.341913 -463.007233
v -252.411209 20.341913 -458.904938
v -246.975067 20.341913 -465.460083
v -246.253555 20.341913 -461.185089
v -240.092987 20.162601 -467.035431
v -239.371490 20.162601 -462.760437
v -233.135696 20.162600 -468.486389
v -232.414215 20.162601 -464.211395
v -226.309341 20.162594 -468.753540
v -225.587814 20.162596 -464.478577
v -218.384720 20.341913 -468.467743
v -218.621887 20.341915 -464.138794
v -209.723724 20.341913 -467.403992
v -210.435883 20.341915 -463.127411
v -202.699066 20.162596 -466.663818
v -203.734375 20.162596 -462.453796
v -195.067276 20.158350 -465.603607
v -196.654953 20.158350 -461.569366
v -188.265671 20.102381 -463.688446
v -190.482971 20.102381 -459.962921
v -182.825241 20.164557 -461.803833
v -185.133789 20.164557 -458.134125
v -177.590500 19.991007 -458.519714
v -179.906433 19.991007 -454.854706
v 528.297058 30.722073 -810.281982
v 523.991272 30.722073 -810.788696
v 527.207275 30.846243 -800.581665
v 523.174438 30.846243 -802.172913
v 523.301270 30.792439 -791.626648
v 519.750793 30.792439 -794.114685
v 515.122803 30.739273 -783.266357
v 512.214783 30.739273 -786.481934
v 509.190887 30.508257 -780.005005
v 506.616272 30.508257 -783.493225
v 504.624390 30.456503 -777.866638
v 502.119720 30.456503 -781.405396
v 499.790558 30.405525 -775.574585
v 497.890289 30.405525 -779.471375
v 495.259033 30.533930 -773.461487
v 493.358765 30.533930 -777.358276
v 490.727570 30.484669 -771.348450
v 488.827332 30.484669 -775.245239
v 486.196014 30.257788 -769.235352
v 484.295746 30.257786 -773.132141
v 481.664490 30.210438 -767.122192
v 479.764191 30.210436 -771.019043
v 477.132904 30.164097 -765.009155
v 475.232605 30.164097 -768.905945
v 472.601318 30.297380 -762.896057
v 470.701050 30.297380 -766.792847
v 468.069824 30.253254 -760.782959
v 466.169495 30.253254 -764.679688
v 463.538269 30.031746 -758.669800
v 461.638000 30.031746 -762.566589
v 517.428772 30.944468 -840.305481
v 514.343018 30.944468 -843.350830
v 517.028503 30.969885 -838.495605
v 513.020691 30.969885 -840.148987
v 516.540649 31.002857 -836.247986
v 512.265930 31.002857 -836.971191
v 516.656311 31.038897 -833.178650
v 512.340271 31.038897 -832.769104
v 517.313538 31.086775 -831.340515
v 513.483032 31.086775 -829.309937
v 520.943298 30.872393 -828.062378
v 517.204468 30.872393 -825.867493
v 526.250305 30.776997 -820.052612
v 522.087097 30.776997 -818.842773
v 449.746765 30.088913 -752.476624
v 447.846497 30.088913 -756.373413
v 448.577942 30.077665 -751.952698
v 442.751831 30.051136 -753.014526
v 445.977844 30.051136 -750.118164
v 445.565186 30.072502 -755.174377
v 445.066711 30.001335 -747.352295
v 441.181213 30.001335 -749.275635
v 444.767822 29.935041 -743.076904
v 440.550781 29.935041 -744.083130
v 445.044189 29.876398 -738.250793
v 440.798035 29.876398 -739.126221
v 445.983948 29.807806 -734.587341
v 442.076416 29.807806 -732.709229
v 459.125549 29.989998 -756.559143
v 457.225281 29.989998 -760.455994
v 454.426819 29.949528 -754.571716
v 452.526550 29.949528 -758.468506
vn 0.0511 0.9979 0.0389
vn 0.0513 0.9979 0.0390
vn 0.0490 0.9981 0.0372
vn 0.0488 0.9981 0.0371
vn 0.0307 0.9993 0.0234
vn 0.0307 0.9993 0.0233
vn 0.0132 0.9999 0.0100
vn 0.0130 0.9999 0.0098
vn 0.0109 0.9999 0.0083
vn 0.0111 0.9999 0.0085
vn 0.0364 0.9990 0.0276
vn 0.0366 0.9989 0.0278
vn 0.0345 0.9991 0.0262
vn 0.0342 0.9991 0.0260
vn 0.0623 0.9969 0.0474
vn 0.0451 0.9984 0.0343
vn 0.0435 0.9985 0.0331
vn 0.0286 0.9994 0.0217
vn 0.0284 0.9994 0.0216
vn 0.0265 0.9994 0.0201
vn 0.0267 0.9994 0.0203
vn 0.0182 0.9997 0.0138
vn 0.0016 1.0000 0.0012
vn 0.0012 1.0000 0.0009
vn -0.0022 1.0000 -0.0016
vn -0.0019 1.0000 -0.0014
vn 0.0081 0.9999 0.0061
vn 0.0080 0.9999 0.0061
vn 0.0043 1.0000 0.0033
vn 0.0008 1.0000 0.0006
vn 0.0007 1.0000 0.0005
vn 0.0112 0.9999 0.0085
vn 0.0116 0.9999 0.0088
vn 0.0088 0.9999 0.0067
vn 0.0083 0.9999 0.0063
vn -0.0078 1.0000 -0.0060
vn -0.0079 1.0000 -0.0060
vn -0.0237 0.9996 -0.0180
vn -0.0242 0.9995 -0.0184
vn -0.0177 0.9998 -0.0134
vn -0.0230 0.9996 -0.0174
vn -0.0020 1.0000 -0.0009
vn -0.0018 1.0000 -0.0000
vn -0.0029 1.0000 -0.0004
vn -0.0011 1.0000 -0.0003
vn -0.0009 1.0000 -0.0001
vn -0.0010 1.0000 0.0001
vn 0.0009 1.0000 -0.0002
vn 0.0007 1.0000 -0.0003
vn 0.0007 1.0000 -0.0004
vn 0.0004 1.0000 -0.0005
vn -0.0291 0.9993 -0.0219
vn -0.0266 0.9994 -0.0202
vn -0.0205 0.9997 -0.0156
vn -0.0224 0.9996 -0.0170
vn -0.0219 0.9996 -0.0166
vn -0.0206 0.9997 -0.0157
vn -0.0271 0.9994 -0.0206
vn -0.0281 0.9994 -0.0195
vn -0.0344 0.9992 -0.0216
vn -0.0305 0.9995 -0.0113
vn -0.0325 0.9994 -0.0147
vn -0.0340 0.9993 -0.0174
vn -0.0269 0.9996 -0.0081
vn -0.0089 1.0000 -0.0016
vn -0.0039 1.0000 -0.0013
vn -0.0245 0.9997 -0.0061
vn -0.0037 1.0000 -0.0005
vn -0.0022 1.0000 -0.0004
vn -0.0331 0.9991 -0.0252
vn -0.0341 0.9991 -0.0257
vn -0.0342 0.9991 -0.0259
vn -0.0153 0.9999 -0.0027
vn -0.0154 0.9999 -0.0031
vn -0.0266 0.9996 -0.0067
vn -0.0265 0.9996 -0.0078
vn -0.0223 0.9997 -0.0077
vn -0.0250 0.9996 -0.0097
vn -0.0055 1.0000 -0.0021
vn -0.0057 1.0000 -0.0023
vn -0.0016 1.0000 -0.0007
vn -0.0019 1.0000 -0.0010
vn 0.0021 1.0000 0.0011
vn 0.0019 1.0000 0.0012
vn 0.0192 0.9997 0.0144
vn 0.0158 0.9998 0.0120
vn 0.0197 0.9997 0.0150
vn 0.0217 0.9996 0.0165
vn 0.0129 0.9999 0.0098
vn 0.0069 1.0000 0.0052
vn 0.0075 1.0000 0.0057
vn 0.0144 0.9998 0.0109
vn 0.0142 0.9998 0.0108
vn 0.0315 0.9992 0.0239
vn 0.0477 0.9982 0.0362
vn 0.0478 0.9982 0.0363
vn 0.0121 0.9977 0.0668
vn 0.0114 0.9977 0.0662
vn 0.0098 0.9983 0.0572
vn 0.0098 0.9983 0.0569
vn 0.0043 0.9997 0.0248
vn 0.0041 0.9997 0.0239
vn 0.0048 0.9996 0.0281
vn 0.0036 0.9995 0.0312
vn 0.0009 0.9990 0.0451
vn -0.0009 0.9989 0.0465
vn -0.0015 0.9990 0.0446
vn -0.0018 0.9990 0.0448
vn -0.0026 0.9983 0.0582
vn -0.0037 0.9981 0.0610
vn 0.0888 0.9901 0.1085
vn 0.0574 0.9975 0.0411
vn 0.0279 0.9996 0.0096
vn 0.0289 0.9996 0.0068
vn 0.0277 0.9996 0.0035
vn 0.0254 0.9997 0.0036
vn 0.0492 0.9987 0.0118
vn 0.0500 0.9986 0.0155
vn 0.0432 0.9989 0.0197
vn 0.0461 0.9987 0.0234
vn 0.0303 0.9994 0.0163
vn 0.0303 0.9994 0.0176
vn 0.0277 0.9994 0.0215
vn 0.0278 0.9993 0.0232
vn 0.0176 0.9997 0.0160
vn 0.0185 0.9997 0.0177
vn 0.0160 0.9997 0.0192
vn 0.0150 0.9997 0.0187
vn 0.0239 0.9992 0.0317
vn 0.0233 0.9992 0.0325
vn 0.0250 0.9989 0.0393
vn 0.0248 0.9989 0.0398
vn 0.0257 0.9989 0.0391
vn 0.0255 0.9989 0.0395
vn 0.0318 0.9980 0.0547
vn 0.0315 0.9979 0.0559
vn 0.0314 0.9979 0.0564
vn 0.0304 0.9979 0.0564
vn 0.0158 0.9994 0.0318
vn 0.0149 0.9994 0.0319
vn 0.0132 0.9994 0.0311
vn 0.0122 0.9993 0.0339
vn 0.0132 0.9987 0.0493
vn 0.0115 0.9986 0.0519
vn -0.0054 0.9981 0.0621
vn -0.0053 0.9982 0.0605
vn -0.0014 0.9995 0.0319
vn -0.0005 0.9996 0.0275
vn -0.0021 0.9996 0.0275
vn -0.0024 0.9981 0.0610
vn -0.0083 0.9983 0.0581
vn -0.0033 0.9995 0.0313
vn 0.0127 0.9980 0.0620
vn 0.0200 0.9985 0.0504
vn 0.0112 0.9997 0.0207
vn 0.0150 0.9996 0.0228
vn 0.0150 0.9996 0.0223
vn 0.0129 0.9997 0.0227
vn 0.0156 0.9995 0.0278
vn 0.0181 0.9994 0.0311
vn 0.0134 0.9993 0.0339
vn 0.0148 0.9991 0.0392
vn 0.0229 0.9996 0.0153
vn 0.0320 0.9992 0.0239
vn 0.0032 1.0000 0.0084
vn 0.0074 0.9999 0.0129
vn 0.0180 0.9997 0.0162
vn 0.0175 0.9997 0.0178
vn 0.0173 0.9997 0.0178
vn 0.0197 0.9997 0.0166
vn 0.0165 0.9997 0.0199
vn 0.0176 0.9996 0.0203
vn -0.0099 0.9999 -0.0043
vn -0.0092 1.0000 -0.0029
vn 0.0058 1.0000 0.0005
vn 0.0016 1.0000 -0.0016
vn 0.0081 1.0000 -0.0003
vn 0.0038 1.0000 -0.0018
vn -0.0140 0.9999 0.0067
vn -0.0131 0.9999 0.0057
vn -0.0121 0.9999 0.0050
vn -0.0178 0.9998 0.0065
vn -0.0000 1.0000 -0.0000
vn 0.0135 0.9999 -0.0023
vn 0.0116 0.9999 -0.0020
vn 0.0122 0.9999 -0.0021
vn 0.0129 0.9999 -0.0022
vn -0.0102 0.9999 0.0017
vn -0.0131 0.9999 0.0012
vn -0.0125 0.9999 0.0002
vn -0.0126 0.9999 -0.0007
vn 0.0129 0.9999 0.0022
vn 0.0123 0.9999 0.0024
vn 0.0122 0.9999 0.0026
vn 0.0144 0.9999 0.0035
vn 0.0044 1.0000 0.0017
vn 0.0037 1.0000 0.0017
vn 0.0005 1.0000 0.0002
vn 0.0084 1.0000 0.0054
vn 0.0059 1.0000 0.0038
vn 0.0381 0.9990 0.0240
vn 0.0388 0.9989 0.0251
vn 0.0008 1.0000 -0.0042
vn 0.0007 1.0000 -0.0019
vn 0.0008 1.0000 -0.0034
vn 0.0018 1.0000 -0.0051
vn -0.0029 1.0000 0.0044
vn -0.0032 1.0000 0.0044
vn -0.0140 0.9998 0.0129
vn -0.0161 0.9998 0.0137
vn -0.0194 0.9997 0.0152
vn -0.0179 0.9998 0.0132
vn -0.0083 0.9999 0.0059
vn -0.0087 0.9999 0.0056
vn 0.0069 1.0000 -0.0030
vn 0.0068 1.0000 -0.0033
vn 0.0073 1.0000 -0.0036
vn 0.0069 1.0000 -0.0034
vn -0.0246 0.9996 0.0120
vn -0.0250 0.9996 0.0122
vn -0.0248 0.9996 0.0121
vn -0.0245 0.9996 0.0119
vn -0.0084 1.0000 0.0041
vn 0.0076 1.0000 -0.0037
vn 0.0080 1.0000 -0.0039
vn 0.0082 1.0000 -0.0040
vn 0.0078 1.0000 -0.0038
vn -0.0237 0.9997 0.0116
vn -0.0240 0.9996 0.0117
vn -0.0239 0.9996 0.0116
vn -0.0236 0.9997 0.0115
vn 0.0114 0.9999 -0.0115
vn 0.0049 1.0000 -0.0079
vn 0.0063 0.9999 -0.0116
vn 0.0028 1.0000 -0.0088
vn 0.0029 0.9999 -0.0119
vn 0.0010 1.0000 -0.0099
vn -0.0010 0.9998 -0.0181
vn -0.0029 0.9999 -0.0119
vn 0.0096 0.9999 0.0127
vn 0.0070 0.9999 0.0123
vn 0.0125 0.9997 0.0221
vn 0.0144 0.9996 0.0253
vn 0.0026 1.0000 0.0076
vn 0.0022 1.0000 0.0087
vn 0.0086 1.0000 -0.0042
vn 0.0093 0.9999 -0.0042
vn -0.0070 1.0000 0.0042
vn -0.0059 0.9999 0.0081
vn -0.0092 0.9999 0.0095
vn -0.0053 1.0000 0.0041
vn -0.0081 0.9999 0.0139
vn -0.0053 0.9999 0.0121
vn -0.0038 0.9999 0.0128
vn -0.0029 0.9999 0.0123
vn -0.0035 0.9999 0.0168
vn -0.0012 0.9999 0.0128
vn 0.0017 0.9999 0.0132
vn 0.0047 0.9999 0.0098
vn -0.0074 1.0000 0.0036
vn 0.0091 0.9999 -0.0044
vt 0.001499 1.999501
vt 0.001498 1.000509
vt 0.177793 1.999500
vt 0.177793 1.000509
vt 0.354087 1.999499
vt 0.354087 1.000508
vt 0.530381 1.999499
vt 0.530381 1.000507
vt 0.706676 1.999498
vt 0.706676 1.000507
vt 0.882970 1.999498
vt 0.882970 1.000506
vt 1.059264 1.999497
vt 1.059264 1.000506
vt 2.293324 1.999493
vt 2.293324 1.000502
vt 2.469619 1.999493
vt 2.469619 1.000501
vt 2.645913 1.999492
vt 2.645913 1.000501
vt 2.822207 1.999491
vt 2.822207 1.000500
vt 2.998502 1.999491
vt 2.998502 1.000499
vt 1.235559 1.999496
vt 1.235559 1.000505
vt 1.411853 1.999496
vt 1.411853 1.000505
vt 1.588147 1.999495
vt 1.588147 1.000504
vt 1.764441 1.999495
vt 1.764441 1.000504
vt 1.940736 1.999494
vt 1.940736 1.000503
vt 2.117030 1.999494
vt 2.117030 1.000502
vt 0.083704 1.999500
vt 0.100408 1.000509
vt 0.091576 1.999500
vt 0.100387 1.000509
vt 0.444963 1.999499
vt 0.432835 1.000508
vt 0.612819 1.999499
vt 0.644695 1.000507
vt 0.078947 1.999500
vt 0.100069 1.000509
vt 1.854532 1.999495
vt 1.852396 1.000503
vt 0.053992 1.999500
vt 0.078086 1.000509
s 1
usemtl GVTRANS.006
f 1/1/1 2/2/2 3/3/3
f 4/4/4 3/3/3 2/2/2
f 3/3/3 4/4/4 5/5/5
f 6/6/6 5/5/5 4/4/4
f 5/5/5 6/6/6 7/7/7
f 8/8/8 7/7/7 6/6/6
f 7/7/7 8/8/8 9/9/9
f 10/10/10 9/9/9 8/8/8
f 9/9/9 10/10/10 11/11/11
f 12/12/12 11/11/11 10/10/10
f 11/11/11 12/12/12 13/13/13
f 14/14/14 13/13/13 12/12/12
f 15/15/15 16/16/16 17/17/17
f 18/18/17 17/17/17 16/16/16
f 17/17/17 18/18/17 19/19/18
f 20/20/19 19/19/18 18/18/17
f 19/19/18 20/20/19 21/21/20
f 22/22/21 21/21/20 20/20/19
f 21/21/20 22/22/21 1/23/1
f 2/24/2 1/23/1 22/22/21
f 13/13/13 14/14/14 23/25/22
f 24/26/22 23/25/22 14/14/14
f 23/25/22 24/26/22 25/27/23
f 26/28/24 25/27/23 24/26/22
f 25/27/23 26/28/24 27/29/25
f 28/30/26 27/29/25 26/28/24
f 27/29/25 28/30/26 29/31/27
f 30/32/28 29/31/27 28/30/26
f 29/31/27 30/32/28 31/33/29
f 32/34/29 31/33/29 30/32/28
f 31/33/29 32/34/29 33/35/30
f 34/36/31 33/35/30 32/34/29
f 33/35/30 34/36/31 35/15/32
f 36/16/33 35/15/32 34/36/31
f 35/15/32 36/16/33 37/17/34
f 38/18/35 37/17/34 36/16/33
f 37/17/34 38/18/35 39/19/36
f 40/20/37 39/19/36 38/18/35
f 39/19/36 40/20/37 41/21/38
f 42/22/39 41/21/38 40/20/37
f 41/21/38 42/22/39 43/23/40
f 44/24/41 43/23/40 42/22/39
f 43/1/40 44/2/41 45/37/42
f 46/4/43 47/3/44 48/38/45
f 47/3/44 46/4/43 49/5/46
f 50/6/47 49/5/46 46/4/43
f 49/5/46 50/6/47 51/7/48
f 52/8/49 51/7/48 50/6/47
f 51/7/48 52/8/49 53/9/50
f 54/10/51 53/9/50 52/8/49
f 45/37/42 44/2/41 48/38/45
f 48/38/45 47/3/44 45/37/42
f 55/1/52 56/2/53 57/39/54
f 58/4/55 59/3/56 60/40/57
f 59/3/56 58/4/55 61/5/58
f 62/6/59 61/5/58 58/4/55
f 61/5/58 62/6/59 63/41/60
f 64/8/61 65/7/62 66/42/63
f 65/7/62 64/8/61 67/43/64
f 68/10/65 69/9/66 70/44/67
f 69/9/66 68/10/65 71/11/68
f 72/12/69 71/11/68 68/10/65
f 73/1/70 74/2/70 75/45/71
f 56/4/53 55/3/52 76/46/72
f 63/41/60 62/6/59 66/42/63
f 66/42/63 65/7/62 63/41/60
f 67/43/64 64/8/61 70/44/67
f 70/44/67 69/9/66 67/43/64
f 75/45/71 74/2/70 76/46/72
f 76/46/72 55/3/52 75/45/71
f 57/39/54 56/2/53 60/40/57
f 60/40/57 59/3/56 57/39/54
f 77/1/73 78/2/74 79/3/75
f 80/4/76 79/3/75 78/2/74
f 79/3/75 80/4/76 81/5/77
f 82/6/78 81/5/77 80/4/76
f 81/5/77 82/6/78 83/7/79
f 84/8/80 83/7/79 82/6/78
f 83/7/79 84/8/80 85/9/81
f 86/10/82 85/9/81 84/8/80
f 85/9/81 86/10/82 87/11/83
f 88/12/84 87/11/83 86/10/82
f 87/11/83 88/12/84 89/13/85
f 90/14/86 89/13/85 88/12/84
f 89/13/85 90/14/86 91/25/87
f 92/26/88 91/25/87 90/14/86
f 91/25/87 92/26/88 93/27/7
f 94/28/89 93/27/7 92/26/88
f 93/27/7 94/28/89 95/29/90
f 96/30/91 95/29/90 94/28/89
f 95/29/90 96/30/91 97/31/92
f 98/32/93 97/31/92 96/30/91
f 97/31/92 98/32/93 99/33/94
f 100/34/94 99/33/94 98/32/93
f 99/33/94 100/34/94 101/35/95
f 102/36/96 101/35/95 100/34/94
f 101/35/95 102/36/96 15/15/15
f 16/16/16 15/15/15 102/36/96
f 71/11/68 72/12/69 77/13/73
f 78/14/74 77/13/73 72/12/69
f 103/1/97 104/2/98 105/3/99
f 106/4/100 105/3/99 104/2/98
f 105/3/99 106/4/100 107/5/101
f 108/6/102 107/5/101 106/4/100
f 107/5/101 108/6/102 109/7/103
f 110/8/104 109/7/103 108/6/102
f 109/7/103 110/8/104 111/9/105
f 112/10/106 111/9/105 110/8/104
f 111/9/105 112/10/106 113/11/107
f 114/12/108 113/11/107 112/10/106
f 113/11/107 114/12/108 115/13/109
f 116/14/110 115/13/109 114/12/108
f 117/1/111 118/2/112 119/3/113
f 120/4/114 119/3/113 118/2/112
f 119/3/113 120/4/114 121/5/115
f 122/6/116 121/5/115 120/4/114
f 121/5/115 122/6/116 123/7/117
f 124/8/118 123/7/117 122/6/116
f 123/7/117 124/8/118 125/9/119
f 126/10/120 125/9/119 124/8/118
f 125/9/119 126/10/120 127/11/121
f 128/12/122 127/11/121 126/10/120
f 127/11/121 128/12/122 129/13/123
f 130/14/124 129/13/123 128/12/122
f 129/13/123 130/14/124 131/25/125
f 132/26/126 131/25/125 130/14/124
f 131/25/125 132/26/126 133/27/127
f 134/28/128 133/27/127 132/26/126
f 133/27/127 134/28/128 135/29/129
f 136/30/130 135/29/129 134/28/128
f 135/29/129 136/30/130 137/31/131
f 138/32/132 137/31/131 136/30/130
f 137/31/131 138/32/132 139/33/133
f 140/34/134 139/33/133 138/32/132
f 139/33/133 140/34/134 141/35/135
f 142/36/136 141/35/135 140/34/134
f 141/35/135 142/36/136 143/15/137
f 144/16/138 143/15/137 142/36/136
f 143/15/137 144/16/138 145/17/139
f 146/18/140 145/17/139 144/16/138
f 145/17/139 146/18/140 147/19/141
f 148/20/142 147/19/141 146/18/140
f 147/19/141 148/20/142 149/21/143
f 150/22/144 149/21/143 148/20/142
f 149/21/143 150/22/144 103/23/97
f 104/24/98 103/23/97 150/22/144
f 115/27/109 116/28/110 151/29/145
f 152/30/146 151/29/145 116/28/110
f 151/29/145 152/30/146 153/31/147
f 154/32/148 153/31/147 152/30/146
f 153/31/147 154/32/148 155/47/149
f 156/34/150 157/33/151 158/48/152
f 157/33/151 156/34/150 159/35/153
f 160/36/154 159/35/153 156/34/150
f 159/35/153 160/36/154 161/15/155
f 162/16/156 161/15/155 160/36/154
f 161/15/155 162/16/156 163/17/157
f 164/18/158 163/17/157 162/16/156
f 163/17/157 164/18/158 165/19/159
f 166/20/160 165/19/159 164/18/158
f 165/19/159 166/20/160 167/21/161
f 168/22/162 167/21/161 166/20/160
f 158/48/152 157/33/151 155/47/149
f 155/47/149 154/32/148 158/48/152
f 169/1/163 170/2/164 171/3/165
f 172/4/166 171/3/165 170/2/164
f 171/3/165 172/4/166 173/5/167
f 174/6/168 173/5/167 172/4/166
f 173/5/167 174/6/168 175/7/169
f 176/8/170 175/7/169 174/6/168
f 175/7/169 176/8/170 177/9/171
f 178/10/172 177/9/171 176/8/170
f 179/1/173 180/2/174 181/3/175
f 182/4/176 181/3/175 180/2/174
f 181/3/175 182/4/176 183/5/177
f 184/6/178 183/5/177 182/4/176
f 183/5/177 184/6/178 185/7/179
f 186/8/180 185/7/179 184/6/178
f 185/7/179 186/8/180 187/9/181
f 188/10/182 187/9/181 186/8/180
f 187/9/181 188/10/182 189/11/183
f 190/12/183 189/11/183 188/10/182
f 189/11/183 190/12/183 191/13/184
f 192/14/185 191/13/184 190/12/183
f 191/13/184 192/14/185 193/25/186
f 194/26/187 193/25/186 192/14/185
f 193/25/186 194/26/187 195/27/183
f 196/28/183 195/27/183 194/26/187
f 195/27/183 196/28/183 197/29/188
f 198/30/189 197/29/188 196/28/183
f 197/29/188 198/30/189 199/31/190
f 200/32/191 199/31/190 198/30/189
f 199/31/190 200/32/191 201/33/192
f 202/34/193 201/33/192 200/32/191
f 201/33/192 202/34/193 203/35/194
f 204/36/195 203/35/194 202/34/193
f 203/35/194 204/36/195 205/15/196
f 206/16/197 205/15/196 204/36/195
f 205/15/196 206/16/197 207/17/25
f 208/18/198 207/17/25 206/16/197
f 207/17/25 208/18/198 209/19/199
f 210/20/200 209/19/199 208/18/198
f 209/19/199 210/20/200 211/21/201
f 212/22/202 211/21/201 210/20/200
f 211/21/201 212/22/202 169/23/163
f 170/24/164 169/23/163 212/22/202
f 213/1/203 214/2/204 215/3/205
f 216/4/206 215/3/205 214/2/204
f 215/3/205 216/4/206 217/5/207
f 218/6/208 217/5/207 216/4/206
f 217/5/207 218/6/208 219/7/209
f 220/8/210 219/7/209 218/6/208
f 219/7/209 220/8/210 221/9/211
f 222/10/212 221/9/211 220/8/210
f 221/9/211 222/10/212 223/11/213
f 224/12/214 223/11/213 222/10/212
f 223/11/213 224/12/214 225/13/215
f 226/14/216 225/13/215 224/12/214
f 225/13/215 226/14/216 227/25/217
f 228/26/218 227/25/217 226/14/216
f 227/25/217 228/26/218 229/27/219
f 230/28/220 229/27/219 228/26/218
f 229/27/219 230/28/220 231/29/221
f 232/30/222 231/29/221 230/28/220
f 231/29/221 232/30/222 233/31/223
f 234/32/223 233/31/223 232/30/222
f 233/31/223 234/32/223 235/33/224
f 236/34/225 235/33/224 234/32/223
f 235/33/224 236/34/225 237/35/226
f 238/36/227 237/35/226 236/34/225
f 237/35/226 238/36/227 239/15/228
f 240/16/229 239/15/228 238/36/227
f 239/15/228 240/16/229 241/17/230
f 242/18/231 241/17/230 240/16/229
f 243/31/232 244/32/233 245/33/234
f 246/34/235 245/33/234 244/32/233
f 245/33/234 246/34/235 247/35/236
f 248/36/237 247/35/236 246/34/235
f 247/35/236 248/36/237 249/15/238
f 250/16/239 249/15/238 248/36/237
f 249/15/238 250/16/239 251/17/240
f 252/18/241 251/17/240 250/16/239
f 251/17/240 252/18/241 253/19/242
f 254/20/243 253/19/242 252/18/241
f 253/19/242 254/20/243 255/21/244
f 256/22/245 255/21/244 254/20/243
f 255/21/244 256/22/245 213/23/203
f 214/24/204 213/23/203 256/22/245
f 257/1/246 258/2/247 259/49/248
f 260/4/249 261/3/250 262/50/251
f 261/3/250 260/4/249 263/5/252
f 264/6/253 263/5/252 260/4/249
f 263/5/252 264/6/253 265/7/254
f 266/8/255 265/7/254 264/6/253
f 265/7/254 266/8/255 267/9/256
f 268/10/257 267/9/256 266/8/255
f 267/9/256 268/10/257 269/11/258
f 270/12/259 269/11/258 268/10/257
f 241/17/230 242/18/231 271/19/260
f 272/20/260 271/19/260 242/18/231
f 271/19/260 272/20/260 273/21/226
f 274/22/261 273/21/226 272/20/260
f 273/21/226 274/22/261 257/23/246
f 258/24/247 257/23/246 274/22/261
f 262/50/251 261/3/250 259/49/248
f 259/49/248 258/2/247 262/50/251
