# Blender 4.4.3
# www.blender.org
mtllib GRDRB.mtl
o GRDRB
v 158.136124 -1.667722 -20.001490
v 158.136124 -0.993576 -19.729565
v -188.358475 0.039582 13.469725
v -188.359039 0.038360 8.721234
v -188.376190 0.701777 8.721233
v -188.375610 0.702998 13.469724
v -188.502075 0.701777 8.717098
v -188.501572 0.702998 13.469724
v -148.563889 20.247128 -480.867920
v -144.512909 20.239895 -491.781799
v -148.683548 20.247128 -480.907257
v -144.632553 20.239895 -491.821106
v -144.632553 19.576479 -491.821106
v -148.683533 19.583712 -480.907227
v 12.745060 12.088807 -344.697510
v 15.696729 12.200908 -339.022980
v 15.822325 12.200904 -339.032349
v 12.871017 12.088801 -344.697723
v 15.822315 11.537487 -339.032349
v 12.871013 11.425385 -344.697723
v 335.007019 13.683083 -410.580688
v 339.102234 13.683082 -413.481659
v 339.101227 13.019665 -413.487457
v 335.003571 13.019666 -410.584686
v 335.079834 13.683084 -410.477905
v 339.175049 13.683082 -413.378876
v 572.783203 -2.613306 -95.348396
v 563.789246 -2.613305 -95.349701
v 563.802612 -2.613305 -95.224495
v 572.770508 -2.613306 -95.223099
v 572.783203 -3.276722 -95.348381
v 563.789246 -3.276722 -95.349701
v -62.816875 -1.034914 -19.729603
v -65.327698 -1.034914 -19.729603
v -62.816875 -1.667731 -19.729603
v -65.327698 -1.667731 -19.729603
v -47.751884 -1.034913 -19.729603
v -50.262703 -1.034913 -19.729603
v -47.751884 -1.667730 -19.729603
v -50.262703 -1.667730 -19.729603
v -52.773552 -1.034913 -19.729603
v -52.773552 -1.667730 -19.729603
v -60.306053 -1.034914 -19.729603
v -60.306053 -1.667731 -19.729603
v -62.816875 -1.034914 -19.890373
v -65.327698 -1.034914 -19.890373
v -47.751884 -1.034914 -19.890373
v -50.262703 -1.034914 -19.890373
v -52.621449 -1.034914 -19.890373
v -60.466824 -1.034914 -19.836073
v 173.201187 -0.993580 -19.729618
v 173.201187 -1.667725 -19.729618
v 158.136108 -1.667720 -19.729557
v 173.201187 -0.993580 -20.001545
v 158.136108 -0.993576 -20.001484
v -298.090302 20.806862 -550.682983
v -300.475098 20.806864 -550.687256
v -298.090302 20.146309 -550.682983
v -298.089844 20.146309 -550.808411
v -300.474609 20.146309 -550.812683
v -300.474609 20.806864 -550.812683
v -298.089844 20.806862 -550.808411
v -300.475098 20.146309 -550.687256
v 341.172760 28.788771 -734.679138
v 342.176697 28.788660 -732.515991
v 341.172760 29.449324 -734.679138
v 342.290619 28.791853 -732.568604
v 341.286560 28.791960 -734.731750
v 341.286560 29.452513 -734.731750
v 342.176697 29.449213 -732.515991
v 342.290619 29.452406 -732.568604
v -126.356064 -0.740343 -16.450552
v -126.351768 -0.740403 -18.846062
v -126.351768 -1.403820 -18.846062
v -126.356064 -1.403760 -16.450552
v -126.225845 -0.742124 -18.857294
v -126.230118 -0.742065 -16.461786
v -126.225830 -1.405541 -18.857290
v -126.230118 -1.405481 -16.461786
v -297.075928 20.806873 -427.059113
v -295.062317 20.806873 -428.336853
v -295.062317 20.146318 -428.336853
v -297.075928 20.146318 -427.059113
v -294.995331 20.806873 -428.230835
v -297.008942 20.806873 -426.953125
v -294.995331 20.146318 -428.230835
v -297.008942 20.146318 -426.953125
v -262.184845 3.019715 10.065773
v -261.087616 3.019522 7.936764
v -261.087616 2.356105 7.936764
v -262.184845 2.356298 10.065773
v -260.957947 3.013883 8.003700
v -262.052765 3.014076 10.133936
v -260.957947 2.350467 8.003700
v -262.052765 2.350660 10.133936
v -306.265076 8.437353 -113.550499
v -304.008667 8.400471 -114.353699
v -304.008667 7.737054 -114.353699
v -306.265076 7.773937 -113.550499
v -303.971375 8.393246 -114.248550
v -306.226685 8.430140 -113.442307
v -303.971375 7.729829 -114.248550
v -306.226685 7.766722 -113.442307
v -322.848633 19.970341 -602.069580
v -320.463867 19.970556 -602.065308
v -320.463867 19.310001 -602.065308
v -322.848633 19.309786 -602.069580
v -320.464355 19.976862 -601.939880
v -322.849121 19.976646 -601.944153
v -320.464355 19.316307 -601.939880
v -322.849121 19.316093 -601.944153
v -294.829926 15.161986 -233.749603
v -293.107574 15.240872 -232.085419
v -293.107574 14.577456 -232.085419
v -294.829926 14.498567 -233.749603
v -293.170227 15.237607 -232.019699
v -294.890411 15.159132 -233.686142
v -293.170227 14.574190 -232.019699
v -294.890411 14.495717 -233.686142
v -302.937134 7.190311 -722.026062
v -299.851044 7.190907 -722.021729
v -299.851044 6.530353 -722.021729
v -302.937134 6.529756 -722.026062
v -299.853455 7.208355 -721.894531
v -302.939178 7.207763 -721.898865
v -299.853455 6.547800 -721.894531
v -302.939178 6.547209 -721.898865
v -236.133759 20.123489 -325.296417
v -233.751404 20.123394 -325.543121
v -233.751404 19.459978 -325.543121
v -236.133759 19.460073 -325.296417
v -233.738647 20.120695 -325.417816
v -236.121002 20.120790 -325.171082
v -233.738647 19.457279 -325.417816
v -236.121002 19.457373 -325.171082
v -276.575378 20.814789 -490.408020
v -274.180267 20.814787 -490.414215
v -274.180267 20.151371 -490.414215
v -276.575378 20.151373 -490.408020
v -274.179657 20.814787 -490.249634
v -276.574707 20.814789 -490.235382
v -274.179657 20.151371 -490.249634
v -276.574707 20.151373 -490.235382
v -153.076920 15.407481 -383.518677
v -154.538361 15.407884 -381.621094
v -154.538361 14.744467 -381.621094
v -153.076904 14.744064 -383.518646
v -154.638016 15.419721 -381.698151
v -153.176575 15.419317 -383.595703
v -154.638016 14.756304 -381.698151
v -153.176575 14.755901 -383.595703
v -39.278191 11.877148 -334.896240
v -39.756912 11.877076 -332.549469
v -39.756912 11.213659 -332.549469
v -39.278191 11.213731 -334.896240
v -39.873302 11.876526 -332.573761
v -39.391193 11.876596 -334.919830
v -39.873302 11.213109 -332.573761
v -39.391193 11.213180 -334.919830
v -175.068954 -6.290458 -759.085876
v -176.565018 -6.290745 -757.229492
v -176.565018 -6.951301 -757.229492
v -175.068954 -6.951015 -759.085876
v -176.643570 -6.299110 -757.291016
v -175.142578 -6.298824 -759.143372
v -176.643570 -6.959667 -757.291016
v -175.142578 -6.959381 -759.143372
v 82.444252 12.689877 -311.149933
v 82.505356 12.689745 -308.755554
v 82.505356 12.026328 -308.755554
v 82.444252 12.026460 -311.149933
v 82.388535 12.688726 -308.752808
v 82.325119 12.688858 -311.147095
v 82.388535 12.025310 -308.752808
v 82.325150 12.025441 -311.147095
v -73.680298 5.363926 -774.838013
v -70.190063 5.382379 -773.615356
v -70.190063 4.721822 -773.615356
v -73.680298 4.703375 -774.838013
v -70.238388 5.371692 -773.535400
v -73.729126 5.353144 -774.758362
v -70.238388 4.711135 -773.535400
v -73.729126 4.692595 -774.758362
v -7.280365 16.067850 -895.200562
v -7.311157 16.049265 -892.815918
v -7.311157 15.388709 -892.815918
v -7.280365 15.407292 -895.200562
v -7.472504 16.042881 -892.817261
v -7.443817 16.061512 -895.201965
v -7.472504 15.382322 -892.817261
v -7.443817 15.400955 -895.201965
v 199.651016 13.534605 -368.069519
v 199.631104 13.534530 -365.674500
v 199.631104 12.871114 -365.674500
v 199.651016 12.871188 -368.069519
v 199.516357 13.533958 -365.675781
v 199.538162 13.534032 -368.070831
v 199.516357 12.870542 -365.675781
v 199.538162 12.870617 -368.070831
v 105.404045 19.682726 -905.922974
v 106.372948 19.682400 -903.654114
v 106.372963 19.021845 -903.654114
v 105.404045 19.022171 -905.922974
v 106.275642 19.672922 -903.593811
v 105.308769 19.673246 -905.863892
v 106.275642 19.012367 -903.593811
v 105.308769 19.012691 -905.863892
v 277.615112 13.681858 -418.765869
v 279.671448 13.681858 -419.993927
v 279.671448 13.018441 -419.993927
v 277.615112 13.018442 -418.765869
v 279.735809 13.681858 -419.885651
v 277.679474 13.681858 -418.657593
v 279.735809 13.018441 -419.885651
v 277.679474 13.018442 -418.657593
v 361.946320 34.608021 -982.741089
v 360.575500 34.503353 -980.790588
v 360.575500 33.841206 -980.790588
v 361.946320 33.945766 -982.741089
v 360.483185 34.509052 -980.873779
v 361.854004 34.613827 -982.824219
v 360.483185 33.846897 -980.873779
v 361.854004 33.951572 -982.824219
v 450.529694 31.497557 -903.557373
v 449.158875 31.467997 -901.606934
v 449.158875 30.808359 -901.606934
v 450.529694 30.837900 -903.557373
v 449.066528 31.466101 -901.690063
v 450.437378 31.495722 -903.640503
v 449.066559 30.806465 -901.690063
v 450.437378 30.836067 -903.640503
v 414.694794 12.725053 -464.045380
v 413.309479 12.724925 -465.999176
v 413.309479 12.061508 -465.999176
v 414.694824 12.061636 -464.045380
v 413.412354 12.721169 -466.071838
v 414.797729 12.721299 -464.118042
v 413.412354 12.057753 -466.071838
v 414.797729 12.057882 -464.118042
v 219.721588 31.280825 -945.290466
v 221.052704 31.336218 -942.752869
v 221.052704 30.675665 -942.752869
v 219.721588 30.620272 -945.290466
v 220.968658 31.326048 -942.695923
v 219.635040 31.270761 -945.230896
v 220.968658 30.665495 -942.695923
v 219.635040 30.610205 -945.230896
v 418.316956 30.263636 -718.948730
v 417.313049 30.263655 -721.111877
v 417.313049 29.603102 -721.111877
v 418.316956 29.603081 -718.948730
v 417.426880 30.264265 -721.164429
v 418.430908 30.264248 -719.001343
v 417.426880 29.603712 -721.164429
v 418.430908 29.603693 -719.001343
v 541.088989 6.935238 -557.916199
v 542.399719 6.934984 -559.920837
v 542.399719 6.271569 -559.920837
v 541.088989 6.271821 -557.916199
v 542.562988 6.927624 -559.813843
v 541.243835 6.927875 -557.814697
v 542.562988 6.264206 -559.813843
v 541.243835 6.264460 -557.814697
v 341.717896 29.452688 -733.969910
v 344.041870 29.452398 -728.410645
v 344.041870 28.791845 -728.410645
v 341.717896 28.792135 -733.969910
v 343.927979 29.449205 -728.358093
v 341.604126 29.449499 -733.917358
v 343.927948 28.788652 -728.358093
v 341.604126 28.788946 -733.917358
v 522.654785 -0.645946 -407.330109
v 524.871704 -0.604915 -406.423492
v 524.871643 -1.268332 -406.423492
v 522.654785 -1.309362 -407.330109
v 524.827576 -0.609474 -406.316284
v 522.611755 -0.650442 -407.225555
v 524.827576 -1.272890 -406.316284
v 522.611755 -1.313858 -407.225555
v 251.795059 24.395285 -636.435364
v 252.799072 24.395058 -634.272217
v 252.799057 23.734503 -634.272217
v 251.795059 23.734728 -636.435364
v 252.685181 24.388437 -634.219666
v 251.681198 24.388666 -636.382812
v 252.685181 23.727884 -634.219666
v 251.681198 23.728109 -636.382812
v 157.577728 19.157753 -568.604492
v 159.962509 19.157568 -568.600159
v 159.962509 18.497015 -568.600159
v 157.577728 18.497198 -568.604492
v 159.962036 19.152235 -568.474731
v 157.577255 19.152418 -568.479065
v 159.962036 18.491678 -568.474731
v 157.577255 18.491861 -568.479004
v 222.700333 13.899953 -475.623016
v 224.089401 13.899891 -477.663666
v 224.089401 13.239336 -477.663666
v 222.700333 13.239398 -475.623016
v 224.181686 13.898117 -477.610138
v 222.795471 13.898178 -475.567993
v 224.181686 13.237562 -477.610138
v 222.795471 13.237623 -475.567993
v 403.855835 -2.614546 -20.667805
v 403.163574 -2.614547 -22.960384
v 403.163574 -3.277964 -22.960384
v 403.855835 -3.277963 -20.667805
v 403.266418 -2.614547 -22.990299
v 403.963409 -2.614546 -20.699139
v 403.266418 -3.277964 -22.990299
v 403.963409 -3.277963 -20.699139
v 551.131592 -2.614511 -47.423229
v 548.736877 -2.614515 -47.467720
v 548.736877 -3.277930 -47.467720
v 551.131592 -3.277929 -47.423229
v 548.739441 -2.614515 -47.593651
v 551.134155 -2.614511 -47.549152
v 548.739441 -3.277930 -47.593651
v 551.134155 -3.277929 -47.549152
v 231.714447 -1.776021 -18.846205
v 231.718750 -1.776105 -16.450699
v 231.714447 -2.439437 -18.846205
v 231.718750 -2.439522 -16.450699
v 231.592789 -1.773592 -16.461926
v 231.588486 -1.773507 -18.857424
v 231.588486 -2.436924 -18.857424
v 231.592789 -2.437008 -16.461926
v 294.202393 -2.614521 16.044771
v 294.206604 -2.614522 13.649654
v 294.206604 -3.277939 13.649654
v 294.202393 -3.277937 16.044771
v 294.332489 -2.614522 13.650118
v 294.328308 -2.614521 16.045227
v 294.332489 -3.277939 13.650118
v 294.328308 -3.277937 16.045227
v 353.980835 -2.613292 -17.986263
v 353.981842 -2.614708 -12.236412
v 353.981812 -3.278125 -12.236437
v 353.980835 -3.276707 -17.986263
v 353.854858 -2.613292 -17.985020
v 353.855896 -2.614708 -12.235176
v -7.098717 -1.005532 16.047192
v -7.094421 -1.005533 13.652080
v -7.094421 -1.668950 13.652080
v -7.098717 -1.668949 16.047192
v -6.968464 -1.005533 13.652554
v -6.972763 -1.005532 16.047665
v -6.968464 -1.668950 13.652554
v -6.972763 -1.668949 16.047665
v 535.611267 -2.614521 -184.076492
v 533.312378 -2.614523 -183.404266
v 533.312378 -3.277939 -183.404266
v 535.611267 -3.277939 -184.076492
v 533.277283 -2.614523 -183.525238
v 535.576111 -2.614521 -184.197449
v 533.277283 -3.277939 -183.525238
v 535.576111 -3.277939 -184.197449
v 523.527710 -2.614531 -302.480408
v 525.826111 -2.614532 -303.154205
v 525.826111 -3.277948 -303.154205
v 523.527710 -3.277948 -302.480408
v 525.861267 -2.614532 -303.033264
v 523.562927 -2.614531 -302.359467
v 525.861267 -3.277948 -303.033264
v 523.562927 -3.277948 -302.359467
vn -0.0000 1.0000 -0.0000
vn -1.0000 -0.0000 -0.0000
vn -0.6667 -0.3333 0.6666
vn -0.0970 -0.4186 0.9030
vn 0.9997 0.0258 -0.0001
vn -0.0000 1.0000 -0.0003
vn 0.0002 1.0000 -0.0006
vn -0.9375 -0.0000 -0.3480
vn -0.0000 0.9998 -0.0198
vn -0.0014 0.9998 -0.0190
vn 0.8869 -0.0000 -0.4620
vn -0.5780 0.0080 -0.8160
vn 0.0001 -0.0000 -1.0000
vn -0.0000 -0.0000 1.0000
vn -0.0018 -0.0000 1.0000
vn 0.0018 -0.0000 -1.0000
vn -0.9071 -0.0000 0.4210
vn 0.9070 -0.0000 -0.4210
vn 0.9071 -0.0000 -0.4210
vn -1.0000 -0.0000 -0.0018
vn 1.0000 -0.0000 0.0018
vn -0.5358 -0.0000 -0.8443
vn -0.5358 -0.0000 -0.8444
vn 0.5358 -0.0000 0.8444
vn -0.8889 -0.0000 -0.4581
vn 0.8894 -0.0000 0.4571
vn -0.3354 -0.0000 -0.9421
vn -0.3353 -0.0000 -0.9421
vn 0.3366 -0.0000 0.9416
vn 0.6949 -0.0000 -0.7191
vn -0.6958 -0.0000 0.7182
vn 0.0014 -0.0000 -1.0000
vn -0.0014 -0.0000 1.0000
vn -0.1030 -0.0000 -0.9947
vn 0.1030 -0.0000 0.9947
vn -0.0026 -0.0000 -1.0000
vn 0.0060 -0.0000 1.0000
vn 0.0059 -0.0000 1.0000
vn 0.7923 0.0001 0.6102
vn 0.7923 -0.0000 0.6102
vn -0.7923 -0.0000 -0.6102
vn 0.9798 -0.0000 0.1999
vn -0.9795 -0.0000 -0.2013
vn 0.7786 -0.0000 0.6275
vn -0.7769 -0.0000 -0.6296
vn 0.9997 -0.0000 -0.0255
vn -0.9996 -0.0000 0.0265
vn -0.9996 -0.0001 0.0265
vn 0.3306 -0.0000 -0.9438
vn -0.3306 -0.0000 0.9438
vn -0.3307 -0.0000 0.9438
vn 0.9999 -0.0000 0.0129
vn -0.9999 -0.0000 -0.0120
vn 1.0000 -0.0000 0.0083
vn -1.0000 -0.0000 -0.0091
vn 0.9196 -0.0000 -0.3927
vn 0.9197 -0.0000 -0.3927
vn -0.9200 -0.0000 0.3918
vn -0.9200 -0.0000 0.3919
vn -0.5127 -0.0000 -0.8586
vn 0.5128 -0.0000 0.8585
vn 0.5127 -0.0000 0.8586
vn 0.5127 -0.0000 0.8585
vn 0.8182 -0.0000 0.5750
vn 0.8181 -0.0000 0.5750
vn -0.8182 -0.0000 -0.5750
vn -0.8181 -0.0000 -0.5750
vn -0.8158 -0.0000 0.5784
vn -0.8157 -0.0000 0.5784
vn 0.8157 -0.0000 -0.5784
vn 0.8856 -0.0000 -0.4645
vn -0.8850 -0.0000 0.4656
vn -0.9071 -0.0000 0.4209
vn -0.8370 -0.0000 -0.5473
vn -0.8370 -0.0000 -0.5472
vn 0.8347 -0.0000 0.5508
vn 0.9226 -0.0000 -0.3857
vn -0.9226 -0.0000 0.3857
vn 0.3785 -0.0000 -0.9256
vn -0.3797 -0.0000 0.9251
vn -0.3796 -0.0000 0.9251
vn 0.0019 -0.0000 -1.0000
vn -0.0018 0.0001 1.0000
vn -0.0017 0.0001 1.0000
vn -0.8267 -0.0000 -0.5627
vn 0.8274 -0.0000 0.5616
vn -0.9573 -0.0000 0.2891
vn 0.9567 -0.0000 -0.2910
vn -0.0186 -0.0000 0.9998
vn 0.0186 -0.0000 -0.9998
vn 1.0000 -0.0000 -0.0018
vn -1.0000 -0.0000 0.0018
vn 1.0000 -0.0000 0.0017
vn 1.0000 -0.0000 -0.0002
vn -0.0000 1.0000 0.0002
vn 0.2807 -0.0000 0.9598
vn -0.2807 -0.0000 -0.9598
vn -0.2813 -0.0000 -0.9596
vn 0.2814 -0.0000 0.9596
vn 0.2813 -0.0000 0.9596
vt 0.002498 1.999501
vt 0.002498 1.000507
vt 39.980019 1.999454
vt 36.650017 1.999454
vt 36.650017 1.000504
vt 39.980019 1.000505
vt 26.660013 1.000503
vt 29.990015 1.000504
vt 29.990015 1.999453
vt 26.660013 1.999452
vt 0.001499 1.987393
vt 2.998502 1.987390
vt 2.994044 1.999489
vt 0.005737 1.999500
vt 0.001499 1.000503
vt 2.998502 1.000499
vt 2.224997 1.999498
vt 1.114997 1.999497
vt 2.224997 1.000500
vt 1.114997 1.000500
vt 8.885007 1.999500
vt 7.775010 1.999500
vt 8.885007 1.000503
vt 7.775010 1.000502
vt 6.665002 1.999499
vt 6.665002 1.000502
vt 3.334994 1.999498
vt 3.334994 1.000501
vt 4.997502 1.999493
vt 4.997502 1.000499
vt 0.000603 1.999498
vt 0.999500 1.999500
vt 0.000603 1.012109
vt 0.000500 1.000499
vt 0.999397 1.000500
vt 0.999397 1.987890
vt 0.000500 1.987888
vt 0.999500 1.012110
vt 0.999502 1.992786
vt 0.000713 1.990666
vt 0.000713 1.000501
vt 0.999502 1.002624
vt 0.999289 1.999502
vt 0.000501 1.997381
s 1
usemtl GRDRB
f 55/1/1 1/2/2 2/1/3
f 53/2/4 2/1/3 1/2/2
f 3/3/5 4/4/5 5/5/5
f 5/5/5 6/6/5 3/3/5
f 6/6/6 5/5/6 7/5/6
f 7/5/6 8/6/6 6/6/6
f 9/5/7 10/6/7 12/6/7
f 12/6/7 11/5/7 9/5/7
f 11/5/8 12/6/8 13/3/8
f 13/3/8 14/4/8 11/5/8
f 15/5/9 16/6/10 17/6/10
f 17/6/10 18/5/9 15/5/9
f 18/5/11 17/6/11 19/3/11
f 19/3/11 20/4/11 18/5/11
f 21/7/12 22/8/12 23/9/12
f 23/9/12 24/10/12 21/7/12
f 25/7/1 26/8/1 22/8/1
f 22/8/1 21/7/1 25/7/1
f 27/11/1 28/12/1 29/13/1
f 29/13/1 30/14/1 27/11/1
f 31/15/13 32/16/13 28/12/13
f 28/12/13 27/11/13 31/15/13
f 33/17/14 34/18/14 35/19/14
f 36/20/14 35/19/14 34/18/14
f 37/21/14 38/22/14 39/23/14
f 40/24/14 39/23/14 38/22/14
f 38/22/14 41/25/14 40/24/14
f 42/26/14 40/24/14 41/25/14
f 43/27/14 33/17/14 44/28/14
f 35/19/14 44/28/14 33/17/14
f 45/17/1 46/18/1 33/17/1
f 34/18/1 33/17/1 46/18/1
f 47/21/1 48/22/1 37/21/1
f 38/22/1 37/21/1 48/22/1
f 48/22/1 49/25/1 38/22/1
f 41/25/1 38/22/1 49/25/1
f 50/27/1 45/17/1 43/27/1
f 33/17/1 43/27/1 45/17/1
f 51/29/14 2/1/3 52/30/14
f 53/2/4 52/30/14 2/1/3
f 54/29/1 55/1/1 51/29/1
f 2/1/3 51/29/1 55/1/1
f 56/31/15 57/32/15 58/33/15
f 59/34/16 60/35/16 61/36/16
f 61/36/16 62/37/16 59/34/16
f 63/38/15 58/33/15 57/32/15
f 64/38/17 65/33/17 66/32/17
f 67/34/18 68/35/19 69/36/19
f 70/31/17 66/32/17 65/33/17
f 69/36/19 71/37/18 67/34/18
f 72/36/20 73/37/20 74/34/20
f 74/34/20 75/35/20 72/36/20
f 76/31/21 77/32/21 78/33/21
f 79/38/21 78/33/21 77/32/21
f 80/36/22 81/37/23 82/34/23
f 82/34/23 83/35/22 80/36/22
f 84/31/24 85/32/24 86/33/24
f 87/38/24 86/33/24 85/32/24
f 88/36/25 89/37/25 90/34/25
f 90/34/25 91/35/25 88/36/25
f 92/31/26 93/32/26 94/33/26
f 95/38/26 94/33/26 93/32/26
f 96/36/27 97/37/28 98/34/27
f 98/34/27 99/35/27 96/36/27
f 100/31/29 101/32/29 102/33/29
f 103/38/29 102/33/29 101/32/29
f 104/36/16 105/37/16 106/34/16
f 106/34/16 107/35/16 104/36/16
f 108/31/15 109/32/15 110/33/15
f 111/38/15 110/33/15 109/32/15
f 112/36/30 113/37/30 114/34/30
f 114/34/30 115/35/30 112/36/30
f 116/31/31 117/32/31 118/33/31
f 119/38/31 118/33/31 117/32/31
f 120/36/32 121/37/32 122/34/32
f 122/34/32 123/35/32 120/36/32
f 124/31/33 125/32/33 126/33/33
f 127/38/33 126/33/33 125/32/33
f 128/36/34 129/37/34 130/34/34
f 130/34/34 131/35/34 128/36/34
f 132/31/35 133/32/35 134/33/35
f 135/38/35 134/33/35 133/32/35
f 136/36/36 137/37/36 138/34/36
f 138/34/36 139/35/36 136/36/36
f 140/31/37 141/32/38 142/33/37
f 143/38/38 142/33/37 141/32/38
f 144/36/39 145/37/40 146/34/40
f 146/34/40 147/35/39 144/36/39
f 148/31/41 149/32/41 150/33/41
f 151/38/41 150/33/41 149/32/41
f 152/36/42 153/37/42 154/34/42
f 154/34/42 155/35/42 152/36/42
f 156/31/43 157/32/43 158/33/43
f 159/38/43 158/33/43 157/32/43
f 160/36/44 161/37/44 162/34/44
f 162/34/44 163/35/44 160/36/44
f 164/31/45 165/32/45 166/33/45
f 167/38/45 166/33/45 165/32/45
f 168/36/46 169/37/46 170/34/46
f 170/34/46 171/35/46 168/36/46
f 172/31/47 173/32/47 174/33/47
f 175/38/48 174/33/47 173/32/47
f 176/36/49 177/37/49 178/34/49
f 178/34/49 179/35/49 176/36/49
f 180/31/50 181/32/51 182/33/50
f 183/38/51 182/33/50 181/32/51
f 184/36/52 185/37/52 186/34/52
f 186/34/52 187/35/52 184/36/52
f 188/31/53 189/32/53 190/33/53
f 191/38/53 190/33/53 189/32/53
f 192/36/54 193/37/54 194/34/54
f 194/34/54 195/35/54 192/36/54
f 196/31/55 197/32/55 198/33/55
f 199/38/55 198/33/55 197/32/55
f 200/36/56 201/37/57 202/34/57
f 202/34/57 203/35/56 200/36/56
f 204/31/58 205/32/59 206/33/58
f 207/38/59 206/33/58 205/32/59
f 208/36/60 209/37/60 210/34/60
f 210/34/60 211/35/60 208/36/60
f 212/31/61 213/32/62 214/33/63
f 215/38/62 214/33/63 213/32/62
f 216/36/64 217/37/65 218/34/64
f 218/34/64 219/35/64 216/36/64
f 220/31/66 221/32/67 222/33/66
f 223/38/67 222/33/66 221/32/67
f 224/36/64 225/37/65 226/34/65
f 226/34/65 227/35/64 224/36/64
f 228/31/67 229/32/67 230/33/67
f 231/38/67 230/33/67 229/32/67
f 232/36/68 233/37/69 234/34/69
f 234/34/69 235/35/68 232/36/68
f 236/31/70 237/32/70 238/33/70
f 239/38/70 238/33/70 237/32/70
f 240/36/71 241/37/71 242/34/71
f 242/34/71 243/35/71 240/36/71
f 244/31/72 245/32/72 246/33/72
f 247/38/72 246/33/72 245/32/72
f 248/36/17 249/37/73 250/34/17
f 250/34/17 251/35/17 248/36/17
f 252/31/19 253/32/18 254/33/19
f 255/38/18 254/33/19 253/32/18
f 256/36/74 257/37/75 258/34/75
f 258/34/75 259/35/74 256/36/74
f 260/31/76 261/32/76 262/33/76
f 263/38/76 262/33/76 261/32/76
f 264/36/77 265/37/77 266/34/77
f 266/34/77 267/35/77 264/36/77
f 268/31/78 269/32/78 270/33/78
f 271/38/78 270/33/78 269/32/78
f 272/36/79 273/37/79 274/34/79
f 274/34/79 275/35/79 272/36/79
f 276/31/80 277/32/81 278/33/80
f 279/38/81 278/33/80 277/32/81
f 280/36/19 281/37/19 282/34/19
f 282/34/19 283/35/19 280/36/19
f 284/31/17 285/32/17 286/33/17
f 287/38/17 286/33/17 285/32/17
f 288/36/82 289/37/16 290/34/16
f 290/34/16 291/35/82 288/36/82
f 292/31/15 293/32/83 294/33/15
f 295/38/84 294/33/15 293/32/83
f 296/36/85 297/37/85 298/34/85
f 298/34/85 299/35/85 296/36/85
f 300/31/86 301/32/86 302/33/86
f 303/38/86 302/33/86 301/32/86
f 304/36/87 305/37/87 306/34/87
f 306/34/87 307/35/87 304/36/87
f 308/31/88 309/32/88 310/33/88
f 311/38/88 310/33/88 309/32/88
f 312/36/89 313/37/89 314/34/89
f 314/34/89 315/35/89 312/36/89
f 316/31/90 317/32/90 318/33/90
f 319/38/90 318/33/90 317/32/90
f 320/37/91 321/36/91 322/34/91
f 323/35/91 322/34/91 321/36/91
f 324/32/92 325/31/92 326/33/92
f 326/33/92 327/38/92 324/32/92
f 328/36/20 329/37/20 330/34/20
f 330/34/20 331/35/20 328/36/20
f 332/31/93 333/32/93 334/33/93
f 335/38/93 334/33/93 333/32/93
f 336/39/94 337/40/94 338/41/94
f 338/41/94 339/42/94 336/39/94
f 340/43/95 341/44/95 337/40/95
f 337/40/95 336/39/95 340/43/95
f 342/36/20 343/37/20 344/34/20
f 344/34/20 345/35/20 342/36/20
f 346/31/21 347/32/21 348/33/21
f 349/38/21 348/33/21 347/32/21
f 350/36/96 351/37/96 352/34/96
f 352/34/96 353/35/96 350/36/96
f 354/31/97 355/32/97 356/33/97
f 357/38/97 356/33/97 355/32/97
f 358/36/98 359/37/98 360/34/98
f 360/34/98 361/35/98 358/36/98
f 362/31/99 363/32/100 364/33/100
f 365/38/100 364/33/100 363/32/100
