# Blender 4.4.3
# www.blender.org
mtllib GRLTGLOW.mtl
o GRLTGLOW
v 62.858635 1.124158 13.138209
v 62.858635 -0.007333 13.138209
v 62.858635 1.124158 12.023690
v 62.858635 -0.007333 12.023690
v 62.450981 0.521267 12.580949
v 62.896099 0.157121 12.580949
v 62.809666 0.959705 12.580949
v 63.671497 0.595558 12.580949
v 62.672871 0.723529 12.249457
v 62.774910 0.187667 12.431583
v 62.930859 0.929160 12.709936
v 63.449608 0.393298 12.892063
v 62.727863 0.518721 12.976810
v 62.867123 0.157403 12.551621
v 62.838638 0.959424 12.638591
v 63.394615 0.598106 12.213403
v 62.858635 0.779480 12.979080
v 62.858635 -0.207557 12.425881
v 62.858635 1.324382 12.006848
v 62.858635 0.337344 11.453650
v 62.450981 0.526009 12.198204
v 62.896099 0.208352 12.020168
v 62.809666 0.908473 12.412561
v 63.671497 0.590816 12.234526
v 62.672871 0.859538 12.006619
v 62.774910 0.303044 11.903504
v 62.930859 0.813783 12.508845
v 63.449608 0.257289 12.405731
v 62.727863 0.337169 12.544088
v 62.867123 0.229859 11.996530
v 62.838638 0.886968 12.464514
v 63.394615 0.779657 11.916955
v 62.858635 1.325218 12.042370
v 62.858635 0.340417 12.599540
v 62.858635 0.776406 11.072340
v 62.858635 -0.208396 11.629510
v 62.450981 0.526084 11.854230
v 62.896099 0.209146 12.033543
v 62.809666 0.907681 11.638333
v 63.671497 0.590744 11.817647
v 62.672871 0.543908 11.464795
v 62.774910 0.167199 11.887179
v 62.930859 0.949629 11.764319
v 63.449608 0.572921 12.186704
v 62.727863 0.711827 12.201859
v 62.867123 0.187980 12.009714
v 62.838638 0.928849 11.690477
v 63.394615 0.405002 11.498332
v 62.858635 0.217171 12.202166
v 62.858635 -0.153399 11.133077
v 62.858635 1.270224 11.837154
v 62.858635 0.899654 10.768065
v 62.450981 0.546248 11.450015
v 62.896099 0.426988 11.105951
v 62.809666 0.689839 11.864273
v 63.671497 0.570579 11.520209
v 62.672871 0.916073 11.525704
v 62.774910 0.568494 11.079043
v 62.930859 0.548335 11.870804
v 63.449608 0.200755 11.424143
v 62.727863 0.184763 11.586777
v 62.867123 0.468168 11.106133
v 62.838638 0.648661 11.892406
v 63.394615 0.932066 11.411762
v 72.896492 1.124158 13.138209
v 72.896492 -0.007333 13.138209
v 72.896492 1.124158 12.023690
v 72.896492 -0.007333 12.023690
v 72.488838 0.521267 12.580949
v 72.933952 0.157121 12.580949
v 72.847527 0.959705 12.580949
v 73.709351 0.595558 12.580949
v 72.710724 0.723529 12.249457
v 72.812767 0.187667 12.431583
v 72.968712 0.929160 12.709936
v 73.487465 0.393298 12.892063
v 72.765717 0.518721 12.976810
v 72.904984 0.157403 12.551621
v 72.876495 0.959424 12.638591
v 73.432472 0.598106 12.213403
v 72.896492 0.779480 12.979080
v 72.896492 -0.207557 12.425881
v 72.896492 1.324382 12.006848
v 72.896492 0.337344 11.453650
v 72.488838 0.526009 12.198204
v 72.933952 0.208352 12.020168
v 72.847527 0.908473 12.412560
v 73.709351 0.590816 12.234526
v 72.710724 0.859538 12.006619
v 72.812767 0.303044 11.903505
v 72.968712 0.813783 12.508846
v 73.487465 0.257289 12.405731
v 72.765717 0.337169 12.544088
v 72.904984 0.229859 11.996530
v 72.876495 0.886968 12.464514
v 73.432472 0.779657 11.916955
v 72.896492 1.325218 12.042370
v 72.896492 0.340417 12.599540
v 72.896492 0.776406 11.072340
v 72.896492 -0.208396 11.629511
v 72.488838 0.526084 11.854230
v 72.933952 0.209146 12.033543
v 72.847527 0.907681 11.638333
v 73.709351 0.590744 11.817647
v 72.710724 0.543908 11.464795
v 72.812767 0.167199 11.887179
v 72.968712 0.949629 11.764319
v 73.487465 0.572921 12.186705
v 72.765717 0.711827 12.201859
v 72.904984 0.187980 12.009714
v 72.876495 0.928849 11.690477
v 73.432472 0.405002 11.498332
v 72.896492 0.217171 12.202166
v 72.896492 -0.153399 11.133077
v 72.896492 1.270224 11.837154
v 72.896492 0.899654 10.768065
v 72.488838 0.546248 11.450015
v 72.933952 0.426988 11.105951
v 72.847527 0.689839 11.864273
v 73.709351 0.570579 11.520209
v 72.710724 0.916073 11.525704
v 72.812767 0.568494 11.079043
v 72.968712 0.548335 11.870804
v 73.487465 0.200755 11.424143
v 72.765717 0.184763 11.586777
v 72.904984 0.468168 11.106133
v 72.876495 0.648661 11.892406
v 73.432472 0.932066 11.411762
v 82.990410 1.124158 13.138209
v 82.990410 -0.007333 13.138209
v 82.990410 1.124158 12.023690
v 82.990410 -0.007333 12.023690
v 82.582756 0.521267 12.580949
v 83.027870 0.157121 12.580949
v 82.941444 0.959705 12.580949
v 83.803268 0.595558 12.580949
v 82.804642 0.723529 12.249457
v 82.906685 0.187667 12.431583
v 83.062630 0.929160 12.709936
v 83.581383 0.393298 12.892063
v 82.859634 0.518721 12.976810
v 82.998901 0.157403 12.551621
v 82.970413 0.959424 12.638591
v 83.526390 0.598106 12.213403
v 82.990410 0.779480 12.979080
v 82.990410 -0.207557 12.425881
v 82.990410 1.324382 12.006848
v 82.990410 0.337344 11.453650
v 82.582756 0.526009 12.198204
v 83.027870 0.208352 12.020168
v 82.941444 0.908473 12.412560
v 83.803268 0.590816 12.234526
v 82.804642 0.859538 12.006619
v 82.906685 0.303044 11.903505
v 83.062630 0.813783 12.508846
v 83.581383 0.257289 12.405731
v 82.859634 0.337169 12.544088
v 82.998901 0.229859 11.996530
v 82.970413 0.886968 12.464514
v 83.526390 0.779657 11.916955
v 82.990410 1.325218 12.042370
v 82.990410 0.340417 12.599540
v 82.990410 0.776406 11.072340
v 82.990410 -0.208396 11.629511
v 82.582756 0.526084 11.854230
v 83.027870 0.209146 12.033543
v 82.941444 0.907681 11.638333
v 83.803268 0.590744 11.817647
v 82.804642 0.543908 11.464795
v 82.906685 0.167199 11.887179
v 83.062630 0.949629 11.764319
v 83.581383 0.572921 12.186705
v 82.859634 0.711827 12.201859
v 82.998901 0.187980 12.009714
v 82.970413 0.928849 11.690477
v 83.526390 0.405002 11.498332
v 82.990410 0.217171 12.202166
v 82.990410 -0.153399 11.133077
v 82.990410 1.270224 11.837154
v 82.990410 0.899654 10.768065
v 82.582756 0.546248 11.450015
v 83.027870 0.426988 11.105951
v 82.941444 0.689839 11.864273
v 83.803268 0.570579 11.520209
v 82.804642 0.916073 11.525704
v 82.906685 0.568494 11.079043
v 83.062630 0.548335 11.870804
v 83.581383 0.200755 11.424143
v 82.859634 0.184763 11.586777
v 82.998901 0.468168 11.106133
v 82.970413 0.648661 11.892406
v 83.526390 0.932066 11.411762
v 92.990715 1.124158 13.138209
v 92.990715 -0.007333 13.138209
v 92.990715 1.124158 12.023690
v 92.990715 -0.007333 12.023690
v 92.583061 0.521267 12.580949
v 93.028175 0.157121 12.580949
v 92.941750 0.959705 12.580949
v 93.803574 0.595558 12.580949
v 92.804947 0.723529 12.249457
v 92.906990 0.187667 12.431583
v 93.062935 0.929160 12.709936
v 93.581688 0.393298 12.892063
v 92.859940 0.518721 12.976810
v 92.999207 0.157403 12.551621
v 92.970718 0.959424 12.638591
v 93.526695 0.598106 12.213403
v 92.990715 0.779480 12.979080
v 92.990715 -0.207557 12.425881
v 92.990715 1.324382 12.006848
v 92.990715 0.337344 11.453650
v 92.583061 0.526009 12.198204
v 93.028175 0.208352 12.020168
v 92.941750 0.908473 12.412561
v 93.803574 0.590816 12.234526
v 92.804947 0.859538 12.006619
v 92.906990 0.303044 11.903505
v 93.062935 0.813783 12.508845
v 93.581688 0.257289 12.405731
v 92.859940 0.337169 12.544088
v 92.999207 0.229859 11.996530
v 92.970718 0.886968 12.464514
v 93.526695 0.779657 11.916955
v 92.990715 1.325218 12.042370
v 92.990715 0.340417 12.599540
v 92.990715 0.776406 11.072340
v 92.990715 -0.208396 11.629511
v 92.583061 0.526084 11.854230
v 93.028175 0.209146 12.033543
v 92.941750 0.907681 11.638333
v 93.803574 0.590744 11.817647
v 92.804947 0.543908 11.464795
v 92.906990 0.167199 11.887179
v 93.062935 0.949629 11.764319
v 93.581688 0.572921 12.186705
v 92.859940 0.711827 12.201859
v 92.999207 0.187980 12.009714
v 92.970718 0.928849 11.690477
v 93.526695 0.405002 11.498332
v 92.990715 0.217171 12.202166
v 92.990715 -0.153399 11.133077
v 92.990715 1.270224 11.837154
v 92.990715 0.899654 10.768065
v 92.583061 0.546248 11.450016
v 93.028175 0.426988 11.105951
v 92.941750 0.689839 11.864273
v 93.803574 0.570579 11.520209
v 92.804947 0.916073 11.525704
v 92.906990 0.568494 11.079043
v 93.062935 0.548335 11.870805
v 93.581688 0.200755 11.424143
v 92.859940 0.184763 11.586777
v 92.999207 0.468168 11.106133
v 92.970718 0.648661 11.892406
v 93.526695 0.932066 11.411762
v 59.830723 1.916758 -3.013679
v 59.830723 0.785267 -3.013679
v 59.830723 1.916758 -4.128198
v 59.830723 0.785267 -4.128198
v 59.423069 1.313867 -3.570939
v 59.868183 0.949720 -3.570939
v 59.781754 1.752305 -3.570939
v 60.643585 1.388158 -3.570939
v 59.644958 1.516129 -3.902431
v 59.746994 0.980267 -3.720307
v 59.902946 1.721759 -3.441953
v 60.421696 1.185897 -3.259828
v 59.699951 1.311321 -3.175078
v 59.839211 0.950003 -3.600266
v 59.810726 1.752023 -3.513297
v 60.366703 1.390706 -3.938485
v 59.830723 1.572080 -3.172809
v 59.830723 0.585042 -3.726007
v 59.830723 2.116981 -4.145040
v 59.830723 1.129944 -4.698241
v 59.423069 1.318609 -3.953687
v 59.868187 1.000952 -4.131722
v 59.781754 1.701073 -3.739327
v 60.643585 1.383415 -3.917365
v 59.644958 1.652138 -4.145268
v 59.746994 1.095644 -4.248384
v 59.902946 1.606382 -3.643043
v 60.421696 1.049888 -3.746160
v 59.699951 1.129769 -3.607802
v 59.839211 1.022459 -4.155358
v 59.810726 1.679567 -3.687375
v 60.366703 1.572257 -4.234933
v 59.830723 2.117818 -4.109521
v 59.830723 1.133017 -3.552348
v 59.830723 1.569005 -5.079553
v 59.830723 0.584204 -4.522378
v 59.423069 1.318684 -4.297660
v 59.868187 1.001746 -4.118348
v 59.781754 1.700281 -4.513555
v 60.643585 1.383343 -4.334241
v 59.644958 1.336507 -4.687093
v 59.746994 0.959799 -4.264709
v 59.902946 1.742229 -4.387568
v 60.421696 1.365521 -3.965184
v 59.699951 1.504426 -3.950032
v 59.839211 0.980579 -4.142177
v 59.810726 1.721449 -4.461411
v 60.366703 1.197602 -4.653556
v 59.830723 1.009771 -3.949725
v 59.830723 0.639201 -5.018811
v 59.830723 2.062824 -4.314736
v 59.830723 1.692253 -5.383822
v 59.423069 1.338848 -4.701873
v 59.868183 1.219588 -5.045941
v 59.781754 1.482439 -4.287618
v 60.643585 1.363179 -4.631679
v 59.644958 1.708673 -4.626184
v 59.746994 1.361094 -5.072845
v 59.902946 1.340935 -4.281087
v 60.421696 0.993355 -4.727750
v 59.699951 0.977363 -4.565112
v 59.839211 1.260768 -5.045754
v 59.810726 1.441261 -4.259482
v 60.366703 1.724666 -4.740130
vn 1.0000 -0.0000 -0.0000
vn -0.0000 -0.0000 1.0000
vn -0.8724 -0.0000 0.4888
vn -0.5076 -0.2072 0.8363
vn 0.9503 -0.0000 0.3113
vn 0.5780 -0.0677 0.8132
vn -0.0000 -0.4889 0.8723
vn -0.8724 -0.2390 0.4264
vn -0.5076 -0.5896 0.6282
vn 0.9503 -0.1522 0.2715
vn 0.5780 -0.4566 0.6763
vn -0.0000 0.4924 0.8704
vn -0.8724 0.2407 0.4254
vn -0.5076 0.2315 0.8299
vn 0.9503 0.1533 0.2709
vn 0.5780 0.3416 0.7411
vn -0.0000 -0.9448 0.3275
vn -0.8724 -0.4618 0.1601
vn -0.5076 -0.8580 0.0781
vn 0.9503 -0.2941 0.1019
vn 0.5780 -0.7905 0.2024
vn 0.5780 -0.0676 0.8132
vn -0.0000 -0.9449 0.3275
vn 0.5780 -0.7906 0.2024
vn -0.0000 0.4924 0.8703
vn 0.5780 -0.0677 0.8133
vt 0.000500 1.999501
vt 0.000500 1.000500
vt 0.999500 1.999500
vt 0.999500 1.000499
s 1
usemtl GRLTGLOWA
f 1/1/1 2/2/1 3/3/1
f 4/4/1 3/3/1 2/2/1
f 5/1/2 6/2/2 7/3/2
f 8/4/2 7/3/2 6/2/2
f 9/1/3 10/2/3 11/3/3
f 12/4/4 11/3/4 10/2/4
f 13/1/5 14/2/5 15/3/5
f 16/4/6 15/3/6 14/2/6
f 17/1/1 18/2/1 19/3/1
f 20/4/1 19/3/1 18/2/1
f 21/1/7 22/2/7 23/3/7
f 24/4/7 23/3/7 22/2/7
f 25/1/8 26/2/8 27/3/8
f 28/4/9 27/3/9 26/2/9
f 29/1/10 30/2/10 31/3/10
f 32/4/11 31/3/11 30/2/11
f 33/1/1 34/2/1 35/3/1
f 36/4/1 35/3/1 34/2/1
f 37/1/12 38/2/12 39/3/12
f 40/4/12 39/3/12 38/2/12
f 41/1/13 42/2/13 43/3/13
f 44/4/14 43/3/14 42/2/14
f 45/1/15 46/2/15 47/3/15
f 48/4/16 47/3/16 46/2/16
f 49/1/1 50/2/1 51/3/1
f 52/4/1 51/3/1 50/2/1
f 53/1/17 54/2/17 55/3/17
f 56/4/17 55/3/17 54/2/17
f 57/1/18 58/2/18 59/3/18
f 60/4/19 59/3/19 58/2/19
f 61/1/20 62/2/20 63/3/20
f 64/4/21 63/3/21 62/2/21
f 65/1/1 66/2/1 67/3/1
f 68/4/1 67/3/1 66/2/1
f 69/1/2 70/2/2 71/3/2
f 72/4/2 71/3/2 70/2/2
f 73/1/3 74/2/3 75/3/3
f 76/4/4 75/3/4 74/2/4
f 77/1/5 78/2/5 79/3/5
f 80/4/22 79/3/22 78/2/22
f 81/1/1 82/2/1 83/3/1
f 84/4/1 83/3/1 82/2/1
f 85/1/7 86/2/7 87/3/7
f 88/4/7 87/3/7 86/2/7
f 89/1/8 90/2/8 91/3/8
f 92/4/9 91/3/9 90/2/9
f 93/1/10 94/2/10 95/3/10
f 96/4/11 95/3/11 94/2/11
f 97/1/1 98/2/1 99/3/1
f 100/4/1 99/3/1 98/2/1
f 101/1/12 102/2/12 103/3/12
f 104/4/12 103/3/12 102/2/12
f 105/1/13 106/2/13 107/3/13
f 108/4/14 107/3/14 106/2/14
f 109/1/15 110/2/15 111/3/15
f 112/4/16 111/3/16 110/2/16
f 113/1/1 114/2/1 115/3/1
f 116/4/1 115/3/1 114/2/1
f 117/1/17 118/2/17 119/3/17
f 120/4/23 119/3/17 118/2/17
f 121/1/18 122/2/18 123/3/18
f 124/4/19 123/3/19 122/2/19
f 125/1/20 126/2/20 127/3/20
f 128/4/24 127/3/24 126/2/24
f 129/1/1 130/2/1 131/3/1
f 132/4/1 131/3/1 130/2/1
f 133/1/2 134/2/2 135/3/2
f 136/4/2 135/3/2 134/2/2
f 137/1/3 138/2/3 139/3/3
f 140/4/4 139/3/4 138/2/4
f 141/1/5 142/2/5 143/3/5
f 144/4/22 143/3/22 142/2/22
f 145/1/1 146/2/1 147/3/1
f 148/4/1 147/3/1 146/2/1
f 149/1/7 150/2/7 151/3/7
f 152/4/7 151/3/7 150/2/7
f 153/1/8 154/2/8 155/3/8
f 156/4/9 155/3/9 154/2/9
f 157/1/10 158/2/10 159/3/10
f 160/4/11 159/3/11 158/2/11
f 161/1/1 162/2/1 163/3/1
f 164/4/1 163/3/1 162/2/1
f 165/1/12 166/2/12 167/3/12
f 168/4/12 167/3/12 166/2/12
f 169/1/13 170/2/13 171/3/13
f 172/4/14 171/3/14 170/2/14
f 173/1/15 174/2/15 175/3/15
f 176/4/16 175/3/16 174/2/16
f 177/1/1 178/2/1 179/3/1
f 180/4/1 179/3/1 178/2/1
f 181/1/23 182/2/17 183/3/17
f 184/4/17 183/3/17 182/2/17
f 185/1/18 186/2/18 187/3/18
f 188/4/19 187/3/19 186/2/19
f 189/1/20 190/2/20 191/3/20
f 192/4/24 191/3/24 190/2/24
f 193/1/1 194/2/1 195/3/1
f 196/4/1 195/3/1 194/2/1
f 197/1/2 198/2/2 199/3/2
f 200/4/2 199/3/2 198/2/2
f 201/1/3 202/2/3 203/3/3
f 204/4/4 203/3/4 202/2/4
f 205/1/5 206/2/5 207/3/5
f 208/4/22 207/3/22 206/2/22
f 209/1/1 210/2/1 211/3/1
f 212/4/1 211/3/1 210/2/1
f 213/1/7 214/2/7 215/3/7
f 216/4/7 215/3/7 214/2/7
f 217/1/8 218/2/8 219/3/8
f 220/4/9 219/3/9 218/2/9
f 221/1/10 222/2/10 223/3/10
f 224/4/11 223/3/11 222/2/11
f 225/1/1 226/2/1 227/3/1
f 228/4/1 227/3/1 226/2/1
f 229/1/25 230/2/12 231/3/12
f 232/4/12 231/3/12 230/2/12
f 233/1/13 234/2/13 235/3/13
f 236/4/14 235/3/14 234/2/14
f 237/1/15 238/2/15 239/3/15
f 240/4/16 239/3/16 238/2/16
f 241/1/1 242/2/1 243/3/1
f 244/4/1 243/3/1 242/2/1
f 245/1/17 246/2/23 247/3/23
f 248/4/23 247/3/23 246/2/23
f 249/1/18 250/2/18 251/3/18
f 252/4/19 251/3/19 250/2/19
f 253/1/20 254/2/20 255/3/20
f 256/4/24 255/3/24 254/2/24
f 257/1/1 258/2/1 259/3/1
f 260/4/1 259/3/1 258/2/1
f 261/1/2 262/2/2 263/3/2
f 264/4/2 263/3/2 262/2/2
f 265/1/3 266/2/3 267/3/3
f 268/4/4 267/3/4 266/2/4
f 269/1/5 270/2/5 271/3/5
f 272/4/26 271/3/26 270/2/26
f 273/1/1 274/2/1 275/3/1
f 276/4/1 275/3/1 274/2/1
f 277/1/7 278/2/7 279/3/7
f 280/4/7 279/3/7 278/2/7
f 281/1/8 282/2/8 283/3/8
f 284/4/9 283/3/9 282/2/9
f 285/1/10 286/2/10 287/3/10
f 288/4/11 287/3/11 286/2/11
f 289/1/1 290/2/1 291/3/1
f 292/4/1 291/3/1 290/2/1
f 293/1/12 294/2/12 295/3/12
f 296/4/12 295/3/12 294/2/12
f 297/1/13 298/2/13 299/3/13
f 300/4/14 299/3/14 298/2/14
f 301/1/15 302/2/15 303/3/15
f 304/4/16 303/3/16 302/2/16
f 305/1/1 306/2/1 307/3/1
f 308/4/1 307/3/1 306/2/1
f 309/1/17 310/2/17 311/3/17
f 312/4/17 311/3/17 310/2/17
f 313/1/18 314/2/18 315/3/18
f 316/4/19 315/3/19 314/2/19
f 317/1/20 318/2/20 319/3/20
f 320/4/24 319/3/24 318/2/24
