# Blender 4.4.3
# www.blender.org
mtllib GRNGLOW.mtl
o GRNGLOW
v 172.642242 0.928181 -9.946636
v 172.642242 -0.103048 -9.480978
v 172.642242 0.469506 -10.962397
v 172.642242 -0.561724 -10.496738
v 172.234589 0.149374 -10.206402
v 172.679703 -0.182505 -10.056538
v 172.593277 0.548962 -10.386837
v 173.455093 0.217082 -10.236977
v 172.456482 0.197290 -10.591757
v 172.558517 -0.216137 -10.205242
v 172.714462 0.574207 -10.256710
v 173.233215 0.160781 -9.870193
v 172.511459 0.309968 -9.844570
v 172.650726 -0.194317 -10.083384
v 172.622238 0.572428 -10.334187
v 173.178223 0.068142 -10.573002
v 172.642242 0.760416 -10.012907
v 172.642242 -0.371076 -10.012909
v 172.642242 0.760416 -11.127426
v 172.642242 -0.371076 -11.127428
v 172.234589 0.157525 -10.570168
v 172.679703 -0.206622 -10.570169
v 172.593277 0.595963 -10.570166
v 173.455093 0.231816 -10.570169
v 172.456467 0.359786 -10.901659
v 172.558517 -0.176075 -10.719536
v 172.714462 0.565417 -10.441181
v 173.233215 0.029555 -10.259058
v 172.511459 0.154978 -10.174309
v 172.650726 -0.206339 -10.599495
v 172.622238 0.595681 -10.512526
v 173.178223 0.234363 -10.937716
v -66.568558 0.928181 -9.946636
v -66.568558 -0.103048 -9.480978
v -66.568558 0.469506 -10.962397
v -66.568558 -0.561724 -10.496738
v -66.976212 0.149374 -10.206402
v -66.531097 -0.182505 -10.056538
v -66.617523 0.548962 -10.386837
v -65.755707 0.217082 -10.236977
v -66.754333 0.197290 -10.591757
v -66.652283 -0.216137 -10.205242
v -66.496338 0.574207 -10.256710
v -65.977585 0.160781 -9.870193
v -66.699341 0.309968 -9.844570
v -66.560074 -0.194317 -10.083384
v -66.588562 0.572428 -10.334187
v -66.032578 0.068142 -10.573002
v -66.568558 0.760416 -10.012907
v -66.568558 -0.371076 -10.012909
v -66.568558 0.760416 -11.127426
v -66.568558 -0.371076 -11.127428
v -66.976212 0.157525 -10.570168
v -66.531097 -0.206622 -10.570169
v -66.617523 0.595963 -10.570166
v -65.755707 0.231816 -10.570169
v -66.754333 0.359786 -10.901659
v -66.652283 -0.176075 -10.719536
v -66.496338 0.565417 -10.441181
v -65.977585 0.029555 -10.259058
v -66.699341 0.154978 -10.174309
v -66.560074 -0.206339 -10.599495
v -66.588562 0.595681 -10.512526
v -66.032578 0.234363 -10.937716
vn 1.0000 -0.0000 -0.0000
vn -0.0000 0.4115 0.9114
vn -0.8724 0.2011 0.4455
vn -0.5076 0.1553 0.8475
vn 0.9503 0.1281 0.2837
vn 0.5780 0.2730 0.7690
vn -0.0000 -0.0000 1.0000
vn -0.8724 -0.0000 0.4888
vn -0.5076 -0.2072 0.8363
vn 0.9503 -0.0000 0.3113
vn 0.5780 -0.0677 0.8132
vn -0.0000 0.4116 0.9114
vn -0.5076 0.1554 0.8475
vt 0.000500 1.999501
vt 0.000500 1.000500
vt 0.999500 1.999500
vt 0.999500 1.000499
s 1
usemtl GPITGLOWA
f 1/1/1 2/2/1 3/3/1
f 4/4/1 3/3/1 2/2/1
f 5/1/2 6/2/2 7/3/2
f 8/4/2 7/3/2 6/2/2
f 9/1/3 10/2/3 11/3/3
f 12/4/4 11/3/4 10/2/4
f 13/1/5 14/2/5 15/3/5
f 16/4/6 15/3/6 14/2/6
f 17/1/1 18/2/1 19/3/1
f 20/4/1 19/3/1 18/2/1
f 21/1/7 22/2/7 23/3/7
f 24/4/7 23/3/7 22/2/7
f 25/1/8 26/2/8 27/3/8
f 28/4/9 27/3/9 26/2/9
f 29/1/10 30/2/10 31/3/10
f 32/4/11 31/3/11 30/2/11
f 33/1/1 34/2/1 35/3/1
f 36/4/1 35/3/1 34/2/1
f 37/1/12 38/2/2 39/3/2
f 40/4/2 39/3/2 38/2/2
f 41/1/3 42/2/3 43/3/3
f 44/4/13 43/3/13 42/2/13
f 45/1/5 46/2/5 47/3/5
f 48/4/6 47/3/6 46/2/6
f 49/1/1 50/2/1 51/3/1
f 52/4/1 51/3/1 50/2/1
f 53/1/7 54/2/7 55/3/7
f 56/4/7 55/3/7 54/2/7
f 57/1/8 58/2/8 59/3/8
f 60/4/9 59/3/9 58/2/9
f 61/1/10 62/2/10 63/3/10
f 64/4/11 63/3/11 62/2/11
