# Blender 4.4.3
# www.blender.org
mtllib GRVL.mtl
o GRVL
v -220.219681 20.152588 -491.685547
v -229.891510 20.152588 -491.681671
v -211.148438 20.152590 -491.617249
v -218.503311 20.331915 -466.303314
v -210.079788 20.331915 -465.265717
v -201.166809 20.152590 -491.705048
v -189.439987 20.148338 -491.748444
v -203.216721 20.152596 -464.558807
v -195.861115 20.148352 -463.586517
v -156.496475 19.801676 -491.801575
v -166.747040 19.975231 -491.791748
v -183.979477 20.154556 -459.969025
v -144.632568 19.576479 -491.821106
v -178.748444 19.981009 -456.687225
v -173.668076 19.576492 -452.857178
v -178.761993 20.092375 -491.791290
v -189.374313 20.092381 -461.825684
v -263.670776 20.152592 -453.827026
v -273.963196 20.152584 -470.027039
v -273.964294 20.152586 -463.832458
v -266.813751 20.152590 -452.596802
v -273.928741 20.152584 -476.363403
v -273.994568 20.152586 -484.503113
v -274.001923 20.152586 -491.682648
v -259.080566 20.331919 -457.773193
v -253.112442 20.331913 -460.956116
v -243.292542 20.152588 -491.670746
v -254.894669 20.152588 -491.683777
v -239.732224 20.152601 -464.897980
v -232.774948 20.152601 -466.348938
v -225.948578 20.152596 -466.616119
v -265.682129 20.152586 -491.684235
v -246.614304 20.331913 -463.322632
v -270.376984 20.152588 -452.413177
v -273.976440 20.152586 -453.535522
v -169.907043 19.529104 -452.160248
v -151.820404 19.576475 -471.366333
v -173.667923 19.576477 -452.857208
v -148.683548 19.583712 -480.907227
v -165.328430 19.488800 -453.284760
v -158.140854 19.414751 -459.400146
v 487.199249 7.809558 -543.151245
v 481.688507 8.087268 -544.438721
v 473.812836 8.361070 -539.361816
v 490.728943 7.809557 -549.926514
v 512.332397 7.243836 -563.146667
v 500.903442 7.528297 -556.337097
v 497.001221 7.707620 -545.166992
v 523.789124 6.956534 -569.739868
v 503.546631 7.423152 -544.150452
v 510.986237 6.956529 -542.109863
v 530.702820 6.666735 -565.139587
v 538.901184 6.374792 -559.343323
v 518.521606 6.666730 -538.958740
v 525.816956 6.374794 -534.838562
v 568.668274 5.489638 -535.340332
v 557.636597 5.785891 -545.469910
v 539.099304 5.965212 -524.775757
v 572.250916 5.192652 -529.065247
v 544.907471 5.668954 -518.513794
v 548.736816 5.371974 -513.209229
v 547.157166 6.081060 -553.130798
v 532.979614 6.081056 -530.365356
v 575.550720 4.895285 -522.415894
v 552.203430 5.074606 -507.886353
v 580.858215 4.300817 -512.033813
v 578.325195 4.597890 -517.268555
v 555.311951 4.777210 -502.545532
v 583.154480 4.004422 -506.728912
v 558.070129 4.300812 -497.184967
v 560.488342 4.004416 -491.801270
v 589.055664 3.122820 -485.944519
v 587.074829 3.415071 -494.375366
v 564.356262 3.594385 -480.945190
v 591.789795 2.832655 -474.584442
v 565.836121 3.302141 -475.460938
v 585.180298 3.709057 -501.274902
v 562.578918 3.888378 -486.389923
v 592.749817 2.544897 -468.840240
v 591.789917 2.832625 -474.584320
v 567.035095 2.832656 -469.930939
v 593.436035 2.259959 -463.055664
v 567.991333 2.544895 -461.224304
v 568.425659 2.439278 -454.812042
v 593.846802 1.978164 -457.243622
v 593.981079 1.699865 -451.417267
v 568.674622 2.157489 -448.523010
v 568.675842 1.879182 -442.361969
v 592.723816 0.889456 -433.983612
v 593.419067 1.155158 -439.774109
v 566.673523 1.155154 -430.333405
v 591.754089 0.628660 -428.231323
v 565.613525 0.889461 -424.573029
v 564.113586 0.807984 -418.952881
v 593.838440 1.425411 -445.589722
v 567.798950 1.604737 -436.175171
v 590.511902 0.373118 -422.530182
v 589.000061 0.123187 -416.893188
v 562.143860 0.552436 -413.474731
v 559.683350 0.123185 -408.140472
v 585.183899 -0.120785 -408.230682
v 580.403931 -0.358441 -400.109863
v 573.459167 -0.222971 -401.289429
v 562.370789 0.015114 -405.083435
v 567.809570 -0.109391 -402.599792
v 531.228577 30.802401 -828.020630
v 520.973145 30.858240 -836.793945
v 515.398315 31.036776 -830.325256
v 514.498291 31.008894 -832.973877
v 519.073853 30.802393 -826.964966
v 543.997925 30.746998 -815.428833
v 556.677795 30.692081 -802.490601
v 524.168762 30.746998 -819.447754
v 526.144226 30.692072 -810.535339
v 547.698792 30.637699 -791.333313
v 536.787048 30.583902 -779.251160
v 525.190857 30.816242 -801.377319
v 521.526062 30.762438 -792.870667
v 511.961517 30.432968 -765.447754
v 516.492981 30.484720 -767.560852
v 507.903564 30.478256 -781.749207
v 507.429871 30.381996 -763.334595
v 503.372040 30.426504 -779.636108
v 498.840424 30.375525 -777.522949
v 526.174866 30.530737 -772.642639
v 513.668762 30.709272 -784.874146
v 502.898346 30.331856 -761.221558
v 498.366882 30.282595 -759.108459
v 494.308868 30.503931 -775.409851
v 489.777435 30.454668 -773.296814
v 493.835327 30.234257 -756.995361
v 489.303802 30.186899 -754.882263
v 485.245880 30.227785 -771.183716
v 480.714325 30.180437 -769.070618
v 475.709198 30.051170 -748.543030
v 480.240723 30.095304 -750.656128
v 471.651184 30.267380 -764.844421
v 471.177673 30.008209 -746.429932
v 467.119659 30.223253 -762.731323
v 462.588135 30.001747 -760.618286
v 484.772278 30.140564 -752.769226
v 476.182770 30.134096 -766.957520
v 515.848022 30.914469 -841.752014
v 515.024658 30.939886 -839.322266
v 514.403320 30.972857 -836.609619
v 408.809998 30.867632 -937.432373
v 405.119019 30.992903 -940.731628
v 412.500977 30.760687 -934.132996
v 398.520355 30.817720 -925.494263
v 402.587189 30.708660 -922.287109
v 416.191956 30.674501 -930.833740
v 419.882904 30.610891 -927.534424
v 406.640015 30.799168 -919.085083
v 410.678741 30.734905 -915.888062
v 430.955811 30.557802 -917.636414
v 427.264832 30.553493 -920.935730
v 418.714325 30.679180 -909.509216
v 434.646759 30.581409 -914.337158
v 422.711060 30.685471 -906.327393
v 426.693726 30.533285 -903.150635
v 423.573883 30.570696 -924.235046
v 414.703522 30.695076 -912.696106
v 438.337738 30.621738 -911.037781
v 442.028748 30.676003 -907.738525
v 430.662506 30.576294 -899.978882
v 434.617188 30.633400 -896.812256
v 445.719696 30.741337 -904.439209
v 449.410645 30.814817 -901.139832
v 438.557831 30.879948 -893.650696
v 453.101624 30.893497 -897.840515
v 448.897980 30.897297 -895.755249
v 442.125458 30.891167 -893.545227
v 445.280792 30.900381 -894.353210
v 257.687073 33.394173 -1023.222290
v 251.365341 33.128761 -1021.036072
v 250.931656 33.115711 -1015.309387
v 245.067703 32.838760 -1018.547241
v 276.658020 33.982349 -1027.922119
v 270.347351 33.819702 -1026.668823
v 266.841339 33.885670 -994.835571
v 272.715271 34.035099 -995.348267
v 264.019043 33.627075 -1025.101074
v 261.561035 33.548359 -1000.277893
v 256.203094 33.347622 -1006.280396
v 290.772583 34.229942 -1025.672363
v 283.937531 34.112625 -1029.101807
v 278.543488 33.974392 -995.525208
v 297.854492 34.329933 -1022.439087
v 284.674225 34.080982 -994.597229
v 290.685059 34.171810 -993.447449
v 306.471069 34.408806 -1018.285950
v 313.058990 34.463417 -1015.085693
v 296.629608 34.422302 -992.014709
v 302.492401 34.471443 -990.303223
v 332.141602 34.462532 -1002.741760
v 325.527832 34.491280 -1007.550415
v 313.912598 34.494637 -986.063843
v 337.742584 34.405655 -998.859375
v 319.440735 34.466854 -983.547058
v 324.828979 34.234035 -980.773987
v 319.101318 34.491394 -1011.447388
v 308.258301 34.496017 -988.317810
v 345.066071 34.322083 -993.277893
v 352.695618 34.201065 -987.336487
v 330.063812 34.155693 -977.751465
v 335.132324 34.037415 -974.486816
v 357.039368 34.025642 -983.702881
v 360.827271 33.812546 -980.323547
v 340.022278 34.047047 -970.987915
v 344.376160 33.841389 -967.647095
v 371.900208 33.015484 -970.425598
v 368.209259 33.300133 -973.724915
v 352.860199 33.168625 -961.106445
v 375.591187 32.723057 -967.126282
v 357.081177 32.894932 -957.843689
v 361.288177 32.614357 -954.585938
v 364.518280 33.568550 -977.024231
v 348.625183 33.606037 -964.374268
v 379.282135 32.431515 -963.826965
v 382.973145 32.149662 -960.527649
v 365.481140 32.514103 -951.333374
v 369.660095 32.245502 -948.085754
v 386.664093 31.886425 -957.228333
v 390.355072 31.650810 -953.928955
v 373.825043 31.817610 -944.843201
v 377.975983 31.596434 -941.605774
v 401.427979 31.133776 -944.031006
v 397.737000 31.287294 -947.330322
v 386.235748 31.423800 -935.145996
v 405.118958 30.992929 -940.731750
v 390.344635 31.267385 -931.923706
v 394.439514 30.945513 -928.706421
v 394.046021 31.451885 -950.629700
v 382.112854 31.411657 -938.373352
v 458.175415 29.959995 -758.507568
v 466.646118 29.966471 -744.316772
v 453.476654 29.919525 -756.520142
v 462.114563 29.926001 -742.203674
v 448.796631 30.058912 -754.425049
v 457.583069 29.886848 -740.090576
v 444.208282 30.021137 -752.165283
v 453.051392 29.849066 -737.977478
v 448.519928 29.812704 -735.864380
v 443.123932 29.971336 -748.313965
v 443.988434 29.777805 -733.751282
v 442.921112 29.846399 -738.688538
v 442.659302 29.905039 -743.580078
vn -0.0022 1.0000 -0.0039
vn -0.0000 1.0000 -0.0000
vn -0.0193 0.9998 -0.0044
vn 0.0001 1.0000 -0.0069
vn -0.0104 0.9999 -0.0062
vn 0.0116 0.9999 -0.0030
vn 0.0022 1.0000 -0.0025
vn 0.0032 1.0000 0.0007
vn 0.0129 0.9999 0.0010
vn 0.0039 1.0000 0.0013
vn 0.0188 0.9998 0.0062
vn 0.0136 0.9999 0.0029
vn 0.0079 1.0000 -0.0001
vn 0.0054 1.0000 0.0023
vn 0.0367 0.9991 0.0230
vn 0.0079 1.0000 0.0061
vn 0.0082 1.0000 0.0027
vn 0.0018 1.0000 -0.0022
vn -0.0128 0.9999 0.0043
vn -0.0119 0.9999 0.0006
vn -0.0034 1.0000 -0.0041
vn -0.0173 0.9998 0.0035
vn -0.0019 1.0000 -0.0048
vn 0.0017 1.0000 -0.0047
vn 0.0093 0.9999 -0.0053
vn -0.0001 1.0000 -0.0059
vn 0.0108 0.9999 -0.0092
vn 0.0107 0.9999 0.0126
vn 0.0228 0.9995 0.0218
vn 0.0103 0.9999 0.0122
vn -0.0014 1.0000 -0.0010
vn 0.0009 1.0000 0.0011
vn 0.0145 0.9998 0.0157
vn 0.0395 0.9986 0.0344
vn 0.0382 0.9991 0.0159
vn 0.0459 0.9988 0.0192
vn 0.0462 0.9988 0.0178
vn 0.0180 0.9998 -0.0037
vn 0.0418 0.9989 0.0218
vn 0.0342 0.9994 0.0037
vn 0.0273 0.9996 0.0023
vn 0.0338 0.9993 0.0139
vn 0.0457 0.9988 0.0151
vn 0.0446 0.9988 0.0207
vn 0.0297 0.9995 0.0138
vn 0.0265 0.9996 0.0133
vn 0.0310 0.9994 0.0153
vn 0.0296 0.9994 0.0169
vn 0.0249 0.9995 0.0215
vn 0.0188 0.9998 0.0095
vn 0.0190 0.9997 0.0123
vn 0.0289 0.9991 0.0309
vn 0.0274 0.9992 0.0287
vn 0.0302 0.9989 0.0346
vn 0.0229 0.9996 0.0133
vn 0.0224 0.9997 0.0121
vn 0.0305 0.9989 0.0355
vn 0.0324 0.9987 0.0397
vn 0.0310 0.9988 0.0369
vn 0.0421 0.9971 0.0634
vn 0.0319 0.9985 0.0437
vn 0.0284 0.9987 0.0434
vn 0.0350 0.9980 0.0535
vn 0.0229 0.9993 0.0289
vn 0.0218 0.9994 0.0267
vn 0.0284 0.9991 0.0326
vn 0.0301 0.9986 0.0427
vn 0.0171 0.9994 0.0300
vn 0.0213 0.9982 0.0569
vn 0.0153 0.9966 0.0813
vn 0.0286 0.9989 0.0376
vn 0.0264 0.9992 0.0302
vn 0.0117 0.9989 0.0462
vn 0.0091 0.9988 0.0485
vn 0.0097 0.9994 0.0342
vn 0.0178 0.9988 0.0447
vn 0.0114 0.9996 0.0250
vn 0.0182 0.9993 0.0323
vn 0.0229 0.9986 0.0467
vn 0.0237 0.9986 0.0472
vn 0.0229 0.9987 0.0448
vn 0.0238 0.9986 0.0467
vn 0.0168 0.9987 0.0480
vn 0.0219 0.9985 0.0503
vn 0.0210 0.9980 0.0601
vn 0.0186 0.9987 0.0469
vn 0.0142 0.9995 0.0299
vn 0.0204 0.9988 0.0434
vn 0.0242 0.9986 0.0478
vn 0.0271 0.9973 0.0683
vn 0.0230 0.9985 0.0503
vn 0.0128 0.9992 0.0374
vn 0.0263 0.9965 0.0798
vn 0.0087 0.9997 0.0248
vn 0.0104 0.9994 0.0329
vn 0.0132 0.9992 0.0370
vn 0.0123 0.9993 0.0354
vn 0.0097 0.9996 0.0272
vn 0.0103 0.9995 0.0297
vn 0.0037 1.0000 0.0054
vn 0.0165 0.9998 -0.0114
vn 0.0132 0.9999 0.0033
vn 0.0153 0.9998 -0.0135
vn 0.0036 0.9990 0.0456
vn -0.0010 1.0000 0.0054
vn -0.0012 1.0000 0.0046
vn -0.0017 1.0000 0.0078
vn 0.0025 1.0000 0.0011
vn 0.0025 1.0000 0.0041
vn 0.0032 0.9999 0.0095
vn 0.0093 1.0000 -0.0029
vn 0.0038 0.9999 0.0094
vn -0.0090 0.9999 0.0050
vn -0.0073 0.9999 0.0097
vn -0.0192 0.9998 0.0112
vn -0.0089 0.9999 0.0049
vn 0.0066 1.0000 0.0011
vn 0.0023 0.9999 0.0116
vn -0.0087 0.9999 0.0136
vn -0.0032 1.0000 0.0086
vn -0.0040 0.9999 0.0145
vn 0.0102 0.9999 0.0060
vn -0.0195 0.9996 0.0184
vn -0.0093 0.9999 0.0107
vn -0.0082 1.0000 0.0045
vn -0.0227 0.9997 0.0133
vn -0.0031 0.9999 0.0140
vn -0.0024 1.0000 0.0080
vn 0.0110 0.9999 0.0055
vn -0.0093 0.9998 0.0158
vn -0.0185 0.9997 0.0178
vn -0.0068 1.0000 0.0036
vn -0.0081 1.0000 0.0044
vn 0.0074 1.0000 0.0006
vn 0.0159 0.9999 -0.0051
vn 0.0165 0.9998 -0.0065
vn 0.0172 0.9998 -0.0094
vn 0.0156 0.9997 0.0177
vn 0.0170 0.9997 0.0190
vn 0.0167 0.9997 0.0187
vn 0.0127 0.9998 0.0151
vn 0.0154 0.9997 0.0174
vn 0.0049 1.0000 0.0027
vn 0.0112 0.9999 0.0048
vn 0.0137 0.9999 0.0004
vn 0.0032 1.0000 -0.0082
vn 0.0133 0.9999 -0.0003
vn 0.0038 1.0000 -0.0084
vn 0.0069 1.0000 -0.0057
vn 0.0064 1.0000 -0.0064
vn -0.0007 1.0000 -0.0027
vn 0.0115 0.9999 0.0032
vn 0.0060 0.9999 0.0086
vn 0.0102 0.9999 -0.0027
vn 0.0097 0.9999 -0.0034
vn -0.0101 0.9999 -0.0029
vn -0.0122 0.9999 -0.0044
vn -0.0103 0.9999 -0.0030
vn -0.0208 0.9996 -0.0168
vn -0.0121 0.9998 -0.0139
vn -0.0058 0.9999 -0.0160
vn -0.0217 0.9994 -0.0268
vn -0.0070 0.9998 -0.0160
vn -0.0059 0.9999 -0.0159
vn -0.0036 0.9999 -0.0135
vn -0.0068 0.9998 -0.0168
vn -0.0389 0.9992 -0.0007
vn -0.0438 0.9990 -0.0010
vn -0.0436 0.9990 -0.0010
vn -0.0465 0.9989 -0.0012
vn -0.0218 0.9998 -0.0043
vn -0.0287 0.9996 -0.0052
vn -0.0370 0.9993 -0.0043
vn -0.0148 0.9999 -0.0026
vn -0.0115 0.9999 -0.0007
vn -0.0171 0.9999 0.0014
vn -0.0356 0.9994 -0.0035
vn -0.0544 0.9985 -0.0022
vn -0.0380 0.9993 -0.0006
vn -0.0166 0.9999 0.0015
vn -0.0131 0.9999 0.0023
vn -0.0165 0.9999 0.0015
vn -0.0239 0.9997 -0.0047
vn -0.0106 0.9999 -0.0011
vn -0.0053 1.0000 -0.0025
vn -0.0239 0.9997 -0.0095
vn -0.0056 1.0000 -0.0027
vn 0.0052 1.0000 0.0030
vn 0.0016 1.0000 0.0007
vn 0.0019 1.0000 0.0010
vn 0.0066 0.9999 0.0100
vn 0.0131 0.9998 0.0125
vn 0.0173 0.9996 0.0227
vn -0.0018 1.0000 -0.0010
vn 0.0038 0.9999 0.0136
vn 0.0102 0.9996 0.0253
vn 0.0062 0.9998 0.0183
vn 0.0058 0.9999 0.0160
vn 0.0198 0.9994 0.0301
vn 0.0291 0.9989 0.0361
vn 0.0099 0.9999 0.0110
vn 0.0267 0.9991 0.0317
vn 0.0333 0.9982 0.0496
vn 0.0348 0.9982 0.0483
vn 0.0410 0.9974 0.0596
vn 0.0346 0.9982 0.0490
vn 0.0310 0.9985 0.0453
vn 0.0262 0.9991 0.0329
vn 0.0335 0.9986 0.0399
vn 0.0366 0.9982 0.0471
vn 0.0369 0.9985 0.0404
vn 0.0403 0.9985 0.0364
vn 0.0260 0.9994 0.0212
vn 0.0443 0.9981 0.0439
vn 0.0363 0.9986 0.0385
vn 0.0281 0.9990 0.0335
vn 0.0425 0.9979 0.0489
vn 0.0263 0.9992 0.0301
vn 0.0271 0.9995 0.0140
vn 0.0234 0.9996 0.0169
vn 0.0146 0.9999 0.0024
vn 0.0299 0.9994 0.0190
vn 0.0337 0.9991 0.0251
vn 0.0444 0.9981 0.0434
vn 0.0240 0.9993 0.0274
vn 0.0160 0.9998 0.0134
vn -0.0073 1.0000 0.0039
vn 0.0085 1.0000 -0.0001
vn -0.0070 1.0000 0.0038
vn 0.0118 0.9999 0.0048
vn -0.0013 1.0000 0.0073
vn -0.0014 0.9999 0.0131
vn -0.0020 0.9999 0.0133
vn -0.0013 0.9999 0.0134
vn -0.0006 0.9999 0.0130
vn -0.0011 0.9999 0.0141
vn -0.0004 0.9999 0.0126
vn -0.0019 0.9999 0.0134
vt 0.254023 1.994535
vt 0.004740 1.994536
vt 0.004740 1.001521
vt 0.503305 1.994535
vt 0.254023 1.001520
vt 0.503305 1.001520
vt 0.752588 1.994535
vt 1.001871 1.994534
vt 0.752588 1.001520
vt 1.001871 1.001519
vt 1.749719 1.994534
vt 1.500436 1.994534
vt 1.500436 1.001519
vt 1.999001 1.994533
vt 1.749719 1.001519
vt 1.999001 1.001518
vt 1.251153 1.994534
vt 1.251153 1.001519
vt 0.470994 1.010835
vt 0.216327 1.996406
vt -0.038341 1.996406
vt 0.234243 1.316247
vt 0.470994 1.996405
vt 0.725662 1.996405
vt 0.980330 1.996405
vt 0.725662 1.010835
vt 0.980330 1.010835
vt 1.744333 1.996404
vt 1.489666 1.996404
vt 1.489666 1.010834
vt 1.999001 1.996404
vt 1.744333 1.010834
vt 1.999001 1.010834
vt 1.234998 1.996404
vt 1.234998 1.010834
vt -0.023956 1.649326
vt -0.293009 1.996406
vt 0.145706 1.097499
vt 0.052744 1.813092
vt 0.255218 1.061377
vt 0.166278 1.880431
vt 0.004110 1.996406
vt 0.292629 1.046413
vt 0.288161 1.792515
vt 0.002172 1.385092
vt -0.063786 1.625419
vt 1.749251 1.220000
vt 1.499501 1.590000
vt 1.249750 1.590000
vt 1.999001 1.590000
vt 1.749251 1.590000
vt 1.999001 1.000000
vt 0.250749 1.720000
vt 0.000999 1.560000
vt 0.000999 1.010000
vt 0.500500 1.990000
vt 0.250749 1.010000
vt 0.500500 1.010000
vt 0.750250 1.990000
vt 1.000000 1.990000
vt 0.750250 1.010000
vt 1.000000 1.010000
vt 1.749251 1.990000
vt 1.499501 1.990000
vt 1.499501 1.010000
vt 1.999001 1.990000
vt 1.749251 1.010000
vt 1.999001 1.010000
vt 1.249750 1.990000
vt 1.249750 1.010000
vt 0.250749 1.990000
vt 0.000999 1.990000
vt 0.753991 1.994535
vt 0.500500 1.994535
vt 0.500500 1.003390
vt 1.007482 1.994535
vt 0.864880 1.715748
vt 0.614259 1.225789
vt 0.745320 1.482011
vt 1.741769 1.992664
vt 1.687396 1.230342
vt 1.741769 1.005260
vt 1.503242 1.992664
vt 1.552814 1.787458
vt 1.617112 1.521288
vt 0.240929 1.996406
vt -0.010224 1.996406
vt -0.010224 0.997779
vt 0.492082 1.996406
vt 0.240929 0.997779
vt 0.492082 0.997779
vt 0.743235 1.996405
vt 0.994389 1.996405
vt 0.743235 0.997779
vt 0.994389 0.997778
vt 1.747848 1.996404
vt 1.496695 1.996404
vt 1.496695 0.997778
vt 1.747848 0.997777
vt 1.999001 0.997777
vt 1.245542 1.996405
vt 1.245542 0.997778
vt 1.106975 1.663587
vt 0.881124 1.214858
vt 0.994389 1.393171
vt 0.998753 1.996405
vt 0.749626 1.996406
vt 0.749626 1.803463
vt 0.500500 1.996406
vt 1.746133 1.996405
vt 1.497007 1.996405
vt 1.497007 0.997778
vt 1.995260 1.996404
vt 1.746133 0.997777
vt 1.995260 0.997777
vt 1.247880 1.996405
vt 1.247880 1.199407
vt 0.998753 1.439410
vt 0.250749 1.996406
vt 0.000999 1.996406
vt 0.000999 1.000000
vt 0.250749 1.000000
vt 0.500500 1.000000
vt 0.750250 1.996406
vt 1.000000 1.996406
vt 0.750250 1.000000
vt 1.000000 1.000000
vt 1.749251 1.996405
vt 1.499501 1.996405
vt 1.499501 1.000000
vt 1.999001 1.996405
vt 1.749251 1.000000
vt 1.249750 1.996405
vt 1.249750 1.000000
vt -0.006483 1.003391
vt 0.244514 1.003390
vt 0.244514 1.988924
vt -0.006483 1.988924
vt 0.495511 1.003390
vt 0.495511 1.988923
vt 0.746509 1.003390
vt 0.746509 1.988923
vt 0.997506 1.003389
vt 0.997506 1.988923
vt 1.248503 1.988922
vt 1.100248 1.205097
vt 1.499501 1.988922
vt 1.357992 1.711108
vt 1.237018 1.473608
s 1
usemtl GRVLA
f 1/1/1 2/2/2 31/3/3
f 3/4/4 1/1/1 4/5/5
f 1/1/1 31/3/3 4/5/5
f 3/4/4 4/5/5 5/6/6
f 6/7/7 3/4/4 5/6/6
f 7/8/8 6/7/7 8/9/9
f 6/7/7 5/6/6 8/9/9
f 7/8/8 8/9/9 9/10/10
f 10/11/11 11/12/12 12/13/13
f 13/14/14 10/11/11 14/15/15
f 10/11/11 12/13/13 14/15/15
f 13/14/14 14/15/15 15/16/16
f 16/17/17 7/8/8 9/10/10
f 11/12/12 16/17/17 17/18/18
f 16/17/17 9/10/10 17/18/18
f 11/12/12 17/18/18 12/13/13
f 18/19/19 19/20/2 20/21/2
f 18/19/19 20/21/2 21/22/2
f 22/23/2 19/20/2 18/19/19
f 23/24/20 22/23/2 18/19/19
f 24/25/21 23/24/20 25/26/22
f 23/24/20 18/19/19 25/26/22
f 24/25/21 25/26/22 26/27/23
f 27/28/2 28/29/24 29/30/25
f 2/31/2 27/28/2 30/32/2
f 27/28/2 29/30/25 30/32/2
f 2/31/2 30/32/2 31/33/3
f 32/34/26 24/25/21 26/27/23
f 28/29/24 32/34/26 33/35/27
f 32/34/26 26/27/23 33/35/27
f 28/29/24 33/35/27 29/30/25
f 34/36/2 20/21/2 35/37/2
f 21/22/2 20/21/2 34/36/2
f 36/38/28 37/39/29 38/40/30
f 39/41/31 13/42/14 15/43/16
f 37/44/32 39/41/31 15/43/16
f 40/45/33 37/39/29 36/38/28
f 41/46/34 37/39/29 40/45/33
f 42/47/35 43/48/36 44/49/37
f 47/50/38 45/51/39 42/47/35
f 45/51/39 43/48/36 42/47/35
f 47/50/38 42/47/35 48/52/40
f 46/53/41 47/54/38 48/55/40
f 49/56/42 46/53/41 50/57/43
f 46/53/41 48/55/40 50/57/43
f 49/56/42 50/57/43 51/58/44
f 52/59/45 49/56/42 51/58/44
f 53/60/46 52/59/45 54/61/47
f 52/59/45 51/58/44 54/61/47
f 53/60/46 54/61/47 55/62/48
f 56/63/49 57/64/50 58/65/51
f 59/66/52 56/63/49 60/67/53
f 56/63/49 58/65/51 60/67/53
f 59/66/52 60/67/53 61/68/54
f 62/69/55 53/60/46 55/62/48
f 57/64/50 62/69/55 63/70/56
f 62/69/55 55/62/48 63/70/56
f 57/64/50 63/70/56 58/65/51
f 64/71/57 59/72/52 61/55/54
f 67/56/58 64/71/57 65/57/59
f 64/71/57 61/55/54 65/57/59
f 67/56/58 65/57/59 68/58/60
f 66/59/61 67/56/58 68/58/60
f 69/60/62 66/59/61 70/61/63
f 66/59/61 68/58/60 70/61/63
f 69/60/62 70/61/63 71/62/64
f 72/63/65 73/64/66 74/65/67
f 75/66/68 72/63/65 76/67/69
f 72/63/65 74/65/67 76/67/69
f 75/66/68 76/67/69 81/68/70
f 77/69/71 69/60/62 71/62/64
f 73/64/66 77/69/71 78/70/72
f 77/69/71 71/62/64 78/70/72
f 73/64/66 78/70/72 74/65/67
f 79/71/73 80/72/74 81/55/75
f 82/56/76 79/71/73 83/57/77
f 79/71/73 81/55/75 83/57/77
f 82/56/76 83/57/77 84/58/78
f 85/59/79 82/56/76 84/58/78
f 86/60/80 85/59/79 87/61/81
f 85/59/79 84/58/78 87/61/81
f 86/60/80 87/61/81 88/62/82
f 89/63/83 90/64/84 91/65/85
f 92/66/86 89/63/83 93/67/87
f 89/63/83 91/65/85 93/67/87
f 92/66/86 93/67/87 94/68/88
f 95/69/89 86/60/80 88/62/82
f 90/64/84 95/69/89 96/70/90
f 95/69/89 88/62/82 96/70/90
f 90/64/84 96/70/90 91/65/85
f 97/71/91 92/72/86 94/55/88
f 98/56/92 97/71/91 99/57/93
f 97/71/91 94/55/88 99/57/93
f 98/56/92 99/57/93 100/58/94
f 101/73/95 98/74/92 100/75/94
f 102/76/96 101/73/95 103/77/97
f 104/78/98 101/73/95 100/75/94
f 105/79/99 101/73/95 104/78/98
f 103/77/97 101/73/95 105/79/99
f 106/66/100 107/63/101 108/67/102
f 107/80/101 109/81/103 108/82/102
f 106/66/100 108/67/102 110/68/104
f 111/71/105 106/72/100 110/55/104
f 112/56/106 111/71/105 113/57/107
f 111/71/105 110/55/104 113/57/107
f 112/56/106 113/57/107 114/58/108
f 115/59/109 112/56/106 114/58/108
f 116/60/110 115/59/109 117/61/111
f 115/59/109 114/58/108 117/61/111
f 116/60/110 117/61/111 118/62/112
f 119/63/113 120/64/114 121/65/115
f 122/66/116 119/63/113 123/67/113
f 119/63/113 121/65/115 123/67/113
f 122/66/116 123/67/113 124/68/117
f 125/69/118 116/60/110 118/62/112
f 120/64/114 125/69/118 126/70/119
f 125/69/118 118/62/112 126/70/119
f 120/64/114 126/70/119 121/65/115
f 127/71/120 122/72/116 124/55/117
f 128/56/121 127/71/120 129/57/122
f 127/71/120 124/55/117 129/57/122
f 128/56/121 129/57/122 130/58/123
f 131/59/124 128/56/121 130/58/123
f 132/60/125 131/59/124 133/61/126
f 131/59/124 130/58/123 133/61/126
f 132/60/125 133/61/126 134/62/125
f 135/63/127 136/64/128 137/65/129
f 138/66/130 135/63/127 139/67/131
f 135/63/127 137/65/129 139/67/131
f 138/66/130 139/67/131 140/68/132
f 141/69/133 132/60/125 134/62/125
f 136/64/128 141/69/133 142/70/134
f 141/69/133 134/62/125 142/70/134
f 136/64/128 142/70/134 137/65/129
f 107/80/101 143/83/135 144/84/136
f 107/80/101 145/85/137 109/81/103
f 107/80/101 144/84/136 145/85/137
f 146/86/138 147/87/139 232/88/140
f 148/89/141 146/86/138 149/90/142
f 146/86/138 232/88/140 149/90/142
f 148/89/141 149/90/142 150/91/143
f 151/92/144 148/89/141 150/91/143
f 152/93/145 151/92/144 153/94/146
f 151/92/144 150/91/143 153/94/146
f 152/93/145 153/94/146 154/95/147
f 155/96/148 156/97/149 157/98/150
f 158/31/151 155/96/148 159/99/152
f 155/96/148 157/98/150 159/99/152
f 158/31/151 159/99/152 160/100/153
f 161/101/154 152/93/145 154/95/147
f 156/97/149 161/101/154 162/102/155
f 161/101/154 154/95/147 162/102/155
f 156/97/149 162/102/155 157/98/150
f 163/86/156 158/87/151 160/88/153
f 164/89/157 163/86/156 165/90/158
f 163/86/156 160/88/153 165/90/158
f 164/89/157 165/90/158 166/91/159
f 167/92/160 164/89/157 166/91/159
f 168/93/161 167/92/160 169/94/162
f 167/92/160 166/91/159 169/94/162
f 170/101/163 168/93/161 171/103/164
f 168/93/161 172/104/165 173/105/166
f 168/93/161 169/94/162 172/104/165
f 171/103/164 168/93/161 173/105/166
f 174/106/167 175/107/168 176/108/169
f 175/107/168 177/109/170 176/108/169
f 178/110/171 179/111/172 180/112/173
f 186/113/174 178/110/171 181/114/175
f 178/110/171 180/112/173 181/114/175
f 186/113/174 181/114/175 187/115/176
f 180/112/173 182/116/177 183/117/178
f 182/116/177 174/106/167 183/117/178
f 179/111/172 182/116/177 180/112/173
f 183/117/178 174/106/167 184/118/179
f 174/106/167 176/108/169 184/118/179
f 185/119/180 186/120/174 187/121/176
f 188/109/181 185/119/180 189/122/182
f 185/119/180 187/121/176 189/122/182
f 188/109/181 189/122/182 190/123/183
f 191/124/184 188/109/181 190/123/183
f 192/125/185 191/124/184 193/126/186
f 191/124/184 190/123/183 193/126/186
f 192/125/185 193/126/186 194/127/187
f 195/128/188 196/129/189 197/130/190
f 198/131/191 195/128/188 199/132/192
f 195/128/188 197/130/190 199/132/192
f 198/131/191 199/132/192 200/52/193
f 201/133/194 192/125/185 194/127/187
f 196/129/189 201/133/194 202/134/194
f 201/133/194 194/127/187 202/134/194
f 196/129/189 202/134/194 197/130/190
f 203/119/195 198/120/191 200/121/193
f 204/109/196 203/119/195 205/122/197
f 203/119/195 200/121/193 205/122/197
f 204/109/196 205/122/197 206/123/198
f 207/124/199 204/109/196 206/123/198
f 208/125/200 207/124/199 209/126/201
f 207/124/199 206/123/198 209/126/201
f 208/125/200 209/126/201 210/127/202
f 211/128/203 212/129/204 213/130/205
f 214/131/206 211/128/203 215/132/207
f 211/128/203 213/130/205 215/132/207
f 214/131/206 215/132/207 216/52/208
f 217/133/209 208/125/200 210/127/202
f 212/129/204 217/133/209 218/134/210
f 217/133/209 210/127/202 218/134/210
f 212/129/204 218/134/210 213/130/205
f 219/119/211 214/120/206 216/121/208
f 220/109/212 219/119/211 221/122/213
f 219/119/211 216/121/208 221/122/213
f 220/109/212 221/122/213 222/123/214
f 223/124/215 220/109/212 222/123/214
f 224/125/216 223/124/215 225/126/217
f 223/124/215 222/123/214 225/126/217
f 224/125/216 225/126/217 226/127/218
f 227/128/219 228/129/220 229/130/221
f 230/131/222 227/128/219 231/132/223
f 227/128/219 229/130/221 231/132/223
f 230/131/222 231/132/223 232/52/224
f 233/133/225 224/125/216 226/127/218
f 228/129/220 233/133/225 234/134/226
f 233/133/225 226/127/218 234/134/226
f 228/129/220 234/134/226 229/130/221
f 140/135/132 235/136/227 236/137/227
f 236/137/227 138/138/130 140/135/132
f 235/136/227 237/139/228 238/140/229
f 238/140/229 236/137/227 235/136/227
f 237/139/228 239/141/230 240/142/231
f 240/142/231 238/140/229 237/139/228
f 239/141/230 241/143/232 242/144/233
f 242/144/233 240/142/231 239/141/230
f 243/145/234 242/144/233 241/143/232
f 244/146/235 243/145/234 241/143/232
f 245/147/236 243/145/234 246/148/237
f 247/149/238 243/145/234 244/146/235
f 246/148/237 243/145/234 247/149/238
