# Blender 4.4.3
# www.blender.org
mtllib GSSIDE.mtl
o GSSIDE
v 374.411438 13.833370 -430.024780
v 374.411438 13.000538 -430.024780
v 375.358215 14.526382 -428.707275
v 375.358215 15.768359 -428.707275
v 374.411438 15.768359 -430.024780
v 375.358215 13.693550 -428.707275
v 376.305023 15.219395 -427.389740
v 376.305023 16.461370 -427.389740
v 375.358215 16.461370 -428.707275
v 376.305023 14.386562 -427.389740
v 377.251831 15.912407 -426.072205
v 377.251831 17.154383 -426.072205
v 376.305023 17.154383 -427.389740
v 377.251831 15.079576 -426.072205
v 378.198639 16.605419 -424.754700
v 378.198639 17.847397 -424.754700
v 377.251831 17.847397 -426.072205
v 378.198639 15.772588 -424.754700
v 379.145416 17.298431 -423.437164
v 379.145416 18.540407 -423.437164
v 378.198639 18.540407 -424.754700
v 379.145416 16.465599 -423.437164
v 380.092224 17.991444 -422.119629
v 380.092224 19.233419 -422.119629
v 379.145416 19.233421 -423.437164
v 380.092224 17.158611 -422.119629
v 390.509705 13.000538 -441.593323
v 390.509705 13.833369 -441.593323
v 391.456482 14.526382 -440.275818
v 391.456482 15.768359 -440.275818
v 390.509705 15.768359 -441.593323
v 391.456482 13.693549 -440.275818
v 392.403290 15.219395 -438.958282
v 392.403290 16.461372 -438.958282
v 391.456482 16.461372 -440.275818
v 392.403290 14.386563 -438.958282
v 393.350098 15.912407 -437.640747
v 393.350098 17.154385 -437.640747
v 392.403290 17.154385 -438.958282
v 393.350098 15.079576 -437.640747
v 394.296906 16.605419 -436.323242
v 394.296906 17.847397 -436.323242
v 393.350098 17.847397 -437.640747
v 394.296906 15.772588 -436.323242
v 395.243683 17.298433 -435.005707
v 395.243683 18.540409 -435.005707
v 394.296906 18.540409 -436.323242
v 395.243683 16.465601 -435.005707
v 396.190491 17.991446 -433.688202
v 396.190491 19.233421 -433.688202
v 395.243683 19.233421 -435.005707
v 396.190491 17.158613 -433.688202
v 424.144836 12.738002 -465.358337
v 424.144836 11.905169 -465.358337
v 425.091614 13.431014 -464.040833
v 425.091614 14.672991 -464.040833
v 424.144836 14.672991 -465.358337
v 425.091614 12.598182 -464.040833
v 426.038422 14.124026 -462.723297
v 426.038422 15.366003 -462.723297
v 425.091614 15.366003 -464.040833
v 426.038422 13.291194 -462.723297
v 426.985229 14.817039 -461.405762
v 426.985229 16.059015 -461.405762
v 426.038422 16.059015 -462.723297
v 426.985229 13.984207 -461.405762
v 427.932037 15.510052 -460.088257
v 427.932037 16.752029 -460.088257
v 426.985229 16.752029 -461.405762
v 427.932037 14.677220 -460.088257
v 428.878815 16.203064 -458.770721
v 428.878815 17.445040 -458.770721
v 427.932037 17.445040 -460.088257
v 428.878815 15.370233 -458.770721
v 429.825623 16.896076 -457.453186
v 429.825623 18.138052 -457.453186
v 428.878815 18.138054 -458.770721
v 429.825623 16.063244 -457.453186
v 440.243103 11.905169 -476.926880
v 440.243103 12.738001 -476.926880
v 441.189880 13.431014 -475.609375
v 441.189880 14.672991 -475.609375
v 440.243103 14.672991 -476.926880
v 441.189880 12.598182 -475.609375
v 442.136688 14.124026 -474.291840
v 442.136688 15.366003 -474.291840
v 441.189880 15.366003 -475.609375
v 442.136688 13.291195 -474.291840
v 443.083496 14.817039 -472.974304
v 443.083496 16.059015 -472.974304
v 442.136688 16.059015 -474.291840
v 443.083496 13.984208 -472.974304
v 444.030304 15.510052 -471.656799
v 444.030304 16.752028 -471.656799
v 443.083496 16.752028 -472.974304
v 444.030304 14.677220 -471.656799
v 444.977081 16.203064 -470.339264
v 444.977081 17.445040 -470.339264
v 444.030304 17.445040 -471.656799
v 444.977081 15.370233 -470.339264
v 445.923889 16.896076 -469.021759
v 445.923889 18.138052 -469.021759
v 444.977081 18.138052 -470.339264
v 445.923889 16.063244 -469.021759
v 538.465576 -2.375487 -275.737091
v 538.465576 -3.208319 -275.737091
v 540.021301 -1.682475 -276.197571
v 540.021301 -0.440498 -276.197571
v 538.465576 -0.440498 -275.737091
v 540.021301 -2.515307 -276.197571
v 541.577026 -0.989463 -276.658081
v 541.577026 0.252514 -276.658081
v 540.021301 0.252514 -276.197571
v 541.577026 -1.822294 -276.658081
v 543.132751 -0.296450 -277.118561
v 543.132751 0.945527 -277.118561
v 541.577026 0.945527 -276.658081
v 543.132751 -1.129282 -277.118561
v 544.688416 0.396562 -277.579041
v 544.688416 1.638539 -277.579041
v 543.132751 1.638539 -277.118561
v 544.688416 -0.436270 -277.579041
v 546.244141 1.089575 -278.039551
v 546.244141 2.331551 -278.039551
v 544.688416 2.331551 -277.579041
v 546.244141 0.256742 -278.039551
v 547.799866 1.782587 -278.500031
v 547.799866 3.024563 -278.500031
v 546.244141 3.024564 -278.039551
v 547.799866 0.949755 -278.500031
v 532.839050 -3.208319 -294.745728
v 532.839050 -2.375487 -294.745728
v 534.394775 -1.682475 -295.206207
v 534.394775 -0.440498 -295.206207
v 532.839050 -0.440498 -294.745728
v 534.394775 -2.515307 -295.206207
v 535.950500 -0.989463 -295.666687
v 535.950500 0.252514 -295.666687
v 534.394775 0.252514 -295.206207
v 535.950500 -1.822294 -295.666687
v 537.506226 -0.296450 -296.127167
v 537.506226 0.945526 -296.127167
v 535.950500 0.945526 -295.666687
v 537.506226 -1.129282 -296.127167
v 539.061951 0.396562 -296.587677
v 539.061951 1.638539 -296.587677
v 537.506226 1.638539 -296.127167
v 539.061951 -0.436270 -296.587677
v 540.617615 1.089575 -297.048157
v 540.617615 2.331551 -297.048157
v 539.061951 2.331551 -296.587677
v 540.617615 0.256743 -297.048157
v 542.173340 1.782587 -297.508636
v 542.173340 3.024563 -297.508636
v 540.617615 3.024563 -297.048157
v 542.173340 0.949754 -297.508636
v 545.535461 -2.414982 -250.719696
v 545.535461 -3.247814 -250.719696
v 547.091187 -1.721970 -251.180191
v 547.091187 -0.479993 -251.180191
v 545.535461 -0.479993 -250.719696
v 547.091187 -2.554802 -251.180191
v 548.646912 -1.028957 -251.640671
v 548.646912 0.213019 -251.640671
v 547.091187 0.213019 -251.180191
v 548.646912 -1.861789 -251.640671
v 550.202637 -0.335945 -252.101166
v 550.202637 0.906032 -252.101166
v 548.646912 0.906032 -251.640671
v 550.202637 -1.168777 -252.101166
v 551.758301 0.357067 -252.561646
v 551.758301 1.599044 -252.561646
v 550.202637 1.599044 -252.101166
v 551.758301 -0.475764 -252.561646
v 553.314026 1.050080 -253.022141
v 553.314026 2.292056 -253.022141
v 551.758301 2.292056 -252.561646
v 553.314026 0.217248 -253.022141
v 554.869751 1.743092 -253.482635
v 554.869751 2.985068 -253.482635
v 553.314026 2.985069 -253.022141
v 554.869751 0.910260 -253.482635
v 539.908936 -3.247814 -269.728333
v 539.908936 -2.414982 -269.728333
v 541.464661 -1.721970 -270.188812
v 541.464661 -0.479993 -270.188812
v 539.908936 -0.479993 -269.728333
v 541.464661 -2.554802 -270.188812
v 543.020386 -1.028957 -270.649292
v 543.020386 0.213019 -270.649292
v 541.464661 0.213019 -270.188812
v 543.020386 -1.861789 -270.649292
v 544.576111 -0.335945 -271.109772
v 544.576111 0.906031 -271.109772
v 543.020386 0.906032 -270.649292
v 544.576111 -1.168777 -271.109772
v 546.131836 0.357066 -271.570282
v 546.131836 1.599043 -271.570282
v 544.576111 1.599043 -271.109772
v 546.131836 -0.475765 -271.570282
v 547.687500 1.050079 -272.030762
v 547.687500 2.292056 -272.030762
v 546.131836 2.292056 -271.570282
v 547.687500 0.217247 -272.030762
v 549.243225 1.743091 -272.491241
v 549.243225 2.985068 -272.491241
v 547.687500 2.985069 -272.030762
v 549.243225 0.910259 -272.491241
v 557.857849 -2.414978 -195.514572
v 557.857849 -3.247810 -195.514572
v 559.413574 -1.721966 -195.975067
v 559.413574 -0.479989 -195.975067
v 557.857849 -0.479989 -195.514572
v 559.413574 -2.554798 -195.975067
v 560.969299 -1.028953 -196.435547
v 560.969299 0.213023 -196.435547
v 559.413574 0.213023 -195.975067
v 560.969299 -1.861785 -196.435547
v 562.525024 -0.335941 -196.896042
v 562.525024 0.906036 -196.896042
v 560.969299 0.906036 -196.435547
v 562.525024 -1.168773 -196.896042
v 564.080688 0.357071 -197.356537
v 564.080688 1.599048 -197.356537
v 562.525024 1.599048 -196.896042
v 564.080688 -0.475760 -197.356537
v 565.636414 1.050084 -197.817017
v 565.636414 2.292060 -197.817017
v 564.080688 2.292060 -197.356537
v 565.636414 0.217252 -197.817017
v 567.192139 1.743096 -198.277512
v 567.192139 2.985072 -198.277512
v 565.636414 2.985073 -197.817017
v 567.192139 0.910264 -198.277512
v 552.231323 -3.247810 -214.523193
v 552.231323 -2.414978 -214.523193
v 553.787048 -1.721966 -214.983688
v 553.787048 -0.479989 -214.983688
v 552.231323 -0.479989 -214.523193
v 553.787048 -2.554798 -214.983688
v 555.342773 -1.028953 -215.444168
v 555.342773 0.213023 -215.444168
v 553.787048 0.213023 -214.983688
v 555.342773 -1.861785 -215.444168
v 556.898499 -0.335941 -215.904663
v 556.898499 0.906035 -215.904663
v 555.342773 0.906036 -215.444168
v 556.898499 -1.168773 -215.904663
v 558.454224 0.357071 -216.365143
v 558.454224 1.599048 -216.365143
v 556.898499 1.599048 -215.904663
v 558.454224 -0.475761 -216.365143
v 560.009888 1.050084 -216.825638
v 560.009888 2.292060 -216.825638
v 558.454224 2.292060 -216.365143
v 560.009888 0.217252 -216.825638
v 561.565613 1.743096 -217.286133
v 561.565613 2.985072 -217.286133
v 560.009888 2.985073 -216.825638
v 561.565613 0.910264 -217.286133
v -280.395752 20.940851 -296.689636
v -280.395752 20.108019 -296.689636
v -282.018188 21.633863 -296.691742
v -282.018188 22.875839 -296.691742
v -280.395752 22.875839 -296.689636
v -282.018188 20.801031 -296.691742
v -283.640625 22.326876 -296.693848
v -283.640625 23.568851 -296.693848
v -282.018188 23.568851 -296.691742
v -283.640625 21.494043 -296.693848
v -285.263062 23.019888 -296.695953
v -285.263062 24.261864 -296.695953
v -283.640625 24.261864 -296.693848
v -285.263062 22.187056 -296.695953
v -286.885498 23.712900 -296.698059
v -286.885498 24.954878 -296.698059
v -285.263062 24.954878 -296.695953
v -286.885498 22.880068 -296.698059
v -288.507904 24.405912 -296.700134
v -288.507904 25.647888 -296.700134
v -286.885498 25.647888 -296.698059
v -288.507904 23.573080 -296.700134
v -290.130341 25.098925 -296.702240
v -290.130341 26.340900 -296.702240
v -288.507904 26.340902 -296.700134
v -290.130341 24.266092 -296.702240
v -280.421387 20.108023 -276.865814
v -280.421387 20.940853 -276.865814
v -282.043823 21.633865 -276.867920
v -282.043823 22.875843 -276.867920
v -280.421387 22.875843 -276.865814
v -282.043823 20.801035 -276.867920
v -283.666260 22.326878 -276.869995
v -283.666260 23.568855 -276.869995
v -282.043823 23.568855 -276.867920
v -283.666260 21.494047 -276.869995
v -285.288696 23.019890 -276.872101
v -285.288696 24.261868 -276.872101
v -283.666260 24.261868 -276.869995
v -285.288696 22.187059 -276.872101
v -286.911133 23.712902 -276.874207
v -286.911133 24.954880 -276.874207
v -285.288696 24.954880 -276.872101
v -286.911133 22.880072 -276.874207
v -288.533569 24.405916 -276.876312
v -288.533569 25.647892 -276.876312
v -286.911133 25.647892 -276.874207
v -288.533569 23.573084 -276.876312
v -290.156006 25.098928 -276.878418
v -290.156006 26.340904 -276.878418
v -288.533569 26.340904 -276.876312
v -290.156006 24.266096 -276.878418
v -280.840546 20.940849 -322.645752
v -280.840546 20.108017 -322.645752
v -282.462982 21.633862 -322.647858
v -282.462982 22.875837 -322.647858
v -280.840546 22.875837 -322.645752
v -282.462982 20.801029 -322.647858
v -284.085419 22.326874 -322.649963
v -284.085419 23.568850 -322.649963
v -282.462982 23.568850 -322.647858
v -284.085419 21.494041 -322.649963
v -285.707855 23.019886 -322.652069
v -285.707855 24.261862 -322.652069
v -284.085419 24.261862 -322.649963
v -285.707855 22.187054 -322.652069
v -287.330292 23.712898 -322.654175
v -287.330292 24.954876 -322.654175
v -285.707855 24.954876 -322.652069
v -287.330292 22.880066 -322.654175
v -288.952698 24.405910 -322.656250
v -288.952698 25.647886 -322.656250
v -287.330292 25.647886 -322.654175
v -288.952698 23.573078 -322.656250
v -290.575134 25.098923 -322.658356
v -290.575134 26.340899 -322.658356
v -288.952698 26.340900 -322.656250
v -290.575134 24.266090 -322.658356
v -280.866180 20.108021 -302.821930
v -280.866180 20.940851 -302.821930
v -282.488617 21.633863 -302.824036
v -282.488617 22.875841 -302.824036
v -280.866180 22.875841 -302.821930
v -282.488617 20.801033 -302.824036
v -284.111053 22.326876 -302.826111
v -284.111053 23.568853 -302.826111
v -282.488617 23.568853 -302.824036
v -284.111053 21.494045 -302.826111
v -285.733490 23.019888 -302.828217
v -285.733490 24.261866 -302.828217
v -284.111053 24.261866 -302.826111
v -285.733490 22.187057 -302.828217
v -287.355927 23.712900 -302.830322
v -287.355927 24.954878 -302.830322
v -285.733490 24.954878 -302.828217
v -287.355927 22.880070 -302.830322
v -288.978363 24.405914 -302.832428
v -288.978363 25.647890 -302.832428
v -287.355927 25.647890 -302.830322
v -288.978363 23.573082 -302.832428
v -290.600800 25.098927 -302.834534
v -290.600800 26.340902 -302.834534
v -288.978363 26.340902 -302.832428
v -290.600800 24.266094 -302.834534
v -280.649445 20.940845 -379.111450
v -280.649445 20.108013 -379.111450
v -282.271881 21.633858 -379.113556
v -282.271881 22.875834 -379.113556
v -280.649445 22.875834 -379.111450
v -282.271881 20.801025 -379.113556
v -283.894318 22.326870 -379.115662
v -283.894318 23.568846 -379.115662
v -282.271881 23.568846 -379.113556
v -283.894318 21.494038 -379.115662
v -285.516754 23.019882 -379.117767
v -285.516754 24.261858 -379.117767
v -283.894318 24.261858 -379.115662
v -285.516754 22.187050 -379.117767
v -287.139191 23.712894 -379.119873
v -287.139191 24.954872 -379.119873
v -285.516754 24.954872 -379.117767
v -287.139191 22.880062 -379.119873
v -288.761597 24.405907 -379.121948
v -288.761597 25.647882 -379.121948
v -287.139191 25.647882 -379.119873
v -288.761597 23.573074 -379.121948
v -290.384033 25.098919 -379.124054
v -290.384033 26.340895 -379.124054
v -288.761597 26.340897 -379.121948
v -290.384033 24.266087 -379.124054
v -280.675079 20.108017 -359.287628
v -280.675079 20.940847 -359.287628
v -282.297516 21.633860 -359.289734
v -282.297516 22.875837 -359.289734
v -280.675079 22.875837 -359.287628
v -282.297516 20.801029 -359.289734
v -283.919952 22.326872 -359.291809
v -283.919952 23.568850 -359.291809
v -282.297516 23.568850 -359.289734
v -283.919952 21.494041 -359.291809
v -285.542389 23.019884 -359.293915
v -285.542389 24.261862 -359.293915
v -283.919952 24.261862 -359.291809
v -285.542389 22.187054 -359.293915
v -287.164825 23.712896 -359.296021
v -287.164825 24.954874 -359.296021
v -285.542389 24.954874 -359.293915
v -287.164825 22.880066 -359.296021
v -288.787262 24.405910 -359.298126
v -288.787262 25.647886 -359.298126
v -287.164825 25.647886 -359.296021
v -288.787262 23.573078 -359.298126
v -290.409698 25.098923 -359.300232
v -290.409698 26.340899 -359.300232
v -288.787262 26.340899 -359.298126
v -290.409698 24.266090 -359.300232
v 377.450073 -2.414961 22.793900
v 377.450073 -3.247793 22.793900
v 377.447998 -1.721949 24.416336
v 377.447998 -0.479972 24.416336
v 377.450073 -0.479972 22.793900
v 377.447998 -2.554781 24.416336
v 377.445892 -1.028937 26.038771
v 377.445892 0.213040 26.038771
v 377.447998 0.213040 24.416336
v 377.445892 -1.861768 26.038771
v 377.443787 -0.335924 27.661205
v 377.443787 0.906052 27.661205
v 377.445892 0.906052 26.038771
v 377.443787 -1.168756 27.661205
v 377.441681 0.357088 29.283640
v 377.441681 1.599065 29.283640
v 377.443787 1.599065 27.661205
v 377.441681 -0.475744 29.283640
v 377.439606 1.050100 30.906075
v 377.439606 2.292076 30.906075
v 377.441681 2.292077 29.283640
v 377.439606 0.217268 30.906075
v 377.437500 1.743114 32.528511
v 377.437500 2.985089 32.528511
v 377.439606 2.985090 30.906075
v 377.437500 0.910280 32.528511
v 397.273926 -3.247792 22.819550
v 397.273926 -2.414961 22.819550
v 397.271820 -1.721948 24.441984
v 397.271820 -0.479971 24.441984
v 397.273926 -0.479971 22.819550
v 397.271820 -2.554780 24.441984
v 397.269745 -1.028936 26.064415
v 397.269745 0.213041 26.064415
v 397.271820 0.213041 24.441984
v 397.269745 -1.861767 26.064415
v 397.267639 -0.335923 27.686852
v 397.267639 0.906053 27.686852
v 397.269745 0.906053 26.064415
v 397.267639 -1.168755 27.686852
v 397.265533 0.357089 29.309286
v 397.265533 1.599066 29.309286
v 397.267639 1.599066 27.686852
v 397.265533 -0.475743 29.309286
v 397.263428 1.050101 30.931721
v 397.263428 2.292078 30.931721
v 397.265533 2.292077 29.309286
v 397.263428 0.217269 30.931721
v 397.261322 1.743114 32.554153
v 397.261322 2.985090 32.554153
v 397.263428 2.985090 30.931721
v 397.261322 0.910281 32.554153
v 351.492249 -2.414961 23.119247
v 351.492249 -3.247793 23.119247
v 351.490173 -1.721949 24.741684
v 351.490173 -0.479972 24.741684
v 351.492249 -0.479972 23.119247
v 351.490173 -2.554781 24.741684
v 351.488068 -1.028937 26.364119
v 351.488068 0.213040 26.364119
v 351.490173 0.213040 24.741684
v 351.488068 -1.861768 26.364119
v 351.485962 -0.335924 27.986553
v 351.485962 0.906052 27.986553
v 351.488068 0.906052 26.364119
v 351.485962 -1.168756 27.986553
v 351.483856 0.357088 29.608988
v 351.483856 1.599065 29.608988
v 351.485962 1.599065 27.986553
v 351.483856 -0.475744 29.608988
v 351.481781 1.050100 31.231422
v 351.481781 2.292076 31.231422
v 351.483856 2.292077 29.608988
v 351.481781 0.217268 31.231422
v 351.479675 1.743114 32.853859
v 351.479675 2.985089 32.853859
v 351.481781 2.985090 31.231422
v 351.479675 0.910281 32.853859
v 371.316101 -3.247792 23.144897
v 371.316101 -2.414961 23.144897
v 371.313995 -1.721948 24.767332
v 371.313995 -0.479971 24.767332
v 371.316101 -0.479971 23.144897
v 371.313995 -2.554780 24.767332
v 371.311920 -1.028936 26.389763
v 371.311920 0.213041 26.389763
v 371.313995 0.213041 24.767332
v 371.311920 -1.861767 26.389763
v 371.309814 -0.335923 28.012199
v 371.309814 0.906053 28.012199
v 371.311920 0.906053 26.389763
v 371.309814 -1.168755 28.012199
v 371.307709 0.357089 29.634634
v 371.307709 1.599066 29.634634
v 371.309814 1.599066 28.012199
v 371.307709 -0.475743 29.634634
v 371.305603 1.050101 31.257069
v 371.305603 2.292078 31.257069
v 371.307709 2.292077 29.634634
v 371.305603 0.217269 31.257069
v 371.303497 1.743114 32.879501
v 371.303497 2.985090 32.879501
v 371.305603 2.985090 31.257069
v 371.303497 0.910281 32.879501
v 295.042419 -2.414962 19.532558
v 295.042419 -3.247794 19.532558
v 295.040344 -1.721949 21.154995
v 295.040344 -0.479972 21.154995
v 295.042419 -0.479973 19.532558
v 295.040344 -2.554781 21.154995
v 295.038239 -1.028937 22.777430
v 295.038239 0.213040 22.777430
v 295.040344 0.213040 21.154995
v 295.038239 -1.861768 22.777430
v 295.036133 -0.335924 24.399864
v 295.036133 0.906052 24.399864
v 295.038239 0.906052 22.777430
v 295.036133 -1.168756 24.399864
v 295.034027 0.357088 26.022299
v 295.034027 1.599065 26.022299
v 295.036133 1.599065 24.399864
v 295.034027 -0.475744 26.022299
v 295.031952 1.050100 27.644733
v 295.031952 2.292076 27.644733
v 295.034027 2.292077 26.022299
v 295.031952 0.217268 27.644733
v 295.029846 1.743113 29.267168
v 295.029846 2.985089 29.267168
v 295.031952 2.985090 27.644733
v 295.029846 0.910280 29.267168
v 314.866272 -3.247792 19.558208
v 314.866272 -2.414962 19.558208
v 314.864166 -1.721949 21.180643
v 314.864166 -0.479971 21.180643
v 314.866272 -0.479971 19.558208
v 314.864166 -2.554780 21.180643
v 314.862091 -1.028936 22.803074
v 314.862091 0.213041 22.803074
v 314.864166 0.213041 21.180643
v 314.862091 -1.861767 22.803074
v 314.859985 -0.335923 24.425510
v 314.859985 0.906053 24.425510
v 314.862091 0.906053 22.803074
v 314.859985 -1.168755 24.425510
v 314.857880 0.357089 26.047945
v 314.857880 1.599066 26.047945
v 314.859985 1.599066 24.425510
v 314.857880 -0.475743 26.047945
v 314.855774 1.050101 27.670380
v 314.855774 2.292078 27.670380
v 314.857880 2.292077 26.047945
v 314.855774 0.217269 27.670380
v 314.853668 1.743113 29.292814
v 314.853668 2.985090 29.292814
v 314.855774 2.985090 27.670380
v 314.853668 0.910281 29.292814
v -177.241470 0.027387 22.952869
v -177.241470 -0.805444 22.952869
v -177.243576 0.720400 24.575304
v -177.243576 1.962377 24.575304
v -177.241470 1.962377 22.952869
v -177.243576 -0.112432 24.575304
v -177.245667 1.413412 26.197739
v -177.245667 2.655389 26.197739
v -177.243576 2.655389 24.575304
v -177.245667 0.580581 26.197739
v -177.247772 2.106424 27.820173
v -177.247772 3.348401 27.820173
v -177.245667 3.348401 26.197739
v -177.247772 1.273593 27.820173
v -177.249863 2.799437 29.442608
v -177.249863 4.041414 29.442608
v -177.247772 4.041414 27.820173
v -177.249863 1.966605 29.442608
v -177.251968 3.492449 31.065042
v -177.251968 4.734426 31.065042
v -177.249863 4.734426 29.442608
v -177.251968 2.659617 31.065042
v -177.254059 4.185462 32.687477
v -177.254059 5.427438 32.687477
v -177.251968 5.427439 31.065042
v -177.254059 3.352629 32.687477
v -157.417633 -0.805443 22.978518
v -157.417633 0.027388 22.978518
v -157.419724 0.720401 24.600952
v -157.419724 1.962378 24.600952
v -157.417633 1.962378 22.978518
v -157.419724 -0.112431 24.600952
v -157.421829 1.413413 26.223383
v -157.421829 2.655390 26.223383
v -157.419724 2.655390 24.600952
v -157.421829 0.580582 26.223383
v -157.423920 2.106425 27.845818
v -157.423920 3.348402 27.845818
v -157.421829 3.348402 26.223385
v -157.423920 1.273594 27.845818
v -157.426025 2.799438 29.468254
v -157.426025 4.041415 29.468254
v -157.423920 4.041415 27.845818
v -157.426025 1.966606 29.468254
v -157.428131 3.492450 31.090689
v -157.428131 4.734427 31.090689
v -157.426025 4.734427 29.468254
v -157.428131 2.659618 31.090689
v -157.430222 4.185463 32.713123
v -157.430222 5.427439 32.713123
v -157.428131 5.427439 31.090689
v -157.430222 3.352630 32.713123
v -120.791641 -0.742343 19.676788
v -120.791641 -1.575175 19.676788
v -120.793739 -0.049330 21.299225
v -120.793739 1.192647 21.299225
v -120.791641 1.192646 19.676788
v -120.793739 -0.882162 21.299225
v -120.795837 0.643682 22.921659
v -120.795837 1.885659 22.921659
v -120.793739 1.885659 21.299225
v -120.795837 -0.189149 22.921659
v -120.797943 1.336695 24.544094
v -120.797943 2.578672 24.544094
v -120.795837 2.578672 22.921659
v -120.797943 0.503863 24.544094
v -120.800041 2.029707 26.166529
v -120.800041 3.271684 26.166529
v -120.797943 3.271684 24.544094
v -120.800041 1.196875 26.166529
v -120.802139 2.722720 27.788963
v -120.802139 3.964696 27.788963
v -120.800041 3.964696 26.166529
v -120.802139 1.889887 27.788963
v -120.804237 3.415732 29.411398
v -120.804237 4.657708 29.411398
v -120.802139 4.657709 27.788963
v -120.804237 2.582899 29.411398
v -100.967804 -1.575174 19.702438
v -100.967804 -0.742342 19.702438
v -100.969902 -0.049329 21.324873
v -100.969902 1.192648 21.324873
v -100.967804 1.192647 19.702438
v -100.969894 -0.882161 21.324873
v -100.972000 0.643683 22.947304
v -100.972000 1.885660 22.947304
v -100.969902 1.885660 21.324873
v -100.972000 -0.189148 22.947304
v -100.974098 1.336696 24.569740
v -100.974098 2.578672 24.569740
v -100.972000 2.578673 22.947304
v -100.974098 0.503864 24.569740
v -100.976196 2.029708 26.192175
v -100.976196 3.271685 26.192175
v -100.974098 3.271685 24.569740
v -100.976196 1.196876 26.192175
v -100.978294 2.722720 27.814610
v -100.978294 3.964697 27.814610
v -100.976196 3.964696 26.192175
v -100.978294 1.889888 27.814610
v -100.980392 3.415732 29.437044
v -100.980392 4.657710 29.437044
v -100.978294 4.657709 27.814610
v -100.980392 2.582900 29.437044
v -94.833817 -0.742343 19.351440
v -94.833817 -1.575175 19.351440
v -94.835915 -0.049330 20.973875
v -94.835915 1.192647 20.973875
v -94.833817 1.192646 19.351440
v -94.835915 -0.882162 20.973875
v -94.838013 0.643682 22.596310
v -94.838013 1.885659 22.596310
v -94.835915 1.885659 20.973875
v -94.838013 -0.189149 22.596310
v -94.840118 1.336695 24.218744
v -94.840118 2.578672 24.218744
v -94.838013 2.578672 22.596310
v -94.840118 0.503863 24.218744
v -94.842216 2.029707 25.841179
v -94.842216 3.271684 25.841179
v -94.840118 3.271684 24.218744
v -94.842216 1.196875 25.841179
v -94.844315 2.722720 27.463614
v -94.844315 3.964696 27.463614
v -94.842216 3.964696 25.841179
v -94.844315 1.889887 27.463614
v -94.846413 3.415732 29.086048
v -94.846413 4.657708 29.086048
v -94.844315 4.657709 27.463614
v -94.846413 2.582899 29.086048
v -75.009979 -1.575174 19.377089
v -75.009979 -0.742342 19.377089
v -75.012077 -0.049329 20.999523
v -75.012077 1.192648 20.999523
v -75.009979 1.192647 19.377089
v -75.012070 -0.882161 20.999523
v -75.014175 0.643683 22.621954
v -75.014175 1.885660 22.621954
v -75.012077 1.885660 20.999523
v -75.014175 -0.189148 22.621954
v -75.016273 1.336696 24.244389
v -75.016273 2.578672 24.244389
v -75.014175 2.578673 22.621956
v -75.016273 0.503864 24.244389
v -75.018372 2.029708 25.866825
v -75.018372 3.271685 25.866825
v -75.016273 3.271685 24.244389
v -75.018372 1.196876 25.866825
v -75.020470 2.722720 27.489260
v -75.020470 3.964697 27.489260
v -75.018372 3.964696 25.866825
v -75.020470 1.889888 27.489260
v -75.022568 3.415732 29.111694
v -75.022568 4.657710 29.111694
v -75.020470 4.657709 27.489260
v -75.022568 2.582900 29.111694
v -324.399963 21.065779 -529.745728
v -324.399963 20.232946 -529.745728
v -326.022278 21.758791 -529.726685
v -326.022278 23.000767 -529.726685
v -324.399963 23.000767 -529.745728
v -326.022278 20.925959 -529.726685
v -327.644623 22.451803 -529.707642
v -327.644623 23.693779 -529.707642
v -326.022278 23.693779 -529.726685
v -327.644623 21.618971 -529.707642
v -329.266937 23.144815 -529.688599
v -329.266937 24.386791 -529.688599
v -327.644623 24.386791 -529.707642
v -329.266937 22.311983 -529.688599
v -330.889252 23.837828 -529.669556
v -330.889252 25.079805 -529.669556
v -329.266937 25.079805 -529.688599
v -330.889252 23.004995 -529.669556
v -332.511597 24.530840 -529.650452
v -332.511597 25.772816 -529.650452
v -330.889252 25.772816 -529.669556
v -332.511597 23.698008 -529.650452
v -334.133911 25.223852 -529.631409
v -334.133911 26.465828 -529.631409
v -332.511597 26.465830 -529.650452
v -334.133911 24.391020 -529.631409
v -324.167175 20.232948 -509.923248
v -324.167175 21.065781 -509.923248
v -325.789490 21.758793 -509.904205
v -325.789490 23.000771 -509.904205
v -324.167175 23.000771 -509.923248
v -325.789490 20.925962 -509.904205
v -327.411804 22.451805 -509.885132
v -327.411804 23.693783 -509.885132
v -325.789490 23.693783 -509.904205
v -327.411804 21.618975 -509.885132
v -329.034149 23.144817 -509.866089
v -329.034149 24.386795 -509.866089
v -327.411804 24.386795 -509.885132
v -329.034149 22.311987 -509.866089
v -330.656464 23.837830 -509.847046
v -330.656464 25.079807 -509.847046
v -329.034149 25.079807 -509.866089
v -330.656464 23.004999 -509.847046
v -332.278778 24.530844 -509.827972
v -332.278778 25.772820 -509.827972
v -330.656464 25.772820 -509.847046
v -332.278778 23.698011 -509.827972
v -333.901123 25.223856 -509.808929
v -333.901123 26.465832 -509.808929
v -332.278778 26.465832 -509.827972
v -333.901123 24.391024 -509.808929
v -324.399963 21.065777 -554.960083
v -324.399963 20.232944 -554.960083
v -326.022278 21.758789 -554.941040
v -326.022278 23.000767 -554.941040
v -324.399963 23.000767 -554.960083
v -326.022278 20.925957 -554.941040
v -327.644592 22.451801 -554.921997
v -327.644592 23.693779 -554.921997
v -326.022278 23.693779 -554.941040
v -327.644592 21.618969 -554.921997
v -329.266937 23.144814 -554.902954
v -329.266937 24.386791 -554.902954
v -327.644592 24.386791 -554.921997
v -329.266937 22.311981 -554.902954
v -330.889252 23.837826 -554.883850
v -330.889252 25.079803 -554.883850
v -329.266937 25.079803 -554.902954
v -330.889252 23.004995 -554.883850
v -332.511566 24.530838 -554.864807
v -332.511566 25.772814 -554.864807
v -330.889252 25.772816 -554.883850
v -332.511566 23.698006 -554.864807
v -334.133911 25.223850 -554.845764
v -334.133911 26.465826 -554.845764
v -332.511566 26.465828 -554.864807
v -334.133911 24.391018 -554.845764
v -324.167175 20.232948 -535.137573
v -324.167175 21.065779 -535.137573
v -325.789490 21.758793 -535.118530
v -325.789490 23.000769 -535.118530
v -324.167175 23.000769 -535.137573
v -325.789490 20.925961 -535.118530
v -327.411804 22.451805 -535.099487
v -327.411804 23.693781 -535.099487
v -325.789490 23.693781 -535.118530
v -327.411804 21.618973 -535.099487
v -329.034149 23.144817 -535.080444
v -329.034149 24.386793 -535.080444
v -327.411804 24.386793 -535.099487
v -329.034149 22.311985 -535.080444
v -330.656464 23.837830 -535.061401
v -330.656464 25.079805 -535.061401
v -329.034149 25.079805 -535.080444
v -330.656464 23.004997 -535.061401
v -332.278778 24.530842 -535.042297
v -332.278778 25.772818 -535.042297
v -330.656464 25.772818 -535.061401
v -332.278778 23.698009 -535.042297
v -333.901123 25.223854 -535.023254
v -333.901123 26.465830 -535.023254
v -332.278778 26.465830 -535.042297
v -333.901123 24.391022 -535.023254
v -324.399963 21.065775 -579.645447
v -324.399963 20.232943 -579.645447
v -326.022278 21.758787 -579.626404
v -326.022278 23.000765 -579.626404
v -324.399963 23.000765 -579.645447
v -326.022278 20.925955 -579.626404
v -327.644592 22.451799 -579.607361
v -327.644592 23.693777 -579.607361
v -326.022278 23.693777 -579.626404
v -327.644592 21.618967 -579.607361
v -329.266937 23.144812 -579.588257
v -329.266937 24.386789 -579.588257
v -327.644592 24.386789 -579.607361
v -329.266937 22.311979 -579.588257
v -330.889252 23.837824 -579.569214
v -330.889252 25.079802 -579.569214
v -329.266937 25.079802 -579.588257
v -330.889252 23.004992 -579.569214
v -332.511566 24.530836 -579.550171
v -332.511566 25.772814 -579.550171
v -330.889252 25.772814 -579.569214
v -332.511566 23.698004 -579.550171
v -334.133911 25.223848 -579.531128
v -334.133911 26.465826 -579.531128
v -332.511566 26.465826 -579.550171
v -334.133911 24.391016 -579.531128
v -324.167175 20.232946 -559.822937
v -324.167175 21.065777 -559.822937
v -325.789490 21.758791 -559.803894
v -325.789490 23.000767 -559.803894
v -324.167175 23.000767 -559.822937
v -325.789490 20.925959 -559.803894
v -327.411804 22.451803 -559.784851
v -327.411804 23.693779 -559.784851
v -325.789490 23.693779 -559.803894
v -327.411804 21.618971 -559.784851
v -329.034149 23.144815 -559.765808
v -329.034149 24.386791 -559.765808
v -327.411804 24.386791 -559.784851
v -329.034149 22.311983 -559.765808
v -330.656464 23.837828 -559.746765
v -330.656464 25.079803 -559.746765
v -329.034149 25.079803 -559.765808
v -330.656464 23.004995 -559.746765
v -332.278778 24.530840 -559.727661
v -332.278778 25.772816 -559.727661
v -330.656464 25.772816 -559.746765
v -332.278778 23.698008 -559.727661
v -333.901123 25.223852 -559.708618
v -333.901123 26.465828 -559.708618
v -332.278778 26.465828 -559.727661
v -333.901123 24.391020 -559.708618
v 379.057831 30.376120 -748.181580
v 379.057831 29.543287 -748.181580
v 378.370087 31.069132 -749.651001
v 378.370087 32.311108 -749.651001
v 379.057831 32.311108 -748.181580
v 378.370087 30.236300 -749.651001
v 377.682312 31.762144 -751.120483
v 377.682312 33.004120 -751.120483
v 378.370087 33.004120 -749.651001
v 377.682312 30.929312 -751.120483
v 376.994537 32.455154 -752.589905
v 376.994537 33.697132 -752.589905
v 377.682312 33.697132 -751.120483
v 376.994537 31.622324 -752.589905
v 376.306793 33.148167 -754.059387
v 376.306793 34.390144 -754.059387
v 376.994537 34.390144 -752.589905
v 376.306793 32.315338 -754.059387
v 375.619019 33.841183 -755.528809
v 375.619019 35.083157 -755.528809
v 376.306793 35.083157 -754.059387
v 375.619019 33.008350 -755.528809
v 374.931244 34.534195 -756.998291
v 374.931244 35.776169 -756.998291
v 375.619019 35.776169 -755.528809
v 374.931244 33.701363 -756.998291
v 361.103271 29.543291 -739.778076
v 361.103271 30.376122 -739.778076
v 360.415497 31.069134 -741.247498
v 360.415497 32.311108 -741.247498
v 361.103271 32.311108 -739.778076
v 360.415497 30.236303 -741.247498
v 359.727753 31.762146 -742.716980
v 359.727753 33.004120 -742.716980
v 360.415497 33.004120 -741.247498
v 359.727753 30.929316 -742.716980
v 359.039978 32.455158 -744.186401
v 359.039978 33.697132 -744.186401
v 359.727753 33.697132 -742.716980
v 359.039978 31.622328 -744.186401
v 358.352203 33.148170 -745.655884
v 358.352203 34.390148 -745.655884
v 359.039978 34.390148 -744.186401
v 358.352203 32.315338 -745.655884
v 357.664459 33.841183 -747.125305
v 357.664459 35.083157 -747.125305
v 358.352203 35.083157 -745.655884
v 357.664459 33.008350 -747.125305
v 356.976685 34.534195 -748.594788
v 356.976685 35.776169 -748.594788
v 357.664459 35.776173 -747.125305
v 356.976685 33.701363 -748.594788
v 356.578796 29.945007 -737.980530
v 356.578796 29.112175 -737.980530
v 355.891052 30.638020 -739.450012
v 355.891052 31.879997 -739.450012
v 356.578796 31.879997 -737.980530
v 355.891052 29.805187 -739.450012
v 355.203278 31.331032 -740.919434
v 355.203278 32.573006 -740.919434
v 355.891052 32.573006 -739.450012
v 355.203278 30.498199 -740.919434
v 354.515503 32.024044 -742.388916
v 354.515503 33.266018 -742.388916
v 355.203278 33.266018 -740.919434
v 354.515503 31.191214 -742.388916
v 353.827759 32.717056 -743.858337
v 353.827759 33.959030 -743.858337
v 354.515503 33.959034 -742.388916
v 353.827759 31.884226 -743.858337
v 353.139984 33.410069 -745.327759
v 353.139984 34.652042 -745.327759
v 353.827759 34.652042 -743.858337
v 353.139984 32.577236 -745.327759
v 352.452209 34.103081 -746.797241
v 352.452209 35.345055 -746.797241
v 353.139984 35.345055 -745.327759
v 352.452209 33.270248 -746.797241
v 338.624237 29.112177 -729.577026
v 338.624237 29.945009 -729.577026
v 337.936462 30.638021 -731.046509
v 337.936462 31.879997 -731.046509
v 338.624237 31.879997 -729.577026
v 337.936462 29.805189 -731.046509
v 337.248718 31.331034 -732.515930
v 337.248718 32.573013 -732.515930
v 337.936462 32.573013 -731.046509
v 337.248718 30.498201 -732.515930
v 336.560944 32.024044 -733.985352
v 336.560944 33.266022 -733.985352
v 337.248718 33.266026 -732.515930
v 336.560944 31.191214 -733.985352
v 335.873169 32.717056 -735.454834
v 335.873169 33.959034 -735.454834
v 336.560944 33.959034 -733.985352
v 335.873169 31.884226 -735.454834
v 335.185425 33.410069 -736.924255
v 335.185425 34.652046 -736.924255
v 335.873169 34.652042 -735.454834
v 335.185425 32.577236 -736.924255
v 334.497650 34.103081 -738.393738
v 334.497650 35.345058 -738.393738
v 335.185425 35.345058 -736.924255
v 334.497650 33.270248 -738.393738
v 333.618103 29.313660 -727.560852
v 333.618103 28.480827 -727.560852
v 332.930328 30.006672 -729.030334
v 332.930328 31.248650 -729.030334
v 333.618103 31.248650 -727.560852
v 332.930328 29.173840 -729.030334
v 332.242554 30.699684 -730.499756
v 332.242554 31.941662 -730.499756
v 332.930328 31.941662 -729.030334
v 332.242554 29.866852 -730.499756
v 331.554779 31.392696 -731.969238
v 331.554779 32.634674 -731.969238
v 332.242554 32.634674 -730.499756
v 331.554779 30.559866 -731.969238
v 330.867035 32.085709 -733.438660
v 330.867035 33.327682 -733.438660
v 331.554779 33.327686 -731.969238
v 330.867035 31.252878 -733.438660
v 330.179260 32.778721 -734.908081
v 330.179260 34.020695 -734.908081
v 330.867035 34.020695 -733.438660
v 330.179260 31.945890 -734.908081
v 329.491486 33.471733 -736.377563
v 329.491486 34.713707 -736.377563
v 330.179260 34.713707 -734.908081
v 329.491486 32.638901 -736.377563
v 315.663513 28.480831 -719.157349
v 315.663513 29.313663 -719.157349
v 314.975739 30.006674 -720.626831
v 314.975739 31.248650 -720.626831
v 315.663513 31.248652 -719.157349
v 314.975739 29.173841 -720.626831
v 314.287994 30.699686 -722.096252
v 314.287994 31.941662 -722.096252
v 314.975739 31.941662 -720.626831
v 314.287994 29.866854 -722.096252
v 313.600220 31.392698 -723.565674
v 313.600220 32.634678 -723.565674
v 314.287994 32.634678 -722.096252
v 313.600220 30.559866 -723.565674
v 312.912445 32.085712 -725.035156
v 312.912445 33.327690 -725.035156
v 313.600220 33.327690 -723.565674
v 312.912445 31.252878 -725.035156
v 312.224701 32.778725 -726.504578
v 312.224701 34.020702 -726.504578
v 312.912445 34.020699 -725.035156
v 312.224701 31.945890 -726.504578
v 311.536926 33.471737 -727.974060
v 311.536926 34.713715 -727.974060
v 312.224701 34.713715 -726.504578
v 311.536926 32.638905 -727.974060
v 394.747070 13.286551 -444.259827
v 394.747070 12.453720 -444.259827
v 395.693848 13.979564 -442.942322
v 395.693848 15.221540 -442.942322
v 394.747070 15.221540 -444.259827
v 395.693848 13.146731 -442.942322
v 396.640656 14.672576 -441.624786
v 396.640656 15.914553 -441.624786
v 395.693848 15.914553 -442.942322
v 396.640656 13.839744 -441.624786
v 397.587463 15.365588 -440.307251
v 397.587463 16.607565 -440.307251
v 396.640656 16.607565 -441.624786
v 397.587463 14.532757 -440.307251
v 398.534271 16.058601 -438.989746
v 398.534271 17.300579 -438.989746
v 397.587463 17.300579 -440.307251
v 398.534271 15.225769 -438.989746
v 399.481049 16.751614 -437.672211
v 399.481049 17.993589 -437.672211
v 398.534271 17.993589 -438.989746
v 399.481049 15.918781 -437.672211
v 400.427856 17.444626 -436.354675
v 400.427856 18.686602 -436.354675
v 399.481049 18.686604 -437.672211
v 400.427856 16.611794 -436.354675
v 410.845337 12.453719 -455.828369
v 410.845337 13.286551 -455.828369
v 411.792114 13.979564 -454.510864
v 411.792114 15.221540 -454.510864
v 410.845337 15.221540 -455.828369
v 411.792114 13.146731 -454.510864
v 412.738922 14.672576 -453.193329
v 412.738922 15.914553 -453.193329
v 411.792114 15.914553 -454.510864
v 412.738922 13.839745 -453.193329
v 413.685730 15.365589 -451.875793
v 413.685730 16.607565 -451.875793
v 412.738922 16.607565 -453.193329
v 413.685730 14.532757 -451.875793
v 414.632538 16.058599 -450.558289
v 414.632538 17.300577 -450.558289
v 413.685730 17.300577 -451.875793
v 414.632538 15.225769 -450.558289
v 415.579315 16.751614 -449.240753
v 415.579315 17.993589 -449.240753
v 414.632538 17.993589 -450.558289
v 415.579315 15.918781 -449.240753
v 416.526123 17.444626 -447.923248
v 416.526123 18.686602 -447.923248
v 415.579315 18.686602 -449.240753
v 416.526123 16.611794 -447.923248
vn -0.8121 -0.0000 0.5836
vn -0.8120 -0.0000 0.5836
vn -0.8121 -0.0000 0.5835
vn 0.8121 -0.0000 -0.5836
vn 0.8121 -0.0000 -0.5835
vn 0.2838 -0.0000 0.9589
vn 0.2839 -0.0000 0.9589
vn -0.2838 -0.0000 -0.9589
vn -0.2839 -0.0000 -0.9589
vn 0.0013 -0.0000 -1.0000
vn -0.0013 -0.0000 1.0000
vn -0.0012 -0.0000 1.0000
vn 0.0014 -0.0000 -1.0000
vn 0.0012 -0.0000 -1.0000
vn -1.0000 -0.0000 -0.0013
vn 1.0000 -0.0000 0.0013
vn -0.0117 -0.0000 -0.9999
vn -0.0118 -0.0000 -0.9999
vn 0.0118 -0.0000 0.9999
vn 0.0117 -0.0000 0.9999
vn 0.9057 -0.0000 -0.4239
vn 0.9057 -0.0000 -0.4240
vn -0.9057 -0.0000 0.4239
vn -0.9057 -0.0000 0.4240
vt 0.005445 1.301097
vt 0.005445 1.000499
vt 0.994555 1.551229
vt 0.994555 1.999501
vt 0.005446 1.999501
vt 0.994555 1.250631
s 1
usemtl GSSIDE.018
f 1/1/1 2/2/1 3/3/1
f 3/3/1 4/4/1 1/1/1
f 5/5/1 1/1/1 4/4/1
f 6/6/1 3/3/1 2/2/1
f 3/1/1 6/2/1 7/3/1
f 7/3/1 8/4/1 3/1/1
f 9/5/1 3/1/1 8/4/1
f 10/6/1 7/3/1 6/2/1
f 7/1/1 10/2/1 11/3/1
f 11/3/1 12/4/1 7/1/1
f 13/5/1 7/1/1 12/4/1
f 14/6/1 11/3/1 10/2/1
f 11/1/1 14/2/1 15/3/2
f 15/3/2 16/4/2 11/1/1
f 17/5/1 11/1/1 16/4/2
f 18/6/2 15/3/2 14/2/1
f 15/1/2 18/2/2 19/3/3
f 19/3/3 20/4/3 15/1/2
f 21/5/1 15/1/2 20/4/3
f 22/6/3 19/3/3 18/2/2
f 19/1/3 22/2/3 23/3/1
f 23/3/1 24/4/1 19/1/3
f 25/5/1 19/1/3 24/4/1
f 26/6/1 23/3/1 22/2/3
f 27/2/4 28/1/4 29/3/4
f 30/4/4 29/3/4 28/1/4
f 28/1/4 31/5/4 30/4/4
f 29/3/4 32/6/4 27/2/4
f 32/2/4 29/1/4 33/3/4
f 34/4/4 33/3/4 29/1/4
f 29/1/4 35/5/4 34/4/4
f 33/3/4 36/6/4 32/2/4
f 36/2/4 33/1/4 37/3/4
f 38/4/4 37/3/4 33/1/4
f 33/1/4 39/5/5 38/4/4
f 37/3/4 40/6/4 36/2/4
f 40/2/4 37/1/4 41/3/4
f 42/4/4 41/3/4 37/1/4
f 37/1/4 43/5/4 42/4/4
f 41/3/4 44/6/4 40/2/4
f 44/2/4 41/1/4 45/3/4
f 46/4/4 45/3/4 41/1/4
f 41/1/4 47/5/4 46/4/4
f 45/3/4 48/6/4 44/2/4
f 48/2/4 45/1/4 49/3/4
f 50/4/4 49/3/4 45/1/4
f 45/1/4 51/5/4 50/4/4
f 49/3/4 52/6/5 48/2/4
f 53/1/1 54/2/1 55/3/1
f 55/3/1 56/4/1 53/1/1
f 57/5/1 53/1/1 56/4/1
f 58/6/1 55/3/1 54/2/1
f 55/1/1 58/2/1 59/3/1
f 59/3/1 60/4/1 55/1/1
f 61/5/1 55/1/1 60/4/1
f 62/6/1 59/3/1 58/2/1
f 59/1/1 62/2/1 63/3/1
f 63/3/1 64/4/1 59/1/1
f 65/5/1 59/1/1 64/4/1
f 66/6/1 63/3/1 62/2/1
f 63/1/1 66/2/1 67/3/1
f 67/3/1 68/4/1 63/1/1
f 69/5/1 63/1/1 68/4/1
f 70/6/1 67/3/1 66/2/1
f 67/1/1 70/2/1 71/3/1
f 71/3/1 72/4/3 67/1/1
f 73/5/1 67/1/1 72/4/3
f 74/6/3 71/3/1 70/2/1
f 71/1/1 74/2/3 75/3/1
f 75/3/1 76/4/1 71/1/1
f 77/5/3 71/1/1 76/4/1
f 78/6/1 75/3/1 74/2/3
f 79/2/4 80/1/4 81/3/4
f 82/4/4 81/3/4 80/1/4
f 80/1/4 83/5/4 82/4/4
f 81/3/4 84/6/4 79/2/4
f 84/2/4 81/1/4 85/3/4
f 86/4/4 85/3/4 81/1/4
f 81/1/4 87/5/4 86/4/4
f 85/3/4 88/6/4 84/2/4
f 88/2/4 85/1/4 89/3/4
f 90/4/4 89/3/4 85/1/4
f 85/1/4 91/5/4 90/4/4
f 89/3/4 92/6/4 88/2/4
f 92/2/4 89/1/4 93/3/4
f 94/4/4 93/3/4 89/1/4
f 89/1/4 95/5/4 94/4/4
f 93/3/4 96/6/4 92/2/4
f 96/2/4 93/1/4 97/3/4
f 98/4/4 97/3/4 93/1/4
f 93/1/4 99/5/4 98/4/4
f 97/3/4 100/6/4 96/2/4
f 100/2/4 97/1/4 101/3/4
f 102/4/4 101/3/4 97/1/4
f 97/1/4 103/5/4 102/4/4
f 101/3/4 104/6/4 100/2/4
f 105/1/6 106/2/6 107/3/6
f 107/3/6 108/4/6 105/1/6
f 109/5/6 105/1/6 108/4/6
f 110/6/6 107/3/6 106/2/6
f 107/1/6 110/2/6 111/3/6
f 111/3/6 112/4/6 107/1/6
f 113/5/6 107/1/6 112/4/6
f 114/6/6 111/3/6 110/2/6
f 111/1/6 114/2/6 115/3/6
f 115/3/6 116/4/6 111/1/6
f 117/5/6 111/1/6 116/4/6
f 118/6/6 115/3/6 114/2/6
f 115/1/6 118/2/6 119/3/6
f 119/3/6 120/4/6 115/1/6
f 121/5/7 115/1/6 120/4/6
f 122/6/6 119/3/6 118/2/6
f 119/1/6 122/2/6 123/3/6
f 123/3/6 124/4/6 119/1/6
f 125/5/6 119/1/6 124/4/6
f 126/6/6 123/3/6 122/2/6
f 123/1/6 126/2/6 127/3/6
f 127/3/6 128/4/6 123/1/6
f 129/5/6 123/1/6 128/4/6
f 130/6/6 127/3/6 126/2/6
f 131/2/8 132/1/8 133/3/8
f 134/4/8 133/3/8 132/1/8
f 132/1/8 135/5/8 134/4/8
f 133/3/8 136/6/8 131/2/8
f 136/2/8 133/1/8 137/3/8
f 138/4/8 137/3/8 133/1/8
f 133/1/8 139/5/8 138/4/8
f 137/3/8 140/6/8 136/2/8
f 140/2/8 137/1/8 141/3/8
f 142/4/8 141/3/8 137/1/8
f 137/1/8 143/5/8 142/4/8
f 141/3/8 144/6/8 140/2/8
f 144/2/8 141/1/8 145/3/8
f 146/4/8 145/3/8 141/1/8
f 141/1/8 147/5/8 146/4/8
f 145/3/8 148/6/8 144/2/8
f 148/2/8 145/1/8 149/3/8
f 150/4/8 149/3/8 145/1/8
f 145/1/8 151/5/9 150/4/8
f 149/3/8 152/6/8 148/2/8
f 152/2/8 149/1/8 153/3/8
f 154/4/8 153/3/8 149/1/8
f 149/1/8 155/5/8 154/4/8
f 153/3/8 156/6/8 152/2/8
f 157/1/6 158/2/6 159/3/6
f 159/3/6 160/4/6 157/1/6
f 161/5/6 157/1/6 160/4/6
f 162/6/6 159/3/6 158/2/6
f 159/1/6 162/2/6 163/3/6
f 163/3/6 164/4/6 159/1/6
f 165/5/6 159/1/6 164/4/6
f 166/6/6 163/3/6 162/2/6
f 163/1/6 166/2/6 167/3/6
f 167/3/6 168/4/6 163/1/6
f 169/5/6 163/1/6 168/4/6
f 170/6/6 167/3/6 166/2/6
f 167/1/6 170/2/6 171/3/6
f 171/3/6 172/4/6 167/1/6
f 173/5/6 167/1/6 172/4/6
f 174/6/6 171/3/6 170/2/6
f 171/1/6 174/2/6 175/3/6
f 175/3/6 176/4/6 171/1/6
f 177/5/6 171/1/6 176/4/6
f 178/6/6 175/3/6 174/2/6
f 175/1/6 178/2/6 179/3/7
f 179/3/7 180/4/6 175/1/6
f 181/5/6 175/1/6 180/4/6
f 182/6/7 179/3/7 178/2/6
f 183/2/8 184/1/8 185/3/8
f 186/4/8 185/3/8 184/1/8
f 184/1/8 187/5/8 186/4/8
f 185/3/8 188/6/8 183/2/8
f 188/2/8 185/1/8 189/3/8
f 190/4/8 189/3/8 185/1/8
f 185/1/8 191/5/8 190/4/8
f 189/3/8 192/6/8 188/2/8
f 192/2/8 189/1/8 193/3/8
f 194/4/8 193/3/8 189/1/8
f 189/1/8 195/5/8 194/4/8
f 193/3/8 196/6/8 192/2/8
f 196/2/8 193/1/8 197/3/8
f 198/4/8 197/3/8 193/1/8
f 193/1/8 199/5/8 198/4/8
f 197/3/8 200/6/8 196/2/8
f 200/2/8 197/1/8 201/3/8
f 202/4/8 201/3/8 197/1/8
f 197/1/8 203/5/9 202/4/8
f 201/3/8 204/6/8 200/2/8
f 204/2/8 201/1/8 205/3/8
f 206/4/8 205/3/8 201/1/8
f 201/1/8 207/5/8 206/4/8
f 205/3/8 208/6/8 204/2/8
f 209/1/6 210/2/6 211/3/6
f 211/3/6 212/4/6 209/1/6
f 213/5/6 209/1/6 212/4/6
f 214/6/6 211/3/6 210/2/6
f 211/1/6 214/2/6 215/3/6
f 215/3/6 216/4/6 211/1/6
f 217/5/6 211/1/6 216/4/6
f 218/6/6 215/3/6 214/2/6
f 215/1/6 218/2/6 219/3/6
f 219/3/6 220/4/6 215/1/6
f 221/5/6 215/1/6 220/4/6
f 222/6/6 219/3/6 218/2/6
f 219/1/6 222/2/6 223/3/6
f 223/3/6 224/4/6 219/1/6
f 225/5/6 219/1/6 224/4/6
f 226/6/6 223/3/6 222/2/6
f 223/1/6 226/2/6 227/3/6
f 227/3/6 228/4/6 223/1/6
f 229/5/6 223/1/6 228/4/6
f 230/6/6 227/3/6 226/2/6
f 227/1/6 230/2/6 231/3/6
f 231/3/6 232/4/6 227/1/6
f 233/5/6 227/1/6 232/4/6
f 234/6/6 231/3/6 230/2/6
f 235/2/8 236/1/8 237/3/8
f 238/4/8 237/3/8 236/1/8
f 236/1/8 239/5/8 238/4/8
f 237/3/8 240/6/8 235/2/8
f 240/2/8 237/1/8 241/3/8
f 242/4/8 241/3/8 237/1/8
f 237/1/8 243/5/8 242/4/8
f 241/3/8 244/6/8 240/2/8
f 244/2/8 241/1/8 245/3/8
f 246/4/8 245/3/8 241/1/8
f 241/1/8 247/5/8 246/4/8
f 245/3/8 248/6/8 244/2/8
f 248/2/8 245/1/8 249/3/8
f 250/4/8 249/3/8 245/1/8
f 245/1/8 251/5/8 250/4/8
f 249/3/8 252/6/8 248/2/8
f 252/2/8 249/1/8 253/3/8
f 254/4/8 253/3/8 249/1/8
f 249/1/8 255/5/9 254/4/8
f 253/3/8 256/6/8 252/2/8
f 256/2/8 253/1/8 257/3/8
f 258/4/8 257/3/8 253/1/8
f 253/1/8 259/5/8 258/4/8
f 257/3/8 260/6/9 256/2/8
f 261/1/10 262/2/10 263/3/10
f 263/3/10 264/4/10 261/1/10
f 265/5/10 261/1/10 264/4/10
f 266/6/10 263/3/10 262/2/10
f 263/1/10 266/2/10 267/3/10
f 267/3/10 268/4/10 263/1/10
f 269/5/10 263/1/10 268/4/10
f 270/6/10 267/3/10 266/2/10
f 267/1/10 270/2/10 271/3/10
f 271/3/10 272/4/10 267/1/10
f 273/5/10 267/1/10 272/4/10
f 274/6/10 271/3/10 270/2/10
f 271/1/10 274/2/10 275/3/10
f 275/3/10 276/4/10 271/1/10
f 277/5/10 271/1/10 276/4/10
f 278/6/10 275/3/10 274/2/10
f 275/1/10 278/2/10 279/3/10
f 279/3/10 280/4/10 275/1/10
f 281/5/10 275/1/10 280/4/10
f 282/6/10 279/3/10 278/2/10
f 279/1/10 282/2/10 283/3/10
f 283/3/10 284/4/10 279/1/10
f 285/5/10 279/1/10 284/4/10
f 286/6/10 283/3/10 282/2/10
f 287/2/11 288/1/11 289/3/11
f 290/4/11 289/3/11 288/1/11
f 288/1/11 291/5/11 290/4/11
f 289/3/11 292/6/11 287/2/11
f 292/2/11 289/1/11 293/3/11
f 294/4/11 293/3/11 289/1/11
f 289/1/11 295/5/11 294/4/11
f 293/3/11 296/6/11 292/2/11
f 296/2/11 293/1/11 297/3/11
f 298/4/11 297/3/11 293/1/11
f 293/1/11 299/5/11 298/4/11
f 297/3/11 300/6/11 296/2/11
f 300/2/11 297/1/11 301/3/11
f 302/4/11 301/3/11 297/1/11
f 297/1/11 303/5/11 302/4/11
f 301/3/11 304/6/11 300/2/11
f 304/2/11 301/1/11 305/3/11
f 306/4/11 305/3/11 301/1/11
f 301/1/11 307/5/11 306/4/11
f 305/3/11 308/6/11 304/2/11
f 308/2/11 305/1/11 309/3/11
f 310/4/11 309/3/11 305/1/11
f 305/1/11 311/5/11 310/4/11
f 309/3/11 312/6/12 308/2/11
f 313/1/10 314/2/10 315/3/10
f 315/3/10 316/4/10 313/1/10
f 317/5/10 313/1/10 316/4/10
f 318/6/10 315/3/10 314/2/10
f 315/1/10 318/2/10 319/3/10
f 319/3/10 320/4/10 315/1/10
f 321/5/10 315/1/10 320/4/10
f 322/6/10 319/3/10 318/2/10
f 319/1/10 322/2/10 323/3/10
f 323/3/10 324/4/10 319/1/10
f 325/5/10 319/1/10 324/4/10
f 326/6/10 323/3/10 322/2/10
f 323/1/10 326/2/10 327/3/10
f 327/3/10 328/4/10 323/1/10
f 329/5/10 323/1/10 328/4/10
f 330/6/10 327/3/10 326/2/10
f 327/1/10 330/2/10 331/3/10
f 331/3/10 332/4/10 327/1/10
f 333/5/10 327/1/10 332/4/10
f 334/6/10 331/3/10 330/2/10
f 331/1/10 334/2/10 335/3/10
f 335/3/10 336/4/10 331/1/10
f 337/5/10 331/1/10 336/4/10
f 338/6/10 335/3/10 334/2/10
f 339/2/11 340/1/11 341/3/11
f 342/4/11 341/3/11 340/1/11
f 340/1/11 343/5/11 342/4/11
f 341/3/11 344/6/11 339/2/11
f 344/2/11 341/1/11 345/3/11
f 346/4/11 345/3/11 341/1/11
f 341/1/11 347/5/12 346/4/11
f 345/3/11 348/6/11 344/2/11
f 348/2/11 345/1/11 349/3/11
f 350/4/11 349/3/11 345/1/11
f 345/1/11 351/5/11 350/4/11
f 349/3/11 352/6/11 348/2/11
f 352/2/11 349/1/11 353/3/11
f 354/4/11 353/3/11 349/1/11
f 349/1/11 355/5/11 354/4/11
f 353/3/11 356/6/11 352/2/11
f 356/2/11 353/1/11 357/3/11
f 358/4/11 357/3/11 353/1/11
f 353/1/11 359/5/11 358/4/11
f 357/3/11 360/6/11 356/2/11
f 360/2/11 357/1/11 361/3/11
f 362/4/11 361/3/11 357/1/11
f 357/1/11 363/5/11 362/4/11
f 361/3/11 364/6/11 360/2/11
f 365/1/10 366/2/13 367/3/10
f 367/3/10 368/4/10 365/1/10
f 369/5/10 365/1/10 368/4/10
f 370/6/10 367/3/10 366/2/13
f 367/1/10 370/2/10 371/3/10
f 371/3/10 372/4/10 367/1/10
f 373/5/10 367/1/10 372/4/10
f 374/6/10 371/3/10 370/2/10
f 371/1/10 374/2/10 375/3/10
f 375/3/10 376/4/10 371/1/10
f 377/5/14 371/1/10 376/4/10
f 378/6/10 375/3/10 374/2/10
f 375/1/10 378/2/10 379/3/10
f 379/3/10 380/4/10 375/1/10
f 381/5/10 375/1/10 380/4/10
f 382/6/10 379/3/10 378/2/10
f 379/1/10 382/2/10 383/3/14
f 383/3/14 384/4/10 379/1/10
f 385/5/10 379/1/10 384/4/10
f 386/6/10 383/3/14 382/2/10
f 383/1/14 386/2/10 387/3/10
f 387/3/10 388/4/10 383/1/14
f 389/5/10 383/1/14 388/4/10
f 390/6/13 387/3/10 386/2/10
f 391/2/11 392/1/11 393/3/11
f 394/4/11 393/3/11 392/1/11
f 392/1/11 395/5/11 394/4/11
f 393/3/11 396/6/11 391/2/11
f 396/2/11 393/1/11 397/3/11
f 398/4/11 397/3/11 393/1/11
f 393/1/11 399/5/12 398/4/11
f 397/3/11 400/6/11 396/2/11
f 400/2/11 397/1/11 401/3/11
f 402/4/11 401/3/11 397/1/11
f 397/1/11 403/5/11 402/4/11
f 401/3/11 404/6/11 400/2/11
f 404/2/11 401/1/11 405/3/11
f 406/4/11 405/3/11 401/1/11
f 401/1/11 407/5/11 406/4/11
f 405/3/11 408/6/11 404/2/11
f 408/2/11 405/1/11 409/3/11
f 410/4/11 409/3/11 405/1/11
f 405/1/11 411/5/11 410/4/11
f 409/3/11 412/6/11 408/2/11
f 412/2/11 409/1/11 413/3/11
f 414/4/11 413/3/11 409/1/11
f 409/1/11 415/5/11 414/4/11
f 413/3/11 416/6/12 412/2/11
f 417/1/15 418/2/15 419/3/15
f 419/3/15 420/4/15 417/1/15
f 421/5/15 417/1/15 420/4/15
f 422/6/15 419/3/15 418/2/15
f 419/1/15 422/2/15 423/3/15
f 423/3/15 424/4/15 419/1/15
f 425/5/15 419/1/15 424/4/15
f 426/6/15 423/3/15 422/2/15
f 423/1/15 426/2/15 427/3/15
f 427/3/15 428/4/15 423/1/15
f 429/5/15 423/1/15 428/4/15
f 430/6/15 427/3/15 426/2/15
f 427/1/15 430/2/15 431/3/15
f 431/3/15 432/4/15 427/1/15
f 433/5/15 427/1/15 432/4/15
f 434/6/15 431/3/15 430/2/15
f 431/1/15 434/2/15 435/3/15
f 435/3/15 436/4/15 431/1/15
f 437/5/15 431/1/15 436/4/15
f 438/6/15 435/3/15 434/2/15
f 435/1/15 438/2/15 439/3/15
f 439/3/15 440/4/15 435/1/15
f 441/5/15 435/1/15 440/4/15
f 442/6/15 439/3/15 438/2/15
f 443/2/16 444/1/16 445/3/16
f 446/4/16 445/3/16 444/1/16
f 444/1/16 447/5/16 446/4/16
f 445/3/16 448/6/16 443/2/16
f 448/2/16 445/1/16 449/3/16
f 450/4/16 449/3/16 445/1/16
f 445/1/16 451/5/16 450/4/16
f 449/3/16 452/6/16 448/2/16
f 452/2/16 449/1/16 453/3/16
f 454/4/16 453/3/16 449/1/16
f 449/1/16 455/5/16 454/4/16
f 453/3/16 456/6/16 452/2/16
f 456/2/16 453/1/16 457/3/16
f 458/4/16 457/3/16 453/1/16
f 453/1/16 459/5/16 458/4/16
f 457/3/16 460/6/16 456/2/16
f 460/2/16 457/1/16 461/3/16
f 462/4/16 461/3/16 457/1/16
f 457/1/16 463/5/16 462/4/16
f 461/3/16 464/6/16 460/2/16
f 464/2/16 461/1/16 465/3/16
f 466/4/16 465/3/16 461/1/16
f 461/1/16 467/5/16 466/4/16
f 465/3/16 468/6/16 464/2/16
f 469/1/15 470/2/15 471/3/15
f 471/3/15 472/4/15 469/1/15
f 473/5/15 469/1/15 472/4/15
f 474/6/15 471/3/15 470/2/15
f 471/1/15 474/2/15 475/3/15
f 475/3/15 476/4/15 471/1/15
f 477/5/15 471/1/15 476/4/15
f 478/6/15 475/3/15 474/2/15
f 475/1/15 478/2/15 479/3/15
f 479/3/15 480/4/15 475/1/15
f 481/5/15 475/1/15 480/4/15
f 482/6/15 479/3/15 478/2/15
f 479/1/15 482/2/15 483/3/15
f 483/3/15 484/4/15 479/1/15
f 485/5/15 479/1/15 484/4/15
f 486/6/15 483/3/15 482/2/15
f 483/1/15 486/2/15 487/3/15
f 487/3/15 488/4/15 483/1/15
f 489/5/15 483/1/15 488/4/15
f 490/6/15 487/3/15 486/2/15
f 487/1/15 490/2/15 491/3/15
f 491/3/15 492/4/15 487/1/15
f 493/5/15 487/1/15 492/4/15
f 494/6/15 491/3/15 490/2/15
f 495/2/16 496/1/16 497/3/16
f 498/4/16 497/3/16 496/1/16
f 496/1/16 499/5/16 498/4/16
f 497/3/16 500/6/16 495/2/16
f 500/2/16 497/1/16 501/3/16
f 502/4/16 501/3/16 497/1/16
f 497/1/16 503/5/16 502/4/16
f 501/3/16 504/6/16 500/2/16
f 504/2/16 501/1/16 505/3/16
f 506/4/16 505/3/16 501/1/16
f 501/1/16 507/5/16 506/4/16
f 505/3/16 508/6/16 504/2/16
f 508/2/16 505/1/16 509/3/16
f 510/4/16 509/3/16 505/1/16
f 505/1/16 511/5/16 510/4/16
f 509/3/16 512/6/16 508/2/16
f 512/2/16 509/1/16 513/3/16
f 514/4/16 513/3/16 509/1/16
f 509/1/16 515/5/16 514/4/16
f 513/3/16 516/6/16 512/2/16
f 516/2/16 513/1/16 517/3/16
f 518/4/16 517/3/16 513/1/16
f 513/1/16 519/5/16 518/4/16
f 517/3/16 520/6/16 516/2/16
f 521/1/15 522/2/15 523/3/15
f 523/3/15 524/4/15 521/1/15
f 525/5/15 521/1/15 524/4/15
f 526/6/15 523/3/15 522/2/15
f 523/1/15 526/2/15 527/3/15
f 527/3/15 528/4/15 523/1/15
f 529/5/15 523/1/15 528/4/15
f 530/6/15 527/3/15 526/2/15
f 527/1/15 530/2/15 531/3/15
f 531/3/15 532/4/15 527/1/15
f 533/5/15 527/1/15 532/4/15
f 534/6/15 531/3/15 530/2/15
f 531/1/15 534/2/15 535/3/15
f 535/3/15 536/4/15 531/1/15
f 537/5/15 531/1/15 536/4/15
f 538/6/15 535/3/15 534/2/15
f 535/1/15 538/2/15 539/3/15
f 539/3/15 540/4/15 535/1/15
f 541/5/15 535/1/15 540/4/15
f 542/6/15 539/3/15 538/2/15
f 539/1/15 542/2/15 543/3/15
f 543/3/15 544/4/15 539/1/15
f 545/5/15 539/1/15 544/4/15
f 546/6/15 543/3/15 542/2/15
f 547/2/16 548/1/16 549/3/16
f 550/4/16 549/3/16 548/1/16
f 548/1/16 551/5/16 550/4/16
f 549/3/16 552/6/16 547/2/16
f 552/2/16 549/1/16 553/3/16
f 554/4/16 553/3/16 549/1/16
f 549/1/16 555/5/16 554/4/16
f 553/3/16 556/6/16 552/2/16
f 556/2/16 553/1/16 557/3/16
f 558/4/16 557/3/16 553/1/16
f 553/1/16 559/5/16 558/4/16
f 557/3/16 560/6/16 556/2/16
f 560/2/16 557/1/16 561/3/16
f 562/4/16 561/3/16 557/1/16
f 557/1/16 563/5/16 562/4/16
f 561/3/16 564/6/16 560/2/16
f 564/2/16 561/1/16 565/3/16
f 566/4/16 565/3/16 561/1/16
f 561/1/16 567/5/16 566/4/16
f 565/3/16 568/6/16 564/2/16
f 568/2/16 565/1/16 569/3/16
f 570/4/16 569/3/16 565/1/16
f 565/1/16 571/5/16 570/4/16
f 569/3/16 572/6/16 568/2/16
f 573/1/15 574/2/15 575/3/15
f 575/3/15 576/4/15 573/1/15
f 577/5/15 573/1/15 576/4/15
f 578/6/15 575/3/15 574/2/15
f 575/1/15 578/2/15 579/3/15
f 579/3/15 580/4/15 575/1/15
f 581/5/15 575/1/15 580/4/15
f 582/6/15 579/3/15 578/2/15
f 579/1/15 582/2/15 583/3/15
f 583/3/15 584/4/15 579/1/15
f 585/5/15 579/1/15 584/4/15
f 586/6/15 583/3/15 582/2/15
f 583/1/15 586/2/15 587/3/15
f 587/3/15 588/4/15 583/1/15
f 589/5/15 583/1/15 588/4/15
f 590/6/15 587/3/15 586/2/15
f 587/1/15 590/2/15 591/3/15
f 591/3/15 592/4/15 587/1/15
f 593/5/15 587/1/15 592/4/15
f 594/6/15 591/3/15 590/2/15
f 591/1/15 594/2/15 595/3/15
f 595/3/15 596/4/15 591/1/15
f 597/5/15 591/1/15 596/4/15
f 598/6/15 595/3/15 594/2/15
f 599/2/16 600/1/16 601/3/16
f 602/4/16 601/3/16 600/1/16
f 600/1/16 603/5/16 602/4/16
f 601/3/16 604/6/16 599/2/16
f 604/2/16 601/1/16 605/3/16
f 606/4/16 605/3/16 601/1/16
f 601/1/16 607/5/16 606/4/16
f 605/3/16 608/6/16 604/2/16
f 608/2/16 605/1/16 609/3/16
f 610/4/16 609/3/16 605/1/16
f 605/1/16 611/5/16 610/4/16
f 609/3/16 612/6/16 608/2/16
f 612/2/16 609/1/16 613/3/16
f 614/4/16 613/3/16 609/1/16
f 609/1/16 615/5/16 614/4/16
f 613/3/16 616/6/16 612/2/16
f 616/2/16 613/1/16 617/3/16
f 618/4/16 617/3/16 613/1/16
f 613/1/16 619/5/16 618/4/16
f 617/3/16 620/6/16 616/2/16
f 620/2/16 617/1/16 621/3/16
f 622/4/16 621/3/16 617/1/16
f 617/1/16 623/5/16 622/4/16
f 621/3/16 624/6/16 620/2/16
f 625/1/15 626/2/15 627/3/15
f 627/3/15 628/4/15 625/1/15
f 629/5/15 625/1/15 628/4/15
f 630/6/15 627/3/15 626/2/15
f 627/1/15 630/2/15 631/3/15
f 631/3/15 632/4/15 627/1/15
f 633/5/15 627/1/15 632/4/15
f 634/6/15 631/3/15 630/2/15
f 631/1/15 634/2/15 635/3/15
f 635/3/15 636/4/15 631/1/15
f 637/5/15 631/1/15 636/4/15
f 638/6/15 635/3/15 634/2/15
f 635/1/15 638/2/15 639/3/15
f 639/3/15 640/4/15 635/1/15
f 641/5/15 635/1/15 640/4/15
f 642/6/15 639/3/15 638/2/15
f 639/1/15 642/2/15 643/3/15
f 643/3/15 644/4/15 639/1/15
f 645/5/15 639/1/15 644/4/15
f 646/6/15 643/3/15 642/2/15
f 643/1/15 646/2/15 647/3/15
f 647/3/15 648/4/15 643/1/15
f 649/5/15 643/1/15 648/4/15
f 650/6/15 647/3/15 646/2/15
f 651/2/16 652/1/16 653/3/16
f 654/4/16 653/3/16 652/1/16
f 652/1/16 655/5/16 654/4/16
f 653/3/16 656/6/16 651/2/16
f 656/2/16 653/1/16 657/3/16
f 658/4/16 657/3/16 653/1/16
f 653/1/16 659/5/16 658/4/16
f 657/3/16 660/6/16 656/2/16
f 660/2/16 657/1/16 661/3/16
f 662/4/16 661/3/16 657/1/16
f 657/1/16 663/5/16 662/4/16
f 661/3/16 664/6/16 660/2/16
f 664/2/16 661/1/16 665/3/16
f 666/4/16 665/3/16 661/1/16
f 661/1/16 667/5/16 666/4/16
f 665/3/16 668/6/16 664/2/16
f 668/2/16 665/1/16 669/3/16
f 670/4/16 669/3/16 665/1/16
f 665/1/16 671/5/16 670/4/16
f 669/3/16 672/6/16 668/2/16
f 672/2/16 669/1/16 673/3/16
f 674/4/16 673/3/16 669/1/16
f 669/1/16 675/5/16 674/4/16
f 673/3/16 676/6/16 672/2/16
f 677/1/15 678/2/15 679/3/15
f 679/3/15 680/4/15 677/1/15
f 681/5/15 677/1/15 680/4/15
f 682/6/15 679/3/15 678/2/15
f 679/1/15 682/2/15 683/3/15
f 683/3/15 684/4/15 679/1/15
f 685/5/15 679/1/15 684/4/15
f 686/6/15 683/3/15 682/2/15
f 683/1/15 686/2/15 687/3/15
f 687/3/15 688/4/15 683/1/15
f 689/5/15 683/1/15 688/4/15
f 690/6/15 687/3/15 686/2/15
f 687/1/15 690/2/15 691/3/15
f 691/3/15 692/4/15 687/1/15
f 693/5/15 687/1/15 692/4/15
f 694/6/15 691/3/15 690/2/15
f 691/1/15 694/2/15 695/3/15
f 695/3/15 696/4/15 691/1/15
f 697/5/15 691/1/15 696/4/15
f 698/6/15 695/3/15 694/2/15
f 695/1/15 698/2/15 699/3/15
f 699/3/15 700/4/15 695/1/15
f 701/5/15 695/1/15 700/4/15
f 702/6/15 699/3/15 698/2/15
f 703/2/16 704/1/16 705/3/16
f 706/4/16 705/3/16 704/1/16
f 704/1/16 707/5/16 706/4/16
f 705/3/16 708/6/16 703/2/16
f 708/2/16 705/1/16 709/3/16
f 710/4/16 709/3/16 705/1/16
f 705/1/16 711/5/16 710/4/16
f 709/3/16 712/6/16 708/2/16
f 712/2/16 709/1/16 713/3/16
f 714/4/16 713/3/16 709/1/16
f 709/1/16 715/5/16 714/4/16
f 713/3/16 716/6/16 712/2/16
f 716/2/16 713/1/16 717/3/16
f 718/4/16 717/3/16 713/1/16
f 713/1/16 719/5/16 718/4/16
f 717/3/16 720/6/16 716/2/16
f 720/2/16 717/1/16 721/3/16
f 722/4/16 721/3/16 717/1/16
f 717/1/16 723/5/16 722/4/16
f 721/3/16 724/6/16 720/2/16
f 724/2/16 721/1/16 725/3/16
f 726/4/16 725/3/16 721/1/16
f 721/1/16 727/5/16 726/4/16
f 725/3/16 728/6/16 724/2/16
f 729/1/17 730/2/17 731/3/17
f 731/3/17 732/4/17 729/1/17
f 733/5/17 729/1/17 732/4/17
f 734/6/17 731/3/17 730/2/17
f 731/1/17 734/2/17 735/3/17
f 735/3/17 736/4/17 731/1/17
f 737/5/17 731/1/17 736/4/17
f 738/6/17 735/3/17 734/2/17
f 735/1/17 738/2/17 739/3/17
f 739/3/17 740/4/17 735/1/17
f 741/5/17 735/1/17 740/4/17
f 742/6/17 739/3/17 738/2/17
f 739/1/17 742/2/17 743/3/17
f 743/3/17 744/4/17 739/1/17
f 745/5/17 739/1/17 744/4/17
f 746/6/17 743/3/17 742/2/17
f 743/1/17 746/2/17 747/3/18
f 747/3/18 748/4/18 743/1/17
f 749/5/17 743/1/17 748/4/18
f 750/6/18 747/3/18 746/2/17
f 747/1/18 750/2/18 751/3/17
f 751/3/17 752/4/17 747/1/18
f 753/5/17 747/1/18 752/4/17
f 754/6/17 751/3/17 750/2/18
f 755/2/19 756/1/19 757/3/20
f 758/4/20 757/3/20 756/1/19
f 756/1/19 759/5/20 758/4/20
f 757/3/20 760/6/20 755/2/19
f 760/2/20 757/1/20 761/3/20
f 762/4/19 761/3/20 757/1/20
f 757/1/20 763/5/19 762/4/19
f 761/3/20 764/6/19 760/2/20
f 764/2/19 761/1/20 765/3/19
f 766/4/20 765/3/19 761/1/20
f 761/1/20 767/5/20 766/4/20
f 765/3/19 768/6/19 764/2/19
f 768/2/19 765/1/19 769/3/20
f 770/4/20 769/3/20 765/1/19
f 765/1/19 771/5/20 770/4/20
f 769/3/20 772/6/20 768/2/19
f 772/2/20 769/1/20 773/3/20
f 774/4/19 773/3/20 769/1/20
f 769/1/20 775/5/20 774/4/19
f 773/3/20 776/6/20 772/2/20
f 776/2/20 773/1/20 777/3/19
f 778/4/20 777/3/19 773/1/20
f 773/1/20 779/5/20 778/4/20
f 777/3/19 780/6/19 776/2/20
f 781/1/17 782/2/17 783/3/17
f 783/3/17 784/4/17 781/1/17
f 785/5/17 781/1/17 784/4/17
f 786/6/17 783/3/17 782/2/17
f 783/1/17 786/2/17 787/3/17
f 787/3/17 788/4/17 783/1/17
f 789/5/17 783/1/17 788/4/17
f 790/6/17 787/3/17 786/2/17
f 787/1/17 790/2/17 791/3/17
f 791/3/17 792/4/17 787/1/17
f 793/5/17 787/1/17 792/4/17
f 794/6/18 791/3/17 790/2/17
f 791/1/17 794/2/18 795/3/18
f 795/3/18 796/4/18 791/1/17
f 797/5/17 791/1/17 796/4/18
f 798/6/18 795/3/18 794/2/18
f 795/1/18 798/2/18 799/3/18
f 799/3/18 800/4/17 795/1/18
f 801/5/17 795/1/18 800/4/17
f 802/6/18 799/3/18 798/2/18
f 799/1/18 802/2/18 803/3/17
f 803/3/17 804/4/17 799/1/18
f 805/5/17 799/1/18 804/4/17
f 806/6/17 803/3/17 802/2/18
f 807/2/19 808/1/19 809/3/20
f 810/4/20 809/3/20 808/1/19
f 808/1/19 811/5/20 810/4/20
f 809/3/20 812/6/20 807/2/19
f 812/2/20 809/1/20 813/3/20
f 814/4/20 813/3/20 809/1/20
f 809/1/20 815/5/20 814/4/20
f 813/3/20 816/6/20 812/2/20
f 816/2/20 813/1/20 817/3/19
f 818/4/19 817/3/19 813/1/20
f 813/1/20 819/5/20 818/4/19
f 817/3/19 820/6/20 816/2/20
f 820/2/20 817/1/19 821/3/20
f 822/4/20 821/3/20 817/1/19
f 817/1/19 823/5/20 822/4/20
f 821/3/20 824/6/20 820/2/20
f 824/2/20 821/1/20 825/3/19
f 826/4/19 825/3/19 821/1/20
f 821/1/20 827/5/20 826/4/19
f 825/3/19 828/6/19 824/2/20
f 828/2/19 825/1/19 829/3/20
f 830/4/20 829/3/20 825/1/19
f 825/1/19 831/5/20 830/4/20
f 829/3/20 832/6/20 828/2/19
f 833/1/17 834/2/17 835/3/17
f 835/3/17 836/4/17 833/1/17
f 837/5/17 833/1/17 836/4/17
f 838/6/17 835/3/17 834/2/17
f 835/1/17 838/2/17 839/3/18
f 839/3/18 840/4/17 835/1/17
f 841/5/17 835/1/17 840/4/17
f 842/6/18 839/3/18 838/2/17
f 839/1/18 842/2/18 843/3/18
f 843/3/18 844/4/18 839/1/18
f 845/5/18 839/1/18 844/4/18
f 846/6/17 843/3/18 842/2/18
f 843/1/18 846/2/17 847/3/17
f 847/3/17 848/4/17 843/1/18
f 849/5/17 843/1/18 848/4/17
f 850/6/17 847/3/17 846/2/17
f 847/1/17 850/2/17 851/3/17
f 851/3/17 852/4/17 847/1/17
f 853/5/17 847/1/17 852/4/17
f 854/6/17 851/3/17 850/2/17
f 851/1/17 854/2/17 855/3/17
f 855/3/17 856/4/17 851/1/17
f 857/5/17 851/1/17 856/4/17
f 858/6/17 855/3/17 854/2/17
f 859/2/19 860/1/19 861/3/20
f 862/4/20 861/3/20 860/1/19
f 860/1/19 863/5/20 862/4/20
f 861/3/20 864/6/20 859/2/19
f 864/2/20 861/1/20 865/3/19
f 866/4/20 865/3/19 861/1/20
f 861/1/20 867/5/20 866/4/20
f 865/3/19 868/6/20 864/2/20
f 868/2/20 865/1/19 869/3/19
f 870/4/20 869/3/19 865/1/19
f 865/1/19 871/5/20 870/4/20
f 869/3/19 872/6/20 868/2/20
f 872/2/20 869/1/19 873/3/20
f 874/4/20 873/3/20 869/1/19
f 869/1/19 875/5/20 874/4/20
f 873/3/20 876/6/20 872/2/20
f 876/2/20 873/1/20 877/3/20
f 878/4/19 877/3/20 873/1/20
f 873/1/20 879/5/19 878/4/19
f 877/3/20 880/6/20 876/2/20
f 880/2/20 877/1/20 881/3/20
f 882/4/20 881/3/20 877/1/20
f 877/1/20 883/5/20 882/4/20
f 881/3/20 884/6/19 880/2/20
f 885/1/21 886/2/21 887/3/21
f 887/3/21 888/4/21 885/1/21
f 889/5/21 885/1/21 888/4/21
f 890/6/21 887/3/21 886/2/21
f 887/1/21 890/2/21 891/3/21
f 891/3/21 892/4/21 887/1/21
f 893/5/21 887/1/21 892/4/21
f 894/6/21 891/3/21 890/2/21
f 891/1/21 894/2/21 895/3/21
f 895/3/21 896/4/21 891/1/21
f 897/5/21 891/1/21 896/4/21
f 898/6/21 895/3/21 894/2/21
f 895/1/21 898/2/21 899/3/21
f 899/3/21 900/4/21 895/1/21
f 901/5/21 895/1/21 900/4/21
f 902/6/21 899/3/21 898/2/21
f 899/1/21 902/2/21 903/3/21
f 903/3/21 904/4/21 899/1/21
f 905/5/21 899/1/21 904/4/21
f 906/6/21 903/3/21 902/2/21
f 903/1/21 906/2/21 907/3/21
f 907/3/21 908/4/21 903/1/21
f 909/5/21 903/1/21 908/4/21
f 910/6/22 907/3/21 906/2/21
f 911/2/23 912/1/23 913/3/23
f 914/4/23 913/3/23 912/1/23
f 912/1/23 915/5/23 914/4/23
f 913/3/23 916/6/23 911/2/23
f 916/2/23 913/1/23 917/3/23
f 918/4/23 917/3/23 913/1/23
f 913/1/23 919/5/23 918/4/23
f 917/3/23 920/6/23 916/2/23
f 920/2/23 917/1/23 921/3/23
f 922/4/23 921/3/23 917/1/23
f 917/1/23 923/5/23 922/4/23
f 921/3/23 924/6/23 920/2/23
f 924/2/23 921/1/23 925/3/23
f 926/4/23 925/3/23 921/1/23
f 921/1/23 927/5/23 926/4/23
f 925/3/23 928/6/23 924/2/23
f 928/2/23 925/1/23 929/3/23
f 930/4/23 929/3/23 925/1/23
f 925/1/23 931/5/23 930/4/23
f 929/3/23 932/6/23 928/2/23
f 932/2/23 929/1/23 933/3/23
f 934/4/23 933/3/23 929/1/23
f 929/1/23 935/5/23 934/4/23
f 933/3/23 936/6/23 932/2/23
f 937/1/21 938/2/21 939/3/21
f 939/3/21 940/4/21 937/1/21
f 941/5/21 937/1/21 940/4/21
f 942/6/21 939/3/21 938/2/21
f 939/1/21 942/2/21 943/3/21
f 943/3/21 944/4/21 939/1/21
f 945/5/21 939/1/21 944/4/21
f 946/6/21 943/3/21 942/2/21
f 943/1/21 946/2/21 947/3/21
f 947/3/21 948/4/21 943/1/21
f 949/5/21 943/1/21 948/4/21
f 950/6/21 947/3/21 946/2/21
f 947/1/21 950/2/21 951/3/21
f 951/3/21 952/4/21 947/1/21
f 953/5/21 947/1/21 952/4/21
f 954/6/21 951/3/21 950/2/21
f 951/1/21 954/2/21 955/3/21
f 955/3/21 956/4/21 951/1/21
f 957/5/22 951/1/21 956/4/21
f 958/6/21 955/3/21 954/2/21
f 955/1/21 958/2/21 959/3/21
f 959/3/21 960/4/21 955/1/21
f 961/5/21 955/1/21 960/4/21
f 962/6/21 959/3/21 958/2/21
f 963/2/23 964/1/23 965/3/23
f 966/4/23 965/3/23 964/1/23
f 964/1/23 967/5/23 966/4/23
f 965/3/23 968/6/23 963/2/23
f 968/2/23 965/1/23 969/3/23
f 970/4/23 969/3/23 965/1/23
f 965/1/23 971/5/23 970/4/23
f 969/3/23 972/6/23 968/2/23
f 972/2/23 969/1/23 973/3/23
f 974/4/23 973/3/23 969/1/23
f 969/1/23 975/5/23 974/4/23
f 973/3/23 976/6/23 972/2/23
f 976/2/23 973/1/23 977/3/23
f 978/4/23 977/3/23 973/1/23
f 973/1/23 979/5/23 978/4/23
f 977/3/23 980/6/23 976/2/23
f 980/2/23 977/1/23 981/3/23
f 982/4/23 981/3/23 977/1/23
f 977/1/23 983/5/23 982/4/23
f 981/3/23 984/6/23 980/2/23
f 984/2/23 981/1/23 985/3/23
f 986/4/23 985/3/23 981/1/23
f 981/1/23 987/5/23 986/4/23
f 985/3/23 988/6/23 984/2/23
f 989/1/21 990/2/21 991/3/21
f 991/3/21 992/4/21 989/1/21
f 993/5/21 989/1/21 992/4/21
f 994/6/21 991/3/21 990/2/21
f 991/1/21 994/2/21 995/3/21
f 995/3/21 996/4/21 991/1/21
f 997/5/21 991/1/21 996/4/21
f 998/6/21 995/3/21 994/2/21
f 995/1/21 998/2/21 999/3/21
f 999/3/21 1000/4/21 995/1/21
f 1001/5/21 995/1/21 1000/4/21
f 1002/6/21 999/3/21 998/2/21
f 999/1/21 1002/2/21 1003/3/21
f 1003/3/21 1004/4/21 999/1/21
f 1005/5/21 999/1/21 1004/4/21
f 1006/6/21 1003/3/21 1002/2/21
f 1003/1/21 1006/2/21 1007/3/21
f 1007/3/21 1008/4/21 1003/1/21
f 1009/5/21 1003/1/21 1008/4/21
f 1010/6/21 1007/3/21 1006/2/21
f 1007/1/21 1010/2/21 1011/3/21
f 1011/3/21 1012/4/21 1007/1/21
f 1013/5/21 1007/1/21 1012/4/21
f 1014/6/21 1011/3/21 1010/2/21
f 1015/2/23 1016/1/23 1017/3/23
f 1018/4/23 1017/3/23 1016/1/23
f 1016/1/23 1019/5/23 1018/4/23
f 1017/3/23 1020/6/23 1015/2/23
f 1020/2/23 1017/1/23 1021/3/23
f 1022/4/23 1021/3/23 1017/1/23
f 1017/1/23 1023/5/23 1022/4/23
f 1021/3/23 1024/6/23 1020/2/23
f 1024/2/23 1021/1/23 1025/3/23
f 1026/4/23 1025/3/23 1021/1/23
f 1021/1/23 1027/5/24 1026/4/23
f 1025/3/23 1028/6/23 1024/2/23
f 1028/2/23 1025/1/23 1029/3/23
f 1030/4/23 1029/3/23 1025/1/23
f 1025/1/23 1031/5/23 1030/4/23
f 1029/3/23 1032/6/23 1028/2/23
f 1032/2/23 1029/1/23 1033/3/23
f 1034/4/23 1033/3/23 1029/1/23
f 1029/1/23 1035/5/23 1034/4/23
f 1033/3/23 1036/6/23 1032/2/23
f 1036/2/23 1033/1/23 1037/3/23
f 1038/4/23 1037/3/23 1033/1/23
f 1033/1/23 1039/5/23 1038/4/23
f 1037/3/23 1040/6/23 1036/2/23
f 1041/1/1 1042/2/1 1043/3/1
f 1043/3/1 1044/4/1 1041/1/1
f 1045/5/1 1041/1/1 1044/4/1
f 1046/6/1 1043/3/1 1042/2/1
f 1043/1/1 1046/2/1 1047/3/1
f 1047/3/1 1048/4/1 1043/1/1
f 1049/5/1 1043/1/1 1048/4/1
f 1050/6/1 1047/3/1 1046/2/1
f 1047/1/1 1050/2/1 1051/3/1
f 1051/3/1 1052/4/1 1047/1/1
f 1053/5/3 1047/1/1 1052/4/1
f 1054/6/1 1051/3/1 1050/2/1
f 1051/1/1 1054/2/1 1055/3/1
f 1055/3/1 1056/4/1 1051/1/1
f 1057/5/1 1051/1/1 1056/4/1
f 1058/6/1 1055/3/1 1054/2/1
f 1055/1/1 1058/2/1 1059/3/1
f 1059/3/1 1060/4/1 1055/1/1
f 1061/5/1 1055/1/1 1060/4/1
f 1062/6/1 1059/3/1 1058/2/1
f 1059/1/1 1062/2/1 1063/3/1
f 1063/3/1 1064/4/1 1059/1/1
f 1065/5/1 1059/1/1 1064/4/1
f 1066/6/1 1063/3/1 1062/2/1
f 1067/2/4 1068/1/4 1069/3/4
f 1070/4/4 1069/3/4 1068/1/4
f 1068/1/4 1071/5/4 1070/4/4
f 1069/3/4 1072/6/4 1067/2/4
f 1072/2/4 1069/1/4 1073/3/4
f 1074/4/4 1073/3/4 1069/1/4
f 1069/1/4 1075/5/4 1074/4/4
f 1073/3/4 1076/6/4 1072/2/4
f 1076/2/4 1073/1/4 1077/3/4
f 1078/4/4 1077/3/4 1073/1/4
f 1073/1/4 1079/5/4 1078/4/4
f 1077/3/4 1080/6/4 1076/2/4
f 1080/2/4 1077/1/4 1081/3/4
f 1082/4/4 1081/3/4 1077/1/4
f 1077/1/4 1083/5/4 1082/4/4
f 1081/3/4 1084/6/4 1080/2/4
f 1084/2/4 1081/1/4 1085/3/4
f 1086/4/4 1085/3/4 1081/1/4
f 1081/1/4 1087/5/4 1086/4/4
f 1085/3/4 1088/6/4 1084/2/4
f 1088/2/4 1085/1/4 1089/3/4
f 1090/4/4 1089/3/4 1085/1/4
f 1085/1/4 1091/5/4 1090/4/4
f 1089/3/4 1092/6/5 1088/2/4
