# Blender 4.4.3
# www.blender.org
mtllib HILLSIDE.mtl
o HILLSIDE
v -63.412155 9.724035 -79.233505
v -257.434692 9.724035 -79.233521
v -253.808914 8.880070 -73.970169
v -249.729568 7.975913 -69.049881
v -245.228989 7.017886 -64.511703
v -240.342834 6.018847 -60.391556
v -235.109833 4.998297 -56.722019
v -229.571274 3.982194 -53.532185
v -223.771179 3.002518 -50.847290
v -217.755310 2.096843 -48.688599
v -211.571442 1.307776 -47.073212
v -198.896164 0.371979 -45.519043
v -205.268448 0.682289 -46.013908
v -191.111023 0.038130 -45.479950
v -179.920959 -0.269971 -45.690315
v -168.614517 -0.551133 -46.102051
v -158.302582 -0.804006 -46.673183
v -128.483887 -1.379420 -48.924793
v -64.123260 -1.568525 -44.785713
v -147.744110 -1.027241 -47.361897
v -137.682053 -1.219493 -48.126373
v 97.574921 -1.568526 -69.292664
v 100.974884 9.724034 -101.229126
v 269.562775 -1.568529 -105.401337
v 250.652191 9.724031 -148.104996
v 394.583038 -1.568536 -209.106171
v 348.712067 9.724025 -249.900253
v 465.078827 -1.095258 -350.158234
v 427.490265 9.724015 -371.601990
v 479.480438 -2.535213 -381.519836
v 485.740570 -2.408771 -389.373474
v 456.911041 9.664617 -408.361816
v 507.808441 -0.159039 -436.869202
v 508.152557 0.323480 -444.074219
v 491.443451 8.773335 -447.858093
v 507.811554 0.837823 -451.273804
v 489.969086 5.760184 -490.012146
v 486.290314 6.434133 -490.013184
v 492.821930 5.092694 -489.004211
v 506.789825 1.381078 -458.403015
v 502.751007 2.543707 -472.194641
v 473.675995 9.138051 -483.170471
v 475.922089 8.466554 -485.618713
v 478.828949 7.790136 -487.678284
v 482.321808 7.111723 -489.190613
v 495.147186 4.434484 -487.071899
v 496.678131 3.788369 -484.421509
v 499.772369 3.157171 -478.733521
v 505.097626 1.950794 -465.397400
v 506.781586 -0.606910 -429.723938
v 505.079987 -1.017321 -422.702881
v 502.717926 -1.387450 -415.869751
v 499.715912 -1.714477 -409.286438
v 496.099945 -1.995586 -403.012939
v 491.901825 -2.227957 -397.106262
v 470.769867 -2.604459 -368.836060
v -111.506592 9.724030 -150.989105
v -177.382904 10.987191 -274.340332
v 574.577759 -3.259629 -209.155518
v 609.156311 2.075609 -213.283783
v 553.661621 1.309809 -369.575867
v 527.974609 -3.259641 -355.301880
v 627.718201 -3.259615 -45.066086
v 668.316589 1.309834 -70.504837
v 633.721802 -3.259608 27.508331
v 716.851562 -0.564119 33.161011
v 609.598999 -3.259606 58.734741
v 708.480225 -1.626777 100.473663
v 512.454834 -5.362863 51.789917
v 499.896606 -0.027621 109.609711
v 689.045227 1.309849 128.602753
v 341.270508 -5.362863 46.482574
v 341.170685 -0.793408 89.604828
v 222.854370 -5.362861 44.969818
v 229.761353 -2.667370 76.028015
v 90.091797 -8.684815 44.667389
v 96.123047 -5.303564 70.579590
v -59.837769 -5.362863 44.436340
v -77.805664 -0.027624 68.578766
v -235.559265 -5.362863 38.447784
v -234.200806 -0.793410 69.869568
v -297.727905 -1.300503 7.030823
v -318.112427 1.394990 49.129211
v -354.451782 3.678737 -65.301117
v -409.168701 5.257482 -8.225403
v -432.570923 7.851281 -195.114594
v -571.695190 7.851282 -175.478455
v -295.617981 7.851277 -242.666595
v 595.861145 -1.872200 -517.322754
v 665.434998 8.706408 -548.473083
v 635.262939 16.561785 -708.571899
v 500.385010 -0.684688 -626.019287
v 609.445557 0.121837 -410.949646
v 657.860107 1.254971 -423.597778
v 1065.083008 -28.500273 -224.639053
v 1144.529541 8.007199 -195.580505
v 1193.350952 -25.141497 -370.493378
v 1125.540405 -34.926464 -308.778259
v 1035.204224 -24.013069 -59.825745
v 1103.251465 8.637515 -47.290894
v 1017.263794 -20.887672 55.473206
v 1076.136230 8.408549 58.106720
v 999.177979 -21.067133 185.793152
v 1052.557129 8.098424 187.134277
v 980.130859 -14.992131 334.044128
v 1027.137451 15.896278 357.156677
v 956.004822 -48.338009 508.814453
v 1007.860413 -18.730518 511.625793
v -577.533081 21.096001 -206.003876
v -682.009033 14.605082 -125.778625
v -668.397217 7.851288 -97.839447
v -432.614014 19.143841 -226.193146
v -295.661011 19.143837 -273.745239
v -338.826904 10.663941 -470.851654
v -397.453735 15.999180 -478.835144
v -401.549194 5.048834 -288.779480
v -338.129272 0.479376 -373.462158
v -346.965515 10.663931 -641.924805
v -389.962708 15.233380 -638.641235
v -354.747253 10.663922 -760.094482
v -385.167908 13.359412 -750.772339
v -362.495056 7.341962 -876.658081
v -390.220459 10.723208 -884.426086
v -345.282532 5.080198 -914.123047
v -374.404602 10.415431 -939.928406
v -239.806091 5.080200 -895.064697
v -249.710449 9.649650 -924.915710
v -171.413391 9.526814 -881.857239
v -163.326111 12.222294 -927.926575
v 92.091248 23.298122 -927.592102
v 92.539307 29.864969 -986.758240
v -163.325989 15.031497 -927.926758
v 282.285217 33.896259 -1039.881592
v 283.220093 38.465706 -1071.003052
v 368.717743 31.138430 -990.271667
v 371.123444 35.843864 -1021.997437
v 476.968506 26.396702 -899.935242
v 534.197144 33.955563 -956.532898
v 566.929871 16.773008 -805.477539
v 614.452515 22.108240 -833.541077
v 368.378265 29.001339 -897.576172
v 343.287476 30.527840 -862.551208
v 405.901855 31.293629 -817.360046
v 469.851685 29.001350 -816.144226
v 248.572845 30.838308 -924.505615
v 255.479828 33.533802 -893.447388
v 171.246582 23.648094 -856.891113
v 189.838837 29.060648 -837.860962
v 95.199951 20.837152 -818.044922
v 37.094727 26.526451 -756.849243
v 34.004822 21.191210 -786.785156
v -136.301941 -0.457515 -695.514038
v -136.798340 3.302163 -670.091187
v 216.874298 23.179098 -691.854797
v 216.489014 24.705589 -728.021118
v 114.697632 20.227024 -664.629822
v 149.869659 15.244372 -651.517883
v 362.053070 27.929226 -759.633179
v 338.711456 30.624718 -766.021729
v 114.697754 20.227026 -664.629761
v 69.911560 24.532446 -624.669434
v 132.168762 20.998762 -624.669434
v 151.961304 19.482885 -625.285583
v 103.451477 23.152170 -624.669434
v 289.410767 25.349298 -630.857483
v 280.347687 24.855074 -626.631287
v 285.466614 23.538607 -588.474304
v 326.970978 25.827156 -611.109985
v 300.797668 25.827154 -636.432800
v 271.284668 24.346621 -622.405151
v 262.221588 23.826073 -618.178955
v 253.158493 23.295567 -613.952820
v 244.095398 22.757248 -609.726562
v 235.032379 22.213249 -605.500427
v 225.969254 21.665707 -601.274231
v 243.444794 20.568464 -551.260437
v 255.142258 21.116772 -561.612549
v 214.825607 20.568460 -595.528687
v 218.031250 21.116768 -597.557434
v 372.088318 27.504934 -641.281006
v 313.643188 26.286495 -644.649231
v 325.257141 26.725101 -654.509644
v 402.047394 11.403651 -515.627869
v 410.229706 11.013174 -521.451721
v 385.428345 18.418396 -564.363831
v 349.057617 17.111118 -542.152771
v 344.770874 12.989531 -474.860840
v 352.953217 12.905650 -480.684723
v 296.820282 15.582155 -504.963745
v 313.695190 16.130461 -520.674194
v 377.632874 12.279871 -498.250641
v 385.682678 12.075759 -503.980164
v 369.317963 12.583940 -492.332458
v 443.081451 9.154264 -545.116577
v 456.975494 8.629343 -551.768372
v 430.971039 20.497755 -592.587463
v 434.777130 9.657935 -538.923462
v 208.099304 18.949654 -586.505554
v 207.070511 18.425781 -582.854065
v 209.775345 19.482819 -589.908936
v 214.021515 14.481894 -517.984497
v 211.357117 14.825928 -523.744568
v 206.723312 17.913336 -579.076294
v 212.042664 20.023134 -592.950500
v 273.140991 13.011095 -478.525574
v 263.774292 13.011093 -482.027588
v 336.001526 13.011001 -468.992828
v 282.507935 13.010996 -475.023438
v 389.678162 29.391445 -703.070984
v 380.615082 29.234798 -698.844788
v 422.257629 27.849783 -665.012939
v 398.741211 29.506065 -707.297119
v 371.552002 29.038260 -694.618591
v 362.488892 28.803965 -690.392395
v 390.536865 27.329500 -650.221313
v 348.892242 28.230667 -683.829224
v 353.425842 28.534052 -686.166260
v 346.244659 27.895941 -681.541809
v 343.697357 27.532011 -677.921021
v 335.431274 27.141026 -665.832581
v 407.804291 29.576515 -711.523315
v 453.978363 26.992954 -679.804626
v 416.867340 29.600658 -715.749512
v 471.473816 8.085985 -563.357544
v 450.132812 19.926533 -601.988770
v 491.293671 7.527016 -575.589844
v 481.853577 17.481964 -616.780457
v 526.988647 6.955250 -590.922363
v 511.773438 14.987000 -624.418762
v 426.594482 10.137456 -533.099487
v 418.412079 10.590166 -527.275574
v 394.029907 11.714427 -509.921387
v 361.135590 12.769513 -486.508575
v 330.687317 13.011001 -466.743896
v 325.095581 13.011000 -465.277771
v 319.341187 13.011001 -464.627502
v 313.542755 13.011000 -464.809448
v 307.820221 13.010999 -465.822937
v 301.241333 13.010997 -468.019287
v 291.874634 13.010997 -471.521362
v 254.407516 13.013510 -485.529694
v 246.198425 13.052277 -488.636749
v 240.458801 13.136687 -491.344971
v 235.016647 13.264602 -494.610107
v 229.925827 13.433883 -498.399811
v 225.236801 13.642389 -502.676575
v 220.995895 13.887986 -507.398071
v 217.245087 14.168534 -512.517639
v 209.278152 15.198421 -529.740906
v 207.805344 15.597389 -535.914185
v 206.953186 16.020617 -542.203125
v 206.723328 16.465960 -549.081726
v 206.723328 16.931288 -559.081665
v 206.723312 17.414459 -569.081665
v -214.336517 19.271833 -319.245636
v -187.219086 18.104300 -334.673553
v -215.389008 19.496931 -329.233612
v -158.105347 12.529243 -335.208923
v -141.271271 12.529242 -354.739258
v -146.035858 18.104298 -362.685913
v -162.869995 18.104298 -343.155579
v -213.284027 19.017183 -309.257599
v -182.454544 12.529243 -326.726898
v -212.231537 18.734316 -299.269623
v -211.179047 18.424582 -289.281586
v -210.120392 18.089323 -278.837830
v -209.264847 17.729780 -266.859039
v -191.497253 19.691124 -341.800385
v -216.441589 19.691124 -339.221680
v -150.314026 19.691122 -369.812775
v -167.148209 19.691124 -350.282410
v 550.169800 -3.278123 13.565636
v 547.701843 -3.277946 13.478951
v 547.697754 -3.277946 15.902527
v 562.448547 -3.278120 34.958748
v 562.484375 -3.278123 13.878769
v 547.666016 -3.277943 34.558922
v 610.786560 -3.278120 34.958748
v 610.822388 -3.278123 13.878777
v -124.207733 18.570599 -465.457214
v -57.121002 18.827604 -464.636719
v -57.121002 19.212851 -471.366394
v -130.243637 19.576475 -471.366394
v -28.789108 22.805744 -464.636719
v -28.789108 23.190990 -471.366364
v 3.243814 29.498131 -464.636688
v 3.243814 29.883375 -471.366364
v 33.117699 32.681213 -464.636688
v 33.117722 33.066460 -471.366364
v 69.885796 32.681213 -464.636688
v 69.885796 33.066460 -471.366364
v 103.425606 28.796419 -464.636688
v 103.425629 29.181660 -471.366364
v 132.142975 22.735622 -464.636688
v 132.142990 23.120863 -471.366364
v 168.379684 13.888022 -464.671997
v -117.611282 17.406603 -458.876678
v -57.121040 18.354357 -457.951843
v -28.789108 22.273653 -457.951843
v 3.243812 28.899765 -457.951813
v 33.117645 32.029202 -457.951813
v 69.885773 32.029198 -457.951813
v 103.425598 28.205603 -457.951813
v 132.143005 22.204247 -457.951813
v -111.232452 16.486826 -450.875061
v -57.121040 17.698799 -450.211578
v -28.789108 21.404690 -450.211578
v 3.243811 27.794649 -450.211578
v 33.117668 30.765160 -450.211548
v 69.885773 30.765160 -450.211548
v 103.425575 27.126818 -450.211548
v 132.142990 21.337915 -450.211548
v 177.126297 13.642421 -454.933929
v -105.430321 15.532184 -442.677246
v -57.121048 16.878981 -441.626038
v -28.789112 20.173300 -441.626038
v 3.243784 26.123653 -441.626007
v 33.117668 28.847919 -441.626007
v 69.885765 28.847919 -441.626007
v 103.425598 25.502876 -441.626007
v 132.143005 20.111540 -441.626007
v -99.628204 14.580833 -434.479492
v -57.121048 16.067375 -433.478424
v -28.789112 18.813347 -433.478424
v 3.243783 24.203751 -433.478455
v 33.117668 26.656326 -433.478455
v 69.885742 26.656321 -433.478424
v 103.425545 23.640169 -433.478394
v 132.142975 18.758196 -433.478394
v -93.826096 13.670930 -426.281677
v -57.121063 15.362160 -426.195557
v -28.789112 17.507719 -426.195557
v 3.243807 22.303873 -426.195587
v 33.117641 24.495346 -426.195557
v 69.885742 24.495340 -426.195557
v 103.425575 21.798553 -426.195526
v 132.142975 17.459793 -426.195526
v -88.024002 12.840632 -418.083893
v -57.121063 14.570956 -417.906036
v -28.789116 16.006124 -417.906036
v 3.243806 20.041563 -417.906067
v 33.117638 21.922911 -417.906036
v 69.885742 21.922911 -417.906006
v 103.425568 19.608200 -417.906006
v 132.142960 15.967715 -417.906006
v -82.221893 12.128094 -409.886078
v -57.121063 13.869666 -410.317902
v -28.789116 14.704553 -410.317902
v 3.243804 17.982067 -410.317932
v 33.117664 19.571707 -410.317902
v 69.885757 19.571701 -410.317871
v 103.425591 17.618267 -410.317871
v 132.142960 14.675855 -410.317871
v -76.419785 11.571465 -401.688293
v -57.121063 13.154182 -402.047882
v -28.789120 13.470700 -402.047943
v 3.243803 15.870352 -402.047913
v 33.117661 17.136440 -402.047913
v 69.885757 17.136435 -402.047852
v 103.425591 15.585192 -402.047882
v 132.142944 13.453486 -402.047852
v 188.217575 13.917850 -387.317230
v 186.797089 13.433907 -446.113159
v -70.617676 11.208908 -393.490479
v -57.121063 12.515180 -393.787994
v -28.789120 12.544485 -393.788025
v 3.243776 14.025454 -393.787964
v 33.117661 14.964433 -393.787994
v 69.885788 14.964429 -393.787964
v 103.425591 13.820936 -393.787994
v 132.142944 12.539517 -393.787964
v 159.236633 11.646110 -393.787964
v -64.815506 11.078474 -385.292603
v -57.121063 11.977772 -385.538269
v -28.789120 11.977773 -385.538300
v 3.243775 13.434612 -385.538269
v 24.317665 14.615712 -386.927216
v 35.455116 14.904111 -386.586945
v 55.937889 15.290217 -386.238708
v 68.791267 15.414247 -386.499298
v 94.789291 15.451587 -386.708313
v 107.787560 15.373049 -386.617432
v 120.687798 15.237589 -386.387726
v 128.593018 15.157948 -386.710236
v 146.703659 14.878675 -386.748535
v 157.050903 14.618785 -387.237518
v 180.476364 14.127327 -386.705505
v 11.388531 14.212483 -386.548218
v 45.779488 15.122713 -386.203308
v 81.766090 15.466950 -386.707520
v 138.153442 15.018804 -386.728729
v 164.862198 14.503132 -386.873474
v 172.681000 14.323003 -386.800385
vn 0.0227 0.9481 0.3172
vn -0.0000 0.9874 0.1583
vn 0.0002 0.9863 0.1649
vn 0.0010 0.9823 0.1871
vn 0.0026 0.9774 0.2115
vn 0.0050 0.9714 0.2375
vn 0.0081 0.9644 0.2644
vn 0.0120 0.9565 0.2914
vn 0.0164 0.9481 0.3174
vn 0.0211 0.9397 0.3414
vn 0.0256 0.9319 0.3617
vn 0.0210 0.9384 0.3449
vn 0.0278 0.9280 0.3715
vn 0.0368 0.9150 0.4018
vn 0.0331 0.9206 0.3891
vn 0.0381 0.9138 0.4045
vn 0.0459 0.9036 0.4258
vn 0.0428 0.9049 0.4234
vn 0.0137 0.9501 0.3117
vn 0.0474 0.9018 0.4296
vn 0.0507 0.8980 0.4370
vn 0.0561 0.9401 0.3363
vn 0.0606 0.9424 0.3288
vn 0.1123 0.9700 0.2157
vn 0.1136 0.9735 0.1985
vn 0.1501 0.9821 0.1135
vn 0.1520 0.9823 0.1092
vn 0.2486 0.9605 0.1253
vn 0.1985 0.9698 0.1414
vn 0.2662 0.9420 0.2043
vn 0.2503 0.9450 0.2105
vn 0.2616 0.9476 0.1835
vn 0.4218 0.9007 0.1040
vn 0.4386 0.8963 0.0648
vn 0.3474 0.9363 0.0518
vn 0.4401 0.8976 0.0236
vn 0.1784 0.9739 0.1401
vn 0.1860 0.9778 0.0960
vn 0.1854 0.9765 0.1103
vn 0.4258 0.9047 -0.0145
vn 0.2882 0.9545 -0.0760
vn 0.2483 0.9656 -0.0775
vn 0.2316 0.9722 -0.0340
vn 0.2136 0.9769 0.0010
vn 0.2013 0.9790 0.0332
vn 0.1823 0.9748 0.1283
vn 0.2202 0.9753 0.0167
vn 0.2287 0.9734 -0.0135
vn 0.3988 0.9159 -0.0458
vn 0.3931 0.9091 0.1378
vn 0.3572 0.9195 0.1643
vn 0.3181 0.9302 0.1834
vn 0.2790 0.9401 0.1958
vn 0.2421 0.9488 0.2027
vn 0.2297 0.9516 0.2042
vn 0.4472 0.8866 0.1184
vn 0.1875 0.9787 -0.0831
vn 0.1860 0.9785 -0.0893
vn 0.2104 0.9776 0.0084
vn -0.1469 0.9880 0.0474
vn -0.1414 0.9888 0.0469
vn -0.1489 0.9877 0.0475
vn -0.1492 0.9877 0.0476
vn -0.1022 0.9945 0.0219
vn -0.0780 0.9964 0.0326
vn -0.0404 0.9992 -0.0008
vn -0.0283 0.9994 0.0175
vn -0.0179 0.9992 -0.0357
vn 0.0002 0.9992 -0.0396
vn 0.0002 0.9963 -0.0862
vn 0.0030 0.9957 -0.0925
vn 0.0124 0.9965 -0.0829
vn 0.0042 0.9946 -0.1038
vn 0.0046 0.9946 -0.1038
vn -0.0160 0.9963 -0.0850
vn -0.0133 0.9962 -0.0859
vn 0.0058 0.9918 -0.1277
vn 0.0015 0.9912 -0.1325
vn 0.0239 0.9804 -0.1954
vn 0.0138 0.9795 -0.2012
vn 0.0789 0.9856 -0.1498
vn 0.0400 0.9911 -0.1271
vn 0.0842 0.9958 -0.0366
vn 0.0554 0.9982 -0.0237
vn 0.0377 0.9992 0.0105
vn 0.0297 0.9995 0.0096
vn 0.0453 0.9837 0.1740
vn 0.1120 0.9504 0.2903
vn 0.0832 0.9673 0.2397
vn -0.1245 0.9915 0.0381
vn -0.1147 0.9921 0.0512
vn -0.0911 0.9937 0.0660
vn -0.0809 0.9940 0.0739
vn -0.0591 0.9975 0.0382
vn -0.0079 0.9982 0.0591
vn -0.3644 0.9128 -0.1847
vn -0.3617 0.9154 -0.1769
vn -0.3598 0.8848 -0.2960
vn -0.4806 0.7779 -0.4048
vn -0.4103 0.9064 -0.1002
vn -0.4178 0.9021 -0.1080
vn -0.4369 0.8959 -0.0802
vn -0.4449 0.8909 -0.0912
vn -0.4710 0.8778 -0.0877
vn -0.4792 0.8728 -0.0925
vn -0.5339 0.8450 -0.0312
vn -0.5393 0.8421 0.0012
vn -0.5159 0.8485 0.1174
vn -0.4969 0.8580 0.1303
vn 0.1239 0.9204 0.3709
vn 0.1478 0.9693 0.1964
vn 0.1362 0.9761 0.1696
vn 0.0927 0.9359 0.3399
vn 0.1177 0.9334 0.3390
vn 0.1001 0.9944 0.0354
vn 0.0884 0.9958 0.0257
vn 0.1444 0.9863 0.0802
vn 0.2042 0.9738 0.1004
vn 0.1038 0.9946 -0.0039
vn 0.1039 0.9946 -0.0036
vn 0.0830 0.9963 -0.0241
vn 0.0851 0.9962 -0.0208
vn 0.1217 0.9924 -0.0152
vn 0.1313 0.9913 -0.0027
vn 0.0327 0.9869 0.1581
vn 0.0844 0.9912 0.1023
vn -0.0709 0.9815 0.1779
vn -0.0350 0.9888 0.1452
vn -0.0424 0.9959 0.0800
vn -0.0279 0.9982 0.0535
vn -0.0168 0.9938 0.1104
vn -0.0066 0.9937 0.1118
vn -0.0323 0.9931 0.1126
vn -0.0323 0.9931 0.1130
vn -0.0155 0.9897 0.1426
vn -0.0150 0.9894 0.1447
vn -0.0661 0.9877 0.1415
vn -0.0530 0.9892 0.1365
vn -0.0252 0.9935 0.1114
vn -0.0257 0.9935 0.1108
vn -0.0541 0.9943 0.0916
vn -0.0581 0.9936 0.0965
vn 0.0207 0.9992 -0.0336
vn 0.0209 0.9991 -0.0362
vn 0.0333 0.9994 0.0068
vn 0.0397 0.9992 0.0094
vn -0.0405 0.9969 -0.0672
vn -0.0352 0.9959 -0.0835
vn -0.1375 0.9811 -0.1364
vn -0.1463 0.9790 -0.1417
vn -0.1224 0.9715 -0.2030
vn -0.1615 0.9734 -0.1623
vn -0.1277 0.9786 -0.1612
vn -0.2028 0.9681 -0.1474
vn -0.2027 0.9681 -0.1471
vn -0.0108 0.9980 0.0616
vn -0.0130 0.9987 0.0495
vn 0.0223 0.9815 0.1902
vn 0.0407 0.9654 0.2576
vn 0.0600 0.9844 0.1655
vn 0.0434 0.9718 0.2318
vn 0.0878 0.9909 -0.1020
vn 0.1271 0.9912 0.0357
vn 0.0888 0.9929 -0.0789
vn 0.0727 0.9840 -0.1630
vn 0.0702 0.9839 -0.1646
vn 0.0458 0.9769 -0.2086
vn -0.0327 0.9988 0.0363
vn -0.0367 0.9985 0.0394
vn -0.0381 0.9984 0.0412
vn -0.0262 0.9992 0.0287
vn -0.0254 0.9993 0.0261
vn -0.0381 0.9985 0.0397
vn -0.0392 0.9984 0.0403
vn -0.0399 0.9984 0.0410
vn -0.0403 0.9983 0.0417
vn -0.0405 0.9983 0.0423
vn -0.0427 0.9977 0.0524
vn -0.0628 0.9947 0.0817
vn -0.0376 0.9987 0.0337
vn -0.1041 0.9910 0.0842
vn -0.0784 0.9935 0.0829
vn -0.0065 0.9998 0.0164
vn -0.0220 0.9995 0.0207
vn -0.0218 0.9996 0.0182
vn 0.0866 0.9919 0.0927
vn 0.1207 0.9876 0.1007
vn 0.0726 0.9871 0.1425
vn 0.0412 0.9950 0.0914
vn 0.0319 0.9989 0.0353
vn 0.0376 0.9985 0.0387
vn -0.0074 0.9972 0.0748
vn 0.0246 0.9976 0.0641
vn 0.0744 0.9954 0.0611
vn 0.0763 0.9954 0.0581
vn 0.0545 0.9970 0.0552
vn 0.1678 0.9676 0.1884
vn 0.1528 0.9708 0.1849
vn 0.1218 0.9722 0.2000
vn 0.1318 0.9791 0.1552
vn -0.1379 0.9861 0.0930
vn -0.1501 0.9830 0.1061
vn -0.1290 0.9880 0.0846
vn -0.0536 0.9927 0.1083
vn -0.0927 0.9908 0.0986
vn -0.1449 0.9846 0.0973
vn -0.1233 0.9892 0.0799
vn -0.0272 0.9970 0.0726
vn -0.0270 0.9970 0.0728
vn 0.0258 0.9987 0.0433
vn 0.0025 0.9993 0.0383
vn -0.0007 0.9991 0.0417
vn 0.0180 0.9993 0.0320
vn 0.0063 0.9993 0.0356
vn -0.0032 0.9990 0.0457
vn -0.0053 0.9987 0.0501
vn 0.0038 0.9997 0.0262
vn -0.0463 0.9974 0.0551
vn -0.0212 0.9981 0.0581
vn -0.0722 0.9958 0.0560
vn -0.0489 0.9981 0.0386
vn -0.0216 0.9996 0.0174
vn 0.0190 0.9991 0.0379
vn 0.0362 0.9989 0.0286
vn 0.0210 0.9985 0.0508
vn 0.1607 0.9674 0.1958
vn 0.1493 0.9661 0.2107
vn 0.1371 0.9687 0.2068
vn 0.1393 0.9709 0.1948
vn 0.1141 0.9737 0.1972
vn 0.1265 0.9761 0.1766
vn 0.1253 0.9874 0.0966
vn 0.1233 0.9874 0.0988
vn 0.0798 0.9953 0.0554
vn 0.0453 0.9983 0.0352
vn 0.0183 0.9985 0.0509
vn 0.0116 0.9983 0.0564
vn 0.0037 0.9981 0.0615
vn -0.0054 0.9978 0.0662
vn -0.0161 0.9974 0.0700
vn -0.0252 0.9971 0.0724
vn -0.0253 0.9967 0.0765
vn -0.0239 0.9965 0.0804
vn -0.0240 0.9965 0.0796
vn -0.0243 0.9967 0.0778
vn -0.0246 0.9968 0.0760
vn -0.0246 0.9969 0.0744
vn -0.0246 0.9970 0.0730
vn -0.0245 0.9971 0.0719
vn -0.0978 0.9909 0.0921
vn -0.1017 0.9912 0.0849
vn -0.1050 0.9916 0.0750
vn -0.1075 0.9926 0.0573
vn -0.1084 0.9930 0.0472
vn -0.1090 0.9928 0.0490
vn 0.1608 0.9855 0.0532
vn 0.2208 0.9193 0.3257
vn 0.1487 0.9394 0.3090
vn 0.0362 0.9988 0.0324
vn 0.2874 0.8566 0.4286
vn 0.4055 0.8447 0.3495
vn 0.2580 0.9402 0.2224
vn 0.2173 0.9239 0.3150
vn 0.2085 0.9780 0.0047
vn 0.2105 0.9776 0.0073
vn 0.2127 0.9771 0.0093
vn 0.2110 0.9774 0.0112
vn 0.0650 0.9854 0.1575
vn 0.0020 0.9998 0.0192
vn 0.1493 0.9804 0.1287
vn 0.1076 0.9822 0.1541
vn -0.0000 1.0000 -0.0000
vn 0.0001 1.0000 -0.0000
vn 0.0019 0.9865 0.1638
vn -0.0747 0.9950 0.0657
vn -0.0717 0.9956 0.0600
vn 0.0049 0.9866 0.1629
vn -0.1711 0.9830 0.0669
vn -0.1718 0.9835 0.0563
vn -0.1545 0.9854 0.0719
vn -0.1549 0.9863 0.0565
vn -0.0525 0.9957 0.0767
vn -0.0529 0.9970 0.0571
vn 0.0574 0.9954 0.0769
vn 0.0574 0.9967 0.0571
vn 0.1601 0.9845 0.0719
vn 0.1604 0.9854 0.0564
vn 0.2210 0.9730 0.0668
vn 0.2205 0.9738 0.0557
vn 0.1749 0.9820 -0.0717
vn -0.0095 0.9867 0.1621
vn -0.0788 0.9938 0.0787
vn -0.1681 0.9813 0.0933
vn -0.1514 0.9820 0.1131
vn -0.0506 0.9905 0.1281
vn 0.0566 0.9901 0.1286
vn 0.1572 0.9812 0.1121
vn 0.2200 0.9709 0.0949
vn -0.0196 0.9917 0.1273
vn -0.0793 0.9926 0.0916
vn -0.1602 0.9793 0.1241
vn -0.1439 0.9760 0.1632
vn -0.0470 0.9810 0.1881
vn 0.0542 0.9806 0.1883
vn 0.1505 0.9755 0.1603
vn 0.1968 0.9735 0.1169
vn 0.0915 0.9958 0.0106
vn -0.0262 0.9910 0.1314
vn -0.0769 0.9920 0.1001
vn -0.1463 0.9777 0.1508
vn -0.1321 0.9694 0.2070
vn -0.0424 0.9705 0.2372
vn 0.0501 0.9702 0.2372
vn 0.1398 0.9694 0.2018
vn 0.1799 0.9716 0.1538
vn -0.0331 0.9904 0.1343
vn -0.0724 0.9922 0.1018
vn -0.1286 0.9773 0.1685
vn -0.1186 0.9640 0.2378
vn -0.0377 0.9620 0.2706
vn 0.0452 0.9617 0.2703
vn 0.1268 0.9647 0.2309
vn 0.1738 0.9699 0.1707
vn -0.0408 0.9903 0.1330
vn -0.0671 0.9927 0.1003
vn -0.1089 0.9785 0.1753
vn -0.1043 0.9615 0.2543
vn -0.0331 0.9568 0.2888
vn 0.0404 0.9565 0.2888
vn 0.1128 0.9623 0.2476
vn 0.1650 0.9702 0.1777
vn -0.0499 0.9906 0.1275
vn -0.0605 0.9933 0.0989
vn -0.0869 0.9810 0.1733
vn -0.0881 0.9617 0.2597
vn -0.0281 0.9552 0.2947
vn 0.0352 0.9550 0.2944
vn 0.0969 0.9630 0.2515
vn 0.1510 0.9733 0.1731
vn -0.0605 0.9910 0.1192
vn -0.0550 0.9940 0.0941
vn -0.0659 0.9851 0.1587
vn -0.0716 0.9652 0.2515
vn -0.0234 0.9574 0.2877
vn 0.0301 0.9573 0.2876
vn 0.0801 0.9665 0.2437
vn 0.1301 0.9790 0.1573
vn -0.0724 0.9917 0.1064
vn -0.0515 0.9949 0.0864
vn -0.0461 0.9902 0.1319
vn -0.0533 0.9718 0.2298
vn -0.0183 0.9636 0.2669
vn 0.0247 0.9635 0.2667
vn 0.0618 0.9733 0.2211
vn 0.0975 0.9871 0.1270
vn -0.0520 0.9970 -0.0578
vn 0.0297 0.9995 -0.0089
vn -0.0867 0.9921 0.0906
vn -0.0521 0.9958 0.0749
vn -0.0292 0.9951 0.0942
vn -0.0404 0.9884 0.1466
vn -0.0170 0.9908 0.1345
vn 0.0179 0.9950 0.0987
vn 0.0359 0.9993 -0.0075
vn 0.0419 0.9918 -0.1207
vn -0.0022 0.9844 -0.1758
vn -0.1015 0.9919 0.0758
vn -0.0581 0.9962 0.0652
vn -0.0230 0.9974 0.0687
vn -0.0435 0.9976 0.0540
vn -0.0299 0.9995 0.0125
vn -0.0117 0.9999 0.0050
vn -0.0158 0.9973 -0.0723
vn 0.0066 0.9974 -0.0724
vn 0.0025 0.9752 -0.2215
vn 0.0288 0.9707 -0.2385
vn 0.0119 0.9452 -0.3261
vn 0.0065 0.9372 -0.3487
vn 0.0124 0.9169 -0.3990
vn 0.0100 0.9135 -0.4068
vn -0.1173 0.9605 -0.2522
vn -0.0180 0.9968 -0.0781
vn -0.0070 0.9691 -0.2467
vn 0.0127 0.9165 -0.3998
vn 0.0218 0.9879 -0.1536
vn 0.0237 0.9972 -0.0704
vn 0.0254 0.9994 -0.0215
vt 2.998501 1.979825
vt 0.001498 1.979826
vt 0.057505 1.825328
vt 0.120517 1.679557
vt 0.190036 1.543659
vt 0.265510 1.418772
vt 0.346343 1.306018
vt 0.431895 1.206500
vt 0.521487 1.121285
vt 0.614413 1.051394
vt 0.709933 0.997795
vt 0.905724 0.944168
vt 0.807293 0.961387
vt 1.025978 0.939200
vt 1.198828 0.941389
vt 1.373474 0.949426
vt 1.532759 0.962173
vt 1.993359 1.017345
vt 2.906170 1.009925
vt 1.695853 0.978498
vt 1.851278 0.997267
vt 2.892850 1.000500
vt 2.998502 1.999499
vt 0.107151 1.999500
vt 0.001499 1.000501
vt 0.371137 1.000000
vt 0.448343 1.000000
vt 0.372206 2.022156
vt 0.010121 2.022156
vt 0.000500 1.000000
vt 0.820863 1.000000
vt 0.859419 1.000000
vt 0.664225 1.958825
vt 0.893853 1.000000
vt 1.482787 1.091634
vt 1.497902 1.266127
vt 1.393741 1.018433
vt 0.923861 1.000000
vt 1.035354 1.000000
vt 1.002413 1.863827
vt 1.240159 1.738868
vt 1.365401 1.637884
vt 1.454836 1.476576
vt 1.282618 1.003996
vt 1.206767 1.003029
vt 1.126747 1.003072
vt 0.949179 1.000000
vt 0.778527 1.000000
vt 0.732788 1.000000
vt 0.684053 1.000000
vt 0.632758 1.000000
vt 0.579363 1.000000
vt 0.524346 1.000000
vt 0.254815 1.000000
vt 0.000500 1.999500
vt 0.999500 1.000499
vt 0.038691 1.279027
vt 0.532837 1.000499
vt 0.999501 1.999500
vt 0.000500 1.852585
vt 1.057784 1.241245
vt 0.286760 2.109218
vt -0.040987 1.332869
vt 1.603618 1.000500
vt 0.027190 1.243415
vt 0.065889 1.609341
vt 0.769481 1.000000
vt 0.862186 1.000000
vt 1.033008 2.000000
vt 0.590398 2.000000
vt 0.651544 1.000000
vt 0.954891 1.000000
vt 1.047596 1.000000
vt 1.140302 1.000000
vt 1.233008 1.000000
vt 1.325712 1.000000
vt 1.418418 1.000000
vt 1.559831 2.000000
vt 1.413220 2.000000
vt 1.535428 1.000000
vt 1.499699 1.000000
vt 0.078626 2.000000
vt 0.507893 1.000000
vt 0.364627 1.000000
vt 0.298792 1.000000
vt 0.425706 1.000000
vt 0.471037 2.000000
vt -0.066996 2.000000
vt -0.589604 1.000000
vt -0.462690 1.000000
vt -0.877293 2.000000
vt -0.589284 2.000000
vt -0.079893 1.000000
vt 0.044965 1.000000
vt -0.208862 1.000000
vt 0.937262 1.000000
vt 1.129782 1.000000
vt 1.147672 2.000000
vt 0.806452 1.000000
vt 1.636635 1.000000
vt 1.664618 1.000000
vt 1.605058 1.000000
vt 2.585815 1.000497
vt 2.565203 2.058997
vt 2.549356 1.000497
vt 1.688073 1.000000
vt 1.570943 1.000000
vt 3.008848 1.000500
vt 2.991965 2.059000
vt 2.953836 1.000500
vt -0.722970 1.000000
vt 3.063862 1.000501
vt -0.396283 1.000000
vt -0.303577 1.000000
vt -0.436409 2.000000
vt -0.488988 1.000000
vt -0.210872 1.000000
vt -0.118166 1.000000
vt -0.111941 2.000000
vt 0.022139 1.000000
vt -0.025462 1.000000
vt 0.055017 1.000000
vt 0.094466 1.000000
vt 0.224344 1.000000
vt -0.581693 1.000000
vt -0.760877 2.000000
vt -0.674398 1.000000
vt 1.363676 1.000000
vt 1.414799 2.000000
vt 1.657785 1.000000
vt 1.851528 2.000000
vt 2.139914 1.000000
vt 2.218636 2.000000
vt 0.679534 1.000000
vt 0.552620 1.000000
vt 0.174436 1.000000
vt -0.335777 1.000000
vt -0.794508 1.000000
vt -0.863391 1.000000
vt 3.265447 1.000002
vt 3.271897 1.007485
vt 3.240067 1.000502
vt 3.211377 1.000502
vt 3.173888 1.000501
vt 3.118875 1.000501
vt 2.898823 1.000499
vt 2.850444 1.000499
vt 2.814277 1.000499
vt 2.776940 1.000498
vt 2.738800 1.000498
vt 2.700237 1.000498
vt 2.661630 1.000497
vt 2.623363 1.000497
vt 2.514348 1.000496
vt 2.481137 1.000496
vt 2.450052 1.000496
vt 2.419029 1.000496
vt 2.375347 1.000495
vt 2.331664 0.999995
vt 2.288005 1.028995
vt 0.015257 1.000000
vt 0.330765 1.000000
vt 0.323018 1.500000
vt 0.007509 1.500000
vt 0.675865 1.000000
vt 0.999501 1.000000
vt 0.991753 1.500000
vt 0.668118 1.500000
vt 0.921499 1.999501
vt 0.745760 1.994749
vt 0.999500 1.019444
vt 0.570023 1.989825
vt 0.394285 1.984739
vt 0.210597 1.980558
vt 0.000499 1.986253
vt 0.078501 1.006196
vt 0.316008 2.000000
vt 0.000500 2.000000
vt 0.984744 2.000000
vt 0.661108 2.000000
vt 0.960565 1.020607
vt 0.999501 1.018018
vt 0.999093 1.129709
vt 0.762767 1.999501
vt 0.766309 1.028025
vt 0.995958 1.989493
vt 0.000499 1.971975
vt 0.004042 1.000499
vt 0.058302 1.930916
vt 0.689647 1.921393
vt 0.689647 1.999500
vt 0.001498 1.999500
vt 0.956276 1.921393
vt 0.956276 1.999500
vt 1.257734 1.921394
vt 1.257734 1.999500
vt 1.538874 1.921394
vt 1.538874 1.999500
vt 1.884894 1.921394
vt 1.884894 1.999500
vt 2.200533 1.921394
vt 2.200534 1.999500
vt 2.470789 1.921394
vt 2.470789 1.999500
vt 2.811809 1.921804
vt 0.120380 1.854540
vt 0.689647 1.843807
vt 0.956276 1.843807
vt 1.257734 1.843807
vt 1.538873 1.843807
vt 1.884894 1.843807
vt 2.200533 1.843807
vt 2.470790 1.843807
vt 0.180411 1.761671
vt 0.689647 1.753971
vt 0.956276 1.753971
vt 1.257734 1.753971
vt 1.538873 1.753971
vt 1.884894 1.753971
vt 2.200533 1.753971
vt 2.470789 1.753971
vt 2.894122 1.808780
vt 0.235014 1.666525
vt 0.689647 1.654324
vt 0.956276 1.654324
vt 1.257734 1.654324
vt 1.538873 1.654324
vt 1.884894 1.654324
vt 2.200533 1.654324
vt 2.470790 1.654324
vt 0.289617 1.571378
vt 0.689647 1.559760
vt 0.956276 1.559760
vt 1.257734 1.559760
vt 1.538873 1.559760
vt 1.884894 1.559760
vt 2.200533 1.559760
vt 2.470789 1.559760
vt 0.344220 1.476232
vt 0.689647 1.475233
vt 0.956276 1.475233
vt 1.257734 1.475233
vt 1.538873 1.475233
vt 1.884894 1.475233
vt 2.200533 1.475233
vt 2.470789 1.475233
vt 0.398823 1.381086
vt 0.689647 1.379022
vt 0.956276 1.379022
vt 1.257734 1.379022
vt 1.538873 1.379022
vt 1.884894 1.379022
vt 2.200533 1.379022
vt 2.470789 1.379022
vt 0.453426 1.285939
vt 0.689647 1.290951
vt 0.956276 1.290951
vt 1.257734 1.290952
vt 1.538873 1.290952
vt 1.884894 1.290951
vt 2.200533 1.290951
vt 2.470789 1.290951
vt 0.508029 1.190793
vt 0.689647 1.194967
vt 0.956276 1.194967
vt 1.257734 1.194967
vt 1.538873 1.194967
vt 1.884894 1.194967
vt 2.200533 1.194967
vt 2.470789 1.194967
vt 2.998501 1.023999
vt 2.985133 1.706404
vt 0.562632 1.095646
vt 0.689647 1.099100
vt 0.956276 1.099100
vt 1.257734 1.099100
vt 1.538873 1.099100
vt 1.884894 1.099100
vt 2.200533 1.099100
vt 2.470789 1.099100
vt 2.725765 1.099100
vt 0.617235 1.000499
vt 0.689647 1.003351
vt 0.956276 1.003351
vt 1.257734 1.003351
vt 1.456058 1.019471
vt 1.560871 1.015522
vt 1.753632 1.011481
vt 1.874594 1.014505
vt 2.119258 1.016931
vt 2.241583 1.015876
vt 2.362986 1.013210
vt 2.437381 1.016953
vt 2.607819 1.017398
vt 2.705195 1.023073
vt 1.334383 1.015072
vt 1.658033 1.011070
vt 1.996698 1.016922
vt 2.527353 1.017168
vt 2.778707 1.018848
vt 2.852288 1.018000
vt 2.925650 1.016899
s 1
usemtl HILLSIDE.005
f 1/1/1 2/2/2 3/3/3
f 1/1/1 3/3/3 4/4/4
f 1/1/1 4/4/4 5/5/5
f 1/1/1 5/5/5 6/6/6
f 1/1/1 6/6/6 7/7/7
f 1/1/1 7/7/7 8/8/8
f 1/1/1 8/8/8 9/9/9
f 1/1/1 9/9/9 10/10/10
f 1/1/1 10/10/10 11/11/11
f 12/12/12 1/1/1 13/13/13
f 1/1/1 12/12/12 14/14/14
f 1/1/1 15/15/15 16/16/16
f 16/16/16 17/17/17 1/1/1
f 11/11/11 13/13/13 1/1/1
f 1/1/1 18/18/18 19/19/19
f 1/1/1 20/20/20 21/21/21
f 1/1/1 14/14/14 15/15/15
f 1/1/1 17/17/17 20/20/20
f 1/1/1 21/21/21 18/18/18
f 22/22/22 23/23/23 1/24/1
f 1/24/1 19/25/19 22/22/22
f 24/22/24 25/23/25 23/24/23
f 23/24/23 22/25/22 24/22/24
f 26/22/26 27/23/27 25/24/25
f 25/24/25 24/25/24 26/22/26
f 28/22/28 29/23/29 27/24/27
f 27/24/27 26/25/26 28/22/28
f 30/26/30 31/27/31 32/28/32
f 32/28/32 29/29/29 28/30/28
f 33/31/33 34/32/34 35/33/35
f 35/33/35 32/28/32 31/27/31
f 35/33/35 34/32/34 36/34/36
f 37/35/37 38/36/38 39/37/39
f 40/38/40 35/33/35 36/34/36
f 41/39/41 42/40/42 35/33/35
f 41/39/41 43/41/43 42/40/42
f 41/39/41 44/42/44 43/41/43
f 39/37/39 38/36/38 45/43/45
f 46/44/46 39/37/39 45/43/45
f 47/45/47 46/44/46 45/43/45
f 48/46/48 47/45/47 45/43/45
f 41/39/41 48/46/48 45/43/45
f 44/42/44 41/39/41 45/43/45
f 35/33/35 49/47/49 41/39/41
f 35/33/35 40/38/40 49/47/49
f 50/48/50 33/31/33 35/33/35
f 51/49/51 50/48/50 35/33/35
f 52/50/52 51/49/51 35/33/35
f 53/51/53 52/50/52 35/33/35
f 54/52/54 53/51/53 35/33/35
f 55/53/55 54/52/54 35/33/35
f 31/27/31 55/53/55 35/33/35
f 56/54/56 30/26/30 32/28/32
f 28/30/28 56/54/56 32/28/32
f 267/55/57 57/56/58 58/57/59
f 59/22/60 60/23/61 61/24/62
f 61/24/62 62/25/63 59/22/60
f 63/22/64 64/23/65 60/24/61
f 60/24/61 59/25/60 63/22/64
f 65/22/66 66/23/67 64/24/65
f 64/24/65 63/25/64 65/22/66
f 67/22/68 68/23/69 66/24/67
f 66/24/67 65/25/66 67/22/68
f 69/22/70 70/23/71 71/24/72
f 71/24/72 67/25/68 69/22/70
f 72/22/73 73/23/74 70/24/71
f 70/24/71 69/25/70 72/22/73
f 74/22/75 75/23/76 73/24/74
f 73/24/74 72/25/73 74/22/75
f 76/22/77 77/23/78 75/24/76
f 75/24/76 74/25/75 76/22/77
f 67/58/68 71/59/72 68/60/69
f 78/22/79 79/23/80 77/24/78
f 77/24/78 76/25/77 78/22/79
f 80/22/81 81/23/82 79/24/80
f 79/24/80 78/25/79 80/22/81
f 82/22/83 83/23/84 81/24/82
f 81/24/82 80/25/81 82/22/83
f 84/22/85 85/23/86 83/24/84
f 83/24/84 82/25/83 84/22/85
f 86/22/87 87/23/88 85/24/86
f 85/24/86 84/25/85 86/22/87
f 84/61/85 88/62/89 86/63/87
f 89/22/90 90/23/91 91/24/92
f 91/24/92 92/25/93 89/22/90
f 93/22/94 94/23/95 90/24/91
f 90/24/91 89/25/90 93/22/94
f 95/22/96 96/23/97 97/24/98
f 97/24/98 98/25/99 95/22/96
f 99/22/100 100/23/101 96/24/97
f 96/24/97 95/25/96 99/22/100
f 101/22/102 102/23/103 100/24/101
f 100/24/101 99/25/100 101/22/102
f 103/22/104 104/23/105 102/24/103
f 102/24/103 101/25/102 103/22/104
f 105/22/106 106/23/107 104/24/105
f 104/24/105 103/25/104 105/22/106
f 107/22/108 108/23/109 106/24/107
f 106/24/107 105/25/106 107/22/108
f 87/22/88 109/23/110 110/24/111
f 110/24/111 111/25/112 87/22/88
f 86/22/87 112/23/113 109/24/110
f 109/24/110 87/25/88 86/22/87
f 88/22/89 113/23/114 112/24/113
f 112/24/113 86/25/87 88/22/89
f 114/22/115 115/23/116 116/24/117
f 116/24/117 117/25/118 114/22/115
f 118/22/119 119/23/120 115/24/116
f 115/24/116 114/25/115 118/22/119
f 120/22/121 121/23/122 119/24/120
f 119/24/120 118/25/119 120/22/121
f 122/22/123 123/23/124 121/24/122
f 121/24/122 120/25/121 122/22/123
f 124/22/125 125/23/126 123/24/124
f 123/24/124 122/25/123 124/22/125
f 126/22/127 127/23/128 125/24/126
f 125/24/126 124/25/125 126/22/127
f 128/22/129 129/23/130 127/24/128
f 127/24/128 126/25/127 128/22/129
f 130/22/131 131/23/132 132/24/133
f 132/24/133 128/25/134 130/22/131
f 133/22/135 134/23/136 131/24/132
f 131/24/132 130/25/131 133/22/135
f 135/22/137 136/23/138 134/24/136
f 134/24/136 133/25/135 135/22/137
f 137/22/139 138/23/140 136/24/138
f 136/24/138 135/25/137 137/22/139
f 139/22/141 140/23/142 138/24/140
f 138/24/140 137/25/139 139/22/141
f 92/22/93 91/23/92 140/24/142
f 140/24/142 139/25/141 92/22/93
f 141/22/143 142/23/144 143/24/145
f 143/24/145 144/25/146 141/22/143
f 145/22/147 146/23/148 142/24/144
f 142/24/144 141/25/143 145/22/147
f 147/22/149 148/23/150 146/24/148
f 146/24/148 145/25/147 147/22/149
f 149/64/151 150/23/152 148/24/150
f 150/23/152 149/64/151 151/22/153
f 152/22/154 153/23/155 150/24/152
f 150/24/152 151/25/153 152/22/154
f 148/24/150 147/25/149 149/64/151
f 154/22/156 155/23/157 156/24/158
f 156/24/158 157/25/159 154/22/156
f 158/22/160 159/23/161 155/24/157
f 155/24/157 154/25/156 158/22/160
f 144/22/146 143/23/145 159/24/161
f 159/24/161 158/25/160 144/22/146
f 157/22/162 160/23/163 161/24/164
f 162/65/165 163/25/166 157/22/162
f 164/66/167 162/65/165 157/22/162
f 161/24/164 164/66/167 157/22/162
f 165/67/168 166/68/169 167/69/170
f 167/69/170 168/70/171 165/67/168
f 169/71/172 165/67/168 168/70/171
f 166/68/169 170/72/173 167/69/170
f 170/72/173 171/73/174 167/69/170
f 172/74/175 173/75/176 167/69/170
f 171/73/174 172/74/175 167/69/170
f 173/75/176 174/76/177 167/69/170
f 174/76/177 175/77/178 167/69/170
f 176/78/179 177/79/180 178/80/181
f 179/81/182 178/80/181 177/79/180
f 177/79/180 167/69/170 179/81/182
f 175/77/178 179/81/182 167/69/170
f 168/70/171 180/82/183 169/71/172
f 181/83/184 169/71/172 180/82/183
f 182/84/185 181/83/184 180/82/183
f 183/85/186 184/86/187 185/87/188
f 185/87/188 186/88/189 183/85/186
f 187/89/190 188/90/191 189/91/192
f 190/92/193 189/91/192 188/90/191
f 191/93/194 192/94/195 186/88/189
f 186/88/189 190/92/193 193/95/196
f 194/96/197 195/97/198 196/98/199
f 196/98/199 185/87/188 197/99/200
f 198/100/201 199/101/202 176/78/179
f 200/102/203 198/100/201 176/78/179
f 201/103/204 176/104/179 202/105/205
f 199/101/202 203/106/206 176/78/179
f 204/107/207 200/102/203 176/78/179
f 178/80/181 204/107/207 176/78/179
f 205/108/208 189/109/192 206/110/209
f 176/104/179 201/103/204 189/109/192
f 207/111/210 187/89/190 189/91/192
f 189/109/192 205/108/208 208/112/208
f 209/113/211 210/114/212 211/115/213
f 212/116/214 209/113/211 211/115/213
f 210/114/212 213/117/215 211/115/213
f 213/117/215 214/118/216 211/115/213
f 180/82/183 215/119/217 216/120/218
f 217/121/219 216/120/218 215/119/217
f 215/119/217 211/115/213 217/121/219
f 214/118/216 217/121/219 211/115/213
f 216/120/218 218/122/220 180/82/183
f 218/122/220 219/123/221 180/82/183
f 220/124/222 182/84/185 180/82/183
f 219/123/221 220/124/222 180/82/183
f 221/125/223 212/116/214 211/115/213
f 211/115/213 222/126/224 221/125/223
f 223/127/225 221/125/223 222/126/224
f 195/97/198 224/128/226 196/98/199
f 225/129/227 196/98/199 224/128/226
f 224/128/226 226/130/228 225/129/227
f 227/131/229 225/129/227 226/130/228
f 226/130/228 228/132/230 227/131/229
f 229/133/231 227/131/229 228/132/230
f 197/99/200 194/96/197 196/98/199
f 230/134/232 197/99/200 185/87/188
f 231/135/233 230/134/232 185/87/188
f 184/86/187 231/135/233 185/87/188
f 232/136/234 183/85/186 186/88/189
f 192/94/195 232/136/234 186/88/189
f 193/95/196 191/93/194 186/88/189
f 233/137/235 193/95/196 190/92/193
f 188/90/191 233/137/235 190/92/193
f 234/138/236 207/111/210 189/91/192
f 235/139/237 234/138/236 189/91/192
f 236/140/238 235/141/237 189/109/192
f 237/142/239 236/140/238 189/109/192
f 238/143/240 237/142/239 189/109/192
f 239/144/241 238/143/240 189/109/192
f 240/145/208 239/144/241 189/109/192
f 208/112/208 240/145/208 189/109/192
f 206/110/209 189/109/192 241/146/242
f 241/146/242 189/109/192 242/147/243
f 242/147/243 189/109/192 243/148/244
f 243/148/244 189/109/192 244/149/245
f 244/149/245 189/109/192 245/150/246
f 245/150/246 189/109/192 246/151/247
f 246/151/247 189/109/192 247/152/248
f 247/152/248 189/109/192 248/153/249
f 248/153/249 189/109/192 201/103/204
f 202/105/205 176/104/179 249/154/250
f 249/154/250 176/104/179 250/155/251
f 250/155/251 176/104/179 251/156/252
f 251/156/252 176/104/179 252/157/253
f 252/157/253 176/104/179 253/158/254
f 253/158/254 176/104/179 254/159/255
f 254/159/255 176/104/179 203/160/206
f 255/161/256 263/162/257 256/163/258
f 256/163/258 257/164/259 255/161/256
f 258/165/260 259/166/261 260/167/262
f 260/167/262 261/168/263 258/165/260
f 263/162/257 258/165/260 261/168/263
f 261/168/263 256/163/258 263/162/257
f 255/169/256 262/170/264 263/171/257
f 262/170/264 264/172/265 263/171/257
f 264/172/265 265/173/266 263/171/257
f 266/174/267 267/175/57 58/176/59
f 58/176/59 263/171/257 266/174/267
f 265/173/266 266/174/267 263/171/257
f 257/164/259 256/163/258 268/177/268
f 268/177/268 269/178/269 257/164/259
f 261/168/263 260/167/262 270/179/270
f 270/179/270 271/180/271 261/168/263
f 256/163/258 261/168/263 271/180/271
f 271/180/271 268/177/268 256/163/258
f 272/181/272 273/182/273 274/183/272
f 272/181/272 275/184/272 276/185/272
f 275/184/272 272/181/272 274/183/272
f 275/184/272 274/183/272 277/186/272
f 278/187/272 279/188/272 276/185/272
f 276/185/272 275/184/272 278/187/272
f 280/189/274 281/190/275 282/191/276
f 282/191/276 283/192/277 280/189/274
f 281/190/275 284/193/278 285/194/279
f 285/194/279 282/191/276 281/190/275
f 284/193/278 286/195/280 287/196/281
f 287/196/281 285/194/279 284/193/278
f 286/195/280 288/197/282 289/198/283
f 289/198/283 287/196/281 286/195/280
f 288/197/282 290/199/284 291/200/285
f 291/200/285 289/198/283 288/197/282
f 290/199/284 292/201/286 293/202/287
f 293/202/287 291/200/285 290/199/284
f 292/201/286 294/203/288 295/204/289
f 295/204/289 293/202/287 292/201/286
f 296/205/290 295/204/289 294/203/288
f 297/206/291 298/207/292 281/190/275
f 281/190/275 280/189/274 297/206/291
f 298/207/292 299/208/293 284/193/278
f 284/193/278 281/190/275 298/207/292
f 299/208/293 300/209/294 286/195/280
f 286/195/280 284/193/278 299/208/293
f 300/209/294 301/210/295 288/197/282
f 288/197/282 286/195/280 300/209/294
f 301/210/295 302/211/296 290/199/284
f 290/199/284 288/197/282 301/210/295
f 302/211/296 303/212/297 292/201/286
f 292/201/286 290/199/284 302/211/296
f 303/212/297 304/213/298 294/203/288
f 294/203/288 292/201/286 303/212/297
f 296/205/290 294/203/288 304/213/298
f 305/214/299 306/215/300 298/207/292
f 298/207/292 297/206/291 305/214/299
f 306/215/300 307/216/301 299/208/293
f 299/208/293 298/207/292 306/215/300
f 307/216/301 308/217/302 300/209/294
f 300/209/294 299/208/293 307/216/301
f 308/217/302 309/218/303 301/210/295
f 301/210/295 300/209/294 308/217/302
f 309/218/303 310/219/304 302/211/296
f 302/211/296 301/210/295 309/218/303
f 310/219/304 311/220/305 303/212/297
f 303/212/297 302/211/296 310/219/304
f 311/220/305 312/221/306 304/213/298
f 304/213/298 303/212/297 311/220/305
f 312/221/306 313/222/307 296/205/290
f 296/205/290 304/213/298 312/221/306
f 314/223/308 315/224/309 306/215/300
f 306/215/300 305/214/299 314/223/308
f 315/224/309 316/225/310 307/216/301
f 307/216/301 306/215/300 315/224/309
f 316/225/310 317/226/311 308/217/302
f 308/217/302 307/216/301 316/225/310
f 317/226/311 318/227/312 309/218/303
f 309/218/303 308/217/302 317/226/311
f 318/227/312 319/228/313 310/219/304
f 310/219/304 309/218/303 318/227/312
f 319/228/313 320/229/314 311/220/305
f 311/220/305 310/219/304 319/228/313
f 320/229/314 321/230/315 312/221/306
f 312/221/306 311/220/305 320/229/314
f 313/222/307 312/221/306 321/230/315
f 322/231/316 323/232/317 315/224/309
f 315/224/309 314/223/308 322/231/316
f 323/232/317 324/233/318 316/225/310
f 316/225/310 315/224/309 323/232/317
f 324/233/318 325/234/319 317/226/311
f 317/226/311 316/225/310 324/233/318
f 325/234/319 326/235/320 318/227/312
f 318/227/312 317/226/311 325/234/319
f 326/235/320 327/236/321 319/228/313
f 319/228/313 318/227/312 326/235/320
f 327/236/321 328/237/322 320/229/314
f 320/229/314 319/228/313 327/236/321
f 328/237/322 329/238/323 321/230/315
f 321/230/315 320/229/314 328/237/322
f 313/222/307 321/230/315 329/238/323
f 330/239/324 331/240/325 323/232/317
f 323/232/317 322/231/316 330/239/324
f 331/240/325 332/241/326 324/233/318
f 324/233/318 323/232/317 331/240/325
f 332/241/326 333/242/327 325/234/319
f 325/234/319 324/233/318 332/241/326
f 333/242/327 334/243/328 326/235/320
f 326/235/320 325/234/319 333/242/327
f 334/243/328 335/244/329 327/236/321
f 327/236/321 326/235/320 334/243/328
f 335/244/329 336/245/330 328/237/322
f 328/237/322 327/236/321 335/244/329
f 336/245/330 337/246/331 329/238/323
f 329/238/323 328/237/322 336/245/330
f 313/222/307 329/238/323 337/246/331
f 338/247/332 339/248/333 331/240/325
f 331/240/325 330/239/324 338/247/332
f 339/248/333 340/249/334 332/241/326
f 332/241/326 331/240/325 339/248/333
f 340/249/334 341/250/335 333/242/327
f 333/242/327 332/241/326 340/249/334
f 341/250/335 342/251/336 334/243/328
f 334/243/328 333/242/327 341/250/335
f 342/251/336 343/252/337 335/244/329
f 335/244/329 334/243/328 342/251/336
f 343/252/337 344/253/338 336/245/330
f 336/245/330 335/244/329 343/252/337
f 344/253/338 345/254/339 337/246/331
f 337/246/331 336/245/330 344/253/338
f 313/222/307 337/246/331 345/254/339
f 346/255/340 347/256/341 339/248/333
f 339/248/333 338/247/332 346/255/340
f 347/256/341 348/257/342 340/249/334
f 340/249/334 339/248/333 347/256/341
f 348/257/342 349/258/343 341/250/335
f 341/250/335 340/249/334 348/257/342
f 349/258/343 350/259/344 342/251/336
f 342/251/336 341/250/335 349/258/343
f 350/259/344 351/260/345 343/252/337
f 343/252/337 342/251/336 350/259/344
f 351/260/345 352/261/346 344/253/338
f 344/253/338 343/252/337 351/260/345
f 352/261/346 353/262/347 345/254/339
f 345/254/339 344/253/338 352/261/346
f 313/222/307 345/254/339 353/262/347
f 354/263/348 355/264/349 347/256/341
f 347/256/341 346/255/340 354/263/348
f 355/264/349 356/265/350 348/257/342
f 348/257/342 347/256/341 355/264/349
f 356/265/350 357/266/351 349/258/343
f 349/258/343 348/257/342 356/265/350
f 357/266/351 358/267/352 350/259/344
f 350/259/344 349/258/343 357/266/351
f 358/267/352 359/268/353 351/260/345
f 351/260/345 350/259/344 358/267/352
f 359/268/353 360/269/354 352/261/346
f 352/261/346 351/260/345 359/268/353
f 360/269/354 361/270/355 353/262/347
f 353/262/347 352/261/346 360/269/354
f 313/222/307 353/262/347 361/270/355
f 313/222/307 362/271/356 363/272/357
f 364/273/358 365/274/359 355/264/349
f 355/264/349 354/263/348 364/273/358
f 365/274/359 366/275/360 356/265/350
f 356/265/350 355/264/349 365/274/359
f 366/275/360 367/276/361 357/266/351
f 357/266/351 356/265/350 366/275/360
f 367/276/361 368/277/362 358/267/352
f 358/267/352 357/266/351 367/276/361
f 368/277/362 369/278/363 359/268/353
f 359/268/353 358/267/352 368/277/362
f 369/278/363 370/279/364 360/269/354
f 360/269/354 359/268/353 369/278/363
f 370/279/364 371/280/365 361/270/355
f 361/270/355 360/269/354 370/279/364
f 371/280/365 372/281/366 313/222/307
f 313/222/307 361/270/355 371/280/365
f 362/271/356 313/222/307 372/281/366
f 373/282/367 374/283/368 365/274/359
f 365/274/359 364/273/358 373/282/367
f 374/283/368 375/284/369 366/275/360
f 366/275/360 365/274/359 374/283/368
f 375/284/369 376/285/370 367/276/361
f 367/276/361 366/275/360 375/284/369
f 377/286/371 378/287/372 368/277/362
f 368/277/362 367/276/361 376/285/370
f 379/288/373 380/289/374 369/278/363
f 369/278/363 368/277/362 378/287/372
f 381/290/375 382/291/376 370/279/364
f 370/279/364 369/278/363 380/289/374
f 383/292/377 384/293/378 371/280/365
f 371/280/365 370/279/364 382/291/376
f 385/294/379 386/295/380 372/281/366
f 372/281/366 371/280/365 384/293/378
f 362/271/356 372/281/366 386/295/380
f 376/285/370 388/296/381 368/277/362
f 388/296/381 377/286/371 368/277/362
f 378/287/372 389/297/382 369/278/363
f 389/297/382 379/288/373 369/278/363
f 380/289/374 390/298/383 370/279/364
f 390/298/383 381/290/375 370/279/364
f 382/291/376 383/292/377 371/280/365
f 384/293/378 391/299/384 372/281/366
f 391/299/384 385/294/379 372/281/366
f 386/295/380 392/300/385 362/271/356
f 392/300/385 393/301/386 362/271/356
f 393/301/386 387/302/387 362/271/356
