# Blender 4.4.3
# www.blender.org
mtllib INBUILDB.mtl
o INBUILDB
v -35.840424 4.990381 -20.210651
v -35.840424 3.058835 -20.210651
v -35.840416 4.990381 -30.583403
v -35.840416 3.058835 -30.583403
v 23.560211 3.058836 -30.583412
v 23.560211 3.058836 -20.210663
v 23.560211 4.990382 -30.583412
v 23.560211 4.990384 -20.210663
v 28.682344 4.990381 -20.210651
v 28.682344 3.058835 -20.210651
v 28.682344 4.990381 -30.583403
v 28.682344 3.058835 -30.583403
v 88.082977 3.058836 -30.583412
v 88.082977 3.058836 -20.210663
v 88.082977 4.990382 -30.583412
v 88.082977 4.990384 -20.210663
v 93.712830 4.990381 -20.210651
v 93.712830 3.058835 -20.210651
v 93.712830 4.990381 -30.583403
v 93.712830 3.058835 -30.583403
v 153.113464 3.058836 -30.583412
v 153.113464 3.058836 -20.210663
v 153.113464 4.990382 -30.583412
v 153.113464 4.990384 -20.210663
vn 1.0000 -0.0000 -0.0000
vn -1.0000 -0.0000 -0.0000
vt 0.000500 1.999500
vt 0.000500 1.000501
vt 0.999500 1.999499
vt 0.999500 1.000499
vt 0.999500 1.000500
vt 0.000500 1.999501
s 1
usemtl INBUILDB
f 1/1/1 2/2/1 3/3/1
f 4/4/1 3/3/1 2/2/1
f 5/5/2 6/2/2 7/3/2
f 8/6/2 7/3/2 6/2/2
f 9/1/1 10/2/1 11/3/1
f 12/4/1 11/3/1 10/2/1
f 13/5/2 14/2/2 15/3/2
f 16/6/2 15/3/2 14/2/2
f 17/1/1 18/2/1 19/3/1
f 20/4/1 19/3/1 18/2/1
f 21/5/2 22/2/2 23/3/2
f 24/6/2 23/3/2 22/2/2
