# Blender 4.4.3
# www.blender.org
mtllib INBUILDA.mtl
o INBUILDA
v -35.840416 4.990381 -30.583403
v -35.840416 3.058835 -30.583403
v 23.560211 4.990382 -30.583412
v 23.560211 3.058836 -30.583412
v 28.682344 4.990381 -30.583403
v 28.682344 3.058835 -30.583403
v 88.082977 4.990382 -30.583412
v 88.082977 3.058836 -30.583412
v 93.712830 4.990381 -30.583403
v 93.712830 3.058835 -30.583403
v 153.113464 4.990382 -30.583412
v 153.113464 3.058836 -30.583412
v 265.752838 19.426069 -411.958038
v 265.727173 17.826069 -411.941956
v 272.137054 17.826069 -415.959290
v 272.162689 19.426069 -415.975372
v 265.738525 20.126070 -412.073395
v 274.814056 20.126068 -417.761414
v 265.738525 21.526070 -412.073395
v 274.814056 21.526068 -417.761414
v 277.391083 19.426069 -407.634277
v 277.365417 17.826069 -407.618195
vn -0.0000 -0.0000 1.0000
vn 0.5311 -0.0000 0.8473
vn -0.8472 0.0189 0.5310
vt 0.001498 1.999500
vt 0.001498 1.000499
vt 2.998502 1.999501
vt 2.998502 1.000500
vt 0.008965 1.999500
vt 0.000999 1.000499
vt 1.991036 1.000499
vt 1.999001 1.999500
vt 0.001499 1.000499
vt 2.998501 1.000499
vt 0.001499 1.999500
vt 2.998501 1.999500
vt 0.000999 1.999500
vt 1.999001 1.000499
s 1
usemtl INBUILDA.002
f 1/1/1 2/2/1 3/3/1
f 4/4/1 3/3/1 2/2/1
f 5/1/1 6/2/1 7/3/1
f 8/4/1 7/3/1 6/2/1
f 9/1/1 10/2/1 11/3/1
f 12/4/1 11/3/1 10/2/1
f 13/5/2 14/6/2 15/7/2
f 15/7/2 16/8/2 13/5/2
f 17/9/2 18/10/2 19/11/2
f 20/12/2 19/11/2 18/10/2
f 16/13/3 15/6/3 21/8/3
f 22/14/3 21/8/3 15/6/3
