# Blender 4.4.3
# www.blender.org
mtllib LOGOB.mtl
o LOGOB
v -18.341551 16.051617 -310.920685
v -18.341551 13.526404 -310.920685
v -24.350790 16.051617 -311.053925
v -24.350790 13.526404 -311.053925
v -24.665909 15.853026 -311.049805
v -24.665909 13.526404 -311.049805
v -30.675150 15.853026 -311.183075
v -30.675150 13.526404 -311.183075
v -5.605821 16.051617 -310.720215
v -5.605821 13.526404 -310.720215
v -11.615062 16.051617 -310.853455
v -11.615062 13.526404 -310.853455
v -11.930180 15.941747 -310.849365
v -11.930180 13.526404 -310.849365
v -17.939421 15.941747 -310.982605
v -17.939421 13.526404 -310.982605
v 13.003149 16.051617 -310.713074
v 13.003149 13.526404 -310.713074
v 6.992891 16.051617 -310.787018
v 6.992891 13.526404 -310.787018
v 6.677826 15.821418 -310.779816
v 6.677826 13.526404 -310.779816
v 0.667564 15.821418 -310.853760
v 0.667564 13.526404 -310.853760
v 488.114624 1.257339 -329.744598
v 488.114624 -1.069283 -329.744598
v 486.487701 1.257339 -335.530945
v 486.487701 -1.069283 -335.530945
v 493.363892 1.455930 -311.418640
v 493.363892 -1.069281 -311.418640
v 491.736969 1.455930 -317.204987
v 491.736969 -1.069282 -317.204987
v 422.244080 0.926215 14.179542
v 422.244080 -1.489128 14.179543
v 416.234833 0.926215 14.046294
v 416.234833 -1.489128 14.046294
v 460.217255 0.865177 14.223846
v 460.217255 -1.660035 14.223846
v 454.208008 0.865177 14.090597
v 454.208008 -1.660035 14.090597
v 453.892914 0.666587 14.094706
v 453.892914 -1.660035 14.094706
v 447.883667 0.666587 13.961457
v 447.883667 -1.660035 13.961457
v 472.953003 0.865177 14.424300
v 472.953003 -1.660035 14.424300
v 466.943756 0.865177 14.291052
v 466.943756 -1.660035 14.291052
v 466.628632 0.755308 14.295159
v 466.628632 -1.660035 14.295160
v 460.619385 0.755308 14.161912
v 460.619385 -1.660035 14.161912
v -305.446106 4.756214 -863.963745
v -305.446106 0.404564 -863.963745
v -294.204865 4.756214 -863.811157
v -294.204865 0.404564 -863.811157
v -250.289307 3.919815 -810.680115
v -250.289307 -0.803273 -810.680115
v -261.524811 3.919815 -811.070679
v -261.524811 -0.803273 -811.070679
v 365.982086 35.080635 -909.062927
v 365.982086 32.555424 -909.062927
v 361.051758 35.080635 -912.501038
v 361.051758 32.555424 -912.501038
v 360.787079 35.114426 -912.672119
v 360.787079 32.787804 -912.672119
v 355.856750 35.114426 -916.110229
v 355.856750 32.787804 -916.110229
v 376.476532 34.797684 -901.844543
v 376.476532 32.272472 -901.844543
v 371.546234 34.797684 -905.282654
v 371.546234 32.272472 -905.282654
v 371.281555 34.815994 -905.453735
v 371.281555 32.400650 -905.453735
v 366.351227 34.815994 -908.891846
v 366.351227 32.400650 -908.891846
v 334.431000 36.381794 -930.922119
v 334.431000 33.966450 -930.922119
v 329.383423 36.381794 -934.185608
v 329.383423 33.966450 -934.185608
v 469.270447 35.649918 -744.765015
v 469.270447 32.011345 -744.765015
v 457.268707 35.539341 -739.247009
v 457.268707 31.900766 -739.247009
v 254.222778 30.528502 -636.828003
v 254.222778 25.224390 -636.828003
v 237.595734 29.652010 -628.915161
v 237.595734 24.347898 -628.915161
v -198.980072 3.553255 8.819662
v -198.980072 1.960801 8.819663
v -198.980072 3.553254 6.849913
v -198.980072 1.960801 6.849913
v -204.787338 3.553255 8.819663
v -204.787338 1.960802 8.819663
v -204.787338 3.553254 6.849913
v -204.787338 1.960801 6.849913
v -210.639709 3.641836 8.819662
v -210.639709 2.049383 8.819663
v -210.639709 3.641835 6.849912
v -210.639709 2.049382 6.849912
v -216.368011 3.867452 8.819663
v -216.368011 2.274999 8.819664
v -216.368011 3.867450 6.849913
v -216.368011 2.274997 6.849913
v -222.335541 4.055775 8.819663
v -222.335541 2.463322 8.819664
v -222.335541 4.055775 6.849914
v -222.335541 2.463321 6.849914
v -227.392273 4.281199 8.819662
v -227.392273 2.688748 8.819663
v -227.392273 4.281199 6.849912
v -227.392258 2.688747 6.849912
v -233.359802 4.432320 8.819662
v -233.359802 2.839867 8.819663
v -233.359787 4.432320 6.849912
v -233.359787 2.839866 6.849912
v -240.488937 4.744308 8.819662
v -240.488937 3.151857 8.819663
v -240.488937 4.744308 6.849913
v -240.488937 3.151856 6.849913
v -246.456482 5.069031 8.819662
v -246.456482 3.476580 8.819663
v -246.456467 5.069031 6.849912
v -246.456467 3.476579 6.849912
v -83.171371 3.955463 17.226851
v -83.171371 4.839841 17.226851
v -80.682037 4.683475 17.236816
v -80.682037 3.799096 17.236816
v -78.192673 4.683475 17.246695
v -78.192673 3.799096 17.246695
v -75.703339 4.839841 17.256651
v -75.703339 3.955463 17.256651
v -321.469391 25.658501 -517.366577
v -321.469391 26.542879 -517.366577
v -321.479370 26.386513 -514.877197
v -321.479370 25.502132 -514.877197
v -321.489258 26.386513 -512.387878
v -321.489258 25.502132 -512.387878
v -321.499207 26.542879 -509.898499
v -321.499207 25.658501 -509.898499
v 532.690308 2.282821 -286.151733
v 532.690308 3.167199 -286.151733
v 532.004639 3.010832 -288.544800
v 532.004639 2.126454 -288.544800
v 531.318848 3.010832 -290.937836
v 531.318848 2.126454 -290.937836
v 530.633118 3.167199 -293.330902
v 530.633118 2.282821 -293.330902
v 536.586121 -0.715179 -181.011765
v 536.586121 0.169200 -181.011765
v 538.410767 0.012833 -181.551025
v 538.410767 -0.871545 -181.551025
v 540.271362 0.012833 -182.108246
v 540.271362 -0.871545 -182.108246
v 541.818054 0.169200 -182.543686
v 541.818054 -0.715178 -182.543686
v 536.603394 0.169200 -180.948898
v 536.603394 -0.715179 -180.948898
v 538.428040 0.012833 -181.488159
v 538.428040 -0.871545 -181.488159
v 540.288635 0.012833 -182.045395
v 540.288635 -0.871545 -182.045395
v 541.835327 0.169200 -182.480820
v 541.835327 -0.715178 -182.480820
v 352.447968 42.781136 -994.042786
v 352.447968 43.665512 -994.042786
v 350.607941 43.509148 -995.719421
v 350.607941 42.624767 -995.719421
v 348.767822 43.509148 -997.396057
v 348.767822 42.624767 -997.396057
v 346.927795 43.665512 -999.072693
v 346.927795 42.781136 -999.072693
v 389.112549 2.282845 20.669317
v 389.112549 3.167223 20.669317
v 391.601868 3.010856 20.679283
v 391.601868 2.126478 20.679283
v 394.091248 3.010856 20.689161
v 394.091248 2.126478 20.689161
v 396.580566 3.167223 20.699118
v 396.580566 2.282845 20.699118
v 465.208679 39.302460 -892.494568
v 465.208679 40.186836 -892.494568
v 463.368652 40.030472 -894.171204
v 463.368652 39.146091 -894.171204
v 461.528534 40.030472 -895.847839
v 461.528534 39.146091 -895.847839
v 459.688507 40.186836 -897.524475
v 459.688507 39.302460 -897.524475
v 323.556396 33.828259 -719.776611
v 323.556396 34.712635 -719.776611
v 321.285431 34.556271 -718.757019
v 321.285431 33.671890 -718.757019
v 319.014465 34.556271 -717.737305
v 319.014465 33.671890 -717.737305
v 316.743530 34.712635 -716.717651
v 316.743530 33.828259 -716.717651
v -16.669785 1.683423 -19.180433
v 4.582371 1.683423 -19.180433
v 4.582371 3.169321 -19.180433
v -16.669785 3.169321 -19.180433
v 69.105118 1.683423 -19.180433
v 88.478577 1.683423 -19.180433
v 88.478577 3.169321 -19.180433
v 69.105118 3.169321 -19.180433
v 29.929327 6.284286 -19.780918
v 29.929327 4.981606 -19.780918
v 37.183502 6.284286 -19.780918
v 37.183502 4.981606 -19.780918
v 104.317543 6.284286 -19.780918
v 104.317543 4.981606 -19.780918
v 111.571724 6.284286 -19.780918
v 111.571724 4.981606 -19.780918
v 94.959686 6.284286 -19.780918
v 94.959686 4.981606 -19.780918
v 102.213860 6.284286 -19.780918
v 102.213860 4.981606 -19.780918
v -265.954285 4.163901 -39.870686
v -265.952637 3.203430 -39.872452
v -262.444427 2.984380 -36.778004
v -262.445984 3.944850 -36.776169
v -258.802002 2.770741 -33.842697
v -258.803467 3.731209 -33.840794
v -274.016602 20.652803 -337.166626
v -274.019043 19.692362 -337.166595
v -274.019043 19.777443 -342.188293
v -274.016602 20.737883 -342.188232
v -225.791000 20.514412 -433.095978
v -225.790939 19.553919 -433.093567
v -228.899323 19.515062 -432.806366
v -228.899689 20.475554 -432.808716
v -231.941513 19.476088 -432.106659
v -231.942200 20.436573 -432.108948
v -234.863022 19.440020 -431.007019
v -234.864014 20.400501 -431.009216
v -237.611557 19.410976 -429.527161
v -237.612823 20.371452 -429.529175
v -242.398514 20.350616 -425.540619
v -242.396744 19.390146 -425.539001
v -244.347687 19.403372 -423.102173
v -244.349655 20.363840 -423.103516
v -245.955795 19.432600 -420.426636
v -245.957932 20.393072 -420.427734
v -240.139404 20.353701 -427.695374
v -240.137878 19.393230 -427.693542
v 29.659521 12.534069 -311.502380
v 29.659491 11.573630 -311.500000
v 23.832613 11.538126 -311.455170
v 23.832624 12.498565 -311.457550
v 18.300497 12.463895 -311.493927
v 18.300486 11.503456 -311.491516
v 12.251785 11.469683 -311.444214
v 12.251796 12.430122 -311.446625
v -5.874645 12.334826 -311.357544
v -5.874292 11.374388 -311.355164
v -12.063037 11.344840 -311.362488
v -12.063254 12.305280 -311.364868
v 6.330123 12.397312 -311.439697
v 6.330768 11.436873 -311.437378
v 0.263790 11.405087 -311.413300
v 0.263276 12.365525 -311.415649
v -18.281975 12.276946 -311.342804
v -18.281916 11.316507 -311.340393
v -24.510231 11.289450 -311.410950
v -24.510166 12.249890 -311.413361
v -30.727161 12.224175 -311.736328
v -30.727348 11.263736 -311.733948
v -36.912720 11.239425 -312.413971
v -36.912376 12.199864 -312.416321
v 77.116104 12.002220 -365.451935
v 77.116318 12.962659 -365.449554
v 71.434082 12.922147 -365.369873
v 71.433792 11.961707 -365.372253
v 173.637161 13.674293 -365.412018
v 173.637039 12.713853 -365.414429
v 178.207550 12.743822 -365.431854
v 178.207672 13.704260 -365.429443
v 182.766678 12.772599 -365.425354
v 182.766922 13.733038 -365.422943
v 187.369720 12.800109 -365.435577
v 187.370071 13.760548 -365.433197
v 191.892593 12.826313 -365.432770
v 191.892975 13.786752 -365.430389
v 242.187073 13.952577 -347.515778
v 242.188156 12.992138 -347.513611
v 237.321121 12.980596 -345.218292
v 237.320145 13.941035 -345.220490
v 528.741211 0.306942 -420.690796
v 528.738892 -0.653552 -420.691345
v 528.791321 -0.437285 -425.311035
v 528.793640 0.523210 -425.310577
v 528.472229 2.263899 -457.813171
v 528.469849 1.303394 -457.812866
v 527.709900 1.580237 -462.362671
v 527.712280 2.540743 -462.363098
v 529.446411 1.472811 -444.010803
v 529.443970 0.512308 -444.010773
v 529.338013 0.769077 -448.626556
v 529.340393 1.729580 -448.626678
v 399.855652 -3.276727 -19.025379
v 399.856079 -2.316288 -19.023041
v 396.766815 -2.316289 -18.434200
v 396.766602 -3.276727 -18.436577
v 402.553589 -3.276726 -19.805397
v 402.554169 -2.316286 -19.803082
v 413.544098 -3.276723 -25.994810
v 413.545258 -2.316285 -25.992739
v 410.151062 -2.316285 -23.684734
v 410.150055 -3.276725 -23.686909
v 415.840393 -3.276724 -28.104017
v 415.841766 -2.316284 -28.102030
v 406.538727 -3.276725 -21.454033
v 406.539520 -2.316287 -21.451773
v 418.102997 -3.276723 -31.785885
v 418.104492 -2.316283 -31.784039
v 420.407318 -3.276722 -35.638187
v 420.408936 -2.316284 -35.636436
v 117.962860 -0.707289 13.467169
v 117.962860 -1.667728 13.469568
v 112.941193 -1.667728 13.469568
v 112.941193 -0.707289 13.467169
v 97.876213 -0.707287 13.467171
v 97.876213 -1.667726 13.469572
v 92.854538 -1.667726 13.469572
v 92.854538 -0.707287 13.467171
v 107.919525 -0.707288 13.467169
v 107.919525 -1.667727 13.469568
v 102.897858 -1.667727 13.469568
v 102.897858 -0.707288 13.467171
v 87.832878 -0.707286 13.467175
v 87.832878 -1.667725 13.469572
v 82.811226 -1.667725 13.469572
v 82.811226 -0.707286 13.467175
v 77.789558 -0.707285 13.467175
v 77.789558 -1.667724 13.469576
v 72.767891 -1.667724 13.469576
v 72.767891 -0.707285 13.467175
v -62.816868 -0.301133 -8.502403
v -62.816868 -1.667731 -8.504804
v -57.795208 -1.667731 -8.504804
v -57.795208 -0.301132 -8.502403
v -52.773544 -0.301132 -8.502403
v -52.773544 -1.667730 -8.504804
v -47.751884 -1.667730 -8.504804
v -47.751884 -0.301131 -8.502403
v -42.730240 -0.301131 -8.502403
v -42.730240 -1.667729 -8.504804
v -37.708572 -1.667729 -8.504804
v -37.708572 -0.301130 -8.502403
v -111.607407 6.388023 -812.921387
v -111.609726 5.431727 -812.922058
v -109.752213 5.958789 -819.123962
v -109.749908 6.915088 -819.123230
v -107.526321 6.482589 -825.200806
v -107.524109 7.438882 -825.199951
v -104.940475 7.002338 -831.130676
v -104.938339 7.958632 -831.129639
v -102.004288 7.551842 -836.892273
v -102.002197 8.508134 -836.891113
v -98.728638 8.126013 -842.464844
v -98.726562 9.082302 -842.463623
v 448.625488 32.203232 -851.838745
v 448.624115 31.247658 -851.836792
v 444.528290 31.185062 -854.704712
v 444.529694 32.140530 -854.706665
v 440.432526 31.112820 -857.572571
v 440.433960 32.068184 -857.574524
v 337.741516 35.364487 -998.857239
v 337.742584 34.405655 -998.859375
v 345.066071 34.322083 -993.277893
v 345.064911 35.280838 -993.275818
v 352.695618 34.201065 -987.336487
v 352.694366 35.159737 -987.334412
v 370.833313 32.055061 -906.332947
v 370.831970 31.099804 -906.330994
v 366.747711 31.255505 -909.209717
v 366.749054 32.210861 -909.211609
v 362.647369 31.420967 -912.094360
v 362.648743 32.376419 -912.096313
v 358.530701 31.593147 -914.984863
v 358.532104 32.548695 -914.986816
v 280.450989 26.306862 -650.073547
v 280.451996 25.350567 -650.071411
v 275.920471 25.105368 -647.958313
v 275.919464 26.061663 -647.960449
v 271.388916 24.856342 -645.845215
v 271.387939 25.812639 -645.847412
v 284.982513 26.547968 -652.186646
v 284.983521 25.591671 -652.184448
v -302.427582 23.104122 -502.513153
v -302.427582 21.511669 -502.513153
v -300.457825 23.104122 -502.516052
v -300.457825 21.511669 -502.516052
v -302.436096 23.051592 -512.510010
v -302.436096 21.459139 -512.510010
v -300.466339 23.051592 -512.512878
v -300.466339 21.459139 -512.512878
v -302.444641 23.007998 -522.509827
v -302.444641 21.415545 -522.509827
v -300.474915 23.007998 -522.512695
v -300.474915 21.415545 -522.512695
v -302.453064 23.012173 -532.525818
v -302.453064 21.419720 -532.525818
v -300.483307 23.012173 -532.528748
v -300.483307 21.419720 -532.528748
v -302.461792 23.104116 -542.517700
v -302.461792 21.511662 -542.517700
v -300.492035 23.104116 -542.520630
v -300.492035 21.511662 -542.520569
v -301.648346 23.104113 -552.519470
v -301.648346 21.511660 -552.519470
v -299.678589 23.104113 -552.522400
v -299.678589 21.511660 -552.522400
v -302.147827 22.987545 -562.500854
v -302.147827 21.395092 -562.500854
v -300.178070 22.987545 -562.503723
v -300.178070 21.395092 -562.503723
v -302.620697 22.982580 -572.548157
v -302.620697 21.390127 -572.548157
v -300.650970 22.982580 -572.551025
v -300.650970 21.390127 -572.551025
v -303.033173 22.832001 -582.566895
v -303.033173 21.239548 -582.566895
v -301.063416 22.832001 -582.569763
v -301.063416 21.239548 -582.569763
v 437.919647 12.219339 -515.133545
v 437.919647 13.103717 -515.133545
v 435.884644 12.947350 -513.699829
v 435.884644 12.062973 -513.699829
v 433.849609 12.947350 -512.265991
v 433.849609 12.062973 -512.265991
v 431.814606 13.452289 -510.832214
v 431.814606 12.567912 -510.832214
v 429.613892 12.716346 -509.249481
v 429.613892 13.600724 -509.249481
v 427.578888 13.444357 -507.815735
v 427.578888 12.559978 -507.815735
v 425.543884 13.444357 -506.381897
v 425.543884 12.559978 -506.381897
v 423.508850 13.907165 -504.948151
v 423.508850 13.022786 -504.948151
v 453.585632 11.308024 -526.319092
v 453.585632 12.192403 -526.319092
v 451.550598 12.036036 -524.885376
v 451.550598 11.151659 -524.885376
v 449.515564 12.036036 -523.451538
v 449.515564 11.151660 -523.451538
v 447.480560 12.545180 -522.017761
v 447.480560 11.660803 -522.017761
v 445.279846 11.809232 -520.435059
v 445.279846 12.693610 -520.435059
v 443.244873 12.778721 -519.001282
v 443.244873 11.894343 -519.001282
v 441.209808 12.845135 -517.567444
v 441.209808 11.960756 -517.567444
v 439.174805 13.001502 -516.133728
v 439.174805 12.117124 -516.133728
v 259.494141 -1.007892 -25.470142
v 259.494141 -2.524829 -25.470142
v 267.941467 -1.007892 -25.470142
v 267.941467 -2.524829 -25.470142
v 309.285126 17.643833 -391.578308
v 309.285126 15.118621 -391.578308
v 304.330658 17.643833 -388.175079
v 304.330658 15.118621 -388.175079
v 304.077332 17.445244 -387.987640
v 304.077332 15.118621 -387.987640
v 299.122864 17.445244 -384.584412
v 299.122864 15.118622 -384.584412
v 319.737549 17.643831 -398.857483
v 319.737549 15.118620 -398.857483
v 314.783081 17.643831 -395.454254
v 314.783081 15.118621 -395.454254
v 314.529755 17.533962 -395.266785
v 314.529755 15.118621 -395.266785
v 309.575287 17.533962 -391.863556
v 309.575287 15.118621 -391.863556
v 334.843231 17.643831 -409.725403
v 334.843231 15.118620 -409.725403
v 329.922577 17.643831 -406.273468
v 329.922577 15.118620 -406.273468
v 329.671112 17.413633 -406.083496
v 329.671112 15.118620 -406.083496
v 324.750458 17.413633 -402.631561
v 324.750458 15.118620 -402.631561
vn 0.0222 -0.0000 -0.9998
vn 0.0123 -0.0000 -0.9999
vn 0.9627 -0.0000 -0.2707
vn -0.0136 -0.0000 0.9999
vn 0.0347 -0.0000 -0.9994
vn 0.5720 -0.0000 -0.8203
vn 0.5720 -0.0000 -0.8202
vn 0.5429 -0.0000 -0.8398
vn 0.5430 -0.0000 -0.8398
vn -0.4177 -0.0000 -0.9086
vn -0.4297 -0.0000 -0.9030
vn 1.0000 -0.0000 -0.0000
vn 0.0040 -0.0000 -1.0000
vn 1.0000 -0.0000 0.0040
vn -0.9613 -0.0000 0.2754
vn -0.9613 -0.0000 0.2755
vn -0.2834 -0.0000 -0.9590
vn -0.2851 -0.0000 -0.9585
vn -0.2852 -0.0000 -0.9585
vn -0.2787 -0.0000 -0.9604
vn -0.2792 -0.0000 -0.9602
vn -0.2710 -0.0000 -0.9626
vn 0.2834 -0.0000 0.9590
vn 0.2851 -0.0000 0.9585
vn 0.2852 -0.0000 0.9585
vn 0.2787 -0.0000 0.9604
vn 0.2792 -0.0000 0.9602
vn 0.2710 -0.0000 0.9626
vn -0.6735 -0.0000 0.7392
vn 0.4096 -0.0000 0.9123
vn -0.0000 -0.0000 1.0000
vn -0.6616 -0.0025 0.7499
vn -0.6442 -0.0025 0.7648
vn -0.6452 -0.0025 0.7640
vn -0.6276 -0.0025 0.7786
vn 1.0000 -0.0025 -0.0000
vn -0.0920 -0.0025 -0.9958
vn -0.1589 -0.0025 -0.9873
vn -0.1579 -0.0025 -0.9875
vn -0.2893 -0.0025 -0.9572
vn -0.2883 -0.0025 -0.9575
vn -0.4145 -0.0025 -0.9101
vn -0.4137 -0.0025 -0.9104
vn -0.4741 -0.0025 -0.8805
vn -0.7371 -0.0025 -0.6758
vn -0.7370 -0.0025 -0.6759
vn -0.8205 -0.0025 -0.5716
vn -0.8209 -0.0025 -0.5711
vn -0.8571 -0.0025 -0.5151
vn -0.6902 -0.0025 -0.7236
vn -0.0077 -0.0025 -1.0000
vn -0.0078 -0.0025 -1.0000
vn 0.0012 -0.0025 -1.0000
vn -0.0040 -0.0024 -1.0000
vn -0.0039 -0.0024 -1.0000
vn 0.0113 -0.0025 -0.9999
vn 0.1093 -0.0025 -0.9940
vn 0.0140 -0.0025 0.9999
vn 0.0038 -0.0025 1.0000
vn 0.0012 -0.0025 1.0000
vn 0.0004 -0.0025 1.0000
vn 0.0008 -0.0025 1.0000
vn -0.0006 -0.0025 1.0000
vn -0.4265 -0.0025 -0.9045
vn -0.4265 -0.0026 -0.9045
vn 0.9999 -0.0023 0.0112
vn 0.9999 -0.0024 0.0112
vn 0.9863 -0.0026 -0.1649
vn 0.9997 -0.0025 -0.0231
vn 0.2327 -0.0025 0.9725
vn 0.1872 -0.0025 0.9823
vn 0.3305 -0.0025 0.9438
vn 0.6210 -0.0024 0.7838
vn 0.5442 -0.0025 0.8389
vn 0.7716 -0.0024 0.6361
vn 0.7716 -0.0025 0.6362
vn 0.4556 -0.0025 0.8902
vn 0.4555 -0.0025 0.8902
vn 0.8551 -0.0024 0.5185
vn 0.8582 -0.0023 0.5133
vn -0.0000 -0.0025 -1.0000
vn -0.0000 -0.0018 1.0000
vn 0.9580 -0.0025 0.2867
vn 0.9495 -0.0025 0.3139
vn 0.9485 -0.0025 0.3169
vn 0.9289 -0.0025 0.3704
vn 0.9277 -0.0025 0.3732
vn 0.9050 -0.0025 0.4255
vn 0.9036 -0.0025 0.4283
vn 0.8778 -0.0025 0.4790
vn 0.8762 -0.0025 0.4819
vn 0.8622 -0.0025 0.5066
vn 0.5736 -0.0025 -0.8191
vn 0.5736 -0.0026 -0.8191
vn -0.6062 -0.0025 0.7953
vn -0.6103 -0.0025 0.7921
vn -0.6103 -0.0025 0.7922
vn -0.6144 -0.0025 0.7890
vn 0.5761 -0.0024 -0.8174
vn 0.5761 -0.0025 -0.8174
vn 0.5757 -0.0024 -0.8177
vn 0.5750 -0.0025 -0.8182
vn 0.5749 -0.0025 -0.8182
vn 0.5746 -0.0025 -0.8185
vn -0.4225 -0.0025 -0.9064
vn 0.0014 -0.0000 1.0000
vn 0.0015 -0.0000 1.0000
vn 0.5759 -0.0000 0.8175
vn 0.5760 -0.0000 0.8175
vn -0.5662 -0.0000 -0.8243
vn -0.5743 -0.0000 -0.8186
vt 0.000000 2.000000
vt 0.000000 1.000000
vt 1.000000 2.000000
vt 1.000000 1.000000
vt 0.440000 1.999501
vt 0.440000 1.000500
vt 0.999501 1.999500
vt 0.999500 1.000499
vt 0.999500 1.000501
vt 0.999500 1.999501
vt 0.666500 1.999500
vt 0.666500 1.000500
vt 0.333500 1.999500
vt 0.333500 1.000500
vt 0.000499 1.999499
vt 0.000500 1.000499
vt 0.000500 1.999501
vt 0.000500 1.000501
vt 0.999501 1.999499
vt 0.000999 1.000499
vt 1.999001 1.000499
vt 1.999001 1.999501
vt 0.000999 1.999501
vt 0.001498 1.000499
vt 2.998502 1.000499
vt 2.998502 1.999501
vt 0.001498 1.999501
vt 0.000000 1.000500
s 1
usemtl CMWLALOGOB.018
f 1/1/1 2/2/1 3/3/1
f 4/4/1 3/3/1 2/2/1
f 5/1/1 6/2/1 7/3/1
f 8/4/1 7/3/1 6/2/1
f 9/1/1 10/2/1 11/3/1
f 12/4/1 11/3/1 10/2/1
f 13/1/1 14/2/1 15/3/1
f 16/4/1 15/3/1 14/2/1
f 17/1/2 18/2/2 19/3/2
f 20/4/2 19/3/2 18/2/2
f 21/1/2 22/2/2 23/3/2
f 24/4/2 23/3/2 22/2/2
f 25/1/3 26/2/3 27/3/3
f 28/4/3 27/3/3 26/2/3
f 29/1/3 30/2/3 31/3/3
f 32/4/3 31/3/3 30/2/3
f 33/1/1 34/2/1 35/3/1
f 36/4/1 35/3/1 34/2/1
f 37/1/1 38/2/1 39/3/1
f 40/4/1 39/3/1 38/2/1
f 41/1/1 42/2/1 43/3/1
f 44/4/1 43/3/1 42/2/1
f 45/1/1 46/2/1 47/3/1
f 48/4/1 47/3/1 46/2/1
f 49/1/1 50/2/1 51/3/1
f 52/4/1 51/3/1 50/2/1
f 53/1/4 54/2/4 55/3/4
f 56/4/4 55/3/4 54/2/4
f 57/1/5 58/2/5 59/3/5
f 60/4/5 59/3/5 58/2/5
f 61/1/6 62/2/6 63/3/6
f 64/4/6 63/3/6 62/2/6
f 65/1/6 66/2/6 67/3/6
f 68/4/6 67/3/6 66/2/6
f 69/1/6 70/2/6 71/3/6
f 72/4/7 71/3/6 70/2/6
f 73/1/6 74/2/6 75/3/6
f 76/4/6 75/3/6 74/2/6
f 77/1/8 78/2/8 79/3/9
f 80/4/9 79/3/9 78/2/8
f 81/1/10 82/2/10 83/3/10
f 84/4/10 83/3/10 82/2/10
f 85/1/11 86/2/11 87/3/11
f 88/4/11 87/3/11 86/2/11
f 89/5/12 90/6/12 91/7/12
f 92/8/12 91/7/12 90/6/12
f 93/5/12 94/6/12 95/7/12
f 96/8/12 95/7/12 94/6/12
f 97/5/12 98/6/12 99/7/12
f 100/8/12 99/7/12 98/6/12
f 101/5/12 102/6/12 103/7/12
f 104/8/12 103/7/12 102/6/12
f 105/5/12 106/6/12 107/7/12
f 108/8/12 107/7/12 106/6/12
f 109/5/12 110/6/12 111/7/12
f 112/8/12 111/7/12 110/6/12
f 113/5/12 114/6/12 115/7/12
f 116/8/12 115/7/12 114/6/12
f 117/5/12 118/6/12 119/7/12
f 120/8/12 119/7/12 118/6/12
f 121/5/12 122/6/12 123/7/12
f 124/8/12 123/7/12 122/6/12
f 125/9/13 126/10/13 127/11/13
f 127/11/13 128/12/13 125/9/13
f 128/12/13 127/11/13 129/13/13
f 129/13/13 130/14/13 128/12/13
f 130/14/13 129/13/13 131/15/13
f 131/15/13 132/16/13 130/14/13
f 133/9/14 134/10/14 135/11/14
f 135/11/14 136/12/14 133/9/14
f 136/12/14 135/11/14 137/13/14
f 137/13/14 138/14/14 136/12/14
f 138/14/14 137/13/14 139/15/14
f 139/15/14 140/16/14 138/14/14
f 141/9/15 142/10/15 143/11/16
f 143/11/16 144/12/16 141/9/15
f 144/12/16 143/11/16 145/13/16
f 145/13/16 146/14/16 144/12/16
f 146/14/16 145/13/16 147/15/16
f 147/15/16 148/16/16 146/14/16
f 149/9/17 150/10/17 151/11/18
f 151/11/18 152/12/19 149/9/17
f 152/12/19 151/11/18 153/13/20
f 153/13/20 154/14/21 152/12/19
f 154/14/21 153/13/20 155/15/22
f 155/15/22 156/16/22 154/14/21
f 157/17/23 158/18/23 159/13/24
f 160/14/25 159/13/24 158/18/23
f 159/13/24 160/14/25 161/11/26
f 162/12/27 161/11/26 160/14/25
f 161/11/26 162/12/27 163/19/28
f 164/8/28 163/19/28 162/12/27
f 165/9/29 166/10/29 167/11/29
f 167/11/29 168/12/29 165/9/29
f 168/12/29 167/11/29 169/13/29
f 169/13/29 170/14/29 168/12/29
f 170/14/29 169/13/29 171/15/29
f 171/15/29 172/16/29 170/14/29
f 173/9/13 174/10/13 175/11/13
f 175/11/13 176/12/13 173/9/13
f 176/12/13 175/11/13 177/13/13
f 177/13/13 178/14/13 176/12/13
f 178/14/13 177/13/13 179/15/13
f 179/15/13 180/16/13 178/14/13
f 181/9/29 182/10/29 183/11/29
f 183/11/29 184/12/29 181/9/29
f 184/12/29 183/11/29 185/13/29
f 185/13/29 186/14/29 184/12/29
f 186/14/29 185/13/29 187/15/29
f 187/15/29 188/16/29 186/14/29
f 189/9/30 190/10/30 191/11/30
f 191/11/30 192/12/30 189/9/30
f 192/12/30 191/11/30 193/13/30
f 193/13/30 194/14/30 192/12/30
f 194/14/30 193/13/30 195/15/30
f 195/15/30 196/16/30 194/14/30
f 197/20/31 198/21/31 199/22/31
f 199/22/31 200/23/31 197/20/31
f 201/24/31 202/25/31 203/26/31
f 203/26/31 204/27/31 201/24/31
f 205/1/31 206/2/31 207/3/31
f 208/4/31 207/3/31 206/2/31
f 209/1/31 210/2/31 211/3/31
f 212/4/31 211/3/31 210/2/31
f 213/1/31 214/2/31 215/3/31
f 216/4/31 215/3/31 214/2/31
f 217/1/32 218/28/32 219/4/33
f 219/4/33 220/3/34 217/1/32
f 220/1/34 219/28/33 221/4/35
f 221/4/35 222/3/35 220/1/34
f 223/1/36 224/28/36 225/4/36
f 225/4/36 226/3/36 223/1/36
f 227/1/37 228/28/37 229/4/38
f 229/4/38 230/3/39 227/1/37
f 230/1/39 229/28/38 231/4/40
f 231/4/40 232/3/41 230/1/39
f 232/1/41 231/28/40 233/4/42
f 233/4/42 234/3/43 232/1/41
f 234/1/43 233/28/42 235/4/44
f 235/4/44 236/3/44 234/1/43
f 237/1/45 238/28/46 239/4/47
f 239/4/47 240/3/48 237/1/45
f 240/1/48 239/28/47 241/4/49
f 241/4/49 242/3/49 240/1/48
f 243/1/50 244/28/50 238/4/46
f 238/4/46 237/3/45 243/1/50
f 245/1/51 246/28/51 247/4/51
f 247/4/51 248/3/51 245/1/51
f 249/1/52 250/28/52 251/4/52
f 251/4/52 252/3/52 249/1/52
f 253/1/53 254/28/53 255/4/53
f 255/4/53 256/3/53 253/1/53
f 257/1/54 258/28/54 259/4/55
f 259/4/55 260/3/55 257/1/54
f 261/1/56 262/28/56 263/4/56
f 263/4/56 264/3/56 261/1/56
f 265/1/57 266/28/57 267/4/57
f 267/4/57 268/3/57 265/1/57
f 269/4/58 270/3/58 271/1/58
f 271/1/58 272/28/58 269/4/58
f 273/1/59 274/28/59 275/4/60
f 275/4/60 276/3/60 273/1/59
f 276/1/60 275/28/60 277/4/61
f 277/4/61 278/3/61 276/1/60
f 278/1/61 277/28/61 279/4/62
f 279/4/62 280/3/62 278/1/61
f 280/1/62 279/28/62 281/4/63
f 281/4/63 282/3/63 280/1/62
f 283/1/64 284/28/65 285/4/64
f 285/4/64 286/3/64 283/1/64
f 287/1/66 288/28/66 289/4/67
f 289/4/67 290/3/67 287/1/66
f 291/1/68 292/28/68 293/4/68
f 293/4/68 294/3/68 291/1/68
f 295/1/69 296/28/69 297/4/69
f 297/4/69 298/3/69 295/1/69
f 299/4/70 300/3/70 301/1/71
f 301/1/71 302/28/71 299/4/70
f 303/4/72 304/3/72 300/1/70
f 300/1/70 299/28/70 303/4/72
f 305/4/73 306/3/73 307/1/74
f 307/1/74 308/28/74 305/4/73
f 309/4/75 310/3/76 306/1/73
f 306/1/73 305/28/73 309/4/75
f 311/4/77 312/3/78 304/1/72
f 304/1/72 303/28/72 311/4/77
f 308/4/74 307/3/74 312/1/78
f 312/1/78 311/28/77 308/4/74
f 313/4/79 314/3/79 310/1/76
f 310/1/76 309/28/75 313/4/79
f 315/4/80 316/3/80 314/1/79
f 314/1/79 313/28/79 315/4/80
f 317/1/81 318/28/81 319/4/81
f 319/4/81 320/3/81 317/1/81
f 321/1/81 322/28/81 323/4/81
f 323/4/81 324/3/81 321/1/81
f 325/1/81 326/28/81 327/4/81
f 327/4/81 328/3/81 325/1/81
f 329/1/81 330/28/81 331/4/81
f 331/4/81 332/3/81 329/1/81
f 333/1/81 334/28/81 335/4/81
f 335/4/81 336/3/81 333/1/81
f 337/1/82 338/28/82 339/4/82
f 339/4/82 340/3/82 337/1/82
f 341/1/82 342/28/82 343/4/82
f 343/4/82 344/3/82 341/1/82
f 345/1/82 346/28/82 347/4/82
f 347/4/82 348/3/82 345/1/82
f 349/1/83 350/28/83 351/4/84
f 351/4/84 352/3/85 349/1/83
f 352/1/85 351/28/84 353/4/86
f 353/4/86 354/3/87 352/1/85
f 354/1/87 353/28/86 355/4/88
f 355/4/88 356/3/89 354/1/87
f 356/1/89 355/28/88 357/4/90
f 357/4/90 358/3/91 356/1/89
f 358/1/91 357/28/90 359/4/92
f 359/4/92 360/3/92 358/1/91
f 361/1/93 362/28/94 363/4/93
f 363/4/93 364/3/93 361/1/93
f 364/1/93 363/28/93 365/4/93
f 365/4/93 366/3/93 364/1/93
f 367/1/95 368/28/95 369/4/96
f 369/4/96 370/3/97 367/1/95
f 370/1/97 369/28/96 371/4/98
f 371/4/98 372/3/98 370/1/97
f 373/1/99 374/28/100 375/4/101
f 375/4/101 376/3/101 373/1/99
f 376/1/101 375/28/101 377/4/102
f 377/4/102 378/3/103 376/1/101
f 378/1/103 377/28/102 379/4/104
f 379/4/104 380/3/104 378/1/103
f 381/1/105 382/28/105 383/4/105
f 383/4/105 384/3/105 381/1/105
f 384/1/105 383/28/105 385/4/105
f 385/4/105 386/3/105 384/1/105
f 387/1/105 388/28/105 382/4/105
f 382/4/105 381/3/105 387/1/105
f 389/5/106 390/6/107 391/7/107
f 392/8/107 391/7/107 390/6/107
f 393/5/107 394/6/106 395/7/106
f 396/8/106 395/7/106 394/6/106
f 397/5/106 398/6/107 399/7/107
f 400/8/107 399/7/107 398/6/107
f 401/5/107 402/6/107 403/7/107
f 404/8/107 403/7/107 402/6/107
f 405/5/107 406/6/107 407/7/107
f 408/8/107 407/7/107 406/6/107
f 409/5/107 410/6/107 411/7/107
f 412/8/107 411/7/107 410/6/107
f 413/5/107 414/6/107 415/7/107
f 416/8/106 415/7/107 414/6/107
f 417/5/106 418/6/107 419/7/107
f 420/8/107 419/7/107 418/6/107
f 421/5/107 422/6/107 423/7/107
f 424/8/106 423/7/107 422/6/107
f 425/9/108 426/10/108 427/11/109
f 427/11/109 428/12/109 425/9/108
f 428/12/109 427/11/109 429/13/109
f 429/13/109 430/14/109 428/12/109
f 430/14/109 429/13/109 431/15/109
f 431/15/109 432/16/108 430/14/109
f 433/9/109 434/10/109 435/11/109
f 435/11/109 436/12/109 433/9/109
f 436/12/109 435/11/109 437/13/109
f 437/13/109 438/14/109 436/12/109
f 438/14/109 437/13/109 439/15/109
f 439/15/109 440/16/109 438/14/109
f 441/9/108 442/10/108 443/11/109
f 443/11/109 444/12/109 441/9/108
f 444/12/109 443/11/109 445/13/109
f 445/13/109 446/14/109 444/12/109
f 446/14/109 445/13/109 447/15/108
f 447/15/108 448/16/108 446/14/109
f 449/9/109 450/10/109 451/11/109
f 451/11/109 452/12/109 449/9/109
f 452/12/109 451/11/109 453/13/109
f 453/13/109 454/14/109 452/12/109
f 454/14/109 453/13/109 455/15/108
f 455/15/108 456/16/108 454/14/109
f 457/1/31 458/2/31 459/3/31
f 460/4/31 459/3/31 458/2/31
f 461/1/110 462/2/110 463/3/110
f 464/4/110 463/3/110 462/2/110
f 465/1/110 466/2/110 467/3/110
f 468/4/110 467/3/110 466/2/110
f 469/1/110 470/2/110 471/3/110
f 472/4/110 471/3/110 470/2/110
f 473/1/110 474/2/110 475/3/110
f 476/4/110 475/3/110 474/2/110
f 477/1/111 478/2/111 479/3/111
f 480/4/111 479/3/111 478/2/111
f 481/1/111 482/2/111 483/3/111
f 484/4/111 483/3/111 482/2/111
