# Blender 4.4.3
# www.blender.org
mtllib LOGOE.mtl
o LOGOE
v 329.261993 17.110741 -444.818726
v 329.261993 14.585530 -444.818726
v 335.031158 17.110741 -446.505615
v 335.031158 14.585530 -446.505615
v 335.330322 16.880543 -446.604645
v 335.330322 14.585530 -446.604645
v 341.099487 16.880543 -448.291534
v 341.099487 14.585530 -448.291534
v 570.325256 10.018373 -533.805054
v 570.325256 7.061468 -533.805054
v 574.062744 10.018373 -527.142822
v 574.062744 7.061469 -527.142822
v 491.327362 4.272201 -316.113739
v 491.327362 1.945578 -316.113739
v 489.700439 4.272201 -321.900085
v 489.700439 1.945578 -321.900085
v 536.488464 4.001369 -372.874786
v 536.488464 1.044465 -372.874786
v 529.771240 4.001369 -369.237030
v 529.771240 1.044465 -369.237030
v 428.568451 1.036084 14.308682
v 428.568451 -1.489128 14.308682
v 422.559204 1.036084 14.175434
v 422.559204 -1.489128 14.175434
v 447.177399 1.036084 14.315842
v 447.177399 -1.489128 14.315842
v 441.167145 1.036084 14.241877
v 441.167145 -1.489128 14.241877
v -259.813171 9.187292 -809.720459
v -259.813171 4.835640 -809.720459
v -271.048676 9.187291 -810.111023
v -271.048676 4.835640 -810.111023
v -129.818848 5.018666 -719.214294
v -129.818848 -1.560249 -719.214294
v -159.441086 4.312879 -716.386719
v -159.441086 -2.266035 -716.386719
v -161.494049 3.688428 -716.512146
v -161.494049 -3.101263 -716.512146
v -188.144684 2.630642 -723.825134
v -188.144684 -4.159049 -723.825134
v 339.749084 36.285080 -927.496887
v 339.749084 33.759869 -927.496887
v 334.701508 36.285080 -930.760437
v 334.701508 33.759869 -930.760437
v 354.935577 35.617165 -916.905273
v 354.935577 33.091953 -916.905273
v 349.973938 35.617165 -920.297974
v 349.973938 33.091953 -920.297974
v 481.896851 35.931797 -750.582397
v 481.896851 32.127712 -750.582397
v 469.895081 35.821217 -745.064392
v 469.895081 32.017132 -745.064392
v 271.716583 31.692146 -645.165588
v 271.716583 26.146763 -645.165588
v 255.089539 30.815657 -637.252747
v 255.089539 25.270273 -637.252747
v 306.063965 31.245306 -661.188965
v 306.063965 27.441219 -661.188965
v 294.085449 30.644234 -655.616638
v 294.085449 26.840147 -655.616638
v -191.176971 6.747149 -2.370723
v -191.176971 3.988808 -2.370721
v -191.176971 6.747148 -12.744051
v -191.176971 3.988806 -12.744051
v -113.694283 3.872931 16.667126
v -113.694283 4.757310 16.667126
v -111.204956 4.600944 16.677073
v -111.204956 3.716564 16.677073
v -108.715584 4.600944 16.686985
v -108.715584 3.716564 16.686985
v -106.226234 4.757310 16.696960
v -106.226234 3.872931 16.696960
v -164.525894 4.642663 20.153255
v -164.525894 5.527040 20.153255
v -162.036575 5.370674 20.163210
v -162.036575 4.486294 20.163210
v -159.547180 5.370674 20.173119
v -159.547180 4.486294 20.173119
v -157.057831 5.527040 20.183090
v -157.057831 4.642663 20.183090
v 398.556244 17.859499 -450.066742
v 398.556244 18.743877 -450.066742
v 400.591217 18.587509 -451.500488
v 400.591217 17.703131 -451.500488
v 402.626221 18.587509 -452.934326
v 402.626221 17.703131 -452.934326
v 404.661255 18.743877 -454.368073
v 404.661255 17.859499 -454.368073
v 383.347198 18.465763 -439.627991
v 383.347198 19.350142 -439.627991
v 385.382202 19.193773 -441.061737
v 385.382202 18.309395 -441.061737
v 387.417236 19.193771 -442.495575
v 387.417236 18.309393 -442.495575
v 389.452240 19.350140 -443.929321
v 389.452240 18.465761 -443.929321
v -321.211121 25.705036 -547.889465
v -321.211121 26.589417 -547.889465
v -321.221069 26.433048 -545.400146
v -321.221069 25.548670 -545.400146
v -321.230988 26.433050 -542.910767
v -321.230988 25.548672 -542.910767
v -321.240967 26.589418 -540.421448
v -321.240967 25.705038 -540.421448
v -321.696838 25.664490 -567.286987
v -321.696838 26.548868 -567.286987
v -321.706787 26.392500 -564.797668
v -321.706787 25.508121 -564.797668
v -321.716705 26.392500 -562.308289
v -321.716705 25.508121 -562.308289
v -321.726654 26.548868 -559.818909
v -321.726654 25.664490 -559.818909
v 540.677856 2.200292 -256.687164
v 540.677856 3.084671 -256.687164
v 539.992126 2.928303 -259.080200
v 539.992126 2.043926 -259.080200
v 539.306396 2.928303 -261.473297
v 539.306396 2.043925 -261.473297
v 538.620667 3.084670 -263.866364
v 538.620667 2.200291 -263.866364
v 551.632751 2.200295 -206.935333
v 551.632751 3.084674 -206.935333
v 550.947021 2.928307 -209.328369
v 550.947021 2.043929 -209.328369
v 550.261292 2.928307 -211.721466
v 550.261292 2.043929 -211.721466
v 549.575562 3.084674 -214.114532
v 549.575562 2.200295 -214.114532
v 548.033813 1.938167 -184.642303
v 548.033813 2.822546 -184.642303
v 550.160950 2.666179 -185.223999
v 550.160950 1.781800 -185.223999
v 552.089539 2.666179 -185.793610
v 552.089539 1.781800 -185.793610
v 553.682068 2.822545 -186.238647
v 553.682068 1.938167 -186.238647
v 374.918304 42.827679 -973.383606
v 374.918304 43.712059 -973.383606
v 373.078247 43.555691 -975.060242
v 373.078247 42.671314 -975.060242
v 371.238159 43.555691 -976.736877
v 371.238159 42.671314 -976.736877
v 369.398102 43.712059 -978.413574
v 369.398102 42.827679 -978.413574
v 389.634094 42.787132 -960.736694
v 389.634094 43.671509 -960.736694
v 387.794037 43.515144 -962.413330
v 387.794037 42.630764 -962.413330
v 385.953918 43.515144 -964.089966
v 385.953918 42.630764 -964.089966
v 384.113892 43.671509 -965.766602
v 384.113892 42.787132 -965.766602
v 358.589630 2.200312 20.109596
v 358.589630 3.084692 20.109596
v 361.078949 2.928324 20.119541
v 361.078949 2.043947 20.119541
v 363.568329 2.928324 20.129446
v 363.568329 2.043947 20.129446
v 366.057678 3.084692 20.139423
v 366.057678 2.200312 20.139423
v 307.757996 2.200312 16.732933
v 307.757996 3.084691 16.732933
v 310.247345 2.928324 16.742889
v 310.247345 2.043946 16.742889
v 312.736725 2.928324 16.752798
v 312.736725 2.043946 16.752798
v 315.226074 3.084691 16.762768
v 315.226074 2.200312 16.762768
v 487.679016 39.349003 -871.835388
v 487.679016 40.233383 -871.835388
v 485.838959 40.077015 -873.512024
v 485.838959 39.192638 -873.512024
v 483.998871 40.077015 -875.188660
v 483.998871 39.192638 -875.188660
v 482.158813 40.233383 -876.865356
v 482.158813 39.349003 -876.865356
v 502.394806 39.308456 -859.188477
v 502.394806 40.192833 -859.188477
v 500.554749 40.036469 -860.865112
v 500.554749 39.152088 -860.865112
v 498.714630 40.036469 -862.541748
v 498.714630 39.152088 -862.541748
v 496.874603 40.192833 -864.218384
v 496.874603 39.308456 -864.218384
v 351.457916 34.511223 -732.154846
v 351.457916 35.395603 -732.154846
v 349.186981 35.239235 -731.135193
v 349.186981 34.354858 -731.135193
v 346.916016 35.239235 -730.115540
v 346.916016 34.354858 -730.115540
v 344.645020 35.395603 -729.095886
v 344.645020 34.511223 -729.095886
v 368.920990 34.974834 -740.613037
v 368.920990 35.859211 -740.613037
v 366.650024 35.702847 -739.593384
v 366.650024 34.818466 -739.593384
v 364.379059 35.702847 -738.573730
v 364.379059 34.818466 -738.573730
v 362.108093 35.859211 -737.554077
v 362.108093 34.974834 -737.554077
v 4.582371 1.683423 -19.180433
v 23.955832 1.683423 -19.180433
v 23.955832 3.169321 -19.180433
v 4.582371 3.169321 -19.180433
v 70.479065 6.284286 -19.780918
v 70.479065 4.981606 -19.780918
v 77.733246 6.284286 -19.780918
v 77.733246 4.981606 -19.780918
v 39.287186 6.284286 -19.780918
v 39.287186 4.981606 -19.780918
v 46.541363 6.284286 -19.780918
v 46.541363 4.981606 -19.780918
v 93.586380 1.683423 -19.180433
v 112.883446 1.683423 -19.180433
v 112.883446 3.169321 -19.180433
v 93.586380 3.169321 -19.180433
v 135.509430 6.284286 -19.780918
v 135.509430 4.981606 -19.780918
v 142.763596 6.284286 -19.780918
v 142.763596 4.981606 -19.780918
v -253.374924 20.503084 -352.474243
v -253.374924 19.922768 -352.800629
v -255.584106 20.503242 -352.474396
v -255.584122 19.922995 -352.800690
v -255.584106 20.499088 -352.432159
v -255.584122 19.922768 -352.231476
v -253.374924 20.499249 -352.431976
v -253.374924 19.922995 -352.231445
v -253.374878 20.689550 -372.536835
v -253.374878 20.109234 -372.863220
v -255.584061 20.689709 -372.536987
v -255.584076 20.109461 -372.863281
v -255.584061 20.685555 -372.494751
v -255.584076 20.109234 -372.294067
v -253.374878 20.685715 -372.494568
v -253.374878 20.109461 -372.294037
v -216.450943 0.955570 8.539674
v -216.450806 1.916009 8.537271
v -210.640244 1.728329 8.547669
v -210.640274 0.767889 8.550063
v -222.247330 1.148811 8.546525
v -222.246780 2.109251 8.544187
v -240.629883 1.760215 8.594739
v -240.629913 2.720655 8.592334
v -233.345810 2.511740 8.578900
v -233.345840 1.551302 8.581296
v -246.442108 1.974013 8.586766
v -246.442032 2.934453 8.584367
v -254.538986 2.155958 8.597646
v -254.539001 3.116397 8.595244
v -255.033966 3.523144 -31.070375
v -255.032608 2.562678 -31.072353
v -251.143631 2.360360 -28.472412
v -251.144913 3.320825 -28.470398
v -247.142929 2.163957 -26.048103
v -247.144135 3.124420 -26.046021
v -249.182800 17.481642 -231.131989
v -249.180878 16.521204 -231.130508
v -253.681656 16.302124 -227.484222
v -253.683502 17.262562 -227.485687
v -257.164948 16.078516 -224.470749
v -257.166748 17.038954 -224.472366
v -244.909119 17.696024 -234.417221
v -244.907120 16.735584 -234.415924
v -260.747314 15.850541 -221.395416
v -260.749023 16.810980 -221.397079
v -274.016602 20.737883 -342.188232
v -274.019043 19.777443 -342.188293
v -274.019043 19.854298 -347.209961
v -274.016663 20.814735 -347.209930
v -274.019043 19.922754 -352.231567
v -274.016663 20.883196 -352.231598
v -274.019043 19.982643 -357.253265
v -274.016663 20.943081 -357.253296
v -274.019043 20.033800 -362.274902
v -274.016663 20.994236 -362.274902
v -76.392776 11.082833 -364.795532
v -76.394745 12.043272 -364.794159
v -79.295921 12.040689 -368.892975
v -79.293968 11.080248 -368.894348
v -73.491585 11.087579 -360.696716
v -73.493546 12.048018 -360.695374
v -70.590416 11.094424 -356.597931
v -70.592361 12.054863 -356.596558
v -67.751625 11.103303 -352.808563
v -67.753510 12.063743 -352.807037
v 33.718849 11.609943 -311.417114
v 33.718887 12.570382 -311.419525
v 38.239967 12.607366 -311.448975
v 38.240002 11.646927 -311.446594
v 42.402401 11.684556 -311.488434
v 42.402370 12.644995 -311.490845
v 47.019363 12.683206 -311.471344
v 47.019455 11.722766 -311.468933
v 196.472839 13.786121 -330.793854
v 196.473297 12.825683 -330.791534
v 190.001709 12.799444 -328.558807
v 190.001373 13.759884 -328.561188
v 184.005890 12.771891 -326.411407
v 184.005234 13.732329 -326.413727
v 178.807999 12.743083 -324.718781
v 178.807404 13.703522 -324.721100
v 173.690887 12.713086 -322.965393
v 173.690399 13.673525 -322.967712
v 315.647980 13.968609 -443.426910
v 315.648041 13.012313 -443.429291
v 320.073975 13.012313 -443.440552
v 320.074066 13.968609 -443.438171
v 324.485077 13.012313 -443.769745
v 324.485321 13.968609 -443.767365
v 328.858582 13.012314 -444.414795
v 328.859009 13.968610 -444.412445
v 337.403503 13.968610 -446.633789
v 337.402740 13.012314 -446.636047
v 341.529358 13.012315 -448.200073
v 341.530304 13.968611 -448.197845
v 345.530579 13.012314 -450.055573
v 345.531677 13.968610 -450.053436
v 333.171875 13.012314 -445.372009
v 333.172455 13.968610 -445.369690
v 388.260590 13.731279 -448.397400
v 388.262024 12.770838 -448.395508
v 384.170776 12.845264 -445.483521
v 384.169373 13.805703 -445.485474
v 380.079620 12.906975 -442.571594
v 380.078217 13.867415 -442.573578
v 371.895844 13.951293 -436.749695
v 371.897217 12.990854 -436.747742
v 367.806061 13.012317 -433.835846
v 367.804688 13.972755 -433.837799
v 375.988464 12.955623 -439.659698
v 375.987061 13.916060 -439.661621
v 473.495941 -3.276716 -124.843651
v 473.497986 -2.316277 -124.842438
v 470.941956 -2.316276 -120.519966
v 470.939911 -3.276715 -120.521202
v 476.051971 -3.276715 -129.166138
v 476.054047 -2.316276 -129.164902
v 468.383850 -3.276716 -116.198723
v 468.385925 -2.316277 -116.197464
v 465.829895 -2.316277 -111.875008
v 465.827820 -3.276716 -111.876221
v 478.608032 -3.276714 -133.488586
v 478.610077 -2.316275 -133.487381
v 516.629639 -3.276710 -148.024292
v 516.629639 -2.316271 -148.021866
v 507.663330 -2.316272 -146.992935
v 507.663086 -3.276711 -146.995331
v 498.989624 -2.316273 -146.117188
v 498.989105 -3.276712 -146.119492
v 548.967651 -3.276720 -72.091286
v 548.965271 -2.316280 -72.091324
v 548.957458 -2.316281 -77.914474
v 548.959900 -3.276719 -77.914398
v 548.941040 -2.316281 -84.106743
v 548.943420 -3.276721 -84.106483
v 548.799072 -3.276718 -62.049377
v 548.796692 -2.316279 -62.049416
v 548.880981 -2.316280 -67.070381
v 548.883423 -3.276719 -67.070328
v 548.714783 -3.276717 -57.028431
v 548.712402 -2.316278 -57.028469
v 548.630554 -3.276717 -52.007488
v 548.628174 -2.316278 -52.007526
v 548.546265 -3.276716 -46.986523
v 548.543823 -2.316278 -46.986572
v 389.133545 -2.316263 13.460571
v 389.133545 -3.276703 13.462960
v 384.111877 -3.276703 13.463211
v 384.111938 -2.316263 13.460812
v 379.090240 -3.276703 13.463431
v 379.090240 -2.316263 13.461042
v 374.068573 -3.276701 13.463682
v 374.068604 -2.316263 13.461259
v 364.025238 -2.316263 13.461720
v 364.025269 -3.276702 13.464125
v 359.003571 -3.276701 13.464352
v 359.003540 -2.316262 13.461946
v 369.046875 -3.276703 13.463888
v 369.046906 -2.316263 13.461493
v 12.508028 -0.301125 -8.502406
v 12.508028 -1.667724 -8.504804
v 17.529684 -1.667723 -8.504804
v 17.529684 -0.301121 -8.502400
v 22.551338 -1.667723 -8.504804
v 22.551338 -0.301124 -8.502402
v 27.573006 -1.667723 -8.504804
v 27.573006 -0.301124 -8.502406
v 32.594673 -1.667722 -8.504804
v 32.594673 -0.301121 -8.502402
v 37.616329 -1.667722 -8.504804
v 37.616329 -0.301121 -8.502403
v 42.637997 -1.667721 -8.504807
v 42.637997 -0.301121 -8.502403
v -77.168411 4.937747 -769.672729
v -77.165649 3.981479 -769.671814
v -79.118637 3.535617 -766.472351
v -79.121323 4.491885 -766.473267
v -81.070709 3.083575 -763.248169
v -81.073425 4.039845 -763.249146
v -75.222900 5.376664 -772.857666
v -75.220215 4.420386 -772.856750
v -83.013382 2.626122 -759.989441
v -83.016068 3.582390 -759.990356
v -169.573914 -5.257072 -752.759583
v -169.572861 -6.213371 -752.761719
v -165.912643 -5.837013 -751.291870
v -165.913422 -4.880714 -751.289612
v -162.135544 -5.445572 -750.224609
v -162.136108 -4.489273 -750.222290
v -173.074615 -5.617611 -754.619385
v -173.073318 -6.573902 -754.621399
v -320.279785 2.724472 -757.547546
v -320.282166 1.768189 -757.547546
v -320.282166 1.160632 -762.547546
v -320.279785 2.116913 -762.547546
v -320.286285 0.565292 -768.177124
v -320.283905 1.521571 -768.177002
v -320.305023 -0.017033 -774.552307
v -320.302643 0.939243 -774.552063
v -262.003693 -7.215890 -824.243896
v -262.003357 -8.172189 -824.241516
v -266.493652 -7.838445 -823.598145
v -266.494354 -6.882150 -823.600464
v -277.257477 -6.123372 -818.566895
v -277.256104 -7.079667 -818.564941
v -281.536896 -6.657372 -815.056763
v -281.538483 -5.701077 -815.058594
v -271.865570 -7.473813 -821.588318
v -271.866608 -6.517522 -821.590454
v 520.971436 31.814531 -836.792297
v 520.973145 30.858240 -836.793945
v 531.228577 30.802401 -828.020630
v 531.226868 31.758692 -828.018982
v 543.997925 30.746998 -815.428833
v 543.995667 31.703293 -815.428528
v 167.793121 24.788826 -900.987671
v 167.794510 23.832531 -900.985718
v 163.723923 23.297636 -898.082214
v 163.722549 24.253931 -898.084167
v 159.653351 22.769768 -895.178711
v 159.651962 23.726065 -895.180603
v 155.582764 22.251089 -892.275146
v 155.581390 23.207384 -892.277100
v 151.512192 21.743769 -889.371643
v 151.510818 22.700064 -889.373596
v 232.601044 33.173836 -1012.680847
v 232.600464 32.217247 -1012.683350
v 238.808182 32.532215 -1015.761047
v 238.808624 33.489056 -1015.758484
v 245.067703 32.838760 -1018.547241
v 245.068054 33.795853 -1018.544678
v 251.365341 33.128761 -1021.036072
v 251.365570 34.086090 -1021.033447
v 257.687073 33.394173 -1023.222290
v 257.687164 34.351730 -1023.219543
v 270.347229 34.777679 -1026.666016
v 270.347351 33.819702 -1026.668823
v 276.658020 33.982349 -1027.922119
v 276.657745 34.940521 -1027.919312
v 264.019043 33.627075 -1025.101074
v 264.019043 34.584846 -1025.098389
v 368.207855 34.258053 -973.722961
v 368.209259 33.300133 -973.724915
v 371.900208 33.015484 -970.425598
v 371.898834 33.973125 -970.423645
v 375.591187 32.723057 -967.126282
v 375.589813 33.680386 -967.124329
v 397.735657 32.242661 -947.328369
v 397.737000 31.287294 -947.330322
v 401.427979 31.133776 -944.031006
v 401.426605 32.089043 -944.029114
v 405.118958 30.992929 -940.731750
v 405.117584 31.948099 -940.729736
v 394.044678 32.407413 -950.627686
v 394.046021 31.451885 -950.629700
v 380.934357 14.689316 -474.579529
v 380.934357 15.573696 -474.579529
v 378.899353 15.417330 -473.145782
v 378.899353 14.532951 -473.145782
v 376.864319 15.417330 -471.711975
v 376.864319 14.532951 -471.711975
v 374.829315 15.573697 -470.278229
v 374.829315 14.689317 -470.278229
v -236.412659 25.856066 -336.982239
v -236.412659 20.714251 -336.982239
v -235.249023 25.856066 -325.033142
v -235.249023 20.714251 -325.033142
vn 0.2806 -0.0000 0.9598
vn 0.2807 -0.0000 0.9598
vn -0.8721 -0.0000 0.4893
vn 0.9627 -0.0000 -0.2707
vn -0.4762 -0.0000 -0.8793
vn 0.0222 -0.0000 -0.9998
vn 0.0123 -0.0000 -0.9999
vn 0.0347 -0.0000 -0.9994
vn -0.0950 -0.0000 -0.9955
vn 0.2646 -0.0000 -0.9644
vn 0.5430 -0.0000 -0.8398
vn 0.5429 -0.0000 -0.8398
vn 0.5645 -0.0000 -0.8255
vn 0.5644 -0.0000 -0.8255
vn -0.4177 -0.0000 -0.9086
vn -0.4297 -0.0000 -0.9030
vn -0.4218 -0.0000 -0.9067
vn 1.0000 -0.0000 -0.0000
vn 0.0040 -0.0000 -1.0000
vn -0.5760 -0.0000 -0.8175
vn -0.5759 -0.0000 -0.8175
vn 1.0000 -0.0000 0.0040
vn -0.9613 -0.0000 0.2755
vn -0.2638 -0.0000 -0.9646
vn -0.2733 -0.0000 -0.9619
vn -0.2738 -0.0000 -0.9618
vn -0.2760 -0.0000 -0.9612
vn -0.2764 -0.0000 -0.9610
vn -0.2691 -0.0000 -0.9631
vn -0.6735 -0.0000 0.7392
vn -0.6735 -0.0000 0.7391
vn 0.4096 -0.0000 0.9123
vn -0.0000 -0.0000 1.0000
vn 0.0001 0.4902 -0.8716
vn 0.0001 0.4901 -0.8716
vn -0.0001 0.3288 0.9444
vn -0.0001 0.3287 0.9444
vn -0.0000 0.3287 0.9444
vn -0.0001 0.3289 0.9444
vn 0.0003 -0.0025 -1.0000
vn 0.0002 -0.0025 -1.0000
vn 0.0017 -0.0025 -1.0000
vn -0.0013 -0.0024 -1.0000
vn -0.0004 -0.0025 -1.0000
vn -0.0003 -0.0025 -1.0000
vn -0.0019 -0.0025 -1.0000
vn -0.0000 -0.0025 -1.0000
vn -0.0001 -0.0025 -1.0000
vn -0.0014 -0.0025 -1.0000
vn -0.5559 -0.0025 0.8313
vn -0.5367 -0.0025 0.8438
vn -0.5377 -0.0025 0.8431
vn -0.5183 -0.0025 0.8552
vn -0.6192 -0.0024 -0.7852
vn -0.6197 -0.0024 -0.7848
vn -0.6422 -0.0024 -0.7665
vn -0.6415 -0.0024 -0.7671
vn -0.6527 -0.0025 -0.7576
vn -0.6528 -0.0025 -0.7576
vn -0.6094 -0.0023 -0.7929
vn -0.6513 -0.0025 -0.7588
vn 1.0000 -0.0025 -0.0000
vn -0.8162 -0.0025 0.5777
vn -0.8084 -0.0025 0.5887
vn -0.8083 -0.0025 0.5887
vn -0.8003 -0.0025 0.5996
vn -0.0065 -0.0025 -1.0000
vn -0.0083 -0.0025 -1.0000
vn -0.0029 -0.0025 -1.0000
vn 0.0042 -0.0025 -1.0000
vn -0.3261 -0.0024 -0.9453
vn -0.3317 -0.0024 -0.9434
vn -0.3316 -0.0025 -0.9434
vn -0.3234 -0.0025 -0.9463
vn -0.3235 -0.0025 -0.9462
vn -0.3169 -0.0025 -0.9485
vn -0.3241 -0.0025 -0.9460
vn 0.0025 -0.0025 1.0000
vn 0.0385 -0.0025 0.9993
vn 0.1102 -0.0025 0.9939
vn 0.1814 -0.0025 0.9834
vn 0.3205 -0.0025 0.9472
vn 0.3878 -0.0025 0.9217
vn 0.4207 -0.0025 0.9072
vn 0.2516 -0.0025 0.9678
vn -0.5799 -0.0024 -0.8147
vn -0.5799 -0.0025 -0.8147
vn -0.5799 -0.0026 -0.8147
vn 0.8608 -0.0025 0.5090
vn 0.8608 -0.0024 0.5090
vn 0.1140 -0.0025 0.9935
vn 0.1072 -0.0025 0.9942
vn 0.1005 -0.0024 0.9949
vn -1.0000 -0.0024 0.0013
vn -1.0000 -0.0025 0.0020
vn -1.0000 -0.0025 0.0027
vn -0.9999 -0.0024 -0.0168
vn -0.9999 -0.0025 -0.0168
vn -0.9999 -0.0026 -0.0168
vn -0.0000 -0.0018 1.0000
vn -0.8533 -0.0030 -0.5214
vn -0.8544 -0.0029 -0.5196
vn -0.8542 -0.0029 -0.5199
vn -0.8571 -0.0030 -0.5151
vn -0.8569 -0.0029 -0.5155
vn -0.8532 -0.0029 -0.5216
vn -0.8588 -0.0029 -0.5123
vn -0.4184 -0.0025 0.9082
vn -0.4241 -0.0025 0.9056
vn -0.3256 -0.0025 0.9455
vn -0.3194 -0.0025 0.9476
vn -0.2717 -0.0025 0.9624
vn -0.4690 -0.0025 0.8832
vn 1.0000 -0.0025 0.0003
vn 1.0000 -0.0025 -0.0001
vn 1.0000 -0.0025 -0.0017
vn 1.0000 -0.0025 -0.0015
vn 1.0000 -0.0025 -0.0027
vn -0.1420 -0.0025 -0.9899
vn -0.2432 -0.0025 -0.9700
vn -0.2523 -0.0025 -0.9676
vn -0.5670 -0.0025 -0.8237
vn -0.5606 -0.0025 -0.8281
vn -0.6340 -0.0025 -0.7733
vn -0.4183 -0.0025 -0.9083
vn -0.4240 -0.0025 -0.9057
vn -0.6501 -0.0025 0.7599
vn -0.6766 -0.0025 0.7364
vn -0.6765 -0.0025 0.7365
vn -0.7021 -0.0020 0.7121
vn -0.7021 -0.0019 0.7121
vn -0.5805 -0.0025 -0.8143
vn -0.5805 -0.0025 -0.8142
vn 0.4443 -0.0026 0.8959
vn 0.4261 -0.0026 0.9047
vn 0.4251 -0.0026 0.9052
vn 0.3878 -0.0026 0.9217
vn 0.3868 -0.0026 0.9222
vn 0.3479 -0.0027 0.9375
vn 0.3468 -0.0027 0.9379
vn 0.3063 -0.0027 0.9519
vn 0.3053 -0.0027 0.9522
vn 0.2174 -0.0028 0.9761
vn 0.2182 -0.0028 0.9759
vn 0.1948 -0.0028 0.9808
vn 0.2631 -0.0027 0.9648
vn 0.2622 -0.0027 0.9650
vn -0.6665 -0.0026 0.7455
vn -0.6665 -0.0025 0.7455
vn -0.6666 -0.0025 0.7455
vn -0.6666 -0.0024 0.7455
vn -0.6666 -0.0024 0.7454
vn 0.5759 -0.0000 0.8175
vn 0.5760 -0.0000 0.8175
vn -0.9953 -0.0000 0.0969
vt 0.000000 2.000000
vt 0.000000 1.000000
vt 1.000000 2.000000
vt 1.000000 1.000000
vt 0.000500 1.999501
vt 0.000500 1.000500
vt 0.999501 1.999500
vt 0.999500 1.000499
vt 0.999500 1.000501
vt 0.999500 1.999501
vt 0.666500 1.999500
vt 0.666500 1.000500
vt 0.333500 1.999500
vt 0.333500 1.000500
vt 0.000499 1.999499
vt 0.000500 1.000499
vt 0.001498 1.000499
vt 2.998502 1.000499
vt 2.998502 1.999501
vt 0.001498 1.999501
vt 2.998501 1.000499
vt 2.998501 1.999501
vt 0.000000 1.000500
s 1
usemtl CMWLALOGOE.021
f 1/1/1 2/2/1 3/3/1
f 4/4/1 3/3/1 2/2/1
f 5/1/2 6/2/2 7/3/1
f 8/4/1 7/3/1 6/2/2
f 9/1/3 10/2/3 11/3/3
f 12/4/3 11/3/3 10/2/3
f 13/1/4 14/2/4 15/3/4
f 16/4/4 15/3/4 14/2/4
f 17/1/5 18/2/5 19/3/5
f 20/4/5 19/3/5 18/2/5
f 21/1/6 22/2/6 23/3/6
f 24/4/6 23/3/6 22/2/6
f 25/1/7 26/2/7 27/3/7
f 28/4/7 27/3/7 26/2/7
f 29/1/8 30/2/8 31/3/8
f 32/4/8 31/3/8 30/2/8
f 33/1/9 34/2/9 35/3/9
f 36/4/9 35/3/9 34/2/9
f 37/1/10 38/2/10 39/3/10
f 40/4/10 39/3/10 38/2/10
f 41/1/11 42/2/11 43/3/12
f 44/4/12 43/3/12 42/2/11
f 45/1/13 46/2/14 47/3/14
f 48/4/14 47/3/14 46/2/14
f 49/1/15 50/2/15 51/3/15
f 52/4/15 51/3/15 50/2/15
f 53/1/16 54/2/16 55/3/16
f 56/4/16 55/3/16 54/2/16
f 57/1/17 58/2/17 59/3/17
f 60/4/17 59/3/17 58/2/17
f 61/5/18 62/6/18 63/7/18
f 64/8/18 63/7/18 62/6/18
f 65/9/19 66/10/19 67/11/19
f 67/11/19 68/12/19 65/9/19
f 68/12/19 67/11/19 69/13/19
f 69/13/19 70/14/19 68/12/19
f 70/14/19 69/13/19 71/15/19
f 71/15/19 72/16/19 70/14/19
f 73/9/19 74/10/19 75/11/19
f 75/11/19 76/12/19 73/9/19
f 76/12/19 75/11/19 77/13/19
f 77/13/19 78/14/19 76/12/19
f 78/14/19 77/13/19 79/15/19
f 79/15/19 80/16/19 78/14/19
f 81/9/20 82/10/20 83/11/20
f 83/11/20 84/12/20 81/9/20
f 84/12/20 83/11/20 85/13/20
f 85/13/20 86/14/20 84/12/20
f 86/14/20 85/13/20 87/15/20
f 87/15/20 88/16/20 86/14/20
f 89/9/21 90/10/21 91/11/20
f 91/11/20 92/12/20 89/9/21
f 92/12/20 91/11/20 93/13/20
f 93/13/20 94/14/20 92/12/20
f 94/14/20 93/13/20 95/15/20
f 95/15/20 96/16/21 94/14/20
f 97/9/22 98/10/22 99/11/22
f 99/11/22 100/12/22 97/9/22
f 100/12/22 99/11/22 101/13/22
f 101/13/22 102/14/22 100/12/22
f 102/14/22 101/13/22 103/15/22
f 103/15/22 104/16/22 102/14/22
f 105/9/22 106/10/22 107/11/22
f 107/11/22 108/12/22 105/9/22
f 108/12/22 107/11/22 109/13/22
f 109/13/22 110/14/22 108/12/22
f 110/14/22 109/13/22 111/15/22
f 111/15/22 112/16/22 110/14/22
f 113/9/23 114/10/23 115/11/23
f 115/11/23 116/12/23 113/9/23
f 116/12/23 115/11/23 117/13/23
f 117/13/23 118/14/23 116/12/23
f 118/14/23 117/13/23 119/15/23
f 119/15/23 120/16/23 118/14/23
f 121/9/23 122/10/23 123/11/23
f 123/11/23 124/12/23 121/9/23
f 124/12/23 123/11/23 125/13/23
f 125/13/23 126/14/23 124/12/23
f 126/14/23 125/13/23 127/15/23
f 127/15/23 128/16/23 126/14/23
f 129/9/24 130/10/24 131/11/25
f 131/11/25 132/12/26 129/9/24
f 132/12/26 131/11/25 133/13/27
f 133/13/27 134/14/28 132/12/26
f 134/14/28 133/13/27 135/15/29
f 135/15/29 136/16/29 134/14/28
f 137/9/30 138/10/31 139/11/30
f 139/11/30 140/12/30 137/9/30
f 140/12/30 139/11/30 141/13/30
f 141/13/30 142/14/30 140/12/30
f 142/14/30 141/13/30 143/15/30
f 143/15/30 144/16/30 142/14/30
f 145/9/30 146/10/30 147/11/30
f 147/11/30 148/12/30 145/9/30
f 148/12/30 147/11/30 149/13/30
f 149/13/30 150/14/30 148/12/30
f 150/14/30 149/13/30 151/15/30
f 151/15/30 152/16/30 150/14/30
f 153/9/19 154/10/19 155/11/19
f 155/11/19 156/12/19 153/9/19
f 156/12/19 155/11/19 157/13/19
f 157/13/19 158/14/19 156/12/19
f 158/14/19 157/13/19 159/15/19
f 159/15/19 160/16/19 158/14/19
f 161/9/19 162/10/19 163/11/19
f 163/11/19 164/12/19 161/9/19
f 164/12/19 163/11/19 165/13/19
f 165/13/19 166/14/19 164/12/19
f 166/14/19 165/13/19 167/15/19
f 167/15/19 168/16/19 166/14/19
f 169/9/30 170/10/30 171/11/30
f 171/11/30 172/12/30 169/9/30
f 172/12/30 171/11/30 173/13/30
f 173/13/30 174/14/30 172/12/30
f 174/14/30 173/13/30 175/15/30
f 175/15/30 176/16/30 174/14/30
f 177/9/30 178/10/30 179/11/30
f 179/11/30 180/12/30 177/9/30
f 180/12/30 179/11/30 181/13/30
f 181/13/30 182/14/30 180/12/30
f 182/14/30 181/13/30 183/15/30
f 183/15/30 184/16/30 182/14/30
f 185/9/32 186/10/32 187/11/32
f 187/11/32 188/12/32 185/9/32
f 188/12/32 187/11/32 189/13/32
f 189/13/32 190/14/32 188/12/32
f 190/14/32 189/13/32 191/15/32
f 191/15/32 192/16/32 190/14/32
f 193/9/32 194/10/32 195/11/32
f 195/11/32 196/12/32 193/9/32
f 196/12/32 195/11/32 197/13/32
f 197/13/32 198/14/32 196/12/32
f 198/14/32 197/13/32 199/15/32
f 199/15/32 200/16/32 198/14/32
f 201/17/33 202/18/33 203/19/33
f 203/19/33 204/20/33 201/17/33
f 205/1/33 206/2/33 207/3/33
f 208/4/33 207/3/33 206/2/33
f 209/1/33 210/2/33 211/3/33
f 212/4/33 211/3/33 210/2/33
f 213/17/33 214/21/33 215/22/33
f 215/22/33 216/20/33 213/17/33
f 217/1/33 218/2/33 219/3/33
f 220/4/33 219/3/33 218/2/33
f 221/5/34 222/6/34 223/7/34
f 224/8/35 223/7/34 222/6/34
f 225/5/36 226/6/36 227/7/37
f 228/8/38 227/7/37 226/6/36
f 229/5/34 230/6/34 231/7/34
f 232/8/34 231/7/34 230/6/34
f 233/5/39 234/6/36 235/7/37
f 236/8/38 235/7/37 234/6/36
f 237/4/40 238/3/41 239/1/42
f 239/1/42 240/23/42 237/4/40
f 241/4/43 242/3/43 238/1/41
f 238/1/41 237/23/40 241/4/43
f 243/4/44 244/3/45 245/1/46
f 245/1/46 246/23/46 243/4/44
f 247/4/47 248/3/48 244/1/45
f 244/1/45 243/23/44 247/4/47
f 249/4/49 250/3/49 248/1/48
f 248/1/48 247/23/47 249/4/49
f 251/1/50 252/23/50 253/4/51
f 253/4/51 254/3/52 251/1/50
f 254/1/52 253/23/51 255/4/53
f 255/4/53 256/3/53 254/1/52
f 257/1/54 258/23/55 259/4/56
f 259/4/56 260/3/57 257/1/54
f 260/1/57 259/23/56 261/4/58
f 261/4/58 262/3/59 260/1/57
f 263/1/60 264/23/60 258/4/55
f 258/4/55 257/3/54 263/1/60
f 262/1/59 261/23/58 265/4/61
f 265/4/61 266/3/61 262/1/59
f 267/1/62 268/23/62 269/4/62
f 269/4/62 270/3/62 267/1/62
f 270/1/62 269/23/62 271/4/62
f 271/4/62 272/3/62 270/1/62
f 272/1/62 271/23/62 273/4/62
f 273/4/62 274/3/62 272/1/62
f 274/1/62 273/23/62 275/4/62
f 275/4/62 276/3/62 274/1/62
f 277/4/63 278/3/63 279/1/63
f 279/1/63 280/23/63 277/4/63
f 281/4/63 282/3/63 278/1/63
f 278/1/63 277/23/63 281/4/63
f 283/4/64 284/3/65 282/1/63
f 282/1/63 281/23/63 283/4/64
f 285/4/66 286/3/66 284/1/65
f 284/1/65 283/23/64 285/4/66
f 287/4/67 288/3/67 289/1/68
f 289/1/68 290/23/68 287/4/67
f 291/4/69 292/3/69 293/1/70
f 293/1/70 294/23/70 291/4/69
f 290/4/68 289/3/68 292/1/69
f 292/1/69 291/23/69 290/4/68
f 295/1/71 296/23/71 297/4/72
f 297/4/72 298/3/73 295/1/71
f 298/1/73 297/23/72 299/4/74
f 299/4/74 300/3/75 298/1/73
f 300/1/75 299/23/74 301/4/76
f 301/4/76 302/3/76 300/1/75
f 302/1/76 301/23/76 303/4/77
f 303/4/77 304/3/77 302/1/76
f 305/1/78 306/23/78 307/4/79
f 307/4/79 308/3/79 305/1/78
f 308/1/79 307/23/79 309/4/80
f 309/4/80 310/3/80 308/1/79
f 310/1/80 309/23/80 311/4/81
f 311/4/81 312/3/81 310/1/80
f 313/1/82 314/23/82 315/4/83
f 315/4/83 316/3/83 313/1/82
f 316/1/83 315/23/83 317/4/84
f 317/4/84 318/3/84 316/1/83
f 312/1/81 311/23/81 319/4/85
f 319/4/85 320/3/85 312/1/81
f 320/1/85 319/23/85 314/4/82
f 314/4/82 313/3/82 320/1/85
f 321/1/86 322/23/86 323/4/87
f 323/4/87 324/3/87 321/1/86
f 324/1/87 323/23/87 325/4/88
f 325/4/88 326/3/88 324/1/87
f 327/1/87 328/23/87 329/4/87
f 329/4/87 330/3/87 327/1/87
f 326/1/88 325/23/88 331/4/87
f 331/4/87 332/3/87 326/1/88
f 332/1/87 331/23/87 328/4/87
f 328/4/87 327/3/87 332/1/87
f 333/4/89 334/3/89 335/1/89
f 335/1/89 336/23/89 333/4/89
f 337/4/89 338/3/89 334/1/89
f 334/1/89 333/23/89 337/4/89
f 339/4/89 340/3/89 341/1/89
f 341/1/89 342/23/89 339/4/89
f 336/4/89 335/3/89 340/1/89
f 340/1/89 339/23/89 336/4/89
f 343/4/90 344/3/90 338/1/89
f 338/1/89 337/23/89 343/4/90
f 345/4/91 346/3/91 347/1/92
f 347/1/92 348/23/92 345/4/91
f 348/4/92 347/3/92 349/1/93
f 349/1/93 350/23/93 348/4/92
f 351/4/94 352/3/94 353/1/95
f 353/1/95 354/23/95 351/4/94
f 354/4/95 353/3/95 355/1/96
f 355/1/96 356/23/96 354/4/95
f 357/4/97 358/3/97 359/1/98
f 359/1/98 360/23/98 357/4/97
f 361/4/98 362/3/98 358/1/97
f 358/1/97 357/23/97 361/4/98
f 363/4/98 364/3/98 362/1/98
f 362/1/98 361/23/98 363/4/98
f 365/4/99 366/3/99 364/1/98
f 364/1/98 363/23/98 365/4/99
f 367/1/47 368/23/48 369/4/47
f 369/4/47 370/3/47 367/1/47
f 370/1/47 369/23/47 371/4/47
f 371/4/47 372/3/47 370/1/47
f 372/1/47 371/23/47 373/4/47
f 373/4/47 374/3/47 372/1/47
f 375/1/47 376/23/47 377/4/47
f 377/4/47 378/3/47 375/1/47
f 374/1/47 373/23/47 379/4/47
f 379/4/47 380/3/47 374/1/47
f 380/1/47 379/23/47 376/4/47
f 376/4/47 375/3/47 380/1/47
f 381/1/100 382/23/100 383/4/100
f 383/4/100 384/3/100 381/1/100
f 384/1/100 383/23/100 385/4/100
f 385/4/100 386/3/100 384/1/100
f 386/1/100 385/23/100 387/4/100
f 387/4/100 388/3/100 386/1/100
f 388/1/100 387/23/100 389/4/100
f 389/4/100 390/3/100 388/1/100
f 390/1/100 389/23/100 391/4/100
f 391/4/100 392/3/100 390/1/100
f 392/1/100 391/23/100 393/4/100
f 393/4/100 394/3/100 392/1/100
f 395/1/101 396/23/101 397/4/102
f 397/4/102 398/3/103 395/1/101
f 398/1/103 397/23/102 399/4/104
f 399/4/104 400/3/105 398/1/103
f 401/1/106 402/23/106 396/4/101
f 396/4/101 395/3/101 401/1/106
f 400/1/105 399/23/104 403/4/107
f 403/4/107 404/3/107 400/1/105
f 405/1/108 406/23/109 407/4/110
f 407/4/110 408/3/111 405/1/108
f 408/1/111 407/23/110 409/4/112
f 409/4/112 410/3/112 408/1/111
f 411/1/113 412/23/113 406/4/109
f 406/4/109 405/3/108 411/1/113
f 413/1/114 414/23/114 415/4/115
f 415/4/115 416/3/115 413/1/114
f 416/1/115 415/23/115 417/4/116
f 417/4/116 418/3/117 416/1/115
f 418/1/117 417/23/116 419/4/118
f 419/4/118 420/3/118 418/1/117
f 421/1/119 422/23/119 423/4/120
f 423/4/120 424/3/121 421/1/119
f 425/1/122 426/23/123 427/4/124
f 427/4/124 428/3/124 425/1/122
f 424/1/121 423/23/120 429/4/125
f 429/4/125 430/3/126 424/1/121
f 430/1/126 429/23/125 426/4/123
f 426/4/123 425/3/122 430/1/126
f 431/1/127 432/23/127 433/4/128
f 433/4/128 434/3/129 431/1/127
f 434/1/129 433/23/128 435/4/130
f 435/4/130 436/3/131 434/1/129
f 437/1/132 438/23/132 439/4/132
f 439/4/132 440/3/132 437/1/132
f 440/1/132 439/23/132 441/4/132
f 441/4/132 442/3/133 440/1/132
f 442/1/133 441/23/132 443/4/132
f 443/4/132 444/3/132 442/1/133
f 444/1/132 443/23/132 445/4/132
f 445/4/132 446/3/132 444/1/132
f 447/1/134 448/23/134 449/4/135
f 449/4/135 450/3/136 447/1/134
f 450/1/136 449/23/135 451/4/137
f 451/4/137 452/3/138 450/1/136
f 452/1/138 451/23/137 453/4/139
f 453/4/139 454/3/140 452/1/138
f 454/1/140 453/23/139 455/4/141
f 455/4/141 456/3/142 454/1/140
f 457/1/143 458/23/144 459/4/145
f 459/4/145 460/3/145 457/1/143
f 456/1/142 455/23/141 461/4/146
f 461/4/146 462/3/147 456/1/142
f 462/1/147 461/23/146 458/4/144
f 458/4/144 457/3/143 462/1/147
f 463/1/148 464/23/148 465/4/149
f 465/4/149 466/3/150 463/1/148
f 466/1/150 465/23/149 467/4/151
f 467/4/151 468/3/152 466/1/150
f 469/1/149 470/23/149 471/4/149
f 471/4/149 472/3/149 469/1/149
f 472/1/149 471/23/149 473/4/149
f 473/4/149 474/3/149 472/1/149
f 475/1/149 476/23/149 470/4/149
f 470/4/149 469/3/149 475/1/149
f 477/9/153 478/10/153 479/11/154
f 479/11/154 480/12/154 477/9/153
f 480/12/154 479/11/154 481/13/154
f 481/13/154 482/14/154 480/12/154
f 482/14/154 481/13/154 483/15/154
f 483/15/154 484/16/154 482/14/154
f 485/1/155 486/2/155 487/3/155
f 488/4/155 487/3/155 486/2/155
