# Blender 4.4.3
# www.blender.org
mtllib LOGOD.mtl
o LOGOD
v -232.043671 25.856070 -296.440491
v -232.043671 20.714254 -296.440491
v -230.880051 25.856071 -284.491364
v -230.880051 20.714254 -284.491364
v 551.803040 10.959027 -550.470703
v 551.803040 7.749735 -550.470703
v 557.842957 10.959028 -545.793701
v 557.842957 7.749736 -545.793701
v 493.050201 4.470792 -310.027191
v 493.050201 1.945579 -310.027191
v 491.423279 4.470791 -315.813538
v 491.423279 1.945578 -315.813538
v 557.735596 4.796464 -384.515686
v 557.735596 1.587171 -384.515686
v 551.018372 4.796464 -380.877930
v 551.018372 1.587171 -380.877930
v 415.832703 1.036084 14.108229
v 415.832703 -1.489128 14.108229
v 409.823456 1.036084 13.974979
v 409.823456 -1.489128 13.974979
v 409.508362 0.837494 13.979088
v 409.508362 -1.489128 13.979088
v 403.499115 0.837494 13.845840
v 403.499115 -1.489128 13.845840
v -247.988251 9.558728 -809.330139
v -247.988251 4.835640 -809.330139
v -259.223755 9.558728 -809.720703
v -259.223755 4.835640 -809.720703
v 329.008514 36.594822 -934.343689
v 329.008514 34.069611 -934.343689
v 323.960938 36.594818 -937.607239
v 323.960938 34.069607 -937.607239
v 323.690430 36.527233 -937.768921
v 323.690430 34.200611 -937.768921
v 318.642853 36.527233 -941.032471
v 318.642853 34.200611 -941.032471
v 456.495758 35.697517 -738.814026
v 456.495758 31.893431 -738.814026
v 444.494019 35.586933 -733.295959
v 444.494019 31.782850 -733.295959
v 443.869385 35.281982 -732.996643
v 443.869385 31.777063 -732.996643
v 431.867615 35.171406 -727.478577
v 431.867615 31.666483 -727.478577
v 236.516006 29.835146 -628.323303
v 236.515991 24.289762 -628.323303
v 219.888947 28.958652 -620.410461
v 219.888947 23.413271 -620.410461
v 219.022202 28.476667 -619.985779
v 219.022202 23.367388 -619.985779
v 202.395157 27.600178 -612.072876
v 202.395142 22.490898 -612.072876
v 502.120697 1.715767 -270.402924
v 502.120697 0.831390 -270.402924
v 501.409271 1.559401 -272.788452
v 501.409271 0.675023 -272.788452
v 500.697845 1.559401 -275.173981
v 500.697845 0.675024 -275.173981
v 499.986420 1.715766 -277.559540
v 499.986420 0.831389 -277.559540
v -184.495911 14.967605 -692.485840
v -184.495911 14.083226 -692.485840
v -186.984924 14.811238 -692.526978
v -186.984940 13.926861 -692.526978
v -189.473953 14.811238 -692.568176
v -189.473953 13.926862 -692.568176
v -191.962982 14.967605 -692.609314
v -191.962982 14.083226 -692.609314
v -198.721863 15.931585 -690.375061
v -198.721863 14.890977 -690.375061
v -197.686035 15.747596 -691.529785
v -197.686035 14.706986 -691.529785
v -196.650208 15.747596 -692.684509
v -196.650208 14.706987 -692.684509
v -195.614380 15.931585 -693.839294
v -195.614380 14.890977 -693.839294
v -93.672440 3.955463 17.227322
v -93.672440 4.839841 17.227322
v -91.183121 4.683475 17.237276
v -91.183121 3.799096 17.237276
v -88.693741 4.683475 17.247166
v -88.693741 3.799096 17.247166
v -86.204407 4.839841 17.257122
v -86.204407 3.955463 17.257122
v -177.515396 4.642663 20.104048
v -177.515396 5.527040 20.104048
v -175.026062 5.370674 20.114010
v -175.026062 4.486294 20.114010
v -172.536667 5.370674 20.123909
v -172.536667 4.486294 20.123909
v -170.047318 5.527040 20.133884
v -170.047318 4.642663 20.133884
v 423.705170 17.512192 -467.661469
v 423.705170 18.396570 -467.661469
v 425.740143 18.240204 -469.095215
v 425.740143 17.355825 -469.095215
v 427.775146 18.240204 -470.529053
v 427.775146 17.355825 -470.529053
v 429.810150 18.396570 -471.962799
v 429.810150 17.512192 -471.962799
v 372.730042 18.465763 -432.144348
v 372.730042 19.350142 -432.144348
v 374.765076 19.193773 -433.578094
v 374.765076 18.309395 -433.578094
v 376.800079 19.193773 -435.011932
v 376.800079 18.309395 -435.011932
v 378.835083 19.350142 -436.445679
v 378.835083 18.465763 -436.445679
v -321.469879 25.658499 -527.867615
v -321.469879 26.542877 -527.867615
v -321.479828 26.386511 -525.378296
v -321.479828 25.502131 -525.378296
v -321.489716 26.386511 -522.888916
v -321.489716 25.502131 -522.888916
v -321.499664 26.542877 -520.399597
v -321.499664 25.658499 -520.399597
v -321.647614 25.664488 -580.276489
v -321.647614 26.548866 -580.276489
v -321.657593 26.392498 -577.787170
v -321.657593 25.508120 -577.787170
v -321.667480 26.392498 -575.297729
v -321.667480 25.508120 -575.297729
v -321.677460 26.548866 -572.808411
v -321.677460 25.664488 -572.808411
v 535.623657 2.282822 -276.068695
v 535.623657 3.167200 -276.068695
v 534.937988 3.010833 -278.461731
v 534.937988 2.126455 -278.461731
v 534.252197 3.010833 -280.854797
v 534.252197 2.126455 -280.854797
v 533.566467 3.167200 -283.247864
v 533.566467 2.282822 -283.247864
v 555.213440 2.200296 -194.449020
v 555.213440 3.084675 -194.449020
v 554.527771 2.928308 -196.842072
v 554.527771 2.043930 -196.842072
v 553.841980 2.928308 -199.235153
v 553.841980 2.043930 -199.235153
v 553.156250 3.084675 -201.628235
v 553.156250 2.200296 -201.628235
v 548.425171 -0.715179 -184.519516
v 548.425171 0.169200 -184.519516
v 550.249817 0.012833 -185.058777
v 550.249817 -0.871545 -185.058777
v 552.110474 0.012833 -185.615997
v 552.110474 -0.871545 -185.615997
v 553.657104 0.169200 -186.051437
v 553.657104 -0.715178 -186.051437
v 548.442444 0.169200 -184.456635
v 548.442444 -0.715179 -184.456635
v 550.267090 0.012833 -184.995911
v 550.267090 -0.871545 -184.995911
v 552.127686 0.012833 -185.553131
v 552.127686 -0.871545 -185.553131
v 553.674377 0.169200 -185.988571
v 553.674377 -0.715178 -185.988571
v 360.238556 42.781136 -987.001465
v 360.238556 43.665512 -987.001465
v 358.398499 43.509148 -988.678101
v 358.398499 42.624767 -988.678101
v 356.558380 43.509148 -990.354736
v 356.558380 42.624767 -990.354736
v 354.718353 43.665512 -992.031372
v 354.718353 42.781136 -992.031372
v 399.237366 42.787132 -951.989929
v 399.237366 43.671509 -951.989929
v 397.397339 43.515144 -953.666565
v 397.397339 42.630764 -953.666565
v 395.557220 43.515144 -955.343201
v 395.557220 42.630764 -955.343201
v 393.717163 43.671509 -957.019836
v 393.717163 42.787132 -957.019836
v 378.611481 2.282845 20.669788
v 378.611481 3.167223 20.669788
v 381.100800 3.010856 20.679743
v 381.100800 2.126478 20.679743
v 383.590179 3.010856 20.689632
v 383.590179 2.126478 20.689632
v 386.079498 3.167223 20.699589
v 386.079498 2.282845 20.699589
v 294.768524 2.200312 16.683727
v 294.768524 3.084691 16.683727
v 297.257843 2.928324 16.693687
v 297.257843 2.043946 16.693687
v 299.747253 2.928324 16.703588
v 299.747253 2.043946 16.703588
v 302.236572 3.084691 16.713564
v 302.236572 2.200312 16.713564
v 472.999268 39.302460 -885.453247
v 472.999268 40.186836 -885.453247
v 471.159210 40.030472 -887.129883
v 471.159210 39.146091 -887.129883
v 469.319092 40.030472 -888.806519
v 469.319092 39.146091 -888.806519
v 467.479065 40.186836 -890.483154
v 467.479065 39.302460 -890.483154
v 511.998077 39.308456 -850.441711
v 511.998077 40.192833 -850.441711
v 510.158051 40.036469 -852.118347
v 510.158051 39.152088 -852.118347
v 508.317932 40.036469 -853.794983
v 508.317932 39.152088 -853.794983
v 506.477905 40.192833 -855.471619
v 506.477905 39.308456 -855.471619
v 333.118683 33.828259 -724.116577
v 333.118683 34.712635 -724.116577
v 330.847748 34.556271 -723.096924
v 330.847748 33.671890 -723.096924
v 328.576782 34.556271 -722.077209
v 328.576782 33.671890 -722.077209
v 326.305817 34.712635 -721.057617
v 326.305817 33.828259 -721.057617
v 380.769806 34.974834 -745.936035
v 380.769806 35.859211 -745.936035
v 378.498871 35.702847 -744.916443
v 378.498871 34.818466 -744.916443
v 376.227875 35.702847 -743.896729
v 376.227875 34.818466 -743.896729
v 373.956909 35.859211 -742.877075
v 373.956909 34.974834 -742.877075
v 15.314089 6.284286 -19.780918
v 15.314089 4.981606 -19.780918
v 22.568264 6.284286 -19.780918
v 22.568264 4.981606 -19.780918
v 5.956209 6.284286 -19.780918
v 5.956209 4.981606 -19.780918
v 13.210384 6.284286 -19.780918
v 13.210384 4.981606 -19.780918
v 28.555897 1.683423 -19.180433
v 47.852959 1.683423 -19.180433
v 47.852959 3.169321 -19.180433
v 28.555897 3.169321 -19.180433
v 112.883446 1.683423 -19.180433
v 134.135605 1.683423 -19.180433
v 134.135605 3.169321 -19.180433
v 112.883446 3.169321 -19.180433
v -128.098511 -1.378134 13.469711
v -128.098450 -0.417695 13.467312
v -123.076813 -0.485120 13.467312
v -123.076874 -1.445559 13.469711
v -153.206772 -0.918078 13.469712
v -153.206818 0.042361 13.467325
v -148.185211 -0.065479 13.467313
v -148.185135 -1.025918 13.469712
v -178.315216 -0.268563 13.469727
v -178.315109 0.691876 13.467322
v -173.293442 0.547826 13.467322
v -173.293549 -0.412614 13.469725
v -274.016602 20.559652 -332.144989
v -274.019043 19.599215 -332.144958
v -274.019043 19.692362 -337.166595
v -274.016602 20.652803 -337.166626
v 105.646820 12.204630 -365.433655
v 105.646576 13.165069 -365.431274
v 99.951393 13.124819 -365.433807
v 99.951576 12.164380 -365.436218
v 260.862549 13.978621 -358.190491
v 260.863892 13.018183 -358.188477
v 256.323090 13.014816 -355.300842
v 256.321869 13.975255 -355.302917
v 445.537079 11.435622 -489.164459
v 445.538513 10.475177 -489.162537
v 441.447296 10.782604 -486.250580
v 441.445923 11.743043 -486.252563
v 437.356110 11.014505 -483.338654
v 437.354706 11.974945 -483.340607
v 435.019196 -3.276704 13.552027
v 435.019165 -2.316266 13.549625
v 443.355865 -2.316266 13.471397
v 443.355865 -3.276704 13.473816
v 425.357819 -3.276705 13.558105
v 425.357819 -2.316266 13.555689
v 419.200073 -3.276704 13.541752
v 419.200104 -2.316266 13.539351
v 248.526184 -2.767569 13.469578
v 248.526184 -1.807130 13.467175
v 253.547867 -2.859234 13.469578
v 253.547867 -1.898795 13.467175
v 258.569519 -2.945332 13.469578
v 258.569519 -1.984892 13.467179
v 273.634521 -3.156349 13.469583
v 273.634521 -2.195910 13.467179
v 278.656158 -3.206306 13.469585
v 278.656158 -2.245867 13.467188
v 283.677826 -3.243761 13.469585
v 283.677826 -2.283322 13.467184
v -47.695068 10.469990 -803.484253
v -47.693268 9.513697 -803.482788
v -50.917511 9.025627 -800.836426
v -50.919373 9.981922 -800.837769
v -54.041199 8.529692 -798.219971
v -54.043121 9.485986 -798.221252
v -57.047516 8.026653 -795.616455
v -57.049561 8.982948 -795.617676
v -127.403229 0.085850 -761.185852
v -127.404968 -0.870445 -761.187500
v -125.086609 -0.363683 -764.085571
v -125.084717 0.592612 -764.084106
v -123.099930 0.148978 -767.197266
v -123.097885 1.105273 -767.196045
v -121.464020 0.666770 -770.485168
v -121.461853 1.623065 -770.484131
v -150.543991 -3.232177 -749.493652
v -150.544189 -4.188473 -749.496033
v -146.740463 -3.744396 -750.073120
v -146.740036 -2.788101 -750.070740
v -143.038406 -3.289070 -751.046265
v -143.037735 -2.332775 -751.043945
v -139.478928 -2.823257 -752.400513
v -139.478012 -1.866962 -752.398315
v -242.721802 -8.373380 -820.322449
v -242.722992 -9.329679 -820.320618
v -247.093842 -9.170907 -822.127136
v -247.092758 -8.214608 -822.129272
v -290.835144 -4.278968 -804.978882
v -290.833221 -5.235268 -804.977478
v -293.251801 -4.714057 -801.520691
v -293.253815 -3.757759 -801.521973
v 497.774536 31.910091 -817.424194
v 497.773193 30.953796 -817.422241
v 493.677399 30.978418 -820.290100
v 493.678802 31.934715 -820.292053
v 489.581665 31.027893 -823.158020
v 489.583038 31.984190 -823.159973
v 481.391510 32.098583 -828.895752
v 481.390167 31.142286 -828.893738
v 477.294373 31.199720 -831.761658
v 477.295715 32.156017 -831.763611
v 473.198608 31.257250 -834.629517
v 473.199951 32.213543 -834.631531
v 485.485931 31.084993 -826.025879
v 485.487305 32.041290 -826.027832
v 469.104248 32.267620 -837.499390
v 469.102875 31.311399 -837.497437
v 465.007141 31.341833 -840.365295
v 465.008484 32.297909 -840.367249
v 460.911438 31.347694 -843.233154
v 460.912750 32.303635 -843.235107
v 456.815613 31.331955 -846.101074
v 456.817017 32.287769 -846.102966
v 81.767517 18.286594 -893.468994
v 81.767151 17.330299 -893.471375
v 86.364349 17.532368 -894.288208
v 86.364807 18.488663 -894.285828
v 90.725922 17.771788 -895.564331
v 90.726562 18.728085 -895.561890
v 77.140472 18.124043 -892.842041
v 77.140198 17.167747 -892.844421
v 375.589813 33.680386 -967.124329
v 375.591187 32.723057 -967.126282
v 379.282135 32.431515 -963.826965
v 379.280762 33.388504 -963.825012
v 382.973145 32.149662 -960.527649
v 382.971741 33.106297 -960.525696
v 386.664093 31.886425 -957.228333
v 386.662720 32.842686 -957.226318
v 390.355072 31.650810 -953.928955
v 390.353699 32.606709 -953.927063
v 394.046021 31.451885 -950.629700
v 394.044678 32.407413 -950.627686
v 266.856384 25.560059 -643.734314
v 266.857391 24.603762 -643.732178
v 262.325867 24.347891 -641.619080
v 262.324860 25.304186 -641.621216
v 257.794342 24.088995 -639.505981
v 257.793335 25.045290 -639.508118
v 253.262787 23.827341 -637.392883
v 253.261749 24.783638 -637.395020
v 248.731232 23.563200 -635.279785
v 248.730225 24.519497 -635.281921
v 372.628571 14.870111 -468.695465
v 372.628571 15.754489 -468.695465
v 370.593567 15.598122 -467.261719
v 370.593567 14.713745 -467.261719
v 368.558563 15.598122 -465.827881
v 368.558563 14.713745 -465.827881
v 366.523529 15.754489 -464.394135
v 366.523529 14.870111 -464.394135
v 270.391174 -1.007892 -25.470142
v 270.391174 -2.524829 -25.470142
v 278.838470 -1.007892 -25.470142
v 278.838470 -2.524829 -25.470142
v -276.484039 20.540550 -205.242874
v -276.484039 16.931444 -205.242874
v -271.986359 20.540550 -197.923660
v -271.986359 16.931444 -197.923660
vn -0.9953 -0.0000 0.0969
vn -0.6122 -0.0000 0.7907
vn -0.6123 -0.0000 0.7907
vn 0.9627 -0.0000 -0.2707
vn -0.4762 -0.0000 -0.8793
vn 0.0222 -0.0000 -0.9998
vn 0.0347 -0.0000 -0.9994
vn 0.5430 -0.0000 -0.8398
vn 0.5429 -0.0000 -0.8398
vn -0.4177 -0.0000 -0.9086
vn -0.4297 -0.0000 -0.9030
vn 0.9583 -0.0000 -0.2858
vn 0.0165 -0.0000 -0.9999
vn 0.0166 -0.0000 -0.9999
vn 0.7444 -0.0000 0.6678
vn 0.7444 -0.0000 0.6677
vn 0.0040 -0.0000 -1.0000
vn -0.5760 -0.0000 -0.8175
vn -0.5759 -0.0000 -0.8175
vn 1.0000 -0.0000 0.0040
vn -0.9613 -0.0000 0.2754
vn -0.9613 -0.0000 0.2755
vn -0.2834 -0.0000 -0.9590
vn -0.2851 -0.0000 -0.9585
vn -0.2852 -0.0000 -0.9585
vn -0.2787 -0.0000 -0.9604
vn -0.2792 -0.0000 -0.9602
vn -0.2710 -0.0000 -0.9626
vn 0.2834 -0.0000 0.9590
vn 0.2851 -0.0000 0.9585
vn 0.2852 -0.0000 0.9585
vn 0.2787 -0.0000 0.9604
vn 0.2792 -0.0000 0.9602
vn 0.2710 -0.0000 0.9626
vn -0.6735 -0.0000 0.7392
vn -0.6735 -0.0000 0.7391
vn 0.4096 -0.0000 0.9122
vn 0.4096 -0.0000 0.9123
vn -0.0000 -0.0000 1.0000
vn -0.0000 -0.0025 -1.0000
vn -0.0001 -0.0025 -1.0000
vn 1.0000 -0.0025 -0.0000
vn 1.0000 -0.0026 -0.0000
vn -0.0004 -0.0025 1.0000
vn -0.5366 -0.0025 -0.8438
vn -0.5800 -0.0025 -0.8146
vn -0.5800 -0.0024 -0.8146
vn -0.0050 -0.0025 -1.0000
vn -0.0094 -0.0025 -1.0000
vn 0.0010 -0.0025 -1.0000
vn 0.0027 -0.0025 -1.0000
vn -0.6342 -0.0024 -0.7732
vn -0.6384 -0.0023 -0.7697
vn -0.6378 -0.0023 -0.7702
vn -0.6487 -0.0023 -0.7611
vn -0.6477 -0.0023 -0.7619
vn -0.6544 -0.0024 -0.7561
vn 0.7811 -0.0025 0.6244
vn 0.8105 -0.0025 0.5857
vn 0.8159 -0.0025 0.5782
vn 0.8681 -0.0025 0.4963
vn 0.8728 -0.0025 0.4881
vn 0.8955 -0.0025 0.4452
vn 0.1503 -0.0025 0.9886
vn 0.1988 -0.0025 0.9800
vn 0.2065 -0.0025 0.9784
vn 0.3018 -0.0025 0.9534
vn 0.3095 -0.0025 0.9509
vn 0.3559 -0.0025 0.9345
vn 0.3819 -0.0023 -0.9242
vn 0.3819 -0.0025 -0.9242
vn -0.8195 -0.0025 -0.5730
vn 0.5736 -0.0025 -0.8192
vn 0.5735 -0.0025 -0.8192
vn 0.5736 -0.0026 -0.8192
vn 0.5736 -0.0025 -0.8191
vn 0.5736 -0.0024 -0.8191
vn 0.1552 -0.0025 0.9879
vn 0.1542 -0.0025 0.9880
vn 0.2267 -0.0025 0.9740
vn 0.2299 -0.0025 0.9732
vn 0.2809 -0.0026 0.9597
vn 0.1344 -0.0025 0.9909
vn -0.6666 -0.0025 0.7454
vn -0.6665 -0.0025 0.7455
vn -0.4225 -0.0025 -0.9064
vn 0.5760 -0.0000 0.8175
vn 0.5759 -0.0000 0.8175
vn -0.8520 -0.0000 0.5236
vt 0.000000 2.000000
vt 0.000000 1.000000
vt 1.000000 2.000000
vt 1.000000 1.000000
vt 0.000500 1.999501
vt 0.000500 1.000501
vt 0.333500 1.999500
vt 0.333500 1.000500
vt 0.666500 1.999500
vt 0.666500 1.000500
vt 0.999501 1.999499
vt 0.999500 1.000499
vt 0.999500 1.000501
vt 0.999500 1.999501
vt 0.000499 1.999499
vt 0.000500 1.000499
vt 0.001498 1.000499
vt 2.998501 1.000499
vt 2.998501 1.999501
vt 0.001498 1.999501
vt 0.000999 1.000499
vt 1.999001 1.000499
vt 1.999001 1.999501
vt 0.000999 1.999501
vt 0.000000 1.000500
vt 1.000000 1.000500
s 1
usemtl CMWLALOGOD.021
f 1/1/1 2/2/1 3/3/1
f 4/4/1 3/3/1 2/2/1
f 5/1/2 6/2/2 7/3/3
f 8/4/3 7/3/3 6/2/2
f 9/1/4 10/2/4 11/3/4
f 12/4/4 11/3/4 10/2/4
f 13/1/5 14/2/5 15/3/5
f 16/4/5 15/3/5 14/2/5
f 17/1/6 18/2/6 19/3/6
f 20/4/6 19/3/6 18/2/6
f 21/1/6 22/2/6 23/3/6
f 24/4/6 23/3/6 22/2/6
f 25/1/7 26/2/7 27/3/7
f 28/4/7 27/3/7 26/2/7
f 29/1/8 30/2/8 31/3/8
f 32/4/8 31/3/8 30/2/8
f 33/1/8 34/2/8 35/3/9
f 36/4/9 35/3/9 34/2/8
f 37/1/10 38/2/10 39/3/10
f 40/4/10 39/3/10 38/2/10
f 41/1/10 42/2/10 43/3/10
f 44/4/10 43/3/10 42/2/10
f 45/1/11 46/2/11 47/3/11
f 48/4/11 47/3/11 46/2/11
f 49/1/11 50/2/11 51/3/11
f 52/4/11 51/3/11 50/2/11
f 53/5/12 54/6/12 55/7/12
f 56/8/12 55/7/12 54/6/12
f 55/7/12 56/8/12 57/9/12
f 58/10/12 57/9/12 56/8/12
f 57/9/12 58/10/12 59/11/12
f 60/12/12 59/11/12 58/10/12
f 61/5/13 62/6/13 63/7/14
f 64/8/13 63/7/14 62/6/13
f 63/7/14 64/8/13 65/9/14
f 66/10/13 65/9/14 64/8/13
f 65/9/14 66/10/13 67/11/13
f 68/12/13 67/11/13 66/10/13
f 69/5/15 70/6/15 71/7/16
f 72/8/16 71/7/16 70/6/15
f 71/7/16 72/8/16 73/9/16
f 74/10/16 73/9/16 72/8/16
f 73/9/16 74/10/16 75/11/16
f 76/12/16 75/11/16 74/10/16
f 77/13/17 78/14/17 79/9/17
f 79/9/17 80/10/17 77/13/17
f 80/10/17 79/9/17 81/7/17
f 81/7/17 82/8/17 80/10/17
f 82/8/17 81/7/17 83/15/17
f 83/15/17 84/16/17 82/8/17
f 85/13/17 86/14/17 87/9/17
f 87/9/17 88/10/17 85/13/17
f 88/10/17 87/9/17 89/7/17
f 89/7/17 90/8/17 88/10/17
f 90/8/17 89/7/17 91/15/17
f 91/15/17 92/16/17 90/8/17
f 93/13/18 94/14/18 95/9/18
f 95/9/18 96/10/18 93/13/18
f 96/10/18 95/9/18 97/7/18
f 97/7/18 98/8/18 96/10/18
f 98/8/18 97/7/18 99/15/18
f 99/15/18 100/16/18 98/8/18
f 101/13/19 102/14/19 103/9/18
f 103/9/18 104/10/18 101/13/19
f 104/10/18 103/9/18 105/7/18
f 105/7/18 106/8/18 104/10/18
f 106/8/18 105/7/18 107/15/19
f 107/15/19 108/16/19 106/8/18
f 109/13/20 110/14/20 111/9/20
f 111/9/20 112/10/20 109/13/20
f 112/10/20 111/9/20 113/7/20
f 113/7/20 114/8/20 112/10/20
f 114/8/20 113/7/20 115/15/20
f 115/15/20 116/16/20 114/8/20
f 117/13/20 118/14/20 119/9/20
f 119/9/20 120/10/20 117/13/20
f 120/10/20 119/9/20 121/7/20
f 121/7/20 122/8/20 120/10/20
f 122/8/20 121/7/20 123/15/20
f 123/15/20 124/16/20 122/8/20
f 125/13/21 126/14/21 127/9/22
f 127/9/22 128/10/22 125/13/21
f 128/10/22 127/9/22 129/7/22
f 129/7/22 130/8/22 128/10/22
f 130/8/22 129/7/22 131/15/22
f 131/15/22 132/16/22 130/8/22
f 133/13/21 134/14/21 135/9/22
f 135/9/22 136/10/22 133/13/21
f 136/10/22 135/9/22 137/7/22
f 137/7/22 138/8/22 136/10/22
f 138/8/22 137/7/22 139/15/22
f 139/15/22 140/16/22 138/8/22
f 141/13/23 142/14/23 143/9/24
f 143/9/24 144/10/25 141/13/23
f 144/10/25 143/9/24 145/7/26
f 145/7/26 146/8/27 144/10/25
f 146/8/27 145/7/26 147/15/28
f 147/15/28 148/16/28 146/8/27
f 149/5/29 150/6/29 151/7/30
f 152/8/31 151/7/30 150/6/29
f 151/7/30 152/8/31 153/9/32
f 154/10/33 153/9/32 152/8/31
f 153/9/32 154/10/33 155/11/34
f 156/12/34 155/11/34 154/10/33
f 157/13/35 158/14/35 159/9/35
f 159/9/35 160/10/35 157/13/35
f 160/10/35 159/9/35 161/7/35
f 161/7/35 162/8/35 160/10/35
f 162/8/35 161/7/35 163/15/35
f 163/15/35 164/16/36 162/8/35
f 165/13/35 166/14/35 167/9/35
f 167/9/35 168/10/35 165/13/35
f 168/10/35 167/9/35 169/7/35
f 169/7/35 170/8/35 168/10/35
f 170/8/35 169/7/35 171/15/35
f 171/15/35 172/16/35 170/8/35
f 173/13/17 174/14/17 175/9/17
f 175/9/17 176/10/17 173/13/17
f 176/10/17 175/9/17 177/7/17
f 177/7/17 178/8/17 176/10/17
f 178/8/17 177/7/17 179/15/17
f 179/15/17 180/16/17 178/8/17
f 181/13/17 182/14/17 183/9/17
f 183/9/17 184/10/17 181/13/17
f 184/10/17 183/9/17 185/7/17
f 185/7/17 186/8/17 184/10/17
f 186/8/17 185/7/17 187/15/17
f 187/15/17 188/16/17 186/8/17
f 189/13/35 190/14/35 191/9/35
f 191/9/35 192/10/35 189/13/35
f 192/10/35 191/9/35 193/7/35
f 193/7/35 194/8/35 192/10/35
f 194/8/35 193/7/35 195/15/35
f 195/15/35 196/16/35 194/8/35
f 197/13/35 198/14/35 199/9/35
f 199/9/35 200/10/35 197/13/35
f 200/10/35 199/9/35 201/7/35
f 201/7/35 202/8/35 200/10/35
f 202/8/35 201/7/35 203/15/35
f 203/15/35 204/16/35 202/8/35
f 205/13/37 206/14/37 207/9/38
f 207/9/38 208/10/38 205/13/37
f 208/10/38 207/9/38 209/7/38
f 209/7/38 210/8/38 208/10/38
f 210/8/38 209/7/38 211/15/38
f 211/15/38 212/16/38 210/8/38
f 213/13/38 214/14/38 215/9/38
f 215/9/38 216/10/38 213/13/38
f 216/10/38 215/9/38 217/7/38
f 217/7/38 218/8/38 216/10/38
f 218/8/38 217/7/38 219/15/38
f 219/15/38 220/16/38 218/8/38
f 221/1/39 222/2/39 223/3/39
f 224/4/39 223/3/39 222/2/39
f 225/1/39 226/2/39 227/3/39
f 228/4/39 227/3/39 226/2/39
f 229/17/39 230/18/39 231/19/39
f 231/19/39 232/20/39 229/17/39
f 233/21/39 234/22/39 235/23/39
f 235/23/39 236/24/39 233/21/39
f 237/4/40 238/3/40 239/1/40
f 239/1/40 240/25/40 237/4/40
f 241/4/41 242/3/41 243/1/41
f 243/1/41 244/25/41 241/4/41
f 245/4/41 246/3/41 247/1/41
f 247/1/41 248/25/41 245/4/41
f 249/1/42 250/25/42 251/4/43
f 251/4/43 252/3/43 249/1/42
f 253/4/44 254/3/44 255/1/44
f 255/1/44 256/25/44 253/4/44
f 257/1/45 258/25/45 259/4/45
f 259/4/45 260/3/45 257/1/45
f 261/1/46 262/25/46 263/4/46
f 263/4/46 264/3/46 261/1/46
f 264/1/46 263/25/46 265/4/47
f 265/4/47 266/3/47 264/1/46
f 267/4/48 268/3/48 269/1/49
f 269/1/49 270/25/49 267/4/48
f 271/4/50 272/3/50 268/1/48
f 268/1/48 267/25/48 271/4/50
f 273/4/51 274/3/51 272/1/50
f 272/1/50 271/25/50 273/4/51
f 275/26/40 276/3/40 277/2/40
f 278/1/40 277/2/40 276/3/40
f 277/26/40 278/3/40 279/2/40
f 280/1/40 279/2/40 278/3/40
f 281/26/40 282/3/40 283/2/40
f 284/1/40 283/2/40 282/3/40
f 283/26/40 284/3/40 285/2/40
f 286/1/40 285/2/40 284/3/40
f 287/1/52 288/25/52 289/4/53
f 289/4/53 290/3/54 287/1/52
f 290/1/54 289/25/53 291/4/55
f 291/4/55 292/3/56 290/1/54
f 292/1/56 291/25/55 293/4/57
f 293/4/57 294/3/57 292/1/56
f 295/1/58 296/25/58 297/4/59
f 297/4/59 298/3/60 295/1/58
f 298/1/60 297/25/59 299/4/61
f 299/4/61 300/3/62 298/1/60
f 300/1/62 299/25/61 301/4/63
f 301/4/63 302/3/63 300/1/62
f 303/1/64 304/25/64 305/4/65
f 305/4/65 306/3/66 303/1/64
f 306/1/66 305/25/65 307/4/67
f 307/4/67 308/3/68 306/1/66
f 308/1/68 307/25/67 309/4/69
f 309/4/69 310/3/69 308/1/68
f 311/1/70 312/25/70 313/4/71
f 313/4/71 314/3/71 311/1/70
f 315/1/72 316/25/72 317/4/72
f 317/4/72 318/3/72 315/1/72
f 319/1/73 320/25/73 321/4/73
f 321/4/73 322/3/73 319/1/73
f 322/1/73 321/25/73 323/4/73
f 323/4/73 324/3/73 322/1/73
f 325/1/73 326/25/73 327/4/74
f 327/4/74 328/3/74 325/1/73
f 328/1/74 327/25/74 329/4/74
f 329/4/74 330/3/75 328/1/74
f 324/1/73 323/25/73 331/4/73
f 331/4/73 332/3/73 324/1/73
f 332/1/73 331/25/73 326/4/73
f 326/4/73 325/3/73 332/1/73
f 333/1/73 334/25/75 335/4/73
f 335/4/73 336/3/73 333/1/73
f 336/1/73 335/25/73 337/4/76
f 337/4/76 338/3/76 336/1/73
f 338/1/76 337/25/76 339/4/77
f 339/4/77 340/3/77 338/1/76
f 341/1/78 342/25/79 343/4/80
f 343/4/80 344/3/81 341/1/78
f 344/1/81 343/25/80 345/4/82
f 345/4/82 346/3/82 344/1/81
f 347/1/83 348/25/83 342/4/79
f 342/4/79 341/3/78 347/1/83
f 349/1/84 350/25/84 351/4/85
f 351/4/85 352/3/85 349/1/84
f 352/1/85 351/25/85 353/4/85
f 353/4/85 354/3/85 352/1/85
f 354/1/85 353/25/85 355/4/85
f 355/4/85 356/3/85 354/1/85
f 356/1/85 355/25/85 357/4/85
f 357/4/85 358/3/85 356/1/85
f 358/1/85 357/25/85 359/4/85
f 359/4/85 360/3/85 358/1/85
f 361/1/86 362/25/86 363/4/86
f 363/4/86 364/3/86 361/1/86
f 364/1/86 363/25/86 365/4/86
f 365/4/86 366/3/86 364/1/86
f 366/1/86 365/25/86 367/4/86
f 367/4/86 368/3/86 366/1/86
f 368/1/86 367/25/86 369/4/86
f 369/4/86 370/3/86 368/1/86
f 371/13/87 372/14/87 373/9/87
f 373/9/87 374/10/87 371/13/87
f 374/10/87 373/9/87 375/7/87
f 375/7/87 376/8/87 374/10/87
f 376/8/87 375/7/87 377/15/88
f 377/15/88 378/16/87 376/8/87
f 379/1/39 380/2/39 381/3/39
f 382/4/39 381/3/39 380/2/39
f 383/1/89 384/2/89 385/3/89
f 386/4/89 385/3/89 384/2/89
