# Blender 4.4.3
# www.blender.org
mtllib LOGOA.mtl
o LOGOA
v -259.269073 12.322386 -50.770004
v -259.269073 8.713280 -50.770004
v -253.736374 12.322385 -57.341858
v -253.736374 8.713279 -57.341858
v 558.734253 10.460134 -545.409973
v 558.734253 7.390473 -545.409973
v 570.215393 10.460135 -534.637573
v 570.215393 7.390473 -534.637573
v 497.007050 1.225732 -299.687531
v 497.007050 -1.069281 -299.687531
v 493.700897 1.225731 -310.935608
v 493.700897 -1.069281 -310.935608
v 502.296082 1.225734 -281.522400
v 502.296082 -1.069279 -281.522400
v 498.989929 1.225733 -292.770477
v 498.989929 -1.069280 -292.770477
v 550.673096 4.185016 -380.674927
v 550.673096 1.115357 -380.674927
v 536.848755 4.185017 -373.141693
v 536.848755 1.115358 -373.141693
v 512.674011 1.370987 -342.692993
v 512.674011 -1.698672 -342.692993
v 527.352173 1.370988 -336.999573
v 527.352173 -1.698671 -336.999573
v -238.751007 3.845137 -789.265198
v -238.751007 -0.447392 -789.265198
v -249.353775 3.845137 -808.459534
v -249.353775 -0.447393 -808.459534
v 524.627686 1.715769 -194.932495
v 524.627686 0.831392 -194.932495
v 523.916260 1.559403 -197.318024
v 523.916260 0.675026 -197.318024
v 523.204834 1.559403 -199.703568
v 523.204834 0.675026 -199.703568
v 522.493408 1.715769 -202.089111
v 522.493408 0.831392 -202.089111
v 509.649323 1.715768 -245.157959
v 509.649323 0.831390 -245.157959
v 508.937897 1.559401 -247.543488
v 508.937897 0.675024 -247.543488
v 508.226471 1.559401 -249.929031
v 508.226471 0.675024 -249.929031
v 507.515045 1.715767 -252.314575
v 507.515045 0.831390 -252.314575
v 507.363312 1.715768 -252.823334
v 507.363312 0.831390 -252.823334
v 506.651886 1.559402 -255.208878
v 506.651886 0.675025 -255.208878
v 505.940491 1.559402 -257.594421
v 505.940491 0.675025 -257.594421
v 505.229065 1.715767 -259.979950
v 505.229065 0.831389 -259.979950
v 464.263855 1.715766 -267.448395
v 464.263855 0.831389 -267.448395
v 461.878326 1.559401 -266.736969
v 461.878326 0.675023 -266.736969
v 459.492798 1.559400 -266.025543
v 459.492798 0.675023 -266.025543
v 457.107239 1.715766 -265.314117
v 457.107239 0.831389 -265.314117
v 456.598480 1.715767 -265.162384
v 456.598480 0.831389 -265.162384
v 454.212952 1.559401 -264.450958
v 454.212952 0.675024 -264.450958
v 451.827393 1.559401 -263.739563
v 451.827393 0.675024 -263.739563
v 449.441864 1.715767 -263.028137
v 449.441864 0.831389 -263.028137
v 483.456696 1.715765 -273.172119
v 483.456696 0.831388 -273.172119
v 481.071167 1.559400 -272.460693
v 481.071167 0.675022 -272.460693
v 478.685638 1.559400 -271.749268
v 478.685638 0.675022 -271.749268
v 476.300079 1.715765 -271.037872
v 476.300079 0.831389 -271.037872
v 475.791321 1.715765 -270.886139
v 475.791321 0.831389 -270.886139
v 473.405792 1.559401 -270.174713
v 473.405792 0.675024 -270.174713
v 471.020233 1.559401 -269.463287
v 471.020233 0.675024 -269.463287
v 468.634705 1.715767 -268.751862
v 468.634705 0.831389 -268.751862
v 489.755157 0.831395 -181.971039
v 489.755127 1.715772 -181.971039
v 487.369598 1.559407 -181.259613
v 487.369598 0.675029 -181.259613
v 484.984070 1.559406 -180.548187
v 484.984070 0.675029 -180.548187
v 482.598541 1.715772 -179.836761
v 482.598541 0.831395 -179.836761
v 482.089783 0.831395 -179.685043
v 482.089783 1.715773 -179.685043
v 479.704224 1.559407 -178.973618
v 479.704224 0.675030 -178.973618
v 477.318695 1.559407 -178.262207
v 477.318695 0.675031 -178.262207
v 474.933167 1.715774 -177.550781
v 474.933167 0.831396 -177.550781
v 508.947998 0.831395 -187.694778
v 508.947968 1.715772 -187.694778
v 506.562439 1.559407 -186.983353
v 506.562439 0.675029 -186.983353
v 504.176910 1.559407 -186.271942
v 504.176910 0.675029 -186.271942
v 501.791382 1.715772 -185.560516
v 501.791382 0.831395 -185.560516
v 501.282593 0.831395 -185.408783
v 501.282593 1.715772 -185.408783
v 498.897064 1.559407 -184.697357
v 498.897064 0.675030 -184.697357
v 496.511536 1.559407 -183.985947
v 496.511536 0.675030 -183.985947
v 494.125977 1.715773 -183.274521
v 494.126007 0.831395 -183.274521
v -105.751686 14.967601 -691.183655
v -105.751686 14.083223 -691.183655
v -108.240707 14.811234 -691.224792
v -108.240707 13.926858 -691.224792
v -110.729721 14.811234 -691.265991
v -110.729721 13.926858 -691.265991
v -113.218750 14.967601 -691.307129
v -113.218750 14.083223 -691.307129
v -158.155869 14.967603 -692.050232
v -158.155869 14.083226 -692.050232
v -160.644882 14.811237 -692.091431
v -160.644882 13.926860 -692.091431
v -163.133896 14.811237 -692.132568
v -163.133896 13.926860 -692.132568
v -165.622925 14.967603 -692.173767
v -165.622925 14.083226 -692.173767
v -166.153763 14.967604 -692.182495
v -166.153763 14.083226 -692.182495
v -168.642776 14.811237 -692.223694
v -168.642776 13.926860 -692.223694
v -171.131790 14.811237 -692.264832
v -171.131790 13.926860 -692.264832
v -173.620819 14.967604 -692.306030
v -173.620819 14.083226 -692.306030
v -193.096237 14.967606 -655.500671
v -193.096237 14.083229 -655.500671
v -193.137390 14.811240 -653.011658
v -193.137390 13.926863 -653.011658
v -193.178558 14.811241 -650.522644
v -193.178558 13.926864 -650.522644
v -193.219727 14.967607 -648.033630
v -193.219727 14.083230 -648.033630
v -193.228500 14.967607 -647.502808
v -193.228500 14.083230 -647.502808
v -193.269653 14.811241 -645.013733
v -193.269653 13.926864 -645.013733
v -193.310822 14.811241 -642.524719
v -193.310822 13.926864 -642.524719
v -193.351974 14.967607 -640.035706
v -193.351974 14.083230 -640.035706
v -192.765076 14.967605 -675.526062
v -192.765076 14.083228 -675.526062
v -192.806244 14.811239 -673.037048
v -192.806244 13.926862 -673.037048
v -192.847397 14.811239 -670.548035
v -192.847397 13.926862 -670.548035
v -192.888565 14.967605 -668.059021
v -192.888565 14.083228 -668.059021
v -192.897339 14.967605 -667.528198
v -192.897339 14.083228 -667.528198
v -192.938507 14.811239 -665.039124
v -192.938507 13.926862 -665.039124
v -192.979660 14.811240 -662.550110
v -192.979660 13.926863 -662.550110
v -193.020813 14.967607 -660.061096
v -193.020813 14.083229 -660.061096
v -103.911003 14.083229 -654.025818
v -103.911003 14.967606 -654.025818
v -103.952164 14.811240 -651.536804
v -103.952164 13.926863 -651.536804
v -103.993324 14.811241 -649.047791
v -103.993324 13.926864 -649.047791
v -104.034485 14.967607 -646.558716
v -104.034485 14.083230 -646.558716
v -104.043259 14.083230 -646.027893
v -104.043259 14.967607 -646.027893
v -104.084419 14.811241 -643.538879
v -104.084419 13.926864 -643.538879
v -104.125580 14.811241 -641.049866
v -104.125580 13.926864 -641.049866
v -104.166748 14.967607 -638.560852
v -104.166748 14.083230 -638.560852
v -103.579834 14.083228 -674.051208
v -103.579834 14.967605 -674.051208
v -103.621002 14.811239 -671.562195
v -103.621002 13.926862 -671.562195
v -103.662163 14.811239 -669.073181
v -103.662163 13.926862 -669.073181
v -103.703323 14.967605 -666.584167
v -103.703323 14.083228 -666.584167
v -103.712097 14.083228 -666.053284
v -103.712097 14.967605 -666.053284
v -103.753265 14.811239 -663.564270
v -103.753265 13.926862 -663.564270
v -103.794418 14.811240 -661.075256
v -103.794418 13.926863 -661.075256
v -103.835587 14.967607 -658.586243
v -103.835587 14.083229 -658.586243
v -231.492004 15.931583 -653.842957
v -231.492004 14.890975 -653.842957
v -230.456177 15.747595 -654.997681
v -230.456177 14.706986 -654.997681
v -229.420349 15.747595 -656.152405
v -229.420349 14.706986 -656.152405
v -228.384521 15.931583 -657.307129
v -228.384521 14.890975 -657.307129
v -209.683517 15.931584 -678.155029
v -209.683517 14.890976 -678.155029
v -208.647690 15.747596 -679.309753
v -208.647690 14.706987 -679.309753
v -207.611862 15.747596 -680.464478
v -207.611862 14.706987 -680.464478
v -206.576035 15.931584 -681.619202
v -206.576035 14.890976 -681.619202
v -206.355118 15.931584 -681.865479
v -206.355118 14.890976 -681.865479
v -205.319290 15.747596 -683.020264
v -205.319290 14.706987 -683.020264
v -204.283447 15.747596 -684.174988
v -204.283447 14.706987 -684.174988
v -203.247635 15.931584 -685.329712
v -203.247635 14.890976 -685.329712
v -219.606934 15.931581 -715.577881
v -219.606934 14.890973 -715.577881
v -221.230331 15.747593 -717.019470
v -221.230316 14.706985 -717.019470
v -222.853729 15.747593 -718.461060
v -222.853714 14.706985 -718.461060
v -224.477127 15.931581 -719.902649
v -224.477127 14.890973 -719.902649
v -224.823334 15.931581 -720.210083
v -224.823334 14.890973 -720.210083
v -226.446747 15.747593 -721.651672
v -226.446747 14.706985 -721.651672
v -228.070129 15.747593 -723.093262
v -228.070129 14.706985 -723.093262
v -229.693542 15.931581 -724.534851
v -229.693527 14.890973 -724.534851
v -206.545898 15.931582 -703.979553
v -206.545898 14.890974 -703.979553
v -208.169312 15.747594 -705.421143
v -208.169312 14.706985 -705.421143
v -209.792694 15.747594 -706.862732
v -209.792694 14.706985 -706.862732
v -211.416092 15.931582 -708.304321
v -211.416092 14.890974 -708.304321
v -211.762329 15.931582 -708.611755
v -211.762329 14.890974 -708.611755
v -213.385712 15.747594 -710.053345
v -213.385712 14.706985 -710.053345
v -215.009125 15.747594 -711.494934
v -215.009125 14.706985 -711.494934
v -216.632507 15.931582 -712.936523
v -216.632507 14.890974 -712.936523
v -256.722198 14.890977 -674.201843
v -256.722198 15.931585 -674.201843
v -258.345581 15.747597 -675.643433
v -258.345581 14.706988 -675.643372
v -259.968994 15.747596 -677.085022
v -259.968994 14.706987 -677.085022
v -261.592377 15.931584 -678.526611
v -261.592377 14.890976 -678.526611
v -261.938599 14.890976 -678.834045
v -261.938599 15.931584 -678.834045
v -263.562012 15.747596 -680.275635
v -263.562012 14.706987 -680.275635
v -265.185394 15.747596 -681.717224
v -265.185394 14.706987 -681.717224
v -266.808777 15.931584 -683.158813
v -266.808777 14.890976 -683.158813
v -243.661163 14.890978 -662.603455
v -243.661163 15.931586 -662.603455
v -245.284546 15.747597 -664.045044
v -245.284546 14.706988 -664.045044
v -246.907959 15.747597 -665.486633
v -246.907944 14.706988 -665.486633
v -248.531342 15.931585 -666.928284
v -248.531342 14.890977 -666.928284
v -248.877563 14.890977 -667.235718
v -248.877563 15.931585 -667.235718
v -250.500977 15.747597 -668.677307
v -250.500977 14.706988 -668.677307
v -252.124359 15.747597 -670.118896
v -252.124359 14.706988 -670.118896
v -253.747757 15.931585 -671.560486
v -253.747757 14.890977 -671.560486
v -75.083900 4.368020 19.652847
v -75.083900 5.252398 19.652847
v -75.130035 5.096032 22.141781
v -75.130035 4.211653 22.141781
v -75.176163 5.096032 24.630733
v -75.176163 4.211653 24.630733
v -75.222290 5.252399 27.119678
v -75.222290 4.368020 27.119678
v 440.415924 17.924749 -476.286926
v 440.415924 18.809128 -476.286926
v 441.819946 18.652760 -474.231293
v 441.819946 17.768381 -474.231293
v 443.223999 18.652760 -472.175659
v 443.223999 17.768381 -472.175659
v 444.628052 18.809128 -470.120026
v 444.628052 17.924749 -470.120026
v -324.404694 26.248310 -509.279083
v -324.404694 27.132689 -509.279083
v -326.893616 26.976322 -509.325226
v -326.893616 26.091944 -509.325226
v -329.382568 26.976322 -509.371368
v -329.382568 26.091944 -509.371368
v -331.871521 27.132689 -509.417480
v -331.871521 26.248310 -509.417480
v 532.760925 2.695378 -294.594940
v 532.760925 3.579756 -294.594940
v 535.163696 3.423389 -295.245789
v 535.163696 2.539010 -295.245789
v 537.566528 3.423388 -295.896667
v 537.566528 2.539010 -295.896667
v 539.969299 3.579756 -296.547516
v 539.969299 2.695378 -296.547516
v 539.304932 1.938167 -182.110306
v 539.304932 2.822546 -182.110306
v 541.432068 2.666179 -182.692017
v 541.432068 1.781800 -182.692017
v 543.360657 2.666179 -183.261597
v 543.360657 1.781800 -183.261597
v 544.953186 2.822545 -183.706665
v 544.953186 1.938167 -183.706665
v 349.948730 43.727436 -1003.276672
v 349.948730 44.611816 -1003.276672
v 351.651947 44.455448 -1005.092163
v 351.651947 43.571068 -1005.092163
v 353.355164 44.455448 -1006.907654
v 353.355164 43.571068 -1006.907654
v 355.058380 44.611816 -1008.723145
v 355.058380 43.727436 -1008.723145
v 397.200012 2.695402 23.095314
v 397.200012 3.579780 23.095314
v 397.153870 3.423413 25.584248
v 397.153870 2.539034 25.584248
v 397.107758 3.423413 28.073200
v 397.107758 2.539034 28.073200
v 397.061615 3.579780 30.562145
v 397.061615 2.695402 30.562145
v 462.709442 40.248760 -901.728455
v 462.709442 41.133141 -901.728455
v 464.412659 40.976772 -903.543945
v 464.412659 40.092392 -903.543945
v 466.115906 40.976772 -905.359436
v 466.115906 40.092392 -905.359436
v 467.819092 41.133141 -907.174927
v 467.819092 40.248760 -907.174927
v -280.615387 26.118299 -276.410156
v -280.615387 27.002676 -276.410156
v -283.104675 26.846312 -276.395355
v -283.104675 25.961933 -276.395355
v -285.593994 26.846312 -276.380554
v -285.593994 25.961933 -276.380554
v -288.083313 27.002676 -276.365753
v -288.083313 26.118299 -276.365753
v -386.689087 20.019482 -241.925354
v -386.689087 20.903858 -241.925354
v -389.037354 20.747492 -241.099213
v -389.037354 19.863115 -241.099213
v -391.385620 20.747492 -240.273102
v -391.385620 19.863115 -240.273102
v -393.733917 20.903860 -239.446930
v -393.733917 20.019484 -239.446930
v -363.332306 20.041256 -249.793808
v -363.332306 20.925632 -249.793808
v -365.680573 20.769268 -248.967682
v -365.680573 19.884890 -248.967682
v -368.028839 20.769268 -248.141541
v -368.028839 19.884890 -248.141541
v -370.377136 20.925632 -247.315384
v -370.377136 20.041256 -247.315384
v -354.214661 20.041256 -252.914093
v -354.214661 20.925632 -252.914093
v -356.562927 20.769268 -252.087967
v -356.562927 19.884890 -252.087967
v -358.911194 20.769268 -251.261826
v -358.911194 19.884890 -251.261826
v -361.259491 20.925632 -250.435669
v -361.259491 20.041256 -250.435669
v 314.978790 34.418068 -719.107483
v 314.978790 35.302444 -719.107483
v 313.992279 35.146080 -721.393005
v 313.992279 34.261700 -721.393005
v 313.005737 35.146080 -723.678589
v 313.005737 34.261700 -723.678589
v 312.019196 35.302444 -725.964111
v 312.019196 34.418068 -725.964111
v -9.404973 6.284286 -19.793079
v -9.404973 4.981606 -19.793079
v -2.150797 6.284286 -19.793079
v -2.150797 4.981606 -19.793079
v 55.117924 6.284286 -14.323384
v 55.117924 4.981607 -14.323384
v 62.372101 6.284286 -14.323384
v 62.372101 4.981607 -14.323384
v 120.148262 6.284286 -19.793079
v 120.148262 4.981606 -19.793079
v 127.402443 6.284286 -19.793079
v 127.402443 4.981606 -19.793079
v -281.249756 5.334401 -57.505653
v -281.247772 4.373924 -57.507015
v -278.508942 4.130354 -53.714634
v -278.510864 5.090829 -53.713188
v -303.573273 8.267119 -106.040558
v -303.571045 7.306637 -106.041466
v -301.689880 7.023917 -101.385437
v -301.692108 7.984399 -101.384567
v -307.024872 8.840043 -114.970261
v -307.022583 7.879561 -114.971024
v -305.437744 7.591908 -110.663757
v -305.439972 8.552389 -110.662872
v -299.810974 7.704396 -96.728561
v -299.808746 6.743915 -96.729454
v -297.927612 6.466799 -92.073479
v -297.929871 7.427282 -92.072586
v -274.016693 19.509842 -302.014954
v -274.019104 18.549356 -302.014984
v -274.019104 18.826496 -307.036621
v -274.016693 19.786963 -307.036621
v -274.019104 19.109367 -312.058289
v -274.016663 20.069811 -312.058289
v -274.019104 19.273079 -317.079956
v -274.016693 20.233515 -317.079956
v -274.019104 19.389402 -322.101593
v -274.016663 20.349838 -322.101593
v -274.019104 19.498173 -327.123260
v -274.016693 20.458609 -327.123291
v -203.333313 20.490667 -422.398041
v -203.334778 19.530197 -422.396118
v -207.318726 19.622782 -425.453125
v -207.317276 20.583260 -425.455017
v -219.597931 20.587337 -432.419830
v -219.598511 19.626846 -432.417480
v -222.672058 19.591183 -432.963165
v -222.671799 20.551676 -432.965546
v -213.804642 20.653448 -430.128723
v -213.805817 19.692963 -430.126617
v -216.625336 19.661821 -431.466309
v -216.624466 20.622309 -431.468536
v -79.293968 11.080248 -368.894348
v -79.295921 12.040689 -368.892975
v -82.197105 12.040196 -372.991760
v -82.195145 11.079758 -372.993134
v -61.172905 11.126915 -344.874817
v -61.174015 12.087355 -344.872711
v -64.467285 12.074594 -348.631409
v -64.466057 11.114156 -348.633484
v 69.851357 11.920327 -311.446259
v 69.851448 12.880766 -311.448639
v 74.647133 12.921138 -311.448334
v 74.647110 11.960698 -311.445923
v 47.019455 11.722766 -311.468933
v 47.019363 12.683206 -311.471344
v 51.354267 12.721934 -311.479919
v 51.354317 11.761494 -311.477509
v 173.690399 13.673525 -322.967712
v 173.690887 12.713086 -322.965393
v 168.382401 12.681963 -321.111115
v 168.381958 13.642402 -321.113464
v 147.130829 13.507905 -314.925140
v 147.130981 12.547465 -314.922760
v 141.486160 12.511658 -313.458740
v 141.486115 13.472096 -313.461151
v 150.771942 13.508789 -365.464539
v 150.772202 12.548349 -365.466919
v 155.331757 12.583327 -365.451813
v 155.331604 13.543767 -365.449402
v 159.902527 12.617430 -365.458649
v 159.902405 13.577868 -365.456268
v 164.480026 12.650594 -365.465637
v 164.479980 13.611032 -365.463226
v 169.059662 12.682755 -365.422119
v 169.059723 13.643195 -365.419708
v 232.383499 13.927608 -343.079285
v 232.384384 12.967168 -343.077057
v 227.382797 12.951918 -341.092102
v 227.381927 13.912356 -341.094330
v 289.132172 13.968606 -449.911072
v 289.133026 13.012310 -449.913300
v 293.816376 13.012311 -448.162292
v 293.815552 13.968607 -448.160034
v 404.625275 13.313519 -460.045166
v 404.626678 12.353081 -460.043213
v 400.535522 12.474825 -457.131287
v 400.534119 13.435266 -457.133209
v 396.444366 12.585268 -454.219360
v 396.442963 13.545708 -454.221313
v 412.807709 13.037527 -465.869019
v 412.809082 12.077090 -465.867096
v 408.717865 12.220384 -462.955139
v 408.716522 13.180820 -462.957092
v 367.804688 13.972755 -433.837799
v 367.806061 13.012317 -433.835846
v 363.687225 13.019662 -430.904266
v 363.685852 13.980100 -430.906219
v 437.354706 11.974945 -483.340607
v 437.356110 11.014505 -483.338654
v 433.264954 11.213986 -480.426758
v 433.263550 12.174425 -480.428680
v 455.614685 -3.276706 13.463165
v 455.614685 -2.316266 13.460773
v 466.348602 -2.316267 13.454741
v 466.348602 -3.276706 13.457129
v 443.355865 -3.276704 13.473816
v 443.355865 -2.316266 13.471397
v 233.461212 -2.473041 13.469576
v 233.461212 -1.512602 13.467174
v 238.482880 -2.573086 13.469576
v 238.482864 -1.612646 13.467174
v 243.504532 -2.671724 13.469576
v 243.504547 -1.711285 13.467175
v 283.677826 -3.243761 13.469585
v 283.677826 -2.283322 13.467184
v 288.699493 -3.267326 13.469585
v 288.699463 -2.306886 13.467184
v 62.724567 -0.707284 13.467176
v 62.724567 -1.667723 13.469576
v 57.702911 -1.667722 13.469576
v 57.702911 -0.707283 13.467176
v 52.681255 -1.667722 13.469578
v 52.681255 -0.707283 13.467180
v 67.746231 -0.707284 13.467176
v 67.746231 -1.667723 13.469576
v 52.681263 -0.301125 -8.502407
v 52.681263 -1.667724 -8.504805
v 57.702927 -1.667724 -8.504805
v 57.702927 -0.301125 -8.502403
v 62.724586 -1.667723 -8.504805
v 62.724586 -0.301124 -8.502403
v 67.746246 -1.667723 -8.504805
v 67.746246 -0.301124 -8.502403
v -320.279785 10.001457 -702.547546
v -320.282166 9.045162 -702.547546
v -320.282166 8.363963 -707.547546
v -320.279785 9.320258 -707.547546
v -320.282166 7.676692 -712.547607
v -320.279785 8.632988 -712.547607
v -320.282166 6.984725 -717.547546
v -320.279785 7.941026 -717.547485
v 411.763641 31.542063 -877.649719
v 411.762268 30.587214 -877.647705
v 407.666504 30.544867 -880.515625
v 407.667908 31.499670 -880.517578
v 403.570740 30.519445 -883.383484
v 403.572113 31.474220 -883.385437
v 399.475037 30.513655 -886.251343
v 399.476440 31.468416 -886.253296
v 395.379211 30.529882 -889.119263
v 395.380554 31.484652 -889.121216
v 226.458969 32.858383 -1009.318359
v 226.458282 31.902054 -1009.320801
v 232.600464 32.217247 -1012.683350
v 232.601044 33.173836 -1012.680847
v 266.308838 34.251873 -958.290283
v 266.308716 33.295605 -958.287964
v 261.699738 33.241440 -958.403625
v 261.699738 34.197708 -958.406006
v 257.162994 34.112926 -958.273315
v 257.163147 33.156670 -958.270935
v 252.707520 33.026955 -957.890137
v 252.707275 33.983212 -957.892517
v 239.903564 33.359207 -955.281921
v 239.904175 32.402966 -955.279663
v 235.846832 32.127445 -953.932312
v 235.846161 33.083687 -953.934509
v 248.340637 33.812088 -957.265137
v 248.341003 32.855835 -957.262756
v 244.070984 32.646755 -956.391357
v 244.070496 33.603001 -956.393677
v 231.904007 32.779072 -952.357178
v 231.904800 31.822830 -952.355042
v 228.083374 31.491333 -950.554321
v 228.082535 32.447575 -950.556396
v 224.386658 32.090942 -948.539307
v 224.387573 31.134699 -948.537292
v 220.821930 30.754150 -946.311462
v 220.820923 31.710398 -946.313416
v 307.158447 27.466120 -663.557129
v 307.160034 26.509823 -663.555298
v 301.429199 26.287762 -660.460876
v 301.427795 27.244057 -660.462769
v 296.077667 26.060535 -657.725464
v 296.076355 27.016832 -657.727478
v 290.499207 25.828419 -654.964233
v 290.498047 26.784714 -654.966309
v 239.667175 23.984818 -631.055786
v 239.668182 23.028522 -631.053589
v 235.136642 22.758518 -628.940552
v 235.135635 23.714815 -628.942688
v 230.605103 22.487095 -626.827454
v 230.604095 23.443392 -626.829590
v 226.073578 22.214521 -624.714355
v 226.072571 23.170816 -624.716492
v 221.542038 21.941057 -622.601257
v 221.541016 22.897352 -622.603394
v 217.010498 21.666979 -620.488159
v 217.009476 22.623278 -620.490295
v 212.478943 21.392551 -618.375061
v 212.477951 22.348846 -618.377197
v 280.426331 -1.007892 -25.470142
v 280.426331 -2.524829 -25.470142
v 288.873627 -1.007892 -25.470142
v 288.873627 -2.524829 -25.470142
v -294.957428 18.606758 -117.782417
v -294.957428 14.997652 -117.782417
v -286.832336 18.606758 -120.572273
v -286.832336 14.997651 -120.572273
vn 0.7650 -0.0000 0.6440
vn -0.6842 -0.0000 0.7293
vn 0.9594 -0.0000 -0.2820
vn -0.4785 -0.0000 -0.8781
vn -0.3616 -0.0000 0.9323
vn 0.8753 -0.0000 -0.4835
vn 0.9583 -0.0000 -0.2858
vn -0.2858 -0.0000 -0.9583
vn 0.2858 -0.0000 0.9583
vn 0.0165 -0.0000 -0.9999
vn 0.0166 -0.0000 -0.9999
vn -0.9999 -0.0000 -0.0165
vn 0.9999 -0.0000 0.0165
vn 0.7444 -0.0000 0.6678
vn 0.7444 -0.0000 0.6677
vn 0.7443 -0.0000 0.6678
vn 0.6640 -0.0000 -0.7477
vn 0.6640 -0.0000 -0.7478
vn -0.6640 -0.0000 0.7477
vn -0.6640 -0.0000 0.7478
vn 0.9998 -0.0000 0.0185
vn 0.8258 -0.0000 -0.5640
vn -0.0185 -0.0000 0.9998
vn -0.2615 -0.0000 -0.9652
vn -0.2614 -0.0000 -0.9652
vn -0.2638 -0.0000 -0.9646
vn -0.2733 -0.0000 -0.9619
vn -0.2738 -0.0000 -0.9618
vn -0.2760 -0.0000 -0.9612
vn -0.2764 -0.0000 -0.9610
vn -0.2692 -0.0000 -0.9631
vn -0.2691 -0.0000 -0.9631
vn -0.7293 -0.0000 -0.6842
vn 0.0059 -0.0000 1.0000
vn 0.0060 -0.0000 1.0000
vn 0.3319 -0.0000 0.9433
vn -0.9181 -0.0000 0.3963
vn -0.0000 -0.0000 1.0000
vn -0.8108 -0.0025 0.5854
vn -0.9272 -0.0025 0.3745
vn -0.9272 -0.0024 0.3745
vn -0.9385 -0.0025 0.3452
vn 1.0000 -0.0025 -0.0001
vn 1.0000 -0.0026 -0.0001
vn 0.6087 -0.0025 -0.7934
vn 0.1748 -0.0025 -0.9846
vn 0.4292 -0.0025 -0.9032
vn -0.8162 -0.0025 0.5777
vn -0.7521 -0.0023 0.6590
vn -0.7521 -0.0024 0.6590
vn 0.0001 -0.0025 -1.0000
vn -0.0019 -0.0025 -1.0000
vn -0.0020 -0.0025 -1.0000
vn -0.3297 -0.0024 -0.9441
vn -0.3297 -0.0025 -0.9441
vn -0.2510 -0.0024 -0.9680
vn -0.0033 -0.0025 1.0000
vn -0.0009 -0.0025 1.0000
vn 0.0015 -0.0025 1.0000
vn -0.0039 -0.0025 1.0000
vn -0.0040 -0.0025 1.0000
vn -0.0095 -0.0025 1.0000
vn -0.3689 -0.0025 -0.9295
vn -0.3502 -0.0025 0.9367
vn -0.5799 -0.0025 -0.8147
vn -0.5800 -0.0026 -0.8146
vn -0.5799 -0.0024 -0.8147
vn -0.0007 -0.0025 -1.0000
vn -0.0006 -0.0025 -1.0000
vn -0.0009 -0.0025 -1.0000
vn -0.0001 -0.0025 -1.0000
vn -0.0000 -0.0025 -1.0000
vn -0.0000 -0.0018 1.0000
vn 1.0000 -0.0025 0.0003
vn 0.5736 -0.0025 -0.8191
vn 0.5736 -0.0026 -0.8191
vn 0.5736 -0.0025 -0.8192
vn 0.4803 -0.0026 0.8771
vn 0.0251 -0.0024 -0.9997
vn 0.0251 -0.0025 -0.9997
vn -0.0851 -0.0025 -0.9964
vn -0.0850 -0.0025 -0.9964
vn -0.3150 -0.0024 -0.9491
vn -0.1998 -0.0025 -0.9798
vn -0.4261 -0.0024 -0.9047
vn -0.4261 -0.0023 -0.9047
vn -0.5293 -0.0023 -0.8484
vn -0.5294 -0.0023 -0.8484
vn -0.4750 -0.0025 -0.8800
vn -0.4649 -0.0024 -0.8854
vn -0.4653 -0.0024 -0.8851
vn -0.4492 -0.0025 -0.8934
vn -0.4494 -0.0025 -0.8933
vn -0.4435 -0.0025 -0.8963
vn -0.4225 -0.0025 -0.9064
vn 0.3248 -0.0000 0.9458
vt 0.000000 2.000000
vt 0.000000 1.000000
vt 1.000000 2.000000
vt 1.000000 1.000000
vt 0.000500 1.999501
vt 0.000500 1.000501
vt 0.333500 1.999500
vt 0.333500 1.000500
vt 0.666500 1.999500
vt 0.666500 1.000500
vt 0.999501 1.999499
vt 0.999500 1.000499
vt 0.999500 1.000501
vt 0.999500 1.999501
vt 0.000499 1.999499
vt 0.000500 1.000499
vt 0.000000 1.000500
vt 1.000000 1.000500
s 1
usemtl CMWLALOGOA.018
f 1/1/1 2/2/1 3/3/1
f 4/4/1 3/3/1 2/2/1
f 5/1/2 6/2/2 7/3/2
f 8/4/2 7/3/2 6/2/2
f 9/1/3 10/2/3 11/3/3
f 12/4/3 11/3/3 10/2/3
f 13/1/3 14/2/3 15/3/3
f 16/4/3 15/3/3 14/2/3
f 17/1/4 18/2/4 19/3/4
f 20/4/4 19/3/4 18/2/4
f 21/1/5 22/2/5 23/3/5
f 24/4/5 23/3/5 22/2/5
f 25/1/6 26/2/6 27/3/6
f 28/4/6 27/3/6 26/2/6
f 29/5/7 30/6/7 31/7/7
f 32/8/7 31/7/7 30/6/7
f 31/7/7 32/8/7 33/9/7
f 34/10/7 33/9/7 32/8/7
f 33/9/7 34/10/7 35/11/7
f 36/12/7 35/11/7 34/10/7
f 37/5/7 38/6/7 39/7/7
f 40/8/7 39/7/7 38/6/7
f 39/7/7 40/8/7 41/9/7
f 42/10/7 41/9/7 40/8/7
f 41/9/7 42/10/7 43/11/7
f 44/12/7 43/11/7 42/10/7
f 45/5/7 46/6/7 47/7/7
f 48/8/7 47/7/7 46/6/7
f 47/7/7 48/8/7 49/9/7
f 50/10/7 49/9/7 48/8/7
f 49/9/7 50/10/7 51/11/7
f 52/12/7 51/11/7 50/10/7
f 53/5/8 54/6/8 55/7/8
f 56/8/8 55/7/8 54/6/8
f 55/7/8 56/8/8 57/9/8
f 58/10/8 57/9/8 56/8/8
f 57/9/8 58/10/8 59/11/8
f 60/12/8 59/11/8 58/10/8
f 61/5/8 62/6/8 63/7/8
f 64/8/8 63/7/8 62/6/8
f 63/7/8 64/8/8 65/9/8
f 66/10/8 65/9/8 64/8/8
f 65/9/8 66/10/8 67/11/8
f 68/12/8 67/11/8 66/10/8
f 69/5/8 70/6/8 71/7/8
f 72/8/8 71/7/8 70/6/8
f 71/7/8 72/8/8 73/9/8
f 74/10/8 73/9/8 72/8/8
f 73/9/8 74/10/8 75/11/8
f 76/12/8 75/11/8 74/10/8
f 77/5/8 78/6/8 79/7/8
f 80/8/8 79/7/8 78/6/8
f 79/7/8 80/8/8 81/9/8
f 82/10/8 81/9/8 80/8/8
f 81/9/8 82/10/8 83/11/8
f 84/12/8 83/11/8 82/10/8
f 85/6/9 86/5/9 87/7/9
f 87/7/9 88/8/9 85/6/9
f 88/8/9 87/7/9 89/9/9
f 89/9/9 90/10/9 88/8/9
f 90/10/9 89/9/9 91/11/9
f 91/11/9 92/12/9 90/10/9
f 93/6/9 94/5/9 95/7/9
f 95/7/9 96/8/9 93/6/9
f 96/8/9 95/7/9 97/9/9
f 97/9/9 98/10/9 96/8/9
f 98/10/9 97/9/9 99/11/9
f 99/11/9 100/12/9 98/10/9
f 101/6/9 102/5/9 103/7/9
f 103/7/9 104/8/9 101/6/9
f 104/8/9 103/7/9 105/9/9
f 105/9/9 106/10/9 104/8/9
f 106/10/9 105/9/9 107/11/9
f 107/11/9 108/12/9 106/10/9
f 109/6/9 110/5/9 111/7/9
f 111/7/9 112/8/9 109/6/9
f 112/8/9 111/7/9 113/9/9
f 113/9/9 114/10/9 112/8/9
f 114/10/9 113/9/9 115/11/9
f 115/11/9 116/12/9 114/10/9
f 117/5/10 118/6/10 119/7/10
f 120/8/10 119/7/10 118/6/10
f 119/7/10 120/8/10 121/9/10
f 122/10/11 121/9/10 120/8/10
f 121/9/10 122/10/11 123/11/10
f 124/12/10 123/11/10 122/10/11
f 125/5/11 126/6/11 127/7/10
f 128/8/11 127/7/10 126/6/11
f 127/7/10 128/8/11 129/9/11
f 130/10/10 129/9/11 128/8/11
f 129/9/11 130/10/10 131/11/10
f 132/12/10 131/11/10 130/10/10
f 133/5/11 134/6/11 135/7/10
f 136/8/10 135/7/10 134/6/11
f 135/7/10 136/8/10 137/9/10
f 138/10/10 137/9/10 136/8/10
f 137/9/10 138/10/10 139/11/11
f 140/12/11 139/11/11 138/10/10
f 141/5/12 142/6/12 143/7/12
f 144/8/12 143/7/12 142/6/12
f 143/7/12 144/8/12 145/9/12
f 146/10/12 145/9/12 144/8/12
f 145/9/12 146/10/12 147/11/12
f 148/12/12 147/11/12 146/10/12
f 149/5/12 150/6/12 151/7/12
f 152/8/12 151/7/12 150/6/12
f 151/7/12 152/8/12 153/9/12
f 154/10/12 153/9/12 152/8/12
f 153/9/12 154/10/12 155/11/12
f 156/12/12 155/11/12 154/10/12
f 157/5/12 158/6/12 159/7/12
f 160/8/12 159/7/12 158/6/12
f 159/7/12 160/8/12 161/9/12
f 162/10/12 161/9/12 160/8/12
f 161/9/12 162/10/12 163/11/12
f 164/12/12 163/11/12 162/10/12
f 165/5/12 166/6/12 167/7/12
f 168/8/12 167/7/12 166/6/12
f 167/7/12 168/8/12 169/9/12
f 170/10/12 169/9/12 168/8/12
f 169/9/12 170/10/12 171/11/12
f 172/12/12 171/11/12 170/10/12
f 173/6/13 174/5/13 175/7/13
f 175/7/13 176/8/13 173/6/13
f 176/8/13 175/7/13 177/9/13
f 177/9/13 178/10/13 176/8/13
f 178/10/13 177/9/13 179/11/13
f 179/11/13 180/12/13 178/10/13
f 181/6/13 182/5/13 183/7/13
f 183/7/13 184/8/13 181/6/13
f 184/8/13 183/7/13 185/9/13
f 185/9/13 186/10/13 184/8/13
f 186/10/13 185/9/13 187/11/13
f 187/11/13 188/12/13 186/10/13
f 189/6/13 190/5/13 191/7/13
f 191/7/13 192/8/13 189/6/13
f 192/8/13 191/7/13 193/9/13
f 193/9/13 194/10/13 192/8/13
f 194/10/13 193/9/13 195/11/13
f 195/11/13 196/12/13 194/10/13
f 197/6/13 198/5/13 199/7/13
f 199/7/13 200/8/13 197/6/13
f 200/8/13 199/7/13 201/9/13
f 201/9/13 202/10/13 200/8/13
f 202/10/13 201/9/13 203/11/13
f 203/11/13 204/12/13 202/10/13
f 205/5/14 206/6/14 207/7/15
f 208/8/15 207/7/15 206/6/14
f 207/7/15 208/8/15 209/9/14
f 210/10/14 209/9/14 208/8/15
f 209/9/14 210/10/14 211/11/15
f 212/12/15 211/11/15 210/10/14
f 213/5/15 214/6/15 215/7/14
f 216/8/14 215/7/14 214/6/15
f 215/7/14 216/8/14 217/9/15
f 218/10/15 217/9/15 216/8/14
f 217/9/15 218/10/15 219/11/14
f 220/12/16 219/11/14 218/10/15
f 221/5/15 222/6/15 223/7/15
f 224/8/15 223/7/15 222/6/15
f 223/7/15 224/8/15 225/9/14
f 226/10/14 225/9/14 224/8/15
f 225/9/14 226/10/14 227/11/15
f 228/12/15 227/11/15 226/10/14
f 229/5/17 230/6/17 231/7/17
f 232/8/18 231/7/17 230/6/17
f 231/7/17 232/8/18 233/9/17
f 234/10/17 233/9/17 232/8/18
f 233/9/17 234/10/17 235/11/18
f 236/12/18 235/11/18 234/10/17
f 237/5/17 238/6/17 239/7/17
f 240/8/18 239/7/17 238/6/17
f 239/7/17 240/8/18 241/9/17
f 242/10/17 241/9/17 240/8/18
f 241/9/17 242/10/17 243/11/18
f 244/12/18 243/11/18 242/10/17
f 245/5/17 246/6/17 247/7/17
f 248/8/17 247/7/17 246/6/17
f 247/7/17 248/8/17 249/9/17
f 250/10/17 249/9/17 248/8/17
f 249/9/17 250/10/17 251/11/17
f 252/12/17 251/11/17 250/10/17
f 253/5/17 254/6/17 255/7/17
f 256/8/17 255/7/17 254/6/17
f 255/7/17 256/8/17 257/9/17
f 258/10/17 257/9/17 256/8/17
f 257/9/17 258/10/17 259/11/17
f 260/12/17 259/11/17 258/10/17
f 261/6/19 262/5/19 263/7/19
f 263/7/19 264/8/19 261/6/19
f 264/8/19 263/7/19 265/9/19
f 265/9/19 266/10/19 264/8/19
f 266/10/19 265/9/19 267/11/19
f 267/11/19 268/12/19 266/10/19
f 269/6/19 270/5/19 271/7/19
f 271/7/19 272/8/19 269/6/19
f 272/8/19 271/7/19 273/9/19
f 273/9/19 274/10/19 272/8/19
f 274/10/19 273/9/19 275/11/19
f 275/11/19 276/12/19 274/10/19
f 277/6/19 278/5/20 279/7/19
f 279/7/19 280/8/19 277/6/19
f 280/8/19 279/7/19 281/9/19
f 281/9/19 282/10/19 280/8/19
f 282/10/19 281/9/19 283/11/19
f 283/11/19 284/12/19 282/10/19
f 285/6/19 286/5/19 287/7/20
f 287/7/20 288/8/19 285/6/19
f 288/8/19 287/7/20 289/9/19
f 289/9/19 290/10/19 288/8/19
f 290/10/19 289/9/19 291/11/19
f 291/11/19 292/12/20 290/10/19
f 293/13/21 294/14/21 295/9/21
f 295/9/21 296/10/21 293/13/21
f 296/10/21 295/9/21 297/7/21
f 297/7/21 298/8/21 296/10/21
f 298/8/21 297/7/21 299/15/21
f 299/15/21 300/16/21 298/8/21
f 301/13/22 302/14/22 303/9/22
f 303/9/22 304/10/22 301/13/22
f 304/10/22 303/9/22 305/7/22
f 305/7/22 306/8/22 304/10/22
f 306/8/22 305/7/22 307/15/22
f 307/15/22 308/16/22 306/8/22
f 309/13/23 310/14/23 311/9/23
f 311/9/23 312/10/23 309/13/23
f 312/10/23 311/9/23 313/7/23
f 313/7/23 314/8/23 312/10/23
f 314/8/23 313/7/23 315/15/23
f 315/15/23 316/16/23 314/8/23
f 317/13/24 318/14/24 319/9/24
f 319/9/24 320/10/24 317/13/24
f 320/10/24 319/9/24 321/7/24
f 321/7/24 322/8/24 320/10/24
f 322/8/24 321/7/24 323/15/25
f 323/15/25 324/16/25 322/8/24
f 325/13/26 326/14/26 327/9/27
f 327/9/27 328/10/28 325/13/26
f 328/10/28 327/9/27 329/7/29
f 329/7/29 330/8/30 328/10/28
f 330/8/30 329/7/29 331/15/31
f 331/15/31 332/16/32 330/8/30
f 333/13/33 334/14/33 335/9/33
f 335/9/33 336/10/33 333/13/33
f 336/10/33 335/9/33 337/7/33
f 337/7/33 338/8/33 336/10/33
f 338/8/33 337/7/33 339/15/33
f 339/15/33 340/16/33 338/8/33
f 341/13/21 342/14/21 343/9/21
f 343/9/21 344/10/21 341/13/21
f 344/10/21 343/9/21 345/7/21
f 345/7/21 346/8/21 344/10/21
f 346/8/21 345/7/21 347/15/21
f 347/15/21 348/16/21 346/8/21
f 349/13/33 350/14/33 351/9/33
f 351/9/33 352/10/33 349/13/33
f 352/10/33 351/9/33 353/7/33
f 353/7/33 354/8/33 352/10/33
f 354/8/33 353/7/33 355/15/33
f 355/15/33 356/16/33 354/8/33
f 357/13/34 358/14/34 359/9/35
f 359/9/35 360/10/35 357/13/34
f 360/10/35 359/9/35 361/7/34
f 361/7/34 362/8/34 360/10/35
f 362/8/34 361/7/34 363/15/34
f 363/15/34 364/16/34 362/8/34
f 365/13/36 366/14/36 367/9/36
f 367/9/36 368/10/36 365/13/36
f 368/10/36 367/9/36 369/7/36
f 369/7/36 370/8/36 368/10/36
f 370/8/36 369/7/36 371/15/36
f 371/15/36 372/16/36 370/8/36
f 373/13/36 374/14/36 375/9/36
f 375/9/36 376/10/36 373/13/36
f 376/10/36 375/9/36 377/7/36
f 377/7/36 378/8/36 376/10/36
f 378/8/36 377/7/36 379/15/36
f 379/15/36 380/16/36 378/8/36
f 381/13/36 382/14/36 383/9/36
f 383/9/36 384/10/36 381/13/36
f 384/10/36 383/9/36 385/7/36
f 385/7/36 386/8/36 384/10/36
f 386/8/36 385/7/36 387/15/36
f 387/15/36 388/16/36 386/8/36
f 389/13/37 390/14/37 391/9/37
f 391/9/37 392/10/37 389/13/37
f 392/10/37 391/9/37 393/7/37
f 393/7/37 394/8/37 392/10/37
f 394/8/37 393/7/37 395/15/37
f 395/15/37 396/16/37 394/8/37
f 397/1/38 398/2/38 399/3/38
f 400/4/38 399/3/38 398/2/38
f 401/1/38 402/2/38 403/3/38
f 404/4/38 403/3/38 402/2/38
f 405/1/38 406/2/38 407/3/38
f 408/4/38 407/3/38 406/2/38
f 409/1/39 410/17/39 411/4/39
f 411/4/39 412/3/39 409/1/39
f 413/1/40 414/17/40 415/4/41
f 415/4/41 416/3/41 413/1/40
f 417/1/42 418/17/42 419/4/42
f 419/4/42 420/3/42 417/1/42
f 421/1/40 422/17/40 423/4/40
f 423/4/40 424/3/40 421/1/40
f 425/1/43 426/17/43 427/4/43
f 427/4/43 428/3/43 425/1/43
f 428/1/43 427/17/43 429/4/44
f 429/4/44 430/3/44 428/1/43
f 430/1/44 429/17/44 431/4/44
f 431/4/44 432/3/44 430/1/44
f 432/1/44 431/17/44 433/4/43
f 433/4/43 434/3/43 432/1/44
f 434/1/43 433/17/43 435/4/44
f 435/4/44 436/3/44 434/1/43
f 437/1/45 438/17/45 439/4/45
f 439/4/45 440/3/45 437/1/45
f 441/1/46 442/17/46 443/4/46
f 443/4/46 444/3/46 441/1/46
f 445/1/47 446/17/47 447/4/47
f 447/4/47 448/3/47 445/1/47
f 449/4/48 450/3/48 451/1/48
f 451/1/48 452/17/48 449/4/48
f 453/4/49 454/3/49 455/1/50
f 455/1/50 456/17/50 453/4/49
f 457/4/51 458/3/51 459/1/51
f 459/1/51 460/17/51 457/4/51
f 461/4/52 462/3/52 463/1/53
f 463/1/53 464/17/53 461/4/52
f 465/1/54 466/17/54 467/4/55
f 467/4/55 468/3/55 465/1/54
f 469/1/56 470/17/56 471/4/56
f 471/4/56 472/3/56 469/1/56
f 473/1/57 474/17/57 475/4/58
f 475/4/58 476/3/58 473/1/57
f 476/1/58 475/17/58 477/4/59
f 477/4/59 478/3/59 476/1/58
f 478/1/59 477/17/59 479/4/60
f 479/4/60 480/3/61 478/1/59
f 480/1/61 479/17/60 481/4/62
f 481/4/62 482/3/62 480/1/61
f 483/1/63 484/17/63 485/4/63
f 485/4/63 486/3/63 483/1/63
f 487/1/64 488/17/64 489/4/64
f 489/4/64 490/3/64 487/1/64
f 491/1/65 492/17/65 493/4/65
f 493/4/65 494/3/65 491/1/65
f 494/1/65 493/17/65 495/4/65
f 495/4/65 496/3/65 494/1/65
f 497/1/65 498/17/65 499/4/65
f 499/4/65 500/3/65 497/1/65
f 500/1/65 499/17/65 492/4/65
f 492/4/65 491/3/65 500/1/65
f 501/1/65 502/17/65 503/4/65
f 503/4/65 504/3/65 501/1/65
f 505/1/66 506/17/66 507/4/67
f 507/4/67 508/3/67 505/1/66
f 509/4/68 510/3/68 511/1/69
f 511/1/69 512/17/69 509/4/68
f 513/4/70 514/3/70 510/1/68
f 510/1/68 509/17/68 513/4/70
f 515/18/71 516/3/71 517/2/72
f 518/1/72 517/2/72 516/3/71
f 517/18/72 518/3/72 519/2/72
f 520/1/72 519/2/72 518/3/72
f 521/18/72 522/3/72 523/2/72
f 524/1/72 523/2/72 522/3/72
f 525/1/72 526/17/72 527/4/72
f 527/4/72 528/3/72 525/1/72
f 528/1/72 527/17/72 529/4/72
f 529/4/72 530/3/72 528/1/72
f 531/1/72 532/17/72 526/4/72
f 526/4/72 525/3/72 531/1/72
f 533/1/73 534/17/73 535/4/73
f 535/4/73 536/3/73 533/1/73
f 536/1/73 535/17/73 537/4/73
f 537/4/73 538/3/73 536/1/73
f 538/1/73 537/17/73 539/4/73
f 539/4/73 540/3/73 538/1/73
f 541/1/74 542/17/74 543/4/74
f 543/4/74 544/3/74 541/1/74
f 544/1/74 543/17/74 545/4/74
f 545/4/74 546/3/74 544/1/74
f 546/1/74 545/17/74 547/4/74
f 547/4/74 548/3/74 546/1/74
f 549/1/75 550/17/76 551/4/75
f 551/4/75 552/3/75 549/1/75
f 552/1/75 551/17/75 553/4/77
f 553/4/77 554/3/77 552/1/75
f 554/1/77 553/17/77 555/4/75
f 555/4/75 556/3/75 554/1/77
f 556/1/75 555/17/75 557/4/77
f 557/4/77 558/3/77 556/1/75
f 559/1/78 560/17/78 561/4/78
f 561/4/78 562/3/78 559/1/78
f 563/1/79 564/17/79 565/4/80
f 565/4/80 566/3/80 563/1/79
f 567/1/81 568/17/81 569/4/81
f 569/4/81 570/3/82 567/1/81
f 571/1/83 572/17/83 573/4/83
f 573/4/83 574/3/83 571/1/83
f 575/1/84 576/17/84 577/4/84
f 577/4/84 578/3/84 575/1/84
f 579/1/85 580/17/85 581/4/86
f 581/4/86 582/3/86 579/1/85
f 583/1/87 584/17/87 585/4/88
f 585/4/88 586/3/88 583/1/87
f 587/1/89 588/17/89 589/4/90
f 589/4/90 590/3/91 587/1/89
f 590/1/91 589/17/90 591/4/92
f 591/4/92 592/3/93 590/1/91
f 592/1/93 591/17/92 593/4/94
f 593/4/94 594/3/94 592/1/93
f 595/1/95 596/17/95 597/4/95
f 597/4/95 598/3/95 595/1/95
f 598/1/95 597/17/95 599/4/95
f 599/4/95 600/3/95 598/1/95
f 600/1/95 599/17/95 601/4/95
f 601/4/95 602/3/95 600/1/95
f 602/1/95 601/17/95 603/4/95
f 603/4/95 604/3/95 602/1/95
f 604/1/95 603/17/95 605/4/95
f 605/4/95 606/3/95 604/1/95
f 606/1/95 605/17/95 607/4/95
f 607/4/95 608/3/95 606/1/95
f 609/1/38 610/2/38 611/3/38
f 612/4/38 611/3/38 610/2/38
f 613/1/96 614/2/96 615/3/96
f 616/4/96 615/3/96 614/2/96
