# Blender 4.4.3
# www.blender.org
mtllib LOGOC.mtl
o LOGOC
v 357.081848 16.111849 -458.387817
v 357.081848 14.580248 -458.387817
v 362.025970 16.111849 -461.806030
v 362.025970 14.580247 -461.806030
v 362.278748 15.913258 -461.994263
v 362.278748 14.580247 -461.994263
v 367.222870 15.913258 -465.412476
v 367.222870 14.580247 -465.412476
v 346.651520 16.111849 -451.077026
v 346.651520 14.580248 -451.077026
v 351.595673 16.111849 -454.495270
v 351.595673 14.580248 -454.495270
v 351.848419 16.001980 -454.683502
v 351.848419 14.580248 -454.683502
v 356.792572 16.001980 -458.101715
v 356.792572 14.580248 -458.101715
v 536.063477 11.446498 -562.260681
v 536.063477 8.237206 -562.260681
v 542.149170 11.446499 -557.643494
v 542.149170 8.237207 -557.643494
v 542.476624 11.153939 -557.412781
v 542.476624 8.237207 -557.412781
v 548.562378 11.153939 -552.795593
v 548.562378 8.237207 -552.795593
v 489.837463 1.455929 -323.658051
v 489.837463 -1.069282 -323.658051
v 488.210541 1.455928 -329.444397
v 488.210541 -1.069283 -329.444397
v 491.641022 1.346060 -317.505188
v 491.641022 -1.069282 -317.505188
v 490.014099 1.346060 -323.291534
v 490.014099 -1.069282 -323.291534
v 498.789856 1.455932 -293.618286
v 498.789856 -1.069280 -293.618286
v 497.105927 1.455931 -299.388306
v 497.105927 -1.069281 -299.388306
v 578.281738 4.796463 -396.228333
v 578.281738 1.587171 -396.228333
v 571.600708 4.796463 -392.524536
v 571.600708 1.587171 -392.524536
v 571.257446 4.503902 -392.318115
v 571.257446 1.587171 -392.318115
v 564.576416 4.503902 -388.614288
v 564.576416 1.587172 -388.614288
v 523.076965 3.100707 -364.320007
v 523.076965 -0.108585 -364.320007
v 518.354980 3.100707 -358.315186
v 518.354980 -0.108584 -358.315186
v 518.118652 2.808147 -357.991821
v 518.118652 -0.108584 -357.991821
v 513.396729 2.808149 -351.987000
v 513.396729 -0.108584 -351.987000
v 440.852081 0.805885 14.249092
v 440.852081 -1.489128 14.249093
v 434.841827 0.805885 14.175127
v 434.841827 -1.489128 14.175128
v 491.561951 0.865177 14.431459
v 491.561951 -1.660035 14.431459
v 485.551697 0.865177 14.357494
v 485.551697 -1.660035 14.357494
v 485.236633 0.634978 14.364710
v 485.236633 -1.660035 14.364711
v 479.226379 0.634978 14.290745
v 479.226379 -1.660035 14.290746
v -317.276672 5.127651 -864.103577
v -317.276672 0.404564 -864.103577
v -306.035431 5.127651 -863.950989
v -306.035431 0.404564 -863.950989
v -262.114227 3.714319 -811.070435
v -262.114227 -0.803273 -811.070435
v -273.349731 3.714319 -811.460999
v -273.349731 -0.803273 -811.460999
v -214.412720 -1.355505 -830.394592
v -214.412720 -6.260890 -830.394592
v -205.134918 -1.355504 -815.168274
v -205.134918 -6.260888 -815.168274
v -205.257751 -1.355502 -813.838440
v -205.257751 -6.260887 -813.838440
v -198.511139 -1.355501 -797.333923
v -198.511139 -6.260885 -797.333923
v -111.845093 4.231962 -730.411316
v -111.845093 1.071533 -730.411316
v -118.462578 4.231962 -726.833618
v -118.462578 1.071533 -726.833618
v -118.802719 3.943857 -726.633911
v -118.802727 1.071533 -726.633911
v -125.420212 3.943857 -723.056213
v -125.420212 1.071533 -723.056213
v 391.814087 34.641956 -891.158997
v 391.814087 32.116745 -891.158997
v 386.850098 34.641956 -894.548279
v 386.850098 32.116745 -894.548279
v 386.583740 34.518269 -894.716736
v 386.583740 32.223255 -894.716736
v 381.619751 34.518269 -898.106079
v 381.619751 32.223255 -898.106079
v 349.707672 35.569588 -920.466614
v 349.707672 33.274574 -920.466614
v 344.746033 35.569588 -923.859375
v 344.746033 33.274574 -923.859375
v 293.462250 30.265999 -655.314575
v 293.462250 26.808693 -655.314575
v 281.483734 29.664928 -649.742249
v 281.483734 26.207623 -649.742249
v 265.202942 17.826069 -412.672577
v 261.927795 17.826067 -417.898285
v 265.202942 16.628468 -412.672577
v 261.927795 16.628466 -417.898285
v 274.164612 19.151831 -418.961304
v 274.164612 17.919401 -418.961304
v 270.832733 19.151831 -424.277557
v 270.832733 17.919401 -424.277557
v 266.995544 23.910517 -409.614929
v 266.995544 22.038008 -409.614929
v 270.847931 23.910517 -403.468201
v 270.847931 22.038008 -403.468201
v 236.797089 17.826069 -402.565277
v 231.571365 17.826069 -399.290131
v 236.797089 16.628468 -402.565277
v 231.571365 16.628468 -399.290131
v -87.972534 14.884165 -689.127319
v -94.139755 14.884165 -689.144165
v -87.972534 13.686562 -689.127319
v -94.139755 13.686562 -689.144165
v -191.176956 6.747149 8.750034
v -191.176956 3.988809 8.750038
v -191.176956 6.747149 -1.623290
v -191.176956 3.988807 -1.623293
v -157.489075 5.137745 22.882545
v -157.489075 6.022124 22.882545
v -157.535217 5.865757 25.371483
v -157.535217 4.981379 25.371483
v -157.581329 5.865757 27.860432
v -157.581329 4.981379 27.860432
v -157.627457 6.022124 30.349380
v -157.627457 5.137745 30.349380
v 390.664276 18.960846 -441.479004
v 390.664276 19.845224 -441.479004
v 392.068329 19.688856 -439.423401
v 392.068329 18.804478 -439.423401
v 393.472351 19.688856 -437.367737
v 393.472351 18.804478 -437.367737
v 394.876404 19.845224 -435.312103
v 394.876404 18.960846 -435.312103
v -324.426117 26.159573 -560.250183
v -324.426117 27.043951 -560.250183
v -326.915070 26.887585 -560.296326
v -326.915070 26.003204 -560.296326
v -329.404022 26.887585 -560.342407
v -329.404022 26.003204 -560.342407
v -331.892944 27.043951 -560.388550
v -331.892944 26.159573 -560.388550
v 552.288086 2.695379 -214.454407
v 552.288086 3.579757 -214.454407
v 554.690857 3.423390 -215.105255
v 554.690857 2.539011 -215.105255
v 557.093628 3.423390 -215.756134
v 557.093628 2.539011 -215.756134
v 559.496399 3.579756 -216.406998
v 559.496399 2.695379 -216.406998
v 542.424133 -0.715179 -182.769577
v 542.424133 0.169200 -182.769577
v 544.551331 0.012833 -183.351288
v 544.551331 -0.871545 -183.351288
v 546.479858 0.012833 -183.920868
v 546.479858 -0.871545 -183.920868
v 548.072388 0.169200 -184.365936
v 548.072388 -0.715179 -184.365936
v 542.441406 0.169200 -182.706696
v 542.441406 -0.715179 -182.706696
v 544.568542 0.012833 -183.288422
v 544.568542 -0.871545 -183.288422
v 546.497131 0.012833 -183.858002
v 546.497131 -0.871545 -183.858002
v 548.089661 0.169200 -184.303070
v 548.089661 -0.715179 -184.303070
v 386.243958 43.282215 -967.480042
v 386.243958 44.166592 -967.480042
v 387.947174 44.010227 -969.295532
v 387.947174 43.125847 -969.295532
v 389.650391 44.010227 -971.111023
v 389.650391 43.125847 -971.111023
v 391.353607 44.166592 -972.926575
v 391.353607 43.282215 -972.926575
v 314.794830 2.695396 19.462223
v 314.794830 3.579774 19.462223
v 314.748688 3.423408 21.951162
v 314.748688 2.539029 21.951162
v 314.702576 3.423408 24.440109
v 314.702576 2.539029 24.440109
v 314.656433 3.579775 26.929058
v 314.656433 2.695397 26.929058
v 361.385254 35.469917 -740.190491
v 361.385254 36.354294 -740.190491
v 360.398712 36.197929 -742.476013
v 360.398712 35.313549 -742.476013
v 359.412170 36.197929 -744.761536
v 359.412170 35.313549 -744.761536
v 358.425659 36.354294 -747.047119
v 358.425659 35.469917 -747.047119
v -35.966846 1.683423 -19.180433
v -16.669785 1.683423 -19.180433
v -16.669785 3.169321 -19.180433
v -35.966846 3.169321 -19.180433
v -25.235670 6.284286 -19.780918
v -25.235670 4.981606 -19.780918
v -17.981495 6.284286 -19.780918
v -17.981495 4.981606 -19.780918
v -34.593529 6.284286 -19.780918
v -34.593529 4.981606 -19.780918
v -27.339354 6.284286 -19.780918
v -27.339354 4.981606 -19.780918
v 47.852959 1.683423 -19.180433
v 69.105118 1.683423 -19.180433
v 69.105118 3.169321 -19.180433
v 47.852959 3.169321 -19.180433
v 79.836945 6.284286 -19.780918
v 79.836945 4.981606 -19.780918
v 87.091125 6.284286 -19.780918
v 87.091125 4.981606 -19.780918
v 134.135605 1.683423 -19.180433
v 153.509064 1.683423 -19.180433
v 153.509064 3.169321 -19.180433
v 134.135605 3.169321 -19.180433
v 144.867310 6.284286 -19.780918
v 144.867310 4.981606 -19.780918
v 152.121475 6.284286 -19.780918
v 152.121475 4.981606 -19.780918
v 150.952621 29.955481 -944.188477
v 150.952652 28.358545 -944.188477
v 154.996704 29.955481 -938.790100
v 154.996750 28.358545 -938.790100
v 155.287781 29.955481 -939.007019
v 155.287827 28.358545 -939.007019
v 151.243698 29.955481 -944.405396
v 151.243744 28.358545 -944.405457
v 444.174805 35.882866 -856.377197
v 444.174744 34.285931 -856.377258
v 447.532990 35.882866 -862.226990
v 447.532959 34.285931 -862.226990
v 447.218597 35.882866 -862.408508
v 447.218567 34.285931 -862.408569
v 443.860413 35.882866 -856.558716
v 443.860382 34.285931 -856.558777
v 336.328735 32.667938 -683.094177
v 336.328705 31.071007 -683.094177
v 333.245239 32.667938 -689.093262
v 333.245209 31.071005 -689.093262
v 332.921967 32.667938 -688.928101
v 332.921906 31.071005 -688.928101
v 336.005463 32.667938 -682.929016
v 336.005432 31.071007 -682.929016
v 368.295532 33.853104 -699.809937
v 368.295502 32.256168 -699.809937
v 365.212036 33.853104 -705.809021
v 365.212006 32.256168 -705.809021
v 364.888763 33.853104 -705.643860
v 364.888702 32.256168 -705.643860
v 367.972260 33.853104 -699.644775
v 367.972229 32.256168 -699.644775
v 399.265564 34.347786 -714.214966
v 399.265533 32.750851 -714.214966
v 396.182068 34.347786 -720.214050
v 396.182037 32.750851 -720.214050
v 395.858795 34.347786 -720.048889
v 395.858734 32.750851 -720.048889
v 398.942291 34.347786 -714.049805
v 398.942261 32.750851 -714.049805
v 42.395065 -1.087653 6.415357
v 42.068657 -1.667969 6.415365
v 42.394890 -1.087492 8.624554
v 42.068615 -1.667740 8.624562
v 42.437149 -1.091647 8.624554
v 42.637810 -1.667968 8.624559
v 42.437325 -1.091488 6.415357
v 42.637856 -1.667740 6.415362
v 17.286734 -1.087651 6.415359
v 16.960327 -1.667968 6.415367
v 17.286558 -1.087490 8.624555
v 16.960283 -1.667738 8.624563
v 17.328817 -1.091645 8.624555
v 17.529480 -1.667966 8.624560
v 17.328993 -1.091486 6.415359
v 17.529524 -1.667739 6.415364
v -7.821537 -1.087648 6.415364
v -8.147943 -1.667965 6.415373
v -7.821713 -1.087487 8.624560
v -8.147987 -1.667736 8.624569
v -7.779453 -1.091643 8.624560
v -7.578791 -1.667964 8.624566
v -7.779277 -1.091483 6.415364
v -7.578747 -1.667736 6.415370
v -30.419016 -1.087646 6.415369
v -30.745422 -1.667963 6.415378
v -30.419191 -1.087485 8.624565
v -30.745466 -1.667734 8.624574
v -30.376932 -1.091641 8.624565
v -30.176270 -1.667961 8.624571
v -30.376757 -1.091482 6.415369
v -30.176226 -1.667734 6.415375
v -253.374908 20.731697 -385.115082
v -253.374908 20.151381 -385.441467
v -255.584091 20.731855 -385.115234
v -255.584106 20.151608 -385.441528
v -255.584091 20.727701 -385.072998
v -255.584106 20.151381 -384.872314
v -253.374908 20.727861 -385.072815
v -253.374908 20.151608 -384.872284
v -253.374878 20.549080 -402.690735
v -253.374878 19.968763 -403.017120
v -255.584061 20.549238 -402.690887
v -255.584076 19.968990 -403.017181
v -255.584061 20.545084 -402.648651
v -255.584076 19.968763 -402.447968
v -253.374878 20.545244 -402.648468
v -253.374878 19.968990 -402.447937
v 287.657990 13.600001 -382.338593
v 287.923187 13.019685 -382.528900
v 286.370148 13.600162 -384.133575
v 286.635223 13.019914 -384.323822
v 286.335815 13.596006 -384.108948
v 286.172791 13.019686 -383.991974
v 287.623657 13.596166 -382.313965
v 287.460754 13.019914 -382.197052
v 307.825073 13.599998 -397.270721
v 308.090271 13.019681 -397.461029
v 306.537231 13.600158 -399.065704
v 306.802307 13.019910 -399.255951
v 306.502899 13.596003 -399.041077
v 306.339874 13.019682 -398.924103
v 307.790741 13.596163 -397.246094
v 307.627838 13.019911 -397.129181
v 328.313385 13.599994 -411.784698
v 328.578583 13.019677 -411.975006
v 327.025543 13.600154 -413.579681
v 327.290619 13.019907 -413.769928
v 326.991211 13.595999 -413.555054
v 326.828186 13.019677 -413.438080
v 328.279053 13.596157 -411.760071
v 328.116150 13.019907 -411.643158
v 345.047363 13.599992 -422.926880
v 345.312561 13.019675 -423.117188
v 343.759521 13.600150 -424.721863
v 344.024597 13.019903 -424.912109
v 343.725189 13.595996 -424.697235
v 343.562164 13.019674 -424.580261
v 345.013031 13.596156 -422.902252
v 344.850128 13.019904 -422.785339
v 152.822632 24.512981 -921.399536
v 153.087814 23.932665 -921.589844
v 151.534775 24.513138 -923.194519
v 151.799866 23.932890 -923.384705
v 151.500443 24.508984 -923.169861
v 151.337418 23.932663 -923.052856
v 152.788300 24.509146 -921.374878
v 152.625366 23.932892 -921.257996
v 156.912750 25.052732 -924.317078
v 157.177933 24.472416 -924.507385
v 155.624893 25.052891 -926.112061
v 155.889984 24.472643 -926.302246
v 155.590561 25.048737 -926.087402
v 155.427536 24.472416 -925.970398
v 156.878418 25.048897 -924.292419
v 156.715485 24.472643 -924.175537
v 160.983398 25.595163 -927.220642
v 161.248581 25.014847 -927.410950
v 159.695541 25.595322 -929.015625
v 159.960632 25.015074 -929.205811
v 159.661209 25.591167 -928.990967
v 159.498184 25.014847 -928.873962
v 160.949066 25.591328 -927.195984
v 160.786133 25.015074 -927.079102
v 148.771606 23.978083 -918.510071
v 149.036789 23.397766 -918.700378
v 147.483749 23.978241 -920.305054
v 147.748840 23.397993 -920.495239
v 147.449417 23.974087 -920.280396
v 147.286392 23.397766 -920.163391
v 148.737274 23.974247 -918.485413
v 148.574341 23.397993 -918.368530
v -204.829376 0.585937 8.548745
v -204.829468 1.546376 8.546355
v -198.987579 1.370319 8.510957
v -198.987625 0.409879 8.513362
v -210.640274 0.767889 8.550063
v -210.640244 1.728329 8.547669
v -227.585587 1.347446 8.612090
v -227.585526 2.307885 8.609693
v -222.246780 2.109251 8.544187
v -222.247330 1.148811 8.546525
v -233.345840 1.551302 8.581296
v -233.345810 2.511740 8.578900
v -278.510864 5.090829 -53.713188
v -278.508942 4.130354 -53.714634
v -275.604095 3.891349 -50.047874
v -275.605957 4.851824 -50.046341
v -272.539001 3.657081 -46.513962
v -272.540771 4.617557 -46.512352
v -269.319702 3.427720 -43.119888
v -269.321411 4.388192 -43.118210
v -280.530243 15.430528 -206.204468
v -280.528839 14.470078 -206.202499
v -284.654358 14.172575 -203.339447
v -284.655731 15.133025 -203.341431
v -288.148163 13.873756 -200.467499
v -288.149933 14.834210 -200.469147
v -272.323242 16.020895 -211.934052
v -272.321808 15.060451 -211.932114
v -276.403320 14.766095 -209.065536
v -276.404724 15.726540 -209.067505
v -274.016663 21.036488 -367.296570
v -274.019043 20.076048 -367.296631
v -274.019043 20.109224 -372.318298
v -274.016663 21.069660 -372.318237
v -274.019043 20.133163 -377.339874
v -274.016663 21.093599 -377.339905
v -57.364765 11.141521 -341.509064
v -57.365753 12.101959 -341.506866
v -61.174015 12.087355 -344.872711
v -61.172905 11.126915 -344.874817
v -53.423588 11.157907 -338.684143
v -53.424438 12.118347 -338.681885
v -48.843330 11.176013 -335.990479
v -48.844055 12.136453 -335.988220
v 65.265640 11.880158 -311.479736
v 65.265625 12.840597 -311.482147
v 69.851448 12.880766 -311.448639
v 69.851357 11.920327 -311.446259
v 60.520943 11.840254 -311.466400
v 60.520958 12.800694 -311.468781
v 56.060001 11.800678 -311.501923
v 56.060028 12.761118 -311.504303
v 88.528687 12.083405 -365.433136
v 88.528694 13.043844 -365.430756
v 82.817215 13.003247 -365.439423
v 82.817078 12.042808 -365.441803
v 94.242844 12.123951 -365.423676
v 94.242805 13.084390 -365.421295
v 152.530121 13.542903 -316.265106
v 152.530304 12.582463 -316.262726
v 147.130981 12.547465 -314.922760
v 147.130829 13.507905 -314.925140
v 163.129761 13.610215 -319.498840
v 163.130157 12.649776 -319.496490
v 157.853256 12.616587 -317.751282
v 157.852997 13.577027 -317.753662
v 251.692673 13.969750 -352.559509
v 251.693832 13.009311 -352.557404
v 246.980606 13.001730 -349.960785
v 246.979523 13.962170 -349.962921
v 302.509521 13.968608 -445.296875
v 302.510132 13.012312 -445.299194
v 306.843292 13.012312 -444.360657
v 306.842896 13.968608 -444.358307
v 311.230194 13.012313 -443.736450
v 311.229950 13.968609 -443.734039
v 293.815552 13.968607 -448.160034
v 293.816376 13.012311 -448.162292
v 298.253143 13.012312 -446.547485
v 298.252411 13.968608 -446.545227
v 461.901825 10.170684 -500.812195
v 461.903168 9.210222 -500.810211
v 457.812042 9.531042 -497.898315
v 457.810638 10.491499 -497.900269
v 453.720856 9.849043 -494.986359
v 453.719452 10.809498 -494.988342
v 449.629669 10.163873 -492.074493
v 449.628235 11.124325 -492.076355
v 445.538513 10.475177 -489.162537
v 445.537079 11.435622 -489.164459
v 258.569519 -2.945332 13.469578
v 258.569519 -1.984892 13.467179
v 263.591187 -3.024475 13.469581
v 263.591187 -2.064036 13.467179
v 268.612823 -3.095276 13.469585
v 268.612854 -2.134837 13.467179
v 273.634521 -3.156349 13.469583
v 273.634521 -2.195910 13.467179
v 128.006165 -0.301118 -8.502407
v 128.006165 -1.667717 -8.504805
v 133.027832 -1.667716 -8.504805
v 133.027832 -0.301118 -8.502407
v 138.049500 -1.667716 -8.504805
v 138.049500 -0.301114 -8.502401
v 143.071152 -1.667715 -8.504805
v 143.071152 -0.301117 -8.502403
v 148.092819 -1.667715 -8.504805
v 148.092819 -0.301116 -8.502407
v 153.114487 -1.667714 -8.504805
v 153.114487 -0.301114 -8.502403
v 163.157822 -0.301114 -8.502404
v 163.157806 -1.667713 -8.504807
v 168.179459 -1.667713 -8.504805
v 168.179474 -0.301114 -8.502404
v 173.201111 -1.667712 -8.504805
v 173.201111 -0.301114 -8.502405
v 158.136139 -1.667714 -8.504805
v 158.136154 -0.301114 -8.502404
v 453.047638 -3.276718 -90.263916
v 453.049683 -2.316279 -90.262688
v 450.493652 -2.316278 -85.940216
v 450.491577 -3.276717 -85.941437
v 455.603668 -3.276717 -94.586380
v 455.605713 -2.316278 -94.585152
v 447.935547 -3.276718 -81.618973
v 447.937592 -2.316278 -81.617737
v 445.381561 -2.316278 -77.295288
v 445.379517 -3.276718 -77.296486
v 458.159698 -3.276717 -98.908844
v 458.161804 -2.316278 -98.907623
v 548.293396 -3.276713 -31.923700
v 548.291016 -2.316273 -31.923706
v 548.375305 -2.316276 -36.944668
v 548.377686 -3.276715 -36.944611
v 548.209106 -3.276713 -26.902714
v 548.206726 -2.316273 -26.902782
v 548.124878 -3.276713 -21.881752
v 548.122437 -2.316273 -21.881821
v 548.040588 -3.276710 -16.860817
v 548.038147 -2.316272 -16.860847
v 547.956299 -3.276711 -11.839870
v 547.953857 -2.316271 -11.839901
v 547.872009 -3.276708 -6.818878
v 547.869629 -2.316271 -6.818939
v 547.787720 -3.276708 -1.797951
v 547.785339 -2.316270 -1.797981
v -59.918350 8.473582 -793.008423
v -59.916122 7.517284 -793.007263
v -62.624161 7.002338 -790.373779
v -62.626434 7.958641 -790.374939
v -65.146896 6.483774 -787.698120
v -65.149261 7.440071 -787.699158
v -57.049561 8.982948 -795.617676
v -57.047516 8.026653 -795.616455
v -67.458939 6.091149 -784.963989
v -67.461441 7.047439 -784.964966
v -69.535553 5.687729 -782.157837
v -69.538101 6.644016 -782.158752
v -71.383865 5.274283 -779.224731
v -71.386505 6.230564 -779.225586
v -73.290329 4.851576 -776.037537
v -73.292969 5.807858 -776.038452
v -75.220215 4.420386 -772.856750
v -75.222900 5.376664 -772.857666
v -132.939331 -0.906929 -756.169678
v -132.940735 -1.863231 -756.171631
v -130.031967 -1.370548 -758.538574
v -130.030411 -0.414253 -758.536743
v -127.404968 -0.870445 -761.187500
v -127.403229 0.085850 -761.185852
v -162.136108 -4.489273 -750.222290
v -162.135544 -5.445572 -750.224609
v -158.285614 -5.039821 -749.568054
v -158.285934 -4.083526 -749.565674
v -154.407089 -4.620537 -749.325684
v -154.407166 -3.664242 -749.323242
v -150.544189 -4.188473 -749.496033
v -150.543991 -3.232177 -749.493652
v -139.478012 -1.866962 -752.398315
v -139.478928 -2.823257 -752.400513
v -136.100937 -2.347729 -754.116638
v -136.099792 -1.391433 -754.114563
v -132.940765 -1.863243 -756.171509
v -132.939392 -0.906948 -756.169556
v -320.279785 7.941026 -717.547485
v -320.282166 6.984725 -717.547546
v -320.282166 6.296246 -722.547546
v -320.279785 7.252541 -722.547546
v -320.279785 5.917642 -732.547546
v -320.282166 4.961348 -732.547546
v -320.282166 4.304658 -737.547485
v -320.279785 5.260947 -737.547546
v -320.282166 3.656202 -742.547546
v -320.279785 4.612485 -742.547546
v -320.282166 5.625476 -727.547546
v -320.279785 6.581771 -727.547546
v -320.282166 3.016773 -747.547485
v -320.279785 3.973053 -747.547546
v -320.282166 2.387169 -752.547485
v -320.279785 3.343449 -752.547546
v -320.282166 1.768189 -757.547546
v -320.279785 2.724472 -757.547546
v -247.092758 -8.214608 -822.129272
v -247.093842 -9.170907 -822.127136
v -251.134598 -8.974401 -823.453125
v -251.133850 -8.018106 -823.455383
v -254.897049 -8.741529 -824.071411
v -254.896637 -7.785234 -824.073792
v -258.375946 -8.473672 -824.249878
v -258.375916 -7.517377 -824.252319
v -262.003357 -8.172189 -824.241516
v -262.003693 -7.215890 -824.243896
v -281.538483 -5.701077 -815.058594
v -281.536896 -6.657372 -815.056763
v -285.318726 -6.208290 -811.357300
v -285.320435 -5.251995 -811.358948
v -288.184784 -5.733799 -808.261414
v -288.186584 -4.777504 -808.263000
v -290.833221 -5.235268 -804.977478
v -290.835144 -4.278968 -804.978882
v 504.773743 32.041286 -851.648010
v 504.775146 31.084991 -851.649963
v 508.466064 31.027893 -848.350708
v 508.464691 31.984184 -848.348755
v 515.846680 31.870762 -841.750061
v 515.848022 30.914469 -841.752014
v 520.973145 30.858240 -836.793945
v 520.971436 31.814531 -836.792297
v 512.157043 30.971037 -845.051331
v 512.155701 31.927332 -845.049438
v 432.242401 31.906488 -863.310303
v 432.241028 30.951309 -863.308350
v 428.145294 30.868013 -866.176208
v 428.146667 31.823112 -866.178162
v 424.049500 30.786983 -869.044128
v 424.050903 31.742010 -869.046021
v 419.953735 30.711203 -871.911987
v 419.955109 31.666159 -871.913940
v 142.238358 21.728163 -882.661865
v 142.239670 20.771868 -882.659912
v 137.134338 20.311617 -879.235657
v 137.133118 21.267912 -879.237671
v 131.906830 19.871389 -875.909485
v 131.905701 20.827686 -875.911499
v 126.566055 19.453352 -872.679626
v 126.565018 20.409647 -872.681702
v 121.121155 19.059669 -869.544556
v 121.120224 20.015965 -869.546631
v 115.581406 18.692505 -866.503052
v 115.580566 19.648802 -866.505188
v 114.380203 20.827681 -909.008545
v 114.379059 19.871386 -909.010681
v 118.012543 20.311611 -911.948975
v 118.013763 21.267908 -911.946899
v 121.540527 20.771864 -915.075317
v 121.541824 21.728159 -915.073303
v 124.956917 21.249969 -918.384583
v 124.958290 22.206264 -918.382629
v 128.454300 21.743767 -922.007446
v 128.455673 22.700062 -922.005554
v 132.004700 22.251085 -925.727173
v 132.006088 23.207382 -925.725220
v 135.546494 22.769764 -929.469177
v 135.547867 23.726061 -929.467285
v 350.248627 32.901085 -920.784363
v 350.247253 31.945374 -920.782410
v 346.079895 32.119278 -923.689026
v 346.081268 33.075069 -923.690979
v 341.895142 32.287601 -926.600525
v 341.896545 33.243469 -926.602478
v 337.692688 32.447281 -929.516846
v 337.694183 33.403206 -929.518799
v 333.078308 32.632725 -932.464294
v 333.079834 33.588715 -932.466248
v 404.707886 13.926594 -491.571228
v 404.707886 14.810972 -491.571228
v 402.672913 14.654605 -490.137482
v 402.672913 13.770226 -490.137482
v 400.637878 14.654605 -488.703674
v 400.637878 13.770226 -488.703674
v 398.602875 14.810972 -487.269897
v 398.602875 13.926594 -487.269897
v 396.402130 14.107387 -485.687164
v 396.402130 14.991765 -485.687164
v 394.367126 14.835398 -484.253418
v 394.367126 13.951019 -484.253418
v 392.332123 14.835398 -482.819550
v 392.332123 13.951019 -482.819550
v 390.297089 14.991765 -481.385834
v 390.297089 14.107387 -481.385834
v -230.730301 25.856071 -282.902710
v -230.730301 20.714256 -282.902710
v -229.566666 25.856070 -270.953583
v -229.566666 20.714256 -270.953583
v -233.656387 25.856068 -310.146912
v -233.656387 20.714254 -310.146912
v -232.492752 25.856068 -298.197815
v -232.492752 20.714254 -298.197815
v -234.969772 25.856066 -323.684753
v -234.969772 20.714251 -323.684723
v -233.806137 25.856068 -311.735626
v -233.806137 20.714252 -311.735596
vn 0.5687 -0.0000 0.8226
vn 0.5687 -0.0000 0.8225
vn -0.6044 -0.0000 0.7967
vn 0.9627 -0.0000 -0.2707
vn 0.9600 -0.0000 -0.2802
vn -0.4849 -0.0000 -0.8746
vn -0.7861 -0.0000 -0.6181
vn 0.0123 -0.0000 -0.9999
vn -0.0136 -0.0000 0.9999
vn 0.0347 -0.0000 -0.9994
vn -0.8540 -0.0000 0.5203
vn -0.9256 -0.0000 0.3784
vn -0.9257 -0.0000 0.3784
vn -0.4756 -0.0000 -0.8797
vn 0.5639 -0.0000 -0.8259
vn 0.5639 -0.0000 -0.8258
vn 0.5645 -0.0000 -0.8255
vn -0.4218 -0.0000 -0.9067
vn -0.8473 -0.0000 0.5311
vn 0.8473 -0.0000 -0.5311
vn 0.5311 -0.0000 0.8473
vn -0.0027 -0.0000 1.0000
vn 1.0000 -0.0000 -0.0000
vn 0.9998 -0.0000 0.0185
vn 0.8258 -0.0000 -0.5640
vn -0.0185 -0.0000 0.9998
vn -0.0186 -0.0000 0.9998
vn -0.2615 -0.0000 -0.9652
vn -0.2614 -0.0000 -0.9652
vn -0.2638 -0.0000 -0.9646
vn -0.2733 -0.0000 -0.9619
vn -0.2738 -0.0000 -0.9618
vn -0.2760 -0.0000 -0.9612
vn -0.2764 -0.0000 -0.9610
vn -0.2692 -0.0000 -0.9631
vn -0.2691 -0.0000 -0.9631
vn 0.2638 -0.0000 0.9646
vn 0.2733 -0.0000 0.9619
vn 0.2738 -0.0000 0.9618
vn 0.2760 -0.0000 0.9612
vn 0.2764 -0.0000 0.9610
vn 0.2692 -0.0000 0.9631
vn -0.7293 -0.0000 -0.6842
vn -0.9181 -0.0000 0.3963
vn -0.0000 -0.0000 1.0000
vn -0.8003 -0.0000 0.5996
vn 0.8003 -0.0000 -0.5996
vn 0.8003 -0.0000 -0.5995
vn 0.8673 -0.0000 0.4979
vn 0.8672 -0.0000 0.4979
vn -0.8673 -0.0000 -0.4979
vn 0.8894 -0.0000 -0.4571
vn -0.8894 -0.0000 0.4571
vn -0.8894 -0.0000 0.4572
vn -0.8716 0.4902 -0.0001
vn -0.8716 0.4901 -0.0001
vn 0.9444 0.3288 0.0001
vn 0.9444 0.3287 0.0001
vn -0.8717 0.4901 -0.0001
vn 0.0001 0.4902 -0.8716
vn -0.0001 0.3289 0.9444
vn -0.0001 0.3288 0.9444
vn -0.0001 0.3287 0.9444
vn -0.0000 0.3287 0.9444
vn 0.7082 0.4902 -0.5081
vn 0.7082 0.4901 -0.5081
vn -0.7674 0.3288 0.5505
vn -0.7674 0.3287 0.5505
vn -0.7674 0.3286 0.5506
vn -0.7674 0.3287 0.5506
vn 0.7082 0.4903 -0.5080
vn 0.7082 0.4903 -0.5081
vn -0.7673 0.3289 0.5505
vn -0.7673 0.3288 0.5505
vn 0.7082 0.4901 -0.5082
vn -0.7673 0.3287 0.5506
vn 0.7083 0.4901 -0.5081
vn -0.0033 -0.0025 -1.0000
vn -0.0032 -0.0025 -1.0000
vn -0.0061 -0.0025 -1.0000
vn -0.0003 -0.0025 -1.0000
vn -0.0038 -0.0025 -1.0000
vn -0.0124 -0.0024 -0.9999
vn 0.0053 -0.0025 -1.0000
vn -0.7839 -0.0025 0.6209
vn -0.7695 -0.0025 0.6387
vn -0.7704 -0.0025 0.6376
vn -0.7403 -0.0025 0.6723
vn -0.7412 -0.0025 0.6713
vn -0.7256 -0.0025 0.6881
vn -0.5700 -0.0025 -0.8216
vn -0.6042 -0.0025 -0.7968
vn -0.6016 -0.0025 -0.7988
vn -0.6349 -0.0025 -0.7726
vn -0.5746 -0.0025 -0.8184
vn -0.5722 -0.0025 -0.8201
vn -0.5724 -0.0025 -0.8200
vn 1.0000 -0.0025 -0.0000
vn -0.6233 -0.0024 0.7820
vn -0.6231 -0.0024 0.7821
vn -0.6622 -0.0024 0.7493
vn -0.5454 -0.0025 0.8382
vn -0.5452 -0.0024 0.8383
vn -0.5069 -0.0024 0.8620
vn 0.0022 -0.0025 -1.0000
vn 0.0023 -0.0025 -1.0000
vn 0.0073 -0.0025 -1.0000
vn 0.0026 -0.0025 -1.0000
vn 0.0080 -0.0025 -1.0000
vn -0.0016 -0.0025 1.0000
vn -0.0015 -0.0025 1.0000
vn -0.2552 -0.0024 -0.9669
vn -0.2550 -0.0024 -0.9669
vn -0.2409 -0.0024 -0.9706
vn -0.3140 -0.0024 -0.9494
vn -0.2916 -0.0024 -0.9565
vn -0.2918 -0.0024 -0.9565
vn -0.4825 -0.0025 -0.8759
vn -0.2467 -0.0025 0.9691
vn -0.1764 -0.0025 0.9843
vn -0.1409 -0.0025 0.9900
vn -0.3420 -0.0025 0.9397
vn -0.3118 -0.0025 0.9501
vn -0.5800 -0.0025 -0.8146
vn -0.0000 -0.0025 -1.0000
vn -0.0000 -0.0018 1.0000
vn 0.8608 -0.0025 0.5090
vn 0.8608 -0.0026 0.5090
vn -0.9999 -0.0025 -0.0168
vn -0.9999 -0.0026 -0.0168
vn -0.9999 -0.0022 -0.0168
vn -0.6839 -0.0025 -0.7296
vn -0.6859 -0.0025 -0.7277
vn -0.7136 -0.0025 -0.7005
vn -0.7110 -0.0025 -0.7032
vn -0.7471 -0.0026 -0.6647
vn -0.7442 -0.0026 -0.6679
vn -0.6726 -0.0024 -0.7400
vn -0.7854 -0.0027 -0.6190
vn -0.7825 -0.0027 -0.6227
vn -0.8269 -0.0027 -0.5624
vn -0.8238 -0.0027 -0.5669
vn -0.8524 -0.0028 -0.5228
vn -0.8515 -0.0028 -0.5243
vn -0.8563 -0.0029 -0.5165
vn -0.8565 -0.0029 -0.5161
vn -0.8548 -0.0029 -0.5190
vn 0.6314 -0.0025 0.7754
vn 0.6685 -0.0025 0.7437
vn 0.6751 -0.0025 0.7377
vn 0.7103 -0.0025 0.7039
vn -0.1679 -0.0025 0.9858
vn -0.1187 -0.0025 0.9929
vn -0.1116 -0.0025 0.9938
vn -0.0126 -0.0025 0.9999
vn -0.0052 -0.0025 1.0000
vn 0.0444 -0.0025 0.9990
vn 0.4532 -0.0025 0.8914
vn 0.4963 -0.0025 0.8682
vn 0.5037 -0.0025 0.8639
vn 0.5454 -0.0025 0.8382
vn 1.0000 -0.0025 0.0003
vn 0.3117 -0.0025 -0.9502
vn 0.2401 -0.0025 -0.9707
vn 0.2350 -0.0025 -0.9720
vn 0.1091 -0.0025 -0.9940
vn 0.1043 -0.0025 -0.9945
vn 0.0256 -0.0025 -0.9997
vn 0.0229 -0.0025 -0.9997
vn -0.0026 -0.0025 -1.0000
vn -0.6994 -0.0025 -0.7147
vn -0.7158 -0.0025 -0.6983
vn -0.7180 -0.0025 -0.6960
vn -0.7551 -0.0025 -0.6556
vn -0.7584 -0.0025 -0.6518
vn -0.7786 -0.0025 -0.6275
vn -0.6665 -0.0025 0.7455
vn -0.6809 -0.0024 0.7323
vn -0.6811 -0.0024 0.7322
vn -0.6953 -0.0025 0.7187
vn -0.6665 -0.0024 0.7455
vn 0.5736 -0.0025 -0.8191
vn -0.5569 -0.0025 -0.8306
vn -0.5463 -0.0025 -0.8376
vn -0.5473 -0.0025 -0.8369
vn -0.5266 -0.0024 -0.8501
vn -0.5275 -0.0024 -0.8496
vn -0.5077 -0.0024 -0.8615
vn -0.5085 -0.0024 -0.8611
vn -0.4897 -0.0024 -0.8719
vn -0.4904 -0.0024 -0.8715
vn -0.4811 -0.0024 -0.8766
vn 0.6290 -0.0025 0.7774
vn 0.6453 -0.0025 0.7639
vn 0.6474 -0.0025 0.7622
vn 0.6788 -0.0025 0.7343
vn 0.6809 -0.0025 0.7324
vn 0.7071 -0.0025 0.7071
vn 0.7086 -0.0025 0.7056
vn 0.7215 -0.0024 0.6925
vn 0.7217 -0.0024 0.6922
vn 0.7249 -0.0024 0.6889
vn 0.7251 -0.0024 0.6887
vn 0.7265 -0.0024 0.6872
vn 0.5720 -0.0025 -0.8203
vn 0.5715 -0.0025 -0.8206
vn 0.5706 -0.0025 -0.8212
vn 0.5705 -0.0025 -0.8213
vn 0.5546 -0.0026 -0.8321
vn 0.5539 -0.0026 -0.8326
vn 0.5382 -0.0026 -0.8428
vn 0.5760 -0.0000 0.8175
vn 0.5759 -0.0000 0.8175
vn -0.9953 -0.0000 0.0969
vt 0.000000 2.000000
vt 0.000000 1.000000
vt 1.000000 2.000000
vt 1.000000 1.000000
vt 0.999501 1.999500
vt 0.000500 1.999500
vt 0.999501 1.000499
vt 0.000500 1.000499
vt 0.000500 1.999501
vt 0.000500 1.000500
vt 0.999500 1.000499
vt 0.999500 1.000501
vt 0.999500 1.999501
vt 0.666500 1.999500
vt 0.666500 1.000500
vt 0.333500 1.999500
vt 0.333500 1.000500
vt 0.000499 1.999499
vt 0.000500 1.000501
vt 0.999501 1.999499
vt 0.001498 1.000499
vt 2.998501 1.000499
vt 2.998501 1.999501
vt 0.001498 1.999501
vt 0.000999 1.000499
vt 1.999001 1.000499
vt 1.999001 1.999501
vt 0.000999 1.999501
vt 2.998502 1.000499
vt 2.998502 1.999501
vt 0.000000 1.000500
vt 1.000000 1.000500
vt 0.000000 1.980000
vt 1.000000 1.980000
s 1
usemtl CMWLALOGOC.023
f 1/1/1 2/2/1 3/3/1
f 4/4/1 3/3/1 2/2/1
f 5/1/1 6/2/1 7/3/1
f 8/4/1 7/3/1 6/2/1
f 9/1/1 10/2/1 11/3/2
f 12/4/2 11/3/2 10/2/1
f 13/1/1 14/2/1 15/3/1
f 16/4/1 15/3/1 14/2/1
f 17/1/3 18/2/3 19/3/3
f 20/4/3 19/3/3 18/2/3
f 21/1/3 22/2/3 23/3/3
f 24/4/3 23/3/3 22/2/3
f 25/1/4 26/2/4 27/3/4
f 28/4/4 27/3/4 26/2/4
f 29/1/4 30/2/4 31/3/4
f 32/4/4 31/3/4 30/2/4
f 33/1/5 34/2/5 35/3/5
f 36/4/5 35/3/5 34/2/5
f 37/1/6 38/2/6 39/3/6
f 40/4/6 39/3/6 38/2/6
f 41/1/6 42/2/6 43/3/6
f 44/4/6 43/3/6 42/2/6
f 45/1/7 46/2/7 47/3/7
f 48/4/7 47/3/7 46/2/7
f 49/1/7 50/2/7 51/3/7
f 52/4/7 51/3/7 50/2/7
f 53/1/8 54/2/8 55/3/8
f 56/4/8 55/3/8 54/2/8
f 57/1/8 58/2/8 59/3/8
f 60/4/8 59/3/8 58/2/8
f 61/1/8 62/2/8 63/3/8
f 64/4/8 63/3/8 62/2/8
f 65/1/9 66/2/9 67/3/9
f 68/4/9 67/3/9 66/2/9
f 69/1/10 70/2/10 71/3/10
f 72/4/10 71/3/10 70/2/10
f 73/1/11 74/2/11 75/3/11
f 76/4/11 75/3/11 74/2/11
f 77/1/12 78/2/12 79/3/13
f 80/4/13 79/3/13 78/2/12
f 81/1/14 82/2/14 83/3/14
f 84/4/14 83/3/14 82/2/14
f 85/1/14 86/2/14 87/3/14
f 88/4/14 87/3/14 86/2/14
f 89/1/15 90/2/15 91/3/15
f 92/4/15 91/3/15 90/2/15
f 93/1/15 94/2/15 95/3/15
f 96/4/16 95/3/15 94/2/15
f 97/1/17 98/2/17 99/3/17
f 100/4/17 99/3/17 98/2/17
f 101/1/18 102/2/18 103/3/18
f 104/4/18 103/3/18 102/2/18
f 105/5/19 106/6/19 107/7/19
f 108/8/19 107/7/19 106/6/19
f 109/1/20 110/2/20 111/3/20
f 112/4/20 111/3/20 110/2/20
f 113/1/19 114/2/19 115/3/19
f 116/4/19 115/3/19 114/2/19
f 117/5/21 118/6/21 119/7/21
f 120/8/21 119/7/21 118/6/21
f 121/5/22 122/6/22 123/7/22
f 124/8/22 123/7/22 122/6/22
f 125/9/23 126/10/23 127/5/23
f 128/11/23 127/5/23 126/10/23
f 129/12/24 130/13/24 131/14/24
f 131/14/24 132/15/24 129/12/24
f 132/15/24 131/14/24 133/16/24
f 133/16/24 134/17/24 132/15/24
f 134/17/24 133/16/24 135/18/24
f 135/18/24 136/8/24 134/17/24
f 137/12/25 138/13/25 139/14/25
f 139/14/25 140/15/25 137/12/25
f 140/15/25 139/14/25 141/16/25
f 141/16/25 142/17/25 140/15/25
f 142/17/25 141/16/25 143/18/25
f 143/18/25 144/8/25 142/17/25
f 145/12/26 146/13/26 147/14/26
f 147/14/26 148/15/26 145/12/26
f 148/15/26 147/14/26 149/16/26
f 149/16/26 150/17/26 148/15/26
f 150/17/26 149/16/26 151/18/27
f 151/18/27 152/8/27 150/17/26
f 153/12/28 154/13/28 155/14/28
f 155/14/28 156/15/28 153/12/28
f 156/15/28 155/14/28 157/16/28
f 157/16/28 158/17/28 156/15/28
f 158/17/28 157/16/28 159/18/29
f 159/18/29 160/8/29 158/17/28
f 161/12/30 162/13/30 163/14/31
f 163/14/31 164/15/32 161/12/30
f 164/15/32 163/14/31 165/16/33
f 165/16/33 166/17/34 164/15/32
f 166/17/34 165/16/33 167/18/35
f 167/18/35 168/8/36 166/17/34
f 169/9/37 170/19/37 171/16/38
f 172/17/39 171/16/38 170/19/37
f 171/16/38 172/17/39 173/14/40
f 174/15/41 173/14/40 172/17/39
f 173/14/40 174/15/41 175/20/42
f 176/11/42 175/20/42 174/15/41
f 177/12/43 178/13/43 179/14/43
f 179/14/43 180/15/43 177/12/43
f 180/15/43 179/14/43 181/16/43
f 181/16/43 182/17/43 180/15/43
f 182/17/43 181/16/43 183/18/43
f 183/18/43 184/8/43 182/17/43
f 185/12/24 186/13/24 187/14/24
f 187/14/24 188/15/24 185/12/24
f 188/15/24 187/14/24 189/16/24
f 189/16/24 190/17/24 188/15/24
f 190/17/24 189/16/24 191/18/24
f 191/18/24 192/8/24 190/17/24
f 193/12/44 194/13/44 195/14/44
f 195/14/44 196/15/44 193/12/44
f 196/15/44 195/14/44 197/16/44
f 197/16/44 198/17/44 196/15/44
f 198/17/44 197/16/44 199/18/44
f 199/18/44 200/8/44 198/17/44
f 201/21/45 202/22/45 203/23/45
f 203/23/45 204/24/45 201/21/45
f 205/1/45 206/2/45 207/3/45
f 208/4/45 207/3/45 206/2/45
f 209/1/45 210/2/45 211/3/45
f 212/4/45 211/3/45 210/2/45
f 213/25/45 214/26/45 215/27/45
f 215/27/45 216/28/45 213/25/45
f 217/1/45 218/2/45 219/3/45
f 220/4/45 219/3/45 218/2/45
f 221/21/45 222/29/45 223/30/45
f 223/30/45 224/24/45 221/21/45
f 225/1/45 226/2/45 227/3/45
f 228/4/45 227/3/45 226/2/45
f 229/9/46 230/10/46 231/5/46
f 232/11/46 231/5/46 230/10/46
f 233/9/47 234/10/47 235/5/48
f 236/11/48 235/5/48 234/10/47
f 237/9/49 238/10/49 239/5/50
f 240/11/50 239/5/50 238/10/49
f 241/9/51 242/10/51 243/5/51
f 244/11/51 243/5/51 242/10/51
f 245/9/52 246/10/52 247/5/52
f 248/11/52 247/5/52 246/10/52
f 249/9/53 250/10/53 251/5/53
f 252/11/54 251/5/53 250/10/53
f 253/9/52 254/10/52 255/5/52
f 256/11/52 255/5/52 254/10/52
f 257/9/53 258/10/53 259/5/54
f 260/11/54 259/5/54 258/10/53
f 261/9/52 262/10/52 263/5/52
f 264/11/52 263/5/52 262/10/52
f 265/9/53 266/10/53 267/5/53
f 268/11/53 267/5/53 266/10/53
f 269/9/55 270/10/55 271/5/55
f 272/11/56 271/5/55 270/10/55
f 273/9/57 274/10/57 275/5/58
f 276/11/58 275/5/58 274/10/57
f 277/9/55 278/10/55 279/5/55
f 280/11/56 279/5/55 278/10/55
f 281/9/57 282/10/57 283/5/58
f 284/11/58 283/5/58 282/10/57
f 285/9/55 286/10/55 287/5/56
f 288/11/59 287/5/56 286/10/55
f 289/9/57 290/10/57 291/5/58
f 292/11/58 291/5/58 290/10/57
f 293/9/55 294/10/55 295/5/55
f 296/11/56 295/5/55 294/10/55
f 297/9/57 298/10/57 299/5/58
f 300/11/58 299/5/58 298/10/57
f 301/9/60 302/10/60 303/5/60
f 304/11/60 303/5/60 302/10/60
f 305/9/61 306/10/62 307/5/63
f 308/11/63 307/5/63 306/10/62
f 309/9/60 310/10/60 311/5/60
f 312/11/60 311/5/60 310/10/60
f 313/9/61 314/10/62 315/5/63
f 316/11/64 315/5/63 314/10/62
f 317/9/65 318/10/65 319/5/65
f 320/11/66 319/5/65 318/10/65
f 321/9/67 322/10/68 323/5/69
f 324/11/69 323/5/69 322/10/68
f 325/9/65 326/10/65 327/5/66
f 328/11/66 327/5/66 326/10/65
f 329/9/67 330/10/68 331/5/70
f 332/11/69 331/5/70 330/10/68
f 333/9/71 334/10/72 335/5/65
f 336/11/66 335/5/65 334/10/72
f 337/9/73 338/10/74 339/5/69
f 340/11/69 339/5/69 338/10/74
f 341/9/65 342/10/65 343/5/65
f 344/11/66 343/5/65 342/10/65
f 345/9/74 346/10/74 347/5/70
f 348/11/69 347/5/70 346/10/74
f 349/9/65 350/10/65 351/5/75
f 352/11/75 351/5/75 350/10/65
f 353/9/74 354/10/74 355/5/70
f 356/11/70 355/5/70 354/10/74
f 357/9/65 358/10/65 359/5/65
f 360/11/66 359/5/65 358/10/65
f 361/9/67 362/10/74 363/5/76
f 364/11/76 363/5/76 362/10/74
f 365/9/65 366/10/65 367/5/66
f 368/11/66 367/5/66 366/10/65
f 369/9/67 370/10/74 371/5/76
f 372/11/76 371/5/76 370/10/74
f 373/9/65 374/10/65 375/5/77
f 376/11/77 375/5/77 374/10/65
f 377/9/74 378/10/74 379/5/76
f 380/11/76 379/5/76 378/10/74
f 381/4/78 382/3/79 383/1/80
f 383/1/80 384/31/80 381/4/78
f 385/4/81 386/3/81 382/1/79
f 382/1/79 381/31/78 385/4/81
f 387/4/82 388/3/78 389/1/83
f 389/1/83 390/31/83 387/4/82
f 391/4/84 392/3/84 388/1/78
f 388/1/78 387/31/82 391/4/84
f 393/1/85 394/31/85 395/4/86
f 395/4/86 396/3/87 393/1/85
f 396/1/87 395/31/86 397/4/88
f 397/4/88 398/3/89 396/1/87
f 398/1/89 397/31/88 399/4/90
f 399/4/90 400/3/90 398/1/89
f 401/1/91 402/31/91 403/4/92
f 403/4/92 404/3/93 401/1/91
f 404/1/93 403/31/92 405/4/94
f 405/4/94 406/3/94 404/1/93
f 407/1/95 408/31/95 409/4/96
f 409/4/96 410/3/97 407/1/95
f 410/1/97 409/31/96 402/4/91
f 402/4/91 401/3/91 410/1/97
f 411/1/98 412/31/98 413/4/98
f 413/4/98 414/3/98 411/1/98
f 414/1/98 413/31/98 415/4/98
f 415/4/98 416/3/98 414/1/98
f 417/4/99 418/3/100 419/1/101
f 419/1/101 420/31/101 417/4/99
f 421/4/102 422/3/103 418/1/100
f 418/1/100 417/31/99 421/4/102
f 423/4/104 424/3/104 422/1/103
f 422/1/103 421/31/102 423/4/104
f 425/4/105 426/3/106 427/1/107
f 427/1/107 428/31/107 425/4/105
f 429/4/108 430/3/108 426/1/106
f 426/1/106 425/31/105 429/4/108
f 431/4/109 432/3/109 430/1/108
f 430/1/108 429/31/108 431/4/109
f 433/4/110 434/3/110 435/1/111
f 435/1/111 436/31/111 433/4/110
f 437/4/110 438/3/110 434/1/110
f 434/1/110 433/31/110 437/4/110
f 439/1/112 440/31/113 441/4/114
f 441/4/114 442/3/114 439/1/112
f 443/1/115 444/31/115 445/4/116
f 445/4/116 446/3/117 443/1/115
f 446/1/117 445/31/116 440/4/113
f 440/4/113 439/3/112 446/1/117
f 447/1/118 448/31/118 449/4/118
f 449/4/118 450/3/118 447/1/118
f 451/1/119 452/31/119 453/4/120
f 453/4/120 454/3/120 451/1/119
f 454/1/120 453/31/120 455/4/121
f 455/4/121 456/3/121 454/1/120
f 457/1/122 458/31/122 459/4/123
f 459/4/123 460/3/123 457/1/122
f 460/1/123 459/31/123 452/4/119
f 452/4/119 451/3/119 460/1/123
f 461/1/124 462/31/124 463/4/124
f 463/4/124 464/3/124 461/1/124
f 464/1/124 463/31/124 465/4/124
f 465/4/124 466/3/124 464/1/124
f 466/1/124 465/31/124 467/4/124
f 467/4/124 468/3/124 466/1/124
f 468/1/124 467/31/124 469/4/124
f 469/4/124 470/3/124 468/1/124
f 471/32/125 472/3/125 473/2/125
f 474/1/125 473/2/125 472/3/125
f 473/32/125 474/3/125 475/2/125
f 476/1/125 475/2/125 474/3/125
f 475/32/125 476/3/125 477/2/125
f 478/1/125 477/2/125 476/3/125
f 479/33/126 480/31/126 481/4/126
f 481/4/126 482/34/126 479/33/126
f 482/33/126 481/31/126 483/4/126
f 483/4/126 484/34/126 482/33/126
f 484/33/126 483/31/126 485/4/126
f 485/4/126 486/34/126 484/33/126
f 486/33/126 485/31/126 487/4/126
f 487/4/126 488/34/126 486/33/126
f 488/33/126 487/31/126 489/4/126
f 489/4/126 490/34/126 488/33/126
f 491/33/126 492/31/126 493/4/126
f 493/4/126 494/34/126 491/33/126
f 494/33/126 493/31/126 495/4/126
f 495/4/126 496/34/126 494/33/126
f 490/33/126 489/31/126 497/4/126
f 497/4/126 498/34/126 490/33/126
f 498/33/126 497/31/126 492/4/126
f 492/4/126 491/34/126 498/33/126
f 499/4/127 500/3/127 501/1/127
f 501/1/127 502/31/127 499/4/127
f 503/4/127 504/3/127 500/1/127
f 500/1/127 499/31/127 503/4/127
f 505/4/127 506/3/127 507/1/127
f 507/1/127 508/31/127 505/4/127
f 502/4/127 501/3/127 506/1/127
f 506/1/127 505/31/127 502/4/127
f 509/4/128 510/3/128 504/1/127
f 504/1/127 503/31/127 509/4/128
f 511/4/129 512/3/129 513/1/130
f 513/1/130 514/31/130 511/4/129
f 515/4/129 516/3/129 512/1/129
f 512/1/129 511/31/129 515/4/129
f 517/4/129 518/3/129 516/1/129
f 516/1/129 515/31/129 517/4/129
f 519/4/129 520/3/129 518/1/129
f 518/1/129 517/31/129 519/4/129
f 521/4/129 522/3/129 520/1/129
f 520/1/129 519/31/129 521/4/129
f 523/4/129 524/3/129 522/1/129
f 522/1/129 521/31/129 523/4/129
f 525/4/131 526/3/129 524/1/129
f 524/1/129 523/31/129 525/4/131
f 527/1/132 528/31/133 529/4/134
f 529/4/134 530/3/135 527/1/132
f 530/1/135 529/31/134 531/4/136
f 531/4/136 532/3/137 530/1/135
f 533/1/138 534/31/138 528/4/133
f 528/4/133 527/3/132 533/1/138
f 532/1/137 531/31/136 535/4/139
f 535/4/139 536/3/140 532/1/137
f 536/1/140 535/31/139 537/4/141
f 537/4/141 538/3/142 536/1/140
f 538/1/142 537/31/141 539/4/143
f 539/4/143 540/3/144 538/1/142
f 540/1/144 539/31/143 541/4/145
f 541/4/145 542/3/146 540/1/144
f 542/1/146 541/31/145 543/4/147
f 543/4/147 544/3/147 542/1/146
f 545/1/148 546/31/148 547/4/149
f 547/4/149 548/3/150 545/1/148
f 548/1/150 547/31/149 549/4/151
f 549/4/151 550/3/151 548/1/150
f 551/1/152 552/31/152 553/4/153
f 553/4/153 554/3/154 551/1/152
f 554/1/154 553/31/153 555/4/155
f 555/4/155 556/3/156 554/1/154
f 556/1/156 555/31/155 557/4/157
f 557/4/157 558/3/157 556/1/156
f 559/1/158 560/31/158 561/4/159
f 561/4/159 562/3/160 559/1/158
f 562/1/160 561/31/159 563/4/161
f 563/4/161 564/3/161 562/1/160
f 565/1/162 566/31/162 567/4/162
f 567/4/162 568/3/162 565/1/162
f 569/1/162 570/31/162 571/4/162
f 571/4/162 572/3/162 569/1/162
f 572/1/162 571/31/162 573/4/162
f 573/4/162 574/3/162 572/1/162
f 568/1/162 567/31/162 575/4/162
f 575/4/162 576/3/162 568/1/162
f 576/1/162 575/31/162 570/4/162
f 570/4/162 569/3/162 576/1/162
f 574/1/162 573/31/162 577/4/162
f 577/4/162 578/3/162 574/1/162
f 578/1/162 577/31/162 579/4/162
f 579/4/162 580/3/162 578/1/162
f 580/1/162 579/31/162 581/4/162
f 581/4/162 582/3/162 580/1/162
f 583/1/163 584/31/163 585/4/164
f 585/4/164 586/3/165 583/1/163
f 586/1/165 585/31/164 587/4/166
f 587/4/166 588/3/167 586/1/165
f 588/1/167 587/31/166 589/4/168
f 589/4/168 590/3/169 588/1/167
f 590/1/169 589/31/168 591/4/170
f 591/4/170 592/3/170 590/1/169
f 593/1/171 594/31/171 595/4/172
f 595/4/172 596/3/173 593/1/171
f 596/1/173 595/31/172 597/4/174
f 597/4/174 598/3/175 596/1/173
f 598/1/175 597/31/174 599/4/176
f 599/4/176 600/3/176 598/1/175
f 601/1/177 602/31/177 603/4/177
f 603/4/177 604/3/177 601/1/177
f 605/1/178 606/31/179 607/4/180
f 607/4/180 608/3/180 605/1/178
f 604/1/177 603/31/177 609/4/177
f 609/4/177 610/3/181 604/1/177
f 610/1/181 609/31/177 606/4/179
f 606/4/179 605/3/178 610/1/181
f 611/1/182 612/31/182 613/4/182
f 613/4/182 614/3/182 611/1/182
f 614/1/182 613/31/182 615/4/182
f 615/4/182 616/3/182 614/1/182
f 616/1/182 615/31/182 617/4/182
f 617/4/182 618/3/182 616/1/182
f 619/1/183 620/31/183 621/4/184
f 621/4/184 622/3/185 619/1/183
f 622/1/185 621/31/184 623/4/186
f 623/4/186 624/3/187 622/1/185
f 624/1/187 623/31/186 625/4/188
f 625/4/188 626/3/189 624/1/187
f 626/1/189 625/31/188 627/4/190
f 627/4/190 628/3/191 626/1/189
f 628/1/191 627/31/190 629/4/192
f 629/4/192 630/3/192 628/1/191
f 631/1/193 632/31/193 633/4/194
f 633/4/194 634/3/195 631/1/193
f 634/1/195 633/31/194 635/4/196
f 635/4/196 636/3/197 634/1/195
f 636/1/197 635/31/196 637/4/198
f 637/4/198 638/3/199 636/1/197
f 638/1/199 637/31/198 639/4/200
f 639/4/200 640/3/201 638/1/199
f 640/1/201 639/31/200 641/4/202
f 641/4/202 642/3/203 640/1/201
f 642/1/203 641/31/202 643/4/204
f 643/4/204 644/3/204 642/1/203
f 645/1/205 646/31/205 647/4/206
f 647/4/206 648/3/206 645/1/205
f 648/1/206 647/31/206 649/4/207
f 649/4/207 650/3/208 648/1/206
f 650/1/208 649/31/207 651/4/209
f 651/4/209 652/3/210 650/1/208
f 652/1/210 651/31/209 653/4/211
f 653/4/211 654/3/211 652/1/210
f 655/12/212 656/13/213 657/14/212
f 657/14/212 658/15/212 655/12/212
f 658/15/212 657/14/212 659/16/212
f 659/16/212 660/17/212 658/15/212
f 660/17/212 659/16/212 661/18/212
f 661/18/212 662/8/212 660/17/212
f 663/12/212 664/13/212 665/14/212
f 665/14/212 666/15/212 663/12/212
f 666/15/212 665/14/212 667/16/212
f 667/16/212 668/17/212 666/15/212
f 668/17/212 667/16/212 669/18/213
f 669/18/213 670/8/213 668/17/212
f 671/1/214 672/2/214 673/3/214
f 674/4/214 673/3/214 672/2/214
f 675/1/214 676/2/214 677/3/214
f 678/4/214 677/3/214 676/2/214
f 679/1/214 680/2/214 681/3/214
f 682/4/214 681/3/214 680/2/214
