# Blender 4.4.3
# www.blender.org
mtllib OCLOGO.mtl
o OCLOGO
v -281.594482 28.400156 -476.850525
v -281.973022 28.400156 -475.685516
v -281.973022 28.008043 -475.685516
v -281.594482 28.008043 -476.850525
v -282.964050 28.400156 -474.965485
v -282.964050 28.008043 -474.965485
v -284.189026 28.400156 -474.965485
v -284.189026 28.008043 -474.965485
v -285.180054 28.400156 -475.685516
v -285.180054 28.008043 -475.685516
v -285.558594 28.400156 -476.850525
v -285.558594 28.008043 -476.850525
v -285.180054 28.400156 -478.015533
v -285.180054 28.008043 -478.015533
v -284.189026 28.400156 -478.735565
v -284.189026 28.008043 -478.735565
v -282.964050 28.400156 -478.735565
v -282.964050 28.008043 -478.735565
v -281.973022 28.400156 -478.015533
v -281.973022 28.008043 -478.015533
v -281.594482 22.222046 -476.850525
v -281.973022 22.222044 -475.685516
v -281.973022 21.850285 -475.685516
v -281.594482 21.850285 -476.850525
v -282.964050 22.222046 -474.965485
v -282.964050 21.850285 -474.965485
v -284.189026 22.222046 -474.965485
v -284.189026 21.850285 -474.965485
v -285.180054 22.222044 -475.685516
v -285.180054 21.850285 -475.685516
v -285.558594 22.222046 -476.850525
v -285.558594 21.850285 -476.850525
v -285.180054 22.222046 -478.015533
v -285.180054 21.850285 -478.015533
v -284.189026 22.222044 -478.735565
v -284.189026 21.850285 -478.735565
v -282.964050 22.222044 -478.735565
v -282.964050 21.850285 -478.735565
v -281.973022 22.222046 -478.015533
v -281.973022 21.850285 -478.015533
v -282.982605 28.440157 -478.678497
v -284.170471 28.440157 -478.678497
v -285.131500 28.440157 -477.980286
v -285.498596 28.440157 -476.850525
v -285.131500 28.440157 -475.720764
v -284.170471 28.440157 -475.022552
v -282.982605 28.440157 -475.022552
v -282.021576 28.440157 -475.720764
v -281.654480 28.440157 -476.850525
v -282.021576 28.440157 -477.980286
v -282.716949 20.205626 -476.226013
v -283.248199 20.205626 -475.840027
v -283.904877 20.205626 -475.840027
v -284.436127 20.205626 -476.226013
v -284.639038 20.205626 -476.850525
v -284.436127 20.205626 -477.475037
v -283.904877 20.205626 -477.861023
v -283.248199 20.205626 -477.861023
v -282.716949 20.205626 -477.475037
v -282.514038 20.205626 -476.850525
v -282.021576 27.968044 -475.720764
v -281.654480 27.968044 -476.850525
v -282.021576 27.968044 -477.980286
v -282.982605 27.968044 -478.678497
v -284.170471 27.968044 -478.678497
v -285.131500 27.968044 -477.980286
v -285.498596 27.968044 -476.850525
v -285.131500 27.968044 -475.720764
v -284.170471 27.968044 -475.022552
v -282.982605 27.968044 -475.022552
v -281.654480 22.262045 -476.850525
v -282.021576 22.262045 -475.720764
v -282.982605 22.262045 -475.022552
v -284.170471 22.262045 -475.022552
v -285.131500 22.262045 -475.720764
v -285.498596 22.262045 -476.850525
v -285.131500 22.262045 -477.980286
v -284.170471 22.262045 -478.678497
v -282.982605 22.262045 -478.678497
v -282.021576 22.262045 -477.980286
v -282.021576 21.810286 -475.720764
v -281.654480 21.810286 -476.850525
v -282.021576 21.810286 -477.980286
v -282.982605 21.810286 -478.678497
v -284.170471 21.810286 -478.678497
v -285.131500 21.810286 -477.980286
v -285.498596 21.810286 -476.850525
v -285.131500 21.810286 -475.720764
v -284.170471 21.810286 -475.022552
v -282.982605 21.810286 -475.022552
v 258.583099 21.203583 -399.118805
v 258.204559 21.203583 -397.953796
v 258.204559 20.811470 -397.953796
v 258.583099 20.811470 -399.118805
v 257.213531 21.203583 -397.233765
v 257.213531 20.811470 -397.233765
v 255.988556 21.203583 -397.233765
v 255.988556 20.811470 -397.233765
v 254.997543 21.203583 -397.953796
v 254.997543 20.811470 -397.953796
v 254.619003 21.203583 -399.118805
v 254.619003 20.811470 -399.118805
v 254.997543 21.203583 -400.283813
v 254.997543 20.811470 -400.283813
v 255.988556 21.203583 -401.003845
v 255.988556 20.811470 -401.003845
v 257.213531 21.203583 -401.003845
v 257.213531 20.811470 -401.003845
v 258.204559 21.203583 -400.283813
v 258.204559 20.811470 -400.283813
v 258.583099 15.025473 -399.118805
v 258.204559 15.025472 -397.953796
v 258.204559 14.653711 -397.953796
v 258.583099 14.653711 -399.118805
v 257.213531 15.025474 -397.233765
v 257.213531 14.653712 -397.233765
v 255.988556 15.025474 -397.233765
v 255.988556 14.653712 -397.233765
v 254.997543 15.025472 -397.953796
v 254.997543 14.653711 -397.953796
v 254.619003 15.025473 -399.118805
v 254.619003 14.653711 -399.118805
v 254.997543 15.025473 -400.283813
v 254.997543 14.653711 -400.283813
v 255.988556 15.025472 -401.003845
v 255.988556 14.653711 -401.003845
v 257.213531 15.025472 -401.003845
v 257.213531 14.653711 -401.003845
v 258.204559 15.025473 -400.283813
v 258.204559 14.653711 -400.283813
v 257.194977 21.243584 -400.946777
v 256.007111 21.243584 -400.946777
v 255.046082 21.243584 -400.248566
v 254.679001 21.243584 -399.118805
v 255.046082 21.243584 -397.989044
v 256.007111 21.243584 -397.290833
v 257.194977 21.243584 -397.290833
v 258.156006 21.243584 -397.989044
v 258.523102 21.243584 -399.118805
v 258.156006 21.243584 -400.248566
v 257.460632 13.009053 -398.494293
v 256.929382 13.009053 -398.108307
v 256.272705 13.009053 -398.108307
v 255.741470 13.009053 -398.494293
v 255.538544 13.009053 -399.118805
v 255.741470 13.009053 -399.743317
v 256.272705 13.009053 -400.129303
v 256.929382 13.009053 -400.129303
v 257.460632 13.009053 -399.743317
v 257.663544 13.009053 -399.118805
v 258.156006 20.771471 -397.989044
v 258.523102 20.771471 -399.118805
v 258.156006 20.771471 -400.248566
v 257.194977 20.771471 -400.946777
v 256.007111 20.771471 -400.946777
v 255.046082 20.771471 -400.248566
v 254.679001 20.771471 -399.118805
v 255.046082 20.771471 -397.989044
v 256.007111 20.771471 -397.290833
v 257.194977 20.771471 -397.290833
v 258.523102 15.065472 -399.118805
v 258.156006 15.065472 -397.989044
v 257.194977 15.065473 -397.290833
v 256.007111 15.065473 -397.290833
v 255.046082 15.065472 -397.989044
v 254.679001 15.065472 -399.118805
v 255.046082 15.065472 -400.248566
v 256.007111 15.065472 -400.946777
v 257.194977 15.065472 -400.946777
v 258.156006 15.065472 -400.248566
v 258.156006 14.613711 -397.989044
v 258.523102 14.613711 -399.118805
v 258.156006 14.613711 -400.248566
v 257.194977 14.613711 -400.946777
v 256.007111 14.613711 -400.946777
v 255.046082 14.613711 -400.248566
v 254.679001 14.613711 -399.118805
v 255.046082 14.613711 -397.989044
v 256.007111 14.613712 -397.290833
v 257.194977 14.613712 -397.290833
v 479.581360 4.967432 -324.733154
v 479.202820 4.967432 -323.568146
v 479.202820 4.575319 -323.568146
v 479.581360 4.575319 -324.733154
v 478.211792 4.967432 -322.848114
v 478.211792 4.575319 -322.848114
v 476.986816 4.967432 -322.848114
v 476.986816 4.575319 -322.848114
v 475.995789 4.967432 -323.568146
v 475.995789 4.575319 -323.568146
v 475.617249 4.967432 -324.733154
v 475.617249 4.575319 -324.733154
v 475.995789 4.967431 -325.898163
v 475.995789 4.575318 -325.898163
v 476.986816 4.967431 -326.618195
v 476.986816 4.575318 -326.618195
v 478.211792 4.967431 -326.618195
v 478.211792 4.575318 -326.618195
v 479.202820 4.967431 -325.898163
v 479.202820 4.575318 -325.898163
v 479.581360 -1.210681 -324.733154
v 479.202820 -1.210680 -323.568146
v 479.202820 -1.582441 -323.568146
v 479.581360 -1.582442 -324.733154
v 478.211792 -1.210680 -322.848114
v 478.211792 -1.582441 -322.848114
v 476.986816 -1.210680 -322.848114
v 476.986816 -1.582441 -322.848114
v 475.995789 -1.210680 -323.568146
v 475.995789 -1.582441 -323.568146
v 475.617249 -1.210681 -324.733154
v 475.617249 -1.582442 -324.733154
v 475.995789 -1.210681 -325.898163
v 475.995789 -1.582442 -325.898163
v 476.986816 -1.210681 -326.618195
v 476.986816 -1.582442 -326.618195
v 478.211792 -1.210681 -326.618195
v 478.211792 -1.582442 -326.618195
v 479.202820 -1.210681 -325.898163
v 479.202820 -1.582442 -325.898163
v 478.193237 5.007431 -326.561127
v 477.005371 5.007431 -326.561127
v 476.044342 5.007431 -325.862915
v 475.677246 5.007432 -324.733154
v 476.044342 5.007432 -323.603394
v 477.005371 5.007432 -322.905182
v 478.193237 5.007432 -322.905182
v 479.154266 5.007432 -323.603394
v 479.521362 5.007432 -324.733154
v 479.154266 5.007431 -325.862915
v 478.458893 -3.227100 -324.108643
v 477.927643 -3.227100 -323.722656
v 477.270966 -3.227100 -323.722656
v 476.739716 -3.227100 -324.108643
v 476.536804 -3.227100 -324.733154
v 476.739716 -3.227100 -325.357666
v 477.270966 -3.227100 -325.743652
v 477.927643 -3.227100 -325.743652
v 478.458893 -3.227100 -325.357666
v 478.661804 -3.227100 -324.733154
v 479.154266 4.535319 -323.603394
v 479.521362 4.535319 -324.733154
v 479.154266 4.535318 -325.862915
v 478.193237 4.535318 -326.561127
v 477.005371 4.535318 -326.561127
v 476.044342 4.535318 -325.862915
v 475.677246 4.535319 -324.733154
v 476.044342 4.535319 -323.603394
v 477.005371 4.535319 -322.905182
v 478.193237 4.535319 -322.905182
v 479.521362 -1.170681 -324.733154
v 479.154266 -1.170680 -323.603394
v 478.193237 -1.170680 -322.905182
v 477.005371 -1.170680 -322.905182
v 476.044342 -1.170680 -323.603394
v 475.677246 -1.170681 -324.733154
v 476.044342 -1.170681 -325.862915
v 477.005371 -1.170681 -326.561127
v 478.193237 -1.170681 -326.561127
v 479.154266 -1.170681 -325.862915
v 479.154266 -1.622440 -323.603394
v 479.521362 -1.622441 -324.733154
v 479.154266 -1.622441 -325.862915
v 478.193237 -1.622441 -326.561127
v 477.005371 -1.622441 -326.561127
v 476.044342 -1.622441 -325.862915
v 475.677246 -1.622441 -324.733154
v 476.044342 -1.622440 -323.603394
v 477.005371 -1.622440 -322.905182
v 478.193237 -1.622440 -322.905182
v 243.941818 5.092827 31.723660
v 243.563293 5.092827 32.888676
v 243.563278 4.700716 32.888680
v 243.941818 4.700716 31.723663
v 242.572266 5.092827 33.608696
v 242.572266 4.700716 33.608696
v 241.347290 5.092827 33.608696
v 241.347290 4.700716 33.608696
v 240.356277 5.092827 32.888676
v 240.356277 4.700716 32.888680
v 239.977737 5.092827 31.723661
v 239.977737 4.700716 31.723661
v 240.356277 5.092827 30.558645
v 240.356277 4.700716 30.558645
v 241.347290 5.092827 29.838625
v 241.347290 4.700716 29.838625
v 242.572266 5.092827 29.838625
v 242.572266 4.700716 29.838627
v 243.563278 5.092827 30.558645
v 243.563278 4.700716 30.558645
v 243.941818 -1.085284 31.723660
v 243.563293 -1.085284 32.888676
v 243.563278 -1.457044 32.888680
v 243.941818 -1.457045 31.723663
v 242.572266 -1.085284 33.608696
v 242.572266 -1.457044 33.608696
v 241.347290 -1.085284 33.608696
v 241.347290 -1.457044 33.608696
v 240.356277 -1.085284 32.888676
v 240.356277 -1.457044 32.888676
v 239.977737 -1.085284 31.723661
v 239.977737 -1.457045 31.723661
v 240.356277 -1.085284 30.558645
v 240.356277 -1.457045 30.558645
v 241.347290 -1.085285 29.838625
v 241.347290 -1.457045 29.838625
v 242.572266 -1.085285 29.838625
v 242.572266 -1.457045 29.838625
v 243.563278 -1.085284 30.558645
v 243.563278 -1.457045 30.558645
v 242.553726 5.132827 29.895689
v 241.365829 5.132827 29.895689
v 240.404816 5.132827 30.593912
v 240.037735 5.132827 31.723661
v 240.404816 5.132827 32.853409
v 241.365829 5.132827 33.551632
v 242.553726 5.132827 33.551632
v 243.514740 5.132827 32.853409
v 243.881821 5.132827 31.723661
v 243.514740 5.132827 30.593912
v 242.819351 -3.101703 32.348179
v 242.288101 -3.101703 32.734154
v 241.631454 -3.101703 32.734154
v 241.100204 -3.101703 32.348179
v 240.897278 -3.101703 31.723661
v 241.100204 -3.101703 31.099142
v 241.631454 -3.101703 30.713169
v 242.288101 -3.101703 30.713169
v 242.819351 -3.101703 31.099144
v 243.022278 -3.101703 31.723661
v 243.514740 4.660714 32.853409
v 243.881821 4.660714 31.723661
v 243.514740 4.660714 30.593912
v 242.553726 4.660714 29.895689
v 241.365829 4.660714 29.895689
v 240.404816 4.660714 30.593912
v 240.037735 4.660714 31.723661
v 240.404816 4.660714 32.853409
v 241.365829 4.660714 33.551632
v 242.553726 4.660714 33.551632
v 243.881821 -1.045284 31.723661
v 243.514740 -1.045285 32.853409
v 242.553726 -1.045284 33.551632
v 241.365829 -1.045284 33.551632
v 240.404816 -1.045285 32.853409
v 240.037735 -1.045284 31.723661
v 240.404816 -1.045284 30.593912
v 241.365829 -1.045285 29.895689
v 242.553726 -1.045285 29.895689
v 243.514740 -1.045284 30.593912
v 243.514740 -1.497044 32.853409
v 243.881821 -1.497045 31.723661
v 243.514740 -1.497045 30.593912
v 242.553726 -1.497045 29.895689
v 241.365829 -1.497045 29.895689
v 240.404816 -1.497045 30.593912
v 240.037735 -1.497045 31.723661
v 240.404816 -1.497044 32.853409
v 241.365829 -1.497044 33.551632
v 242.553726 -1.497044 33.551632
v 419.467438 5.092819 -78.175560
v 419.088898 5.092819 -77.010544
v 419.088898 4.700707 -77.010544
v 419.467438 4.700707 -78.175560
v 418.097870 5.092819 -76.290527
v 418.097870 4.700707 -76.290527
v 416.872894 5.092819 -76.290527
v 416.872894 4.700707 -76.290527
v 415.881866 5.092819 -77.010544
v 415.881866 4.700707 -77.010544
v 415.503326 5.092819 -78.175560
v 415.503326 4.700707 -78.175560
v 415.881866 5.092819 -79.340576
v 415.881866 4.700707 -79.340576
v 416.872894 5.092819 -80.060593
v 416.872894 4.700707 -80.060593
v 418.097870 5.092819 -80.060593
v 418.097870 4.700707 -80.060593
v 419.088898 5.092819 -79.340576
v 419.088898 4.700707 -79.340576
v 419.467438 -1.085292 -78.175560
v 419.088898 -1.085293 -77.010544
v 419.088898 -1.457053 -77.010544
v 419.467438 -1.457053 -78.175560
v 418.097870 -1.085292 -76.290527
v 418.097870 -1.457053 -76.290527
v 416.872894 -1.085292 -76.290527
v 416.872894 -1.457053 -76.290527
v 415.881866 -1.085293 -77.010544
v 415.881866 -1.457053 -77.010544
v 415.503326 -1.085292 -78.175560
v 415.503326 -1.457053 -78.175560
v 415.881866 -1.085292 -79.340576
v 415.881866 -1.457053 -79.340576
v 416.872894 -1.085293 -80.060593
v 416.872894 -1.457053 -80.060593
v 418.097870 -1.085293 -80.060593
v 418.097870 -1.457053 -80.060593
v 419.088898 -1.085292 -79.340576
v 419.088898 -1.457053 -79.340576
v 418.079315 5.132819 -80.003532
v 416.891449 5.132819 -80.003532
v 415.930420 5.132819 -79.305305
v 415.563324 5.132819 -78.175560
v 415.930420 5.132819 -77.045815
v 416.891449 5.132819 -76.347588
v 418.079315 5.132819 -76.347588
v 419.040344 5.132819 -77.045815
v 419.407440 5.132819 -78.175560
v 419.040344 5.132819 -79.305305
v 418.344971 -3.101711 -77.551041
v 417.813721 -3.101711 -77.165070
v 417.157043 -3.101711 -77.165070
v 416.625793 -3.101711 -77.551041
v 416.422882 -3.101711 -78.175560
v 416.625793 -3.101711 -78.800079
v 417.157043 -3.101711 -79.186050
v 417.813721 -3.101711 -79.186050
v 418.344971 -3.101711 -78.800079
v 418.547882 -3.101711 -78.175560
v 419.040344 4.660706 -77.045815
v 419.407440 4.660706 -78.175560
v 419.040344 4.660706 -79.305305
v 418.079315 4.660706 -80.003532
v 416.891449 4.660706 -80.003532
v 415.930420 4.660706 -79.305305
v 415.563324 4.660706 -78.175560
v 415.930420 4.660706 -77.045815
v 416.891449 4.660706 -76.347588
v 418.079315 4.660706 -76.347588
v 419.407440 -1.045292 -78.175560
v 419.040344 -1.045293 -77.045815
v 418.079315 -1.045292 -76.347588
v 416.891449 -1.045292 -76.347588
v 415.930420 -1.045293 -77.045815
v 415.563324 -1.045292 -78.175560
v 415.930420 -1.045292 -79.305305
v 416.891449 -1.045293 -80.003532
v 418.079315 -1.045293 -80.003532
v 419.040344 -1.045292 -79.305305
v 419.040344 -1.497053 -77.045815
v 419.407440 -1.497053 -78.175560
v 419.040344 -1.497053 -79.305305
v 418.079315 -1.497053 -80.003532
v 416.891449 -1.497053 -80.003532
v 415.930420 -1.497053 -79.305305
v 415.563324 -1.497053 -78.175560
v 415.930420 -1.497053 -77.045815
v 416.891449 -1.497053 -76.347588
v 418.079315 -1.497053 -76.347588
v -19.035320 19.369795 -345.226471
v -19.413857 19.369795 -344.061462
v -19.413858 18.977682 -344.061462
v -19.035320 18.977682 -345.226471
v -20.404879 19.369795 -343.341431
v -20.404879 18.977682 -343.341431
v -21.629850 19.369795 -343.341431
v -21.629850 18.977682 -343.341431
v -22.620872 19.369795 -344.061462
v -22.620872 18.977682 -344.061462
v -22.999409 19.369795 -345.226471
v -22.999409 18.977682 -345.226471
v -22.620872 19.369795 -346.391479
v -22.620872 18.977682 -346.391479
v -21.629850 19.369795 -347.111511
v -21.629850 18.977682 -347.111511
v -20.404879 19.369795 -347.111511
v -20.404879 18.977682 -347.111511
v -19.413857 19.369795 -346.391479
v -19.413857 18.977682 -346.391479
v -19.035320 13.191686 -345.226471
v -19.413857 13.191685 -344.061462
v -19.413858 12.819924 -344.061462
v -19.035320 12.819924 -345.226471
v -20.404879 13.191686 -343.341431
v -20.404879 12.819924 -343.341431
v -21.629850 13.191686 -343.341431
v -21.629850 12.819924 -343.341431
v -22.620872 13.191685 -344.061462
v -22.620872 12.819924 -344.061462
v -22.999409 13.191686 -345.226471
v -22.999409 12.819924 -345.226471
v -22.620872 13.191686 -346.391479
v -22.620872 12.819924 -346.391479
v -21.629850 13.191685 -347.111511
v -21.629850 12.819924 -347.111511
v -20.404879 13.191685 -347.111511
v -20.404879 12.819924 -347.111511
v -19.413857 13.191686 -346.391479
v -19.413857 12.819924 -346.391479
v -20.423420 19.409796 -347.054443
v -21.611309 19.409796 -347.054443
v -22.572330 19.409796 -346.356232
v -22.939407 19.409796 -345.226471
v -22.572330 19.409796 -344.096710
v -21.611309 19.409796 -343.398499
v -20.423420 19.409796 -343.398499
v -19.462399 19.409796 -344.096710
v -19.095322 19.409796 -345.226471
v -19.462399 19.409796 -346.356232
v -20.157789 11.175266 -344.601959
v -20.689035 11.175266 -344.215973
v -21.345694 11.175266 -344.215973
v -21.876940 11.175266 -344.601959
v -22.079859 11.175266 -345.226471
v -21.876940 11.175266 -345.850983
v -21.345694 11.175266 -346.236969
v -20.689035 11.175266 -346.236969
v -20.157787 11.175266 -345.850983
v -19.954870 11.175266 -345.226471
v -19.462399 18.937683 -344.096710
v -19.095322 18.937683 -345.226471
v -19.462399 18.937683 -346.356232
v -20.423420 18.937683 -347.054443
v -21.611309 18.937683 -347.054443
v -22.572330 18.937683 -346.356232
v -22.939407 18.937683 -345.226471
v -22.572330 18.937683 -344.096710
v -21.611309 18.937683 -343.398499
v -20.423420 18.937683 -343.398499
v -19.095322 13.231685 -345.226471
v -19.462399 13.231685 -344.096710
v -20.423420 13.231685 -343.398499
v -21.611309 13.231685 -343.398499
v -22.572330 13.231685 -344.096710
v -22.939407 13.231685 -345.226471
v -22.572330 13.231685 -346.356232
v -21.611309 13.231685 -347.054443
v -20.423420 13.231685 -347.054443
v -19.462399 13.231685 -346.356232
v -19.462399 12.779924 -344.096710
v -19.095322 12.779924 -345.226471
v -19.462399 12.779924 -346.356232
v -20.423420 12.779924 -347.054443
v -21.611309 12.779924 -347.054443
v -22.572330 12.779924 -346.356232
v -22.939407 12.779924 -345.226471
v -22.572330 12.779924 -344.096710
v -21.611309 12.779924 -343.398499
v -20.423420 12.779924 -343.398499
v -82.568504 30.029507 -903.124634
v -82.947037 30.029507 -901.959595
v -82.947037 29.637394 -901.959595
v -82.568504 29.637394 -903.124634
v -83.938057 30.029507 -901.239624
v -83.938057 29.637394 -901.239624
v -85.163033 30.029507 -901.239624
v -85.163033 29.637394 -901.239624
v -86.154053 30.029507 -901.959595
v -86.154053 29.637394 -901.959595
v -86.532585 30.029507 -903.124634
v -86.532585 29.637394 -903.124634
v -86.154053 30.029507 -904.289673
v -86.154053 29.637394 -904.289673
v -85.163033 30.029507 -905.009644
v -85.163033 29.637394 -905.009644
v -83.938057 30.029507 -905.009644
v -83.938057 29.637394 -905.009644
v -82.947037 30.029507 -904.289673
v -82.947037 29.637394 -904.289673
v -82.568504 23.851397 -903.124634
v -82.947037 23.851395 -901.959595
v -82.947037 23.479635 -901.959595
v -82.568504 23.479635 -903.124634
v -83.938057 23.851397 -901.239624
v -83.938057 23.479635 -901.239624
v -85.163033 23.851397 -901.239624
v -85.163033 23.479635 -901.239624
v -86.154053 23.851395 -901.959595
v -86.154053 23.479635 -901.959595
v -86.532585 23.851397 -903.124634
v -86.532585 23.479635 -903.124634
v -86.154053 23.851397 -904.289673
v -86.154053 23.479635 -904.289673
v -85.163033 23.851395 -905.009644
v -85.163033 23.479635 -905.009644
v -83.938057 23.851395 -905.009644
v -83.938057 23.479635 -905.009644
v -82.947037 23.851397 -904.289673
v -82.947037 23.479635 -904.289673
v -83.956604 30.069508 -904.952576
v -85.144485 30.069508 -904.952576
v -86.105507 30.069508 -904.254395
v -86.472588 30.069508 -903.124634
v -86.105515 30.069508 -901.994873
v -85.144485 30.069508 -901.296692
v -83.956604 30.069508 -901.296692
v -82.995575 30.069508 -901.994873
v -82.628502 30.069508 -903.124634
v -82.995575 30.069508 -904.254395
v -83.690971 21.834976 -902.500122
v -84.222214 21.834976 -902.114136
v -84.878876 21.834976 -902.114136
v -85.410118 21.834976 -902.500122
v -85.613037 21.834976 -903.124634
v -85.410118 21.834976 -903.749146
v -84.878876 21.834976 -904.135132
v -84.222214 21.834976 -904.135132
v -83.690971 21.834976 -903.749146
v -83.488052 21.834976 -903.124634
v -82.995575 29.597395 -901.994873
v -82.628502 29.597395 -903.124634
v -82.995575 29.597395 -904.254395
v -83.956604 29.597395 -904.952576
v -85.144485 29.597395 -904.952576
v -86.105507 29.597395 -904.254395
v -86.472588 29.597395 -903.124634
v -86.105515 29.597395 -901.994873
v -85.144485 29.597395 -901.296692
v -83.956604 29.597395 -901.296692
v -82.628502 23.891396 -903.124634
v -82.995575 23.891396 -901.994873
v -83.956604 23.891396 -901.296692
v -85.144485 23.891396 -901.296692
v -86.105515 23.891396 -901.994873
v -86.472588 23.891396 -903.124634
v -86.105507 23.891396 -904.254395
v -85.144485 23.891396 -904.952637
v -83.956604 23.891396 -904.952576
v -82.995575 23.891396 -904.254395
v -82.995575 23.439636 -901.994873
v -82.628502 23.439636 -903.124634
v -82.995575 23.439636 -904.254395
v -83.956604 23.439636 -904.952576
v -85.144485 23.439636 -904.952576
v -86.105507 23.439636 -904.254395
v -86.472588 23.439636 -903.124634
v -86.105515 23.439636 -901.994873
v -85.144485 23.439636 -901.296692
v -83.956604 23.439636 -901.296692
v 342.904633 42.466080 -1002.290955
v 342.526093 42.466080 -1001.125916
v 342.526093 42.073967 -1001.125916
v 342.904633 42.073967 -1002.290955
v 341.535065 42.466080 -1000.405945
v 341.535065 42.073967 -1000.405945
v 340.310089 42.466080 -1000.405945
v 340.310089 42.073967 -1000.405945
v 339.319061 42.466080 -1001.125916
v 339.319061 42.073967 -1001.125916
v 338.940521 42.466080 -1002.290955
v 338.940521 42.073967 -1002.290955
v 339.319061 42.466080 -1003.455994
v 339.319061 42.073967 -1003.455994
v 340.310089 42.466080 -1004.175964
v 340.310089 42.073967 -1004.175964
v 341.535065 42.466080 -1004.175964
v 341.535065 42.073967 -1004.175964
v 342.526093 42.466080 -1003.455994
v 342.526093 42.073967 -1003.455994
v 342.904633 36.287968 -1002.290955
v 342.526093 36.287968 -1001.125916
v 342.526093 35.916206 -1001.125916
v 342.904633 35.916206 -1002.290955
v 341.535065 36.287968 -1000.405945
v 341.535065 35.916206 -1000.405945
v 340.310089 36.287968 -1000.405945
v 340.310089 35.916206 -1000.405945
v 339.319061 36.287968 -1001.125916
v 339.319061 35.916206 -1001.125916
v 338.940521 36.287968 -1002.290955
v 338.940521 35.916206 -1002.290955
v 339.319061 36.287968 -1003.455994
v 339.319061 35.916206 -1003.455994
v 340.310089 36.287968 -1004.175964
v 340.310089 35.916206 -1004.175964
v 341.535065 36.287968 -1004.175964
v 341.535065 35.916206 -1004.175964
v 342.526093 36.287968 -1003.455994
v 342.526093 35.916206 -1003.455994
v 341.516510 42.506081 -1004.118896
v 340.328644 42.506081 -1004.118896
v 339.367615 42.506081 -1003.420715
v 339.000519 42.506081 -1002.290955
v 339.367615 42.506081 -1001.161194
v 340.328644 42.506081 -1000.463013
v 341.516510 42.506081 -1000.463013
v 342.477539 42.506081 -1001.161194
v 342.844635 42.506081 -1002.290955
v 342.477539 42.506081 -1003.420715
v 341.782166 34.271549 -1001.666443
v 341.250916 34.271549 -1001.280457
v 340.594238 34.271549 -1001.280457
v 340.062988 34.271549 -1001.666443
v 339.860077 34.271549 -1002.290955
v 340.062988 34.271549 -1002.915466
v 340.594238 34.271549 -1003.301453
v 341.250916 34.271549 -1003.301453
v 341.782166 34.271549 -1002.915466
v 341.985077 34.271549 -1002.290955
v 342.477539 42.033966 -1001.161194
v 342.844635 42.033966 -1002.290955
v 342.477539 42.033966 -1003.420715
v 341.516510 42.033966 -1004.118896
v 340.328644 42.033966 -1004.118896
v 339.367615 42.033966 -1003.420715
v 339.000519 42.033966 -1002.290955
v 339.367615 42.033966 -1001.161194
v 340.328644 42.033966 -1000.463013
v 341.516510 42.033966 -1000.463013
v 342.844635 36.327969 -1002.290955
v 342.477539 36.327969 -1001.161194
v 341.516510 36.327969 -1000.463013
v 340.328644 36.327969 -1000.463013
v 339.367615 36.327969 -1001.161194
v 339.000519 36.327969 -1002.290955
v 339.367615 36.327969 -1003.420715
v 340.328644 36.327969 -1004.118896
v 341.516510 36.327969 -1004.118896
v 342.477539 36.327969 -1003.420715
v 342.477539 35.876209 -1001.161194
v 342.844635 35.876209 -1002.290955
v 342.477539 35.876209 -1003.420715
v 341.516510 35.876209 -1004.118896
v 340.328644 35.876209 -1004.118896
v 339.367615 35.876209 -1003.420715
v 339.000519 35.876209 -1002.290955
v 339.367615 35.876209 -1001.161194
v 340.328644 35.876209 -1000.463013
v 341.516510 35.876209 -1000.463013
v 547.411621 38.976730 -773.171570
v 547.033081 38.976730 -772.006531
v 547.033081 38.584618 -772.006531
v 547.411621 38.584618 -773.171570
v 546.042053 38.976730 -771.286560
v 546.042053 38.584618 -771.286560
v 544.817078 38.976730 -771.286560
v 544.817078 38.584618 -771.286560
v 543.826050 38.976730 -772.006531
v 543.826050 38.584618 -772.006531
v 543.447510 38.976730 -773.171570
v 543.447510 38.584618 -773.171570
v 543.826050 38.976730 -774.336609
v 543.826050 38.584618 -774.336609
v 544.817078 38.976730 -775.056580
v 544.817078 38.584618 -775.056580
v 546.042053 38.976730 -775.056580
v 546.042053 38.584618 -775.056580
v 547.033081 38.976730 -774.336609
v 547.033081 38.584618 -774.336609
v 547.411621 32.798618 -773.171570
v 547.033081 32.798618 -772.006531
v 547.033081 32.426861 -772.006531
v 547.411621 32.426861 -773.171570
v 546.042053 32.798618 -771.286560
v 546.042053 32.426861 -771.286560
v 544.817078 32.798618 -771.286560
v 544.817078 32.426861 -771.286560
v 543.826050 32.798618 -772.006531
v 543.826050 32.426861 -772.006531
v 543.447510 32.798618 -773.171570
v 543.447510 32.426861 -773.171570
v 543.826050 32.798618 -774.336609
v 543.826050 32.426861 -774.336609
v 544.817078 32.798618 -775.056580
v 544.817078 32.426861 -775.056580
v 546.042053 32.798618 -775.056580
v 546.042053 32.426861 -775.056580
v 547.033081 32.798618 -774.336609
v 547.033081 32.426861 -774.336609
v 546.023499 39.016731 -774.999512
v 544.835632 39.016731 -774.999512
v 543.874573 39.016731 -774.301331
v 543.507507 39.016731 -773.171570
v 543.874573 39.016731 -772.041809
v 544.835632 39.016731 -771.343628
v 546.023499 39.016731 -771.343628
v 546.984558 39.016731 -772.041809
v 547.351624 39.016731 -773.171570
v 546.984558 39.016731 -774.301331
v 546.289124 30.782198 -772.547058
v 545.757874 30.782198 -772.161072
v 545.101257 30.782198 -772.161072
v 544.570007 30.782198 -772.547058
v 544.367065 30.782198 -773.171570
v 544.570007 30.782198 -773.796082
v 545.101257 30.782198 -774.182068
v 545.757874 30.782198 -774.182068
v 546.289124 30.782198 -773.796082
v 546.492065 30.782198 -773.171570
v 546.984558 38.544617 -772.041809
v 547.351624 38.544617 -773.171570
v 546.984558 38.544617 -774.301331
v 546.023499 38.544617 -774.999512
v 544.835632 38.544617 -774.999512
v 543.874573 38.544617 -774.301331
v 543.507507 38.544617 -773.171570
v 543.874573 38.544617 -772.041809
v 544.835632 38.544617 -771.343628
v 546.023499 38.544617 -771.343628
v 547.351624 32.838619 -773.171570
v 546.984558 32.838619 -772.041809
v 546.023499 32.838619 -771.343628
v 544.835632 32.838619 -771.343628
v 543.874573 32.838619 -772.041809
v 543.507507 32.838619 -773.171570
v 543.874573 32.838619 -774.301331
v 544.835632 32.838619 -774.999512
v 546.023499 32.838619 -774.999512
v 546.984558 32.838619 -774.301331
v 546.984558 32.386860 -772.041809
v 547.351624 32.386860 -773.171570
v 546.984558 32.386860 -774.301331
v 546.023499 32.386860 -774.999512
v 544.835632 32.386860 -774.999512
v 543.874573 32.386860 -774.301331
v 543.507507 32.386860 -773.171570
v 543.874573 32.386860 -772.041809
v 544.835632 32.386860 -771.343628
v 546.023499 32.386860 -771.343628
v 408.395111 41.970085 -775.686951
v 409.702972 41.970085 -774.275513
v 409.702972 41.354145 -774.275513
v 408.395111 41.354145 -775.686951
v 409.931458 41.970085 -772.364929
v 409.931458 41.354145 -772.364929
v 408.993286 41.970085 -770.684937
v 408.993286 41.354145 -770.684937
v 407.246796 41.970085 -769.877197
v 407.246796 41.354145 -769.877197
v 405.359100 41.970085 -770.250305
v 405.359100 41.354145 -770.250305
v 404.051239 41.970085 -771.661743
v 404.051239 41.354145 -771.661743
v 403.822754 41.970085 -773.572327
v 403.822754 41.354145 -773.572327
v 404.760925 41.970085 -775.252319
v 404.760925 41.354145 -775.252319
v 406.507416 41.970085 -776.060059
v 406.507416 41.354145 -776.060059
v 408.395111 32.265354 -775.686951
v 409.702972 32.265350 -774.275513
v 409.702972 31.681379 -774.275513
v 408.395111 31.681379 -775.686951
v 409.931458 32.265354 -772.364929
v 409.931458 31.681379 -772.364929
v 408.993286 32.265354 -770.684937
v 408.993286 31.681379 -770.684937
v 407.246796 32.265350 -769.877197
v 407.246796 31.681381 -769.877197
v 405.359100 32.265354 -770.250305
v 405.359100 31.681381 -770.250305
v 404.051239 32.265354 -771.661743
v 404.051239 31.681379 -771.661743
v 403.822754 32.265350 -773.572327
v 403.822754 31.681379 -773.572327
v 404.760925 32.265350 -775.252319
v 404.760925 31.681379 -775.252319
v 406.507416 32.265354 -776.060059
v 406.507416 31.681379 -776.060059
v 404.824982 42.032917 -775.183228
v 403.915222 42.032917 -773.554016
v 404.136780 42.032917 -771.701294
v 405.405060 42.032917 -770.332581
v 407.235626 42.032917 -769.970825
v 408.929230 42.032917 -770.754028
v 409.838989 42.032917 -772.383240
v 409.617432 42.032917 -774.235962
v 408.349152 42.032917 -775.604675
v 406.518585 42.032917 -775.966492
v 408.391937 29.097910 -773.669189
v 408.514435 29.097910 -772.645020
v 408.011505 29.097910 -771.744446
v 407.075287 29.097910 -771.311462
v 406.063385 29.097910 -771.511475
v 405.362274 29.097910 -772.268066
v 405.239777 29.097910 -773.292236
v 405.742706 29.097910 -774.192810
v 406.678925 29.097910 -774.625793
v 407.690826 29.097910 -774.425781
v 409.617432 41.291309 -774.235962
v 408.349152 41.291309 -775.604675
v 406.518585 41.291309 -775.966431
v 404.824982 41.291309 -775.183228
v 403.915222 41.291309 -773.554016
v 404.136780 41.291309 -771.701294
v 405.405060 41.291309 -770.332581
v 407.235626 41.291309 -769.970764
v 408.929230 41.291309 -770.754028
v 409.838989 41.291309 -772.383240
v 408.349152 32.328186 -775.604675
v 409.617432 32.328182 -774.235962
v 409.838989 32.328186 -772.383240
v 408.929230 32.328186 -770.754028
v 407.235626 32.328182 -769.970825
v 405.405060 32.328186 -770.332581
v 404.136780 32.328186 -771.701294
v 403.915222 32.328182 -773.554016
v 404.824982 32.328182 -775.183228
v 406.518585 32.328186 -775.966492
v 409.617432 31.618547 -774.235962
v 408.349152 31.618547 -775.604675
v 406.518585 31.618547 -775.966492
v 404.824982 31.618547 -775.183228
v 403.915222 31.618547 -773.554016
v 404.136780 31.618547 -771.701294
v 405.405060 31.618549 -770.332581
v 407.235626 31.618549 -769.970825
v 408.929230 31.618547 -770.754028
v 409.838989 31.618547 -772.383240
v -164.998093 7.659840 -29.782314
v -165.376617 7.659840 -28.617298
v -165.376633 7.267726 -28.617294
v -164.998093 7.267726 -29.782310
v -166.367645 7.659840 -27.897276
v -166.367645 7.267727 -27.897276
v -167.592621 7.659840 -27.897276
v -167.592621 7.267727 -27.897276
v -168.583633 7.659840 -28.617296
v -168.583633 7.267726 -28.617296
v -168.962173 7.659840 -29.782312
v -168.962173 7.267726 -29.782312
v -168.583633 7.659840 -30.947329
v -168.583633 7.267726 -30.947329
v -167.592621 7.659840 -31.667349
v -167.592621 7.267726 -31.667349
v -166.367645 7.659840 -31.667349
v -166.367645 7.267726 -31.667347
v -165.376633 7.659840 -30.947329
v -165.376633 7.267726 -30.947329
v -164.998093 1.481728 -29.782314
v -165.376617 1.481728 -28.617298
v -165.376633 1.109968 -28.617294
v -164.998093 1.109968 -29.782310
v -166.367645 1.481728 -27.897276
v -166.367645 1.109968 -27.897276
v -167.592621 1.481728 -27.897276
v -167.592621 1.109968 -27.897276
v -168.583633 1.481728 -28.617296
v -168.583633 1.109968 -28.617296
v -168.962173 1.481728 -29.782312
v -168.962173 1.109968 -29.782312
v -168.583633 1.481728 -30.947329
v -168.583633 1.109968 -30.947329
v -167.592621 1.481728 -31.667349
v -167.592621 1.109968 -31.667349
v -166.367645 1.481728 -31.667349
v -166.367645 1.109968 -31.667349
v -165.376633 1.481728 -30.947329
v -165.376633 1.109968 -30.947329
v -166.386185 7.699840 -31.610285
v -167.574081 7.699840 -31.610285
v -168.535095 7.699840 -30.912062
v -168.902176 7.699840 -29.782312
v -168.535095 7.699840 -28.652563
v -167.574081 7.699840 -27.954340
v -166.386185 7.699840 -27.954340
v -165.425171 7.699840 -28.652563
v -165.058090 7.699840 -29.782312
v -165.425171 7.699840 -30.912062
v -166.120560 -0.534690 -29.157793
v -166.651810 -0.534690 -28.771820
v -167.308456 -0.534690 -28.771820
v -167.839706 -0.534690 -29.157793
v -168.042633 -0.534690 -29.782312
v -167.839706 -0.534690 -30.406832
v -167.308456 -0.534690 -30.792805
v -166.651810 -0.534690 -30.792805
v -166.120560 -0.534690 -30.406830
v -165.917633 -0.534690 -29.782312
v -165.425171 7.227726 -28.652563
v -165.058090 7.227726 -29.782312
v -165.425171 7.227726 -30.912062
v -166.386185 7.227726 -31.610285
v -167.574081 7.227726 -31.610285
v -168.535095 7.227726 -30.912062
v -168.902176 7.227726 -29.782312
v -168.535095 7.227726 -28.652563
v -167.574081 7.227727 -27.954340
v -166.386185 7.227727 -27.954340
v -165.058090 1.521728 -29.782312
v -165.425171 1.521728 -28.652563
v -166.386185 1.521728 -27.954340
v -167.574081 1.521728 -27.954340
v -168.535095 1.521728 -28.652563
v -168.902176 1.521728 -29.782312
v -168.535095 1.521728 -30.912062
v -167.574081 1.521728 -31.610285
v -166.386185 1.521728 -31.610285
v -165.425171 1.521728 -30.912062
v -165.425171 1.069968 -28.652563
v -165.058090 1.069968 -29.782312
v -165.425171 1.069968 -30.912062
v -166.386185 1.069968 -31.610285
v -167.574081 1.069968 -31.610285
v -168.535095 1.069968 -30.912062
v -168.902176 1.069968 -29.782312
v -168.535095 1.069968 -28.652563
v -167.574081 1.069968 -27.954340
v -166.386185 1.069968 -27.954340
vn 0.9511 -0.0000 0.3090
vn 0.9510 -0.0000 0.3090
vn 0.5878 -0.0000 0.8090
vn -0.0000 -0.0000 1.0000
vn -0.5878 -0.0000 0.8090
vn -0.9511 -0.0000 0.3090
vn -0.9511 -0.0000 -0.3090
vn -0.9510 -0.0000 -0.3090
vn -0.5878 -0.0000 -0.8090
vn -0.0000 -0.0000 -1.0000
vn 0.5878 -0.0000 -0.8090
vn 0.9511 -0.0000 -0.3090
vn 0.9510 -0.0000 -0.3090
vn -0.9510 -0.0000 0.3090
vn -0.0000 1.0000 -0.0000
vn -0.0000 -1.0000 -0.0000
vn 0.5550 0.8318 -0.0001
vn 0.4489 0.8319 0.3262
vn 0.4489 0.8319 0.3261
vn 0.1714 0.8321 0.5275
vn -0.1714 0.8320 0.5276
vn -0.4487 0.8321 0.3261
vn -0.5550 0.8318 0.0001
vn -0.4489 0.8319 -0.3262
vn -0.4489 0.8319 -0.3261
vn -0.1714 0.8320 -0.5276
vn -0.1715 0.8320 -0.5275
vn 0.1714 0.8321 -0.5275
vn 0.4487 0.8321 -0.3261
vn 0.4487 0.8321 -0.3260
vn 0.4487 -0.8321 0.3261
vn 0.5550 -0.8318 0.0001
vn 0.5550 -0.8319 0.0001
vn 0.4487 -0.8321 0.3260
vn 0.4489 -0.8320 -0.3261
vn 0.1714 -0.8321 -0.5275
vn -0.1714 -0.8321 -0.5275
vn -0.4487 -0.8321 -0.3261
vn -0.5550 -0.8318 -0.0001
vn -0.5550 -0.8319 -0.0001
vn -0.4488 -0.8320 0.3261
vn -0.4489 -0.8320 0.3261
vn -0.1714 -0.8320 0.5276
vn -0.1714 -0.8320 0.5275
vn 0.1713 -0.8321 0.5275
vn 0.1714 -0.8321 0.5275
vn 0.5550 0.8319 -0.0001
vn -0.1714 0.8321 0.5275
vn -0.5550 0.8319 0.0001
vn -0.4489 0.8320 -0.3262
vn -0.4489 0.8320 -0.3261
vn -0.1715 0.8320 -0.5276
vn -0.4487 -0.8321 -0.3260
vn -0.1714 -0.8321 0.5275
vn -0.5877 -0.0000 -0.8091
vn 0.5877 -0.0000 -0.8091
vn 0.5547 0.8321 -0.0000
vn 0.4487 0.8321 0.3261
vn 0.4488 0.8320 0.3260
vn 0.1713 0.8321 0.5275
vn -0.4488 0.8320 0.3261
vn -0.5547 0.8321 -0.0000
vn -0.4487 0.8321 -0.3261
vn -0.1714 0.8321 -0.5275
vn 0.1714 0.8320 -0.5276
vn 0.1715 0.8320 -0.5276
vn 0.4488 0.8321 -0.3260
vn 0.4488 0.8321 -0.3259
vn 0.5547 -0.8321 -0.0000
vn 0.4488 -0.8321 0.3259
vn 0.4487 -0.8321 -0.3261
vn 0.4488 -0.8321 -0.3260
vn 0.1713 -0.8321 -0.5275
vn 0.1714 -0.8321 -0.5274
vn -0.4488 -0.8320 -0.3261
vn -0.4488 -0.8320 -0.3260
vn -0.5547 -0.8321 -0.0000
vn -0.4487 -0.8321 0.3261
vn 0.1714 -0.8320 0.5276
vn 0.1715 -0.8320 0.5276
vn 0.4488 0.8321 0.3260
vn -0.4487 0.8321 -0.3260
vn 0.4488 -0.8321 0.3260
vn -0.1713 -0.8321 0.5275
vn 0.5547 0.8321 -0.0001
vn 0.4488 0.8320 0.3262
vn 0.1713 0.8321 0.5274
vn 0.1714 0.8321 0.5274
vn -0.4488 0.8320 0.3262
vn -0.4489 0.8320 0.3261
vn -0.5547 0.8321 0.0001
vn -0.4490 0.8318 -0.3262
vn -0.4491 0.8318 -0.3262
vn 0.4485 0.8322 -0.3261
vn 0.4486 0.8322 -0.3260
vn 0.4485 -0.8322 0.3261
vn 0.5547 -0.8321 0.0001
vn 0.4486 -0.8322 0.3260
vn 0.4488 -0.8320 -0.3262
vn 0.1713 -0.8321 -0.5274
vn -0.4488 -0.8320 -0.3262
vn -0.4489 -0.8320 -0.3261
vn -0.5547 -0.8321 -0.0001
vn -0.4490 -0.8318 0.3262
vn -0.4491 -0.8319 0.3262
vn 0.4485 -0.8322 0.3260
vn 0.4488 -0.8320 -0.3261
vn -0.4490 -0.8319 0.3262
vn 0.5877 -0.0000 0.8090
vn -0.5877 -0.0000 0.8090
vn -0.5877 -0.0000 -0.8090
vn 0.5877 -0.0000 -0.8090
vn 0.9511 -0.0001 0.3090
vn 0.9511 0.0001 -0.3090
vn 0.5548 0.8320 -0.0000
vn 0.4485 0.8322 0.3260
vn 0.4485 0.8322 0.3259
vn 0.1714 0.8320 0.5275
vn 0.1714 0.8320 0.5276
vn 0.4488 0.8320 -0.3261
vn 0.4488 -0.8320 0.3261
vn 0.5545 -0.8322 -0.0000
vn 0.1715 -0.8320 -0.5276
vn 0.1714 -0.8320 -0.5276
vn -0.4489 -0.8319 -0.3261
vn -0.4487 -0.8321 0.3260
vn 0.4488 -0.8320 0.3260
vn 0.5545 0.8322 0.0001
vn 0.4484 0.8323 0.3259
vn 0.4485 0.8323 0.3259
vn -0.5545 0.8322 -0.0001
vn -0.4486 0.8322 -0.3260
vn 0.1713 0.8321 -0.5275
vn 0.5545 -0.8322 -0.0001
vn 0.4484 -0.8323 -0.3259
vn 0.4485 -0.8323 -0.3259
vn -0.1714 -0.8321 -0.5276
vn -0.5545 -0.8322 0.0001
vn -0.4486 -0.8322 0.3260
vn -0.1715 -0.8320 0.5276
vn 0.4488 0.8320 0.3261
vn 0.1714 0.8321 0.5276
vn -0.4488 0.8320 -0.3261
vn -0.1714 0.8321 -0.5276
vn -0.4488 0.8320 -0.3260
vn 0.5877 -0.0000 0.8091
vn -0.5877 -0.0000 0.8091
vn 0.5547 0.8320 -0.0000
vn -0.4487 0.8321 0.3260
vn -0.5547 0.8320 -0.0000
vn 0.5547 -0.8320 -0.0000
vn 0.4487 -0.8321 -0.3260
vn -0.4486 -0.8321 -0.3260
vn -0.5547 -0.8320 -0.0000
vn -0.4486 -0.8321 0.3260
vn 0.4487 0.8321 0.3260
vn -0.4486 0.8321 0.3260
vn -0.1715 0.8318 -0.5279
vn -0.1716 0.8318 -0.5279
vn 0.1715 0.8321 -0.5275
vn 0.0001 -0.0000 -1.0000
vn 0.5543 0.8323 -0.0000
vn -0.4487 0.8321 0.3259
vn -0.4488 0.8321 0.3259
vn -0.4485 0.8322 -0.3259
vn -0.1713 0.8321 -0.5274
vn -0.1714 0.8321 -0.5274
vn 0.1713 0.8321 -0.5274
vn 0.1714 0.8321 -0.5274
vn 0.5543 -0.8323 -0.0000
vn -0.4487 -0.8321 -0.3259
vn -0.4485 -0.8322 0.3259
vn 0.1713 -0.8321 0.5274
vn -0.1714 0.8321 0.5276
vn -0.1713 0.8321 -0.5275
vn 0.1713 -0.8322 -0.5274
vn -0.4485 -0.8323 0.3259
vn -0.1713 -0.8321 0.5274
vn -0.1714 -0.8321 0.5274
vn 0.5547 0.8321 0.0001
vn 0.4485 0.8323 0.3258
vn -0.4491 0.8318 0.3261
vn -0.4491 0.8318 0.3262
vn -0.5547 0.8321 -0.0001
vn -0.5547 0.8320 -0.0001
vn 0.4489 0.8320 -0.3260
vn 0.4489 0.8319 -0.3261
vn 0.4489 -0.8320 0.3260
vn 0.5547 -0.8321 -0.0001
vn 0.5547 -0.8320 -0.0001
vn 0.4489 -0.8320 0.3261
vn 0.4485 -0.8323 -0.3258
vn -0.1714 -0.8320 -0.5276
vn -0.4491 -0.8319 -0.3261
vn -0.4491 -0.8318 -0.3261
vn -0.5547 -0.8321 0.0001
vn -0.5547 -0.8320 0.0001
vn -0.4487 -0.8320 0.3261
vn -0.4491 0.8319 0.3261
vn 0.4489 0.8320 -0.3261
vn 0.7335 -0.0000 -0.6797
vn 0.7335 -0.0000 -0.6796
vn 0.9929 -0.0000 -0.1187
vn 0.8731 -0.0000 0.4876
vn 0.4198 -0.0000 0.9076
vn -0.1939 -0.0000 0.9810
vn -0.1938 -0.0000 0.9810
vn -0.7335 -0.0000 0.6797
vn -0.9929 -0.0000 0.1187
vn -0.8731 -0.0000 -0.4876
vn -0.4198 -0.0000 -0.9076
vn 0.1939 -0.0000 -0.9810
vn 0.1938 -0.0000 -0.9810
vn 0.8731 -0.0000 0.4875
vn -0.1940 -0.0000 0.9810
vn -0.8731 -0.0000 -0.4875
vn 0.2705 0.8320 -0.4844
vn 0.5035 0.8320 -0.2328
vn 0.5441 0.8321 0.1075
vn 0.3771 0.8320 0.4069
vn 0.0658 0.8322 0.5506
vn -0.2704 0.8320 0.4843
vn -0.2704 0.8321 0.4843
vn -0.5035 0.8320 0.2329
vn -0.5035 0.8320 0.2328
vn -0.5442 0.8320 -0.1075
vn -0.3770 0.8320 -0.4069
vn -0.0659 0.8320 -0.5508
vn -0.0658 0.8320 -0.5508
vn 0.5035 -0.8320 -0.2329
vn 0.2704 -0.8320 -0.4843
vn 0.2705 -0.8320 -0.4843
vn -0.0659 -0.8322 -0.5506
vn -0.0658 -0.8322 -0.5506
vn -0.3772 -0.8319 -0.4071
vn -0.3773 -0.8319 -0.4070
vn -0.5440 -0.8322 -0.1074
vn -0.5440 -0.8322 -0.1075
vn -0.5036 -0.8319 0.2329
vn -0.2704 -0.8321 0.4843
vn 0.0659 -0.8320 0.5508
vn 0.0658 -0.8320 0.5508
vn 0.3771 -0.8320 0.4070
vn 0.5442 -0.8320 0.1075
vn 0.5442 -0.8320 0.1076
vn 0.5441 0.8321 0.1076
vn 0.0658 0.8322 0.5505
vn -0.5442 0.8320 -0.1076
vn 0.5035 -0.8320 -0.2328
vn -0.0659 -0.8320 -0.5508
vn -0.3772 -0.8319 -0.4070
vn -0.5439 -0.8322 -0.1074
vn -0.5036 -0.8320 0.2329
vn -0.2704 -0.8321 0.4842
vn 0.0659 -0.8322 0.5505
vn 0.0658 -0.8322 0.5505
vn 0.3770 -0.8320 0.4069
vn 0.3771 -0.8320 0.4069
vn 0.4197 -0.0000 0.9077
vn -0.4197 -0.0000 -0.9077
vn 0.4486 0.8322 0.3260
vt 1.500000 1.999501
vt 1.307534 1.999501
vt 1.307534 1.928362
vt 1.500000 1.928362
vt 1.104790 1.999501
vt 1.104790 1.928362
vt 0.895210 1.999501
vt 0.895210 1.928362
vt 0.692466 1.999501
vt 0.692466 1.928362
vt 0.500000 1.999501
vt 0.500000 1.928362
vt 0.307534 1.999501
vt 0.307534 1.928362
vt 0.104790 1.999501
vt 0.104790 1.928362
vt -0.104790 1.999501
vt -0.104790 1.928362
vt 1.895210 1.999501
vt 1.692466 1.999501
vt 1.692465 1.928362
vt 1.895210 1.928362
vt 1.500000 1.068572
vt 1.307534 1.068572
vt 1.307534 1.000499
vt 1.500000 1.000499
vt 1.104790 1.068572
vt 1.104790 1.000499
vt 0.895210 1.068572
vt 0.895210 1.000499
vt 0.692466 1.068572
vt 0.692466 1.000499
vt 0.500000 1.068572
vt 0.500000 1.000499
vt 0.307534 1.068572
vt 0.307534 1.000499
vt 0.104790 1.068572
vt 0.104790 1.000499
vt -0.104790 1.068572
vt -0.104790 1.000499
vt 1.895210 1.068572
vt 1.692466 1.068572
vt 1.692466 1.000499
vt 1.895210 1.000499
vt 2.104790 1.999501
vt 2.307534 1.999501
vt 2.500000 1.999501
vt 2.692466 1.999501
vt 2.895210 1.999501
vt 3.104790 1.999501
vt 3.307534 1.999501
vt 3.500000 1.999501
vt 3.692466 1.999501
vt -0.307534 1.000499
vt -0.500000 1.000499
s 1
usemtl OCLOGO.012
f 1/1/1 2/2/2 3/3/1
f 3/3/1 4/4/1 1/1/1
f 2/2/3 5/5/3 6/6/3
f 6/6/3 3/3/3 2/2/3
f 5/5/4 7/7/4 8/8/4
f 8/8/4 6/6/4 5/5/4
f 7/7/5 9/9/5 10/10/5
f 10/10/5 8/8/5 7/7/5
f 9/9/6 11/11/6 12/12/6
f 12/12/6 10/10/6 9/9/6
f 11/11/7 13/13/8 14/14/7
f 14/14/7 12/12/7 11/11/7
f 13/13/9 15/15/9 16/16/9
f 16/16/9 14/14/9 13/13/9
f 15/15/10 17/17/10 18/18/10
f 18/18/10 16/16/10 15/15/10
f 17/19/11 19/20/11 20/21/11
f 20/21/11 18/22/11 17/19/11
f 19/20/12 1/1/12 4/4/12
f 4/4/12 20/21/13 19/20/12
f 21/23/1 22/24/2 23/25/1
f 23/25/1 24/26/1 21/23/1
f 22/24/3 25/27/3 26/28/3
f 26/28/3 23/25/3 22/24/3
f 25/27/4 27/29/4 28/30/4
f 28/30/4 26/28/4 25/27/4
f 27/29/5 29/31/5 30/32/5
f 30/32/5 28/30/5 27/29/5
f 29/31/6 31/33/6 32/34/6
f 32/34/6 30/32/14 29/31/6
f 31/33/7 33/35/7 34/36/7
f 34/36/7 32/34/7 31/33/7
f 33/35/9 35/37/9 36/38/9
f 36/38/9 34/36/9 33/35/9
f 35/37/10 37/39/10 38/40/10
f 38/40/10 36/38/10 35/37/10
f 37/41/11 39/42/11 40/43/11
f 40/43/11 38/44/11 37/41/11
f 39/42/12 21/23/12 24/26/12
f 24/26/12 40/43/12 39/42/12
f 41/19/15 42/45/15 43/46/15
f 43/46/15 44/47/15 45/48/15
f 45/48/15 46/49/15 47/50/15
f 47/50/15 48/51/15 49/52/15
f 45/48/15 47/50/15 49/52/15
f 43/46/15 45/48/15 49/52/15
f 41/19/15 43/46/15 49/52/15
f 50/53/15 41/19/15 49/52/15
f 51/25/16 52/28/16 53/30/16
f 53/30/16 54/32/16 55/34/16
f 55/34/16 56/36/16 57/38/16
f 57/38/16 58/40/16 59/54/16
f 55/34/16 57/38/16 59/54/16
f 53/30/16 55/34/16 59/54/16
f 51/25/16 53/30/16 59/54/16
f 60/55/16 51/25/16 59/54/16
f 49/52/17 48/51/18 2/2/19
f 2/2/19 1/1/17 49/52/17
f 48/51/18 47/50/20 5/5/20
f 5/5/20 2/2/19 48/51/18
f 47/50/20 46/49/21 7/7/21
f 7/7/21 5/5/20 47/50/20
f 46/49/21 45/48/22 9/9/22
f 9/9/22 7/7/21 46/49/21
f 45/48/22 44/47/23 11/11/23
f 11/11/23 9/9/22 45/48/22
f 44/47/23 43/46/24 13/13/25
f 13/13/25 11/11/23 44/47/23
f 43/46/24 42/45/26 15/15/27
f 15/15/27 13/13/25 43/46/24
f 42/45/26 41/19/28 17/17/28
f 17/17/28 15/15/27 42/45/26
f 41/19/28 50/53/29 19/20/30
f 19/20/30 17/19/28 41/19/28
f 50/53/29 49/52/17 1/1/17
f 1/1/17 19/20/30 50/53/29
f 61/3/31 62/4/32 4/4/33
f 4/4/33 3/3/34 61/3/31
f 62/4/32 63/21/35 20/21/35
f 20/21/35 4/4/33 62/4/32
f 63/21/35 64/22/36 18/22/36
f 18/22/36 20/21/35 63/21/35
f 64/18/36 65/16/37 16/16/37
f 16/16/37 18/18/36 64/18/36
f 65/16/37 66/14/38 14/14/38
f 14/14/38 16/16/37 65/16/37
f 66/14/38 67/12/39 12/12/40
f 12/12/40 14/14/38 66/14/38
f 67/12/39 68/10/41 10/10/42
f 10/10/42 12/12/40 67/12/39
f 68/10/41 69/8/43 8/8/44
f 8/8/44 10/10/42 68/10/41
f 69/8/43 70/6/45 6/6/46
f 6/6/46 8/8/44 69/8/43
f 70/6/45 61/3/31 3/3/34
f 3/3/34 6/6/46 70/6/45
f 71/23/47 72/24/19 22/24/19
f 22/24/19 21/23/47 71/23/47
f 72/24/19 73/27/20 25/27/20
f 25/27/20 22/24/19 72/24/19
f 73/27/20 74/29/48 27/29/48
f 27/29/48 25/27/20 73/27/20
f 74/29/48 75/31/22 29/31/22
f 29/31/22 27/29/48 74/29/48
f 75/31/22 76/33/23 31/33/49
f 31/33/49 29/31/22 75/31/22
f 76/33/23 77/35/50 33/35/51
f 33/35/51 31/33/49 76/33/23
f 77/35/50 78/37/26 35/37/52
f 35/37/52 33/35/51 77/35/50
f 78/37/26 79/39/28 37/39/28
f 37/39/28 35/37/52 78/37/26
f 79/41/28 80/42/29 39/42/30
f 39/42/30 37/41/28 79/41/28
f 80/42/29 71/23/47 21/23/47
f 21/23/47 39/42/30 80/42/29
f 81/25/31 82/55/32 24/26/33
f 24/26/33 23/25/34 81/25/31
f 82/55/32 83/54/35 40/43/35
f 40/43/35 24/26/33 82/55/32
f 83/54/35 84/40/36 38/44/36
f 38/44/36 40/43/35 83/54/35
f 84/40/36 85/38/37 36/38/37
f 36/38/37 38/40/36 84/40/36
f 85/38/37 86/36/38 34/36/53
f 34/36/53 36/38/37 85/38/37
f 86/36/38 87/34/39 32/34/40
f 32/34/40 34/36/53 86/36/38
f 87/34/39 88/32/41 30/32/42
f 30/32/42 32/34/40 87/34/39
f 88/32/41 89/30/54 28/30/54
f 28/30/54 30/32/42 88/32/41
f 89/30/54 90/28/45 26/28/46
f 26/28/46 28/30/54 89/30/54
f 90/28/45 81/25/31 23/25/34
f 23/25/34 26/28/46 90/28/45
f 62/4/1 61/3/1 72/24/1
f 72/24/1 71/23/1 62/4/1
f 61/3/3 70/6/3 73/27/3
f 73/27/3 72/24/3 61/3/3
f 70/6/4 69/8/4 74/29/4
f 74/29/4 73/27/4 70/6/4
f 69/8/5 68/10/5 75/31/5
f 75/31/5 74/29/5 69/8/5
f 68/10/6 67/12/6 76/33/6
f 76/33/6 75/31/6 68/10/6
f 67/12/7 66/14/7 77/35/7
f 77/35/7 76/33/7 67/12/7
f 66/14/55 65/16/55 78/37/9
f 78/37/9 77/35/9 66/14/55
f 65/16/10 64/18/10 79/39/10
f 79/39/10 78/37/10 65/16/10
f 64/22/11 63/21/11 80/42/56
f 80/42/56 79/41/56 64/22/11
f 63/21/12 62/4/12 71/23/12
f 71/23/12 80/42/12 63/21/12
f 91/1/1 92/2/1 93/3/1
f 93/3/1 94/4/2 91/1/1
f 92/2/3 95/5/3 96/6/3
f 96/6/3 93/3/3 92/2/3
f 95/5/4 97/7/4 98/8/4
f 98/8/4 96/6/4 95/5/4
f 97/7/5 99/9/5 100/10/5
f 100/10/5 98/8/5 97/7/5
f 99/9/6 101/11/14 102/12/6
f 102/12/6 100/10/6 99/9/6
f 101/11/7 103/13/7 104/14/7
f 104/14/7 102/12/7 101/11/7
f 103/13/9 105/15/9 106/16/9
f 106/16/9 104/14/9 103/13/9
f 105/15/10 107/17/10 108/18/10
f 108/18/10 106/16/10 105/15/10
f 107/19/11 109/20/11 110/21/11
f 110/21/11 108/22/11 107/19/11
f 109/20/12 91/1/12 94/4/12
f 94/4/12 110/21/12 109/20/12
f 111/23/1 112/24/1 113/25/1
f 113/25/1 114/26/1 111/23/1
f 112/24/3 115/27/3 116/28/3
f 116/28/3 113/25/3 112/24/3
f 115/27/4 117/29/4 118/30/4
f 118/30/4 116/28/4 115/27/4
f 117/29/5 119/31/5 120/32/5
f 120/32/5 118/30/5 117/29/5
f 119/31/6 121/33/6 122/34/6
f 122/34/6 120/32/6 119/31/6
f 121/33/7 123/35/7 124/36/7
f 124/36/7 122/34/8 121/33/7
f 123/35/9 125/37/9 126/38/9
f 126/38/9 124/36/9 123/35/9
f 125/37/10 127/39/10 128/40/10
f 128/40/10 126/38/10 125/37/10
f 127/41/11 129/42/11 130/43/11
f 130/43/11 128/44/11 127/41/11
f 129/42/12 111/23/13 114/26/12
f 114/26/12 130/43/12 129/42/12
f 131/19/15 132/45/15 133/46/15
f 133/46/15 134/47/15 135/48/15
f 135/48/15 136/49/15 137/50/15
f 137/50/15 138/51/15 139/52/15
f 135/48/15 137/50/15 139/52/15
f 133/46/15 135/48/15 139/52/15
f 131/19/15 133/46/15 139/52/15
f 140/53/15 131/19/15 139/52/15
f 141/25/16 142/28/16 143/30/16
f 143/30/16 144/32/16 145/34/16
f 145/34/16 146/36/16 147/38/16
f 147/38/16 148/40/16 149/54/16
f 145/34/16 147/38/16 149/54/16
f 143/30/16 145/34/16 149/54/16
f 141/25/16 143/30/16 149/54/16
f 150/55/16 141/25/16 149/54/16
f 139/52/57 138/51/58 92/2/59
f 92/2/59 91/1/57 139/52/57
f 138/51/58 137/50/60 95/5/20
f 95/5/20 92/2/59 138/51/58
f 137/50/60 136/49/48 97/7/48
f 97/7/48 95/5/20 137/50/60
f 136/49/48 135/48/61 99/9/61
f 99/9/61 97/7/48 136/49/48
f 135/48/61 134/47/62 101/11/62
f 101/11/62 99/9/61 135/48/61
f 134/47/62 133/46/63 103/13/63
f 103/13/63 101/11/62 134/47/62
f 133/46/63 132/45/64 105/15/64
f 105/15/64 103/13/63 133/46/63
f 132/45/64 131/19/65 107/17/66
f 107/17/66 105/15/64 132/45/64
f 131/19/65 140/53/67 109/20/68
f 109/20/68 107/19/66 131/19/65
f 140/53/67 139/52/57 91/1/57
f 91/1/57 109/20/68 140/53/67
f 151/3/34 152/4/69 94/4/69
f 94/4/69 93/3/70 151/3/34
f 152/4/69 153/21/71 110/21/72
f 110/21/72 94/4/69 152/4/69
f 153/21/71 154/22/73 108/22/74
f 108/22/74 110/21/72 153/21/71
f 154/18/73 155/16/37 106/16/37
f 106/16/37 108/18/74 154/18/73
f 155/16/37 156/14/75 104/14/76
f 104/14/76 106/16/37 155/16/37
f 156/14/75 157/12/77 102/12/77
f 102/12/77 104/14/76 156/14/75
f 157/12/77 158/10/78 100/10/78
f 100/10/78 102/12/77 157/12/77
f 158/10/78 159/8/54 98/8/54
f 98/8/54 100/10/78 158/10/78
f 159/8/54 160/6/79 96/6/80
f 96/6/80 98/8/54 159/8/54
f 160/6/79 151/3/34 93/3/70
f 93/3/70 96/6/80 160/6/79
f 161/23/57 162/24/58 112/24/81
f 112/24/81 111/23/57 161/23/57
f 162/24/58 163/27/60 115/27/20
f 115/27/20 112/24/81 162/24/58
f 163/27/60 164/29/48 117/29/48
f 117/29/48 115/27/20 163/27/60
f 164/29/48 165/31/61 119/31/61
f 119/31/61 117/29/48 164/29/48
f 165/31/61 166/33/62 121/33/62
f 121/33/62 119/31/61 165/31/61
f 166/33/62 167/35/63 123/35/82
f 123/35/82 121/33/62 166/33/62
f 167/35/63 168/37/64 125/37/64
f 125/37/64 123/35/82 167/35/63
f 168/37/64 169/39/65 127/39/66
f 127/39/66 125/37/64 168/37/64
f 169/41/65 170/42/30 129/42/68
f 129/42/68 127/41/66 169/41/65
f 170/42/30 161/23/57 111/23/57
f 111/23/57 129/42/68 170/42/30
f 171/25/34 172/55/69 114/26/69
f 114/26/69 113/25/83 171/25/34
f 172/55/69 173/54/71 130/43/72
f 130/43/72 114/26/69 172/55/69
f 173/54/71 174/40/73 128/44/36
f 128/44/36 130/43/72 173/54/71
f 174/40/73 175/38/37 126/38/37
f 126/38/37 128/40/36 174/40/73
f 175/38/37 176/36/75 124/36/75
f 124/36/75 126/38/37 175/38/37
f 176/36/75 177/34/77 122/34/77
f 122/34/77 124/36/75 176/36/75
f 177/34/77 178/32/78 120/32/78
f 120/32/78 122/34/77 177/34/77
f 178/32/78 179/30/84 118/30/54
f 118/30/54 120/32/78 178/32/78
f 179/30/84 180/28/79 116/28/80
f 116/28/80 118/30/54 179/30/84
f 180/28/79 171/25/34 113/25/83
f 113/25/83 116/28/80 180/28/79
f 152/4/1 151/3/1 162/24/1
f 162/24/1 161/23/1 152/4/1
f 151/3/3 160/6/3 163/27/3
f 163/27/3 162/24/3 151/3/3
f 160/6/4 159/8/4 164/29/4
f 164/29/4 163/27/4 160/6/4
f 159/8/5 158/10/5 165/31/5
f 165/31/5 164/29/5 159/8/5
f 158/10/6 157/12/6 166/33/6
f 166/33/6 165/31/6 158/10/6
f 157/12/7 156/14/7 167/35/7
f 167/35/7 166/33/7 157/12/7
f 156/14/9 155/16/9 168/37/9
f 168/37/9 167/35/9 156/14/9
f 155/16/10 154/18/10 169/39/10
f 169/39/10 168/37/10 155/16/10
f 154/22/11 153/21/11 170/42/11
f 170/42/11 169/41/11 154/22/11
f 153/21/12 152/4/12 161/23/12
f 161/23/12 170/42/12 153/21/12
f 181/1/1 182/2/1 183/3/1
f 183/3/1 184/4/1 181/1/1
f 182/2/3 185/5/3 186/6/3
f 186/6/3 183/3/3 182/2/3
f 185/5/4 187/7/4 188/8/4
f 188/8/4 186/6/4 185/5/4
f 187/7/5 189/9/5 190/10/5
f 190/10/5 188/8/5 187/7/5
f 189/9/6 191/11/6 192/12/6
f 192/12/6 190/10/6 189/9/6
f 191/11/7 193/13/7 194/14/7
f 194/14/7 192/12/7 191/11/7
f 193/13/9 195/15/9 196/16/9
f 196/16/9 194/14/9 193/13/9
f 195/15/10 197/17/10 198/18/10
f 198/18/10 196/16/10 195/15/10
f 197/19/11 199/20/11 200/21/11
f 200/21/11 198/22/11 197/19/11
f 199/20/12 181/1/12 184/4/12
f 184/4/12 200/21/12 199/20/12
f 201/23/1 202/24/1 203/25/1
f 203/25/1 204/26/1 201/23/1
f 202/24/3 205/27/3 206/28/3
f 206/28/3 203/25/3 202/24/3
f 205/27/4 207/29/4 208/30/4
f 208/30/4 206/28/4 205/27/4
f 207/29/5 209/31/5 210/32/5
f 210/32/5 208/30/5 207/29/5
f 209/31/6 211/33/6 212/34/6
f 212/34/6 210/32/6 209/31/6
f 211/33/7 213/35/7 214/36/7
f 214/36/7 212/34/7 211/33/7
f 213/35/9 215/37/9 216/38/9
f 216/38/9 214/36/9 213/35/9
f 215/37/10 217/39/10 218/40/10
f 218/40/10 216/38/10 215/37/10
f 217/41/11 219/42/11 220/43/11
f 220/43/11 218/44/11 217/41/11
f 219/42/12 201/23/12 204/26/12
f 204/26/12 220/43/12 219/42/12
f 221/19/15 222/45/15 223/46/15
f 223/46/15 224/47/15 225/48/15
f 225/48/15 226/49/15 227/50/15
f 227/50/15 228/51/15 229/52/15
f 225/48/15 227/50/15 229/52/15
f 223/46/15 225/48/15 229/52/15
f 221/19/15 223/46/15 229/52/15
f 230/53/15 221/19/15 229/52/15
f 231/25/16 232/28/16 233/30/16
f 233/30/16 234/32/16 235/34/16
f 235/34/16 236/36/16 237/38/16
f 237/38/16 238/40/16 239/54/16
f 235/34/16 237/38/16 239/54/16
f 233/30/16 235/34/16 239/54/16
f 231/25/16 233/30/16 239/54/16
f 240/55/16 231/25/16 239/54/16
f 229/52/85 228/51/86 182/2/86
f 182/2/86 181/1/85 229/52/85
f 228/51/86 227/50/87 185/5/88
f 185/5/88 182/2/86 228/51/86
f 227/50/87 226/49/48 187/7/48
f 187/7/48 185/5/88 227/50/87
f 226/49/48 225/48/89 189/9/90
f 189/9/90 187/7/48 226/49/48
f 225/48/89 224/47/91 191/11/91
f 191/11/91 189/9/90 225/48/89
f 224/47/91 223/46/92 193/13/93
f 193/13/93 191/11/91 224/47/91
f 223/46/92 222/45/64 195/15/64
f 195/15/64 193/13/93 223/46/92
f 222/45/64 221/19/28 197/17/28
f 197/17/28 195/15/64 222/45/64
f 221/19/28 230/53/94 199/20/95
f 199/20/95 197/19/28 221/19/28
f 230/53/94 229/52/85 181/1/85
f 181/1/85 199/20/95 230/53/94
f 241/3/96 242/4/97 184/4/97
f 184/4/97 183/3/98 241/3/96
f 242/4/97 243/21/99 200/21/99
f 200/21/99 184/4/97 242/4/97
f 243/21/99 244/22/100 198/22/74
f 198/22/74 200/21/99 243/21/99
f 244/18/100 245/16/37 196/16/37
f 196/16/37 198/18/74 244/18/100
f 245/16/37 246/14/101 194/14/102
f 194/14/102 196/16/37 245/16/37
f 246/14/101 247/12/103 192/12/103
f 192/12/103 194/14/102 246/14/101
f 247/12/103 248/10/104 190/10/105
f 190/10/105 192/12/103 247/12/103
f 248/10/104 249/8/54 188/8/54
f 188/8/54 190/10/105 248/10/104
f 249/8/54 250/6/46 186/6/46
f 186/6/46 188/8/54 249/8/54
f 250/6/46 241/3/96 183/3/98
f 183/3/98 186/6/46 250/6/46
f 251/23/85 252/24/86 202/24/86
f 202/24/86 201/23/85 251/23/85
f 252/24/86 253/27/87 205/27/88
f 205/27/88 202/24/86 252/24/86
f 253/27/87 254/29/48 207/29/48
f 207/29/48 205/27/88 253/27/87
f 254/29/48 255/31/89 209/31/90
f 209/31/90 207/29/48 254/29/48
f 255/31/89 256/33/91 211/33/91
f 211/33/91 209/31/90 255/31/89
f 256/33/91 257/35/92 213/35/93
f 213/35/93 211/33/91 256/33/91
f 257/35/92 258/37/64 215/37/64
f 215/37/64 213/35/93 257/35/92
f 258/37/64 259/39/28 217/39/28
f 217/39/28 215/37/64 258/37/64
f 259/41/28 260/42/94 219/42/95
f 219/42/95 217/41/28 259/41/28
f 260/42/94 251/23/85 201/23/85
f 201/23/85 219/42/95 260/42/94
f 261/25/106 262/55/97 204/26/97
f 204/26/97 203/25/98 261/25/106
f 262/55/97 263/54/99 220/43/107
f 220/43/107 204/26/97 262/55/97
f 263/54/99 264/40/100 218/44/74
f 218/44/74 220/43/107 263/54/99
f 264/40/100 265/38/37 216/38/37
f 216/38/37 218/40/74 264/40/100
f 265/38/37 266/36/101 214/36/102
f 214/36/102 216/38/37 265/38/37
f 266/36/101 267/34/103 212/34/103
f 212/34/103 214/36/102 266/36/101
f 267/34/103 268/32/104 210/32/108
f 210/32/108 212/34/103 267/34/103
f 268/32/104 269/30/54 208/30/54
f 208/30/54 210/32/108 268/32/104
f 269/30/54 270/28/46 206/28/46
f 206/28/46 208/30/54 269/30/54
f 270/28/46 261/25/106 203/25/98
f 203/25/98 206/28/46 270/28/46
f 242/4/1 241/3/1 252/24/1
f 252/24/1 251/23/1 242/4/1
f 241/3/109 250/6/109 253/27/3
f 253/27/3 252/24/3 241/3/109
f 250/6/4 249/8/4 254/29/4
f 254/29/4 253/27/4 250/6/4
f 249/8/5 248/10/5 255/31/110
f 255/31/110 254/29/110 249/8/5
f 248/10/6 247/12/6 256/33/6
f 256/33/6 255/31/6 248/10/6
f 247/12/7 246/14/7 257/35/7
f 257/35/7 256/33/7 247/12/7
f 246/14/9 245/16/111 258/37/9
f 258/37/9 257/35/9 246/14/9
f 245/16/10 244/18/10 259/39/10
f 259/39/10 258/37/10 245/16/10
f 244/22/11 243/21/11 260/42/11
f 260/42/11 259/41/112 244/22/11
f 243/21/12 242/4/12 251/23/12
f 251/23/12 260/42/12 243/21/12
f 271/1/113 272/2/113 273/3/113
f 273/3/113 274/4/113 271/1/113
f 272/2/3 275/5/3 276/6/3
f 276/6/3 273/3/3 272/2/3
f 275/5/4 277/7/4 278/8/4
f 278/8/4 276/6/4 275/5/4
f 277/7/5 279/9/5 280/10/5
f 280/10/5 278/8/5 277/7/5
f 279/9/6 281/11/6 282/12/6
f 282/12/6 280/10/6 279/9/6
f 281/11/7 283/13/7 284/14/7
f 284/14/7 282/12/7 281/11/7
f 283/13/9 285/15/9 286/16/9
f 286/16/9 284/14/9 283/13/9
f 285/15/10 287/17/10 288/18/10
f 288/18/10 286/16/10 285/15/10
f 287/19/11 289/20/11 290/21/11
f 290/21/11 288/22/11 287/19/11
f 289/20/12 271/1/114 274/4/114
f 274/4/114 290/21/12 289/20/12
f 291/23/113 292/24/113 293/25/113
f 293/25/113 294/26/113 291/23/113
f 292/24/3 295/27/3 296/28/3
f 296/28/3 293/25/3 292/24/3
f 295/27/4 297/29/4 298/30/4
f 298/30/4 296/28/4 295/27/4
f 297/29/5 299/31/5 300/32/5
f 300/32/5 298/30/5 297/29/5
f 299/31/6 301/33/6 302/34/6
f 302/34/6 300/32/6 299/31/6
f 301/33/7 303/35/7 304/36/7
f 304/36/7 302/34/7 301/33/7
f 303/35/9 305/37/9 306/38/9
f 306/38/9 304/36/9 303/35/9
f 305/37/10 307/39/10 308/40/10
f 308/40/10 306/38/10 305/37/10
f 307/41/11 309/42/11 310/43/11
f 310/43/11 308/44/11 307/41/11
f 309/42/12 291/23/114 294/26/114
f 294/26/114 310/43/12 309/42/12
f 311/19/15 312/45/15 313/46/15
f 313/46/15 314/47/15 315/48/15
f 315/48/15 316/49/15 317/50/15
f 317/50/15 318/51/15 319/52/15
f 315/48/15 317/50/15 319/52/15
f 313/46/15 315/48/15 319/52/15
f 311/19/15 313/46/15 319/52/15
f 320/53/15 311/19/15 319/52/15
f 321/25/16 322/28/16 323/30/16
f 323/30/16 324/32/16 325/34/16
f 325/34/16 326/36/16 327/38/16
f 327/38/16 328/40/16 329/54/16
f 325/34/16 327/38/16 329/54/16
f 323/30/16 325/34/16 329/54/16
f 321/25/16 323/30/16 329/54/16
f 330/55/16 321/25/16 329/54/16
f 319/52/115 318/51/116 272/2/117
f 272/2/117 271/1/115 319/52/115
f 318/51/116 317/50/118 275/5/119
f 275/5/119 272/2/117 318/51/116
f 317/50/118 316/49/48 277/7/48
f 277/7/48 275/5/119 317/50/118
f 316/49/48 315/48/90 279/9/90
f 279/9/90 277/7/48 316/49/48
f 315/48/90 314/47/62 281/11/62
f 281/11/62 279/9/90 315/48/90
f 314/47/62 313/46/82 283/13/82
f 283/13/82 281/11/62 314/47/62
f 313/46/82 312/45/64 285/15/64
f 285/15/64 283/13/82 313/46/82
f 312/45/64 311/19/28 287/17/28
f 287/17/28 285/15/64 312/45/64
f 311/19/28 320/53/120 289/20/120
f 289/20/120 287/19/28 311/19/28
f 320/53/120 319/52/115 271/1/115
f 271/1/115 289/20/120 320/53/120
f 331/3/121 332/4/122 274/4/122
f 274/4/122 273/3/121 331/3/121
f 332/4/122 333/21/72 290/21/72
f 290/21/72 274/4/122 332/4/122
f 333/21/72 334/22/123 288/22/124
f 288/22/124 290/21/72 333/21/72
f 334/18/123 335/16/37 286/16/37
f 286/16/37 288/18/124 334/18/123
f 335/16/37 336/14/125 284/14/125
f 284/14/125 286/16/37 335/16/37
f 336/14/125 337/12/77 282/12/77
f 282/12/77 284/14/125 336/14/125
f 337/12/77 338/10/126 280/10/78
f 280/10/78 282/12/77 337/12/77
f 338/10/126 339/8/43 278/8/43
f 278/8/43 280/10/78 338/10/126
f 339/8/43 340/6/79 276/6/79
f 276/6/79 278/8/43 339/8/43
f 340/6/79 331/3/121 273/3/121
f 273/3/121 276/6/79 340/6/79
f 341/23/115 342/24/116 292/24/117
f 292/24/117 291/23/115 341/23/115
f 342/24/116 343/27/119 295/27/119
f 295/27/119 292/24/117 342/24/116
f 343/27/119 344/29/48 297/29/48
f 297/29/48 295/27/119 343/27/119
f 344/29/48 345/31/90 299/31/90
f 299/31/90 297/29/48 344/29/48
f 345/31/90 346/33/62 301/33/62
f 301/33/62 299/31/90 345/31/90
f 346/33/62 347/35/82 303/35/82
f 303/35/82 301/33/62 346/33/62
f 347/35/82 348/37/64 305/37/64
f 305/37/64 303/35/82 347/35/82
f 348/37/64 349/39/28 307/39/28
f 307/39/28 305/37/64 348/37/64
f 349/41/28 350/42/120 309/42/120
f 309/42/120 307/41/28 349/41/28
f 350/42/120 341/23/115 291/23/115
f 291/23/115 309/42/120 350/42/120
f 351/25/127 352/55/122 294/26/122
f 294/26/122 293/25/121 351/25/127
f 352/55/122 353/54/107 310/43/107
f 310/43/107 294/26/122 352/55/122
f 353/54/107 354/40/124 308/44/124
f 308/44/124 310/43/107 353/54/107
f 354/40/124 355/38/37 306/38/37
f 306/38/37 308/40/124 354/40/124
f 355/38/37 356/36/102 304/36/102
f 304/36/102 306/38/37 355/38/37
f 356/36/102 357/34/77 302/34/77
f 302/34/77 304/36/102 356/36/102
f 357/34/77 358/32/126 300/32/126
f 300/32/126 302/34/77 357/34/77
f 358/32/126 359/30/54 298/30/54
f 298/30/54 300/32/126 358/32/126
f 359/30/54 360/28/79 296/28/79
f 296/28/79 298/30/54 359/30/54
f 360/28/79 351/25/127 293/25/121
f 293/25/121 296/28/79 360/28/79
f 332/4/1 331/3/1 342/24/1
f 342/24/1 341/23/1 332/4/1
f 331/3/3 340/6/3 343/27/3
f 343/27/3 342/24/3 331/3/3
f 340/6/4 339/8/4 344/29/4
f 344/29/4 343/27/4 340/6/4
f 339/8/5 338/10/5 345/31/5
f 345/31/5 344/29/5 339/8/5
f 338/10/6 337/12/6 346/33/6
f 346/33/6 345/31/6 338/10/6
f 337/12/7 336/14/7 347/35/7
f 347/35/7 346/33/7 337/12/7
f 336/14/9 335/16/9 348/37/9
f 348/37/9 347/35/9 336/14/9
f 335/16/10 334/18/10 349/39/10
f 349/39/10 348/37/10 335/16/10
f 334/22/11 333/21/11 350/42/11
f 350/42/11 349/41/11 334/22/11
f 333/21/12 332/4/12 341/23/12
f 341/23/12 350/42/12 333/21/12
f 361/1/1 362/2/1 363/3/1
f 363/3/1 364/4/1 361/1/1
f 362/2/3 365/5/3 366/6/3
f 366/6/3 363/3/3 362/2/3
f 365/5/4 367/7/4 368/8/4
f 368/8/4 366/6/4 365/5/4
f 367/7/5 369/9/5 370/10/5
f 370/10/5 368/8/5 367/7/5
f 369/9/6 371/11/6 372/12/6
f 372/12/6 370/10/6 369/9/6
f 371/11/7 373/13/7 374/14/7
f 374/14/7 372/12/7 371/11/7
f 373/13/9 375/15/9 376/16/9
f 376/16/9 374/14/9 373/13/9
f 375/15/10 377/17/10 378/18/10
f 378/18/10 376/16/10 375/15/10
f 377/19/11 379/20/11 380/21/11
f 380/21/11 378/22/11 377/19/11
f 379/20/12 361/1/12 364/4/12
f 364/4/12 380/21/12 379/20/12
f 381/23/1 382/24/1 383/25/1
f 383/25/1 384/26/1 381/23/1
f 382/24/3 385/27/3 386/28/3
f 386/28/3 383/25/3 382/24/3
f 385/27/4 387/29/4 388/30/4
f 388/30/4 386/28/4 385/27/4
f 387/29/5 389/31/5 390/32/5
f 390/32/5 388/30/5 387/29/5
f 389/31/6 391/33/6 392/34/6
f 392/34/6 390/32/6 389/31/6
f 391/33/7 393/35/7 394/36/7
f 394/36/7 392/34/7 391/33/7
f 393/35/9 395/37/9 396/38/9
f 396/38/9 394/36/9 393/35/9
f 395/37/10 397/39/10 398/40/10
f 398/40/10 396/38/10 395/37/10
f 397/41/11 399/42/11 400/43/11
f 400/43/11 398/44/11 397/41/11
f 399/42/12 381/23/12 384/26/12
f 384/26/12 400/43/12 399/42/12
f 401/19/15 402/45/15 403/46/15
f 403/46/15 404/47/15 405/48/15
f 405/48/15 406/49/15 407/50/15
f 407/50/15 408/51/15 409/52/15
f 405/48/15 407/50/15 409/52/15
f 403/46/15 405/48/15 409/52/15
f 401/19/15 403/46/15 409/52/15
f 410/53/15 401/19/15 409/52/15
f 411/25/16 412/28/16 413/30/16
f 413/30/16 414/32/16 415/34/16
f 415/34/16 416/36/16 417/38/16
f 417/38/16 418/40/16 419/54/16
f 415/34/16 417/38/16 419/54/16
f 413/30/16 415/34/16 419/54/16
f 411/25/16 413/30/16 419/54/16
f 420/55/16 411/25/16 419/54/16
f 409/52/128 408/51/129 362/2/130
f 362/2/130 361/1/128 409/52/128
f 408/51/129 407/50/20 365/5/20
f 365/5/20 362/2/130 408/51/129
f 407/50/20 406/49/48 367/7/48
f 367/7/48 365/5/20 407/50/20
f 406/49/48 405/48/90 369/9/90
f 369/9/90 367/7/48 406/49/48
f 405/48/90 404/47/131 371/11/131
f 371/11/131 369/9/90 405/48/90
f 404/47/131 403/46/132 373/13/132
f 373/13/132 371/11/131 404/47/131
f 403/46/132 402/45/26 375/15/26
f 375/15/26 373/13/132 403/46/132
f 402/45/26 401/19/133 377/17/28
f 377/17/28 375/15/26 402/45/26
f 401/19/133 410/53/30 379/20/67
f 379/20/67 377/19/28 401/19/133
f 410/53/30 409/52/128 361/1/128
f 361/1/128 379/20/67 410/53/30
f 421/3/83 422/4/134 364/4/134
f 364/4/134 363/3/83 421/3/83
f 422/4/134 423/21/135 380/21/136
f 380/21/136 364/4/134 422/4/134
f 423/21/135 424/22/36 378/22/36
f 378/22/36 380/21/136 423/21/135
f 424/18/36 425/16/137 376/16/37
f 376/16/37 378/18/36 424/18/36
f 425/16/137 426/14/102 374/14/125
f 374/14/125 376/16/37 425/16/137
f 426/14/102 427/12/138 372/12/138
f 372/12/138 374/14/125 426/14/102
f 427/12/138 428/10/139 370/10/139
f 370/10/139 372/12/138 427/12/138
f 428/10/139 429/8/43 368/8/140
f 368/8/140 370/10/139 428/10/139
f 429/8/43 430/6/45 366/6/46
f 366/6/46 368/8/140 429/8/43
f 430/6/45 421/3/83 363/3/83
f 363/3/83 366/6/46 430/6/45
f 431/23/128 432/24/129 382/24/130
f 382/24/130 381/23/128 431/23/128
f 432/24/129 433/27/20 385/27/20
f 385/27/20 382/24/130 432/24/129
f 433/27/20 434/29/48 387/29/48
f 387/29/48 385/27/20 433/27/20
f 434/29/48 435/31/90 389/31/90
f 389/31/90 387/29/48 434/29/48
f 435/31/90 436/33/131 391/33/131
f 391/33/131 389/31/90 435/31/90
f 436/33/131 437/35/132 393/35/132
f 393/35/132 391/33/131 436/33/131
f 437/35/132 438/37/26 395/37/26
f 395/37/26 393/35/132 437/35/132
f 438/37/26 439/39/133 397/39/28
f 397/39/28 395/37/26 438/37/26
f 439/41/133 440/42/30 399/42/67
f 399/42/67 397/41/28 439/41/133
f 440/42/30 431/23/128 381/23/128
f 381/23/128 399/42/67 440/42/30
f 441/25/34 442/55/134 384/26/134
f 384/26/134 383/25/83 441/25/34
f 442/55/134 443/54/135 400/43/136
f 400/43/136 384/26/134 442/55/134
f 443/54/135 444/40/36 398/44/36
f 398/44/36 400/43/136 443/54/135
f 444/40/36 445/38/37 396/38/37
f 396/38/37 398/40/36 444/40/36
f 445/38/37 446/36/102 394/36/102
f 394/36/102 396/38/37 445/38/37
f 446/36/102 447/34/138 392/34/138
f 392/34/138 394/36/102 446/36/102
f 447/34/138 448/32/139 390/32/139
f 390/32/139 392/34/138 447/34/138
f 448/32/139 449/30/43 388/30/43
f 388/30/43 390/32/139 448/32/139
f 449/30/43 450/28/45 386/28/46
f 386/28/46 388/30/43 449/30/43
f 450/28/45 441/25/34 383/25/83
f 383/25/83 386/28/46 450/28/45
f 422/4/1 421/3/1 432/24/1
f 432/24/1 431/23/1 422/4/1
f 421/3/3 430/6/3 433/27/3
f 433/27/3 432/24/3 421/3/3
f 430/6/4 429/8/4 434/29/4
f 434/29/4 433/27/4 430/6/4
f 429/8/5 428/10/5 435/31/5
f 435/31/5 434/29/5 429/8/5
f 428/10/6 427/12/6 436/33/6
f 436/33/6 435/31/6 428/10/6
f 427/12/7 426/14/7 437/35/7
f 437/35/7 436/33/7 427/12/7
f 426/14/9 425/16/9 438/37/9
f 438/37/9 437/35/9 426/14/9
f 425/16/10 424/18/10 439/39/10
f 439/39/10 438/37/10 425/16/10
f 424/22/11 423/21/11 440/42/11
f 440/42/11 439/41/11 424/22/11
f 423/21/12 422/4/12 431/23/12
f 431/23/12 440/42/12 423/21/12
f 451/1/1 452/2/1 453/3/1
f 453/3/1 454/4/2 451/1/1
f 452/2/3 455/5/3 456/6/3
f 456/6/3 453/3/3 452/2/3
f 455/5/4 457/7/4 458/8/4
f 458/8/4 456/6/4 455/5/4
f 457/7/5 459/9/5 460/10/5
f 460/10/5 458/8/5 457/7/5
f 459/9/6 461/11/6 462/12/6
f 462/12/6 460/10/6 459/9/6
f 461/11/7 463/13/7 464/14/7
f 464/14/7 462/12/7 461/11/7
f 463/13/9 465/15/9 466/16/9
f 466/16/9 464/14/9 463/13/9
f 465/15/10 467/17/10 468/18/10
f 468/18/10 466/16/10 465/15/10
f 467/19/11 469/20/11 470/21/11
f 470/21/11 468/22/11 467/19/11
f 469/20/12 451/1/12 454/4/12
f 454/4/12 470/21/12 469/20/12
f 471/23/1 472/24/1 473/25/1
f 473/25/1 474/26/2 471/23/1
f 472/24/3 475/27/3 476/28/3
f 476/28/3 473/25/3 472/24/3
f 475/27/4 477/29/4 478/30/4
f 478/30/4 476/28/4 475/27/4
f 477/29/5 479/31/5 480/32/5
f 480/32/5 478/30/5 477/29/5
f 479/31/6 481/33/14 482/34/6
f 482/34/6 480/32/6 479/31/6
f 481/33/7 483/35/7 484/36/7
f 484/36/7 482/34/7 481/33/7
f 483/35/9 485/37/9 486/38/9
f 486/38/9 484/36/9 483/35/9
f 485/37/10 487/39/10 488/40/10
f 488/40/10 486/38/10 485/37/10
f 487/41/11 489/42/11 490/43/11
f 490/43/11 488/44/11 487/41/11
f 489/42/12 471/23/12 474/26/12
f 474/26/12 490/43/12 489/42/12
f 491/19/15 492/45/15 493/46/15
f 493/46/15 494/47/15 495/48/15
f 495/48/15 496/49/15 497/50/15
f 497/50/15 498/51/15 499/52/15
f 495/48/15 497/50/15 499/52/15
f 493/46/15 495/48/15 499/52/15
f 491/19/15 493/46/15 499/52/15
f 500/53/15 491/19/15 499/52/15
f 501/25/16 502/28/16 503/30/16
f 503/30/16 504/32/16 505/34/16
f 505/34/16 506/36/16 507/38/16
f 507/38/16 508/40/16 509/54/16
f 505/34/16 507/38/16 509/54/16
f 503/30/16 505/34/16 509/54/16
f 501/25/16 503/30/16 509/54/16
f 510/55/16 501/25/16 509/54/16
f 499/52/57 498/51/141 452/2/141
f 452/2/141 451/1/57 499/52/57
f 498/51/141 497/50/142 455/5/142
f 455/5/142 452/2/141 498/51/141
f 497/50/142 496/49/48 457/7/48
f 457/7/48 455/5/142 497/50/142
f 496/49/48 495/48/61 459/9/61
f 459/9/61 457/7/48 496/49/48
f 495/48/61 494/47/62 461/11/62
f 461/11/62 459/9/61 495/48/61
f 494/47/62 493/46/143 463/13/143
f 463/13/143 461/11/62 494/47/62
f 493/46/143 492/45/64 465/15/144
f 465/15/144 463/13/143 493/46/143
f 492/45/64 491/19/28 467/17/28
f 467/17/28 465/15/144 492/45/64
f 491/19/28 500/53/120 469/20/120
f 469/20/120 467/19/28 491/19/28
f 500/53/120 499/52/57 451/1/57
f 451/1/57 469/20/120 500/53/120
f 511/3/121 512/4/69 454/4/69
f 454/4/69 453/3/121 511/3/121
f 512/4/69 513/21/107 470/21/107
f 470/21/107 454/4/69 512/4/69
f 513/21/107 514/22/36 468/22/36
f 468/22/36 470/21/107 513/21/107
f 514/18/36 515/16/37 466/16/37
f 466/16/37 468/18/36 514/18/36
f 515/16/37 516/14/75 464/14/75
f 464/14/75 466/16/37 515/16/37
f 516/14/75 517/12/77 462/12/77
f 462/12/77 464/14/75 516/14/75
f 517/12/77 518/10/41 460/10/41
f 460/10/41 462/12/77 517/12/77
f 518/10/41 519/8/54 458/8/54
f 458/8/54 460/10/41 518/10/41
f 519/8/54 520/6/46 456/6/46
f 456/6/46 458/8/54 519/8/54
f 520/6/46 511/3/121 453/3/121
f 453/3/121 456/6/46 520/6/46
f 521/23/57 522/24/141 472/24/141
f 472/24/141 471/23/57 521/23/57
f 522/24/141 523/27/20 475/27/20
f 475/27/20 472/24/141 522/24/141
f 523/27/20 524/29/48 477/29/48
f 477/29/48 475/27/20 523/27/20
f 524/29/48 525/31/61 479/31/61
f 479/31/61 477/29/48 524/29/48
f 525/31/61 526/33/62 481/33/62
f 481/33/62 479/31/61 525/31/61
f 526/33/62 527/35/143 483/35/145
f 483/35/145 481/33/62 526/33/62
f 527/35/143 528/37/64 485/37/64
f 485/37/64 483/35/145 527/35/143
f 528/37/64 529/39/28 487/39/28
f 487/39/28 485/37/64 528/37/64
f 529/41/28 530/42/120 489/42/120
f 489/42/120 487/41/28 529/41/28
f 530/42/120 521/23/57 471/23/57
f 471/23/57 489/42/120 530/42/120
f 531/25/121 532/55/69 474/26/69
f 474/26/69 473/25/121 531/25/121
f 532/55/69 533/54/107 490/43/107
f 490/43/107 474/26/69 532/55/69
f 533/54/107 534/40/36 488/44/36
f 488/44/36 490/43/107 533/54/107
f 534/40/36 535/38/37 486/38/37
f 486/38/37 488/40/36 534/40/36
f 535/38/37 536/36/75 484/36/75
f 484/36/75 486/38/37 535/38/37
f 536/36/75 537/34/77 482/34/77
f 482/34/77 484/36/75 536/36/75
f 537/34/77 538/32/41 480/32/41
f 480/32/41 482/34/77 537/34/77
f 538/32/41 539/30/54 478/30/54
f 478/30/54 480/32/41 538/32/41
f 539/30/54 540/28/46 476/28/46
f 476/28/46 478/30/54 539/30/54
f 540/28/46 531/25/121 473/25/121
f 473/25/121 476/28/46 540/28/46
f 512/4/1 511/3/1 522/24/1
f 522/24/1 521/23/1 512/4/1
f 511/3/3 520/6/3 523/27/3
f 523/27/3 522/24/3 511/3/3
f 520/6/4 519/8/4 524/29/4
f 524/29/4 523/27/4 520/6/4
f 519/8/5 518/10/5 525/31/5
f 525/31/5 524/29/5 519/8/5
f 518/10/6 517/12/6 526/33/6
f 526/33/6 525/31/6 518/10/6
f 517/12/7 516/14/7 527/35/7
f 527/35/7 526/33/7 517/12/7
f 516/14/9 515/16/9 528/37/9
f 528/37/9 527/35/111 516/14/9
f 515/16/10 514/18/10 529/39/10
f 529/39/10 528/37/10 515/16/10
f 514/22/11 513/21/112 530/42/11
f 530/42/11 529/41/11 514/22/11
f 513/21/12 512/4/12 521/23/12
f 521/23/12 530/42/12 513/21/12
f 541/1/1 542/2/1 543/3/1
f 543/3/1 544/4/1 541/1/1
f 542/2/146 545/5/146 546/6/146
f 546/6/146 543/3/146 542/2/146
f 545/5/4 547/7/4 548/8/4
f 548/8/4 546/6/4 545/5/4
f 547/7/147 549/9/147 550/10/147
f 550/10/147 548/8/147 547/7/147
f 549/9/6 551/11/6 552/12/6
f 552/12/6 550/10/6 549/9/6
f 551/11/7 553/13/7 554/14/7
f 554/14/7 552/12/7 551/11/7
f 553/13/111 555/15/9 556/16/9
f 556/16/9 554/14/55 553/13/111
f 555/15/10 557/17/10 558/18/10
f 558/18/10 556/16/10 555/15/10
f 557/19/11 559/20/56 560/21/112
f 560/21/112 558/22/11 557/19/11
f 559/20/12 541/1/12 544/4/12
f 544/4/12 560/21/12 559/20/12
f 561/23/1 562/24/1 563/25/1
f 563/25/1 564/26/1 561/23/1
f 562/24/3 565/27/146 566/28/3
f 566/28/3 563/25/3 562/24/3
f 565/27/4 567/29/4 568/30/4
f 568/30/4 566/28/4 565/27/4
f 567/29/5 569/31/147 570/32/5
f 570/32/5 568/30/5 567/29/5
f 569/31/6 571/33/6 572/34/6
f 572/34/6 570/32/6 569/31/6
f 571/33/7 573/35/7 574/36/7
f 574/36/7 572/34/7 571/33/7
f 573/35/9 575/37/9 576/38/9
f 576/38/9 574/36/55 573/35/9
f 575/37/10 577/39/10 578/40/10
f 578/40/10 576/38/10 575/37/10
f 577/41/11 579/42/11 580/43/11
f 580/43/11 578/44/56 577/41/11
f 579/42/12 561/23/12 564/26/12
f 564/26/12 580/43/12 579/42/12
f 581/19/15 582/45/15 583/46/15
f 583/46/15 584/47/15 585/48/15
f 585/48/15 586/49/15 587/50/15
f 587/50/15 588/51/15 589/52/15
f 585/48/15 587/50/15 589/52/15
f 583/46/15 585/48/15 589/52/15
f 581/19/15 583/46/15 589/52/15
f 590/53/15 581/19/15 589/52/15
f 591/25/16 592/28/16 593/30/16
f 593/30/16 594/32/16 595/34/16
f 595/34/16 596/36/16 597/38/16
f 597/38/16 598/40/16 599/54/16
f 595/34/16 597/38/16 599/54/16
f 593/30/16 595/34/16 599/54/16
f 591/25/16 593/30/16 599/54/16
f 600/55/16 591/25/16 599/54/16
f 589/52/148 588/51/81 542/2/58
f 542/2/58 541/1/148 589/52/148
f 588/51/81 587/50/60 545/5/20
f 545/5/20 542/2/58 588/51/81
f 587/50/60 586/49/48 547/7/48
f 547/7/48 545/5/20 587/50/60
f 586/49/48 585/48/149 549/9/149
f 549/9/149 547/7/48 586/49/48
f 585/48/149 584/47/150 551/11/150
f 551/11/150 549/9/149 585/48/149
f 584/47/150 583/46/82 553/13/82
f 553/13/82 551/11/150 584/47/150
f 583/46/82 582/45/64 555/15/64
f 555/15/64 553/13/82 583/46/82
f 582/45/64 581/19/28 557/17/28
f 557/17/28 555/15/64 582/45/64
f 581/19/28 590/53/30 559/20/30
f 559/20/30 557/19/28 581/19/28
f 590/53/30 589/52/148 541/1/148
f 541/1/148 559/20/30 590/53/30
f 601/3/34 602/4/151 544/4/151
f 544/4/151 543/3/34 601/3/34
f 602/4/151 603/21/152 560/21/71
f 560/21/71 544/4/151 602/4/151
f 603/21/152 604/22/36 558/22/36
f 558/22/36 560/21/71 603/21/152
f 604/18/36 605/16/37 556/16/37
f 556/16/37 558/18/36 604/18/36
f 605/16/37 606/14/53 554/14/153
f 554/14/153 556/16/37 605/16/37
f 606/14/53 607/12/154 552/12/154
f 552/12/154 554/14/153 606/14/53
f 607/12/154 608/10/126 550/10/155
f 550/10/155 552/12/154 607/12/154
f 608/10/126 609/8/54 548/8/54
f 548/8/54 550/10/155 608/10/126
f 609/8/54 610/6/45 546/6/46
f 546/6/46 548/8/54 609/8/54
f 610/6/45 601/3/34 543/3/34
f 543/3/34 546/6/46 610/6/45
f 611/23/57 612/24/156 562/24/58
f 562/24/58 561/23/57 611/23/57
f 612/24/156 613/27/60 565/27/20
f 565/27/20 562/24/58 612/24/156
f 613/27/60 614/29/48 567/29/48
f 567/29/48 565/27/20 613/27/60
f 614/29/48 615/31/149 569/31/157
f 569/31/157 567/29/48 614/29/48
f 615/31/149 616/33/150 571/33/150
f 571/33/150 569/31/157 615/31/149
f 616/33/150 617/35/82 573/35/82
f 573/35/82 571/33/150 616/33/150
f 617/35/82 618/37/158 575/37/159
f 575/37/159 573/35/82 617/35/82
f 618/37/158 619/39/28 577/39/160
f 577/39/160 575/37/159 618/37/158
f 619/41/28 620/42/30 579/42/30
f 579/42/30 577/41/160 619/41/28
f 620/42/30 611/23/57 561/23/57
f 561/23/57 579/42/30 620/42/30
f 621/25/34 622/55/151 564/26/151
f 564/26/151 563/25/34 621/25/34
f 622/55/151 623/54/152 580/43/71
f 580/43/71 564/26/151 622/55/151
f 623/54/152 624/40/73 578/44/36
f 578/44/36 580/43/71 623/54/152
f 624/40/73 625/38/37 576/38/37
f 576/38/37 578/40/36 624/40/73
f 625/38/37 626/36/53 574/36/153
f 574/36/153 576/38/37 625/38/37
f 626/36/53 627/34/154 572/34/154
f 572/34/154 574/36/153 626/36/53
f 627/34/154 628/32/126 570/32/155
f 570/32/155 572/34/154 627/34/154
f 628/32/126 629/30/54 568/30/54
f 568/30/54 570/32/155 628/32/126
f 629/30/54 630/28/46 566/28/46
f 566/28/46 568/30/54 629/30/54
f 630/28/46 621/25/34 563/25/34
f 563/25/34 566/28/46 630/28/46
f 602/4/1 601/3/1 612/24/1
f 612/24/1 611/23/1 602/4/1
f 601/3/146 610/6/146 613/27/3
f 613/27/3 612/24/3 601/3/146
f 610/6/4 609/8/4 614/29/4
f 614/29/4 613/27/4 610/6/4
f 609/8/5 608/10/5 615/31/147
f 615/31/147 614/29/147 609/8/5
f 608/10/6 607/12/6 616/33/6
f 616/33/6 615/31/6 608/10/6
f 607/12/7 606/14/7 617/35/7
f 617/35/7 616/33/7 607/12/7
f 606/14/9 605/16/9 618/37/9
f 618/37/9 617/35/9 606/14/9
f 605/16/10 604/18/10 619/39/161
f 619/39/161 618/37/161 605/16/10
f 604/22/11 603/21/11 620/42/56
f 620/42/56 619/41/56 604/22/11
f 603/21/12 602/4/12 611/23/12
f 611/23/12 620/42/12 603/21/12
f 631/1/1 632/2/2 633/3/1
f 633/3/1 634/4/1 631/1/1
f 632/2/3 635/5/146 636/6/109
f 636/6/109 633/3/3 632/2/3
f 635/5/4 637/7/4 638/8/4
f 638/8/4 636/6/4 635/5/4
f 637/7/110 639/9/5 640/10/5
f 640/10/5 638/8/147 637/7/110
f 639/9/6 641/11/6 642/12/6
f 642/12/6 640/10/6 639/9/6
f 641/11/7 643/13/7 644/14/7
f 644/14/7 642/12/7 641/11/7
f 643/13/9 645/15/55 646/16/111
f 646/16/111 644/14/9 643/13/9
f 645/15/10 647/17/10 648/18/10
f 648/18/10 646/16/10 645/15/10
f 647/19/112 649/20/11 650/21/11
f 650/21/11 648/22/56 647/19/112
f 649/20/12 631/1/12 634/4/12
f 634/4/12 650/21/13 649/20/12
f 651/23/1 652/24/1 653/25/1
f 653/25/1 654/26/1 651/23/1
f 652/24/3 655/27/146 656/28/109
f 656/28/109 653/25/3 652/24/3
f 655/27/4 657/29/4 658/30/4
f 658/30/4 656/28/4 655/27/4
f 657/29/110 659/31/5 660/32/5
f 660/32/5 658/30/147 657/29/110
f 659/31/6 661/33/6 662/34/6
f 662/34/6 660/32/6 659/31/6
f 661/33/7 663/35/7 664/36/7
f 664/36/7 662/34/7 661/33/7
f 663/35/9 665/37/55 666/38/111
f 666/38/111 664/36/9 663/35/9
f 665/37/10 667/39/10 668/40/10
f 668/40/10 666/38/10 665/37/10
f 667/41/112 669/42/11 670/43/11
f 670/43/11 668/44/56 667/41/112
f 669/42/12 651/23/12 654/26/12
f 654/26/12 670/43/12 669/42/12
f 671/19/15 672/45/15 673/46/15
f 673/46/15 674/47/15 675/48/15
f 675/48/15 676/49/15 677/50/15
f 677/50/15 678/51/15 679/52/15
f 675/48/15 677/50/15 679/52/15
f 673/46/15 675/48/15 679/52/15
f 671/19/15 673/46/15 679/52/15
f 680/53/15 671/19/15 679/52/15
f 681/25/16 682/28/16 683/30/16
f 683/30/16 684/32/16 685/34/16
f 685/34/16 686/36/16 687/38/16
f 687/38/16 688/40/16 689/54/16
f 685/34/16 687/38/16 689/54/16
f 683/30/16 685/34/16 689/54/16
f 681/25/16 683/30/16 689/54/16
f 690/55/16 681/25/16 689/54/16
f 679/52/162 678/51/156 632/2/156
f 632/2/156 631/1/162 679/52/162
f 678/51/156 677/50/87 635/5/88
f 635/5/88 632/2/156 678/51/156
f 677/50/87 676/49/48 637/7/48
f 637/7/48 635/5/88 677/50/87
f 676/49/48 675/48/163 639/9/164
f 639/9/164 637/7/48 676/49/48
f 675/48/163 674/47/131 641/11/131
f 641/11/131 639/9/164 675/48/163
f 674/47/131 673/46/165 643/13/165
f 643/13/165 641/11/131 674/47/131
f 673/46/165 672/45/166 645/15/167
f 645/15/167 643/13/165 673/46/165
f 672/45/166 671/19/168 647/17/169
f 647/17/169 645/15/167 672/45/166
f 671/19/168 680/53/67 649/20/67
f 649/20/67 647/19/169 671/19/168
f 680/53/67 679/52/162 631/1/162
f 631/1/162 649/20/67 680/53/67
f 691/3/127 692/4/170 634/4/170
f 634/4/170 633/3/127 691/3/127
f 692/4/170 693/21/152 650/21/152
f 650/21/152 634/4/170 692/4/170
f 693/21/152 694/22/73 648/22/36
f 648/22/36 650/21/152 693/21/152
f 694/18/73 695/16/37 646/16/37
f 646/16/37 648/18/36 694/18/73
f 695/16/37 696/14/171 644/14/53
f 644/14/53 646/16/37 695/16/37
f 696/14/171 697/12/138 642/12/138
f 642/12/138 644/14/53 696/14/171
f 697/12/138 698/10/172 640/10/172
f 640/10/172 642/12/138 697/12/138
f 698/10/172 699/8/84 638/8/54
f 638/8/54 640/10/172 698/10/172
f 699/8/84 700/6/173 636/6/173
f 636/6/173 638/8/54 699/8/84
f 700/6/173 691/3/127 633/3/127
f 633/3/127 636/6/173 700/6/173
f 701/23/162 702/24/156 652/24/156
f 652/24/156 651/23/162 701/23/162
f 702/24/156 703/27/87 655/27/88
f 655/27/88 652/24/156 702/24/156
f 703/27/87 704/29/174 657/29/48
f 657/29/48 655/27/88 703/27/87
f 704/29/174 705/31/163 659/31/164
f 659/31/164 657/29/48 704/29/174
f 705/31/163 706/33/131 661/33/131
f 661/33/131 659/31/164 705/31/163
f 706/33/131 707/35/165 663/35/165
f 663/35/165 661/33/131 706/33/131
f 707/35/165 708/37/175 665/37/167
f 665/37/167 663/35/165 707/35/165
f 708/37/175 709/39/133 667/39/28
f 667/39/28 665/37/167 708/37/175
f 709/41/133 710/42/67 669/42/67
f 669/42/67 667/41/28 709/41/133
f 710/42/67 701/23/162 651/23/162
f 651/23/162 669/42/67 710/42/67
f 711/25/34 712/55/170 654/26/170
f 654/26/170 653/25/34 711/25/34
f 712/55/170 713/54/152 670/43/152
f 670/43/152 654/26/170 712/55/170
f 713/54/152 714/40/176 668/44/176
f 668/44/176 670/43/152 713/54/152
f 714/40/176 715/38/137 666/38/37
f 666/38/37 668/40/176 714/40/176
f 715/38/137 716/36/171 664/36/171
f 664/36/171 666/38/37 715/38/137
f 716/36/171 717/34/138 662/34/138
f 662/34/138 664/36/171 716/36/171
f 717/34/138 718/32/177 660/32/177
f 660/32/177 662/34/138 717/34/138
f 718/32/177 719/30/178 658/30/179
f 658/30/179 660/32/177 718/32/177
f 719/30/178 720/28/45 656/28/46
f 656/28/46 658/30/179 719/30/178
f 720/28/45 711/25/34 653/25/34
f 653/25/34 656/28/46 720/28/45
f 692/4/1 691/3/1 702/24/1
f 702/24/1 701/23/1 692/4/1
f 691/3/146 700/6/146 703/27/146
f 703/27/146 702/24/146 691/3/146
f 700/6/4 699/8/4 704/29/4
f 704/29/4 703/27/4 700/6/4
f 699/8/147 698/10/147 705/31/147
f 705/31/147 704/29/147 699/8/147
f 698/10/6 697/12/6 706/33/6
f 706/33/6 705/31/6 698/10/6
f 697/12/7 696/14/7 707/35/7
f 707/35/7 706/33/7 697/12/7
f 696/14/9 695/16/9 708/37/55
f 708/37/55 707/35/55 696/14/9
f 695/16/10 694/18/10 709/39/10
f 709/39/10 708/37/10 695/16/10
f 694/22/56 693/21/56 710/42/11
f 710/42/11 709/41/11 694/22/56
f 693/21/12 692/4/12 701/23/12
f 701/23/12 710/42/12 693/21/12
f 721/1/1 722/2/1 723/3/1
f 723/3/1 724/4/2 721/1/1
f 722/2/109 725/5/3 726/6/3
f 726/6/3 723/3/146 722/2/109
f 725/5/4 727/7/4 728/8/4
f 728/8/4 726/6/4 725/5/4
f 727/7/5 729/9/147 730/10/110
f 730/10/110 728/8/5 727/7/5
f 729/9/6 731/11/6 732/12/6
f 732/12/6 730/10/6 729/9/6
f 731/11/7 733/13/7 734/14/7
f 734/14/7 732/12/7 731/11/7
f 733/13/55 735/15/55 736/16/55
f 736/16/55 734/14/55 733/13/55
f 735/15/10 737/17/10 738/18/10
f 738/18/10 736/16/10 735/15/10
f 737/19/56 739/20/56 740/21/56
f 740/21/56 738/22/56 737/19/56
f 739/20/12 721/1/12 724/4/12
f 724/4/12 740/21/12 739/20/12
f 741/23/1 742/24/1 743/25/1
f 743/25/1 744/26/1 741/23/1
f 742/24/3 745/27/146 746/28/109
f 746/28/109 743/25/3 742/24/3
f 745/27/4 747/29/4 748/30/4
f 748/30/4 746/28/4 745/27/4
f 747/29/110 749/31/5 750/32/5
f 750/32/5 748/30/147 747/29/110
f 749/31/6 751/33/6 752/34/6
f 752/34/6 750/32/6 749/31/6
f 751/33/7 753/35/7 754/36/7
f 754/36/7 752/34/7 751/33/7
f 753/35/55 755/37/55 756/38/55
f 756/38/55 754/36/55 753/35/55
f 755/37/10 757/39/10 758/40/10
f 758/40/10 756/38/10 755/37/10
f 757/41/56 759/42/56 760/43/56
f 760/43/56 758/44/56 757/41/56
f 759/42/12 741/23/12 744/26/12
f 744/26/12 760/43/12 759/42/12
f 761/19/15 762/45/15 763/46/15
f 763/46/15 764/47/15 765/48/15
f 765/48/15 766/49/15 767/50/15
f 767/50/15 768/51/15 769/52/15
f 765/48/15 767/50/15 769/52/15
f 763/46/15 765/48/15 769/52/15
f 761/19/15 763/46/15 769/52/15
f 770/53/15 761/19/15 769/52/15
f 771/25/16 772/28/16 773/30/16
f 773/30/16 774/32/16 775/34/16
f 775/34/16 776/36/16 777/38/16
f 777/38/16 778/40/16 779/54/16
f 775/34/16 777/38/16 779/54/16
f 773/30/16 775/34/16 779/54/16
f 771/25/16 773/30/16 779/54/16
f 780/55/16 771/25/16 779/54/16
f 769/52/180 768/51/181 722/2/130
f 722/2/130 721/1/180 769/52/180
f 768/51/181 767/50/142 725/5/20
f 725/5/20 722/2/130 768/51/181
f 767/50/142 766/49/174 727/7/48
f 727/7/48 725/5/20 767/50/142
f 766/49/174 765/48/182 729/9/183
f 729/9/183 727/7/48 766/49/174
f 765/48/182 764/47/184 731/11/185
f 731/11/185 729/9/183 765/48/182
f 764/47/184 763/46/82 733/13/63
f 733/13/63 731/11/185 764/47/184
f 763/46/82 762/45/175 735/15/64
f 735/15/64 733/13/63 763/46/82
f 762/45/175 761/19/28 737/17/28
f 737/17/28 735/15/64 762/45/175
f 761/19/28 770/53/186 739/20/187
f 739/20/187 737/19/28 761/19/28
f 770/53/186 769/52/180 721/1/180
f 721/1/180 739/20/187 770/53/186
f 781/3/188 782/4/189 724/4/190
f 724/4/190 723/3/191 781/3/188
f 782/4/189 783/21/192 740/21/135
f 740/21/135 724/4/190 782/4/189
f 783/21/192 784/22/36 738/22/36
f 738/22/36 740/21/135 783/21/192
f 784/18/36 785/16/193 736/16/193
f 736/16/193 738/18/36 784/18/36
f 785/16/193 786/14/194 734/14/195
f 734/14/195 736/16/193 785/16/193
f 786/14/194 787/12/196 732/12/197
f 732/12/197 734/14/195 786/14/194
f 787/12/196 788/10/126 730/10/198
f 730/10/198 732/12/197 787/12/196
f 788/10/126 789/8/178 728/8/179
f 728/8/179 730/10/198 788/10/126
f 789/8/178 790/6/45 726/6/46
f 726/6/46 728/8/179 789/8/178
f 790/6/45 781/3/188 723/3/191
f 723/3/191 726/6/46 790/6/45
f 791/23/180 792/24/181 742/24/130
f 742/24/130 741/23/180 791/23/180
f 792/24/181 793/27/20 745/27/20
f 745/27/20 742/24/130 792/24/181
f 793/27/20 794/29/174 747/29/48
f 747/29/48 745/27/20 793/27/20
f 794/29/174 795/31/199 749/31/182
f 749/31/182 747/29/48 794/29/174
f 795/31/199 796/33/184 751/33/185
f 751/33/185 749/31/182 795/31/199
f 796/33/184 797/35/82 753/35/63
f 753/35/63 751/33/185 796/33/184
f 797/35/82 798/37/166 755/37/167
f 755/37/167 753/35/63 797/35/82
f 798/37/166 799/39/133 757/39/28
f 757/39/28 755/37/167 798/37/166
f 799/41/133 800/42/186 759/42/200
f 759/42/200 757/41/28 799/41/133
f 800/42/186 791/23/180 741/23/180
f 741/23/180 759/42/200 800/42/186
f 801/25/188 802/55/189 744/26/190
f 744/26/190 743/25/191 801/25/188
f 802/55/189 803/54/192 760/43/135
f 760/43/135 744/26/190 802/55/189
f 803/54/192 804/40/36 758/44/36
f 758/44/36 760/43/135 803/54/192
f 804/40/36 805/38/37 756/38/37
f 756/38/37 758/40/36 804/40/36
f 805/38/37 806/36/194 754/36/195
f 754/36/195 756/38/37 805/38/37
f 806/36/194 807/34/196 752/34/197
f 752/34/197 754/36/195 806/36/194
f 807/34/196 808/32/126 750/32/78
f 750/32/78 752/34/197 807/34/196
f 808/32/126 809/30/84 748/30/54
f 748/30/54 750/32/78 808/32/126
f 809/30/84 810/28/45 746/28/46
f 746/28/46 748/30/54 809/30/84
f 810/28/45 801/25/188 743/25/191
f 743/25/191 746/28/46 810/28/45
f 782/4/1 781/3/1 792/24/1
f 792/24/1 791/23/1 782/4/1
f 781/3/3 790/6/3 793/27/146
f 793/27/146 792/24/146 781/3/3
f 790/6/4 789/8/4 794/29/4
f 794/29/4 793/27/4 790/6/4
f 789/8/147 788/10/147 795/31/5
f 795/31/5 794/29/5 789/8/147
f 788/10/6 787/12/6 796/33/6
f 796/33/6 795/31/6 788/10/6
f 787/12/7 786/14/7 797/35/7
f 797/35/7 796/33/7 787/12/7
f 786/14/55 785/16/55 798/37/55
f 798/37/55 797/35/55 786/14/55
f 785/16/10 784/18/10 799/39/10
f 799/39/10 798/37/10 785/16/10
f 784/22/56 783/21/56 800/42/56
f 800/42/56 799/41/56 784/22/56
f 783/21/12 782/4/12 791/23/12
f 791/23/12 800/42/12 783/21/12
f 811/1/201 812/2/201 813/3/201
f 813/3/201 814/4/202 811/1/201
f 812/2/203 815/5/203 816/6/203
f 816/6/203 813/3/203 812/2/203
f 815/5/204 817/7/204 818/8/204
f 818/8/204 816/6/204 815/5/204
f 817/7/205 819/9/205 820/10/205
f 820/10/205 818/8/205 817/7/205
f 819/9/206 821/11/206 822/12/206
f 822/12/206 820/10/207 819/9/206
f 821/11/208 823/13/208 824/14/208
f 824/14/208 822/12/208 821/11/208
f 823/13/209 825/15/209 826/16/209
f 826/16/209 824/14/209 823/13/209
f 825/15/210 827/17/210 828/18/210
f 828/18/210 826/16/210 825/15/210
f 827/19/211 829/20/211 830/21/211
f 830/21/211 828/22/211 827/19/211
f 829/20/212 811/1/212 814/4/212
f 814/4/212 830/21/213 829/20/212
f 831/23/201 832/24/201 833/25/201
f 833/25/201 834/26/201 831/23/201
f 832/24/203 835/27/203 836/28/203
f 836/28/203 833/25/203 832/24/203
f 835/27/214 837/29/204 838/30/204
f 838/30/204 836/28/214 835/27/214
f 837/29/205 839/31/205 840/32/205
f 840/32/205 838/30/205 837/29/205
f 839/31/206 841/33/215 842/34/206
f 842/34/206 840/32/206 839/31/206
f 841/33/208 843/35/208 844/36/208
f 844/36/208 842/34/208 841/33/208
f 843/35/209 845/37/209 846/38/209
f 846/38/209 844/36/209 843/35/209
f 845/37/216 847/39/210 848/40/210
f 848/40/210 846/38/216 845/37/216
f 847/41/211 849/42/211 850/43/211
f 850/43/211 848/44/211 847/41/211
f 849/42/212 831/23/212 834/26/212
f 834/26/212 850/43/212 849/42/212
f 851/19/15 852/45/15 853/46/15
f 853/46/15 854/47/15 855/48/15
f 855/48/15 856/49/15 857/50/15
f 857/50/15 858/51/15 859/52/15
f 855/48/15 857/50/15 859/52/15
f 853/46/15 855/48/15 859/52/15
f 851/19/15 853/46/15 859/52/15
f 860/53/15 851/19/15 859/52/15
f 861/25/16 862/28/16 863/30/16
f 863/30/16 864/32/16 865/34/16
f 865/34/16 866/36/16 867/38/16
f 867/38/16 868/40/16 869/54/16
f 865/34/16 867/38/16 869/54/16
f 863/30/16 865/34/16 869/54/16
f 861/25/16 863/30/16 869/54/16
f 870/55/16 861/25/16 869/54/16
f 859/52/217 858/51/218 812/2/218
f 812/2/218 811/1/217 859/52/217
f 858/51/218 857/50/219 815/5/219
f 815/5/219 812/2/218 858/51/218
f 857/50/219 856/49/220 817/7/220
f 817/7/220 815/5/219 857/50/219
f 856/49/220 855/48/221 819/9/221
f 819/9/221 817/7/220 856/49/220
f 855/48/221 854/47/222 821/11/223
f 821/11/223 819/9/221 855/48/221
f 854/47/222 853/46/224 823/13/225
f 823/13/225 821/11/223 854/47/222
f 853/46/224 852/45/226 825/15/226
f 825/15/226 823/13/225 853/46/224
f 852/45/226 851/19/227 827/17/227
f 827/17/227 825/15/226 852/45/226
f 851/19/227 860/53/228 829/20/229
f 829/20/229 827/19/227 851/19/227
f 860/53/228 859/52/217 811/1/217
f 811/1/217 829/20/229 860/53/228
f 871/3/230 872/4/231 814/4/232
f 814/4/232 813/3/230 871/3/230
f 872/4/231 873/21/233 830/21/234
f 830/21/234 814/4/232 872/4/231
f 873/21/233 874/22/235 828/22/236
f 828/22/236 830/21/234 873/21/233
f 874/18/235 875/16/237 826/16/238
f 826/16/238 828/18/236 874/18/235
f 875/16/237 876/14/239 824/14/239
f 824/14/239 826/16/238 875/16/237
f 876/14/239 877/12/240 822/12/240
f 822/12/240 824/14/239 876/14/239
f 877/12/240 878/10/241 820/10/242
f 820/10/242 822/12/240 877/12/240
f 878/10/241 879/8/243 818/8/243
f 818/8/243 820/10/242 878/10/241
f 879/8/243 880/6/244 816/6/245
f 816/6/245 818/8/243 879/8/243
f 880/6/244 871/3/230 813/3/230
f 813/3/230 816/6/245 880/6/244
f 881/23/217 882/24/218 832/24/218
f 832/24/218 831/23/217 881/23/217
f 882/24/218 883/27/219 835/27/246
f 835/27/246 832/24/218 882/24/218
f 883/27/219 884/29/220 837/29/220
f 837/29/220 835/27/246 883/27/219
f 884/29/220 885/31/247 839/31/221
f 839/31/221 837/29/220 884/29/220
f 885/31/247 886/33/223 841/33/223
f 841/33/223 839/31/221 885/31/247
f 886/33/223 887/35/225 843/35/225
f 843/35/225 841/33/223 886/33/223
f 887/35/225 888/37/226 845/37/248
f 845/37/248 843/35/225 887/35/225
f 888/37/226 889/39/227 847/39/227
f 847/39/227 845/37/248 888/37/226
f 889/41/227 890/42/228 849/42/228
f 849/42/228 847/41/227 889/41/227
f 890/42/228 881/23/217 831/23/217
f 831/23/217 849/42/228 890/42/228
f 891/25/230 892/55/231 834/26/232
f 834/26/232 833/25/249 891/25/230
f 892/55/231 893/54/250 850/43/250
f 850/43/250 834/26/232 892/55/231
f 893/54/250 894/40/235 848/44/251
f 848/44/251 850/43/250 893/54/250
f 894/40/235 895/38/252 846/38/252
f 846/38/252 848/40/251 894/40/235
f 895/38/252 896/36/253 844/36/253
f 844/36/253 846/38/252 895/38/252
f 896/36/253 897/34/254 842/34/254
f 842/34/254 844/36/253 896/36/253
f 897/34/254 898/32/255 840/32/256
f 840/32/256 842/34/254 897/34/254
f 898/32/255 899/30/257 838/30/258
f 838/30/258 840/32/256 898/32/255
f 899/30/257 900/28/244 836/28/245
f 836/28/245 838/30/258 899/30/257
f 900/28/244 891/25/230 833/25/249
f 833/25/249 836/28/245 900/28/244
f 872/4/201 871/3/201 882/24/201
f 882/24/201 881/23/201 872/4/201
f 871/3/203 880/6/203 883/27/203
f 883/27/203 882/24/203 871/3/203
f 880/6/214 879/8/214 884/29/214
f 884/29/214 883/27/214 880/6/214
f 879/8/205 878/10/205 885/31/259
f 885/31/259 884/29/259 879/8/205
f 878/10/206 877/12/206 886/33/206
f 886/33/206 885/31/206 878/10/206
f 877/12/208 876/14/208 887/35/208
f 887/35/208 886/33/208 877/12/208
f 876/14/209 875/16/209 888/37/209
f 888/37/209 887/35/209 876/14/209
f 875/16/216 874/18/210 889/39/216
f 889/39/216 888/37/216 875/16/216
f 874/22/211 873/21/211 890/42/260
f 890/42/260 889/41/260 874/22/211
f 873/21/212 872/4/212 881/23/212
f 881/23/212 890/42/212 873/21/212
f 901/1/1 902/2/1 903/3/1
f 903/3/1 904/4/1 901/1/1
f 902/2/3 905/5/3 906/6/3
f 906/6/3 903/3/3 902/2/3
f 905/5/4 907/7/4 908/8/4
f 908/8/4 906/6/4 905/5/4
f 907/7/5 909/9/5 910/10/5
f 910/10/5 908/8/5 907/7/5
f 909/9/6 911/11/6 912/12/6
f 912/12/6 910/10/6 909/9/6
f 911/11/7 913/13/7 914/14/7
f 914/14/7 912/12/7 911/11/7
f 913/13/9 915/15/9 916/16/9
f 916/16/9 914/14/9 913/13/9
f 915/15/10 917/17/10 918/18/10
f 918/18/10 916/16/10 915/15/10
f 917/19/11 919/20/11 920/21/11
f 920/21/11 918/22/11 917/19/11
f 919/20/12 901/1/12 904/4/12
f 904/4/12 920/21/12 919/20/12
f 921/23/1 922/24/1 923/25/1
f 923/25/1 924/26/1 921/23/1
f 922/24/3 925/27/3 926/28/3
f 926/28/3 923/25/3 922/24/3
f 925/27/4 927/29/4 928/30/4
f 928/30/4 926/28/4 925/27/4
f 927/29/5 929/31/5 930/32/5
f 930/32/5 928/30/5 927/29/5
f 929/31/6 931/33/6 932/34/6
f 932/34/6 930/32/6 929/31/6
f 931/33/7 933/35/7 934/36/7
f 934/36/7 932/34/7 931/33/7
f 933/35/9 935/37/9 936/38/9
f 936/38/9 934/36/9 933/35/9
f 935/37/10 937/39/10 938/40/10
f 938/40/10 936/38/10 935/37/10
f 937/41/11 939/42/11 940/43/11
f 940/43/11 938/44/11 937/41/11
f 939/42/12 921/23/12 924/26/12
f 924/26/12 940/43/12 939/42/12
f 941/19/15 942/45/15 943/46/15
f 943/46/15 944/47/15 945/48/15
f 945/48/15 946/49/15 947/50/15
f 947/50/15 948/51/15 949/52/15
f 945/48/15 947/50/15 949/52/15
f 943/46/15 945/48/15 949/52/15
f 941/19/15 943/46/15 949/52/15
f 950/53/15 941/19/15 949/52/15
f 951/25/16 952/28/16 953/30/16
f 953/30/16 954/32/16 955/34/16
f 955/34/16 956/36/16 957/38/16
f 957/38/16 958/40/16 959/54/16
f 955/34/16 957/38/16 959/54/16
f 953/30/16 955/34/16 959/54/16
f 951/25/16 953/30/16 959/54/16
f 960/55/16 951/25/16 959/54/16
f 949/52/148 948/51/261 902/2/261
f 902/2/261 901/1/115 949/52/148
f 948/51/261 947/50/119 905/5/119
f 905/5/119 902/2/261 948/51/261
f 947/50/119 946/49/48 907/7/48
f 907/7/48 905/5/119 947/50/119
f 946/49/48 945/48/22 909/9/149
f 909/9/149 907/7/48 946/49/48
f 945/48/22 944/47/62 911/11/62
f 911/11/62 909/9/149 945/48/22
f 944/47/62 943/46/82 913/13/82
f 913/13/82 911/11/62 944/47/62
f 943/46/82 942/45/64 915/15/64
f 915/15/64 913/13/82 943/46/82
f 942/45/64 941/19/28 917/17/28
f 917/17/28 915/15/64 942/45/64
f 941/19/28 950/53/120 919/20/120
f 919/20/120 917/19/28 941/19/28
f 950/53/120 949/52/148 901/1/115
f 901/1/115 919/20/120 950/53/120
f 961/3/121 962/4/69 904/4/69
f 904/4/69 903/3/121 961/3/121
f 962/4/69 963/21/152 920/21/152
f 920/21/152 904/4/69 962/4/69
f 963/21/152 964/22/124 918/22/124
f 918/22/124 920/21/152 963/21/152
f 964/18/124 965/16/37 916/16/37
f 916/16/37 918/18/124 964/18/124
f 965/16/37 966/14/38 914/14/53
f 914/14/53 916/16/37 965/16/37
f 966/14/38 967/12/77 912/12/77
f 912/12/77 914/14/53 966/14/38
f 967/12/77 968/10/126 910/10/126
f 910/10/126 912/12/77 967/12/77
f 968/10/126 969/8/54 908/8/54
f 908/8/54 910/10/126 968/10/126
f 969/8/54 970/6/46 906/6/46
f 906/6/46 908/8/54 969/8/54
f 970/6/46 961/3/121 903/3/121
f 903/3/121 906/6/46 970/6/46
f 971/23/148 972/24/261 922/24/261
f 922/24/261 921/23/115 971/23/148
f 972/24/261 973/27/119 925/27/119
f 925/27/119 922/24/261 972/24/261
f 973/27/119 974/29/48 927/29/48
f 927/29/48 925/27/119 973/27/119
f 974/29/48 975/31/22 929/31/149
f 929/31/149 927/29/48 974/29/48
f 975/31/22 976/33/62 931/33/62
f 931/33/62 929/31/149 975/31/22
f 976/33/62 977/35/82 933/35/82
f 933/35/82 931/33/62 976/33/62
f 977/35/82 978/37/64 935/37/64
f 935/37/64 933/35/82 977/35/82
f 978/37/64 979/39/28 937/39/28
f 937/39/28 935/37/64 978/37/64
f 979/41/28 980/42/120 939/42/120
f 939/42/120 937/41/28 979/41/28
f 980/42/120 971/23/148 921/23/115
f 921/23/115 939/42/120 980/42/120
f 981/25/121 982/55/69 924/26/69
f 924/26/69 923/25/121 981/25/121
f 982/55/69 983/54/152 940/43/152
f 940/43/152 924/26/69 982/55/69
f 983/54/152 984/40/124 938/44/124
f 938/44/124 940/43/152 983/54/152
f 984/40/124 985/38/37 936/38/37
f 936/38/37 938/40/124 984/40/124
f 985/38/37 986/36/38 934/36/53
f 934/36/53 936/38/37 985/38/37
f 986/36/38 987/34/77 932/34/77
f 932/34/77 934/36/53 986/36/38
f 987/34/77 988/32/126 930/32/126
f 930/32/126 932/34/77 987/34/77
f 988/32/126 989/30/54 928/30/54
f 928/30/54 930/32/126 988/32/126
f 989/30/54 990/28/46 926/28/46
f 926/28/46 928/30/54 989/30/54
f 990/28/46 981/25/121 923/25/121
f 923/25/121 926/28/46 990/28/46
f 962/4/1 961/3/1 972/24/1
f 972/24/1 971/23/1 962/4/1
f 961/3/3 970/6/3 973/27/3
f 973/27/3 972/24/3 961/3/3
f 970/6/4 969/8/4 974/29/4
f 974/29/4 973/27/4 970/6/4
f 969/8/5 968/10/5 975/31/5
f 975/31/5 974/29/5 969/8/5
f 968/10/6 967/12/6 976/33/6
f 976/33/6 975/31/6 968/10/6
f 967/12/7 966/14/7 977/35/7
f 977/35/7 976/33/7 967/12/7
f 966/14/9 965/16/9 978/37/9
f 978/37/9 977/35/9 966/14/9
f 965/16/10 964/18/10 979/39/10
f 979/39/10 978/37/10 965/16/10
f 964/22/11 963/21/11 980/42/11
f 980/42/11 979/41/11 964/22/11
f 963/21/12 962/4/12 971/23/12
f 971/23/12 980/42/12 963/21/12
