# Blender 4.4.3
# www.blender.org
mtllib OUTHOUSE.mtl
o OUTHOUSE
v -191.292130 2.441782 19.456530
v -190.283783 2.441782 19.462198
v -191.289322 2.577699 18.955797
v -190.280960 2.577699 18.961466
v -190.280960 0.038175 18.961466
v -190.283783 0.038175 19.462198
v -191.289322 0.038175 18.955797
v -191.292130 0.038175 19.456530
v -191.286163 0.038175 18.394133
v -191.286133 2.441782 18.394165
v -190.277786 2.441782 18.399836
v -190.277786 0.038175 18.399836
v -192.394684 2.441782 10.677113
v -191.386337 2.441782 10.682781
v -192.391876 2.577699 10.176376
v -191.383545 2.577699 10.182045
v -192.388733 2.441782 9.614716
v -191.383545 0.038175 10.182045
v -191.386337 0.038175 10.682781
v -192.391876 0.038175 10.176376
v -192.394684 0.038175 10.677113
v -191.380356 0.038175 9.620384
v -192.388733 0.038175 9.614716
v -191.380310 2.441781 9.620420
v -25.793680 0.771131 19.803308
v -25.794724 0.771130 18.794930
v -26.294420 0.907048 19.803827
v -26.295465 0.907047 18.795448
v -26.856094 0.771131 19.804409
v -26.857138 0.771130 18.796030
v -26.295465 -1.632476 18.795448
v -25.794724 -1.632476 18.794930
v -26.294420 -1.632475 19.803827
v -25.793680 -1.632475 19.803308
v -26.857138 -1.632476 18.796030
v -26.856094 -1.632475 19.804409
v 153.451111 0.767358 -21.767483
v 154.459473 0.767358 -21.761814
v 153.453918 0.903276 -22.268215
v 154.462296 0.903276 -22.262547
v 154.462296 -1.636248 -22.262547
v 154.459473 -1.636248 -21.761814
v 153.453918 -1.636248 -22.268215
v 153.451111 -1.636248 -21.767483
v 153.457077 0.767358 -22.829849
v 154.465454 0.767358 -22.824181
v 154.465454 -1.636248 -22.824181
v 153.457077 -1.636248 -22.829849
v 153.502594 0.705087 -23.132587
v 154.510956 0.705087 -23.126919
v 153.505417 0.839124 -23.633320
v 154.513779 0.839124 -23.627651
v 154.513779 -1.665260 -23.627651
v 154.510956 -1.665260 -23.126919
v 153.505417 -1.665260 -23.633320
v 153.502594 -1.665260 -23.132587
v 153.508575 0.705087 -24.194954
v 154.516937 0.705087 -24.189285
v 154.516937 -1.665260 -24.189285
v 153.508575 -1.665260 -24.194954
v 88.463943 0.767358 -21.767483
v 89.472305 0.767358 -21.761814
v 88.466759 0.903276 -22.268215
v 89.475121 0.903276 -22.262547
v 89.475121 -1.636248 -22.262547
v 89.472305 -1.636248 -21.761814
v 88.466759 -1.636248 -22.268215
v 88.463943 -1.636248 -21.767483
v 88.469910 0.767358 -22.829849
v 89.478271 0.767358 -22.824181
v 89.478271 -1.636248 -22.824181
v 88.469910 -1.636248 -22.829849
v 93.523148 0.705087 -22.419727
v 92.514763 0.705087 -22.417707
v 93.524155 0.839124 -21.918987
v 92.515762 0.839124 -21.916967
v 93.525269 0.705087 -21.357315
v 92.516891 0.705087 -21.355295
v 92.515762 -1.665260 -21.916967
v 92.514763 -1.665260 -22.417707
v 93.524155 -1.665260 -21.918987
v 93.523148 -1.665260 -22.419727
v 92.516891 -1.665260 -21.355295
v 93.525269 -1.665260 -21.357315
v 23.978409 0.767358 -21.984976
v 24.986771 0.767358 -21.979307
v 23.981232 0.903276 -22.485710
v 24.989578 0.903276 -22.480042
v 24.989578 -1.636248 -22.480042
v 24.986771 -1.636248 -21.979307
v 23.981232 -1.636248 -22.485710
v 23.978409 -1.636248 -21.984976
v 23.984406 0.767358 -23.047342
v 24.992767 0.767358 -23.041674
v 24.992767 -1.636248 -23.041674
v 23.984406 -1.636248 -23.047342
v 23.978409 0.767358 -23.273130
v 24.986755 0.767358 -23.267462
v 23.981216 0.903276 -23.773863
v 24.989578 0.903276 -23.768194
v 23.984375 0.767358 -24.335527
v 24.992737 0.767358 -24.329859
v 24.989578 -1.636248 -23.768194
v 24.986755 -1.636248 -23.267462
v 23.981216 -1.636248 -23.773863
v 23.978409 -1.636248 -23.273130
v 24.992737 -1.636248 -24.329859
v 23.984375 -1.636248 -24.335527
v 23.978409 0.767358 -24.512344
v 24.986755 0.767358 -24.506676
v 23.981216 0.903276 -25.013077
v 24.989578 0.903276 -25.007408
v 23.984375 0.767358 -25.574741
v 24.989578 -1.636248 -25.007408
v 24.986755 -1.636248 -24.506676
v 23.981216 -1.636248 -25.013077
v 23.978409 -1.636248 -24.512344
v 23.984375 -1.636248 -25.574741
v 24.992752 0.767358 -25.569042
v 24.992752 -1.636248 -25.569042
v 23.978394 0.767358 -25.800497
v 24.986755 0.767358 -25.794828
v 23.981216 0.903276 -26.301231
v 24.989563 0.903276 -26.295563
v 23.984375 0.767358 -26.862894
v 24.992722 0.767358 -26.857225
v 24.989563 -1.636248 -26.295563
v 24.986755 -1.636248 -25.794828
v 23.981216 -1.636248 -26.301231
v 23.978394 -1.636248 -25.800497
v 24.992722 -1.636248 -26.857225
v 23.984375 -1.636248 -26.862894
v -52.125183 0.767358 -24.505657
v -51.116837 0.767358 -24.499989
v -52.122375 0.903276 -25.006392
v -51.114014 0.903276 -25.000723
v -52.119217 0.767358 -25.568054
v -51.110855 0.767358 -25.562386
v -51.114014 -1.636248 -25.000723
v -51.116837 -1.636248 -24.499989
v -52.122375 -1.636248 -25.006392
v -52.125183 -1.636248 -24.505657
v -51.110855 -1.636248 -25.562386
v -52.119217 -1.636248 -25.568054
v -52.125198 0.767358 -25.793812
v -51.116837 0.767358 -25.788143
v -52.122391 0.903276 -26.294544
v -51.114029 0.903276 -26.288876
v -52.119232 0.767358 -26.856209
v -51.110870 0.767358 -26.850540
v -51.114029 -1.636248 -26.288876
v -51.116837 -1.636248 -25.788143
v -52.122391 -1.636248 -26.294544
v -52.125198 -1.636248 -25.793812
v -51.110870 -1.636248 -26.850540
v -52.119232 -1.636248 -26.856209
v -52.125183 0.767358 -27.033026
v -51.116837 0.767358 -27.027357
v -52.122375 0.903276 -27.533758
v -51.114014 0.903276 -27.528090
v -51.114014 -1.636248 -27.528090
v -51.116837 -1.636248 -27.027357
v -52.122375 -1.636248 -27.533758
v -52.125183 -1.636248 -27.033026
v -52.119202 0.767358 -28.095390
v -51.110855 0.767358 -28.089724
v -51.110855 -1.636248 -28.089724
v -52.119202 -1.636248 -28.095390
v -52.125214 0.767358 -28.321178
v -51.116852 0.767358 -28.315510
v -52.122391 0.903276 -28.821911
v -51.114044 0.903276 -28.816242
v -52.119232 0.767358 -29.383575
v -51.110886 0.767358 -29.377907
v -51.114044 -1.636248 -28.816242
v -51.116852 -1.636248 -28.315510
v -52.122391 -1.636248 -28.821911
v -52.125214 -1.636248 -28.321178
v -51.110886 -1.636248 -29.377907
v -52.119232 -1.636248 -29.383575
v -52.320816 0.767358 -29.383959
v -53.329163 0.767358 -29.389626
v -52.323624 0.903276 -28.883224
v -53.331985 0.903276 -28.888893
v -53.331985 -1.636248 -28.888893
v -53.329163 -1.636248 -29.389626
v -52.323624 -1.636248 -28.883224
v -52.320816 -1.636248 -29.383959
v -52.326828 0.767358 -28.321592
v -53.335190 0.767358 -28.327261
v -53.335190 -1.636248 -28.327261
v -52.326828 -1.636248 -28.321592
v -52.320786 0.767358 -28.095804
v -53.329147 0.767358 -28.101473
v -52.323593 0.903276 -27.595072
v -53.331955 0.903276 -27.600740
v -53.331955 -1.636248 -27.600740
v -53.329147 -1.636248 -28.101473
v -52.323593 -1.636248 -27.595072
v -52.320786 -1.636248 -28.095804
v -52.326813 0.767358 -27.033440
v -53.335175 0.767358 -27.039108
v -53.335175 -1.636248 -27.039108
v -52.326813 -1.636248 -27.033440
v -52.320816 0.767358 -26.856590
v -53.329178 0.767358 -26.862259
v -52.323639 0.903276 -26.355858
v -53.331985 0.903276 -26.361526
v -52.326797 0.767358 -25.794193
v -53.335144 0.767358 -25.799862
v -53.331985 -1.636248 -26.361526
v -53.329178 -1.636248 -26.862259
v -52.323639 -1.636248 -26.355858
v -52.320816 -1.636248 -26.856590
v -53.335144 -1.636248 -25.799862
v -52.326797 -1.636248 -25.794193
v -52.320786 0.767358 -25.568438
v -53.329147 0.767358 -25.574106
v -52.323608 0.903276 -25.067703
v -53.331955 0.903276 -25.073372
v -53.331955 -1.636248 -25.073372
v -53.329147 -1.636248 -25.574106
v -52.323608 -1.636248 -25.067703
v -52.320786 -1.636248 -25.568438
v -52.326828 0.767358 -24.506071
v -53.335190 0.767358 -24.511740
v -53.335190 -1.636248 -24.511740
v -52.326828 -1.636248 -24.506071
v 344.265625 -0.871832 -17.185545
v 345.273956 -0.871832 -17.175562
v 344.270599 -0.735914 -17.686262
v 345.278931 -0.735914 -17.676279
v 345.278931 -3.275437 -17.676279
v 345.273956 -3.275437 -17.175562
v 344.270599 -3.275437 -17.686262
v 344.265625 -3.275437 -17.185545
v 345.284485 -3.275437 -18.237925
v 344.276154 -3.275437 -18.247908
v 344.276154 -0.871832 -18.247877
v 345.284485 -0.871832 -18.237892
v 344.322968 -0.934103 -18.550417
v 345.331299 -0.934103 -18.540434
v 344.327911 -0.800066 -19.051134
v 345.336243 -0.800066 -19.041149
v 345.336243 -3.304451 -19.041149
v 345.331299 -3.304451 -18.540434
v 344.327911 -3.304451 -19.051134
v 344.322968 -3.304451 -18.550417
v 344.333466 -0.934103 -19.612749
v 345.341797 -0.934103 -19.602764
v 345.341797 -3.304451 -19.602764
v 344.333466 -3.304451 -19.612749
v 344.245636 -0.871832 -19.869144
v 345.253967 -0.871832 -19.859161
v 344.250610 -0.735915 -20.369862
v 345.258911 -0.735915 -20.359879
v 345.258911 -3.275437 -20.359879
v 345.253967 -3.275437 -19.859161
v 344.250610 -3.275437 -20.369862
v 344.245636 -3.275437 -19.869144
v 344.256165 -3.275438 -20.931507
v 344.256165 -0.871833 -20.931477
v 345.264496 -0.871833 -20.921492
v 345.264496 -3.275438 -20.921492
v -253.199371 9.984028 -57.361046
v -252.474060 9.984029 -58.061592
v -253.547241 10.119946 -57.721214
v -252.821960 10.119946 -58.421741
v -253.937469 9.984029 -58.125187
v -253.212158 9.984029 -58.825748
v -252.821960 7.580424 -58.421741
v -252.474060 7.580424 -58.061592
v -253.547241 7.580424 -57.721214
v -253.199371 7.580424 -57.361046
v -253.212158 7.580424 -58.825748
v -253.937469 7.580424 -58.125187
v -297.884399 22.520470 -502.762970
v -296.876068 22.520470 -502.774597
v -297.890167 22.656387 -503.263672
v -296.881866 22.656387 -503.275299
v -296.881866 20.116863 -503.275299
v -296.876068 20.116863 -502.774597
v -297.890167 20.116863 -503.263672
v -297.884399 20.116863 -502.762970
v -297.896667 22.520470 -503.825287
v -296.888336 22.520470 -503.836884
v -296.888336 20.116863 -503.836884
v -297.896667 20.116863 -503.825287
v -297.856354 22.458199 -504.128723
v -296.848053 22.458199 -504.140381
v -297.862122 22.592236 -504.629456
v -296.853821 22.592236 -504.641113
v -296.853821 20.087851 -504.641113
v -296.848053 20.087851 -504.140381
v -297.862122 20.087851 -504.629456
v -297.856354 20.087851 -504.128723
v -297.868622 22.458199 -505.191071
v -296.860291 22.458199 -505.202698
v -296.860291 20.087851 -505.202698
v -297.868622 20.087851 -505.191071
v -276.799927 22.513826 -464.962555
v -277.808258 22.513826 -464.953033
v -276.795166 22.649746 -464.461884
v -277.803528 22.649746 -464.452332
v -276.789886 22.513826 -463.900238
v -277.798218 22.513826 -463.890717
v -277.803528 20.110218 -464.452332
v -277.808258 20.110218 -464.953033
v -276.795166 20.110218 -464.461884
v -276.799927 20.110218 -464.962555
v -277.798218 20.110218 -463.890717
v -276.789886 20.110218 -463.900238
v 265.879547 15.499012 -411.023132
v 265.022797 15.499013 -410.491333
v 266.143646 15.634930 -410.597717
v 265.286865 15.634931 -410.065887
v 266.439850 15.499013 -410.120483
v 265.583069 15.499013 -409.588715
v 265.286865 13.095407 -410.065887
v 265.022797 13.095407 -410.491333
v 266.143646 13.095406 -410.597717
v 265.879547 13.095406 -411.023132
v 265.583069 13.095407 -409.588715
v 266.439850 13.095407 -410.120483
v 266.562378 15.436742 -409.839996
v 265.705658 15.436742 -409.308197
v 266.826477 15.570779 -409.414551
v 265.969727 15.570779 -408.882721
v 267.122681 15.436742 -408.937347
v 266.265930 15.436742 -408.405548
v 265.969727 13.066394 -408.882721
v 265.705658 13.066394 -409.308197
v 266.826477 13.066394 -409.414551
v 266.562378 13.066394 -409.839996
v 266.265930 13.066394 -408.405548
v 267.122681 13.066394 -408.937347
v 268.852631 15.436742 -406.185791
v 267.995911 15.436742 -405.653961
v 269.116730 15.570779 -405.760315
v 268.259979 15.570779 -405.228516
v 269.412933 15.436742 -405.283112
v 268.556183 15.436742 -404.751312
v 268.259979 13.066394 -405.228516
v 267.995911 13.066394 -405.653961
v 269.116730 13.066394 -405.760315
v 268.852631 13.066394 -406.185791
v 268.556183 13.066394 -404.751312
v 269.412933 13.066394 -405.283112
v 275.971344 15.436741 -416.497955
v 276.829407 15.436741 -417.027649
v 275.708344 15.570778 -416.924103
v 276.566376 15.570778 -417.453766
v 276.566376 13.066393 -417.453766
v 276.829407 13.066393 -417.027649
v 275.708344 13.066393 -416.924103
v 275.971344 13.066393 -416.497955
v 275.413330 15.436741 -417.401978
v 276.271393 15.436741 -417.931641
v 276.271393 13.066393 -417.931641
v 275.413330 13.066393 -417.401978
v 421.759155 13.277916 -510.170837
v 420.902435 13.277916 -509.639038
v 422.023254 13.413834 -509.745422
v 421.166504 13.413834 -509.213623
v 422.319458 13.277916 -509.268188
v 421.462708 13.277916 -508.736420
v 421.166504 10.874310 -509.213623
v 420.902435 10.874310 -509.639038
v 422.023254 10.874310 -509.745422
v 421.759155 10.874310 -510.170837
v 421.462708 10.874310 -508.736420
v 422.319458 10.874310 -509.268188
v 422.442017 13.215645 -508.987732
v 421.585297 13.215645 -508.455872
v 422.706116 13.349682 -508.562256
v 421.849365 13.349682 -508.030426
v 423.002319 13.215645 -508.085052
v 422.145569 13.215645 -507.553253
v 421.849365 10.845297 -508.030426
v 421.585297 10.845297 -508.455872
v 422.706116 10.845297 -508.562256
v 422.442017 10.845297 -508.987732
v 422.145569 10.845297 -507.553253
v 423.002319 10.845297 -508.085052
v 243.283859 15.436742 -406.214966
v 243.815674 15.436742 -405.358246
v 243.709320 15.570779 -406.479065
v 244.241150 15.570779 -405.622345
v 244.241150 13.066394 -405.622345
v 243.815674 13.066394 -405.358246
v 243.709320 13.066394 -406.479065
v 243.283859 13.066394 -406.214966
v 244.186493 15.436742 -406.775269
v 244.718292 15.436742 -405.918518
v 244.718292 13.066394 -405.918518
v 244.186493 13.066394 -406.775269
v 232.971680 15.436741 -413.333710
v 232.442001 15.436741 -414.191742
v 232.545563 15.570778 -413.070679
v 232.015884 15.570778 -413.928741
v 232.067612 15.436741 -412.775665
v 231.537949 15.436741 -413.633728
v 232.015884 13.066393 -413.928741
v 232.442001 13.066393 -414.191742
v 232.545563 13.066393 -413.070679
v 232.971680 13.066393 -413.333710
v 231.537949 13.066393 -413.633728
v 232.067612 13.066393 -412.775665
v 483.148376 -0.480361 -348.384125
v 483.217438 -0.480361 -349.390137
v 482.648834 -0.344443 -348.418396
v 482.717896 -0.344443 -349.424438
v 482.088470 -0.480361 -348.456879
v 482.157562 -0.480361 -349.462891
v 482.717896 -2.883966 -349.424438
v 483.217438 -2.883966 -349.390137
v 482.648834 -2.883966 -348.418396
v 483.148376 -2.883966 -348.384125
v 482.157562 -2.883966 -349.462891
v 482.088470 -2.883966 -348.456879
v 481.789246 -0.542632 -348.521332
v 481.858276 -0.542632 -349.527344
v 481.289673 -0.408595 -348.555634
v 481.358704 -0.408595 -349.561646
v 480.729309 -0.542632 -348.594116
v 480.798370 -0.542632 -349.600128
v 481.358704 -2.912979 -349.561646
v 481.858276 -2.912979 -349.527344
v 481.289673 -2.912979 -348.555634
v 481.789246 -2.912979 -348.521332
v 480.798370 -2.912979 -349.600128
v 480.729309 -2.912979 -348.594116
v 480.545898 -0.480361 -348.680725
v 480.614960 -0.480361 -349.686737
v 480.046326 -0.344443 -348.715027
v 480.115387 -0.344443 -349.721039
v 479.485962 -0.480361 -348.753479
v 479.555054 -0.480361 -349.759521
v 480.115387 -2.883967 -349.721039
v 480.614960 -2.883967 -349.686737
v 480.046326 -2.883967 -348.715027
v 480.545898 -2.883967 -348.680725
v 479.555054 -2.883967 -349.759521
v 479.485962 -2.883967 -348.753479
v 479.186768 -0.542632 -348.817963
v 479.255798 -0.542632 -349.823944
v 478.687164 -0.408595 -348.852264
v 478.756226 -0.408595 -349.858276
v 478.126831 -0.542632 -348.890717
v 478.195892 -0.542632 -349.896729
v 478.756226 -2.912979 -349.858276
v 479.255798 -2.912979 -349.823944
v 478.687164 -2.912979 -348.852264
v 479.186768 -2.912979 -348.817963
v 478.195892 -2.912979 -349.896729
v 478.126831 -2.912979 -348.890717
v 561.424072 -0.841757 -188.702652
v 561.129517 -0.841757 -189.667053
v 560.945190 -0.705839 -188.556396
v 560.650635 -0.705839 -189.520813
v 560.408020 -0.841757 -188.392334
v 560.113464 -0.841757 -189.356766
v 560.650635 -3.245363 -189.520813
v 561.129517 -3.245363 -189.667053
v 560.945190 -3.245363 -188.556396
v 561.424072 -3.245363 -188.702652
v 560.113464 -3.245363 -189.356766
v 560.408020 -3.245363 -188.392334
v 560.105469 -0.904028 -188.345764
v 559.810913 -0.904028 -189.310150
v 559.626587 -0.769991 -188.199493
v 559.332031 -0.769991 -189.163895
v 559.089417 -0.904028 -188.035446
v 558.794861 -0.904028 -188.999847
v 559.332031 -3.274376 -189.163895
v 559.810913 -3.274376 -189.310150
v 559.626587 -3.274376 -188.199493
v 560.105469 -3.274376 -188.345764
v 558.794861 -3.274376 -188.999847
v 559.089417 -3.274376 -188.035446
v 558.887146 -0.841757 -188.050903
v 558.592590 -0.841757 -189.015289
v 558.408203 -0.705840 -187.904633
v 558.113708 -0.705840 -188.869049
v 557.871033 -0.841757 -187.740570
v 557.576538 -0.841757 -188.705002
v 558.113708 -3.245363 -188.869049
v 558.592590 -3.245363 -189.015289
v 558.408203 -3.245363 -187.904633
v 558.887146 -3.245363 -188.050903
v 557.576538 -3.245363 -188.705002
v 557.871033 -3.245363 -187.740570
v 557.568542 -0.904028 -187.694000
v 557.273987 -0.904028 -188.658386
v 557.089600 -0.769992 -187.547729
v 556.795044 -0.769992 -188.512131
v 556.552429 -0.904028 -187.383682
v 556.257874 -0.904028 -188.348083
v 556.795044 -3.274376 -188.512131
v 557.273987 -3.274376 -188.658386
v 557.089600 -3.274376 -187.547729
v 557.568542 -3.274376 -187.694000
v 556.257874 -3.274376 -188.348083
v 556.552429 -3.274376 -187.383682
v -36.064381 16.407701 -889.123901
v -35.085258 16.407701 -889.365051
v -36.184116 16.543617 -889.610107
v -35.205017 16.543617 -889.851257
v -35.339344 16.407701 -890.396667
v -35.205017 14.004094 -889.851257
v -35.085258 14.004094 -889.365051
v -36.184116 14.004094 -889.610107
v -36.064381 14.004094 -889.123901
v -35.339344 14.004094 -890.396667
v -36.318420 16.407700 -890.155457
v -36.318420 14.004094 -890.155457
v -36.351410 16.407701 -890.189819
v -35.376648 16.407701 -890.447937
v -36.479603 16.543617 -890.673828
v -35.504868 16.543617 -890.932007
v -36.623409 16.407701 -891.216797
v -35.648628 16.407701 -891.474976
v -35.504868 14.004093 -890.932007
v -35.376648 14.004094 -890.447937
v -36.479603 14.004093 -890.673828
v -36.351410 14.004094 -890.189819
v -35.648628 14.004093 -891.474976
v -36.623409 14.004093 -891.216797
v 192.649429 32.083714 -984.860657
v 193.446182 32.083710 -985.478699
v 192.342514 32.219631 -985.256287
v 193.139236 32.219627 -985.874390
v 191.998230 32.083710 -985.700073
v 192.794937 32.083710 -986.318176
v 193.139236 29.680107 -985.874390
v 193.446182 29.680107 -985.478699
v 192.342514 29.680107 -985.256287
v 192.649429 29.680107 -984.860657
v 192.794937 29.680107 -986.318176
v 191.998230 29.680107 -985.700073
v 191.954178 32.083710 -985.718018
v 192.740021 32.083710 -986.349854
v 191.640396 32.219627 -986.108276
v 192.426224 32.219627 -986.740112
v 191.288437 32.083710 -986.545959
v 192.074295 32.083710 -987.177856
v 192.426224 29.680107 -986.740112
v 192.740021 29.680107 -986.349854
v 191.640396 29.680107 -986.108276
v 191.954178 29.680107 -985.718018
v 192.074295 29.680107 -987.177856
v 191.288437 29.680107 -986.545959
v 453.397095 32.976494 -844.537415
v 454.236969 32.976494 -843.979370
v 453.674255 33.112411 -844.954468
v 454.514099 33.112411 -844.396423
v 453.985077 32.976494 -845.422302
v 454.824951 32.976494 -844.864258
v 454.514099 30.572889 -844.396423
v 454.236969 30.572889 -843.979370
v 453.674255 30.572889 -844.954468
v 453.397095 30.572889 -844.537415
v 454.824951 30.572889 -844.864258
v 453.985077 30.572889 -845.422302
v 453.988037 32.976494 -845.469788
v 454.837494 32.976494 -844.926453
v 454.257874 33.112411 -845.891602
v 455.107300 33.112411 -845.348267
v 454.560516 32.976494 -846.364746
v 455.107300 30.572889 -845.348267
v 454.837494 30.572889 -844.926453
v 454.257874 30.572889 -845.891602
v 453.988037 30.572889 -845.469788
v 454.560516 30.572887 -846.364746
v 455.410004 32.976494 -845.821350
v 455.410004 30.572889 -845.821350
v 280.468628 27.285942 -646.745361
v 281.344696 27.285942 -647.244751
v 280.220673 27.421860 -647.180420
v 281.096710 27.421860 -647.679749
v 280.818542 27.285942 -648.167725
v 281.096710 24.882336 -647.679749
v 281.344696 24.882336 -647.244751
v 280.220673 24.882336 -647.180420
v 280.468628 24.882336 -646.745361
v 280.818542 24.882336 -648.167725
v 279.942535 27.285942 -647.668335
v 279.942535 24.882336 -647.668335
v 279.901428 27.285942 -647.692383
v 280.768646 27.285942 -648.206909
v 279.645935 27.421860 -648.122986
v 280.513123 27.421860 -648.637512
v 279.359314 27.285942 -648.606018
v 280.226562 27.285942 -649.120605
v 280.513123 24.882336 -648.637512
v 280.768646 24.882336 -648.206909
v 279.645935 24.882336 -648.122986
v 279.901428 24.882336 -647.692383
v 280.226562 24.882336 -649.120605
v 279.359314 24.882336 -648.606018
v 191.702698 15.927277 -461.055908
v 192.419678 15.927277 -460.346832
v 192.054810 16.063194 -461.411957
v 192.771790 16.063194 -460.702881
v 192.771790 13.523670 -460.702881
v 192.419678 13.523670 -460.346832
v 192.054810 13.523669 -461.411957
v 191.702698 13.523670 -461.055908
v 192.449753 15.927276 -461.811279
v 193.166718 15.927276 -461.102203
v 193.166718 13.523669 -461.102203
v 192.449753 13.523669 -461.811279
v 192.693954 15.865005 -461.995911
v 193.410934 15.865005 -461.286835
v 193.046066 15.999042 -462.351929
v 193.763031 15.999041 -461.642853
v 194.157990 15.865005 -462.042236
v 193.763031 13.494657 -461.642853
v 193.410934 13.494657 -461.286835
v 193.046066 13.494657 -462.351929
v 192.693954 13.494657 -461.995911
v 194.157990 13.494657 -462.042236
v 193.440994 15.865005 -462.751282
v 193.440994 13.494657 -462.751282
v 193.556412 15.927276 -462.996490
v 194.273376 15.927276 -462.287415
v 193.908524 16.063194 -463.352539
v 194.625488 16.063194 -462.643463
v 195.020447 15.927276 -463.042816
v 194.625488 13.523669 -462.643463
v 194.273376 13.523669 -462.287415
v 193.908524 13.523669 -463.352539
v 193.556412 13.523669 -462.996490
v 195.020447 13.523669 -463.042816
v 194.303452 15.927276 -463.751862
v 194.303452 13.523669 -463.751862
v -288.774689 19.419636 -154.110199
v -288.880676 19.419636 -153.107422
v -288.276733 19.555552 -154.057571
v -288.382690 19.555552 -153.054794
v -288.382690 17.016027 -153.054794
v -288.880676 17.016027 -153.107422
v -288.276733 17.016027 -154.057571
v -288.774689 17.016027 -154.110199
v -287.718201 19.419636 -153.998520
v -287.824158 19.419636 -152.995728
v -287.824158 17.016029 -152.995728
v -287.718201 17.016027 -153.998520
v 215.245911 0.318654 19.803173
v 215.244873 0.318674 18.794792
v 214.745163 0.463645 19.803694
v 214.744110 0.463663 18.795313
v 214.183487 0.337841 19.804272
v 214.182449 0.337860 18.795895
v 214.744110 -2.075861 18.795313
v 215.244873 -2.084933 18.794792
v 214.745163 -2.075880 19.803694
v 215.245911 -2.084952 19.803173
v 214.182449 -2.065746 18.795895
v 214.183487 -2.065765 19.804272
v -237.051971 22.446722 -363.934052
v -236.917801 22.446722 -362.934662
v -236.555695 22.582640 -364.000702
v -236.421524 22.582640 -363.001282
v -235.999023 22.446722 -364.075409
v -236.421524 20.043116 -363.001282
v -236.917801 20.043116 -362.934662
v -236.555695 20.043116 -364.000702
v -237.051971 20.043116 -363.934052
v -235.999023 20.043116 -364.075409
v -235.864899 22.446722 -363.075989
v -235.864899 20.043116 -363.075989
v -235.692947 22.384451 -364.072296
v -235.558762 22.384451 -363.072906
v -235.196640 22.518488 -364.138916
v -235.062439 22.518488 -363.139526
v -235.062439 20.014103 -363.139526
v -235.558762 20.014103 -363.072906
v -235.196640 20.014103 -364.138916
v -235.692947 20.014103 -364.072296
v -234.639984 22.384451 -364.213654
v -234.505829 22.384451 -363.214233
v -234.505829 20.014103 -363.214233
v -234.639984 20.014103 -364.213654
v -219.887527 21.912668 -429.440308
v -220.511642 21.912668 -428.648285
v -219.494232 22.048586 -429.130432
v -220.118347 22.048586 -428.338379
v -219.053085 21.912668 -428.782776
v -219.677200 21.912668 -427.990784
v -220.118347 19.509062 -428.338379
v -220.511642 19.509062 -428.648285
v -219.494232 19.509062 -429.130432
v -219.887527 19.509062 -429.440308
v -219.677200 19.509062 -427.990784
v -219.053085 19.509062 -428.782776
v -300.560547 22.446705 -576.855896
v -300.614502 22.446705 -575.848999
v -300.060547 22.582623 -576.829163
v -300.114471 22.582623 -575.822205
v -300.114471 20.043098 -575.822205
v -300.614502 20.043098 -575.848999
v -300.060547 20.043098 -576.829163
v -300.560547 20.043098 -576.855896
v -299.499695 22.446705 -576.799133
v -299.553650 22.446705 -575.792175
v -299.553650 20.043098 -575.792175
v -299.499695 20.043098 -576.799133
v -299.199524 22.384434 -576.739136
v -299.253418 22.384434 -575.732239
v -298.699463 22.518471 -576.712341
v -298.753387 22.518471 -575.705444
v -298.192535 22.384434 -575.675354
v -298.753387 20.014086 -575.705444
v -299.253418 20.014086 -575.732239
v -298.699463 20.014086 -576.712341
v -299.199524 20.014086 -576.739136
v -298.192535 20.014086 -575.675354
v -298.138641 22.384434 -576.682312
v -298.138641 20.014086 -576.682312
v -301.379150 21.912655 -594.434204
v -301.403717 21.912657 -593.426147
v -300.878601 22.048573 -594.421997
v -300.903137 22.048574 -593.413940
v -300.317108 21.912655 -594.408325
v -300.341675 21.912657 -593.400269
v -300.903137 19.509050 -593.413940
v -301.403717 19.509050 -593.426147
v -300.878601 19.509048 -594.421997
v -301.379150 19.509048 -594.434204
v -300.341675 19.509050 -593.400269
v -300.317108 19.509048 -594.408325
v -192.321655 -5.369297 -782.347473
v -191.909943 -5.369297 -781.426941
v -191.864594 -5.233379 -782.551880
v -191.452881 -5.233379 -781.631409
v -190.940155 -5.369297 -781.860718
v -191.452881 -7.772907 -781.631409
v -191.909943 -7.772907 -781.426941
v -191.864594 -7.772907 -782.551880
v -192.321655 -7.772907 -782.347473
v -190.940155 -7.772907 -781.860718
v -191.351883 -5.369297 -782.781250
v -191.351883 -7.772907 -782.781250
v -191.241058 -5.431570 -782.828857
v -190.829315 -5.431570 -781.908386
v -190.783936 -5.297533 -783.033325
v -190.372192 -5.297533 -782.112854
v -189.859497 -5.431570 -782.342163
v -190.372192 -7.801918 -782.112854
v -190.829315 -7.801918 -781.908386
v -190.783936 -7.801918 -783.033325
v -191.241058 -7.801918 -782.828857
v -189.859497 -7.801918 -782.342163
v -190.271240 -5.431570 -783.262695
v -190.271240 -7.801918 -783.262695
v -193.048523 1.975010 -830.517700
v -192.636810 1.975010 -829.597229
v -192.591461 2.110928 -830.722168
v -192.179749 2.110928 -829.801697
v -192.078705 1.975010 -830.951538
v -192.179749 -0.428598 -829.801697
v -192.636810 -0.428598 -829.597229
v -192.591461 -0.428598 -830.722168
v -193.048523 -0.428598 -830.517700
v -192.078705 -0.428598 -830.951538
v -191.667053 1.975010 -830.031006
v -191.667053 -0.428598 -830.031006
v -191.967911 1.912737 -830.999146
v -191.556183 1.912737 -830.078735
v -191.510803 2.046776 -831.203613
v -191.099045 2.046776 -830.283142
v -190.586365 1.912737 -830.512451
v -191.099045 -0.457611 -830.283142
v -191.556183 -0.457611 -830.078735
v -191.510803 -0.457611 -831.203613
v -191.967911 -0.457611 -830.999146
v -190.586365 -0.457611 -830.512451
v -190.998093 1.912737 -831.432983
v -190.998093 -0.457611 -831.432983
v 11.150062 13.892655 -337.266693
v 12.083862 13.892655 -337.647247
v 10.961072 14.028573 -337.730408
v 11.894897 14.028573 -338.110962
v 10.749098 13.892655 -338.250549
v 11.682931 13.892655 -338.631073
v 11.894897 11.489049 -338.110962
v 12.083862 11.489049 -337.647247
v 10.961072 11.489049 -337.730408
v 11.150062 11.489049 -337.266693
v 11.682931 11.489049 -338.631073
v 10.749098 11.489049 -338.250549
v 10.675352 13.830384 -338.547607
v 11.609143 13.830384 -338.928192
v 10.486365 13.964421 -339.011322
v 11.420168 13.964421 -339.391907
v 10.274391 13.830384 -339.531464
v 11.208203 13.830384 -339.912018
v 11.420168 11.460036 -339.391907
v 11.609143 11.460036 -338.928192
v 10.486365 11.460036 -339.011322
v 10.675352 11.460036 -338.547607
v 11.208203 11.460036 -339.912018
v 10.274391 11.460036 -339.531464
vn -0.0015 0.9651 0.2620
vn -0.0015 0.9651 0.2619
vn -0.0001 0.9999 0.0138
vn 0.0013 0.9719 -0.2352
vn -0.0000 -1.0000 -0.0000
vn 1.0000 -0.0000 0.0056
vn 1.0000 -0.0000 0.0057
vn -1.0000 -0.0000 -0.0056
vn -1.0000 -0.0000 -0.0057
vn -0.0056 -0.0000 1.0000
vn 0.0056 -0.0000 -1.0000
vn 0.0057 -0.0000 -1.0000
vn 1.0000 -0.0000 0.0058
vn 0.2620 0.9651 -0.0003
vn 0.0138 0.9999 -0.0000
vn -0.2352 0.9719 0.0002
vn -0.0010 -0.0000 -1.0000
vn 0.0010 -0.0000 1.0000
vn 1.0000 -0.0000 -0.0010
vn -1.0000 -0.0000 0.0010
vn -0.0015 0.9660 0.2586
vn -0.0001 0.9999 0.0136
vn 0.0013 0.9727 -0.2321
vn -0.0005 0.9660 -0.2586
vn -0.0000 0.9999 -0.0136
vn 0.0005 0.9727 0.2321
vn -1.0000 -0.0000 0.0020
vn 1.0000 -0.0000 -0.0020
vn -0.0020 -0.0000 -1.0000
vn 0.0020 -0.0000 1.0000
vn 0.0015 0.9651 -0.2620
vn 0.0001 0.9999 -0.0138
vn -0.0013 0.9719 0.2352
vn -1.0000 -0.0000 -0.0058
vn -0.0026 0.9651 0.2620
vn 0.0023 0.9719 -0.2352
vn 1.0000 -0.0000 0.0099
vn -1.0000 -0.0000 -0.0099
vn -0.0099 -0.0000 1.0000
vn 0.0099 -0.0000 -1.0000
vn -0.0026 0.9660 0.2586
vn 0.0023 0.9727 -0.2321
vn -0.0026 0.9651 0.2619
vn 0.1820 0.9651 0.1884
vn 0.0096 0.9999 0.0099
vn -0.1634 0.9719 -0.1692
vn 0.7193 -0.0000 -0.6947
vn 0.7192 -0.0000 -0.6948
vn -0.7193 -0.0000 0.6947
vn -0.7192 -0.0000 0.6948
vn 0.6947 -0.0000 0.7193
vn -0.6947 -0.0000 -0.7193
vn 0.0030 0.9651 0.2619
vn 0.0002 0.9999 0.0138
vn -0.0027 0.9719 -0.2352
vn 0.9999 -0.0000 -0.0116
vn 0.9999 -0.0000 -0.0115
vn -0.9999 -0.0000 0.0115
vn -0.9999 -0.0000 0.0116
vn 0.0116 -0.0000 0.9999
vn 0.0115 -0.0000 0.9999
vn -0.0115 -0.0000 -0.9999
vn 0.0030 0.9660 0.2586
vn 0.0002 0.9999 0.0136
vn -0.0027 0.9727 -0.2321
vn -0.0025 0.9651 -0.2620
vn -0.0025 0.9651 -0.2619
vn -0.0001 0.9999 -0.0138
vn 0.0022 0.9719 0.2352
vn -1.0000 -0.0000 0.0095
vn -1.0000 -0.0000 0.0094
vn 1.0000 -0.0000 -0.0095
vn 1.0000 -0.0000 -0.0094
vn -0.0095 -0.0000 -1.0000
vn 0.0094 -0.0000 1.0000
vn 0.0095 -0.0000 1.0000
vn -0.1381 0.9651 -0.2226
vn -0.0073 0.9999 -0.0117
vn 0.1240 0.9719 0.1998
vn -0.8496 -0.0000 0.5274
vn 0.8496 -0.0000 -0.5274
vn 0.8497 -0.0000 -0.5273
vn -0.5274 -0.0000 -0.8496
vn 0.5274 -0.0000 0.8496
vn -0.1364 0.9660 -0.2197
vn -0.0072 0.9999 -0.0116
vn 0.1224 0.9727 0.1972
vn -0.8497 -0.0000 0.5273
vn -0.5275 -0.0000 -0.8496
vn 0.1358 0.9660 0.2200
vn 0.0072 0.9999 0.0116
vn -0.1219 0.9727 -0.1975
vn 0.8509 -0.0000 -0.5253
vn 0.8510 -0.0000 -0.5252
vn -0.8510 -0.0000 0.5252
vn -0.8509 -0.0000 0.5253
vn -0.8510 -0.0000 0.5251
vn 0.5253 -0.0000 0.8509
vn -0.5253 -0.0000 -0.8509
vn -0.1382 0.9651 -0.2226
vn -0.5273 -0.0000 -0.8497
vn 0.5273 -0.0000 0.8497
vn -0.2197 0.9660 0.1364
vn -0.0116 0.9999 0.0072
vn -0.0115 0.9999 0.0072
vn 0.1972 0.9727 -0.1224
vn 0.2200 0.9660 -0.1358
vn 0.0116 0.9999 -0.0072
vn -0.1975 0.9727 0.1219
vn -0.5252 -0.0000 -0.8510
vn -0.5254 -0.0000 -0.8509
vn 0.5252 -0.0000 0.8510
vn 0.5252 -0.0000 0.8509
vn -0.8509 -0.0000 0.5252
vn 0.2613 0.9651 0.0179
vn 0.0138 0.9999 0.0009
vn -0.2347 0.9719 -0.0161
vn -0.2346 0.9720 -0.0161
vn 0.0685 -0.0000 -0.9977
vn 0.0684 -0.0000 -0.9977
vn 0.0685 -0.0000 -0.9976
vn -0.0685 -0.0000 0.9977
vn -0.0685 -0.0000 0.9976
vn -0.0684 -0.0000 0.9977
vn 0.9977 -0.0000 0.0685
vn -0.9976 -0.0000 -0.0685
vn -0.9977 -0.0000 -0.0685
vn 0.2580 0.9660 0.0177
vn 0.0136 0.9999 0.0009
vn -0.2316 0.9727 -0.0159
vn 0.0687 -0.0000 -0.9976
vn -0.0686 -0.0000 0.9976
vn -0.0687 -0.0000 0.9976
vn 0.2614 0.9651 0.0179
vn 0.0686 -0.0000 -0.9976
vn 0.2579 0.9660 0.0177
vn -0.0688 -0.0000 0.9976
vn 0.2506 0.9651 -0.0765
vn 0.0132 0.9999 -0.0040
vn -0.2249 0.9720 0.0687
vn -0.2250 0.9719 0.0687
vn -0.2921 -0.0000 -0.9564
vn -0.2920 -0.0000 -0.9564
vn 0.2921 -0.0000 0.9564
vn 0.9564 -0.0000 -0.2921
vn -0.9564 -0.0000 0.2921
vn 0.2473 0.9660 -0.0755
vn 0.0131 0.9999 -0.0040
vn -0.2220 0.9727 0.0678
vn 0.2920 -0.0000 0.9564
vn 0.2505 0.9651 -0.0765
vn 0.0133 0.9999 -0.0041
vn -0.9564 -0.0000 0.2920
vn 0.0130 0.9999 -0.0040
vn 0.0626 0.9651 0.2544
vn 0.0627 0.9651 0.2543
vn 0.0033 0.9999 0.0134
vn -0.0563 0.9719 -0.2284
vn -0.0563 0.9720 -0.2284
vn 0.9710 -0.0000 -0.2392
vn 0.9710 -0.0000 -0.2391
vn -0.9710 -0.0000 0.2391
vn -0.9710 -0.0000 0.2392
vn 0.2391 -0.0000 0.9710
vn -0.2393 -0.0000 -0.9710
vn -0.2393 -0.0000 -0.9709
vn -0.2392 -0.0000 -0.9710
vn -0.2391 -0.0000 -0.9710
vn 0.0671 0.9651 0.2533
vn 0.0671 0.9651 0.2532
vn 0.0035 0.9999 0.0134
vn 0.0035 0.9999 0.0133
vn -0.0602 0.9719 -0.2274
vn 0.9667 -0.0000 -0.2560
vn 0.9667 -0.0000 -0.2559
vn -0.9667 -0.0000 0.2560
vn 0.2559 -0.0000 0.9667
vn 0.2560 -0.0000 0.9667
vn 0.2561 -0.0000 0.9667
vn -0.2560 -0.0000 -0.9667
vn 0.1606 0.9651 0.2070
vn 0.0085 0.9999 0.0109
vn -0.1442 0.9719 -0.1858
vn 0.7901 -0.0000 -0.6130
vn 0.7901 -0.0000 -0.6129
vn 0.7902 -0.0000 -0.6129
vn 0.7900 -0.0000 -0.6131
vn -0.7901 -0.0000 0.6130
vn -0.7902 -0.0000 0.6129
vn -0.7900 -0.0000 0.6131
vn 0.6129 -0.0000 0.7902
vn -0.6129 -0.0000 -0.7901
vn -0.6129 -0.0000 -0.7902
vn -0.6130 -0.0000 -0.7901
vn 0.1641 0.9651 0.2041
vn 0.0086 0.9999 0.0107
vn 0.0087 0.9999 0.0108
vn -0.1474 0.9719 -0.1833
vn -0.1474 0.9720 -0.1833
vn 0.7794 -0.0000 -0.6266
vn 0.7793 -0.0000 -0.6266
vn 0.7794 -0.0000 -0.6265
vn -0.7794 -0.0000 0.6266
vn -0.7793 -0.0000 0.6266
vn -0.7792 -0.0000 0.6268
vn 0.6266 -0.0000 0.7794
vn -0.6266 -0.0000 -0.7793
vn -0.6266 -0.0000 -0.7794
vn -0.6267 -0.0000 -0.7793
vn -0.1450 0.9651 0.2182
vn -0.0076 0.9999 0.0115
vn -0.0077 0.9999 0.0115
vn 0.1302 0.9720 -0.1959
vn 0.1301 0.9720 -0.1959
vn 0.8329 -0.0000 0.5534
vn 0.8328 -0.0000 0.5535
vn 0.8330 -0.0000 0.5533
vn -0.8329 -0.0000 -0.5535
vn -0.8329 -0.0000 -0.5534
vn -0.8330 -0.0000 -0.5533
vn -0.8328 -0.0000 -0.5535
vn -0.5535 -0.0000 0.8329
vn -0.5534 -0.0000 0.8329
vn -0.5533 -0.0000 0.8330
vn 0.5534 -0.0000 -0.8329
vn -0.1411 0.9651 0.2207
vn -0.0074 0.9999 0.0116
vn 0.1267 0.9719 -0.1981
vn 0.8423 -0.0000 0.5390
vn 0.8424 -0.0000 0.5389
vn 0.8424 -0.0000 0.5388
vn 0.8422 -0.0000 0.5391
vn -0.8424 -0.0000 -0.5389
vn -0.8424 -0.0000 -0.5388
vn -0.8423 -0.0000 -0.5390
vn -0.5389 -0.0000 0.8424
vn -0.5388 -0.0000 0.8424
vn 0.5388 -0.0000 -0.8424
vn 0.5389 -0.0000 -0.8424
vn 0.5389 -0.0000 -0.8423
vn 0.1297 0.9651 0.2276
vn 0.0068 0.9999 0.0120
vn 0.0069 0.9999 0.0120
vn -0.1165 0.9719 -0.2043
vn -0.1164 0.9720 -0.2043
vn 0.8687 -0.0000 -0.4953
vn 0.8688 -0.0000 -0.4952
vn -0.8688 -0.0000 0.4952
vn -0.8687 -0.0000 0.4953
vn -0.8688 -0.0000 0.4951
vn 0.4953 -0.0000 0.8687
vn -0.4952 -0.0000 -0.8688
vn -0.4953 -0.0000 -0.8687
vn 0.1336 0.9651 0.2253
vn 0.1337 0.9651 0.2253
vn 0.0070 0.9999 0.0119
vn 0.0071 0.9999 0.0119
vn -0.1200 0.9719 -0.2023
vn 0.8600 -0.0000 -0.5103
vn 0.8599 -0.0000 -0.5104
vn 0.8601 -0.0000 -0.5101
vn 0.8600 -0.0000 -0.5102
vn -0.8600 -0.0000 0.5103
vn 0.5103 -0.0000 0.8600
vn 0.5102 -0.0000 0.8600
vn -0.5103 -0.0000 -0.8600
vn -0.1842 0.9651 0.1862
vn -0.0097 0.9999 0.0098
vn 0.1654 0.9719 -0.1672
vn 0.7111 -0.0000 0.7031
vn 0.7110 -0.0000 0.7032
vn -0.7111 -0.0000 -0.7031
vn -0.7110 -0.0000 -0.7032
vn -0.7032 -0.0000 0.7110
vn 0.7032 -0.0000 -0.7110
vn -0.1818 0.9660 0.1838
vn -0.1818 0.9660 0.1839
vn -0.0096 0.9999 0.0097
vn 0.1632 0.9727 -0.1650
vn 0.7110 -0.0000 0.7031
vn 0.7031 -0.0000 -0.7110
vn -0.1842 0.9651 0.1863
vn -0.2605 0.9651 -0.0275
vn -0.0137 0.9999 -0.0015
vn -0.0137 0.9999 -0.0014
vn 0.2339 0.9719 0.0247
vn -0.1051 -0.0000 0.9945
vn -0.1052 -0.0000 0.9945
vn 0.1051 -0.0000 -0.9945
vn -0.9945 -0.0000 -0.1051
vn 0.9945 -0.0000 0.1051
vn 0.2781 0.9605 -0.0003
vn 0.2781 0.9606 -0.0003
vn 0.0307 0.9995 -0.0000
vn -0.2186 0.9758 0.0002
vn -0.0181 -0.9998 -0.0000
vn -0.0180 -0.9998 -0.0000
vn -0.2596 0.9651 0.0349
vn -0.0137 0.9999 0.0018
vn 0.2331 0.9719 -0.0313
vn 0.1331 -0.0000 0.9911
vn 0.1330 -0.0000 0.9911
vn -0.1330 -0.0000 -0.9911
vn -0.1331 -0.0000 -0.9911
vn -0.9911 -0.0000 0.1331
vn 0.9911 -0.0000 -0.1330
vn -0.2563 0.9660 0.0344
vn -0.0135 0.9999 0.0018
vn 0.2301 0.9727 -0.0309
vn -0.2058 0.9651 -0.1621
vn -0.0108 0.9999 -0.0085
vn -0.0108 0.9999 -0.0086
vn 0.1847 0.9719 0.1456
vn -0.6189 -0.0000 0.7854
vn -0.6190 -0.0000 0.7854
vn -0.6189 -0.0000 0.7855
vn 0.6189 -0.0000 -0.7855
vn 0.6190 -0.0000 -0.7854
vn 0.6188 -0.0000 -0.7856
vn 0.6188 -0.0000 -0.7855
vn -0.7855 -0.0000 -0.6189
vn -0.7854 -0.0000 -0.6189
vn -0.7854 -0.0000 -0.6190
vn 0.7854 -0.0000 0.6190
vn -0.2616 0.9651 -0.0140
vn -0.0138 0.9999 -0.0007
vn 0.2349 0.9719 0.0126
vn -0.0534 -0.0000 0.9986
vn -0.0536 -0.0000 0.9986
vn -0.0538 -0.0000 0.9986
vn -0.0535 -0.0000 0.9986
vn 0.0535 -0.0000 -0.9986
vn 0.0536 -0.0000 -0.9986
vn 0.0534 -0.0000 -0.9986
vn -0.9986 -0.0000 -0.0535
vn 0.9986 -0.0000 0.0535
vn -0.2582 0.9660 -0.0138
vn -0.0136 0.9999 -0.0007
vn 0.2318 0.9727 0.0124
vn -0.0537 -0.0000 0.9986
vn 0.0533 -0.0000 -0.9986
vn -0.9986 -0.0000 -0.0534
vn 0.9986 -0.0000 0.0534
vn -0.2620 0.9651 -0.0064
vn -0.2619 0.9651 -0.0064
vn -0.0138 0.9999 -0.0003
vn 0.2351 0.9719 0.0057
vn 0.2352 0.9719 0.0057
vn -0.0244 -0.0000 0.9997
vn -0.0243 -0.0000 0.9997
vn 0.0244 -0.0000 -0.9997
vn 0.0243 -0.0000 -0.9997
vn 0.0245 -0.0000 -0.9997
vn -0.9997 -0.0000 -0.0244
vn 0.9997 -0.0000 0.0244
vn -0.2392 0.9651 0.1070
vn -0.0126 0.9999 0.0056
vn 0.2147 0.9719 -0.0960
vn 0.2147 0.9720 -0.0960
vn 0.4082 -0.0000 0.9129
vn 0.4084 -0.0000 0.9128
vn 0.4083 -0.0000 0.9128
vn -0.4083 -0.0000 -0.9129
vn -0.4083 -0.0000 -0.9128
vn -0.4084 -0.0000 -0.9128
vn -0.4082 -0.0000 -0.9129
vn -0.9128 -0.0000 0.4083
vn -0.9129 -0.0000 0.4083
vn 0.9129 -0.0000 -0.4083
vn 0.9128 -0.0000 -0.4083
vn -0.2360 0.9660 0.1056
vn -0.0124 0.9999 0.0056
vn 0.2119 0.9727 -0.0948
vn 0.4083 -0.0000 0.9129
vn -0.9128 -0.0000 0.4084
vn -0.2391 0.9651 0.1070
vn -0.4078 -0.0000 -0.9131
vn -0.4085 -0.0000 -0.9128
vn 0.9129 -0.0000 -0.4082
vn -0.0125 0.9999 0.0056
vn 0.4081 -0.0000 0.9129
vn -0.4081 -0.0000 -0.9129
vn 0.0989 0.9651 0.2426
vn 0.0052 0.9999 0.0128
vn -0.0888 0.9719 -0.2178
vn 0.9260 -0.0000 -0.3774
vn 0.9261 -0.0000 -0.3774
vn -0.9260 -0.0000 0.3774
vn -0.9261 -0.0000 0.3774
vn 0.3774 -0.0000 0.9260
vn 0.3774 -0.0000 0.9261
vn -0.3774 -0.0000 -0.9261
vn -0.3773 -0.0000 -0.9261
vn 0.0976 0.9660 0.2394
vn 0.0051 0.9999 0.0126
vn -0.0876 0.9727 -0.2150
vn 0.3775 -0.0000 0.9260
vn -0.3774 -0.0000 -0.9260
vt 0.000500 1.895301
vt 0.471353 1.993890
vt 0.471352 1.993890
vt 0.999501 1.895301
vt 0.999500 1.895301
vt 0.132994 1.516484
vt 0.407719 1.516484
vt 0.132994 1.998144
vt 0.407719 1.998144
vt -0.141731 1.516484
vt -0.141732 1.998144
vt 0.734963 1.947177
vt 0.485729 1.896510
vt 0.734963 1.000500
vt 0.485729 1.000499
vt 1.014525 1.896510
vt 1.014525 1.000499
vt 0.248778 1.946558
vt 0.001980 1.896046
vt 0.248778 1.002776
vt 0.001980 1.002776
vt 0.468803 1.896046
vt 0.468803 1.002776
vt 0.489582 1.902794
vt 0.006274 1.902794
vt 0.489582 1.000772
vt 0.006274 1.000772
s 1
usemtl OUTHOUSE.005
f 1/1/1 2/1/2 3/2/3
f 4/3/3 3/2/3 2/1/2
f 3/2/3 4/3/3 10/4/4
f 11/5/4 10/4/4 4/3/3
f 5/6/5 6/7/5 7/8/5
f 8/9/5 7/8/5 6/7/5
f 12/10/5 5/6/5 9/11/5
f 7/8/5 9/11/5 5/6/5
f 4/12/6 2/13/6 5/14/6
f 6/15/6 5/14/6 2/13/6
f 11/16/7 4/12/6 12/17/7
f 5/14/6 12/17/7 4/12/6
f 3/18/8 10/19/9 7/20/8
f 9/21/8 7/20/8 10/19/9
f 1/22/8 3/18/8 8/23/8
f 7/20/8 8/23/8 3/18/8
f 2/24/10 1/25/10 6/26/10
f 8/27/10 6/26/10 1/25/10
f 10/25/11 11/24/11 12/26/11
f 12/26/11 9/27/12 10/25/11
f 13/1/2 14/1/1 15/2/3
f 16/3/3 15/2/3 14/1/1
f 15/2/3 16/3/3 17/4/4
f 24/5/4 17/4/4 16/3/3
f 18/6/5 19/7/5 20/8/5
f 21/9/5 20/8/5 19/7/5
f 22/10/5 18/6/5 23/11/5
f 20/8/5 23/11/5 18/6/5
f 16/12/7 14/13/6 18/14/6
f 19/15/6 18/14/6 14/13/6
f 24/16/13 16/12/7 22/17/7
f 18/14/6 22/17/7 16/12/7
f 15/18/8 17/19/8 20/20/8
f 23/21/8 20/20/8 17/19/8
f 13/22/8 15/18/8 21/23/8
f 20/20/8 21/23/8 15/18/8
f 14/24/10 13/25/10 19/26/10
f 21/27/10 19/26/10 13/25/10
f 17/25/11 24/24/12 22/26/11
f 22/26/11 23/27/11 17/25/11
f 25/1/14 26/1/14 27/2/15
f 28/3/15 27/2/15 26/1/14
f 27/2/15 28/3/15 29/4/16
f 30/5/16 29/4/16 28/3/15
f 31/6/5 32/7/5 33/8/5
f 34/9/5 33/8/5 32/7/5
f 35/10/5 31/6/5 36/11/5
f 33/8/5 36/11/5 31/6/5
f 28/12/17 26/13/17 31/14/17
f 32/15/17 31/14/17 26/13/17
f 30/16/17 28/12/17 35/17/17
f 31/14/17 35/17/17 28/12/17
f 27/18/18 29/19/18 33/20/18
f 36/21/18 33/20/18 29/19/18
f 25/22/18 27/18/18 34/23/18
f 33/20/18 34/23/18 27/18/18
f 26/24/19 25/25/19 32/26/19
f 34/27/19 32/26/19 25/25/19
f 29/25/20 30/24/20 35/26/20
f 35/26/20 36/27/20 29/25/20
f 37/1/2 38/1/1 39/2/3
f 40/3/3 39/2/3 38/1/1
f 39/2/3 40/3/3 45/4/4
f 46/5/4 45/4/4 40/3/3
f 41/6/5 42/7/5 43/8/5
f 44/9/5 43/8/5 42/7/5
f 47/10/5 41/6/5 48/11/5
f 43/8/5 48/11/5 41/6/5
f 40/12/6 38/13/6 41/14/6
f 42/15/6 41/14/6 38/13/6
f 46/16/6 40/12/6 47/17/6
f 41/14/6 47/17/6 40/12/6
f 39/18/8 45/19/8 43/20/8
f 48/21/8 43/20/8 45/19/8
f 37/22/8 39/18/8 44/23/8
f 43/20/8 44/23/8 39/18/8
f 38/24/10 37/25/10 42/26/10
f 44/27/10 42/26/10 37/25/10
f 45/25/11 46/24/11 47/26/11
f 47/26/11 48/27/11 45/25/11
f 49/1/21 50/1/21 51/2/22
f 52/3/22 51/2/22 50/1/21
f 51/2/22 52/3/22 57/4/23
f 58/5/23 57/4/23 52/3/22
f 53/6/5 54/7/5 55/8/5
f 56/9/5 55/8/5 54/7/5
f 59/10/5 53/6/5 60/11/5
f 55/8/5 60/11/5 53/6/5
f 52/12/6 50/13/6 53/14/6
f 54/15/6 53/14/6 50/13/6
f 58/16/6 52/12/6 59/17/6
f 53/14/6 59/17/6 52/12/6
f 51/18/8 57/19/8 55/20/8
f 60/21/8 55/20/8 57/19/8
f 49/22/8 51/18/8 56/23/8
f 55/20/8 56/23/8 51/18/8
f 50/24/10 49/25/10 54/26/10
f 56/27/10 54/26/10 49/25/10
f 57/25/11 58/24/11 59/26/11
f 59/26/11 60/27/11 57/25/11
f 61/1/1 62/1/1 63/2/3
f 64/3/3 63/2/3 62/1/1
f 63/2/3 64/3/3 69/4/4
f 70/5/4 69/4/4 64/3/3
f 65/6/5 66/7/5 67/8/5
f 68/9/5 67/8/5 66/7/5
f 71/10/5 65/6/5 72/11/5
f 67/8/5 72/11/5 65/6/5
f 64/12/6 62/13/6 65/14/6
f 66/15/6 65/14/6 62/13/6
f 70/16/6 64/12/6 71/17/6
f 65/14/6 71/17/6 64/12/6
f 63/18/8 69/19/8 67/20/8
f 72/21/8 67/20/8 69/19/8
f 61/22/8 63/18/8 68/23/8
f 67/20/8 68/23/8 63/18/8
f 62/24/10 61/25/10 66/26/10
f 68/27/10 66/26/10 61/25/10
f 69/25/11 70/24/11 71/26/11
f 71/26/11 72/27/11 69/25/11
f 73/1/24 74/1/24 75/2/25
f 76/3/25 75/2/25 74/1/24
f 75/2/25 76/3/25 77/4/26
f 78/5/26 77/4/26 76/3/25
f 79/6/5 80/7/5 81/8/5
f 82/9/5 81/8/5 80/7/5
f 83/10/5 79/6/5 84/11/5
f 81/8/5 84/11/5 79/6/5
f 76/12/27 74/13/27 79/14/27
f 80/15/27 79/14/27 74/13/27
f 78/16/27 76/12/27 83/17/27
f 79/14/27 83/17/27 76/12/27
f 75/18/28 77/19/28 81/20/28
f 84/21/28 81/20/28 77/19/28
f 73/22/28 75/18/28 82/23/28
f 81/20/28 82/23/28 75/18/28
f 74/24/29 73/25/29 80/26/29
f 82/27/29 80/26/29 73/25/29
f 77/25/30 78/24/30 83/26/30
f 83/26/30 84/27/30 77/25/30
f 85/1/1 86/1/1 87/2/3
f 88/3/3 87/2/3 86/1/1
f 87/2/3 88/3/3 93/4/4
f 94/5/4 93/4/4 88/3/3
f 89/6/5 90/7/5 91/8/5
f 92/9/5 91/8/5 90/7/5
f 95/10/5 89/6/5 96/11/5
f 91/8/5 96/11/5 89/6/5
f 88/12/6 86/13/6 89/14/6
f 90/15/6 89/14/6 86/13/6
f 94/16/7 88/12/6 95/17/7
f 89/14/6 95/17/7 88/12/6
f 87/18/8 93/19/9 91/20/8
f 96/21/9 91/20/8 93/19/9
f 85/22/8 87/18/8 92/23/8
f 91/20/8 92/23/8 87/18/8
f 86/24/10 85/25/10 90/26/10
f 92/27/10 90/26/10 85/25/10
f 93/25/11 94/24/11 95/26/11
f 95/26/11 96/27/11 93/25/11
f 97/1/1 98/1/1 99/2/3
f 100/3/3 99/2/3 98/1/1
f 99/2/3 100/3/3 101/4/4
f 102/5/4 101/4/4 100/3/3
f 103/6/5 104/7/5 105/8/5
f 106/9/5 105/8/5 104/7/5
f 107/10/5 103/6/5 108/11/5
f 105/8/5 108/11/5 103/6/5
f 100/12/6 98/13/6 103/14/6
f 104/15/6 103/14/6 98/13/6
f 102/16/6 100/12/6 107/17/6
f 103/14/6 107/17/6 100/12/6
f 99/18/8 101/19/8 105/20/8
f 108/21/8 105/20/8 101/19/8
f 97/22/8 99/18/8 106/23/8
f 105/20/8 106/23/8 99/18/8
f 98/24/10 97/25/10 104/26/10
f 106/27/10 104/26/10 97/25/10
f 101/25/11 102/24/11 107/26/11
f 107/26/11 108/27/11 101/25/11
f 109/1/1 110/1/1 111/2/3
f 112/3/3 111/2/3 110/1/1
f 111/2/3 112/3/3 113/4/4
f 119/5/4 113/4/4 112/3/3
f 114/6/5 115/7/5 116/8/5
f 117/9/5 116/8/5 115/7/5
f 120/10/5 114/6/5 118/11/5
f 116/8/5 118/11/5 114/6/5
f 112/12/6 110/13/6 114/14/6
f 115/15/6 114/14/6 110/13/6
f 119/16/7 112/12/6 120/17/7
f 114/14/6 120/17/7 112/12/6
f 111/18/8 113/19/8 116/20/8
f 118/21/8 116/20/8 113/19/8
f 109/22/8 111/18/8 117/23/8
f 116/20/8 117/23/8 111/18/8
f 110/24/10 109/25/10 115/26/10
f 117/27/10 115/26/10 109/25/10
f 113/25/12 119/24/12 120/26/12
f 120/26/12 118/27/12 113/25/12
f 121/1/1 122/1/1 123/2/3
f 124/3/3 123/2/3 122/1/1
f 123/2/3 124/3/3 125/4/4
f 126/5/4 125/4/4 124/3/3
f 127/6/5 128/7/5 129/8/5
f 130/9/5 129/8/5 128/7/5
f 131/10/5 127/6/5 132/11/5
f 129/8/5 132/11/5 127/6/5
f 124/12/6 122/13/6 127/14/6
f 128/15/6 127/14/6 122/13/6
f 126/16/6 124/12/6 131/17/6
f 127/14/6 131/17/6 124/12/6
f 123/18/8 125/19/8 129/20/8
f 132/21/8 129/20/8 125/19/8
f 121/22/8 123/18/8 130/23/8
f 129/20/8 130/23/8 123/18/8
f 122/24/10 121/25/10 128/26/10
f 130/27/10 128/26/10 121/25/10
f 125/25/11 126/24/11 131/26/11
f 131/26/11 132/27/11 125/25/11
f 133/1/2 134/1/2 135/2/3
f 136/3/3 135/2/3 134/1/2
f 135/2/3 136/3/3 137/4/4
f 138/5/4 137/4/4 136/3/3
f 139/6/5 140/7/5 141/8/5
f 142/9/5 141/8/5 140/7/5
f 143/10/5 139/6/5 144/11/5
f 141/8/5 144/11/5 139/6/5
f 136/12/6 134/13/6 139/14/6
f 140/15/6 139/14/6 134/13/6
f 138/16/6 136/12/6 143/17/6
f 139/14/6 143/17/6 136/12/6
f 135/18/8 137/19/8 141/20/8
f 144/21/8 141/20/8 137/19/8
f 133/22/8 135/18/8 142/23/8
f 141/20/8 142/23/8 135/18/8
f 134/24/10 133/25/10 140/26/10
f 142/27/10 140/26/10 133/25/10
f 137/25/11 138/24/11 143/26/11
f 143/26/11 144/27/11 137/25/11
f 145/1/2 146/1/1 147/2/3
f 148/3/3 147/2/3 146/1/1
f 147/2/3 148/3/3 149/4/4
f 150/5/4 149/4/4 148/3/3
f 151/6/5 152/7/5 153/8/5
f 154/9/5 153/8/5 152/7/5
f 155/10/5 151/6/5 156/11/5
f 153/8/5 156/11/5 151/6/5
f 148/12/6 146/13/6 151/14/6
f 152/15/6 151/14/6 146/13/6
f 150/16/6 148/12/6 155/17/6
f 151/14/6 155/17/6 148/12/6
f 147/18/8 149/19/8 153/20/8
f 156/21/8 153/20/8 149/19/8
f 145/22/8 147/18/8 154/23/8
f 153/20/8 154/23/8 147/18/8
f 146/24/10 145/25/10 152/26/10
f 154/27/10 152/26/10 145/25/10
f 149/25/11 150/24/11 155/26/11
f 155/26/11 156/27/11 149/25/11
f 157/1/2 158/1/1 159/2/3
f 160/3/3 159/2/3 158/1/1
f 159/2/3 160/3/3 165/4/4
f 166/5/4 165/4/4 160/3/3
f 161/6/5 162/7/5 163/8/5
f 164/9/5 163/8/5 162/7/5
f 167/10/5 161/6/5 168/11/5
f 163/8/5 168/11/5 161/6/5
f 160/12/6 158/13/6 161/14/6
f 162/15/6 161/14/6 158/13/6
f 166/16/6 160/12/6 167/17/6
f 161/14/6 167/17/6 160/12/6
f 159/18/8 165/19/9 163/20/8
f 168/21/9 163/20/8 165/19/9
f 157/22/8 159/18/8 164/23/8
f 163/20/8 164/23/8 159/18/8
f 158/24/10 157/25/10 162/26/10
f 164/27/10 162/26/10 157/25/10
f 165/25/11 166/24/11 167/26/11
f 167/26/11 168/27/11 165/25/11
f 169/1/2 170/1/1 171/2/3
f 172/3/3 171/2/3 170/1/1
f 171/2/3 172/3/3 173/4/4
f 174/5/4 173/4/4 172/3/3
f 175/6/5 176/7/5 177/8/5
f 178/9/5 177/8/5 176/7/5
f 179/10/5 175/6/5 180/11/5
f 177/8/5 180/11/5 175/6/5
f 172/12/6 170/13/6 175/14/6
f 176/15/6 175/14/6 170/13/6
f 174/16/6 172/12/6 179/17/6
f 175/14/6 179/17/6 172/12/6
f 171/18/8 173/19/8 177/20/8
f 180/21/8 177/20/8 173/19/8
f 169/22/8 171/18/8 178/23/8
f 177/20/8 178/23/8 171/18/8
f 170/24/10 169/25/10 176/26/10
f 178/27/10 176/26/10 169/25/10
f 173/25/11 174/24/11 179/26/11
f 179/26/11 180/27/11 173/25/11
f 181/1/31 182/1/31 183/2/32
f 184/3/32 183/2/32 182/1/31
f 183/2/32 184/3/32 189/4/33
f 190/5/33 189/4/33 184/3/32
f 185/6/5 186/7/5 187/8/5
f 188/9/5 187/8/5 186/7/5
f 191/10/5 185/6/5 192/11/5
f 187/8/5 192/11/5 185/6/5
f 184/12/9 182/13/8 185/14/9
f 186/15/8 185/14/9 182/13/8
f 190/16/9 184/12/9 191/17/9
f 185/14/9 191/17/9 184/12/9
f 183/18/7 189/19/7 187/20/7
f 192/21/7 187/20/7 189/19/7
f 181/22/6 183/18/7 188/23/6
f 187/20/7 188/23/6 183/18/7
f 182/24/11 181/25/11 186/26/11
f 188/27/11 186/26/11 181/25/11
f 189/25/10 190/24/10 191/26/10
f 191/26/10 192/27/10 189/25/10
f 193/1/31 194/1/31 195/2/32
f 196/3/32 195/2/32 194/1/31
f 195/2/32 196/3/32 201/4/33
f 202/5/33 201/4/33 196/3/32
f 197/6/5 198/7/5 199/8/5
f 200/9/5 199/8/5 198/7/5
f 203/10/5 197/6/5 204/11/5
f 199/8/5 204/11/5 197/6/5
f 196/12/9 194/13/8 197/14/9
f 198/15/8 197/14/9 194/13/8
f 202/16/9 196/12/9 203/17/9
f 197/14/9 203/17/9 196/12/9
f 195/18/7 201/19/7 199/20/7
f 204/21/7 199/20/7 201/19/7
f 193/22/6 195/18/7 200/23/6
f 199/20/7 200/23/6 195/18/7
f 194/24/11 193/25/11 198/26/11
f 200/27/11 198/26/11 193/25/11
f 201/25/10 202/24/10 203/26/10
f 203/26/10 204/27/10 201/25/10
f 205/1/31 206/1/31 207/2/32
f 208/3/32 207/2/32 206/1/31
f 207/2/32 208/3/32 209/4/33
f 210/5/33 209/4/33 208/3/32
f 211/6/5 212/7/5 213/8/5
f 214/9/5 213/8/5 212/7/5
f 215/10/5 211/6/5 216/11/5
f 213/8/5 216/11/5 211/6/5
f 208/12/8 206/13/8 211/14/8
f 212/15/8 211/14/8 206/13/8
f 210/16/8 208/12/8 215/17/8
f 211/14/8 215/17/8 208/12/8
f 207/18/6 209/19/6 213/20/6
f 216/21/6 213/20/6 209/19/6
f 205/22/6 207/18/6 214/23/6
f 213/20/6 214/23/6 207/18/6
f 206/24/11 205/25/11 212/26/11
f 214/27/11 212/26/11 205/25/11
f 209/25/10 210/24/10 215/26/10
f 215/26/10 216/27/10 209/25/10
f 217/1/31 218/1/31 219/2/32
f 220/3/32 219/2/32 218/1/31
f 219/2/32 220/3/32 225/4/33
f 226/5/33 225/4/33 220/3/32
f 221/6/5 222/7/5 223/8/5
f 224/9/5 223/8/5 222/7/5
f 227/10/5 221/6/5 228/11/5
f 223/8/5 228/11/5 221/6/5
f 220/12/9 218/13/8 221/14/9
f 222/15/8 221/14/9 218/13/8
f 226/16/34 220/12/9 227/17/34
f 221/14/9 227/17/34 220/12/9
f 219/18/7 225/19/7 223/20/7
f 228/21/7 223/20/7 225/19/7
f 217/22/6 219/18/7 224/23/6
f 223/20/7 224/23/6 219/18/7
f 218/24/11 217/25/11 222/26/11
f 224/27/11 222/26/11 217/25/11
f 225/25/10 226/24/10 227/26/10
f 227/26/10 228/27/10 225/25/10
f 229/1/35 230/1/35 231/2/3
f 232/3/3 231/2/3 230/1/35
f 231/2/3 232/3/3 239/4/36
f 240/5/36 239/4/36 232/3/3
f 233/6/5 234/7/5 235/8/5
f 236/9/5 235/8/5 234/7/5
f 237/10/5 233/6/5 238/11/5
f 235/8/5 238/11/5 233/6/5
f 232/12/37 230/13/37 233/14/37
f 234/15/37 233/14/37 230/13/37
f 240/16/37 232/12/37 237/17/37
f 233/14/37 237/17/37 232/12/37
f 231/18/38 239/19/38 235/20/38
f 238/21/38 235/20/38 239/19/38
f 229/22/38 231/18/38 236/23/38
f 235/20/38 236/23/38 231/18/38
f 230/24/39 229/25/39 234/26/39
f 236/27/39 234/26/39 229/25/39
f 239/25/40 240/24/40 237/26/40
f 237/26/40 238/27/40 239/25/40
f 241/1/41 242/1/41 243/2/22
f 244/3/22 243/2/22 242/1/41
f 243/2/22 244/3/22 249/4/42
f 250/5/42 249/4/42 244/3/22
f 245/6/5 246/7/5 247/8/5
f 248/9/5 247/8/5 246/7/5
f 251/10/5 245/6/5 252/11/5
f 247/8/5 252/11/5 245/6/5
f 244/12/37 242/13/37 245/14/37
f 246/15/37 245/14/37 242/13/37
f 250/16/37 244/12/37 251/17/37
f 245/14/37 251/17/37 244/12/37
f 243/18/38 249/19/38 247/20/38
f 252/21/38 247/20/38 249/19/38
f 241/22/38 243/18/38 248/23/38
f 247/20/38 248/23/38 243/18/38
f 242/24/39 241/25/39 246/26/39
f 248/27/39 246/26/39 241/25/39
f 249/25/40 250/24/40 251/26/40
f 251/26/40 252/27/40 249/25/40
f 253/1/43 254/1/43 255/2/3
f 256/3/3 255/2/3 254/1/43
f 255/2/3 256/3/3 262/4/36
f 263/5/36 262/4/36 256/3/3
f 257/6/5 258/7/5 259/8/5
f 260/9/5 259/8/5 258/7/5
f 264/10/5 257/6/5 261/11/5
f 259/8/5 261/11/5 257/6/5
f 256/12/37 254/13/37 257/14/37
f 258/15/37 257/14/37 254/13/37
f 263/16/37 256/12/37 264/17/37
f 257/14/37 264/17/37 256/12/37
f 255/18/38 262/19/38 259/20/38
f 261/21/38 259/20/38 262/19/38
f 253/22/38 255/18/38 260/23/38
f 259/20/38 260/23/38 255/18/38
f 254/24/39 253/25/39 258/26/39
f 260/27/39 258/26/39 253/25/39
f 262/25/40 263/24/40 264/26/40
f 264/26/40 261/27/40 262/25/40
f 265/1/44 266/1/44 267/2/45
f 268/3/45 267/2/45 266/1/44
f 267/2/45 268/3/45 269/4/46
f 270/5/46 269/4/46 268/3/45
f 271/6/5 272/7/5 273/8/5
f 274/9/5 273/8/5 272/7/5
f 275/10/5 271/6/5 276/11/5
f 273/8/5 276/11/5 271/6/5
f 268/12/47 266/13/48 271/14/47
f 272/15/48 271/14/47 266/13/48
f 270/16/47 268/12/47 275/17/47
f 271/14/47 275/17/47 268/12/47
f 267/18/49 269/19/50 273/20/49
f 276/21/50 273/20/49 269/19/50
f 265/22/49 267/18/49 274/23/49
f 273/20/49 274/23/49 267/18/49
f 266/24/51 265/25/51 272/26/51
f 274/27/51 272/26/51 265/25/51
f 269/25/52 270/24/52 275/26/52
f 275/26/52 276/27/52 269/25/52
f 277/1/53 278/1/53 279/2/54
f 280/3/54 279/2/54 278/1/53
f 279/2/54 280/3/54 285/4/55
f 286/5/55 285/4/55 280/3/54
f 281/6/5 282/7/5 283/8/5
f 284/9/5 283/8/5 282/7/5
f 287/10/5 281/6/5 288/11/5
f 283/8/5 288/11/5 281/6/5
f 280/12/56 278/13/56 281/14/57
f 282/15/56 281/14/57 278/13/56
f 286/16/57 280/12/56 287/17/57
f 281/14/57 287/17/57 280/12/56
f 279/18/58 285/19/59 283/20/58
f 288/21/59 283/20/58 285/19/59
f 277/22/58 279/18/58 284/23/58
f 283/20/58 284/23/58 279/18/58
f 278/24/60 277/25/60 282/26/61
f 284/27/61 282/26/61 277/25/60
f 285/25/62 286/24/62 287/26/62
f 287/26/62 288/27/62 285/25/62
f 289/1/63 290/1/63 291/2/64
f 292/3/64 291/2/64 290/1/63
f 291/2/64 292/3/64 297/4/65
f 298/5/65 297/4/65 292/3/64
f 293/6/5 294/7/5 295/8/5
f 296/9/5 295/8/5 294/7/5
f 299/10/5 293/6/5 300/11/5
f 295/8/5 300/11/5 293/6/5
f 292/12/57 290/13/57 293/14/57
f 294/15/57 293/14/57 290/13/57
f 298/16/57 292/12/57 299/17/57
f 293/14/57 299/17/57 292/12/57
f 291/18/58 297/19/59 295/20/58
f 300/21/59 295/20/58 297/19/59
f 289/22/58 291/18/58 296/23/58
f 295/20/58 296/23/58 291/18/58
f 290/24/61 289/25/60 294/26/60
f 296/27/60 294/26/60 289/25/60
f 297/25/62 298/24/62 299/26/62
f 299/26/62 300/27/62 297/25/62
f 301/1/66 302/1/67 303/2/68
f 304/3/68 303/2/68 302/1/67
f 303/2/68 304/3/68 305/4/69
f 306/5/69 305/4/69 304/3/68
f 307/6/5 308/7/5 309/8/5
f 310/9/5 309/8/5 308/7/5
f 311/10/5 307/6/5 312/11/5
f 309/8/5 312/11/5 307/6/5
f 304/12/70 302/13/71 307/14/70
f 308/15/71 307/14/70 302/13/71
f 306/16/70 304/12/70 311/17/70
f 307/14/70 311/17/70 304/12/70
f 303/18/72 305/19/73 309/20/72
f 312/21/73 309/20/72 305/19/73
f 301/22/72 303/18/72 310/23/72
f 309/20/72 310/23/72 303/18/72
f 302/24/74 301/25/74 308/26/74
f 310/27/74 308/26/74 301/25/74
f 305/25/75 306/24/76 311/26/75
f 311/26/75 312/27/75 305/25/75
f 313/1/77 314/1/77 315/2/78
f 316/3/78 315/2/78 314/1/77
f 315/2/78 316/3/78 317/4/79
f 318/5/79 317/4/79 316/3/78
f 319/6/5 320/7/5 321/8/5
f 322/9/5 321/8/5 320/7/5
f 323/10/5 319/6/5 324/11/5
f 321/8/5 324/11/5 319/6/5
f 316/12/80 314/13/80 319/14/80
f 320/15/80 319/14/80 314/13/80
f 318/16/80 316/12/80 323/17/80
f 319/14/80 323/17/80 316/12/80
f 315/18/81 317/19/82 321/20/81
f 324/21/81 321/20/81 317/19/82
f 313/22/81 315/18/81 322/23/81
f 321/20/81 322/23/81 315/18/81
f 314/24/83 313/25/83 320/26/83
f 322/27/83 320/26/83 313/25/83
f 317/25/84 318/24/84 323/26/84
f 323/26/84 324/27/84 317/25/84
f 325/1/85 326/1/85 327/2/86
f 328/3/86 327/2/86 326/1/85
f 327/2/86 328/3/86 329/4/87
f 330/5/87 329/4/87 328/3/86
f 331/6/5 332/7/5 333/8/5
f 334/9/5 333/8/5 332/7/5
f 335/10/5 331/6/5 336/11/5
f 333/8/5 336/11/5 331/6/5
f 328/12/80 326/13/88 331/14/80
f 332/15/88 331/14/80 326/13/88
f 330/16/80 328/12/80 335/17/80
f 331/14/80 335/17/80 328/12/80
f 327/18/81 329/19/81 333/20/81
f 336/21/82 333/20/81 329/19/81
f 325/22/81 327/18/81 334/23/81
f 333/20/81 334/23/81 327/18/81
f 326/24/83 325/25/83 332/26/83
f 334/27/83 332/26/83 325/25/83
f 329/25/84 330/24/84 335/26/84
f 335/26/84 336/27/84 329/25/84
f 337/1/85 338/1/85 339/2/86
f 340/3/86 339/2/86 338/1/85
f 339/2/86 340/3/86 341/4/87
f 342/5/87 341/4/87 340/3/86
f 343/6/5 344/7/5 345/8/5
f 346/9/5 345/8/5 344/7/5
f 347/10/5 343/6/5 348/11/5
f 345/8/5 348/11/5 343/6/5
f 340/12/80 338/13/80 343/14/80
f 344/15/80 343/14/80 338/13/80
f 342/16/88 340/12/80 347/17/80
f 343/14/80 347/17/80 340/12/80
f 339/18/81 341/19/81 345/20/81
f 348/21/82 345/20/81 341/19/81
f 337/22/81 339/18/81 346/23/81
f 345/20/81 346/23/81 339/18/81
f 338/24/83 337/25/83 344/26/83
f 346/27/89 344/26/83 337/25/83
f 341/25/84 342/24/84 347/26/84
f 347/26/84 348/27/84 341/25/84
f 349/1/90 350/1/90 351/2/91
f 352/3/91 351/2/91 350/1/90
f 351/2/91 352/3/91 357/4/92
f 358/5/92 357/4/92 352/3/91
f 353/6/5 354/7/5 355/8/5
f 356/9/5 355/8/5 354/7/5
f 359/10/5 353/6/5 360/11/5
f 355/8/5 360/11/5 353/6/5
f 352/12/93 350/13/93 353/14/93
f 354/15/93 353/14/93 350/13/93
f 358/16/94 352/12/93 359/17/93
f 353/14/93 359/17/93 352/12/93
f 351/18/95 357/19/96 355/20/96
f 360/21/96 355/20/96 357/19/96
f 349/22/97 351/18/95 356/23/95
f 355/20/96 356/23/95 351/18/95
f 350/24/98 349/25/98 354/26/98
f 356/27/98 354/26/98 349/25/98
f 357/25/99 358/24/99 359/26/99
f 359/26/99 360/27/99 357/25/99
f 361/1/100 362/1/100 363/2/78
f 364/3/78 363/2/78 362/1/100
f 363/2/78 364/3/78 365/4/79
f 366/5/79 365/4/79 364/3/78
f 367/6/5 368/7/5 369/8/5
f 370/9/5 369/8/5 368/7/5
f 371/10/5 367/6/5 372/11/5
f 369/8/5 372/11/5 367/6/5
f 364/12/80 362/13/80 367/14/80
f 368/15/80 367/14/80 362/13/80
f 366/16/80 364/12/80 371/17/80
f 367/14/80 371/17/80 364/12/80
f 363/18/81 365/19/81 369/20/81
f 372/21/81 369/20/81 365/19/81
f 361/22/81 363/18/81 370/23/81
f 369/20/81 370/23/81 363/18/81
f 362/24/83 361/25/83 368/26/83
f 370/27/101 368/26/83 361/25/83
f 365/25/84 366/24/84 371/26/84
f 371/26/84 372/27/102 365/25/84
f 373/1/85 374/1/85 375/2/86
f 376/3/86 375/2/86 374/1/85
f 375/2/86 376/3/86 377/4/87
f 378/5/87 377/4/87 376/3/86
f 379/6/5 380/7/5 381/8/5
f 382/9/5 381/8/5 380/7/5
f 383/10/5 379/6/5 384/11/5
f 381/8/5 384/11/5 379/6/5
f 376/12/80 374/13/80 379/14/80
f 380/15/88 379/14/80 374/13/80
f 378/16/80 376/12/80 383/17/80
f 379/14/80 383/17/80 376/12/80
f 375/18/82 377/19/82 381/20/81
f 384/21/81 381/20/81 377/19/82
f 373/22/81 375/18/82 382/23/81
f 381/20/81 382/23/81 375/18/82
f 374/24/83 373/25/83 380/26/83
f 382/27/89 380/26/83 373/25/83
f 377/25/84 378/24/84 383/26/84
f 383/26/84 384/27/84 377/25/84
f 385/1/103 386/1/103 387/2/104
f 388/3/105 387/2/104 386/1/103
f 387/2/104 388/3/105 393/4/106
f 394/5/106 393/4/106 388/3/105
f 389/6/5 390/7/5 391/8/5
f 392/9/5 391/8/5 390/7/5
f 395/10/5 389/6/5 396/11/5
f 391/8/5 396/11/5 389/6/5
f 388/12/84 386/13/84 389/14/84
f 390/15/84 389/14/84 386/13/84
f 394/16/102 388/12/84 395/17/84
f 389/14/84 395/17/84 388/12/84
f 387/18/83 393/19/89 391/20/83
f 396/21/83 391/20/83 393/19/89
f 385/22/83 387/18/83 392/23/83
f 391/20/83 392/23/83 387/18/83
f 386/24/80 385/25/80 390/26/80
f 392/27/80 390/26/80 385/25/80
f 393/25/81 394/24/81 395/26/81
f 395/26/81 396/27/81 393/25/81
f 397/1/107 398/1/107 399/2/108
f 400/3/108 399/2/108 398/1/107
f 399/2/108 400/3/108 401/4/109
f 402/5/109 401/4/109 400/3/108
f 403/6/5 404/7/5 405/8/5
f 406/9/5 405/8/5 404/7/5
f 407/10/5 403/6/5 408/11/5
f 405/8/5 408/11/5 403/6/5
f 400/12/99 398/13/110 403/14/110
f 404/15/110 403/14/110 398/13/110
f 402/16/111 400/12/99 407/17/110
f 403/14/110 407/17/110 400/12/99
f 399/18/98 401/19/98 405/20/112
f 408/21/112 405/20/112 401/19/98
f 397/22/98 399/18/98 406/23/113
f 405/20/112 406/23/113 399/18/98
f 398/24/93 397/25/93 404/26/93
f 406/27/93 404/26/93 397/25/93
f 401/25/96 402/24/96 407/26/114
f 407/26/114 408/27/95 401/25/96
f 409/1/115 410/1/115 411/2/116
f 412/3/116 411/2/116 410/1/115
f 411/2/116 412/3/116 413/4/117
f 414/5/118 413/4/117 412/3/116
f 415/6/5 416/7/5 417/8/5
f 418/9/5 417/8/5 416/7/5
f 419/10/5 415/6/5 420/11/5
f 417/8/5 420/11/5 415/6/5
f 412/12/119 410/13/120 415/14/119
f 416/15/119 415/14/119 410/13/120
f 414/16/121 412/12/119 419/17/119
f 415/14/119 419/17/119 412/12/119
f 411/18/122 413/19/123 417/20/122
f 420/21/123 417/20/122 413/19/123
f 409/22/124 411/18/122 418/23/124
f 417/20/122 418/23/124 411/18/122
f 410/24/125 409/25/125 416/26/125
f 418/27/125 416/26/125 409/25/125
f 413/25/126 414/24/126 419/26/127
f 419/26/127 420/27/127 413/25/126
f 421/1/128 422/1/128 423/2/129
f 424/3/129 423/2/129 422/1/128
f 423/2/129 424/3/129 425/4/130
f 426/5/130 425/4/130 424/3/129
f 427/6/5 428/7/5 429/8/5
f 430/9/5 429/8/5 428/7/5
f 431/10/5 427/6/5 432/11/5
f 429/8/5 432/11/5 427/6/5
f 424/12/121 422/13/120 427/14/119
f 428/15/119 427/14/119 422/13/120
f 426/16/131 424/12/121 431/17/119
f 427/14/119 431/17/119 424/12/121
f 423/18/132 425/19/133 429/20/124
f 432/21/124 429/20/124 425/19/133
f 421/22/124 423/18/132 430/23/124
f 429/20/124 430/23/124 423/18/132
f 422/24/125 421/25/125 428/26/125
f 430/27/125 428/26/125 421/25/125
f 425/25/127 426/24/127 431/26/127
f 431/26/127 432/27/127 425/25/127
f 433/1/115 434/1/134 435/2/116
f 436/3/116 435/2/116 434/1/134
f 435/2/116 436/3/116 437/4/118
f 438/5/117 437/4/118 436/3/116
f 439/6/5 440/7/5 441/8/5
f 442/9/5 441/8/5 440/7/5
f 443/10/5 439/6/5 444/11/5
f 441/8/5 444/11/5 439/6/5
f 436/12/119 434/13/119 439/14/121
f 440/15/135 439/14/121 434/13/119
f 438/16/121 436/12/119 443/17/135
f 439/14/121 443/17/135 436/12/119
f 435/18/122 437/19/122 441/20/122
f 444/21/124 441/20/122 437/19/122
f 433/22/122 435/18/122 442/23/123
f 441/20/122 442/23/123 435/18/122
f 434/24/125 433/25/125 440/26/125
f 442/27/125 440/26/125 433/25/125
f 437/25/127 438/24/127 443/26/127
f 443/26/127 444/27/127 437/25/127
f 445/1/136 446/1/136 447/2/129
f 448/3/129 447/2/129 446/1/136
f 447/2/129 448/3/129 449/4/130
f 450/5/130 449/4/130 448/3/129
f 451/6/5 452/7/5 453/8/5
f 454/9/5 453/8/5 452/7/5
f 455/10/5 451/6/5 456/11/5
f 453/8/5 456/11/5 451/6/5
f 448/12/119 446/13/120 451/14/121
f 452/15/135 451/14/121 446/13/120
f 450/16/135 448/12/119 455/17/119
f 451/14/121 455/17/119 448/12/119
f 447/18/124 449/19/122 453/20/122
f 456/21/122 453/20/122 449/19/122
f 445/22/137 447/18/124 454/23/122
f 453/20/122 454/23/122 447/18/124
f 446/24/125 445/25/125 452/26/125
f 454/27/125 452/26/125 445/25/125
f 449/25/127 450/24/127 455/26/127
f 455/26/127 456/27/127 449/25/127
f 457/1/138 458/1/138 459/2/139
f 460/3/139 459/2/139 458/1/138
f 459/2/139 460/3/139 461/4/140
f 462/5/141 461/4/140 460/3/139
f 463/6/5 464/7/5 465/8/5
f 466/9/5 465/8/5 464/7/5
f 467/10/5 463/6/5 468/11/5
f 465/8/5 468/11/5 463/6/5
f 460/12/142 458/13/143 463/14/142
f 464/15/142 463/14/142 458/13/143
f 462/16/142 460/12/142 467/17/142
f 463/14/142 467/17/142 460/12/142
f 459/18/144 461/19/144 465/20/144
f 468/21/144 465/20/144 461/19/144
f 457/22/144 459/18/144 466/23/144
f 465/20/144 466/23/144 459/18/144
f 458/24/145 457/25/145 464/26/145
f 466/27/145 464/26/145 457/25/145
f 461/25/146 462/24/146 467/26/146
f 467/26/146 468/27/146 461/25/146
f 469/1/147 470/1/147 471/2/148
f 472/3/148 471/2/148 470/1/147
f 471/2/148 472/3/148 473/4/149
f 474/5/149 473/4/149 472/3/148
f 475/6/5 476/7/5 477/8/5
f 478/9/5 477/8/5 476/7/5
f 479/10/5 475/6/5 480/11/5
f 477/8/5 480/11/5 475/6/5
f 472/12/142 470/13/142 475/14/142
f 476/15/143 475/14/142 470/13/142
f 474/16/142 472/12/142 479/17/142
f 475/14/142 479/17/142 472/12/142
f 471/18/144 473/19/144 477/20/144
f 480/21/150 477/20/144 473/19/144
f 469/22/144 471/18/144 478/23/144
f 477/20/144 478/23/144 471/18/144
f 470/24/145 469/25/145 476/26/145
f 478/27/145 476/26/145 469/25/145
f 473/25/146 474/24/146 479/26/146
f 479/26/146 480/27/146 473/25/146
f 481/1/151 482/1/138 483/2/139
f 484/3/152 483/2/139 482/1/138
f 483/2/139 484/3/152 485/4/140
f 486/5/140 485/4/140 484/3/152
f 487/6/5 488/7/5 489/8/5
f 490/9/5 489/8/5 488/7/5
f 491/10/5 487/6/5 492/11/5
f 489/8/5 492/11/5 487/6/5
f 484/12/142 482/13/142 487/14/142
f 488/15/142 487/14/142 482/13/142
f 486/16/142 484/12/142 491/17/142
f 487/14/142 491/17/142 484/12/142
f 483/18/144 485/19/144 489/20/144
f 492/21/144 489/20/144 485/19/144
f 481/22/144 483/18/144 490/23/144
f 489/20/144 490/23/144 483/18/144
f 482/24/145 481/25/145 488/26/145
f 490/27/145 488/26/145 481/25/145
f 485/25/153 486/24/153 491/26/153
f 491/26/153 492/27/146 485/25/153
f 493/1/147 494/1/147 495/2/154
f 496/3/154 495/2/154 494/1/147
f 495/2/154 496/3/154 497/4/149
f 498/5/149 497/4/149 496/3/154
f 499/6/5 500/7/5 501/8/5
f 502/9/5 501/8/5 500/7/5
f 503/10/5 499/6/5 504/11/5
f 501/8/5 504/11/5 499/6/5
f 496/12/142 494/13/142 499/14/142
f 500/15/142 499/14/142 494/13/142
f 498/16/142 496/12/142 503/17/142
f 499/14/142 503/17/142 496/12/142
f 495/18/144 497/19/144 501/20/144
f 504/21/144 501/20/144 497/19/144
f 493/22/144 495/18/144 502/23/144
f 501/20/144 502/23/144 495/18/144
f 494/24/145 493/25/145 500/26/145
f 502/27/145 500/26/145 493/25/145
f 497/25/146 498/24/146 503/26/146
f 503/26/146 504/27/146 497/25/146
f 505/1/155 506/1/156 507/2/157
f 508/3/157 507/2/157 506/1/156
f 507/2/157 508/3/157 515/4/158
f 509/5/159 515/4/158 508/3/157
f 510/6/5 511/7/5 512/8/5
f 513/9/5 512/8/5 511/7/5
f 514/10/5 510/6/5 516/11/5
f 512/8/5 516/11/5 510/6/5
f 508/12/160 506/13/160 510/14/161
f 511/15/161 510/14/161 506/13/160
f 509/16/161 508/12/160 514/17/161
f 510/14/161 514/17/161 508/12/160
f 507/18/162 515/19/163 512/20/162
f 516/21/163 512/20/162 515/19/163
f 505/22/162 507/18/162 513/23/162
f 512/20/162 513/23/162 507/18/162
f 506/24/164 505/25/164 511/26/164
f 513/27/164 511/26/164 505/25/164
f 515/25/165 509/24/166 514/26/167
f 514/26/167 516/27/168 515/25/165
f 517/1/169 518/1/170 519/2/171
f 520/3/172 519/2/171 518/1/170
f 519/2/171 520/3/172 521/4/173
f 522/5/173 521/4/173 520/3/172
f 523/6/5 524/7/5 525/8/5
f 526/9/5 525/8/5 524/7/5
f 527/10/5 523/6/5 528/11/5
f 525/8/5 528/11/5 523/6/5
f 520/12/174 518/13/174 523/14/174
f 524/15/174 523/14/174 518/13/174
f 522/16/175 520/12/174 527/17/175
f 523/14/174 527/17/175 520/12/174
f 519/18/176 521/19/176 525/20/176
f 528/21/176 525/20/176 521/19/176
f 517/22/176 519/18/176 526/23/176
f 525/20/176 526/23/176 519/18/176
f 518/24/177 517/25/177 524/26/178
f 526/27/179 524/26/178 517/25/177
f 521/25/180 522/24/180 527/26/180
f 527/26/180 528/27/180 521/25/180
f 529/1/181 530/1/181 531/2/182
f 532/3/182 531/2/182 530/1/181
f 531/2/182 532/3/182 533/4/183
f 534/5/183 533/4/183 532/3/182
f 535/6/5 536/7/5 537/8/5
f 538/9/5 537/8/5 536/7/5
f 539/10/5 535/6/5 540/11/5
f 537/8/5 540/11/5 535/6/5
f 532/12/184 530/13/185 535/14/185
f 536/15/186 535/14/185 530/13/185
f 534/16/187 532/12/184 539/17/184
f 535/14/185 539/17/184 532/12/184
f 531/18/188 533/19/188 537/20/188
f 540/21/189 537/20/188 533/19/188
f 529/22/190 531/18/188 538/23/190
f 537/20/188 538/23/190 531/18/188
f 530/24/191 529/25/191 536/26/191
f 538/27/191 536/26/191 529/25/191
f 533/25/192 534/24/193 539/26/194
f 539/26/194 540/27/194 533/25/192
f 541/1/195 542/1/195 543/2/196
f 544/3/197 543/2/196 542/1/195
f 543/2/196 544/3/197 545/4/198
f 546/5/199 545/4/198 544/3/197
f 547/6/5 548/7/5 549/8/5
f 550/9/5 549/8/5 548/7/5
f 551/10/5 547/6/5 552/11/5
f 549/8/5 552/11/5 547/6/5
f 544/12/200 542/13/200 547/14/200
f 548/15/201 547/14/200 542/13/200
f 546/16/202 544/12/200 551/17/202
f 547/14/200 551/17/202 544/12/200
f 543/18/203 545/19/203 549/20/204
f 552/21/205 549/20/204 545/19/203
f 541/22/204 543/18/203 550/23/203
f 549/20/204 550/23/203 543/18/203
f 542/24/206 541/25/206 548/26/206
f 550/27/206 548/26/206 541/25/206
f 545/25/207 546/24/208 551/26/209
f 551/26/209 552/27/209 545/25/207
f 553/1/210 554/1/210 555/2/211
f 556/3/212 555/2/211 554/1/210
f 555/2/211 556/3/212 557/4/213
f 558/5/214 557/4/213 556/3/212
f 559/6/5 560/7/5 561/8/5
f 562/9/5 561/8/5 560/7/5
f 563/10/5 559/6/5 564/11/5
f 561/8/5 564/11/5 559/6/5
f 556/12/215 554/13/215 559/14/215
f 560/15/216 559/14/215 554/13/215
f 558/16/215 556/12/215 563/17/217
f 559/14/215 563/17/217 556/12/215
f 555/18/218 557/19/218 561/20/219
f 564/21/220 561/20/219 557/19/218
f 553/22/218 555/18/218 562/23/221
f 561/20/219 562/23/221 555/18/218
f 554/24/222 553/25/223 560/26/223
f 562/27/224 560/26/223 553/25/223
f 557/25/225 558/24/225 563/26/225
f 563/26/225 564/27/225 557/25/225
f 565/1/226 566/1/226 567/2/227
f 568/3/227 567/2/227 566/1/226
f 567/2/227 568/3/227 569/4/228
f 575/5/228 569/4/228 568/3/227
f 570/6/5 571/7/5 572/8/5
f 573/9/5 572/8/5 571/7/5
f 576/10/5 570/6/5 574/11/5
f 572/8/5 574/11/5 570/6/5
f 568/12/229 566/13/230 570/14/230
f 571/15/231 570/14/230 566/13/230
f 575/16/232 568/12/229 576/17/230
f 570/14/230 576/17/230 568/12/229
f 567/18/233 569/19/234 572/20/234
f 574/21/233 572/20/234 569/19/234
f 565/22/235 567/18/233 573/23/233
f 572/20/234 573/23/233 567/18/233
f 566/24/236 565/25/236 571/26/237
f 573/27/237 571/26/237 565/25/236
f 569/25/238 575/24/238 576/26/239
f 576/26/239 574/27/240 569/25/238
f 577/1/241 578/1/241 579/2/242
f 580/3/243 579/2/242 578/1/241
f 579/2/242 580/3/243 587/4/244
f 581/5/245 587/4/244 580/3/243
f 582/6/5 583/7/5 584/8/5
f 585/9/5 584/8/5 583/7/5
f 586/10/5 582/6/5 588/11/5
f 584/8/5 588/11/5 582/6/5
f 580/12/246 578/13/246 582/14/246
f 583/15/247 582/14/246 578/13/246
f 581/16/247 580/12/246 586/17/246
f 582/14/246 586/17/246 580/12/246
f 579/18/248 587/19/248 584/20/248
f 588/21/249 584/20/248 587/19/248
f 577/22/248 579/18/248 585/23/250
f 584/20/248 585/23/250 579/18/248
f 578/24/251 577/25/251 583/26/251
f 585/27/251 583/26/251 577/25/251
f 587/25/252 581/24/252 586/26/253
f 586/26/253 588/27/253 587/25/252
f 589/1/254 590/1/255 591/2/256
f 592/3/257 591/2/256 590/1/255
f 591/2/256 592/3/257 593/4/258
f 594/5/258 593/4/258 592/3/257
f 595/6/5 596/7/5 597/8/5
f 598/9/5 597/8/5 596/7/5
f 599/10/5 595/6/5 600/11/5
f 597/8/5 600/11/5 595/6/5
f 592/12/259 590/13/260 595/14/259
f 596/15/259 595/14/259 590/13/260
f 594/16/261 592/12/259 599/17/262
f 595/14/259 599/17/262 592/12/259
f 591/18/263 593/19/263 597/20/263
f 600/21/263 597/20/263 593/19/263
f 589/22/263 591/18/263 598/23/263
f 597/20/263 598/23/263 591/18/263
f 590/24/264 589/25/264 596/26/265
f 598/27/265 596/26/265 589/25/264
f 593/25/266 594/24/266 599/26/266
f 599/26/266 600/27/266 593/25/266
f 601/1/267 602/1/267 603/2/268
f 604/3/268 603/2/268 602/1/267
f 603/2/268 604/3/268 609/4/269
f 610/5/269 609/4/269 604/3/268
f 605/6/5 606/7/5 607/8/5
f 608/9/5 607/8/5 606/7/5
f 611/10/5 605/6/5 612/11/5
f 607/8/5 612/11/5 605/6/5
f 604/12/270 602/13/270 605/14/271
f 606/15/271 605/14/271 602/13/270
f 610/16/270 604/12/270 611/17/271
f 605/14/271 611/17/271 604/12/270
f 603/18/272 609/19/272 607/20/273
f 612/21/273 607/20/273 609/19/272
f 601/22/272 603/18/272 608/23/273
f 607/20/273 608/23/273 603/18/272
f 602/24/274 601/25/274 606/26/274
f 608/27/274 606/26/274 601/25/274
f 609/25/275 610/24/275 611/26/275
f 611/26/275 612/27/275 609/25/275
f 613/1/276 614/1/277 615/2/278
f 616/3/278 615/2/278 614/1/277
f 615/2/278 616/3/278 623/4/279
f 617/5/279 623/4/279 616/3/278
f 618/6/5 619/7/5 620/8/5
f 621/9/5 620/8/5 619/7/5
f 622/10/5 618/6/5 624/11/5
f 620/8/5 624/11/5 618/6/5
f 616/12/271 614/13/271 618/14/280
f 619/15/270 618/14/280 614/13/271
f 617/16/270 616/12/271 622/17/270
f 618/14/280 622/17/270 616/12/271
f 615/18/273 623/19/273 620/20/273
f 624/21/272 620/20/273 623/19/273
f 613/22/273 615/18/273 621/23/273
f 620/20/273 621/23/273 615/18/273
f 614/24/274 613/25/274 619/26/274
f 621/27/274 619/26/274 613/25/274
f 623/25/281 617/24/281 622/26/281
f 622/26/281 624/27/281 623/25/281
f 625/1/282 626/1/267 627/2/268
f 628/3/268 627/2/268 626/1/267
f 627/2/268 628/3/268 635/4/269
f 629/5/269 635/4/269 628/3/268
f 630/6/5 631/7/5 632/8/5
f 633/9/5 632/8/5 631/7/5
f 634/10/5 630/6/5 636/11/5
f 632/8/5 636/11/5 630/6/5
f 628/12/271 626/13/271 630/14/271
f 631/15/270 630/14/271 626/13/271
f 629/16/271 628/12/271 634/17/271
f 630/14/271 634/17/271 628/12/271
f 627/18/273 635/19/273 632/20/272
f 636/21/272 632/20/272 635/19/273
f 625/22/273 627/18/273 633/23/272
f 632/20/272 633/23/272 627/18/273
f 626/24/274 625/25/274 631/26/274
f 633/27/274 631/26/274 625/25/274
f 635/25/275 629/24/275 634/26/275
f 634/26/275 636/27/275 635/25/275
f 637/1/283 638/1/283 639/2/284
f 640/3/285 639/2/284 638/1/283
f 639/2/284 640/3/285 645/4/286
f 646/5/286 645/4/286 640/3/285
f 641/6/5 642/7/5 643/8/5
f 644/9/5 643/8/5 642/7/5
f 647/10/5 641/6/5 648/11/5
f 643/8/5 648/11/5 641/6/5
f 640/12/287 638/13/287 641/14/287
f 642/15/287 641/14/287 638/13/287
f 646/16/288 640/12/287 647/17/287
f 641/14/287 647/17/287 640/12/287
f 639/18/289 645/19/289 643/20/289
f 648/21/289 643/20/289 645/19/289
f 637/22/289 639/18/289 644/23/289
f 643/20/289 644/23/289 639/18/289
f 638/24/290 637/25/290 642/26/290
f 644/27/290 642/26/290 637/25/290
f 645/25/291 646/24/291 647/26/291
f 647/26/291 648/27/291 645/25/291
f 649/1/292 650/1/293 651/2/294
f 652/3/294 651/2/294 650/1/293
f 651/2/294 652/3/294 653/4/295
f 654/5/295 653/4/295 652/3/294
f 655/6/296 656/7/296 657/8/296
f 658/9/296 657/8/296 656/7/296
f 659/10/297 655/6/296 660/11/297
f 657/8/296 660/11/297 655/6/296
f 652/12/17 650/13/17 655/14/17
f 656/15/17 655/14/17 650/13/17
f 654/16/17 652/12/17 659/17/17
f 655/14/17 659/17/17 652/12/17
f 651/18/18 653/19/18 657/20/18
f 660/21/18 657/20/18 653/19/18
f 649/22/18 651/18/18 658/23/18
f 657/20/18 658/23/18 651/18/18
f 650/24/19 649/25/19 656/26/19
f 658/27/19 656/26/19 649/25/19
f 653/25/20 654/24/20 659/26/20
f 659/26/20 660/27/20 653/25/20
f 661/1/298 662/1/298 663/2/299
f 664/3/299 663/2/299 662/1/298
f 663/2/299 664/3/299 665/4/300
f 671/5/300 665/4/300 664/3/299
f 666/6/5 667/7/5 668/8/5
f 669/9/5 668/8/5 667/7/5
f 672/10/5 666/6/5 670/11/5
f 668/8/5 670/11/5 666/6/5
f 664/12/301 662/13/301 666/14/302
f 667/15/302 666/14/302 662/13/301
f 671/16/302 664/12/301 672/17/302
f 666/14/302 672/17/302 664/12/301
f 663/18/303 665/19/303 668/20/304
f 670/21/303 668/20/304 665/19/303
f 661/22/304 663/18/303 669/23/304
f 668/20/304 669/23/304 663/18/303
f 662/24/305 661/25/305 667/26/305
f 669/27/305 667/26/305 661/25/305
f 665/25/306 671/24/306 672/26/306
f 672/26/306 670/27/306 665/25/306
f 673/1/307 674/1/307 675/2/308
f 676/3/308 675/2/308 674/1/307
f 675/2/308 676/3/308 681/4/309
f 682/5/309 681/4/309 676/3/308
f 677/6/5 678/7/5 679/8/5
f 680/9/5 679/8/5 678/7/5
f 683/10/5 677/6/5 684/11/5
f 679/8/5 684/11/5 677/6/5
f 676/12/301 674/13/302 677/14/302
f 678/15/302 677/14/302 674/13/302
f 682/16/301 676/12/301 683/17/301
f 677/14/302 683/17/301 676/12/301
f 675/18/303 681/19/304 679/20/304
f 684/21/304 679/20/304 681/19/304
f 673/22/303 675/18/303 680/23/303
f 679/20/304 680/23/303 675/18/303
f 674/24/305 673/25/305 678/26/305
f 680/27/305 678/26/305 673/25/305
f 681/25/306 682/24/306 683/26/306
f 683/26/306 684/27/306 681/25/306
f 685/1/310 686/1/310 687/2/311
f 688/3/312 687/2/311 686/1/310
f 687/2/311 688/3/312 689/4/313
f 690/5/313 689/4/313 688/3/312
f 691/6/5 692/7/5 693/8/5
f 694/9/5 693/8/5 692/7/5
f 695/10/5 691/6/5 696/11/5
f 693/8/5 696/11/5 691/6/5
f 688/12/314 686/13/315 691/14/314
f 692/15/316 691/14/314 686/13/315
f 690/16/316 688/12/314 695/17/314
f 691/14/314 695/17/314 688/12/314
f 687/18/317 689/19/318 693/20/317
f 696/21/318 693/20/317 689/19/318
f 685/22/319 687/18/317 694/23/320
f 693/20/317 694/23/320 687/18/317
f 686/24/321 685/25/321 692/26/322
f 694/27/323 692/26/322 685/25/321
f 689/25/324 690/24/324 695/26/324
f 695/26/324 696/27/324 689/25/324
f 697/1/325 698/1/325 699/2/326
f 700/3/326 699/2/326 698/1/325
f 699/2/326 700/3/326 705/4/327
f 706/5/327 705/4/327 700/3/326
f 701/6/5 702/7/5 703/8/5
f 704/9/5 703/8/5 702/7/5
f 707/10/5 701/6/5 708/11/5
f 703/8/5 708/11/5 701/6/5
f 700/12/328 698/13/328 701/14/329
f 702/15/330 701/14/329 698/13/328
f 706/16/331 700/12/328 707/17/328
f 701/14/329 707/17/328 700/12/328
f 699/18/332 705/19/333 703/20/332
f 708/21/332 703/20/332 705/19/333
f 697/22/334 699/18/332 704/23/334
f 703/20/332 704/23/334 699/18/332
f 698/24/335 697/25/335 702/26/335
f 704/27/335 702/26/335 697/25/335
f 705/25/336 706/24/336 707/26/336
f 707/26/336 708/27/336 705/25/336
f 709/1/337 710/1/337 711/2/338
f 712/3/338 711/2/338 710/1/337
f 711/2/338 712/3/338 719/4/339
f 713/5/339 719/4/339 712/3/338
f 714/6/5 715/7/5 716/8/5
f 717/9/5 716/8/5 715/7/5
f 718/10/5 714/6/5 720/11/5
f 716/8/5 720/11/5 714/6/5
f 712/12/329 710/13/331 714/14/331
f 715/15/331 714/14/331 710/13/331
f 713/16/340 712/12/329 718/17/331
f 714/14/331 718/17/331 712/12/329
f 711/18/334 719/19/341 716/20/332
f 720/21/333 716/20/332 719/19/341
f 709/22/332 711/18/334 717/23/332
f 716/20/332 717/23/332 711/18/334
f 710/24/342 709/25/342 715/26/335
f 717/27/335 715/26/335 709/25/342
f 719/25/343 713/24/343 718/26/343
f 718/26/343 720/27/343 719/25/343
f 721/1/344 722/1/345 723/2/346
f 724/3/346 723/2/346 722/1/345
f 723/2/346 724/3/346 725/4/347
f 726/5/348 725/4/347 724/3/346
f 727/6/5 728/7/5 729/8/5
f 730/9/5 729/8/5 728/7/5
f 731/10/5 727/6/5 732/11/5
f 729/8/5 732/11/5 727/6/5
f 724/12/349 722/13/349 727/14/350
f 728/15/350 727/14/350 722/13/349
f 726/16/349 724/12/349 731/17/350
f 727/14/350 731/17/350 724/12/349
f 723/18/351 725/19/352 729/20/351
f 732/21/351 729/20/351 725/19/352
f 721/22/353 723/18/351 730/23/351
f 729/20/351 730/23/351 723/18/351
f 722/24/354 721/25/354 728/26/354
f 730/27/354 728/26/354 721/25/354
f 725/25/355 726/24/355 731/26/355
f 731/26/355 732/27/355 725/25/355
f 733/1/356 734/1/356 735/2/357
f 736/3/357 735/2/357 734/1/356
f 735/2/357 736/3/357 743/4/358
f 737/5/359 743/4/358 736/3/357
f 738/6/5 739/7/5 740/8/5
f 741/9/5 740/8/5 739/7/5
f 742/10/5 738/6/5 744/11/5
f 740/8/5 744/11/5 738/6/5
f 736/12/360 734/13/360 738/14/361
f 739/15/361 738/14/361 734/13/360
f 737/16/360 736/12/360 742/17/362
f 738/14/361 742/17/362 736/12/360
f 735/18/363 743/19/363 740/20/363
f 744/21/364 740/20/363 743/19/363
f 733/22/365 735/18/363 741/23/366
f 740/20/363 741/23/366 735/18/363
f 734/24/367 733/25/367 739/26/368
f 741/27/368 739/26/368 733/25/367
f 743/25/369 737/24/369 742/26/370
f 742/26/370 744/27/370 743/25/369
f 745/1/371 746/1/371 747/2/372
f 748/3/372 747/2/372 746/1/371
f 747/2/372 748/3/372 755/4/373
f 749/5/373 755/4/373 748/3/372
f 750/6/5 751/7/5 752/8/5
f 753/9/5 752/8/5 751/7/5
f 754/10/5 750/6/5 756/11/5
f 752/8/5 756/11/5 750/6/5
f 748/12/360 746/13/360 750/14/362
f 751/15/374 750/14/362 746/13/360
f 749/16/360 748/12/360 754/17/361
f 750/14/362 754/17/361 748/12/360
f 747/18/363 755/19/363 752/20/365
f 756/21/365 752/20/365 755/19/363
f 745/22/363 747/18/363 753/23/365
f 752/20/365 753/23/365 747/18/363
f 746/24/367 745/25/367 751/26/367
f 753/27/375 751/26/367 745/25/367
f 755/25/370 749/24/370 754/26/370
f 754/26/370 756/27/370 755/25/370
f 757/1/356 758/1/376 759/2/357
f 760/3/357 759/2/357 758/1/376
f 759/2/357 760/3/357 761/4/359
f 767/5/358 761/4/359 760/3/357
f 762/6/5 763/7/5 764/8/5
f 765/9/5 764/8/5 763/7/5
f 768/10/5 762/6/5 766/11/5
f 764/8/5 766/11/5 762/6/5
f 760/12/374 758/13/360 762/14/361
f 763/15/361 762/14/361 758/13/360
f 767/16/362 760/12/374 768/17/361
f 762/14/361 768/17/361 760/12/374
f 759/18/363 761/19/377 764/20/365
f 766/21/364 764/20/365 761/19/377
f 757/22/366 759/18/363 765/23/378
f 764/20/365 765/23/378 759/18/363
f 758/24/368 757/25/368 763/26/367
f 765/27/367 763/26/367 757/25/368
f 761/25/379 767/24/379 768/26/379
f 768/26/379 766/27/379 761/25/379
f 769/1/371 770/1/371 771/2/380
f 772/3/380 771/2/380 770/1/371
f 771/2/380 772/3/380 779/4/373
f 773/5/373 779/4/373 772/3/380
f 774/6/5 775/7/5 776/8/5
f 777/9/5 776/8/5 775/7/5
f 778/10/5 774/6/5 780/11/5
f 776/8/5 780/11/5 774/6/5
f 772/12/362 770/13/361 774/14/360
f 775/15/381 774/14/360 770/13/361
f 773/16/360 772/12/362 778/17/374
f 774/14/360 778/17/374 772/12/362
f 771/18/363 779/19/365 776/20/365
f 780/21/365 776/20/365 779/19/365
f 769/22/382 771/18/363 777/23/365
f 776/20/365 777/23/365 771/18/363
f 770/24/367 769/25/367 775/26/367
f 777/27/367 775/26/367 769/25/367
f 779/25/370 773/24/370 778/26/369
f 778/26/369 780/27/369 779/25/370
f 781/1/383 782/1/383 783/2/384
f 784/3/384 783/2/384 782/1/383
f 783/2/384 784/3/384 785/4/385
f 786/5/385 785/4/385 784/3/384
f 787/6/5 788/7/5 789/8/5
f 790/9/5 789/8/5 788/7/5
f 791/10/5 787/6/5 792/11/5
f 789/8/5 792/11/5 787/6/5
f 784/12/386 782/13/387 787/14/387
f 788/15/387 787/14/387 782/13/387
f 786/16/386 784/12/386 791/17/387
f 787/14/387 791/17/387 784/12/386
f 783/18/388 785/19/389 789/20/389
f 792/21/389 789/20/389 785/19/389
f 781/22/388 783/18/388 790/23/389
f 789/20/389 790/23/389 783/18/388
f 782/24/390 781/25/390 788/26/391
f 790/27/391 788/26/391 781/25/390
f 785/25/392 786/24/392 791/26/393
f 791/26/393 792/27/393 785/25/392
f 793/1/394 794/1/394 795/2/395
f 796/3/395 795/2/395 794/1/394
f 795/2/395 796/3/395 797/4/396
f 798/5/396 797/4/396 796/3/395
f 799/6/5 800/7/5 801/8/5
f 802/9/5 801/8/5 800/7/5
f 803/10/5 799/6/5 804/11/5
f 801/8/5 804/11/5 799/6/5
f 796/12/387 794/13/387 799/14/387
f 800/15/386 799/14/387 794/13/387
f 798/16/386 796/12/387 803/17/387
f 799/14/387 803/17/387 796/12/387
f 795/18/389 797/19/389 801/20/388
f 804/21/389 801/20/388 797/19/389
f 793/22/389 795/18/389 802/23/388
f 801/20/388 802/23/388 795/18/389
f 794/24/391 793/25/391 800/26/390
f 802/27/397 800/26/390 793/25/391
f 797/25/392 798/24/398 803/26/392
f 803/26/392 804/27/392 797/25/392
