# Blender 4.4.3
# www.blender.org
mtllib OVRHDLGHT.mtl
o OVRHDLGHT
v -2.344424 1.004526 -23.624763
v -2.396550 1.109954 -23.624762
v -2.396551 1.109954 -21.546413
v -2.344425 1.004526 -21.546413
v -2.811284 1.004526 -23.624763
v -2.811284 1.004526 -21.546413
v -2.750202 1.109954 -21.546413
v -2.750202 1.109954 -23.624763
v -2.344424 1.004526 -26.592833
v -2.396549 1.109954 -26.592833
v -2.396550 1.109954 -24.514482
v -2.344424 1.004526 -24.514482
v -2.811283 1.004526 -26.592833
v -2.811284 1.004526 -24.514482
v -2.750202 1.109954 -24.514482
v -2.750201 1.109954 -26.592833
v 0.640512 1.004526 -26.592831
v 0.588386 1.109954 -26.592831
v 0.588386 1.109954 -24.514482
v 0.640512 1.004526 -24.514482
v 0.173652 1.004526 -26.592831
v 0.173652 1.004526 -24.514482
v 0.234734 1.109954 -24.514482
v 0.234735 1.109954 -26.592831
v 0.640512 1.004526 -23.624762
v 0.588386 1.109954 -23.624762
v 0.588386 1.109954 -21.546413
v 0.640511 1.004526 -21.546413
v 0.173652 1.004526 -23.624762
v 0.173652 1.004526 -21.546413
v 0.234734 1.109954 -21.546413
v 0.234734 1.109954 -23.624762
v 7.469028 1.004526 -23.624762
v 7.416902 1.109954 -23.624762
v 7.416902 1.109954 -21.546413
v 7.469028 1.004526 -21.546413
v 7.002168 1.004526 -23.624762
v 7.002168 1.004526 -21.546413
v 7.063251 1.109954 -21.546413
v 7.063251 1.109954 -23.624762
v 7.469028 1.004526 -26.592831
v 7.416902 1.109954 -26.592831
v 7.416902 1.109954 -24.514482
v 7.469028 1.004526 -24.514482
v 7.002169 1.004526 -26.592831
v 7.002168 1.004526 -24.514482
v 7.063251 1.109954 -24.514482
v 7.063251 1.109954 -26.592831
v 10.453964 1.004526 -26.592831
v 10.401838 1.109954 -26.592831
v 10.401838 1.109954 -24.514481
v 10.453962 1.004526 -24.514481
v 9.987104 1.004526 -26.592831
v 9.987104 1.004526 -24.514481
v 10.048185 1.109954 -24.514481
v 10.048185 1.109954 -26.592831
v 10.453962 1.004526 -23.624760
v 10.401838 1.109954 -23.624760
v 10.401836 1.109954 -21.546412
v 10.453962 1.004526 -21.546412
v 9.987104 1.004526 -23.624760
v 9.987103 1.004526 -21.546412
v 10.048185 1.109954 -21.546412
v 10.048185 1.109954 -23.624760
v 17.282206 1.004526 -23.624760
v 17.230076 1.109954 -23.624760
v 17.230076 1.109954 -21.546410
v 17.282204 1.004526 -21.546412
v 16.815346 1.004526 -23.624760
v 16.815346 1.004526 -21.546410
v 16.876427 1.109954 -21.546412
v 16.876427 1.109954 -23.624760
v 17.282206 1.004526 -26.592829
v 17.230076 1.109954 -26.592829
v 17.230076 1.109954 -24.514481
v 17.282206 1.004526 -24.514481
v 16.815346 1.004526 -26.592829
v 16.815346 1.004526 -24.514481
v 16.876427 1.109954 -24.514481
v 16.876427 1.109954 -26.592829
v 20.267139 1.004526 -26.592829
v 20.215015 1.109954 -26.592829
v 20.215015 1.109954 -24.514479
v 20.267139 1.004526 -24.514481
v 19.800280 1.004526 -26.592829
v 19.800280 1.004526 -24.514481
v 19.861362 1.109954 -24.514481
v 19.861362 1.109954 -26.592829
v 20.267139 1.004526 -23.624760
v 20.215015 1.109954 -23.624760
v 20.215015 1.109954 -21.546410
v 20.267139 1.004526 -21.546410
v 19.800280 1.004526 -23.624760
v 19.800280 1.004526 -21.546410
v 19.861362 1.109954 -21.546410
v 19.861362 1.109954 -23.624760
v -31.787821 1.004526 -23.624763
v -31.839947 1.109954 -23.624762
v -31.839949 1.109954 -21.546413
v -31.787821 1.004526 -21.546413
v -32.254681 1.004526 -23.624763
v -32.254681 1.004526 -21.546413
v -32.193600 1.109954 -21.546413
v -32.193600 1.109954 -23.624763
v -31.787821 1.004526 -26.592833
v -31.839947 1.109954 -26.592833
v -31.839947 1.109954 -24.514482
v -31.787821 1.004526 -24.514482
v -32.254681 1.004526 -26.592833
v -32.254681 1.004526 -24.514482
v -32.193600 1.109954 -24.514482
v -32.193596 1.109954 -26.592833
v -28.802885 1.004526 -26.592831
v -28.855011 1.109954 -26.592831
v -28.855011 1.109954 -24.514482
v -28.802885 1.004526 -24.514482
v -29.269743 1.004526 -26.592831
v -29.269745 1.004526 -24.514482
v -29.208662 1.109954 -24.514482
v -29.208662 1.109954 -26.592831
v -28.802885 1.004526 -23.624762
v -28.855011 1.109954 -23.624762
v -28.855011 1.109954 -21.546413
v -28.802887 1.004526 -21.546413
v -29.269745 1.004526 -23.624762
v -29.269745 1.004526 -21.546413
v -29.208664 1.109954 -21.546413
v -29.208662 1.109954 -23.624762
v -21.974371 1.004526 -23.624762
v -22.026495 1.109954 -23.624762
v -22.026495 1.109954 -21.546413
v -21.974371 1.004526 -21.546413
v -22.441229 1.004526 -23.624762
v -22.441229 1.004526 -21.546413
v -22.380148 1.109954 -21.546413
v -22.380146 1.109954 -23.624762
v -21.974369 1.004526 -26.592831
v -22.026495 1.109954 -26.592831
v -22.026495 1.109954 -24.514482
v -21.974369 1.004526 -24.514482
v -22.441227 1.004526 -26.592831
v -22.441229 1.004526 -24.514482
v -22.380146 1.109954 -24.514482
v -22.380146 1.109954 -26.592831
v -18.989433 1.004526 -26.592831
v -19.041557 1.109954 -26.592831
v -19.041559 1.109954 -24.514481
v -18.989433 1.004526 -24.514481
v -19.456293 1.004526 -26.592831
v -19.456295 1.004526 -24.514481
v -19.395210 1.109954 -24.514481
v -19.395210 1.109954 -26.592831
v -18.989433 1.004526 -23.624760
v -19.041559 1.109954 -23.624760
v -19.041561 1.109954 -21.546412
v -18.989433 1.004526 -21.546412
v -19.456295 1.004526 -23.624760
v -19.456295 1.004526 -21.546412
v -19.395210 1.109954 -21.546412
v -19.395210 1.109954 -23.624760
v -12.161192 1.004526 -23.624760
v -12.213321 1.109954 -23.624760
v -12.213322 1.109954 -21.546410
v -12.161192 1.004526 -21.546412
v -12.628052 1.004526 -23.624760
v -12.628052 1.004526 -21.546410
v -12.566971 1.109954 -21.546412
v -12.566971 1.109954 -23.624760
v -12.161192 1.004526 -26.592829
v -12.213320 1.109954 -26.592829
v -12.213321 1.109954 -24.514481
v -12.161192 1.004526 -24.514481
v -12.628052 1.004526 -26.592829
v -12.628052 1.004526 -24.514481
v -12.566971 1.109954 -24.514481
v -12.566970 1.109954 -26.592829
v -9.176258 1.004526 -26.592829
v -9.228382 1.109954 -26.592829
v -9.228382 1.109954 -24.514479
v -9.176258 1.004526 -24.514481
v -9.643116 1.004526 -26.592829
v -9.643116 1.004526 -24.514481
v -9.582035 1.109954 -24.514481
v -9.582035 1.109954 -26.592829
v -9.176258 1.004526 -23.624760
v -9.228382 1.109954 -23.624760
v -9.228382 1.109954 -21.546410
v -9.176258 1.004526 -21.546410
v -9.643117 1.004526 -23.624760
v -9.643117 1.004526 -21.546410
v -9.582035 1.109954 -21.546410
v -9.582035 1.109954 -23.624760
v 62.178307 1.004526 -23.624763
v 62.126183 1.109954 -23.624762
v 62.126183 1.109954 -21.546413
v 62.178307 1.004526 -21.546413
v 61.711449 1.004526 -23.624763
v 61.711449 1.004526 -21.546413
v 61.772530 1.109954 -21.546413
v 61.772530 1.109954 -23.624763
v 62.178307 1.004526 -26.592833
v 62.126183 1.109954 -26.592833
v 62.126183 1.109954 -24.514482
v 62.178307 1.004526 -24.514482
v 61.711449 1.004526 -26.592833
v 61.711449 1.004526 -24.514482
v 61.772530 1.109954 -24.514482
v 61.772530 1.109954 -26.592833
v 65.163246 1.004526 -26.592831
v 65.111115 1.109954 -26.592831
v 65.111115 1.109954 -24.514482
v 65.163246 1.004526 -24.514482
v 64.696381 1.004526 -26.592831
v 64.696381 1.004526 -24.514482
v 64.757469 1.109954 -24.514482
v 64.757469 1.109954 -26.592831
v 65.163246 1.004526 -23.624762
v 65.111115 1.109954 -23.624762
v 65.111115 1.109954 -21.546413
v 65.163239 1.004526 -21.546413
v 64.696381 1.004526 -23.624762
v 64.696381 1.004526 -21.546413
v 64.757462 1.109954 -21.546413
v 64.757469 1.109954 -23.624762
v 71.991760 1.004526 -23.624762
v 71.939636 1.109954 -23.624762
v 71.939636 1.109954 -21.546413
v 71.991760 1.004526 -21.546413
v 71.524902 1.004526 -23.624762
v 71.524902 1.004526 -21.546413
v 71.585983 1.109954 -21.546413
v 71.585983 1.109954 -23.624762
v 71.991760 1.004526 -26.592831
v 71.939636 1.109954 -26.592831
v 71.939636 1.109954 -24.514482
v 71.991760 1.004526 -24.514482
v 71.524902 1.004526 -26.592831
v 71.524902 1.004526 -24.514482
v 71.585983 1.109954 -24.514482
v 71.585983 1.109954 -26.592831
v 74.976692 1.004526 -26.592831
v 74.924568 1.109954 -26.592831
v 74.924568 1.109954 -24.514481
v 74.976692 1.004526 -24.514481
v 74.509834 1.004526 -26.592831
v 74.509834 1.004526 -24.514481
v 74.570915 1.109954 -24.514481
v 74.570915 1.109954 -26.592831
v 74.976692 1.004526 -23.624760
v 74.924568 1.109954 -23.624760
v 74.924568 1.109954 -21.546412
v 74.976692 1.004526 -21.546412
v 74.509834 1.004526 -23.624760
v 74.509834 1.004526 -21.546412
v 74.570915 1.109954 -21.546412
v 74.570915 1.109954 -23.624760
v 81.804932 1.004526 -23.624760
v 81.752808 1.109954 -23.624760
v 81.752808 1.109954 -21.546410
v 81.804932 1.004526 -21.546412
v 81.338074 1.004526 -23.624760
v 81.338074 1.004526 -21.546410
v 81.399155 1.109954 -21.546412
v 81.399155 1.109954 -23.624760
v 81.804932 1.004526 -26.592829
v 81.752808 1.109954 -26.592829
v 81.752808 1.109954 -24.514481
v 81.804932 1.004526 -24.514481
v 81.338074 1.004526 -26.592829
v 81.338074 1.004526 -24.514481
v 81.399155 1.109954 -24.514481
v 81.399155 1.109954 -26.592829
v 84.789871 1.004526 -26.592829
v 84.737747 1.109954 -26.592829
v 84.737747 1.109954 -24.514479
v 84.789871 1.004526 -24.514481
v 84.323013 1.004526 -26.592829
v 84.323013 1.004526 -24.514481
v 84.384094 1.109954 -24.514481
v 84.384094 1.109954 -26.592829
v 84.789871 1.004526 -23.624760
v 84.737747 1.109954 -23.624760
v 84.737747 1.109954 -21.546410
v 84.789871 1.004526 -21.546410
v 84.323013 1.004526 -23.624760
v 84.323013 1.004526 -21.546410
v 84.384094 1.109954 -21.546410
v 84.384094 1.109954 -23.624760
v 32.734940 1.004526 -23.624763
v 32.682812 1.109954 -23.624762
v 32.682812 1.109954 -21.546413
v 32.734940 1.004526 -21.546413
v 32.268078 1.004526 -23.624763
v 32.268078 1.004526 -21.546413
v 32.329163 1.109954 -21.546413
v 32.329163 1.109954 -23.624763
v 32.734940 1.004526 -26.592833
v 32.682812 1.109954 -26.592833
v 32.682812 1.109954 -24.514482
v 32.734940 1.004526 -24.514482
v 32.268078 1.004526 -26.592833
v 32.268078 1.004526 -24.514482
v 32.329163 1.109954 -24.514482
v 32.329163 1.109954 -26.592833
v 35.719872 1.004526 -26.592831
v 35.667747 1.109954 -26.592831
v 35.667747 1.109954 -24.514482
v 35.719872 1.004526 -24.514482
v 35.253014 1.004526 -26.592831
v 35.253014 1.004526 -24.514482
v 35.314095 1.109954 -24.514482
v 35.314095 1.109954 -26.592831
v 35.719872 1.004526 -23.624762
v 35.667747 1.109954 -23.624762
v 35.667747 1.109954 -21.546413
v 35.719872 1.004526 -21.546413
v 35.253014 1.004526 -23.624762
v 35.253014 1.004526 -21.546413
v 35.314095 1.109954 -21.546413
v 35.314095 1.109954 -23.624762
v 42.548389 1.004526 -23.624762
v 42.496262 1.109954 -23.624762
v 42.496262 1.109954 -21.546413
v 42.548389 1.004526 -21.546413
v 42.081528 1.004526 -23.624762
v 42.081528 1.004526 -21.546413
v 42.142609 1.109954 -21.546413
v 42.142612 1.109954 -23.624762
v 42.548389 1.004526 -26.592831
v 42.496262 1.109954 -26.592831
v 42.496262 1.109954 -24.514482
v 42.548389 1.004526 -24.514482
v 42.081532 1.004526 -26.592831
v 42.081528 1.004526 -24.514482
v 42.142612 1.109954 -24.514482
v 42.142612 1.109954 -26.592831
v 45.533325 1.004526 -26.592831
v 45.481201 1.109954 -26.592831
v 45.481201 1.109954 -24.514481
v 45.533325 1.004526 -24.514481
v 45.066467 1.004526 -26.592831
v 45.066463 1.004526 -24.514481
v 45.127548 1.109954 -24.514481
v 45.127548 1.109954 -26.592831
v 45.533325 1.004526 -23.624760
v 45.481201 1.109954 -23.624760
v 45.481201 1.109954 -21.546412
v 45.533325 1.004526 -21.546412
v 45.066463 1.004526 -23.624760
v 45.066463 1.004526 -21.546412
v 45.127548 1.109954 -21.546412
v 45.127548 1.109954 -23.624760
v 52.361565 1.004526 -23.624760
v 52.309437 1.109954 -23.624760
v 52.309437 1.109954 -21.546410
v 52.361565 1.004526 -21.546412
v 51.894707 1.004526 -23.624760
v 51.894707 1.004526 -21.546410
v 51.955788 1.109954 -21.546412
v 51.955788 1.109954 -23.624760
v 52.361568 1.004526 -26.592829
v 52.309441 1.109954 -26.592829
v 52.309437 1.109954 -24.514481
v 52.361568 1.004526 -24.514481
v 51.894707 1.004526 -26.592829
v 51.894707 1.004526 -24.514481
v 51.955788 1.109954 -24.514481
v 51.955788 1.109954 -26.592829
v 55.346500 1.004526 -26.592829
v 55.294376 1.109954 -26.592829
v 55.294376 1.109954 -24.514479
v 55.346500 1.004526 -24.514481
v 54.879642 1.004526 -26.592829
v 54.879642 1.004526 -24.514481
v 54.940723 1.109954 -24.514481
v 54.940723 1.109954 -26.592829
v 55.346500 1.004526 -23.624760
v 55.294376 1.109954 -23.624760
v 55.294376 1.109954 -21.546410
v 55.346500 1.004526 -21.546410
v 54.879642 1.004526 -23.624760
v 54.879642 1.004526 -21.546410
v 54.940723 1.109954 -21.546410
v 54.940723 1.109954 -23.624760
v 97.765419 1.004526 -23.624763
v 97.713295 1.109954 -23.624762
v 97.713295 1.109954 -21.546413
v 97.765419 1.004526 -21.546413
v 97.298561 1.004526 -23.624763
v 97.298561 1.004526 -21.546413
v 97.359642 1.109954 -21.546413
v 97.359642 1.109954 -23.624763
v 97.765427 1.004526 -26.592833
v 97.713295 1.109954 -26.592833
v 97.713295 1.109954 -24.514482
v 97.765419 1.004526 -24.514482
v 97.298561 1.004526 -26.592833
v 97.298561 1.004526 -24.514482
v 97.359642 1.109954 -24.514482
v 97.359650 1.109954 -26.592833
v 100.750359 1.004526 -26.592831
v 100.698227 1.109954 -26.592831
v 100.698227 1.109954 -24.514482
v 100.750359 1.004526 -24.514482
v 100.283501 1.004526 -26.592831
v 100.283493 1.004526 -24.514482
v 100.344582 1.109954 -24.514482
v 100.344582 1.109954 -26.592831
v 100.750359 1.004526 -23.624762
v 100.698227 1.109954 -23.624762
v 100.698227 1.109954 -21.546413
v 100.750359 1.004526 -21.546413
v 100.283493 1.004526 -23.624762
v 100.283493 1.004526 -21.546413
v 100.344582 1.109954 -21.546413
v 100.344582 1.109954 -23.624762
v 107.578873 1.004526 -23.624762
v 107.526749 1.109954 -23.624762
v 107.526749 1.109954 -21.546413
v 107.578873 1.004526 -21.546413
v 107.112015 1.004526 -23.624762
v 107.112015 1.004526 -21.546413
v 107.173096 1.109954 -21.546413
v 107.173096 1.109954 -23.624762
v 107.578873 1.004526 -26.592831
v 107.526749 1.109954 -26.592831
v 107.526749 1.109954 -24.514482
v 107.578873 1.004526 -24.514482
v 107.112015 1.004526 -26.592831
v 107.112015 1.004526 -24.514482
v 107.173096 1.109954 -24.514482
v 107.173096 1.109954 -26.592831
v 110.563812 1.004526 -26.592831
v 110.511688 1.109954 -26.592831
v 110.511681 1.109954 -24.514481
v 110.563812 1.004526 -24.514481
v 110.096954 1.004526 -26.592831
v 110.096947 1.004526 -24.514481
v 110.158035 1.109954 -24.514481
v 110.158035 1.109954 -26.592831
v 110.563812 1.004526 -23.624760
v 110.511681 1.109954 -23.624760
v 110.511681 1.109954 -21.546412
v 110.563812 1.004526 -21.546412
v 110.096947 1.004526 -23.624760
v 110.096947 1.004526 -21.546412
v 110.158035 1.109954 -21.546412
v 110.158035 1.109954 -23.624760
v 117.392052 1.004526 -23.624760
v 117.339920 1.109954 -23.624760
v 117.339920 1.109954 -21.546410
v 117.392052 1.004526 -21.546412
v 116.925194 1.004526 -23.624760
v 116.925194 1.004526 -21.546410
v 116.986275 1.109954 -21.546412
v 116.986275 1.109954 -23.624760
v 117.392052 1.004526 -26.592829
v 117.339920 1.109954 -26.592829
v 117.339920 1.109954 -24.514481
v 117.392052 1.004526 -24.514481
v 116.925194 1.004526 -26.592829
v 116.925194 1.004526 -24.514481
v 116.986275 1.109954 -24.514481
v 116.986275 1.109954 -26.592829
v 120.376984 1.004526 -26.592829
v 120.324860 1.109954 -26.592829
v 120.324860 1.109954 -24.514479
v 120.376984 1.004526 -24.514481
v 119.910126 1.004526 -26.592829
v 119.910126 1.004526 -24.514481
v 119.971207 1.109954 -24.514481
v 119.971207 1.109954 -26.592829
v 120.376984 1.004526 -23.624760
v 120.324860 1.109954 -23.624760
v 120.324860 1.109954 -21.546410
v 120.376984 1.004526 -21.546410
v 119.910126 1.004526 -23.624760
v 119.910126 1.004526 -21.546410
v 119.971207 1.109954 -21.546410
v 119.971207 1.109954 -23.624760
v 127.208801 1.004526 -23.624763
v 127.156677 1.109954 -23.624762
v 127.156677 1.109954 -21.546413
v 127.208801 1.004526 -21.546413
v 126.741943 1.004526 -23.624763
v 126.741943 1.004526 -21.546413
v 126.803024 1.109954 -21.546413
v 126.803024 1.109954 -23.624763
v 127.208801 1.004526 -26.592833
v 127.156677 1.109954 -26.592833
v 127.156677 1.109954 -24.514482
v 127.208801 1.004526 -24.514482
v 126.741943 1.004526 -26.592833
v 126.741943 1.004526 -24.514482
v 126.803024 1.109954 -24.514482
v 126.803024 1.109954 -26.592833
v 130.193741 1.004526 -26.592831
v 130.141617 1.109954 -26.592831
v 130.141617 1.109954 -24.514482
v 130.193741 1.004526 -24.514482
v 129.726883 1.004526 -26.592831
v 129.726883 1.004526 -24.514482
v 129.787964 1.109954 -24.514482
v 129.787964 1.109954 -26.592831
v 130.193741 1.004526 -23.624762
v 130.141617 1.109954 -23.624762
v 130.141617 1.109954 -21.546413
v 130.193741 1.004526 -21.546413
v 129.726883 1.004526 -23.624762
v 129.726883 1.004526 -21.546413
v 129.787964 1.109954 -21.546413
v 129.787964 1.109954 -23.624762
v 137.022247 1.004526 -23.624762
v 136.970123 1.109954 -23.624762
v 136.970123 1.109954 -21.546413
v 137.022247 1.004526 -21.546413
v 136.555389 1.004526 -23.624762
v 136.555389 1.004526 -21.546413
v 136.616470 1.109954 -21.546413
v 136.616470 1.109954 -23.624762
v 137.022247 1.004526 -26.592831
v 136.970123 1.109954 -26.592831
v 136.970123 1.109954 -24.514482
v 137.022247 1.004526 -24.514482
v 136.555389 1.004526 -26.592831
v 136.555389 1.004526 -24.514482
v 136.616470 1.109954 -24.514482
v 136.616470 1.109954 -26.592831
v 140.007187 1.004526 -26.592831
v 139.955063 1.109954 -26.592831
v 139.955063 1.109954 -24.514481
v 140.007187 1.004526 -24.514481
v 139.540329 1.004526 -26.592831
v 139.540329 1.004526 -24.514481
v 139.601410 1.109954 -24.514481
v 139.601410 1.109954 -26.592831
v 140.007187 1.004526 -23.624760
v 139.955063 1.109954 -23.624760
v 139.955063 1.109954 -21.546412
v 140.007187 1.004526 -21.546412
v 139.540329 1.004526 -23.624760
v 139.540329 1.004526 -21.546412
v 139.601410 1.109954 -21.546412
v 139.601410 1.109954 -23.624760
v 146.835434 1.004526 -23.624760
v 146.783295 1.109954 -23.624760
v 146.783295 1.109954 -21.546410
v 146.835434 1.004526 -21.546412
v 146.368576 1.004526 -23.624760
v 146.368576 1.004526 -21.546410
v 146.429657 1.109954 -21.546412
v 146.429657 1.109954 -23.624760
v 146.835434 1.004526 -26.592829
v 146.783310 1.109954 -26.592829
v 146.783310 1.109954 -24.514481
v 146.835434 1.004526 -24.514481
v 146.368576 1.004526 -26.592829
v 146.368576 1.004526 -24.514481
v 146.429657 1.109954 -24.514481
v 146.429657 1.109954 -26.592829
v 149.820374 1.004526 -26.592829
v 149.768250 1.109954 -26.592829
v 149.768250 1.109954 -24.514479
v 149.820374 1.004526 -24.514481
v 149.353516 1.004526 -26.592829
v 149.353516 1.004526 -24.514481
v 149.414581 1.109954 -24.514481
v 149.414581 1.109954 -26.592829
v 149.820374 1.004526 -23.624760
v 149.768250 1.109954 -23.624760
v 149.768250 1.109954 -21.546410
v 149.820374 1.004526 -21.546410
v 149.353516 1.004526 -23.624760
v 149.353500 1.004526 -21.546410
v 149.414581 1.109954 -21.546410
v 149.414581 1.109954 -23.624760
vn 0.8964 0.4432 -0.0000
vn -0.8653 0.5013 -0.0000
vn -0.0000 -1.0000 -0.0000
vn -0.0000 -0.0000 1.0000
vn -0.0000 -0.0000 -1.0000
vn -0.8652 0.5014 -0.0000
vn -0.8652 0.5013 -0.0000
vn 0.8965 0.4431 -0.0000
vn -0.8653 0.5012 -0.0000
vn 0.8964 0.4433 -0.0000
vn 0.8963 0.4435 -0.0000
vn 0.8966 0.4429 -0.0000
vn -0.8654 0.5012 -0.0000
vn -0.8652 0.5015 -0.0000
vn -0.8654 0.5011 -0.0000
vn 0.8965 0.4430 -0.0000
vt 0.000500 0.993117
vt 0.257529 0.993117
vt 0.257528 1.999501
vt 0.000500 1.999501
vt 0.257528 0.993117
vt 0.257529 1.999501
vt 0.000499 0.993117
vt 0.990000 1.020000
vt 0.990000 1.960000
vt 0.260000 1.960000
vt 0.260000 1.020000
vt 0.999500 1.950000
vt 0.907423 1.999497
vt 0.321385 1.999498
vt 0.260000 1.950000
vt 0.321385 1.999500
vt 0.907423 1.999501
s 1
usemtl OVRHDLGHT
f 1/1/1 2/2/1 3/3/1
f 3/3/1 4/4/1 1/1/1
f 5/5/2 6/6/2 7/4/2
f 7/4/2 8/7/2 5/5/2
f 1/8/3 4/9/3 6/10/3
f 6/10/3 5/11/3 1/8/3
f 4/12/4 3/13/4 7/14/4
f 7/14/4 6/15/4 4/12/4
f 2/16/5 1/15/5 5/12/5
f 5/12/5 8/17/5 2/16/5
f 9/1/1 10/2/1 11/3/1
f 11/3/1 12/4/1 9/1/1
f 13/5/2 14/6/2 15/4/2
f 15/4/2 16/7/2 13/5/2
f 9/8/3 12/9/3 14/10/3
f 14/10/3 13/11/3 9/8/3
f 12/12/4 11/13/4 15/14/4
f 15/14/4 14/15/4 12/12/4
f 10/16/5 9/15/5 13/12/5
f 13/12/5 16/17/5 10/16/5
f 17/1/1 18/2/1 19/3/1
f 19/3/1 20/4/1 17/1/1
f 21/5/2 22/6/2 23/4/2
f 23/4/2 24/7/2 21/5/2
f 17/8/3 20/9/3 22/10/3
f 22/10/3 21/11/3 17/8/3
f 20/12/4 19/13/4 23/14/4
f 23/14/4 22/15/4 20/12/4
f 18/16/5 17/15/5 21/12/5
f 21/12/5 24/17/5 18/16/5
f 25/1/1 26/2/1 27/3/1
f 27/3/1 28/4/1 25/1/1
f 29/5/2 30/6/2 31/4/2
f 31/4/2 32/7/2 29/5/2
f 25/8/3 28/9/3 30/10/3
f 30/10/3 29/11/3 25/8/3
f 28/12/4 27/13/4 31/14/4
f 31/14/4 30/15/4 28/12/4
f 26/16/5 25/15/5 29/12/5
f 29/12/5 32/17/5 26/16/5
f 33/1/1 34/2/1 35/3/1
f 35/3/1 36/4/1 33/1/1
f 37/5/2 38/6/2 39/4/2
f 39/4/2 40/7/2 37/5/2
f 33/8/3 36/9/3 38/10/3
f 38/10/3 37/11/3 33/8/3
f 36/12/4 35/13/4 39/14/4
f 39/14/4 38/15/4 36/12/4
f 34/16/5 33/15/5 37/12/5
f 37/12/5 40/17/5 34/16/5
f 41/1/1 42/2/1 43/3/1
f 43/3/1 44/4/1 41/1/1
f 45/5/2 46/6/2 47/4/2
f 47/4/2 48/7/2 45/5/2
f 41/8/3 44/9/3 46/10/3
f 46/10/3 45/11/3 41/8/3
f 44/12/4 43/13/4 47/14/4
f 47/14/4 46/15/4 44/12/4
f 42/16/5 41/15/5 45/12/5
f 45/12/5 48/17/5 42/16/5
f 49/1/1 50/2/1 51/3/1
f 51/3/1 52/4/1 49/1/1
f 53/5/2 54/6/2 55/4/2
f 55/4/2 56/7/2 53/5/2
f 49/8/3 52/9/3 54/10/3
f 54/10/3 53/11/3 49/8/3
f 52/12/4 51/13/4 55/14/4
f 55/14/4 54/15/4 52/12/4
f 50/16/5 49/15/5 53/12/5
f 53/12/5 56/17/5 50/16/5
f 57/1/1 58/2/1 59/3/1
f 59/3/1 60/4/1 57/1/1
f 61/5/2 62/6/2 63/4/2
f 63/4/2 64/7/2 61/5/2
f 57/8/3 60/9/3 62/10/3
f 62/10/3 61/11/3 57/8/3
f 60/12/4 59/13/4 63/14/4
f 63/14/4 62/15/4 60/12/4
f 58/16/5 57/15/5 61/12/5
f 61/12/5 64/17/5 58/16/5
f 65/1/1 66/2/1 67/3/1
f 67/3/1 68/4/1 65/1/1
f 69/5/2 70/6/2 71/4/2
f 71/4/2 72/7/2 69/5/2
f 65/8/3 68/9/3 70/10/3
f 70/10/3 69/11/3 65/8/3
f 68/12/4 67/13/4 71/14/4
f 71/14/4 70/15/4 68/12/4
f 66/16/5 65/15/5 69/12/5
f 69/12/5 72/17/5 66/16/5
f 73/1/1 74/2/1 75/3/1
f 75/3/1 76/4/1 73/1/1
f 77/5/2 78/6/2 79/4/2
f 79/4/2 80/7/2 77/5/2
f 73/8/3 76/9/3 78/10/3
f 78/10/3 77/11/3 73/8/3
f 76/12/4 75/13/4 79/14/4
f 79/14/4 78/15/4 76/12/4
f 74/16/5 73/15/5 77/12/5
f 77/12/5 80/17/5 74/16/5
f 81/1/1 82/2/1 83/3/1
f 83/3/1 84/4/1 81/1/1
f 85/5/2 86/6/2 87/4/2
f 87/4/2 88/7/2 85/5/2
f 81/8/3 84/9/3 86/10/3
f 86/10/3 85/11/3 81/8/3
f 84/12/4 83/13/4 87/14/4
f 87/14/4 86/15/4 84/12/4
f 82/16/5 81/15/5 85/12/5
f 85/12/5 88/17/5 82/16/5
f 89/1/1 90/2/1 91/3/1
f 91/3/1 92/4/1 89/1/1
f 93/5/2 94/6/2 95/4/2
f 95/4/2 96/7/2 93/5/2
f 89/8/3 92/9/3 94/10/3
f 94/10/3 93/11/3 89/8/3
f 92/12/4 91/13/4 95/14/4
f 95/14/4 94/15/4 92/12/4
f 90/16/5 89/15/5 93/12/5
f 93/12/5 96/17/5 90/16/5
f 97/1/1 98/2/1 99/3/1
f 99/3/1 100/4/1 97/1/1
f 101/5/2 102/6/2 103/4/2
f 103/4/2 104/7/2 101/5/2
f 97/8/3 100/9/3 102/10/3
f 102/10/3 101/11/3 97/8/3
f 100/12/4 99/13/4 103/14/4
f 103/14/4 102/15/4 100/12/4
f 98/16/5 97/15/5 101/12/5
f 101/12/5 104/17/5 98/16/5
f 105/1/1 106/2/1 107/3/1
f 107/3/1 108/4/1 105/1/1
f 109/5/6 110/6/2 111/4/2
f 111/4/2 112/7/6 109/5/6
f 105/8/3 108/9/3 110/10/3
f 110/10/3 109/11/3 105/8/3
f 108/12/4 107/13/4 111/14/4
f 111/14/4 110/15/4 108/12/4
f 106/16/5 105/15/5 109/12/5
f 109/12/5 112/17/5 106/16/5
f 113/1/1 114/2/1 115/3/1
f 115/3/1 116/4/1 113/1/1
f 117/5/2 118/6/7 119/4/7
f 119/4/7 120/7/2 117/5/2
f 113/8/3 116/9/3 118/10/3
f 118/10/3 117/11/3 113/8/3
f 116/12/4 115/13/4 119/14/4
f 119/14/4 118/15/4 116/12/4
f 114/16/5 113/15/5 117/12/5
f 117/12/5 120/17/5 114/16/5
f 121/1/1 122/2/1 123/3/1
f 123/3/1 124/4/1 121/1/1
f 125/5/2 126/6/2 127/4/2
f 127/4/2 128/7/2 125/5/2
f 121/8/3 124/9/3 126/10/3
f 126/10/3 125/11/3 121/8/3
f 124/12/4 123/13/4 127/14/4
f 127/14/4 126/15/4 124/12/4
f 122/16/5 121/15/5 125/12/5
f 125/12/5 128/17/5 122/16/5
f 129/1/1 130/2/1 131/3/1
f 131/3/1 132/4/1 129/1/1
f 133/5/2 134/6/2 135/4/2
f 135/4/2 136/7/2 133/5/2
f 129/8/3 132/9/3 134/10/3
f 134/10/3 133/11/3 129/8/3
f 132/12/4 131/13/4 135/14/4
f 135/14/4 134/15/4 132/12/4
f 130/16/5 129/15/5 133/12/5
f 133/12/5 136/17/5 130/16/5
f 137/1/1 138/2/1 139/3/1
f 139/3/1 140/4/1 137/1/1
f 141/5/2 142/6/2 143/4/2
f 143/4/2 144/7/2 141/5/2
f 137/8/3 140/9/3 142/10/3
f 142/10/3 141/11/3 137/8/3
f 140/12/4 139/13/4 143/14/4
f 143/14/4 142/15/4 140/12/4
f 138/16/5 137/15/5 141/12/5
f 141/12/5 144/17/5 138/16/5
f 145/1/1 146/2/1 147/3/1
f 147/3/1 148/4/1 145/1/1
f 149/5/2 150/6/6 151/4/6
f 151/4/6 152/7/2 149/5/2
f 145/8/3 148/9/3 150/10/3
f 150/10/3 149/11/3 145/8/3
f 148/12/4 147/13/4 151/14/4
f 151/14/4 150/15/4 148/12/4
f 146/16/5 145/15/5 149/12/5
f 149/12/5 152/17/5 146/16/5
f 153/1/1 154/2/1 155/3/1
f 155/3/1 156/4/1 153/1/1
f 157/5/2 158/6/2 159/4/2
f 159/4/2 160/7/2 157/5/2
f 153/8/3 156/9/3 158/10/3
f 158/10/3 157/11/3 153/8/3
f 156/12/4 155/13/4 159/14/4
f 159/14/4 158/15/4 156/12/4
f 154/16/5 153/15/5 157/12/5
f 157/12/5 160/17/5 154/16/5
f 161/1/1 162/2/1 163/3/1
f 163/3/1 164/4/1 161/1/1
f 165/5/2 166/6/2 167/4/2
f 167/4/2 168/7/2 165/5/2
f 161/8/3 164/9/3 166/10/3
f 166/10/3 165/11/3 161/8/3
f 164/12/4 163/13/4 167/14/4
f 167/14/4 166/15/4 164/12/4
f 162/16/5 161/15/5 165/12/5
f 165/12/5 168/17/5 162/16/5
f 169/1/1 170/2/1 171/3/1
f 171/3/1 172/4/1 169/1/1
f 173/5/2 174/6/2 175/4/2
f 175/4/2 176/7/2 173/5/2
f 169/8/3 172/9/3 174/10/3
f 174/10/3 173/11/3 169/8/3
f 172/12/4 171/13/4 175/14/4
f 175/14/4 174/15/4 172/12/4
f 170/16/5 169/15/5 173/12/5
f 173/12/5 176/17/5 170/16/5
f 177/1/1 178/2/1 179/3/1
f 179/3/1 180/4/1 177/1/1
f 181/5/2 182/6/2 183/4/2
f 183/4/2 184/7/2 181/5/2
f 177/8/3 180/9/3 182/10/3
f 182/10/3 181/11/3 177/8/3
f 180/12/4 179/13/4 183/14/4
f 183/14/4 182/15/4 180/12/4
f 178/16/5 177/15/5 181/12/5
f 181/12/5 184/17/5 178/16/5
f 185/1/1 186/2/1 187/3/1
f 187/3/1 188/4/1 185/1/1
f 189/5/2 190/6/2 191/4/2
f 191/4/2 192/7/2 189/5/2
f 185/8/3 188/9/3 190/10/3
f 190/10/3 189/11/3 185/8/3
f 188/12/4 187/13/4 191/14/4
f 191/14/4 190/15/4 188/12/4
f 186/16/5 185/15/5 189/12/5
f 189/12/5 192/17/5 186/16/5
f 193/1/8 194/2/8 195/3/8
f 195/3/1 196/4/1 193/1/1
f 197/5/9 198/6/2 199/4/2
f 199/4/2 200/7/9 197/5/9
f 193/8/3 196/9/3 198/10/3
f 198/10/3 197/11/3 193/8/3
f 196/12/4 195/13/4 199/14/4
f 199/14/4 198/15/4 196/12/4
f 194/16/5 193/15/5 197/12/5
f 197/12/5 200/17/5 194/16/5
f 201/1/1 202/2/1 203/3/1
f 203/3/1 204/4/1 201/1/1
f 205/5/9 206/6/2 207/4/2
f 207/4/2 208/7/9 205/5/9
f 201/8/3 204/9/3 206/10/3
f 206/10/3 205/11/3 201/8/3
f 204/12/4 203/13/4 207/14/4
f 207/14/4 206/15/4 204/12/4
f 202/16/5 201/15/5 205/12/5
f 205/12/5 208/17/5 202/16/5
f 209/1/1 210/2/1 211/3/1
f 211/3/10 212/4/10 209/1/10
f 213/5/9 214/6/6 215/4/6
f 215/4/6 216/7/9 213/5/9
f 209/8/3 212/9/3 214/10/3
f 214/10/3 213/11/3 209/8/3
f 212/12/4 211/13/4 215/14/4
f 215/14/4 214/15/4 212/12/4
f 210/16/5 209/15/5 213/12/5
f 213/12/5 216/17/5 210/16/5
f 217/1/1 218/2/1 219/3/1
f 219/3/1 220/4/1 217/1/1
f 221/5/2 222/6/9 223/4/9
f 223/4/9 224/7/2 221/5/2
f 217/8/3 220/9/3 222/10/3
f 222/10/3 221/11/3 217/8/3
f 220/12/4 219/13/4 223/14/4
f 223/14/4 222/15/4 220/12/4
f 218/16/5 217/15/5 221/12/5
f 221/12/5 224/17/5 218/16/5
f 225/1/1 226/2/1 227/3/1
f 227/3/1 228/4/1 225/1/1
f 229/5/2 230/6/9 231/4/9
f 231/4/9 232/7/2 229/5/2
f 225/8/3 228/9/3 230/10/3
f 230/10/3 229/11/3 225/8/3
f 228/12/4 227/13/4 231/14/4
f 231/14/4 230/15/4 228/12/4
f 226/16/5 225/15/5 229/12/5
f 229/12/5 232/17/5 226/16/5
f 233/1/1 234/2/1 235/3/1
f 235/3/1 236/4/1 233/1/1
f 237/5/2 238/6/9 239/4/9
f 239/4/9 240/7/2 237/5/2
f 233/8/3 236/9/3 238/10/3
f 238/10/3 237/11/3 233/8/3
f 236/12/4 235/13/4 239/14/4
f 239/14/4 238/15/4 236/12/4
f 234/16/5 233/15/5 237/12/5
f 237/12/5 240/17/5 234/16/5
f 241/1/1 242/2/1 243/3/1
f 243/3/1 244/4/1 241/1/1
f 245/5/2 246/6/2 247/4/2
f 247/4/2 248/7/2 245/5/2
f 241/8/3 244/9/3 246/10/3
f 246/10/3 245/11/3 241/8/3
f 244/12/4 243/13/4 247/14/4
f 247/14/4 246/15/4 244/12/4
f 242/16/5 241/15/5 245/12/5
f 245/12/5 248/17/5 242/16/5
f 249/1/8 250/2/8 251/3/8
f 251/3/1 252/4/1 249/1/1
f 253/5/2 254/6/2 255/4/2
f 255/4/2 256/7/2 253/5/2
f 249/8/3 252/9/3 254/10/3
f 254/10/3 253/11/3 249/8/3
f 252/12/4 251/13/4 255/14/4
f 255/14/4 254/15/4 252/12/4
f 250/16/5 249/15/5 253/12/5
f 253/12/5 256/17/5 250/16/5
f 257/1/1 258/2/1 259/3/1
f 259/3/1 260/4/1 257/1/1
f 261/5/2 262/6/9 263/4/9
f 263/4/9 264/7/2 261/5/2
f 257/8/3 260/9/3 262/10/3
f 262/10/3 261/11/3 257/8/3
f 260/12/4 259/13/4 263/14/4
f 263/14/4 262/15/4 260/12/4
f 258/16/5 257/15/5 261/12/5
f 261/12/5 264/17/5 258/16/5
f 265/1/1 266/2/1 267/3/1
f 267/3/1 268/4/1 265/1/1
f 269/5/2 270/6/9 271/4/9
f 271/4/9 272/7/2 269/5/2
f 265/8/3 268/9/3 270/10/3
f 270/10/3 269/11/3 265/8/3
f 268/12/4 267/13/4 271/14/4
f 271/14/4 270/15/4 268/12/4
f 266/16/5 265/15/5 269/12/5
f 269/12/5 272/17/5 266/16/5
f 273/1/1 274/2/1 275/3/1
f 275/3/1 276/4/1 273/1/1
f 277/5/2 278/6/2 279/4/2
f 279/4/2 280/7/2 277/5/2
f 273/8/3 276/9/3 278/10/3
f 278/10/3 277/11/3 273/8/3
f 276/12/4 275/13/4 279/14/4
f 279/14/4 278/15/4 276/12/4
f 274/16/5 273/15/5 277/12/5
f 277/12/5 280/17/5 274/16/5
f 281/1/1 282/2/1 283/3/1
f 283/3/1 284/4/1 281/1/1
f 285/5/2 286/6/9 287/4/9
f 287/4/9 288/7/2 285/5/2
f 281/8/3 284/9/3 286/10/3
f 286/10/3 285/11/3 281/8/3
f 284/12/4 283/13/4 287/14/4
f 287/14/4 286/15/4 284/12/4
f 282/16/5 281/15/5 285/12/5
f 285/12/5 288/17/5 282/16/5
f 289/1/10 290/2/10 291/3/10
f 291/3/1 292/4/1 289/1/1
f 293/5/2 294/6/6 295/4/6
f 295/4/6 296/7/2 293/5/2
f 289/8/3 292/9/3 294/10/3
f 294/10/3 293/11/3 289/8/3
f 292/12/4 291/13/4 295/14/4
f 295/14/4 294/15/4 292/12/4
f 290/16/5 289/15/5 293/12/5
f 293/12/5 296/17/5 290/16/5
f 297/1/10 298/2/10 299/3/10
f 299/3/1 300/4/1 297/1/1
f 301/5/2 302/6/6 303/4/6
f 303/4/6 304/7/2 301/5/2
f 297/8/3 300/9/3 302/10/3
f 302/10/3 301/11/3 297/8/3
f 300/12/4 299/13/4 303/14/4
f 303/14/4 302/15/4 300/12/4
f 298/16/5 297/15/5 301/12/5
f 301/12/5 304/17/5 298/16/5
f 305/1/1 306/2/1 307/3/1
f 307/3/1 308/4/1 305/1/1
f 309/5/2 310/6/2 311/4/2
f 311/4/2 312/7/2 309/5/2
f 305/8/3 308/9/3 310/10/3
f 310/10/3 309/11/3 305/8/3
f 308/12/4 307/13/4 311/14/4
f 311/14/4 310/15/4 308/12/4
f 306/16/5 305/15/5 309/12/5
f 309/12/5 312/17/5 306/16/5
f 313/1/1 314/2/1 315/3/1
f 315/3/1 316/4/1 313/1/1
f 317/5/2 318/6/2 319/4/2
f 319/4/2 320/7/2 317/5/2
f 313/8/3 316/9/3 318/10/3
f 318/10/3 317/11/3 313/8/3
f 316/12/4 315/13/4 319/14/4
f 319/14/4 318/15/4 316/12/4
f 314/16/5 313/15/5 317/12/5
f 317/12/5 320/17/5 314/16/5
f 321/1/1 322/2/1 323/3/11
f 323/3/10 324/4/10 321/1/10
f 325/5/2 326/6/2 327/4/2
f 327/4/2 328/7/2 325/5/2
f 321/8/3 324/9/3 326/10/3
f 326/10/3 325/11/3 321/8/3
f 324/12/4 323/13/4 327/14/4
f 327/14/4 326/15/4 324/12/4
f 322/16/5 321/15/5 325/12/5
f 325/12/5 328/17/5 322/16/5
f 329/1/1 330/2/1 331/3/1
f 331/3/10 332/4/10 329/1/10
f 333/5/2 334/6/2 335/4/2
f 335/4/2 336/7/2 333/5/2
f 329/8/3 332/9/3 334/10/3
f 334/10/3 333/11/3 329/8/3
f 332/12/4 331/13/4 335/14/4
f 335/14/4 334/15/4 332/12/4
f 330/16/5 329/15/5 333/12/5
f 333/12/5 336/17/5 330/16/5
f 337/1/1 338/2/1 339/3/1
f 339/3/1 340/4/1 337/1/1
f 341/5/2 342/6/2 343/4/2
f 343/4/2 344/7/2 341/5/2
f 337/8/3 340/9/3 342/10/3
f 342/10/3 341/11/3 337/8/3
f 340/12/4 339/13/4 343/14/4
f 343/14/4 342/15/4 340/12/4
f 338/16/5 337/15/5 341/12/5
f 341/12/5 344/17/5 338/16/5
f 345/1/1 346/2/1 347/3/1
f 347/3/1 348/4/1 345/1/1
f 349/5/2 350/6/2 351/4/2
f 351/4/2 352/7/2 349/5/2
f 345/8/3 348/9/3 350/10/3
f 350/10/3 349/11/3 345/8/3
f 348/12/4 347/13/4 351/14/4
f 351/14/4 350/15/4 348/12/4
f 346/16/5 345/15/5 349/12/5
f 349/12/5 352/17/5 346/16/5
f 353/1/1 354/2/1 355/3/1
f 355/3/1 356/4/1 353/1/1
f 357/5/2 358/6/2 359/4/2
f 359/4/2 360/7/2 357/5/2
f 353/8/3 356/9/3 358/10/3
f 358/10/3 357/11/3 353/8/3
f 356/12/4 355/13/4 359/14/4
f 359/14/4 358/15/4 356/12/4
f 354/16/5 353/15/5 357/12/5
f 357/12/5 360/17/5 354/16/5
f 361/1/1 362/2/1 363/3/11
f 363/3/10 364/4/10 361/1/10
f 365/5/2 366/6/2 367/4/2
f 367/4/2 368/7/2 365/5/2
f 361/8/3 364/9/3 366/10/3
f 366/10/3 365/11/3 361/8/3
f 364/12/4 363/13/4 367/14/4
f 367/14/4 366/15/4 364/12/4
f 362/16/5 361/15/5 365/12/5
f 365/12/5 368/17/5 362/16/5
f 369/1/1 370/2/1 371/3/1
f 371/3/1 372/4/1 369/1/1
f 373/5/2 374/6/2 375/4/2
f 375/4/2 376/7/2 373/5/2
f 369/8/3 372/9/3 374/10/3
f 374/10/3 373/11/3 369/8/3
f 372/12/4 371/13/4 375/14/4
f 375/14/4 374/15/4 372/12/4
f 370/16/5 369/15/5 373/12/5
f 373/12/5 376/17/5 370/16/5
f 377/1/1 378/2/1 379/3/1
f 379/3/1 380/4/1 377/1/1
f 381/5/2 382/6/2 383/4/2
f 383/4/2 384/7/2 381/5/2
f 377/8/3 380/9/3 382/10/3
f 382/10/3 381/11/3 377/8/3
f 380/12/4 379/13/4 383/14/4
f 383/14/4 382/15/4 380/12/4
f 378/16/5 377/15/5 381/12/5
f 381/12/5 384/17/5 378/16/5
f 385/1/1 386/2/1 387/3/1
f 387/3/1 388/4/1 385/1/1
f 389/5/9 390/6/2 391/4/2
f 391/4/2 392/7/9 389/5/9
f 385/8/3 388/9/3 390/10/3
f 390/10/3 389/11/3 385/8/3
f 388/12/4 387/13/4 391/14/4
f 391/14/4 390/15/4 388/12/4
f 386/16/5 385/15/5 389/12/5
f 389/12/5 392/17/5 386/16/5
f 393/1/10 394/2/10 395/3/10
f 395/3/1 396/4/1 393/1/1
f 397/5/2 398/6/2 399/4/2
f 399/4/2 400/7/2 397/5/2
f 393/8/3 396/9/3 398/10/3
f 398/10/3 397/11/3 393/8/3
f 396/12/4 395/13/4 399/14/4
f 399/14/4 398/15/4 396/12/4
f 394/16/5 393/15/5 397/12/5
f 397/12/5 400/17/5 394/16/5
f 401/1/8 402/2/8 403/3/8
f 403/3/10 404/4/10 401/1/12
f 405/5/2 406/6/6 407/4/6
f 407/4/6 408/7/2 405/5/2
f 401/8/3 404/9/3 406/10/3
f 406/10/3 405/11/3 401/8/3
f 404/12/4 403/13/4 407/14/4
f 407/14/4 406/15/4 404/12/4
f 402/16/5 401/15/5 405/12/5
f 405/12/5 408/17/5 402/16/5
f 409/1/8 410/2/8 411/3/8
f 411/3/10 412/4/10 409/1/12
f 413/5/2 414/6/6 415/4/6
f 415/4/6 416/7/2 413/5/2
f 409/8/3 412/9/3 414/10/3
f 414/10/3 413/11/3 409/8/3
f 412/12/4 411/13/4 415/14/4
f 415/14/4 414/15/4 412/12/4
f 410/16/5 409/15/5 413/12/5
f 413/12/5 416/17/5 410/16/5
f 417/1/8 418/2/8 419/3/8
f 419/3/1 420/4/1 417/1/1
f 421/5/2 422/6/2 423/4/2
f 423/4/2 424/7/2 421/5/2
f 417/8/3 420/9/3 422/10/3
f 422/10/3 421/11/3 417/8/3
f 420/12/4 419/13/4 423/14/4
f 423/14/4 422/15/4 420/12/4
f 418/16/5 417/15/5 421/12/5
f 421/12/5 424/17/5 418/16/5
f 425/1/8 426/2/8 427/3/8
f 427/3/1 428/4/1 425/1/1
f 429/5/2 430/6/2 431/4/2
f 431/4/2 432/7/2 429/5/2
f 425/8/3 428/9/3 430/10/3
f 430/10/3 429/11/3 425/8/3
f 428/12/4 427/13/4 431/14/4
f 431/14/4 430/15/4 428/12/4
f 426/16/5 425/15/5 429/12/5
f 429/12/5 432/17/5 426/16/5
f 433/1/1 434/2/1 435/3/1
f 435/3/1 436/4/1 433/1/1
f 437/5/2 438/6/2 439/4/2
f 439/4/2 440/7/2 437/5/2
f 433/8/3 436/9/3 438/10/3
f 438/10/3 437/11/3 433/8/3
f 436/12/4 435/13/4 439/14/4
f 439/14/4 438/15/4 436/12/4
f 434/16/5 433/15/5 437/12/5
f 437/12/5 440/17/5 434/16/5
f 441/1/10 442/2/10 443/3/10
f 443/3/1 444/4/1 441/1/1
f 445/5/6 446/6/9 447/4/9
f 447/4/9 448/7/6 445/5/6
f 441/8/3 444/9/3 446/10/3
f 446/10/3 445/11/3 441/8/3
f 444/12/4 443/13/4 447/14/4
f 447/14/4 446/15/4 444/12/4
f 442/16/5 441/15/5 445/12/5
f 445/12/5 448/17/5 442/16/5
f 449/1/1 450/2/1 451/3/1
f 451/3/10 452/4/10 449/1/10
f 453/5/2 454/6/2 455/4/2
f 455/4/2 456/7/2 453/5/2
f 449/8/3 452/9/3 454/10/3
f 454/10/3 453/11/3 449/8/3
f 452/12/4 451/13/4 455/14/4
f 455/14/4 454/15/4 452/12/4
f 450/16/5 449/15/5 453/12/5
f 453/12/5 456/17/5 450/16/5
f 457/1/1 458/2/1 459/3/1
f 459/3/10 460/4/10 457/1/10
f 461/5/2 462/6/2 463/4/2
f 463/4/2 464/7/2 461/5/2
f 457/8/3 460/9/3 462/10/3
f 462/10/3 461/11/3 457/8/3
f 460/12/4 459/13/4 463/14/4
f 463/14/4 462/15/4 460/12/4
f 458/16/5 457/15/5 461/12/5
f 461/12/5 464/17/5 458/16/5
f 465/1/1 466/2/1 467/3/1
f 467/3/1 468/4/1 465/1/1
f 469/5/2 470/6/9 471/4/9
f 471/4/9 472/7/2 469/5/2
f 465/8/3 468/9/3 470/10/3
f 470/10/3 469/11/3 465/8/3
f 468/12/4 467/13/4 471/14/4
f 471/14/4 470/15/4 468/12/4
f 466/16/5 465/15/5 469/12/5
f 469/12/5 472/17/5 466/16/5
f 473/1/1 474/2/1 475/3/1
f 475/3/1 476/4/1 473/1/1
f 477/5/2 478/6/9 479/4/9
f 479/4/9 480/7/2 477/5/2
f 473/8/3 476/9/3 478/10/3
f 478/10/3 477/11/3 473/8/3
f 476/12/4 475/13/4 479/14/4
f 479/14/4 478/15/4 476/12/4
f 474/16/5 473/15/5 477/12/5
f 477/12/5 480/17/5 474/16/5
f 481/1/1 482/2/1 483/3/1
f 483/3/1 484/4/1 481/1/1
f 485/5/2 486/6/2 487/4/2
f 487/4/2 488/7/2 485/5/2
f 481/8/3 484/9/3 486/10/3
f 486/10/3 485/11/3 481/8/3
f 484/12/4 483/13/4 487/14/4
f 487/14/4 486/15/4 484/12/4
f 482/16/5 481/15/5 485/12/5
f 485/12/5 488/17/5 482/16/5
f 489/1/1 490/2/1 491/3/1
f 491/3/1 492/4/1 489/1/1
f 493/5/2 494/6/2 495/4/2
f 495/4/2 496/7/2 493/5/2
f 489/8/3 492/9/3 494/10/3
f 494/10/3 493/11/3 489/8/3
f 492/12/4 491/13/4 495/14/4
f 495/14/4 494/15/4 492/12/4
f 490/16/5 489/15/5 493/12/5
f 493/12/5 496/17/5 490/16/5
f 497/1/1 498/2/1 499/3/1
f 499/3/1 500/4/1 497/1/1
f 501/5/2 502/6/2 503/4/2
f 503/4/2 504/7/2 501/5/2
f 497/8/3 500/9/3 502/10/3
f 502/10/3 501/11/3 497/8/3
f 500/12/4 499/13/4 503/14/4
f 503/14/4 502/15/4 500/12/4
f 498/16/5 497/15/5 501/12/5
f 501/12/5 504/17/5 498/16/5
f 505/1/1 506/2/1 507/3/1
f 507/3/1 508/4/1 505/1/1
f 509/5/2 510/6/2 511/4/2
f 511/4/2 512/7/2 509/5/2
f 505/8/3 508/9/3 510/10/3
f 510/10/3 509/11/3 505/8/3
f 508/12/4 507/13/4 511/14/4
f 511/14/4 510/15/4 508/12/4
f 506/16/5 505/15/5 509/12/5
f 509/12/5 512/17/5 506/16/5
f 513/1/1 514/2/1 515/3/1
f 515/3/1 516/4/1 513/1/1
f 517/5/13 518/6/14 519/4/14
f 519/4/14 520/7/15 517/5/13
f 513/8/3 516/9/3 518/10/3
f 518/10/3 517/11/3 513/8/3
f 516/12/4 515/13/4 519/14/4
f 519/14/4 518/15/4 516/12/4
f 514/16/5 513/15/5 517/12/5
f 517/12/5 520/17/5 514/16/5
f 521/1/1 522/2/1 523/3/1
f 523/3/1 524/4/1 521/1/1
f 525/5/13 526/6/14 527/4/14
f 527/4/14 528/7/15 525/5/13
f 521/8/3 524/9/3 526/10/3
f 526/10/3 525/11/3 521/8/3
f 524/12/4 523/13/4 527/14/4
f 527/14/4 526/15/4 524/12/4
f 522/16/5 521/15/5 525/12/5
f 525/12/5 528/17/5 522/16/5
f 529/1/1 530/2/1 531/3/1
f 531/3/1 532/4/1 529/1/1
f 533/5/2 534/6/2 535/4/2
f 535/4/2 536/7/2 533/5/2
f 529/8/3 532/9/3 534/10/3
f 534/10/3 533/11/3 529/8/3
f 532/12/4 531/13/4 535/14/4
f 535/14/4 534/15/4 532/12/4
f 530/16/5 529/15/5 533/12/5
f 533/12/5 536/17/5 530/16/5
f 537/1/1 538/2/1 539/3/1
f 539/3/1 540/4/1 537/1/1
f 541/5/2 542/6/15 543/4/15
f 543/4/15 544/7/2 541/5/2
f 537/8/3 540/9/3 542/10/3
f 542/10/3 541/11/3 537/8/3
f 540/12/4 539/13/4 543/14/4
f 543/14/4 542/15/4 540/12/4
f 538/16/5 537/15/5 541/12/5
f 541/12/5 544/17/5 538/16/5
f 545/1/1 546/2/1 547/3/1
f 547/3/1 548/4/1 545/1/1
f 549/5/14 550/6/13 551/4/9
f 551/4/9 552/7/14 549/5/14
f 545/8/3 548/9/3 550/10/3
f 550/10/3 549/11/3 545/8/3
f 548/12/4 547/13/4 551/14/4
f 551/14/4 550/15/4 548/12/4
f 546/16/5 545/15/5 549/12/5
f 549/12/5 552/17/5 546/16/5
f 553/1/1 554/2/1 555/3/1
f 555/3/16 556/4/16 553/1/10
f 557/5/14 558/6/15 559/4/13
f 559/4/13 560/7/14 557/5/14
f 553/8/3 556/9/3 558/10/3
f 558/10/3 557/11/3 553/8/3
f 556/12/4 555/13/4 559/14/4
f 559/14/4 558/15/4 556/12/4
f 554/16/5 553/15/5 557/12/5
f 557/12/5 560/17/5 554/16/5
f 561/1/1 562/2/1 563/3/1
f 563/3/1 564/4/1 561/1/1
f 565/5/15 566/6/2 567/4/2
f 567/4/2 568/7/15 565/5/15
f 561/8/3 564/9/3 566/10/3
f 566/10/3 565/11/3 561/8/3
f 564/12/4 563/13/4 567/14/4
f 567/14/4 566/15/4 564/12/4
f 562/16/5 561/15/5 565/12/5
f 565/12/5 568/17/5 562/16/5
f 569/1/1 570/2/1 571/3/1
f 571/3/1 572/4/1 569/1/1
f 573/5/15 574/6/2 575/4/2
f 575/4/2 576/7/15 573/5/15
f 569/8/3 572/9/3 574/10/3
f 574/10/3 573/11/3 569/8/3
f 572/12/4 571/13/4 575/14/4
f 575/14/4 574/15/4 572/12/4
f 570/16/5 569/15/5 573/12/5
f 573/12/5 576/17/5 570/16/5
