# Blender 4.4.3
# www.blender.org
mtllib PBOXA.mtl
o PBOXA
v -1.400259 -1.411480 -27.585297
v -0.615368 -1.411424 -27.585297
v -1.400258 0.675002 -27.585297
v -0.615367 0.675058 -27.585297
v 5.516419 -1.411480 -27.585297
v 6.301311 -1.411424 -27.585297
v 5.516419 0.675002 -27.585297
v 6.301311 0.675058 -27.585297
v 22.003315 -1.411480 -27.585293
v 22.788204 -1.411424 -27.585293
v 22.003315 0.675002 -27.585293
v 22.788204 0.675058 -27.585293
v -30.843657 -1.411480 -27.585297
v -30.058765 -1.411424 -27.585297
v -30.843655 0.675002 -27.585297
v -30.058765 0.675058 -27.585297
v -23.926977 -1.411480 -27.585297
v -23.142086 -1.411424 -27.585297
v -23.926977 0.675002 -27.585297
v -23.142086 0.675058 -27.585297
v -7.440083 -1.411480 -27.585293
v -6.655194 -1.411424 -27.585293
v -7.440083 0.675002 -27.585293
v -6.655194 0.675058 -27.585293
v 63.122475 -1.411480 -27.585297
v 63.907364 -1.411424 -27.585297
v 63.122475 0.675002 -27.585297
v 63.907364 0.675058 -27.585297
v 70.039154 -1.411480 -27.585297
v 70.824043 -1.411424 -27.585297
v 70.039154 0.675002 -27.585297
v 70.824043 0.675058 -27.585297
v 86.526047 -1.411480 -27.585293
v 87.310936 -1.411424 -27.585293
v 86.526047 0.675002 -27.585293
v 87.310936 0.675058 -27.585293
v 33.679104 -1.411480 -27.585297
v 34.463997 -1.411424 -27.585297
v 33.679104 0.675002 -27.585297
v 34.463997 0.675058 -27.585297
v 40.595779 -1.411480 -27.585297
v 41.380672 -1.411424 -27.585297
v 40.595779 0.675002 -27.585297
v 41.380672 0.675058 -27.585297
v 57.082676 -1.411480 -27.585293
v 57.867565 -1.411424 -27.585293
v 57.082676 0.675002 -27.585293
v 57.867565 0.675058 -27.585293
v 98.709587 -1.411480 -27.585297
v 99.494476 -1.411424 -27.585297
v 98.709587 0.675002 -27.585297
v 99.494476 0.675058 -27.585297
v 105.626266 -1.411480 -27.585297
v 106.411156 -1.411424 -27.585297
v 105.626266 0.675002 -27.585297
v 106.411156 0.675058 -27.585297
v 122.113159 -1.411480 -27.585293
v 122.898048 -1.411424 -27.585293
v 122.113159 0.675002 -27.585293
v 122.898048 0.675058 -27.585293
v 128.152969 -1.411480 -27.585297
v 128.937851 -1.411424 -27.585297
v 128.152969 0.675002 -27.585297
v 128.937866 0.675058 -27.585297
v 135.069641 -1.411480 -27.585297
v 135.854538 -1.411424 -27.585297
v 135.069641 0.675002 -27.585297
v 135.854538 0.675058 -27.585297
v 151.556534 -1.411480 -27.585293
v 152.341431 -1.411424 -27.585293
v 151.556534 0.675002 -27.585293
v 152.341431 0.675058 -27.585293
v 153.563065 3.107924 -26.404726
v 153.563065 3.107924 -27.286953
v 153.563065 4.445887 -27.300043
v 153.563065 4.441626 -26.436722
v 88.532562 3.107924 -26.404726
v 88.532562 3.107924 -27.286953
v 88.532562 4.445887 -27.300043
v 88.532562 4.441626 -26.436722
v 28.527451 3.107925 -28.913593
v 28.527451 3.107925 -28.031372
v 28.527451 4.445888 -28.926689
v 28.527451 4.441624 -28.063366
v 28.527451 3.107925 -21.395931
v 28.527451 3.107926 -20.513710
v 28.527451 4.445889 -21.409027
v 28.527451 4.441625 -20.545706
v 24.009773 3.107923 -26.404724
v 24.009773 3.107923 -27.286949
v 24.009773 4.445887 -27.300041
v 24.009773 4.441624 -26.436718
v -35.995338 3.107923 -28.913589
v -35.995338 3.107923 -28.031370
v -35.995338 4.445887 -28.926687
v -35.995338 4.441623 -28.063364
v -35.995338 3.107923 -21.395927
v -35.995338 3.107924 -20.513708
v -35.995338 4.445888 -21.409023
v -35.995338 4.441624 -20.545702
v 279.029602 17.862589 -408.372955
v 279.777161 17.862589 -408.841492
v 279.788239 19.200552 -408.848419
v 279.056732 19.196289 -408.389954
v 274.652740 17.862587 -417.890259
v 273.905182 17.862587 -417.421753
v 273.894104 19.200550 -417.414795
v 274.625610 19.196287 -417.873291
vn -0.0000 -0.0000 1.0000
vn 1.0000 -0.0000 -0.0000
vn -1.0000 -0.0000 -0.0000
vn 0.5311 -0.0000 0.8473
vn 0.5310 -0.0000 0.8474
vn -0.5311 -0.0000 -0.8473
vn -0.5310 -0.0000 -0.8473
vt 0.070220 1.000379
vt 0.237226 1.000399
vt 0.070220 1.757694
vt 0.237227 1.757714
vt 0.060000 1.000499
vt 0.240000 1.000499
vt 0.240000 1.760000
vt 0.060000 1.760000
s 1
usemtl PBOXA.002
f 1/1/1 2/2/1 3/3/1
f 4/4/1 3/3/1 2/2/1
f 5/1/1 6/2/1 7/3/1
f 8/4/1 7/3/1 6/2/1
f 9/1/1 10/2/1 11/3/1
f 12/4/1 11/3/1 10/2/1
f 13/1/1 14/2/1 15/3/1
f 16/4/1 15/3/1 14/2/1
f 17/1/1 18/2/1 19/3/1
f 20/4/1 19/3/1 18/2/1
f 21/1/1 22/2/1 23/3/1
f 24/4/1 23/3/1 22/2/1
f 25/1/1 26/2/1 27/3/1
f 28/4/1 27/3/1 26/2/1
f 29/1/1 30/2/1 31/3/1
f 32/4/1 31/3/1 30/2/1
f 33/1/1 34/2/1 35/3/1
f 36/4/1 35/3/1 34/2/1
f 37/1/1 38/2/1 39/3/1
f 40/4/1 39/3/1 38/2/1
f 41/1/1 42/2/1 43/3/1
f 44/4/1 43/3/1 42/2/1
f 45/1/1 46/2/1 47/3/1
f 48/4/1 47/3/1 46/2/1
f 49/1/1 50/2/1 51/3/1
f 52/4/1 51/3/1 50/2/1
f 53/1/1 54/2/1 55/3/1
f 56/4/1 55/3/1 54/2/1
f 57/1/1 58/2/1 59/3/1
f 60/4/1 59/3/1 58/2/1
f 61/1/1 62/2/1 63/3/1
f 64/4/1 63/3/1 62/2/1
f 65/1/1 66/2/1 67/3/1
f 68/4/1 67/3/1 66/2/1
f 69/1/1 70/2/1 71/3/1
f 72/4/1 71/3/1 70/2/1
f 73/5/2 74/6/2 75/7/2
f 75/7/2 76/8/2 73/5/2
f 77/5/2 78/6/2 79/7/2
f 79/7/2 80/8/2 77/5/2
f 81/6/3 82/5/3 83/7/3
f 84/8/3 83/7/3 82/5/3
f 85/6/3 86/5/3 87/7/3
f 88/8/3 87/7/3 86/5/3
f 89/5/2 90/6/2 91/7/2
f 91/7/2 92/8/2 89/5/2
f 93/6/3 94/5/3 95/7/3
f 96/8/3 95/7/3 94/5/3
f 97/6/3 98/5/3 99/7/3
f 100/8/3 99/7/3 98/5/3
f 101/5/4 102/6/4 103/7/4
f 103/7/4 104/8/5 101/5/4
f 105/5/6 106/6/7 107/7/6
f 107/7/6 108/8/6 105/5/6
