# Blender 4.4.3
# www.blender.org
mtllib PEOPLSDB.mtl
o PEOPLSDB
v -75.200737 0.051565 20.900673
v -75.200737 0.051565 21.963507
v -75.200737 1.878815 21.963507
v -75.200737 1.878815 20.900673
v -83.928490 -0.748202 19.072075
v -83.928490 -0.748201 20.156116
v -83.928490 1.050640 20.156116
v -83.928490 1.050639 19.072075
v -81.767105 0.833619 22.561609
v -81.767105 0.833619 23.701056
v -81.767105 2.630508 23.701056
v -81.767105 2.630508 22.561609
v -85.756271 -0.199508 20.331463
v -85.756271 -0.199508 21.394297
v -85.756271 1.627742 21.394297
v -85.756271 1.627742 20.331463
v -94.274445 -0.828655 18.745953
v -94.274445 -0.828655 19.829996
v -94.274445 0.970186 19.829996
v -94.274445 0.970186 18.745953
v -83.928490 1.465061 24.295940
v -83.928490 1.465061 25.379984
v -83.928490 3.263903 25.379984
v -83.928490 3.263903 24.295940
v -94.274445 1.384609 23.969820
v -94.274437 1.384609 25.053862
v -94.274437 3.183450 25.053862
v -94.274445 3.183450 23.969820
v -75.200737 2.360496 26.316294
v -75.200737 2.360496 27.379128
v -75.200737 4.187747 27.379128
v -75.200737 4.187747 26.316294
v -85.756271 2.109423 25.747084
v -85.756271 2.109423 26.809917
v -85.756271 3.936674 26.809917
v -85.756271 3.936674 25.747084
v -101.116127 0.057424 21.189762
v -101.116127 0.057424 22.252598
v -101.116127 1.884675 22.252598
v -101.116127 1.884675 21.189762
v -109.843880 -0.742343 19.361166
v -109.843880 -0.742342 20.445208
v -109.843880 1.056500 20.445208
v -109.843880 1.056499 19.361166
v -107.682495 0.839479 22.850700
v -107.682495 0.839479 23.990147
v -107.682495 2.636367 23.990147
v -107.682495 2.636367 22.850700
v -111.671661 -0.193649 20.620554
v -111.671661 -0.193649 21.683388
v -111.671661 1.633602 21.683388
v -111.671661 1.633602 20.620552
v -120.189835 -0.822796 19.035044
v -120.189835 -0.822796 20.119087
v -120.189835 0.976047 20.119087
v -120.189835 0.976046 19.035044
v -109.843880 1.470921 24.585033
v -109.843880 1.470921 25.669075
v -109.843880 3.269762 25.669075
v -109.843880 3.269762 24.585032
v -120.189835 1.390468 24.258911
v -120.189835 1.390468 25.342953
v -120.189835 3.189310 25.342953
v -120.189835 3.189310 24.258911
v -101.116127 2.366356 26.605385
v -101.116127 2.366356 27.668219
v -101.116127 4.193606 27.668221
v -101.116127 4.193606 26.605385
v -111.671661 2.115283 26.036175
v -111.671661 2.115283 27.099009
v -111.671661 3.942533 27.099009
v -111.671661 3.942533 26.036175
v -157.565948 0.827154 24.465839
v -157.565948 0.827154 25.528675
v -157.565948 2.654405 25.528675
v -157.565948 2.654405 24.465839
v -166.293716 0.027388 22.637243
v -166.293701 0.027388 23.721285
v -166.293701 1.826230 23.721285
v -166.293716 1.826230 22.637243
v -164.132324 1.609208 26.126778
v -164.132324 1.609208 27.266224
v -164.132324 3.406097 27.266224
v -164.132324 3.406097 26.126778
v -168.121490 0.576081 23.896631
v -168.121490 0.576081 24.959465
v -168.121490 2.403332 24.959465
v -168.121490 2.403332 23.896629
v -176.639664 -0.053065 22.311121
v -176.639664 -0.053065 23.395164
v -176.639664 1.745777 23.395164
v -176.639664 1.745777 22.311121
v -166.293716 2.240651 27.861111
v -166.293701 2.240651 28.945152
v -166.293701 4.039493 28.945152
v -166.293716 4.039492 27.861109
v -176.639664 2.160198 27.534988
v -176.639664 2.160198 28.619030
v -176.639664 3.959040 28.619030
v -176.639664 3.959040 27.534988
v -157.565948 3.136085 29.881462
v -157.565948 3.136085 30.944296
v -157.565948 4.963336 30.944298
v -157.565948 4.963336 29.881462
v -168.121490 2.885012 29.312252
v -168.121490 2.885012 30.375086
v -168.121490 4.712264 30.375086
v -168.121490 4.712264 29.312252
v 314.717957 -1.615195 21.045532
v 314.717957 -1.615195 22.108368
v 314.717957 0.212056 22.108368
v 314.717957 0.212056 21.045532
v 305.990204 -2.414962 19.216936
v 305.990204 -2.414962 20.300978
v 305.990204 -0.616119 20.300978
v 305.990204 -0.616120 19.216936
v 308.151581 -0.833141 22.706470
v 308.151581 -0.833140 23.845917
v 308.151581 0.963748 23.845917
v 308.151581 0.963748 22.706470
v 304.162415 -1.866268 20.476324
v 304.162415 -1.866268 21.539158
v 304.162415 -0.039017 21.539158
v 304.162415 -0.039017 20.476322
v 295.644257 -2.495414 18.890814
v 295.644257 -2.495414 19.974857
v 295.644257 -0.696572 19.974857
v 295.644257 -0.696573 18.890814
v 305.990204 -0.201698 24.440804
v 305.990204 -0.201698 25.524845
v 305.990204 1.597143 25.524845
v 305.990204 1.597143 24.440802
v 295.644257 -0.282151 24.114681
v 295.644257 -0.282151 25.198723
v 295.644257 1.516691 25.198723
v 295.644257 1.516691 24.114681
v 314.717957 0.693736 26.461155
v 314.717957 0.693736 27.523989
v 314.717957 2.520987 27.523991
v 314.717957 2.520987 26.461155
v 304.162415 0.442663 25.891945
v 304.162415 0.442663 26.954779
v 304.162415 2.269914 26.954779
v 304.162415 2.269914 25.891945
v 371.167786 -1.615195 24.632221
v 371.167786 -1.615195 25.695057
v 371.167786 0.212056 25.695057
v 371.167786 0.212056 24.632221
v 362.440033 -2.414961 22.803625
v 362.440033 -2.414961 23.887667
v 362.440033 -0.616119 23.887667
v 362.440033 -0.616119 22.803625
v 364.601410 -0.833141 26.293159
v 364.601410 -0.833140 27.432606
v 364.601410 0.963748 27.432606
v 364.601410 0.963748 26.293159
v 360.612244 -1.866268 24.063013
v 360.612244 -1.866268 25.125847
v 360.612244 -0.039017 25.125847
v 360.612244 -0.039017 24.063011
v 352.094086 -2.495414 22.477503
v 352.094086 -2.495414 23.561546
v 352.094086 -0.696572 23.561546
v 352.094086 -0.696572 22.477503
v 362.440033 -0.201698 28.027493
v 362.440033 -0.201698 29.111534
v 362.440033 1.597143 29.111534
v 362.440033 1.597143 28.027491
v 352.094086 -0.282151 27.701370
v 352.094086 -0.282151 28.785412
v 352.094086 1.516691 28.785412
v 352.094086 1.516691 27.701370
v 371.167786 0.693736 30.047844
v 371.167786 0.693736 31.110678
v 371.167786 2.520987 31.110680
v 371.167786 2.520987 30.047844
v 360.612244 0.442663 29.478634
v 360.612244 0.442663 30.541468
v 360.612244 2.269914 30.541468
v 360.612244 2.269914 29.478634
v 397.125580 -1.615195 24.306873
v 397.125580 -1.615195 25.369709
v 397.125580 0.212056 25.369709
v 397.125580 0.212056 24.306873
v 388.397827 -2.414961 22.478277
v 388.397827 -2.414961 23.562319
v 388.397827 -0.616119 23.562319
v 388.397827 -0.616119 22.478277
v 390.559204 -0.833141 25.967812
v 390.559204 -0.833140 27.107258
v 390.559204 0.963748 27.107258
v 390.559204 0.963748 25.967812
v 386.570038 -1.866268 23.737665
v 386.570038 -1.866268 24.800499
v 386.570038 -0.039017 24.800499
v 386.570038 -0.039017 23.737663
v 378.051880 -2.495414 22.152155
v 378.051880 -2.495414 23.236198
v 378.051880 -0.696572 23.236198
v 378.051880 -0.696572 22.152155
v 388.397827 -0.201698 27.702145
v 388.397827 -0.201698 28.786186
v 388.397827 1.597143 28.786186
v 388.397827 1.597143 27.702143
v 378.051880 -0.282151 27.376022
v 378.051880 -0.282151 28.460064
v 378.051880 1.516691 28.460064
v 378.051880 1.516691 27.376022
v 397.125580 0.693736 29.722496
v 397.125580 0.693736 30.785330
v 397.125580 2.520987 30.785332
v 397.125580 2.520987 29.722496
v 386.570038 0.442663 29.153286
v 386.570038 0.442663 30.216120
v 386.570038 2.269914 30.216120
v 386.570038 2.269914 29.153286
v 553.700500 -1.615213 -214.800781
v 554.720154 -1.615213 -215.100739
v 554.720154 0.212038 -215.100739
v 553.700500 0.212038 -214.800781
v 554.409485 -2.414979 -205.911743
v 555.449463 -2.414979 -206.217697
v 555.449463 -0.616137 -206.217697
v 554.409485 -0.616137 -205.911743
v 557.147156 -0.833158 -208.970108
v 558.240234 -0.833158 -209.291687
v 558.240234 0.963730 -209.291687
v 557.147156 0.963730 -208.970108
v 556.133484 -1.866284 -204.513702
v 557.153137 -1.866284 -204.813660
v 557.153137 -0.039034 -204.813660
v 556.133484 -0.039034 -204.513702
v 557.016541 -2.495430 -195.894348
v 558.056519 -2.495430 -196.200287
v 558.056519 -0.696589 -196.200287
v 557.016541 -0.696589 -195.894348
v 559.420959 -0.201716 -207.386063
v 560.460938 -0.201716 -207.692017
v 560.460938 1.597125 -207.692017
v 559.420959 1.597125 -207.386063
v 562.028015 -0.282168 -197.368668
v 563.067993 -0.282168 -197.674622
v 563.067993 1.516674 -197.674622
v 562.028015 1.516674 -197.368668
v 558.895996 0.693719 -216.329224
v 559.915588 0.693719 -216.629181
v 559.915588 2.520968 -216.629181
v 558.895996 2.520968 -216.329224
v 561.328979 0.442646 -206.042145
v 562.348572 0.442646 -206.342102
v 562.348572 2.269897 -206.342102
v 561.328979 2.269897 -206.042145
v 541.378113 -1.615217 -270.005890
v 542.397766 -1.615217 -270.305847
v 542.397766 0.212034 -270.305847
v 541.378113 0.212034 -270.005890
v 542.087097 -2.414983 -261.116882
v 543.127075 -2.414983 -261.422821
v 543.127075 -0.616141 -261.422821
v 542.087097 -0.616141 -261.116882
v 544.824768 -0.833162 -264.175232
v 545.917847 -0.833162 -264.496826
v 545.917847 0.963726 -264.496826
v 544.824768 0.963726 -264.175232
v 543.811096 -1.866289 -259.718842
v 544.830750 -1.866289 -260.018799
v 544.830750 -0.039039 -260.018799
v 543.811096 -0.039039 -259.718842
v 544.694153 -2.495434 -251.099472
v 545.734131 -2.495434 -251.405411
v 545.734131 -0.696593 -251.405411
v 544.694153 -0.696593 -251.099472
v 547.098572 -0.201720 -262.591187
v 548.138550 -0.201720 -262.897156
v 548.138550 1.597121 -262.897156
v 547.098572 1.597121 -262.591187
v 549.705627 -0.282172 -252.573792
v 550.745605 -0.282172 -252.879745
v 550.745605 1.516670 -252.879745
v 549.705627 1.516670 -252.573792
v 546.573608 0.693714 -271.534332
v 547.593201 0.693714 -271.834290
v 547.593201 2.520964 -271.834290
v 546.573608 2.520964 -271.534332
v 549.006592 0.442642 -261.247284
v 550.026184 0.442642 -261.547241
v 550.026184 2.269892 -261.547241
v 549.006592 2.269892 -261.247284
v 534.308228 -1.575722 -295.023315
v 535.327881 -1.575722 -295.323273
v 535.327881 0.251529 -295.323273
v 534.308228 0.251529 -295.023315
v 535.017212 -2.375488 -286.134308
v 536.057190 -2.375488 -286.440247
v 536.057190 -0.576646 -286.440247
v 535.017212 -0.576646 -286.134308
v 537.754883 -0.793667 -289.192657
v 538.847961 -0.793667 -289.514252
v 538.847961 1.003221 -289.514252
v 537.754883 1.003221 -289.192657
v 536.741211 -1.826795 -284.736267
v 537.760864 -1.826795 -285.036224
v 537.760864 0.000456 -285.036224
v 536.741211 0.000457 -284.736267
v 537.624268 -2.455940 -276.116882
v 538.664246 -2.455940 -276.422852
v 538.664246 -0.657098 -276.422852
v 537.624268 -0.657098 -276.116882
v 540.028687 -0.162225 -287.608612
v 541.068665 -0.162225 -287.914581
v 541.068665 1.636616 -287.914551
v 540.028687 1.636616 -287.608612
v 542.635742 -0.242677 -277.591217
v 543.675720 -0.242677 -277.897156
v 543.675720 1.556165 -277.897156
v 542.635742 1.556165 -277.591217
v 539.503723 0.733209 -296.551758
v 540.523315 0.733209 -296.851715
v 540.523315 2.560460 -296.851715
v 539.503723 2.560460 -296.551758
v 541.936707 0.482137 -286.264709
v 542.956299 0.482137 -286.564667
v 542.956299 2.309387 -286.564667
v 541.936707 2.309387 -286.264709
v 440.986145 13.537766 -475.629181
v 441.603149 13.537766 -474.763763
v 441.603149 15.365017 -474.763763
v 440.986145 15.365017 -475.629181
v 432.818115 12.738002 -472.051361
v 433.447449 12.738002 -471.168671
v 433.447449 14.536843 -471.168671
v 432.818115 14.536843 -472.051361
v 436.603790 14.319821 -470.464783
v 437.265289 14.319821 -469.537018
v 437.265289 16.116709 -469.537018
v 436.603790 16.116709 -470.464783
v 432.061005 13.286695 -469.964813
v 432.678009 13.286695 -469.099426
v 432.678009 15.113945 -469.099426
v 432.061005 15.113945 -469.964813
v 424.204742 12.657549 -466.310730
v 424.834045 12.657549 -465.428070
v 424.834045 14.456389 -465.428070
v 424.204742 14.456389 -466.310730
v 435.850739 14.951264 -467.797882
v 436.480072 14.951264 -466.915222
v 436.480072 16.750107 -466.915222
v 435.850739 16.750105 -467.797882
v 427.237366 14.870811 -462.057281
v 427.866669 14.870811 -461.174591
v 427.866669 16.669655 -461.174591
v 427.237366 16.669655 -462.057281
v 444.130096 15.846699 -471.219574
v 444.747101 15.846699 -470.354156
v 444.747101 17.673948 -470.354156
v 444.130096 17.673948 -471.219574
v 435.204926 15.595626 -465.555206
v 435.821930 15.595626 -464.689819
v 435.821930 17.422878 -464.689819
v 435.204926 17.422878 -465.555206
v 411.588379 14.086316 -454.530670
v 412.205383 14.086316 -453.665253
v 412.205383 15.913567 -453.665253
v 411.588379 15.913567 -454.530670
v 403.420349 13.286551 -450.952850
v 404.049683 13.286551 -450.070160
v 404.049683 15.085392 -450.070160
v 403.420349 15.085392 -450.952850
v 407.206024 14.868370 -449.366272
v 407.867523 14.868370 -448.438507
v 407.867523 16.665258 -448.438507
v 407.206024 16.665258 -449.366272
v 402.663239 13.835243 -448.866302
v 403.280243 13.835244 -448.000916
v 403.280243 15.662495 -448.000916
v 402.663239 15.662494 -448.866302
v 394.806976 13.206099 -445.212219
v 395.436279 13.206099 -444.329559
v 395.436279 15.004939 -444.329559
v 394.806976 15.004939 -445.212219
v 406.452972 15.499814 -446.699371
v 407.082306 15.499814 -445.816711
v 407.082306 17.298655 -445.816711
v 406.452972 17.298655 -446.699371
v 397.839600 15.419360 -440.958771
v 398.468903 15.419360 -440.076080
v 398.468903 17.218203 -440.076080
v 397.839600 17.218203 -440.958771
v 414.732330 16.395247 -450.121063
v 415.349335 16.395247 -449.255646
v 415.349335 18.222498 -449.255646
v 414.732330 18.222498 -450.121063
v 405.807159 16.144175 -444.456696
v 406.424164 16.144175 -443.591309
v 406.424164 17.971424 -443.591309
v 405.807159 17.971424 -444.456696
v 391.252747 14.633135 -440.295624
v 391.869751 14.633135 -439.430206
v 391.869751 16.460386 -439.430206
v 391.252747 16.460386 -440.295624
v 383.084717 13.833369 -436.717804
v 383.714050 13.833369 -435.835114
v 383.714050 15.632211 -435.835114
v 383.084717 15.632211 -436.717804
v 386.870392 15.415190 -435.131226
v 387.531891 15.415190 -434.203461
v 387.531891 17.212078 -434.203461
v 386.870392 17.212078 -435.131226
v 382.327606 14.382063 -434.631256
v 382.944611 14.382063 -433.765869
v 382.944611 16.209314 -433.765869
v 382.327606 16.209314 -434.631256
v 374.471344 13.752917 -430.977173
v 375.100647 13.752917 -430.094513
v 375.100647 15.551758 -430.094513
v 374.471344 15.551758 -430.977173
v 386.117340 16.046633 -432.464325
v 386.746674 16.046633 -431.581665
v 386.746674 17.845474 -431.581665
v 386.117340 17.845474 -432.464325
v 377.503967 15.966180 -426.723724
v 378.133270 15.966180 -425.841034
v 378.133270 17.765020 -425.841034
v 377.503967 17.765020 -426.723724
v 394.396698 16.942066 -435.886017
v 395.013702 16.942066 -435.020599
v 395.013702 18.769318 -435.020599
v 394.396698 18.769318 -435.886017
v 385.471527 16.690994 -430.221649
v 386.088531 16.690994 -429.356262
v 386.088531 18.518244 -429.356262
v 385.471527 18.518244 -430.221649
v -281.908722 21.740620 -277.018677
v -282.971527 21.740618 -277.021912
v -282.971527 23.567869 -277.021912
v -281.908722 23.567869 -277.018677
v -280.053528 20.940853 -285.740814
v -281.137573 20.940853 -285.744141
v -281.137573 22.739695 -285.744141
v -280.053528 22.739695 -285.740814
v -283.549622 22.522673 -283.590088
v -284.689056 22.522673 -283.593567
v -284.689056 24.319561 -283.593567
v -283.549622 24.319561 -283.590088
v -281.307343 21.489546 -287.572449
v -282.370178 21.489546 -287.575684
v -282.370178 23.316797 -287.575684
v -281.307343 23.316797 -287.572449
v -279.695892 20.860397 -296.085724
v -280.779907 20.860397 -296.089050
v -280.779907 22.659239 -296.089050
v -279.695892 22.659239 -296.085724
v -285.277374 23.154116 -285.756744
v -286.361389 23.154116 -285.760040
v -286.361389 24.952957 -285.760040
v -285.277374 24.952957 -285.756744
v -284.919708 23.073660 -296.101654
v -286.003754 23.073662 -296.104950
v -286.003754 24.872501 -296.104950
v -284.919708 24.872501 -296.101654
v -287.324310 24.049549 -277.035187
v -288.387146 24.049549 -277.038422
v -288.387146 25.876801 -277.038422
v -287.324310 25.876801 -277.035187
v -286.722931 23.798477 -287.588928
v -287.785767 23.798477 -287.592163
v -287.785767 25.625727 -287.592163
v -286.722931 25.625727 -287.588928
v -282.353516 21.740618 -302.974792
v -283.416321 21.740616 -302.978027
v -283.416321 23.567867 -302.978027
v -282.353516 23.567867 -302.974792
v -280.498322 20.940851 -311.696930
v -281.582367 20.940851 -311.700256
v -281.582367 22.739693 -311.700256
v -280.498322 22.739693 -311.696930
v -283.994415 22.522671 -309.546204
v -285.133850 22.522671 -309.549683
v -285.133850 24.319559 -309.549683
v -283.994415 24.319559 -309.546204
v -281.752136 21.489544 -313.528564
v -282.814972 21.489544 -313.531799
v -282.814972 23.316795 -313.531799
v -281.752136 23.316795 -313.528564
v -280.140686 20.860395 -322.041840
v -281.224701 20.860395 -322.045166
v -281.224701 22.659237 -322.045166
v -280.140686 22.659237 -322.041840
v -285.722168 23.154114 -311.712860
v -286.806213 23.154114 -311.716156
v -286.806213 24.952955 -311.716156
v -285.722168 24.952955 -311.712860
v -285.364502 23.073658 -322.057770
v -286.448547 23.073660 -322.061066
v -286.448547 24.872499 -322.061066
v -285.364502 24.872499 -322.057770
v -287.769104 24.049547 -302.991302
v -288.831940 24.049547 -302.994537
v -288.831940 25.876799 -302.994537
v -287.769104 25.876799 -302.991302
v -287.167725 23.798475 -313.545044
v -288.230560 23.798475 -313.548279
v -288.230560 25.625725 -313.548279
v -287.167725 25.625725 -313.545044
v -282.162415 21.740614 -359.440491
v -283.225220 21.740612 -359.443726
v -283.225220 23.567863 -359.443726
v -282.162415 23.567863 -359.440491
v -280.307220 20.940845 -368.162628
v -281.391266 20.940845 -368.165955
v -281.391266 22.739687 -368.165955
v -280.307220 22.739687 -368.162628
v -283.803314 22.522667 -366.011902
v -284.942749 22.522667 -366.015381
v -284.942749 24.319555 -366.015381
v -283.803314 24.319555 -366.011902
v -281.561035 21.489538 -369.994263
v -282.623871 21.489538 -369.997498
v -282.623871 23.316790 -369.997498
v -281.561035 23.316790 -369.994263
v -279.949585 20.860392 -378.507538
v -281.033600 20.860392 -378.510864
v -281.033600 22.659233 -378.510864
v -279.949585 22.659233 -378.507538
v -285.531067 23.154108 -368.178558
v -286.615112 23.154108 -368.181854
v -286.615112 24.952950 -368.181854
v -285.531067 24.952950 -368.178558
v -285.173401 23.073654 -378.523468
v -286.257446 23.073656 -378.526764
v -286.257446 24.872496 -378.526764
v -285.173401 24.872496 -378.523468
v -287.578003 24.049543 -359.457001
v -288.640839 24.049543 -359.460236
v -288.640839 25.876795 -359.460236
v -287.578003 25.876795 -359.457001
v -286.976624 23.798470 -370.010742
v -288.039459 23.798470 -370.013977
v -288.039459 25.625719 -370.013977
v -286.976624 25.625719 -370.010742
v 75.284927 0.362937 21.111958
v 75.284927 0.362937 22.174791
v 75.284927 2.190187 22.174791
v 75.284927 2.190187 21.111958
v 66.557175 -0.436830 19.283360
v 66.557175 -0.436829 20.367401
v 66.557175 1.362012 20.367401
v 66.557175 1.362011 19.283360
v 68.718559 1.144991 22.772894
v 68.718559 1.144991 23.912340
v 68.718559 2.941879 23.912340
v 68.718559 2.941879 22.772894
v 56.376965 0.111864 20.542747
v 56.376968 0.111864 21.605581
v 56.376968 1.939114 21.605581
v 56.376965 1.939113 20.542747
v 47.858795 -0.517283 18.957237
v 47.858795 -0.517282 20.041281
v 47.858795 1.281559 20.041281
v 47.858795 1.281558 18.957237
v 66.557175 1.776433 24.507225
v 66.557175 1.776433 25.591269
v 66.557175 3.575275 25.591269
v 66.557175 3.575275 24.507225
v 47.858795 1.695980 24.181105
v 47.858795 1.695981 25.265146
v 47.858795 3.494822 25.265146
v 47.858795 3.494822 24.181105
v 75.284927 2.671868 26.527578
v 75.284927 2.671868 27.590412
v 75.284927 4.499118 27.590412
v 75.284927 4.499118 26.527578
v 58.717316 2.420795 25.958368
v 58.717319 2.420795 27.021202
v 58.717319 4.248046 27.021202
v 58.717316 4.248046 25.958368
v 62.280987 4.004371 30.458542
v 62.280991 4.004371 31.542583
v 62.280991 5.803212 31.542583
v 62.280987 5.803214 30.458542
v 70.799156 4.729187 32.235806
v 70.799164 4.729187 33.298641
v 70.799164 6.556437 33.298637
v 70.799156 6.556437 32.235806
v 53.497612 3.341296 28.284622
v 53.497612 3.341296 29.424070
v 53.497612 5.138186 29.424070
v 53.497612 5.138184 28.284624
v 51.336231 3.972738 30.018957
v 51.336231 3.972738 31.102999
v 51.336231 5.771579 31.102999
v 51.336231 5.771580 30.018955
v 60.063984 4.868174 32.039307
v 60.063984 4.868174 33.102142
v 60.063984 6.695424 33.102142
v 60.063984 6.695424 32.039307
v 60.115082 0.567219 21.697168
v 60.115082 0.567219 22.760002
v 60.115082 2.394470 22.760002
v 60.115082 2.394469 21.697168
v 60.115082 2.876150 27.112789
v 60.115082 2.876150 28.175625
v 60.115082 4.703401 28.175625
v 60.115082 4.703401 27.112791
v 62.208572 -0.244608 19.894361
v 62.208572 -0.244608 20.978405
v 62.208572 1.554233 20.978405
v 62.208572 1.554233 19.894361
v 62.208572 1.968654 25.118229
v 62.208572 1.968654 26.202271
v 62.208572 3.767495 26.202271
v 62.208572 3.767495 25.118229
v 105.962341 -0.028601 21.111958
v 105.962341 -0.028601 22.174791
v 105.962341 1.798650 22.174791
v 105.962341 1.798650 21.111958
v 96.709778 -0.436830 19.283360
v 96.709778 -0.436829 20.367401
v 96.709778 1.362012 20.367401
v 96.709778 1.362011 19.283360
v 98.871155 0.372964 22.772894
v 98.871155 0.372964 23.912340
v 98.871155 2.169853 23.912340
v 98.871155 2.169853 22.772894
v 84.920410 -0.279674 20.542746
v 84.920410 -0.279674 21.605581
v 84.920410 1.547577 21.605581
v 84.920410 1.547577 20.542747
v 76.402237 -0.517283 18.957237
v 76.402237 -0.517282 20.041281
v 76.402237 1.281559 20.041281
v 76.402237 1.281558 18.957237
v 96.709778 0.624109 24.507225
v 96.709778 0.624109 25.591267
v 96.709778 2.422951 25.591267
v 96.709778 2.422951 24.507225
v 76.402237 0.543656 24.181103
v 76.402237 0.543657 25.265146
v 76.402237 2.342498 25.265146
v 76.402237 2.342498 24.181105
v 105.962341 1.170495 26.527578
v 105.962341 1.170495 27.590412
v 105.962341 2.997746 27.590412
v 105.962341 2.997746 26.527578
v 87.260765 0.919422 25.958368
v 87.260765 0.919422 27.021202
v 87.260765 2.746673 27.021202
v 87.260765 2.746672 25.958368
v 91.464821 1.931986 30.458542
v 91.464821 1.931986 31.542583
v 91.464821 3.730827 31.542583
v 91.464821 3.730828 30.458542
v 100.951759 2.292215 32.235806
v 100.951759 2.292216 33.298641
v 100.951759 4.119466 33.298641
v 100.951759 4.119465 32.235806
v 82.041054 1.601764 28.284622
v 82.041054 1.601764 29.424070
v 82.041054 3.398653 29.424070
v 82.041054 3.398652 28.284624
v 79.879677 1.900353 30.018957
v 79.879677 1.900353 31.102999
v 79.879677 3.699195 31.102999
v 79.879677 3.699195 30.018955
v 88.607430 2.431203 32.039310
v 88.607430 2.431203 33.102142
v 88.607430 4.258453 33.102142
v 88.607430 4.258453 32.039310
v 88.658524 0.175681 21.697168
v 88.658524 0.175681 22.760002
v 88.658524 2.002932 22.760002
v 88.658524 2.002932 21.697168
v 88.658524 1.374778 27.112789
v 88.658524 1.374778 28.175625
v 88.658524 3.202028 28.175625
v 88.658524 3.202028 27.112789
v 91.392403 -0.244608 19.894361
v 91.392403 -0.244608 20.978405
v 91.392403 1.554233 20.978405
v 91.392403 1.554233 19.894361
v 91.392403 0.816331 25.118229
v 91.392403 0.816331 26.202271
v 91.392403 2.615172 26.202271
v 91.392403 2.615172 25.118229
v 46.223595 -0.028601 21.111952
v 46.223595 -0.028601 22.174786
v 46.223595 1.798650 22.174786
v 46.223595 1.798650 21.111952
v 36.971027 -0.436830 19.283354
v 36.971027 -0.436829 20.367395
v 36.971027 1.362012 20.367395
v 36.971027 1.362011 19.283354
v 39.132408 0.372964 22.772888
v 39.132404 0.372964 23.912334
v 39.132404 2.169853 23.912334
v 39.132408 2.169853 22.772888
v 25.181660 -0.279674 20.542742
v 25.181660 -0.279674 21.605576
v 25.181660 1.547577 21.605576
v 25.181660 1.547577 20.542742
v 16.663490 -0.517283 18.957233
v 16.663486 -0.517282 20.041275
v 16.663486 1.281559 20.041275
v 16.663490 1.281558 18.957233
v 36.971031 0.624109 24.507219
v 36.971031 0.624109 25.591263
v 36.971031 2.422951 25.591263
v 36.971031 2.422951 24.507219
v 16.663486 0.543656 24.181099
v 16.663486 0.543657 25.265141
v 16.663486 2.342498 25.265141
v 16.663486 2.342498 24.181099
v 46.223595 1.170495 26.527573
v 46.223595 1.170495 27.590408
v 46.223595 2.997746 27.590408
v 46.223595 2.997746 26.527573
v 27.522011 0.919422 25.958363
v 27.522011 0.919422 27.021198
v 27.522011 2.746673 27.021196
v 27.522011 2.746672 25.958363
v 31.726070 1.931986 30.458536
v 31.726067 1.931986 31.542578
v 31.726067 3.730827 31.542580
v 31.726070 3.730828 30.458536
v 41.213013 2.292215 32.235802
v 41.213013 2.292216 33.298637
v 41.213013 4.119466 33.298637
v 41.213013 4.119465 32.235802
v 22.302307 1.601764 28.284618
v 22.302303 1.601764 29.424065
v 22.302303 3.398653 29.424065
v 22.302307 3.398652 28.284618
v 20.140923 1.900353 30.018951
v 20.140919 1.900353 31.102993
v 20.140919 3.699195 31.102993
v 20.140923 3.699195 30.018951
v 28.868679 2.431203 32.039303
v 28.868679 2.431203 33.102135
v 28.868679 4.258453 33.102135
v 28.868679 4.258453 32.039303
v 28.919777 0.175681 21.697163
v 28.919777 0.175681 22.759996
v 28.919777 2.002932 22.759996
v 28.919777 2.002932 21.697163
v 28.919773 1.374778 27.112783
v 28.919773 1.374778 28.175617
v 28.919773 3.202028 28.175617
v 28.919773 3.202028 27.112783
v 31.653656 -0.244608 19.894356
v 31.653652 -0.244608 20.978399
v 31.653652 1.554233 20.978399
v 31.653656 1.554233 19.894356
v 31.653652 0.816331 25.118223
v 31.653652 0.816331 26.202265
v 31.653652 2.615172 26.202267
v 31.653652 2.615172 25.118223
v 545.361267 -0.758948 -245.944534
v 546.389404 -0.758948 -246.213943
v 546.389404 1.068302 -246.213943
v 545.361267 1.068302 -245.944534
v 545.804688 -1.465530 -237.038315
v 546.853333 -1.465530 -237.313095
v 546.853333 0.333312 -237.313095
v 545.804688 0.333312 -237.038315
v 548.632385 -0.175831 -240.013626
v 549.734619 -0.175830 -240.302444
v 549.734619 1.621058 -240.302444
v 548.632385 1.621058 -240.013626
v 547.327332 -1.010020 -236.135406
v 548.355469 -1.010020 -236.404816
v 548.355469 0.817230 -236.404816
v 547.327332 0.817230 -236.135406
v 547.952759 -1.545981 -227.493530
v 549.001404 -1.545981 -227.768311
v 549.001404 0.252860 -227.768326
v 547.952759 0.252860 -227.493530
v 550.857971 0.444356 -238.362442
v 551.906616 0.444356 -238.637222
v 551.906616 2.243198 -238.637222
v 550.857971 2.243198 -238.362442
v 553.006042 0.363904 -228.817673
v 554.054688 0.363905 -229.092453
v 554.054688 2.162746 -229.092453
v 553.006042 2.162746 -228.817673
v 523.830322 -0.656517 -316.501129
v 524.848511 -0.656517 -316.805939
v 524.848511 1.170733 -316.805939
v 523.830322 1.170733 -316.501129
v 524.581482 -1.363099 -307.615570
v 525.619995 -1.363098 -307.926453
v 525.619995 0.435743 -307.926453
v 524.581482 0.435743 -307.615570
v 527.304565 -0.073400 -310.686920
v 528.396179 -0.073399 -311.013672
v 528.396179 1.723489 -311.013672
v 527.304565 1.723489 -310.686920
v 526.134399 -0.907589 -306.765869
v 527.152588 -0.907589 -307.070679
v 527.152588 0.919662 -307.070679
v 526.134399 0.919662 -306.765869
v 527.058350 -1.443551 -298.150818
v 528.096863 -1.443551 -298.461700
v 528.096863 0.355290 -298.461700
v 527.058350 0.355291 -298.150818
v 529.585938 0.546787 -309.113678
v 530.624451 0.546787 -309.424561
v 530.624451 2.345629 -309.424561
v 529.585938 2.345629 -309.113678
v 532.062805 0.466334 -299.648926
v 533.101318 0.466335 -299.959808
v 533.101318 2.265176 -299.959808
v 532.062805 2.265176 -299.648926
v 554.964600 -0.656496 -44.482903
v 556.027405 -0.656496 -44.478542
v 556.027405 1.170755 -44.478542
v 554.964600 1.170755 -44.482903
v 553.100159 -1.363078 -35.762730
v 554.184204 -1.363078 -35.758282
v 554.184204 0.435763 -35.758282
v 553.100159 0.435763 -35.762730
v 556.598572 -0.073379 -37.909771
v 557.737976 -0.073379 -37.905094
v 557.737976 1.723509 -37.905094
v 556.598572 1.723509 -37.909771
v 554.339050 -0.907569 -34.498268
v 555.401855 -0.907569 -34.493908
v 555.401855 0.919682 -34.493908
v 554.339050 0.919682 -34.498268
v 552.718567 -1.443530 -25.986677
v 553.802612 -1.443530 -25.982227
v 553.802612 0.355311 -25.982227
v 552.718567 0.355311 -25.986677
v 558.323975 0.546807 -35.741287
v 559.408020 0.546807 -35.736839
v 559.408020 2.345649 -35.736839
v 558.323975 2.345649 -35.741287
v 557.942383 0.466356 -25.965237
v 559.026428 0.466356 -25.960785
v 559.026428 2.265197 -25.960785
v 557.942383 2.265197 -25.965235
v -325.656311 21.865543 -559.951904
v -326.719055 21.865541 -559.938049
v -326.719055 23.692793 -559.938049
v -325.656311 23.692793 -559.951904
v -323.941650 21.065775 -568.702759
v -325.025604 21.065775 -568.688660
v -325.025604 22.864616 -568.688660
v -323.941650 22.864616 -568.702759
v -327.402710 22.647596 -566.496094
v -328.542053 22.647596 -566.481201
v -328.542053 24.444485 -566.481201
v -327.402710 24.444485 -566.496094
v -325.224762 21.614468 -570.513977
v -326.287506 21.614468 -570.500122
v -326.287506 23.441719 -570.500122
v -325.224762 23.441719 -570.513977
v -323.750427 20.985321 -579.052124
v -324.834381 20.985321 -579.037964
v -324.834381 22.784163 -579.037964
v -323.750427 22.784163 -579.052124
v -329.165070 23.279037 -568.634644
v -330.249023 23.279037 -568.620544
v -330.249023 25.077879 -568.620544
v -329.165070 25.077879 -568.634644
v -328.973846 23.198584 -578.984009
v -330.057800 23.198584 -578.969849
v -330.057800 24.997427 -578.969849
v -328.973846 24.997427 -578.984009
v -331.071472 24.174473 -559.881348
v -332.134216 24.174473 -559.867493
v -332.134216 26.001724 -559.867493
v -331.071472 26.001724 -559.881348
v -330.639923 23.923399 -570.443359
v -331.702667 23.923399 -570.429504
v -331.702667 25.750650 -570.429504
v -330.639923 25.750650 -570.443359
v -325.656311 21.865545 -535.266541
v -326.719055 21.865543 -535.252686
v -326.719055 23.692795 -535.252686
v -325.656311 23.692795 -535.266541
v -323.941650 21.065777 -544.017395
v -325.025604 21.065777 -544.003296
v -325.025604 22.864618 -544.003296
v -323.941650 22.864618 -544.017395
v -327.402710 22.647598 -541.810730
v -328.542053 22.647598 -541.795837
v -328.542053 24.444487 -541.795837
v -327.402710 24.444487 -541.810730
v -325.224762 21.614470 -545.828613
v -326.287506 21.614470 -545.814758
v -326.287506 23.441721 -545.814758
v -325.224762 23.441721 -545.828613
v -323.750427 20.985323 -554.366760
v -324.834381 20.985323 -554.352600
v -324.834381 22.784164 -554.352600
v -323.750427 22.784164 -554.366760
v -329.165070 23.279039 -543.949280
v -330.249023 23.279039 -543.935181
v -330.249023 25.077881 -543.935181
v -329.165070 25.077881 -543.949280
v -328.973846 23.198586 -554.298645
v -330.057800 23.198586 -554.284485
v -330.057800 24.997429 -554.284485
v -328.973846 24.997429 -554.298645
v -331.071472 24.174475 -535.195984
v -332.134216 24.174475 -535.182129
v -332.134216 26.001726 -535.182129
v -331.071472 26.001726 -535.195984
v -330.639923 23.923401 -545.757996
v -331.702667 23.923401 -545.744141
v -331.702667 25.750652 -545.744141
v -330.639923 25.750652 -545.757996
v -325.656311 21.865547 -510.052216
v -326.719055 21.865545 -510.038361
v -326.719055 23.692797 -510.038361
v -325.656311 23.692797 -510.052216
v -323.941650 21.065779 -518.803040
v -325.025604 21.065779 -518.788940
v -325.025604 22.864620 -518.788940
v -323.941650 22.864620 -518.803040
v -327.402710 22.647600 -516.596375
v -328.542053 22.647600 -516.581482
v -328.542053 24.444489 -516.581482
v -327.402710 24.444489 -516.596375
v -325.224762 21.614471 -520.614258
v -326.287506 21.614471 -520.600403
v -326.287506 23.441723 -520.600403
v -325.224762 23.441723 -520.614258
v -323.750427 20.985325 -529.152405
v -324.834381 20.985325 -529.138245
v -324.834381 22.784166 -529.138245
v -323.750427 22.784166 -529.152405
v -329.165070 23.279041 -518.734924
v -330.249023 23.279041 -518.720825
v -330.249023 25.077883 -518.720825
v -329.165070 25.077883 -518.734924
v -328.973846 23.198587 -529.084290
v -330.057800 23.198587 -529.070129
v -330.057800 24.997431 -529.070129
v -328.973846 24.997431 -529.084290
v -331.071472 24.174477 -509.981598
v -332.134216 24.174477 -509.967743
v -332.134216 26.001728 -509.967743
v -331.071472 26.001728 -509.981598
v -330.639923 23.923403 -520.543640
v -331.702667 23.923403 -520.529785
v -331.702667 25.750654 -520.529785
v -330.639923 25.750654 -520.543640
v 372.203369 36.447041 -982.963745
v 372.900574 36.447041 -983.765930
v 372.900574 38.274292 -983.765930
v 372.203369 38.274292 -982.963745
v 377.591400 35.647274 -975.858337
v 378.302490 35.647274 -976.676514
v 378.302490 37.446114 -976.676514
v 377.591400 37.446114 -975.858337
v 378.249084 37.229095 -979.909973
v 378.996521 37.229095 -980.770020
v 378.996521 39.025982 -980.770020
v 378.249084 39.025982 -979.909973
v 386.101349 36.195969 -970.130859
v 386.798523 36.195969 -970.933105
v 386.798523 38.023216 -970.933105
v 386.101349 38.023216 -970.130859
v 391.490631 35.566822 -963.346436
v 392.201721 35.566822 -964.164673
v 392.201721 37.365662 -964.164673
v 391.490631 37.365662 -963.346436
v 381.018127 37.860538 -979.801208
v 381.729248 37.860538 -980.619385
v 381.729248 39.659378 -980.619385
v 381.018127 39.659378 -979.801208
v 394.917358 37.780083 -967.289307
v 395.628479 37.780083 -968.107544
v 395.628479 39.578926 -968.107544
v 394.917358 39.578926 -967.289307
v 375.755920 38.755966 -987.051331
v 376.453094 38.755966 -987.853516
v 376.453094 40.583218 -987.853516
v 375.755920 40.583218 -987.051331
v 387.887421 38.504898 -975.753723
v 388.584625 38.504898 -976.555908
v 388.584625 40.332150 -976.555908
v 387.887421 40.332150 -975.753723
v 388.149658 40.088474 -981.488037
v 388.860748 40.088474 -982.306274
v 388.860748 41.887318 -982.306274
v 388.149658 41.887318 -981.488037
v 382.886139 40.813286 -988.417236
v 383.583344 40.813286 -989.219421
v 383.583344 42.640537 -989.219421
v 382.886139 42.640537 -988.417236
v 393.353119 39.425400 -974.085510
v 394.100555 39.425400 -974.945557
v 394.100555 41.222290 -974.945557
v 393.353119 41.222286 -974.085510
v 396.122162 40.056843 -973.976746
v 396.833282 40.056843 -974.794922
v 396.833282 41.855682 -974.794922
v 396.122162 41.855686 -973.976746
v 390.859955 40.952278 -981.226868
v 391.557129 40.952278 -982.029053
v 391.557129 42.779530 -982.029053
v 390.859955 42.779530 -981.226868
v 384.037170 36.651321 -973.454346
v 384.734344 36.651321 -974.256531
v 384.734344 38.478573 -974.256531
v 384.037170 38.478573 -973.454346
v 387.589691 38.960255 -977.541931
v 388.286896 38.960255 -978.344116
v 388.286896 40.787506 -978.344116
v 387.589691 40.787506 -977.541931
v 381.274445 35.839493 -973.466919
v 381.985535 35.839497 -974.285095
v 381.985535 37.638336 -974.285095
v 381.274445 37.638336 -973.466919
v 384.701172 38.052757 -977.409790
v 385.412292 38.052757 -978.227966
v 385.412292 39.851601 -978.227966
v 384.701172 39.851601 -977.409790
v 349.048676 36.055500 -1003.087463
v 349.745880 36.055500 -1003.889648
v 349.745880 37.882748 -1003.889648
v 349.048676 37.882748 -1003.087463
v 354.832825 35.647270 -995.637756
v 355.543915 35.647270 -996.455994
v 355.543915 37.446110 -996.455994
v 354.832825 37.446110 -995.637756
v 355.490509 36.457066 -999.689392
v 356.237946 36.457066 -1000.549438
v 356.237946 38.253952 -1000.549438
v 355.490509 38.253952 -999.689392
v 364.557312 35.804424 -988.854736
v 365.254517 35.804424 -989.656982
v 365.254517 37.631676 -989.656982
v 364.557312 37.631676 -988.854736
v 369.946594 35.566822 -982.070312
v 370.657715 35.566822 -982.888550
v 370.657715 37.365662 -982.888550
v 369.946594 37.365662 -982.070312
v 358.259552 36.708210 -999.580627
v 358.970673 36.708210 -1000.398865
v 358.970673 38.507050 -1000.398865
v 358.259552 38.507050 -999.580627
v 373.373352 36.627758 -986.013184
v 374.084442 36.627758 -986.831421
v 374.084442 38.426598 -986.831421
v 373.373352 38.426598 -986.013184
v 352.601196 37.254597 -1007.175049
v 353.298401 37.254597 -1007.977234
v 353.298401 39.081844 -1007.977234
v 352.601196 39.081844 -1007.175049
v 366.343384 37.003521 -994.477600
v 367.040588 37.003521 -995.279785
v 367.040588 38.830772 -995.279785
v 366.343384 38.830772 -994.477600
v 366.122284 38.016087 -1000.632019
v 366.833374 38.016087 -1001.450195
v 366.833374 39.814926 -1001.450195
v 366.122284 39.814930 -1000.632019
v 360.127563 38.376316 -1008.196655
v 360.824768 38.376316 -1008.998840
v 360.824768 40.203568 -1008.998840
v 360.127563 40.203568 -1008.196655
v 371.809113 37.685863 -992.809387
v 372.556549 37.685863 -993.669434
v 372.556549 39.482754 -993.669434
v 371.809113 39.482754 -992.809387
v 374.578156 37.984455 -992.700623
v 375.289246 37.984455 -993.518799
v 375.289246 39.783295 -993.518799
v 374.578156 39.783295 -992.700623
v 369.315918 38.515305 -999.950745
v 370.013123 38.515305 -1000.752930
v 370.013123 40.342552 -1000.752930
v 369.315918 40.342552 -999.950745
v 362.493134 36.259781 -992.178223
v 363.190338 36.259781 -992.980408
v 363.190338 38.087032 -992.980408
v 362.493134 38.087032 -992.178223
v 366.045685 37.458878 -996.265808
v 366.742859 37.458878 -997.067993
v 366.742859 39.286129 -997.067993
v 366.045685 39.286129 -996.265808
v 359.247070 35.839489 -992.610840
v 359.958160 35.839493 -993.429077
v 359.958160 37.638332 -993.429077
v 359.247070 37.638332 -992.610840
v 362.673798 36.900429 -996.553711
v 363.384918 36.900433 -997.371948
v 363.384918 38.699272 -997.371948
v 362.673798 38.699272 -996.553711
v 394.138275 36.144016 -963.900085
v 394.835480 36.144016 -964.702332
v 394.835480 37.971268 -964.702332
v 394.138275 37.971268 -963.900085
v 399.922424 35.735786 -956.450439
v 400.633514 35.735786 -957.268677
v 400.633514 37.534630 -957.268677
v 399.922424 37.534630 -956.450439
v 400.580109 36.545582 -960.502075
v 401.327576 36.545582 -961.362122
v 401.327576 38.342472 -961.362122
v 400.580109 38.342472 -960.502075
v 409.646912 35.892944 -949.667419
v 410.344116 35.892944 -950.469666
v 410.344116 37.720196 -950.469666
v 409.646912 37.720196 -949.667419
v 415.036194 35.655334 -942.882996
v 415.747314 35.655334 -943.701172
v 415.747314 37.454178 -943.701172
v 415.036194 37.454178 -942.882996
v 403.349152 36.796726 -960.393311
v 404.060272 36.796726 -961.211548
v 404.060272 38.595570 -961.211548
v 403.349152 38.595570 -960.393311
v 418.462952 36.716274 -946.825867
v 419.174072 36.716274 -947.644043
v 419.174072 38.515118 -947.644043
v 418.462952 38.515118 -946.825867
v 397.690826 37.343113 -967.987732
v 398.388000 37.343113 -968.789917
v 398.388000 39.170364 -968.789917
v 397.690826 39.170364 -967.987732
v 411.433014 37.092041 -955.290283
v 412.130188 37.092041 -956.092468
v 412.130188 38.919292 -956.092468
v 411.433014 38.919292 -955.290283
v 411.211884 38.104607 -961.444641
v 411.922974 38.104607 -962.262878
v 411.922974 39.903446 -962.262878
v 411.211884 39.903446 -961.444641
v 405.217163 38.464832 -969.009338
v 405.914368 38.464832 -969.811523
v 405.914368 40.292084 -969.811523
v 405.217163 40.292084 -969.009338
v 416.898712 37.774384 -953.622070
v 417.646149 37.774384 -954.482056
v 417.646149 39.571270 -954.482056
v 416.898712 39.571270 -953.622070
v 419.667755 38.072971 -953.513306
v 420.378876 38.072971 -954.331482
v 420.378876 39.871815 -954.331482
v 419.667755 39.871815 -953.513306
v 414.405518 38.603821 -960.763428
v 415.102722 38.603821 -961.565613
v 415.102722 40.431072 -961.565613
v 414.405518 40.431072 -960.763428
v 407.582733 36.348297 -952.990906
v 408.279938 36.348297 -953.793091
v 408.279938 38.175549 -953.793091
v 407.582733 38.175549 -952.990906
v 411.135284 37.547398 -957.078491
v 411.832458 37.547398 -957.880676
v 411.832458 39.374645 -957.880676
v 411.135284 39.374645 -957.078491
v 404.336670 35.928009 -953.423523
v 405.047791 35.928009 -954.241760
v 405.047791 37.726852 -954.241760
v 404.336670 37.726849 -953.423523
v 407.763397 36.988949 -957.366394
v 408.474518 36.988949 -958.184631
v 408.474518 38.787788 -958.184631
v 407.763397 38.787788 -957.366394
v 485.312500 32.968365 -882.040039
v 486.019409 32.968365 -882.833679
v 486.019409 34.795616 -882.833679
v 485.312500 34.795616 -882.040039
v 490.613495 32.168598 -874.869507
v 491.334534 32.168598 -875.679016
v 491.334534 33.967438 -875.679016
v 490.613495 33.967438 -874.869507
v 491.320526 33.750420 -878.912842
v 492.078400 33.750420 -879.763672
v 492.078400 35.547306 -879.763672
v 491.320526 35.547306 -878.912842
v 499.053009 32.717293 -869.038757
v 499.759918 32.717293 -869.832397
v 499.759918 34.544540 -869.832397
v 499.053009 34.544540 -869.038757
v 504.359192 32.088146 -862.189148
v 505.080200 32.088146 -862.998596
v 505.080200 33.886986 -862.998596
v 504.359192 33.886986 -862.189148
v 494.088043 34.381859 -878.770325
v 494.809082 34.381859 -879.579773
v 494.809082 36.180702 -879.579773
v 494.088043 36.180702 -878.770325
v 507.833740 34.301407 -866.089966
v 508.554749 34.301407 -866.899414
v 508.554749 36.100250 -866.899414
v 507.833740 36.100250 -866.089966
v 488.914581 35.277290 -886.084045
v 489.621490 35.277290 -886.877686
v 489.621490 37.104542 -886.877686
v 488.914581 37.104542 -886.084045
v 500.907471 35.026222 -874.639404
v 501.614410 35.026222 -875.433044
v 501.614410 36.853474 -875.433044
v 500.907471 36.853474 -874.639404
v 501.239594 36.609798 -880.370117
v 501.960602 36.609798 -881.179565
v 501.960602 38.408638 -881.179565
v 501.239594 38.408642 -880.370117
v 496.060944 37.334610 -887.362915
v 496.767853 37.334610 -888.156555
v 496.767853 39.161858 -888.156555
v 496.060944 39.161858 -887.362915
v 506.352448 35.946724 -872.904724
v 507.110321 35.946724 -873.755554
v 507.110321 37.743610 -873.755554
v 506.352448 37.743610 -872.904724
v 509.119965 36.578167 -872.762146
v 509.841003 36.578167 -873.571655
v 509.841003 38.377007 -873.571655
v 509.119965 38.377007 -872.762146
v 503.946503 37.473598 -880.075928
v 504.653412 37.473598 -880.869568
v 504.653412 39.300850 -880.869568
v 503.946503 39.300850 -880.075928
v 497.029480 33.172646 -872.387146
v 497.736389 33.172646 -873.180786
v 497.736389 34.999897 -873.180786
v 497.029480 34.999897 -872.387146
v 500.631561 35.481579 -876.431152
v 501.338501 35.481579 -877.224792
v 501.338501 37.308826 -877.224792
v 500.631561 37.308826 -876.431152
v 494.267120 32.360817 -872.433350
v 494.988129 32.360817 -873.242859
v 494.988129 34.159660 -873.242859
v 494.267120 34.159660 -872.433350
v 497.741669 34.574081 -876.334167
v 498.462677 34.574081 -877.143677
v 498.462677 36.372921 -877.143677
v 497.741669 36.372921 -876.334167
v 462.404816 32.576824 -902.444519
v 463.111725 32.576824 -903.238159
v 463.111725 34.404072 -903.238159
v 462.404816 34.404072 -902.444519
v 468.097717 32.168594 -894.924866
v 468.818726 32.168594 -895.734375
v 468.818726 33.967434 -895.734375
v 468.097717 33.967434 -894.924866
v 468.804749 32.978386 -898.968201
v 469.562622 32.978386 -899.819092
v 469.562622 34.775276 -899.819092
v 468.804749 34.775276 -898.968201
v 477.738800 32.325748 -888.023865
v 478.445740 32.325748 -888.817505
v 478.445740 34.153000 -888.817505
v 477.738800 34.153000 -888.023865
v 483.044983 32.088146 -881.174194
v 483.766022 32.088146 -881.983704
v 483.766022 33.886986 -881.983704
v 483.044983 33.886986 -881.174194
v 471.572235 33.229534 -898.825684
v 472.293274 33.229534 -899.635193
v 472.293274 35.028374 -899.635193
v 471.572235 35.028374 -898.825684
v 486.519531 33.149078 -885.075012
v 487.240570 33.149078 -885.884521
v 487.240570 34.947922 -885.884521
v 486.519531 34.947922 -885.075012
v 466.006897 33.775917 -906.488525
v 466.713806 33.775917 -907.282166
v 466.713806 35.603168 -907.282166
v 466.006897 35.603168 -906.488525
v 479.593292 33.524845 -893.624512
v 480.300201 33.524845 -894.418152
v 480.300201 35.352097 -894.418152
v 479.593292 35.352097 -893.624512
v 479.447205 34.537411 -899.781128
v 480.168243 34.537411 -900.590637
v 480.168243 36.336250 -900.590637
v 479.447205 36.336250 -899.781128
v 473.545135 34.897640 -907.418335
v 474.252075 34.897640 -908.211975
v 474.252075 36.724888 -908.211975
v 473.545135 36.724888 -907.418335
v 485.038239 34.207188 -891.889771
v 485.796143 34.207188 -892.740662
v 485.796143 36.004078 -892.740662
v 485.038269 36.004074 -891.889771
v 487.805786 34.505775 -891.747253
v 488.526794 34.505775 -892.556763
v 488.526794 36.304619 -892.556763
v 487.805786 36.304619 -891.747253
v 482.632324 35.036625 -899.060974
v 483.339233 35.036625 -899.854675
v 483.339233 36.863876 -899.854675
v 482.632324 36.863876 -899.060974
v 475.715302 32.781105 -891.372192
v 476.422211 32.781105 -892.165894
v 476.422211 34.608356 -892.165894
v 475.715302 34.608356 -891.372192
v 479.317383 33.980202 -895.416199
v 480.024292 33.980202 -896.209839
v 480.024292 35.807453 -896.209839
v 479.317383 35.807453 -895.416199
v 472.474731 32.360813 -891.844421
v 473.195770 32.360817 -892.653870
v 473.195770 34.159657 -892.653870
v 472.474731 34.159657 -891.844421
v 475.949280 33.421753 -895.745178
v 476.670319 33.421753 -896.554688
v 476.670319 35.220596 -896.554688
v 475.949280 35.220596 -895.745178
v 507.013397 32.576828 -862.710510
v 507.720337 32.576828 -863.504150
v 507.720337 34.404076 -863.504150
v 507.013397 34.404076 -862.710510
v 512.706299 32.168598 -855.190857
v 513.427307 32.168598 -856.000366
v 513.427307 33.967438 -856.000366
v 512.706299 33.967438 -855.190857
v 513.413330 32.978390 -859.234192
v 514.171204 32.978390 -860.085083
v 514.171204 34.775280 -860.085083
v 513.413330 34.775280 -859.234192
v 522.347412 32.325752 -848.289856
v 523.054321 32.325752 -849.083496
v 523.054321 34.153004 -849.083496
v 522.347412 34.153004 -848.289856
v 527.653564 32.088146 -841.440186
v 528.374634 32.088146 -842.249695
v 528.374634 33.886986 -842.249695
v 527.653564 33.886986 -841.440186
v 516.180847 33.229538 -859.091675
v 516.901855 33.229538 -859.901184
v 516.901855 35.028378 -859.901184
v 516.180847 35.028378 -859.091675
v 531.128113 33.149082 -845.341003
v 531.849182 33.149082 -846.150513
v 531.849182 34.947926 -846.150513
v 531.128113 34.947926 -845.341003
v 510.615479 33.775921 -866.754517
v 511.322418 33.775921 -867.548157
v 511.322418 35.603172 -867.548157
v 510.615479 35.603172 -866.754517
v 524.201904 33.524849 -853.890503
v 524.908813 33.524849 -854.684143
v 524.908813 35.352100 -854.684143
v 524.201904 35.352100 -853.890503
v 524.055786 34.537415 -860.047119
v 524.776855 34.537415 -860.856628
v 524.776855 36.336254 -860.856628
v 524.055786 36.336254 -860.047119
v 518.153748 34.897644 -867.684326
v 518.860657 34.897644 -868.477966
v 518.860657 36.724892 -868.477966
v 518.153748 36.724892 -867.684326
v 529.646851 34.207191 -852.155762
v 530.404724 34.207191 -853.006653
v 530.404724 36.004082 -853.006653
v 529.646851 36.004078 -852.155762
v 532.414368 34.505779 -852.013245
v 533.135376 34.505779 -852.822754
v 533.135376 36.304623 -852.822754
v 532.414368 36.304623 -852.013245
v 527.240906 35.036629 -859.326965
v 527.947815 35.036629 -860.120667
v 527.947815 36.863880 -860.120667
v 527.240906 36.863880 -859.326965
v 520.323914 32.781109 -851.638184
v 521.030823 32.781109 -852.431885
v 521.030823 34.608360 -852.431885
v 520.323914 34.608360 -851.638184
v 523.925964 33.980206 -855.682190
v 524.632874 33.980206 -856.475830
v 524.632874 35.807457 -856.475830
v 523.925964 35.807457 -855.682190
v 517.083313 32.360817 -852.110413
v 517.804382 32.360821 -852.919861
v 517.804382 34.159660 -852.919861
v 517.083313 34.159660 -852.110413
v 520.557861 33.421757 -856.011169
v 521.278931 33.421757 -856.820679
v 521.278931 35.220600 -856.820679
v 520.557861 35.220600 -856.011169
v 315.165588 30.113430 -720.566711
v 314.713806 30.113428 -721.528748
v 314.713806 31.940680 -721.528748
v 315.165588 31.940680 -720.566711
v 323.842865 29.313663 -722.621521
v 323.382050 29.313663 -723.602783
v 323.382050 31.112505 -723.602783
v 323.842865 31.112505 -722.621521
v 320.403137 30.895483 -724.861328
v 319.918793 30.895483 -725.892700
v 319.918793 32.692375 -725.892700
v 320.403137 32.692375 -724.861328
v 324.961945 29.862356 -724.538452
v 324.510162 29.862356 -725.500488
v 324.510162 31.689608 -725.500488
v 324.961945 31.689608 -724.538452
v 333.346191 29.233210 -726.724182
v 332.885376 29.233210 -727.705444
v 332.885376 31.032051 -727.705444
v 333.346191 31.032051 -726.724182
v 321.622314 31.526926 -727.349976
v 321.161499 31.526926 -728.331177
v 321.161499 33.325768 -728.331177
v 321.622314 33.325768 -727.349976
v 331.125641 31.446472 -731.452637
v 330.664825 31.446474 -732.433838
v 330.664825 33.245316 -732.433838
v 331.125641 33.245316 -731.452637
v 312.863525 32.422363 -725.468689
v 312.411743 32.422363 -726.430725
v 312.411743 34.249611 -726.430725
v 312.863525 34.249611 -725.468689
v 322.659882 32.171288 -729.440430
v 322.208099 32.171288 -730.402466
v 322.208099 33.998539 -730.402466
v 322.659882 33.998539 -729.440430
v 338.126282 30.744776 -730.986389
v 337.674500 30.744776 -731.948425
v 337.674500 32.572029 -731.948425
v 338.126282 32.572029 -730.986389
v 346.803558 29.945009 -733.041260
v 346.342743 29.945009 -734.022461
v 346.342743 31.743851 -734.022461
v 346.803558 31.743851 -733.041260
v 343.363831 31.526829 -735.281067
v 342.879486 31.526829 -736.312439
v 342.879486 33.323715 -736.312439
v 343.363831 33.323715 -735.281067
v 347.922638 30.493702 -734.958130
v 347.470856 30.493702 -735.920166
v 347.470856 32.320950 -735.920166
v 347.922638 32.320950 -734.958130
v 356.306885 29.864555 -737.143921
v 355.846069 29.864557 -738.125122
v 355.846069 31.663397 -738.125122
v 356.306885 31.663397 -737.143921
v 344.583008 32.158268 -737.769653
v 344.122192 32.158268 -738.750854
v 344.122192 33.957111 -738.750854
v 344.583008 33.957111 -737.769653
v 354.086334 32.077816 -741.872314
v 353.625519 32.077816 -742.853516
v 353.625519 33.876659 -742.853516
v 354.086334 33.876659 -741.872314
v 335.824219 33.053703 -735.888367
v 335.372437 33.053703 -736.850403
v 335.372437 34.880955 -736.850403
v 335.824219 34.880955 -735.888367
v 345.620575 32.802631 -739.860107
v 345.168793 32.802631 -740.822144
v 345.168793 34.629883 -740.822144
v 345.620575 34.629883 -739.860107
v 360.605286 30.513838 -741.187439
v 360.153503 30.513838 -742.149475
v 360.153503 32.341087 -742.149475
v 360.605286 32.341087 -741.187439
v 369.282562 29.714071 -743.242310
v 368.821747 29.714071 -744.223511
v 368.821747 31.512913 -744.223511
v 369.282562 31.512913 -743.242310
v 365.842834 31.295889 -745.482117
v 365.358490 31.295889 -746.513489
v 365.358490 33.092777 -746.513489
v 365.842834 33.092777 -745.482117
v 370.401642 30.262764 -745.159180
v 369.949860 30.262762 -746.121216
v 369.949860 32.090012 -746.121216
v 370.401642 32.090012 -745.159180
v 378.785889 29.633615 -747.344971
v 378.325073 29.633617 -748.326172
v 378.325073 31.432457 -748.326172
v 378.785889 31.432457 -747.344971
v 367.062012 31.927332 -747.970703
v 366.601196 31.927332 -748.951904
v 366.601196 33.726173 -748.951904
v 367.062012 33.726173 -747.970703
v 376.565338 31.846880 -752.073364
v 376.104523 31.846880 -753.054565
v 376.104523 33.645721 -753.054565
v 376.565338 33.645721 -752.073364
v 358.303223 32.822765 -746.089417
v 357.851440 32.822765 -747.051453
v 357.851440 34.650017 -747.051453
v 358.303223 34.650017 -746.089417
v 368.099579 32.571693 -750.061157
v 367.647797 32.571693 -751.023193
v 367.647797 34.398945 -751.023193
v 368.099579 34.398945 -750.061157
vn -1.0000 -0.0000 -0.0000
vn 0.2822 -0.0000 0.9594
vn 0.2822 -0.0000 0.9593
vn 0.2823 -0.0000 0.9593
vn 0.2825 -0.0000 0.9593
vn -0.8142 -0.0000 0.5805
vn -0.8143 -0.0000 0.5805
vn -0.8142 -0.0000 0.5806
vn 0.0030 -0.0000 -1.0000
vn 0.0031 -0.0000 -1.0000
vn 0.2535 -0.0000 0.9673
vn 0.2868 -0.0000 0.9580
vn 0.2867 -0.0000 0.9580
vn -0.0041 -0.0000 1.0000
vn -0.0130 -0.0000 -0.9999
vn -0.0129 -0.0000 -0.9999
vn -0.0131 -0.0000 -0.9999
vn -0.0132 -0.0000 -0.9999
vn 0.7547 -0.0000 0.6560
vn 0.7548 -0.0000 0.6560
vn 0.7548 -0.0000 0.6559
vn 0.7547 -0.0000 0.6561
vn 0.7467 -0.0000 0.6652
vn 0.7467 -0.0000 0.6651
vn 0.7468 -0.0000 0.6651
vn 0.7468 -0.0000 0.6650
vn 0.9052 -0.0000 -0.4251
vn 0.9052 -0.0000 -0.4250
vn 0.9051 -0.0000 -0.4251
vt 0.000500 1.000500
vt 0.999501 1.000499
vt 0.999501 1.999500
vt 0.000500 1.999501
s 1
usemtl PEOPLSDB
f 1/1/1 2/2/1 3/3/1
f 3/3/1 4/4/1 1/1/1
f 5/1/1 6/2/1 7/3/1
f 7/3/1 8/4/1 5/1/1
f 9/1/1 10/2/1 11/3/1
f 11/3/1 12/4/1 9/1/1
f 13/1/1 14/2/1 15/3/1
f 15/3/1 16/4/1 13/1/1
f 17/1/1 18/2/1 19/3/1
f 19/3/1 20/4/1 17/1/1
f 21/1/1 22/2/1 23/3/1
f 23/3/1 24/4/1 21/1/1
f 25/1/1 26/2/1 27/3/1
f 27/3/1 28/4/1 25/1/1
f 29/1/1 30/2/1 31/3/1
f 31/3/1 32/4/1 29/1/1
f 33/1/1 34/2/1 35/3/1
f 35/3/1 36/4/1 33/1/1
f 37/1/1 38/2/1 39/3/1
f 39/3/1 40/4/1 37/1/1
f 41/1/1 42/2/1 43/3/1
f 43/3/1 44/4/1 41/1/1
f 45/1/1 46/2/1 47/3/1
f 47/3/1 48/4/1 45/1/1
f 49/1/1 50/2/1 51/3/1
f 51/3/1 52/4/1 49/1/1
f 53/1/1 54/2/1 55/3/1
f 55/3/1 56/4/1 53/1/1
f 57/1/1 58/2/1 59/3/1
f 59/3/1 60/4/1 57/1/1
f 61/1/1 62/2/1 63/3/1
f 63/3/1 64/4/1 61/1/1
f 65/1/1 66/2/1 67/3/1
f 67/3/1 68/4/1 65/1/1
f 69/1/1 70/2/1 71/3/1
f 71/3/1 72/4/1 69/1/1
f 73/1/1 74/2/1 75/3/1
f 75/3/1 76/4/1 73/1/1
f 77/1/1 78/2/1 79/3/1
f 79/3/1 80/4/1 77/1/1
f 81/1/1 82/2/1 83/3/1
f 83/3/1 84/4/1 81/1/1
f 85/1/1 86/2/1 87/3/1
f 87/3/1 88/4/1 85/1/1
f 89/1/1 90/2/1 91/3/1
f 91/3/1 92/4/1 89/1/1
f 93/1/1 94/2/1 95/3/1
f 95/3/1 96/4/1 93/1/1
f 97/1/1 98/2/1 99/3/1
f 99/3/1 100/4/1 97/1/1
f 101/1/1 102/2/1 103/3/1
f 103/3/1 104/4/1 101/1/1
f 105/1/1 106/2/1 107/3/1
f 107/3/1 108/4/1 105/1/1
f 109/1/1 110/2/1 111/3/1
f 111/3/1 112/4/1 109/1/1
f 113/1/1 114/2/1 115/3/1
f 115/3/1 116/4/1 113/1/1
f 117/1/1 118/2/1 119/3/1
f 119/3/1 120/4/1 117/1/1
f 121/1/1 122/2/1 123/3/1
f 123/3/1 124/4/1 121/1/1
f 125/1/1 126/2/1 127/3/1
f 127/3/1 128/4/1 125/1/1
f 129/1/1 130/2/1 131/3/1
f 131/3/1 132/4/1 129/1/1
f 133/1/1 134/2/1 135/3/1
f 135/3/1 136/4/1 133/1/1
f 137/1/1 138/2/1 139/3/1
f 139/3/1 140/4/1 137/1/1
f 141/1/1 142/2/1 143/3/1
f 143/3/1 144/4/1 141/1/1
f 145/1/1 146/2/1 147/3/1
f 147/3/1 148/4/1 145/1/1
f 149/1/1 150/2/1 151/3/1
f 151/3/1 152/4/1 149/1/1
f 153/1/1 154/2/1 155/3/1
f 155/3/1 156/4/1 153/1/1
f 157/1/1 158/2/1 159/3/1
f 159/3/1 160/4/1 157/1/1
f 161/1/1 162/2/1 163/3/1
f 163/3/1 164/4/1 161/1/1
f 165/1/1 166/2/1 167/3/1
f 167/3/1 168/4/1 165/1/1
f 169/1/1 170/2/1 171/3/1
f 171/3/1 172/4/1 169/1/1
f 173/1/1 174/2/1 175/3/1
f 175/3/1 176/4/1 173/1/1
f 177/1/1 178/2/1 179/3/1
f 179/3/1 180/4/1 177/1/1
f 181/1/1 182/2/1 183/3/1
f 183/3/1 184/4/1 181/1/1
f 185/1/1 186/2/1 187/3/1
f 187/3/1 188/4/1 185/1/1
f 189/1/1 190/2/1 191/3/1
f 191/3/1 192/4/1 189/1/1
f 193/1/1 194/2/1 195/3/1
f 195/3/1 196/4/1 193/1/1
f 197/1/1 198/2/1 199/3/1
f 199/3/1 200/4/1 197/1/1
f 201/1/1 202/2/1 203/3/1
f 203/3/1 204/4/1 201/1/1
f 205/1/1 206/2/1 207/3/1
f 207/3/1 208/4/1 205/1/1
f 209/1/1 210/2/1 211/3/1
f 211/3/1 212/4/1 209/1/1
f 213/1/1 214/2/1 215/3/1
f 215/3/1 216/4/1 213/1/1
f 217/1/2 218/2/2 219/3/2
f 219/3/2 220/4/2 217/1/2
f 221/1/3 222/2/2 223/3/3
f 223/3/3 224/4/4 221/1/3
f 225/1/3 226/2/4 227/3/3
f 227/3/3 228/4/3 225/1/3
f 229/1/2 230/2/2 231/3/2
f 231/3/2 232/4/2 229/1/2
f 233/1/2 234/2/2 235/3/2
f 235/3/2 236/4/3 233/1/2
f 237/1/3 238/2/4 239/3/3
f 239/3/3 240/4/2 237/1/3
f 241/1/3 242/2/3 243/3/3
f 243/3/3 244/4/3 241/1/3
f 245/1/3 246/2/3 247/3/3
f 247/3/3 248/4/3 245/1/3
f 249/1/3 250/2/3 251/3/3
f 251/3/3 252/4/3 249/1/3
f 253/1/2 254/2/2 255/3/3
f 255/3/3 256/4/3 253/1/2
f 257/1/2 258/2/3 259/3/2
f 259/3/2 260/4/2 257/1/2
f 261/1/4 262/2/4 263/3/4
f 263/3/4 264/4/4 261/1/4
f 265/1/2 266/2/2 267/3/3
f 267/3/3 268/4/3 265/1/2
f 269/1/3 270/2/3 271/3/3
f 271/3/3 272/4/3 269/1/3
f 273/1/3 274/2/4 275/3/3
f 275/3/3 276/4/3 273/1/3
f 277/1/3 278/2/2 279/3/3
f 279/3/3 280/4/4 277/1/3
f 281/1/3 282/2/2 283/3/3
f 283/3/3 284/4/4 281/1/3
f 285/1/3 286/2/2 287/3/3
f 287/3/3 288/4/4 285/1/3
f 289/1/2 290/2/2 291/3/2
f 291/3/2 292/4/2 289/1/2
f 293/1/3 294/2/2 295/3/3
f 295/3/3 296/4/4 293/1/3
f 297/1/4 298/2/4 299/3/4
f 299/3/4 300/4/4 297/1/4
f 301/1/3 302/2/4 303/3/2
f 303/3/2 304/4/2 301/1/3
f 305/1/3 306/2/4 307/3/3
f 307/3/3 308/4/3 305/1/3
f 309/1/2 310/2/2 311/3/2
f 311/3/2 312/4/5 309/1/2
f 313/1/3 314/2/2 315/3/3
f 315/3/3 316/4/4 313/1/3
f 317/1/4 318/2/4 319/3/2
f 319/3/2 320/4/2 317/1/4
f 321/1/3 322/2/3 323/3/3
f 323/3/3 324/4/3 321/1/3
f 325/1/6 326/2/6 327/3/6
f 327/3/6 328/4/6 325/1/6
f 329/1/6 330/2/7 331/3/6
f 331/3/6 332/4/6 329/1/6
f 333/1/8 334/2/6 335/3/8
f 335/3/8 336/4/8 333/1/8
f 337/1/6 338/2/8 339/3/6
f 339/3/6 340/4/6 337/1/6
f 341/1/6 342/2/8 343/3/7
f 343/3/7 344/4/7 341/1/6
f 345/1/6 346/2/6 347/3/6
f 347/3/6 348/4/6 345/1/6
f 349/1/6 350/2/6 351/3/6
f 351/3/6 352/4/6 349/1/6
f 353/1/7 354/2/7 355/3/6
f 355/3/6 356/4/6 353/1/7
f 357/1/6 358/2/8 359/3/6
f 359/3/6 360/4/6 357/1/6
f 361/1/7 362/2/7 363/3/6
f 363/3/6 364/4/6 361/1/7
f 365/1/6 366/2/7 367/3/6
f 367/3/6 368/4/6 365/1/6
f 369/1/8 370/2/6 371/3/8
f 371/3/8 372/4/8 369/1/8
f 373/1/6 374/2/6 375/3/6
f 375/3/6 376/4/6 373/1/6
f 377/1/6 378/2/6 379/3/6
f 379/3/6 380/4/6 377/1/6
f 381/1/6 382/2/6 383/3/6
f 383/3/6 384/4/6 381/1/6
f 385/1/6 386/2/6 387/3/6
f 387/3/6 388/4/6 385/1/6
f 389/1/6 390/2/6 391/3/7
f 391/3/7 392/4/7 389/1/6
f 393/1/6 394/2/8 395/3/6
f 395/3/6 396/4/7 393/1/6
f 397/1/7 398/2/7 399/3/6
f 399/3/6 400/4/6 397/1/7
f 401/1/6 402/2/6 403/3/6
f 403/3/6 404/4/7 401/1/6
f 405/1/8 406/2/6 407/3/8
f 407/3/8 408/4/8 405/1/8
f 409/1/6 410/2/8 411/3/6
f 411/3/6 412/4/7 409/1/6
f 413/1/6 414/2/8 415/3/7
f 415/3/7 416/4/7 413/1/6
f 417/1/6 418/2/7 419/3/8
f 419/3/8 420/4/8 417/1/6
f 421/1/7 422/2/7 423/3/7
f 423/3/7 424/4/6 421/1/7
f 425/1/6 426/2/6 427/3/6
f 427/3/6 428/4/6 425/1/6
f 429/1/6 430/2/6 431/3/6
f 431/3/6 432/4/6 429/1/6
f 433/1/9 434/2/9 435/3/9
f 435/3/9 436/4/9 433/1/9
f 437/1/10 438/2/10 439/3/10
f 439/3/10 440/4/10 437/1/10
f 441/1/10 442/2/9 443/3/10
f 443/3/10 444/4/10 441/1/10
f 445/1/9 446/2/9 447/3/10
f 447/3/10 448/4/10 445/1/9
f 449/1/9 450/2/9 451/3/10
f 451/3/10 452/4/10 449/1/9
f 453/1/9 454/2/9 455/3/9
f 455/3/9 456/4/10 453/1/9
f 457/1/9 458/2/10 459/3/9
f 459/3/9 460/4/9 457/1/9
f 461/1/9 462/2/9 463/3/9
f 463/3/9 464/4/9 461/1/9
f 465/1/9 466/2/9 467/3/10
f 467/3/10 468/4/10 465/1/9
f 469/1/10 470/2/10 471/3/10
f 471/3/10 472/4/10 469/1/10
f 473/1/9 474/2/9 475/3/10
f 475/3/10 476/4/10 473/1/9
f 477/1/9 478/2/9 479/3/9
f 479/3/9 480/4/9 477/1/9
f 481/1/9 482/2/9 483/3/10
f 483/3/10 484/4/10 481/1/9
f 485/1/10 486/2/10 487/3/10
f 487/3/10 488/4/10 485/1/10
f 489/1/9 490/2/10 491/3/9
f 491/3/9 492/4/9 489/1/9
f 493/1/9 494/2/9 495/3/9
f 495/3/9 496/4/10 493/1/9
f 497/1/10 498/2/10 499/3/9
f 499/3/9 500/4/9 497/1/10
f 501/1/10 502/2/10 503/3/9
f 503/3/9 504/4/9 501/1/10
f 505/1/10 506/2/10 507/3/9
f 507/3/9 508/4/9 505/1/10
f 509/1/10 510/2/10 511/3/10
f 511/3/10 512/4/10 509/1/10
f 513/1/10 514/2/9 515/3/10
f 515/3/10 516/4/10 513/1/10
f 517/1/9 518/2/9 519/3/9
f 519/3/9 520/4/9 517/1/9
f 521/1/10 522/2/10 523/3/10
f 523/3/10 524/4/10 521/1/10
f 525/1/9 526/2/9 527/3/9
f 527/3/9 528/4/10 525/1/9
f 529/1/10 530/2/10 531/3/10
f 531/3/10 532/4/10 529/1/10
f 533/1/9 534/2/9 535/3/10
f 535/3/10 536/4/10 533/1/9
f 537/1/9 538/2/9 539/3/10
f 539/3/10 540/4/10 537/1/9
f 541/1/1 542/2/1 543/3/1
f 543/3/1 544/4/1 541/1/1
f 545/1/1 546/2/1 547/3/1
f 547/3/1 548/4/1 545/1/1
f 549/1/1 550/2/1 551/3/1
f 551/3/1 552/4/1 549/1/1
f 553/1/1 554/2/1 555/3/1
f 555/3/1 556/4/1 553/1/1
f 557/1/1 558/2/1 559/3/1
f 559/3/1 560/4/1 557/1/1
f 561/1/1 562/2/1 563/3/1
f 563/3/1 564/4/1 561/1/1
f 565/1/1 566/2/1 567/3/1
f 567/3/1 568/4/1 565/1/1
f 569/1/1 570/2/1 571/3/1
f 571/3/1 572/4/1 569/1/1
f 573/1/1 574/2/1 575/3/1
f 575/3/1 576/4/1 573/1/1
f 577/1/1 578/2/1 579/3/1
f 579/3/1 580/4/1 577/1/1
f 581/1/1 582/2/1 583/3/1
f 583/3/1 584/4/1 581/1/1
f 585/1/1 586/2/1 587/3/1
f 587/3/1 588/4/1 585/1/1
f 589/1/1 590/2/1 591/3/1
f 591/3/1 592/4/1 589/1/1
f 593/1/1 594/2/1 595/3/1
f 595/3/1 596/4/1 593/1/1
f 597/1/1 598/2/1 599/3/1
f 599/3/1 600/4/1 597/1/1
f 601/1/1 602/2/1 603/3/1
f 603/3/1 604/4/1 601/1/1
f 605/1/1 606/2/1 607/3/1
f 607/3/1 608/4/1 605/1/1
f 609/1/1 610/2/1 611/3/1
f 611/3/1 612/4/1 609/1/1
f 613/1/1 614/2/1 615/3/1
f 615/3/1 616/4/1 613/1/1
f 617/1/1 618/2/1 619/3/1
f 619/3/1 620/4/1 617/1/1
f 621/1/1 622/2/1 623/3/1
f 623/3/1 624/4/1 621/1/1
f 625/1/1 626/2/1 627/3/1
f 627/3/1 628/4/1 625/1/1
f 629/1/1 630/2/1 631/3/1
f 631/3/1 632/4/1 629/1/1
f 633/1/1 634/2/1 635/3/1
f 635/3/1 636/4/1 633/1/1
f 637/1/1 638/2/1 639/3/1
f 639/3/1 640/4/1 637/1/1
f 641/1/1 642/2/1 643/3/1
f 643/3/1 644/4/1 641/1/1
f 645/1/1 646/2/1 647/3/1
f 647/3/1 648/4/1 645/1/1
f 649/1/1 650/2/1 651/3/1
f 651/3/1 652/4/1 649/1/1
f 653/1/1 654/2/1 655/3/1
f 655/3/1 656/4/1 653/1/1
f 657/1/1 658/2/1 659/3/1
f 659/3/1 660/4/1 657/1/1
f 661/1/1 662/2/1 663/3/1
f 663/3/1 664/4/1 661/1/1
f 665/1/1 666/2/1 667/3/1
f 667/3/1 668/4/1 665/1/1
f 669/1/1 670/2/1 671/3/1
f 671/3/1 672/4/1 669/1/1
f 673/1/1 674/2/1 675/3/1
f 675/3/1 676/4/1 673/1/1
f 677/1/1 678/2/1 679/3/1
f 679/3/1 680/4/1 677/1/1
f 681/1/1 682/2/1 683/3/1
f 683/3/1 684/4/1 681/1/1
f 685/1/1 686/2/1 687/3/1
f 687/3/1 688/4/1 685/1/1
f 689/1/1 690/2/1 691/3/1
f 691/3/1 692/4/1 689/1/1
f 693/1/1 694/2/1 695/3/1
f 695/3/1 696/4/1 693/1/1
f 697/1/1 698/2/1 699/3/1
f 699/3/1 700/4/1 697/1/1
f 701/1/1 702/2/1 703/3/1
f 703/3/1 704/4/1 701/1/1
f 705/1/1 706/2/1 707/3/1
f 707/3/1 708/4/1 705/1/1
f 709/1/1 710/2/1 711/3/1
f 711/3/1 712/4/1 709/1/1
f 713/1/1 714/2/1 715/3/1
f 715/3/1 716/4/1 713/1/1
f 717/1/1 718/2/1 719/3/1
f 719/3/1 720/4/1 717/1/1
f 721/1/1 722/2/1 723/3/1
f 723/3/1 724/4/1 721/1/1
f 725/1/1 726/2/1 727/3/1
f 727/3/1 728/4/1 725/1/1
f 729/1/1 730/2/1 731/3/1
f 731/3/1 732/4/1 729/1/1
f 733/1/1 734/2/1 735/3/1
f 735/3/1 736/4/1 733/1/1
f 737/1/1 738/2/1 739/3/1
f 739/3/1 740/4/1 737/1/1
f 741/1/1 742/2/1 743/3/1
f 743/3/1 744/4/1 741/1/1
f 745/1/1 746/2/1 747/3/1
f 747/3/1 748/4/1 745/1/1
f 749/1/1 750/2/1 751/3/1
f 751/3/1 752/4/1 749/1/1
f 753/1/1 754/2/1 755/3/1
f 755/3/1 756/4/1 753/1/1
f 757/1/11 758/2/11 759/3/11
f 759/3/11 760/4/11 757/1/11
f 761/1/11 762/2/11 763/3/11
f 763/3/11 764/4/11 761/1/11
f 765/1/11 766/2/11 767/3/11
f 767/3/11 768/4/11 765/1/11
f 769/1/11 770/2/11 771/3/11
f 771/3/11 772/4/11 769/1/11
f 773/1/11 774/2/11 775/3/11
f 775/3/11 776/4/11 773/1/11
f 777/1/11 778/2/11 779/3/11
f 779/3/11 780/4/11 777/1/11
f 781/1/11 782/2/11 783/3/11
f 783/3/11 784/4/11 781/1/11
f 785/1/12 786/2/12 787/3/12
f 787/3/12 788/4/12 785/1/12
f 789/1/12 790/2/12 791/3/12
f 791/3/12 792/4/12 789/1/12
f 793/1/13 794/2/12 795/3/13
f 795/3/13 796/4/13 793/1/13
f 797/1/12 798/2/12 799/3/12
f 799/3/12 800/4/12 797/1/12
f 801/1/12 802/2/12 803/3/12
f 803/3/12 804/4/12 801/1/12
f 805/1/12 806/2/12 807/3/12
f 807/3/12 808/4/13 805/1/12
f 809/1/12 810/2/12 811/3/12
f 811/3/12 812/4/12 809/1/12
f 813/1/14 814/2/14 815/3/14
f 815/3/14 816/4/14 813/1/14
f 817/1/14 818/2/14 819/3/14
f 819/3/14 820/4/14 817/1/14
f 821/1/14 822/2/14 823/3/14
f 823/3/14 824/4/14 821/1/14
f 825/1/14 826/2/14 827/3/14
f 827/3/14 828/4/14 825/1/14
f 829/1/14 830/2/14 831/3/14
f 831/3/14 832/4/14 829/1/14
f 833/1/14 834/2/14 835/3/14
f 835/3/14 836/4/14 833/1/14
f 837/1/14 838/2/14 839/3/14
f 839/3/14 840/4/14 837/1/14
f 841/1/15 842/2/16 843/3/17
f 843/3/17 844/4/17 841/1/15
f 845/1/15 846/2/16 847/3/15
f 847/3/15 848/4/17 845/1/15
f 849/1/17 850/2/17 851/3/17
f 851/3/17 852/4/17 849/1/17
f 853/1/17 854/2/17 855/3/17
f 855/3/17 856/4/17 853/1/17
f 857/1/15 858/2/15 859/3/15
f 859/3/15 860/4/15 857/1/15
f 861/1/15 862/2/15 863/3/15
f 863/3/15 864/4/17 861/1/15
f 865/1/17 866/2/15 867/3/17
f 867/3/17 868/4/17 865/1/17
f 869/1/15 870/2/15 871/3/17
f 871/3/17 872/4/17 869/1/15
f 873/1/15 874/2/16 875/3/17
f 875/3/17 876/4/18 873/1/15
f 877/1/17 878/2/17 879/3/15
f 879/3/15 880/4/15 877/1/17
f 881/1/15 882/2/17 883/3/15
f 883/3/15 884/4/15 881/1/15
f 885/1/17 886/2/17 887/3/17
f 887/3/17 888/4/17 885/1/17
f 889/1/15 890/2/16 891/3/15
f 891/3/15 892/4/17 889/1/15
f 893/1/17 894/2/17 895/3/15
f 895/3/15 896/4/15 893/1/17
f 897/1/15 898/2/15 899/3/15
f 899/3/15 900/4/15 897/1/15
f 901/1/17 902/2/17 903/3/15
f 903/3/15 904/4/15 901/1/17
f 905/1/17 906/2/17 907/3/15
f 907/3/15 908/4/16 905/1/17
f 909/1/15 910/2/17 911/3/15
f 911/3/15 912/4/16 909/1/15
f 913/1/17 914/2/17 915/3/15
f 915/3/15 916/4/15 913/1/17
f 917/1/15 918/2/17 919/3/15
f 919/3/15 920/4/15 917/1/15
f 921/1/17 922/2/17 923/3/17
f 923/3/17 924/4/17 921/1/17
f 925/1/15 926/2/15 927/3/17
f 927/3/17 928/4/17 925/1/15
f 929/1/17 930/2/17 931/3/15
f 931/3/15 932/4/15 929/1/17
f 933/1/15 934/2/15 935/3/15
f 935/3/15 936/4/15 933/1/15
f 937/1/17 938/2/17 939/3/15
f 939/3/15 940/4/15 937/1/17
f 941/1/15 942/2/15 943/3/17
f 943/3/17 944/4/17 941/1/15
f 945/1/17 946/2/17 947/3/15
f 947/3/15 948/4/15 945/1/17
f 949/1/19 950/2/19 951/3/20
f 951/3/20 952/4/20 949/1/19
f 953/1/20 954/2/20 955/3/20
f 955/3/20 956/4/21 953/1/20
f 957/1/21 958/2/21 959/3/20
f 959/3/20 960/4/19 957/1/21
f 961/1/21 962/2/21 963/3/21
f 963/3/21 964/4/20 961/1/21
f 965/1/21 966/2/21 967/3/21
f 967/3/21 968/4/21 965/1/21
f 969/1/20 970/2/19 971/3/20
f 971/3/20 972/4/20 969/1/20
f 973/1/20 974/2/20 975/3/20
f 975/3/20 976/4/20 973/1/20
f 977/1/20 978/2/20 979/3/20
f 979/3/20 980/4/20 977/1/20
f 981/1/20 982/2/21 983/3/20
f 983/3/20 984/4/19 981/1/20
f 985/1/21 986/2/21 987/3/21
f 987/3/21 988/4/21 985/1/21
f 989/1/20 990/2/19 991/3/20
f 991/3/20 992/4/21 989/1/20
f 993/1/20 994/2/20 995/3/20
f 995/3/20 996/4/20 993/1/20
f 997/1/19 998/2/19 999/3/19
f 999/3/19 1000/4/19 997/1/19
f 1001/1/20 1002/2/20 1003/3/20
f 1003/3/20 1004/4/19 1001/1/20
f 1005/1/20 1006/2/20 1007/3/20
f 1007/3/20 1008/4/20 1005/1/20
f 1009/1/20 1010/2/20 1011/3/20
f 1011/3/20 1012/4/20 1009/1/20
f 1013/1/20 1014/2/21 1015/3/20
f 1015/3/20 1016/4/20 1013/1/20
f 1017/1/20 1018/2/20 1019/3/20
f 1019/3/20 1020/4/19 1017/1/20
f 1021/1/20 1022/2/20 1023/3/20
f 1023/3/20 1024/4/20 1021/1/20
f 1025/1/21 1026/2/21 1027/3/21
f 1027/3/21 1028/4/21 1025/1/21
f 1029/1/21 1030/2/21 1031/3/20
f 1031/3/20 1032/4/19 1029/1/21
f 1033/1/21 1034/2/21 1035/3/20
f 1035/3/20 1036/4/20 1033/1/21
f 1037/1/20 1038/2/20 1039/3/20
f 1039/3/20 1040/4/20 1037/1/20
f 1041/1/20 1042/2/19 1043/3/20
f 1043/3/20 1044/4/20 1041/1/20
f 1045/1/20 1046/2/20 1047/3/20
f 1047/3/20 1048/4/21 1045/1/20
f 1049/1/20 1050/2/19 1051/3/20
f 1051/3/20 1052/4/21 1049/1/20
f 1053/1/20 1054/2/21 1055/3/20
f 1055/3/20 1056/4/19 1053/1/20
f 1057/1/20 1058/2/20 1059/3/20
f 1059/3/20 1060/4/20 1057/1/20
f 1061/1/20 1062/2/19 1063/3/20
f 1063/3/20 1064/4/21 1061/1/20
f 1065/1/20 1066/2/20 1067/3/20
f 1067/3/20 1068/4/20 1065/1/20
f 1069/1/20 1070/2/20 1071/3/20
f 1071/3/20 1072/4/21 1069/1/20
f 1073/1/20 1074/2/20 1075/3/20
f 1075/3/20 1076/4/20 1073/1/20
f 1077/1/20 1078/2/20 1079/3/20
f 1079/3/20 1080/4/20 1077/1/20
f 1081/1/20 1082/2/20 1083/3/20
f 1083/3/20 1084/4/20 1081/1/20
f 1085/1/21 1086/2/21 1087/3/21
f 1087/3/21 1088/4/21 1085/1/21
f 1089/1/20 1090/2/20 1091/3/20
f 1091/3/20 1092/4/20 1089/1/20
f 1093/1/20 1094/2/20 1095/3/20
f 1095/3/20 1096/4/20 1093/1/20
f 1097/1/21 1098/2/21 1099/3/21
f 1099/3/21 1100/4/21 1097/1/21
f 1101/1/20 1102/2/20 1103/3/20
f 1103/3/20 1104/4/20 1101/1/20
f 1105/1/20 1106/2/20 1107/3/21
f 1107/3/21 1108/4/21 1105/1/20
f 1109/1/19 1110/2/22 1111/3/20
f 1111/3/20 1112/4/20 1109/1/19
f 1113/1/20 1114/2/20 1115/3/20
f 1115/3/20 1116/4/20 1113/1/20
f 1117/1/20 1118/2/19 1119/3/20
f 1119/3/20 1120/4/20 1117/1/20
f 1121/1/20 1122/2/20 1123/3/20
f 1123/3/20 1124/4/20 1121/1/20
f 1125/1/20 1126/2/20 1127/3/20
f 1127/3/20 1128/4/20 1125/1/20
f 1129/1/21 1130/2/21 1131/3/21
f 1131/3/21 1132/4/21 1129/1/21
f 1133/1/20 1134/2/20 1135/3/20
f 1135/3/20 1136/4/20 1133/1/20
f 1137/1/20 1138/2/19 1139/3/20
f 1139/3/20 1140/4/20 1137/1/20
f 1141/1/20 1142/2/20 1143/3/20
f 1143/3/20 1144/4/19 1141/1/20
f 1145/1/19 1146/2/19 1147/3/20
f 1147/3/20 1148/4/20 1145/1/19
f 1149/1/20 1150/2/21 1151/3/20
f 1151/3/20 1152/4/19 1149/1/20
f 1153/1/20 1154/2/19 1155/3/21
f 1155/3/21 1156/4/21 1153/1/20
f 1157/1/20 1158/2/20 1159/3/20
f 1159/3/20 1160/4/20 1157/1/20
f 1161/1/20 1162/2/20 1163/3/20
f 1163/3/20 1164/4/20 1161/1/20
f 1165/1/23 1166/2/23 1167/3/24
f 1167/3/24 1168/4/24 1165/1/23
f 1169/1/24 1170/2/23 1171/3/24
f 1171/3/24 1172/4/25 1169/1/24
f 1173/1/24 1174/2/24 1175/3/24
f 1175/3/24 1176/4/25 1173/1/24
f 1177/1/24 1178/2/24 1179/3/24
f 1179/3/24 1180/4/24 1177/1/24
f 1181/1/24 1182/2/24 1183/3/24
f 1183/3/24 1184/4/24 1181/1/24
f 1185/1/23 1186/2/23 1187/3/23
f 1187/3/23 1188/4/23 1185/1/23
f 1189/1/24 1190/2/24 1191/3/24
f 1191/3/24 1192/4/24 1189/1/24
f 1193/1/25 1194/2/25 1195/3/24
f 1195/3/24 1196/4/23 1193/1/25
f 1197/1/23 1198/2/23 1199/3/23
f 1199/3/23 1200/4/24 1197/1/23
f 1201/1/24 1202/2/24 1203/3/25
f 1203/3/25 1204/4/25 1201/1/24
f 1205/1/24 1206/2/24 1207/3/24
f 1207/3/24 1208/4/24 1205/1/24
f 1209/1/24 1210/2/24 1211/3/24
f 1211/3/24 1212/4/25 1209/1/24
f 1213/1/24 1214/2/25 1215/3/24
f 1215/3/24 1216/4/23 1213/1/24
f 1217/1/24 1218/2/24 1219/3/24
f 1219/3/24 1220/4/24 1217/1/24
f 1221/1/25 1222/2/25 1223/3/24
f 1223/3/24 1224/4/23 1221/1/25
f 1225/1/23 1226/2/23 1227/3/23
f 1227/3/23 1228/4/24 1225/1/23
f 1229/1/24 1230/2/24 1231/3/25
f 1231/3/25 1232/4/25 1229/1/24
f 1233/1/24 1234/2/24 1235/3/25
f 1235/3/25 1236/4/25 1233/1/24
f 1237/1/25 1238/2/25 1239/3/24
f 1239/3/24 1240/4/23 1237/1/25
f 1241/1/25 1242/2/25 1243/3/24
f 1243/3/24 1244/4/24 1241/1/25
f 1245/1/25 1246/2/25 1247/3/25
f 1247/3/25 1248/4/25 1245/1/25
f 1249/1/24 1250/2/24 1251/3/24
f 1251/3/24 1252/4/24 1249/1/24
f 1253/1/24 1254/2/25 1255/3/24
f 1255/3/24 1256/4/23 1253/1/24
f 1257/1/24 1258/2/25 1259/3/24
f 1259/3/24 1260/4/23 1257/1/24
f 1261/1/24 1262/2/25 1263/3/24
f 1263/3/24 1264/4/23 1261/1/24
f 1265/1/24 1266/2/24 1267/3/24
f 1267/3/24 1268/4/24 1265/1/24
f 1269/1/24 1270/2/24 1271/3/24
f 1271/3/24 1272/4/24 1269/1/24
f 1273/1/24 1274/2/23 1275/3/24
f 1275/3/24 1276/4/25 1273/1/24
f 1277/1/24 1278/2/24 1279/3/24
f 1279/3/24 1280/4/24 1277/1/24
f 1281/1/24 1282/2/25 1283/3/24
f 1283/3/24 1284/4/24 1281/1/24
f 1285/1/25 1286/2/25 1287/3/24
f 1287/3/24 1288/4/24 1285/1/25
f 1289/1/25 1290/2/24 1291/3/25
f 1291/3/25 1292/4/25 1289/1/25
f 1293/1/25 1294/2/25 1295/3/25
f 1295/3/25 1296/4/24 1293/1/25
f 1297/1/24 1298/2/24 1299/3/24
f 1299/3/24 1300/4/24 1297/1/24
f 1301/1/23 1302/2/23 1303/3/23
f 1303/3/23 1304/4/23 1301/1/23
f 1305/1/24 1306/2/25 1307/3/24
f 1307/3/24 1308/4/23 1305/1/24
f 1309/1/24 1310/2/25 1311/3/23
f 1311/3/23 1312/4/23 1309/1/24
f 1313/1/25 1314/2/25 1315/3/24
f 1315/3/24 1316/4/24 1313/1/25
f 1317/1/24 1318/2/24 1319/3/24
f 1319/3/24 1320/4/25 1317/1/24
f 1321/1/24 1322/2/24 1323/3/24
f 1323/3/24 1324/4/24 1321/1/24
f 1325/1/24 1326/2/23 1327/3/24
f 1327/3/24 1328/4/24 1325/1/24
f 1329/1/24 1330/2/24 1331/3/25
f 1331/3/25 1332/4/25 1329/1/24
f 1333/1/24 1334/2/24 1335/3/24
f 1335/3/24 1336/4/23 1333/1/24
f 1337/1/24 1338/2/24 1339/3/24
f 1339/3/24 1340/4/24 1337/1/24
f 1341/1/23 1342/2/23 1343/3/24
f 1343/3/24 1344/4/24 1341/1/23
f 1345/1/24 1346/2/23 1347/3/24
f 1347/3/24 1348/4/24 1345/1/24
f 1349/1/24 1350/2/24 1351/3/24
f 1351/3/24 1352/4/24 1349/1/24
f 1353/1/25 1354/2/26 1355/3/24
f 1355/3/24 1356/4/23 1353/1/25
f 1357/1/25 1358/2/25 1359/3/24
f 1359/3/24 1360/4/24 1357/1/25
f 1361/1/25 1362/2/25 1363/3/25
f 1363/3/25 1364/4/24 1361/1/25
f 1365/1/25 1366/2/25 1367/3/25
f 1367/3/25 1368/4/24 1365/1/25
f 1369/1/25 1370/2/25 1371/3/24
f 1371/3/24 1372/4/23 1369/1/25
f 1373/1/23 1374/2/23 1375/3/23
f 1375/3/23 1376/4/23 1373/1/23
f 1377/1/24 1378/2/24 1379/3/24
f 1379/3/24 1380/4/23 1377/1/24
f 1381/1/27 1382/2/27 1383/3/27
f 1383/3/27 1384/4/28 1381/1/27
f 1385/1/27 1386/2/27 1387/3/27
f 1387/3/27 1388/4/27 1385/1/27
f 1389/1/27 1390/2/27 1391/3/27
f 1391/3/27 1392/4/27 1389/1/27
f 1393/1/27 1394/2/27 1395/3/27
f 1395/3/27 1396/4/27 1393/1/27
f 1397/1/27 1398/2/27 1399/3/27
f 1399/3/27 1400/4/27 1397/1/27
f 1401/1/27 1402/2/27 1403/3/27
f 1403/3/27 1404/4/27 1401/1/27
f 1405/1/29 1406/2/29 1407/3/27
f 1407/3/27 1408/4/27 1405/1/29
f 1409/1/27 1410/2/27 1411/3/27
f 1411/3/27 1412/4/27 1409/1/27
f 1413/1/27 1414/2/27 1415/3/27
f 1415/3/27 1416/4/27 1413/1/27
f 1417/1/27 1418/2/28 1419/3/27
f 1419/3/27 1420/4/27 1417/1/27
f 1421/1/29 1422/2/29 1423/3/27
f 1423/3/27 1424/4/27 1421/1/29
f 1425/1/27 1426/2/27 1427/3/27
f 1427/3/27 1428/4/27 1425/1/27
f 1429/1/27 1430/2/27 1431/3/27
f 1431/3/27 1432/4/27 1429/1/27
f 1433/1/27 1434/2/27 1435/3/27
f 1435/3/27 1436/4/27 1433/1/27
f 1437/1/27 1438/2/27 1439/3/29
f 1439/3/29 1440/4/29 1437/1/27
f 1441/1/29 1442/2/29 1443/3/27
f 1443/3/27 1444/4/27 1441/1/29
f 1445/1/27 1446/2/28 1447/3/27
f 1447/3/27 1448/4/27 1445/1/27
f 1449/1/27 1450/2/27 1451/3/27
f 1451/3/27 1452/4/28 1449/1/27
f 1453/1/27 1454/2/28 1455/3/27
f 1455/3/27 1456/4/27 1453/1/27
f 1457/1/29 1458/2/29 1459/3/27
f 1459/3/27 1460/4/27 1457/1/29
f 1461/1/27 1462/2/27 1463/3/27
f 1463/3/27 1464/4/27 1461/1/27
f 1465/1/27 1466/2/27 1467/3/27
f 1467/3/27 1468/4/27 1465/1/27
f 1469/1/27 1470/2/27 1471/3/27
f 1471/3/27 1472/4/27 1469/1/27
f 1473/1/29 1474/2/29 1475/3/29
f 1475/3/29 1476/4/27 1473/1/29
f 1477/1/29 1478/2/29 1479/3/27
f 1479/3/27 1480/4/27 1477/1/29
f 1481/1/27 1482/2/27 1483/3/27
f 1483/3/27 1484/4/27 1481/1/27
f 1485/1/27 1486/2/27 1487/3/27
f 1487/3/27 1488/4/28 1485/1/27
