# Blender 4.4.3
# www.blender.org
mtllib PEOPLSDC.mtl
o PEOPLSDC
v -75.200737 -0.748202 19.072075
v -75.200737 -0.748201 20.156116
v -75.200737 1.050640 20.156116
v -75.200737 1.050639 19.072075
v -84.389832 0.670376 22.561609
v -84.389832 0.670376 23.701057
v -84.389832 2.467265 23.701057
v -84.389839 2.467265 22.561609
v -86.191093 -0.828655 18.745953
v -86.191093 -0.828655 19.829996
v -86.191093 0.970186 19.829996
v -86.191093 0.970186 18.745953
v -91.563576 0.833619 22.283905
v -91.563576 0.833619 23.423351
v -91.563576 2.630508 23.423351
v -91.563576 2.630508 22.283905
v -75.200737 1.465061 24.295940
v -75.200737 1.465061 25.379984
v -75.200737 3.263903 25.379984
v -75.200737 3.263903 24.295940
v -86.191093 1.384609 23.969820
v -86.191093 1.384609 25.053862
v -86.191093 3.183450 25.053862
v -86.191093 3.183450 23.969820
v -101.116127 -0.742343 19.361166
v -101.116127 -0.742342 20.445208
v -101.116127 1.056500 20.445208
v -101.116127 1.056499 19.361166
v -110.305229 0.676236 22.850700
v -110.305222 0.676236 23.990147
v -110.305222 2.473124 23.990147
v -110.305229 2.473124 22.850700
v -112.106483 -0.822796 19.035044
v -112.106483 -0.822796 20.119087
v -112.106483 0.976047 20.119087
v -112.106483 0.976046 19.035044
v -117.478966 0.839479 22.572996
v -117.478966 0.839479 23.712442
v -117.478966 2.636367 23.712442
v -117.478966 2.636367 22.572996
v -101.116127 1.470921 24.585032
v -101.116127 1.470921 25.669075
v -101.116127 3.269763 25.669075
v -101.116127 3.269762 24.585032
v -112.106483 1.390468 24.258911
v -112.106483 1.390468 25.342953
v -112.106483 3.189309 25.342953
v -112.106483 3.189310 24.258911
v -157.565948 0.027388 22.637243
v -157.565948 0.027388 23.721285
v -157.565948 1.826230 23.721285
v -157.565948 1.826230 22.637243
v -166.755051 1.445965 26.126778
v -166.755051 1.445966 27.266224
v -166.755051 3.242854 27.266224
v -166.755051 3.242854 26.126778
v -168.556320 -0.053065 22.311121
v -168.556305 -0.053065 23.395164
v -168.556305 1.745777 23.395164
v -168.556320 1.745777 22.311121
v -173.928802 1.609209 25.849073
v -173.928802 1.609209 26.988520
v -173.928802 3.406097 26.988520
v -173.928802 3.406097 25.849073
v -157.565948 2.240651 27.861109
v -157.565948 2.240651 28.945152
v -157.565948 4.039493 28.945152
v -157.565948 4.039492 27.861109
v -168.556320 2.160198 27.534988
v -168.556305 2.160198 28.619030
v -168.556305 3.959039 28.619030
v -168.556320 3.959040 27.534988
v 314.717957 -2.414962 19.216936
v 314.717957 -2.414962 20.300978
v 314.717957 -0.616119 20.300978
v 314.717957 -0.616120 19.216936
v 305.528839 -0.996384 22.706470
v 305.528839 -0.996383 23.845917
v 305.528839 0.800505 23.845917
v 305.528839 0.800505 22.706470
v 303.727600 -2.495414 18.890814
v 303.727600 -2.495414 19.974857
v 303.727600 -0.696572 19.974857
v 303.727600 -0.696573 18.890814
v 298.355103 -0.833140 22.428766
v 298.355103 -0.833140 23.568213
v 298.355103 0.963748 23.568213
v 298.355103 0.963748 22.428766
v 314.717957 -0.201698 24.440802
v 314.717957 -0.201698 25.524845
v 314.717957 1.597143 25.524845
v 314.717957 1.597143 24.440802
v 303.727600 -0.282151 24.114681
v 303.727600 -0.282151 25.198723
v 303.727600 1.516690 25.198723
v 303.727600 1.516691 24.114681
v 371.167786 -2.414961 22.803625
v 371.167786 -2.414961 23.887667
v 371.167786 -0.616119 23.887667
v 371.167786 -0.616119 22.803625
v 361.978668 -0.996384 26.293159
v 361.978668 -0.996383 27.432606
v 361.978668 0.800505 27.432606
v 361.978668 0.800505 26.293159
v 360.177429 -2.495414 22.477503
v 360.177429 -2.495414 23.561546
v 360.177429 -0.696572 23.561546
v 360.177429 -0.696572 22.477503
v 354.804932 -0.833140 26.015455
v 354.804932 -0.833140 27.154902
v 354.804932 0.963748 27.154902
v 354.804932 0.963748 26.015455
v 371.167786 -0.201698 28.027491
v 371.167786 -0.201698 29.111534
v 371.167786 1.597143 29.111534
v 371.167786 1.597143 28.027491
v 360.177429 -0.282151 27.701370
v 360.177429 -0.282151 28.785412
v 360.177429 1.516690 28.785412
v 360.177429 1.516691 27.701370
v 397.125580 -2.414961 22.478277
v 397.125580 -2.414961 23.562319
v 397.125580 -0.616119 23.562319
v 397.125580 -0.616119 22.478277
v 387.936462 -0.996384 25.967812
v 387.936462 -0.996383 27.107258
v 387.936462 0.800505 27.107258
v 387.936462 0.800505 25.967812
v 386.135223 -2.495414 22.152155
v 386.135223 -2.495414 23.236198
v 386.135223 -0.696572 23.236198
v 386.135223 -0.696572 22.152155
v 380.762726 -0.833140 25.690107
v 380.762726 -0.833140 26.829554
v 380.762726 0.963748 26.829554
v 380.762726 0.963748 25.690107
v 397.125580 -0.201698 27.702143
v 397.125580 -0.201698 28.786186
v 397.125580 1.597143 28.786186
v 397.125580 1.597143 27.702143
v 386.135223 -0.282151 27.376022
v 386.135223 -0.282151 28.460064
v 386.135223 1.516690 28.460064
v 386.135223 1.516691 27.376022
v 551.946228 -2.414979 -214.284698
v 552.986206 -2.414979 -214.590637
v 552.986206 -0.616137 -214.590637
v 551.946228 -0.616137 -214.284698
v 557.887329 -0.996401 -206.453995
v 558.980469 -0.996401 -206.775589
v 558.980469 0.800487 -206.775589
v 557.887329 0.800487 -206.453995
v 554.735168 -2.495430 -203.649078
v 555.775146 -2.495430 -203.955032
v 555.775146 -0.696589 -203.955032
v 554.735168 -0.696589 -203.649078
v 559.645569 -0.833157 -199.493515
v 560.738708 -0.833157 -199.815094
v 560.738708 0.963731 -199.815094
v 559.645569 0.963731 -199.493515
v 556.957764 -0.201716 -215.759018
v 557.997742 -0.201716 -216.064957
v 557.997742 1.597126 -216.064957
v 556.957764 1.597125 -215.759018
v 559.746643 -0.282169 -205.123398
v 560.786621 -0.282169 -205.429352
v 560.786621 1.516672 -205.429352
v 559.746643 1.516673 -205.123398
v 539.623840 -2.414983 -269.489807
v 540.663818 -2.414983 -269.795776
v 540.663818 -0.616141 -269.795776
v 539.623840 -0.616141 -269.489807
v 545.564941 -0.996405 -261.659119
v 546.658081 -0.996405 -261.980713
v 546.658081 0.800483 -261.980713
v 545.564941 0.800483 -261.659119
v 542.412781 -2.495435 -258.854218
v 543.452759 -2.495435 -259.160156
v 543.452759 -0.696594 -259.160156
v 542.412781 -0.696594 -258.854218
v 547.323181 -0.833161 -254.698639
v 548.416321 -0.833161 -255.020218
v 548.416321 0.963727 -255.020218
v 547.323181 0.963727 -254.698639
v 544.635376 -0.201720 -270.964142
v 545.675354 -0.201720 -271.270081
v 545.675354 1.597121 -271.270081
v 544.635376 1.597121 -270.964142
v 547.424255 -0.282173 -260.328522
v 548.464233 -0.282173 -260.634491
v 548.464233 1.516668 -260.634491
v 547.424255 1.516669 -260.328522
v 532.553955 -2.375488 -294.507233
v 533.593933 -2.375488 -294.813202
v 533.593933 -0.576646 -294.813202
v 532.553955 -0.576646 -294.507233
v 538.495056 -0.956910 -286.676544
v 539.588196 -0.956910 -286.998138
v 539.588196 0.839978 -286.998138
v 538.495056 0.839978 -286.676544
v 535.342896 -2.455940 -283.871643
v 536.382874 -2.455940 -284.177582
v 536.382874 -0.657098 -284.177582
v 535.342896 -0.657098 -283.871643
v 540.253296 -0.793666 -279.716064
v 541.346436 -0.793666 -280.037659
v 541.346436 1.003222 -280.037659
v 540.253296 1.003222 -279.716064
v 537.565491 -0.162225 -295.981567
v 538.605469 -0.162225 -296.287506
v 538.605469 1.636617 -296.287506
v 537.565491 1.636616 -295.981567
v 540.354370 -0.242678 -285.345947
v 541.394348 -0.242678 -285.651917
v 541.394348 1.556163 -285.651917
v 540.354370 1.556164 -285.345947
v 439.924591 12.738001 -477.118073
v 440.553925 12.738001 -476.235413
v 440.553925 14.536842 -476.235413
v 439.924591 14.536842 -477.118073
v 434.468262 14.156579 -468.942200
v 435.129761 14.156579 -468.014435
v 435.129761 15.953467 -468.014435
v 434.468262 15.953467 -468.942200
v 430.786499 12.657549 -471.003387
v 431.415833 12.657549 -470.120697
v 431.415833 14.456389 -470.120697
v 430.786499 14.456389 -471.003387
v 428.465912 14.319822 -465.003754
v 429.127411 14.319822 -464.075958
v 429.127411 16.116711 -464.075958
v 428.465912 16.116711 -465.003754
v 442.957214 14.951263 -472.864624
v 443.586548 14.951264 -471.981934
v 443.586548 16.750105 -471.981934
v 442.957214 16.750105 -472.864624
v 433.819122 14.870811 -466.749908
v 434.448456 14.870811 -465.867249
v 434.448456 16.669653 -465.867249
v 433.819122 16.669655 -466.749908
v 410.526825 13.286551 -456.019562
v 411.156158 13.286551 -455.136902
v 411.156158 15.085392 -455.136902
v 410.526825 15.085392 -456.019562
v 405.070496 14.705129 -447.843689
v 405.731995 14.705129 -446.915924
v 405.731995 16.502016 -446.915924
v 405.070496 16.502016 -447.843689
v 401.388733 13.206098 -449.904877
v 402.018066 13.206098 -449.022186
v 402.018066 15.004938 -449.022186
v 401.388733 15.004938 -449.904877
v 399.068146 14.868372 -443.905243
v 399.729645 14.868372 -442.977448
v 399.729645 16.665258 -442.977448
v 399.068146 16.665258 -443.905243
v 413.559448 15.499812 -451.766113
v 414.188782 15.499813 -450.883423
v 414.188782 17.298655 -450.883423
v 413.559448 17.298655 -451.766113
v 404.421356 15.419360 -445.651398
v 405.050690 15.419360 -444.768738
v 405.050690 17.218201 -444.768738
v 404.421356 17.218201 -445.651398
v 390.191193 13.833369 -441.784515
v 390.820526 13.833369 -440.901855
v 390.820526 15.632211 -440.901855
v 390.191193 15.632211 -441.784515
v 384.734863 15.251947 -433.608643
v 385.396362 15.251947 -432.680878
v 385.396362 17.048836 -432.680878
v 384.734863 17.048836 -433.608643
v 381.053101 13.752917 -435.669830
v 381.682434 13.752917 -434.787140
v 381.682434 15.551758 -434.787140
v 381.053101 15.551758 -435.669830
v 378.732513 15.415191 -429.670197
v 379.394012 15.415191 -428.742401
v 379.394012 17.212078 -428.742401
v 378.732513 17.212078 -429.670197
v 393.223816 16.046633 -437.531067
v 393.853149 16.046633 -436.648376
v 393.853149 17.845474 -436.648376
v 393.223816 17.845474 -437.531067
v 384.085724 15.966180 -431.416351
v 384.715057 15.966180 -430.533691
v 384.715057 17.765020 -430.533691
v 384.085724 17.765020 -431.416351
v -280.080109 20.940853 -277.013123
v -281.164154 20.940853 -277.016418
v -281.164154 22.739695 -277.016418
v -280.080109 22.739695 -277.013123
v -283.541626 22.359430 -286.212799
v -284.681091 22.359430 -286.216278
v -284.681091 24.156319 -286.216278
v -283.541626 24.156319 -286.212799
v -279.720520 20.860399 -288.002411
v -280.804535 20.860399 -288.005737
v -280.804535 22.659241 -288.005737
v -279.720520 22.659241 -288.002411
v -283.242065 22.522671 -293.385651
v -284.381531 22.522671 -293.389130
v -284.381531 24.319559 -293.389130
v -283.242065 24.319559 -293.385651
v -285.303955 23.154116 -277.029022
v -286.388000 23.154116 -277.032318
v -286.388000 24.952957 -277.032318
v -285.303955 24.952957 -277.029022
v -284.944366 23.073662 -288.018341
v -286.028381 23.073664 -288.021637
v -286.028381 24.872503 -288.021637
v -284.944366 24.872503 -288.018341
v -280.524902 20.940851 -302.969238
v -281.608948 20.940851 -302.972534
v -281.608948 22.739693 -302.972534
v -280.524902 22.739693 -302.969238
v -283.986420 22.359428 -312.168915
v -285.125885 22.359428 -312.172394
v -285.125885 24.156317 -312.172394
v -283.986420 24.156317 -312.168915
v -280.165314 20.860397 -313.958527
v -281.249329 20.860397 -313.961853
v -281.249329 22.659239 -313.961853
v -280.165314 22.659239 -313.958527
v -283.686859 22.522669 -319.341766
v -284.826324 22.522669 -319.345245
v -284.826324 24.319557 -319.345245
v -283.686859 24.319557 -319.341766
v -285.748749 23.154114 -302.985138
v -286.832794 23.154114 -302.988434
v -286.832794 24.952955 -302.988434
v -285.748749 24.952955 -302.985138
v -285.389160 23.073660 -313.974457
v -286.473175 23.073662 -313.977753
v -286.473175 24.872501 -313.977753
v -285.389160 24.872501 -313.974457
v -280.333801 20.940847 -359.434937
v -281.417847 20.940847 -359.438232
v -281.417847 22.739689 -359.438232
v -280.333801 22.739689 -359.434937
v -283.795319 22.359423 -368.634613
v -284.934784 22.359423 -368.638092
v -284.934784 24.156311 -368.638092
v -283.795319 24.156311 -368.634613
v -279.974213 20.860392 -370.424225
v -281.058228 20.860392 -370.427551
v -281.058228 22.659233 -370.427551
v -279.974213 22.659233 -370.424225
v -283.495758 22.522665 -375.807465
v -284.635223 22.522665 -375.810944
v -284.635223 24.319553 -375.810944
v -283.495758 24.319553 -375.807465
v -285.557648 23.154110 -359.450836
v -286.641693 23.154110 -359.454132
v -286.641693 24.952951 -359.454132
v -285.557648 24.952951 -359.450836
v -285.198059 23.073654 -370.440155
v -286.282074 23.073656 -370.443451
v -286.282074 24.872496 -370.443451
v -285.198059 24.872496 -370.440155
v 75.284927 -0.436830 19.283360
v 75.284927 -0.436829 20.367401
v 75.284927 1.362012 20.367401
v 75.284927 1.362011 19.283360
v 66.095825 0.981748 22.772894
v 66.095833 0.981748 23.912342
v 66.095833 2.778636 23.912342
v 66.095825 2.778636 22.772894
v 55.942142 -0.517283 18.957237
v 55.942142 -0.517282 20.041281
v 55.942142 1.281559 20.041281
v 55.942142 1.281558 18.957237
v 47.716316 1.144991 22.495190
v 47.716316 1.144991 23.634636
v 47.716316 2.941879 23.634636
v 47.716316 2.941879 22.495190
v 75.284927 1.776433 24.507225
v 75.284927 1.776433 25.591269
v 75.284927 3.575275 25.591269
v 75.284927 3.575275 24.507225
v 55.942142 1.695980 24.181105
v 55.942142 1.695981 25.265148
v 55.942142 3.494822 25.265146
v 55.942142 3.494822 24.181105
v 64.991852 3.453382 28.772629
v 64.991852 3.453382 29.912075
v 64.991852 5.250270 29.912075
v 64.991852 5.250270 28.772629
v 70.364334 4.004371 30.458542
v 70.364334 4.004371 31.542585
v 70.364334 5.803212 31.542585
v 70.364334 5.803214 30.458542
v 50.874886 3.178053 28.284622
v 50.874886 3.178053 29.424070
v 50.874886 4.974941 29.424070
v 50.874886 4.974941 28.284622
v 60.063984 3.972738 30.018955
v 60.063984 3.972738 31.102997
v 60.063984 5.771579 31.102997
v 60.063984 5.771580 30.018955
v 60.115082 -0.232547 19.868570
v 60.115082 -0.232547 20.952614
v 60.115082 1.566294 20.952614
v 60.115082 1.566294 19.868570
v 60.115082 1.980715 25.092438
v 60.115086 1.980715 26.176479
v 60.115086 3.779557 26.176479
v 60.115082 3.779557 25.092438
v 62.066093 1.417665 23.432314
v 62.066093 1.417665 24.571762
v 62.066093 3.214553 24.571762
v 62.066093 3.214553 23.432314
v 65.224663 3.450727 29.221748
v 65.224663 3.450727 30.361195
v 65.224663 5.247615 30.361195
v 65.224663 5.247615 29.221748
v 105.962341 -0.436830 19.283360
v 105.962341 -0.436829 20.367401
v 105.962341 1.362012 20.367401
v 105.962341 1.362011 19.283360
v 96.248428 0.209721 22.772894
v 96.248436 0.209721 23.912340
v 96.248436 2.006610 23.912340
v 96.248428 2.006610 22.772894
v 84.485588 -0.517283 18.957237
v 84.485588 -0.517282 20.041281
v 84.485588 1.281559 20.041281
v 84.485588 1.281558 18.957237
v 76.259758 0.372964 22.495190
v 76.259758 0.372964 23.634638
v 76.259758 2.169853 23.634636
v 76.259758 2.169853 22.495190
v 105.962341 0.624109 24.507225
v 105.962341 0.624109 25.591269
v 105.962341 2.422951 25.591269
v 105.962341 2.422951 24.507225
v 84.485588 0.543656 24.181105
v 84.485588 0.543657 25.265146
v 84.485588 2.342498 25.265146
v 84.485588 2.342498 24.181103
v 95.144455 1.713850 28.772629
v 95.144455 1.713850 29.912075
v 95.144455 3.510738 29.912075
v 95.144455 3.510738 28.772629
v 100.516937 1.931986 30.458544
v 100.516937 1.931986 31.542587
v 100.516937 3.730827 31.542587
v 100.516937 3.730828 30.458544
v 79.418335 1.438521 28.284624
v 79.418327 1.438522 29.424072
v 79.418327 3.235410 29.424072
v 79.418335 3.235410 28.284624
v 88.607430 1.900353 30.018955
v 88.607430 1.900353 31.102997
v 88.607430 3.699195 31.102997
v 88.607430 3.699195 30.018955
v 88.658524 -0.232547 19.868570
v 88.658524 -0.232547 20.952614
v 88.658524 1.566294 20.952614
v 88.658524 1.566294 19.868570
v 88.658524 0.828392 25.092438
v 88.658531 0.828392 26.176479
v 88.658531 2.627233 26.176479
v 88.658524 2.627233 25.092438
v 91.249924 0.645638 23.432314
v 91.249924 0.645638 24.571760
v 91.249924 2.442526 24.571760
v 91.249924 2.442526 23.432314
v 95.377266 1.711195 29.221748
v 95.377266 1.711195 30.361195
v 95.377266 3.508083 30.361195
v 95.377266 3.508083 29.221748
v 46.223595 -0.436830 19.283354
v 46.223595 -0.436829 20.367397
v 46.223595 1.362012 20.367397
v 46.223595 1.362011 19.283354
v 36.509682 0.209721 22.772888
v 36.509682 0.209721 23.912334
v 36.509682 2.006610 23.912334
v 36.509682 2.006610 22.772888
v 24.746838 -0.517283 18.957232
v 24.746838 -0.517282 20.041275
v 24.746838 1.281559 20.041275
v 24.746838 1.281558 18.957232
v 16.521008 0.372964 22.495184
v 16.521004 0.372964 23.634632
v 16.521004 2.169853 23.634632
v 16.521008 2.169852 22.495184
v 46.223595 0.624109 24.507221
v 46.223595 0.624109 25.591263
v 46.223595 2.422951 25.591263
v 46.223595 2.422951 24.507221
v 24.746838 0.543656 24.181099
v 24.746838 0.543657 25.265141
v 24.746838 2.342498 25.265141
v 24.746838 2.342498 24.181099
v 35.405701 1.713850 28.772623
v 35.405701 1.713850 29.912071
v 35.405701 3.510738 29.912071
v 35.405701 3.510738 28.772625
v 40.778179 1.931986 30.458538
v 40.778183 1.931986 31.542580
v 40.778183 3.730827 31.542580
v 40.778179 3.730828 30.458538
v 19.679581 1.438522 28.284618
v 19.679573 1.438522 29.424067
v 19.679573 3.235410 29.424067
v 19.679581 3.235410 28.284618
v 28.868679 1.900353 30.018948
v 28.868675 1.900353 31.102991
v 28.868675 3.699195 31.102989
v 28.868679 3.699195 30.018948
v 28.919777 -0.232547 19.868565
v 28.919777 -0.232547 20.952608
v 28.919777 1.566294 20.952608
v 28.919777 1.566294 19.868565
v 28.919773 0.828392 25.092432
v 28.919777 0.828392 26.176474
v 28.919777 2.627233 26.176474
v 28.919773 2.627233 25.092432
v 31.511173 0.645638 23.432308
v 31.511173 0.645638 24.571754
v 31.511173 2.442526 24.571754
v 31.511173 2.442526 23.432308
v 35.638512 1.711195 29.221745
v 35.638512 1.711195 30.361191
v 35.638512 3.508083 30.361191
v 35.638512 3.508083 29.221745
v 543.592407 -1.465531 -245.481018
v 544.641052 -1.465531 -245.755798
v 544.641052 0.333311 -245.755798
v 543.592407 0.333311 -245.481018
v 549.297241 -0.339073 -237.476547
v 550.399475 -0.339074 -237.765381
v 550.399475 1.457815 -237.765381
v 549.297241 1.457815 -237.476547
v 545.903809 -1.545982 -235.312897
v 546.952454 -1.545982 -235.587677
v 546.952454 0.252859 -235.587677
v 545.903809 0.252859 -235.312897
v 550.688049 -0.175829 -231.012665
v 551.790283 -0.175829 -231.301483
v 551.790283 1.621059 -231.301483
v 550.688049 1.621059 -231.012665
v 548.645691 0.444355 -246.805161
v 549.694336 0.444355 -247.079941
v 549.694336 2.243197 -247.079941
v 548.645691 2.243197 -246.805161
v 550.957092 0.363903 -236.637024
v 552.005737 0.363904 -236.911804
v 552.005737 2.162745 -236.911804
v 550.957092 2.162745 -236.637024
v 522.078491 -1.363100 -315.976715
v 523.117004 -1.363099 -316.287598
v 523.117004 0.435742 -316.287598
v 522.078491 0.435742 -315.976715
v 528.056763 -0.236642 -308.174347
v 529.148315 -0.236642 -308.501129
v 529.148315 1.560246 -308.501129
v 528.056763 1.560246 -308.174347
v 524.740234 -1.443551 -305.894623
v 525.778687 -1.443551 -306.205505
v 525.778687 0.355290 -306.205505
v 524.740234 0.355290 -305.894623
v 529.670288 -0.073399 -301.762421
v 530.761841 -0.073399 -302.089203
v 530.761841 1.723489 -302.089203
v 529.670288 1.723489 -301.762421
v 527.082947 0.546786 -317.474823
v 528.121460 0.546786 -317.785736
v 528.121460 2.345628 -317.785736
v 527.082947 2.345628 -317.474823
v 529.744629 0.466334 -307.392731
v 530.783142 0.466335 -307.703613
v 530.783142 2.265176 -307.703613
v 529.744629 2.265176 -307.392731
v 553.135986 -1.363078 -44.490410
v 554.220032 -1.363078 -44.485962
v 554.220032 0.435763 -44.485962
v 553.135986 0.435763 -44.490410
v 556.587769 -0.236622 -35.287064
v 557.727234 -0.236622 -35.282387
v 557.727234 1.560266 -35.282387
v 556.587769 1.560266 -35.287064
v 552.751770 -1.443531 -34.069958
v 553.835754 -1.443531 -34.065506
v 553.835754 0.355310 -34.065506
v 552.751770 0.355310 -34.069958
v 556.267639 -0.073378 -28.682997
v 557.407043 -0.073378 -28.678320
v 557.407043 1.723510 -28.678320
v 556.267639 1.723510 -28.682997
v 558.359802 0.546807 -44.468967
v 559.443848 0.546807 -44.464520
v 559.443848 2.345649 -44.464520
v 558.359802 2.345649 -44.468967
v 557.975586 0.466355 -34.048515
v 559.059631 0.466355 -34.044067
v 559.059631 2.265196 -34.044067
v 557.975586 2.265196 -34.048515
v -323.827881 21.065777 -559.975769
v -324.911835 21.065777 -559.961609
v -324.911835 22.864618 -559.961609
v -323.827881 22.864618 -559.975769
v -327.436920 22.484352 -569.118591
v -328.576263 22.484352 -569.103760
v -328.576263 24.281240 -569.103760
v -327.436920 24.281240 -569.118591
v -323.645050 20.985321 -570.969421
v -324.729004 20.985321 -570.955322
v -324.729004 22.784163 -570.955322
v -323.645050 22.784163 -570.969421
v -327.252747 22.647594 -576.295349
v -328.392090 22.647594 -576.280518
v -328.392090 24.444483 -576.280518
v -327.252747 24.444483 -576.295349
v -329.051300 23.279039 -559.907654
v -330.135254 23.279039 -559.893555
v -330.135254 25.077881 -559.893555
v -329.051300 25.077881 -559.907654
v -328.868469 23.198584 -570.901306
v -329.952423 23.198584 -570.887207
v -329.952423 24.997425 -570.887207
v -328.868469 24.997427 -570.901306
v -323.827881 21.065779 -535.290405
v -324.911835 21.065779 -535.276245
v -324.911835 22.864620 -535.276245
v -323.827881 22.864620 -535.290405
v -327.436920 22.484354 -544.433228
v -328.576263 22.484354 -544.418396
v -328.576263 24.281242 -544.418396
v -327.436920 24.281242 -544.433228
v -323.645050 20.985323 -546.284058
v -324.729004 20.985323 -546.269958
v -324.729004 22.784164 -546.269958
v -323.645050 22.784164 -546.284058
v -327.252747 22.647596 -551.609985
v -328.392090 22.647596 -551.595093
v -328.392090 24.444485 -551.595154
v -327.252747 24.444485 -551.609985
v -329.051300 23.279041 -535.222290
v -330.135254 23.279041 -535.208191
v -330.135254 25.077883 -535.208191
v -329.051300 25.077883 -535.222290
v -328.868469 23.198586 -546.215942
v -329.952423 23.198586 -546.201843
v -329.952423 24.997427 -546.201843
v -328.868469 24.997429 -546.215942
v -323.827881 21.065781 -510.076050
v -324.911835 21.065781 -510.061920
v -324.911835 22.864622 -510.061920
v -323.827881 22.864622 -510.076050
v -327.436920 22.484356 -519.218872
v -328.576263 22.484356 -519.204041
v -328.576263 24.281244 -519.204041
v -327.436920 24.281244 -519.218872
v -323.645050 20.985325 -521.069702
v -324.729004 20.985325 -521.055603
v -324.729004 22.784166 -521.055603
v -323.645050 22.784166 -521.069702
v -327.252747 22.647598 -526.395630
v -328.392090 22.647598 -526.380737
v -328.392090 24.444487 -526.380798
v -327.252747 24.444487 -526.395630
v -329.051300 23.279043 -510.007935
v -330.135254 23.279043 -509.993805
v -330.135254 25.077885 -509.993805
v -329.051300 25.077885 -510.007935
v -328.868469 23.198587 -521.001587
v -329.952423 23.198587 -520.987488
v -329.952423 24.997429 -520.987488
v -328.868469 24.997431 -521.001587
v 371.003845 35.647274 -981.583557
v 371.714966 35.647274 -982.401733
v 371.714966 37.446114 -982.401733
v 371.003845 37.446114 -981.583557
v 380.228668 37.065853 -978.189514
v 380.976105 37.065853 -979.049561
v 380.976105 38.862740 -979.049561
v 380.228668 38.862740 -978.189514
v 385.389465 35.566822 -968.648926
v 386.100586 35.566822 -969.467163
v 386.100586 37.365662 -969.467163
v 385.389465 37.365662 -968.648926
v 393.918976 37.229095 -965.923340
v 394.666443 37.229095 -966.783386
v 394.666443 39.025982 -966.783386
v 393.918976 39.025982 -965.923340
v 374.430603 37.860535 -985.526428
v 375.141693 37.860535 -986.344604
v 375.141693 39.659374 -986.344604
v 374.430603 39.659374 -985.526428
v 388.816223 37.780083 -972.591797
v 389.527313 37.780083 -973.410034
v 389.527313 39.578926 -973.410034
v 388.816223 39.578926 -972.591797
v 384.997620 39.537487 -981.993774
v 385.745056 39.537487 -982.853821
v 385.745056 41.334373 -982.853821
v 384.997620 41.334373 -981.993835
v 382.048492 40.088470 -986.790527
v 382.759613 40.088470 -987.608765
v 382.759613 41.887314 -987.608765
v 382.048492 41.887314 -986.790527
v 395.332703 39.262157 -972.365051
v 396.080139 39.262157 -973.225098
v 396.080139 41.059044 -973.225098
v 395.332703 41.059044 -972.365051
v 389.534637 40.056843 -979.701904
v 390.245758 40.056843 -980.520142
v 390.245758 41.855682 -980.520142
v 389.534637 41.855686 -979.701904
v 382.837646 35.851555 -972.074158
v 383.548737 35.851555 -972.892334
v 383.548737 37.650398 -972.892334
v 382.837646 37.650398 -972.074158
v 386.264374 38.064819 -976.017029
v 386.975494 38.064819 -976.835205
v 386.975494 39.863659 -976.835205
v 386.264374 39.863659 -976.017029
v 383.702789 37.501770 -976.043823
v 384.450256 37.501770 -976.903870
v 384.450256 39.298656 -976.903870
v 383.702789 39.298656 -976.043823
v 385.116516 39.534832 -982.485535
v 385.863953 39.534832 -983.345520
v 385.863953 41.331718 -983.345520
v 385.116516 41.331718 -982.485535
v 347.849152 35.647270 -1001.707275
v 348.560272 35.647270 -1002.525452
v 348.560272 37.446110 -1002.525452
v 347.849152 37.446110 -1001.707275
v 357.470093 36.293819 -997.968994
v 358.217529 36.293819 -998.828979
v 358.217529 38.090710 -998.828979
v 357.470093 38.090710 -997.968994
v 363.845459 35.566818 -987.372803
v 364.556580 35.566818 -988.191040
v 364.556580 37.365658 -988.191040
v 363.845459 37.365658 -987.372803
v 372.374969 36.457069 -984.647217
v 373.122406 36.457066 -985.507263
v 373.122406 38.253952 -985.507263
v 372.374969 38.253956 -984.647217
v 351.275909 36.708210 -1005.650146
v 351.987000 36.708210 -1006.468323
v 351.987000 38.507050 -1006.468323
v 351.275909 38.507050 -1005.650146
v 367.272186 36.627758 -991.315674
v 367.983307 36.627758 -992.133911
v 367.983307 38.426598 -992.133911
v 367.272186 38.426598 -991.315674
v 362.239044 37.797951 -1001.773254
v 362.986481 37.797951 -1002.633301
v 362.986481 39.594837 -1002.633301
v 362.239044 39.594837 -1001.773254
v 359.289917 38.016087 -1006.570007
v 360.001038 38.016087 -1007.388184
v 360.001038 39.814926 -1007.388184
v 359.289917 39.814930 -1006.570007
v 373.788696 37.522621 -991.088928
v 374.536133 37.522621 -991.948975
v 374.536133 39.319511 -991.948975
v 373.788696 39.319511 -991.088928
v 367.990631 37.984455 -998.425781
v 368.701721 37.984455 -999.244019
v 368.701721 39.783295 -999.244019
v 367.990631 39.783295 -998.425781
v 361.293610 35.851551 -990.798035
v 362.004730 35.851551 -991.616211
v 362.004730 37.650394 -991.616211
v 361.293610 37.650394 -990.798035
v 364.720367 36.912491 -994.740906
v 365.431458 36.912491 -995.559082
v 365.431458 38.711334 -995.559082
v 364.720367 38.711334 -994.740906
v 361.675415 36.729736 -995.187744
v 362.422882 36.729736 -996.047791
v 362.422882 38.526627 -996.047791
v 361.675415 38.526627 -995.187744
v 362.357941 37.795296 -1002.264954
v 363.105377 37.795296 -1003.125000
v 363.105377 39.592182 -1003.125000
v 362.357941 39.592182 -1002.264954
v 392.938751 35.735786 -962.519897
v 393.649872 35.735786 -963.338135
v 393.649872 37.534630 -963.338135
v 392.938751 37.534630 -962.519897
v 402.559692 36.382339 -958.781616
v 403.307129 36.382339 -959.641663
v 403.307129 38.179226 -959.641663
v 402.559692 38.179226 -958.781616
v 408.935059 35.655334 -948.185486
v 409.646179 35.655334 -949.003723
v 409.646179 37.454178 -949.003723
v 408.935059 37.454178 -948.185486
v 417.464569 36.545582 -945.459900
v 418.212036 36.545582 -946.319946
v 418.212036 38.342472 -946.319946
v 417.464569 38.342472 -945.459900
v 396.365509 36.796726 -966.462769
v 397.076630 36.796726 -967.281006
v 397.076630 38.595570 -967.281006
v 396.365509 38.595570 -966.462769
v 412.361816 36.716274 -952.128357
v 413.072906 36.716274 -952.946594
v 413.072906 38.515118 -952.946594
v 412.361816 38.515118 -952.128357
v 407.328644 37.886467 -962.585938
v 408.076111 37.886471 -963.445984
v 408.076111 39.683357 -963.445984
v 407.328644 39.683357 -962.585938
v 404.379517 38.104607 -967.382629
v 405.090637 38.104607 -968.200867
v 405.090637 39.903446 -968.200867
v 404.379517 39.903446 -967.382629
v 418.878296 37.611141 -951.901611
v 419.625732 37.611141 -952.761658
v 419.625732 39.408028 -952.761658
v 418.878296 39.408028 -951.901611
v 413.080231 38.072971 -959.238464
v 413.791321 38.072971 -960.056702
v 413.791321 39.871815 -960.056702
v 413.080231 39.871815 -959.238464
v 406.383209 35.940071 -951.610718
v 407.094330 35.940071 -952.428894
v 407.094330 37.738911 -952.428894
v 406.383209 37.738911 -951.610718
v 409.809967 37.001011 -955.553589
v 410.521057 37.001011 -956.371765
v 410.521057 38.799850 -956.371765
v 409.809967 38.799850 -955.553589
v 406.765015 36.818256 -956.000427
v 407.512482 36.818256 -956.860474
v 407.512482 38.615143 -956.860474
v 406.765015 38.615143 -956.000427
v 407.447540 37.883812 -963.077637
v 408.194977 37.883816 -963.937683
v 408.194977 39.680702 -963.937683
v 407.447540 39.680702 -963.077637
v 484.096252 32.168598 -880.674561
v 484.817261 32.168598 -881.484070
v 484.817261 33.967438 -881.484070
v 484.096252 33.967438 -880.674561
v 493.278992 33.587173 -877.168396
v 494.036865 33.587173 -878.019226
v 494.036865 35.384064 -878.019226
v 493.278992 35.384064 -877.168396
v 498.323120 32.088146 -867.565613
v 499.044159 32.088146 -868.375122
v 499.044159 33.886986 -868.375122
v 498.323120 33.886986 -867.565613
v 506.818787 33.750420 -864.736267
v 507.576660 33.750420 -865.587097
v 507.576660 35.547306 -865.587097
v 506.818787 35.547306 -864.736267
v 487.570770 34.381855 -884.575378
v 488.291809 34.381855 -885.384888
v 488.291809 36.180698 -885.384888
v 487.570770 36.180698 -884.575378
v 501.797668 34.301407 -871.466431
v 502.518707 34.301407 -872.275879
v 502.518707 36.100250 -872.275879
v 501.797668 36.100250 -871.466431
v 498.093964 36.058807 -880.914246
v 498.851837 36.058807 -881.765137
v 498.851837 37.855698 -881.765137
v 498.093964 37.855698 -880.914246
v 495.203522 36.609795 -885.746582
v 495.924561 36.609795 -886.556091
v 495.924561 38.408634 -886.556091
v 495.203522 38.408638 -885.746582
v 508.310913 35.783482 -871.160217
v 509.068787 35.783482 -872.011108
v 509.068787 37.580368 -872.011108
v 508.310913 37.580368 -871.160217
v 502.602692 36.578167 -878.567261
v 503.323730 36.578167 -879.376770
v 503.323730 38.377007 -879.376770
v 502.602692 38.377007 -878.567261
v 495.813232 32.372879 -871.021667
v 496.534241 32.372879 -871.831177
v 496.534241 34.171722 -871.831177
v 495.813232 34.171722 -871.021667
v 499.287781 34.586143 -874.922485
v 500.008789 34.586143 -875.731934
v 500.008789 36.384983 -875.731934
v 499.287781 36.384983 -874.922485
v 496.726715 34.023090 -874.980469
v 497.484589 34.023090 -875.831360
v 497.484589 35.819981 -875.831360
v 496.726715 35.819981 -874.980469
v 498.218842 36.056152 -881.404480
v 498.976715 36.056152 -882.255310
v 498.976715 37.853043 -882.255310
v 498.218842 37.853043 -881.404480
v 461.188538 32.168594 -901.079041
v 461.909576 32.168594 -901.888550
v 461.909576 33.967434 -901.888550
v 461.188538 33.967434 -901.079041
v 470.763184 32.815144 -897.223755
v 471.521057 32.815144 -898.074646
v 471.521057 34.612034 -898.074646
v 470.763184 34.612034 -897.223755
v 477.008942 32.088142 -886.550720
v 477.729950 32.088142 -887.360168
v 477.729950 33.886982 -887.360168
v 477.008942 33.886982 -886.550720
v 485.504578 32.978390 -883.721313
v 486.262451 32.978386 -884.572205
v 486.262451 34.775276 -884.572205
v 485.504578 34.775280 -883.721313
v 464.663086 33.229534 -904.979858
v 465.384125 33.229534 -905.789307
v 465.384125 35.028374 -905.789307
v 464.663086 35.028374 -904.979858
v 480.483490 33.149078 -890.451477
v 481.204498 33.149078 -891.260986
v 481.204498 34.947922 -891.260986
v 480.483490 34.947922 -890.451477
v 475.578156 34.319275 -900.969666
v 476.336060 34.319275 -901.820496
v 476.336029 36.116161 -901.820496
v 475.578156 36.116161 -900.969666
v 472.687744 34.537411 -905.801941
v 473.408752 34.537411 -906.611450
v 473.408752 36.336250 -906.611450
v 472.687744 36.336250 -905.801941
v 486.996704 34.043945 -890.145325
v 487.754608 34.043945 -890.996216
v 487.754608 35.840832 -890.996216
v 486.996704 35.840832 -890.145325
v 481.288513 34.505775 -897.552368
v 482.009552 34.505775 -898.361816
v 482.009552 36.304619 -898.361816
v 481.288513 36.304619 -897.552368
v 474.499023 32.372875 -890.006775
v 475.220062 32.372875 -890.816223
v 475.220062 34.171719 -890.816223
v 474.499023 34.171719 -890.006775
v 477.973572 33.433815 -893.907593
v 478.694611 33.433815 -894.717041
v 478.694611 35.232655 -894.717041
v 477.973572 35.232655 -893.907593
v 474.934326 33.251060 -894.391541
v 475.692200 33.251060 -895.242371
v 475.692200 35.047951 -895.242371
v 474.934326 35.047951 -894.391541
v 475.703033 34.316620 -901.459839
v 476.460907 34.316620 -902.310730
v 476.460907 36.113506 -902.310730
v 475.703033 36.113506 -901.459839
v 505.797150 32.168598 -861.345032
v 506.518188 32.168598 -862.154541
v 506.518188 33.967438 -862.154541
v 505.797150 33.967438 -861.345032
v 515.371765 32.815147 -857.489746
v 516.129639 32.815147 -858.340637
v 516.129639 34.612038 -858.340637
v 515.371765 34.612038 -857.489746
v 521.617554 32.088146 -846.816711
v 522.338562 32.088146 -847.626160
v 522.338562 33.886986 -847.626160
v 521.617554 33.886986 -846.816711
v 530.113159 32.978390 -843.987305
v 530.871094 32.978390 -844.838196
v 530.871094 34.775280 -844.838196
v 530.113159 34.775280 -843.987305
v 509.271698 33.229538 -865.245850
v 509.992737 33.229538 -866.055298
v 509.992737 35.028378 -866.055298
v 509.271698 35.028378 -865.245850
v 525.092102 33.149082 -850.717468
v 525.813110 33.149082 -851.526978
v 525.813110 34.947926 -851.526978
v 525.092102 34.947926 -850.717468
v 520.186768 34.319275 -861.235657
v 520.944641 34.319279 -862.086487
v 520.944641 36.116165 -862.086487
v 520.186768 36.116165 -861.235657
v 517.296326 34.537415 -866.067932
v 518.017334 34.537415 -866.877441
v 518.017334 36.336254 -866.877441
v 517.296326 36.336254 -866.067932
v 531.605286 34.043949 -850.411316
v 532.363220 34.043949 -851.262207
v 532.363220 35.840836 -851.262207
v 531.605286 35.840836 -850.411316
v 525.897095 34.505779 -857.818359
v 526.618164 34.505779 -858.627808
v 526.618164 36.304623 -858.627808
v 525.897095 36.304623 -857.818359
v 519.107605 32.372879 -850.272766
v 519.828674 32.372879 -851.082214
v 519.828674 34.171722 -851.082214
v 519.107605 34.171722 -850.272766
v 522.582153 33.433819 -854.173584
v 523.303223 33.433819 -854.983032
v 523.303223 35.232658 -854.983032
v 522.582153 35.232658 -854.173584
v 519.542908 33.251064 -854.657532
v 520.300781 33.251064 -855.508362
v 520.300781 35.047955 -855.508362
v 519.542908 35.047955 -854.657532
v 520.311646 34.316624 -861.725830
v 521.069519 34.316624 -862.576721
v 521.069519 36.113510 -862.576721
v 520.311646 36.113510 -861.725830
v 315.942902 29.313665 -718.911560
v 315.482086 29.313665 -719.892761
v 315.482086 31.112507 -719.892761
v 315.942902 31.112507 -718.911560
v 322.777130 30.732241 -725.976196
v 322.292755 30.732241 -727.007568
v 322.292755 32.529129 -727.007568
v 322.777130 32.529129 -725.976196
v 326.029510 29.233210 -723.288147
v 325.568695 29.233210 -724.269348
v 325.568695 31.032051 -724.269348
v 326.029510 31.032051 -723.288147
v 329.388519 30.895483 -728.774292
v 328.904175 30.895483 -729.805664
v 328.904175 32.692375 -729.805664
v 329.388519 32.692375 -728.774292
v 313.722321 31.526926 -723.639954
v 313.261536 31.526926 -724.621216
v 313.261536 33.325768 -724.621216
v 313.722321 33.325768 -723.639954
v 323.808929 31.446472 -728.016541
v 323.348145 31.446474 -728.997803
v 323.348145 33.245316 -728.997803
v 323.808929 33.245316 -728.016541
v 338.903595 29.945009 -729.331238
v 338.442780 29.945009 -730.312500
v 338.442780 31.743851 -730.312500
v 338.903595 31.743851 -729.331238
v 345.737823 31.363586 -736.395935
v 345.253448 31.363586 -737.427307
v 345.253448 33.160473 -737.427307
v 345.737823 33.160473 -736.395935
v 348.990204 29.864555 -733.707825
v 348.529388 29.864557 -734.689087
v 348.529388 31.663397 -734.689087
v 348.990204 31.663397 -733.707825
v 352.349213 31.526829 -739.193970
v 351.864868 31.526829 -740.225342
v 351.864868 33.323715 -740.225342
v 352.349213 33.323715 -739.193970
v 336.683014 32.158268 -734.059631
v 336.222229 32.158268 -735.040894
v 336.222229 33.957111 -735.040894
v 336.683014 33.957111 -734.059631
v 346.769623 32.077816 -738.436218
v 346.308838 32.077816 -739.417480
v 346.308838 33.876659 -739.417480
v 346.769623 33.876659 -738.436218
v 361.382568 29.714071 -739.532288
v 360.921783 29.714071 -740.513550
v 360.921783 31.512913 -740.513550
v 361.382568 31.512913 -739.532288
v 368.216827 31.132647 -746.596985
v 367.732452 31.132647 -747.628357
v 367.732452 32.929535 -747.628357
v 368.216827 32.929535 -746.596985
v 371.469208 29.633617 -743.908875
v 371.008392 29.633619 -744.890137
v 371.008392 31.432459 -744.890137
v 371.469208 31.432459 -743.908875
v 374.828217 31.295889 -749.395020
v 374.343872 31.295889 -750.426392
v 374.343872 33.092777 -750.426392
v 374.828217 33.092777 -749.395020
v 359.162018 31.927334 -744.260681
v 358.701233 31.927334 -745.241943
v 358.701233 33.726173 -745.241943
v 359.162018 33.726173 -744.260681
v 369.248627 31.846880 -748.637268
v 368.787842 31.846880 -749.618530
v 368.787842 33.645721 -749.618530
v 369.248627 33.645721 -748.637268
vn -1.0000 -0.0000 -0.0000
vn 0.2822 -0.0000 0.9593
vn 0.2822 -0.0000 0.9594
vn 0.2823 -0.0000 0.9593
vn -0.8142 -0.0000 0.5805
vn -0.8143 -0.0000 0.5805
vn -0.8142 -0.0000 0.5806
vn 0.0030 -0.0000 -1.0000
vn 0.0031 -0.0000 -1.0000
vn 0.2535 -0.0000 0.9673
vn 0.2534 -0.0000 0.9673
vn 0.2868 -0.0000 0.9580
vn -0.0041 -0.0000 1.0000
vn -0.0131 -0.0000 -0.9999
vn -0.0130 -0.0000 -0.9999
vn -0.0129 -0.0000 -0.9999
vn 0.7548 -0.0000 0.6560
vn 0.7547 -0.0000 0.6560
vn 0.7548 -0.0000 0.6559
vn 0.7547 -0.0000 0.6561
vn 0.7467 -0.0000 0.6651
vn 0.7468 -0.0000 0.6651
vn 0.7467 -0.0000 0.6652
vn 0.7468 -0.0000 0.6650
vn 0.9051 -0.0000 -0.4251
vn 0.9052 -0.0000 -0.4251
vn 0.9052 -0.0000 -0.4250
vt 0.000500 1.000500
vt 0.999501 1.000499
vt 0.999501 1.999500
vt 0.000500 1.999501
s 1
usemtl PEOPLSDC
f 1/1/1 2/2/1 3/3/1
f 3/3/1 4/4/1 1/1/1
f 5/1/1 6/2/1 7/3/1
f 7/3/1 8/4/1 5/1/1
f 9/1/1 10/2/1 11/3/1
f 11/3/1 12/4/1 9/1/1
f 13/1/1 14/2/1 15/3/1
f 15/3/1 16/4/1 13/1/1
f 17/1/1 18/2/1 19/3/1
f 19/3/1 20/4/1 17/1/1
f 21/1/1 22/2/1 23/3/1
f 23/3/1 24/4/1 21/1/1
f 25/1/1 26/2/1 27/3/1
f 27/3/1 28/4/1 25/1/1
f 29/1/1 30/2/1 31/3/1
f 31/3/1 32/4/1 29/1/1
f 33/1/1 34/2/1 35/3/1
f 35/3/1 36/4/1 33/1/1
f 37/1/1 38/2/1 39/3/1
f 39/3/1 40/4/1 37/1/1
f 41/1/1 42/2/1 43/3/1
f 43/3/1 44/4/1 41/1/1
f 45/1/1 46/2/1 47/3/1
f 47/3/1 48/4/1 45/1/1
f 49/1/1 50/2/1 51/3/1
f 51/3/1 52/4/1 49/1/1
f 53/1/1 54/2/1 55/3/1
f 55/3/1 56/4/1 53/1/1
f 57/1/1 58/2/1 59/3/1
f 59/3/1 60/4/1 57/1/1
f 61/1/1 62/2/1 63/3/1
f 63/3/1 64/4/1 61/1/1
f 65/1/1 66/2/1 67/3/1
f 67/3/1 68/4/1 65/1/1
f 69/1/1 70/2/1 71/3/1
f 71/3/1 72/4/1 69/1/1
f 73/1/1 74/2/1 75/3/1
f 75/3/1 76/4/1 73/1/1
f 77/1/1 78/2/1 79/3/1
f 79/3/1 80/4/1 77/1/1
f 81/1/1 82/2/1 83/3/1
f 83/3/1 84/4/1 81/1/1
f 85/1/1 86/2/1 87/3/1
f 87/3/1 88/4/1 85/1/1
f 89/1/1 90/2/1 91/3/1
f 91/3/1 92/4/1 89/1/1
f 93/1/1 94/2/1 95/3/1
f 95/3/1 96/4/1 93/1/1
f 97/1/1 98/2/1 99/3/1
f 99/3/1 100/4/1 97/1/1
f 101/1/1 102/2/1 103/3/1
f 103/3/1 104/4/1 101/1/1
f 105/1/1 106/2/1 107/3/1
f 107/3/1 108/4/1 105/1/1
f 109/1/1 110/2/1 111/3/1
f 111/3/1 112/4/1 109/1/1
f 113/1/1 114/2/1 115/3/1
f 115/3/1 116/4/1 113/1/1
f 117/1/1 118/2/1 119/3/1
f 119/3/1 120/4/1 117/1/1
f 121/1/1 122/2/1 123/3/1
f 123/3/1 124/4/1 121/1/1
f 125/1/1 126/2/1 127/3/1
f 127/3/1 128/4/1 125/1/1
f 129/1/1 130/2/1 131/3/1
f 131/3/1 132/4/1 129/1/1
f 133/1/1 134/2/1 135/3/1
f 135/3/1 136/4/1 133/1/1
f 137/1/1 138/2/1 139/3/1
f 139/3/1 140/4/1 137/1/1
f 141/1/1 142/2/1 143/3/1
f 143/3/1 144/4/1 141/1/1
f 145/1/2 146/2/2 147/3/2
f 147/3/2 148/4/2 145/1/2
f 149/1/2 150/2/2 151/3/2
f 151/3/2 152/4/2 149/1/2
f 153/1/2 154/2/3 155/3/2
f 155/3/2 156/4/4 153/1/2
f 157/1/2 158/2/2 159/3/2
f 159/3/2 160/4/3 157/1/2
f 161/1/3 162/2/2 163/3/3
f 163/3/3 164/4/3 161/1/3
f 165/1/3 166/2/2 167/3/3
f 167/3/3 168/4/3 165/1/3
f 169/1/2 170/2/2 171/3/2
f 171/3/2 172/4/4 169/1/2
f 173/1/2 174/2/2 175/3/2
f 175/3/2 176/4/2 173/1/2
f 177/1/2 178/2/3 179/3/2
f 179/3/2 180/4/4 177/1/2
f 181/1/2 182/2/3 183/3/2
f 183/3/2 184/4/2 181/1/2
f 185/1/2 186/2/3 187/3/2
f 187/3/2 188/4/4 185/1/2
f 189/1/2 190/2/2 191/3/2
f 191/3/2 192/4/4 189/1/2
f 193/1/4 194/2/4 195/3/4
f 195/3/4 196/4/4 193/1/4
f 197/1/2 198/2/2 199/3/2
f 199/3/2 200/4/2 197/1/2
f 201/1/3 202/2/2 203/3/3
f 203/3/3 204/4/3 201/1/3
f 205/1/2 206/2/2 207/3/2
f 207/3/2 208/4/2 205/1/2
f 209/1/2 210/2/4 211/3/2
f 211/3/2 212/4/3 209/1/2
f 213/1/4 214/2/4 215/3/4
f 215/3/4 216/4/4 213/1/4
f 217/1/5 218/2/6 219/3/7
f 219/3/7 220/4/7 217/1/5
f 221/1/5 222/2/6 223/3/5
f 223/3/5 224/4/7 221/1/5
f 225/1/5 226/2/5 227/3/5
f 227/3/5 228/4/6 225/1/5
f 229/1/5 230/2/6 231/3/5
f 231/3/5 232/4/5 229/1/5
f 233/1/5 234/2/6 235/3/5
f 235/3/5 236/4/5 233/1/5
f 237/1/5 238/2/6 239/3/7
f 239/3/7 240/4/7 237/1/5
f 241/1/5 242/2/6 243/3/7
f 243/3/7 244/4/7 241/1/5
f 245/1/7 246/2/5 247/3/7
f 247/3/7 248/4/7 245/1/7
f 249/1/5 250/2/5 251/3/5
f 251/3/5 252/4/6 249/1/5
f 253/1/5 254/2/5 255/3/5
f 255/3/5 256/4/6 253/1/5
f 257/1/5 258/2/5 259/3/5
f 259/3/5 260/4/6 257/1/5
f 261/1/7 262/2/5 263/3/7
f 263/3/7 264/4/7 261/1/7
f 265/1/5 266/2/5 267/3/5
f 267/3/5 268/4/5 265/1/5
f 269/1/7 270/2/5 271/3/7
f 271/3/7 272/4/7 269/1/7
f 273/1/5 274/2/5 275/3/5
f 275/3/5 276/4/6 273/1/5
f 277/1/5 278/2/6 279/3/5
f 279/3/5 280/4/5 277/1/5
f 281/1/5 282/2/6 283/3/5
f 283/3/5 284/4/5 281/1/5
f 285/1/5 286/2/6 287/3/7
f 287/3/7 288/4/7 285/1/5
f 289/1/8 290/2/8 291/3/8
f 291/3/8 292/4/8 289/1/8
f 293/1/9 294/2/8 295/3/9
f 295/3/9 296/4/9 293/1/9
f 297/1/8 298/2/8 299/3/9
f 299/3/9 300/4/9 297/1/8
f 301/1/8 302/2/8 303/3/8
f 303/3/8 304/4/8 301/1/8
f 305/1/8 306/2/8 307/3/8
f 307/3/8 308/4/8 305/1/8
f 309/1/8 310/2/9 311/3/8
f 311/3/8 312/4/8 309/1/8
f 313/1/8 314/2/9 315/3/8
f 315/3/8 316/4/8 313/1/8
f 317/1/9 318/2/9 319/3/9
f 319/3/9 320/4/8 317/1/9
f 321/1/8 322/2/8 323/3/9
f 323/3/9 324/4/9 321/1/8
f 325/1/9 326/2/8 327/3/9
f 327/3/9 328/4/9 325/1/9
f 329/1/8 330/2/8 331/3/8
f 331/3/8 332/4/9 329/1/8
f 333/1/8 334/2/9 335/3/8
f 335/3/8 336/4/8 333/1/8
f 337/1/8 338/2/8 339/3/8
f 339/3/8 340/4/9 337/1/8
f 341/1/8 342/2/8 343/3/8
f 343/3/8 344/4/8 341/1/8
f 345/1/9 346/2/9 347/3/9
f 347/3/9 348/4/9 345/1/9
f 349/1/8 350/2/8 351/3/8
f 351/3/8 352/4/8 349/1/8
f 353/1/8 354/2/9 355/3/8
f 355/3/8 356/4/8 353/1/8
f 357/1/9 358/2/9 359/3/9
f 359/3/9 360/4/9 357/1/9
f 361/1/1 362/2/1 363/3/1
f 363/3/1 364/4/1 361/1/1
f 365/1/1 366/2/1 367/3/1
f 367/3/1 368/4/1 365/1/1
f 369/1/1 370/2/1 371/3/1
f 371/3/1 372/4/1 369/1/1
f 373/1/1 374/2/1 375/3/1
f 375/3/1 376/4/1 373/1/1
f 377/1/1 378/2/1 379/3/1
f 379/3/1 380/4/1 377/1/1
f 381/1/1 382/2/1 383/3/1
f 383/3/1 384/4/1 381/1/1
f 385/1/1 386/2/1 387/3/1
f 387/3/1 388/4/1 385/1/1
f 389/1/1 390/2/1 391/3/1
f 391/3/1 392/4/1 389/1/1
f 393/1/1 394/2/1 395/3/1
f 395/3/1 396/4/1 393/1/1
f 397/1/1 398/2/1 399/3/1
f 399/3/1 400/4/1 397/1/1
f 401/1/1 402/2/1 403/3/1
f 403/3/1 404/4/1 401/1/1
f 405/1/1 406/2/1 407/3/1
f 407/3/1 408/4/1 405/1/1
f 409/1/1 410/2/1 411/3/1
f 411/3/1 412/4/1 409/1/1
f 413/1/1 414/2/1 415/3/1
f 415/3/1 416/4/1 413/1/1
f 417/1/1 418/2/1 419/3/1
f 419/3/1 420/4/1 417/1/1
f 421/1/1 422/2/1 423/3/1
f 423/3/1 424/4/1 421/1/1
f 425/1/1 426/2/1 427/3/1
f 427/3/1 428/4/1 425/1/1
f 429/1/1 430/2/1 431/3/1
f 431/3/1 432/4/1 429/1/1
f 433/1/1 434/2/1 435/3/1
f 435/3/1 436/4/1 433/1/1
f 437/1/1 438/2/1 439/3/1
f 439/3/1 440/4/1 437/1/1
f 441/1/1 442/2/1 443/3/1
f 443/3/1 444/4/1 441/1/1
f 445/1/1 446/2/1 447/3/1
f 447/3/1 448/4/1 445/1/1
f 449/1/1 450/2/1 451/3/1
f 451/3/1 452/4/1 449/1/1
f 453/1/1 454/2/1 455/3/1
f 455/3/1 456/4/1 453/1/1
f 457/1/1 458/2/1 459/3/1
f 459/3/1 460/4/1 457/1/1
f 461/1/1 462/2/1 463/3/1
f 463/3/1 464/4/1 461/1/1
f 465/1/1 466/2/1 467/3/1
f 467/3/1 468/4/1 465/1/1
f 469/1/1 470/2/1 471/3/1
f 471/3/1 472/4/1 469/1/1
f 473/1/1 474/2/1 475/3/1
f 475/3/1 476/4/1 473/1/1
f 477/1/1 478/2/1 479/3/1
f 479/3/1 480/4/1 477/1/1
f 481/1/1 482/2/1 483/3/1
f 483/3/1 484/4/1 481/1/1
f 485/1/1 486/2/1 487/3/1
f 487/3/1 488/4/1 485/1/1
f 489/1/1 490/2/1 491/3/1
f 491/3/1 492/4/1 489/1/1
f 493/1/1 494/2/1 495/3/1
f 495/3/1 496/4/1 493/1/1
f 497/1/1 498/2/1 499/3/1
f 499/3/1 500/4/1 497/1/1
f 501/1/1 502/2/1 503/3/1
f 503/3/1 504/4/1 501/1/1
f 505/1/1 506/2/1 507/3/1
f 507/3/1 508/4/1 505/1/1
f 509/1/1 510/2/1 511/3/1
f 511/3/1 512/4/1 509/1/1
f 513/1/1 514/2/1 515/3/1
f 515/3/1 516/4/1 513/1/1
f 517/1/1 518/2/1 519/3/1
f 519/3/1 520/4/1 517/1/1
f 521/1/1 522/2/1 523/3/1
f 523/3/1 524/4/1 521/1/1
f 525/1/1 526/2/1 527/3/1
f 527/3/1 528/4/1 525/1/1
f 529/1/10 530/2/10 531/3/10
f 531/3/10 532/4/10 529/1/10
f 533/1/10 534/2/11 535/3/10
f 535/3/10 536/4/10 533/1/10
f 537/1/10 538/2/10 539/3/10
f 539/3/10 540/4/10 537/1/10
f 541/1/10 542/2/10 543/3/10
f 543/3/10 544/4/10 541/1/10
f 545/1/10 546/2/10 547/3/10
f 547/3/10 548/4/10 545/1/10
f 549/1/10 550/2/10 551/3/10
f 551/3/10 552/4/10 549/1/10
f 553/1/12 554/2/12 555/3/12
f 555/3/12 556/4/12 553/1/12
f 557/1/12 558/2/12 559/3/12
f 559/3/12 560/4/12 557/1/12
f 561/1/12 562/2/12 563/3/12
f 563/3/12 564/4/12 561/1/12
f 565/1/12 566/2/12 567/3/12
f 567/3/12 568/4/12 565/1/12
f 569/1/12 570/2/12 571/3/12
f 571/3/12 572/4/12 569/1/12
f 573/1/12 574/2/12 575/3/12
f 575/3/12 576/4/12 573/1/12
f 577/1/13 578/2/13 579/3/13
f 579/3/13 580/4/13 577/1/13
f 581/1/13 582/2/13 583/3/13
f 583/3/13 584/4/13 581/1/13
f 585/1/13 586/2/13 587/3/13
f 587/3/13 588/4/13 585/1/13
f 589/1/13 590/2/13 591/3/13
f 591/3/13 592/4/13 589/1/13
f 593/1/13 594/2/13 595/3/13
f 595/3/13 596/4/13 593/1/13
f 597/1/13 598/2/13 599/3/13
f 599/3/13 600/4/13 597/1/13
f 601/1/14 602/2/14 603/3/15
f 603/3/15 604/4/15 601/1/14
f 605/1/15 606/2/14 607/3/15
f 607/3/15 608/4/15 605/1/15
f 609/1/15 610/2/15 611/3/15
f 611/3/15 612/4/15 609/1/15
f 613/1/14 614/2/14 615/3/15
f 615/3/15 616/4/15 613/1/14
f 617/1/15 618/2/14 619/3/15
f 619/3/15 620/4/15 617/1/15
f 621/1/14 622/2/14 623/3/15
f 623/3/15 624/4/16 621/1/14
f 625/1/15 626/2/15 627/3/14
f 627/3/14 628/4/14 625/1/15
f 629/1/15 630/2/16 631/3/15
f 631/3/15 632/4/14 629/1/15
f 633/1/15 634/2/15 635/3/15
f 635/3/15 636/4/15 633/1/15
f 637/1/14 638/2/14 639/3/14
f 639/3/14 640/4/14 637/1/14
f 641/1/15 642/2/15 643/3/15
f 643/3/15 644/4/15 641/1/15
f 645/1/15 646/2/15 647/3/15
f 647/3/15 648/4/14 645/1/15
f 649/1/15 650/2/15 651/3/14
f 651/3/14 652/4/14 649/1/15
f 653/1/15 654/2/16 655/3/15
f 655/3/15 656/4/14 653/1/15
f 657/1/15 658/2/15 659/3/15
f 659/3/15 660/4/15 657/1/15
f 661/1/14 662/2/14 663/3/14
f 663/3/14 664/4/14 661/1/14
f 665/1/15 666/2/15 667/3/15
f 667/3/15 668/4/15 665/1/15
f 669/1/15 670/2/15 671/3/15
f 671/3/15 672/4/14 669/1/15
f 673/1/17 674/2/18 675/3/17
f 675/3/17 676/4/17 673/1/17
f 677/1/17 678/2/17 679/3/17
f 679/3/17 680/4/17 677/1/17
f 681/1/17 682/2/17 683/3/17
f 683/3/17 684/4/17 681/1/17
f 685/1/17 686/2/18 687/3/17
f 687/3/17 688/4/19 685/1/17
f 689/1/17 690/2/17 691/3/17
f 691/3/17 692/4/19 689/1/17
f 693/1/19 694/2/19 695/3/19
f 695/3/19 696/4/19 693/1/19
f 697/1/17 698/2/18 699/3/19
f 699/3/19 700/4/19 697/1/17
f 701/1/17 702/2/17 703/3/17
f 703/3/17 704/4/18 701/1/17
f 705/1/19 706/2/19 707/3/17
f 707/3/17 708/4/18 705/1/19
f 709/1/17 710/2/17 711/3/17
f 711/3/17 712/4/17 709/1/17
f 713/1/17 714/2/17 715/3/17
f 715/3/17 716/4/19 713/1/17
f 717/1/17 718/2/18 719/3/17
f 719/3/17 720/4/17 717/1/17
f 721/1/17 722/2/17 723/3/17
f 723/3/17 724/4/17 721/1/17
f 725/1/17 726/2/18 727/3/17
f 727/3/17 728/4/17 725/1/17
f 729/1/17 730/2/17 731/3/17
f 731/3/17 732/4/18 729/1/17
f 733/1/17 734/2/18 735/3/17
f 735/3/17 736/4/17 733/1/17
f 737/1/17 738/2/17 739/3/17
f 739/3/17 740/4/17 737/1/17
f 741/1/17 742/2/18 743/3/19
f 743/3/19 744/4/19 741/1/17
f 745/1/17 746/2/19 747/3/17
f 747/3/17 748/4/17 745/1/17
f 749/1/17 750/2/18 751/3/17
f 751/3/17 752/4/17 749/1/17
f 753/1/17 754/2/17 755/3/17
f 755/3/17 756/4/17 753/1/17
f 757/1/17 758/2/18 759/3/17
f 759/3/17 760/4/17 757/1/17
f 761/1/19 762/2/19 763/3/17
f 763/3/17 764/4/18 761/1/19
f 765/1/19 766/2/19 767/3/19
f 767/3/19 768/4/19 765/1/19
f 769/1/18 770/2/20 771/3/17
f 771/3/17 772/4/17 769/1/18
f 773/1/17 774/2/17 775/3/17
f 775/3/17 776/4/19 773/1/17
f 777/1/17 778/2/17 779/3/17
f 779/3/17 780/4/17 777/1/17
f 781/1/17 782/2/17 783/3/17
f 783/3/17 784/4/17 781/1/17
f 785/1/17 786/2/17 787/3/17
f 787/3/17 788/4/18 785/1/17
f 789/1/17 790/2/18 791/3/19
f 791/3/19 792/4/19 789/1/17
f 793/1/17 794/2/18 795/3/17
f 795/3/17 796/4/17 793/1/17
f 797/1/17 798/2/19 799/3/17
f 799/3/17 800/4/18 797/1/17
f 801/1/17 802/2/17 803/3/17
f 803/3/17 804/4/17 801/1/17
f 805/1/19 806/2/19 807/3/19
f 807/3/19 808/4/19 805/1/19
f 809/1/17 810/2/18 811/3/17
f 811/3/17 812/4/19 809/1/17
f 813/1/17 814/2/17 815/3/17
f 815/3/17 816/4/17 813/1/17
f 817/1/17 818/2/17 819/3/17
f 819/3/17 820/4/17 817/1/17
f 821/1/19 822/2/19 823/3/19
f 823/3/19 824/4/19 821/1/19
f 825/1/18 826/2/18 827/3/18
f 827/3/18 828/4/18 825/1/18
f 829/1/17 830/2/19 831/3/17
f 831/3/17 832/4/17 829/1/17
f 833/1/17 834/2/19 835/3/17
f 835/3/17 836/4/18 833/1/17
f 837/1/17 838/2/18 839/3/19
f 839/3/19 840/4/19 837/1/17
f 841/1/21 842/2/21 843/3/22
f 843/3/22 844/4/22 841/1/21
f 845/1/21 846/2/21 847/3/21
f 847/3/21 848/4/22 845/1/21
f 849/1/21 850/2/22 851/3/21
f 851/3/21 852/4/23 849/1/21
f 853/1/21 854/2/21 855/3/21
f 855/3/21 856/4/21 853/1/21
f 857/1/21 858/2/22 859/3/21
f 859/3/21 860/4/23 857/1/21
f 861/1/23 862/2/23 863/3/23
f 863/3/23 864/4/23 861/1/23
f 865/1/21 866/2/21 867/3/21
f 867/3/21 868/4/22 865/1/21
f 869/1/21 870/2/23 871/3/22
f 871/3/22 872/4/24 869/1/21
f 873/1/21 874/2/21 875/3/21
f 875/3/21 876/4/22 873/1/21
f 877/1/21 878/2/22 879/3/21
f 879/3/21 880/4/23 877/1/21
f 881/1/22 882/2/22 883/3/21
f 883/3/21 884/4/21 881/1/22
f 885/1/21 886/2/21 887/3/21
f 887/3/21 888/4/21 885/1/21
f 889/1/21 890/2/22 891/3/21
f 891/3/21 892/4/21 889/1/21
f 893/1/21 894/2/21 895/3/21
f 895/3/21 896/4/21 893/1/21
f 897/1/21 898/2/22 899/3/21
f 899/3/21 900/4/23 897/1/21
f 901/1/21 902/2/22 903/3/21
f 903/3/21 904/4/21 901/1/21
f 905/1/21 906/2/21 907/3/21
f 907/3/21 908/4/21 905/1/21
f 909/1/21 910/2/22 911/3/21
f 911/3/21 912/4/21 909/1/21
f 913/1/23 914/2/23 915/3/23
f 915/3/23 916/4/23 913/1/23
f 917/1/22 918/2/22 919/3/21
f 919/3/21 920/4/21 917/1/22
f 921/1/23 922/2/23 923/3/23
f 923/3/23 924/4/21 921/1/23
f 925/1/22 926/2/22 927/3/21
f 927/3/21 928/4/21 925/1/22
f 929/1/21 930/2/23 931/3/21
f 931/3/21 932/4/22 929/1/21
f 933/1/23 934/2/23 935/3/23
f 935/3/23 936/4/23 933/1/23
f 937/1/23 938/2/23 939/3/23
f 939/3/23 940/4/23 937/1/23
f 941/1/23 942/2/23 943/3/23
f 943/3/23 944/4/23 941/1/23
f 945/1/21 946/2/22 947/3/21
f 947/3/21 948/4/21 945/1/21
f 949/1/22 950/2/24 951/3/22
f 951/3/22 952/4/21 949/1/22
f 953/1/21 954/2/22 955/3/21
f 955/3/21 956/4/23 953/1/21
f 957/1/21 958/2/22 959/3/21
f 959/3/21 960/4/21 957/1/21
f 961/1/21 962/2/21 963/3/22
f 963/3/22 964/4/22 961/1/21
f 965/1/21 966/2/21 967/3/23
f 967/3/23 968/4/23 965/1/21
f 969/1/23 970/2/23 971/3/23
f 971/3/23 972/4/23 969/1/23
f 973/1/22 974/2/22 975/3/21
f 975/3/21 976/4/21 973/1/22
f 977/1/21 978/2/21 979/3/21
f 979/3/21 980/4/21 977/1/21
f 981/1/22 982/2/22 983/3/21
f 983/3/21 984/4/21 981/1/22
f 985/1/23 986/2/23 987/3/21
f 987/3/21 988/4/21 985/1/23
f 989/1/23 990/2/23 991/3/23
f 991/3/23 992/4/23 989/1/23
f 993/1/23 994/2/23 995/3/23
f 995/3/23 996/4/23 993/1/23
f 997/1/23 998/2/23 999/3/23
f 999/3/23 1000/4/23 997/1/23
f 1001/1/21 1002/2/21 1003/3/21
f 1003/3/21 1004/4/21 1001/1/21
f 1005/1/21 1006/2/22 1007/3/21
f 1007/3/21 1008/4/21 1005/1/21
f 1009/1/25 1010/2/25 1011/3/26
f 1011/3/26 1012/4/26 1009/1/25
f 1013/1/25 1014/2/25 1015/3/25
f 1015/3/25 1016/4/25 1013/1/25
f 1017/1/25 1018/2/25 1019/3/26
f 1019/3/26 1020/4/26 1017/1/25
f 1021/1/26 1022/2/26 1023/3/26
f 1023/3/26 1024/4/26 1021/1/26
f 1025/1/26 1026/2/25 1027/3/27
f 1027/3/27 1028/4/27 1025/1/26
f 1029/1/26 1030/2/25 1031/3/27
f 1031/3/27 1032/4/27 1029/1/26
f 1033/1/26 1034/2/26 1035/3/26
f 1035/3/26 1036/4/26 1033/1/26
f 1037/1/25 1038/2/25 1039/3/25
f 1039/3/25 1040/4/25 1037/1/25
f 1041/1/25 1042/2/25 1043/3/26
f 1043/3/26 1044/4/26 1041/1/25
f 1045/1/26 1046/2/26 1047/3/26
f 1047/3/26 1048/4/26 1045/1/26
f 1049/1/26 1050/2/25 1051/3/27
f 1051/3/27 1052/4/27 1049/1/26
f 1053/1/26 1054/2/25 1055/3/27
f 1055/3/27 1056/4/27 1053/1/26
f 1057/1/26 1058/2/26 1059/3/26
f 1059/3/26 1060/4/26 1057/1/26
f 1061/1/25 1062/2/25 1063/3/25
f 1063/3/25 1064/4/25 1061/1/25
f 1065/1/26 1066/2/26 1067/3/26
f 1067/3/26 1068/4/26 1065/1/26
f 1069/1/26 1070/2/26 1071/3/26
f 1071/3/26 1072/4/26 1069/1/26
f 1073/1/26 1074/2/26 1075/3/26
f 1075/3/26 1076/4/26 1073/1/26
f 1077/1/26 1078/2/26 1079/3/26
f 1079/3/26 1080/4/26 1077/1/26
