# Blender 4.4.3
# www.blender.org
mtllib PEOPLSDA.mtl
o PEOPLSDA
v -75.200737 0.833619 22.561609
v -75.200737 0.833619 23.701056
v -75.200737 2.630508 23.701056
v -75.200737 2.630508 22.561609
v -83.462059 0.051565 20.900671
v -83.462059 0.051565 21.963507
v -83.462059 1.878815 21.963507
v -83.462059 1.878815 20.900671
v -86.191093 0.833619 22.283905
v -86.191093 0.833619 23.423351
v -86.191093 2.630508 23.423351
v -86.191093 2.630508 22.283905
v -93.839615 -0.199508 20.331463
v -93.839615 -0.199508 21.394297
v -93.839615 1.627742 21.394297
v -93.839615 1.627742 20.331463
v -83.462059 2.360496 26.316294
v -83.462059 2.360496 27.379128
v -83.462059 4.187747 27.379128
v -83.462059 4.187747 26.316294
v -93.839615 2.109423 25.747084
v -93.839615 2.109423 26.809917
v -93.839615 3.936674 26.809917
v -93.839615 3.936674 25.747084
v -101.116127 0.839479 22.850700
v -101.116127 0.839479 23.990147
v -101.116127 2.636367 23.990147
v -101.116127 2.636367 22.850700
v -109.377449 0.057424 21.189762
v -109.377449 0.057424 22.252598
v -109.377449 1.884675 22.252598
v -109.377449 1.884675 21.189762
v -112.106483 0.839479 22.572996
v -112.106483 0.839479 23.712442
v -112.106483 2.636367 23.712442
v -112.106483 2.636367 22.572996
v -119.755005 -0.193649 20.620552
v -119.755013 -0.193649 21.683388
v -119.755005 1.633602 21.683388
v -119.755005 1.633602 20.620552
v -109.377449 2.366356 26.605385
v -109.377449 2.366356 27.668221
v -109.377449 4.193606 27.668219
v -109.377449 4.193606 26.605385
v -119.755005 2.115283 26.036175
v -119.755005 2.115283 27.099009
v -119.755005 3.942533 27.099009
v -119.755005 3.942533 26.036175
v -157.565948 1.609209 26.126778
v -157.565948 1.609209 27.266224
v -157.565948 3.406097 27.266224
v -157.565948 3.406097 26.126778
v -165.827286 0.827154 24.465839
v -165.827286 0.827154 25.528675
v -165.827286 2.654405 25.528675
v -165.827286 2.654405 24.465839
v -168.556320 1.609209 25.849073
v -168.556305 1.609209 26.988520
v -168.556305 3.406097 26.988520
v -168.556320 3.406097 25.849073
v -176.204834 0.576081 23.896629
v -176.204834 0.576081 24.959465
v -176.204834 2.403332 24.959465
v -176.204834 2.403332 23.896629
v -165.827286 3.136085 29.881462
v -165.827286 3.136085 30.944298
v -165.827286 4.963336 30.944296
v -165.827286 4.963336 29.881462
v -176.204834 2.885012 29.312252
v -176.204834 2.885012 30.375086
v -176.204834 4.712264 30.375086
v -176.204834 4.712264 29.312252
v 314.717957 -0.833140 22.706470
v 314.717957 -0.833140 23.845917
v 314.717957 0.963748 23.845917
v 314.717957 0.963748 22.706470
v 306.456635 -1.615195 21.045532
v 306.456635 -1.615195 22.108368
v 306.456635 0.212056 22.108368
v 306.456635 0.212056 21.045532
v 303.727600 -0.833140 22.428766
v 303.727600 -0.833140 23.568213
v 303.727600 0.963748 23.568213
v 303.727600 0.963748 22.428766
v 296.079071 -1.866268 20.476322
v 296.079071 -1.866268 21.539158
v 296.079071 -0.039017 21.539158
v 296.079071 -0.039017 20.476322
v 306.456635 0.693736 26.461155
v 306.456635 0.693736 27.523991
v 306.456635 2.520987 27.523989
v 306.456635 2.520987 26.461155
v 296.079071 0.442663 25.891945
v 296.079071 0.442663 26.954779
v 296.079071 2.269914 26.954779
v 296.079071 2.269914 25.891945
v 371.167786 -0.833140 26.293159
v 371.167786 -0.833140 27.432606
v 371.167786 0.963748 27.432606
v 371.167786 0.963748 26.293159
v 362.906464 -1.615195 24.632221
v 362.906464 -1.615195 25.695057
v 362.906464 0.212056 25.695057
v 362.906464 0.212056 24.632221
v 360.177429 -0.833140 26.015455
v 360.177429 -0.833140 27.154902
v 360.177429 0.963748 27.154902
v 360.177429 0.963748 26.015455
v 352.528900 -1.866268 24.063011
v 352.528900 -1.866268 25.125847
v 352.528900 -0.039017 25.125847
v 352.528900 -0.039017 24.063011
v 362.906464 0.693736 30.047844
v 362.906464 0.693736 31.110680
v 362.906464 2.520987 31.110678
v 362.906464 2.520987 30.047844
v 352.528900 0.442663 29.478634
v 352.528900 0.442663 30.541468
v 352.528900 2.269914 30.541468
v 352.528900 2.269914 29.478634
v 397.125580 -0.833140 25.967812
v 397.125580 -0.833140 27.107258
v 397.125580 0.963748 27.107258
v 397.125580 0.963748 25.967812
v 388.864258 -1.615195 24.306873
v 388.864258 -1.615195 25.369709
v 388.864258 0.212056 25.369709
v 388.864258 0.212056 24.306873
v 386.135223 -0.833140 25.690107
v 386.135223 -0.833140 26.829554
v 386.135223 0.963748 26.829554
v 386.135223 0.963748 25.690107
v 378.486694 -1.866268 23.737663
v 378.486694 -1.866268 24.800499
v 378.486694 -0.039017 24.800499
v 378.486694 -0.039017 23.737663
v 388.864258 0.693736 29.722496
v 388.864258 0.693736 30.785332
v 388.864258 2.520987 30.785330
v 388.864258 2.520987 29.722496
v 378.486694 0.442663 29.153286
v 378.486694 0.442663 30.216120
v 378.486694 2.269914 30.216120
v 378.486694 2.269914 29.153286
v 555.293945 -0.833158 -215.269531
v 556.387024 -0.833158 -215.591125
v 556.387024 0.963730 -215.591125
v 555.293945 0.963730 -215.269531
v 556.032104 -1.615213 -206.875290
v 557.051697 -1.615213 -207.175262
v 557.051697 0.212038 -207.175262
v 556.032104 0.212038 -206.875290
v 558.129272 -0.833157 -204.647598
v 559.222412 -0.833157 -204.969177
v 559.222412 0.963731 -204.969177
v 558.129272 0.963731 -204.647598
v 558.414856 -1.866284 -196.758972
v 559.434509 -1.866284 -197.058929
v 559.434509 -0.039034 -197.058929
v 558.414856 -0.039034 -196.758972
v 561.227539 0.693719 -208.403732
v 562.247192 0.693719 -208.703705
v 562.247192 2.520969 -208.703705
v 561.227539 2.520969 -208.403732
v 563.610291 0.442647 -198.287415
v 564.629944 0.442647 -198.587372
v 564.629944 2.269897 -198.587372
v 563.610291 2.269897 -198.287415
v 542.971558 -0.833162 -270.474670
v 544.064636 -0.833162 -270.796234
v 544.064636 0.963726 -270.796234
v 542.971558 0.963726 -270.474670
v 543.709717 -1.615217 -262.080414
v 544.729309 -1.615217 -262.380371
v 544.729309 0.212034 -262.380371
v 543.709717 0.212034 -262.080414
v 545.806885 -0.833162 -259.852722
v 546.900024 -0.833162 -260.174316
v 546.900024 0.963726 -260.174316
v 545.806885 0.963726 -259.852722
v 546.092468 -1.866288 -251.964096
v 547.112122 -1.866288 -252.264053
v 547.112122 -0.039038 -252.264053
v 546.092468 -0.039038 -251.964096
v 548.905151 0.693715 -263.608856
v 549.924805 0.693715 -263.908813
v 549.924805 2.520965 -263.908813
v 548.905151 2.520965 -263.608856
v 551.287903 0.442643 -253.492538
v 552.307556 0.442643 -253.792496
v 552.307556 2.269893 -253.792496
v 551.287903 2.269893 -253.492538
v 535.901672 -0.793667 -295.492096
v 536.994751 -0.793667 -295.813660
v 536.994751 1.003221 -295.813660
v 535.901672 1.003221 -295.492096
v 536.639832 -1.575722 -287.097839
v 537.659424 -1.575722 -287.397797
v 537.659424 0.251529 -287.397797
v 536.639832 0.251529 -287.097839
v 538.737000 -0.793667 -284.870148
v 539.830139 -0.793667 -285.191742
v 539.830139 1.003221 -285.191742
v 538.737000 1.003222 -284.870148
v 539.022583 -1.826794 -276.981506
v 540.042236 -1.826794 -277.281464
v 540.042236 0.000457 -277.281464
v 539.022583 0.000457 -276.981506
v 541.835266 0.733209 -288.626282
v 542.854919 0.733209 -288.926239
v 542.854919 2.560460 -288.926239
v 541.835266 2.560460 -288.626282
v 544.218018 0.482138 -278.509949
v 545.237671 0.482138 -278.809906
v 545.237671 2.309388 -278.809906
v 544.218018 2.309388 -278.509949
v 441.950378 14.319821 -474.276764
v 442.611877 14.319822 -473.348999
v 442.611877 16.116709 -473.348999
v 441.950378 16.116709 -474.276764
v 434.259460 13.537767 -470.833221
v 434.876495 13.537767 -469.967804
v 434.876465 15.365018 -469.967804
v 434.259460 15.365018 -470.833221
v 432.840393 14.319822 -468.122650
v 433.501892 14.319822 -467.194855
v 433.501892 16.116711 -467.194855
v 432.840393 16.116709 -468.122650
v 425.479218 13.286695 -465.272186
v 426.096222 13.286695 -464.406799
v 426.096222 15.113945 -464.406799
v 425.479218 15.113945 -465.272186
v 437.403412 15.846699 -466.423615
v 438.020416 15.846699 -465.558197
v 438.020416 17.673950 -465.558197
v 437.403412 17.673950 -466.423615
v 428.623169 15.595627 -460.862579
v 429.240173 15.595627 -459.997192
v 429.240173 17.422878 -459.997192
v 428.623169 17.422878 -460.862579
v 412.552612 14.868371 -453.178253
v 413.214111 14.868371 -452.250488
v 413.214111 16.665258 -452.250488
v 412.552612 16.665258 -453.178253
v 404.861694 14.086316 -449.734711
v 405.478729 14.086316 -448.869293
v 405.478699 15.913567 -448.869293
v 404.861694 15.913567 -449.734711
v 403.442627 14.868372 -447.024139
v 404.104126 14.868372 -446.096344
v 404.104126 16.665258 -446.096344
v 403.442627 16.665258 -447.024139
v 396.081451 13.835244 -444.173676
v 396.698456 13.835244 -443.308289
v 396.698456 15.662495 -443.308289
v 396.081451 15.662495 -444.173676
v 408.005646 16.395247 -445.325104
v 408.622650 16.395247 -444.459686
v 408.622650 18.222498 -444.459686
v 408.005646 18.222498 -445.325104
v 399.225403 16.144176 -439.764069
v 399.842407 16.144176 -438.898682
v 399.842407 17.971426 -438.898682
v 399.225403 17.971426 -439.764069
v 392.216980 15.415190 -438.943207
v 392.878479 15.415190 -438.015442
v 392.878479 17.212078 -438.015442
v 392.216980 17.212078 -438.943207
v 384.526062 14.633136 -435.499664
v 385.143097 14.633136 -434.634247
v 385.143066 16.460386 -434.634247
v 384.526062 16.460386 -435.499664
v 383.106995 15.415191 -432.789093
v 383.768494 15.415191 -431.861298
v 383.768494 17.212078 -431.861298
v 383.106995 17.212078 -432.789093
v 375.745819 14.382063 -429.938629
v 376.362823 14.382063 -429.073242
v 376.362823 16.209314 -429.073242
v 375.745819 16.209314 -429.938629
v 387.670013 16.942066 -431.090057
v 388.287018 16.942066 -430.224640
v 388.287018 18.769318 -430.224640
v 387.670013 18.769318 -431.090057
v 378.889771 16.690994 -425.529022
v 379.506775 16.690994 -424.663635
v 379.506775 18.518244 -424.663635
v 378.889771 18.518244 -425.529022
v -283.569641 22.522673 -277.023743
v -284.709076 22.522673 -277.027222
v -284.709076 24.319561 -277.027222
v -283.569641 24.319561 -277.023743
v -281.883545 21.740620 -285.279968
v -282.946350 21.740618 -285.283203
v -282.946350 23.567869 -285.283203
v -281.883545 23.567869 -285.279968
v -283.258453 22.522673 -288.013214
v -284.397888 22.522673 -288.016663
v -284.397888 24.319561 -288.016663
v -283.258453 24.319561 -288.013214
v -281.282715 21.489544 -295.655731
v -282.345520 21.489544 -295.658997
v -282.345520 23.316795 -295.658997
v -281.282715 23.316795 -295.655731
v -287.299133 24.049549 -285.296478
v -288.361969 24.049549 -285.299713
v -288.361969 25.876801 -285.299713
v -287.299133 25.876801 -285.296478
v -286.698303 23.798475 -295.672241
v -287.761139 23.798475 -295.675476
v -287.761139 25.625725 -295.675476
v -286.698303 25.625725 -295.672241
v -284.014435 22.522671 -302.979858
v -285.153870 22.522671 -302.983337
v -285.153870 24.319559 -302.983337
v -284.014435 24.319559 -302.979858
v -282.328339 21.740618 -311.236084
v -283.391144 21.740616 -311.239319
v -283.391144 23.567867 -311.239319
v -282.328339 23.567867 -311.236084
v -283.703247 22.522671 -313.969330
v -284.842682 22.522671 -313.972778
v -284.842682 24.319559 -313.972778
v -283.703247 24.319559 -313.969330
v -281.727509 21.489542 -321.611847
v -282.790314 21.489542 -321.615112
v -282.790314 23.316793 -321.615112
v -281.727509 23.316793 -321.611847
v -287.743927 24.049547 -311.252594
v -288.806763 24.049547 -311.255829
v -288.806763 25.876799 -311.255829
v -287.743927 25.876799 -311.252594
v -287.143097 23.798473 -321.628357
v -288.205933 23.798473 -321.631592
v -288.205933 25.625723 -321.631592
v -287.143097 25.625723 -321.628357
v -283.823334 22.522667 -359.445557
v -284.962769 22.522667 -359.449036
v -284.962769 24.319555 -359.449036
v -283.823334 24.319555 -359.445557
v -282.137238 21.740612 -367.701782
v -283.200043 21.740610 -367.705017
v -283.200043 23.567862 -367.705017
v -282.137238 23.567862 -367.701782
v -283.512146 22.522665 -370.435028
v -284.651581 22.522665 -370.438477
v -284.651581 24.319553 -370.438477
v -283.512146 24.319553 -370.435028
v -281.536407 21.489538 -378.077545
v -282.599213 21.489538 -378.080811
v -282.599213 23.316790 -378.080811
v -281.536407 23.316790 -378.077545
v -287.552826 24.049541 -367.718292
v -288.615662 24.049541 -367.721527
v -288.615662 25.876793 -367.721527
v -287.552826 25.876793 -367.718292
v -286.951996 23.798470 -378.094055
v -288.014832 23.798470 -378.097290
v -288.014832 25.625719 -378.097290
v -286.951996 25.625719 -378.094055
v 75.284927 1.144991 22.772894
v 75.284927 1.144991 23.912340
v 75.284927 2.941879 23.912340
v 75.284927 2.941879 22.772894
v 67.023605 0.362937 21.111956
v 67.023605 0.362937 22.174791
v 67.023605 2.190187 22.174791
v 67.023605 2.190187 21.111956
v 53.088799 1.144991 22.495190
v 53.088799 1.144991 23.634636
v 53.088799 2.941879 23.634636
v 53.088799 2.941879 22.495190
v 48.293617 0.111864 20.542747
v 48.293617 0.111864 21.605581
v 48.293617 1.939114 21.605581
v 48.293617 1.939113 20.542747
v 67.023605 2.671868 26.527578
v 67.023605 2.671868 27.590412
v 67.023605 4.499118 27.590412
v 67.023605 4.499118 26.527578
v 50.633972 2.420795 25.958368
v 50.633972 2.420795 27.021202
v 50.633972 4.248046 27.021202
v 50.633972 4.248046 25.958368
v 70.364334 3.453382 28.772629
v 70.364334 3.453382 29.912075
v 70.364334 5.250270 29.912075
v 70.364334 5.250270 28.772629
v 62.715813 4.729187 32.235806
v 62.715813 4.729187 33.298641
v 62.715813 6.556437 33.298641
v 62.715813 6.556437 32.235806
v 60.063984 3.341296 28.284622
v 60.063984 3.341296 29.424070
v 60.063984 5.138186 29.424070
v 60.063984 5.138184 28.284622
v 51.802658 4.868174 32.039307
v 51.802658 4.868174 33.102142
v 51.802658 6.695424 33.102142
v 51.802658 6.695424 32.039307
v 60.115082 1.349273 23.358105
v 60.115082 1.349273 24.497553
v 60.115082 3.146161 24.497553
v 60.115082 3.146161 23.358105
v 62.643394 0.384538 21.479872
v 62.643394 0.384538 22.542706
v 62.643394 2.211788 22.542706
v 62.643394 2.211788 21.479872
v 64.983749 2.693468 26.895493
v 64.983749 2.693469 27.958328
v 64.983749 4.520719 27.958328
v 64.983749 4.520719 26.895493
v 105.962341 0.372964 22.772894
v 105.962341 0.372964 23.912342
v 105.962341 2.169853 23.912340
v 105.962341 2.169853 22.772894
v 97.176201 -0.028601 21.111956
v 97.176201 -0.028601 22.174791
v 97.176201 1.798650 22.174791
v 97.176201 1.798650 21.111956
v 81.632240 0.372964 22.495190
v 81.632240 0.372964 23.634638
v 81.632240 2.169853 23.634636
v 81.632240 2.169853 22.495190
v 76.837059 -0.279674 20.542747
v 76.837059 -0.279674 21.605581
v 76.837059 1.547577 21.605581
v 76.837059 1.547577 20.542747
v 97.176201 1.170495 26.527578
v 97.176201 1.170495 27.590412
v 97.176201 2.997746 27.590412
v 97.176201 2.997746 26.527578
v 79.177414 0.919422 25.958366
v 79.177414 0.919422 27.021202
v 79.177414 2.746673 27.021202
v 79.177414 2.746672 25.958368
v 100.516937 1.713850 28.772629
v 100.516937 1.713851 29.912075
v 100.516937 3.510738 29.912075
v 100.516937 3.510738 28.772629
v 91.899643 2.292215 32.235806
v 91.899643 2.292216 33.298641
v 91.899643 4.119466 33.298641
v 91.899643 4.119465 32.235806
v 88.607422 1.601764 28.284622
v 88.607430 1.601764 29.424070
v 88.607430 3.398653 29.424070
v 88.607422 3.398652 28.284622
v 80.346100 2.431203 32.039310
v 80.346100 2.431203 33.102142
v 80.346100 4.258453 33.102142
v 80.346100 4.258453 32.039307
v 88.658524 0.577246 23.358105
v 88.658524 0.577246 24.497551
v 88.658524 2.374135 24.497551
v 88.658524 2.374134 23.358105
v 91.827225 -0.007000 21.479870
v 91.827225 -0.007000 22.542706
v 91.827225 1.820250 22.542706
v 91.827225 1.820251 21.479870
v 95.136353 1.192096 26.895493
v 95.136353 1.192096 27.958328
v 95.136353 3.019347 27.958328
v 95.136353 3.019346 26.895493
v 46.223595 0.372964 22.772888
v 46.223595 0.372964 23.912336
v 46.223595 2.169853 23.912334
v 46.223595 2.169853 22.772888
v 37.437454 -0.028601 21.111952
v 37.437454 -0.028601 22.174786
v 37.437454 1.798650 22.174786
v 37.437454 1.798650 21.111952
v 21.893490 0.372964 22.495184
v 21.893490 0.372964 23.634632
v 21.893490 2.169853 23.634632
v 21.893490 2.169852 22.495184
v 17.098312 -0.279674 20.542742
v 17.098309 -0.279674 21.605576
v 17.098309 1.547577 21.605576
v 17.098312 1.547577 20.542742
v 37.437454 1.170495 26.527573
v 37.437450 1.170495 27.590408
v 37.437450 2.997746 27.590408
v 37.437454 2.997746 26.527573
v 19.438663 0.919422 25.958363
v 19.438663 0.919422 27.021196
v 19.438663 2.746673 27.021196
v 19.438663 2.746672 25.958363
v 40.778183 1.713850 28.772623
v 40.778183 1.713850 29.912071
v 40.778183 3.510738 29.912071
v 40.778183 3.510738 28.772623
v 32.160892 2.292215 32.235802
v 32.160892 2.292216 33.298637
v 32.160892 4.119466 33.298637
v 32.160892 4.119465 32.235802
v 28.868671 1.601764 28.284616
v 28.868675 1.601764 29.424065
v 28.868675 3.398653 29.424065
v 28.868671 3.398652 28.284616
v 20.607349 2.431203 32.039303
v 20.607346 2.431203 33.102139
v 20.607346 4.258453 33.102139
v 20.607349 4.258453 32.039303
v 28.919777 0.577246 23.358101
v 28.919777 0.577246 24.497547
v 28.919777 2.374135 24.497547
v 28.919777 2.374134 23.358099
v 32.088478 -0.007000 21.479866
v 32.088478 -0.007000 22.542700
v 32.088478 1.820250 22.542700
v 32.088478 1.820251 21.479866
v 35.397598 1.192096 26.895487
v 35.397598 1.192096 27.958323
v 35.397598 3.019347 27.958323
v 35.397598 3.019346 26.895489
v 546.967957 -0.175831 -246.365540
v 548.070190 -0.175831 -246.654373
v 548.070190 1.621057 -246.654373
v 546.967957 1.621057 -246.365540
v 547.455383 -0.758947 -237.953018
v 548.483459 -0.758947 -238.222412
v 548.483459 1.068303 -238.222412
v 547.455383 1.068303 -237.953018
v 549.326233 -0.175830 -236.209686
v 550.428467 -0.175830 -236.498505
v 550.428467 1.621058 -236.498505
v 549.326233 1.621058 -236.209686
v 549.376282 -1.010019 -228.316055
v 550.404419 -1.010019 -228.585449
v 550.404419 0.817231 -228.585449
v 549.376282 0.817231 -228.316055
v 525.421448 -0.073400 -316.977448
v 526.513062 -0.073400 -317.304230
v 526.513062 1.723488 -317.304230
v 525.421448 1.723488 -316.977448
v 526.199524 -0.656516 -308.586823
v 527.217712 -0.656516 -308.891632
v 527.217712 1.170734 -308.891632
v 526.199524 1.170734 -308.586823
v 528.129517 -0.073399 -306.909241
v 529.221130 -0.073399 -307.236023
v 529.221130 1.723489 -307.236023
v 528.129517 1.723489 -306.909241
v 528.452576 -0.907589 -299.022064
v 529.470764 -0.907589 -299.326874
v 529.470764 0.919661 -299.326874
v 528.452576 0.919662 -299.022064
v 556.625488 -0.073379 -44.476086
v 557.764954 -0.073379 -44.471409
v 557.764954 1.723509 -44.471409
v 556.625488 1.723509 -44.476086
v 554.930664 -0.656496 -36.221649
v 555.993530 -0.656496 -36.217285
v 555.993530 1.170755 -36.217285
v 554.930664 1.170755 -36.221649
v 556.289673 -0.073379 -34.055435
v 557.429138 -0.073379 -34.050758
v 557.429138 1.723509 -34.050758
v 556.289673 1.723509 -34.055435
v 554.305847 -0.907568 -26.414989
v 555.368652 -0.907568 -26.410625
v 555.368652 0.919682 -26.410627
v 554.305847 0.919683 -26.414989
v -327.317108 22.647596 -559.930298
v -328.456451 22.647596 -559.915405
v -328.456451 24.444485 -559.915405
v -327.317108 24.444485 -559.930298
v -325.764008 21.865543 -568.212524
v -326.826752 21.865541 -568.198669
v -326.826752 23.692793 -568.198669
v -325.764008 23.692793 -568.212524
v -327.182709 22.647594 -570.923340
v -328.322052 22.647594 -570.908447
v -328.322052 24.444483 -570.908447
v -327.182709 24.444483 -570.923340
v -325.330139 21.614468 -578.596619
v -326.392883 21.614468 -578.582764
v -326.392883 23.441717 -578.582764
v -325.330139 23.441719 -578.596619
v -331.179169 24.174473 -568.141968
v -332.241913 24.174473 -568.128113
v -332.241913 26.001724 -568.128113
v -331.179169 26.001724 -568.141968
v -330.745300 23.923399 -578.526062
v -331.808044 23.923399 -578.512207
v -331.808044 25.750650 -578.512207
v -330.745300 25.750650 -578.526062
v -327.317108 22.647598 -535.244934
v -328.456451 22.647598 -535.230042
v -328.456451 24.444487 -535.230042
v -327.317108 24.444487 -535.244934
v -325.764008 21.865543 -543.527161
v -326.826752 21.865541 -543.513306
v -326.826752 23.692793 -543.513306
v -325.764008 23.692793 -543.527161
v -327.182709 22.647596 -546.237976
v -328.322052 22.647596 -546.223083
v -328.322052 24.444485 -546.223083
v -327.182709 24.444485 -546.237976
v -325.330139 21.614470 -553.911255
v -326.392883 21.614470 -553.897400
v -326.392883 23.441719 -553.897400
v -325.330139 23.441721 -553.911255
v -331.179169 24.174473 -543.456604
v -332.241913 24.174473 -543.442749
v -332.241913 26.001724 -543.442749
v -331.179169 26.001724 -543.456604
v -330.745300 23.923401 -553.840698
v -331.808044 23.923401 -553.826843
v -331.808044 25.750652 -553.826843
v -330.745300 25.750652 -553.840698
v -327.317108 22.647600 -510.030548
v -328.456451 22.647600 -510.015686
v -328.456451 24.444489 -510.015686
v -327.317108 24.444489 -510.030548
v -325.764008 21.865545 -518.312805
v -326.826752 21.865543 -518.298950
v -326.826752 23.692795 -518.298950
v -325.764008 23.692795 -518.312805
v -327.182709 22.647598 -521.023621
v -328.322052 22.647598 -521.008728
v -328.322052 24.444487 -521.008728
v -327.182709 24.444487 -521.023621
v -325.330139 21.614471 -528.696899
v -326.392883 21.614471 -528.683044
v -326.392883 23.441721 -528.683044
v -325.330139 23.441723 -528.696899
v -331.179169 24.174475 -518.242249
v -332.241913 24.174475 -518.228394
v -332.241913 26.001726 -518.228394
v -331.179169 26.001726 -518.242249
v -330.745300 23.923403 -528.626343
v -331.808044 23.923403 -528.612488
v -331.808044 25.750654 -528.612488
v -330.745300 25.750654 -528.626343
v 373.292908 37.229095 -984.217346
v 374.040375 37.229095 -985.077393
v 374.040375 39.025982 -985.077393
v 373.292908 39.025982 -984.217346
v 378.438873 36.447041 -977.544495
v 379.136047 36.447041 -978.346680
v 379.136047 38.274292 -978.346680
v 378.438873 38.274292 -977.544495
v 389.863953 37.229095 -969.447571
v 390.611389 37.229095 -970.307617
v 390.611389 39.025982 -970.307617
v 389.863953 39.025982 -969.447571
v 392.202484 36.195969 -964.828369
v 392.899689 36.195969 -965.630615
v 392.899689 38.023216 -965.630615
v 392.202484 38.023216 -964.828369
v 381.991394 38.755970 -981.632080
v 382.688599 38.755970 -982.434265
v 382.688599 40.583221 -982.434265
v 381.991394 40.583221 -981.632080
v 393.988556 38.504898 -970.451233
v 394.685760 38.504898 -971.253418
v 394.685760 40.332150 -971.253418
v 393.988556 40.332150 -970.451233
v 380.942566 39.537483 -985.518066
v 381.690033 39.537483 -986.378052
v 381.690033 41.334370 -986.378052
v 380.942566 41.334370 -985.518066
v 388.987305 40.813290 -983.114685
v 389.684479 40.813290 -983.916931
v 389.684479 42.640541 -983.916931
v 388.987305 42.640541 -983.114685
v 388.396942 39.425400 -978.392883
v 389.144409 39.425400 -979.252930
v 389.144409 41.222290 -979.252930
v 388.396942 41.222286 -978.392883
v 397.095428 40.952278 -975.807617
v 397.792633 40.952278 -976.609802
v 397.792633 42.779530 -976.609802
v 397.095428 42.779530 -975.807617
v 385.126709 37.433376 -974.708008
v 385.874146 37.433376 -975.567993
v 385.874146 39.230267 -975.567993
v 385.126709 39.230267 -974.708008
v 381.986298 36.468639 -974.948853
v 382.683502 36.468639 -975.751038
v 382.683502 38.295891 -975.751038
v 381.986298 38.295891 -974.948853
v 383.772369 38.777573 -980.571655
v 384.469574 38.777573 -981.373901
v 384.469574 40.604824 -981.373901
v 383.772369 40.604824 -980.571655
v 350.138214 36.457066 -1004.341064
v 350.885681 36.457066 -1005.201111
v 350.885681 38.253952 -1005.201111
v 350.138214 38.253952 -1004.341064
v 355.680298 36.055500 -997.323914
v 356.377472 36.055500 -998.126099
v 356.377472 37.882748 -998.126099
v 355.680298 37.882748 -997.323914
v 368.319916 36.457066 -988.171448
v 369.067383 36.457066 -989.031494
v 369.067383 38.253952 -989.031494
v 368.319916 38.253952 -988.171448
v 370.658478 35.804428 -983.552246
v 371.355652 35.804428 -984.354492
v 371.355652 37.631680 -984.354492
v 370.658478 37.631680 -983.552246
v 359.232819 37.254597 -1001.411499
v 359.930023 37.254597 -1002.213745
v 359.930023 39.081844 -1002.213745
v 359.232819 39.081844 -1001.411499
v 372.444550 37.003521 -989.175110
v 373.141754 37.003521 -989.977295
v 373.141754 38.830772 -989.977295
v 372.444550 38.830772 -989.175110
v 358.183990 37.797951 -1005.297485
v 358.931458 37.797951 -1006.157532
v 358.931458 39.594837 -1006.157532
v 358.183990 39.594837 -1005.297485
v 366.959930 38.376316 -1002.258667
v 367.657135 38.376316 -1003.060852
v 367.657135 40.203568 -1003.060852
v 366.959930 40.203568 -1002.258667
v 366.852936 37.685863 -997.116760
v 367.600372 37.685863 -997.976807
v 367.600372 39.482754 -997.976807
v 366.852936 39.482754 -997.116760
v 375.551422 38.515305 -994.531494
v 376.248596 38.515305 -995.333679
v 376.248596 40.342552 -995.333679
v 375.551422 40.342552 -994.531494
v 363.582672 36.661346 -993.431885
v 364.330139 36.661346 -994.291870
v 364.330139 38.458233 -994.291870
v 363.582672 38.458233 -993.431885
v 359.958923 36.077099 -994.092773
v 360.656128 36.077099 -994.895020
v 360.656128 37.904350 -994.895020
v 359.958923 37.904350 -994.092773
v 361.013794 37.276196 -1000.351135
v 361.710999 37.276196 -1001.153320
v 361.710999 39.103447 -1001.153320
v 361.013794 39.103447 -1000.351135
v 395.227814 36.545582 -965.153748
v 395.975281 36.545582 -966.013794
v 395.975281 38.342472 -966.013794
v 395.227814 38.342472 -965.153748
v 400.769897 36.144016 -958.136597
v 401.467072 36.144016 -958.938782
v 401.467072 37.971268 -958.938782
v 400.769897 37.971268 -958.136597
v 413.409515 36.545582 -948.984131
v 414.156982 36.545582 -949.844177
v 414.156982 38.342472 -949.844177
v 413.409515 38.342472 -948.984131
v 415.748077 35.892944 -944.364929
v 416.445282 35.892944 -945.167114
v 416.445282 37.720196 -945.167114
v 415.748077 37.720196 -944.364929
v 404.322418 37.343113 -962.224182
v 405.019623 37.343113 -963.026428
v 405.019623 39.170364 -963.026428
v 404.322418 39.170364 -962.224182
v 417.534149 37.092041 -949.987732
v 418.231354 37.092041 -950.789978
v 418.231354 38.919292 -950.789978
v 417.534149 38.919292 -949.987732
v 403.273590 37.886467 -966.110168
v 404.021057 37.886471 -966.970215
v 404.021057 39.683357 -966.970215
v 403.273590 39.683357 -966.110168
v 412.049530 38.464832 -963.071350
v 412.746735 38.464832 -963.873535
v 412.746735 40.292084 -963.873535
v 412.049530 40.292084 -963.071350
v 411.942535 37.774384 -957.929443
v 412.690002 37.774384 -958.789490
v 412.690002 39.571270 -958.789490
v 411.942535 39.571270 -957.929443
v 420.641022 38.603821 -955.344177
v 421.338226 38.603821 -956.146362
v 421.338196 40.431072 -956.146362
v 420.641022 40.431072 -955.344177
v 408.672272 36.749863 -954.244507
v 409.419739 36.749863 -955.104553
v 409.419739 38.546753 -955.104553
v 408.672272 38.546753 -954.244507
v 405.048523 36.165619 -954.905457
v 405.745728 36.165619 -955.707703
v 405.745728 37.992867 -955.707703
v 405.048523 37.992867 -954.905457
v 406.103394 37.364716 -961.163818
v 406.800598 37.364716 -961.966003
v 406.800598 39.191967 -961.966003
v 406.103394 39.191963 -961.163818
v 486.417236 33.750420 -883.280334
v 487.175110 33.750420 -884.131165
v 487.175110 35.547306 -884.131165
v 486.417236 35.547306 -883.280334
v 491.481445 32.968365 -876.545227
v 492.188385 32.968365 -877.338867
v 492.188385 34.795616 -877.338867
v 491.481445 34.795616 -876.545227
v 502.807007 33.750420 -868.309631
v 503.564880 33.750420 -869.160522
v 503.564880 35.547306 -869.160522
v 502.807007 35.547306 -868.309631
v 505.089050 32.717293 -863.662292
v 505.795990 32.717293 -864.455933
v 505.795990 34.544540 -864.455933
v 505.089050 34.544540 -863.662292
v 495.083557 35.277294 -880.589172
v 495.790466 35.277294 -881.382874
v 495.790466 37.104546 -881.382874
v 495.083557 37.104546 -880.589172
v 506.943542 35.026222 -869.262939
v 507.650452 35.026222 -870.056580
v 507.650452 36.853474 -870.056580
v 506.943542 36.853474 -869.262939
v 494.082184 36.058804 -884.487671
v 494.840057 36.058807 -885.338501
v 494.840057 37.855694 -885.338501
v 494.082184 37.855694 -884.487671
v 502.097015 37.334614 -881.986450
v 502.803925 37.334614 -882.780090
v 502.803925 39.161861 -882.780090
v 502.097015 39.161861 -881.986450
v 501.449158 35.946724 -877.272156
v 502.207031 35.946724 -878.123047
v 502.207031 37.743610 -878.123047
v 501.449158 37.743610 -877.272156
v 510.115479 37.473598 -874.581055
v 510.822388 37.473598 -875.374695
v 510.822388 39.300850 -875.374695
v 510.115479 39.300850 -874.581055
v 498.134216 33.954700 -873.627380
v 498.892090 33.954700 -874.478271
v 498.892090 35.751587 -874.478271
v 498.134216 35.751587 -873.627380
v 494.996979 32.989964 -873.906555
v 495.703918 32.989964 -874.700195
v 495.703918 34.817215 -874.700195
v 494.996979 34.817215 -873.906555
v 496.851471 35.298897 -879.507141
v 497.558380 35.298897 -880.300842
v 497.558380 37.126148 -880.300781
v 496.851471 37.126148 -879.507141
v 463.509552 32.978386 -903.684753
v 464.267426 32.978386 -904.535645
v 464.267426 34.775276 -904.535645
v 463.509552 34.775276 -903.684753
v 468.965668 32.576824 -896.600586
v 469.672577 32.576824 -897.394226
v 469.672577 34.404072 -897.394226
v 468.965668 34.404072 -896.600586
v 481.492798 32.978386 -887.294739
v 482.250671 32.978386 -888.145569
v 482.250671 34.775276 -888.145569
v 481.492798 34.775276 -887.294739
v 483.774872 32.325752 -882.647400
v 484.481781 32.325752 -883.441040
v 484.481781 34.153004 -883.441040
v 483.774872 34.153004 -882.647400
v 472.567749 33.775917 -900.644592
v 473.274689 33.775917 -901.438232
v 473.274689 35.603168 -901.438232
v 472.567749 35.603168 -900.644592
v 485.629364 33.524845 -888.247986
v 486.336273 33.524845 -889.041687
v 486.336273 35.352097 -889.041687
v 485.629364 35.352097 -888.247986
v 471.566376 34.319275 -904.543030
v 472.324280 34.319275 -905.393921
v 472.324280 36.116161 -905.393921
v 471.566376 36.116161 -904.543030
v 480.304626 34.897640 -901.397461
v 481.011536 34.897640 -902.191101
v 481.011536 36.724888 -902.191101
v 480.304626 36.724888 -901.397461
v 480.134949 34.207188 -896.257263
v 480.892822 34.207188 -897.108154
v 480.892822 36.004078 -897.108154
v 480.134949 36.004074 -896.257263
v 488.801270 35.036625 -893.566162
v 489.508209 35.036625 -894.359802
v 489.508209 36.863876 -894.359802
v 488.801270 36.863876 -893.566162
v 476.820038 33.182671 -892.612488
v 477.577911 33.182671 -893.463318
v 477.577911 34.979557 -893.463379
v 476.820038 34.979557 -892.612488
v 473.204590 32.598423 -893.317566
v 473.911530 32.598423 -894.111206
v 473.911530 34.425674 -894.111206
v 473.204590 34.425674 -893.317566
v 474.335663 33.797520 -899.562561
v 475.042603 33.797520 -900.356201
v 475.042603 35.624771 -900.356201
v 474.335663 35.624771 -899.562561
v 508.118134 32.978390 -863.950745
v 508.876007 32.978390 -864.801636
v 508.876007 34.775280 -864.801636
v 508.118134 34.775280 -863.950745
v 513.574280 32.576828 -856.866577
v 514.281189 32.576828 -857.660217
v 514.281189 34.404076 -857.660217
v 513.574280 34.404076 -856.866577
v 526.101379 32.978390 -847.560730
v 526.859253 32.978390 -848.411560
v 526.859253 34.775280 -848.411560
v 526.101379 34.775280 -847.560730
v 528.383484 32.325752 -842.913391
v 529.090393 32.325752 -843.707031
v 529.090393 34.153004 -843.707031
v 528.383484 34.153004 -842.913391
v 517.176331 33.775921 -860.910583
v 517.883301 33.775921 -861.704224
v 517.883301 35.603172 -861.704224
v 517.176331 35.603172 -860.910583
v 530.237915 33.524849 -848.513977
v 530.944885 33.524849 -849.307678
v 530.944885 35.352100 -849.307678
v 530.237976 35.352100 -848.513977
v 516.174988 34.319275 -864.809021
v 516.932861 34.319279 -865.659912
v 516.932861 36.116165 -865.659912
v 516.174988 36.116165 -864.809021
v 524.913208 34.897644 -861.663452
v 525.620117 34.897644 -862.457092
v 525.620117 36.724892 -862.457092
v 524.913208 36.724892 -861.663452
v 524.743530 34.207191 -856.523254
v 525.501465 34.207191 -857.374146
v 525.501465 36.004082 -857.374146
v 524.743530 36.004078 -856.523254
v 533.409851 35.036629 -853.832153
v 534.116821 35.036629 -854.625793
v 534.116821 36.863880 -854.625793
v 533.409851 36.863880 -853.832153
v 521.428650 33.182674 -852.878479
v 522.186523 33.182674 -853.729370
v 522.186523 34.979561 -853.729370
v 521.428650 34.979561 -852.878479
v 517.813171 32.598427 -853.583557
v 518.520142 32.598427 -854.377197
v 518.520142 34.425678 -854.377197
v 517.813171 34.425678 -853.583557
v 518.944275 33.797523 -859.828552
v 519.651184 33.797523 -860.622192
v 519.651184 35.624775 -860.622192
v 518.944275 35.624775 -859.828552
v 314.459564 30.895483 -722.070129
v 313.975189 30.895483 -723.101501
v 313.975189 32.692375 -723.101501
v 314.459564 32.692375 -722.070129
v 322.643372 30.113430 -724.078430
v 322.191589 30.113428 -725.040466
v 322.191589 31.940680 -725.040466
v 322.643372 31.940680 -724.078430
v 324.525604 30.895483 -726.490540
v 324.041229 30.895483 -727.521912
v 324.041229 32.692375 -727.521912
v 324.525604 32.692375 -726.490540
v 332.278656 29.862356 -727.974487
v 331.826843 29.862356 -728.936523
v 331.826843 31.689608 -728.936523
v 332.278656 31.689608 -727.974487
v 320.341309 32.422363 -728.980408
v 319.889526 32.422363 -729.942444
v 319.889526 34.249611 -729.942444
v 320.341309 34.249611 -728.980408
v 329.976562 32.171284 -732.876465
v 329.524780 32.171284 -733.838501
v 329.524780 33.998535 -733.838501
v 329.976562 33.998535 -732.876465
v 337.420258 31.526829 -732.489807
v 336.935883 31.526829 -733.521179
v 336.935883 33.323715 -733.521179
v 337.420258 33.323719 -732.489807
v 345.604065 30.744776 -734.498108
v 345.152283 30.744776 -735.460144
v 345.152283 32.572025 -735.460144
v 345.604065 32.572025 -734.498108
v 347.486267 31.526829 -736.910217
v 347.001923 31.526829 -737.941589
v 347.001923 33.323715 -737.941589
v 347.486267 33.323715 -736.910217
v 355.239319 30.493702 -738.394226
v 354.787537 30.493702 -739.356201
v 354.787537 32.320950 -739.356201
v 355.239319 32.320950 -738.394226
v 343.302002 33.053703 -739.400085
v 342.850220 33.053703 -740.362122
v 342.850220 34.880955 -740.362122
v 343.302002 34.880955 -739.400085
v 352.937256 32.802631 -743.296204
v 352.485474 32.802631 -744.258179
v 352.485474 34.629883 -744.258179
v 352.937256 34.629883 -743.296204
v 359.899261 31.295891 -742.690857
v 359.414886 31.295891 -743.722229
v 359.414886 33.092777 -743.722229
v 359.899261 33.092777 -742.690857
v 368.083069 30.513838 -744.699158
v 367.631287 30.513836 -745.661194
v 367.631287 32.341087 -745.661194
v 368.083069 32.341087 -744.699158
v 369.965271 31.295889 -747.111267
v 369.480927 31.295889 -748.142639
v 369.480927 33.092777 -748.142639
v 369.965271 33.092777 -747.111267
v 377.718323 30.262762 -748.595276
v 377.266541 30.262762 -749.557251
v 377.266541 32.090012 -749.557251
v 377.718323 32.090012 -748.595276
v 365.781006 32.822765 -749.601135
v 365.329224 32.822765 -750.563171
v 365.329224 34.650017 -750.563171
v 365.781006 34.650017 -749.601135
v 375.416260 32.571693 -753.497253
v 374.964478 32.571693 -754.459229
v 374.964478 34.398945 -754.459229
v 375.416260 34.398945 -753.497253
vn -1.0000 -0.0000 -0.0000
vn 0.2822 -0.0000 0.9593
vn 0.2823 -0.0000 0.9593
vn 0.2822 -0.0000 0.9594
vn -0.8142 -0.0000 0.5806
vn -0.8142 -0.0000 0.5805
vn -0.8143 -0.0000 0.5805
vn 0.0031 -0.0000 -1.0000
vn 0.0030 -0.0000 -1.0000
vn 0.2535 -0.0000 0.9673
vn 0.2534 -0.0000 0.9674
vn 0.2868 -0.0000 0.9580
vn -0.0041 -0.0000 1.0000
vn -0.0131 -0.0000 -0.9999
vn -0.0130 -0.0000 -0.9999
vn -0.0129 -0.0000 -0.9999
vn -0.0132 -0.0000 -0.9999
vn 0.7548 -0.0000 0.6560
vn 0.7548 -0.0000 0.6559
vn 0.7547 -0.0000 0.6560
vn 0.7467 -0.0000 0.6651
vn 0.7468 -0.0000 0.6651
vn 0.7467 -0.0000 0.6652
vn 0.9051 -0.0000 -0.4251
vn 0.9052 -0.0000 -0.4251
vn 0.9052 -0.0000 -0.4250
vt 0.000500 1.000500
vt 0.999501 1.000499
vt 0.999501 1.999500
vt 0.000500 1.999501
s 1
usemtl PEOPLSDA
f 1/1/1 2/2/1 3/3/1
f 3/3/1 4/4/1 1/1/1
f 5/1/1 6/2/1 7/3/1
f 7/3/1 8/4/1 5/1/1
f 9/1/1 10/2/1 11/3/1
f 11/3/1 12/4/1 9/1/1
f 13/1/1 14/2/1 15/3/1
f 15/3/1 16/4/1 13/1/1
f 17/1/1 18/2/1 19/3/1
f 19/3/1 20/4/1 17/1/1
f 21/1/1 22/2/1 23/3/1
f 23/3/1 24/4/1 21/1/1
f 25/1/1 26/2/1 27/3/1
f 27/3/1 28/4/1 25/1/1
f 29/1/1 30/2/1 31/3/1
f 31/3/1 32/4/1 29/1/1
f 33/1/1 34/2/1 35/3/1
f 35/3/1 36/4/1 33/1/1
f 37/1/1 38/2/1 39/3/1
f 39/3/1 40/4/1 37/1/1
f 41/1/1 42/2/1 43/3/1
f 43/3/1 44/4/1 41/1/1
f 45/1/1 46/2/1 47/3/1
f 47/3/1 48/4/1 45/1/1
f 49/1/1 50/2/1 51/3/1
f 51/3/1 52/4/1 49/1/1
f 53/1/1 54/2/1 55/3/1
f 55/3/1 56/4/1 53/1/1
f 57/1/1 58/2/1 59/3/1
f 59/3/1 60/4/1 57/1/1
f 61/1/1 62/2/1 63/3/1
f 63/3/1 64/4/1 61/1/1
f 65/1/1 66/2/1 67/3/1
f 67/3/1 68/4/1 65/1/1
f 69/1/1 70/2/1 71/3/1
f 71/3/1 72/4/1 69/1/1
f 73/1/1 74/2/1 75/3/1
f 75/3/1 76/4/1 73/1/1
f 77/1/1 78/2/1 79/3/1
f 79/3/1 80/4/1 77/1/1
f 81/1/1 82/2/1 83/3/1
f 83/3/1 84/4/1 81/1/1
f 85/1/1 86/2/1 87/3/1
f 87/3/1 88/4/1 85/1/1
f 89/1/1 90/2/1 91/3/1
f 91/3/1 92/4/1 89/1/1
f 93/1/1 94/2/1 95/3/1
f 95/3/1 96/4/1 93/1/1
f 97/1/1 98/2/1 99/3/1
f 99/3/1 100/4/1 97/1/1
f 101/1/1 102/2/1 103/3/1
f 103/3/1 104/4/1 101/1/1
f 105/1/1 106/2/1 107/3/1
f 107/3/1 108/4/1 105/1/1
f 109/1/1 110/2/1 111/3/1
f 111/3/1 112/4/1 109/1/1
f 113/1/1 114/2/1 115/3/1
f 115/3/1 116/4/1 113/1/1
f 117/1/1 118/2/1 119/3/1
f 119/3/1 120/4/1 117/1/1
f 121/1/1 122/2/1 123/3/1
f 123/3/1 124/4/1 121/1/1
f 125/1/1 126/2/1 127/3/1
f 127/3/1 128/4/1 125/1/1
f 129/1/1 130/2/1 131/3/1
f 131/3/1 132/4/1 129/1/1
f 133/1/1 134/2/1 135/3/1
f 135/3/1 136/4/1 133/1/1
f 137/1/1 138/2/1 139/3/1
f 139/3/1 140/4/1 137/1/1
f 141/1/1 142/2/1 143/3/1
f 143/3/1 144/4/1 141/1/1
f 145/1/2 146/2/3 147/3/2
f 147/3/2 148/4/2 145/1/2
f 149/1/3 150/2/3 151/3/2
f 151/3/2 152/4/2 149/1/3
f 153/1/4 154/2/4 155/3/4
f 155/3/4 156/4/4 153/1/4
f 157/1/4 158/2/4 159/3/4
f 159/3/4 160/4/4 157/1/4
f 161/1/2 162/2/2 163/3/2
f 163/3/2 164/4/4 161/1/2
f 165/1/4 166/2/4 167/3/4
f 167/3/4 168/4/4 165/1/4
f 169/1/2 170/2/3 171/3/4
f 171/3/4 172/4/4 169/1/2
f 173/1/2 174/2/4 175/3/2
f 175/3/2 176/4/3 173/1/2
f 177/1/2 178/2/2 179/3/2
f 179/3/2 180/4/2 177/1/2
f 181/1/4 182/2/4 183/3/4
f 183/3/4 184/4/4 181/1/4
f 185/1/4 186/2/4 187/3/2
f 187/3/2 188/4/2 185/1/4
f 189/1/4 190/2/4 191/3/4
f 191/3/4 192/4/4 189/1/4
f 193/1/4 194/2/4 195/3/2
f 195/3/2 196/4/3 193/1/4
f 197/1/3 198/2/3 199/3/4
f 199/3/4 200/4/4 197/1/3
f 201/1/2 202/2/2 203/3/2
f 203/3/2 204/4/2 201/1/2
f 205/1/2 206/2/2 207/3/4
f 207/3/4 208/4/4 205/1/2
f 209/1/4 210/2/4 211/3/4
f 211/3/4 212/4/4 209/1/4
f 213/1/2 214/2/2 215/3/2
f 215/3/2 216/4/4 213/1/2
f 217/1/5 218/2/5 219/3/5
f 219/3/5 220/4/6 217/1/5
f 221/1/6 222/2/6 223/3/6
f 223/3/6 224/4/6 221/1/6
f 225/1/6 226/2/7 227/3/6
f 227/3/6 228/4/6 225/1/6
f 229/1/6 230/2/6 231/3/6
f 231/3/6 232/4/6 229/1/6
f 233/1/6 234/2/6 235/3/6
f 235/3/6 236/4/6 233/1/6
f 237/1/6 238/2/6 239/3/6
f 239/3/6 240/4/6 237/1/6
f 241/1/6 242/2/6 243/3/6
f 243/3/6 244/4/6 241/1/6
f 245/1/6 246/2/6 247/3/6
f 247/3/6 248/4/6 245/1/6
f 249/1/6 250/2/6 251/3/6
f 251/3/6 252/4/6 249/1/6
f 253/1/6 254/2/5 255/3/6
f 255/3/6 256/4/7 253/1/6
f 257/1/6 258/2/6 259/3/7
f 259/3/7 260/4/7 257/1/6
f 261/1/6 262/2/5 263/3/6
f 263/3/6 264/4/7 261/1/6
f 265/1/5 266/2/5 267/3/5
f 267/3/5 268/4/6 265/1/5
f 269/1/6 270/2/6 271/3/6
f 271/3/6 272/4/6 269/1/6
f 273/1/6 274/2/7 275/3/6
f 275/3/6 276/4/6 273/1/6
f 277/1/6 278/2/5 279/3/6
f 279/3/6 280/4/6 277/1/6
f 281/1/6 282/2/6 283/3/6
f 283/3/6 284/4/6 281/1/6
f 285/1/6 286/2/5 287/3/6
f 287/3/6 288/4/7 285/1/6
f 289/1/8 290/2/9 291/3/8
f 291/3/8 292/4/8 289/1/8
f 293/1/9 294/2/9 295/3/9
f 295/3/9 296/4/9 293/1/9
f 297/1/9 298/2/9 299/3/9
f 299/3/9 300/4/9 297/1/9
f 301/1/8 302/2/8 303/3/8
f 303/3/8 304/4/9 301/1/8
f 305/1/8 306/2/8 307/3/9
f 307/3/9 308/4/9 305/1/8
f 309/1/8 310/2/8 311/3/9
f 311/3/9 312/4/9 309/1/8
f 313/1/8 314/2/9 315/3/8
f 315/3/8 316/4/8 313/1/8
f 317/1/9 318/2/9 319/3/9
f 319/3/9 320/4/9 317/1/9
f 321/1/9 322/2/9 323/3/9
f 323/3/9 324/4/9 321/1/9
f 325/1/8 326/2/8 327/3/8
f 327/3/8 328/4/9 325/1/8
f 329/1/8 330/2/8 331/3/9
f 331/3/9 332/4/9 329/1/8
f 333/1/9 334/2/9 335/3/8
f 335/3/8 336/4/8 333/1/9
f 337/1/9 338/2/9 339/3/9
f 339/3/9 340/4/9 337/1/9
f 341/1/8 342/2/8 343/3/9
f 343/3/9 344/4/9 341/1/8
f 345/1/9 346/2/9 347/3/9
f 347/3/9 348/4/9 345/1/9
f 349/1/8 350/2/8 351/3/8
f 351/3/8 352/4/8 349/1/8
f 353/1/9 354/2/9 355/3/8
f 355/3/8 356/4/8 353/1/9
f 357/1/8 358/2/8 359/3/9
f 359/3/9 360/4/9 357/1/8
f 361/1/1 362/2/1 363/3/1
f 363/3/1 364/4/1 361/1/1
f 365/1/1 366/2/1 367/3/1
f 367/3/1 368/4/1 365/1/1
f 369/1/1 370/2/1 371/3/1
f 371/3/1 372/4/1 369/1/1
f 373/1/1 374/2/1 375/3/1
f 375/3/1 376/4/1 373/1/1
f 377/1/1 378/2/1 379/3/1
f 379/3/1 380/4/1 377/1/1
f 381/1/1 382/2/1 383/3/1
f 383/3/1 384/4/1 381/1/1
f 385/1/1 386/2/1 387/3/1
f 387/3/1 388/4/1 385/1/1
f 389/1/1 390/2/1 391/3/1
f 391/3/1 392/4/1 389/1/1
f 393/1/1 394/2/1 395/3/1
f 395/3/1 396/4/1 393/1/1
f 397/1/1 398/2/1 399/3/1
f 399/3/1 400/4/1 397/1/1
f 401/1/1 402/2/1 403/3/1
f 403/3/1 404/4/1 401/1/1
f 405/1/1 406/2/1 407/3/1
f 407/3/1 408/4/1 405/1/1
f 409/1/1 410/2/1 411/3/1
f 411/3/1 412/4/1 409/1/1
f 413/1/1 414/2/1 415/3/1
f 415/3/1 416/4/1 413/1/1
f 417/1/1 418/2/1 419/3/1
f 419/3/1 420/4/1 417/1/1
f 421/1/1 422/2/1 423/3/1
f 423/3/1 424/4/1 421/1/1
f 425/1/1 426/2/1 427/3/1
f 427/3/1 428/4/1 425/1/1
f 429/1/1 430/2/1 431/3/1
f 431/3/1 432/4/1 429/1/1
f 433/1/1 434/2/1 435/3/1
f 435/3/1 436/4/1 433/1/1
f 437/1/1 438/2/1 439/3/1
f 439/3/1 440/4/1 437/1/1
f 441/1/1 442/2/1 443/3/1
f 443/3/1 444/4/1 441/1/1
f 445/1/1 446/2/1 447/3/1
f 447/3/1 448/4/1 445/1/1
f 449/1/1 450/2/1 451/3/1
f 451/3/1 452/4/1 449/1/1
f 453/1/1 454/2/1 455/3/1
f 455/3/1 456/4/1 453/1/1
f 457/1/1 458/2/1 459/3/1
f 459/3/1 460/4/1 457/1/1
f 461/1/1 462/2/1 463/3/1
f 463/3/1 464/4/1 461/1/1
f 465/1/1 466/2/1 467/3/1
f 467/3/1 468/4/1 465/1/1
f 469/1/1 470/2/1 471/3/1
f 471/3/1 472/4/1 469/1/1
f 473/1/1 474/2/1 475/3/1
f 475/3/1 476/4/1 473/1/1
f 477/1/1 478/2/1 479/3/1
f 479/3/1 480/4/1 477/1/1
f 481/1/1 482/2/1 483/3/1
f 483/3/1 484/4/1 481/1/1
f 485/1/1 486/2/1 487/3/1
f 487/3/1 488/4/1 485/1/1
f 489/1/1 490/2/1 491/3/1
f 491/3/1 492/4/1 489/1/1
f 493/1/1 494/2/1 495/3/1
f 495/3/1 496/4/1 493/1/1
f 497/1/1 498/2/1 499/3/1
f 499/3/1 500/4/1 497/1/1
f 501/1/1 502/2/1 503/3/1
f 503/3/1 504/4/1 501/1/1
f 505/1/1 506/2/1 507/3/1
f 507/3/1 508/4/1 505/1/1
f 509/1/1 510/2/1 511/3/1
f 511/3/1 512/4/1 509/1/1
f 513/1/1 514/2/1 515/3/1
f 515/3/1 516/4/1 513/1/1
f 517/1/10 518/2/10 519/3/10
f 519/3/10 520/4/10 517/1/10
f 521/1/10 522/2/10 523/3/10
f 523/3/10 524/4/10 521/1/10
f 525/1/10 526/2/10 527/3/10
f 527/3/10 528/4/10 525/1/10
f 529/1/10 530/2/10 531/3/10
f 531/3/10 532/4/11 529/1/10
f 533/1/12 534/2/12 535/3/12
f 535/3/12 536/4/12 533/1/12
f 537/1/12 538/2/12 539/3/12
f 539/3/12 540/4/12 537/1/12
f 541/1/12 542/2/12 543/3/12
f 543/3/12 544/4/12 541/1/12
f 545/1/12 546/2/12 547/3/12
f 547/3/12 548/4/12 545/1/12
f 549/1/13 550/2/13 551/3/13
f 551/3/13 552/4/13 549/1/13
f 553/1/13 554/2/13 555/3/13
f 555/3/13 556/4/13 553/1/13
f 557/1/13 558/2/13 559/3/13
f 559/3/13 560/4/13 557/1/13
f 561/1/13 562/2/13 563/3/13
f 563/3/13 564/4/13 561/1/13
f 565/1/14 566/2/14 567/3/14
f 567/3/14 568/4/14 565/1/14
f 569/1/15 570/2/16 571/3/14
f 571/3/14 572/4/17 569/1/15
f 573/1/15 574/2/15 575/3/14
f 575/3/14 576/4/14 573/1/15
f 577/1/15 578/2/14 579/3/15
f 579/3/15 580/4/16 577/1/15
f 581/1/15 582/2/16 583/3/15
f 583/3/15 584/4/14 581/1/15
f 585/1/15 586/2/14 587/3/15
f 587/3/15 588/4/16 585/1/15
f 589/1/14 590/2/14 591/3/14
f 591/3/14 592/4/14 589/1/14
f 593/1/14 594/2/14 595/3/15
f 595/3/15 596/4/16 593/1/14
f 597/1/14 598/2/14 599/3/14
f 599/3/14 600/4/14 597/1/14
f 601/1/15 602/2/16 603/3/14
f 603/3/14 604/4/14 601/1/15
f 605/1/14 606/2/14 607/3/15
f 607/3/15 608/4/16 605/1/14
f 609/1/15 610/2/16 611/3/14
f 611/3/14 612/4/14 609/1/15
f 613/1/14 614/2/14 615/3/15
f 615/3/15 616/4/15 613/1/14
f 617/1/14 618/2/14 619/3/15
f 619/3/15 620/4/15 617/1/14
f 621/1/14 622/2/14 623/3/14
f 623/3/14 624/4/14 621/1/14
f 625/1/15 626/2/15 627/3/14
f 627/3/14 628/4/14 625/1/15
f 629/1/15 630/2/14 631/3/15
f 631/3/15 632/4/16 629/1/15
f 633/1/15 634/2/15 635/3/14
f 635/3/14 636/4/14 633/1/15
f 637/1/18 638/2/19 639/3/18
f 639/3/18 640/4/20 637/1/18
f 641/1/19 642/2/19 643/3/18
f 643/3/18 644/4/20 641/1/19
f 645/1/18 646/2/18 647/3/18
f 647/3/18 648/4/18 645/1/18
f 649/1/19 650/2/19 651/3/18
f 651/3/18 652/4/18 649/1/19
f 653/1/18 654/2/20 655/3/18
f 655/3/18 656/4/19 653/1/18
f 657/1/18 658/2/19 659/3/18
f 659/3/18 660/4/20 657/1/18
f 661/1/20 662/2/20 663/3/18
f 663/3/18 664/4/18 661/1/20
f 665/1/19 666/2/19 667/3/19
f 667/3/19 668/4/18 665/1/19
f 669/1/18 670/2/19 671/3/18
f 671/3/18 672/4/20 669/1/18
f 673/1/18 674/2/18 675/3/18
f 675/3/18 676/4/18 673/1/18
f 677/1/18 678/2/18 679/3/18
f 679/3/18 680/4/20 677/1/18
f 681/1/18 682/2/18 683/3/18
f 683/3/18 684/4/18 681/1/18
f 685/1/19 686/2/19 687/3/18
f 687/3/18 688/4/18 685/1/19
f 689/1/18 690/2/18 691/3/18
f 691/3/18 692/4/18 689/1/18
f 693/1/18 694/2/18 695/3/18
f 695/3/18 696/4/20 693/1/18
f 697/1/18 698/2/18 699/3/18
f 699/3/18 700/4/18 697/1/18
f 701/1/19 702/2/19 703/3/19
f 703/3/19 704/4/18 701/1/19
f 705/1/19 706/2/19 707/3/18
f 707/3/18 708/4/18 705/1/19
f 709/1/18 710/2/18 711/3/20
f 711/3/20 712/4/20 709/1/18
f 713/1/18 714/2/20 715/3/18
f 715/3/18 716/4/19 713/1/18
f 717/1/18 718/2/20 719/3/18
f 719/3/18 720/4/19 717/1/18
f 721/1/18 722/2/18 723/3/18
f 723/3/18 724/4/18 721/1/18
f 725/1/18 726/2/20 727/3/19
f 727/3/19 728/4/19 725/1/18
f 729/1/18 730/2/18 731/3/18
f 731/3/18 732/4/18 729/1/18
f 733/1/18 734/2/18 735/3/19
f 735/3/19 736/4/19 733/1/18
f 737/1/18 738/2/19 739/3/18
f 739/3/18 740/4/20 737/1/18
f 741/1/18 742/2/19 743/3/18
f 743/3/18 744/4/20 741/1/18
f 745/1/18 746/2/18 747/3/18
f 747/3/18 748/4/18 745/1/18
f 749/1/18 750/2/18 751/3/18
f 751/3/18 752/4/18 749/1/18
f 753/1/18 754/2/18 755/3/18
f 755/3/18 756/4/18 753/1/18
f 757/1/18 758/2/18 759/3/19
f 759/3/19 760/4/19 757/1/18
f 761/1/19 762/2/19 763/3/18
f 763/3/18 764/4/18 761/1/19
f 765/1/18 766/2/18 767/3/18
f 767/3/18 768/4/18 765/1/18
f 769/1/18 770/2/18 771/3/20
f 771/3/20 772/4/20 769/1/18
f 773/1/18 774/2/20 775/3/18
f 775/3/18 776/4/19 773/1/18
f 777/1/18 778/2/18 779/3/20
f 779/3/20 780/4/20 777/1/18
f 781/1/18 782/2/20 783/3/18
f 783/3/18 784/4/19 781/1/18
f 785/1/18 786/2/18 787/3/18
f 787/3/18 788/4/18 785/1/18
f 789/1/18 790/2/18 791/3/18
f 791/3/18 792/4/18 789/1/18
f 793/1/21 794/2/22 795/3/21
f 795/3/21 796/4/21 793/1/21
f 797/1/23 798/2/21 799/3/23
f 799/3/23 800/4/23 797/1/23
f 801/1/21 802/2/21 803/3/21
f 803/3/21 804/4/22 801/1/21
f 805/1/21 806/2/22 807/3/23
f 807/3/23 808/4/23 805/1/21
f 809/1/22 810/2/22 811/3/22
f 811/3/22 812/4/21 809/1/22
f 813/1/21 814/2/23 815/3/22
f 815/3/22 816/4/22 813/1/21
f 817/1/21 818/2/22 819/3/21
f 819/3/21 820/4/21 817/1/21
f 821/1/21 822/2/21 823/3/21
f 823/3/21 824/4/21 821/1/21
f 825/1/22 826/2/22 827/3/22
f 827/3/22 828/4/22 825/1/22
f 829/1/21 830/2/23 831/3/22
f 831/3/22 832/4/22 829/1/21
f 833/1/21 834/2/21 835/3/21
f 835/3/21 836/4/22 833/1/21
f 837/1/21 838/2/22 839/3/23
f 839/3/23 840/4/23 837/1/21
f 841/1/22 842/2/22 843/3/21
f 843/3/21 844/4/23 841/1/22
f 845/1/21 846/2/21 847/3/21
f 847/3/21 848/4/22 845/1/21
f 849/1/21 850/2/21 851/3/21
f 851/3/21 852/4/21 849/1/21
f 853/1/21 854/2/21 855/3/21
f 855/3/21 856/4/22 853/1/21
f 857/1/22 858/2/22 859/3/21
f 859/3/21 860/4/23 857/1/22
f 861/1/21 862/2/21 863/3/21
f 863/3/21 864/4/21 861/1/21
f 865/1/22 866/2/21 867/3/22
f 867/3/22 868/4/22 865/1/22
f 869/1/21 870/2/23 871/3/21
f 871/3/21 872/4/22 869/1/21
f 873/1/23 874/2/23 875/3/21
f 875/3/21 876/4/21 873/1/23
f 877/1/21 878/2/21 879/3/21
f 879/3/21 880/4/22 877/1/21
f 881/1/23 882/2/23 883/3/21
f 883/3/21 884/4/22 881/1/23
f 885/1/21 886/2/21 887/3/21
f 887/3/21 888/4/22 885/1/21
f 889/1/21 890/2/21 891/3/21
f 891/3/21 892/4/21 889/1/21
f 893/1/21 894/2/21 895/3/21
f 895/3/21 896/4/21 893/1/21
f 897/1/21 898/2/21 899/3/21
f 899/3/21 900/4/22 897/1/21
f 901/1/21 902/2/23 903/3/22
f 903/3/22 904/4/22 901/1/21
f 905/1/21 906/2/21 907/3/21
f 907/3/21 908/4/21 905/1/21
f 909/1/22 910/2/22 911/3/21
f 911/3/21 912/4/23 909/1/22
f 913/1/21 914/2/22 915/3/23
f 915/3/23 916/4/23 913/1/21
f 917/1/21 918/2/23 919/3/22
f 919/3/22 920/4/22 917/1/21
f 921/1/21 922/2/21 923/3/21
f 923/3/21 924/4/22 921/1/21
f 925/1/21 926/2/21 927/3/21
f 927/3/21 928/4/21 925/1/21
f 929/1/21 930/2/21 931/3/23
f 931/3/23 932/4/23 929/1/21
f 933/1/23 934/2/23 935/3/23
f 935/3/23 936/4/23 933/1/23
f 937/1/21 938/2/21 939/3/21
f 939/3/21 940/4/22 937/1/21
f 941/1/21 942/2/22 943/3/23
f 943/3/23 944/4/23 941/1/21
f 945/1/21 946/2/21 947/3/21
f 947/3/21 948/4/21 945/1/21
f 949/1/24 950/2/24 951/3/24
f 951/3/24 952/4/24 949/1/24
f 953/1/25 954/2/25 955/3/25
f 955/3/25 956/4/25 953/1/25
f 957/1/24 958/2/24 959/3/24
f 959/3/24 960/4/24 957/1/24
f 961/1/24 962/2/24 963/3/25
f 963/3/25 964/4/25 961/1/24
f 965/1/25 966/2/26 967/3/25
f 967/3/25 968/4/25 965/1/25
f 969/1/25 970/2/25 971/3/25
f 971/3/25 972/4/26 969/1/25
f 973/1/24 974/2/25 975/3/24
f 975/3/24 976/4/24 973/1/24
f 977/1/25 978/2/25 979/3/25
f 979/3/25 980/4/26 977/1/25
f 981/1/25 982/2/25 983/3/25
f 983/3/25 984/4/25 981/1/25
f 985/1/24 986/2/24 987/3/25
f 987/3/25 988/4/26 985/1/24
f 989/1/25 990/2/25 991/3/25
f 991/3/25 992/4/26 989/1/25
f 993/1/24 994/2/24 995/3/24
f 995/3/24 996/4/25 993/1/24
f 997/1/24 998/2/24 999/3/24
f 999/3/24 1000/4/24 997/1/24
f 1001/1/25 1002/2/25 1003/3/25
f 1003/3/25 1004/4/26 1001/1/25
f 1005/1/24 1006/2/24 1007/3/25
f 1007/3/25 1008/4/25 1005/1/24
f 1009/1/25 1010/2/25 1011/3/25
f 1011/3/25 1012/4/25 1009/1/25
f 1013/1/25 1014/2/25 1015/3/25
f 1015/3/25 1016/4/26 1013/1/25
f 1017/1/24 1018/2/24 1019/3/24
f 1019/3/24 1020/4/25 1017/1/24
