# Blender 4.4.3
# www.blender.org
mtllib PITENTB.mtl
o PITENTB
v 136.643143 -0.243943 -9.880210
v 136.643143 -0.318637 -9.880210
v 136.643143 -0.243943 -9.008870
v 136.643143 -0.318637 -9.008870
v 139.513489 -0.318637 -9.008870
v 139.513489 -0.318637 -9.880210
v 139.513489 -0.243943 -9.008870
v 139.513489 -0.243943 -9.880210
v 136.793503 0.590223 -9.444167
v 136.793503 0.299464 -9.227324
v 136.793503 0.792693 -9.172682
v 136.793503 0.501934 -8.955838
v 139.309250 0.499234 -8.953824
v 139.309250 0.296764 -9.225310
v 139.309250 0.789993 -9.170668
v 139.309250 0.587523 -9.442154
v 136.643570 0.644248 -10.060724
v 136.643570 1.137498 -9.067945
v 136.643570 0.693289 -10.071223
v 136.643570 1.122987 -8.982128
v 136.643570 1.048941 -8.934606
v 136.643570 0.677063 -8.932770
v 136.643570 0.644248 -9.008027
v 139.512848 0.693289 -10.071224
v 139.512848 0.644248 -10.060725
v 139.512848 1.137498 -9.067946
v 139.512848 1.122987 -8.982128
v 139.512848 1.048941 -8.934606
v 139.512848 0.677063 -8.932771
v 139.512848 0.644248 -9.008028
v 136.650452 0.649319 -9.048951
v 136.695496 -1.264184 -9.074960
v 136.650452 -1.264184 -9.048951
v 136.695496 0.649319 -9.074960
v 136.695496 -1.264184 -9.022943
v 136.695496 0.649319 -9.022943
v 139.454742 0.649319 -9.048951
v 139.499786 -1.264184 -9.074960
v 139.454742 -1.264184 -9.048951
v 139.499786 0.649319 -9.074960
v 139.499786 -1.264184 -9.022943
v 139.499786 0.649319 -9.022943
v 139.476974 -0.380106 -9.048930
v 139.476974 -0.459737 -9.048930
v 136.677200 -0.380106 -9.048930
v 136.677200 -0.448611 -9.048930
v 139.476974 0.615410 -9.048930
v 139.476974 0.535778 -9.048930
v 136.677200 0.615410 -9.048930
v 136.677200 0.535778 -9.048930
v 139.487198 -0.459737 -9.873059
v 139.487198 -0.380106 -9.873059
v 139.487198 -0.380106 -9.063879
v 139.487198 -0.459737 -9.063879
v 136.684204 -0.380106 -9.873058
v 136.684204 -0.459737 -9.873058
v 136.684204 -0.380106 -9.063878
v 136.684204 -0.448611 -9.063878
v 138.051834 0.342100 -9.048930
v 138.051834 0.262468 -9.048930
v 136.677200 -0.199843 -9.048930
v 136.677200 -0.279474 -9.048930
v 139.471802 -0.201971 -9.048930
v 139.471802 -0.281602 -9.048930
v 138.056946 0.339949 -9.048930
v 138.056946 0.260318 -9.048930
v 138.513855 -0.233956 -9.753531
v 138.513855 -0.244136 -9.753531
v 138.513855 -0.208544 -9.539910
v 138.513855 -0.244136 -9.539910
v 139.178604 -0.247505 -9.539910
v 139.178604 -0.247505 -9.753531
v 139.178604 -0.211912 -9.539910
v 139.178604 -0.237324 -9.753531
v 137.042740 -0.233956 -9.709385
v 137.042740 -0.244136 -9.709385
v 137.042740 -0.208544 -9.495764
v 137.042740 -0.244136 -9.495764
v 137.707489 -0.247505 -9.495765
v 137.707489 -0.247505 -9.709385
v 137.707489 -0.211912 -9.495765
v 137.707489 -0.237324 -9.709385
v 139.476974 0.657995 -9.067659
v 139.476974 0.657995 -8.988028
v 136.677200 0.657995 -9.067658
v 136.677200 0.657995 -8.988028
v 139.476974 0.657995 -10.047717
v 139.476974 0.657995 -9.968085
v 136.677200 0.657995 -10.047717
v 136.677200 0.657995 -9.968085
v 138.037277 0.657995 -10.015860
v 138.116898 0.657995 -10.015860
v 138.037277 0.657995 -9.008625
v 138.116898 0.657995 -9.008625
v 139.447891 0.657995 -10.015860
v 139.527527 0.657995 -10.015860
v 139.447891 0.657995 -9.008625
v 139.527527 0.657995 -9.008625
v 136.677155 0.657995 -10.015860
v 136.756790 0.657995 -10.015860
v 136.677155 0.657995 -9.008625
v 136.756790 0.657995 -9.008625
v 137.319580 0.657995 -10.015860
v 137.399200 0.657995 -10.015860
v 137.319580 0.657995 -9.008625
v 137.399200 0.657995 -9.008625
v 138.778381 0.657995 -10.015860
v 138.858017 0.657995 -10.015860
v 138.778381 0.657995 -9.008625
v 138.858017 0.657995 -9.008625
v 137.045761 -0.587715 -9.959414
v 136.898773 -0.587715 -10.095280
v 136.837875 -0.587715 -9.959414
v 137.045761 -0.587715 -10.151557
v 137.192749 -0.587715 -10.095280
v 137.253647 -0.587715 -9.959414
v 137.192749 -0.587715 -9.823547
v 137.045761 -0.587715 -9.767270
v 136.898773 -0.587715 -9.823547
v 136.898773 -0.641326 -10.095280
v 136.837875 -0.641326 -9.959414
v 137.045761 -0.641326 -10.151557
v 137.192749 -0.641326 -10.095280
v 137.253647 -0.641326 -9.959414
v 137.192749 -0.641326 -9.823547
v 137.045761 -0.641326 -9.767270
v 136.898773 -0.641326 -9.823547
v 137.045761 -0.641326 -9.959414
v 137.018127 -0.619124 -9.949988
v 137.072189 -1.265104 -9.981198
v 137.018127 -1.265104 -9.949988
v 137.072189 -0.619124 -9.981198
v 137.072189 -1.265104 -9.918778
v 137.072189 -0.619124 -9.918778
v 138.430542 -0.576589 -9.959414
v 138.445480 -0.576589 -10.159021
v 138.301224 -0.576589 -10.122181
v 138.580978 -0.576589 -10.078934
v 138.628357 -0.576589 -9.928834
v 138.559845 -0.576589 -9.796646
v 138.415588 -0.576589 -9.759806
v 138.280090 -0.576589 -9.839892
v 138.232727 -0.576589 -9.989994
v 138.445480 -0.630200 -10.159021
v 138.301224 -0.630200 -10.122181
v 138.580978 -0.630200 -10.078934
v 138.628357 -0.630200 -9.928834
v 138.559845 -0.630200 -9.796646
v 138.415588 -0.630200 -9.759806
v 138.280090 -0.630200 -9.839892
v 138.232727 -0.630200 -9.989994
v 138.430542 -0.630200 -9.959414
v 138.416534 -0.607998 -9.978206
v 138.474594 -1.265104 -9.955294
v 138.416534 -1.265104 -9.978206
v 138.474594 -0.607998 -9.955294
v 138.425720 -1.265104 -9.916466
v 138.425720 -0.607998 -9.916466
v 137.688431 -0.617752 -9.959414
v 137.532944 -0.617752 -9.833349
v 137.658722 -0.617752 -9.753668
v 137.498260 -0.617752 -9.986878
v 137.574966 -0.617752 -10.124318
v 137.718140 -0.617752 -10.165159
v 137.843903 -0.617752 -10.085478
v 137.878601 -0.617752 -9.931950
v 137.801880 -0.617752 -9.794509
v 137.532944 -0.671363 -9.833349
v 137.658722 -0.671363 -9.753668
v 137.498260 -0.671363 -9.986878
v 137.574966 -0.671363 -10.124318
v 137.718140 -0.671363 -10.165159
v 137.843903 -0.671363 -10.085478
v 137.878601 -0.671363 -9.931950
v 137.801880 -0.671363 -9.794509
v 137.688431 -0.671363 -9.959414
v 137.691681 -0.649161 -9.914320
v 137.668518 -1.265104 -9.972283
v 137.691681 -1.265104 -9.914320
v 137.668518 -0.649161 -9.972283
v 137.730301 -1.265104 -9.963361
v 137.730301 -0.649161 -9.963361
v 139.069519 -0.597707 -9.959414
v 138.988434 -0.597707 -10.142422
v 138.878677 -0.597707 -10.041828
v 139.145706 -0.597707 -10.135812
v 139.258331 -0.597707 -10.025870
v 139.260376 -0.597707 -9.876999
v 139.150604 -0.597707 -9.776405
v 138.993347 -0.597707 -9.783015
v 138.880707 -0.597707 -9.892957
v 138.988434 -0.651318 -10.142422
v 138.878677 -0.651318 -10.041828
v 139.145706 -0.651318 -10.135812
v 139.258331 -0.651318 -10.025870
v 139.260376 -0.651318 -9.876999
v 139.150604 -0.651318 -9.776405
v 138.993347 -0.651318 -9.783015
v 138.880707 -0.651318 -9.892957
v 139.069519 -0.651318 -9.959414
v 139.044846 -0.629116 -9.964275
v 139.106842 -1.265104 -9.971498
v 139.044846 -1.265104 -9.964275
v 139.106842 -0.629116 -9.971497
v 139.082108 -1.265104 -9.914192
v 139.082108 -0.629116 -9.914192
v 136.650452 0.649319 -9.892159
v 136.695496 -1.264185 -9.918167
v 136.650452 -1.264185 -9.892159
v 136.695496 0.649319 -9.918167
v 136.695496 -1.264185 -9.866150
v 136.695496 0.649319 -9.866150
v 139.447372 0.649319 -9.892159
v 139.492416 -1.264185 -9.918167
v 139.447372 -1.264185 -9.892159
v 139.492416 0.649319 -9.918167
v 139.492416 -1.264185 -9.866151
v 139.492416 0.649319 -9.866151
v 139.476974 0.390146 -9.048930
v 139.476974 0.310515 -9.048930
v 136.677200 0.390146 -9.048930
v 136.677200 0.321641 -9.048930
v 139.476974 -0.435705 -9.048930
v 139.476974 -1.226358 -9.048930
v 136.677200 -0.435705 -9.048930
v 136.677200 -1.215232 -9.048930
v 139.487198 -1.226358 -9.873059
v 139.487198 -0.435705 -9.873059
v 139.487198 -0.435705 -9.063879
v 139.487198 -1.226358 -9.063879
v 136.684204 -0.435705 -9.873058
v 136.684204 -1.226358 -9.873058
v 136.684204 -0.435705 -9.063878
v 136.684204 -1.215232 -9.063878
v 97.214859 -0.243943 -9.880209
v 97.214859 -0.318637 -9.880209
v 97.214859 -0.243943 -9.008870
v 97.214859 -0.318637 -9.008870
v 100.085197 -0.318637 -9.008870
v 100.085197 -0.318637 -9.880210
v 100.085197 -0.243943 -9.008870
v 100.085197 -0.243943 -9.880210
v 97.365219 0.590223 -9.444167
v 97.365219 0.299464 -9.227324
v 97.365219 0.792693 -9.172681
v 97.365219 0.501934 -8.955837
v 99.880974 0.499234 -8.953824
v 99.880974 0.296764 -9.225310
v 99.880974 0.789993 -9.170668
v 99.880974 0.587523 -9.442153
v 97.215279 0.644248 -10.060724
v 97.215279 1.137498 -9.067945
v 97.215279 0.693289 -10.071223
v 97.215279 1.122987 -8.982127
v 97.215279 1.048941 -8.934605
v 97.215279 0.677063 -8.932770
v 97.215279 0.644248 -9.008027
v 100.084572 0.693289 -10.071223
v 100.084572 0.644248 -10.060725
v 100.084572 1.137498 -9.067945
v 100.084572 1.122987 -8.982127
v 100.084572 1.048941 -8.934606
v 100.084572 0.677063 -8.932770
v 100.084572 0.644248 -9.008027
v 97.222168 0.649319 -9.048951
v 97.267220 -1.264184 -9.074959
v 97.222168 -1.264184 -9.048951
v 97.267220 0.649319 -9.074959
v 97.267220 -1.264184 -9.022943
v 97.267220 0.649319 -9.022943
v 100.026459 0.649319 -9.048951
v 100.071503 -1.264184 -9.074960
v 100.026459 -1.264184 -9.048951
v 100.071503 0.649319 -9.074960
v 100.071503 -1.264184 -9.022943
v 100.071503 0.649319 -9.022943
v 100.048698 -0.380106 -9.048930
v 100.048698 -0.459737 -9.048930
v 97.248917 -0.380106 -9.048930
v 97.248917 -0.448611 -9.048930
v 100.048698 0.615410 -9.048930
v 100.048698 0.535778 -9.048930
v 97.248917 0.615410 -9.048930
v 97.248917 0.535778 -9.048930
v 100.058922 -0.459737 -9.873058
v 100.058922 -0.380106 -9.873058
v 100.058922 -0.380106 -9.063878
v 100.058922 -0.459737 -9.063878
v 97.255920 -0.380106 -9.873058
v 97.255920 -0.459737 -9.873058
v 97.255920 -0.380106 -9.063878
v 97.255920 -0.448611 -9.063878
v 98.623558 0.342100 -9.048930
v 98.623558 0.262468 -9.048930
v 97.248917 -0.199843 -9.048930
v 97.248917 -0.279474 -9.048930
v 100.043518 -0.201971 -9.048930
v 100.043518 -0.281602 -9.048930
v 98.628662 0.339949 -9.048930
v 98.628662 0.260318 -9.048930
v 99.085564 -0.233956 -9.753531
v 99.085564 -0.244136 -9.753531
v 99.085564 -0.208544 -9.539909
v 99.085564 -0.244136 -9.539909
v 99.750320 -0.247505 -9.539909
v 99.750320 -0.247505 -9.753531
v 99.750320 -0.211912 -9.539909
v 99.750320 -0.237324 -9.753531
v 97.614456 -0.233956 -9.709385
v 97.614456 -0.244136 -9.709385
v 97.614456 -0.208544 -9.495764
v 97.614456 -0.244136 -9.495764
v 98.279205 -0.247505 -9.495764
v 98.279205 -0.247505 -9.709385
v 98.279205 -0.211912 -9.495764
v 98.279205 -0.237324 -9.709385
v 100.048698 0.657995 -9.067658
v 100.048698 0.657995 -8.988028
v 97.248917 0.657995 -9.067658
v 97.248917 0.657995 -8.988027
v 100.048698 0.657995 -10.047716
v 100.048698 0.657995 -9.968085
v 97.248917 0.657995 -10.047716
v 97.248917 0.657995 -9.968085
v 98.608986 0.657995 -10.015859
v 98.688622 0.657995 -10.015859
v 98.608986 0.657995 -9.008624
v 98.688622 0.657995 -9.008624
v 100.019615 0.657995 -10.015859
v 100.099243 0.657995 -10.015859
v 100.019615 0.657995 -9.008624
v 100.099243 0.657995 -9.008624
v 97.248871 0.657995 -10.015859
v 97.328506 0.657995 -10.015859
v 97.248871 0.657995 -9.008624
v 97.328506 0.657995 -9.008624
v 97.891296 0.657995 -10.015859
v 97.970924 0.657995 -10.015859
v 97.891296 0.657995 -9.008624
v 97.970924 0.657995 -9.008624
v 99.350098 0.657995 -10.015859
v 99.429733 0.657995 -10.015859
v 99.350098 0.657995 -9.008624
v 99.429733 0.657995 -9.008624
v 97.617477 -0.587715 -9.959414
v 97.470482 -0.587715 -10.095279
v 97.409599 -0.587715 -9.959414
v 97.617477 -0.587715 -10.151556
v 97.764473 -0.587715 -10.095279
v 97.825363 -0.587715 -9.959414
v 97.764473 -0.587715 -9.823547
v 97.617477 -0.587715 -9.767270
v 97.470482 -0.587715 -9.823547
v 97.470482 -0.641326 -10.095279
v 97.409599 -0.641326 -9.959414
v 97.617477 -0.641326 -10.151556
v 97.764473 -0.641326 -10.095279
v 97.825363 -0.641326 -9.959414
v 97.764473 -0.641326 -9.823547
v 97.617477 -0.641326 -9.767270
v 97.470482 -0.641326 -9.823547
v 97.617477 -0.641326 -9.959414
v 97.589851 -0.619124 -9.949987
v 97.643906 -1.265104 -9.981198
v 97.589851 -1.265104 -9.949988
v 97.643906 -0.619124 -9.981197
v 97.643906 -1.265104 -9.918778
v 97.643906 -0.619124 -9.918778
v 99.002258 -0.576589 -9.959414
v 99.017197 -0.576589 -10.159021
v 98.872940 -0.576589 -10.122181
v 99.152702 -0.576589 -10.078934
v 99.200073 -0.576589 -9.928833
v 99.131561 -0.576589 -9.796646
v 98.987312 -0.576589 -9.759806
v 98.851807 -0.576589 -9.839892
v 98.804436 -0.576589 -9.989994
v 99.017197 -0.630200 -10.159021
v 98.872940 -0.630200 -10.122181
v 99.152702 -0.630200 -10.078934
v 99.200073 -0.630200 -9.928833
v 99.131561 -0.630200 -9.796646
v 98.987312 -0.630200 -9.759806
v 98.851807 -0.630200 -9.839892
v 98.804436 -0.630200 -9.989994
v 99.002258 -0.630200 -9.959414
v 98.988251 -0.607998 -9.978205
v 99.046310 -1.265104 -9.955294
v 98.988251 -1.265104 -9.978206
v 99.046310 -0.607998 -9.955294
v 98.997437 -1.265104 -9.916466
v 98.997437 -0.607998 -9.916466
v 98.260147 -0.617752 -9.959414
v 98.104668 -0.617752 -9.833348
v 98.230431 -0.617752 -9.753667
v 98.069977 -0.617752 -9.986877
v 98.146683 -0.617752 -10.124318
v 98.289856 -0.617752 -10.165159
v 98.415627 -0.617752 -10.085477
v 98.450317 -0.617752 -9.931949
v 98.373604 -0.617752 -9.794508
v 98.104668 -0.671363 -9.833348
v 98.230431 -0.671363 -9.753667
v 98.069977 -0.671363 -9.986877
v 98.146683 -0.671363 -10.124318
v 98.289856 -0.671363 -10.165159
v 98.415627 -0.671363 -10.085477
v 98.450317 -0.671363 -9.931949
v 98.373604 -0.671363 -9.794508
v 98.260147 -0.671363 -9.959414
v 98.263405 -0.649161 -9.914320
v 98.240242 -1.265104 -9.972283
v 98.263405 -1.265104 -9.914320
v 98.240242 -0.649161 -9.972283
v 98.302017 -1.265104 -9.963361
v 98.302017 -0.649161 -9.963361
v 99.641243 -0.597707 -9.959414
v 99.560158 -0.597707 -10.142422
v 99.450394 -0.597707 -10.041828
v 99.717415 -0.597707 -10.135811
v 99.830055 -0.597707 -10.025869
v 99.832085 -0.597707 -9.876999
v 99.722328 -0.597707 -9.776405
v 99.565063 -0.597707 -9.783015
v 99.452431 -0.597707 -9.892957
v 99.560158 -0.651318 -10.142422
v 99.450394 -0.651318 -10.041828
v 99.717415 -0.651318 -10.135811
v 99.830055 -0.651318 -10.025869
v 99.832085 -0.651318 -9.876999
v 99.722328 -0.651318 -9.776405
v 99.565063 -0.651318 -9.783015
v 99.452431 -0.651318 -9.892957
v 99.641243 -0.651318 -9.959414
v 99.616570 -0.629116 -9.964275
v 99.678566 -1.265104 -9.971497
v 99.616570 -1.265104 -9.964275
v 99.678566 -0.629116 -9.971497
v 99.653824 -1.265104 -9.914192
v 99.653824 -0.629116 -9.914192
v 97.222168 0.649319 -9.892159
v 97.267220 -1.264185 -9.918166
v 97.222168 -1.264185 -9.892159
v 97.267220 0.649319 -9.918166
v 97.267220 -1.264185 -9.866150
v 97.267220 0.649319 -9.866150
v 100.019089 0.649319 -9.892159
v 100.064140 -1.264185 -9.918167
v 100.019089 -1.264185 -9.892159
v 100.064140 0.649319 -9.918167
v 100.064140 -1.264185 -9.866150
v 100.064140 0.649319 -9.866150
v 100.048698 0.390146 -9.048930
v 100.048698 0.310515 -9.048930
v 97.248917 0.390146 -9.048930
v 97.248917 0.321641 -9.048930
v 100.048698 -0.435705 -9.048930
v 100.048698 -1.226358 -9.048930
v 97.248917 -0.435705 -9.048930
v 97.248917 -1.215232 -9.048929
v 100.058922 -1.226358 -9.873058
v 100.058922 -0.435705 -9.873058
v 100.058922 -0.435705 -9.063878
v 100.058922 -1.226358 -9.063878
v 97.255920 -0.435705 -9.873058
v 97.255920 -1.226358 -9.873058
v 97.255920 -0.435705 -9.063878
v 97.255920 -1.215232 -9.063878
v 63.007076 -0.243943 -9.880210
v 63.007076 -0.318637 -9.880210
v 63.007076 -0.243943 -9.008870
v 63.007076 -0.318637 -9.008870
v 65.877419 -0.318637 -9.008870
v 65.877419 -0.318637 -9.880210
v 65.877419 -0.243943 -9.008870
v 65.877419 -0.243943 -9.880210
v 63.157433 0.590223 -9.444167
v 63.157433 0.299464 -9.227324
v 63.157433 0.792693 -9.172681
v 63.157433 0.501934 -8.955838
v 65.673187 0.499234 -8.953824
v 65.673187 0.296764 -9.225310
v 65.673187 0.789993 -9.170668
v 65.673187 0.587523 -9.442154
v 63.007500 0.644248 -10.060724
v 63.007500 1.137498 -9.067945
v 63.007500 0.693289 -10.071223
v 63.007500 1.122987 -8.982127
v 63.007500 1.048941 -8.934606
v 63.007500 0.677063 -8.932770
v 63.007500 0.644248 -9.008027
v 65.876785 0.693289 -10.071223
v 65.876785 0.644248 -10.060725
v 65.876785 1.137498 -9.067945
v 65.876785 1.122987 -8.982128
v 65.876785 1.048941 -8.934606
v 65.876785 0.677063 -8.932770
v 65.876785 0.644248 -9.008027
v 63.014389 0.649319 -9.048951
v 63.059433 -1.264184 -9.074960
v 63.014389 -1.264184 -9.048951
v 63.059433 0.649319 -9.074960
v 63.059433 -1.264184 -9.022943
v 63.059433 0.649319 -9.022943
v 65.818672 0.649319 -9.048951
v 65.863724 -1.264184 -9.074960
v 65.818672 -1.264184 -9.048951
v 65.863724 0.649319 -9.074960
v 65.863724 -1.264184 -9.022943
v 65.863724 0.649319 -9.022943
v 65.840912 -0.380106 -9.048930
v 65.840912 -0.459737 -9.048930
v 63.041130 -0.380106 -9.048930
v 63.041130 -0.448611 -9.048930
v 65.840912 0.615410 -9.048930
v 65.840912 0.535778 -9.048930
v 63.041130 0.615410 -9.048930
v 63.041130 0.535778 -9.048930
v 65.851135 -0.459737 -9.873058
v 65.851135 -0.380106 -9.873058
v 65.851135 -0.380106 -9.063879
v 65.851135 -0.459737 -9.063879
v 63.048141 -0.380106 -9.873058
v 63.048141 -0.459737 -9.873058
v 63.048141 -0.380106 -9.063878
v 63.048141 -0.448611 -9.063878
v 64.415779 0.342100 -9.048930
v 64.415779 0.262468 -9.048930
v 63.041130 -0.199843 -9.048930
v 63.041130 -0.279474 -9.048930
v 65.835732 -0.201971 -9.048930
v 65.835732 -0.281602 -9.048930
v 64.420883 0.339949 -9.048930
v 64.420883 0.260318 -9.048930
v 64.877785 -0.233956 -9.753531
v 64.877785 -0.244136 -9.753531
v 64.877785 -0.208544 -9.539910
v 64.877785 -0.244136 -9.539910
v 65.542534 -0.247505 -9.539910
v 65.542534 -0.247505 -9.753531
v 65.542534 -0.211912 -9.539910
v 65.542534 -0.237324 -9.753531
v 63.406670 -0.233956 -9.709385
v 63.406670 -0.244136 -9.709385
v 63.406670 -0.208544 -9.495764
v 63.406670 -0.244136 -9.495764
v 64.071426 -0.247505 -9.495764
v 64.071426 -0.247505 -9.709385
v 64.071426 -0.211912 -9.495764
v 64.071426 -0.237324 -9.709385
v 65.840912 0.657995 -9.067658
v 65.840912 0.657995 -8.988028
v 63.041130 0.657995 -9.067658
v 63.041130 0.657995 -8.988028
v 65.840912 0.657995 -10.047717
v 65.840912 0.657995 -9.968085
v 63.041130 0.657995 -10.047716
v 63.041130 0.657995 -9.968085
v 64.401207 0.657995 -10.015859
v 64.480835 0.657995 -10.015859
v 64.401207 0.657995 -9.008624
v 64.480835 0.657995 -9.008624
v 65.811836 0.657995 -10.015860
v 65.891464 0.657995 -10.015860
v 65.811829 0.657995 -9.008625
v 65.891464 0.657995 -9.008625
v 63.041092 0.657995 -10.015859
v 63.120724 0.657995 -10.015859
v 63.041092 0.657995 -9.008624
v 63.120724 0.657995 -9.008624
v 63.683510 0.657995 -10.015859
v 63.763142 0.657995 -10.015859
v 63.683510 0.657995 -9.008624
v 63.763142 0.657995 -9.008624
v 65.142319 0.657995 -10.015860
v 65.221947 0.657995 -10.015860
v 65.142319 0.657995 -9.008625
v 65.221947 0.657995 -9.008625
v 63.409695 -0.587715 -9.959414
v 63.262703 -0.587715 -10.095279
v 63.201817 -0.587715 -9.959414
v 63.409695 -0.587715 -10.151556
v 63.556690 -0.587715 -10.095279
v 63.617577 -0.587715 -9.959414
v 63.556690 -0.587715 -9.823547
v 63.409695 -0.587715 -9.767270
v 63.262703 -0.587715 -9.823547
v 63.262703 -0.641326 -10.095279
v 63.201817 -0.641326 -9.959414
v 63.409695 -0.641326 -10.151556
v 63.556690 -0.641326 -10.095279
v 63.617577 -0.641326 -9.959414
v 63.556690 -0.641326 -9.823547
v 63.409695 -0.641326 -9.767270
v 63.262703 -0.641326 -9.823547
v 63.409695 -0.641326 -9.959414
v 63.382069 -0.619124 -9.949988
v 63.436127 -1.265104 -9.981198
v 63.382069 -1.265104 -9.949988
v 63.436127 -0.619124 -9.981198
v 63.436127 -1.265104 -9.918778
v 63.436127 -0.619124 -9.918778
v 64.794472 -0.576589 -9.959414
v 64.809418 -0.576589 -10.159021
v 64.665161 -0.576589 -10.122181
v 64.944916 -0.576589 -10.078934
v 64.992287 -0.576589 -9.928833
v 64.923782 -0.576589 -9.796646
v 64.779526 -0.576589 -9.759806
v 64.644028 -0.576589 -9.839892
v 64.596657 -0.576589 -9.989994
v 64.809418 -0.630200 -10.159021
v 64.665161 -0.630200 -10.122181
v 64.944916 -0.630200 -10.078934
v 64.992287 -0.630200 -9.928833
v 64.923782 -0.630200 -9.796646
v 64.779526 -0.630200 -9.759806
v 64.644028 -0.630200 -9.839892
v 64.596657 -0.630200 -9.989994
v 64.794472 -0.630200 -9.959414
v 64.780464 -0.607998 -9.978206
v 64.838524 -1.265104 -9.955294
v 64.780464 -1.265104 -9.978206
v 64.838524 -0.607998 -9.955294
v 64.789650 -1.265104 -9.916466
v 64.789650 -0.607998 -9.916466
v 64.052361 -0.617752 -9.959414
v 63.896881 -0.617752 -9.833349
v 64.022652 -0.617752 -9.753667
v 63.862194 -0.617752 -9.986878
v 63.938904 -0.617752 -10.124318
v 64.082077 -0.617752 -10.165159
v 64.207848 -0.617752 -10.085478
v 64.242531 -0.617752 -9.931950
v 64.165825 -0.617752 -9.794508
v 63.896881 -0.671363 -9.833349
v 64.022652 -0.671363 -9.753667
v 63.862194 -0.671363 -9.986878
v 63.938904 -0.671363 -10.124318
v 64.082077 -0.671363 -10.165159
v 64.207848 -0.671363 -10.085478
v 64.242531 -0.671363 -9.931950
v 64.165825 -0.671363 -9.794508
v 64.052361 -0.671363 -9.959414
v 64.055618 -0.649161 -9.914320
v 64.032455 -1.265104 -9.972283
v 64.055618 -1.265104 -9.914320
v 64.032455 -0.649161 -9.972283
v 64.094238 -1.265104 -9.963361
v 64.094238 -0.649161 -9.963361
v 65.433456 -0.597707 -9.959414
v 65.352371 -0.597707 -10.142422
v 65.242615 -0.597707 -10.041828
v 65.509636 -0.597707 -10.135812
v 65.622269 -0.597707 -10.025869
v 65.624306 -0.597707 -9.876999
v 65.514542 -0.597707 -9.776405
v 65.357285 -0.597707 -9.783015
v 65.244644 -0.597707 -9.892957
v 65.352371 -0.651318 -10.142422
v 65.242615 -0.651318 -10.041828
v 65.509636 -0.651318 -10.135812
v 65.622269 -0.651318 -10.025869
v 65.624306 -0.651318 -9.876999
v 65.514542 -0.651318 -9.776405
v 65.357285 -0.651318 -9.783015
v 65.244644 -0.651318 -9.892957
v 65.433456 -0.651318 -9.959414
v 65.408783 -0.629116 -9.964275
v 65.470787 -1.265104 -9.971497
v 65.408783 -1.265104 -9.964275
v 65.470787 -0.629116 -9.971497
v 65.446037 -1.265104 -9.914192
v 65.446037 -0.629116 -9.914192
v 63.014385 0.649319 -9.892159
v 63.059433 -1.264185 -9.918167
v 63.014385 -1.264185 -9.892159
v 63.059433 0.649319 -9.918167
v 63.059433 -1.264185 -9.866150
v 63.059433 0.649319 -9.866150
v 65.811310 0.649319 -9.892159
v 65.856354 -1.264185 -9.918167
v 65.811310 -1.264185 -9.892159
v 65.856354 0.649319 -9.918167
v 65.856354 -1.264185 -9.866151
v 65.856354 0.649319 -9.866151
v 65.840912 0.390146 -9.048930
v 65.840912 0.310515 -9.048930
v 63.041130 0.390146 -9.048930
v 63.041130 0.321641 -9.048930
v 65.840912 -0.435705 -9.048930
v 65.840912 -1.226358 -9.048930
v 63.041130 -0.435705 -9.048930
v 63.041130 -1.215232 -9.048930
v 65.851135 -1.226358 -9.873058
v 65.851135 -0.435705 -9.873058
v 65.851135 -0.435705 -9.063879
v 65.851135 -1.226358 -9.063879
v 63.048141 -0.435705 -9.873058
v 63.048141 -1.226358 -9.873058
v 63.048141 -0.435705 -9.063878
v 63.048141 -1.215232 -9.063878
v 32.238636 -0.243943 -9.880210
v 32.238636 -0.318637 -9.880210
v 32.238636 -0.243943 -9.008870
v 32.238636 -0.318637 -9.008870
v 35.108974 -0.318637 -9.008870
v 35.108974 -0.318637 -9.880210
v 35.108974 -0.243943 -9.008870
v 35.108974 -0.243943 -9.880210
v 32.388992 0.590223 -9.444167
v 32.388992 0.299464 -9.227324
v 32.388992 0.792693 -9.172681
v 32.388992 0.501934 -8.955837
v 34.904747 0.499234 -8.953824
v 34.904747 0.296764 -9.225310
v 34.904747 0.789993 -9.170668
v 34.904747 0.587523 -9.442154
v 32.239056 0.644248 -10.060724
v 32.239056 1.137498 -9.067945
v 32.239056 0.693289 -10.071223
v 32.239056 1.122987 -8.982127
v 32.239056 1.048941 -8.934606
v 32.239056 0.677063 -8.932770
v 32.239056 0.644248 -9.008027
v 35.108345 0.693289 -10.071223
v 35.108345 0.644248 -10.060725
v 35.108345 1.137498 -9.067945
v 35.108345 1.122987 -8.982128
v 35.108345 1.048941 -8.934606
v 35.108345 0.677063 -8.932770
v 35.108345 0.644248 -9.008027
v 32.245945 0.649319 -9.048951
v 32.290993 -1.264184 -9.074960
v 32.245945 -1.264184 -9.048951
v 32.290993 0.649319 -9.074960
v 32.290993 -1.264184 -9.022943
v 32.290993 0.649319 -9.022943
v 35.050232 0.649319 -9.048951
v 35.095280 -1.264184 -9.074960
v 35.050232 -1.264184 -9.048951
v 35.095280 0.649319 -9.074960
v 35.095280 -1.264184 -9.022943
v 35.095280 0.649319 -9.022943
v 35.072472 -0.380106 -9.048930
v 35.072472 -0.459737 -9.048930
v 32.272690 -0.380106 -9.048930
v 32.272690 -0.448611 -9.048930
v 35.072472 0.615410 -9.048930
v 35.072472 0.535778 -9.048930
v 32.272690 0.615410 -9.048930
v 32.272690 0.535778 -9.048930
v 35.082695 -0.459737 -9.873058
v 35.082695 -0.380106 -9.873058
v 35.082695 -0.380106 -9.063879
v 35.082695 -0.459737 -9.063879
v 32.279701 -0.380106 -9.873058
v 32.279701 -0.459737 -9.873058
v 32.279701 -0.380106 -9.063878
v 32.279701 -0.448611 -9.063878
v 33.647331 0.342100 -9.048930
v 33.647331 0.262468 -9.048930
v 32.272690 -0.199843 -9.048930
v 32.272690 -0.279474 -9.048930
v 35.067291 -0.201971 -9.048930
v 35.067291 -0.281602 -9.048930
v 33.652439 0.339949 -9.048930
v 33.652439 0.260318 -9.048930
v 34.109341 -0.233956 -9.753531
v 34.109341 -0.244136 -9.753531
v 34.109341 -0.208544 -9.539909
v 34.109341 -0.244136 -9.539909
v 34.774094 -0.247505 -9.539910
v 34.774094 -0.247505 -9.753531
v 34.774094 -0.211912 -9.539910
v 34.774094 -0.237324 -9.753531
v 32.638226 -0.233956 -9.709385
v 32.638226 -0.244136 -9.709385
v 32.638226 -0.208544 -9.495764
v 32.638226 -0.244136 -9.495764
v 33.302979 -0.247505 -9.495764
v 33.302979 -0.247505 -9.709385
v 33.302979 -0.211912 -9.495764
v 33.302979 -0.237324 -9.709385
v 35.072472 0.657995 -9.067658
v 35.072472 0.657995 -8.988028
v 32.272690 0.657995 -9.067658
v 32.272690 0.657995 -8.988028
v 35.072472 0.657995 -10.047717
v 35.072472 0.657995 -9.968085
v 32.272690 0.657995 -10.047716
v 32.272690 0.657995 -9.968085
v 33.632763 0.657995 -10.015859
v 33.712395 0.657995 -10.015859
v 33.632763 0.657995 -9.008624
v 33.712395 0.657995 -9.008624
v 35.043388 0.657995 -10.015860
v 35.123020 0.657995 -10.015860
v 35.043388 0.657995 -9.008625
v 35.123020 0.657995 -9.008625
v 32.272648 0.657995 -10.015859
v 32.352280 0.657995 -10.015859
v 32.272648 0.657995 -9.008624
v 32.352280 0.657995 -9.008624
v 32.915070 0.657995 -10.015859
v 32.994698 0.657995 -10.015859
v 32.915070 0.657995 -9.008624
v 32.994698 0.657995 -9.008624
v 34.373878 0.657995 -10.015859
v 34.453506 0.657995 -10.015859
v 34.373878 0.657995 -9.008625
v 34.453506 0.657995 -9.008625
v 32.641254 -0.587715 -9.959414
v 32.494259 -0.587715 -10.095279
v 32.433372 -0.587715 -9.959414
v 32.641254 -0.587715 -10.151556
v 32.788246 -0.587715 -10.095279
v 32.849133 -0.587715 -9.959414
v 32.788246 -0.587715 -9.823547
v 32.641254 -0.587715 -9.767270
v 32.494259 -0.587715 -9.823547
v 32.494259 -0.641326 -10.095279
v 32.433372 -0.641326 -9.959414
v 32.641254 -0.641326 -10.151556
v 32.788246 -0.641326 -10.095279
v 32.849133 -0.641326 -9.959414
v 32.788246 -0.641326 -9.823547
v 32.641254 -0.641326 -9.767270
v 32.494259 -0.641326 -9.823547
v 32.641254 -0.641326 -9.959414
v 32.613625 -0.619124 -9.949988
v 32.667683 -1.265104 -9.981198
v 32.613625 -1.265104 -9.949988
v 32.667683 -0.619124 -9.981198
v 32.667683 -1.265104 -9.918778
v 32.667683 -0.619124 -9.918778
v 34.026031 -0.576589 -9.959414
v 34.040974 -0.576589 -10.159021
v 33.896721 -0.576589 -10.122181
v 34.176476 -0.576589 -10.078934
v 34.223846 -0.576589 -9.928833
v 34.155338 -0.576589 -9.796646
v 34.011086 -0.576589 -9.759806
v 33.875584 -0.576589 -9.839892
v 33.828213 -0.576589 -9.989994
v 34.040974 -0.630200 -10.159021
v 33.896721 -0.630200 -10.122181
v 34.176476 -0.630200 -10.078934
v 34.223846 -0.630200 -9.928833
v 34.155338 -0.630200 -9.796646
v 34.011086 -0.630200 -9.759806
v 33.875584 -0.630200 -9.839892
v 33.828213 -0.630200 -9.989994
v 34.026031 -0.630200 -9.959414
v 34.012024 -0.607998 -9.978206
v 34.070084 -1.265104 -9.955294
v 34.012024 -1.265104 -9.978206
v 34.070084 -0.607998 -9.955294
v 34.021210 -1.265104 -9.916466
v 34.021210 -0.607998 -9.916466
v 33.283920 -0.617752 -9.959414
v 33.128441 -0.617752 -9.833349
v 33.254208 -0.617752 -9.753667
v 33.093750 -0.617752 -9.986877
v 33.170460 -0.617752 -10.124318
v 33.313633 -0.617752 -10.165159
v 33.439400 -0.617752 -10.085478
v 33.474091 -0.617752 -9.931949
v 33.397381 -0.617752 -9.794508
v 33.128441 -0.671363 -9.833349
v 33.254208 -0.671363 -9.753667
v 33.093750 -0.671363 -9.986877
v 33.170460 -0.671363 -10.124318
v 33.313633 -0.671363 -10.165159
v 33.439400 -0.671363 -10.085478
v 33.474091 -0.671363 -9.931949
v 33.397381 -0.671363 -9.794508
v 33.283920 -0.671363 -9.959414
v 33.287178 -0.649161 -9.914320
v 33.264015 -1.265104 -9.972283
v 33.287178 -1.265104 -9.914320
v 33.264015 -0.649161 -9.972283
v 33.325794 -1.265104 -9.963361
v 33.325794 -0.649161 -9.963361
v 34.665016 -0.597707 -9.959414
v 34.583931 -0.597707 -10.142422
v 34.474171 -0.597707 -10.041828
v 34.741192 -0.597707 -10.135812
v 34.853828 -0.597707 -10.025869
v 34.855862 -0.597707 -9.876999
v 34.746101 -0.597707 -9.776405
v 34.588840 -0.597707 -9.783015
v 34.476204 -0.597707 -9.892957
v 34.583931 -0.651318 -10.142422
v 34.474171 -0.651318 -10.041828
v 34.741192 -0.651318 -10.135812
v 34.853828 -0.651318 -10.025869
v 34.855862 -0.651318 -9.876999
v 34.746101 -0.651318 -9.776405
v 34.588840 -0.651318 -9.783015
v 34.476204 -0.651318 -9.892957
v 34.665016 -0.651318 -9.959414
v 34.640343 -0.629116 -9.964275
v 34.702343 -1.265104 -9.971497
v 34.640343 -1.265104 -9.964275
v 34.702343 -0.629116 -9.971497
v 34.677597 -1.265104 -9.914192
v 34.677597 -0.629116 -9.914192
v 32.245945 0.649319 -9.892159
v 32.290993 -1.264185 -9.918167
v 32.245945 -1.264185 -9.892159
v 32.290993 0.649319 -9.918167
v 32.290993 -1.264185 -9.866150
v 32.290993 0.649319 -9.866150
v 35.042866 0.649319 -9.892159
v 35.087914 -1.264185 -9.918167
v 35.042866 -1.264185 -9.892159
v 35.087914 0.649319 -9.918167
v 35.087914 -1.264185 -9.866150
v 35.087914 0.649319 -9.866150
v 35.072472 0.390146 -9.048930
v 35.072472 0.310515 -9.048930
v 32.272690 0.390146 -9.048930
v 32.272690 0.321641 -9.048930
v 35.072472 -0.435705 -9.048930
v 35.072472 -1.226358 -9.048930
v 32.272690 -0.435705 -9.048930
v 32.272690 -1.215232 -9.048930
v 35.082695 -1.226358 -9.873058
v 35.082695 -0.435705 -9.873058
v 35.082695 -0.435705 -9.063879
v 35.082695 -1.226358 -9.063878
v 32.279701 -0.435705 -9.873058
v 32.279701 -1.226358 -9.873058
v 32.279701 -0.435705 -9.063878
v 32.279701 -1.215232 -9.063878
vn -1.0000 -0.0000 -0.0000
vn 1.0000 -0.0000 -0.0000
vn -0.0000 -1.0000 -0.0000
vn -0.0000 -0.0000 1.0000
vn -0.0000 1.0000 -0.0000
vn -0.0000 -0.0000 -1.0000
vn 0.0013 0.8016 -0.5978
vn -0.0000 -0.5978 -0.8016
vn -1.0000 0.0005 -0.0000
vn -1.0000 0.0001 -0.0000
vn -1.0000 0.0003 -0.0000
vn -0.0000 -0.2093 -0.9778
vn -0.0000 0.9144 -0.4048
vn -0.0000 0.9144 -0.4049
vn -0.0000 0.9860 0.1667
vn -0.0000 0.5401 0.8416
vn -0.0000 0.0049 1.0000
vn -0.0000 -0.9166 0.3997
vn 1.0000 0.0004 -0.0000
vn 1.0000 0.0006 -0.0000
vn 1.0000 -0.0002 -0.0000
vn 1.0000 -0.0001 -0.0000
vn 1.0000 0.0001 -0.0000
vn -0.5000 -0.0000 -0.8660
vn -0.5001 -0.0000 -0.8660
vn -0.5000 -0.0000 0.8660
vn 0.0050 0.9930 -0.1181
vn -0.9125 -0.0000 -0.4090
vn -0.3576 -0.0000 -0.9339
vn 0.3576 -0.0000 -0.9339
vn 0.9125 -0.0000 -0.4090
vn 0.9125 -0.0000 0.4090
vn 0.3576 -0.0000 0.9339
vn 0.3575 -0.0000 0.9339
vn -0.3576 -0.0000 0.9339
vn -0.3575 -0.0000 0.9339
vn -0.9125 -0.0000 0.4090
vn -0.2474 -0.0000 -0.9689
vn 0.5088 -0.0000 -0.8609
vn 0.9536 -0.0000 -0.3010
vn 0.8878 -0.0000 0.4602
vn 0.2474 -0.0000 0.9689
vn -0.5088 -0.0000 0.8609
vn -0.9537 -0.0000 0.3009
vn -0.9536 -0.0000 0.3009
vn -0.8879 -0.0000 -0.4601
vn 0.3671 -0.0000 -0.9302
vn 0.6220 -0.0000 0.7830
vn 0.6221 -0.0000 0.7830
vn -0.9891 -0.0000 0.1472
vn -0.5352 -0.0000 0.8447
vn -0.5352 -0.0000 0.8448
vn -0.9754 -0.0000 0.2204
vn -0.8732 -0.0000 -0.4873
vn -0.2743 -0.0000 -0.9616
vn 0.5352 -0.0000 -0.8447
vn 0.9754 -0.0000 -0.2204
vn 0.9754 -0.0000 -0.2205
vn 0.8732 -0.0000 0.4874
vn 0.2743 -0.0000 0.9616
vn -0.9286 -0.0000 0.3711
vn 0.1429 -0.0000 -0.9897
vn 0.7856 -0.0000 0.6187
vn -0.6757 -0.0000 -0.7372
vn 0.0420 -0.0000 -0.9991
vn 0.6985 -0.0000 -0.7156
vn 0.9999 -0.0000 -0.0137
vn 0.6756 -0.0000 0.7373
vn -0.0420 -0.0000 0.9991
vn -0.6985 -0.0000 0.7156
vn -0.9999 -0.0000 0.0136
vn -0.1157 -0.0000 -0.9933
vn 0.9181 -0.0000 0.3963
vn -0.8023 -0.0000 0.5969
vn -0.5001 -0.0000 0.8660
vn -0.0013 -0.8016 0.5978
vn -0.0000 0.5978 0.8016
vn -1.0000 -0.0001 -0.0000
vn -0.9126 -0.0000 -0.4089
vn -0.3575 -0.0000 -0.9339
vn 0.3575 -0.0000 -0.9339
vn -0.9126 -0.0000 0.4089
vn 0.2475 -0.0000 0.9689
vn -0.9536 -0.0000 0.3010
vn 0.1430 -0.0000 -0.9897
vn 0.7857 -0.0000 0.6186
vn -0.6756 -0.0000 -0.7372
vn 0.9999 -0.0000 -0.0136
vn 0.6757 -0.0000 0.7372
vn -0.9999 -0.0000 0.0137
vn 0.9181 -0.0000 0.3964
vn -0.8024 -0.0000 0.5968
vn -0.4999 -0.0000 -0.8661
vn -1.0000 0.0002 -0.0000
vn 1.0000 -0.0003 -0.0000
vn -0.9126 -0.0000 -0.4090
vn 0.9126 -0.0000 -0.4090
vn 0.9126 -0.0000 -0.4089
vn 0.9126 -0.0000 0.4089
vn 0.8879 -0.0000 0.4601
vn -0.8732 -0.0000 -0.4874
vn 0.8732 -0.0000 0.4873
vn 0.6756 -0.0000 0.7372
vn 0.9180 -0.0000 0.3965
vn 0.8878 -0.0000 0.4601
vn -0.8878 -0.0000 -0.4601
vn 0.7857 -0.0000 0.6187
vt 0.674453 1.028554
vt 0.694403 1.028506
vt 0.674794 1.162817
vt 0.694744 1.162769
vt 0.000825 1.163020
vt 0.000886 1.026902
vt 0.021551 1.163020
vt 0.021409 1.026902
vt 0.698882 1.163704
vt 0.698882 1.002377
vt 0.998102 1.163704
vt 0.998102 1.002377
vt 0.159141 1.341989
vt 0.159141 1.314986
vt 0.454370 1.341989
vt 0.454370 1.314986
vt 0.674142 1.026654
vt 0.674142 1.163072
vt 0.021618 1.026654
vt 0.021618 1.163072
vt 0.674090 1.000460
vt 0.674090 1.026851
vt 0.021276 1.000460
vt 0.021276 1.026768
vt 0.666255 1.685000
vt 0.666304 1.491423
vt 0.998813 1.685000
vt 0.998713 1.491618
vt 0.970938 1.498645
vt 0.679018 1.498645
vt 0.970938 1.686846
vt 0.679018 1.686846
vt 0.655685 1.685000
vt 0.655685 1.721096
vt 0.003161 1.685000
vt 0.003161 1.721096
vt 0.661847 1.490778
vt 0.661847 1.685000
vt 0.001128 1.490778
vt 0.001128 1.685000
vt 0.994222 1.724950
vt 0.709730 1.997555
vt 0.994272 1.742054
vt 0.685138 1.989535
vt 0.671521 1.948611
vt 0.670996 1.743085
vt 0.692561 1.724949
vt 0.661124 1.724705
vt 0.003110 1.740000
vt 0.003110 1.724705
vt 0.661124 1.740000
vt 0.003110 1.988049
vt 0.661124 1.988049
vt 0.003110 1.994147
vt 0.661124 1.994147
vt 0.007703 1.994098
vt 0.664546 1.980000
vt 0.664546 1.994098
vt 0.007703 1.980000
vt 0.663127 1.740000
vt 0.006283 1.740000
vt 0.664546 1.729835
vt 0.007703 1.729835
vt 0.671520 1.948612
vt 0.670995 1.743085
vt 0.000499 1.458785
vt 1.989501 1.428251
vt 1.989501 1.458785
vt 0.000499 1.428251
vt 1.989501 1.454674
vt 0.000499 1.454674
vt 0.130000 1.418326
vt 0.130000 1.354918
vt 0.870000 1.418326
vt 0.870000 1.354918
vt 0.453220 1.177028
vt 0.480818 1.177044
vt 0.453220 1.285682
vt 0.480790 1.285650
vt 0.172421 1.285287
vt 0.172421 1.176908
vt 0.203211 1.285287
vt 0.203211 1.176908
vt 0.452904 1.177479
vt 0.452904 1.284000
vt 0.203576 1.177479
vt 0.203576 1.284000
vt 0.452998 1.166643
vt 0.452998 1.177479
vt 0.202806 1.166643
vt 0.202806 1.177479
vt 0.064068 1.224644
vt 0.128192 1.165391
vt 0.127599 1.224644
vt 0.064068 1.165374
vt 0.001000 1.165391
vt 0.001000 1.224644
vt 0.001000 1.283896
vt 0.064068 1.283914
vt 0.128192 1.283896
vt 0.128253 1.180227
vt 0.171367 1.195029
vt 0.171368 1.180227
vt 0.128253 1.195029
vt 0.171367 1.209832
vt 0.128253 1.209831
vt 0.171367 1.224634
vt 0.128253 1.224634
vt 0.171367 1.239437
vt 0.128252 1.239436
vt 0.171367 1.254239
vt 0.128252 1.254239
vt 0.171366 1.269042
vt 0.128252 1.269041
vt 0.171366 1.283844
vt 0.128252 1.283844
vt 0.128253 1.165424
vt 0.171368 1.165425
vt 0.341183 1.076571
vt 0.691183 1.085027
vt 0.691183 1.000000
vt 0.341183 1.000000
vt -0.000756 1.000000
vt -0.000389 1.082611
vt -0.000756 1.160000
vt 0.341183 1.160000
vt 0.691183 1.160000
vt 0.999501 1.428251
vt 0.999501 1.458785
vt 0.999501 1.454674
vt 0.697335 1.163294
vt 0.697335 1.003104
vt 0.997296 1.163294
vt 0.997296 1.003103
vt 0.004492 1.994184
vt 0.004492 1.733287
vt 0.666973 1.994184
vt 0.666973 1.733286
vt 0.665253 1.726319
vt 0.665253 1.998630
vt 0.987524 1.998629
vt 0.987524 1.726318
s 1
usemtl PITENTB
f 1/1/1 2/2/1 3/3/1
f 4/4/1 3/3/1 2/2/1
f 5/5/2 6/6/2 7/7/2
f 8/8/2 7/7/2 6/6/2
f 4/9/3 2/10/3 5/11/3
f 6/12/3 5/11/3 2/10/3
f 3/13/4 4/14/4 7/15/4
f 5/16/4 7/15/4 4/14/4
f 1/17/5 3/18/5 8/19/5
f 7/20/5 8/19/5 3/18/5
f 2/21/6 1/22/6 6/23/6
f 8/24/6 6/23/6 1/22/6
f 9/25/1 10/26/1 11/27/1
f 12/28/1 11/27/1 10/26/1
f 13/29/2 14/30/2 15/31/2
f 16/32/2 15/31/2 14/30/2
f 9/33/7 11/34/7 16/35/7
f 15/36/7 16/35/7 11/34/7
f 10/37/8 9/38/8 14/39/8
f 16/40/8 14/39/8 9/38/8
f 17/41/1 18/42/1 19/43/9
f 17/41/1 20/44/1 18/42/1
f 17/41/1 21/45/1 20/44/1
f 17/41/1 22/46/10 21/45/1
f 17/41/1 23/47/11 22/46/10
f 17/48/12 24/49/12 25/50/12
f 17/48/12 19/51/12 24/49/12
f 19/51/13 26/52/14 24/49/14
f 19/51/13 18/53/13 26/52/14
f 18/53/15 27/54/15 26/52/15
f 18/53/15 20/55/15 27/54/15
f 20/56/16 28/57/16 27/58/16
f 20/56/16 21/59/16 28/57/16
f 21/59/17 29/60/17 28/57/17
f 21/59/17 22/61/17 29/60/17
f 22/61/18 30/62/18 29/60/18
f 22/61/18 23/63/18 30/62/18
f 25/41/19 24/43/20 26/42/21
f 25/41/19 26/42/21 27/44/22
f 25/41/19 27/44/22 28/64/2
f 25/41/19 28/64/2 29/65/2
f 25/41/23 29/65/23 30/47/23
f 31/66/24 32/67/25 33/68/25
f 31/66/24 34/69/24 32/67/25
f 34/69/2 35/70/2 32/67/2
f 34/69/2 36/71/2 35/70/2
f 36/71/26 33/68/26 35/70/26
f 36/71/26 31/66/26 33/68/26
f 37/66/24 38/67/25 39/68/25
f 37/66/24 40/69/24 38/67/25
f 40/69/2 41/70/2 38/67/2
f 40/69/2 42/71/2 41/70/2
f 42/71/26 39/68/26 41/70/26
f 42/71/26 37/66/26 39/68/26
f 43/72/6 44/73/6 45/74/6
f 46/75/6 45/74/6 44/73/6
f 47/72/6 48/73/6 49/74/6
f 50/75/6 49/74/6 48/73/6
f 51/73/2 52/72/2 53/74/2
f 53/74/2 54/75/2 51/73/2
f 55/72/1 56/73/1 57/74/1
f 58/75/1 57/74/1 56/73/1
f 59/72/6 60/73/6 61/74/6
f 62/75/6 61/74/6 60/73/6
f 63/72/6 64/73/6 65/74/6
f 66/75/6 65/74/6 64/73/6
f 67/76/1 68/77/1 69/78/1
f 70/79/1 69/78/1 68/77/1
f 71/80/2 72/81/2 73/82/2
f 74/83/2 73/82/2 72/81/2
f 67/84/27 69/85/27 74/86/27
f 73/87/27 74/86/27 69/85/27
f 68/88/6 67/89/6 72/90/6
f 74/91/6 72/90/6 67/89/6
f 75/76/1 76/77/1 77/78/1
f 78/79/1 77/78/1 76/77/1
f 79/80/2 80/81/2 81/82/2
f 82/83/2 81/82/2 80/81/2
f 75/84/27 77/85/27 82/86/27
f 81/87/27 82/86/27 77/85/27
f 76/88/6 75/89/6 80/90/6
f 82/91/6 80/90/6 75/89/6
f 83/72/3 84/73/3 85/74/3
f 86/75/3 85/74/3 84/73/3
f 87/72/3 88/73/3 89/74/3
f 90/75/3 89/74/3 88/73/3
f 91/72/3 92/73/3 93/74/3
f 94/75/3 93/74/3 92/73/3
f 95/72/3 96/73/3 97/74/3
f 98/75/3 97/74/3 96/73/3
f 99/72/3 100/73/3 101/74/3
f 102/75/3 101/74/3 100/73/3
f 103/72/3 104/73/3 105/74/3
f 106/75/3 105/74/3 104/73/3
f 107/72/3 108/73/3 109/74/3
f 110/75/3 109/74/3 108/73/3
f 111/92/5 112/93/5 113/94/5
f 111/92/5 114/95/5 112/93/5
f 111/92/5 115/96/5 114/95/5
f 111/92/5 116/97/5 115/96/5
f 111/92/5 117/98/5 116/97/5
f 111/92/5 118/99/5 117/98/5
f 111/92/5 119/100/5 118/99/5
f 111/92/5 113/94/5 119/100/5
f 113/101/28 120/102/28 121/103/28
f 113/101/28 112/104/28 120/102/28
f 112/104/29 122/105/29 120/102/29
f 112/104/29 114/106/29 122/105/29
f 114/106/30 123/107/30 122/105/30
f 114/106/30 115/108/30 123/107/30
f 115/108/31 124/109/31 123/107/31
f 115/108/31 116/110/31 124/109/31
f 116/110/32 125/111/32 124/109/32
f 116/110/32 117/112/32 125/111/32
f 117/112/33 126/113/33 125/111/33
f 117/112/33 118/114/34 126/113/33
f 118/114/35 127/115/35 126/113/36
f 118/114/35 119/116/35 127/115/35
f 119/117/37 121/103/37 127/118/37
f 119/117/37 113/101/37 121/103/37
f 128/119/3 121/120/3 120/121/3
f 128/119/3 120/121/3 122/122/3
f 128/119/3 122/122/3 123/123/3
f 128/119/3 123/123/3 124/124/3
f 128/119/3 124/124/3 125/125/3
f 128/119/3 125/125/3 126/126/3
f 128/119/3 126/126/3 127/127/3
f 128/119/3 127/127/3 121/120/3
f 129/66/24 130/128/24 131/129/24
f 129/66/24 132/69/24 130/128/24
f 132/69/2 133/130/2 130/128/2
f 132/69/2 134/71/2 133/130/2
f 134/71/26 131/129/26 133/130/26
f 134/71/26 129/66/26 131/129/26
f 135/92/5 136/93/5 137/94/5
f 135/92/5 138/95/5 136/93/5
f 135/92/5 139/96/5 138/95/5
f 135/92/5 140/97/5 139/96/5
f 135/92/5 141/98/5 140/97/5
f 135/92/5 142/99/5 141/98/5
f 135/92/5 143/100/5 142/99/5
f 135/92/5 137/94/5 143/100/5
f 137/101/38 144/102/38 145/103/38
f 137/101/38 136/104/38 144/102/38
f 136/104/39 146/105/39 144/102/39
f 136/104/39 138/106/39 146/105/39
f 138/106/40 147/107/40 146/105/40
f 138/106/40 139/108/40 147/107/40
f 139/108/41 148/109/41 147/107/41
f 139/108/41 140/110/41 148/109/41
f 140/110/42 149/111/42 148/109/42
f 140/110/42 141/112/42 149/111/42
f 141/112/43 150/113/43 149/111/43
f 141/112/43 142/114/43 150/113/43
f 142/114/44 151/115/45 150/113/44
f 142/114/44 143/116/45 151/115/45
f 143/117/46 145/103/46 151/118/46
f 143/117/46 137/101/46 145/103/46
f 152/119/3 145/120/3 144/121/3
f 152/119/3 144/121/3 146/122/3
f 152/119/3 146/122/3 147/123/3
f 152/119/3 147/123/3 148/124/3
f 152/119/3 148/124/3 149/125/3
f 152/119/3 149/125/3 150/126/3
f 152/119/3 150/126/3 151/127/3
f 152/119/3 151/127/3 145/120/3
f 153/66/47 154/128/47 155/129/47
f 153/66/47 156/69/47 154/128/47
f 156/69/48 157/130/48 154/128/49
f 156/69/48 158/71/48 157/130/48
f 158/71/50 155/129/50 157/130/50
f 158/71/50 153/66/50 155/129/50
f 159/92/5 160/93/5 161/94/5
f 159/92/5 162/95/5 160/93/5
f 159/92/5 163/96/5 162/95/5
f 159/92/5 164/97/5 163/96/5
f 159/92/5 165/98/5 164/97/5
f 159/92/5 166/99/5 165/98/5
f 159/92/5 167/100/5 166/99/5
f 159/92/5 161/94/5 167/100/5
f 161/101/51 168/102/52 169/103/51
f 161/101/51 160/104/52 168/102/52
f 160/104/53 170/105/53 168/102/53
f 160/104/53 162/106/53 170/105/53
f 162/106/54 171/107/54 170/105/54
f 162/106/54 163/108/54 171/107/54
f 163/108/55 172/109/55 171/107/55
f 163/108/55 164/110/55 172/109/55
f 164/110/56 173/111/56 172/109/56
f 164/110/56 165/112/56 173/111/56
f 165/112/57 174/113/57 173/111/57
f 165/112/57 166/114/58 174/113/57
f 166/114/59 175/115/59 174/113/59
f 166/114/59 167/116/59 175/115/59
f 167/117/60 169/103/60 175/118/60
f 167/117/60 161/101/60 169/103/60
f 176/119/3 169/120/3 168/121/3
f 176/119/3 168/121/3 170/122/3
f 176/119/3 170/122/3 171/123/3
f 176/119/3 171/123/3 172/124/3
f 176/119/3 172/124/3 173/125/3
f 176/119/3 173/125/3 174/126/3
f 176/119/3 174/126/3 175/127/3
f 176/119/3 175/127/3 169/120/3
f 177/66/61 178/128/61 179/129/61
f 177/66/61 180/69/61 178/128/61
f 180/69/62 181/130/62 178/128/62
f 180/69/62 182/71/62 181/130/62
f 182/71/63 179/129/63 181/130/63
f 182/71/63 177/66/63 179/129/63
f 183/92/5 184/93/5 185/94/5
f 183/92/5 186/95/5 184/93/5
f 183/92/5 187/96/5 186/95/5
f 183/92/5 188/97/5 187/96/5
f 183/92/5 189/98/5 188/97/5
f 183/92/5 190/99/5 189/98/5
f 183/92/5 191/100/5 190/99/5
f 183/92/5 185/94/5 191/100/5
f 185/101/64 192/102/64 193/103/64
f 185/101/64 184/104/64 192/102/64
f 184/104/65 194/105/65 192/102/65
f 184/104/65 186/106/65 194/105/65
f 186/106/66 195/107/66 194/105/66
f 186/106/66 187/108/66 195/107/66
f 187/108/67 196/109/67 195/107/67
f 187/108/67 188/110/67 196/109/67
f 188/110/68 197/111/68 196/109/68
f 188/110/68 189/112/68 197/111/68
f 189/112/69 198/113/69 197/111/69
f 189/112/69 190/114/69 198/113/69
f 190/114/70 199/115/70 198/113/70
f 190/114/70 191/116/70 199/115/70
f 191/117/71 193/103/71 199/118/71
f 191/117/71 185/101/71 193/103/71
f 200/119/3 193/120/3 192/121/3
f 200/119/3 192/121/3 194/122/3
f 200/119/3 194/122/3 195/123/3
f 200/119/3 195/123/3 196/124/3
f 200/119/3 196/124/3 197/125/3
f 200/119/3 197/125/3 198/126/3
f 200/119/3 198/126/3 199/127/3
f 200/119/3 199/127/3 193/120/3
f 201/66/72 202/128/72 203/129/72
f 201/66/72 204/69/72 202/128/72
f 204/69/73 205/130/73 202/128/73
f 204/69/73 206/71/73 205/130/73
f 206/71/74 203/129/74 205/130/74
f 206/71/74 201/66/74 203/129/74
f 207/66/24 208/67/24 209/68/24
f 207/66/24 210/69/24 208/67/24
f 210/69/2 211/70/2 208/67/2
f 210/69/2 212/71/2 211/70/2
f 212/71/75 209/68/26 211/70/26
f 212/71/75 207/66/75 209/68/26
f 213/66/24 214/67/24 215/68/24
f 213/66/24 216/69/24 214/67/24
f 216/69/2 217/70/2 214/67/2
f 216/69/2 218/71/2 217/70/2
f 218/71/26 215/68/26 217/70/26
f 218/71/26 213/66/26 215/68/26
f 219/72/6 220/73/6 221/74/6
f 222/75/6 221/74/6 220/73/6
f 12/131/76 10/132/76 13/133/76
f 14/134/76 13/133/76 10/132/76
f 223/135/6 224/136/6 225/137/6
f 226/138/6 225/137/6 224/136/6
f 227/139/2 228/140/2 229/141/2
f 229/141/2 230/142/2 227/139/2
f 231/140/1 232/139/1 233/141/1
f 234/142/1 233/141/1 232/139/1
f 11/33/77 12/34/77 15/35/77
f 13/36/77 15/35/77 12/34/77
f 235/1/1 236/2/1 237/3/1
f 238/4/1 237/3/1 236/2/1
f 239/5/2 240/6/2 241/7/2
f 242/8/2 241/7/2 240/6/2
f 238/9/3 236/10/3 239/11/3
f 240/12/3 239/11/3 236/10/3
f 237/13/4 238/14/4 241/15/4
f 239/16/4 241/15/4 238/14/4
f 235/17/5 237/18/5 242/19/5
f 241/20/5 242/19/5 237/18/5
f 236/21/6 235/22/6 240/23/6
f 242/24/6 240/23/6 235/22/6
f 243/25/1 244/26/1 245/27/1
f 246/28/1 245/27/1 244/26/1
f 247/29/2 248/30/2 249/31/2
f 250/32/2 249/31/2 248/30/2
f 243/33/7 245/34/7 250/35/7
f 249/36/7 250/35/7 245/34/7
f 244/37/8 243/38/8 248/39/8
f 250/40/8 248/39/8 243/38/8
f 251/41/1 252/42/78 253/43/1
f 251/41/1 254/44/10 252/42/78
f 251/41/1 255/45/10 254/44/10
f 251/41/1 256/46/1 255/45/10
f 251/41/1 257/47/10 256/46/1
f 251/48/12 258/49/12 259/50/12
f 251/48/12 253/51/12 258/49/12
f 253/51/13 260/52/14 258/49/14
f 253/51/13 252/53/13 260/52/14
f 252/53/15 261/54/15 260/52/15
f 252/53/15 254/55/15 261/54/15
f 254/56/16 262/57/16 261/58/16
f 254/56/16 255/59/16 262/57/16
f 255/59/17 263/60/17 262/57/17
f 255/59/17 256/61/17 263/60/17
f 256/61/18 264/62/18 263/60/18
f 256/61/18 257/63/18 264/62/18
f 259/41/2 258/43/2 260/42/22
f 259/41/2 260/42/22 261/44/2
f 259/41/2 261/44/2 262/64/2
f 259/41/2 262/64/2 263/65/2
f 259/41/22 263/65/22 264/47/22
f 265/66/24 266/67/24 267/68/24
f 265/66/24 268/69/24 266/67/24
f 268/69/2 269/70/2 266/67/2
f 268/69/2 270/71/2 269/70/2
f 270/71/26 267/68/26 269/70/26
f 270/71/26 265/66/26 267/68/26
f 271/66/24 272/67/25 273/68/25
f 271/66/24 274/69/24 272/67/25
f 274/69/2 275/70/2 272/67/2
f 274/69/2 276/71/2 275/70/2
f 276/71/26 273/68/26 275/70/26
f 276/71/26 271/66/26 273/68/26
f 277/72/6 278/73/6 279/74/6
f 280/75/6 279/74/6 278/73/6
f 281/72/6 282/73/6 283/74/6
f 284/75/6 283/74/6 282/73/6
f 285/73/2 286/72/2 287/74/2
f 287/74/2 288/75/2 285/73/2
f 289/72/1 290/73/1 291/74/1
f 292/75/1 291/74/1 290/73/1
f 293/72/6 294/73/6 295/74/6
f 296/75/6 295/74/6 294/73/6
f 297/72/6 298/73/6 299/74/6
f 300/75/6 299/74/6 298/73/6
f 301/76/1 302/77/1 303/78/1
f 304/79/1 303/78/1 302/77/1
f 305/80/2 306/81/2 307/82/2
f 308/83/2 307/82/2 306/81/2
f 301/84/27 303/85/27 308/86/27
f 307/87/27 308/86/27 303/85/27
f 302/88/6 301/89/6 306/90/6
f 308/91/6 306/90/6 301/89/6
f 309/76/1 310/77/1 311/78/1
f 312/79/1 311/78/1 310/77/1
f 313/80/2 314/81/2 315/82/2
f 316/83/2 315/82/2 314/81/2
f 309/84/27 311/85/27 316/86/27
f 315/87/27 316/86/27 311/85/27
f 310/88/6 309/89/6 314/90/6
f 316/91/6 314/90/6 309/89/6
f 317/72/3 318/73/3 319/74/3
f 320/75/3 319/74/3 318/73/3
f 321/72/3 322/73/3 323/74/3
f 324/75/3 323/74/3 322/73/3
f 325/72/3 326/73/3 327/74/3
f 328/75/3 327/74/3 326/73/3
f 329/72/3 330/73/3 331/74/3
f 332/75/3 331/74/3 330/73/3
f 333/72/3 334/73/3 335/74/3
f 336/75/3 335/74/3 334/73/3
f 337/72/3 338/73/3 339/74/3
f 340/75/3 339/74/3 338/73/3
f 341/72/3 342/73/3 343/74/3
f 344/75/3 343/74/3 342/73/3
f 345/92/5 346/93/5 347/94/5
f 345/92/5 348/95/5 346/93/5
f 345/92/5 349/96/5 348/95/5
f 345/92/5 350/97/5 349/96/5
f 345/92/5 351/98/5 350/97/5
f 345/92/5 352/99/5 351/98/5
f 345/92/5 353/100/5 352/99/5
f 345/92/5 347/94/5 353/100/5
f 347/101/79 354/102/79 355/103/79
f 347/101/79 346/104/79 354/102/79
f 346/104/80 356/105/80 354/102/80
f 346/104/80 348/106/29 356/105/80
f 348/106/81 357/107/81 356/105/30
f 348/106/81 349/108/81 357/107/81
f 349/108/31 358/109/31 357/107/31
f 349/108/31 350/110/31 358/109/31
f 350/110/32 359/111/32 358/109/32
f 350/110/32 351/112/32 359/111/32
f 351/112/34 360/113/34 359/111/33
f 351/112/34 352/114/34 360/113/34
f 352/114/36 361/115/36 360/113/36
f 352/114/36 353/116/35 361/115/36
f 353/117/82 355/103/82 361/118/82
f 353/117/82 347/101/82 355/103/82
f 362/119/3 355/120/3 354/121/3
f 362/119/3 354/121/3 356/122/3
f 362/119/3 356/122/3 357/123/3
f 362/119/3 357/123/3 358/124/3
f 362/119/3 358/124/3 359/125/3
f 362/119/3 359/125/3 360/126/3
f 362/119/3 360/126/3 361/127/3
f 362/119/3 361/127/3 355/120/3
f 363/66/24 364/128/24 365/129/24
f 363/66/24 366/69/24 364/128/24
f 366/69/2 367/130/2 364/128/2
f 366/69/2 368/71/2 367/130/2
f 368/71/26 365/129/26 367/130/26
f 368/71/26 363/66/26 365/129/26
f 369/92/5 370/93/5 371/94/5
f 369/92/5 372/95/5 370/93/5
f 369/92/5 373/96/5 372/95/5
f 369/92/5 374/97/5 373/96/5
f 369/92/5 375/98/5 374/97/5
f 369/92/5 376/99/5 375/98/5
f 369/92/5 377/100/5 376/99/5
f 369/92/5 371/94/5 377/100/5
f 371/101/38 378/102/38 379/103/38
f 371/101/38 370/104/38 378/102/38
f 370/104/39 380/105/39 378/102/39
f 370/104/39 372/106/39 380/105/39
f 372/106/40 381/107/40 380/105/40
f 372/106/40 373/108/40 381/107/40
f 373/108/41 382/109/41 381/107/41
f 373/108/41 374/110/41 382/109/41
f 374/110/83 383/111/83 382/109/83
f 374/110/83 375/112/83 383/111/83
f 375/112/43 384/113/43 383/111/43
f 375/112/43 376/114/43 384/113/43
f 376/114/84 385/115/84 384/113/84
f 376/114/84 377/116/84 385/115/84
f 377/117/46 379/103/46 385/118/46
f 377/117/46 371/101/46 379/103/46
f 386/119/3 379/120/3 378/121/3
f 386/119/3 378/121/3 380/122/3
f 386/119/3 380/122/3 381/123/3
f 386/119/3 381/123/3 382/124/3
f 386/119/3 382/124/3 383/125/3
f 386/119/3 383/125/3 384/126/3
f 386/119/3 384/126/3 385/127/3
f 386/119/3 385/127/3 379/120/3
f 387/66/47 388/128/47 389/129/47
f 387/66/47 390/69/47 388/128/47
f 390/69/48 391/130/48 388/128/49
f 390/69/48 392/71/48 391/130/48
f 392/71/50 389/129/50 391/130/50
f 392/71/50 387/66/50 389/129/50
f 393/92/5 394/93/5 395/94/5
f 393/92/5 396/95/5 394/93/5
f 393/92/5 397/96/5 396/95/5
f 393/92/5 398/97/5 397/96/5
f 393/92/5 399/98/5 398/97/5
f 393/92/5 400/99/5 399/98/5
f 393/92/5 401/100/5 400/99/5
f 393/92/5 395/94/5 401/100/5
f 395/101/51 402/102/51 403/103/51
f 395/101/51 394/104/51 402/102/51
f 394/104/53 404/105/53 402/102/53
f 394/104/53 396/106/53 404/105/53
f 396/106/54 405/107/54 404/105/54
f 396/106/54 397/108/54 405/107/54
f 397/108/55 406/109/55 405/107/55
f 397/108/55 398/110/55 406/109/55
f 398/110/56 407/111/56 406/109/56
f 398/110/56 399/112/56 407/111/56
f 399/112/57 408/113/57 407/111/57
f 399/112/57 400/114/57 408/113/57
f 400/114/59 409/115/59 408/113/59
f 400/114/59 401/116/59 409/115/59
f 401/117/60 403/103/60 409/118/60
f 401/117/60 395/101/60 403/103/60
f 410/119/3 403/120/3 402/121/3
f 410/119/3 402/121/3 404/122/3
f 410/119/3 404/122/3 405/123/3
f 410/119/3 405/123/3 406/124/3
f 410/119/3 406/124/3 407/125/3
f 410/119/3 407/125/3 408/126/3
f 410/119/3 408/126/3 409/127/3
f 410/119/3 409/127/3 403/120/3
f 411/66/61 412/128/61 413/129/61
f 411/66/61 414/69/61 412/128/61
f 414/69/85 415/130/85 412/128/85
f 414/69/85 416/71/85 415/130/85
f 416/71/86 413/129/86 415/130/86
f 416/71/86 411/66/86 413/129/86
f 417/92/5 418/93/5 419/94/5
f 417/92/5 420/95/5 418/93/5
f 417/92/5 421/96/5 420/95/5
f 417/92/5 422/97/5 421/96/5
f 417/92/5 423/98/5 422/97/5
f 417/92/5 424/99/5 423/98/5
f 417/92/5 425/100/5 424/99/5
f 417/92/5 419/94/5 425/100/5
f 419/101/87 426/102/87 427/103/87
f 419/101/87 418/104/87 426/102/87
f 418/104/65 428/105/65 426/102/65
f 418/104/65 420/106/65 428/105/65
f 420/106/66 429/107/66 428/105/66
f 420/106/66 421/108/66 429/107/66
f 421/108/88 430/109/88 429/107/88
f 421/108/88 422/110/88 430/109/88
f 422/110/89 431/111/89 430/109/89
f 422/110/89 423/112/89 431/111/89
f 423/112/69 432/113/69 431/111/69
f 423/112/69 424/114/69 432/113/69
f 424/114/70 433/115/70 432/113/70
f 424/114/70 425/116/70 433/115/70
f 425/117/90 427/103/90 433/118/90
f 425/117/90 419/101/90 427/103/90
f 434/119/3 427/120/3 426/121/3
f 434/119/3 426/121/3 428/122/3
f 434/119/3 428/122/3 429/123/3
f 434/119/3 429/123/3 430/124/3
f 434/119/3 430/124/3 431/125/3
f 434/119/3 431/125/3 432/126/3
f 434/119/3 432/126/3 433/127/3
f 434/119/3 433/127/3 427/120/3
f 435/66/72 436/128/72 437/129/72
f 435/66/72 438/69/72 436/128/72
f 438/69/91 439/130/91 436/128/91
f 438/69/91 440/71/91 439/130/91
f 440/71/92 437/129/92 439/130/92
f 440/71/92 435/66/92 437/129/92
f 441/66/93 442/67/24 443/68/24
f 441/66/93 444/69/93 442/67/24
f 444/69/2 445/70/2 442/67/2
f 444/69/2 446/71/2 445/70/2
f 446/71/26 443/68/26 445/70/26
f 446/71/26 441/66/26 443/68/26
f 447/66/24 448/67/24 449/68/24
f 447/66/24 450/69/24 448/67/24
f 450/69/2 451/70/2 448/67/2
f 450/69/2 452/71/2 451/70/2
f 452/71/26 449/68/26 451/70/26
f 452/71/26 447/66/26 449/68/26
f 453/72/6 454/73/6 455/74/6
f 456/75/6 455/74/6 454/73/6
f 246/131/76 244/132/76 247/133/76
f 248/134/76 247/133/76 244/132/76
f 457/135/6 458/136/6 459/137/6
f 460/138/6 459/137/6 458/136/6
f 461/139/2 462/140/2 463/141/2
f 463/141/2 464/142/2 461/139/2
f 465/140/1 466/139/1 467/141/1
f 468/142/1 467/141/1 466/139/1
f 245/33/77 246/34/77 249/35/77
f 247/36/77 249/35/77 246/34/77
f 469/1/1 470/2/1 471/3/1
f 472/4/1 471/3/1 470/2/1
f 473/5/2 474/6/2 475/7/2
f 476/8/2 475/7/2 474/6/2
f 472/9/3 470/10/3 473/11/3
f 474/12/3 473/11/3 470/10/3
f 471/13/4 472/14/4 475/15/4
f 473/16/4 475/15/4 472/14/4
f 469/17/5 471/18/5 476/19/5
f 475/20/5 476/19/5 471/18/5
f 470/21/6 469/22/6 474/23/6
f 476/24/6 474/23/6 469/22/6
f 477/25/1 478/26/1 479/27/1
f 480/28/1 479/27/1 478/26/1
f 481/29/2 482/30/2 483/31/2
f 484/32/2 483/31/2 482/30/2
f 477/33/7 479/34/7 484/35/7
f 483/36/7 484/35/7 479/34/7
f 478/37/8 477/38/8 482/39/8
f 484/40/8 482/39/8 477/38/8
f 485/41/1 486/42/94 487/43/1
f 485/41/1 488/44/1 486/42/94
f 485/41/1 489/45/1 488/44/1
f 485/41/1 490/46/1 489/45/1
f 485/41/1 491/47/10 490/46/1
f 485/48/12 492/49/12 493/50/12
f 485/48/12 487/51/12 492/49/12
f 487/51/14 494/52/13 492/49/13
f 487/51/14 486/53/14 494/52/13
f 486/53/15 495/54/15 494/52/15
f 486/53/15 488/55/15 495/54/15
f 488/56/16 496/57/16 495/58/16
f 488/56/16 489/59/16 496/57/16
f 489/59/17 497/60/17 496/57/17
f 489/59/17 490/61/17 497/60/17
f 490/61/18 498/62/18 497/60/18
f 490/61/18 491/63/18 498/62/18
f 493/41/23 492/43/95 494/42/22
f 493/41/23 494/42/22 495/44/23
f 493/41/23 495/44/23 496/64/2
f 493/41/23 496/64/2 497/65/2
f 493/41/22 497/65/22 498/47/22
f 499/66/24 500/67/25 501/68/25
f 499/66/24 502/69/24 500/67/25
f 502/69/2 503/70/2 500/67/2
f 502/69/2 504/71/2 503/70/2
f 504/71/26 501/68/26 503/70/26
f 504/71/26 499/66/26 501/68/26
f 505/66/24 506/67/24 507/68/24
f 505/66/24 508/69/24 506/67/24
f 508/69/2 509/70/2 506/67/2
f 508/69/2 510/71/2 509/70/2
f 510/71/26 507/68/26 509/70/26
f 510/71/26 505/66/26 507/68/26
f 511/72/6 512/73/6 513/74/6
f 514/75/6 513/74/6 512/73/6
f 515/72/6 516/73/6 517/74/6
f 518/75/6 517/74/6 516/73/6
f 519/73/2 520/72/2 521/74/2
f 521/74/2 522/75/2 519/73/2
f 523/72/1 524/73/1 525/74/1
f 526/75/1 525/74/1 524/73/1
f 527/72/6 528/73/6 529/74/6
f 530/75/6 529/74/6 528/73/6
f 531/72/6 532/73/6 533/74/6
f 534/75/6 533/74/6 532/73/6
f 535/76/1 536/77/1 537/78/1
f 538/79/1 537/78/1 536/77/1
f 539/80/2 540/81/2 541/82/2
f 542/83/2 541/82/2 540/81/2
f 535/84/27 537/85/27 542/86/27
f 541/87/27 542/86/27 537/85/27
f 536/88/6 535/89/6 540/90/6
f 542/91/6 540/90/6 535/89/6
f 543/76/1 544/77/1 545/78/1
f 546/79/1 545/78/1 544/77/1
f 547/80/2 548/81/2 549/82/2
f 550/83/2 549/82/2 548/81/2
f 543/84/27 545/85/27 550/86/27
f 549/87/27 550/86/27 545/85/27
f 544/88/6 543/89/6 548/90/6
f 550/91/6 548/90/6 543/89/6
f 551/72/3 552/73/3 553/74/3
f 554/75/3 553/74/3 552/73/3
f 555/72/3 556/73/3 557/74/3
f 558/75/3 557/74/3 556/73/3
f 559/72/3 560/73/3 561/74/3
f 562/75/3 561/74/3 560/73/3
f 563/72/3 564/73/3 565/74/3
f 566/75/3 565/74/3 564/73/3
f 567/72/3 568/73/3 569/74/3
f 570/75/3 569/74/3 568/73/3
f 571/72/3 572/73/3 573/74/3
f 574/75/3 573/74/3 572/73/3
f 575/72/3 576/73/3 577/74/3
f 578/75/3 577/74/3 576/73/3
f 579/92/5 580/93/5 581/94/5
f 579/92/5 582/95/5 580/93/5
f 579/92/5 583/96/5 582/95/5
f 579/92/5 584/97/5 583/96/5
f 579/92/5 585/98/5 584/97/5
f 579/92/5 586/99/5 585/98/5
f 579/92/5 587/100/5 586/99/5
f 579/92/5 581/94/5 587/100/5
f 581/101/96 588/102/96 589/103/96
f 581/101/96 580/104/79 588/102/96
f 580/104/80 590/105/29 588/102/80
f 580/104/80 582/106/29 590/105/29
f 582/106/81 591/107/81 590/105/30
f 582/106/81 583/108/81 591/107/81
f 583/108/97 592/109/97 591/107/98
f 583/108/97 584/110/97 592/109/97
f 584/110/99 593/111/99 592/109/99
f 584/110/99 585/112/99 593/111/99
f 585/112/34 594/113/34 593/111/33
f 585/112/34 586/114/34 594/113/34
f 586/114/36 595/115/35 594/113/36
f 586/114/36 587/116/35 595/115/35
f 587/117/82 589/103/82 595/118/82
f 587/117/82 581/101/82 589/103/82
f 596/119/3 589/120/3 588/121/3
f 596/119/3 588/121/3 590/122/3
f 596/119/3 590/122/3 591/123/3
f 596/119/3 591/123/3 592/124/3
f 596/119/3 592/124/3 593/125/3
f 596/119/3 593/125/3 594/126/3
f 596/119/3 594/126/3 595/127/3
f 596/119/3 595/127/3 589/120/3
f 597/66/24 598/128/24 599/129/24
f 597/66/24 600/69/24 598/128/24
f 600/69/2 601/130/2 598/128/2
f 600/69/2 602/71/2 601/130/2
f 602/71/26 599/129/26 601/130/26
f 602/71/26 597/66/26 599/129/26
f 603/92/5 604/93/5 605/94/5
f 603/92/5 606/95/5 604/93/5
f 603/92/5 607/96/5 606/95/5
f 603/92/5 608/97/5 607/96/5
f 603/92/5 609/98/5 608/97/5
f 603/92/5 610/99/5 609/98/5
f 603/92/5 611/100/5 610/99/5
f 603/92/5 605/94/5 611/100/5
f 605/101/38 612/102/38 613/103/38
f 605/101/38 604/104/38 612/102/38
f 604/104/39 614/105/39 612/102/39
f 604/104/39 606/106/39 614/105/39
f 606/106/40 615/107/40 614/105/40
f 606/106/40 607/108/40 615/107/40
f 607/108/100 616/109/100 615/107/100
f 607/108/100 608/110/100 616/109/100
f 608/110/42 617/111/42 616/109/42
f 608/110/42 609/112/42 617/111/42
f 609/112/43 618/113/43 617/111/43
f 609/112/43 610/114/43 618/113/43
f 610/114/84 619/115/84 618/113/84
f 610/114/84 611/116/84 619/115/84
f 611/117/46 613/103/46 619/118/46
f 611/117/46 605/101/46 613/103/46
f 620/119/3 613/120/3 612/121/3
f 620/119/3 612/121/3 614/122/3
f 620/119/3 614/122/3 615/123/3
f 620/119/3 615/123/3 616/124/3
f 620/119/3 616/124/3 617/125/3
f 620/119/3 617/125/3 618/126/3
f 620/119/3 618/126/3 619/127/3
f 620/119/3 619/127/3 613/120/3
f 621/66/47 622/128/47 623/129/47
f 621/66/47 624/69/47 622/128/47
f 624/69/48 625/130/48 622/128/49
f 624/69/48 626/71/48 625/130/48
f 626/71/50 623/129/50 625/130/50
f 626/71/50 621/66/50 623/129/50
f 627/92/5 628/93/5 629/94/5
f 627/92/5 630/95/5 628/93/5
f 627/92/5 631/96/5 630/95/5
f 627/92/5 632/97/5 631/96/5
f 627/92/5 633/98/5 632/97/5
f 627/92/5 634/99/5 633/98/5
f 627/92/5 635/100/5 634/99/5
f 627/92/5 629/94/5 635/100/5
f 629/101/51 636/102/51 637/103/51
f 629/101/51 628/104/51 636/102/51
f 628/104/53 638/105/53 636/102/53
f 628/104/53 630/106/53 638/105/53
f 630/106/101 639/107/101 638/105/101
f 630/106/101 631/108/101 639/107/101
f 631/108/55 640/109/55 639/107/55
f 631/108/55 632/110/55 640/109/55
f 632/110/56 641/111/56 640/109/56
f 632/110/56 633/112/56 641/111/56
f 633/112/57 642/113/57 641/111/57
f 633/112/57 634/114/57 642/113/57
f 634/114/102 643/115/102 642/113/102
f 634/114/102 635/116/102 643/115/102
f 635/117/60 637/103/60 643/118/60
f 635/117/60 629/101/60 637/103/60
f 644/119/3 637/120/3 636/121/3
f 644/119/3 636/121/3 638/122/3
f 644/119/3 638/122/3 639/123/3
f 644/119/3 639/123/3 640/124/3
f 644/119/3 640/124/3 641/125/3
f 644/119/3 641/125/3 642/126/3
f 644/119/3 642/126/3 643/127/3
f 644/119/3 643/127/3 637/120/3
f 645/66/61 646/128/61 647/129/61
f 645/66/61 648/69/61 646/128/61
f 648/69/62 649/130/62 646/128/62
f 648/69/62 650/71/62 649/130/62
f 650/71/63 647/129/63 649/130/63
f 650/71/63 645/66/63 647/129/63
f 651/92/5 652/93/5 653/94/5
f 651/92/5 654/95/5 652/93/5
f 651/92/5 655/96/5 654/95/5
f 651/92/5 656/97/5 655/96/5
f 651/92/5 657/98/5 656/97/5
f 651/92/5 658/99/5 657/98/5
f 651/92/5 659/100/5 658/99/5
f 651/92/5 653/94/5 659/100/5
f 653/101/64 660/102/64 661/103/64
f 653/101/64 652/104/64 660/102/64
f 652/104/65 662/105/65 660/102/65
f 652/104/65 654/106/65 662/105/65
f 654/106/66 663/107/66 662/105/66
f 654/106/66 655/108/66 663/107/66
f 655/108/67 664/109/67 663/107/67
f 655/108/67 656/110/67 664/109/67
f 656/110/103 665/111/103 664/109/103
f 656/110/103 657/112/103 665/111/103
f 657/112/69 666/113/69 665/111/69
f 657/112/69 658/114/69 666/113/69
f 658/114/70 667/115/70 666/113/70
f 658/114/70 659/116/70 667/115/70
f 659/117/71 661/103/71 667/118/71
f 659/117/71 653/101/71 661/103/71
f 668/119/3 661/120/3 660/121/3
f 668/119/3 660/121/3 662/122/3
f 668/119/3 662/122/3 663/123/3
f 668/119/3 663/123/3 664/124/3
f 668/119/3 664/124/3 665/125/3
f 668/119/3 665/125/3 666/126/3
f 668/119/3 666/126/3 667/127/3
f 668/119/3 667/127/3 661/120/3
f 669/66/72 670/128/72 671/129/72
f 669/66/72 672/69/72 670/128/72
f 672/69/104 673/130/104 670/128/104
f 672/69/104 674/71/104 673/130/104
f 674/71/92 671/129/92 673/130/92
f 674/71/92 669/66/92 671/129/92
f 675/66/24 676/67/24 677/68/24
f 675/66/24 678/69/24 676/67/24
f 678/69/2 679/70/2 676/67/2
f 678/69/2 680/71/2 679/70/2
f 680/71/26 677/68/26 679/70/26
f 680/71/26 675/66/26 677/68/26
f 681/66/24 682/67/24 683/68/24
f 681/66/24 684/69/24 682/67/24
f 684/69/2 685/70/2 682/67/2
f 684/69/2 686/71/2 685/70/2
f 686/71/26 683/68/26 685/70/26
f 686/71/26 681/66/26 683/68/26
f 687/72/6 688/73/6 689/74/6
f 690/75/6 689/74/6 688/73/6
f 480/131/76 478/132/76 481/133/76
f 482/134/76 481/133/76 478/132/76
f 691/135/6 692/136/6 693/137/6
f 694/138/6 693/137/6 692/136/6
f 695/139/2 696/140/2 697/141/2
f 697/141/2 698/142/2 695/139/2
f 699/140/1 700/139/1 701/141/1
f 702/142/1 701/141/1 700/139/1
f 479/33/77 480/34/77 483/35/77
f 481/36/77 483/35/77 480/34/77
f 703/1/1 704/2/1 705/3/1
f 706/4/1 705/3/1 704/2/1
f 707/5/2 708/6/2 709/7/2
f 710/8/2 709/7/2 708/6/2
f 706/9/3 704/10/3 707/11/3
f 708/12/3 707/11/3 704/10/3
f 705/13/4 706/14/4 709/15/4
f 707/16/4 709/15/4 706/14/4
f 703/17/5 705/18/5 710/19/5
f 709/20/5 710/19/5 705/18/5
f 704/21/6 703/22/6 708/23/6
f 710/24/6 708/23/6 703/22/6
f 711/25/1 712/26/1 713/27/1
f 714/28/1 713/27/1 712/26/1
f 715/29/2 716/30/2 717/31/2
f 718/32/2 717/31/2 716/30/2
f 711/33/7 713/34/7 718/35/7
f 717/36/7 718/35/7 713/34/7
f 712/37/8 711/38/8 716/39/8
f 718/40/8 716/39/8 711/38/8
f 719/41/78 720/42/10 721/43/78
f 719/41/78 722/44/1 720/42/10
f 719/41/78 723/45/1 722/44/1
f 719/41/78 724/46/1 723/45/1
f 719/41/78 725/47/94 724/46/1
f 719/48/12 726/49/12 727/50/12
f 719/48/12 721/51/12 726/49/12
f 721/51/13 728/52/13 726/49/13
f 721/51/13 720/53/13 728/52/13
f 720/53/15 729/54/15 728/52/15
f 720/53/15 722/55/15 729/54/15
f 722/56/16 730/57/16 729/58/16
f 722/56/16 723/59/16 730/57/16
f 723/59/17 731/60/17 730/57/17
f 723/59/17 724/61/17 731/60/17
f 724/61/18 732/62/18 731/60/18
f 724/61/18 725/63/18 732/62/18
f 727/41/22 726/43/22 728/42/23
f 727/41/22 728/42/23 729/44/2
f 727/41/22 729/44/2 730/64/2
f 727/41/22 730/64/2 731/65/2
f 727/41/2 731/65/2 732/47/2
f 733/66/24 734/67/24 735/68/24
f 733/66/24 736/69/24 734/67/24
f 736/69/2 737/70/2 734/67/2
f 736/69/2 738/71/2 737/70/2
f 738/71/26 735/68/26 737/70/26
f 738/71/26 733/66/26 735/68/26
f 739/66/24 740/67/24 741/68/24
f 739/66/24 742/69/24 740/67/24
f 742/69/2 743/70/2 740/67/2
f 742/69/2 744/71/2 743/70/2
f 744/71/26 741/68/26 743/70/26
f 744/71/26 739/66/26 741/68/26
f 745/72/6 746/73/6 747/74/6
f 748/75/6 747/74/6 746/73/6
f 749/72/6 750/73/6 751/74/6
f 752/75/6 751/74/6 750/73/6
f 753/73/2 754/72/2 755/74/2
f 755/74/2 756/75/2 753/73/2
f 757/72/1 758/73/1 759/74/1
f 760/75/1 759/74/1 758/73/1
f 761/72/6 762/73/6 763/74/6
f 764/75/6 763/74/6 762/73/6
f 765/72/6 766/73/6 767/74/6
f 768/75/6 767/74/6 766/73/6
f 769/76/1 770/77/1 771/78/1
f 772/79/1 771/78/1 770/77/1
f 773/80/2 774/81/2 775/82/2
f 776/83/2 775/82/2 774/81/2
f 769/84/27 771/85/27 776/86/27
f 775/87/27 776/86/27 771/85/27
f 770/88/6 769/89/6 774/90/6
f 776/91/6 774/90/6 769/89/6
f 777/76/1 778/77/1 779/78/1
f 780/79/1 779/78/1 778/77/1
f 781/80/2 782/81/2 783/82/2
f 784/83/2 783/82/2 782/81/2
f 777/84/27 779/85/27 784/86/27
f 783/87/27 784/86/27 779/85/27
f 778/88/6 777/89/6 782/90/6
f 784/91/6 782/90/6 777/89/6
f 785/72/3 786/73/3 787/74/3
f 788/75/3 787/74/3 786/73/3
f 789/72/3 790/73/3 791/74/3
f 792/75/3 791/74/3 790/73/3
f 793/72/3 794/73/3 795/74/3
f 796/75/3 795/74/3 794/73/3
f 797/72/3 798/73/3 799/74/3
f 800/75/3 799/74/3 798/73/3
f 801/72/3 802/73/3 803/74/3
f 804/75/3 803/74/3 802/73/3
f 805/72/3 806/73/3 807/74/3
f 808/75/3 807/74/3 806/73/3
f 809/72/3 810/73/3 811/74/3
f 812/75/3 811/74/3 810/73/3
f 813/92/5 814/93/5 815/94/5
f 813/92/5 816/95/5 814/93/5
f 813/92/5 817/96/5 816/95/5
f 813/92/5 818/97/5 817/96/5
f 813/92/5 819/98/5 818/97/5
f 813/92/5 820/99/5 819/98/5
f 813/92/5 821/100/5 820/99/5
f 813/92/5 815/94/5 821/100/5
f 815/101/96 822/102/96 823/103/96
f 815/101/96 814/104/79 822/102/96
f 814/104/80 824/105/80 822/102/80
f 814/104/80 816/106/29 824/105/80
f 816/106/30 825/107/81 824/105/30
f 816/106/30 817/108/81 825/107/81
f 817/108/97 826/109/97 825/107/98
f 817/108/97 818/110/97 826/109/97
f 818/110/99 827/111/99 826/109/99
f 818/110/99 819/112/99 827/111/99
f 819/112/33 828/113/34 827/111/33
f 819/112/33 820/114/34 828/113/34
f 820/114/36 829/115/36 828/113/36
f 820/114/36 821/116/35 829/115/36
f 821/117/82 823/103/82 829/118/82
f 821/117/82 815/101/82 823/103/82
f 830/119/3 823/120/3 822/121/3
f 830/119/3 822/121/3 824/122/3
f 830/119/3 824/122/3 825/123/3
f 830/119/3 825/123/3 826/124/3
f 830/119/3 826/124/3 827/125/3
f 830/119/3 827/125/3 828/126/3
f 830/119/3 828/126/3 829/127/3
f 830/119/3 829/127/3 823/120/3
f 831/66/24 832/128/24 833/129/24
f 831/66/24 834/69/24 832/128/24
f 834/69/2 835/130/2 832/128/2
f 834/69/2 836/71/2 835/130/2
f 836/71/26 833/129/26 835/130/26
f 836/71/26 831/66/26 833/129/26
f 837/92/5 838/93/5 839/94/5
f 837/92/5 840/95/5 838/93/5
f 837/92/5 841/96/5 840/95/5
f 837/92/5 842/97/5 841/96/5
f 837/92/5 843/98/5 842/97/5
f 837/92/5 844/99/5 843/98/5
f 837/92/5 845/100/5 844/99/5
f 837/92/5 839/94/5 845/100/5
f 839/101/38 846/102/38 847/103/38
f 839/101/38 838/104/38 846/102/38
f 838/104/39 848/105/39 846/102/39
f 838/104/39 840/106/39 848/105/39
f 840/106/40 849/107/40 848/105/40
f 840/106/40 841/108/40 849/107/40
f 841/108/105 850/109/105 849/107/105
f 841/108/105 842/110/105 850/109/105
f 842/110/42 851/111/42 850/109/42
f 842/110/42 843/112/42 851/111/42
f 843/112/43 852/113/43 851/111/43
f 843/112/43 844/114/43 852/113/43
f 844/114/84 853/115/84 852/113/84
f 844/114/84 845/116/84 853/115/84
f 845/117/106 847/103/106 853/118/106
f 845/117/106 839/101/106 847/103/106
f 854/119/3 847/120/3 846/121/3
f 854/119/3 846/121/3 848/122/3
f 854/119/3 848/122/3 849/123/3
f 854/119/3 849/123/3 850/124/3
f 854/119/3 850/124/3 851/125/3
f 854/119/3 851/125/3 852/126/3
f 854/119/3 852/126/3 853/127/3
f 854/119/3 853/127/3 847/120/3
f 855/66/47 856/128/47 857/129/47
f 855/66/47 858/69/47 856/128/47
f 858/69/48 859/130/48 856/128/49
f 858/69/48 860/71/48 859/130/48
f 860/71/50 857/129/50 859/130/50
f 860/71/50 855/66/50 857/129/50
f 861/92/5 862/93/5 863/94/5
f 861/92/5 864/95/5 862/93/5
f 861/92/5 865/96/5 864/95/5
f 861/92/5 866/97/5 865/96/5
f 861/92/5 867/98/5 866/97/5
f 861/92/5 868/99/5 867/98/5
f 861/92/5 869/100/5 868/99/5
f 861/92/5 863/94/5 869/100/5
f 863/101/51 870/102/51 871/103/51
f 863/101/51 862/104/51 870/102/51
f 862/104/53 872/105/53 870/102/53
f 862/104/53 864/106/53 872/105/53
f 864/106/101 873/107/101 872/105/101
f 864/106/101 865/108/101 873/107/101
f 865/108/55 874/109/55 873/107/55
f 865/108/55 866/110/55 874/109/55
f 866/110/56 875/111/56 874/109/56
f 866/110/56 867/112/56 875/111/56
f 867/112/57 876/113/57 875/111/57
f 867/112/57 868/114/57 876/113/57
f 868/114/59 877/115/59 876/113/59
f 868/114/59 869/116/59 877/115/59
f 869/117/60 871/103/60 877/118/60
f 869/117/60 863/101/60 871/103/60
f 878/119/3 871/120/3 870/121/3
f 878/119/3 870/121/3 872/122/3
f 878/119/3 872/122/3 873/123/3
f 878/119/3 873/123/3 874/124/3
f 878/119/3 874/124/3 875/125/3
f 878/119/3 875/125/3 876/126/3
f 878/119/3 876/126/3 877/127/3
f 878/119/3 877/127/3 871/120/3
f 879/66/61 880/128/61 881/129/61
f 879/66/61 882/69/61 880/128/61
f 882/69/62 883/130/62 880/128/62
f 882/69/62 884/71/62 883/130/62
f 884/71/107 881/129/107 883/130/107
f 884/71/107 879/66/107 881/129/107
f 885/92/5 886/93/5 887/94/5
f 885/92/5 888/95/5 886/93/5
f 885/92/5 889/96/5 888/95/5
f 885/92/5 890/97/5 889/96/5
f 885/92/5 891/98/5 890/97/5
f 885/92/5 892/99/5 891/98/5
f 885/92/5 893/100/5 892/99/5
f 885/92/5 887/94/5 893/100/5
f 887/101/64 894/102/64 895/103/64
f 887/101/64 886/104/64 894/102/64
f 886/104/65 896/105/65 894/102/65
f 886/104/65 888/106/65 896/105/65
f 888/106/66 897/107/66 896/105/66
f 888/106/66 889/108/66 897/107/66
f 889/108/67 898/109/67 897/107/67
f 889/108/67 890/110/67 898/109/67
f 890/110/89 899/111/89 898/109/89
f 890/110/89 891/112/89 899/111/89
f 891/112/69 900/113/69 899/111/69
f 891/112/69 892/114/69 900/113/69
f 892/114/70 901/115/70 900/113/70
f 892/114/70 893/116/70 901/115/70
f 893/117/90 895/103/90 901/118/90
f 893/117/90 887/101/90 895/103/90
f 902/119/3 895/120/3 894/121/3
f 902/119/3 894/121/3 896/122/3
f 902/119/3 896/122/3 897/123/3
f 902/119/3 897/123/3 898/124/3
f 902/119/3 898/124/3 899/125/3
f 902/119/3 899/125/3 900/126/3
f 902/119/3 900/126/3 901/127/3
f 902/119/3 901/127/3 895/120/3
f 903/66/72 904/128/72 905/129/72
f 903/66/72 906/69/72 904/128/72
f 906/69/91 907/130/91 904/128/91
f 906/69/91 908/71/91 907/130/91
f 908/71/92 905/129/92 907/130/92
f 908/71/92 903/66/92 905/129/92
f 909/66/24 910/67/24 911/68/24
f 909/66/24 912/69/24 910/67/24
f 912/69/2 913/70/2 910/67/2
f 912/69/2 914/71/2 913/70/2
f 914/71/26 911/68/26 913/70/26
f 914/71/26 909/66/26 911/68/26
f 915/66/24 916/67/24 917/68/24
f 915/66/24 918/69/24 916/67/24
f 918/69/2 919/70/2 916/67/2
f 918/69/2 920/71/2 919/70/2
f 920/71/26 917/68/26 919/70/26
f 920/71/26 915/66/26 917/68/26
f 921/72/6 922/73/6 923/74/6
f 924/75/6 923/74/6 922/73/6
f 714/131/76 712/132/76 715/133/76
f 716/134/76 715/133/76 712/132/76
f 925/135/6 926/136/6 927/137/6
f 928/138/6 927/137/6 926/136/6
f 929/139/2 930/140/2 931/141/2
f 931/141/2 932/142/2 929/139/2
f 933/140/1 934/139/1 935/141/1
f 936/142/1 935/141/1 934/139/1
f 713/33/77 714/34/77 717/35/77
f 715/36/77 717/35/77 714/34/77
