# Blender 4.4.3
# www.blender.org
mtllib PITTENTA.mtl
o PITTENTA
v 148.082520 0.649319 -9.048951
v 148.127563 -1.264184 -9.074960
v 148.082520 -1.264184 -9.048951
v 148.127563 0.649319 -9.074960
v 148.127563 -1.264184 -9.022943
v 148.127563 0.649319 -9.022943
v 146.688278 -0.243943 -9.713121
v 146.688278 -0.318637 -9.713121
v 146.688278 -0.243943 -9.008870
v 146.688278 -0.318637 -9.008870
v 149.558624 -0.318637 -9.008870
v 149.558624 -0.318637 -9.713121
v 149.558624 -0.243943 -9.008870
v 149.558624 -0.243943 -9.713121
v 146.838638 0.118578 -9.390016
v 146.838638 -0.244136 -9.390016
v 146.838638 0.118578 -9.051344
v 146.838638 -0.244136 -9.051344
v 149.354401 -0.247505 -9.051344
v 149.354401 -0.247505 -9.390017
v 149.354401 0.115209 -9.051344
v 149.354401 0.115209 -9.390017
v 146.688705 0.644248 -10.060724
v 146.688705 1.061510 -9.797550
v 146.688705 0.885154 -9.990208
v 146.688705 1.126061 -9.534376
v 146.688705 1.061510 -9.271201
v 146.688705 0.885154 -9.078545
v 146.688705 0.644248 -9.008027
v 149.557999 0.885154 -9.990208
v 149.557999 0.644248 -10.060725
v 149.557999 1.061510 -9.797550
v 149.557999 1.126061 -9.534376
v 149.557999 1.061510 -9.271202
v 149.557999 0.885154 -9.078545
v 149.557999 0.644248 -9.008027
v 146.695587 0.649319 -9.048951
v 146.740646 -1.264184 -9.074960
v 146.695587 -1.264184 -9.048951
v 146.740646 0.649319 -9.074960
v 146.740646 -1.264184 -9.022943
v 146.740646 0.649319 -9.022943
v 149.498169 -0.313992 -9.680147
v 149.543228 -1.265104 -9.706156
v 149.498169 -1.265104 -9.680147
v 149.543228 -0.313992 -9.706156
v 149.543228 -1.265104 -9.654140
v 149.543228 -0.313992 -9.654140
v 146.695587 -0.313992 -9.680147
v 146.740646 -1.265104 -9.706156
v 146.695587 -1.265104 -9.680147
v 146.740646 -0.313992 -9.706156
v 146.740646 -1.265104 -9.654139
v 146.740646 -0.313992 -9.654139
v 146.705933 0.649319 -10.008101
v 146.732895 -0.170244 -9.074080
v 146.705933 -0.170244 -9.048072
v 146.732895 0.649319 -10.034108
v 146.732895 -0.170244 -9.032538
v 146.732895 0.649319 -9.982092
v 149.499878 0.649319 -9.048951
v 149.544922 -1.264184 -9.074960
v 149.499878 -1.264184 -9.048951
v 149.544922 0.649319 -9.074960
v 149.544922 -1.264184 -9.022943
v 149.544922 0.649319 -9.022943
v 149.508667 0.649319 -10.008101
v 149.535645 -0.170244 -9.074080
v 149.508667 -0.170244 -9.048072
v 149.535645 0.649319 -10.034108
v 149.535645 -0.170244 -9.032539
v 149.535645 0.649319 -9.982092
v 149.522125 -0.721994 -9.048930
v 149.522125 -0.801626 -9.048930
v 146.722336 -0.721994 -9.048930
v 146.722336 -0.790500 -9.048930
v 149.522125 0.615410 -9.048930
v 149.522125 0.535778 -9.048930
v 146.722336 0.615410 -9.048930
v 146.722336 0.535778 -9.048930
v 149.532349 -0.801626 -9.680575
v 149.532349 -0.721994 -9.680575
v 149.532349 -0.721994 -9.063879
v 149.532349 -0.801626 -9.063879
v 146.729340 -0.721994 -9.680575
v 146.729340 -0.801626 -9.680575
v 146.729340 -0.721994 -9.063878
v 146.729340 -0.790500 -9.063878
v 148.096985 -0.245607 -9.048930
v 148.096985 -0.325238 -9.048930
v 146.722336 -0.663949 -9.048930
v 146.722336 -0.743580 -9.048930
v 149.516937 -0.666076 -9.048930
v 149.516937 -0.745707 -9.048930
v 148.102081 -0.247757 -9.048930
v 148.102081 -0.327389 -9.048930
v 148.634232 -0.233956 -9.665442
v 148.634232 -0.244136 -9.665442
v 148.634232 -0.208544 -9.451822
v 148.634232 -0.244136 -9.451822
v 149.298981 -0.247505 -9.451822
v 149.298981 -0.247505 -9.665443
v 149.298981 -0.211912 -9.451822
v 149.298981 -0.237324 -9.665442
v 147.231201 -0.233956 -9.665442
v 147.231201 -0.244136 -9.665442
v 147.231201 -0.208544 -9.451821
v 147.231201 -0.244136 -9.451821
v 147.895950 -0.247505 -9.451822
v 147.895950 -0.247505 -9.665442
v 147.895950 -0.211912 -9.451822
v 147.895950 -0.237324 -9.665442
v 149.522125 0.657995 -9.067658
v 149.522125 0.657995 -8.988028
v 146.722336 0.657995 -9.067658
v 146.722336 0.657995 -8.988028
v 149.522125 0.657995 -10.047717
v 149.522125 0.657995 -9.968085
v 146.722336 0.657995 -10.047716
v 146.722336 0.657995 -9.968085
v 148.082413 0.657995 -10.015859
v 148.162048 0.657995 -10.015859
v 148.082413 0.657995 -9.008624
v 148.162048 0.657995 -9.008624
v 149.493042 0.657995 -10.015860
v 149.572662 0.657995 -10.015860
v 149.493042 0.657995 -9.008625
v 149.572662 0.657995 -9.008625
v 146.722290 0.657995 -10.015859
v 146.801926 0.657995 -10.015859
v 146.722290 0.657995 -9.008624
v 146.801926 0.657995 -9.008624
v 147.364716 0.657995 -10.015859
v 147.444351 0.657995 -10.015859
v 147.364716 0.657995 -9.008624
v 147.444351 0.657995 -9.008624
v 148.823517 0.657995 -10.015859
v 148.903152 0.657995 -10.015859
v 148.823517 0.657995 -9.008625
v 148.903152 0.657995 -9.008625
v 149.128250 -0.587715 -9.959414
v 148.981262 -0.587715 -10.095280
v 148.920380 -0.587715 -9.959414
v 149.128250 -0.587715 -10.151557
v 149.275253 -0.587715 -10.095280
v 149.336136 -0.587715 -9.959414
v 149.275253 -0.587715 -9.823547
v 149.128250 -0.587715 -9.767270
v 148.981262 -0.587715 -9.823547
v 148.981262 -0.641326 -10.095280
v 148.920380 -0.641326 -9.959414
v 149.128250 -0.641326 -10.151557
v 149.275253 -0.641326 -10.095280
v 149.336136 -0.641326 -9.959414
v 149.275253 -0.641326 -9.823547
v 149.128250 -0.641326 -9.767270
v 148.981262 -0.641326 -9.823547
v 149.128250 -0.641326 -9.959414
v 149.100632 -0.619124 -9.949988
v 149.154678 -1.265104 -9.981198
v 149.100632 -1.265104 -9.949988
v 149.154678 -0.619124 -9.981198
v 149.154678 -1.265104 -9.918778
v 149.154678 -0.619124 -9.918778
v 147.783722 -0.576589 -9.959414
v 147.798676 -0.576589 -10.159021
v 147.654419 -0.576589 -10.122181
v 147.934174 -0.576589 -10.078934
v 147.981552 -0.576589 -9.928833
v 147.913040 -0.576589 -9.796646
v 147.768784 -0.576589 -9.759806
v 147.633286 -0.576589 -9.839892
v 147.585907 -0.576589 -9.989994
v 147.798676 -0.630200 -10.159021
v 147.654419 -0.630200 -10.122181
v 147.934174 -0.630200 -10.078934
v 147.981552 -0.630200 -9.928833
v 147.913040 -0.630200 -9.796646
v 147.768784 -0.630200 -9.759806
v 147.633286 -0.630200 -9.839892
v 147.585907 -0.630200 -9.989994
v 147.783722 -0.630200 -9.959414
v 147.769714 -0.607998 -9.978206
v 147.827789 -1.265104 -9.955294
v 147.769714 -1.265104 -9.978206
v 147.827789 -0.607998 -9.955294
v 147.778915 -1.265104 -9.916466
v 147.778915 -0.607998 -9.916466
v 148.507416 -0.617752 -9.959414
v 148.351929 -0.617752 -9.833349
v 148.477707 -0.617752 -9.753667
v 148.317245 -0.617752 -9.986878
v 148.393951 -0.617752 -10.124318
v 148.537125 -0.617752 -10.165159
v 148.662903 -0.617752 -10.085478
v 148.697586 -0.617752 -9.931950
v 148.620880 -0.617752 -9.794508
v 148.351929 -0.671363 -9.833349
v 148.477707 -0.671363 -9.753667
v 148.317245 -0.671363 -9.986878
v 148.393951 -0.671363 -10.124318
v 148.537125 -0.671363 -10.165159
v 148.662903 -0.671363 -10.085478
v 148.697586 -0.671363 -9.931950
v 148.620880 -0.671363 -9.794508
v 148.507416 -0.671363 -9.959414
v 148.510666 -0.649161 -9.914320
v 148.487503 -1.265104 -9.972283
v 148.510666 -1.265104 -9.914320
v 148.487503 -0.649161 -9.972283
v 148.549286 -1.265104 -9.963361
v 148.549286 -0.649161 -9.963361
v 147.059906 -0.597707 -9.959414
v 146.978821 -0.597707 -10.142422
v 146.869049 -0.597707 -10.041828
v 147.136078 -0.597707 -10.135811
v 147.248718 -0.597707 -10.025869
v 147.250748 -0.597707 -9.876999
v 147.140991 -0.597707 -9.776405
v 146.983734 -0.597707 -9.783015
v 146.871094 -0.597707 -9.892957
v 146.978821 -0.651318 -10.142422
v 146.869049 -0.651318 -10.041828
v 147.136078 -0.651318 -10.135811
v 147.248718 -0.651318 -10.025869
v 147.250748 -0.651318 -9.876999
v 147.140991 -0.651318 -9.776405
v 146.983734 -0.651318 -9.783015
v 146.871094 -0.651318 -9.892957
v 147.059906 -0.651318 -9.959414
v 147.035233 -0.629116 -9.964275
v 147.097229 -1.265104 -9.971497
v 147.035233 -1.265104 -9.964275
v 147.097229 -0.629116 -9.971497
v 147.072479 -1.265104 -9.914192
v 147.072479 -0.629116 -9.914192
v 82.769753 0.649319 -9.048951
v 82.814796 -1.264184 -9.074960
v 82.769753 -1.264184 -9.048951
v 82.814796 0.649319 -9.074960
v 82.814796 -1.264184 -9.022943
v 82.814796 0.649319 -9.022943
v 81.375519 -0.243943 -9.713121
v 81.375519 -0.318637 -9.713121
v 81.375519 -0.243943 -9.008870
v 81.375519 -0.318637 -9.008870
v 84.245857 -0.318637 -9.008870
v 84.245857 -0.318637 -9.713121
v 84.245857 -0.243943 -9.008870
v 84.245857 -0.243943 -9.713121
v 81.525871 0.118578 -9.390016
v 81.525871 -0.244136 -9.390016
v 81.525871 0.118578 -9.051344
v 81.525871 -0.244136 -9.051344
v 84.041626 -0.247505 -9.051344
v 84.041626 -0.247505 -9.390017
v 84.041626 0.115209 -9.051344
v 84.041626 0.115209 -9.390017
v 81.375938 0.644248 -10.060724
v 81.375938 1.061510 -9.797550
v 81.375938 0.885154 -9.990208
v 81.375938 1.126061 -9.534376
v 81.375938 1.061510 -9.271201
v 81.375938 0.885154 -9.078545
v 81.375938 0.644248 -9.008027
v 84.245224 0.885154 -9.990208
v 84.245224 0.644248 -10.060725
v 84.245224 1.061510 -9.797550
v 84.245224 1.126061 -9.534376
v 84.245224 1.061510 -9.271202
v 84.245224 0.885154 -9.078545
v 84.245224 0.644248 -9.008027
v 81.382828 0.649319 -9.048951
v 81.427872 -1.264184 -9.074960
v 81.382828 -1.264184 -9.048951
v 81.427872 0.649319 -9.074960
v 81.427872 -1.264184 -9.022943
v 81.427872 0.649319 -9.022943
v 84.185410 -0.313992 -9.680147
v 84.230453 -1.265104 -9.706156
v 84.185410 -1.265104 -9.680147
v 84.230453 -0.313992 -9.706156
v 84.230453 -1.265104 -9.654140
v 84.230453 -0.313992 -9.654140
v 81.382828 -0.313992 -9.680147
v 81.427872 -1.265104 -9.706156
v 81.382828 -1.265104 -9.680147
v 81.427872 -0.313992 -9.706156
v 81.427872 -1.265104 -9.654139
v 81.427872 -0.313992 -9.654139
v 81.393158 0.649319 -10.008101
v 81.420135 -0.170244 -9.074080
v 81.393158 -0.170244 -9.048072
v 81.420135 0.649319 -10.034108
v 81.420135 -0.170244 -9.032538
v 81.420135 0.649319 -9.982092
v 84.187111 0.649319 -9.048951
v 84.232162 -1.264184 -9.074960
v 84.187111 -1.264184 -9.048951
v 84.232162 0.649319 -9.074960
v 84.232162 -1.264184 -9.022943
v 84.232162 0.649319 -9.022943
v 84.195892 0.649319 -10.008101
v 84.222870 -0.170244 -9.074080
v 84.195900 -0.170244 -9.048072
v 84.222870 0.649319 -10.034108
v 84.222870 -0.170244 -9.032539
v 84.222870 0.649319 -9.982092
v 84.209351 -0.721994 -9.048930
v 84.209351 -0.801626 -9.048930
v 81.409569 -0.721994 -9.048930
v 81.409569 -0.790500 -9.048930
v 84.209351 0.615410 -9.048930
v 84.209351 0.535778 -9.048930
v 81.409569 0.615410 -9.048930
v 81.409569 0.535778 -9.048930
v 84.219574 -0.801626 -9.680575
v 84.219574 -0.721994 -9.680575
v 84.219574 -0.721994 -9.063879
v 84.219574 -0.801626 -9.063879
v 81.416580 -0.721994 -9.680575
v 81.416580 -0.801626 -9.680575
v 81.416580 -0.721994 -9.063878
v 81.416580 -0.790500 -9.063878
v 82.784218 -0.245607 -9.048930
v 82.784218 -0.325238 -9.048930
v 81.409569 -0.663949 -9.048930
v 81.409569 -0.743580 -9.048930
v 84.204170 -0.666076 -9.048930
v 84.204170 -0.745707 -9.048930
v 82.789322 -0.247757 -9.048930
v 82.789322 -0.327389 -9.048930
v 83.321457 -0.233956 -9.665442
v 83.321457 -0.244136 -9.665442
v 83.321457 -0.208544 -9.451822
v 83.321457 -0.244136 -9.451822
v 83.986214 -0.247505 -9.451822
v 83.986214 -0.247505 -9.665443
v 83.986214 -0.211912 -9.451822
v 83.986214 -0.237324 -9.665442
v 81.918434 -0.233956 -9.665442
v 81.918434 -0.244136 -9.665442
v 81.918434 -0.208544 -9.451821
v 81.918434 -0.244136 -9.451821
v 82.583191 -0.247505 -9.451822
v 82.583191 -0.247505 -9.665442
v 82.583191 -0.211912 -9.451822
v 82.583191 -0.237324 -9.665442
v 84.209351 0.657995 -9.067658
v 84.209351 0.657995 -8.988028
v 81.409569 0.657995 -9.067658
v 81.409569 0.657995 -8.988028
v 84.209351 0.657995 -10.047717
v 84.209351 0.657995 -9.968085
v 81.409569 0.657995 -10.047716
v 81.409569 0.657995 -9.968085
v 82.769646 0.657995 -10.015859
v 82.849274 0.657995 -10.015859
v 82.769646 0.657995 -9.008624
v 82.849274 0.657995 -9.008624
v 84.180275 0.657995 -10.015860
v 84.259903 0.657995 -10.015860
v 84.180275 0.657995 -9.008625
v 84.259903 0.657995 -9.008625
v 81.409531 0.657995 -10.015859
v 81.489159 0.657995 -10.015859
v 81.409531 0.657995 -9.008624
v 81.489159 0.657995 -9.008624
v 82.051949 0.657995 -10.015859
v 82.131584 0.657995 -10.015859
v 82.051949 0.657995 -9.008624
v 82.131584 0.657995 -9.008624
v 83.510757 0.657995 -10.015859
v 83.590385 0.657995 -10.015859
v 83.510757 0.657995 -9.008625
v 83.590385 0.657995 -9.008625
v 83.815491 -0.587715 -9.959414
v 83.668495 -0.587715 -10.095280
v 83.607605 -0.587715 -9.959414
v 83.815491 -0.587715 -10.151557
v 83.962479 -0.587715 -10.095280
v 84.023369 -0.587715 -9.959414
v 83.962479 -0.587715 -9.823547
v 83.815491 -0.587715 -9.767270
v 83.668495 -0.587715 -9.823547
v 83.668495 -0.641326 -10.095280
v 83.607605 -0.641326 -9.959414
v 83.815491 -0.641326 -10.151557
v 83.962479 -0.641326 -10.095280
v 84.023369 -0.641326 -9.959414
v 83.962479 -0.641326 -9.823547
v 83.815491 -0.641326 -9.767270
v 83.668495 -0.641326 -9.823547
v 83.815491 -0.641326 -9.959414
v 83.787857 -0.619124 -9.949988
v 83.841919 -1.265104 -9.981198
v 83.787857 -1.265104 -9.949988
v 83.841919 -0.619124 -9.981198
v 83.841919 -1.265104 -9.918778
v 83.841919 -0.619124 -9.918778
v 82.470963 -0.576589 -9.959414
v 82.485909 -0.576589 -10.159021
v 82.341652 -0.576589 -10.122181
v 82.621407 -0.576589 -10.078934
v 82.668777 -0.576589 -9.928833
v 82.600273 -0.576589 -9.796646
v 82.456017 -0.576589 -9.759806
v 82.320518 -0.576589 -9.839892
v 82.273140 -0.576589 -9.989994
v 82.485909 -0.630200 -10.159021
v 82.341652 -0.630200 -10.122181
v 82.621407 -0.630200 -10.078934
v 82.668777 -0.630200 -9.928833
v 82.600273 -0.630200 -9.796646
v 82.456017 -0.630200 -9.759806
v 82.320518 -0.630200 -9.839892
v 82.273140 -0.630200 -9.989994
v 82.470963 -0.630200 -9.959414
v 82.456955 -0.607998 -9.978206
v 82.515015 -1.265104 -9.955294
v 82.456955 -1.265104 -9.978206
v 82.515015 -0.607998 -9.955294
v 82.466141 -1.265104 -9.916466
v 82.466141 -0.607998 -9.916466
v 83.194649 -0.617752 -9.959414
v 83.039169 -0.617752 -9.833349
v 83.164932 -0.617752 -9.753667
v 83.004478 -0.617752 -9.986878
v 83.081184 -0.617752 -10.124318
v 83.224365 -0.617752 -10.165159
v 83.350128 -0.617752 -10.085478
v 83.384819 -0.617752 -9.931950
v 83.308105 -0.617752 -9.794508
v 83.039169 -0.671363 -9.833349
v 83.164932 -0.671363 -9.753667
v 83.004478 -0.671363 -9.986878
v 83.081184 -0.671363 -10.124318
v 83.224365 -0.671363 -10.165159
v 83.350128 -0.671363 -10.085478
v 83.384819 -0.671363 -9.931950
v 83.308105 -0.671363 -9.794508
v 83.194649 -0.671363 -9.959414
v 83.197906 -0.649161 -9.914320
v 83.174744 -1.265104 -9.972283
v 83.197906 -1.265104 -9.914320
v 83.174744 -0.649161 -9.972283
v 83.236519 -1.265104 -9.963361
v 83.236519 -0.649161 -9.963361
v 81.747131 -0.597707 -9.959414
v 81.666054 -0.597707 -10.142422
v 81.556290 -0.597707 -10.041828
v 81.823311 -0.597707 -10.135811
v 81.935951 -0.597707 -10.025869
v 81.937981 -0.597707 -9.876999
v 81.828217 -0.597707 -9.776405
v 81.670959 -0.597707 -9.783015
v 81.558319 -0.597707 -9.892957
v 81.666054 -0.651318 -10.142422
v 81.556290 -0.651318 -10.041828
v 81.823311 -0.651318 -10.135811
v 81.935951 -0.651318 -10.025869
v 81.937981 -0.651318 -9.876999
v 81.828217 -0.651318 -9.776405
v 81.670959 -0.651318 -9.783015
v 81.558319 -0.651318 -9.892957
v 81.747131 -0.651318 -9.959414
v 81.722458 -0.629116 -9.964275
v 81.784462 -1.265104 -9.971497
v 81.722458 -1.265104 -9.964275
v 81.784462 -0.629116 -9.971497
v 81.759712 -1.265104 -9.914192
v 81.759712 -0.629116 -9.914192
v 18.647123 0.649319 -9.048951
v 18.692171 -1.264184 -9.074960
v 18.647123 -1.264184 -9.048951
v 18.692171 0.649319 -9.074960
v 18.692171 -1.264184 -9.022943
v 18.692171 0.649319 -9.022943
v 17.252890 -0.243943 -9.713121
v 17.252890 -0.318637 -9.713121
v 17.252890 -0.243943 -9.008870
v 17.252890 -0.318637 -9.008870
v 20.123228 -0.318637 -9.008870
v 20.123228 -0.318637 -9.713121
v 20.123228 -0.243943 -9.008870
v 20.123228 -0.243943 -9.713121
v 17.403244 0.118578 -9.390016
v 17.403244 -0.244136 -9.390016
v 17.403244 0.118578 -9.051344
v 17.403244 -0.244136 -9.051344
v 19.919001 -0.247505 -9.051344
v 19.919001 -0.247505 -9.390017
v 19.919001 0.115209 -9.051344
v 19.919001 0.115209 -9.390017
v 17.253309 0.644248 -10.060724
v 17.253309 1.061510 -9.797550
v 17.253309 0.885154 -9.990208
v 17.253309 1.126061 -9.534376
v 17.253309 1.061510 -9.271201
v 17.253309 0.885154 -9.078545
v 17.253309 0.644248 -9.008027
v 20.122599 0.885154 -9.990208
v 20.122599 0.644248 -10.060725
v 20.122599 1.061510 -9.797550
v 20.122599 1.126061 -9.534376
v 20.122599 1.061510 -9.271202
v 20.122599 0.885154 -9.078545
v 20.122599 0.644248 -9.008027
v 17.260199 0.649319 -9.048951
v 17.305246 -1.264184 -9.074960
v 17.260199 -1.264184 -9.048951
v 17.305246 0.649319 -9.074960
v 17.305246 -1.264184 -9.022943
v 17.305246 0.649319 -9.022943
v 20.062782 -0.313992 -9.680147
v 20.107830 -1.265104 -9.706156
v 20.062782 -1.265104 -9.680147
v 20.107830 -0.313992 -9.706156
v 20.107830 -1.265104 -9.654140
v 20.107830 -0.313992 -9.654140
v 17.260199 -0.313992 -9.680147
v 17.305246 -1.265104 -9.706156
v 17.260199 -1.265104 -9.680147
v 17.305246 -0.313992 -9.706156
v 17.305246 -1.265104 -9.654139
v 17.305246 -0.313992 -9.654139
v 17.270533 0.649319 -10.008101
v 17.297506 -0.170244 -9.074080
v 17.270533 -0.170244 -9.048072
v 17.297506 0.649319 -10.034108
v 17.297506 -0.170244 -9.032538
v 17.297506 0.649319 -9.982092
v 20.064484 0.649319 -9.048951
v 20.109531 -1.264184 -9.074960
v 20.064484 -1.264184 -9.048951
v 20.109531 0.649319 -9.074960
v 20.109531 -1.264184 -9.022943
v 20.109531 0.649319 -9.022943
v 20.073269 0.649319 -10.008101
v 20.100243 -0.170244 -9.074080
v 20.073269 -0.170244 -9.048072
v 20.100243 0.649319 -10.034108
v 20.100243 -0.170244 -9.032539
v 20.100243 0.649319 -9.982092
v 20.086723 -0.721994 -9.048930
v 20.086723 -0.801626 -9.048930
v 17.286943 -0.721994 -9.048930
v 17.286943 -0.790500 -9.048930
v 20.086723 0.615410 -9.048930
v 20.086723 0.535778 -9.048930
v 17.286943 0.615410 -9.048930
v 17.286943 0.535778 -9.048930
v 20.096949 -0.801626 -9.680575
v 20.096949 -0.721994 -9.680575
v 20.096949 -0.721994 -9.063879
v 20.096949 -0.801626 -9.063879
v 17.293953 -0.721994 -9.680575
v 17.293953 -0.801626 -9.680575
v 17.293953 -0.721994 -9.063878
v 17.293953 -0.790500 -9.063878
v 18.661587 -0.245607 -9.048930
v 18.661587 -0.325238 -9.048930
v 17.286943 -0.663949 -9.048930
v 17.286943 -0.743580 -9.048930
v 20.081545 -0.666076 -9.048930
v 20.081545 -0.745707 -9.048930
v 18.666693 -0.247757 -9.048930
v 18.666693 -0.327389 -9.048930
v 19.198833 -0.233956 -9.665442
v 19.198833 -0.244136 -9.665442
v 19.198833 -0.208544 -9.451822
v 19.198833 -0.244136 -9.451822
v 19.863586 -0.247505 -9.451822
v 19.863586 -0.247505 -9.665443
v 19.863586 -0.211912 -9.451822
v 19.863586 -0.237324 -9.665442
v 17.795807 -0.233956 -9.665442
v 17.795807 -0.244136 -9.665442
v 17.795807 -0.208544 -9.451821
v 17.795807 -0.244136 -9.451821
v 18.460560 -0.247505 -9.451822
v 18.460560 -0.247505 -9.665442
v 18.460560 -0.211912 -9.451822
v 18.460560 -0.237324 -9.665442
v 20.086723 0.657995 -9.067658
v 20.086723 0.657995 -8.988028
v 17.286943 0.657995 -9.067658
v 17.286943 0.657995 -8.988028
v 20.086723 0.657995 -10.047717
v 20.086723 0.657995 -9.968085
v 17.286943 0.657995 -10.047716
v 17.286943 0.657995 -9.968085
v 18.647018 0.657995 -10.015859
v 18.726648 0.657995 -10.015859
v 18.647018 0.657995 -9.008624
v 18.726648 0.657995 -9.008624
v 20.057644 0.657995 -10.015860
v 20.137276 0.657995 -10.015860
v 20.057644 0.657995 -9.008625
v 20.137276 0.657995 -9.008625
v 17.286901 0.657995 -10.015859
v 17.366533 0.657995 -10.015859
v 17.286903 0.657995 -9.008624
v 17.366533 0.657995 -9.008624
v 17.929321 0.657995 -10.015859
v 18.008953 0.657995 -10.015859
v 17.929321 0.657995 -9.008624
v 18.008953 0.657995 -9.008624
v 19.388130 0.657995 -10.015859
v 19.467762 0.657995 -10.015859
v 19.388130 0.657995 -9.008625
v 19.467762 0.657995 -9.008625
v 19.692862 -0.587715 -9.959414
v 19.545868 -0.587715 -10.095280
v 19.484980 -0.587715 -9.959414
v 19.692862 -0.587715 -10.151557
v 19.839855 -0.587715 -10.095280
v 19.900742 -0.587715 -9.959414
v 19.839855 -0.587715 -9.823547
v 19.692862 -0.587715 -9.767270
v 19.545868 -0.587715 -9.823547
v 19.545868 -0.641326 -10.095280
v 19.484980 -0.641326 -9.959414
v 19.692862 -0.641326 -10.151557
v 19.839855 -0.641326 -10.095280
v 19.900742 -0.641326 -9.959414
v 19.839855 -0.641326 -9.823547
v 19.692862 -0.641326 -9.767270
v 19.545868 -0.641326 -9.823547
v 19.692862 -0.641326 -9.959414
v 19.665232 -0.619124 -9.949988
v 19.719290 -1.265104 -9.981198
v 19.665232 -1.265104 -9.949988
v 19.719290 -0.619124 -9.981198
v 19.719290 -1.265104 -9.918778
v 19.719290 -0.619124 -9.918778
v 18.348333 -0.576589 -9.959414
v 18.363277 -0.576589 -10.159021
v 18.219023 -0.576589 -10.122181
v 18.498779 -0.576589 -10.078934
v 18.546150 -0.576589 -9.928833
v 18.477644 -0.576589 -9.796646
v 18.333389 -0.576589 -9.759806
v 18.197887 -0.576589 -9.839892
v 18.150517 -0.576589 -9.989994
v 18.363277 -0.630200 -10.159021
v 18.219023 -0.630200 -10.122181
v 18.498779 -0.630200 -10.078934
v 18.546150 -0.630200 -9.928833
v 18.477644 -0.630200 -9.796646
v 18.333389 -0.630200 -9.759806
v 18.197887 -0.630200 -9.839892
v 18.150517 -0.630200 -9.989994
v 18.348333 -0.630200 -9.959414
v 18.334326 -0.607998 -9.978206
v 18.392389 -1.265104 -9.955294
v 18.334326 -1.265104 -9.978206
v 18.392389 -0.607998 -9.955294
v 18.343515 -1.265104 -9.916466
v 18.343515 -0.607998 -9.916466
v 19.072020 -0.617752 -9.959414
v 18.916538 -0.617752 -9.833349
v 19.042307 -0.617752 -9.753667
v 18.881849 -0.617752 -9.986878
v 18.958561 -0.617752 -10.124318
v 19.101734 -0.617752 -10.165159
v 19.227503 -0.617752 -10.085478
v 19.262190 -0.617752 -9.931950
v 19.185480 -0.617752 -9.794508
v 18.916538 -0.671363 -9.833349
v 19.042307 -0.671363 -9.753667
v 18.881849 -0.671363 -9.986878
v 18.958561 -0.671363 -10.124318
v 19.101734 -0.671363 -10.165159
v 19.227503 -0.671363 -10.085478
v 19.262190 -0.671363 -9.931950
v 19.185480 -0.671363 -9.794508
v 19.072020 -0.671363 -9.959414
v 19.075279 -0.649161 -9.914320
v 19.052116 -1.265104 -9.972283
v 19.075279 -1.265104 -9.914320
v 19.052116 -0.649161 -9.972283
v 19.113895 -1.265104 -9.963361
v 19.113895 -0.649161 -9.963361
v 17.624508 -0.597707 -9.959414
v 17.543423 -0.597707 -10.142422
v 17.433662 -0.597707 -10.041828
v 17.700684 -0.597707 -10.135811
v 17.813320 -0.597707 -10.025869
v 17.815353 -0.597707 -9.876999
v 17.705591 -0.597707 -9.776405
v 17.548332 -0.597707 -9.783015
v 17.435696 -0.597707 -9.892957
v 17.543423 -0.651318 -10.142422
v 17.433662 -0.651318 -10.041828
v 17.700684 -0.651318 -10.135811
v 17.813320 -0.651318 -10.025869
v 17.815353 -0.651318 -9.876999
v 17.705591 -0.651318 -9.776405
v 17.548332 -0.651318 -9.783015
v 17.435696 -0.651318 -9.892957
v 17.624508 -0.651318 -9.959414
v 17.599833 -0.629116 -9.964275
v 17.661833 -1.265104 -9.971497
v 17.599833 -1.265104 -9.964275
v 17.661833 -0.629116 -9.971497
v 17.637087 -1.265104 -9.914192
v 17.637087 -0.629116 -9.914192
v -11.147470 0.649319 -9.048951
v -11.102423 -1.264184 -9.074960
v -11.147470 -1.264184 -9.048951
v -11.102423 0.649319 -9.074960
v -11.102423 -1.264184 -9.022943
v -11.102423 0.649319 -9.022943
v -12.541704 -0.243943 -9.713121
v -12.541704 -0.318637 -9.713121
v -12.541704 -0.243943 -9.008870
v -12.541704 -0.318637 -9.008870
v -9.671366 -0.318637 -9.008870
v -9.671366 -0.318637 -9.713121
v -9.671366 -0.243943 -9.008870
v -9.671366 -0.243943 -9.713121
v -12.391349 0.118578 -9.390016
v -12.391349 -0.244136 -9.390016
v -12.391349 0.118578 -9.051344
v -12.391349 -0.244136 -9.051344
v -9.875593 -0.247505 -9.051344
v -9.875593 -0.247505 -9.390017
v -9.875593 0.115209 -9.051344
v -9.875593 0.115209 -9.390017
v -12.541284 0.644248 -10.060724
v -12.541284 1.061510 -9.797550
v -12.541284 0.885154 -9.990208
v -12.541284 1.126061 -9.534376
v -12.541284 1.061510 -9.271201
v -12.541284 0.885154 -9.078545
v -12.541284 0.644248 -9.008027
v -9.671994 0.885155 -9.990208
v -9.671994 0.644248 -10.060725
v -9.671994 1.061510 -9.797550
v -9.671994 1.126061 -9.534376
v -9.671994 1.061510 -9.271202
v -9.671994 0.885154 -9.078545
v -9.671994 0.644248 -9.008027
v -12.534395 0.649319 -9.048951
v -12.489347 -1.264184 -9.074960
v -12.534395 -1.264184 -9.048951
v -12.489347 0.649319 -9.074960
v -12.489347 -1.264184 -9.022943
v -12.489347 0.649319 -9.022943
v -9.731812 -0.313992 -9.680147
v -9.686765 -1.265104 -9.706156
v -9.731812 -1.265104 -9.680147
v -9.686765 -0.313992 -9.706156
v -9.686765 -1.265104 -9.654140
v -9.686765 -0.313992 -9.654140
v -12.534395 -0.313992 -9.680147
v -12.489347 -1.265104 -9.706156
v -12.534395 -1.265104 -9.680147
v -12.489347 -0.313992 -9.706156
v -12.489347 -1.265104 -9.654140
v -12.489347 -0.313992 -9.654139
v -12.524061 0.649319 -10.008101
v -12.497087 -0.170244 -9.074080
v -12.524061 -0.170244 -9.048072
v -12.497087 0.649319 -10.034108
v -12.497087 -0.170244 -9.032538
v -12.497087 0.649319 -9.982092
v -9.730109 0.649319 -9.048951
v -9.685061 -1.264184 -9.074960
v -9.730109 -1.264184 -9.048951
v -9.685061 0.649319 -9.074960
v -9.685061 -1.264184 -9.022943
v -9.685061 0.649319 -9.022943
v -9.721325 0.649319 -10.008101
v -9.694350 -0.170244 -9.074080
v -9.721324 -0.170244 -9.048072
v -9.694350 0.649319 -10.034108
v -9.694350 -0.170244 -9.032539
v -9.694350 0.649319 -9.982092
v -9.707870 -0.721994 -9.048930
v -9.707870 -0.801626 -9.048930
v -12.507650 -0.721994 -9.048930
v -12.507650 -0.790500 -9.048930
v -9.707870 0.615410 -9.048930
v -9.707870 0.535778 -9.048930
v -12.507650 0.615410 -9.048930
v -12.507650 0.535778 -9.048930
v -9.697645 -0.801626 -9.680575
v -9.697645 -0.721994 -9.680575
v -9.697644 -0.721994 -9.063879
v -9.697644 -0.801626 -9.063879
v -12.500641 -0.721994 -9.680575
v -12.500641 -0.801626 -9.680575
v -12.500641 -0.721994 -9.063878
v -12.500641 -0.790500 -9.063878
v -11.133006 -0.245607 -9.048930
v -11.133006 -0.325238 -9.048930
v -12.507650 -0.663949 -9.048930
v -12.507650 -0.743580 -9.048930
v -9.713049 -0.666076 -9.048930
v -9.713049 -0.745707 -9.048930
v -11.127901 -0.247757 -9.048930
v -11.127901 -0.327389 -9.048930
v -10.595760 -0.233956 -9.665442
v -10.595760 -0.244136 -9.665442
v -10.595760 -0.208544 -9.451822
v -10.595760 -0.244136 -9.451822
v -9.931007 -0.247505 -9.451822
v -9.931007 -0.247505 -9.665443
v -9.931007 -0.211912 -9.451822
v -9.931007 -0.237324 -9.665442
v -11.998786 -0.233956 -9.665442
v -11.998786 -0.244136 -9.665442
v -11.998786 -0.208544 -9.451822
v -11.998786 -0.244136 -9.451822
v -11.334033 -0.247505 -9.451822
v -11.334033 -0.247505 -9.665442
v -11.334033 -0.211912 -9.451822
v -11.334033 -0.237324 -9.665442
v -9.707870 0.657995 -9.067658
v -9.707870 0.657995 -8.988028
v -12.507650 0.657995 -9.067658
v -12.507650 0.657995 -8.988028
v -9.707870 0.657995 -10.047717
v -9.707870 0.657995 -9.968085
v -12.507650 0.657995 -10.047716
v -12.507650 0.657995 -9.968085
v -11.147575 0.657995 -10.015859
v -11.067944 0.657995 -10.015859
v -11.147575 0.657995 -9.008624
v -11.067944 0.657995 -9.008625
v -9.736949 0.657995 -10.015860
v -9.657318 0.657995 -10.015860
v -9.736949 0.657995 -9.008625
v -9.657318 0.657995 -9.008625
v -12.507691 0.657995 -10.015859
v -12.428060 0.657995 -10.015859
v -12.507691 0.657995 -9.008624
v -12.428060 0.657995 -9.008624
v -11.865272 0.657995 -10.015859
v -11.785640 0.657995 -10.015859
v -11.865272 0.657995 -9.008624
v -11.785640 0.657995 -9.008624
v -10.406464 0.657995 -10.015860
v -10.326833 0.657995 -10.015860
v -10.406464 0.657995 -9.008625
v -10.326832 0.657995 -9.008625
v -10.101732 -0.587715 -9.959414
v -10.248727 -0.587715 -10.095280
v -10.309613 -0.587715 -9.959414
v -10.101732 -0.587715 -10.151557
v -9.954739 -0.587715 -10.095280
v -9.893852 -0.587715 -9.959414
v -9.954739 -0.587715 -9.823547
v -10.101732 -0.587715 -9.767270
v -10.248727 -0.587715 -9.823547
v -10.248727 -0.641326 -10.095280
v -10.309613 -0.641326 -9.959414
v -10.101732 -0.641326 -10.151557
v -9.954739 -0.641326 -10.095280
v -9.893852 -0.641326 -9.959414
v -9.954739 -0.641326 -9.823547
v -10.101732 -0.641326 -9.767270
v -10.248727 -0.641326 -9.823547
v -10.101732 -0.641326 -9.959414
v -10.129361 -0.619124 -9.949988
v -10.075304 -1.265104 -9.981198
v -10.129361 -1.265104 -9.949988
v -10.075304 -0.619124 -9.981198
v -10.075304 -1.265104 -9.918778
v -10.075304 -0.619124 -9.918778
v -11.446260 -0.576589 -9.959414
v -11.431315 -0.576589 -10.159021
v -11.575570 -0.576589 -10.122181
v -11.295815 -0.576589 -10.078934
v -11.248443 -0.576589 -9.928833
v -11.316951 -0.576589 -9.796646
v -11.461205 -0.576589 -9.759806
v -11.596705 -0.576589 -9.839892
v -11.644077 -0.576589 -9.989994
v -11.431315 -0.630200 -10.159021
v -11.575570 -0.630200 -10.122181
v -11.295815 -0.630200 -10.078934
v -11.248443 -0.630200 -9.928833
v -11.316951 -0.630200 -9.796646
v -11.461205 -0.630200 -9.759806
v -11.596705 -0.630200 -9.839892
v -11.644077 -0.630200 -9.989994
v -11.446260 -0.630200 -9.959414
v -11.460268 -0.607998 -9.978206
v -11.402205 -1.265104 -9.955294
v -11.460267 -1.265104 -9.978206
v -11.402205 -0.607998 -9.955294
v -11.451078 -1.265104 -9.916466
v -11.451078 -0.607998 -9.916466
v -10.722573 -0.617752 -9.959414
v -10.878055 -0.617752 -9.833349
v -10.752287 -0.617752 -9.753667
v -10.912744 -0.617752 -9.986878
v -10.836033 -0.617752 -10.124318
v -10.692859 -0.617752 -10.165159
v -10.567091 -0.617752 -10.085478
v -10.532403 -0.617752 -9.931950
v -10.609114 -0.617752 -9.794508
v -10.878055 -0.671363 -9.833349
v -10.752287 -0.671363 -9.753667
v -10.912744 -0.671363 -9.986878
v -10.836033 -0.671363 -10.124318
v -10.692859 -0.671363 -10.165159
v -10.567091 -0.671363 -10.085478
v -10.532403 -0.671363 -9.931950
v -10.609114 -0.671363 -9.794508
v -10.722573 -0.671363 -9.959414
v -10.719315 -0.649161 -9.914320
v -10.742477 -1.265104 -9.972283
v -10.719315 -1.265104 -9.914320
v -10.742476 -0.649161 -9.972283
v -10.680698 -1.265104 -9.963361
v -10.680698 -0.649161 -9.963361
v -12.170086 -0.597707 -9.959414
v -12.251170 -0.597707 -10.142422
v -12.360931 -0.597707 -10.041828
v -12.093910 -0.597707 -10.135811
v -11.981274 -0.597707 -10.025869
v -11.979240 -0.597707 -9.876999
v -12.089002 -0.597707 -9.776405
v -12.246261 -0.597707 -9.783015
v -12.358899 -0.597707 -9.892957
v -12.251170 -0.651318 -10.142422
v -12.360931 -0.651318 -10.041828
v -12.093910 -0.651318 -10.135811
v -11.981274 -0.651318 -10.025869
v -11.979240 -0.651318 -9.876999
v -12.089002 -0.651318 -9.776405
v -12.246261 -0.651318 -9.783015
v -12.358899 -0.651318 -9.892957
v -12.170086 -0.651318 -9.959414
v -12.194760 -0.629116 -9.964275
v -12.132760 -1.265104 -9.971497
v -12.194760 -1.265104 -9.964275
v -12.132760 -0.629116 -9.971497
v -12.157507 -1.265104 -9.914192
v -12.157507 -0.629116 -9.914192
vn -0.5000 -0.0000 -0.8660
vn -0.5001 -0.0000 -0.8660
vn 1.0000 -0.0000 -0.0000
vn -0.5000 -0.0000 0.8660
vn -1.0000 -0.0000 -0.0000
vn -0.0000 -1.0000 -0.0000
vn -0.0000 -0.0000 1.0000
vn -0.0000 1.0000 -0.0000
vn -0.0000 -0.0000 -1.0000
vn 0.0013 1.0000 -0.0000
vn -1.0000 0.0001 -0.0000
vn -0.0000 0.2809 -0.9597
vn -0.0000 0.7376 -0.6752
vn -0.0000 0.8819 -0.4714
vn -0.0000 0.8819 0.4714
vn -0.0000 0.7376 0.6752
vn -0.0000 0.2809 0.9597
vn 1.0000 -0.0001 -0.0000
vn -0.4999 -0.0000 -0.8661
vn -0.4999 -0.0000 0.8661
vn -0.5308 -0.6445 -0.5503
vn -0.5308 -0.6446 -0.5502
vn 1.0000 0.0003 -0.0000
vn -0.5290 0.6453 0.5511
vn -0.3548 0.7077 0.6110
vn -0.3524 0.7084 0.6116
vn -0.5309 0.6445 0.5503
vn -0.5305 -0.6448 -0.5503
vn -0.5306 -0.6446 -0.5504
vn 1.0000 0.0004 -0.0000
vn -0.5287 0.6456 0.5510
vn -0.3546 0.7076 0.6111
vn -0.3522 0.7083 0.6118
vn -0.5305 0.6448 0.5503
vn 0.0050 0.9930 -0.1181
vn -0.0000 0.0001 -1.0000
vn -0.9126 -0.0000 -0.4089
vn -0.3576 -0.0000 -0.9339
vn 0.3575 -0.0000 -0.9339
vn 0.9126 -0.0000 -0.4089
vn 0.9126 -0.0000 0.4089
vn 0.3575 -0.0000 0.9339
vn -0.3576 -0.0000 0.9339
vn -0.3575 -0.0000 0.9339
vn -0.9126 -0.0000 0.4089
vn -0.5001 -0.0000 0.8660
vn -0.2474 -0.0000 -0.9689
vn 0.5088 -0.0000 -0.8609
vn 0.9536 -0.0000 -0.3010
vn 0.8878 -0.0000 0.4602
vn 0.2474 -0.0000 0.9689
vn -0.5088 -0.0000 0.8609
vn -0.9536 -0.0000 0.3010
vn -0.8878 -0.0000 -0.4602
vn 0.3670 -0.0000 -0.9302
vn 0.6220 -0.0000 0.7830
vn 0.6221 -0.0000 0.7830
vn -0.9891 -0.0000 0.1474
vn -0.5352 -0.0000 0.8447
vn -0.5352 -0.0000 0.8448
vn -0.9754 -0.0000 0.2204
vn -0.8732 -0.0000 -0.4873
vn -0.2743 -0.0000 -0.9616
vn 0.5352 -0.0000 -0.8448
vn 0.5352 -0.0000 -0.8447
vn 0.9754 -0.0000 -0.2204
vn 0.8732 -0.0000 0.4873
vn 0.2743 -0.0000 0.9616
vn -0.9286 -0.0000 0.3711
vn 0.1429 -0.0000 -0.9897
vn 0.7856 -0.0000 0.6187
vn -0.6756 -0.0000 -0.7373
vn 0.0420 -0.0000 -0.9991
vn 0.6985 -0.0000 -0.7156
vn 0.9999 -0.0000 -0.0136
vn 0.6757 -0.0000 0.7372
vn -0.0420 -0.0000 0.9991
vn -0.6985 -0.0000 0.7156
vn -0.9999 -0.0000 0.0137
vn -0.1157 -0.0000 -0.9933
vn 0.9180 -0.0000 0.3965
vn -0.8024 -0.0000 0.5968
vn -0.5306 -0.6447 -0.5504
vn -0.5288 0.6454 0.5512
vn -0.3545 0.7079 0.6108
vn -0.3521 0.7086 0.6115
vn -0.5306 0.6446 0.5504
vn -0.5307 -0.6446 -0.5503
vn -0.3546 0.7078 0.6109
vn -0.3522 0.7085 0.6115
vn -0.9125 -0.0000 -0.4090
vn -0.3575 -0.0000 -0.9339
vn 0.3576 -0.0000 -0.9339
vn 0.9125 -0.0000 -0.4090
vn 0.9125 -0.0000 0.4090
vn 0.3576 -0.0000 0.9339
vn -0.9125 -0.0000 0.4090
vn 0.8879 -0.0000 0.4601
vn 0.3671 -0.0000 -0.9302
vn -0.9891 -0.0000 0.1472
vn 0.8732 -0.0000 0.4874
vn 0.1430 -0.0000 -0.9897
vn 0.7857 -0.0000 0.6186
vn -0.6756 -0.0000 -0.7372
vn 0.6756 -0.0000 0.7372
vn -0.9999 -0.0000 0.0136
vn -0.5306 -0.6446 -0.5503
vn -0.5288 0.6455 0.5511
vn -0.5306 0.6447 0.5503
vn -0.3546 0.7079 0.6109
vn -0.3521 0.7085 0.6115
vn -0.5307 0.6446 0.5503
vn 1.0000 -0.0004 -0.0000
vn -0.9126 -0.0000 -0.4090
vn -0.9126 -0.0000 0.4090
vn 0.8878 -0.0000 0.4601
vn -0.8879 -0.0000 -0.4601
vn -0.8878 -0.0000 -0.4601
vn -0.8732 -0.0000 -0.4874
vn 0.7857 -0.0000 0.6187
vn -0.6757 -0.0000 -0.7372
vn 0.9999 -0.0000 -0.0137
vn 0.9181 -0.0000 0.3964
vn -0.5306 -0.6447 -0.5503
vn -0.5306 0.6446 0.5503
vn 0.9181 -0.0000 0.3965
vt 0.000499 1.458785
vt 1.989501 1.428251
vt 1.989501 1.458785
vt 0.000499 1.428251
vt 1.989501 1.454674
vt 0.000499 1.454674
vt 0.674453 1.028554
vt 0.694403 1.028506
vt 0.674794 1.162817
vt 0.694744 1.162769
vt 0.000825 1.163020
vt 0.000886 1.026902
vt 0.021551 1.163020
vt 0.021409 1.026902
vt 0.698882 1.163704
vt 0.698882 1.002377
vt 0.998102 1.163704
vt 0.998102 1.002377
vt 0.159141 1.341989
vt 0.159141 1.314986
vt 0.454370 1.341989
vt 0.454370 1.314986
vt 0.674142 1.026654
vt 0.674142 1.163072
vt 0.021618 1.026654
vt 0.021618 1.163072
vt 0.674090 1.000460
vt 0.674090 1.026851
vt 0.021276 1.000460
vt 0.021276 1.026768
vt 0.666255 1.685000
vt 0.666304 1.491423
vt 0.998813 1.685000
vt 0.998713 1.491618
vt 0.970938 1.498645
vt 0.679018 1.498645
vt 0.970938 1.686846
vt 0.679018 1.686846
vt 0.697335 1.163294
vt 0.697335 1.003104
vt 0.997296 1.163294
vt 0.997296 1.003103
vt 0.655685 1.685000
vt 0.655685 1.721096
vt 0.003161 1.685000
vt 0.003161 1.721096
vt 0.661847 1.490778
vt 0.661847 1.685000
vt 0.001128 1.490778
vt 0.001128 1.685000
vt 0.664360 1.722901
vt 0.748145 1.959533
vt 0.686811 1.859521
vt 0.831930 1.996140
vt 0.915715 1.959533
vt 0.977050 1.859520
vt 0.999500 1.722901
vt 0.661124 1.724705
vt 0.003110 1.859426
vt 0.003110 1.724705
vt 0.661124 1.859426
vt 0.003110 1.958049
vt 0.661124 1.958049
vt 0.003110 1.994147
vt 0.661124 1.994147
vt 0.007703 1.994098
vt 0.664546 1.958693
vt 0.664546 1.994098
vt 0.007703 1.958693
vt 0.664546 1.861966
vt 0.007703 1.861966
vt 0.664546 1.729835
vt 0.007703 1.729835
vt 0.999501 1.726489
vt 0.977055 1.862690
vt 0.915732 1.962397
vt 0.831964 1.998892
vt 0.748196 1.962397
vt 0.686873 1.862690
vt 0.664427 1.726489
vt 0.999501 1.428251
vt 0.999501 1.458785
vt 0.999501 1.454674
vt 0.130000 1.418326
vt 0.130000 1.354918
vt 0.870000 1.418326
vt 0.870000 1.354918
vt 0.453220 1.177028
vt 0.480818 1.177044
vt 0.453220 1.285682
vt 0.480790 1.285650
vt 0.172421 1.285287
vt 0.172421 1.176908
vt 0.203211 1.285287
vt 0.203211 1.176908
vt 0.452904 1.177479
vt 0.452904 1.284000
vt 0.203576 1.177479
vt 0.203576 1.284000
vt 0.452998 1.166643
vt 0.452998 1.177479
vt 0.202806 1.166643
vt 0.202806 1.177479
vt 0.064068 1.224644
vt 0.128192 1.165391
vt 0.127599 1.224644
vt 0.064068 1.165374
vt 0.001000 1.165391
vt 0.001000 1.224644
vt 0.001000 1.283896
vt 0.064068 1.283914
vt 0.128192 1.283896
vt 0.128253 1.180227
vt 0.171367 1.195029
vt 0.171368 1.180227
vt 0.128253 1.195029
vt 0.171367 1.209832
vt 0.128253 1.209831
vt 0.171367 1.224634
vt 0.128253 1.224634
vt 0.171367 1.239437
vt 0.128252 1.239436
vt 0.171367 1.254239
vt 0.128252 1.254239
vt 0.171366 1.269042
vt 0.128252 1.269041
vt 0.171366 1.283844
vt 0.128252 1.283844
vt 0.128253 1.165424
vt 0.171368 1.165425
vt 0.341183 1.076571
vt 0.691183 1.085027
vt 0.691183 1.000000
vt 0.341183 1.000000
vt -0.000756 1.000000
vt -0.000389 1.082611
vt -0.000756 1.160000
vt 0.341183 1.160000
vt 0.691183 1.160000
s 1
usemtl PITTENTA
f 1/1/1 2/2/2 3/3/2
f 1/1/1 4/4/1 2/2/2
f 4/4/3 5/5/3 2/2/3
f 4/4/3 6/6/3 5/5/3
f 6/6/4 3/3/4 5/5/4
f 6/6/4 1/1/4 3/3/4
f 7/7/5 8/8/5 9/9/5
f 10/10/5 9/9/5 8/8/5
f 11/11/3 12/12/3 13/13/3
f 14/14/3 13/13/3 12/12/3
f 10/15/6 8/16/6 11/17/6
f 12/18/6 11/17/6 8/16/6
f 9/19/7 10/20/7 13/21/7
f 11/22/7 13/21/7 10/20/7
f 7/23/8 9/24/8 14/25/8
f 13/26/8 14/25/8 9/24/8
f 8/27/9 7/28/9 12/29/9
f 14/30/9 12/29/9 7/28/9
f 15/31/5 16/32/5 17/33/5
f 18/34/5 17/33/5 16/32/5
f 19/35/3 20/36/3 21/37/3
f 22/38/3 21/37/3 20/36/3
f 17/39/7 18/40/7 21/41/7
f 19/42/7 21/41/7 18/40/7
f 15/43/10 17/44/10 22/45/10
f 21/46/10 22/45/10 17/44/10
f 16/47/9 15/48/9 20/49/9
f 22/50/9 20/49/9 15/48/9
f 23/51/5 24/52/5 25/53/11
f 23/51/5 26/54/5 24/52/5
f 23/51/5 27/55/5 26/54/5
f 23/51/5 28/56/5 27/55/5
f 23/51/5 29/57/5 28/56/5
f 23/58/12 30/59/12 31/60/12
f 23/58/12 25/61/12 30/59/12
f 25/61/13 32/62/14 30/59/13
f 25/61/13 24/63/14 32/62/14
f 24/63/14 33/64/8 32/62/14
f 24/63/14 26/65/8 33/64/8
f 26/66/8 34/67/15 33/68/8
f 26/66/8 27/69/15 34/67/15
f 27/69/15 35/70/16 34/67/15
f 27/69/15 28/71/16 35/70/16
f 28/71/17 36/72/17 35/70/17
f 28/71/17 29/73/17 36/72/17
f 31/74/3 30/75/3 32/76/18
f 31/74/3 32/76/18 33/77/3
f 31/74/3 33/77/3 34/78/3
f 31/74/3 34/78/3 35/79/3
f 31/74/3 35/79/3 36/80/3
f 37/1/19 38/2/19 39/3/19
f 37/1/19 40/4/19 38/2/19
f 40/4/3 41/5/3 38/2/3
f 40/4/3 42/6/3 41/5/3
f 42/6/20 39/3/20 41/5/20
f 42/6/20 37/1/20 39/3/20
f 43/1/19 44/81/19 45/82/19
f 43/1/19 46/4/19 44/81/19
f 46/4/3 47/83/3 44/81/3
f 46/4/3 48/6/3 47/83/3
f 48/6/20 45/82/20 47/83/20
f 48/6/20 43/1/20 45/82/20
f 49/1/19 50/81/19 51/82/19
f 49/1/19 52/4/19 50/81/19
f 52/4/3 53/83/3 50/81/3
f 52/4/3 54/6/3 53/83/3
f 54/6/20 51/82/20 53/83/20
f 54/6/20 49/1/20 51/82/20
f 55/1/21 56/81/22 57/82/22
f 55/1/21 58/4/21 56/81/22
f 58/4/3 59/83/18 56/81/23
f 58/4/3 60/6/3 59/83/18
f 60/6/24 57/82/25 59/83/26
f 60/6/24 55/1/27 57/82/25
f 61/1/1 62/2/2 63/3/2
f 61/1/1 64/4/1 62/2/2
f 64/4/3 65/5/3 62/2/3
f 64/4/3 66/6/3 65/5/3
f 66/6/4 63/3/4 65/5/4
f 66/6/4 61/1/4 63/3/4
f 67/1/28 68/81/29 69/82/29
f 67/1/28 70/4/28 68/81/29
f 70/4/3 71/83/30 68/81/30
f 70/4/3 72/6/3 71/83/30
f 72/6/31 69/82/32 71/83/33
f 72/6/31 67/1/34 69/82/32
f 73/84/9 74/85/9 75/86/9
f 76/87/9 75/86/9 74/85/9
f 77/84/9 78/85/9 79/86/9
f 80/87/9 79/86/9 78/85/9
f 81/85/3 82/84/3 83/86/3
f 83/86/3 84/87/3 81/85/3
f 85/84/5 86/85/5 87/86/5
f 88/87/5 87/86/5 86/85/5
f 89/84/9 90/85/9 91/86/9
f 92/87/9 91/86/9 90/85/9
f 93/84/9 94/85/9 95/86/9
f 96/87/9 95/86/9 94/85/9
f 97/88/5 98/89/5 99/90/5
f 100/91/5 99/90/5 98/89/5
f 101/92/3 102/93/3 103/94/3
f 104/95/3 103/94/3 102/93/3
f 97/96/35 99/97/35 104/98/35
f 103/99/35 104/98/35 99/97/35
f 98/100/9 97/101/9 102/102/36
f 104/103/36 102/102/36 97/101/9
f 105/88/5 106/89/5 107/90/5
f 108/91/5 107/90/5 106/89/5
f 109/92/3 110/93/3 111/94/3
f 112/95/3 111/94/3 110/93/3
f 105/96/35 107/97/35 112/98/35
f 111/99/35 112/98/35 107/97/35
f 106/100/9 105/101/9 110/102/9
f 112/103/9 110/102/9 105/101/9
f 113/84/6 114/85/6 115/86/6
f 116/87/6 115/86/6 114/85/6
f 117/84/6 118/85/6 119/86/6
f 120/87/6 119/86/6 118/85/6
f 121/84/6 122/85/6 123/86/6
f 124/87/6 123/86/6 122/85/6
f 125/84/6 126/85/6 127/86/6
f 128/87/6 127/86/6 126/85/6
f 129/84/6 130/85/6 131/86/6
f 132/87/6 131/86/6 130/85/6
f 133/84/6 134/85/6 135/86/6
f 136/87/6 135/86/6 134/85/6
f 137/84/6 138/85/6 139/86/6
f 140/87/6 139/86/6 138/85/6
f 141/104/8 142/105/8 143/106/8
f 141/104/8 144/107/8 142/105/8
f 141/104/8 145/108/8 144/107/8
f 141/104/8 146/109/8 145/108/8
f 141/104/8 147/110/8 146/109/8
f 141/104/8 148/111/8 147/110/8
f 141/104/8 149/112/8 148/111/8
f 141/104/8 143/106/8 149/112/8
f 143/113/37 150/114/37 151/115/37
f 143/113/37 142/116/37 150/114/37
f 142/116/38 152/117/38 150/114/38
f 142/116/38 144/118/38 152/117/38
f 144/118/39 153/119/39 152/117/39
f 144/118/39 145/120/39 153/119/39
f 145/120/40 154/121/40 153/119/40
f 145/120/40 146/122/40 154/121/40
f 146/122/41 155/123/41 154/121/41
f 146/122/41 147/124/41 155/123/41
f 147/124/42 156/125/42 155/123/42
f 147/124/42 148/126/42 156/125/42
f 148/126/43 157/127/43 156/125/44
f 148/126/43 149/128/43 157/127/43
f 149/129/45 151/115/45 157/130/45
f 149/129/45 143/113/45 151/115/45
f 158/131/6 151/132/6 150/133/6
f 158/131/6 150/133/6 152/134/6
f 158/131/6 152/134/6 153/135/6
f 158/131/6 153/135/6 154/136/6
f 158/131/6 154/136/6 155/137/6
f 158/131/6 155/137/6 156/138/6
f 158/131/6 156/138/6 157/139/6
f 158/131/6 157/139/6 151/132/6
f 159/1/2 160/81/2 161/82/2
f 159/1/2 162/4/2 160/81/2
f 162/4/3 163/83/3 160/81/3
f 162/4/3 164/6/3 163/83/3
f 164/6/46 161/82/46 163/83/46
f 164/6/46 159/1/46 161/82/46
f 165/104/8 166/105/8 167/106/8
f 165/104/8 168/107/8 166/105/8
f 165/104/8 169/108/8 168/107/8
f 165/104/8 170/109/8 169/108/8
f 165/104/8 171/110/8 170/109/8
f 165/104/8 172/111/8 171/110/8
f 165/104/8 173/112/8 172/111/8
f 165/104/8 167/106/8 173/112/8
f 167/113/47 174/114/47 175/115/47
f 167/113/47 166/116/47 174/114/47
f 166/116/48 176/117/48 174/114/48
f 166/116/48 168/118/48 176/117/48
f 168/118/49 177/119/49 176/117/49
f 168/118/49 169/120/49 177/119/49
f 169/120/50 178/121/50 177/119/50
f 169/120/50 170/122/50 178/121/50
f 170/122/51 179/123/51 178/121/51
f 170/122/51 171/124/51 179/123/51
f 171/124/52 180/125/52 179/123/52
f 171/124/52 172/126/52 180/125/52
f 172/126/53 181/127/53 180/125/53
f 172/126/53 173/128/53 181/127/53
f 173/129/54 175/115/54 181/130/54
f 173/129/54 167/113/54 175/115/54
f 182/131/6 175/132/6 174/133/6
f 182/131/6 174/133/6 176/134/6
f 182/131/6 176/134/6 177/135/6
f 182/131/6 177/135/6 178/136/6
f 182/131/6 178/136/6 179/137/6
f 182/131/6 179/137/6 180/138/6
f 182/131/6 180/138/6 181/139/6
f 182/131/6 181/139/6 175/132/6
f 183/1/55 184/81/55 185/82/55
f 183/1/55 186/4/55 184/81/55
f 186/4/56 187/83/56 184/81/57
f 186/4/56 188/6/56 187/83/56
f 188/6/58 185/82/58 187/83/58
f 188/6/58 183/1/58 185/82/58
f 189/104/8 190/105/8 191/106/8
f 189/104/8 192/107/8 190/105/8
f 189/104/8 193/108/8 192/107/8
f 189/104/8 194/109/8 193/108/8
f 189/104/8 195/110/8 194/109/8
f 189/104/8 196/111/8 195/110/8
f 189/104/8 197/112/8 196/111/8
f 189/104/8 191/106/8 197/112/8
f 191/113/59 198/114/60 199/115/59
f 191/113/59 190/116/60 198/114/60
f 190/116/61 200/117/61 198/114/61
f 190/116/61 192/118/61 200/117/61
f 192/118/62 201/119/62 200/117/62
f 192/118/62 193/120/62 201/119/62
f 193/120/63 202/121/63 201/119/63
f 193/120/63 194/122/63 202/121/63
f 194/122/64 203/123/64 202/121/64
f 194/122/64 195/124/65 203/123/64
f 195/124/66 204/125/66 203/123/66
f 195/124/66 196/126/66 204/125/66
f 196/126/67 205/127/67 204/125/67
f 196/126/67 197/128/67 205/127/67
f 197/129/68 199/115/68 205/130/68
f 197/129/68 191/113/68 199/115/68
f 206/131/6 199/132/6 198/133/6
f 206/131/6 198/133/6 200/134/6
f 206/131/6 200/134/6 201/135/6
f 206/131/6 201/135/6 202/136/6
f 206/131/6 202/136/6 203/137/6
f 206/131/6 203/137/6 204/138/6
f 206/131/6 204/138/6 205/139/6
f 206/131/6 205/139/6 199/132/6
f 207/1/69 208/81/69 209/82/69
f 207/1/69 210/4/69 208/81/69
f 210/4/70 211/83/70 208/81/70
f 210/4/70 212/6/70 211/83/70
f 212/6/71 209/82/71 211/83/71
f 212/6/71 207/1/71 209/82/71
f 213/104/8 214/105/8 215/106/8
f 213/104/8 216/107/8 214/105/8
f 213/104/8 217/108/8 216/107/8
f 213/104/8 218/109/8 217/108/8
f 213/104/8 219/110/8 218/109/8
f 213/104/8 220/111/8 219/110/8
f 213/104/8 221/112/8 220/111/8
f 213/104/8 215/106/8 221/112/8
f 215/113/72 222/114/72 223/115/72
f 215/113/72 214/116/72 222/114/72
f 214/116/73 224/117/73 222/114/73
f 214/116/73 216/118/73 224/117/73
f 216/118/74 225/119/74 224/117/74
f 216/118/74 217/120/74 225/119/74
f 217/120/75 226/121/75 225/119/75
f 217/120/75 218/122/75 226/121/75
f 218/122/76 227/123/76 226/121/76
f 218/122/76 219/124/76 227/123/76
f 219/124/77 228/125/77 227/123/77
f 219/124/77 220/126/77 228/125/77
f 220/126/78 229/127/78 228/125/78
f 220/126/78 221/128/78 229/127/78
f 221/129/79 223/115/79 229/130/79
f 221/129/79 215/113/79 223/115/79
f 230/131/6 223/132/6 222/133/6
f 230/131/6 222/133/6 224/134/6
f 230/131/6 224/134/6 225/135/6
f 230/131/6 225/135/6 226/136/6
f 230/131/6 226/136/6 227/137/6
f 230/131/6 227/137/6 228/138/6
f 230/131/6 228/138/6 229/139/6
f 230/131/6 229/139/6 223/132/6
f 231/1/80 232/81/80 233/82/80
f 231/1/80 234/4/80 232/81/80
f 234/4/81 235/83/81 232/81/81
f 234/4/81 236/6/81 235/83/81
f 236/6/82 233/82/82 235/83/82
f 236/6/82 231/1/82 233/82/82
f 237/1/1 238/2/2 239/3/2
f 237/1/1 240/4/1 238/2/2
f 240/4/3 241/5/3 238/2/3
f 240/4/3 242/6/3 241/5/3
f 242/6/4 239/3/4 241/5/4
f 242/6/4 237/1/4 239/3/4
f 243/7/5 244/8/5 245/9/5
f 246/10/5 245/9/5 244/8/5
f 247/11/3 248/12/3 249/13/3
f 250/14/3 249/13/3 248/12/3
f 246/15/6 244/16/6 247/17/6
f 248/18/6 247/17/6 244/16/6
f 245/19/7 246/20/7 249/21/7
f 247/22/7 249/21/7 246/20/7
f 243/23/8 245/24/8 250/25/8
f 249/26/8 250/25/8 245/24/8
f 244/27/9 243/28/9 248/29/9
f 250/30/9 248/29/9 243/28/9
f 251/31/5 252/32/5 253/33/5
f 254/34/5 253/33/5 252/32/5
f 255/35/3 256/36/3 257/37/3
f 258/38/3 257/37/3 256/36/3
f 253/39/7 254/40/7 257/41/7
f 255/42/7 257/41/7 254/40/7
f 251/43/10 253/44/10 258/45/10
f 257/46/10 258/45/10 253/44/10
f 252/47/9 251/48/9 256/49/9
f 258/50/9 256/49/9 251/48/9
f 259/51/5 260/52/5 261/53/5
f 259/51/5 262/54/5 260/52/5
f 259/51/5 263/55/5 262/54/5
f 259/51/5 264/56/5 263/55/5
f 259/51/5 265/57/5 264/56/5
f 259/58/12 266/59/12 267/60/12
f 259/58/12 261/61/12 266/59/12
f 261/61/13 268/62/14 266/59/13
f 261/61/13 260/63/14 268/62/14
f 260/63/14 269/64/8 268/62/14
f 260/63/14 262/65/8 269/64/8
f 262/66/8 270/67/15 269/68/8
f 262/66/8 263/69/15 270/67/15
f 263/69/15 271/70/16 270/67/15
f 263/69/15 264/71/16 271/70/16
f 264/71/17 272/72/17 271/70/17
f 264/71/17 265/73/17 272/72/17
f 267/74/3 266/75/3 268/76/3
f 267/74/3 268/76/3 269/77/3
f 267/74/3 269/77/3 270/78/3
f 267/74/3 270/78/3 271/79/3
f 267/74/3 271/79/3 272/80/3
f 273/1/1 274/2/2 275/3/2
f 273/1/1 276/4/1 274/2/2
f 276/4/3 277/5/3 274/2/3
f 276/4/3 278/6/3 277/5/3
f 278/6/4 275/3/4 277/5/4
f 278/6/4 273/1/4 275/3/4
f 279/1/1 280/81/2 281/82/2
f 279/1/1 282/4/1 280/81/2
f 282/4/3 283/83/3 280/81/3
f 282/4/3 284/6/3 283/83/3
f 284/6/4 281/82/4 283/83/4
f 284/6/4 279/1/4 281/82/4
f 285/1/1 286/81/2 287/82/2
f 285/1/1 288/4/1 286/81/2
f 288/4/3 289/83/3 286/81/3
f 288/4/3 290/6/3 289/83/3
f 290/6/4 287/82/4 289/83/4
f 290/6/4 285/1/4 287/82/4
f 291/1/28 292/81/83 293/82/83
f 291/1/28 294/4/28 292/81/83
f 294/4/3 295/83/23 292/81/23
f 294/4/3 296/6/3 295/83/23
f 296/6/84 293/82/85 295/83/86
f 296/6/84 291/1/87 293/82/85
f 297/1/1 298/2/1 299/3/1
f 297/1/1 300/4/1 298/2/1
f 300/4/3 301/5/3 298/2/3
f 300/4/3 302/6/3 301/5/3
f 302/6/4 299/3/4 301/5/4
f 302/6/4 297/1/4 299/3/4
f 303/1/29 304/81/88 305/82/88
f 303/1/29 306/4/29 304/81/88
f 306/4/3 307/83/3 304/81/3
f 306/4/3 308/6/3 307/83/3
f 308/6/84 305/82/89 307/83/90
f 308/6/84 303/1/87 305/82/89
f 309/84/9 310/85/9 311/86/9
f 312/87/9 311/86/9 310/85/9
f 313/84/9 314/85/9 315/86/9
f 316/87/9 315/86/9 314/85/9
f 317/85/3 318/84/3 319/86/3
f 319/86/3 320/87/3 317/85/3
f 321/84/5 322/85/5 323/86/5
f 324/87/5 323/86/5 322/85/5
f 325/84/9 326/85/9 327/86/9
f 328/87/9 327/86/9 326/85/9
f 329/84/9 330/85/9 331/86/9
f 332/87/9 331/86/9 330/85/9
f 333/88/5 334/89/5 335/90/5
f 336/91/5 335/90/5 334/89/5
f 337/92/3 338/93/3 339/94/3
f 340/95/3 339/94/3 338/93/3
f 333/96/35 335/97/35 340/98/35
f 339/99/35 340/98/35 335/97/35
f 334/100/9 333/101/9 338/102/36
f 340/103/36 338/102/36 333/101/9
f 341/88/5 342/89/5 343/90/5
f 344/91/5 343/90/5 342/89/5
f 345/92/3 346/93/3 347/94/3
f 348/95/3 347/94/3 346/93/3
f 341/96/35 343/97/35 348/98/35
f 347/99/35 348/98/35 343/97/35
f 342/100/9 341/101/9 346/102/9
f 348/103/9 346/102/9 341/101/9
f 349/84/6 350/85/6 351/86/6
f 352/87/6 351/86/6 350/85/6
f 353/84/6 354/85/6 355/86/6
f 356/87/6 355/86/6 354/85/6
f 357/84/6 358/85/6 359/86/6
f 360/87/6 359/86/6 358/85/6
f 361/84/6 362/85/6 363/86/6
f 364/87/6 363/86/6 362/85/6
f 365/84/6 366/85/6 367/86/6
f 368/87/6 367/86/6 366/85/6
f 369/84/6 370/85/6 371/86/6
f 372/87/6 371/86/6 370/85/6
f 373/84/6 374/85/6 375/86/6
f 376/87/6 375/86/6 374/85/6
f 377/104/8 378/105/8 379/106/8
f 377/104/8 380/107/8 378/105/8
f 377/104/8 381/108/8 380/107/8
f 377/104/8 382/109/8 381/108/8
f 377/104/8 383/110/8 382/109/8
f 377/104/8 384/111/8 383/110/8
f 377/104/8 385/112/8 384/111/8
f 377/104/8 379/106/8 385/112/8
f 379/113/91 386/114/91 387/115/91
f 379/113/91 378/116/91 386/114/91
f 378/116/92 388/117/92 386/114/92
f 378/116/92 380/118/92 388/117/92
f 380/118/93 389/119/93 388/117/93
f 380/118/93 381/120/93 389/119/93
f 381/120/94 390/121/94 389/119/94
f 381/120/94 382/122/94 390/121/94
f 382/122/95 391/123/95 390/121/95
f 382/122/95 383/124/95 391/123/95
f 383/124/96 392/125/96 391/123/96
f 383/124/96 384/126/42 392/125/96
f 384/126/44 393/127/44 392/125/44
f 384/126/44 385/128/43 393/127/44
f 385/129/97 387/115/97 393/130/97
f 385/129/97 379/113/97 387/115/97
f 394/131/6 387/132/6 386/133/6
f 394/131/6 386/133/6 388/134/6
f 394/131/6 388/134/6 389/135/6
f 394/131/6 389/135/6 390/136/6
f 394/131/6 390/136/6 391/137/6
f 394/131/6 391/137/6 392/138/6
f 394/131/6 392/138/6 393/139/6
f 394/131/6 393/139/6 387/132/6
f 395/1/1 396/81/1 397/82/1
f 395/1/1 398/4/1 396/81/1
f 398/4/3 399/83/3 396/81/3
f 398/4/3 400/6/3 399/83/3
f 400/6/4 397/82/4 399/83/4
f 400/6/4 395/1/4 397/82/4
f 401/104/8 402/105/8 403/106/8
f 401/104/8 404/107/8 402/105/8
f 401/104/8 405/108/8 404/107/8
f 401/104/8 406/109/8 405/108/8
f 401/104/8 407/110/8 406/109/8
f 401/104/8 408/111/8 407/110/8
f 401/104/8 409/112/8 408/111/8
f 401/104/8 403/106/8 409/112/8
f 403/113/47 410/114/47 411/115/47
f 403/113/47 402/116/47 410/114/47
f 402/116/48 412/117/48 410/114/48
f 402/116/48 404/118/48 412/117/48
f 404/118/49 413/119/49 412/117/49
f 404/118/49 405/120/49 413/119/49
f 405/120/98 414/121/98 413/119/98
f 405/120/98 406/122/98 414/121/98
f 406/122/51 415/123/51 414/121/51
f 406/122/51 407/124/51 415/123/51
f 407/124/52 416/125/52 415/123/52
f 407/124/52 408/126/52 416/125/52
f 408/126/53 417/127/53 416/125/53
f 408/126/53 409/128/53 417/127/53
f 409/129/54 411/115/54 417/130/54
f 409/129/54 403/113/54 411/115/54
f 418/131/6 411/132/6 410/133/6
f 418/131/6 410/133/6 412/134/6
f 418/131/6 412/134/6 413/135/6
f 418/131/6 413/135/6 414/136/6
f 418/131/6 414/136/6 415/137/6
f 418/131/6 415/137/6 416/138/6
f 418/131/6 416/138/6 417/139/6
f 418/131/6 417/139/6 411/132/6
f 419/1/99 420/81/99 421/82/99
f 419/1/99 422/4/99 420/81/99
f 422/4/56 423/83/56 420/81/57
f 422/4/56 424/6/56 423/83/56
f 424/6/100 421/82/100 423/83/100
f 424/6/100 419/1/100 421/82/100
f 425/104/8 426/105/8 427/106/8
f 425/104/8 428/107/8 426/105/8
f 425/104/8 429/108/8 428/107/8
f 425/104/8 430/109/8 429/108/8
f 425/104/8 431/110/8 430/109/8
f 425/104/8 432/111/8 431/110/8
f 425/104/8 433/112/8 432/111/8
f 425/104/8 427/106/8 433/112/8
f 427/113/59 434/114/59 435/115/59
f 427/113/59 426/116/59 434/114/59
f 426/116/61 436/117/61 434/114/61
f 426/116/61 428/118/61 436/117/61
f 428/118/62 437/119/62 436/117/62
f 428/118/62 429/120/62 437/119/62
f 429/120/63 438/121/63 437/119/63
f 429/120/63 430/122/63 438/121/63
f 430/122/65 439/123/65 438/121/65
f 430/122/65 431/124/65 439/123/65
f 431/124/66 440/125/66 439/123/66
f 431/124/66 432/126/66 440/125/66
f 432/126/101 441/127/101 440/125/101
f 432/126/101 433/128/101 441/127/101
f 433/129/68 435/115/68 441/130/68
f 433/129/68 427/113/68 435/115/68
f 442/131/6 435/132/6 434/133/6
f 442/131/6 434/133/6 436/134/6
f 442/131/6 436/134/6 437/135/6
f 442/131/6 437/135/6 438/136/6
f 442/131/6 438/136/6 439/137/6
f 442/131/6 439/137/6 440/138/6
f 442/131/6 440/138/6 441/139/6
f 442/131/6 441/139/6 435/132/6
f 443/1/69 444/81/69 445/82/69
f 443/1/69 446/4/69 444/81/69
f 446/4/102 447/83/102 444/81/102
f 446/4/102 448/6/102 447/83/102
f 448/6/103 445/82/103 447/83/103
f 448/6/103 443/1/103 445/82/103
f 449/104/8 450/105/8 451/106/8
f 449/104/8 452/107/8 450/105/8
f 449/104/8 453/108/8 452/107/8
f 449/104/8 454/109/8 453/108/8
f 449/104/8 455/110/8 454/109/8
f 449/104/8 456/111/8 455/110/8
f 449/104/8 457/112/8 456/111/8
f 449/104/8 451/106/8 457/112/8
f 451/113/104 458/114/104 459/115/104
f 451/113/104 450/116/104 458/114/104
f 450/116/73 460/117/73 458/114/73
f 450/116/73 452/118/73 460/117/73
f 452/118/74 461/119/74 460/117/74
f 452/118/74 453/120/74 461/119/74
f 453/120/75 462/121/75 461/119/75
f 453/120/75 454/122/75 462/121/75
f 454/122/105 463/123/105 462/121/105
f 454/122/105 455/124/105 463/123/105
f 455/124/77 464/125/77 463/123/77
f 455/124/77 456/126/77 464/125/77
f 456/126/78 465/127/78 464/125/78
f 456/126/78 457/128/78 465/127/78
f 457/129/106 459/115/106 465/130/106
f 457/129/106 451/113/106 459/115/106
f 466/131/6 459/132/6 458/133/6
f 466/131/6 458/133/6 460/134/6
f 466/131/6 460/134/6 461/135/6
f 466/131/6 461/135/6 462/136/6
f 466/131/6 462/136/6 463/137/6
f 466/131/6 463/137/6 464/138/6
f 466/131/6 464/138/6 465/139/6
f 466/131/6 465/139/6 459/132/6
f 467/1/80 468/81/80 469/82/80
f 467/1/80 470/4/80 468/81/80
f 470/4/81 471/83/81 468/81/81
f 470/4/81 472/6/81 471/83/81
f 472/6/82 469/82/82 471/83/82
f 472/6/82 467/1/82 469/82/82
f 473/1/1 474/2/1 475/3/1
f 473/1/1 476/4/1 474/2/1
f 476/4/3 477/5/3 474/2/3
f 476/4/3 478/6/3 477/5/3
f 478/6/4 475/3/4 477/5/4
f 478/6/4 473/1/4 475/3/4
f 479/7/5 480/8/5 481/9/5
f 482/10/5 481/9/5 480/8/5
f 483/11/3 484/12/3 485/13/3
f 486/14/3 485/13/3 484/12/3
f 482/15/6 480/16/6 483/17/6
f 484/18/6 483/17/6 480/16/6
f 481/19/7 482/20/7 485/21/7
f 483/22/7 485/21/7 482/20/7
f 479/23/8 481/24/8 486/25/8
f 485/26/8 486/25/8 481/24/8
f 480/27/9 479/28/9 484/29/9
f 486/30/9 484/29/9 479/28/9
f 487/31/5 488/32/5 489/33/5
f 490/34/5 489/33/5 488/32/5
f 491/35/3 492/36/3 493/37/3
f 494/38/3 493/37/3 492/36/3
f 489/39/7 490/40/7 493/41/7
f 491/42/7 493/41/7 490/40/7
f 487/43/10 489/44/10 494/45/10
f 493/46/10 494/45/10 489/44/10
f 488/47/9 487/48/9 492/49/9
f 494/50/9 492/49/9 487/48/9
f 495/51/5 496/52/5 497/53/5
f 495/51/5 498/54/5 496/52/5
f 495/51/5 499/55/5 498/54/5
f 495/51/5 500/56/5 499/55/5
f 495/51/5 501/57/5 500/56/5
f 495/58/12 502/59/12 503/60/12
f 495/58/12 497/61/12 502/59/12
f 497/61/13 504/62/14 502/59/13
f 497/61/13 496/63/14 504/62/14
f 496/63/14 505/64/8 504/62/14
f 496/63/14 498/65/8 505/64/8
f 498/66/8 506/67/15 505/68/8
f 498/66/8 499/69/15 506/67/15
f 499/69/15 507/70/16 506/67/15
f 499/69/15 500/71/16 507/70/16
f 500/71/17 508/72/17 507/70/17
f 500/71/17 501/73/17 508/72/17
f 503/74/3 502/75/3 504/76/3
f 503/74/3 504/76/3 505/77/3
f 503/74/3 505/77/3 506/78/3
f 503/74/3 506/78/3 507/79/3
f 503/74/3 507/79/3 508/80/3
f 509/1/1 510/2/1 511/3/1
f 509/1/1 512/4/1 510/2/1
f 512/4/3 513/5/3 510/2/3
f 512/4/3 514/6/3 513/5/3
f 514/6/4 511/3/4 513/5/4
f 514/6/4 509/1/4 511/3/4
f 515/1/1 516/81/1 517/82/1
f 515/1/1 518/4/1 516/81/1
f 518/4/3 519/83/3 516/81/3
f 518/4/3 520/6/3 519/83/3
f 520/6/4 517/82/4 519/83/4
f 520/6/4 515/1/4 517/82/4
f 521/1/1 522/81/1 523/82/1
f 521/1/1 524/4/1 522/81/1
f 524/4/3 525/83/3 522/81/3
f 524/4/3 526/6/3 525/83/3
f 526/6/4 523/82/4 525/83/4
f 526/6/4 521/1/4 523/82/4
f 527/1/107 528/81/107 529/82/107
f 527/1/107 530/4/107 528/81/107
f 530/4/3 531/83/3 528/81/3
f 530/4/3 532/6/3 531/83/3
f 532/6/108 529/82/89 531/83/90
f 532/6/108 527/1/109 529/82/89
f 533/1/1 534/2/1 535/3/1
f 533/1/1 536/4/1 534/2/1
f 536/4/3 537/5/3 534/2/3
f 536/4/3 538/6/3 537/5/3
f 538/6/4 535/3/4 537/5/4
f 538/6/4 533/1/4 535/3/4
f 539/1/107 540/81/107 541/82/107
f 539/1/107 542/4/107 540/81/107
f 542/4/18 543/83/3 540/81/3
f 542/4/18 544/6/18 543/83/3
f 544/6/108 541/82/110 543/83/111
f 544/6/108 539/1/112 541/82/110
f 545/84/9 546/85/9 547/86/9
f 548/87/9 547/86/9 546/85/9
f 549/84/9 550/85/9 551/86/9
f 552/87/9 551/86/9 550/85/9
f 553/85/3 554/84/3 555/86/3
f 555/86/3 556/87/3 553/85/3
f 557/84/5 558/85/5 559/86/5
f 560/87/5 559/86/5 558/85/5
f 561/84/9 562/85/9 563/86/9
f 564/87/9 563/86/9 562/85/9
f 565/84/9 566/85/9 567/86/9
f 568/87/9 567/86/9 566/85/9
f 569/88/5 570/89/5 571/90/5
f 572/91/5 571/90/5 570/89/5
f 573/92/3 574/93/3 575/94/3
f 576/95/113 575/94/3 574/93/113
f 569/96/35 571/97/35 576/98/35
f 575/99/35 576/98/35 571/97/35
f 570/100/9 569/101/9 574/102/36
f 576/103/36 574/102/36 569/101/9
f 577/88/5 578/89/5 579/90/5
f 580/91/5 579/90/5 578/89/5
f 581/92/3 582/93/3 583/94/3
f 584/95/3 583/94/3 582/93/3
f 577/96/35 579/97/35 584/98/35
f 583/99/35 584/98/35 579/97/35
f 578/100/9 577/101/9 582/102/9
f 584/103/9 582/102/9 577/101/9
f 585/84/6 586/85/6 587/86/6
f 588/87/6 587/86/6 586/85/6
f 589/84/6 590/85/6 591/86/6
f 592/87/6 591/86/6 590/85/6
f 593/84/6 594/85/6 595/86/6
f 596/87/6 595/86/6 594/85/6
f 597/84/6 598/85/6 599/86/6
f 600/87/6 599/86/6 598/85/6
f 601/84/6 602/85/6 603/86/6
f 604/87/6 603/86/6 602/85/6
f 605/84/6 606/85/6 607/86/6
f 608/87/6 607/86/6 606/85/6
f 609/84/6 610/85/6 611/86/6
f 612/87/6 611/86/6 610/85/6
f 613/104/8 614/105/8 615/106/8
f 613/104/8 616/107/8 614/105/8
f 613/104/8 617/108/8 616/107/8
f 613/104/8 618/109/8 617/108/8
f 613/104/8 619/110/8 618/109/8
f 613/104/8 620/111/8 619/110/8
f 613/104/8 621/112/8 620/111/8
f 613/104/8 615/106/8 621/112/8
f 615/113/114 622/114/114 623/115/114
f 615/113/114 614/116/114 622/114/114
f 614/116/92 624/117/92 622/114/92
f 614/116/92 616/118/92 624/117/92
f 616/118/39 625/119/39 624/117/39
f 616/118/39 617/120/39 625/119/39
f 617/120/40 626/121/40 625/119/40
f 617/120/40 618/122/40 626/121/40
f 618/122/41 627/123/41 626/121/41
f 618/122/41 619/124/41 627/123/41
f 619/124/96 628/125/42 627/123/96
f 619/124/96 620/126/42 628/125/42
f 620/126/44 629/127/43 628/125/44
f 620/126/44 621/128/43 629/127/43
f 621/129/115 623/115/115 629/130/115
f 621/129/115 615/113/115 623/115/115
f 630/131/6 623/132/6 622/133/6
f 630/131/6 622/133/6 624/134/6
f 630/131/6 624/134/6 625/135/6
f 630/131/6 625/135/6 626/136/6
f 630/131/6 626/136/6 627/137/6
f 630/131/6 627/137/6 628/138/6
f 630/131/6 628/138/6 629/139/6
f 630/131/6 629/139/6 623/132/6
f 631/1/1 632/81/1 633/82/1
f 631/1/1 634/4/1 632/81/1
f 634/4/3 635/83/3 632/81/3
f 634/4/3 636/6/3 635/83/3
f 636/6/4 633/82/4 635/83/4
f 636/6/4 631/1/4 633/82/4
f 637/104/8 638/105/8 639/106/8
f 637/104/8 640/107/8 638/105/8
f 637/104/8 641/108/8 640/107/8
f 637/104/8 642/109/8 641/108/8
f 637/104/8 643/110/8 642/109/8
f 637/104/8 644/111/8 643/110/8
f 637/104/8 645/112/8 644/111/8
f 637/104/8 639/106/8 645/112/8
f 639/113/47 646/114/47 647/115/47
f 639/113/47 638/116/47 646/114/47
f 638/116/48 648/117/48 646/114/48
f 638/116/48 640/118/48 648/117/48
f 640/118/49 649/119/49 648/117/49
f 640/118/49 641/120/49 649/119/49
f 641/120/116 650/121/116 649/119/116
f 641/120/116 642/122/116 650/121/116
f 642/122/51 651/123/51 650/121/51
f 642/122/51 643/124/51 651/123/51
f 643/124/52 652/125/52 651/123/52
f 643/124/52 644/126/52 652/125/52
f 644/126/53 653/127/53 652/125/53
f 644/126/53 645/128/53 653/127/53
f 645/129/117 647/115/117 653/130/117
f 645/129/117 639/113/118 647/115/117
f 654/131/6 647/132/6 646/133/6
f 654/131/6 646/133/6 648/134/6
f 654/131/6 648/134/6 649/135/6
f 654/131/6 649/135/6 650/136/6
f 654/131/6 650/136/6 651/137/6
f 654/131/6 651/137/6 652/138/6
f 654/131/6 652/138/6 653/139/6
f 654/131/6 653/139/6 647/132/6
f 655/1/55 656/81/99 657/82/99
f 655/1/55 658/4/55 656/81/99
f 658/4/56 659/83/56 656/81/57
f 658/4/56 660/6/56 659/83/56
f 660/6/100 657/82/100 659/83/100
f 660/6/100 655/1/100 657/82/100
f 661/104/8 662/105/8 663/106/8
f 661/104/8 664/107/8 662/105/8
f 661/104/8 665/108/8 664/107/8
f 661/104/8 666/109/8 665/108/8
f 661/104/8 667/110/8 666/109/8
f 661/104/8 668/111/8 667/110/8
f 661/104/8 669/112/8 668/111/8
f 661/104/8 663/106/8 669/112/8
f 663/113/59 670/114/59 671/115/59
f 663/113/59 662/116/59 670/114/59
f 662/116/61 672/117/61 670/114/61
f 662/116/61 664/118/61 672/117/61
f 664/118/119 673/119/119 672/117/119
f 664/118/119 665/120/119 673/119/119
f 665/120/63 674/121/63 673/119/63
f 665/120/63 666/122/63 674/121/63
f 666/122/65 675/123/65 674/121/65
f 666/122/65 667/124/65 675/123/65
f 667/124/66 676/125/66 675/123/66
f 667/124/66 668/126/66 676/125/66
f 668/126/101 677/127/101 676/125/101
f 668/126/101 669/128/101 677/127/101
f 669/129/68 671/115/68 677/130/68
f 669/129/68 663/113/68 671/115/68
f 678/131/6 671/132/6 670/133/6
f 678/131/6 670/133/6 672/134/6
f 678/131/6 672/134/6 673/135/6
f 678/131/6 673/135/6 674/136/6
f 678/131/6 674/136/6 675/137/6
f 678/131/6 675/137/6 676/138/6
f 678/131/6 676/138/6 677/139/6
f 678/131/6 677/139/6 671/132/6
f 679/1/69 680/81/69 681/82/69
f 679/1/69 682/4/69 680/81/69
f 682/4/70 683/83/70 680/81/70
f 682/4/70 684/6/70 683/83/70
f 684/6/120 681/82/120 683/83/120
f 684/6/120 679/1/120 681/82/120
f 685/104/8 686/105/8 687/106/8
f 685/104/8 688/107/8 686/105/8
f 685/104/8 689/108/8 688/107/8
f 685/104/8 690/109/8 689/108/8
f 685/104/8 691/110/8 690/109/8
f 685/104/8 692/111/8 691/110/8
f 685/104/8 693/112/8 692/111/8
f 685/104/8 687/106/8 693/112/8
f 687/113/121 694/114/121 695/115/121
f 687/113/121 686/116/121 694/114/121
f 686/116/73 696/117/73 694/114/73
f 686/116/73 688/118/73 696/117/73
f 688/118/74 697/119/74 696/117/74
f 688/118/74 689/120/74 697/119/74
f 689/120/122 698/121/122 697/119/122
f 689/120/122 690/122/122 698/121/122
f 690/122/76 699/123/105 698/121/76
f 690/122/76 691/124/105 699/123/105
f 691/124/77 700/125/77 699/123/77
f 691/124/77 692/126/77 700/125/77
f 692/126/78 701/127/78 700/125/78
f 692/126/78 693/128/78 701/127/78
f 693/129/79 695/115/79 701/130/79
f 693/129/79 687/113/79 695/115/79
f 702/131/6 695/132/6 694/133/6
f 702/131/6 694/133/6 696/134/6
f 702/131/6 696/134/6 697/135/6
f 702/131/6 697/135/6 698/136/6
f 702/131/6 698/136/6 699/137/6
f 702/131/6 699/137/6 700/138/6
f 702/131/6 700/138/6 701/139/6
f 702/131/6 701/139/6 695/132/6
f 703/1/80 704/81/80 705/82/80
f 703/1/80 706/4/80 704/81/80
f 706/4/123 707/83/123 704/81/123
f 706/4/123 708/6/123 707/83/123
f 708/6/82 705/82/82 707/83/82
f 708/6/82 703/1/82 705/82/82
f 709/1/1 710/2/1 711/3/1
f 709/1/1 712/4/1 710/2/1
f 712/4/3 713/5/3 710/2/3
f 712/4/3 714/6/3 713/5/3
f 714/6/4 711/3/4 713/5/4
f 714/6/4 709/1/4 711/3/4
f 715/7/5 716/8/5 717/9/5
f 718/10/5 717/9/5 716/8/5
f 719/11/3 720/12/3 721/13/3
f 722/14/3 721/13/3 720/12/3
f 718/15/6 716/16/6 719/17/6
f 720/18/6 719/17/6 716/16/6
f 717/19/7 718/20/7 721/21/7
f 719/22/7 721/21/7 718/20/7
f 715/23/8 717/24/8 722/25/8
f 721/26/8 722/25/8 717/24/8
f 716/27/9 715/28/9 720/29/9
f 722/30/9 720/29/9 715/28/9
f 723/31/5 724/32/5 725/33/5
f 726/34/5 725/33/5 724/32/5
f 727/35/3 728/36/3 729/37/3
f 730/38/3 729/37/3 728/36/3
f 725/39/7 726/40/7 729/41/7
f 727/42/7 729/41/7 726/40/7
f 723/43/10 725/44/10 730/45/10
f 729/46/10 730/45/10 725/44/10
f 724/47/9 723/48/9 728/49/9
f 730/50/9 728/49/9 723/48/9
f 731/51/5 732/52/5 733/53/5
f 731/51/5 734/54/5 732/52/5
f 731/51/5 735/55/5 734/54/5
f 731/51/5 736/56/5 735/55/5
f 731/51/5 737/57/5 736/56/5
f 731/58/12 738/59/12 739/60/12
f 731/58/12 733/61/12 738/59/12
f 733/61/13 740/62/14 738/59/13
f 733/61/13 732/63/14 740/62/14
f 732/63/14 741/64/8 740/62/14
f 732/63/14 734/65/8 741/64/8
f 734/66/8 742/67/15 741/68/8
f 734/66/8 735/69/15 742/67/15
f 735/69/15 743/70/16 742/67/15
f 735/69/15 736/71/16 743/70/16
f 736/71/17 744/72/17 743/70/17
f 736/71/17 737/73/17 744/72/17
f 739/74/3 738/75/3 740/76/3
f 739/74/3 740/76/3 741/77/3
f 739/74/3 741/77/3 742/78/3
f 739/74/3 742/78/3 743/79/3
f 739/74/3 743/79/3 744/80/3
f 745/1/1 746/2/1 747/3/1
f 745/1/1 748/4/1 746/2/1
f 748/4/3 749/5/3 746/2/3
f 748/4/3 750/6/3 749/5/3
f 750/6/4 747/3/4 749/5/4
f 750/6/4 745/1/4 747/3/4
f 751/1/1 752/81/1 753/82/1
f 751/1/1 754/4/1 752/81/1
f 754/4/3 755/83/3 752/81/3
f 754/4/3 756/6/3 755/83/3
f 756/6/4 753/82/4 755/83/4
f 756/6/4 751/1/4 753/82/4
f 757/1/1 758/81/1 759/82/1
f 757/1/1 760/4/1 758/81/1
f 760/4/3 761/83/3 758/81/3
f 760/4/3 762/6/3 761/83/3
f 762/6/4 759/82/4 761/83/4
f 762/6/4 757/1/4 759/82/4
f 763/1/124 764/81/124 765/82/124
f 763/1/124 766/4/124 764/81/124
f 766/4/3 767/83/3 764/81/3
f 766/4/3 768/6/3 767/83/3
f 768/6/108 765/82/110 767/83/90
f 768/6/108 763/1/125 765/82/110
f 769/1/1 770/2/1 771/3/1
f 769/1/1 772/4/1 770/2/1
f 772/4/3 773/5/3 770/2/3
f 772/4/3 774/6/3 773/5/3
f 774/6/4 771/3/4 773/5/4
f 774/6/4 769/1/4 771/3/4
f 775/1/124 776/81/124 777/82/124
f 775/1/124 778/4/124 776/81/124
f 778/4/3 779/83/3 776/81/3
f 778/4/3 780/6/3 779/83/3
f 780/6/108 777/82/110 779/83/111
f 780/6/108 775/1/109 777/82/110
f 781/84/9 782/85/9 783/86/9
f 784/87/9 783/86/9 782/85/9
f 785/84/9 786/85/9 787/86/9
f 788/87/9 787/86/9 786/85/9
f 789/85/3 790/84/3 791/86/3
f 791/86/3 792/87/3 789/85/3
f 793/84/5 794/85/5 795/86/5
f 796/87/5 795/86/5 794/85/5
f 797/84/9 798/85/9 799/86/9
f 800/87/9 799/86/9 798/85/9
f 801/84/9 802/85/9 803/86/9
f 804/87/9 803/86/9 802/85/9
f 805/88/5 806/89/5 807/90/5
f 808/91/5 807/90/5 806/89/5
f 809/92/3 810/93/3 811/94/3
f 812/95/3 811/94/3 810/93/3
f 805/96/35 807/97/35 812/98/35
f 811/99/35 812/98/35 807/97/35
f 806/100/9 805/101/9 810/102/36
f 812/103/36 810/102/36 805/101/9
f 813/88/5 814/89/5 815/90/5
f 816/91/5 815/90/5 814/89/5
f 817/92/3 818/93/3 819/94/3
f 820/95/3 819/94/3 818/93/3
f 813/96/35 815/97/35 820/98/35
f 819/99/35 820/98/35 815/97/35
f 814/100/9 813/101/9 818/102/9
f 820/103/9 818/102/9 813/101/9
f 821/84/6 822/85/6 823/86/6
f 824/87/6 823/86/6 822/85/6
f 825/84/6 826/85/6 827/86/6
f 828/87/6 827/86/6 826/85/6
f 829/84/6 830/85/6 831/86/6
f 832/87/6 831/86/6 830/85/6
f 833/84/6 834/85/6 835/86/6
f 836/87/6 835/86/6 834/85/6
f 837/84/6 838/85/6 839/86/6
f 840/87/6 839/86/6 838/85/6
f 841/84/6 842/85/6 843/86/6
f 844/87/6 843/86/6 842/85/6
f 845/84/6 846/85/6 847/86/6
f 848/87/6 847/86/6 846/85/6
f 849/104/8 850/105/8 851/106/8
f 849/104/8 852/107/8 850/105/8
f 849/104/8 853/108/8 852/107/8
f 849/104/8 854/109/8 853/108/8
f 849/104/8 855/110/8 854/109/8
f 849/104/8 856/111/8 855/110/8
f 849/104/8 857/112/8 856/111/8
f 849/104/8 851/106/8 857/112/8
f 851/113/37 858/114/37 859/115/37
f 851/113/37 850/116/37 858/114/37
f 850/116/92 860/117/92 858/114/92
f 850/116/92 852/118/92 860/117/92
f 852/118/39 861/119/39 860/117/39
f 852/118/39 853/120/39 861/119/39
f 853/120/40 862/121/40 861/119/40
f 853/120/40 854/122/40 862/121/40
f 854/122/41 863/123/41 862/121/41
f 854/122/41 855/124/41 863/123/41
f 855/124/96 864/125/42 863/123/96
f 855/124/96 856/126/42 864/125/42
f 856/126/44 865/127/43 864/125/44
f 856/126/44 857/128/43 865/127/43
f 857/129/45 859/115/45 865/130/45
f 857/129/45 851/113/45 859/115/45
f 866/131/6 859/132/6 858/133/6
f 866/131/6 858/133/6 860/134/6
f 866/131/6 860/134/6 861/135/6
f 866/131/6 861/135/6 862/136/6
f 866/131/6 862/136/6 863/137/6
f 866/131/6 863/137/6 864/138/6
f 866/131/6 864/138/6 865/139/6
f 866/131/6 865/139/6 859/132/6
f 867/1/1 868/81/1 869/82/1
f 867/1/1 870/4/1 868/81/1
f 870/4/3 871/83/3 868/81/3
f 870/4/3 872/6/3 871/83/3
f 872/6/4 869/82/4 871/83/4
f 872/6/4 867/1/4 869/82/4
f 873/104/8 874/105/8 875/106/8
f 873/104/8 876/107/8 874/105/8
f 873/104/8 877/108/8 876/107/8
f 873/104/8 878/109/8 877/108/8
f 873/104/8 879/110/8 878/109/8
f 873/104/8 880/111/8 879/110/8
f 873/104/8 881/112/8 880/111/8
f 873/104/8 875/106/8 881/112/8
f 875/113/47 882/114/47 883/115/47
f 875/113/47 874/116/47 882/114/47
f 874/116/48 884/117/48 882/114/48
f 874/116/48 876/118/48 884/117/48
f 876/118/49 885/119/49 884/117/49
f 876/118/49 877/120/49 885/119/49
f 877/120/116 886/121/116 885/119/116
f 877/120/116 878/122/116 886/121/116
f 878/122/51 887/123/51 886/121/51
f 878/122/51 879/124/51 887/123/51
f 879/124/52 888/125/52 887/123/52
f 879/124/52 880/126/52 888/125/52
f 880/126/53 889/127/53 888/125/53
f 880/126/53 881/128/53 889/127/53
f 881/129/118 883/115/118 889/130/117
f 881/129/118 875/113/118 883/115/118
f 890/131/6 883/132/6 882/133/6
f 890/131/6 882/133/6 884/134/6
f 890/131/6 884/134/6 885/135/6
f 890/131/6 885/135/6 886/136/6
f 890/131/6 886/136/6 887/137/6
f 890/131/6 887/137/6 888/138/6
f 890/131/6 888/138/6 889/139/6
f 890/131/6 889/139/6 883/132/6
f 891/1/55 892/81/99 893/82/99
f 891/1/55 894/4/55 892/81/99
f 894/4/56 895/83/57 892/81/57
f 894/4/56 896/6/56 895/83/57
f 896/6/100 893/82/100 895/83/100
f 896/6/100 891/1/100 893/82/100
f 897/104/8 898/105/8 899/106/8
f 897/104/8 900/107/8 898/105/8
f 897/104/8 901/108/8 900/107/8
f 897/104/8 902/109/8 901/108/8
f 897/104/8 903/110/8 902/109/8
f 897/104/8 904/111/8 903/110/8
f 897/104/8 905/112/8 904/111/8
f 897/104/8 899/106/8 905/112/8
f 899/113/59 906/114/59 907/115/59
f 899/113/59 898/116/59 906/114/59
f 898/116/61 908/117/61 906/114/61
f 898/116/61 900/118/61 908/117/61
f 900/118/119 909/119/119 908/117/119
f 900/118/119 901/120/119 909/119/119
f 901/120/63 910/121/63 909/119/63
f 901/120/63 902/122/63 910/121/63
f 902/122/65 911/123/65 910/121/65
f 902/122/65 903/124/65 911/123/65
f 903/124/66 912/125/66 911/123/66
f 903/124/66 904/126/66 912/125/66
f 904/126/101 913/127/101 912/125/101
f 904/126/101 905/128/101 913/127/101
f 905/129/68 907/115/68 913/130/68
f 905/129/68 899/113/68 907/115/68
f 914/131/6 907/132/6 906/133/6
f 914/131/6 906/133/6 908/134/6
f 914/131/6 908/134/6 909/135/6
f 914/131/6 909/135/6 910/136/6
f 914/131/6 910/136/6 911/137/6
f 914/131/6 911/137/6 912/138/6
f 914/131/6 912/138/6 913/139/6
f 914/131/6 913/139/6 907/132/6
f 915/1/69 916/81/69 917/82/69
f 915/1/69 918/4/69 916/81/69
f 918/4/102 919/83/102 916/81/70
f 918/4/102 920/6/102 919/83/102
f 920/6/120 917/82/120 919/83/120
f 920/6/120 915/1/120 917/82/120
f 921/104/8 922/105/8 923/106/8
f 921/104/8 924/107/8 922/105/8
f 921/104/8 925/108/8 924/107/8
f 921/104/8 926/109/8 925/108/8
f 921/104/8 927/110/8 926/109/8
f 921/104/8 928/111/8 927/110/8
f 921/104/8 929/112/8 928/111/8
f 921/104/8 923/106/8 929/112/8
f 923/113/104 930/114/104 931/115/104
f 923/113/104 922/116/104 930/114/104
f 922/116/73 932/117/73 930/114/73
f 922/116/73 924/118/73 932/117/73
f 924/118/74 933/119/74 932/117/74
f 924/118/74 925/120/74 933/119/74
f 925/120/122 934/121/122 933/119/122
f 925/120/122 926/122/122 934/121/122
f 926/122/76 935/123/105 934/121/76
f 926/122/76 927/124/105 935/123/105
f 927/124/77 936/125/77 935/123/77
f 927/124/77 928/126/77 936/125/77
f 928/126/78 937/127/78 936/125/78
f 928/126/78 929/128/78 937/127/78
f 929/129/79 931/115/106 937/130/79
f 929/129/79 923/113/106 931/115/106
f 938/131/6 931/132/6 930/133/6
f 938/131/6 930/133/6 932/134/6
f 938/131/6 932/134/6 933/135/6
f 938/131/6 933/135/6 934/136/6
f 938/131/6 934/136/6 935/137/6
f 938/131/6 935/137/6 936/138/6
f 938/131/6 936/138/6 937/139/6
f 938/131/6 937/139/6 931/132/6
f 939/1/80 940/81/80 941/82/80
f 939/1/80 942/4/80 940/81/80
f 942/4/126 943/83/126 940/81/126
f 942/4/126 944/6/126 943/83/126
f 944/6/82 941/82/82 943/83/82
f 944/6/82 939/1/82 941/82/82
