# Blender 4.4.3
# www.blender.org
mtllib PTENTC.mtl
o PTENTC
v 71.588242 -0.243943 -9.556157
v 71.588242 -0.318637 -9.556157
v 71.588242 -0.243943 -9.008869
v 71.588242 -0.318637 -9.008869
v 74.458580 -0.318637 -9.008870
v 74.458580 -0.318637 -9.556157
v 74.458580 -0.243943 -9.008870
v 74.458580 -0.243943 -9.556157
v 73.425156 0.677622 -9.297347
v 73.425156 0.414275 -9.297341
v 73.425156 0.677628 -9.051456
v 73.425156 0.414281 -9.051451
v 74.396652 0.411835 -9.051451
v 74.396652 0.411830 -9.297341
v 74.396652 0.675182 -9.051456
v 74.396652 0.675177 -9.297347
v 71.588661 0.644248 -10.060724
v 71.588661 1.142679 -9.565190
v 71.588661 0.770583 -10.061274
v 71.588661 1.169651 -9.498899
v 71.588661 1.142679 -9.431849
v 71.588661 0.770583 -8.956497
v 71.588661 0.644248 -8.955657
v 74.457947 0.770583 -10.061275
v 74.457947 0.644248 -10.060725
v 74.457947 1.142679 -9.565190
v 74.457947 1.169651 -9.498899
v 74.457947 1.142679 -9.431850
v 74.457947 0.770583 -8.956497
v 74.457947 0.644248 -8.955657
v 71.595551 0.649319 -9.048951
v 71.640594 -1.264184 -9.074959
v 71.595551 -1.264184 -9.048951
v 71.640594 0.649319 -9.074959
v 71.640594 -1.264184 -9.022943
v 71.640594 0.649319 -9.022943
v 74.399834 0.649319 -9.048951
v 74.444885 -1.264184 -9.074959
v 74.399834 -1.264184 -9.048951
v 74.444885 0.649319 -9.074959
v 74.444885 -1.264184 -9.022943
v 74.444885 0.649319 -9.022943
v 74.422073 -0.380106 -9.048930
v 74.422073 -0.459737 -9.048930
v 71.622292 -0.380106 -9.048929
v 71.622292 -0.448611 -9.048929
v 74.422073 0.615410 -9.048930
v 74.422073 0.535778 -9.048930
v 71.622292 0.615410 -9.048929
v 71.622292 0.535778 -9.048929
v 74.432297 -0.459737 -9.549006
v 74.432297 -0.380106 -9.549006
v 74.432297 -0.380106 -9.063878
v 74.432297 -0.459737 -9.063878
v 71.629303 -0.380106 -9.549006
v 71.629303 -0.459737 -9.549006
v 71.629303 -0.380106 -9.063878
v 71.629303 -0.448611 -9.063878
v 73.022491 -0.233956 -9.531856
v 73.022491 -0.244136 -9.531856
v 73.022491 -0.208544 -9.318234
v 73.022491 -0.244136 -9.318234
v 73.687241 -0.247505 -9.318235
v 73.687241 -0.247505 -9.531856
v 73.687241 -0.211912 -9.318235
v 73.687241 -0.237324 -9.531856
v 71.746956 -0.233956 -9.537913
v 71.746956 -0.244136 -9.537913
v 71.666191 -0.208544 -9.340148
v 71.666191 -0.244136 -9.340148
v 72.281601 -0.247505 -9.088822
v 72.362366 -0.247505 -9.286588
v 72.281601 -0.211912 -9.088822
v 72.362366 -0.237324 -9.286588
v 74.422073 0.657995 -9.067658
v 74.422073 0.657995 -8.988028
v 71.622292 0.657995 -9.067658
v 71.622292 0.657995 -8.988027
v 74.422073 0.657995 -10.047716
v 74.422073 0.657995 -9.968085
v 71.622292 0.657995 -10.047716
v 71.622292 0.657995 -9.968085
v 72.982368 0.657995 -10.015859
v 73.061996 0.657995 -10.015859
v 72.982368 0.657995 -9.008624
v 73.061996 0.657995 -9.008624
v 74.392990 0.657995 -10.015859
v 74.472626 0.657995 -10.015859
v 74.392990 0.657995 -9.008624
v 74.472626 0.657995 -9.008624
v 71.622253 0.657995 -10.015859
v 71.701881 0.657995 -10.015859
v 71.622253 0.657995 -9.008624
v 71.701881 0.657995 -9.008624
v 72.264671 0.657995 -10.015859
v 72.344299 0.657995 -10.015859
v 72.264671 0.657995 -9.008624
v 72.344299 0.657995 -9.008624
v 73.723480 0.657995 -10.015859
v 73.803108 0.657995 -10.015859
v 73.723480 0.657995 -9.008624
v 73.803108 0.657995 -9.008624
v 71.990860 -0.587715 -9.959414
v 71.843864 -0.587715 -10.095279
v 71.782974 -0.587715 -9.959414
v 71.990860 -0.587715 -10.151556
v 72.137848 -0.587715 -10.095279
v 72.198738 -0.587715 -9.959414
v 72.137848 -0.587715 -9.823547
v 71.990860 -0.587715 -9.767270
v 71.843864 -0.587715 -9.823547
v 71.843864 -0.641326 -10.095279
v 71.782974 -0.641326 -9.959414
v 71.990860 -0.641326 -10.151556
v 72.137848 -0.641326 -10.095279
v 72.198738 -0.641326 -9.959414
v 72.137848 -0.641326 -9.823547
v 71.990860 -0.641326 -9.767270
v 71.843864 -0.641326 -9.823547
v 71.990860 -0.641326 -9.959414
v 71.963226 -0.619124 -9.949987
v 72.017288 -1.265104 -9.981198
v 71.963226 -1.265104 -9.949988
v 72.017288 -0.619124 -9.981197
v 72.017288 -1.265104 -9.918778
v 72.017288 -0.619124 -9.918777
v 73.375633 -0.576589 -9.959413
v 73.390579 -0.576589 -10.159021
v 73.246323 -0.576589 -10.122181
v 73.526077 -0.576589 -10.078934
v 73.573448 -0.576589 -9.928833
v 73.504944 -0.576589 -9.796645
v 73.360687 -0.576589 -9.759806
v 73.225189 -0.576589 -9.839892
v 73.177818 -0.576589 -9.989993
v 73.390579 -0.630200 -10.159021
v 73.246323 -0.630200 -10.122181
v 73.526077 -0.630200 -10.078934
v 73.573448 -0.630200 -9.928833
v 73.504944 -0.630200 -9.796645
v 73.360687 -0.630200 -9.759806
v 73.225189 -0.630200 -9.839892
v 73.177818 -0.630200 -9.989993
v 73.375633 -0.630200 -9.959413
v 73.361626 -0.607998 -9.978205
v 73.419685 -1.265104 -9.955294
v 73.361626 -1.265104 -9.978206
v 73.419685 -0.607998 -9.955294
v 73.370811 -1.265104 -9.916466
v 73.370811 -0.607998 -9.916466
v 72.633522 -0.617752 -9.959414
v 72.478043 -0.617752 -9.833348
v 72.603806 -0.617752 -9.753667
v 72.443352 -0.617752 -9.986877
v 72.520065 -0.617752 -10.124317
v 72.663239 -0.617752 -10.165159
v 72.789001 -0.617752 -10.085477
v 72.823692 -0.617752 -9.931949
v 72.746979 -0.617752 -9.794508
v 72.478043 -0.671363 -9.833348
v 72.603806 -0.671363 -9.753667
v 72.443352 -0.671363 -9.986877
v 72.520065 -0.671363 -10.124317
v 72.663239 -0.671363 -10.165159
v 72.789001 -0.671363 -10.085477
v 72.823692 -0.671363 -9.931949
v 72.746979 -0.671363 -9.794508
v 72.633522 -0.671363 -9.959414
v 72.636780 -0.649161 -9.914320
v 72.613617 -1.265104 -9.972282
v 72.636780 -1.265104 -9.914320
v 72.613617 -0.649161 -9.972282
v 72.675400 -1.265104 -9.963361
v 72.675400 -0.649161 -9.963361
v 74.014618 -0.597707 -9.959413
v 73.933533 -0.597707 -10.142422
v 73.823776 -0.597707 -10.041828
v 74.090797 -0.597707 -10.135811
v 74.203430 -0.597707 -10.025869
v 74.205467 -0.597707 -9.876999
v 74.095703 -0.597707 -9.776404
v 73.938446 -0.597707 -9.783014
v 73.825806 -0.597707 -9.892957
v 73.933533 -0.651318 -10.142422
v 73.823776 -0.651318 -10.041828
v 74.090797 -0.651318 -10.135811
v 74.203430 -0.651318 -10.025869
v 74.205467 -0.651318 -9.876999
v 74.095703 -0.651318 -9.776404
v 73.938446 -0.651318 -9.783014
v 73.825806 -0.651318 -9.892957
v 74.014618 -0.651318 -9.959413
v 73.989944 -0.629116 -9.964275
v 74.051949 -1.265104 -9.971497
v 73.989944 -1.265104 -9.964275
v 74.051949 -0.629116 -9.971497
v 74.027199 -1.265104 -9.914192
v 74.027199 -0.629116 -9.914191
v 71.595551 0.649319 -9.568106
v 71.640594 -1.264185 -9.594114
v 71.595551 -1.264185 -9.568106
v 71.640594 0.649319 -9.594114
v 71.640594 -1.264185 -9.542098
v 71.640594 0.649319 -9.542098
v 74.392471 0.649319 -9.568106
v 74.437515 -1.264185 -9.594114
v 74.392471 -1.264185 -9.568106
v 74.437515 0.649319 -9.594114
v 74.437515 -1.264185 -9.542098
v 74.437515 0.649319 -9.542098
v 74.422073 -0.435705 -9.048930
v 74.422073 -1.226358 -9.048930
v 71.622292 -0.435705 -9.048929
v 71.622292 -1.215232 -9.048929
v 71.673973 0.677622 -9.297347
v 71.673973 0.414275 -9.297341
v 71.673973 0.677628 -9.051456
v 71.673973 0.414281 -9.051450
v 72.645470 0.411835 -9.051450
v 72.645470 0.411830 -9.297341
v 72.645470 0.675182 -9.051455
v 72.645470 0.675177 -9.297347
v 74.432297 -1.244556 -9.549006
v 74.432297 -1.164925 -9.549006
v 74.432297 -1.164925 -9.063878
v 74.432297 -1.244556 -9.063878
v 71.629303 -1.164925 -9.549006
v 71.629303 -1.244556 -9.549006
v 71.629303 -1.164925 -9.063878
v 71.629303 -1.233430 -9.063878
v 71.629303 0.756519 -10.039376
v 71.629303 0.646498 -10.039376
v 71.629303 0.226893 -9.554248
v 71.629303 0.127998 -9.554248
v 74.415596 0.756519 -10.039377
v 74.415596 0.646498 -10.039377
v 74.415596 0.226893 -9.554249
v 74.415596 0.127998 -9.554249
v 72.510910 0.008526 -9.297347
v 72.510910 -0.254821 -9.297341
v 72.510910 0.008532 -9.051456
v 72.510910 -0.254815 -9.051450
v 73.482407 -0.257261 -9.051450
v 73.482407 -0.257266 -9.297341
v 73.482407 0.006086 -9.051455
v 73.482407 0.006081 -9.297347
v 127.517784 -0.243943 -9.556157
v 127.517784 -0.318637 -9.556157
v 127.517784 -0.243943 -9.008870
v 127.517784 -0.318637 -9.008870
v 130.388123 -0.318637 -9.008870
v 130.388123 -0.318637 -9.556158
v 130.388123 -0.243943 -9.008870
v 130.388123 -0.243943 -9.556158
v 129.354706 0.677622 -9.297347
v 129.354706 0.414275 -9.297341
v 129.354706 0.677628 -9.051456
v 129.354706 0.414281 -9.051451
v 130.326187 0.411835 -9.051451
v 130.326187 0.411830 -9.297342
v 130.326187 0.675182 -9.051456
v 130.326187 0.675177 -9.297348
v 127.518204 0.644248 -10.060724
v 127.518204 1.142679 -9.565190
v 127.518204 0.770583 -10.061275
v 127.518204 1.169651 -9.498900
v 127.518204 1.142679 -9.431849
v 127.518204 0.770583 -8.956497
v 127.518204 0.644248 -8.955657
v 130.387497 0.770583 -10.061275
v 130.387497 0.644248 -10.060725
v 130.387497 1.142679 -9.565190
v 130.387497 1.169651 -9.498900
v 130.387497 1.142679 -9.431850
v 130.387497 0.770583 -8.956497
v 130.387497 0.644248 -8.955657
v 127.525093 0.649319 -9.048951
v 127.570137 -1.264184 -9.074960
v 127.525093 -1.264184 -9.048951
v 127.570137 0.649319 -9.074960
v 127.570137 -1.264184 -9.022943
v 127.570137 0.649319 -9.022943
v 130.329376 0.649319 -9.048951
v 130.374420 -1.264184 -9.074960
v 130.329376 -1.264184 -9.048951
v 130.374420 0.649319 -9.074960
v 130.374420 -1.264184 -9.022943
v 130.374420 0.649319 -9.022943
v 130.351624 -0.380106 -9.048930
v 130.351624 -0.459737 -9.048930
v 127.551834 -0.380106 -9.048930
v 127.551834 -0.448611 -9.048930
v 130.351624 0.615410 -9.048930
v 130.351624 0.535778 -9.048930
v 127.551834 0.615410 -9.048930
v 127.551834 0.535778 -9.048930
v 130.361847 -0.459737 -9.549006
v 130.361847 -0.380106 -9.549006
v 130.361847 -0.380106 -9.063879
v 130.361847 -0.459737 -9.063879
v 127.558846 -0.380106 -9.549006
v 127.558846 -0.459737 -9.549006
v 127.558846 -0.380106 -9.063878
v 127.558846 -0.448611 -9.063878
v 128.952026 -0.233956 -9.531857
v 128.952026 -0.244136 -9.531857
v 128.952026 -0.208544 -9.318235
v 128.952026 -0.244136 -9.318235
v 129.616791 -0.247505 -9.318235
v 129.616791 -0.247505 -9.531857
v 129.616791 -0.211912 -9.318235
v 129.616791 -0.237324 -9.531857
v 127.676498 -0.233956 -9.537913
v 127.676498 -0.244136 -9.537913
v 127.595734 -0.208544 -9.340148
v 127.595734 -0.244136 -9.340148
v 128.211151 -0.247505 -9.088822
v 128.291916 -0.247505 -9.286588
v 128.211151 -0.211912 -9.088822
v 128.291916 -0.237324 -9.286588
v 130.351624 0.657995 -9.067658
v 130.351624 0.657995 -8.988028
v 127.551834 0.657995 -9.067658
v 127.551834 0.657995 -8.988028
v 130.351624 0.657995 -10.047717
v 130.351624 0.657995 -9.968085
v 127.551834 0.657995 -10.047716
v 127.551834 0.657995 -9.968085
v 128.911911 0.657995 -10.015859
v 128.991547 0.657995 -10.015859
v 128.911911 0.657995 -9.008624
v 128.991547 0.657995 -9.008624
v 130.322540 0.657995 -10.015860
v 130.402161 0.657995 -10.015860
v 130.322540 0.657995 -9.008625
v 130.402161 0.657995 -9.008625
v 127.551796 0.657995 -10.015859
v 127.631424 0.657995 -10.015859
v 127.551796 0.657995 -9.008624
v 127.631424 0.657995 -9.008624
v 128.194214 0.657995 -10.015859
v 128.273849 0.657995 -10.015859
v 128.194214 0.657995 -9.008624
v 128.273849 0.657995 -9.008624
v 129.653015 0.657995 -10.015859
v 129.732651 0.657995 -10.015859
v 129.653015 0.657995 -9.008625
v 129.732651 0.657995 -9.008625
v 127.920403 -0.587715 -9.959414
v 127.773407 -0.587715 -10.095279
v 127.712517 -0.587715 -9.959414
v 127.920403 -0.587715 -10.151556
v 128.067398 -0.587715 -10.095279
v 128.128281 -0.587715 -9.959414
v 128.067398 -0.587715 -9.823547
v 127.920403 -0.587715 -9.767270
v 127.773407 -0.587715 -9.823547
v 127.773407 -0.641326 -10.095279
v 127.712517 -0.641326 -9.959414
v 127.920403 -0.641326 -10.151556
v 128.067398 -0.641326 -10.095279
v 128.128281 -0.641326 -9.959414
v 128.067398 -0.641326 -9.823547
v 127.920403 -0.641326 -9.767270
v 127.773407 -0.641326 -9.823547
v 127.920403 -0.641326 -9.959414
v 127.892769 -0.619124 -9.949988
v 127.946831 -1.265104 -9.981198
v 127.892769 -1.265104 -9.949988
v 127.946831 -0.619124 -9.981198
v 127.946831 -1.265104 -9.918778
v 127.946831 -0.619124 -9.918778
v 129.305176 -0.576589 -9.959414
v 129.320114 -0.576589 -10.159021
v 129.175873 -0.576589 -10.122181
v 129.455627 -0.576589 -10.078934
v 129.502991 -0.576589 -9.928833
v 129.434479 -0.576589 -9.796646
v 129.290237 -0.576589 -9.759806
v 129.154724 -0.576589 -9.839892
v 129.107361 -0.576589 -9.989994
v 129.320114 -0.630200 -10.159021
v 129.175873 -0.630200 -10.122181
v 129.455627 -0.630200 -10.078934
v 129.502991 -0.630200 -9.928833
v 129.434479 -0.630200 -9.796646
v 129.290237 -0.630200 -9.759806
v 129.154724 -0.630200 -9.839892
v 129.107361 -0.630200 -9.989994
v 129.305176 -0.630200 -9.959414
v 129.291168 -0.607998 -9.978206
v 129.349228 -1.265104 -9.955294
v 129.291168 -1.265104 -9.978206
v 129.349228 -0.607998 -9.955294
v 129.300354 -1.265104 -9.916466
v 129.300354 -0.607998 -9.916466
v 128.563065 -0.617752 -9.959414
v 128.407593 -0.617752 -9.833349
v 128.533356 -0.617752 -9.753667
v 128.372894 -0.617752 -9.986878
v 128.449600 -0.617752 -10.124318
v 128.592773 -0.617752 -10.165159
v 128.718552 -0.617752 -10.085478
v 128.753235 -0.617752 -9.931950
v 128.676529 -0.617752 -9.794508
v 128.407593 -0.671363 -9.833349
v 128.533356 -0.671363 -9.753667
v 128.372894 -0.671363 -9.986878
v 128.449600 -0.671363 -10.124318
v 128.592773 -0.671363 -10.165159
v 128.718552 -0.671363 -10.085478
v 128.753235 -0.671363 -9.931950
v 128.676529 -0.671363 -9.794508
v 128.563065 -0.671363 -9.959414
v 128.566330 -0.649161 -9.914320
v 128.543167 -1.265104 -9.972283
v 128.566330 -1.265104 -9.914320
v 128.543167 -0.649161 -9.972283
v 128.604935 -1.265104 -9.963361
v 128.604935 -0.649161 -9.963361
v 129.944168 -0.597707 -9.959414
v 129.863083 -0.597707 -10.142422
v 129.753311 -0.597707 -10.041828
v 130.020340 -0.597707 -10.135812
v 130.132980 -0.597707 -10.025869
v 130.135010 -0.597707 -9.876999
v 130.025253 -0.597707 -9.776405
v 129.867981 -0.597707 -9.783015
v 129.755356 -0.597707 -9.892957
v 129.863083 -0.651318 -10.142422
v 129.753311 -0.651318 -10.041828
v 130.020340 -0.651318 -10.135812
v 130.132980 -0.651318 -10.025869
v 130.135010 -0.651318 -9.876999
v 130.025253 -0.651318 -9.776405
v 129.867981 -0.651318 -9.783015
v 129.755356 -0.651318 -9.892957
v 129.944168 -0.651318 -9.959414
v 129.919495 -0.629116 -9.964275
v 129.981491 -1.265104 -9.971497
v 129.919495 -1.265104 -9.964275
v 129.981491 -0.629116 -9.971497
v 129.956741 -1.265104 -9.914192
v 129.956741 -0.629116 -9.914192
v 127.525093 0.649319 -9.568107
v 127.570137 -1.264185 -9.594114
v 127.525093 -1.264185 -9.568107
v 127.570137 0.649319 -9.594114
v 127.570137 -1.264185 -9.542098
v 127.570137 0.649319 -9.542098
v 130.322006 0.649319 -9.568107
v 130.367065 -1.264185 -9.594114
v 130.322006 -1.264185 -9.568107
v 130.367065 0.649319 -9.594114
v 130.367065 -1.264185 -9.542098
v 130.367065 0.649319 -9.542098
v 130.351624 -0.435705 -9.048930
v 130.351624 -1.226358 -9.048930
v 127.551834 -0.435705 -9.048930
v 127.551834 -1.215232 -9.048930
v 127.603523 0.677622 -9.297347
v 127.603523 0.414275 -9.297341
v 127.603523 0.677628 -9.051456
v 127.603523 0.414281 -9.051451
v 128.575012 0.411835 -9.051451
v 128.575012 0.411830 -9.297341
v 128.575012 0.675182 -9.051456
v 128.575012 0.675177 -9.297347
v 130.361847 -1.244556 -9.549006
v 130.361847 -1.164925 -9.549006
v 130.361847 -1.164925 -9.063879
v 130.361847 -1.244556 -9.063879
v 127.558846 -1.164925 -9.549006
v 127.558846 -1.244556 -9.549006
v 127.558846 -1.164925 -9.063878
v 127.558846 -1.233430 -9.063878
v 127.558846 0.756519 -10.039377
v 127.558846 0.646498 -10.039377
v 127.558846 0.226893 -9.554249
v 127.558846 0.127998 -9.554249
v 130.345139 0.756519 -10.039377
v 130.345139 0.646498 -10.039377
v 130.345139 0.226893 -9.554249
v 130.345139 0.127998 -9.554249
v 128.440460 0.008526 -9.297347
v 128.440460 -0.254821 -9.297341
v 128.440460 0.008532 -9.051456
v 128.440460 -0.254815 -9.051451
v 129.411942 -0.257261 -9.051451
v 129.411942 -0.257266 -9.297342
v 129.411942 0.006086 -9.051456
v 129.411942 0.006081 -9.297347
v 42.587494 -0.243943 -9.556157
v 42.587494 -0.318637 -9.556157
v 42.587494 -0.243943 -9.008870
v 42.587494 -0.318637 -9.008870
v 45.457836 -0.318637 -9.008870
v 45.457836 -0.318637 -9.556158
v 45.457836 -0.243943 -9.008870
v 45.457836 -0.243943 -9.556158
v 44.424412 0.677622 -9.297347
v 44.424412 0.414275 -9.297341
v 44.424412 0.677628 -9.051456
v 44.424412 0.414281 -9.051451
v 45.395908 0.411835 -9.051451
v 45.395908 0.411830 -9.297342
v 45.395908 0.675182 -9.051456
v 45.395908 0.675177 -9.297348
v 42.587914 0.644248 -10.060724
v 42.587917 1.142679 -9.565190
v 42.587914 0.770583 -10.061275
v 42.587917 1.169651 -9.498900
v 42.587917 1.142679 -9.431849
v 42.587917 0.770583 -8.956497
v 42.587917 0.644248 -8.955657
v 45.457207 0.770583 -10.061275
v 45.457207 0.644248 -10.060725
v 45.457207 1.142679 -9.565190
v 45.457207 1.169651 -9.498900
v 45.457207 1.142679 -9.431850
v 45.457207 0.770583 -8.956497
v 45.457207 0.644248 -8.955657
v 42.594807 0.649319 -9.048951
v 42.639851 -1.264184 -9.074960
v 42.594807 -1.264184 -9.048951
v 42.639851 0.649319 -9.074960
v 42.639851 -1.264184 -9.022943
v 42.639851 0.649319 -9.022943
v 45.399090 0.649319 -9.048951
v 45.444138 -1.264184 -9.074960
v 45.399090 -1.264184 -9.048951
v 45.444138 0.649319 -9.074960
v 45.444138 -1.264184 -9.022943
v 45.444138 0.649319 -9.022943
v 45.421329 -0.380106 -9.048930
v 45.421329 -0.459737 -9.048930
v 42.621548 -0.380106 -9.048930
v 42.621548 -0.448611 -9.048930
v 45.421329 0.615410 -9.048930
v 45.421329 0.535778 -9.048930
v 42.621548 0.615410 -9.048930
v 42.621548 0.535778 -9.048930
v 45.431553 -0.459737 -9.549006
v 45.431553 -0.380106 -9.549006
v 45.431553 -0.380106 -9.063879
v 45.431553 -0.459737 -9.063879
v 42.628559 -0.380106 -9.549006
v 42.628559 -0.459737 -9.549006
v 42.628559 -0.380106 -9.063878
v 42.628559 -0.448611 -9.063878
v 44.021748 -0.233956 -9.531857
v 44.021748 -0.244136 -9.531857
v 44.021748 -0.208544 -9.318235
v 44.021748 -0.244136 -9.318235
v 44.686501 -0.247505 -9.318235
v 44.686501 -0.247505 -9.531857
v 44.686501 -0.211912 -9.318235
v 44.686501 -0.237324 -9.531857
v 42.746212 -0.233956 -9.537913
v 42.746212 -0.244136 -9.537913
v 42.665447 -0.208544 -9.340148
v 42.665447 -0.244136 -9.340148
v 43.280861 -0.247505 -9.088822
v 43.361626 -0.247505 -9.286588
v 43.280861 -0.211912 -9.088822
v 43.361626 -0.237324 -9.286588
v 45.421329 0.657995 -9.067658
v 45.421329 0.657995 -8.988028
v 42.621548 0.657995 -9.067658
v 42.621548 0.657995 -8.988028
v 45.421329 0.657995 -10.047717
v 45.421329 0.657995 -9.968085
v 42.621548 0.657995 -10.047716
v 42.621548 0.657995 -9.968085
v 43.981625 0.657995 -10.015859
v 44.061256 0.657995 -10.015859
v 43.981625 0.657995 -9.008624
v 44.061256 0.657995 -9.008624
v 45.392250 0.657995 -10.015860
v 45.471882 0.657995 -10.015860
v 45.392250 0.657995 -9.008625
v 45.471882 0.657995 -9.008625
v 42.621510 0.657995 -10.015859
v 42.701141 0.657995 -10.015859
v 42.621510 0.657995 -9.008624
v 42.701141 0.657995 -9.008624
v 43.263927 0.657995 -10.015859
v 43.343559 0.657995 -10.015859
v 43.263927 0.657995 -9.008624
v 43.343559 0.657995 -9.008624
v 44.722736 0.657995 -10.015859
v 44.802368 0.657995 -10.015859
v 44.722736 0.657995 -9.008625
v 44.802368 0.657995 -9.008625
v 42.990112 -0.587715 -9.959414
v 42.843121 -0.587715 -10.095279
v 42.782234 -0.587715 -9.959414
v 42.990112 -0.587715 -10.151556
v 43.137108 -0.587715 -10.095279
v 43.197994 -0.587715 -9.959414
v 43.137108 -0.587715 -9.823547
v 42.990112 -0.587715 -9.767270
v 42.843121 -0.587715 -9.823547
v 42.843121 -0.641326 -10.095279
v 42.782234 -0.641326 -9.959414
v 42.990112 -0.641326 -10.151556
v 43.137108 -0.641326 -10.095279
v 43.197994 -0.641326 -9.959414
v 43.137108 -0.641326 -9.823547
v 42.990112 -0.641326 -9.767270
v 42.843121 -0.641326 -9.823547
v 42.990112 -0.641326 -9.959414
v 42.962486 -0.619124 -9.949988
v 43.016544 -1.265104 -9.981198
v 42.962486 -1.265104 -9.949988
v 43.016544 -0.619124 -9.981198
v 43.016544 -1.265104 -9.918778
v 43.016544 -0.619124 -9.918778
v 44.374889 -0.576589 -9.959414
v 44.389835 -0.576589 -10.159021
v 44.245579 -0.576589 -10.122181
v 44.525333 -0.576589 -10.078934
v 44.572708 -0.576589 -9.928833
v 44.504200 -0.576589 -9.796646
v 44.359943 -0.576589 -9.759806
v 44.224445 -0.576589 -9.839892
v 44.177071 -0.576589 -9.989994
v 44.389835 -0.630200 -10.159021
v 44.245579 -0.630200 -10.122181
v 44.525333 -0.630200 -10.078934
v 44.572708 -0.630200 -9.928833
v 44.504200 -0.630200 -9.796646
v 44.359943 -0.630200 -9.759806
v 44.224445 -0.630200 -9.839892
v 44.177071 -0.630200 -9.989994
v 44.374889 -0.630200 -9.959414
v 44.360882 -0.607998 -9.978206
v 44.418945 -1.265104 -9.955294
v 44.360882 -1.265104 -9.978206
v 44.418945 -0.607998 -9.955294
v 44.370071 -1.265104 -9.916466
v 44.370071 -0.607998 -9.916466
v 43.632782 -0.617752 -9.959414
v 43.477299 -0.617752 -9.833349
v 43.603065 -0.617752 -9.753667
v 43.442612 -0.617752 -9.986878
v 43.519321 -0.617752 -10.124318
v 43.662495 -0.617752 -10.165159
v 43.788261 -0.617752 -10.085478
v 43.822952 -0.617752 -9.931950
v 43.746239 -0.617752 -9.794508
v 43.477299 -0.671363 -9.833349
v 43.603065 -0.671363 -9.753667
v 43.442612 -0.671363 -9.986878
v 43.519321 -0.671363 -10.124318
v 43.662495 -0.671363 -10.165159
v 43.788261 -0.671363 -10.085478
v 43.822952 -0.671363 -9.931950
v 43.746239 -0.671363 -9.794508
v 43.632782 -0.671363 -9.959414
v 43.636040 -0.649161 -9.914320
v 43.612877 -1.265104 -9.972283
v 43.636040 -1.265104 -9.914320
v 43.612877 -0.649161 -9.972283
v 43.674656 -1.265104 -9.963361
v 43.674656 -0.649161 -9.963361
v 45.013878 -0.597707 -9.959414
v 44.932793 -0.597707 -10.142422
v 44.823029 -0.597707 -10.041828
v 45.090054 -0.597707 -10.135812
v 45.202690 -0.597707 -10.025869
v 45.204723 -0.597707 -9.876999
v 45.094959 -0.597707 -9.776405
v 44.937702 -0.597707 -9.783015
v 44.825062 -0.597707 -9.892957
v 44.932793 -0.651318 -10.142422
v 44.823029 -0.651318 -10.041828
v 45.090054 -0.651318 -10.135812
v 45.202690 -0.651318 -10.025869
v 45.204723 -0.651318 -9.876999
v 45.094959 -0.651318 -9.776405
v 44.937702 -0.651318 -9.783015
v 44.825062 -0.651318 -9.892957
v 45.013878 -0.651318 -9.959414
v 44.989201 -0.629116 -9.964275
v 45.051201 -1.265104 -9.971497
v 44.989201 -1.265104 -9.964275
v 45.051201 -0.629116 -9.971497
v 45.026455 -1.265104 -9.914192
v 45.026455 -0.629116 -9.914192
v 42.594803 0.649319 -9.568107
v 42.639851 -1.264185 -9.594114
v 42.594803 -1.264185 -9.568107
v 42.639851 0.649319 -9.594114
v 42.639851 -1.264185 -9.542098
v 42.639851 0.649319 -9.542098
v 45.391724 0.649319 -9.568107
v 45.436771 -1.264185 -9.594114
v 45.391724 -1.264185 -9.568107
v 45.436771 0.649319 -9.594114
v 45.436771 -1.264185 -9.542098
v 45.436771 0.649319 -9.542098
v 45.421329 -0.435705 -9.048930
v 45.421329 -1.226358 -9.048930
v 42.621548 -0.435705 -9.048930
v 42.621548 -1.215232 -9.048930
v 42.673233 0.677622 -9.297347
v 42.673233 0.414275 -9.297341
v 42.673233 0.677628 -9.051456
v 42.673233 0.414281 -9.051451
v 43.644726 0.411835 -9.051451
v 43.644726 0.411830 -9.297341
v 43.644726 0.675182 -9.051456
v 43.644726 0.675177 -9.297347
v 45.431553 -1.244556 -9.549006
v 45.431553 -1.164925 -9.549006
v 45.431553 -1.164925 -9.063879
v 45.431553 -1.244556 -9.063879
v 42.628559 -1.164925 -9.549006
v 42.628559 -1.244556 -9.549006
v 42.628559 -1.164925 -9.063878
v 42.628559 -1.233430 -9.063878
v 42.628559 0.756519 -10.039377
v 42.628559 0.646498 -10.039377
v 42.628559 0.226893 -9.554249
v 42.628559 0.127998 -9.554249
v 45.414856 0.756519 -10.039377
v 45.414856 0.646498 -10.039377
v 45.414856 0.226893 -9.554249
v 45.414856 0.127998 -9.554249
v 43.510170 0.008526 -9.297347
v 43.510170 -0.254821 -9.297341
v 43.510170 0.008532 -9.051456
v 43.510170 -0.254815 -9.051451
v 44.481663 -0.257261 -9.051451
v 44.481663 -0.257266 -9.297342
v 44.481663 0.006086 -9.051456
v 44.481663 0.006081 -9.297347
v -31.465418 -0.243943 -9.556158
v -31.465418 -0.318637 -9.556158
v -31.465418 -0.243943 -9.008870
v -31.465418 -0.318637 -9.008870
v -28.595079 -0.318637 -9.008870
v -28.595079 -0.318637 -9.556158
v -28.595079 -0.243943 -9.008870
v -28.595079 -0.243943 -9.556158
v -29.628502 0.677622 -9.297348
v -29.628502 0.414275 -9.297341
v -29.628502 0.677628 -9.051456
v -29.628502 0.414281 -9.051451
v -28.657007 0.411835 -9.051451
v -28.657007 0.411830 -9.297342
v -28.657007 0.675182 -9.051456
v -28.657007 0.675177 -9.297348
v -31.464998 0.644248 -10.060724
v -31.464998 1.142679 -9.565190
v -31.464998 0.770583 -10.061275
v -31.464998 1.169651 -9.498900
v -31.464998 1.142679 -9.431850
v -31.464998 0.770583 -8.956497
v -31.464998 0.644248 -8.955657
v -28.595709 0.770583 -10.061275
v -28.595709 0.644248 -10.060725
v -28.595709 1.142679 -9.565190
v -28.595709 1.169651 -9.498900
v -28.595709 1.142679 -9.431850
v -28.595709 0.770583 -8.956498
v -28.595709 0.644248 -8.955658
v -31.458109 0.649319 -9.048951
v -31.413061 -1.264184 -9.074960
v -31.458109 -1.264184 -9.048951
v -31.413061 0.649319 -9.074960
v -31.413061 -1.264184 -9.022943
v -31.413061 0.649319 -9.022943
v -28.653824 0.649319 -9.048951
v -28.608776 -1.264184 -9.074960
v -28.653824 -1.264184 -9.048951
v -28.608776 0.649319 -9.074960
v -28.608776 -1.264184 -9.022943
v -28.608776 0.649319 -9.022943
v -28.631584 -0.380106 -9.048930
v -28.631584 -0.459737 -9.048930
v -31.431364 -0.380106 -9.048930
v -31.431364 -0.448611 -9.048930
v -28.631584 0.615410 -9.048930
v -28.631584 0.535778 -9.048930
v -31.431364 0.615410 -9.048930
v -31.431364 0.535778 -9.048930
v -28.621359 -0.459737 -9.549006
v -28.621359 -0.380106 -9.549006
v -28.621359 -0.380106 -9.063879
v -28.621359 -0.459737 -9.063879
v -31.424355 -0.380106 -9.549006
v -31.424355 -0.459737 -9.549006
v -31.424355 -0.380106 -9.063878
v -31.424355 -0.448611 -9.063878
v -30.031166 -0.233956 -9.531857
v -30.031166 -0.244136 -9.531857
v -30.031166 -0.208544 -9.318235
v -30.031166 -0.244136 -9.318235
v -29.366413 -0.247505 -9.318235
v -29.366413 -0.247505 -9.531857
v -29.366413 -0.211912 -9.318235
v -29.366413 -0.237324 -9.531857
v -31.306702 -0.233956 -9.537913
v -31.306702 -0.244136 -9.537913
v -31.387466 -0.208544 -9.340149
v -31.387466 -0.244136 -9.340149
v -30.772053 -0.247505 -9.088823
v -30.691288 -0.247505 -9.286588
v -30.772053 -0.211912 -9.088823
v -30.691288 -0.237324 -9.286588
v -28.631584 0.657995 -9.067659
v -28.631584 0.657995 -8.988028
v -31.431364 0.657995 -9.067658
v -31.431364 0.657995 -8.988028
v -28.631584 0.657995 -10.047717
v -28.631584 0.657995 -9.968085
v -31.431364 0.657995 -10.047717
v -31.431364 0.657995 -9.968085
v -30.071289 0.657995 -10.015860
v -29.991657 0.657995 -10.015860
v -30.071289 0.657995 -9.008625
v -29.991657 0.657995 -9.008625
v -28.660664 0.657995 -10.015860
v -28.581032 0.657995 -10.015860
v -28.660664 0.657995 -9.008625
v -28.581032 0.657995 -9.008625
v -31.431404 0.657995 -10.015859
v -31.351774 0.657995 -10.015859
v -31.431404 0.657995 -9.008625
v -31.351772 0.657995 -9.008625
v -30.788986 0.657995 -10.015860
v -30.709354 0.657995 -10.015860
v -30.788986 0.657995 -9.008625
v -30.709354 0.657995 -9.008625
v -29.330177 0.657995 -10.015860
v -29.250546 0.657995 -10.015860
v -29.330177 0.657995 -9.008625
v -29.250546 0.657995 -9.008625
v -31.062799 -0.587715 -9.959414
v -31.209793 -0.587715 -10.095280
v -31.270679 -0.587715 -9.959414
v -31.062799 -0.587715 -10.151557
v -30.915806 -0.587715 -10.095280
v -30.854919 -0.587715 -9.959414
v -30.915806 -0.587715 -9.823547
v -31.062799 -0.587715 -9.767270
v -31.209793 -0.587715 -9.823547
v -31.209793 -0.641326 -10.095280
v -31.270679 -0.641326 -9.959414
v -31.062799 -0.641326 -10.151557
v -30.915806 -0.641326 -10.095280
v -30.854919 -0.641326 -9.959414
v -30.915806 -0.641326 -9.823547
v -31.062799 -0.641326 -9.767270
v -31.209793 -0.641326 -9.823547
v -31.062799 -0.641326 -9.959414
v -31.090427 -0.619124 -9.949988
v -31.036371 -1.265104 -9.981198
v -31.090427 -1.265104 -9.949988
v -31.036371 -0.619124 -9.981198
v -31.036371 -1.265104 -9.918778
v -31.036371 -0.619124 -9.918778
v -29.678024 -0.576589 -9.959414
v -29.663078 -0.576589 -10.159021
v -29.807335 -0.576589 -10.122181
v -29.527580 -0.576589 -10.078934
v -29.480207 -0.576589 -9.928833
v -29.548714 -0.576589 -9.796646
v -29.692970 -0.576589 -9.759806
v -29.828468 -0.576589 -9.839892
v -29.875841 -0.576589 -9.989994
v -29.663078 -0.630200 -10.159021
v -29.807335 -0.630200 -10.122181
v -29.527580 -0.630200 -10.078934
v -29.480207 -0.630200 -9.928833
v -29.548714 -0.630200 -9.796646
v -29.692970 -0.630200 -9.759806
v -29.828468 -0.630200 -9.839892
v -29.875841 -0.630200 -9.989994
v -29.678024 -0.630200 -9.959414
v -29.692032 -0.607998 -9.978206
v -29.633968 -1.265104 -9.955294
v -29.692032 -1.265104 -9.978206
v -29.633968 -0.607998 -9.955294
v -29.682842 -1.265104 -9.916466
v -29.682842 -0.607998 -9.916466
v -30.420132 -0.617752 -9.959414
v -30.575615 -0.617752 -9.833349
v -30.449848 -0.617752 -9.753668
v -30.610302 -0.617752 -9.986878
v -30.533592 -0.617752 -10.124318
v -30.390419 -0.617752 -10.165159
v -30.264652 -0.617752 -10.085478
v -30.229963 -0.617752 -9.931950
v -30.306675 -0.617752 -9.794509
v -30.575615 -0.671363 -9.833349
v -30.449848 -0.671363 -9.753668
v -30.610302 -0.671363 -9.986878
v -30.533592 -0.671363 -10.124318
v -30.390419 -0.671363 -10.165159
v -30.264652 -0.671363 -10.085478
v -30.229963 -0.671363 -9.931950
v -30.306675 -0.671363 -9.794509
v -30.420132 -0.671363 -9.959414
v -30.416874 -0.649161 -9.914320
v -30.440037 -1.265104 -9.972283
v -30.416874 -1.265104 -9.914320
v -30.440037 -0.649161 -9.972283
v -30.378258 -1.265104 -9.963361
v -30.378258 -0.649161 -9.963361
v -29.039038 -0.597707 -9.959414
v -29.120121 -0.597707 -10.142422
v -29.229883 -0.597707 -10.041828
v -28.962862 -0.597707 -10.135812
v -28.850224 -0.597707 -10.025870
v -28.848190 -0.597707 -9.876999
v -28.957954 -0.597707 -9.776405
v -29.115211 -0.597707 -9.783015
v -29.227852 -0.597707 -9.892957
v -29.120121 -0.651318 -10.142422
v -29.229883 -0.651318 -10.041828
v -28.962862 -0.651318 -10.135812
v -28.850224 -0.651318 -10.025870
v -28.848190 -0.651318 -9.876999
v -28.957954 -0.651318 -9.776405
v -29.115211 -0.651318 -9.783015
v -29.227852 -0.651318 -9.892957
v -29.039038 -0.651318 -9.959414
v -29.063713 -0.629116 -9.964275
v -29.001713 -1.265104 -9.971498
v -29.063713 -1.265104 -9.964275
v -29.001713 -0.629116 -9.971497
v -29.026459 -1.265104 -9.914192
v -29.026459 -0.629116 -9.914192
v -31.458109 0.649319 -9.568107
v -31.413061 -1.264185 -9.594114
v -31.458109 -1.264185 -9.568107
v -31.413061 0.649319 -9.594115
v -31.413061 -1.264185 -9.542098
v -31.413061 0.649319 -9.542098
v -28.661190 0.649319 -9.568107
v -28.616142 -1.264185 -9.594115
v -28.661190 -1.264185 -9.568107
v -28.616142 0.649319 -9.594115
v -28.616142 -1.264185 -9.542098
v -28.616142 0.649319 -9.542098
v -28.631584 -0.435705 -9.048930
v -28.631584 -1.226358 -9.048930
v -31.431364 -0.435705 -9.048930
v -31.431364 -1.215232 -9.048930
v -31.379681 0.677622 -9.297348
v -31.379681 0.414275 -9.297341
v -31.379681 0.677628 -9.051456
v -31.379681 0.414281 -9.051451
v -30.408186 0.411835 -9.051451
v -30.408186 0.411830 -9.297342
v -30.408186 0.675182 -9.051456
v -30.408186 0.675177 -9.297348
v -28.621359 -1.244556 -9.549006
v -28.621359 -1.164925 -9.549006
v -28.621359 -1.164925 -9.063879
v -28.621359 -1.244556 -9.063879
v -31.424355 -1.164925 -9.549006
v -31.424355 -1.244556 -9.549006
v -31.424355 -1.164925 -9.063878
v -31.424355 -1.233430 -9.063878
v -31.424355 0.756519 -10.039377
v -31.424355 0.646498 -10.039377
v -31.424355 0.226893 -9.554249
v -31.424355 0.127998 -9.554249
v -28.638058 0.756519 -10.039377
v -28.638058 0.646498 -10.039377
v -28.638058 0.226893 -9.554249
v -28.638058 0.127998 -9.554249
v -30.542746 0.008526 -9.297348
v -30.542746 -0.254821 -9.297341
v -30.542746 0.008532 -9.051456
v -30.542746 -0.254815 -9.051451
v -29.571251 -0.257261 -9.051451
v -29.571251 -0.257266 -9.297342
v -29.571251 0.006086 -9.051456
v -29.571251 0.006081 -9.297348
vn -1.0000 -0.0000 -0.0000
vn 1.0000 -0.0000 -0.0000
vn -0.0000 -1.0000 -0.0000
vn -0.0000 -0.0000 1.0000
vn -0.0000 1.0000 -0.0000
vn -0.0000 -0.0000 -1.0000
vn -1.0000 0.0001 -0.0000
vn -1.0000 -0.0001 -0.0000
vn 0.0025 1.0000 -0.0000
vn -1.0000 0.0003 -0.0000
vn -0.0000 -0.0043 -1.0000
vn -0.0000 0.8000 -0.6000
vn -0.0000 0.8703 -0.4925
vn -0.0000 0.9263 -0.3769
vn -0.0000 0.9278 0.3732
vn -0.0000 0.8662 0.4997
vn -0.0000 0.9277 0.3732
vn -0.0000 0.7874 0.6164
vn -0.0000 0.0067 1.0000
vn 1.0000 0.0001 -0.0000
vn -0.5000 -0.0000 -0.8660
vn -0.5000 -0.0000 0.8660
vn 0.0050 0.9930 -0.1181
vn -0.9258 -0.0000 -0.3781
vn 0.9258 -0.0000 0.3781
vn 0.0493 0.9930 -0.1075
vn 0.3781 -0.0000 -0.9258
vn -0.9125 -0.0000 -0.4090
vn -0.3575 -0.0000 -0.9339
vn -0.3576 -0.0000 -0.9339
vn 0.3576 -0.0000 -0.9339
vn 0.3575 -0.0000 -0.9339
vn 0.9125 -0.0000 -0.4090
vn 0.9125 -0.0000 0.4090
vn 0.3576 -0.0000 0.9339
vn 0.3575 -0.0000 0.9339
vn -0.3575 -0.0000 0.9339
vn -0.3576 -0.0000 0.9339
vn -0.9125 -0.0000 0.4090
vn -0.4999 -0.0000 -0.8661
vn -0.2474 -0.0000 -0.9689
vn 0.5088 -0.0000 -0.8609
vn 0.9536 -0.0000 -0.3010
vn 0.8879 -0.0000 0.4601
vn 0.2474 -0.0000 0.9689
vn -0.5088 -0.0000 0.8609
vn -0.9536 -0.0000 0.3010
vn -0.8879 -0.0000 -0.4601
vn 0.3671 -0.0000 -0.9302
vn 0.6220 -0.0000 0.7830
vn 0.6221 -0.0000 0.7830
vn -0.9891 -0.0000 0.1472
vn -0.5352 -0.0000 0.8447
vn -0.9754 -0.0000 0.2204
vn -0.8732 -0.0000 -0.4874
vn -0.2743 -0.0000 -0.9616
vn 0.5352 -0.0000 -0.8447
vn 0.9754 -0.0000 -0.2204
vn 0.8732 -0.0000 0.4874
vn 0.2743 -0.0000 0.9616
vn -0.9286 -0.0000 0.3711
vn 0.1429 -0.0000 -0.9897
vn 0.7856 -0.0000 0.6187
vn -0.6757 -0.0000 -0.7372
vn 0.0420 -0.0000 -0.9991
vn 0.6985 -0.0000 -0.7156
vn 0.9999 -0.0000 -0.0137
vn 0.6756 -0.0000 0.7372
vn -0.0420 -0.0000 0.9991
vn -0.6985 -0.0000 0.7156
vn -0.9999 -0.0000 0.0136
vn -0.1157 -0.0000 -0.9933
vn 0.9180 -0.0000 0.3965
vn -0.8024 -0.0000 0.5968
vn -0.5001 -0.0000 0.8660
vn -0.0025 -1.0000 -0.0000
vn 1.0000 -0.0001 -0.0000
vn -1.0000 -0.0002 -0.0000
vn -0.0000 -0.0044 -1.0000
vn 1.0000 -0.0003 -0.0000
vn -0.5001 -0.0000 -0.8660
vn 0.9126 -0.0000 -0.4089
vn 0.9126 -0.0000 0.4089
vn -0.2475 -0.0000 -0.9689
vn 0.9536 -0.0000 -0.3009
vn 0.9537 -0.0000 -0.3009
vn 0.8878 -0.0000 0.4602
vn 0.2475 -0.0000 0.9689
vn -0.9537 -0.0000 0.3009
vn -0.9536 -0.0000 0.3009
vn -0.8878 -0.0000 -0.4602
vn -0.8732 -0.0000 -0.4873
vn 0.5352 -0.0000 -0.8448
vn 0.8732 -0.0000 0.4873
vn 0.1430 -0.0000 -0.9897
vn 0.7858 -0.0000 0.6185
vn 0.7857 -0.0000 0.6185
vn -0.6756 -0.0000 -0.7373
vn 0.9999 -0.0000 -0.0136
vn 0.6757 -0.0000 0.7372
vn -0.9999 -0.0000 0.0137
vn -0.4999 -0.0000 0.8661
vn -0.9126 -0.0000 -0.4090
vn -0.9126 -0.0000 -0.4089
vn 0.9126 -0.0000 -0.4090
vn -0.9126 -0.0000 0.4089
vn 0.8878 -0.0000 0.4601
vn -0.8878 -0.0000 -0.4601
vn 0.3670 -0.0000 -0.9302
vn 0.7857 -0.0000 0.6187
vn -0.6756 -0.0000 -0.7372
vn 0.9181 -0.0000 0.3964
vt 0.674453 1.028554
vt 0.694403 1.028506
vt 0.674794 1.162817
vt 0.694744 1.162769
vt 0.000825 1.163020
vt 0.000886 1.026902
vt 0.021551 1.163020
vt 0.021409 1.026902
vt 0.698882 1.163704
vt 0.698882 1.002377
vt 0.998102 1.163704
vt 0.998102 1.002377
vt 0.159141 1.341989
vt 0.159141 1.314986
vt 0.454370 1.341989
vt 0.454370 1.314986
vt 0.674142 1.026654
vt 0.674142 1.163072
vt 0.021618 1.026654
vt 0.021618 1.163072
vt 0.674090 1.000460
vt 0.674090 1.026851
vt 0.021276 1.000460
vt 0.021276 1.026768
vt 0.666255 1.685000
vt 0.666304 1.491423
vt 0.998813 1.685000
vt 0.998713 1.491618
vt 0.970938 1.498645
vt 0.679018 1.498645
vt 0.970938 1.686846
vt 0.679018 1.686846
vt 0.659369 1.695895
vt 0.659369 1.734016
vt 0.396925 1.695895
vt 0.396925 1.734016
vt 0.661847 1.490778
vt 0.661847 1.695895
vt 0.396108 1.490778
vt 0.396108 1.695895
vt 0.951115 1.731191
vt 0.824562 1.943026
vt 0.951255 1.784884
vt 0.807632 1.954489
vt 0.790509 1.943026
vt 0.669110 1.784884
vt 0.668895 1.731191
vt 0.661124 1.724705
vt 0.003110 1.790000
vt 0.003110 1.724705
vt 0.661124 1.790000
vt 0.003110 1.988049
vt 0.661124 1.988049
vt 0.664208 1.722906
vt 0.000304 1.749955
vt -0.000561 1.722981
vt 0.663230 1.749333
vt 0.000544 1.749603
vt 0.663711 1.723164
vt 0.663711 1.749790
vt -0.000321 1.722898
vt 0.007703 1.980000
vt 0.663127 1.780000
vt 0.664546 1.980000
vt 0.006283 1.780000
vt 0.664546 1.729835
vt 0.007703 1.729835
vt 0.668895 1.731192
vt 0.000499 1.458785
vt 1.989501 1.428251
vt 1.989501 1.458785
vt 0.000499 1.428251
vt 1.989501 1.454674
vt 0.000499 1.454674
vt 0.130000 1.418326
vt 0.130000 1.354918
vt 0.870000 1.418326
vt 0.870000 1.354918
vt 0.453220 1.177028
vt 0.480818 1.177044
vt 0.453220 1.285682
vt 0.480790 1.285650
vt 0.172421 1.285287
vt 0.172421 1.176908
vt 0.203211 1.285287
vt 0.203211 1.176908
vt 0.452904 1.177479
vt 0.452904 1.284000
vt 0.203576 1.177479
vt 0.203576 1.284000
vt 0.452998 1.166643
vt 0.452998 1.177479
vt 0.202806 1.166643
vt 0.202806 1.177479
vt 0.064068 1.224644
vt 0.128192 1.165391
vt 0.127599 1.224644
vt 0.064068 1.165374
vt 0.001000 1.165391
vt 0.001000 1.224644
vt 0.001000 1.283896
vt 0.064068 1.283914
vt 0.128192 1.283896
vt 0.128253 1.180227
vt 0.171367 1.195029
vt 0.171368 1.180227
vt 0.128253 1.195029
vt 0.171367 1.209832
vt 0.128253 1.209831
vt 0.171367 1.224634
vt 0.128253 1.224634
vt 0.171367 1.239437
vt 0.128252 1.239436
vt 0.171367 1.254239
vt 0.128252 1.254239
vt 0.171366 1.269042
vt 0.128252 1.269041
vt 0.171366 1.283844
vt 0.128252 1.283844
vt 0.128253 1.165424
vt 0.171368 1.165425
vt 0.341183 1.076571
vt 0.691183 1.085027
vt 0.691183 1.000000
vt 0.341183 1.000000
vt -0.000756 1.000000
vt -0.000389 1.082611
vt -0.000756 1.160000
vt 0.341183 1.160000
vt 0.691183 1.160000
vt 0.999501 1.428251
vt 0.999501 1.458785
vt 0.999501 1.454674
vt 0.697335 1.163294
vt 0.697335 1.003104
vt 0.997296 1.163294
vt 0.997296 1.003103
vt 0.004492 1.994184
vt 0.004492 1.733287
vt 0.666973 1.994184
vt 0.666973 1.733286
vt 0.465523 1.689669
vt 0.465523 1.726633
vt 0.002571 1.689669
vt 0.002571 1.726633
vt 0.469894 1.490778
vt 0.469894 1.689669
vt 0.001128 1.490778
vt 0.001128 1.689669
vt 0.299131 1.688314
vt 0.299131 1.716020
vt 0.002054 1.688314
vt 0.002054 1.716020
vt 0.301936 1.490778
vt 0.301936 1.688314
vt 0.001128 1.688314
s 1
usemtl PTENTC
f 1/1/1 2/2/1 3/3/1
f 4/4/1 3/3/1 2/2/1
f 5/5/2 6/6/2 7/7/2
f 8/8/2 7/7/2 6/6/2
f 4/9/3 2/10/3 5/11/3
f 6/12/3 5/11/3 2/10/3
f 3/13/4 4/14/4 7/15/4
f 5/16/4 7/15/4 4/14/4
f 1/17/5 3/18/5 8/19/5
f 7/20/5 8/19/5 3/18/5
f 2/21/6 1/22/6 6/23/6
f 8/24/6 6/23/6 1/22/6
f 9/25/7 10/26/1 11/27/1
f 12/28/8 11/27/1 10/26/1
f 13/29/2 14/30/2 15/31/2
f 16/32/2 15/31/2 14/30/2
f 9/33/9 11/34/9 16/35/9
f 15/36/9 16/35/9 11/34/9
f 10/37/6 9/38/6 14/39/6
f 16/40/6 14/39/6 9/38/6
f 17/41/8 18/42/10 19/43/8
f 17/41/8 20/44/1 18/42/10
f 17/41/8 21/45/1 20/44/1
f 17/41/8 22/46/1 21/45/1
f 17/41/8 23/47/7 22/46/1
f 17/48/11 24/49/11 25/50/11
f 17/48/11 19/51/11 24/49/11
f 19/51/12 26/52/13 24/49/12
f 19/51/12 18/53/13 26/52/13
f 18/54/13 27/55/14 26/56/13
f 18/54/13 20/57/14 27/55/14
f 20/58/15 28/59/16 27/60/17
f 20/58/15 21/61/16 28/59/16
f 21/62/16 29/63/18 28/64/16
f 21/62/16 22/65/18 29/63/18
f 22/65/19 30/66/19 29/63/19
f 22/65/19 23/67/19 30/66/19
f 25/41/2 24/43/2 26/42/20
f 25/41/2 26/42/20 27/44/2
f 25/41/2 27/44/2 28/45/2
f 25/41/2 28/45/2 29/46/2
f 25/41/2 29/46/2 30/68/2
f 31/69/21 32/70/21 33/71/21
f 31/69/21 34/72/21 32/70/21
f 34/72/2 35/73/2 32/70/2
f 34/72/2 36/74/2 35/73/2
f 36/74/22 33/71/22 35/73/22
f 36/74/22 31/69/22 33/71/22
f 37/69/21 38/70/21 39/71/21
f 37/69/21 40/72/21 38/70/21
f 40/72/2 41/73/2 38/70/2
f 40/72/2 42/74/2 41/73/2
f 42/74/22 39/71/22 41/73/22
f 42/74/22 37/69/22 39/71/22
f 43/75/6 44/76/6 45/77/6
f 46/78/6 45/77/6 44/76/6
f 47/75/6 48/76/6 49/77/6
f 50/78/6 49/77/6 48/76/6
f 51/76/2 52/75/2 53/77/2
f 53/77/2 54/78/2 51/76/2
f 55/75/1 56/76/1 57/77/1
f 58/78/1 57/77/1 56/76/1
f 59/79/1 60/80/1 61/81/1
f 62/82/1 61/81/1 60/80/1
f 63/83/2 64/84/2 65/85/2
f 66/86/2 65/85/2 64/84/2
f 59/87/23 61/88/23 66/89/23
f 65/90/23 66/89/23 61/88/23
f 60/91/6 59/92/6 64/93/6
f 66/94/6 64/93/6 59/92/6
f 67/79/24 68/80/24 69/81/24
f 70/82/24 69/81/24 68/80/24
f 71/83/25 72/84/25 73/85/25
f 74/86/25 73/85/25 72/84/25
f 67/87/26 69/88/26 74/89/26
f 73/90/26 74/89/26 69/88/26
f 68/91/27 67/92/27 72/93/27
f 74/94/27 72/93/27 67/92/27
f 75/75/3 76/76/3 77/77/3
f 78/78/3 77/77/3 76/76/3
f 79/75/3 80/76/3 81/77/3
f 82/78/3 81/77/3 80/76/3
f 83/75/3 84/76/3 85/77/3
f 86/78/3 85/77/3 84/76/3
f 87/75/3 88/76/3 89/77/3
f 90/78/3 89/77/3 88/76/3
f 91/75/3 92/76/3 93/77/3
f 94/78/3 93/77/3 92/76/3
f 95/75/3 96/76/3 97/77/3
f 98/78/3 97/77/3 96/76/3
f 99/75/3 100/76/3 101/77/3
f 102/78/3 101/77/3 100/76/3
f 103/95/5 104/96/5 105/97/5
f 103/95/5 106/98/5 104/96/5
f 103/95/5 107/99/5 106/98/5
f 103/95/5 108/100/5 107/99/5
f 103/95/5 109/101/5 108/100/5
f 103/95/5 110/102/5 109/101/5
f 103/95/5 111/103/5 110/102/5
f 103/95/5 105/97/5 111/103/5
f 105/104/28 112/105/28 113/106/28
f 105/104/28 104/107/28 112/105/28
f 104/107/29 114/108/29 112/105/29
f 104/107/29 106/109/30 114/108/29
f 106/109/31 115/110/31 114/108/31
f 106/109/31 107/111/32 115/110/31
f 107/111/33 116/112/33 115/110/33
f 107/111/33 108/113/33 116/112/33
f 108/113/34 117/114/34 116/112/34
f 108/113/34 109/115/34 117/114/34
f 109/115/35 118/116/35 117/114/35
f 109/115/35 110/117/36 118/116/35
f 110/117/37 119/118/37 118/116/37
f 110/117/37 111/119/38 119/118/37
f 111/120/39 113/106/39 119/121/39
f 111/120/39 105/104/39 113/106/39
f 120/122/3 113/123/3 112/124/3
f 120/122/3 112/124/3 114/125/3
f 120/122/3 114/125/3 115/126/3
f 120/122/3 115/126/3 116/127/3
f 120/122/3 116/127/3 117/128/3
f 120/122/3 117/128/3 118/129/3
f 120/122/3 118/129/3 119/130/3
f 120/122/3 119/130/3 113/123/3
f 121/69/40 122/131/21 123/132/21
f 121/69/40 124/72/40 122/131/21
f 124/72/2 125/133/2 122/131/2
f 124/72/2 126/74/2 125/133/2
f 126/74/22 123/132/22 125/133/22
f 126/74/22 121/69/22 123/132/22
f 127/95/5 128/96/5 129/97/5
f 127/95/5 130/98/5 128/96/5
f 127/95/5 131/99/5 130/98/5
f 127/95/5 132/100/5 131/99/5
f 127/95/5 133/101/5 132/100/5
f 127/95/5 134/102/5 133/101/5
f 127/95/5 135/103/5 134/102/5
f 127/95/5 129/97/5 135/103/5
f 129/104/41 136/105/41 137/106/41
f 129/104/41 128/107/41 136/105/41
f 128/107/42 138/108/42 136/105/42
f 128/107/42 130/109/42 138/108/42
f 130/109/43 139/110/43 138/108/43
f 130/109/43 131/111/43 139/110/43
f 131/111/44 140/112/44 139/110/44
f 131/111/44 132/113/44 140/112/44
f 132/113/45 141/114/45 140/112/45
f 132/113/45 133/115/45 141/114/45
f 133/115/46 142/116/46 141/114/46
f 133/115/46 134/117/46 142/116/46
f 134/117/47 143/118/47 142/116/47
f 134/117/47 135/119/47 143/118/47
f 135/120/48 137/106/48 143/121/48
f 135/120/48 129/104/48 137/106/48
f 144/122/3 137/123/3 136/124/3
f 144/122/3 136/124/3 138/125/3
f 144/122/3 138/125/3 139/126/3
f 144/122/3 139/126/3 140/127/3
f 144/122/3 140/127/3 141/128/3
f 144/122/3 141/128/3 142/129/3
f 144/122/3 142/129/3 143/130/3
f 144/122/3 143/130/3 137/123/3
f 145/69/49 146/131/49 147/132/49
f 145/69/49 148/72/49 146/131/49
f 148/72/50 149/133/50 146/131/51
f 148/72/50 150/74/50 149/133/50
f 150/74/52 147/132/52 149/133/52
f 150/74/52 145/69/52 147/132/52
f 151/95/5 152/96/5 153/97/5
f 151/95/5 154/98/5 152/96/5
f 151/95/5 155/99/5 154/98/5
f 151/95/5 156/100/5 155/99/5
f 151/95/5 157/101/5 156/100/5
f 151/95/5 158/102/5 157/101/5
f 151/95/5 159/103/5 158/102/5
f 151/95/5 153/97/5 159/103/5
f 153/104/53 160/105/53 161/106/53
f 153/104/53 152/107/53 160/105/53
f 152/107/54 162/108/54 160/105/54
f 152/107/54 154/109/54 162/108/54
f 154/109/55 163/110/55 162/108/55
f 154/109/55 155/111/55 163/110/55
f 155/111/56 164/112/56 163/110/56
f 155/111/56 156/113/56 164/112/56
f 156/113/57 165/114/57 164/112/57
f 156/113/57 157/115/57 165/114/57
f 157/115/58 166/116/58 165/114/58
f 157/115/58 158/117/58 166/116/58
f 158/117/59 167/118/59 166/116/59
f 158/117/59 159/119/59 167/118/59
f 159/120/60 161/106/60 167/121/60
f 159/120/60 153/104/60 161/106/60
f 168/122/3 161/123/3 160/124/3
f 168/122/3 160/124/3 162/125/3
f 168/122/3 162/125/3 163/126/3
f 168/122/3 163/126/3 164/127/3
f 168/122/3 164/127/3 165/128/3
f 168/122/3 165/128/3 166/129/3
f 168/122/3 166/129/3 167/130/3
f 168/122/3 167/130/3 161/123/3
f 169/69/61 170/131/61 171/132/61
f 169/69/61 172/72/61 170/131/61
f 172/72/62 173/133/62 170/131/62
f 172/72/62 174/74/62 173/133/62
f 174/74/63 171/132/63 173/133/63
f 174/74/63 169/69/63 171/132/63
f 175/95/5 176/96/5 177/97/5
f 175/95/5 178/98/5 176/96/5
f 175/95/5 179/99/5 178/98/5
f 175/95/5 180/100/5 179/99/5
f 175/95/5 181/101/5 180/100/5
f 175/95/5 182/102/5 181/101/5
f 175/95/5 183/103/5 182/102/5
f 175/95/5 177/97/5 183/103/5
f 177/104/64 184/105/64 185/106/64
f 177/104/64 176/107/64 184/105/64
f 176/107/65 186/108/65 184/105/65
f 176/107/65 178/109/65 186/108/65
f 178/109/66 187/110/66 186/108/66
f 178/109/66 179/111/66 187/110/66
f 179/111/67 188/112/67 187/110/67
f 179/111/67 180/113/67 188/112/67
f 180/113/68 189/114/68 188/112/68
f 180/113/68 181/115/68 189/114/68
f 181/115/69 190/116/69 189/114/69
f 181/115/69 182/117/69 190/116/69
f 182/117/70 191/118/70 190/116/70
f 182/117/70 183/119/70 191/118/70
f 183/120/71 185/106/71 191/121/71
f 183/120/71 177/104/71 185/106/71
f 192/122/3 185/123/3 184/124/3
f 192/122/3 184/124/3 186/125/3
f 192/122/3 186/125/3 187/126/3
f 192/122/3 187/126/3 188/127/3
f 192/122/3 188/127/3 189/128/3
f 192/122/3 189/128/3 190/129/3
f 192/122/3 190/129/3 191/130/3
f 192/122/3 191/130/3 185/123/3
f 193/69/72 194/131/72 195/132/72
f 193/69/72 196/72/72 194/131/72
f 196/72/73 197/133/73 194/131/73
f 196/72/73 198/74/73 197/133/73
f 198/74/74 195/132/74 197/133/74
f 198/74/74 193/69/74 195/132/74
f 199/69/21 200/70/21 201/71/21
f 199/69/21 202/72/21 200/70/21
f 202/72/2 203/73/2 200/70/2
f 202/72/2 204/74/2 203/73/2
f 204/74/75 201/71/22 203/73/22
f 204/74/75 199/69/75 201/71/22
f 205/69/21 206/70/21 207/71/21
f 205/69/21 208/72/21 206/70/21
f 208/72/2 209/73/2 206/70/2
f 208/72/2 210/74/2 209/73/2
f 210/74/75 207/71/22 209/73/22
f 210/74/75 205/69/75 207/71/22
f 12/134/76 10/135/76 13/136/76
f 14/137/76 13/136/76 10/135/76
f 211/138/6 212/139/6 213/140/6
f 214/141/6 213/140/6 212/139/6
f 11/33/4 12/34/4 15/35/4
f 13/36/4 15/35/4 12/34/4
f 215/25/1 216/26/1 217/27/1
f 218/28/1 217/27/1 216/26/1
f 219/29/2 220/30/2 221/31/2
f 222/32/2 221/31/2 220/30/2
f 215/142/9 217/143/9 222/144/9
f 221/145/9 222/144/9 217/143/9
f 216/146/6 215/147/6 220/148/6
f 222/149/6 220/148/6 215/147/6
f 218/134/76 216/135/76 219/136/76
f 220/137/76 219/136/76 216/135/76
f 217/142/4 218/143/4 221/144/4
f 219/145/4 221/144/4 218/143/4
f 223/76/2 224/75/2 225/77/2
f 225/77/2 226/78/2 223/76/2
f 227/75/1 228/76/1 229/77/1
f 230/78/1 229/77/1 228/76/1
f 231/75/1 232/76/1 233/77/1
f 234/78/1 233/77/1 232/76/1
f 235/75/1 236/76/1 237/77/1
f 238/78/1 237/77/1 236/76/1
f 239/25/8 240/26/1 241/27/1
f 242/28/7 241/27/1 240/26/1
f 243/29/2 244/30/2 245/31/2
f 246/32/77 245/31/2 244/30/2
f 239/150/9 241/151/9 246/152/9
f 245/153/9 246/152/9 241/151/9
f 240/154/6 239/155/6 244/148/6
f 246/156/6 244/148/6 239/155/6
f 242/134/76 240/135/76 243/136/76
f 244/137/76 243/136/76 240/135/76
f 241/150/4 242/151/4 245/152/4
f 243/153/4 245/152/4 242/151/4
f 247/1/1 248/2/1 249/3/1
f 250/4/1 249/3/1 248/2/1
f 251/5/2 252/6/2 253/7/2
f 254/8/2 253/7/2 252/6/2
f 250/9/3 248/10/3 251/11/3
f 252/12/3 251/11/3 248/10/3
f 249/13/4 250/14/4 253/15/4
f 251/16/4 253/15/4 250/14/4
f 247/17/5 249/18/5 254/19/5
f 253/20/5 254/19/5 249/18/5
f 248/21/6 247/22/6 252/23/6
f 254/24/6 252/23/6 247/22/6
f 255/25/1 256/26/1 257/27/1
f 258/28/1 257/27/1 256/26/1
f 259/29/20 260/30/2 261/31/2
f 262/32/77 261/31/2 260/30/2
f 255/33/9 257/34/9 262/35/9
f 261/36/9 262/35/9 257/34/9
f 256/37/6 255/38/6 260/39/6
f 262/40/6 260/39/6 255/38/6
f 263/41/7 264/42/78 265/43/7
f 263/41/7 266/44/7 264/42/78
f 263/41/7 267/45/7 266/44/7
f 263/41/7 268/46/8 267/45/7
f 263/41/7 269/47/8 268/46/8
f 263/48/11 270/49/11 271/50/11
f 263/48/79 265/51/79 270/49/79
f 265/51/12 272/52/13 270/49/12
f 265/51/12 264/53/13 272/52/13
f 264/54/13 273/55/14 272/56/13
f 264/54/13 266/57/14 273/55/14
f 266/58/15 274/59/16 273/60/15
f 266/58/15 267/61/16 274/59/16
f 267/62/16 275/63/18 274/64/16
f 267/62/16 268/65/18 275/63/18
f 268/65/19 276/66/19 275/63/19
f 268/65/19 269/67/19 276/66/19
f 271/41/2 270/43/2 272/42/80
f 271/41/2 272/42/80 273/44/77
f 271/41/2 273/44/77 274/45/2
f 271/41/2 274/45/2 275/46/2
f 271/41/20 275/46/20 276/68/20
f 277/69/21 278/70/81 279/71/81
f 277/69/21 280/72/21 278/70/81
f 280/72/2 281/73/2 278/70/2
f 280/72/2 282/74/2 281/73/2
f 282/74/22 279/71/22 281/73/22
f 282/74/22 277/69/22 279/71/22
f 283/69/21 284/70/81 285/71/81
f 283/69/21 286/72/21 284/70/81
f 286/72/2 287/73/2 284/70/2
f 286/72/2 288/74/2 287/73/2
f 288/74/22 285/71/22 287/73/22
f 288/74/22 283/69/22 285/71/22
f 289/75/6 290/76/6 291/77/6
f 292/78/6 291/77/6 290/76/6
f 293/75/6 294/76/6 295/77/6
f 296/78/6 295/77/6 294/76/6
f 297/76/2 298/75/2 299/77/2
f 299/77/2 300/78/2 297/76/2
f 301/75/1 302/76/1 303/77/1
f 304/78/1 303/77/1 302/76/1
f 305/79/1 306/80/1 307/81/1
f 308/82/1 307/81/1 306/80/1
f 309/83/2 310/84/2 311/85/2
f 312/86/2 311/85/2 310/84/2
f 305/87/23 307/88/23 312/89/23
f 311/90/23 312/89/23 307/88/23
f 306/91/6 305/92/6 310/93/6
f 312/94/6 310/93/6 305/92/6
f 313/79/24 314/80/24 315/81/24
f 316/82/24 315/81/24 314/80/24
f 317/83/25 318/84/25 319/85/25
f 320/86/25 319/85/25 318/84/25
f 313/87/26 315/88/26 320/89/26
f 319/90/26 320/89/26 315/88/26
f 314/91/27 313/92/27 318/93/27
f 320/94/27 318/93/27 313/92/27
f 321/75/3 322/76/3 323/77/3
f 324/78/3 323/77/3 322/76/3
f 325/75/3 326/76/3 327/77/3
f 328/78/3 327/77/3 326/76/3
f 329/75/3 330/76/3 331/77/3
f 332/78/3 331/77/3 330/76/3
f 333/75/3 334/76/3 335/77/3
f 336/78/3 335/77/3 334/76/3
f 337/75/3 338/76/3 339/77/3
f 340/78/3 339/77/3 338/76/3
f 341/75/3 342/76/3 343/77/3
f 344/78/3 343/77/3 342/76/3
f 345/75/3 346/76/3 347/77/3
f 348/78/3 347/77/3 346/76/3
f 349/95/5 350/96/5 351/97/5
f 349/95/5 352/98/5 350/96/5
f 349/95/5 353/99/5 352/98/5
f 349/95/5 354/100/5 353/99/5
f 349/95/5 355/101/5 354/100/5
f 349/95/5 356/102/5 355/101/5
f 349/95/5 357/103/5 356/102/5
f 349/95/5 351/97/5 357/103/5
f 351/104/28 358/105/28 359/106/28
f 351/104/28 350/107/28 358/105/28
f 350/107/29 360/108/29 358/105/29
f 350/107/29 352/109/30 360/108/29
f 352/109/32 361/110/32 360/108/31
f 352/109/32 353/111/32 361/110/32
f 353/111/82 362/112/82 361/110/82
f 353/111/82 354/113/82 362/112/82
f 354/113/83 363/114/83 362/112/83
f 354/113/83 355/115/83 363/114/83
f 355/115/36 364/116/36 363/114/35
f 355/115/36 356/117/36 364/116/36
f 356/117/37 365/118/37 364/116/37
f 356/117/37 357/119/38 365/118/37
f 357/120/39 359/106/39 365/121/39
f 357/120/39 351/104/39 359/106/39
f 366/122/3 359/123/3 358/124/3
f 366/122/3 358/124/3 360/125/3
f 366/122/3 360/125/3 361/126/3
f 366/122/3 361/126/3 362/127/3
f 366/122/3 362/127/3 363/128/3
f 366/122/3 363/128/3 364/129/3
f 366/122/3 364/129/3 365/130/3
f 366/122/3 365/130/3 359/123/3
f 367/69/21 368/131/21 369/132/21
f 367/69/21 370/72/21 368/131/21
f 370/72/2 371/133/2 368/131/2
f 370/72/2 372/74/2 371/133/2
f 372/74/22 369/132/22 371/133/22
f 372/74/22 367/69/22 369/132/22
f 373/95/5 374/96/5 375/97/5
f 373/95/5 376/98/5 374/96/5
f 373/95/5 377/99/5 376/98/5
f 373/95/5 378/100/5 377/99/5
f 373/95/5 379/101/5 378/100/5
f 373/95/5 380/102/5 379/101/5
f 373/95/5 381/103/5 380/102/5
f 373/95/5 375/97/5 381/103/5
f 375/104/84 382/105/84 383/106/84
f 375/104/84 374/107/84 382/105/84
f 374/107/42 384/108/42 382/105/42
f 374/107/42 376/109/42 384/108/42
f 376/109/85 385/110/86 384/108/85
f 376/109/85 377/111/86 385/110/86
f 377/111/87 386/112/87 385/110/87
f 377/111/87 378/113/87 386/112/87
f 378/113/88 387/114/88 386/112/88
f 378/113/88 379/115/88 387/114/88
f 379/115/46 388/116/46 387/114/46
f 379/115/46 380/117/46 388/116/46
f 380/117/89 389/118/90 388/116/89
f 380/117/89 381/119/90 389/118/90
f 381/120/91 383/106/91 389/121/91
f 381/120/91 375/104/91 383/106/91
f 390/122/3 383/123/3 382/124/3
f 390/122/3 382/124/3 384/125/3
f 390/122/3 384/125/3 385/126/3
f 390/122/3 385/126/3 386/127/3
f 390/122/3 386/127/3 387/128/3
f 390/122/3 387/128/3 388/129/3
f 390/122/3 388/129/3 389/130/3
f 390/122/3 389/130/3 383/123/3
f 391/69/49 392/131/49 393/132/49
f 391/69/49 394/72/49 392/131/49
f 394/72/50 395/133/50 392/131/51
f 394/72/50 396/74/50 395/133/50
f 396/74/52 393/132/52 395/133/52
f 396/74/52 391/69/52 393/132/52
f 397/95/5 398/96/5 399/97/5
f 397/95/5 400/98/5 398/96/5
f 397/95/5 401/99/5 400/98/5
f 397/95/5 402/100/5 401/99/5
f 397/95/5 403/101/5 402/100/5
f 397/95/5 404/102/5 403/101/5
f 397/95/5 405/103/5 404/102/5
f 397/95/5 399/97/5 405/103/5
f 399/104/53 406/105/53 407/106/53
f 399/104/53 398/107/53 406/105/53
f 398/107/54 408/108/54 406/105/54
f 398/107/54 400/109/54 408/108/54
f 400/109/92 409/110/92 408/108/92
f 400/109/92 401/111/92 409/110/92
f 401/111/56 410/112/56 409/110/56
f 401/111/56 402/113/56 410/112/56
f 402/113/93 411/114/93 410/112/93
f 402/113/93 403/115/57 411/114/93
f 403/115/58 412/116/58 411/114/58
f 403/115/58 404/117/58 412/116/58
f 404/117/94 413/118/94 412/116/94
f 404/117/94 405/119/94 413/118/94
f 405/120/60 407/106/60 413/121/60
f 405/120/60 399/104/60 407/106/60
f 414/122/3 407/123/3 406/124/3
f 414/122/3 406/124/3 408/125/3
f 414/122/3 408/125/3 409/126/3
f 414/122/3 409/126/3 410/127/3
f 414/122/3 410/127/3 411/128/3
f 414/122/3 411/128/3 412/129/3
f 414/122/3 412/129/3 413/130/3
f 414/122/3 413/130/3 407/123/3
f 415/69/61 416/131/61 417/132/61
f 415/69/61 418/72/61 416/131/61
f 418/72/95 419/133/95 416/131/95
f 418/72/95 420/74/95 419/133/95
f 420/74/96 417/132/97 419/133/97
f 420/74/96 415/69/96 417/132/97
f 421/95/5 422/96/5 423/97/5
f 421/95/5 424/98/5 422/96/5
f 421/95/5 425/99/5 424/98/5
f 421/95/5 426/100/5 425/99/5
f 421/95/5 427/101/5 426/100/5
f 421/95/5 428/102/5 427/101/5
f 421/95/5 429/103/5 428/102/5
f 421/95/5 423/97/5 429/103/5
f 423/104/98 430/105/98 431/106/98
f 423/104/98 422/107/98 430/105/98
f 422/107/65 432/108/65 430/105/65
f 422/107/65 424/109/65 432/108/65
f 424/109/66 433/110/66 432/108/66
f 424/109/66 425/111/66 433/110/66
f 425/111/99 434/112/99 433/110/99
f 425/111/99 426/113/99 434/112/99
f 426/113/100 435/114/100 434/112/100
f 426/113/100 427/115/100 435/114/100
f 427/115/69 436/116/69 435/114/69
f 427/115/69 428/117/69 436/116/69
f 428/117/70 437/118/70 436/116/70
f 428/117/70 429/119/70 437/118/70
f 429/120/101 431/106/101 437/121/101
f 429/120/101 423/104/101 431/106/101
f 438/122/3 431/123/3 430/124/3
f 438/122/3 430/124/3 432/125/3
f 438/122/3 432/125/3 433/126/3
f 438/122/3 433/126/3 434/127/3
f 438/122/3 434/127/3 435/128/3
f 438/122/3 435/128/3 436/129/3
f 438/122/3 436/129/3 437/130/3
f 438/122/3 437/130/3 431/123/3
f 439/69/72 440/131/72 441/132/72
f 439/69/72 442/72/72 440/131/72
f 442/72/73 443/133/73 440/131/73
f 442/72/73 444/74/73 443/133/73
f 444/74/74 441/132/74 443/133/74
f 444/74/74 439/69/74 441/132/74
f 445/69/21 446/70/21 447/71/21
f 445/69/21 448/72/21 446/70/21
f 448/72/2 449/73/2 446/70/2
f 448/72/2 450/74/2 449/73/2
f 450/74/75 447/71/22 449/73/22
f 450/74/75 445/69/75 447/71/22
f 451/69/40 452/70/40 453/71/40
f 451/69/40 454/72/40 452/70/40
f 454/72/2 455/73/2 452/70/2
f 454/72/2 456/74/2 455/73/2
f 456/74/102 453/71/102 455/73/102
f 456/74/102 451/69/102 453/71/102
f 258/134/76 256/135/76 259/136/76
f 260/137/76 259/136/76 256/135/76
f 457/138/6 458/139/6 459/140/6
f 460/141/6 459/140/6 458/139/6
f 257/33/4 258/34/4 261/35/4
f 259/36/4 261/35/4 258/34/4
f 461/25/1 462/26/1 463/27/1
f 464/28/1 463/27/1 462/26/1
f 465/29/2 466/30/2 467/31/2
f 468/32/2 467/31/2 466/30/2
f 461/142/9 463/143/9 468/144/9
f 467/145/9 468/144/9 463/143/9
f 462/146/6 461/147/6 466/148/6
f 468/149/6 466/148/6 461/147/6
f 464/134/76 462/135/76 465/136/76
f 466/137/76 465/136/76 462/135/76
f 463/142/4 464/143/4 467/144/4
f 465/145/4 467/144/4 464/143/4
f 469/76/2 470/75/2 471/77/2
f 471/77/2 472/78/2 469/76/2
f 473/75/1 474/76/1 475/77/1
f 476/78/1 475/77/1 474/76/1
f 477/75/1 478/76/1 479/77/1
f 480/78/1 479/77/1 478/76/1
f 481/75/1 482/76/1 483/77/1
f 484/78/1 483/77/1 482/76/1
f 485/25/1 486/26/1 487/27/1
f 488/28/1 487/27/1 486/26/1
f 489/29/20 490/30/2 491/31/2
f 492/32/2 491/31/2 490/30/2
f 485/150/9 487/151/9 492/152/9
f 491/153/9 492/152/9 487/151/9
f 486/154/6 485/155/6 490/148/6
f 492/156/6 490/148/6 485/155/6
f 488/134/76 486/135/76 489/136/76
f 490/137/76 489/136/76 486/135/76
f 487/150/4 488/151/4 491/152/4
f 489/153/4 491/152/4 488/151/4
f 493/1/1 494/2/1 495/3/1
f 496/4/1 495/3/1 494/2/1
f 497/5/2 498/6/2 499/7/2
f 500/8/2 499/7/2 498/6/2
f 496/9/3 494/10/3 497/11/3
f 498/12/3 497/11/3 494/10/3
f 495/13/4 496/14/4 499/15/4
f 497/16/4 499/15/4 496/14/4
f 493/17/5 495/18/5 500/19/5
f 499/20/5 500/19/5 495/18/5
f 494/21/6 493/22/6 498/23/6
f 500/24/6 498/23/6 493/22/6
f 501/25/1 502/26/1 503/27/1
f 504/28/1 503/27/1 502/26/1
f 505/29/2 506/30/2 507/31/2
f 508/32/2 507/31/2 506/30/2
f 501/33/9 503/34/9 508/35/9
f 507/36/9 508/35/9 503/34/9
f 502/37/6 501/38/6 506/39/6
f 508/40/6 506/39/6 501/38/6
f 509/41/1 510/42/1 511/43/1
f 509/41/1 512/44/1 510/42/1
f 509/41/1 513/45/1 512/44/1
f 509/41/1 514/46/1 513/45/1
f 509/41/1 515/47/1 514/46/1
f 509/48/11 516/49/11 517/50/11
f 509/48/79 511/51/79 516/49/79
f 511/51/12 518/52/13 516/49/12
f 511/51/12 510/53/13 518/52/13
f 510/54/13 519/55/14 518/56/13
f 510/54/13 512/57/14 519/55/14
f 512/58/15 520/59/16 519/60/15
f 512/58/15 513/61/16 520/59/16
f 513/62/16 521/63/18 520/64/16
f 513/62/16 514/65/18 521/63/18
f 514/65/19 522/66/19 521/63/19
f 514/65/19 515/67/19 522/66/19
f 517/41/2 516/43/20 518/42/2
f 517/41/2 518/42/2 519/44/2
f 517/41/2 519/44/2 520/45/2
f 517/41/2 520/45/2 521/46/2
f 517/41/2 521/46/2 522/68/2
f 523/69/21 524/70/81 525/71/81
f 523/69/21 526/72/21 524/70/81
f 526/72/2 527/73/2 524/70/2
f 526/72/2 528/74/2 527/73/2
f 528/74/22 525/71/22 527/73/22
f 528/74/22 523/69/22 525/71/22
f 529/69/21 530/70/21 531/71/21
f 529/69/21 532/72/21 530/70/21
f 532/72/2 533/73/2 530/70/2
f 532/72/2 534/74/2 533/73/2
f 534/74/22 531/71/22 533/73/22
f 534/74/22 529/69/22 531/71/22
f 535/75/6 536/76/6 537/77/6
f 538/78/6 537/77/6 536/76/6
f 539/75/6 540/76/6 541/77/6
f 542/78/6 541/77/6 540/76/6
f 543/76/2 544/75/2 545/77/2
f 545/77/2 546/78/2 543/76/2
f 547/75/1 548/76/1 549/77/1
f 550/78/1 549/77/1 548/76/1
f 551/79/1 552/80/1 553/81/1
f 554/82/1 553/81/1 552/80/1
f 555/83/2 556/84/2 557/85/2
f 558/86/2 557/85/2 556/84/2
f 551/87/23 553/88/23 558/89/23
f 557/90/23 558/89/23 553/88/23
f 552/91/6 551/92/6 556/93/6
f 558/94/6 556/93/6 551/92/6
f 559/79/24 560/80/24 561/81/24
f 562/82/24 561/81/24 560/80/24
f 563/83/25 564/84/25 565/85/25
f 566/86/25 565/85/25 564/84/25
f 559/87/26 561/88/26 566/89/26
f 565/90/26 566/89/26 561/88/26
f 560/91/27 559/92/27 564/93/27
f 566/94/27 564/93/27 559/92/27
f 567/75/3 568/76/3 569/77/3
f 570/78/3 569/77/3 568/76/3
f 571/75/3 572/76/3 573/77/3
f 574/78/3 573/77/3 572/76/3
f 575/75/3 576/76/3 577/77/3
f 578/78/3 577/77/3 576/76/3
f 579/75/3 580/76/3 581/77/3
f 582/78/3 581/77/3 580/76/3
f 583/75/3 584/76/3 585/77/3
f 586/78/3 585/77/3 584/76/3
f 587/75/3 588/76/3 589/77/3
f 590/78/3 589/77/3 588/76/3
f 591/75/3 592/76/3 593/77/3
f 594/78/3 593/77/3 592/76/3
f 595/95/5 596/96/5 597/97/5
f 595/95/5 598/98/5 596/96/5
f 595/95/5 599/99/5 598/98/5
f 595/95/5 600/100/5 599/99/5
f 595/95/5 601/101/5 600/100/5
f 595/95/5 602/102/5 601/101/5
f 595/95/5 603/103/5 602/102/5
f 595/95/5 597/97/5 603/103/5
f 597/104/103 604/105/103 605/106/103
f 597/104/103 596/107/104 604/105/103
f 596/107/29 606/108/30 604/105/29
f 596/107/29 598/109/30 606/108/30
f 598/109/32 607/110/32 606/108/31
f 598/109/32 599/111/32 607/110/32
f 599/111/105 608/112/105 607/110/82
f 599/111/105 600/113/105 608/112/105
f 600/113/83 609/114/83 608/112/83
f 600/113/83 601/115/83 609/114/83
f 601/115/36 610/116/36 609/114/35
f 601/115/36 602/117/36 610/116/36
f 602/117/37 611/118/38 610/116/37
f 602/117/37 603/119/38 611/118/38
f 603/120/106 605/106/106 611/121/106
f 603/120/106 597/104/106 605/106/106
f 612/122/3 605/123/3 604/124/3
f 612/122/3 604/124/3 606/125/3
f 612/122/3 606/125/3 607/126/3
f 612/122/3 607/126/3 608/127/3
f 612/122/3 608/127/3 609/128/3
f 612/122/3 609/128/3 610/129/3
f 612/122/3 610/129/3 611/130/3
f 612/122/3 611/130/3 605/123/3
f 613/69/21 614/131/21 615/132/21
f 613/69/21 616/72/21 614/131/21
f 616/72/2 617/133/2 614/131/2
f 616/72/2 618/74/2 617/133/2
f 618/74/22 615/132/22 617/133/22
f 618/74/22 613/69/22 615/132/22
f 619/95/5 620/96/5 621/97/5
f 619/95/5 622/98/5 620/96/5
f 619/95/5 623/99/5 622/98/5
f 619/95/5 624/100/5 623/99/5
f 619/95/5 625/101/5 624/100/5
f 619/95/5 626/102/5 625/101/5
f 619/95/5 627/103/5 626/102/5
f 619/95/5 621/97/5 627/103/5
f 621/104/41 628/105/41 629/106/41
f 621/104/41 620/107/41 628/105/41
f 620/107/42 630/108/42 628/105/42
f 620/107/42 622/109/42 630/108/42
f 622/109/43 631/110/43 630/108/43
f 622/109/43 623/111/43 631/110/43
f 623/111/107 632/112/107 631/110/107
f 623/111/107 624/113/107 632/112/107
f 624/113/45 633/114/45 632/112/45
f 624/113/45 625/115/45 633/114/45
f 625/115/46 634/116/46 633/114/46
f 625/115/46 626/117/46 634/116/46
f 626/117/47 635/118/47 634/116/47
f 626/117/47 627/119/47 635/118/47
f 627/120/108 629/106/108 635/121/108
f 627/120/108 621/104/108 629/106/108
f 636/122/3 629/123/3 628/124/3
f 636/122/3 628/124/3 630/125/3
f 636/122/3 630/125/3 631/126/3
f 636/122/3 631/126/3 632/127/3
f 636/122/3 632/127/3 633/128/3
f 636/122/3 633/128/3 634/129/3
f 636/122/3 634/129/3 635/130/3
f 636/122/3 635/130/3 629/123/3
f 637/69/109 638/131/49 639/132/49
f 637/69/109 640/72/109 638/131/49
f 640/72/50 641/133/50 638/131/51
f 640/72/50 642/74/50 641/133/50
f 642/74/52 639/132/52 641/133/52
f 642/74/52 637/69/52 639/132/52
f 643/95/5 644/96/5 645/97/5
f 643/95/5 646/98/5 644/96/5
f 643/95/5 647/99/5 646/98/5
f 643/95/5 648/100/5 647/99/5
f 643/95/5 649/101/5 648/100/5
f 643/95/5 650/102/5 649/101/5
f 643/95/5 651/103/5 650/102/5
f 643/95/5 645/97/5 651/103/5
f 645/104/53 652/105/53 653/106/53
f 645/104/53 644/107/53 652/105/53
f 644/107/54 654/108/54 652/105/54
f 644/107/54 646/109/54 654/108/54
f 646/109/55 655/110/55 654/108/55
f 646/109/55 647/111/55 655/110/55
f 647/111/56 656/112/56 655/110/56
f 647/111/56 648/113/56 656/112/56
f 648/113/57 657/114/57 656/112/57
f 648/113/57 649/115/57 657/114/57
f 649/115/58 658/116/58 657/114/58
f 649/115/58 650/117/58 658/116/58
f 650/117/59 659/118/59 658/116/59
f 650/117/59 651/119/59 659/118/59
f 651/120/60 653/106/60 659/121/60
f 651/120/60 645/104/60 653/106/60
f 660/122/3 653/123/3 652/124/3
f 660/122/3 652/124/3 654/125/3
f 660/122/3 654/125/3 655/126/3
f 660/122/3 655/126/3 656/127/3
f 660/122/3 656/127/3 657/128/3
f 660/122/3 657/128/3 658/129/3
f 660/122/3 658/129/3 659/130/3
f 660/122/3 659/130/3 653/123/3
f 661/69/61 662/131/61 663/132/61
f 661/69/61 664/72/61 662/131/61
f 664/72/62 665/133/62 662/131/62
f 664/72/62 666/74/62 665/133/62
f 666/74/110 663/132/110 665/133/110
f 666/74/110 661/69/110 663/132/110
f 667/95/5 668/96/5 669/97/5
f 667/95/5 670/98/5 668/96/5
f 667/95/5 671/99/5 670/98/5
f 667/95/5 672/100/5 671/99/5
f 667/95/5 673/101/5 672/100/5
f 667/95/5 674/102/5 673/101/5
f 667/95/5 675/103/5 674/102/5
f 667/95/5 669/97/5 675/103/5
f 669/104/111 676/105/111 677/106/111
f 669/104/111 668/107/111 676/105/111
f 668/107/65 678/108/65 676/105/65
f 668/107/65 670/109/65 678/108/65
f 670/109/66 679/110/66 678/108/66
f 670/109/66 671/111/66 679/110/66
f 671/111/67 680/112/67 679/110/67
f 671/111/67 672/113/67 680/112/67
f 672/113/68 681/114/68 680/112/68
f 672/113/68 673/115/68 681/114/68
f 673/115/69 682/116/69 681/114/69
f 673/115/69 674/117/69 682/116/69
f 674/117/70 683/118/70 682/116/70
f 674/117/70 675/119/70 683/118/70
f 675/120/101 677/106/101 683/121/101
f 675/120/101 669/104/101 677/106/101
f 684/122/3 677/123/3 676/124/3
f 684/122/3 676/124/3 678/125/3
f 684/122/3 678/125/3 679/126/3
f 684/122/3 679/126/3 680/127/3
f 684/122/3 680/127/3 681/128/3
f 684/122/3 681/128/3 682/129/3
f 684/122/3 682/129/3 683/130/3
f 684/122/3 683/130/3 677/123/3
f 685/69/72 686/131/72 687/132/72
f 685/69/72 688/72/72 686/131/72
f 688/72/112 689/133/112 686/131/112
f 688/72/112 690/74/112 689/133/112
f 690/74/74 687/132/74 689/133/74
f 690/74/74 685/69/74 687/132/74
f 691/69/21 692/70/21 693/71/21
f 691/69/21 694/72/21 692/70/21
f 694/72/2 695/73/2 692/70/2
f 694/72/2 696/74/2 695/73/2
f 696/74/22 693/71/22 695/73/22
f 696/74/22 691/69/22 693/71/22
f 697/69/21 698/70/21 699/71/21
f 697/69/21 700/72/21 698/70/21
f 700/72/2 701/73/2 698/70/2
f 700/72/2 702/74/2 701/73/2
f 702/74/22 699/71/22 701/73/22
f 702/74/22 697/69/22 699/71/22
f 504/134/76 502/135/76 505/136/76
f 506/137/76 505/136/76 502/135/76
f 703/138/6 704/139/6 705/140/6
f 706/141/6 705/140/6 704/139/6
f 503/33/4 504/34/4 507/35/4
f 505/36/4 507/35/4 504/34/4
f 707/25/1 708/26/1 709/27/1
f 710/28/1 709/27/1 708/26/1
f 711/29/2 712/30/2 713/31/2
f 714/32/2 713/31/2 712/30/2
f 707/142/9 709/143/9 714/144/9
f 713/145/9 714/144/9 709/143/9
f 708/146/6 707/147/6 712/148/6
f 714/149/6 712/148/6 707/147/6
f 710/134/76 708/135/76 711/136/76
f 712/137/76 711/136/76 708/135/76
f 709/142/4 710/143/4 713/144/4
f 711/145/4 713/144/4 710/143/4
f 715/76/2 716/75/2 717/77/2
f 717/77/2 718/78/2 715/76/2
f 719/75/1 720/76/1 721/77/1
f 722/78/1 721/77/1 720/76/1
f 723/75/1 724/76/1 725/77/1
f 726/78/1 725/77/1 724/76/1
f 727/75/1 728/76/1 729/77/1
f 730/78/1 729/77/1 728/76/1
f 731/25/1 732/26/1 733/27/1
f 734/28/1 733/27/1 732/26/1
f 735/29/2 736/30/2 737/31/2
f 738/32/2 737/31/2 736/30/2
f 731/150/9 733/151/9 738/152/9
f 737/153/9 738/152/9 733/151/9
f 732/154/6 731/155/6 736/148/6
f 738/156/6 736/148/6 731/155/6
f 734/134/76 732/135/76 735/136/76
f 736/137/76 735/136/76 732/135/76
f 733/150/4 734/151/4 737/152/4
f 735/153/4 737/152/4 734/151/4
f 739/1/1 740/2/1 741/3/1
f 742/4/1 741/3/1 740/2/1
f 743/5/2 744/6/2 745/7/2
f 746/8/2 745/7/2 744/6/2
f 742/9/3 740/10/3 743/11/3
f 744/12/3 743/11/3 740/10/3
f 741/13/4 742/14/4 745/15/4
f 743/16/4 745/15/4 742/14/4
f 739/17/5 741/18/5 746/19/5
f 745/20/5 746/19/5 741/18/5
f 740/21/6 739/22/6 744/23/6
f 746/24/6 744/23/6 739/22/6
f 747/25/1 748/26/1 749/27/1
f 750/28/1 749/27/1 748/26/1
f 751/29/2 752/30/2 753/31/2
f 754/32/2 753/31/2 752/30/2
f 747/33/9 749/34/9 754/35/9
f 753/36/9 754/35/9 749/34/9
f 748/37/6 747/38/6 752/39/6
f 754/40/6 752/39/6 747/38/6
f 755/41/1 756/42/1 757/43/1
f 755/41/1 758/44/1 756/42/1
f 755/41/1 759/45/1 758/44/1
f 755/41/1 760/46/1 759/45/1
f 755/41/1 761/47/1 760/46/1
f 755/48/11 762/49/11 763/50/11
f 755/48/79 757/51/79 762/49/79
f 757/51/12 764/52/13 762/49/12
f 757/51/12 756/53/13 764/52/13
f 756/54/13 765/55/14 764/56/13
f 756/54/13 758/57/14 765/55/14
f 758/58/17 766/59/16 765/60/15
f 758/58/17 759/61/16 766/59/16
f 759/62/16 767/63/18 766/64/16
f 759/62/16 760/65/18 767/63/18
f 760/65/19 768/66/19 767/63/19
f 760/65/19 761/67/19 768/66/19
f 763/41/2 762/43/2 764/42/2
f 763/41/2 764/42/2 765/44/2
f 763/41/2 765/44/2 766/45/2
f 763/41/2 766/45/2 767/46/2
f 763/41/2 767/46/2 768/68/2
f 769/69/21 770/70/21 771/71/21
f 769/69/21 772/72/21 770/70/21
f 772/72/2 773/73/2 770/70/2
f 772/72/2 774/74/2 773/73/2
f 774/74/22 771/71/22 773/73/22
f 774/74/22 769/69/22 771/71/22
f 775/69/21 776/70/21 777/71/21
f 775/69/21 778/72/21 776/70/21
f 778/72/2 779/73/2 776/70/2
f 778/72/2 780/74/2 779/73/2
f 780/74/22 777/71/22 779/73/22
f 780/74/22 775/69/22 777/71/22
f 781/75/6 782/76/6 783/77/6
f 784/78/6 783/77/6 782/76/6
f 785/75/6 786/76/6 787/77/6
f 788/78/6 787/77/6 786/76/6
f 789/76/2 790/75/2 791/77/2
f 791/77/2 792/78/2 789/76/2
f 793/75/1 794/76/1 795/77/1
f 796/78/1 795/77/1 794/76/1
f 797/79/1 798/80/1 799/81/1
f 800/82/1 799/81/1 798/80/1
f 801/83/2 802/84/2 803/85/2
f 804/86/2 803/85/2 802/84/2
f 797/87/23 799/88/23 804/89/23
f 803/90/23 804/89/23 799/88/23
f 798/91/6 797/92/6 802/93/6
f 804/94/6 802/93/6 797/92/6
f 805/79/24 806/80/24 807/81/24
f 808/82/24 807/81/24 806/80/24
f 809/83/25 810/84/25 811/85/25
f 812/86/25 811/85/25 810/84/25
f 805/87/26 807/88/26 812/89/26
f 811/90/26 812/89/26 807/88/26
f 806/91/27 805/92/27 810/93/27
f 812/94/27 810/93/27 805/92/27
f 813/75/3 814/76/3 815/77/3
f 816/78/3 815/77/3 814/76/3
f 817/75/3 818/76/3 819/77/3
f 820/78/3 819/77/3 818/76/3
f 821/75/3 822/76/3 823/77/3
f 824/78/3 823/77/3 822/76/3
f 825/75/3 826/76/3 827/77/3
f 828/78/3 827/77/3 826/76/3
f 829/75/3 830/76/3 831/77/3
f 832/78/3 831/77/3 830/76/3
f 833/75/3 834/76/3 835/77/3
f 836/78/3 835/77/3 834/76/3
f 837/75/3 838/76/3 839/77/3
f 840/78/3 839/77/3 838/76/3
f 841/95/5 842/96/5 843/97/5
f 841/95/5 844/98/5 842/96/5
f 841/95/5 845/99/5 844/98/5
f 841/95/5 846/100/5 845/99/5
f 841/95/5 847/101/5 846/100/5
f 841/95/5 848/102/5 847/101/5
f 841/95/5 849/103/5 848/102/5
f 841/95/5 843/97/5 849/103/5
f 843/104/104 850/105/104 851/106/104
f 843/104/104 842/107/104 850/105/104
f 842/107/29 852/108/29 850/105/29
f 842/107/29 844/109/29 852/108/29
f 844/109/32 853/110/32 852/108/32
f 844/109/32 845/111/32 853/110/32
f 845/111/82 854/112/82 853/110/82
f 845/111/82 846/113/82 854/112/82
f 846/113/83 855/114/83 854/112/83
f 846/113/83 847/115/83 855/114/83
f 847/115/35 856/116/36 855/114/35
f 847/115/35 848/117/36 856/116/36
f 848/117/37 857/118/38 856/116/37
f 848/117/37 849/119/38 857/118/38
f 849/120/106 851/106/106 857/121/106
f 849/120/106 843/104/106 851/106/106
f 858/122/3 851/123/3 850/124/3
f 858/122/3 850/124/3 852/125/3
f 858/122/3 852/125/3 853/126/3
f 858/122/3 853/126/3 854/127/3
f 858/122/3 854/127/3 855/128/3
f 858/122/3 855/128/3 856/129/3
f 858/122/3 856/129/3 857/130/3
f 858/122/3 857/130/3 851/123/3
f 859/69/21 860/131/21 861/132/21
f 859/69/21 862/72/21 860/131/21
f 862/72/2 863/133/2 860/131/2
f 862/72/2 864/74/2 863/133/2
f 864/74/22 861/132/22 863/133/22
f 864/74/22 859/69/22 861/132/22
f 865/95/5 866/96/5 867/97/5
f 865/95/5 868/98/5 866/96/5
f 865/95/5 869/99/5 868/98/5
f 865/95/5 870/100/5 869/99/5
f 865/95/5 871/101/5 870/100/5
f 865/95/5 872/102/5 871/101/5
f 865/95/5 873/103/5 872/102/5
f 865/95/5 867/97/5 873/103/5
f 867/104/41 874/105/41 875/106/41
f 867/104/41 866/107/41 874/105/41
f 866/107/42 876/108/42 874/105/42
f 866/107/42 868/109/42 876/108/42
f 868/109/43 877/110/43 876/108/43
f 868/109/43 869/111/43 877/110/43
f 869/111/107 878/112/107 877/110/107
f 869/111/107 870/113/107 878/112/107
f 870/113/45 879/114/45 878/112/45
f 870/113/45 871/115/45 879/114/45
f 871/115/46 880/116/46 879/114/46
f 871/115/46 872/117/46 880/116/46
f 872/117/47 881/118/47 880/116/47
f 872/117/47 873/119/47 881/118/47
f 873/120/48 875/106/48 881/121/48
f 873/120/48 867/104/108 875/106/48
f 882/122/3 875/123/3 874/124/3
f 882/122/3 874/124/3 876/125/3
f 882/122/3 876/125/3 877/126/3
f 882/122/3 877/126/3 878/127/3
f 882/122/3 878/127/3 879/128/3
f 882/122/3 879/128/3 880/129/3
f 882/122/3 880/129/3 881/130/3
f 882/122/3 881/130/3 875/123/3
f 883/69/109 884/131/49 885/132/49
f 883/69/109 886/72/109 884/131/49
f 886/72/50 887/133/50 884/131/51
f 886/72/50 888/74/50 887/133/50
f 888/74/52 885/132/52 887/133/52
f 888/74/52 883/69/52 885/132/52
f 889/95/5 890/96/5 891/97/5
f 889/95/5 892/98/5 890/96/5
f 889/95/5 893/99/5 892/98/5
f 889/95/5 894/100/5 893/99/5
f 889/95/5 895/101/5 894/100/5
f 889/95/5 896/102/5 895/101/5
f 889/95/5 897/103/5 896/102/5
f 889/95/5 891/97/5 897/103/5
f 891/104/53 898/105/53 899/106/53
f 891/104/53 890/107/53 898/105/53
f 890/107/54 900/108/54 898/105/54
f 890/107/54 892/109/54 900/108/54
f 892/109/55 901/110/55 900/108/55
f 892/109/55 893/111/55 901/110/55
f 893/111/56 902/112/56 901/110/56
f 893/111/56 894/113/56 902/112/56
f 894/113/57 903/114/57 902/112/57
f 894/113/57 895/115/57 903/114/57
f 895/115/58 904/116/58 903/114/58
f 895/115/58 896/117/58 904/116/58
f 896/117/59 905/118/59 904/116/59
f 896/117/59 897/119/59 905/118/59
f 897/120/60 899/106/60 905/121/60
f 897/120/60 891/104/60 899/106/60
f 906/122/3 899/123/3 898/124/3
f 906/122/3 898/124/3 900/125/3
f 906/122/3 900/125/3 901/126/3
f 906/122/3 901/126/3 902/127/3
f 906/122/3 902/127/3 903/128/3
f 906/122/3 903/128/3 904/129/3
f 906/122/3 904/129/3 905/130/3
f 906/122/3 905/130/3 899/123/3
f 907/69/61 908/131/61 909/132/61
f 907/69/61 910/72/61 908/131/61
f 910/72/62 911/133/62 908/131/62
f 910/72/62 912/74/62 911/133/62
f 912/74/110 909/132/110 911/133/110
f 912/74/110 907/69/110 909/132/110
f 913/95/5 914/96/5 915/97/5
f 913/95/5 916/98/5 914/96/5
f 913/95/5 917/99/5 916/98/5
f 913/95/5 918/100/5 917/99/5
f 913/95/5 919/101/5 918/100/5
f 913/95/5 920/102/5 919/101/5
f 913/95/5 921/103/5 920/102/5
f 913/95/5 915/97/5 921/103/5
f 915/104/111 922/105/111 923/106/111
f 915/104/111 914/107/111 922/105/111
f 914/107/65 924/108/65 922/105/65
f 914/107/65 916/109/65 924/108/65
f 916/109/66 925/110/66 924/108/66
f 916/109/66 917/111/66 925/110/66
f 917/111/67 926/112/67 925/110/67
f 917/111/67 918/113/67 926/112/67
f 918/113/68 927/114/68 926/112/68
f 918/113/68 919/115/68 927/114/68
f 919/115/69 928/116/69 927/114/69
f 919/115/69 920/117/69 928/116/69
f 920/117/70 929/118/70 928/116/70
f 920/117/70 921/119/70 929/118/70
f 921/120/71 923/106/71 929/121/71
f 921/120/71 915/104/71 923/106/71
f 930/122/3 923/123/3 922/124/3
f 930/122/3 922/124/3 924/125/3
f 930/122/3 924/125/3 925/126/3
f 930/122/3 925/126/3 926/127/3
f 930/122/3 926/127/3 927/128/3
f 930/122/3 927/128/3 928/129/3
f 930/122/3 928/129/3 929/130/3
f 930/122/3 929/130/3 923/123/3
f 931/69/72 932/131/72 933/132/72
f 931/69/72 934/72/72 932/131/72
f 934/72/112 935/133/112 932/131/112
f 934/72/112 936/74/112 935/133/112
f 936/74/74 933/132/74 935/133/74
f 936/74/74 931/69/74 933/132/74
f 937/69/21 938/70/21 939/71/21
f 937/69/21 940/72/21 938/70/21
f 940/72/2 941/73/2 938/70/2
f 940/72/2 942/74/2 941/73/2
f 942/74/22 939/71/22 941/73/22
f 942/74/22 937/69/22 939/71/22
f 943/69/21 944/70/21 945/71/21
f 943/69/21 946/72/21 944/70/21
f 946/72/2 947/73/2 944/70/2
f 946/72/2 948/74/2 947/73/2
f 948/74/22 945/71/22 947/73/22
f 948/74/22 943/69/22 945/71/22
f 750/134/76 748/135/76 751/136/76
f 752/137/76 751/136/76 748/135/76
f 949/138/6 950/139/6 951/140/6
f 952/141/6 951/140/6 950/139/6
f 749/33/4 750/34/4 753/35/4
f 751/36/4 753/35/4 750/34/4
f 953/25/1 954/26/1 955/27/1
f 956/28/1 955/27/1 954/26/1
f 957/29/2 958/30/2 959/31/2
f 960/32/2 959/31/2 958/30/2
f 953/142/9 955/143/9 960/144/9
f 959/145/9 960/144/9 955/143/9
f 954/146/6 953/147/6 958/148/6
f 960/149/6 958/148/6 953/147/6
f 956/134/76 954/135/76 957/136/76
f 958/137/76 957/136/76 954/135/76
f 955/142/4 956/143/4 959/144/4
f 957/145/4 959/144/4 956/143/4
f 961/76/2 962/75/2 963/77/2
f 963/77/2 964/78/2 961/76/2
f 965/75/1 966/76/1 967/77/1
f 968/78/1 967/77/1 966/76/1
f 969/75/1 970/76/1 971/77/1
f 972/78/1 971/77/1 970/76/1
f 973/75/1 974/76/1 975/77/1
f 976/78/1 975/77/1 974/76/1
f 977/25/1 978/26/1 979/27/1
f 980/28/1 979/27/1 978/26/1
f 981/29/2 982/30/2 983/31/2
f 984/32/2 983/31/2 982/30/2
f 977/150/9 979/151/9 984/152/9
f 983/153/9 984/152/9 979/151/9
f 978/154/6 977/155/6 982/148/6
f 984/156/6 982/148/6 977/155/6
f 980/134/76 978/135/76 981/136/76
f 982/137/76 981/136/76 978/135/76
f 979/150/4 980/151/4 983/152/4
f 981/153/4 983/152/4 980/151/4
