# Blender 4.4.3
# www.blender.org
mtllib RAILA.mtl
o RAILA
v 561.872925 -2.007975 -188.181900
v 564.533325 -2.007975 -188.975388
v 564.533325 -2.879667 -188.975388
v 561.872925 -2.879667 -188.181900
v 564.974304 -2.007975 -187.496887
v 562.313904 -2.007975 -186.703415
v 562.313904 -2.879667 -186.703415
v 564.974304 -2.879667 -187.496887
v 528.938843 -2.007973 -176.940948
v 526.278442 -2.007974 -176.147461
v 526.278442 -2.879666 -176.147461
v 528.938843 -2.879665 -176.940948
v 525.837463 -2.007974 -177.625961
v 528.497864 -2.007973 -178.419449
v 528.497864 -2.879665 -178.419449
v 525.837463 -2.879665 -177.625961
v -193.235672 1.347871 -21.176601
v -193.228790 1.347870 -23.952816
v -193.228790 0.476179 -23.952816
v -193.235672 0.476179 -21.176601
v -191.685928 1.347870 -23.948990
v -191.692810 1.347870 -21.172775
v -191.692825 0.476179 -21.172773
v -191.685928 0.476178 -23.948990
v -191.721054 1.347874 17.168720
v -191.727936 1.347875 19.944937
v -191.727936 0.476183 19.944937
v -191.721054 0.476183 17.168720
v -193.270798 1.347875 19.941111
v -193.263901 1.347874 17.164896
v -193.263901 0.476183 17.164896
v -193.270798 0.476184 19.941111
v -291.646149 20.582506 -597.210632
v -288.869934 20.582506 -597.219971
v -288.869934 19.710814 -597.219971
v -291.646149 19.710814 -597.210632
v -288.864716 20.582506 -595.677124
v -291.640930 20.582506 -595.667786
v -291.640930 19.710814 -595.667786
v -288.864716 19.710814 -595.677124
v -329.981934 20.582506 -595.471313
v -332.758148 20.582506 -595.461975
v -332.758148 19.710815 -595.461975
v -329.981934 19.710815 -595.471313
v -332.763367 20.582506 -597.004822
v -329.987152 20.582506 -597.014160
v -329.987152 19.710815 -597.014160
v -332.763367 19.710815 -597.004822
v -180.661041 -1.730216 -784.840332
v -181.744751 -1.730217 -787.927734
v -181.744751 -2.863351 -787.927734
v -180.661041 -2.863349 -784.840332
v -179.869034 -1.730215 -788.637695
v -178.264374 -1.730215 -783.133240
v -178.264374 -2.863349 -783.133240
v -179.869034 -2.863351 -788.637695
v -239.714249 8.781128 -757.246277
v -242.735916 8.781128 -755.990967
v -242.735916 7.647995 -755.990967
v -239.714249 7.647996 -757.246277
v -243.550110 8.781128 -757.823853
v -240.528442 8.781128 -759.079163
v -240.528427 7.647996 -759.079163
v -243.550110 7.647996 -757.823853
v 492.314362 31.854546 -808.805603
v 488.947205 31.854546 -808.201843
v 488.947205 30.780445 -808.201843
v 492.314362 30.780447 -808.805603
v 488.611694 31.854546 -810.073120
v 491.978851 31.854546 -810.676880
v 491.978851 30.780447 -810.676880
v 488.611694 30.780447 -810.073120
v 556.908508 32.066326 -816.710632
v 560.685303 32.066322 -812.076233
v 560.685303 30.992226 -812.076233
v 556.908508 30.992226 -816.710632
v 558.186279 32.228577 -809.756897
v 554.503174 32.228580 -814.344421
v 554.503174 31.154480 -814.344421
v 558.186279 31.154480 -809.756897
v 543.787048 32.126751 -827.213440
v 540.192749 32.126747 -831.990784
v 540.192749 31.052649 -831.990784
v 543.787048 31.052649 -827.213440
v 542.779785 32.288998 -834.211487
v 546.282288 32.289005 -829.484619
v 546.282288 31.214903 -829.484619
v 542.779785 31.214903 -834.211487
v 495.307770 4.290707 -278.583191
v 495.799774 4.290707 -276.934235
v 495.799774 3.407638 -276.934235
v 495.307739 3.407637 -278.583191
v 493.470428 4.290707 -278.034943
v 493.470428 3.407638 -278.034943
v 488.603058 0.424029 -276.582581
v 488.603058 -0.459040 -276.582581
v 486.765747 0.424029 -276.034363
v 486.765747 -0.459040 -276.034363
v 481.136841 -2.723686 -274.354767
v 481.136841 -3.606756 -274.354767
v 493.962463 4.290707 -276.385986
v 489.095093 0.424029 -274.933624
v 493.962463 3.407638 -276.385986
v 489.095093 -0.459040 -274.933624
v 487.257782 0.424029 -274.385406
v 487.257782 -0.459040 -274.385406
v 481.628876 -2.723686 -272.705811
v 481.628876 -3.606754 -272.705811
v 496.340973 4.290707 -275.119568
v 496.340973 3.407638 -275.119568
v 516.081177 4.290714 -189.253647
v 516.572693 4.290714 -187.604538
v 516.081177 3.407644 -189.253647
v 516.572693 3.407644 -187.604538
v 514.735229 4.290714 -187.056854
v 514.735229 3.407645 -187.056854
v 509.867432 0.424036 -185.605988
v 509.867432 -0.459033 -185.605988
v 508.029938 0.424036 -185.058304
v 508.029938 -0.459033 -185.058304
v 502.400513 -2.723679 -183.380417
v 502.400513 -3.606749 -183.380417
v 509.375885 0.424036 -187.255081
v 514.243652 4.290714 -188.705963
v 514.243652 3.407644 -188.705963
v 509.375885 -0.459033 -187.255081
v 507.538391 0.424036 -186.707397
v 507.538391 -0.459033 -186.707397
v 501.908966 -2.723678 -185.029510
v 501.908966 -3.606747 -185.029510
v 515.539978 4.290714 -191.068314
v 515.539978 3.407645 -191.068314
v -194.350021 17.542545 -688.457214
v -192.629456 17.542545 -688.429016
v -192.629456 16.659475 -688.429016
v -194.350021 16.659475 -688.457214
v -194.381439 17.542545 -686.540100
v -194.381439 16.659477 -686.540100
v -194.464645 13.675868 -681.461365
v -194.464645 12.792798 -681.461365
v -194.496063 13.675867 -679.544250
v -194.496063 12.792798 -679.544250
v -194.592300 10.528153 -673.670898
v -194.592300 9.645083 -673.670898
v -192.660858 17.542545 -686.511902
v -192.744080 13.675868 -681.433167
v -192.660858 16.659475 -686.511902
v -192.744080 12.792798 -681.433167
v -192.775482 13.675867 -679.516052
v -192.775482 12.792798 -679.516052
v -192.871719 10.528153 -673.642700
v -192.871719 9.645085 -673.642700
v -190.736053 17.542545 -688.397705
v -190.736053 16.659477 -688.397705
v -101.194252 17.542545 -681.293701
v -101.194252 16.659475 -681.293701
v -101.226250 17.542545 -679.376587
v -101.226250 16.659475 -679.376587
v -101.311005 13.675868 -674.297852
v -101.311005 12.792799 -674.297852
v -101.343002 13.675868 -672.380737
v -101.343002 12.792799 -672.380737
v -101.441025 10.528153 -666.507446
v -101.441025 9.645083 -666.507446
v -103.031570 13.675869 -674.326538
v -102.946808 17.542545 -679.405273
v -102.946808 16.659475 -679.405273
v -103.031570 12.792799 -674.326538
v -103.063568 13.675868 -672.409485
v -103.063568 12.792799 -672.409485
v -103.161591 10.528154 -666.536133
v -103.161591 9.645085 -666.536133
v -104.808205 17.542545 -681.353699
v -102.914841 17.542545 -681.322388
v -104.808205 16.659477 -681.353699
v -102.914841 16.659475 -681.322388
v -197.382919 18.961403 -697.341553
v -197.382919 17.922335 -697.341553
v -198.633423 18.961405 -698.451782
v -198.633423 17.922335 -698.451782
v -201.946213 14.411654 -701.392944
v -201.946213 13.372583 -701.392944
v -203.196716 14.411652 -702.503174
v -203.196716 13.372583 -702.503174
v -207.027802 10.707873 -705.904480
v -207.027802 9.668802 -705.904480
v -199.349289 18.961403 -697.653442
v -202.662079 14.411654 -700.594543
v -199.349289 17.922335 -697.653442
v -202.662079 13.372584 -700.594543
v -203.912598 14.411652 -701.704773
v -203.912598 13.372583 -701.704773
v -207.743683 10.707873 -705.106079
v -207.743683 9.668805 -705.106079
v -198.098785 18.961403 -696.543152
v -198.886719 18.961405 -695.664795
v -198.886719 17.922335 -695.664795
v -198.098785 17.922335 -696.543152
v -239.139496 18.961407 -658.134277
v -239.855682 18.961407 -657.336182
v -239.139496 17.922338 -658.134277
v -239.855698 17.922338 -657.336182
v -241.105957 18.961409 -658.446655
v -241.105957 17.922338 -658.446655
v -244.418106 14.411655 -661.388550
v -244.418106 13.372587 -661.388550
v -245.668365 14.411655 -662.499023
v -245.668365 13.372587 -662.499023
v -249.498718 10.707875 -665.901184
v -249.498718 9.668805 -665.901184
v -243.701904 14.411657 -662.186584
v -240.389755 18.961407 -659.244751
v -240.389771 17.922338 -659.244751
v -243.701904 13.372587 -662.186584
v -244.952179 14.411654 -663.297119
v -244.952179 13.372586 -663.297119
v -248.782532 10.707877 -666.699219
v -248.782532 9.668808 -666.699219
v -238.351547 18.961409 -659.012634
v -238.351547 17.922340 -659.012634
v 60.261875 2.256971 -9.587225
v 60.261875 2.256971 -8.852239
v 60.261875 1.286784 -9.587225
v 60.261871 1.286784 -8.852239
v 58.966900 2.256972 -8.852239
v 55.536324 -0.209976 -8.852239
v 58.966904 1.286784 -8.852239
v 55.536324 -1.180164 -8.852239
v 58.966904 2.256972 -9.587226
v 58.966904 1.286784 -9.587225
v 55.536327 -0.209976 -9.587226
v 55.536327 -1.180164 -9.587225
v 58.966904 2.256973 -7.395514
v 58.966904 1.286784 -7.395514
v 60.261875 2.256972 -7.395515
v 60.261875 1.286784 -7.395515
v 409.613251 14.112296 -457.542877
v 393.514984 14.112295 -445.974335
v 393.514984 13.286551 -445.974335
v 409.613251 13.286551 -457.542877
v 389.277618 14.659115 -443.307831
v 373.179352 14.659115 -431.739288
v 373.179352 13.833370 -431.739288
v 389.277618 13.833369 -443.307831
v 439.011017 13.563746 -478.641388
v 422.912750 13.563746 -467.072845
v 422.912750 12.738002 -467.072845
v 439.011017 12.738001 -478.641388
v 530.814636 -1.549743 -294.146484
v 536.441101 -1.549742 -275.137848
v 536.441101 -2.375487 -275.137848
v 530.814575 -2.375488 -294.146484
v 537.884521 -1.589237 -269.129089
v 543.510986 -1.589237 -250.120468
v 543.510986 -2.414982 -250.120468
v 537.884460 -2.414983 -269.129089
v 550.206909 -1.589233 -213.923965
v 555.833374 -1.589233 -194.915344
v 555.833374 -2.414978 -194.915344
v 550.206848 -2.414979 -213.923950
v -278.310120 21.766598 -276.863068
v -278.284454 21.766596 -296.686920
v -278.284454 20.940851 -296.686920
v -278.310120 20.940853 -276.863068
v -278.754913 21.766596 -302.819183
v -278.729248 21.766594 -322.643036
v -278.729248 20.940849 -322.643036
v -278.754913 20.940851 -302.819183
v -278.563812 21.766592 -359.284882
v -278.538147 21.766590 -379.108734
v -278.538147 20.940845 -379.108734
v -278.563812 20.940847 -359.284882
v 397.276672 -1.589216 20.708271
v 377.452820 -1.589217 20.682621
v 377.452820 -2.414961 20.682621
v 397.276672 -2.414961 20.708265
v 371.318848 -1.589216 21.033619
v 351.494995 -1.589217 21.007969
v 351.494995 -2.414961 21.007969
v 371.318848 -2.414961 21.033613
v 314.869019 -1.589217 17.446930
v 295.045166 -1.589218 17.421280
v 295.045166 -2.414962 17.421280
v 314.869019 -2.414962 17.446924
v -157.414902 0.853133 20.867241
v -177.238739 0.853132 20.841587
v -177.238739 0.027387 20.841587
v -157.414902 0.027388 20.867233
v -100.965073 0.083402 17.591160
v -120.788910 0.083401 17.565510
v -120.788910 -0.742343 17.565510
v -100.965073 -0.742343 17.591154
v -75.007248 0.083402 17.265812
v -94.831085 0.083401 17.240158
v -94.831085 -0.742343 17.240158
v -75.007248 -0.742343 17.265804
v 75.502594 0.756413 16.573818
v 75.177956 0.475847 19.486427
v 75.177956 6.003923 33.562847
v 75.177956 5.119009 33.562847
v 75.177956 -0.409067 19.486427
v 46.702370 0.475847 19.486423
v 46.702370 6.003922 33.562847
v 46.702370 5.119009 33.562847
v 46.702370 -0.409067 19.486423
v 15.851719 0.465827 19.412308
v 15.851723 3.527817 33.488731
v 15.851723 2.642904 33.488731
v 15.851719 -0.419086 19.412308
v 46.856148 0.756411 16.536758
v 15.779079 0.756406 16.499691
v 15.779079 -0.436836 16.499691
v 46.856148 -0.436831 16.536751
v 30.803856 3.219312 33.010521
v 46.760540 3.219316 33.028015
v 46.760540 2.401129 33.028015
v 30.803856 2.401126 33.010521
v 15.937840 3.219308 32.991287
v 29.190598 3.219311 33.008434
v 29.190598 2.401125 33.008434
v 15.937840 2.401121 32.991287
v 106.035988 0.465833 19.486427
v 106.035995 3.527824 33.562847
v 106.035995 2.642911 33.562847
v 106.035988 -0.419080 19.486427
v 106.579659 0.756417 16.610876
v 75.502586 -0.436830 16.573809
v 106.579659 -0.436825 16.610867
v 90.527359 3.219318 33.084637
v 106.484047 3.219322 33.102131
v 106.484047 2.401136 33.102131
v 90.527359 2.401132 33.084637
v 75.661346 3.219314 33.065403
v 88.914108 3.219318 33.082550
v 88.914108 2.401131 33.082550
v 75.661346 2.401127 33.065403
v -322.056030 21.891525 -509.948029
v -322.288818 21.891523 -529.770508
v -322.288818 21.065779 -529.770508
v -322.056030 21.065781 -509.948029
v -322.056030 21.891523 -535.162354
v -322.288818 21.891521 -554.984863
v -322.288818 21.065777 -554.984863
v -322.056030 21.065779 -535.162354
v -322.056030 21.891521 -559.847778
v -322.288818 21.891520 -579.670227
v -322.288818 21.065775 -579.670227
v -322.056030 21.065777 -559.847778
v 369.062164 36.840519 -979.681152
v 390.659607 36.929031 -960.861755
v 390.659607 35.735790 -960.861755
v 369.062164 35.647274 -979.681152
v 371.217804 36.559952 -981.666565
v 380.451630 42.088024 -992.291199
v 380.451630 41.203110 -992.291199
v 371.217804 35.675037 -981.666565
v 392.710602 36.648468 -962.987244
v 401.944427 42.088028 -973.611816
v 401.944427 41.203114 -973.611816
v 392.710602 35.763554 -962.987244
v 415.947449 36.638447 -942.693970
v 425.181274 39.700436 -953.318542
v 425.181274 38.815521 -953.318542
v 415.947449 35.753536 -942.693970
v 414.091675 36.929028 -940.447876
v 414.091675 35.735783 -940.447876
v 413.582001 39.391933 -962.765869
v 401.549683 39.391937 -973.246277
v 401.549683 38.573750 -973.246277
v 413.582001 38.573746 -962.765869
v 424.789978 39.391930 -952.999573
v 414.798279 39.391930 -961.706055
v 414.798279 38.573746 -961.706055
v 424.789978 38.573742 -952.999573
v 347.926758 36.549934 -1001.908752
v 357.160583 39.611923 -1012.533386
v 357.160583 38.727013 -1012.533386
v 347.926758 35.665024 -1001.908752
v 345.630127 36.840519 -1000.094971
v 345.630127 35.647278 -1000.094971
v 368.552490 39.303421 -1001.999084
v 356.520172 39.303425 -1012.479553
v 356.520172 38.485237 -1012.479553
v 368.552490 38.485233 -1001.999084
v 379.760468 39.303417 -992.232788
v 369.768768 39.303421 -1000.939270
v 369.768768 38.485233 -1000.939270
v 379.760468 38.485229 -992.232788
v 482.131500 33.361843 -878.795959
v 503.497955 33.361843 -859.714722
v 503.497955 32.168598 -859.714722
v 482.131500 32.168598 -878.795959
v 484.311188 33.081276 -880.755005
v 493.673798 38.609348 -891.266235
v 493.673798 37.724434 -891.266235
v 484.311188 32.196362 -880.755005
v 505.574707 33.081276 -861.815063
v 514.937317 38.609352 -872.326294
v 514.937317 37.724438 -872.326294
v 505.574707 32.196365 -861.815063
v 528.562439 33.071259 -841.240051
v 537.925110 36.133244 -851.751282
v 537.925110 35.248333 -851.751282
v 528.562439 32.186344 -841.240051
v 526.679443 33.361835 -839.016785
v 526.679443 32.168594 -839.016785
v 526.441833 35.824741 -861.339294
v 514.538147 35.824745 -871.965637
v 514.538147 35.006557 -871.965637
v 526.441833 35.006554 -861.339294
v 537.529907 35.824738 -851.437134
v 527.645142 35.824741 -860.264709
v 527.645142 35.006554 -860.264709
v 537.529907 35.006550 -851.437134
v 461.268616 33.071259 -901.279541
v 470.631226 36.133247 -911.790833
v 470.631226 35.248337 -911.790833
v 461.268616 32.186348 -901.279541
v 458.950012 33.361843 -899.493896
v 458.950012 32.168602 -899.493896
v 481.893890 35.824745 -901.118469
v 469.990234 35.824749 -911.744812
v 469.990234 35.006561 -911.744812
v 481.893890 35.006557 -901.118469
v 492.981995 35.824741 -891.216309
v 483.097168 35.824745 -900.043884
v 483.097168 35.006557 -900.043884
v 492.981995 35.006554 -891.216309
v 361.998260 31.201866 -737.865845
v 379.952820 31.201864 -746.269348
v 379.952820 30.376120 -746.269348
v 361.998260 30.376122 -737.865845
v 339.519226 30.770754 -727.664856
v 357.473816 30.770752 -736.068359
v 357.473816 29.945007 -736.068359
v 339.519226 29.945007 -727.664856
v 316.558502 30.139408 -717.245178
v 334.513062 30.139404 -725.648682
v 334.513062 29.313660 -725.648682
v 316.558502 29.313662 -717.245178
v 547.894714 -1.116646 -225.832138
v 547.604187 -1.116646 -226.957443
v 547.604187 -1.713060 -226.957443
v 547.894714 -1.713060 -225.832138
v 549.148560 -1.116646 -226.155838
v 549.148560 -1.713060 -226.155838
v 552.470215 -2.631887 -227.013367
v 552.470215 -3.228301 -227.013367
v 543.499084 -0.688296 -245.658157
v 543.499084 -1.385102 -245.658157
v 542.842590 -0.688296 -245.488663
v 542.842590 -1.385101 -245.488663
v 542.832642 -0.688296 -245.487778
v 542.832642 -1.385101 -245.487778
v 547.592590 -0.688294 -227.049911
v 547.592590 -1.385100 -227.049911
v 548.346863 -0.512060 -227.122696
v 548.346863 -1.482910 -227.122696
v 554.083313 1.473927 -228.603653
v 554.083313 0.503077 -228.603653
v 543.530212 -1.482912 -245.780045
v 543.530212 -0.512062 -245.780045
v 549.266724 1.473925 -247.260986
v 549.266724 0.503075 -247.260986
v 549.266235 1.472458 -247.263000
v 549.266235 0.501576 -247.263000
v 554.083069 1.472460 -228.604874
v 554.083069 0.501578 -228.604874
v 527.331970 -1.116651 -296.645782
v 527.003235 -1.116652 -297.760529
v 527.003235 -1.713066 -297.760529
v 527.331970 -1.713065 -296.645782
v 528.574036 -1.116651 -297.012054
v 528.574036 -1.713065 -297.012054
v 531.864563 -2.631892 -297.982361
v 531.864563 -3.228306 -297.982361
v 522.262878 -0.688301 -316.310394
v 522.262878 -1.385107 -316.310394
v 521.612549 -0.688301 -316.118622
v 521.612549 -1.385107 -316.118622
v 521.602600 -0.688301 -316.117401
v 521.602600 -1.385107 -316.117401
v 526.988464 -0.688299 -297.852570
v 526.988464 -1.385105 -297.852570
v 527.739807 -0.512065 -297.951019
v 527.739807 -1.482916 -297.951019
v 533.422485 1.473921 -299.626709
v 533.422485 0.503071 -299.626709
v 522.289856 -1.482917 -316.433289
v 522.289856 -0.512067 -316.433289
v 527.972473 1.473920 -318.108978
v 527.972473 0.503070 -318.108978
v 527.971985 1.472453 -318.110962
v 527.971985 0.501571 -318.110962
v 533.422180 1.472454 -299.627930
v 533.422180 0.501572 -299.627930
v 552.553528 -1.116631 -24.460249
v 552.553528 -1.116631 -25.622452
v 552.553528 -1.713045 -25.622452
v 552.553528 -1.713045 -24.460249
v 553.848511 -1.116631 -24.460249
v 553.848511 -1.713045 -24.460249
v 557.279053 -2.631871 -24.460249
v 557.279053 -3.228285 -24.460249
v 553.253296 -0.688280 -44.755638
v 553.253296 -1.385086 -44.755638
v 552.575256 -0.688280 -44.755638
v 552.575256 -1.385086 -44.755638
v 552.565430 -0.688280 -44.757259
v 552.565430 -1.385086 -44.757256
v 552.565430 -0.688279 -25.714891
v 552.565430 -1.385085 -25.714891
v 553.313904 -0.512044 -25.596825
v 553.313904 -1.482895 -25.596825
v 559.238464 1.473943 -25.596825
v 559.238464 0.503092 -25.596825
v 553.313904 -1.482896 -44.865875
v 553.313904 -0.512045 -44.865875
v 559.238464 1.473942 -44.865875
v 559.238464 0.503091 -44.865875
v 559.238525 1.472474 -44.867943
v 559.238525 0.501592 -44.867943
v 559.238525 1.472475 -25.598082
v 559.238525 0.501593 -25.598082
v 147.865814 4.385861 -69.912109
v 143.716904 4.385861 -69.912109
v 143.716904 3.582448 -69.912109
v 147.865814 3.582448 -69.912109
v 147.865814 4.385862 -40.213589
v 143.716904 4.385862 -40.213589
v 143.716904 3.582449 -40.213589
v 147.865814 3.582449 -40.213589
v 201.207275 4.385861 -69.912109
v 197.058350 4.385861 -69.912109
v 197.058350 3.582448 -69.912109
v 201.207275 3.582448 -69.912109
v 201.207275 4.385862 -40.213589
v 197.058350 4.385862 -40.213589
v 197.058350 3.582449 -40.213589
v 201.207275 3.582449 -40.213589
v -16.043518 7.243568 -20.510929
v -16.043518 7.243567 -30.346958
v -16.043518 6.320457 -20.510929
v -16.043518 6.320457 -30.346958
v 3.955742 7.243567 -30.346958
v 3.955742 7.243568 -20.510929
v 3.955742 6.320457 -20.510929
v 3.955742 6.320457 -30.346958
v 48.479225 7.243568 -20.510929
v 48.479225 7.243567 -30.346958
v 48.479225 6.320457 -20.510929
v 48.479225 6.320457 -30.346958
v 68.478485 7.243567 -30.346958
v 68.478485 7.243568 -20.510929
v 68.478485 6.320457 -20.510929
v 68.478485 6.320457 -30.346958
v 68.478485 7.243569 -15.036888
v 48.479225 7.243569 -15.036888
v 68.478485 6.320458 -15.036888
v 48.479225 6.320458 -15.036888
v 113.509712 7.243568 -20.510929
v 113.509712 7.243567 -30.346958
v 113.509712 6.320457 -20.510929
v 113.509712 6.320457 -30.346958
v 133.508972 7.243567 -30.346958
v 133.508972 7.243568 -20.510929
v 133.508972 6.320457 -20.510929
v 133.508972 6.320457 -30.346958
v 375.510773 29.395115 -757.254761
v 375.510773 36.362148 -757.254761
v 378.128662 37.583122 -751.680237
v 381.056396 36.101170 -745.445984
v 381.056396 29.395115 -745.445984
v 356.250702 29.395115 -748.209778
v 361.796326 29.395117 -736.401062
v 361.796326 36.101170 -736.401062
v 358.871582 37.592270 -742.628967
v 356.250702 36.362148 -748.209778
v 353.031769 28.964001 -747.053589
v 353.031769 35.931034 -747.053589
v 355.649658 37.152008 -741.479126
v 358.577393 35.670055 -735.244873
v 358.577393 28.964003 -735.244873
v 333.771698 28.964003 -738.008667
v 339.317322 28.964003 -726.199951
v 339.317322 35.670059 -726.199951
v 336.392578 37.161160 -732.427856
v 333.771698 35.931034 -738.008667
v 330.071075 28.332657 -736.633911
v 330.071075 35.299686 -736.633911
v 332.688965 36.520664 -731.059448
v 335.616699 35.038712 -724.825195
v 335.616699 28.332657 -724.825195
v 310.811005 28.332657 -727.588989
v 316.356628 28.332659 -715.780273
v 316.356628 35.038712 -715.780273
v 313.431885 36.529816 -722.008179
v 310.811005 35.299690 -727.588989
v 155.511108 3.765733 -20.097612
v 154.348907 3.765733 -20.097612
v 154.348907 3.169321 -20.097612
v 155.511108 3.169321 -20.097612
v 155.511108 3.765734 -21.392582
v 155.511108 3.169320 -21.392582
v 155.511108 1.154229 -24.823158
v 155.511108 0.557815 -24.823158
v 155.511108 1.154229 -26.118128
v 155.511108 0.557815 -26.118128
v 155.511108 -0.971697 -30.085445
v 155.511108 -1.568112 -30.085447
v 154.348907 3.765733 -21.392590
v 154.348892 1.154229 -24.823168
v 154.348907 3.169320 -21.392590
v 154.348892 0.557815 -24.823168
v 154.348892 1.154229 -26.118134
v 154.348892 0.557815 -26.118134
v 154.348892 -0.971697 -30.085455
v 154.348892 -1.568111 -30.085455
v 153.509048 3.765735 -20.097612
v 153.509048 3.169321 -20.097612
v 154.348892 3.765734 -30.760101
v 153.509033 3.765734 -30.760101
v 153.509033 3.169321 -30.760101
v 154.348892 3.169321 -30.760101
v 90.480606 3.765733 -20.097612
v 89.318398 3.765733 -20.097612
v 89.318398 3.169321 -20.097612
v 90.480606 3.169321 -20.097612
v 90.480606 3.765734 -21.392582
v 90.480606 3.169320 -21.392582
v 90.480606 1.154229 -24.823158
v 90.480606 0.557815 -24.823158
v 90.480606 1.154229 -26.118128
v 90.480606 0.557815 -26.118128
v 90.480606 -0.971697 -30.085445
v 90.480606 -1.568112 -30.085447
v 89.318398 3.765733 -21.392590
v 89.318398 1.154229 -24.823168
v 89.318398 3.169320 -21.392590
v 89.318398 0.557815 -24.823168
v 89.318398 1.154229 -26.118134
v 89.318398 0.557815 -26.118134
v 89.318398 -0.971697 -30.085455
v 89.318398 -1.568111 -30.085455
v 88.478546 3.765735 -20.097612
v 88.478546 3.169321 -20.097612
v 89.318390 3.765734 -30.760101
v 88.478539 3.765734 -30.760101
v 88.478539 3.169321 -30.760101
v 89.318390 3.169321 -30.760101
v 27.874451 3.765736 -20.097614
v 26.712246 3.765736 -20.097614
v 27.874451 3.169322 -20.097614
v 26.712246 3.169322 -20.097614
v 26.712246 3.765736 -21.392584
v 26.712246 3.169322 -21.392584
v 26.712246 1.154232 -24.823160
v 26.712246 0.557818 -24.823160
v 26.712246 1.154232 -26.118130
v 26.712246 0.557818 -26.118132
v 26.712246 -0.971694 -30.085447
v 26.712246 -1.568108 -30.085451
v 27.874454 1.154232 -24.823170
v 27.874451 3.765735 -21.392591
v 27.874451 3.169322 -21.392591
v 27.874454 0.557818 -24.823170
v 27.874454 1.154232 -26.118137
v 27.874454 0.557818 -26.118137
v 27.874451 -0.971693 -30.085457
v 27.874451 -1.568107 -30.085457
v 28.714306 3.765737 -20.097614
v 28.714306 3.169322 -20.097614
v 28.714310 3.765738 -30.760101
v 28.714310 3.169324 -30.760101
v 27.874454 3.765738 -30.760101
v 27.874454 3.169323 -30.760101
v -37.810539 3.765735 -20.097610
v -37.810539 3.169321 -20.097610
v -37.810539 3.765735 -21.392580
v -37.810539 3.169321 -21.392582
v -37.810539 1.154231 -24.823158
v -37.810539 0.557817 -24.823158
v -37.810539 1.154231 -26.118128
v -37.810539 0.557817 -26.118128
v -37.810539 -0.971695 -30.085445
v -37.810539 -1.568109 -30.085447
v -36.648331 1.154231 -24.823166
v -36.648331 3.765734 -21.392588
v -36.648331 0.557817 -24.823166
v -36.648331 1.154231 -26.118134
v -36.648331 0.557817 -26.118134
v -36.648331 -0.971695 -30.085455
v -36.648331 -1.568108 -30.085455
v -35.966927 3.765735 -20.097610
v -36.648335 3.765735 -20.097610
v -35.966927 3.169321 -20.097610
v -36.648335 3.169322 -20.097610
v -35.808475 3.765736 -30.760101
v -36.648327 3.765736 -30.760101
v -35.808475 3.169323 -30.760101
v -36.648335 3.169320 -21.392593
v -36.648327 3.169322 -30.760101
v 272.275970 18.520397 -401.894592
v 271.658752 18.520397 -402.879395
v 271.658752 17.923985 -402.879395
v 272.275970 17.923985 -401.894592
v 273.373230 18.520397 -402.582306
v 273.373230 17.923985 -402.582306
v 276.280090 15.908894 -404.404144
v 276.280090 15.312479 -404.404144
v 277.377350 15.908893 -405.091858
v 277.377350 15.312479 -405.091858
v 280.738983 13.782967 -407.198730
v 280.738983 13.186554 -407.198730
v 272.756042 18.520397 -403.567078
v 275.662872 15.908893 -405.388916
v 272.756042 17.923985 -403.567078
v 275.662872 15.312479 -405.388916
v 276.760162 15.908893 -406.076630
v 276.760162 15.312479 -406.076630
v 280.121796 13.782968 -408.183502
v 280.121796 13.186554 -408.183502
v 271.212738 18.520397 -403.591003
v 271.212738 17.923985 -403.591003
v 280.693451 18.520397 -408.541809
v 280.247437 18.520399 -409.253418
v 280.247437 17.923985 -409.253418
v 280.693451 17.923985 -408.541809
v 266.550568 22.367815 -412.671143
v 266.034454 22.367813 -413.494690
v 266.550568 21.869057 -412.671143
v 266.034454 21.869057 -413.494690
v 266.952057 22.367815 -414.069763
v 266.952057 21.869059 -414.069763
v 269.382935 20.183918 -415.593292
v 269.382935 19.685162 -415.593292
v 270.300537 20.183918 -416.168396
v 270.300537 19.685162 -416.168396
v 273.111755 18.406092 -417.930298
v 273.111755 17.907333 -417.930298
v 269.899078 20.183918 -414.769775
v 267.468201 22.367815 -413.246246
v 267.468201 21.869057 -413.246246
v 269.899078 19.685162 -414.769775
v 270.816681 20.183918 -415.344879
v 270.816681 19.685162 -415.344879
v 273.627899 18.406092 -417.106781
v 273.627899 17.907335 -417.106781
v 271.930603 22.367815 -404.087006
v 271.930603 21.869059 -404.087006
v 280.264008 22.367817 -409.303223
v 274.880981 22.367815 -417.892151
v 280.264008 21.869061 -409.303223
v 274.880981 21.869059 -417.892151
vn -0.2858 -0.0000 -0.9583
vn 0.2858 -0.0000 0.9583
vn -1.0000 -0.0000 -0.0025
vn 1.0000 -0.0000 0.0025
vn 1.0000 -0.0001 0.0025
vn -0.0034 -0.0000 -1.0000
vn 0.0033 -0.0000 1.0000
vn 0.0034 -0.0000 1.0000
vn -0.9436 -0.0000 0.3312
vn 0.9600 -0.0000 -0.2799
vn 0.3837 -0.0000 0.9235
vn -0.3837 -0.0000 -0.9235
vn -0.3836 -0.0000 -0.9235
vn 0.1765 -0.0000 0.9843
vn -0.1765 -0.0000 -0.9843
vn 0.7752 -0.0000 -0.6317
vn -0.7798 -0.0000 0.6260
vn -0.7798 -0.0000 0.6261
vn -0.7991 -0.0000 0.6012
vn 0.8035 -0.0000 -0.5953
vn 0.8035 -0.0000 -0.5954
vn 0.9583 -0.0000 -0.2859
vn 0.9582 -0.0000 -0.2859
vn -0.2859 -0.0000 -0.9582
vn -0.2859 -0.0000 -0.9583
vn 0.2859 -0.0000 0.9583
vn 0.2859 -0.0000 0.9582
vn 0.9583 -0.0000 -0.2858
vn 0.9583 -0.0000 -0.2857
vn 0.9583 -0.0000 -0.2856
vn 0.2856 -0.0000 0.9583
vn 0.2857 -0.0000 0.9583
vn -0.2856 -0.0000 -0.9583
vn -0.2857 -0.0000 -0.9583
vn 0.0164 -0.0000 -0.9999
vn 0.0165 -0.0000 -0.9999
vn -0.9999 -0.0000 -0.0164
vn 0.9999 -0.0000 0.0164
vn 0.0166 -0.0000 -0.9999
vn 0.0167 -0.0000 -0.9999
vn 0.9999 -0.0000 0.0167
vn -0.9999 -0.0000 -0.0167
vn 0.7445 -0.0000 0.6676
vn 0.7445 -0.0000 0.6677
vn 0.7444 -0.0000 0.6677
vn 0.6639 -0.0000 -0.7478
vn -0.6639 -0.0000 0.7478
vn 0.7443 -0.0000 0.6678
vn 0.7443 -0.0000 0.6679
vn 0.7444 -0.0000 0.6678
vn 0.7442 -0.0000 0.6679
vn -0.6641 -0.0000 0.7477
vn 0.6641 -0.0000 -0.7476
vn 0.6641 -0.0000 -0.7477
vn 0.6640 -0.0000 -0.7477
vn 1.0000 -0.0000 -0.0000
vn -0.0000 -0.0000 1.0000
vn -0.0000 -0.0000 -1.0000
vn -1.0000 -0.0000 -0.0000
vn 0.5836 -0.0000 0.8121
vn 0.9589 -0.0001 -0.2838
vn 0.9589 -0.0000 -0.2838
vn -1.0000 -0.0000 -0.0013
vn -0.0013 -0.0000 1.0000
vn -0.0012 -0.0000 1.0000
vn 0.0012 -0.0000 -1.0000
vn 0.0011 -0.0000 -1.0000
vn 0.0013 -0.0000 -1.0000
vn -0.9999 -0.0000 0.0117
vn 0.6569 -0.0000 -0.7540
vn -0.7548 -0.0000 -0.6560
vn -0.6569 -0.0000 0.7540
vn -0.6568 -0.0000 0.7541
vn -0.6570 -0.0000 0.7539
vn -0.6569 -0.0000 0.7539
vn 0.6661 -0.0000 -0.7459
vn -0.7467 -0.0000 -0.6651
vn 0.6660 -0.0000 -0.7459
vn -0.6660 -0.0000 0.7459
vn -0.6660 -0.0000 0.7460
vn -0.6661 -0.0000 0.7459
vn -0.4239 -0.0000 -0.9057
vn -0.9683 -0.0000 0.2500
vn 0.2500 -0.0000 0.9683
vn -0.2500 -0.0000 -0.9683
vn -0.9592 -0.0000 0.2829
vn 0.2828 -0.0000 0.9592
vn 0.2829 -0.0000 0.9592
vn -0.2829 -0.0000 -0.9592
vn -0.9592 -0.0000 0.2828
vn -0.2828 -0.0000 -0.9592
vn 0.9052 -0.0000 -0.4251
vn -0.9052 -0.0000 0.4251
vn -0.0000 -1.0000 -0.0000
vn 0.4251 -0.0000 0.9052
vn -0.0446 0.9966 0.0693
vn -0.0827 0.9809 -0.1760
vn 0.0057 0.9898 -0.1425
vn 0.0590 0.9963 -0.0627
vn 0.0900 0.9773 0.1917
vn 0.0131 0.9871 0.1598
vn -0.4251 -0.0000 -0.9052
vn -0.8473 -0.0000 0.5311
vn 0.5310 -0.0000 0.8473
vn 0.5311 -0.0000 0.8473
vn -0.5311 -0.0000 -0.8473
vn -0.8473 -0.0000 0.5310
vn -0.8474 -0.0000 0.5310
vn -0.5310 -0.0000 -0.8474
vn -0.5310 -0.0000 -0.8473
vn 0.5306 -0.0000 0.8476
vt 4.997502 1.999500
vt 0.002497 1.999501
vt 0.002497 1.000501
vt 4.997502 1.000500
vt 0.002498 1.999500
vt 4.997501 1.999499
vt 4.997501 1.000499
vt 0.002498 1.000500
vt 3.998002 1.999500
vt 2.095547 1.999500
vt 2.095547 1.000501
vt 3.998002 1.000500
vt 1.501391 1.999501
vt 0.502390 1.999501
vt 0.502390 1.000499
vt 1.501391 1.000499
vt 4.497182 1.999501
vt 0.501178 1.999501
vt 0.501178 1.000499
vt 4.497182 1.000499
vt 0.001998 1.999501
vt 0.001998 1.000501
vt 0.499331 1.999501
vt 1.498332 1.999501
vt 0.499331 1.000500
vt 1.498332 1.000500
vt -1.528822 1.999501
vt -1.528822 1.000499
vt 1.504845 2.301806
vt 1.504845 1.240710
vt -0.493353 2.301806
vt -0.493353 1.240710
vt 1.504848 1.240710
vt 1.504848 2.301806
vt -0.493351 2.301806
vt -0.493351 1.240710
vt 8.000000 2.000000
vt 0.000000 2.000000
vt 0.000000 1.000000
vt 8.000000 1.000000
vt 10.000000 2.000000
vt 10.000000 1.000000
vt 1.000000 2.000000
vt 1.000000 1.000000
vt -0.410096 2.000701
vt -0.410096 1.000701
vt 0.456515 2.000701
vt 0.456515 1.000701
vt 0.009992 1.999501
vt 0.009993 1.000499
vt 19.990009 1.999501
vt 19.990009 1.000499
vt 0.485682 1.999500
vt 0.485682 1.000501
vt 8.543913 1.999499
vt 8.543913 1.000499
vt 0.009991 1.999501
vt 0.009991 1.000499
vt 2.283928 1.999497
vt -1.283930 1.999498
vt -1.283930 1.000497
vt 2.283928 1.000497
vt 2.283930 1.999503
vt -1.283928 1.999504
vt -1.283928 1.000504
vt 2.283930 1.000503
vt 12.987518 1.999497
vt -11.987518 1.999503
vt -11.987518 1.000503
vt 12.987518 1.000497
vt 12.987519 1.999504
vt -11.987518 1.999498
vt -11.987518 1.000497
vt 12.987519 1.000504
vt 12.370741 1.999500
vt -0.465512 1.999500
vt 12.370741 1.000500
vt -0.465512 1.000499
vt 20.465508 1.999500
vt 7.629253 1.999500
vt 7.629253 1.000500
vt 20.465508 1.000499
vt 20.501242 1.999500
vt 0.521227 1.999500
vt 20.501242 1.000500
vt 0.521227 1.000500
vt 19.514496 1.999500
vt 19.514500 1.000500
vt 0.485495 1.999500
vt 0.485495 1.000500
vt 0.335709 1.368044
vt 0.335709 1.467389
vt 0.389231 1.436024
vt 0.435054 1.409172
vt 0.435054 1.368044
vt 0.379339 1.441822
vt 12.500000 1.999501
vt 12.500000 1.000499
vt 14.984293 1.999496
vt 0.007495 1.999496
vt 14.984293 1.000501
vt 0.007495 1.000501
vt 14.992503 1.999500
vt 0.007508 1.999499
vt 14.992503 1.000505
vt 0.007508 1.000504
vt 13.341867 1.999494
vt 13.341867 1.000499
vt 0.007494 1.999496
s 1
usemtl RAILA.033
f 1/1/1 2/2/1 3/3/1
f 3/3/1 4/4/1 1/1/1
f 5/5/2 6/6/2 7/7/2
f 7/7/2 8/8/2 5/5/2
f 9/1/2 10/2/2 11/3/2
f 11/3/2 12/4/2 9/1/2
f 13/5/1 14/6/1 15/7/1
f 15/7/1 16/8/1 13/5/1
f 17/1/3 18/2/3 19/3/3
f 19/3/3 20/4/3 17/1/3
f 21/5/4 22/6/5 23/7/4
f 23/7/4 24/8/4 21/5/4
f 25/1/4 26/2/4 27/3/4
f 27/3/4 28/4/4 25/1/4
f 29/5/3 30/6/3 31/7/3
f 31/7/3 32/8/3 29/5/3
f 33/1/6 34/2/6 35/3/6
f 35/3/6 36/4/6 33/1/6
f 37/5/7 38/6/8 39/7/8
f 39/7/8 40/8/7 37/5/7
f 41/1/7 42/2/8 43/3/8
f 43/3/8 44/4/7 41/1/7
f 45/5/6 46/6/6 47/7/6
f 47/7/6 48/8/6 45/5/6
f 49/1/9 50/2/9 51/3/9
f 51/3/9 52/4/9 49/1/9
f 53/5/10 54/6/10 55/7/10
f 55/7/10 56/8/10 53/5/10
f 57/1/11 58/2/11 59/3/11
f 59/3/11 60/4/11 57/1/11
f 61/5/12 62/6/13 63/7/13
f 63/7/13 64/8/12 61/5/12
f 65/1/14 66/2/14 67/3/14
f 67/3/14 68/4/14 65/1/14
f 69/5/15 70/6/15 71/7/15
f 71/7/15 72/8/15 69/5/15
f 73/1/16 74/2/16 75/3/16
f 75/3/16 76/4/16 73/1/16
f 77/5/17 78/6/18 79/7/18
f 79/7/18 80/8/17 77/5/17
f 81/1/19 82/2/19 83/3/19
f 83/3/19 84/4/19 81/1/19
f 85/5/20 86/6/21 87/7/21
f 87/7/21 88/8/20 85/5/20
f 89/9/22 90/10/22 91/11/22
f 91/11/22 92/12/23 89/9/22
f 93/13/24 89/14/25 92/15/25
f 92/15/25 94/16/24 93/13/24
f 95/17/24 93/18/24 94/19/24
f 94/19/24 96/20/24 95/17/24
f 97/13/25 95/14/24 96/15/24
f 96/15/24 98/16/25 97/13/25
f 99/17/25 97/18/25 98/19/25
f 98/19/25 100/20/25 99/17/25
f 101/18/26 102/17/26 103/19/26
f 104/20/26 103/19/26 102/17/26
f 102/14/26 105/13/27 104/15/26
f 106/16/27 104/15/26 105/13/27
f 105/18/27 107/17/26 106/19/27
f 108/20/26 106/19/27 107/17/26
f 90/10/22 109/21/28 110/22/28
f 110/22/28 91/11/22 90/10/22
f 111/10/29 112/9/30 113/11/29
f 114/12/30 113/11/30 112/9/30
f 112/14/31 115/13/31 114/15/31
f 116/16/32 114/15/31 115/13/32
f 115/18/32 117/17/31 116/19/32
f 118/20/31 116/19/32 117/17/31
f 117/14/31 119/13/31 118/15/31
f 120/16/31 118/15/31 119/13/31
f 119/18/31 121/17/31 120/19/31
f 122/20/31 120/19/31 121/17/31
f 123/17/33 124/18/34 125/19/34
f 125/19/34 126/20/33 123/17/33
f 127/13/33 123/14/33 126/15/33
f 126/15/33 128/16/33 127/13/33
f 129/17/33 127/18/33 128/19/33
f 128/19/33 130/20/33 129/17/33
f 131/21/28 111/10/29 132/22/28
f 113/11/29 132/22/28 111/10/29
f 133/9/35 134/10/36 135/11/36
f 135/11/36 136/12/35 133/9/35
f 137/13/37 133/14/37 136/15/37
f 136/15/37 138/16/37 137/13/37
f 139/17/37 137/18/37 138/19/37
f 138/19/37 140/20/37 139/17/37
f 141/13/37 139/14/37 140/15/37
f 140/15/37 142/16/37 141/13/37
f 143/17/37 141/18/37 142/19/37
f 142/19/37 144/20/37 143/17/37
f 145/18/38 146/17/38 147/19/38
f 148/20/38 147/19/38 146/17/38
f 146/14/38 149/13/38 148/15/38
f 150/16/38 148/15/38 149/13/38
f 149/18/38 151/17/38 150/19/38
f 152/20/38 150/19/38 151/17/38
f 134/10/36 153/21/36 154/22/36
f 154/22/36 135/11/36 134/10/36
f 174/10/39 155/9/39 176/11/39
f 156/12/40 176/11/40 155/9/40
f 155/14/41 157/13/41 156/15/41
f 158/16/41 156/15/41 157/13/41
f 157/18/41 159/17/41 158/19/41
f 160/20/41 158/19/41 159/17/41
f 159/14/41 161/13/41 160/15/41
f 162/16/41 160/15/41 161/13/41
f 161/18/41 163/17/41 162/19/41
f 164/20/41 162/19/41 163/17/41
f 165/17/42 166/18/42 167/19/42
f 167/19/42 168/20/42 165/17/42
f 169/13/42 165/14/42 168/15/42
f 168/15/42 170/16/42 169/13/42
f 171/17/42 169/18/42 170/19/42
f 170/19/42 172/20/42 171/17/42
f 173/21/39 174/10/39 175/22/39
f 176/11/39 175/22/39 174/10/39
f 177/9/43 195/10/44 198/11/45
f 198/11/45 178/12/43 177/9/43
f 179/13/46 177/14/46 178/15/46
f 178/15/46 180/16/46 179/13/46
f 181/17/46 179/18/46 180/19/46
f 180/19/46 182/20/46 181/17/46
f 183/13/46 181/14/46 182/15/46
f 182/15/46 184/16/46 183/13/46
f 185/17/46 183/18/46 184/19/46
f 184/19/46 186/20/46 185/17/46
f 187/18/47 188/17/47 189/19/47
f 190/20/47 189/19/47 188/17/47
f 188/14/47 191/13/47 190/15/47
f 192/16/47 190/15/47 191/13/47
f 191/18/47 193/17/47 192/19/47
f 194/20/47 192/19/47 193/17/47
f 195/10/44 196/21/45 197/22/45
f 197/22/45 198/11/45 195/10/44
f 199/10/48 200/9/49 201/11/50
f 202/12/51 201/11/51 200/9/51
f 200/14/52 203/13/52 202/15/52
f 204/16/52 202/15/52 203/13/52
f 203/18/52 205/17/52 204/19/52
f 206/20/52 204/19/52 205/17/52
f 205/14/52 207/13/52 206/15/52
f 208/16/52 206/15/52 207/13/52
f 207/18/52 209/17/52 208/19/52
f 210/20/52 208/19/52 209/17/52
f 211/17/53 212/18/54 213/19/54
f 213/19/54 214/20/53 211/17/53
f 215/13/54 211/14/53 214/15/53
f 214/15/53 216/16/54 215/13/54
f 217/17/55 215/18/54 216/19/54
f 216/19/54 218/20/55 217/17/55
f 219/21/50 199/10/48 220/22/50
f 201/11/50 220/22/50 199/10/48
f 221/23/56 222/24/56 223/25/56
f 224/26/56 223/25/56 222/24/56
f 225/27/57 226/17/57 227/28/57
f 228/20/57 227/28/57 226/17/57
f 229/13/58 221/14/58 223/15/58
f 223/15/58 230/16/58 229/13/58
f 231/17/58 229/27/58 230/28/58
f 230/28/58 232/20/58 231/17/58
f 225/29/59 227/30/59 233/31/59
f 234/32/59 233/31/59 227/30/59
f 224/33/56 222/34/56 235/35/56
f 235/35/56 236/36/56 224/33/56
f 237/37/60 238/38/60 239/39/60
f 239/39/60 240/40/60 237/37/60
f 241/37/60 242/38/60 243/39/60
f 243/39/60 244/40/60 241/37/60
f 245/37/60 246/38/60 247/39/60
f 247/39/60 248/40/60 245/37/60
f 249/37/61 250/38/62 251/39/62
f 251/39/62 252/40/61 249/37/61
f 253/37/62 254/38/62 255/39/62
f 255/39/62 256/40/62 253/37/62
f 257/37/62 258/38/62 259/39/62
f 259/39/62 260/40/62 257/37/62
f 261/37/63 262/38/63 263/39/63
f 263/39/63 264/40/63 261/37/63
f 265/37/63 266/38/63 267/39/63
f 267/39/63 268/40/63 265/37/63
f 269/37/63 270/38/63 271/39/63
f 271/39/63 272/40/63 269/37/63
f 273/37/64 274/38/64 275/39/64
f 275/39/64 276/40/64 273/37/64
f 277/37/64 278/38/64 279/39/64
f 279/39/64 280/40/64 277/37/64
f 281/37/64 282/38/64 283/39/64
f 283/39/64 284/40/64 281/37/64
f 285/37/64 286/38/64 287/39/64
f 287/39/64 288/40/64 285/37/64
f 289/37/64 290/38/64 291/39/64
f 291/39/64 292/40/64 289/37/64
f 293/37/64 294/38/64 295/39/64
f 295/39/64 296/40/64 293/37/64
f 297/37/65 310/38/65 313/39/65
f 313/39/65 327/40/65 297/37/65
f 298/41/56 299/38/56 300/39/56
f 300/39/56 301/42/56 298/41/56
f 302/41/56 303/38/56 304/39/56
f 304/39/56 305/42/56 302/41/56
f 306/41/56 307/38/56 308/39/56
f 308/39/56 309/42/56 306/41/56
f 310/37/65 311/38/65 312/39/65
f 312/39/65 313/40/65 310/37/65
f 314/41/66 315/38/67 316/39/67
f 316/39/67 317/42/66 314/41/66
f 318/41/68 319/38/68 320/39/68
f 320/39/68 321/42/68 318/41/68
f 319/43/68 314/38/66 317/39/66
f 317/39/66 320/44/68 319/43/68
f 322/41/56 323/38/56 324/39/56
f 324/39/56 325/42/56 322/41/56
f 326/37/65 297/38/65 327/39/65
f 327/39/65 328/40/65 326/37/65
f 329/41/66 330/38/67 331/39/67
f 331/39/67 332/42/66 329/41/66
f 333/41/68 334/38/68 335/39/68
f 335/39/68 336/42/68 333/41/68
f 334/43/68 329/38/66 332/39/66
f 332/39/66 335/44/68 334/43/68
f 337/37/69 338/38/69 339/39/69
f 339/39/69 340/40/69 337/37/69
f 341/37/69 342/38/69 343/39/69
f 343/39/69 344/40/69 341/37/69
f 345/37/69 346/38/69 347/39/69
f 347/39/69 348/40/69 345/37/69
f 349/37/70 350/38/70 351/39/70
f 351/39/70 352/40/70 349/37/70
f 353/41/71 354/38/71 355/39/71
f 355/39/71 356/42/71 353/41/71
f 357/41/71 358/38/71 359/39/71
f 359/39/71 360/42/71 357/41/71
f 361/41/71 362/38/71 363/39/71
f 363/39/71 364/42/71 361/41/71
f 350/37/70 365/38/70 366/39/70
f 366/39/70 351/40/70 350/37/70
f 367/41/72 368/38/73 369/39/73
f 369/39/73 370/42/72 367/41/72
f 371/41/74 372/38/75 373/39/75
f 373/39/75 374/42/75 371/41/74
f 372/43/75 367/38/72 370/39/72
f 370/39/72 373/44/75 372/43/75
f 375/41/71 376/38/71 377/39/71
f 377/39/71 378/42/71 375/41/71
f 379/37/70 349/38/70 352/39/70
f 352/39/70 380/40/70 379/37/70
f 381/41/72 382/38/73 383/39/73
f 383/39/73 384/42/72 381/41/72
f 385/41/74 386/38/75 387/39/75
f 387/39/75 388/42/74 385/41/74
f 386/43/75 381/38/72 384/39/72
f 384/39/72 387/44/75 386/43/75
f 389/37/76 390/38/76 391/39/76
f 391/39/76 392/40/76 389/37/76
f 393/41/77 394/38/77 395/39/77
f 395/39/77 396/42/77 393/41/77
f 397/41/77 398/38/77 399/39/77
f 399/39/77 400/42/77 397/41/77
f 401/41/77 402/38/77 403/39/77
f 403/39/77 404/42/77 401/41/77
f 390/37/76 405/38/78 406/39/78
f 406/39/78 391/40/76 390/37/76
f 407/41/79 408/38/80 409/39/80
f 409/39/80 410/42/79 407/41/79
f 411/41/81 412/38/81 413/39/81
f 413/39/81 414/42/81 411/41/81
f 412/43/81 407/38/79 410/39/79
f 410/39/79 413/44/81 412/43/81
f 415/41/77 416/38/77 417/39/77
f 417/39/77 418/42/77 415/41/77
f 419/37/78 389/38/76 392/39/76
f 392/39/76 420/40/78 419/37/78
f 421/41/79 422/38/80 423/39/80
f 423/39/80 424/42/79 421/41/79
f 425/41/81 426/38/81 427/39/81
f 427/39/81 428/42/81 425/41/81
f 426/43/81 421/38/79 424/39/79
f 424/39/79 427/44/81 426/43/81
f 429/37/82 430/38/82 431/39/82
f 431/39/82 432/40/82 429/37/82
f 433/37/82 434/38/82 435/39/82
f 435/39/82 436/40/82 433/37/82
f 437/37/82 438/38/82 439/39/82
f 439/39/82 440/40/82 437/37/82
f 441/24/83 442/23/83 443/25/83
f 443/25/83 444/26/83 441/24/83
f 445/13/84 441/14/84 444/15/84
f 444/15/84 446/16/84 445/13/84
f 447/17/84 445/18/84 446/19/84
f 446/19/84 448/20/84 447/17/84
f 449/45/85 450/46/85 451/47/85
f 452/48/85 451/47/85 450/46/85
f 453/49/83 454/50/83 455/51/83
f 456/52/83 455/51/83 454/50/83
f 457/53/84 458/54/84 459/55/84
f 460/56/84 459/55/84 458/54/84
f 461/54/85 462/53/85 463/55/85
f 463/55/85 464/56/85 461/54/85
f 465/57/83 466/58/83 467/51/83
f 468/52/83 467/51/83 466/58/83
f 469/24/86 470/23/86 471/25/86
f 471/25/86 472/26/86 469/24/86
f 473/13/87 469/14/87 472/15/87
f 472/15/87 474/16/87 473/13/87
f 475/17/88 473/18/87 474/19/87
f 474/19/87 476/20/88 475/17/88
f 477/45/89 478/46/89 479/47/89
f 480/48/89 479/47/89 478/46/89
f 481/49/90 482/50/90 483/51/90
f 484/52/90 483/51/90 482/50/90
f 485/53/87 486/54/87 487/55/87
f 488/56/87 487/55/87 486/54/87
f 489/54/91 490/53/91 491/55/89
f 491/55/89 492/56/89 489/54/91
f 493/57/90 494/58/90 495/51/90
f 496/52/90 495/51/90 494/58/90
f 497/24/59 498/23/59 499/25/59
f 499/25/59 500/26/59 497/24/59
f 501/13/57 497/14/57 500/15/57
f 500/15/57 502/16/57 501/13/57
f 503/17/57 501/18/57 502/19/57
f 502/19/57 504/20/57 503/17/57
f 505/45/58 506/46/58 507/47/58
f 508/48/58 507/47/58 506/46/58
f 509/49/59 510/50/59 511/51/59
f 512/52/59 511/51/59 510/50/59
f 513/53/57 514/54/57 515/55/57
f 516/56/57 515/55/57 514/54/57
f 517/54/58 518/53/58 519/55/58
f 519/55/58 520/56/58 517/54/58
f 521/57/59 522/58/59 523/51/59
f 524/52/59 523/51/59 522/58/59
f 525/59/57 526/60/57 527/61/57
f 527/61/57 528/62/57 525/59/57
f 529/63/57 530/64/57 531/65/57
f 531/65/57 532/66/57 529/63/57
f 525/67/56 529/68/56 532/69/56
f 532/69/56 528/70/56 525/67/56
f 530/71/59 526/72/59 527/73/59
f 527/73/59 531/74/59 530/71/59
f 533/59/57 534/60/57 535/61/57
f 535/61/57 536/62/57 533/59/57
f 537/63/57 538/64/57 539/65/57
f 539/65/57 540/66/57 537/63/57
f 533/67/56 537/68/56 540/69/56
f 540/69/56 536/70/56 533/67/56
f 538/71/59 534/72/59 535/73/59
f 535/73/59 539/74/59 538/71/59
f 541/75/59 542/76/59 543/77/59
f 544/78/59 543/77/59 542/76/59
f 545/79/56 546/80/56 547/81/56
f 547/81/56 548/82/56 545/79/56
f 546/83/57 541/84/57 547/85/57
f 543/86/57 547/85/57 541/84/57
f 549/75/59 550/76/59 551/77/59
f 552/78/59 551/77/59 550/76/59
f 553/79/56 554/80/56 555/81/56
f 555/81/56 556/82/56 553/79/56
f 557/83/57 558/84/57 559/85/57
f 560/86/57 559/85/57 558/84/57
f 558/87/59 549/75/59 551/77/59
f 551/77/59 560/88/59 558/87/59
f 554/80/56 557/89/56 559/90/56
f 559/90/56 555/81/56 554/80/56
f 561/75/59 562/76/59 563/77/59
f 564/78/59 563/77/59 562/76/59
f 565/79/56 566/80/56 567/81/56
f 567/81/56 568/82/56 565/79/56
f 566/83/57 561/84/57 567/85/57
f 563/86/57 567/85/57 561/84/57
f 569/91/92 570/92/92 571/93/92
f 572/94/92 573/95/92 569/91/92
f 574/91/93 575/95/93 576/94/93
f 576/94/93 577/96/93 574/91/93
f 569/91/94 573/95/94 575/95/94
f 575/95/94 574/91/94 569/91/94
f 573/95/95 572/94/95 576/94/95
f 576/94/95 575/95/95 573/95/95
f 571/93/96 570/92/97 578/92/98
f 577/96/99 576/94/100 572/94/101
f 570/92/102 569/91/102 574/91/102
f 574/91/102 578/92/102 570/92/102
f 572/94/101 571/93/96 578/92/98
f 569/91/92 571/93/92 572/94/92
f 578/92/98 577/96/99 572/94/101
f 577/96/93 578/92/93 574/91/93
f 579/91/92 580/92/92 581/93/92
f 582/94/92 583/95/92 579/91/92
f 584/91/93 585/95/93 586/94/93
f 586/94/93 587/96/93 584/91/93
f 579/91/94 583/95/94 585/95/94
f 585/95/94 584/91/94 579/91/94
f 583/95/95 582/94/95 586/94/95
f 586/94/95 585/95/95 583/95/95
f 581/93/96 580/92/97 588/92/98
f 587/96/99 586/94/100 582/94/101
f 580/92/102 579/91/102 584/91/102
f 584/91/102 588/92/102 580/92/102
f 582/94/101 581/93/96 588/92/98
f 579/91/92 581/93/92 582/94/92
f 588/92/98 587/96/99 582/94/101
f 587/96/93 588/92/93 584/91/93
f 589/91/92 590/92/92 591/93/92
f 592/94/92 593/95/92 589/91/92
f 594/91/93 595/95/93 596/94/93
f 596/94/93 597/96/93 594/91/93
f 589/91/94 593/95/94 595/95/94
f 595/95/94 594/91/94 589/91/94
f 593/95/95 592/94/95 596/94/95
f 596/94/95 595/95/95 593/95/95
f 591/93/96 590/92/97 598/92/98
f 597/96/99 596/94/100 592/94/101
f 590/92/102 589/91/102 594/91/102
f 594/91/102 598/92/102 590/92/102
f 592/94/101 591/93/96 598/92/98
f 589/91/92 591/93/92 592/94/92
f 598/92/98 597/96/99 592/94/101
f 597/96/93 598/92/93 594/91/93
f 599/24/57 600/23/57 601/25/57
f 601/25/57 602/26/57 599/24/57
f 603/13/56 599/14/56 602/15/56
f 602/15/56 604/16/56 603/13/56
f 605/17/56 603/18/56 604/19/56
f 604/19/56 606/20/56 605/17/56
f 607/13/56 605/14/56 606/15/56
f 606/15/56 608/16/56 607/13/56
f 609/17/56 607/18/56 608/19/56
f 608/19/56 610/20/56 609/17/56
f 611/18/59 612/17/59 613/19/59
f 614/20/59 613/19/59 612/17/59
f 612/14/59 615/13/59 614/15/59
f 616/16/59 614/15/59 615/13/59
f 615/18/59 617/17/59 616/19/59
f 618/20/59 616/19/59 617/17/59
f 600/24/57 619/23/57 620/25/57
f 620/25/57 601/26/57 600/24/57
f 621/24/57 622/23/57 623/25/57
f 623/25/57 624/26/57 621/24/57
f 621/97/56 611/18/56 613/19/56
f 613/19/56 624/98/56 621/97/56
f 625/24/57 626/23/57 627/25/57
f 627/25/57 628/26/57 625/24/57
f 629/13/56 625/14/56 628/15/56
f 628/15/56 630/16/56 629/13/56
f 631/17/56 629/18/56 630/19/56
f 630/19/56 632/20/56 631/17/56
f 633/13/56 631/14/56 632/15/56
f 632/15/56 634/16/56 633/13/56
f 635/17/56 633/18/56 634/19/56
f 634/19/56 636/20/56 635/17/56
f 637/18/59 638/17/59 639/19/59
f 640/20/59 639/19/59 638/17/59
f 638/14/59 641/13/59 640/15/59
f 642/16/59 640/15/59 641/13/59
f 641/18/59 643/17/59 642/19/59
f 644/20/59 642/19/59 643/17/59
f 626/24/57 645/23/57 646/25/57
f 646/25/57 627/26/57 626/24/57
f 647/24/57 648/23/57 649/25/57
f 649/25/57 650/26/57 647/24/57
f 647/97/56 637/18/56 639/19/56
f 639/19/56 650/98/56 647/97/56
f 651/23/57 652/24/57 653/25/57
f 654/26/57 653/25/57 652/24/57
f 652/14/59 655/13/59 654/15/59
f 656/16/59 654/15/59 655/13/59
f 655/18/59 657/17/59 656/19/59
f 658/20/59 656/19/59 657/17/59
f 657/14/59 659/13/59 658/15/59
f 660/16/59 658/15/59 659/13/59
f 659/18/59 661/17/59 660/19/59
f 662/20/59 660/19/59 661/17/59
f 663/17/56 664/18/56 665/19/56
f 665/19/56 666/20/56 663/17/56
f 667/13/56 663/14/56 666/15/56
f 666/15/56 668/16/56 667/13/56
f 669/17/56 667/18/56 668/19/56
f 668/19/56 670/20/56 669/17/56
f 671/23/57 651/24/57 672/25/57
f 653/26/57 672/25/57 651/24/57
f 673/23/57 675/24/57 674/25/57
f 676/26/57 674/25/57 675/24/57
f 664/18/59 675/97/59 665/19/59
f 676/98/59 665/19/59 675/97/59
f 695/23/57 677/24/57 697/25/57
f 678/26/57 697/25/57 677/24/57
f 677/14/59 679/13/59 678/15/59
f 680/16/59 678/15/59 679/13/59
f 679/18/59 681/17/59 680/19/59
f 682/20/59 680/19/59 681/17/59
f 681/14/59 683/13/59 682/15/59
f 684/16/59 682/15/59 683/13/59
f 683/18/59 685/17/59 684/19/59
f 686/20/59 684/19/59 685/17/59
f 687/17/56 688/18/56 701/19/56
f 701/19/56 689/20/56 687/17/56
f 690/13/56 687/14/56 689/15/56
f 689/15/56 691/16/56 690/13/56
f 692/17/56 690/18/56 691/19/56
f 691/19/56 693/20/56 692/17/56
f 694/23/57 695/24/57 696/25/57
f 697/26/57 696/25/57 695/24/57
f 698/23/57 699/24/57 700/25/57
f 702/26/57 700/25/57 699/24/57
f 688/18/59 699/97/59 701/19/59
f 702/98/59 701/19/59 699/97/59
f 703/24/103 704/23/103 705/25/103
f 705/25/103 706/26/103 703/24/103
f 707/13/104 703/14/105 706/15/105
f 706/15/105 708/16/104 707/13/104
f 709/17/105 707/18/104 708/19/104
f 708/19/104 710/20/105 709/17/105
f 711/13/105 709/14/105 710/15/105
f 710/15/105 712/16/105 711/13/105
f 713/17/105 711/18/105 712/19/105
f 712/19/105 714/20/105 713/17/105
f 715/18/106 716/17/106 717/19/106
f 718/20/106 717/19/106 716/17/106
f 716/14/106 719/13/106 718/15/106
f 720/16/106 718/15/106 719/13/106
f 719/18/106 721/17/106 720/19/106
f 722/20/106 720/19/106 721/17/106
f 704/24/103 723/23/103 724/25/103
f 724/25/103 705/26/103 704/24/103
f 725/24/103 726/23/103 727/25/103
f 727/25/103 728/26/103 725/24/103
f 725/97/105 715/18/105 717/19/105
f 717/19/105 728/98/105 725/97/105
f 729/23/107 730/24/108 731/25/107
f 732/26/107 731/25/107 730/24/107
f 730/14/109 733/13/109 732/15/109
f 734/16/109 732/15/106 733/13/110
f 733/18/110 735/17/106 734/19/109
f 736/20/106 734/19/109 735/17/106
f 735/14/106 737/13/106 736/15/106
f 738/16/110 736/15/106 737/13/106
f 737/18/106 739/17/106 738/19/110
f 740/20/106 738/19/110 739/17/106
f 741/17/105 742/18/104 743/19/105
f 743/19/105 744/20/105 741/17/105
f 745/13/105 741/14/105 744/15/105
f 744/15/105 746/16/105 745/13/105
f 747/17/105 745/18/105 746/19/105
f 746/19/105 748/20/105 747/17/105
f 749/99/103 729/100/103 750/101/103
f 731/102/107 750/101/103 729/100/107
f 751/103/103 752/104/103 753/105/103
f 754/106/103 753/105/103 752/104/103
f 742/107/106 752/104/106 743/108/106
f 754/106/106 743/108/106 752/104/106
f 753/105/111 751/103/111 749/109/111
f 749/109/111 750/102/111 753/105/111
