# Blender 4.4.3
# www.blender.org
mtllib RDGLOW.mtl
o RDGLOW
v 62.858635 1.503688 13.138209
v 62.858635 0.372196 13.138209
v 62.858635 1.503688 12.023690
v 62.858635 0.372196 12.023690
v 62.450981 0.900796 12.580949
v 62.896099 0.536650 12.580949
v 62.809666 1.339234 12.580949
v 63.671497 0.975088 12.580949
v 62.672871 1.103058 12.249457
v 62.774910 0.567196 12.431583
v 62.930859 1.308689 12.709936
v 63.449608 0.772827 12.892063
v 62.727863 0.898250 12.976810
v 62.867123 0.536933 12.551621
v 62.838638 1.338953 12.638591
v 63.394615 0.977635 12.213403
v 72.896492 1.503688 13.138209
v 72.896492 0.372196 13.138209
v 72.896492 1.503688 12.023690
v 72.896492 0.372196 12.023690
v 72.488838 0.900796 12.580949
v 72.933952 0.536650 12.580949
v 72.847527 1.339234 12.580949
v 73.709351 0.975088 12.580949
v 72.710724 1.103058 12.249457
v 72.812767 0.567196 12.431583
v 72.968712 1.308689 12.709936
v 73.487465 0.772827 12.892063
v 72.765717 0.898250 12.976810
v 72.904984 0.536933 12.551621
v 72.876495 1.338953 12.638591
v 73.432472 0.977635 12.213403
v 82.990410 1.503688 13.138209
v 82.990410 0.372196 13.138209
v 82.990410 1.503688 12.023690
v 82.990410 0.372196 12.023690
v 82.582756 0.900796 12.580949
v 83.027870 0.536650 12.580949
v 82.941444 1.339234 12.580949
v 83.803268 0.975088 12.580949
v 82.804642 1.103058 12.249457
v 82.906685 0.567196 12.431583
v 83.062630 1.308689 12.709936
v 83.581383 0.772827 12.892063
v 82.859634 0.898250 12.976810
v 82.998901 0.536933 12.551621
v 82.970413 1.338953 12.638591
v 83.526390 0.977635 12.213403
v 92.990715 1.503688 13.138209
v 92.990715 0.372196 13.138209
v 92.990715 1.503688 12.023690
v 92.990715 0.372196 12.023690
v 92.583061 0.900796 12.580949
v 93.028175 0.536650 12.580949
v 92.941750 1.339234 12.580949
v 93.803574 0.975088 12.580949
v 92.804947 1.103058 12.249457
v 92.906990 0.567196 12.431583
v 93.062935 1.308689 12.709936
v 93.581688 0.772827 12.892063
v 92.859940 0.898250 12.976810
v 92.999207 0.536933 12.551621
v 92.970718 1.338953 12.638591
v 93.526695 0.977635 12.213403
v 59.830723 2.296287 -3.013679
v 59.830723 1.164796 -3.013679
v 59.830723 2.296287 -4.128198
v 59.830723 1.164796 -4.128198
v 59.423069 1.693396 -3.570939
v 59.868187 1.329250 -3.570939
v 59.781754 2.131834 -3.570939
v 60.643585 1.767687 -3.570939
v 59.644958 1.895658 -3.902431
v 59.746994 1.359796 -3.720307
v 59.902946 2.101288 -3.441953
v 60.421696 1.565426 -3.259828
v 59.699951 1.690850 -3.175078
v 59.839211 1.329532 -3.600266
v 59.810726 2.131552 -3.513297
v 60.366703 1.770235 -3.938485
v 62.858635 1.159010 12.979080
v 62.858635 0.171972 12.425881
v 62.858635 1.703911 12.006848
v 62.858635 0.716873 11.453650
v 62.450981 0.905538 12.198204
v 62.896099 0.587881 12.020168
v 62.809666 1.288002 12.412561
v 63.671497 0.970345 12.234526
v 62.672871 1.239067 12.006619
v 62.774910 0.682573 11.903504
v 62.930859 1.193312 12.508846
v 63.449608 0.636818 12.405731
v 62.727863 0.716698 12.544088
v 62.867123 0.609388 11.996530
v 62.838638 1.266497 12.464514
v 63.394615 1.159187 11.916955
v 72.896492 1.159010 12.979080
v 72.896492 0.171972 12.425881
v 72.896492 1.703911 12.006848
v 72.896492 0.716873 11.453650
v 72.488838 0.905538 12.198204
v 72.933952 0.587881 12.020168
v 72.847527 1.288002 12.412560
v 73.709351 0.970345 12.234526
v 72.710724 1.239067 12.006619
v 72.812767 0.682573 11.903505
v 72.968712 1.193312 12.508846
v 73.487465 0.636818 12.405731
v 72.765717 0.716698 12.544088
v 72.904984 0.609388 11.996530
v 72.876495 1.266497 12.464514
v 73.432472 1.159187 11.916955
v 82.990410 1.159010 12.979080
v 82.990410 0.171972 12.425881
v 82.990410 1.703911 12.006848
v 82.990410 0.716873 11.453650
v 82.582756 0.905538 12.198204
v 83.027870 0.587881 12.020168
v 82.941444 1.288002 12.412560
v 83.803268 0.970345 12.234526
v 82.804642 1.239067 12.006619
v 82.906685 0.682573 11.903505
v 83.062630 1.193312 12.508846
v 83.581383 0.636818 12.405731
v 82.859634 0.716698 12.544088
v 82.998901 0.609388 11.996530
v 82.970413 1.266497 12.464514
v 83.526390 1.159186 11.916955
v 92.990715 1.159010 12.979080
v 92.990715 0.171972 12.425881
v 92.990715 1.703911 12.006848
v 92.990715 0.716873 11.453650
v 92.583061 0.905538 12.198204
v 93.028175 0.587881 12.020168
v 92.941750 1.288002 12.412561
v 93.803574 0.970345 12.234526
v 92.804947 1.239067 12.006619
v 92.906990 0.682573 11.903505
v 93.062935 1.193312 12.508846
v 93.581688 0.636818 12.405731
v 92.859940 0.716698 12.544088
v 92.999207 0.609388 11.996530
v 92.970718 1.266497 12.464514
v 93.526695 1.159187 11.916955
v 59.830723 1.951609 -3.172809
v 59.830723 0.964571 -3.726007
v 59.830723 2.496511 -4.145040
v 59.830723 1.509473 -4.698241
v 59.423069 1.698138 -3.953687
v 59.868183 1.380481 -4.131722
v 59.781754 2.080602 -3.739327
v 60.643585 1.762945 -3.917365
v 59.644958 2.031667 -4.145268
v 59.746994 1.475173 -4.248384
v 59.902946 1.985911 -3.643043
v 60.421696 1.429417 -3.746160
v 59.699951 1.509298 -3.607802
v 59.839211 1.401988 -4.155358
v 59.810726 2.059096 -3.687375
v 60.366703 1.951786 -4.234933
v 62.858635 1.704747 12.042370
v 62.858635 0.719946 12.599540
v 62.858635 1.155935 11.072340
v 62.858635 0.171133 11.629510
v 62.450981 0.905613 11.854230
v 62.896099 0.588676 12.033543
v 62.809666 1.287211 11.638333
v 63.671497 0.970273 11.817647
v 62.672871 0.923437 11.464795
v 62.774910 0.546728 11.887179
v 62.930859 1.329158 11.764319
v 63.449608 0.952450 12.186704
v 62.727863 1.091356 12.201859
v 62.867123 0.567509 12.009714
v 62.838638 1.308379 11.690477
v 63.394615 0.784531 11.498332
v 72.896492 1.704748 12.042370
v 72.896492 0.719946 12.599540
v 72.896492 1.155935 11.072340
v 72.896492 0.171133 11.629511
v 72.488838 0.905613 11.854230
v 72.933952 0.588676 12.033543
v 72.847527 1.287211 11.638333
v 73.709351 0.970273 11.817647
v 72.710724 0.923437 11.464795
v 72.812767 0.546728 11.887179
v 72.968712 1.329159 11.764319
v 73.487465 0.952450 12.186705
v 72.765717 1.091356 12.201859
v 72.904984 0.567509 12.009714
v 72.876495 1.308379 11.690477
v 73.432472 0.784531 11.498332
v 82.990410 1.704748 12.042370
v 82.990410 0.719946 12.599540
v 82.990410 1.155935 11.072340
v 82.990410 0.171133 11.629511
v 82.582756 0.905613 11.854230
v 83.027870 0.588676 12.033543
v 82.941444 1.287211 11.638333
v 83.803268 0.970273 11.817647
v 82.804642 0.923437 11.464795
v 82.906685 0.546728 11.887179
v 83.062630 1.329159 11.764319
v 83.581383 0.952450 12.186705
v 82.859634 1.091356 12.201859
v 82.998901 0.567509 12.009714
v 82.970413 1.308379 11.690477
v 83.526390 0.784531 11.498332
v 92.990715 1.704748 12.042370
v 92.990715 0.719946 12.599540
v 92.990715 1.155935 11.072340
v 92.990715 0.171133 11.629511
v 92.583061 0.905613 11.854230
v 93.028175 0.588676 12.033543
v 92.941750 1.287211 11.638333
v 93.803574 0.970273 11.817647
v 92.804947 0.923437 11.464795
v 92.906990 0.546728 11.887179
v 93.062935 1.329159 11.764319
v 93.581688 0.952450 12.186705
v 92.859940 1.091356 12.201859
v 92.999207 0.567509 12.009714
v 92.970718 1.308379 11.690477
v 93.526695 0.784531 11.498332
v 59.830723 2.497347 -4.109521
v 59.830723 1.512546 -3.552348
v 59.830723 1.948534 -5.079553
v 59.830723 0.963733 -4.522378
v 59.423069 1.698213 -4.297660
v 59.868183 1.381275 -4.118348
v 59.781754 2.079810 -4.513555
v 60.643585 1.762873 -4.334241
v 59.644958 1.716036 -4.687093
v 59.746994 1.339328 -4.264709
v 59.902946 2.121758 -4.387568
v 60.421696 1.745050 -3.965184
v 59.699951 1.883955 -3.950032
v 59.839211 1.360108 -4.142177
v 59.810726 2.100978 -4.461411
v 60.366703 1.577131 -4.653556
v 62.858635 0.596701 12.202166
v 62.858635 0.226131 11.133077
v 62.858635 1.649753 11.837154
v 62.858635 1.279183 10.768065
v 62.450981 0.925777 11.450015
v 62.896099 0.806517 11.105951
v 62.809666 1.069368 11.864273
v 63.671497 0.950108 11.520209
v 62.672871 1.295602 11.525704
v 62.774910 0.948023 11.079043
v 62.930859 0.927864 11.870804
v 63.449608 0.580284 11.424143
v 62.727863 0.564292 11.586777
v 62.867123 0.847697 11.106133
v 62.838638 1.028190 11.892406
v 63.394615 1.311595 11.411762
v 72.896492 0.596701 12.202166
v 72.896492 0.226131 11.133077
v 72.896492 1.649753 11.837154
v 72.896492 1.279183 10.768065
v 72.488838 0.925777 11.450015
v 72.933952 0.806517 11.105951
v 72.847527 1.069368 11.864273
v 73.709351 0.950108 11.520209
v 72.710724 1.295602 11.525704
v 72.812767 0.948023 11.079043
v 72.968712 0.927864 11.870804
v 73.487465 0.580284 11.424143
v 72.765717 0.564292 11.586777
v 72.904984 0.847697 11.106133
v 72.876495 1.028190 11.892406
v 73.432472 1.311595 11.411762
v 82.990410 0.596701 12.202166
v 82.990410 0.226131 11.133077
v 82.990410 1.649753 11.837154
v 82.990410 1.279183 10.768065
v 82.582756 0.925777 11.450015
v 83.027870 0.806517 11.105951
v 82.941444 1.069368 11.864273
v 83.803268 0.950108 11.520209
v 82.804642 1.295602 11.525704
v 82.906685 0.948023 11.079043
v 83.062630 0.927864 11.870804
v 83.581383 0.580284 11.424143
v 82.859634 0.564292 11.586777
v 82.998901 0.847697 11.106133
v 82.970413 1.028190 11.892406
v 83.526390 1.311595 11.411762
v 92.990715 0.596701 12.202166
v 92.990715 0.226131 11.133077
v 92.990715 1.649753 11.837154
v 92.990715 1.279183 10.768065
v 92.583061 0.925777 11.450016
v 93.028175 0.806517 11.105951
v 92.941750 1.069368 11.864273
v 93.803574 0.950108 11.520209
v 92.804947 1.295602 11.525704
v 92.906990 0.948023 11.079043
v 93.062935 0.927864 11.870804
v 93.581688 0.580284 11.424143
v 92.859940 0.564292 11.586777
v 92.999207 0.847697 11.106133
v 92.970718 1.028190 11.892406
v 93.526695 1.311595 11.411762
v 59.830723 1.389300 -3.949725
v 59.830723 1.018730 -5.018811
v 59.830723 2.442353 -4.314736
v 59.830723 2.071783 -5.383822
v 59.423069 1.718377 -4.701873
v 59.868183 1.599117 -5.045941
v 59.781754 1.861968 -4.287618
v 60.643585 1.742708 -4.631679
v 59.644958 2.088202 -4.626184
v 59.746994 1.740623 -5.072845
v 59.902946 1.720464 -4.281087
v 60.421696 1.372884 -4.727750
v 59.699951 1.356892 -4.565112
v 59.839211 1.640297 -5.045754
v 59.810726 1.820790 -4.259482
v 60.366703 2.104195 -4.740130
v -66.568558 0.383423 -9.652838
v -66.568558 -0.748068 -9.652840
v -66.568558 0.383423 -10.767357
v -66.568558 -0.748068 -10.767359
v -66.976212 -0.219468 -10.210100
v -66.531097 -0.583615 -10.210100
v -66.617523 0.218969 -10.210098
v -65.755707 -0.145177 -10.210100
v -66.754333 -0.017207 -10.541590
v -66.652283 -0.553068 -10.359468
v -66.496338 0.188424 -10.081112
v -65.977585 -0.347438 -9.898989
v -66.699341 -0.222014 -9.814240
v -66.560074 -0.583332 -10.239428
v -66.588562 0.218688 -10.152456
v -66.032578 -0.142630 -10.577646
v -66.568558 0.550628 -10.295588
v -66.568558 -0.480602 -9.829929
v -66.568558 0.091952 -11.311348
v -66.568558 -0.939277 -10.845690
v -66.976212 -0.228179 -10.555353
v -66.531097 -0.560059 -10.405489
v -66.617523 0.171409 -10.735788
v -65.755707 -0.160471 -10.585928
v -66.754333 -0.180263 -10.940708
v -66.652283 -0.593691 -10.554193
v -66.496338 0.196654 -10.605661
v -65.977585 -0.216773 -10.219145
v -66.699341 -0.067585 -10.193521
v -66.560074 -0.571870 -10.432335
v -66.588562 0.194875 -10.683138
v -66.032578 -0.309411 -10.921953
v 172.642242 0.383423 -9.652838
v 172.642242 -0.748068 -9.652840
v 172.642242 0.383423 -10.767357
v 172.642242 -0.748068 -10.767359
v 172.234589 -0.219468 -10.210100
v 172.679703 -0.583615 -10.210100
v 172.593277 0.218969 -10.210098
v 173.455093 -0.145177 -10.210100
v 172.456467 -0.017207 -10.541590
v 172.558517 -0.553068 -10.359468
v 172.714462 0.188424 -10.081112
v 173.233215 -0.347438 -9.898989
v 172.511459 -0.222014 -9.814240
v 172.650726 -0.583332 -10.239428
v 172.622238 0.218688 -10.152456
v 173.178223 -0.142630 -10.577646
v 172.642242 0.550628 -10.295588
v 172.642242 -0.480602 -9.829929
v 172.642242 0.091952 -11.311348
v 172.642242 -0.939277 -10.845690
v 172.234589 -0.228179 -10.555353
v 172.679703 -0.560059 -10.405489
v 172.593277 0.171409 -10.735788
v 173.455093 -0.160471 -10.585928
v 172.456467 -0.180263 -10.940708
v 172.558517 -0.593691 -10.554193
v 172.714462 0.196654 -10.605661
v 173.233215 -0.216773 -10.219145
v 172.511459 -0.067585 -10.193521
v 172.650726 -0.571870 -10.432335
v 172.622238 0.194875 -10.683138
v 173.178223 -0.309411 -10.921953
vn 1.0000 -0.0000 -0.0000
vn -0.0000 -0.0000 1.0000
vn -0.8724 -0.0000 0.4888
vn -0.5076 -0.2072 0.8363
vn 0.9503 -0.0000 0.3113
vn 0.5780 -0.0677 0.8132
vn 0.5780 -0.0676 0.8132
vn 0.5780 -0.0677 0.8133
vn -0.0000 -0.4889 0.8723
vn -0.8724 -0.2390 0.4264
vn -0.5076 -0.5896 0.6282
vn 0.9503 -0.1522 0.2715
vn 0.5780 -0.4566 0.6763
vn -0.0000 0.4924 0.8704
vn -0.8724 0.2407 0.4254
vn -0.5076 0.2315 0.8299
vn 0.9503 0.1533 0.2709
vn 0.5780 0.3416 0.7411
vn -0.0000 0.4924 0.8703
vn -0.0000 -0.9448 0.3275
vn -0.8724 -0.4618 0.1601
vn -0.5076 -0.8580 0.0781
vn 0.9503 -0.2941 0.1019
vn 0.5780 -0.7905 0.2024
vn -0.0000 -0.9449 0.3275
vn 0.5780 -0.7906 0.2024
vn -0.0000 0.4116 0.9114
vn -0.0000 0.4115 0.9114
vn -0.8724 0.2011 0.4455
vn -0.5076 0.1554 0.8475
vn 0.9503 0.1281 0.2837
vn 0.5780 0.2730 0.7690
vt 0.000500 1.999501
vt 0.000500 1.000500
vt 0.999500 1.999500
vt 0.999500 1.000499
s 1
usemtl RDLTGLOWA
f 1/1/1 2/2/1 3/3/1
f 4/4/1 3/3/1 2/2/1
f 5/1/2 6/2/2 7/3/2
f 8/4/2 7/3/2 6/2/2
f 9/1/3 10/2/3 11/3/3
f 12/4/4 11/3/4 10/2/4
f 13/1/5 14/2/5 15/3/5
f 16/4/6 15/3/6 14/2/6
f 17/1/1 18/2/1 19/3/1
f 20/4/1 19/3/1 18/2/1
f 21/1/2 22/2/2 23/3/2
f 24/4/2 23/3/2 22/2/2
f 25/1/3 26/2/3 27/3/3
f 28/4/4 27/3/4 26/2/4
f 29/1/5 30/2/5 31/3/5
f 32/4/7 31/3/7 30/2/7
f 33/1/1 34/2/1 35/3/1
f 36/4/1 35/3/1 34/2/1
f 37/1/2 38/2/2 39/3/2
f 40/4/2 39/3/2 38/2/2
f 41/1/3 42/2/3 43/3/3
f 44/4/4 43/3/4 42/2/4
f 45/1/5 46/2/5 47/3/5
f 48/4/7 47/3/7 46/2/7
f 49/1/1 50/2/1 51/3/1
f 52/4/1 51/3/1 50/2/1
f 53/1/2 54/2/2 55/3/2
f 56/4/2 55/3/2 54/2/2
f 57/1/3 58/2/3 59/3/3
f 60/4/4 59/3/4 58/2/4
f 61/1/5 62/2/5 63/3/5
f 64/4/7 63/3/7 62/2/7
f 65/1/1 66/2/1 67/3/1
f 68/4/1 67/3/1 66/2/1
f 69/1/2 70/2/2 71/3/2
f 72/4/2 71/3/2 70/2/2
f 73/1/3 74/2/3 75/3/3
f 76/4/4 75/3/4 74/2/4
f 77/1/5 78/2/5 79/3/5
f 80/4/8 79/3/8 78/2/8
f 81/1/1 82/2/1 83/3/1
f 84/4/1 83/3/1 82/2/1
f 85/1/9 86/2/9 87/3/9
f 88/4/9 87/3/9 86/2/9
f 89/1/10 90/2/10 91/3/10
f 92/4/11 91/3/11 90/2/11
f 93/1/12 94/2/12 95/3/12
f 96/4/13 95/3/13 94/2/13
f 97/1/1 98/2/1 99/3/1
f 100/4/1 99/3/1 98/2/1
f 101/1/9 102/2/9 103/3/9
f 104/4/9 103/3/9 102/2/9
f 105/1/10 106/2/10 107/3/10
f 108/4/11 107/3/11 106/2/11
f 109/1/12 110/2/12 111/3/12
f 112/4/13 111/3/13 110/2/13
f 113/1/1 114/2/1 115/3/1
f 116/4/1 115/3/1 114/2/1
f 117/1/9 118/2/9 119/3/9
f 120/4/9 119/3/9 118/2/9
f 121/1/10 122/2/10 123/3/10
f 124/4/11 123/3/11 122/2/11
f 125/1/12 126/2/12 127/3/12
f 128/4/13 127/3/13 126/2/13
f 129/1/1 130/2/1 131/3/1
f 132/4/1 131/3/1 130/2/1
f 133/1/9 134/2/9 135/3/9
f 136/4/9 135/3/9 134/2/9
f 137/1/10 138/2/10 139/3/10
f 140/4/11 139/3/11 138/2/11
f 141/1/12 142/2/12 143/3/12
f 144/4/13 143/3/13 142/2/13
f 145/1/1 146/2/1 147/3/1
f 148/4/1 147/3/1 146/2/1
f 149/1/9 150/2/9 151/3/9
f 152/4/9 151/3/9 150/2/9
f 153/1/10 154/2/10 155/3/10
f 156/4/11 155/3/11 154/2/11
f 157/1/12 158/2/12 159/3/12
f 160/4/13 159/3/13 158/2/13
f 161/1/1 162/2/1 163/3/1
f 164/4/1 163/3/1 162/2/1
f 165/1/14 166/2/14 167/3/14
f 168/4/14 167/3/14 166/2/14
f 169/1/15 170/2/15 171/3/15
f 172/4/16 171/3/16 170/2/16
f 173/1/17 174/2/17 175/3/17
f 176/4/18 175/3/18 174/2/18
f 177/1/1 178/2/1 179/3/1
f 180/4/1 179/3/1 178/2/1
f 181/1/14 182/2/14 183/3/14
f 184/4/14 183/3/14 182/2/14
f 185/1/15 186/2/15 187/3/15
f 188/4/16 187/3/16 186/2/16
f 189/1/17 190/2/17 191/3/17
f 192/4/18 191/3/18 190/2/18
f 193/1/1 194/2/1 195/3/1
f 196/4/1 195/3/1 194/2/1
f 197/1/14 198/2/14 199/3/14
f 200/4/14 199/3/14 198/2/14
f 201/1/15 202/2/15 203/3/15
f 204/4/16 203/3/16 202/2/16
f 205/1/17 206/2/17 207/3/17
f 208/4/18 207/3/18 206/2/18
f 209/1/1 210/2/1 211/3/1
f 212/4/1 211/3/1 210/2/1
f 213/1/19 214/2/14 215/3/14
f 216/4/14 215/3/14 214/2/14
f 217/1/15 218/2/15 219/3/15
f 220/4/16 219/3/16 218/2/16
f 221/1/17 222/2/17 223/3/17
f 224/4/18 223/3/18 222/2/18
f 225/1/1 226/2/1 227/3/1
f 228/4/1 227/3/1 226/2/1
f 229/1/14 230/2/14 231/3/14
f 232/4/14 231/3/14 230/2/14
f 233/1/15 234/2/15 235/3/15
f 236/4/16 235/3/16 234/2/16
f 237/1/17 238/2/17 239/3/17
f 240/4/18 239/3/18 238/2/18
f 241/1/1 242/2/1 243/3/1
f 244/4/1 243/3/1 242/2/1
f 245/1/20 246/2/20 247/3/20
f 248/4/20 247/3/20 246/2/20
f 249/1/21 250/2/21 251/3/21
f 252/4/22 251/3/22 250/2/22
f 253/1/23 254/2/23 255/3/23
f 256/4/24 255/3/24 254/2/24
f 257/1/1 258/2/1 259/3/1
f 260/4/1 259/3/1 258/2/1
f 261/1/20 262/2/20 263/3/20
f 264/4/25 263/3/20 262/2/20
f 265/1/21 266/2/21 267/3/21
f 268/4/22 267/3/22 266/2/22
f 269/1/23 270/2/23 271/3/23
f 272/4/26 271/3/26 270/2/26
f 273/1/1 274/2/1 275/3/1
f 276/4/1 275/3/1 274/2/1
f 277/1/25 278/2/20 279/3/20
f 280/4/20 279/3/20 278/2/20
f 281/1/21 282/2/21 283/3/21
f 284/4/22 283/3/22 282/2/22
f 285/1/23 286/2/23 287/3/23
f 288/4/26 287/3/26 286/2/26
f 289/1/1 290/2/1 291/3/1
f 292/4/1 291/3/1 290/2/1
f 293/1/20 294/2/25 295/3/25
f 296/4/25 295/3/25 294/2/25
f 297/1/21 298/2/21 299/3/21
f 300/4/22 299/3/22 298/2/22
f 301/1/23 302/2/23 303/3/23
f 304/4/26 303/3/26 302/2/26
f 305/1/1 306/2/1 307/3/1
f 308/4/1 307/3/1 306/2/1
f 309/1/20 310/2/20 311/3/20
f 312/4/20 311/3/20 310/2/20
f 313/1/21 314/2/21 315/3/21
f 316/4/22 315/3/22 314/2/22
f 317/1/23 318/2/23 319/3/23
f 320/4/26 319/3/26 318/2/26
f 321/1/1 322/2/1 323/3/1
f 324/4/1 323/3/1 322/2/1
f 325/1/2 326/2/2 327/3/2
f 328/4/2 327/3/2 326/2/2
f 329/1/3 330/2/3 331/3/3
f 332/4/4 331/3/4 330/2/4
f 333/1/5 334/2/5 335/3/5
f 336/4/8 335/3/8 334/2/8
f 337/1/1 338/2/1 339/3/1
f 340/4/1 339/3/1 338/2/1
f 341/1/27 342/2/28 343/3/28
f 344/4/28 343/3/28 342/2/28
f 345/1/29 346/2/29 347/3/29
f 348/4/30 347/3/30 346/2/30
f 349/1/31 350/2/31 351/3/31
f 352/4/32 351/3/32 350/2/32
f 353/1/1 354/2/1 355/3/1
f 356/4/1 355/3/1 354/2/1
f 357/1/2 358/2/2 359/3/2
f 360/4/2 359/3/2 358/2/2
f 361/1/3 362/2/3 363/3/3
f 364/4/4 363/3/4 362/2/4
f 365/1/5 366/2/5 367/3/5
f 368/4/8 367/3/8 366/2/8
f 369/1/1 370/2/1 371/3/1
f 372/4/1 371/3/1 370/2/1
f 373/1/28 374/2/28 375/3/28
f 376/4/28 375/3/28 374/2/28
f 377/1/29 378/2/29 379/3/29
f 380/4/30 379/3/30 378/2/30
f 381/1/31 382/2/31 383/3/31
f 384/4/32 383/3/32 382/2/32
