# Blender 4.4.3
# www.blender.org
mtllib RDLT.mtl
o RDLT
v 62.777988 0.787311 12.740858
v 62.777988 0.787311 12.463736
v 62.777988 1.074144 12.463736
v 62.777988 1.074144 12.740858
v 72.815842 0.787311 12.740858
v 72.815842 0.787311 12.463736
v 72.815842 1.074144 12.463736
v 72.815842 1.074144 12.740858
v 82.909760 0.787311 12.740858
v 82.909760 0.787311 12.463736
v 82.909760 1.074144 12.463736
v 82.909760 1.074144 12.740858
v 92.910065 0.787311 12.740858
v 92.910065 0.787311 12.463736
v 92.910065 1.074144 12.463736
v 92.910065 1.074144 12.740858
v 59.750076 1.579911 -3.411032
v 59.750076 1.579911 -3.688153
v 59.750076 1.866744 -3.688153
v 59.750076 1.866744 -3.411032
v 62.777988 0.787311 12.366377
v 62.777988 0.787311 12.089255
v 62.777988 1.074144 12.089255
v 62.777988 1.074144 12.366377
v 72.815842 0.787311 12.366377
v 72.815842 0.787311 12.089255
v 72.815842 1.074144 12.089255
v 72.815842 1.074144 12.366377
v 82.909760 0.787311 12.366377
v 82.909760 0.787311 12.089255
v 82.909760 1.074144 12.089255
v 82.909760 1.074144 12.366377
v 92.910065 0.787311 12.366377
v 92.910065 0.787311 12.089255
v 92.910065 1.074144 12.089255
v 92.910065 1.074144 12.366377
v 59.750076 1.579911 -3.785512
v 59.750076 1.579911 -4.062633
v 59.750076 1.866744 -4.062633
v 59.750076 1.866744 -3.785512
v 62.777988 0.787311 11.989125
v 62.777988 0.787311 11.712004
v 62.777988 1.074144 11.712004
v 62.777988 1.074144 11.989125
v 72.815842 0.787311 11.989125
v 72.815842 0.787311 11.712004
v 72.815842 1.074144 11.712004
v 72.815842 1.074144 11.989125
v 82.909760 0.787311 11.989125
v 82.909760 0.787311 11.712004
v 82.909760 1.074144 11.712004
v 82.909760 1.074144 11.989125
v 92.910065 0.787311 11.989125
v 92.910065 0.787311 11.712004
v 92.910065 1.074144 11.712004
v 92.910065 1.074144 11.989125
v 59.750076 1.579911 -4.162763
v 59.750076 1.579911 -4.439885
v 59.750076 1.866744 -4.439885
v 59.750076 1.866744 -4.162763
v 62.777988 0.787311 11.612220
v 62.777988 0.787311 11.335098
v 62.777988 1.074144 11.335098
v 62.777988 1.074144 11.612220
v 72.815842 0.787311 11.612220
v 72.815842 0.787311 11.335098
v 72.815842 1.074144 11.335098
v 72.815842 1.074144 11.612220
v 82.909760 0.787311 11.612220
v 82.909760 0.787311 11.335098
v 82.909760 1.074144 11.335098
v 82.909760 1.074144 11.612220
v 92.910065 0.787311 11.612220
v 92.910065 0.787311 11.335098
v 92.910065 1.074144 11.335098
v 92.910065 1.074144 11.612220
v 59.750076 1.579911 -4.539668
v 59.750076 1.579911 -4.816791
v 59.750076 1.866744 -4.816791
v 59.750076 1.866744 -4.539668
v 172.553772 -0.040248 -10.436508
v 172.553772 -0.317370 -10.436508
v 172.553772 -0.317370 -10.723341
v 172.553772 -0.040248 -10.723341
v 172.553772 -0.040248 -10.081666
v 172.553772 -0.317370 -10.081666
v 172.553772 -0.317370 -10.368499
v 172.553772 -0.040248 -10.368499
v -66.657028 -0.040248 -10.436508
v -66.657028 -0.317370 -10.436508
v -66.657028 -0.317370 -10.723341
v -66.657028 -0.040248 -10.723341
v -66.657028 -0.040248 -10.081666
v -66.657028 -0.317370 -10.081666
v -66.657028 -0.317370 -10.368499
v -66.657028 -0.040248 -10.368499
vn 1.0000 -0.0000 -0.0000
vt 0.000500 1.000500
vt 0.999500 1.000499
vt 0.999501 1.999500
vt 0.000500 1.999501
s 1
usemtl RDLTA
f 1/1/1 2/2/1 3/3/1
f 3/3/1 4/4/1 1/1/1
f 5/1/1 6/2/1 7/3/1
f 7/3/1 8/4/1 5/1/1
f 9/1/1 10/2/1 11/3/1
f 11/3/1 12/4/1 9/1/1
f 13/1/1 14/2/1 15/3/1
f 15/3/1 16/4/1 13/1/1
f 17/1/1 18/2/1 19/3/1
f 19/3/1 20/4/1 17/1/1
f 21/1/1 22/2/1 23/3/1
f 23/3/1 24/4/1 21/1/1
f 25/1/1 26/2/1 27/3/1
f 27/3/1 28/4/1 25/1/1
f 29/1/1 30/2/1 31/3/1
f 31/3/1 32/4/1 29/1/1
f 33/1/1 34/2/1 35/3/1
f 35/3/1 36/4/1 33/1/1
f 37/1/1 38/2/1 39/3/1
f 39/3/1 40/4/1 37/1/1
f 41/1/1 42/2/1 43/3/1
f 43/3/1 44/4/1 41/1/1
f 45/1/1 46/2/1 47/3/1
f 47/3/1 48/4/1 45/1/1
f 49/1/1 50/2/1 51/3/1
f 51/3/1 52/4/1 49/1/1
f 53/1/1 54/2/1 55/3/1
f 55/3/1 56/4/1 53/1/1
f 57/1/1 58/2/1 59/3/1
f 59/3/1 60/4/1 57/1/1
f 61/1/1 62/2/1 63/3/1
f 63/3/1 64/4/1 61/1/1
f 65/1/1 66/2/1 67/3/1
f 67/3/1 68/4/1 65/1/1
f 69/1/1 70/2/1 71/3/1
f 71/3/1 72/4/1 69/1/1
f 73/1/1 74/2/1 75/3/1
f 75/3/1 76/4/1 73/1/1
f 77/1/1 78/2/1 79/3/1
f 79/3/1 80/4/1 77/1/1
f 81/1/1 82/2/1 83/3/1
f 83/3/1 84/4/1 81/1/1
f 85/1/1 86/2/1 87/3/1
f 87/3/1 88/4/1 85/1/1
f 89/1/1 90/2/1 91/3/1
f 91/3/1 92/4/1 89/1/1
f 93/1/1 94/2/1 95/3/1
f 95/3/1 96/4/1 93/1/1
