# Blender 4.4.3
# www.blender.org
mtllib ROADAB.mtl
o ROADAB
v -321.324127 8.664021 -118.500328
v -320.651123 8.520541 -115.946198
v -318.198364 8.415820 -116.628822
v -318.853760 8.559916 -119.116257
v -154.355637 16.222210 -407.861481
v -156.347595 16.459091 -409.389954
v -156.620834 16.459099 -409.033905
v -154.628860 16.222218 -407.505402
v -158.170715 16.459101 -407.014008
v -156.178757 16.222219 -405.485565
v -159.720612 16.459099 -404.994171
v -157.728653 16.222219 -403.465698
v -161.270493 16.459101 -402.974304
v -159.278549 16.222221 -401.445862
v -162.820389 16.459101 -400.954468
v -160.828445 16.222221 -399.425964
v -163.093658 16.459105 -400.598419
v -161.101685 16.222221 -399.069916
v 72.699043 11.930365 -354.148621
v 70.057022 11.907550 -353.793274
v 70.420090 11.899373 -351.273315
v 73.014801 11.922830 -351.622284
v 62.177521 11.845948 -352.430817
v 64.795319 11.865367 -352.934204
v 64.337898 11.871878 -355.438782
v 61.673214 11.851820 -354.926361
v 67.832474 11.877018 -350.875763
v 67.422134 11.885829 -353.388428
v 498.002045 -3.305736 -113.467072
v 496.724030 -3.305735 -111.305847
v 497.110352 -3.305735 -111.077339
v 498.388397 -3.305736 -113.238617
v 502.406769 -3.273061 -105.028404
v 501.128754 -3.275797 -102.867157
v 503.320251 -3.305734 -101.571251
v 504.598267 -3.305735 -103.732475
v 499.301819 -3.293143 -109.781425
v 500.579865 -3.284704 -111.942688
v 496.016663 -3.288724 -94.222206
v 497.294708 -3.282940 -96.383438
v 495.103210 -3.287888 -97.679375
v 493.825195 -3.290509 -95.518105
v 501.857880 -3.275603 -114.103897
v 502.771332 -3.273308 -110.646782
v 504.049347 -3.266629 -112.807999
v 499.280060 -3.305735 -115.628311
v 499.666382 -3.305736 -115.399803
v 220.906998 -2.254913 -4.366970
v 223.417862 -2.303315 -4.366970
v 220.906998 -2.254910 -4.815800
v 223.417816 -2.303313 -4.815795
v 215.885345 -2.160869 -4.366966
v 218.396225 -2.207374 -4.366966
v 215.885330 -2.160866 -4.815797
v 218.396179 -2.207371 -4.815800
v 213.374557 -2.115575 -4.366966
v 213.374512 -2.115571 -4.815804
v 92.854546 -1.696764 -4.366974
v 95.365433 -1.696764 -4.366974
v 95.365433 -1.696764 -4.815807
v 92.854599 -1.696764 -4.815807
v 97.876205 -1.696764 -4.366974
v 100.387085 -1.696764 -4.366974
v 100.387085 -1.696763 -4.815807
v 97.876266 -1.696763 -4.815807
v 97.876213 -1.696769 6.265743
v 100.387047 -1.696769 6.265743
v 100.387047 -1.696764 5.816916
v 97.876213 -1.696764 5.816916
v 107.919525 -1.696763 -4.366974
v 110.430405 -1.696763 -4.366974
v 110.430405 -1.696762 -4.815807
v 107.919571 -1.696762 -4.815807
v 102.897858 -1.696769 6.265743
v 105.408691 -1.696769 6.265743
v 105.408691 -1.696763 5.816916
v 102.897881 -1.696763 5.816916
v 107.919525 -1.696769 6.265743
v 110.430374 -1.696769 6.265743
v 110.430374 -1.696763 5.816916
v 107.919525 -1.696763 5.816916
v 112.941193 -1.696762 -4.366974
v 115.452072 -1.696762 -4.366974
v 115.452072 -1.696762 -4.815807
v 112.941238 -1.696762 -4.815807
v 112.941193 -1.696769 6.265743
v 115.452042 -1.696769 6.265743
v 115.452042 -1.696761 5.816916
v 112.941193 -1.696761 5.816916
v 117.962860 -1.696769 6.265743
v 120.473679 -1.696769 6.265743
v 120.473679 -1.696761 5.816916
v 117.962860 -1.696761 5.816916
v 122.984528 -1.696761 5.816916
v 117.962860 -1.696762 -4.366974
v 117.962906 -1.696761 -4.815807
v 95.365372 -1.696769 6.265744
v 95.365372 -1.696764 5.816916
v -27.665398 -1.696772 -4.366974
v -25.154514 -1.696772 -4.366974
v -25.154514 -1.696771 -4.815807
v -27.665348 -1.696772 -4.815807
v -27.665398 -1.696776 6.265744
v -25.154577 -1.696776 6.265744
v -25.154577 -1.696772 5.816916
v -27.665398 -1.696772 5.816916
v -22.643730 -1.696776 6.265743
v -20.132923 -1.696776 6.265743
v -20.132923 -1.696771 5.816916
v -22.643744 -1.696772 5.816916
v -12.600421 -1.696771 -4.366974
v -10.089537 -1.696770 -4.366974
v -10.089537 -1.696770 -4.815807
v -12.600371 -1.696770 -4.815807
v -17.622089 -1.696776 6.265743
v -15.111267 -1.696776 6.265743
v -15.111255 -1.696771 5.816916
v -17.622076 -1.696771 5.816916
v 2.464570 -1.696776 6.265741
v 4.975379 -1.696776 6.265741
v 4.975390 -1.696769 5.816916
v 2.464582 -1.696769 5.816916
v 7.486224 -1.696776 6.265741
v 9.997046 -1.696776 6.265741
v 9.997046 -1.696768 5.816916
v 7.486224 -1.696769 5.816916
v -7.578753 -1.696770 -4.366974
v -5.067870 -1.696770 -4.366974
v -5.067870 -1.696769 -4.815807
v -7.578703 -1.696770 -4.815807
v -2.557085 -1.696776 6.265743
v -0.046264 -1.696776 6.265743
v -0.046264 -1.696769 5.816916
v -2.557085 -1.696769 5.816916
v 12.507892 -1.696776 6.265741
v 12.507892 -1.696768 5.816916
v -2.557085 -1.696770 -4.366974
v -2.557035 -1.696769 -4.815807
v -12.600421 -1.696776 6.265743
v -12.600421 -1.696771 5.816916
v -15.111193 -1.696771 -4.366974
v -15.111193 -1.696770 -4.815807
v 122.984528 -1.696761 -4.366974
v 125.495399 -1.696761 -4.366975
v 125.495399 -1.696761 -4.815807
v 122.984573 -1.696761 -4.815807
v 122.984528 -1.696769 6.265741
v 125.495338 -1.696769 6.265741
v 125.495338 -1.696761 5.816916
v -22.643744 -1.696772 -4.366974
v -20.132860 -1.696771 -4.366974
v -20.132860 -1.696771 -4.815807
v -22.643681 -1.696771 -4.815807
v -17.622076 -1.696771 -4.366974
v -15.111193 -1.696771 -4.366974
v -15.111193 -1.696770 -4.815807
v -17.622026 -1.696771 -4.815807
v -12.600421 -1.696776 6.265743
v -10.089600 -1.696776 6.265743
v -10.089600 -1.696769 5.816916
v -12.600421 -1.696771 5.816916
v 2.464582 -1.696769 -4.366974
v 4.975453 -1.696769 -4.366975
v 4.975453 -1.696768 -4.815808
v 2.464632 -1.696769 -4.815807
v 7.486224 -1.696769 -4.366975
v 9.997109 -1.696768 -4.366975
v 9.997109 -1.696768 -4.815808
v 7.486274 -1.696768 -4.815808
v -2.557085 -1.696770 -4.366974
v -0.046202 -1.696769 -4.366974
v -0.046202 -1.696769 -4.815807
v -2.557035 -1.696769 -4.815807
v -7.578753 -1.696776 6.265743
v -5.067932 -1.696776 6.265743
v -5.067932 -1.696769 5.816916
v -7.578753 -1.696769 5.816916
v 12.507892 -1.696768 -4.366975
v 12.507943 -1.696768 -4.815808
v -2.557085 -1.696776 6.265743
v -2.557085 -1.696769 5.816916
v -25.154514 -1.696772 -4.366974
v -25.154514 -1.696771 -4.815807
v 128.006165 -1.696761 -4.366975
v 130.517059 -1.696761 -4.366975
v 130.517059 -1.696760 -4.815808
v 128.006226 -1.696761 -4.815808
v 128.006165 -1.696769 6.265741
v 130.517014 -1.696769 6.265741
v 130.517014 -1.696761 5.816916
v 128.006165 -1.696761 5.816916
v 133.027832 -1.696769 6.265741
v 133.027832 -1.696760 5.816916
v 133.027832 -1.696760 -4.366975
v 133.027893 -1.696760 -4.815808
v 125.495338 -1.696769 6.265741
v 125.495338 -1.696761 5.816916
v 125.495399 -1.696761 -4.366975
v 125.495399 -1.696761 -4.815807
v 220.839462 22.077883 -630.023499
v 270.686340 24.981316 -653.267456
v 263.694641 24.827423 -662.345947
v 227.442337 22.729591 -645.441223
vn 0.0536 0.9976 0.0428
vn 0.0542 0.9977 0.0418
vn 0.0530 0.9976 0.0438
vn 0.0745 0.9956 0.0572
vn -0.0083 1.0000 0.0042
vn -0.0079 1.0000 0.0045
vn -0.0081 1.0000 0.0043
vn -0.0085 1.0000 0.0040
vn -0.0067 1.0000 0.0038
vn -0.0068 1.0000 0.0037
vn -0.0077 1.0000 0.0046
vn -0.0075 1.0000 0.0047
vn -0.0000 1.0000 -0.0000
vn -0.0021 1.0000 -0.0013
vn -0.0022 1.0000 -0.0006
vn 0.0103 0.9999 0.0067
vn 0.0096 0.9999 0.0069
vn 0.0110 0.9999 0.0065
vn -0.0066 1.0000 -0.0019
vn -0.0088 1.0000 -0.0013
vn -0.0020 1.0000 0.0008
vn -0.0028 1.0000 0.0010
vn -0.0011 1.0000 0.0005
vn -0.0050 1.0000 0.0007
vn -0.0057 1.0000 0.0008
vn -0.0044 1.0000 0.0005
vn 0.0191 0.9998 -0.0000
vn 0.0193 0.9998 -0.0000
vn 0.0183 0.9998 -0.0000
vn 0.0187 0.9998 -0.0000
vn 0.0180 0.9998 -0.0000
vn -0.0479 0.9986 0.0214
vn -0.0486 0.9986 0.0205
vn -0.0485 0.9986 0.0207
vn -0.0476 0.9986 0.0218
vt 0.625375 1.500000
vt 0.750249 1.500000
vt 0.750249 1.720367
vt 0.625376 1.720367
vt 1.874125 1.002117
vt 1.998999 1.002116
vt 1.998999 1.059265
vt 1.874124 1.059265
vt 1.998999 1.279632
vt 1.874125 1.279632
vt 1.998999 1.499999
vt 1.874125 1.499999
vt 1.998999 1.720366
vt 1.874126 1.720366
vt 1.998999 1.940733
vt 1.874126 1.940733
vt 1.999001 1.997882
vt 1.874127 1.997882
vt 1.499500 1.279633
vt 1.624374 1.279632
vt 1.624375 1.500000
vt 1.499500 1.500000
vt 1.749249 1.499999
vt 1.749249 1.279632
vt 1.874126 1.997882
vt 1.749252 1.997883
vt 1.749249 1.940733
vt 1.499499 1.059265
vt 1.624373 1.059265
vt 1.749249 1.720366
vt 1.874125 1.720366
vt 0.999999 1.279633
vt 1.124874 1.279633
vt 1.124875 1.500000
vt 0.999999 1.500000
vt 1.624376 1.940734
vt 1.499500 1.940734
vt 1.624377 1.997883
vt 1.499502 1.997883
vt 0.000999 1.940735
vt 0.125877 1.940734
vt 0.125877 1.997883
vt 0.001002 1.997884
vt 0.250749 1.940734
vt 0.375627 1.940734
vt 0.375627 1.997883
vt 0.250752 1.997883
vt 0.250749 1.002117
vt 0.375625 1.002117
vt 0.375624 1.059266
vt 0.250749 1.059266
vt 0.750249 1.940734
vt 0.875127 1.940734
vt 0.875127 1.997883
vt 0.750252 1.997883
vt 0.500500 1.002117
vt 0.625374 1.002117
vt 0.625373 1.059266
vt 0.500499 1.059266
vt 0.750249 1.002117
vt 0.875125 1.002117
vt 0.875124 1.059266
vt 0.750249 1.059266
vt 0.999999 1.940734
vt 1.124877 1.940734
vt 1.124877 1.997883
vt 1.000002 1.997883
vt 1.000000 1.002117
vt 1.124875 1.002117
vt 1.124875 1.059265
vt 0.999999 1.059265
vt 1.249749 1.002117
vt 1.374624 1.002117
vt 1.374624 1.059265
vt 1.249749 1.059265
vt 1.499499 1.002117
vt 1.249749 1.940734
vt 1.249752 1.997883
vt 0.125874 1.002117
vt 0.125874 1.059266
vt 0.000999 1.002118
vt 0.000999 1.059266
vt 0.375624 1.002117
vt 0.875126 1.940734
vt 1.624373 1.002117
vt 1.749249 1.002117
vt 1.874124 1.002117
vt 1.874123 1.059265
vt 1.749249 1.059265
vt 1.124876 1.940734
vt 0.625377 1.940734
vt 0.625377 1.997883
vt 1.624374 1.002117
vt 0.375626 1.940734
vt 0.375626 1.997883
vt 0.500499 1.940734
vt 0.500502 1.997883
vt 0.875124 1.002117
vt 1.624377 1.940734
vt 1.374627 1.940734
vt 1.374627 1.997883
vt 1.124874 1.002117
vt 1.124874 1.059265
s 1
usemtl RDAXB.005
f 1/1/1 2/2/2 3/3/1
f 1/1/1 3/3/1 4/4/3
f 5/5/4 6/6/4 7/7/4
f 7/7/4 8/8/4 5/5/4
f 8/8/4 7/7/4 9/9/4
f 8/8/4 9/9/4 10/10/4
f 10/10/4 9/9/4 11/11/4
f 10/10/4 11/11/4 12/12/4
f 12/12/4 11/11/4 13/13/4
f 12/12/4 13/13/4 14/14/4
f 14/14/4 13/13/4 15/15/4
f 15/15/4 16/16/4 14/14/4
f 16/16/4 15/15/4 17/17/4
f 17/17/4 18/18/4 16/16/4
f 19/19/5 20/20/6 21/21/7
f 21/21/7 22/22/8 19/19/5
f 23/9/9 24/10/9 25/8/9
f 25/8/9 26/7/10 23/9/9
f 27/23/11 21/21/7 20/20/6
f 20/20/6 28/24/12 27/23/11
f 29/25/13 30/26/13 31/27/14
f 31/27/14 32/16/15 29/25/13
f 33/20/16 34/19/17 35/28/16
f 35/28/16 36/29/18 33/20/16
f 37/30/19 38/31/20 32/16/15
f 32/16/15 31/27/14 37/30/19
f 39/32/21 40/33/22 41/34/21
f 41/34/21 42/35/23 39/32/21
f 43/13/24 38/31/25 44/12/24
f 44/12/24 45/11/26 43/13/24
f 46/17/13 29/25/13 32/16/15
f 32/16/15 47/15/13 46/17/13
f 48/36/27 49/37/28 50/38/27
f 51/39/28 50/38/27 49/37/28
f 52/16/29 53/27/30 54/18/29
f 55/26/30 54/18/29 53/27/30
f 56/15/31 52/16/29 57/17/31
f 54/18/29 57/17/31 52/16/29
f 53/27/30 48/36/27 55/26/30
f 50/38/27 55/26/30 48/36/27
f 58/40/13 59/41/13 60/42/13
f 60/42/13 61/43/13 58/40/13
f 62/44/13 63/45/13 64/46/13
f 64/46/13 65/47/13 62/44/13
f 66/48/13 67/49/13 68/50/13
f 68/50/13 69/51/13 66/48/13
f 70/52/13 71/53/13 72/54/13
f 72/54/13 73/55/13 70/52/13
f 74/56/13 75/57/13 76/58/13
f 76/58/13 77/59/13 74/56/13
f 78/60/13 79/61/13 80/62/13
f 80/62/13 81/63/13 78/60/13
f 82/64/13 83/65/13 84/66/13
f 84/66/13 85/67/13 82/64/13
f 86/68/13 87/69/13 88/70/13
f 88/70/13 89/71/13 86/68/13
f 90/72/13 91/73/13 92/74/13
f 92/74/13 93/75/13 90/72/13
f 91/73/13 147/76/13 94/28/13
f 94/28/13 92/74/13 91/73/13
f 87/69/13 90/72/13 93/75/13
f 93/75/13 88/70/13 87/69/13
f 83/65/13 95/77/13 96/78/13
f 96/78/13 84/66/13 83/65/13
f 79/61/13 86/68/13 89/71/13
f 89/71/13 80/62/13 79/61/13
f 71/53/13 82/64/13 85/67/13
f 85/67/13 72/54/13 71/53/13
f 75/57/13 78/60/13 81/63/13
f 81/63/13 76/58/13 75/57/13
f 67/49/13 74/56/13 77/59/13
f 77/59/13 68/50/13 67/49/13
f 97/79/13 66/48/13 69/51/13
f 69/51/13 98/80/13 97/79/13
f 59/41/13 62/44/13 65/47/13
f 65/47/13 60/42/13 59/41/13
f 99/40/13 100/41/13 101/42/13
f 101/42/13 102/43/13 99/40/13
f 103/81/13 104/79/13 105/80/13
f 105/80/13 106/82/13 103/81/13
f 107/48/13 108/83/13 109/50/13
f 109/50/13 110/51/13 107/48/13
f 111/52/13 112/84/13 113/54/13
f 113/54/13 114/55/13 111/52/13
f 115/56/13 116/57/13 117/58/13
f 117/58/13 118/59/13 115/56/13
f 119/76/13 120/85/13 121/29/13
f 121/29/13 122/28/13 119/76/13
f 123/86/13 124/87/13 125/88/13
f 125/88/13 126/89/13 123/86/13
f 127/64/13 128/90/13 129/66/13
f 129/66/13 130/67/13 127/64/13
f 131/72/13 132/73/13 133/74/13
f 133/74/13 134/75/13 131/72/13
f 124/87/13 135/6/13 136/7/13
f 136/7/13 125/88/13 124/87/13
f 120/85/13 123/86/13 126/89/13
f 126/89/13 121/29/13 120/85/13
f 132/73/13 119/76/13 122/28/13
f 122/28/13 133/74/13 132/73/13
f 128/90/13 137/77/13 138/78/13
f 138/78/13 129/66/13 128/90/13
f 112/84/13 127/64/13 130/67/13
f 130/67/13 113/54/13 112/84/13
f 116/57/13 139/60/13 140/63/13
f 140/63/13 117/58/13 116/57/13
f 141/91/13 111/52/13 114/55/13
f 114/55/13 142/92/13 141/91/13
f 108/83/13 115/56/13 118/59/13
f 118/59/13 109/50/13 108/83/13
f 104/79/13 107/48/13 110/51/13
f 110/51/13 105/80/13 104/79/13
f 143/37/13 144/36/13 145/38/13
f 145/38/13 146/39/13 143/37/13
f 147/76/13 148/93/13 149/29/13
f 149/29/13 94/28/13 147/76/13
f 150/44/13 151/94/13 152/95/13
f 152/95/13 153/47/13 150/44/13
f 154/96/13 155/91/13 156/92/13
f 156/92/13 157/97/13 154/96/13
f 158/60/13 159/98/13 160/62/13
f 160/62/13 161/63/13 158/60/13
f 162/37/13 163/99/13 164/38/13
f 164/38/13 165/39/13 162/37/13
f 166/27/13 167/16/13 168/25/13
f 168/25/13 169/26/13 166/27/13
f 170/77/13 171/100/13 172/101/13
f 172/101/13 173/78/13 170/77/13
f 174/68/13 175/102/13 176/103/13
f 176/103/13 177/71/13 174/68/13
f 167/16/13 178/15/13 179/17/13
f 179/17/13 168/25/13 167/16/13
f 163/99/13 166/27/13 169/26/13
f 169/26/13 164/38/13 163/99/13
f 171/100/13 162/37/13 165/39/13
f 165/39/13 172/101/13 171/100/13
f 175/102/13 180/72/13 181/75/13
f 181/75/13 176/103/13 175/102/13
f 159/98/13 174/68/13 177/71/13
f 177/71/13 160/62/13 159/98/13
f 151/94/13 154/96/13 157/97/13
f 157/97/13 152/95/13 151/94/13
f 182/41/13 150/44/13 153/47/13
f 153/47/13 183/42/13 182/41/13
f 184/27/13 185/16/13 186/18/13
f 186/18/13 187/26/13 184/27/13
f 188/86/13 189/5/13 190/8/13
f 190/8/13 191/89/13 188/86/13
f 189/5/13 192/6/13 193/7/13
f 193/7/13 190/8/13 189/5/13
f 185/16/13 194/15/13 195/17/13
f 195/17/13 186/18/13 185/16/13
f 196/93/13 188/86/13 191/89/13
f 191/89/13 197/29/13 196/93/13
f 198/36/13 184/27/13 187/26/13
f 187/26/13 199/38/13 198/36/13
f 200/26/32 201/42/33 202/81/34
f 202/81/34 203/6/35 200/26/32
