# Blender 4.4.3
# www.blender.org
mtllib ROADGFLOOR.mtl
o ROADGFLOOR
v 103.453697 -1.667713 -27.604073
v 94.566383 -1.667713 -27.604074
v 103.453697 -1.667713 -20.148693
v 94.566383 -1.667713 -20.148695
v 113.267143 -1.667713 -27.604071
v 104.379845 -1.667713 -27.604073
v 113.267143 -1.667713 -20.148693
v 104.379829 -1.667713 -20.148693
v 123.080322 -1.667713 -27.604071
v 114.193016 -1.667713 -27.604071
v 123.080322 -1.667713 -20.148689
v 114.193016 -1.667713 -20.148693
v 67.866570 -1.667713 -27.604073
v 58.979263 -1.667713 -27.604074
v 67.866570 -1.667713 -20.148693
v 58.979263 -1.667713 -20.148695
v 77.680016 -1.667713 -27.604071
v 68.792709 -1.667713 -27.604073
v 77.680016 -1.667713 -20.148693
v 68.792709 -1.667713 -20.148693
v 87.493202 -1.667713 -27.604071
v 78.605888 -1.667713 -27.604071
v 87.493202 -1.667713 -20.148689
v 78.605888 -1.667713 -20.148693
v 38.423195 -1.667713 -27.604073
v 29.535885 -1.667713 -27.604073
v 38.423195 -1.667713 -20.148693
v 29.535885 -1.667713 -20.148693
v 48.236641 -1.667713 -27.604069
v 39.349342 -1.667713 -27.604073
v 48.236641 -1.667713 -20.148691
v 39.349331 -1.667713 -20.148693
v 58.049828 -1.667713 -27.604069
v 49.162514 -1.667713 -27.604069
v 58.049828 -1.667713 -20.148689
v 49.162514 -1.667713 -20.148691
v 22.970474 -1.667713 -27.604069
v 14.083162 -1.667713 -27.604069
v 22.970474 -1.667713 -20.148689
v 14.083162 -1.667713 -20.148691
v 3.343844 -1.667713 -27.604073
v -5.543468 -1.667713 -27.604073
v 3.343844 -1.667713 -20.148693
v -5.543468 -1.667713 -20.148695
v 13.157290 -1.667713 -27.604073
v 4.269990 -1.667713 -27.604073
v 13.157290 -1.667713 -20.148693
v 4.269979 -1.667713 -20.148693
v -26.099558 -1.667713 -27.604073
v -34.986870 -1.667713 -27.604073
v -26.099558 -1.667713 -20.148693
v -34.986870 -1.667713 -20.148695
v -16.286112 -1.667713 -27.604073
v -25.173412 -1.667713 -27.604073
v -16.286112 -1.667713 -20.148693
v -25.173424 -1.667713 -20.148693
v -6.472928 -1.667713 -27.604073
v -15.360239 -1.667713 -27.604073
v -6.472928 -1.667713 -20.148689
v -15.360239 -1.667713 -20.148693
v 132.897079 -1.667713 -27.604073
v 124.009766 -1.667713 -27.604074
v 132.897079 -1.667713 -20.148693
v 124.009766 -1.667713 -20.148695
v 142.710526 -1.667713 -27.604071
v 133.823227 -1.667713 -27.604073
v 142.710526 -1.667713 -20.148693
v 133.823212 -1.667713 -20.148693
v 152.523712 -1.667713 -27.604071
v 143.636398 -1.667713 -27.604071
v 152.523712 -1.667713 -20.148689
v 143.636398 -1.667713 -20.148693
vn -0.0000 1.0000 -0.0000
vt 0.001000 3.998501
vt 0.000999 1.001499
vt 1.999001 3.998501
vt 1.999000 1.001499
s 1
usemtl ROADGFLOOR
f 1/1/1 2/2/1 3/3/1
f 4/4/1 3/3/1 2/2/1
f 5/1/1 6/2/1 7/3/1
f 8/4/1 7/3/1 6/2/1
f 9/1/1 10/2/1 11/3/1
f 12/4/1 11/3/1 10/2/1
f 13/1/1 14/2/1 15/3/1
f 16/4/1 15/3/1 14/2/1
f 17/1/1 18/2/1 19/3/1
f 20/4/1 19/3/1 18/2/1
f 21/1/1 22/2/1 23/3/1
f 24/4/1 23/3/1 22/2/1
f 25/1/1 26/2/1 27/3/1
f 28/4/1 27/3/1 26/2/1
f 29/1/1 30/2/1 31/3/1
f 32/4/1 31/3/1 30/2/1
f 33/1/1 34/2/1 35/3/1
f 36/4/1 35/3/1 34/2/1
f 37/1/1 38/2/1 39/3/1
f 40/4/1 39/3/1 38/2/1
f 41/1/1 42/2/1 43/3/1
f 44/4/1 43/3/1 42/2/1
f 45/1/1 46/2/1 47/3/1
f 48/4/1 47/3/1 46/2/1
f 49/1/1 50/2/1 51/3/1
f 52/4/1 51/3/1 50/2/1
f 53/1/1 54/2/1 55/3/1
f 56/4/1 55/3/1 54/2/1
f 57/1/1 58/2/1 59/3/1
f 60/4/1 59/3/1 58/2/1
f 61/1/1 62/2/1 63/3/1
f 64/4/1 63/3/1 62/2/1
f 65/1/1 66/2/1 67/3/1
f 68/4/1 67/3/1 66/2/1
f 69/1/1 70/2/1 71/3/1
f 72/4/1 71/3/1 70/2/1
