# Blender 4.4.3
# www.blender.org
mtllib ROADPIT.mtl
o ROADPIT
v 60.213753 -1.667723 -11.600582
v 62.724586 -1.667723 -11.600582
v 62.724586 -1.667723 -14.990223
v 62.724586 -1.667723 -18.379860
v 60.213753 -1.667723 -18.379860
v 60.213753 -1.667723 -14.990223
v 65.235413 -1.667723 -11.600582
v 67.746239 -1.667723 -11.600582
v 67.746239 -1.667723 -14.990223
v 67.746239 -1.667723 -18.379860
v 65.235413 -1.667723 -18.379860
v 65.235413 -1.667723 -14.990223
v 70.257072 -1.667722 -11.600582
v 72.767906 -1.667722 -11.600582
v 72.767906 -1.667722 -14.990223
v 72.767906 -1.667722 -18.379860
v 70.257072 -1.667722 -18.379860
v 70.257072 -1.667722 -14.990223
v 85.322060 -1.667721 -11.600584
v 87.832878 -1.667721 -11.600584
v 87.832878 -1.667721 -14.990223
v 87.832878 -1.667721 -18.379862
v 85.322060 -1.667721 -18.379860
v 85.322060 -1.667721 -14.990223
v 75.278732 -1.667722 -11.600582
v 77.789566 -1.667722 -11.600582
v 77.789566 -1.667722 -14.990223
v 77.789566 -1.667722 -18.379860
v 75.278732 -1.667722 -18.379860
v 75.278732 -1.667722 -14.990223
v 80.300400 -1.667721 -11.600584
v 82.811234 -1.667721 -11.600584
v 82.811234 -1.667721 -14.990223
v 82.811234 -1.667721 -18.379860
v 80.300400 -1.667721 -18.379860
v 80.300400 -1.667721 -14.990223
v 95.365379 -1.667720 -11.600584
v 97.876213 -1.667720 -11.600584
v 97.876205 -1.667720 -14.990223
v 97.876205 -1.667720 -18.379862
v 95.365372 -1.667720 -18.379862
v 95.365379 -1.667720 -14.990223
v 100.387039 -1.674688 -11.600584
v 102.897873 -1.674688 -11.600584
v 102.897858 -1.674688 -14.990223
v 102.897858 -1.674688 -18.379862
v 100.387024 -1.674688 -18.379862
v 100.387039 -1.674688 -14.990223
v 105.408691 -1.674687 -11.600584
v 107.919510 -1.674687 -11.600584
v 107.919510 -1.674687 -14.990223
v 107.919510 -1.674687 -18.379862
v 105.408691 -1.674687 -18.379862
v 105.408691 -1.674687 -14.990223
v 110.430344 -1.674687 -11.600584
v 112.941177 -1.674687 -11.600584
v 112.941177 -1.674687 -14.990223
v 112.941177 -1.674687 -18.379862
v 110.430344 -1.674687 -18.379862
v 110.430344 -1.674687 -14.990223
v 115.452011 -1.674686 -11.600584
v 117.962845 -1.674686 -11.600584
v 117.962845 -1.674686 -14.990223
v 117.962845 -1.674686 -18.379862
v 115.452011 -1.674686 -18.379862
v 115.452011 -1.674686 -14.990223
v 120.473679 -1.674686 -11.600584
v 122.984512 -1.674686 -11.600584
v 122.984512 -1.674686 -18.379862
v 120.473679 -1.674686 -18.379862
v 120.473679 -1.674686 -14.990223
v 57.702919 -1.667724 -18.379860
v 57.702919 -1.667724 -14.990223
v 57.702919 -1.667723 -11.600582
v 55.192089 -1.667724 -11.600582
v 55.192089 -1.667724 -18.379860
v 55.192089 -1.667724 -14.990223
v 52.681293 -1.667722 -18.379864
v 52.681293 -1.667722 -14.990224
v 52.681293 -1.667722 -11.600584
v 30.083828 -1.667722 -11.601239
v 32.594662 -1.667722 -11.601239
v 32.594673 -1.667722 -14.994526
v 32.594673 -1.667722 -18.384163
v 30.083839 -1.667722 -18.384163
v 30.083839 -1.667722 -14.994526
v 45.148819 -1.667721 -11.601240
v 47.659626 -1.667720 -11.601240
v 47.659626 -1.667720 -14.994526
v 47.659615 -1.667720 -18.384163
v 45.148819 -1.667721 -18.384163
v 45.148830 -1.667721 -14.994526
v 50.170498 -1.667720 -11.600584
v 50.170498 -1.667720 -14.990224
v 50.170486 -1.667720 -18.379864
v 35.105495 -1.667722 -11.601239
v 37.616329 -1.667721 -11.601239
v 37.616329 -1.667721 -14.994526
v 37.616329 -1.667721 -18.384163
v 35.105484 -1.667722 -18.384163
v 35.105507 -1.667722 -14.994526
v 40.127163 -1.667721 -11.601239
v 42.637985 -1.667721 -11.601240
v 42.637997 -1.667721 -14.994526
v 42.637997 -1.667721 -18.384163
v 40.127151 -1.667721 -18.384163
v 40.127174 -1.667721 -14.994526
v 15.018850 -1.667724 -11.600582
v 17.529671 -1.667723 -11.600582
v 17.529671 -1.667723 -14.990224
v 17.529671 -1.667723 -18.379862
v 15.018850 -1.667724 -18.379862
v 15.018850 -1.667724 -14.990224
v 20.040504 -1.667723 -11.600582
v 22.551338 -1.667723 -11.600582
v 22.551338 -1.667723 -14.990224
v 22.551338 -1.667723 -18.379862
v 20.040504 -1.667723 -18.379862
v 20.040504 -1.667723 -14.990224
v 12.508028 -1.667724 -14.990224
v -35.197750 -1.667729 -11.600584
v -32.686928 -1.667728 -11.600584
v -32.686928 -1.667728 -14.990223
v -32.686928 -1.667728 -18.379862
v -35.197750 -1.667729 -18.379860
v -35.197750 -1.667729 -14.990223
v -30.176094 -1.667728 -11.600584
v -27.665260 -1.667728 -11.600584
v -27.665260 -1.667728 -14.990223
v -27.665260 -1.667728 -18.379862
v -30.176094 -1.667728 -18.379862
v -30.176094 -1.667728 -14.990223
v -25.154427 -1.667728 -11.600584
v -22.643593 -1.667727 -11.600584
v -22.643606 -1.667727 -14.990223
v -22.643606 -1.667727 -18.379862
v -25.154440 -1.667728 -18.379862
v -25.154427 -1.667728 -14.990223
v -20.132759 -1.667727 -11.600584
v -17.621925 -1.667727 -11.600584
v -17.621939 -1.667727 -14.990223
v -17.621939 -1.667727 -18.379862
v -20.132772 -1.667727 -18.379862
v -20.132759 -1.667727 -14.990223
v -15.111105 -1.667727 -11.600584
v -12.600284 -1.667726 -11.600584
v -12.600284 -1.667726 -14.990223
v -12.600284 -1.667726 -18.379862
v -15.111105 -1.667727 -18.379862
v -15.111105 -1.667727 -14.990223
v -10.089450 -1.667726 -11.600584
v -7.578616 -1.667726 -11.600584
v -7.578616 -1.667726 -14.990223
v -7.578616 -1.667726 -18.379862
v -10.089450 -1.667726 -18.379862
v -10.089450 -1.667726 -14.990223
v -5.067782 -1.667726 -18.379862
v -5.067782 -1.667726 -14.990225
v -5.067782 -1.667726 -11.600584
v 4.975541 -1.667725 -11.600584
v 7.486362 -1.667724 -11.600584
v 7.486362 -1.667725 -14.990225
v 7.486362 -1.667725 -18.379864
v 4.975541 -1.667725 -18.379864
v 4.975541 -1.667725 -14.990225
v 9.997195 -1.667724 -11.600584
v 12.508029 -1.667724 -11.600584
v 12.508029 -1.667724 -18.379864
v 9.997195 -1.667724 -18.379864
v 9.997195 -1.667724 -14.990225
v -2.556949 -1.667725 -11.600584
v -2.556949 -1.667725 -14.990225
v -2.556949 -1.667725 -18.379862
v -0.046115 -1.667725 -11.600584
v 2.464719 -1.667725 -11.600584
v 2.464719 -1.667725 -14.990225
v 2.464719 -1.667725 -18.379862
v -0.046115 -1.667725 -18.379862
v -0.046115 -1.667725 -14.990225
v 125.495346 -1.667717 -11.600584
v 128.006165 -1.667717 -11.600584
v 128.006165 -1.667717 -14.990223
v 128.006165 -1.667717 -18.379864
v 125.495346 -1.667717 -18.379864
v 125.495346 -1.667717 -14.990223
v 130.516998 -1.667717 -11.600584
v 133.027832 -1.667716 -11.600584
v 133.027832 -1.667716 -14.990223
v 133.027832 -1.667716 -18.379864
v 130.516998 -1.667717 -18.379864
v 130.516998 -1.667717 -14.990223
v 135.538666 -1.667716 -11.600584
v 138.049484 -1.667716 -11.600584
v 138.049484 -1.667716 -14.990225
v 138.049484 -1.667716 -18.379864
v 135.538666 -1.667716 -18.379864
v 135.538666 -1.667716 -14.990225
v 140.560318 -1.667715 -11.600584
v 143.071152 -1.667715 -11.600584
v 143.071152 -1.667715 -14.990225
v 143.071152 -1.667715 -18.379864
v 140.560318 -1.667716 -18.379864
v 140.560318 -1.667716 -14.990225
v 145.581985 -1.667715 -11.600584
v 148.092819 -1.667715 -11.600584
v 148.092819 -1.667715 -14.990225
v 148.092819 -1.667715 -18.379864
v 145.581985 -1.667715 -18.379864
v 145.581985 -1.667715 -14.990225
v 150.603653 -1.667715 -11.600584
v 153.114487 -1.667714 -11.600584
v 153.114487 -1.667714 -14.990225
v 153.114487 -1.667714 -18.379864
v 150.603653 -1.667715 -18.379864
v 150.603653 -1.667715 -14.990225
v 122.984512 -1.674686 -14.990223
vn -0.0000 1.0000 -0.0000
vn 0.0014 1.0000 -0.0000
vn -0.0027 1.0000 -0.0000
vn -0.0014 1.0000 -0.0000
vt 0.157416 1.063007
vt 0.234350 1.063007
vt 0.234350 1.501871
vt 0.234350 1.940734
vt 0.157416 1.940734
vt 0.157416 1.501871
vt 0.311284 1.063007
vt 0.388218 1.063007
vt 0.388218 1.501871
vt 0.388218 1.940734
vt 0.311284 1.940734
vt 0.311284 1.501871
vt 0.465153 1.063007
vt 0.542087 1.063007
vt 0.542087 1.501870
vt 0.542087 1.940734
vt 0.465153 1.940734
vt 0.465153 1.501871
vt 0.926759 1.063007
vt 1.003693 1.063006
vt 1.003693 1.501870
vt 1.003693 1.940733
vt 0.926759 1.940734
vt 0.926759 1.501870
vt 0.619021 1.063007
vt 0.695956 1.063007
vt 0.695956 1.501870
vt 0.695956 1.940734
vt 0.619021 1.940734
vt 0.619021 1.501870
vt 0.772890 1.063007
vt 0.849825 1.063007
vt 0.849825 1.501870
vt 0.849825 1.940734
vt 0.772890 1.940734
vt 0.772890 1.501870
vt 0.113442 1.059266
vt 0.197476 1.059266
vt 0.197476 1.495324
vt 0.197476 1.931381
vt 0.113442 1.931382
vt 0.113442 1.495324
vt 0.281510 1.059266
vt 0.365544 1.059266
vt 0.365544 1.495324
vt 0.365544 1.931381
vt 0.281510 1.931381
vt 0.281510 1.495324
vt 0.449578 1.059266
vt 0.533612 1.059266
vt 0.533612 1.495324
vt 0.533612 1.931381
vt 0.449578 1.931381
vt 0.449578 1.495324
vt 0.617646 1.059266
vt 0.701680 1.059265
vt 0.701680 1.495323
vt 0.701680 1.931381
vt 0.617646 1.931381
vt 0.617646 1.495323
vt 0.785714 1.059265
vt 0.869748 1.059265
vt 0.869748 1.495323
vt 0.869748 1.931381
vt 0.785714 1.931381
vt 0.785714 1.495323
vt 0.953782 1.059265
vt 1.037816 1.059265
vt 1.037816 1.495323
vt 1.037816 1.931381
vt 0.953782 1.931381
vt 0.953782 1.495323
vt 0.080481 1.940734
vt 0.080481 1.501871
vt 0.080481 1.063007
vt 0.955418 1.064433
vt 1.041004 1.064433
vt 1.041004 1.503238
vt 1.041004 1.942044
vt 0.955418 1.942044
vt 0.955418 1.503238
vt 0.869832 1.942044
vt 0.869832 1.503238
vt 0.869832 1.064433
vt 0.099684 1.060762
vt 0.185270 1.060762
vt 0.185270 1.499568
vt 0.185270 1.938373
vt 0.099684 1.938373
vt 0.099684 1.499568
vt 0.613201 1.060762
vt 0.698787 1.060762
vt 0.698787 1.499567
vt 0.698787 1.938373
vt 0.613201 1.938373
vt 0.613201 1.499567
vt 0.784373 1.060762
vt 0.784374 1.499567
vt 0.784373 1.938373
vt 0.270856 1.060762
vt 0.356443 1.060762
vt 0.356443 1.499568
vt 0.356443 1.938373
vt 0.270856 1.938373
vt 0.270856 1.499568
vt 0.442029 1.060762
vt 0.527615 1.060762
vt 0.527615 1.499567
vt 0.527615 1.938373
vt 0.442029 1.938373
vt 0.442029 1.499568
vt 0.869959 1.060761
vt 0.869960 1.499567
vt 0.869960 1.938372
vt 0.792220 1.053056
vt 0.880349 1.053056
vt 0.880349 1.495343
vt 0.880350 1.937629
vt 0.792220 1.937629
vt 0.792220 1.495343
vt 0.968479 1.053056
vt 1.056610 1.053056
vt 1.056610 1.495342
vt 1.056610 1.937629
vt 0.968480 1.937629
vt 0.968480 1.495343
vt 0.704090 1.937629
vt 0.704090 1.495343
vt 0.704090 1.053056
vt -0.955864 1.058112
vt -0.871729 1.058112
vt -0.871729 1.500358
vt -0.871729 1.942604
vt -0.955864 1.942604
vt -0.955864 1.500358
vt -0.787594 1.058112
vt -0.703459 1.058112
vt -0.703458 1.500358
vt -0.703458 1.942604
vt -0.787594 1.942604
vt -0.787594 1.500358
vt -0.616967 1.056236
vt -0.532832 1.056236
vt -0.532832 1.498482
vt -0.532832 1.940728
vt -0.616967 1.940728
vt -0.616967 1.498482
vt -0.448697 1.056236
vt -0.364562 1.056236
vt -0.364562 1.498482
vt -0.364561 1.940728
vt -0.448697 1.940728
vt -0.448697 1.498482
vt -0.280426 1.056235
vt -0.196291 1.056235
vt -0.196291 1.498482
vt -0.196291 1.940728
vt -0.280426 1.940728
vt -0.280426 1.498482
vt -0.112156 1.056235
vt -0.028021 1.056235
vt -0.028021 1.498481
vt -0.028021 1.940727
vt -0.112156 1.940727
vt -0.112156 1.498482
vt 0.056115 1.940727
vt 0.056114 1.498481
vt 0.056114 1.056235
vt -0.701102 1.940728
vt -0.701102 1.498482
vt -0.701102 1.056236
vt 0.439872 1.053055
vt 0.528002 1.053055
vt 0.528002 1.495342
vt 0.528002 1.937628
vt 0.439872 1.937629
vt 0.439872 1.495342
vt 0.616132 1.053055
vt 0.704262 1.053055
vt 0.704262 1.495342
vt 0.704262 1.937628
vt 0.616132 1.937628
vt 0.616132 1.495342
vt 0.087353 1.053055
vt 0.175483 1.053055
vt 0.175483 1.495342
vt 0.175483 1.937629
vt 0.087353 1.937629
vt 0.087353 1.495342
vt 0.263613 1.053055
vt 0.351743 1.053055
vt 0.351743 1.495342
vt 0.351743 1.937629
vt 0.263613 1.937629
vt 0.263613 1.495342
vt 0.439338 1.065708
vt 0.521866 1.065708
vt 0.521866 1.498389
vt 0.521866 1.931069
vt 0.439338 1.931069
vt 0.439338 1.498389
vt 0.604394 1.065708
vt 0.686923 1.065708
vt 0.686923 1.498389
vt 0.686923 1.931069
vt 0.604394 1.931069
vt 0.604394 1.498389
vt -0.223006 1.065709
vt -0.140478 1.065709
vt -0.140478 1.498390
vt -0.140478 1.931070
vt -0.223006 1.931070
vt -0.223006 1.498390
vt -0.057950 1.065709
vt 0.024579 1.065709
vt 0.024579 1.498389
vt 0.024579 1.931070
vt -0.057950 1.931070
vt -0.057950 1.498390
vt 0.107107 1.065709
vt 0.189635 1.065709
vt 0.189635 1.498389
vt 0.189636 1.931070
vt 0.107107 1.931070
vt 0.107107 1.498389
vt 0.272164 1.065708
vt 0.367911 1.065708
vt 0.367911 1.498389
vt 0.367911 1.931070
vt 0.272164 1.931070
vt 0.272164 1.498389
vt -0.305535 1.931070
vt -0.305535 1.498390
vt -0.305535 1.065709
vt 0.367911 1.931069
s 1
usemtl ROADPIT
f 1/1/1 2/2/1 3/3/1
f 4/4/1 5/5/1 6/6/1
f 7/7/1 8/8/1 9/9/1
f 10/10/1 11/11/1 12/12/1
f 13/13/1 14/14/1 15/15/1
f 16/16/1 17/17/1 18/18/1
f 19/19/1 20/20/1 21/21/1
f 22/22/1 23/23/1 24/24/1
f 25/25/1 26/26/1 27/27/1
f 28/28/1 29/29/1 30/30/1
f 31/31/1 32/32/1 33/33/1
f 34/34/1 35/35/1 36/36/1
f 37/37/1 38/38/2 39/39/2
f 40/40/2 41/41/1 42/42/1
f 43/43/2 44/44/1 45/45/1
f 46/46/1 47/47/2 48/48/2
f 49/49/1 50/50/1 51/51/1
f 52/52/1 53/53/1 54/54/1
f 55/55/1 56/56/1 57/57/1
f 58/58/1 59/59/1 60/60/1
f 61/61/1 62/62/1 63/63/1
f 64/64/1 65/65/1 66/66/1
f 67/67/1 68/68/3 216/69/4
f 69/70/1 70/71/1 71/72/1
f 67/67/1 216/69/4 71/72/1
f 71/72/1 216/69/4 69/70/1
f 61/61/1 63/63/1 66/66/1
f 66/66/1 63/63/1 64/64/1
f 55/55/1 57/57/1 60/60/1
f 60/60/1 57/57/1 58/58/1
f 49/49/1 51/51/1 54/54/1
f 54/54/1 51/51/1 52/52/1
f 43/43/2 45/45/1 48/48/2
f 48/48/2 45/45/1 46/46/1
f 37/37/1 39/39/2 42/42/1
f 42/42/1 39/39/2 40/40/2
f 19/19/1 21/21/1 24/24/1
f 24/24/1 21/21/1 22/22/1
f 31/31/1 33/33/1 36/36/1
f 36/36/1 33/33/1 34/34/1
f 25/25/1 27/27/1 30/30/1
f 30/30/1 27/27/1 28/28/1
f 13/13/1 15/15/1 18/18/1
f 18/18/1 15/15/1 16/16/1
f 7/7/1 9/9/1 12/12/1
f 12/12/1 9/9/1 10/10/1
f 1/1/1 3/3/1 6/6/1
f 6/6/1 3/3/1 4/4/1
f 70/71/1 64/64/1 63/63/1
f 63/63/1 71/72/1 70/71/1
f 62/62/1 71/72/1 63/63/1
f 62/62/1 67/67/1 71/72/1
f 65/65/1 58/58/1 57/57/1
f 57/57/1 66/66/1 65/65/1
f 56/56/1 66/66/1 57/57/1
f 56/56/1 61/61/1 66/66/1
f 59/59/1 52/52/1 51/51/1
f 51/51/1 60/60/1 59/59/1
f 50/50/1 60/60/1 51/51/1
f 50/50/1 55/55/1 60/60/1
f 53/53/1 46/46/1 45/45/1
f 45/45/1 54/54/1 53/53/1
f 44/44/1 54/54/1 45/45/1
f 44/44/1 49/49/1 54/54/1
f 47/47/2 40/40/2 39/39/2
f 39/39/2 48/48/2 47/47/2
f 38/38/2 48/48/2 39/39/2
f 38/38/2 43/43/2 48/48/2
f 23/23/1 34/34/1 33/33/1
f 33/33/1 24/24/1 23/23/1
f 32/32/1 24/24/1 33/33/1
f 32/32/1 19/19/1 24/24/1
f 35/35/1 28/28/1 27/27/1
f 27/27/1 36/36/1 35/35/1
f 26/26/1 36/36/1 27/27/1
f 26/26/1 31/31/1 36/36/1
f 29/29/1 16/16/1 15/15/1
f 15/15/1 30/30/1 29/29/1
f 14/14/1 30/30/1 15/15/1
f 14/14/1 25/25/1 30/30/1
f 17/17/1 10/10/1 9/9/1
f 9/9/1 18/18/1 17/17/1
f 8/8/1 18/18/1 9/9/1
f 8/8/1 13/13/1 18/18/1
f 11/11/1 4/4/1 3/3/1
f 3/3/1 12/12/1 11/11/1
f 2/2/1 12/12/1 3/3/1
f 2/2/1 7/7/1 12/12/1
f 5/5/1 72/73/1 73/74/1
f 73/74/1 6/6/1 5/5/1
f 74/75/1 6/6/1 73/74/1
f 74/75/1 1/1/1 6/6/1
f 75/76/1 74/77/1 73/78/1
f 72/79/1 76/80/1 77/81/1
f 75/76/1 73/78/1 77/81/1
f 77/81/1 73/78/1 72/79/1
f 76/80/1 78/82/1 79/83/1
f 79/83/1 77/81/1 76/80/1
f 80/84/1 77/81/1 79/83/1
f 80/84/1 75/76/1 77/81/1
f 81/85/1 82/86/1 83/87/1
f 84/88/1 85/89/1 86/90/1
f 87/91/1 88/92/1 89/93/1
f 90/94/1 91/95/1 92/96/1
f 88/92/1 93/97/1 94/98/1
f 95/99/1 90/94/1 89/93/1
f 96/100/1 97/101/1 98/102/1
f 99/103/1 100/104/1 101/105/1
f 102/106/1 103/107/1 104/108/1
f 105/109/1 106/110/1 107/111/1
f 88/92/1 94/98/1 89/93/1
f 89/93/1 94/98/1 95/99/1
f 87/91/1 89/93/1 92/96/1
f 92/96/1 89/93/1 90/94/1
f 102/106/1 104/108/1 107/111/1
f 107/111/1 104/108/1 105/109/1
f 96/100/1 98/102/1 101/105/1
f 101/105/1 98/102/1 99/103/1
f 81/85/1 83/87/1 86/90/1
f 86/90/1 83/87/1 84/88/1
f 93/97/1 80/112/1 79/113/1
f 93/97/1 79/113/1 94/98/1
f 94/98/1 79/113/1 78/114/1
f 78/114/1 95/99/1 94/98/1
f 91/95/1 105/109/1 104/108/1
f 104/108/1 92/96/1 91/95/1
f 103/107/1 92/96/1 104/108/1
f 103/107/1 87/91/1 92/96/1
f 106/110/1 99/103/1 98/102/1
f 98/102/1 107/111/1 106/110/1
f 97/101/1 107/111/1 98/102/1
f 97/101/1 102/106/1 107/111/1
f 100/104/1 84/88/1 83/87/1
f 83/87/1 101/105/1 100/104/1
f 82/86/1 101/105/1 83/87/1
f 82/86/1 96/100/1 101/105/1
f 108/115/1 109/116/1 110/117/1
f 111/118/1 112/119/1 113/120/1
f 114/121/1 115/122/1 116/123/1
f 117/124/1 118/125/1 119/126/1
f 114/121/1 116/123/1 119/126/1
f 119/126/1 116/123/1 117/124/1
f 108/115/1 110/117/1 113/120/1
f 113/120/1 110/117/1 111/118/1
f 118/125/1 111/118/1 110/117/1
f 110/117/1 119/126/1 118/125/1
f 109/116/1 119/126/1 110/117/1
f 109/116/1 114/121/1 119/126/1
f 112/119/1 168/127/1 120/128/1
f 120/128/1 113/120/1 112/119/1
f 167/129/1 113/120/1 120/128/1
f 167/129/1 108/115/1 113/120/1
f 121/130/1 122/131/1 123/132/1
f 124/133/1 125/134/1 126/135/1
f 127/136/1 128/137/1 129/138/1
f 130/139/1 131/140/1 132/141/1
f 133/142/1 134/143/1 135/144/1
f 136/145/1 137/146/1 138/147/1
f 139/148/1 140/149/1 141/150/1
f 142/151/1 143/152/1 144/153/1
f 145/154/1 146/155/1 147/156/1
f 148/157/1 149/158/1 150/159/1
f 151/160/1 152/161/1 153/162/1
f 154/163/1 155/164/1 156/165/1
f 151/160/1 153/162/1 156/165/1
f 156/165/1 153/162/1 154/163/1
f 145/154/1 147/156/1 150/159/1
f 150/159/1 147/156/1 148/157/1
f 139/148/1 141/150/1 144/153/1
f 144/153/1 141/150/1 142/151/1
f 133/142/1 135/144/1 138/147/1
f 138/147/1 135/144/1 136/145/1
f 127/136/1 129/138/1 132/141/1
f 132/141/1 129/138/1 130/139/1
f 121/130/1 123/132/1 126/135/1
f 126/135/1 123/132/1 124/133/1
f 157/166/1 154/163/1 153/162/1
f 153/162/1 158/167/1 157/166/1
f 152/161/1 158/167/1 153/162/1
f 152/161/1 159/168/1 158/167/1
f 155/164/1 148/157/1 147/156/1
f 147/156/1 156/165/1 155/164/1
f 146/155/1 156/165/1 147/156/1
f 146/155/1 151/160/1 156/165/1
f 149/158/1 142/151/1 141/150/1
f 141/150/1 150/159/1 149/158/1
f 140/149/1 150/159/1 141/150/1
f 140/149/1 145/154/1 150/159/1
f 143/152/1 136/145/1 135/144/1
f 135/144/1 144/153/1 143/152/1
f 134/143/1 144/153/1 135/144/1
f 134/143/1 139/148/1 144/153/1
f 137/146/1 130/169/1 129/170/1
f 129/170/1 138/147/1 137/146/1
f 128/171/1 138/147/1 129/170/1
f 128/171/1 133/142/1 138/147/1
f 131/140/1 124/133/1 123/132/1
f 123/132/1 132/141/1 131/140/1
f 122/131/1 132/141/1 123/132/1
f 122/131/1 127/136/1 132/141/1
f 160/172/1 161/173/1 162/174/1
f 163/175/1 164/176/1 165/177/1
f 166/178/1 167/179/1 120/180/1
f 168/181/1 169/182/1 170/183/1
f 159/184/1 171/185/1 172/186/1
f 173/187/1 157/188/1 158/189/1
f 174/190/1 175/191/1 176/192/1
f 177/193/1 178/194/1 179/195/1
f 166/178/1 120/180/1 170/183/1
f 170/183/1 120/180/1 168/181/1
f 160/172/1 162/174/1 165/177/1
f 165/177/1 162/174/1 163/175/1
f 174/190/1 176/192/1 179/195/1
f 179/195/1 176/192/1 177/193/1
f 159/184/1 172/186/1 158/189/1
f 158/189/1 172/186/1 173/187/1
f 169/182/1 163/175/1 162/174/1
f 162/174/1 170/183/1 169/182/1
f 161/173/1 170/183/1 162/174/1
f 161/173/1 166/178/1 170/183/1
f 164/176/1 177/193/1 176/192/1
f 176/192/1 165/177/1 164/176/1
f 175/191/1 165/177/1 176/192/1
f 175/191/1 160/172/1 165/177/1
f 178/194/1 173/187/1 172/186/1
f 172/186/1 179/195/1 178/194/1
f 171/185/1 179/195/1 172/186/1
f 171/185/1 174/190/1 179/195/1
f 180/196/4 181/197/1 182/198/1
f 183/199/1 184/200/4 185/201/4
f 186/202/1 187/203/1 188/204/1
f 189/205/1 190/206/1 191/207/1
f 192/208/1 193/209/1 194/210/1
f 195/211/1 196/212/1 197/213/1
f 198/214/1 199/215/1 200/216/1
f 201/217/1 202/218/1 203/219/1
f 204/220/1 205/221/1 206/222/1
f 207/223/1 208/224/1 209/225/1
f 210/226/1 211/227/1 212/228/1
f 213/229/1 214/230/1 215/231/1
f 210/226/1 212/228/1 215/231/1
f 215/231/1 212/228/1 213/229/1
f 204/220/1 206/222/1 209/225/1
f 209/225/1 206/222/1 207/223/1
f 198/214/1 200/216/1 203/219/1
f 203/219/1 200/216/1 201/217/1
f 192/208/1 194/210/1 197/213/1
f 197/213/1 194/210/1 195/211/1
f 186/202/1 188/204/1 191/207/1
f 191/207/1 188/204/1 189/205/1
f 180/196/4 182/198/1 185/201/4
f 185/201/4 182/198/1 183/199/1
f 214/230/1 207/223/1 206/222/1
f 206/222/1 215/231/1 214/230/1
f 205/221/1 215/231/1 206/222/1
f 205/221/1 210/226/1 215/231/1
f 208/224/1 201/217/1 200/216/1
f 200/216/1 209/225/1 208/224/1
f 199/215/1 209/225/1 200/216/1
f 199/215/1 204/220/1 209/225/1
f 202/218/1 195/211/1 194/210/1
f 194/210/1 203/219/1 202/218/1
f 193/209/1 203/219/1 194/210/1
f 193/209/1 198/214/1 203/219/1
f 196/212/1 189/232/1 188/233/1
f 188/233/1 197/213/1 196/212/1
f 187/234/1 197/213/1 188/233/1
f 187/234/1 192/208/1 197/213/1
f 190/206/1 183/199/1 182/198/1
f 182/198/1 191/207/1 190/206/1
f 181/197/1 191/207/1 182/198/1
f 181/197/1 186/202/1 191/207/1
f 184/200/4 69/235/1 216/228/4
f 216/228/4 185/201/4 184/200/4
f 68/227/3 185/201/4 216/228/4
f 68/227/3 180/196/4 185/201/4
