# Blender 4.4.3
# www.blender.org
mtllib ROADB.mtl
o ROADB
v -255.733673 19.825262 -347.209900
v -255.733673 19.748411 -342.188232
v -253.457214 19.673044 -337.147430
v -237.405502 19.691124 -337.012665
v -254.369644 19.672016 -337.155090
v -255.736176 19.670477 -337.166565
v -254.830612 19.671497 -337.158966
v -147.744080 -1.027241 -47.361900
v -158.302551 -0.804006 -46.673187
v -148.184387 -1.027239 -35.507679
v -158.227661 -0.804004 -34.703915
v -168.614471 -0.551133 -46.102055
v -168.270981 -0.551133 -34.037369
v -137.682007 -1.219493 -48.126373
v -138.141083 -1.219492 -36.399860
v -128.483856 -1.379419 -48.924797
v -128.097702 -1.379418 -37.331661
v -179.920959 -0.269971 -45.690315
v -178.314331 -0.269971 -33.556847
v -191.111053 0.038135 -45.479809
v -188.357635 0.038135 -33.311180
v -217.755310 2.096843 -48.688602
v -223.771149 3.002519 -50.847290
v -219.452896 2.096845 -37.056015
v -226.473694 3.002520 -39.575317
v -229.571289 3.982194 -53.532188
v -233.242767 3.982195 -42.708736
v -211.571442 1.307776 -47.073219
v -212.235992 1.307777 -35.170776
v -205.268448 0.682289 -46.013908
v -204.880066 0.682290 -33.934502
v -191.111008 0.038130 -45.479954
v -198.896179 0.371979 -45.519047
v -188.357590 0.038130 -33.311356
v -197.443298 0.371979 -33.356979
v -240.342850 6.018848 -60.391560
v -245.228973 7.017887 -64.511711
v -245.813736 6.018849 -50.713982
v -251.516113 7.017889 -55.522423
v -249.729553 7.975914 -69.049889
v -256.768524 7.975915 -60.818710
v -235.109787 4.998298 -56.722019
v -239.706482 4.998299 -46.431438
v -253.808899 8.880070 -73.970169
v -261.529327 8.880072 -66.560944
v -257.434723 9.724028 -79.233536
v -265.760864 9.724030 -72.703568
v -269.693176 12.715008 -106.654083
v -272.916992 13.418635 -114.633186
v -280.067139 12.715008 -104.704796
v -283.829437 13.418635 -114.016823
v -275.495605 14.084126 -121.259285
v -286.838867 14.084126 -121.749832
v -266.469452 11.988062 -98.675041
v -276.304871 11.988062 -95.392822
v -263.245667 11.236785 -90.695923
v -272.542542 11.236785 -86.080780
v -260.578369 10.507503 -84.798409
v -269.429657 10.507504 -79.198067
v -278.032532 15.340016 -132.741867
v -278.355133 15.952476 -138.626251
v -289.799622 15.340016 -135.150635
v -290.176086 15.952476 -142.018005
v -278.038513 16.542126 -144.514236
v -289.806549 16.542126 -148.889587
v -277.075439 14.716837 -126.930176
v -288.682617 14.716837 -128.368073
v -277.085815 17.087742 -150.336456
v -288.694733 17.087742 -155.684448
v -275.507538 17.563160 -156.024445
v -286.852753 17.563160 -162.322601
v -263.402130 18.403082 -176.131744
v -259.687744 18.485722 -178.634689
v -272.725098 18.403082 -185.788879
v -268.390228 18.485723 -188.709946
v -252.249710 18.036055 -183.833527
v -259.709656 18.036053 -194.777267
v -267.233765 18.360035 -171.624557
v -277.196808 18.360035 -180.528763
v -270.553131 18.210421 -166.731705
v -281.070709 18.210421 -174.818527
v -275.507751 17.562986 -156.024384
v -273.321747 17.943203 -161.511078
v -286.853027 17.562986 -162.322525
v -284.301849 17.943201 -168.725800
v -235.428696 17.148972 -199.425568
v -227.588791 17.000414 -211.122116
v -241.815903 17.148973 -210.951477
v -234.234192 17.000412 -220.318497
v -219.761810 17.066235 -222.330292
v -227.670685 17.066235 -230.404907
v -244.218933 17.534014 -190.370605
v -250.337311 17.534014 -202.406372
v -222.192810 17.347511 -241.100647
v -237.931717 19.776207 -342.006622
v -236.047668 19.853064 -347.254608
v -238.457962 19.853064 -347.000641
v -234.995178 19.691122 -337.266571
v -217.494034 19.853064 -349.209717
v -191.497253 19.691124 -341.800385
v -192.549744 19.853065 -351.788452
v -216.441589 19.691124 -339.221680
v -167.148209 19.691124 -350.282410
v -172.321030 19.853062 -358.891144
v -150.314026 19.691122 -369.812775
v -157.435760 19.853056 -376.098999
v 12.668713 11.535102 -360.357880
v 10.252468 11.497546 -354.475159
v 12.676083 11.497457 -354.479248
v 10.140453 11.573420 -365.181213
v 12.561596 11.573327 -365.290588
v 12.659763 11.460455 -350.352509
v 10.242962 11.424246 -344.503265
v 12.659954 11.424159 -344.682678
v 0.774647 11.503733 -362.541229
v 10.171627 11.502883 -339.221619
v 11.074780 11.502799 -336.972565
v 15.822338 11.537487 -339.032349
v 230.669495 13.013501 -422.043518
v 241.606384 13.013620 -379.267670
v 233.798828 13.000649 -374.804871
v 249.403137 13.010902 -415.039368
v 257.281708 13.018336 -389.992676
v 265.477051 13.018338 -395.798279
v 249.118195 13.017925 -384.212219
v 273.672363 13.018337 -401.603882
v 281.867706 13.018339 -407.409454
v 282.483429 13.018339 -410.535065
v 277.318420 13.018340 -419.148499
v 272.786011 13.018340 -426.714661
v 265.275269 13.010900 -428.936829
v 334.964172 13.018350 -410.279999
v 331.027710 13.018351 -407.508728
v 332.428711 13.018351 -405.531067
v 326.930054 13.018351 -404.605927
v 324.233368 13.018352 -399.725464
v 322.832397 13.018352 -401.703125
v 335.017792 13.018353 -384.501892
v 343.213104 13.018352 -390.307495
v 336.459930 13.017034 -408.383606
v 340.624023 13.018349 -411.336670
v 336.630615 13.018350 -408.508820
v 351.408447 13.018351 -396.113098
v 220.358276 13.052278 -425.976776
v 237.174927 13.013499 -439.443054
v 227.439957 13.052276 -443.149841
v 240.036240 13.011081 -418.541473
v 246.541656 13.011079 -435.940979
v 208.520630 13.136696 -431.562561
v 217.273575 13.136695 -447.946991
v 197.296524 13.264618 -438.296906
v 207.634125 13.264616 -453.730560
v 177.126251 13.642420 -454.933929
v 186.797089 13.433906 -446.113159
v 198.617035 13.436512 -460.443298
v 190.311554 13.840229 -468.018738
v 182.799881 14.280705 -476.381927
v 176.156311 14.748101 -485.450134
v 170.446655 15.232881 -495.133514
v 249.402985 13.011080 -415.039368
v 255.908401 13.011078 -432.438904
v 265.275116 13.011077 -428.936859
v 563.838989 -3.278034 -77.536804
v 563.819031 -3.278033 -66.712296
v 612.136841 -3.278036 -89.460083
v 563.798889 -3.278036 -89.460083
v 563.664368 -3.278032 -56.670391
v 610.822388 -3.278123 13.878777
v 563.158630 -3.278027 -26.544655
v 563.327148 -3.278028 -36.586571
v 563.495728 -3.278031 -46.628490
v 562.990112 -3.278025 -16.502754
v 562.821533 -3.278024 -6.460837
v 562.652954 -3.278022 3.581078
v 562.484375 -3.278123 13.878769
v 213.373749 -2.087785 -20.462629
v 203.330444 -1.922160 -21.220432
v 196.540680 -1.691035 -31.418472
v 193.287109 -1.789750 -21.822628
v 173.201218 -1.667725 -30.662804
v 183.243790 -1.701653 -22.220404
v 173.200378 -1.669066 -22.364971
v 343.937439 -3.278030 -33.316010
v 343.937439 -3.278030 -41.220158
v 325.794403 -1.691036 -39.322624
v 325.794403 -1.691035 -31.418472
v 353.980530 -3.277949 -33.316338
v 353.980530 -3.277949 -41.220490
v 211.325378 -1.691037 -70.803078
v 201.724991 -1.691037 -70.803078
v 201.724991 -1.691036 -39.322613
v 211.325378 -1.691036 -39.322613
v 196.540695 -1.691037 -70.803078
v 187.203629 -1.691037 -70.803078
v 187.203629 -1.691036 -39.322613
v 196.540695 -1.691036 -39.322613
v 245.441147 -1.691036 -39.322613
v 245.441147 -1.691037 -70.803078
v 216.509674 -1.691037 -70.803078
v 216.509674 -1.691036 -39.322613
v 201.724991 -1.691035 -31.418468
v 211.325378 -1.691035 -31.418468
v 187.203629 -1.691035 -31.418468
v 216.509674 -1.691035 -31.418468
v 245.441147 -1.691035 -31.418468
v 173.919373 -1.691037 -70.803078
v 173.919373 -1.691036 -39.322613
v 182.019333 -1.691036 -39.322613
v 182.019333 -1.691037 -70.803078
v 173.919373 -1.691035 -31.418468
v 182.019333 -1.691035 -31.418468
v 211.325378 -1.691039 -87.188248
v 201.724991 -1.691039 -87.188248
v 196.540695 -1.691039 -87.188248
v 187.203629 -1.691039 -87.188248
v 245.441147 -1.691039 -87.188248
v 216.509674 -1.691039 -87.188248
v 182.019333 -1.691039 -87.188248
v 173.919373 -1.691039 -87.188248
v 325.794434 -1.691037 -70.803078
v 325.794434 -1.691039 -87.188248
v -57.114014 19.606102 -480.907257
v -57.095238 19.764452 -491.821136
v -130.217865 19.576479 -491.821136
v -130.236649 19.583712 -480.907288
v -57.121002 19.212851 -471.366394
v -130.243637 19.576475 -471.366394
v -28.782104 23.584242 -480.907257
v -28.763344 23.742588 -491.821136
v -28.789108 23.190990 -471.366364
v 3.250841 30.276628 -480.907257
v 3.269577 30.434973 -491.821106
v 3.243814 29.883375 -471.366364
v 33.124725 33.459709 -480.907257
v 33.143486 33.618057 -491.821106
v 33.117722 33.066460 -471.366364
v 69.892799 33.459709 -480.907257
v 69.911560 33.664337 -491.821106
v 69.885796 33.066460 -471.366364
v 103.432632 29.574911 -480.907227
v 103.451393 29.779541 -491.821106
v 103.425629 29.181660 -471.366364
v 132.149963 23.514120 -480.907227
v 132.168762 23.718742 -491.821106
v 132.142990 23.120863 -471.366364
v 160.644012 14.168577 -475.230896
v 153.995712 14.481943 -486.506195
v 168.379684 13.888022 -464.671997
vn -0.0017 0.9999 0.0154
vn -0.0015 0.9999 0.0156
vn 0.0006 0.9999 0.0162
vn -0.0002 0.9999 0.0154
vn -0.0013 0.9999 0.0155
vn -0.0016 0.9999 0.0169
vn 0.0201 0.9998 0.0008
vn 0.0230 0.9997 0.0001
vn 0.0206 0.9998 0.0005
vn 0.0236 0.9997 -0.0003
vn 0.0248 0.9997 -0.0006
vn 0.0258 0.9997 -0.0015
vn 0.0178 0.9998 0.0003
vn 0.0177 0.9998 0.0007
vn 0.0173 0.9998 -0.0006
vn 0.0166 0.9999 0.0001
vn 0.0268 0.9996 -0.0029
vn 0.0284 0.9996 -0.0045
vn 0.0288 0.9996 -0.0051
vn 0.0305 0.9995 -0.0069
vn 0.1307 0.9913 0.0158
vn 0.1423 0.9894 0.0303
vn 0.1142 0.9933 0.0200
vn 0.1246 0.9916 0.0336
vn 0.1465 0.9882 0.0454
vn 0.1282 0.9906 0.0475
vn 0.1108 0.9938 0.0037
vn 0.0962 0.9953 0.0082
vn 0.0754 0.9971 -0.0037
vn 0.0630 0.9980 0.0002
vn 0.0429 0.9990 -0.0097
vn 0.0452 0.9990 -0.0066
vn 0.0390 0.9992 -0.0063
vn 0.0400 0.9992 -0.0037
vn 0.1363 0.9880 0.0722
vn 0.1247 0.9888 0.0820
vn 0.1186 0.9904 0.0714
vn 0.1079 0.9909 0.0800
vn 0.1104 0.9899 0.0890
vn 0.0948 0.9918 0.0858
vn 0.1441 0.9878 0.0597
vn 0.1258 0.9902 0.0604
vn 0.0949 0.9911 0.0932
vn 0.0807 0.9928 0.0889
vn 0.0829 0.9922 0.0930
vn 0.0632 0.9938 0.0913
vn 0.0182 0.9967 0.0787
vn 0.0083 0.9963 0.0858
vn 0.0110 0.9971 0.0750
vn 0.0013 0.9965 0.0841
vn -0.0007 0.9949 0.1009
vn -0.0077 0.9953 0.0966
vn 0.0291 0.9966 0.0772
vn 0.0214 0.9971 0.0734
vn 0.0458 0.9954 0.0847
vn 0.0368 0.9961 0.0803
vn 0.0640 0.9935 0.0946
vn 0.0527 0.9946 0.0889
vn -0.0178 0.9944 0.1045
vn -0.0250 0.9947 0.0994
vn -0.0226 0.9953 0.0944
vn -0.0285 0.9957 0.0887
vn -0.0306 0.9954 0.0913
vn -0.0327 0.9962 0.0804
vn -0.0097 0.9941 0.1083
vn -0.0156 0.9950 0.0986
vn -0.0335 0.9963 0.0796
vn -0.0343 0.9970 0.0691
vn -0.0341 0.9969 0.0703
vn -0.0344 0.9975 0.0619
vn -0.0092 0.9999 0.0091
vn 0.0141 0.9998 -0.0117
vn -0.0083 0.9999 0.0076
vn 0.0103 0.9999 -0.0071
vn 0.0383 0.9989 -0.0281
vn 0.0370 0.9990 -0.0233
vn -0.0103 0.9999 0.0125
vn -0.0093 0.9999 0.0102
vn -0.0204 0.9994 0.0286
vn -0.0190 0.9995 0.0237
vn -0.0314 0.9979 0.0566
vn -0.0284 0.9985 0.0466
vn -0.0310 0.9983 0.0495
vn -0.0272 0.9989 0.0393
vn 0.0220 0.9997 -0.0118
vn 0.0047 1.0000 -0.0029
vn 0.0178 0.9998 -0.0103
vn 0.0017 1.0000 -0.0010
vn -0.0077 0.9999 0.0072
vn -0.0120 0.9999 0.0117
vn 0.0348 0.9992 -0.0199
vn 0.0326 0.9993 -0.0170
vn -0.0176 0.9997 0.0173
vn 0.0019 0.9999 0.0157
vn 0.0020 0.9999 0.0163
vn 0.0017 0.9999 0.0160
vn 0.0034 0.9999 0.0159
vn 0.0037 0.9999 0.0158
vn 0.0090 0.9999 0.0134
vn 0.0093 0.9999 0.0132
vn 0.0129 0.9999 0.0111
vn 0.0129 0.9999 0.0112
vn 0.0013 1.0000 0.0071
vn -0.0024 1.0000 0.0074
vn 0.0001 1.0000 0.0077
vn -0.0020 1.0000 0.0074
vn 0.0004 1.0000 0.0077
vn 0.0021 1.0000 0.0075
vn 0.0142 0.9999 -0.0078
vn -0.0005 1.0000 -0.0077
vn -0.0026 1.0000 0.0057
vn 0.0359 0.9993 -0.0144
vn -0.0030 0.9999 -0.0101
vn -0.0094 0.9999 -0.0111
vn 0.0009 1.0000 0.0002
vn 0.0055 1.0000 0.0005
vn -0.0005 1.0000 0.0007
vn -0.0003 1.0000 -0.0000
vn 0.0075 1.0000 0.0008
vn -0.0000 1.0000 0.0010
vn 0.0001 1.0000 -0.0003
vn 0.0002 1.0000 -0.0001
vn -0.0001 1.0000 -0.0002
vn -0.0002 1.0000 -0.0002
vn -0.0002 1.0000 -0.0001
vn -0.0003 1.0000 -0.0002
vn -0.0002 1.0000 -0.0000
vn -0.0002 1.0000 0.0001
vn -0.0004 1.0000 -0.0002
vn -0.0007 1.0000 -0.0009
vn 0.0004 1.0000 0.0002
vn -0.0000 1.0000 -0.0000
vn 0.0001 1.0000 -0.0000
vn -0.0009 1.0000 0.0014
vn -0.0024 1.0000 0.0028
vn -0.0001 1.0000 -0.0000
vn 0.0018 1.0000 0.0007
vn 0.0049 1.0000 0.0023
vn 0.0079 1.0000 0.0046
vn 0.0098 0.9999 0.0062
vn 0.0104 0.9999 0.0076
vn 0.0143 0.9997 0.0183
vn 0.0117 0.9999 0.0092
vn 0.0138 0.9998 0.0171
vn 0.0181 0.9993 0.0334
vn -0.0027 0.9995 0.0330
vn 0.2893 0.9477 -0.1351
vn -0.0028 0.9990 0.0438
vn -0.0083 0.9986 0.0515
vn 0.0135 0.9995 0.0272
vn -0.0148 0.9982 0.0587
vn -0.0000 0.9993 0.0362
vn 0.0038 0.9995 0.0316
vn 0.0103 0.9994 0.0343
vn 0.0079 0.9997 0.0237
vn 0.0036 0.9999 0.0154
vn 0.0069 0.9999 0.0098
vn 0.0035 1.0000 0.0028
vn 0.0030 1.0000 0.0005
vn 0.0062 1.0000 0.0002
vn 0.0032 1.0000 0.0002
vn 0.0450 0.9990 -0.0000
vn 0.0421 0.9991 -0.0000
vn 0.0871 0.9962 -0.0000
vn -0.0000 -1.0000 -0.0000
vn -0.0704 0.9971 0.0273
vn -0.0711 0.9974 0.0143
vn -0.0005 1.0000 0.0008
vn 0.0021 1.0000 0.0017
vn -0.0694 0.9968 0.0394
vn 0.0050 1.0000 0.0008
vn -0.1718 0.9847 0.0272
vn -0.1719 0.9850 0.0140
vn -0.1716 0.9843 0.0404
vn -0.1553 0.9875 0.0273
vn -0.1553 0.9878 0.0141
vn -0.1555 0.9870 0.0406
vn -0.0530 0.9982 0.0277
vn -0.0531 0.9985 0.0148
vn -0.0531 0.9977 0.0411
vn 0.0573 0.9979 0.0298
vn 0.0570 0.9982 0.0188
vn 0.0576 0.9975 0.0412
vn 0.1608 0.9865 0.0298
vn 0.1609 0.9868 0.0188
vn 0.1610 0.9861 0.0408
vn 0.2467 0.9689 0.0191
vn 0.2669 0.9637 -0.0060
vn 0.2240 0.9737 0.0403
vt -1.200881 2.000000
vt -1.200882 1.500000
vt 0.402642 1.500000
vt 0.402642 2.000000
vt -1.001524 1.000000
vt 0.402642 1.000000
vt -1.200882 1.000000
vt -1.121186 1.000000
vt -1.134350 1.000000
vt 3.440154 2.000000
vt 2.603195 2.000000
vt 3.405251 0.990000
vt 2.609130 0.990000
vt 1.785778 2.000000
vt 1.813007 0.990000
vt 4.237763 2.000000
vt 4.201374 0.990000
vt 4.966893 2.000000
vt 4.997502 0.990000
vt 0.889526 2.000000
vt 1.016881 0.990000
vt 0.002498 2.000000
vt 0.220757 0.990000
vt 5.499758 2.000000
vt 4.848701 2.000000
vt 5.464638 0.990000
vt 4.798980 0.990000
vt 4.182246 2.000000
vt 4.117579 0.990000
vt 6.130259 2.000000
vt 6.109279 0.990000
vt 6.735218 2.000000
vt 6.727805 0.990000
vt 7.975599 2.000000
vt 7.309850 2.000000
vt 7.996003 0.990000
vt 7.315323 0.990000
vt 2.824332 2.000000
vt 2.143625 2.000000
vt 2.729212 0.990000
vt 2.033240 0.990000
vt 1.468935 2.000000
vt 1.343418 0.990000
vt 3.505673 2.000000
vt 3.425833 0.990000
vt 0.805605 2.000000
vt 0.665212 0.990000
vt 0.158893 2.000000
vt 0.003997 0.990000
vt 4.454170 2.000000
vt 3.684571 2.000000
vt 4.402197 0.990000
vt 3.653033 0.990000
vt 3.047166 2.000000
vt 3.032552 0.990000
vt 5.223763 2.000000
vt 5.151358 0.990000
vt 5.993364 2.000000
vt 5.900524 0.990000
vt 7.119236 2.000000
vt 6.567087 2.000000
vt 6.996504 0.990000
vt 6.459013 0.990000
vt 1.975826 2.000000
vt 1.443624 2.000000
vt 1.989655 0.990000
vt 1.471585 0.990000
vt 0.922101 2.000000
vt 0.963909 0.990000
vt 2.512439 2.000000
vt 2.512021 0.990000
vt 0.417406 2.000000
vt 0.472614 0.990000
vt -0.064507 2.000000
vt 0.003497 0.990000
vt 3.741462 2.000000
vt 3.484674 2.000000
vt 3.685232 0.990000
vt 3.433730 0.990000
vt 2.962600 2.000000
vt 2.922402 0.990000
vt 4.087383 2.000000
vt 4.024034 0.990000
vt 4.428651 2.000000
vt 4.358278 0.990000
vt 5.081309 2.000000
vt 4.761259 2.000000
vt 4.997503 0.990000
vt 4.684040 0.990000
vt 1.754167 2.000000
vt 1.151485 2.000000
vt 1.738842 0.990000
vt 1.148565 0.990000
vt 0.558433 2.000000
vt 0.567719 0.990000
vt 2.360037 2.000000
vt 2.332241 0.990000
vt 0.002498 0.990000
vt 0.708439 2.000000
vt 0.708439 1.000000
vt 2.619670 1.000000
vt 2.619670 2.000000
vt 3.818538 1.146410
vt 2.996261 1.515724
vt 2.831381 1.329533
vt 4.800787 1.189790
vt 4.653750 1.000499
vt 2.139878 1.459735
vt 1.323254 1.828047
vt 1.188257 1.636886
vt 4.997503 1.991303
vt 0.441670 1.998560
vt 0.002498 1.999500
vt 0.023886 1.570665
vt 0.555020 1.357889
vt 0.631050 1.221891
vt 0.720678 1.995506
vt 0.615460 1.994769
vt 0.711507 1.052082
vt 0.825723 1.987627
vt 0.415982 1.603160
vt 0.485501 1.480524
vt 0.498518 1.988767
vt 0.381103 1.982708
vt 0.263688 1.976650
vt 0.146273 1.970591
vt 0.415983 1.603159
vt 0.120292 1.935765
vt 0.115991 1.782740
vt 0.112168 1.648359
vt 0.171650 1.557513
vt 0.260574 1.001170
vt 0.500000 1.000500
vt 0.500000 1.115357
vt 0.749749 1.000500
vt 0.999500 1.115357
vt 0.999500 1.000499
vt 0.999500 1.999500
vt 0.500000 1.999501
vt 0.254390 1.115481
vt 0.000499 1.115357
vt 0.243864 1.115314
vt 0.000500 1.999500
vt 1.999501 1.999501
vt 2.249251 1.999500
vt 2.249251 1.000500
vt 1.999501 1.000500
vt 2.499001 1.999501
vt 2.499001 1.000500
vt 1.749751 1.999500
vt 1.749751 1.000500
vt 1.500001 1.999500
vt 1.500001 1.000500
vt 1.000500 1.999500
vt 1.250250 1.999500
vt 1.250250 1.000500
vt 1.000500 1.000500
vt 1.000000 1.499880
vt 1.000000 2.000000
vt 0.010000 2.000000
vt 0.010000 1.503281
vt 1.000000 0.990000
vt 0.010000 0.990000
vt 2.748751 1.999500
vt 2.748751 1.000500
vt 2.998502 1.000500
vt 0.367899 1.005258
vt 0.680197 1.008421
vt 0.001498 1.992451
vt 0.023929 1.000499
vt 0.969979 1.008562
vt 1.259767 1.008417
vt 2.976071 1.999501
vt 1.839345 1.008128
vt 1.549556 1.008272
vt 2.129134 1.007984
vt 2.418922 1.007839
vt 2.708711 1.007694
vt 2.998502 1.007549
vt 4.000000 2.000000
vt 3.000000 2.000000
vt 4.000000 1.000000
vt 3.000000 1.000000
vt 2.000000 2.000000
vt 2.000000 1.000000
vt 0.001556 2.000000
vt 1.000000 1.000000
vt 0.001499 1.000000
vt 0.636903 2.000000
vt 0.648798 0.990000
vt 0.012395 0.990000
vt 0.000500 2.000000
vt 0.987606 2.000000
vt 0.999501 0.990000
vt 4.235963 1.999501
vt 4.235963 1.000500
vt 0.852516 1.000499
vt 0.852516 1.999500
vt 3.529969 1.999500
vt 3.529969 1.000500
vt 0.710430 1.000499
vt 0.710430 1.999500
vt 0.284172 1.999500
vt 1.411988 1.999501
vt 1.411988 1.000500
vt 0.284172 1.000499
vt 0.002997 1.000499
vt 0.002997 1.999500
vt 0.002498 1.000499
vt 0.002497 1.999500
vt 0.000999 1.000499
vt 0.000999 1.999500
vt 2.117982 1.000500
vt 0.426258 1.000499
vt 0.426258 1.999500
vt 2.117982 1.999501
vt 0.001498 1.000499
vt 0.001498 1.999500
vt 5.997003 1.999501
vt 5.997003 1.000500
vt 4.997502 1.999501
vt 4.997502 1.000500
vt 1.999001 1.999501
vt 1.999001 1.000500
vt 2.998502 1.999501
vt 0.426258 1.999501
vt 0.001498 1.999501
vt 0.001499 1.000499
vt 2.117981 1.999501
vt 2.117982 1.000499
vt 2.998501 1.999501
vt 2.267058 1.466472
vt 2.267639 1.999499
vt 0.005791 1.999497
vt 0.005211 1.466471
vt 2.266842 1.000501
vt 0.004995 1.000500
vt 3.143428 1.466472
vt 3.144009 1.999499
vt 3.143212 1.000502
vt 4.134279 1.466472
vt 4.134860 1.999499
vt 4.134063 1.000502
vt 5.058346 1.466473
vt 5.058926 1.999499
vt 5.058129 1.000502
vt 6.195665 1.466473
vt 6.196246 1.999499
vt 6.195449 1.000502
vt 7.233128 1.466473
vt 7.233708 1.999499
vt 7.232912 1.000502
vt 8.121420 1.466473
vt 8.122000 1.999499
vt 8.121203 1.000502
vt 8.959490 1.466473
vt 8.960071 1.999499
vt 8.959273 1.000502
s 1
usemtl ROADB.002
f 1/1/1 2/2/2 95/3/3
f 95/3/3 97/4/4 1/1/1
f 2/2/2 3/5/5 4/6/6
f 4/6/6 95/3/3 2/2/2
f 2/2/2 5/7/5 3/5/5
f 2/2/2 6/7/5 7/8/5
f 2/2/2 7/7/5 5/9/5
f 8/10/7 9/11/8 10/12/9
f 11/13/10 10/12/9 9/11/8
f 9/11/8 12/14/11 11/13/10
f 13/15/12 11/13/10 12/14/11
f 14/16/13 8/10/7 15/17/14
f 10/12/9 15/17/14 8/10/7
f 16/18/15 14/16/13 17/19/16
f 15/17/14 17/19/16 14/16/13
f 12/14/11 18/20/17 13/15/12
f 19/21/18 13/15/12 18/20/17
f 18/20/17 20/22/19 19/21/18
f 21/23/20 19/21/18 20/22/19
f 22/24/21 23/25/22 24/26/23
f 25/27/24 24/26/23 23/25/22
f 23/25/22 26/28/25 25/27/24
f 27/29/26 25/27/24 26/28/25
f 28/30/27 22/24/21 29/31/28
f 24/26/23 29/31/28 22/24/21
f 30/32/29 28/30/27 31/33/30
f 29/31/28 31/33/30 28/30/27
f 32/34/31 33/35/32 34/36/33
f 35/37/34 34/36/33 33/35/32
f 33/35/32 30/32/29 35/37/34
f 31/33/30 35/37/34 30/32/29
f 36/38/35 37/39/36 38/40/37
f 39/41/38 38/40/37 37/39/36
f 37/39/36 40/42/39 39/41/38
f 41/43/40 39/41/38 40/42/39
f 42/44/41 36/38/35 43/45/42
f 38/40/37 43/45/42 36/38/35
f 26/28/25 42/44/41 27/29/26
f 43/45/42 27/29/26 42/44/41
f 40/42/39 44/46/43 41/43/40
f 45/47/44 41/43/40 44/46/43
f 44/46/43 46/48/45 45/47/44
f 47/49/46 45/47/44 46/48/45
f 48/50/47 49/51/48 50/52/49
f 51/53/50 50/52/49 49/51/48
f 49/51/48 52/54/51 51/53/50
f 53/55/52 51/53/50 52/54/51
f 54/56/53 48/50/47 55/57/54
f 50/52/49 55/57/54 48/50/47
f 56/58/55 54/56/53 57/59/56
f 55/57/54 57/59/56 54/56/53
f 46/60/45 58/61/57 47/62/46
f 59/63/58 47/62/46 58/61/57
f 58/61/57 56/58/55 59/63/58
f 57/59/56 59/63/58 56/58/55
f 60/64/59 61/65/60 62/66/61
f 63/67/62 62/66/61 61/65/60
f 61/65/60 64/68/63 63/67/62
f 65/69/64 63/67/62 64/68/63
f 66/70/65 60/64/59 67/71/66
f 62/66/61 67/71/66 60/64/59
f 52/54/51 66/70/65 53/55/52
f 67/71/66 53/55/52 66/70/65
f 64/68/63 68/72/67 65/69/64
f 69/73/68 65/69/64 68/72/67
f 68/72/67 70/74/69 69/73/68
f 71/75/70 69/73/68 70/74/69
f 72/76/71 73/77/72 74/78/73
f 75/79/74 74/78/73 73/77/72
f 73/77/72 76/80/75 75/79/74
f 77/81/76 75/79/74 76/80/75
f 78/82/77 72/76/71 79/83/78
f 74/78/73 79/83/78 72/76/71
f 80/84/79 78/82/77 81/85/80
f 79/83/78 81/85/80 78/82/77
f 82/86/81 83/87/82 84/88/83
f 85/89/84 84/88/83 83/87/82
f 83/87/82 80/84/79 85/89/84
f 81/85/80 85/89/84 80/84/79
f 86/90/85 87/91/86 88/92/87
f 89/93/88 88/92/87 87/91/86
f 87/91/86 90/94/89 89/93/88
f 91/95/90 89/93/88 90/94/89
f 92/96/91 86/90/85 93/97/92
f 88/92/87 93/97/92 86/90/85
f 76/80/75 92/96/91 77/81/76
f 93/97/92 77/81/76 92/96/91
f 94/98/93 91/95/90 90/94/89
f 95/3/3 96/99/94 97/4/4
f 96/99/94 95/3/3 98/100/95
f 95/3/3 4/6/6 98/100/95
f 102/101/96 99/102/96 96/99/94
f 96/99/94 98/100/95 102/101/96
f 100/101/97 101/102/98 99/99/96
f 99/99/96 102/100/96 100/101/97
f 103/101/99 104/102/100 101/99/98
f 101/99/98 100/100/97 103/101/99
f 105/101/101 106/102/102 104/99/100
f 104/99/100 103/100/99 105/101/101
f 107/103/103 108/104/104 109/105/105
f 108/104/104 107/103/103 110/106/106
f 107/103/103 111/107/107 110/106/106
f 112/108/108 113/109/109 114/110/110
f 113/109/109 112/108/108 108/104/104
f 112/108/108 109/105/105 108/104/104
f 115/111/111 116/112/112 113/109/109
f 108/104/104 110/106/106 115/111/111
f 116/112/112 117/113/113 113/109/109
f 113/109/109 108/104/104 115/111/111
f 118/114/114 114/110/110 113/109/109
f 113/109/109 117/113/113 118/114/114
f 119/115/115 144/116/116 120/117/117
f 120/117/117 125/118/118 119/115/115
f 144/116/116 149/119/119 121/120/120
f 121/120/120 120/117/117 144/116/116
f 122/121/121 147/122/122 123/123/123
f 123/123/123 124/124/124 122/121/121
f 147/122/122 119/115/115 125/118/118
f 125/118/118 123/123/123 147/122/122
f 126/125/124 127/126/125 160/127/126
f 124/124/124 126/125/124 160/127/126
f 127/126/125 128/128/127 160/127/126
f 128/128/127 129/129/128 160/127/126
f 129/129/128 130/130/129 160/127/126
f 130/130/129 131/131/130 160/127/126
f 132/132/131 133/133/132 134/134/133
f 135/135/132 134/134/133 133/133/132
f 134/134/133 135/135/132 136/136/132
f 135/135/132 137/137/132 136/136/132
f 138/138/132 139/139/132 134/134/133
f 134/134/133 136/136/132 138/138/132
f 132/132/131 134/134/133 140/140/134
f 141/141/132 142/142/135 143/143/136
f 143/143/136 142/142/135 140/140/134
f 140/140/134 134/134/133 139/139/132
f 140/140/134 139/139/132 143/143/136
f 144/144/116 119/145/115 145/146/137
f 145/146/137 146/147/138 144/144/116
f 119/145/115 147/148/122 148/149/133
f 148/149/133 145/146/137 119/145/115
f 149/150/119 144/144/116 146/147/138
f 146/147/138 150/151/139 149/150/119
f 151/152/140 149/150/119 150/151/139
f 150/151/139 152/153/141 151/152/140
f 153/154/142 154/155/143 155/156/144
f 155/156/144 156/157/145 153/154/142
f 154/155/143 151/152/140 152/153/141
f 152/153/141 155/156/144 154/155/143
f 246/158/146 248/159/147 157/160/148
f 157/160/148 158/161/149 246/158/146
f 247/162/150 246/158/146 158/161/149
f 158/161/149 159/163/151 247/162/150
f 147/148/122 160/164/132 161/165/132
f 161/165/132 148/149/133 147/148/122
f 162/166/132 161/165/132 160/164/132
f 163/167/132 164/168/132 165/169/132
f 166/170/132 163/167/132 165/169/132
f 164/168/132 167/171/132 165/169/132
f 167/171/132 171/172/132 165/169/132
f 168/173/132 165/169/132 169/174/132
f 170/175/132 169/174/132 165/169/132
f 171/172/132 170/175/132 165/169/132
f 169/174/132 172/176/132 168/173/132
f 172/176/132 173/177/132 168/173/132
f 174/178/132 175/179/132 168/173/132
f 173/177/132 174/178/132 168/173/132
f 204/180/152 202/181/153 176/182/154
f 177/183/155 176/182/154 202/181/153
f 202/181/153 178/184/156 177/183/155
f 179/185/157 177/183/155 178/184/156
f 211/159/158 180/186/159 181/187/160
f 182/188/161 181/187/160 180/186/159
f 178/184/156 211/159/158 179/185/157
f 181/187/160 179/185/157 211/159/158
f 183/189/162 184/190/163 185/191/164
f 185/191/164 186/192/164 183/189/162
f 187/193/132 188/194/132 184/190/163
f 184/190/163 183/189/162 187/193/132
f 189/195/132 190/196/132 191/197/132
f 189/195/132 191/197/132 192/198/132
f 193/199/132 194/200/132 195/201/132
f 193/199/132 195/201/132 196/202/132
f 197/203/132 198/204/132 199/205/132
f 199/205/132 200/206/132 197/203/132
f 201/207/132 202/208/132 192/198/132
f 192/198/132 191/197/132 201/207/132
f 203/209/132 178/210/132 196/202/132
f 196/202/132 195/201/132 203/209/132
f 204/211/132 205/212/132 197/203/132
f 197/203/132 200/206/132 204/211/132
f 206/213/132 207/214/132 208/215/132
f 208/215/132 209/216/132 206/213/132
f 207/214/132 210/217/132 211/218/132
f 211/218/132 208/215/132 207/214/132
f 212/219/132 213/220/132 190/196/132
f 190/196/132 189/195/132 212/219/132
f 214/221/132 215/222/132 194/200/132
f 194/200/132 193/199/132 214/221/132
f 216/223/132 217/224/132 199/205/132
f 199/205/132 198/204/132 216/223/132
f 218/225/132 219/166/132 206/213/132
f 206/213/132 209/216/132 218/225/132
f 185/226/165 186/227/165 197/214/165
f 205/228/165 197/214/165 186/227/165
f 185/226/132 220/229/132 197/214/132
f 198/230/132 197/214/132 220/229/132
f 220/229/132 221/231/132 198/230/132
f 216/166/132 198/230/132 221/231/132
f 222/232/166 223/233/167 224/234/168
f 224/234/168 225/235/169 222/232/166
f 226/236/170 222/232/166 225/235/169
f 225/235/169 227/237/171 226/236/170
f 228/238/172 229/239/173 223/233/167
f 223/233/167 222/232/166 228/238/172
f 230/240/174 228/238/172 222/232/166
f 222/232/166 226/236/170 230/240/174
f 231/241/175 232/242/176 229/239/173
f 229/239/173 228/238/172 231/241/175
f 233/243/177 231/241/175 228/238/172
f 228/238/172 230/240/174 233/243/177
f 234/244/178 235/245/179 232/242/176
f 232/242/176 231/241/175 234/244/178
f 236/246/180 234/244/178 231/241/175
f 231/241/175 233/243/177 236/246/180
f 237/247/181 238/248/182 235/245/179
f 235/245/179 234/244/178 237/247/181
f 239/249/183 237/247/181 234/244/178
f 234/244/178 236/246/180 239/249/183
f 240/250/184 241/251/185 238/248/182
f 238/248/182 237/247/181 240/250/184
f 242/252/186 240/250/184 237/247/181
f 237/247/181 239/249/183 242/252/186
f 243/253/187 244/254/188 241/251/185
f 241/251/185 240/250/184 243/253/187
f 245/255/189 243/253/187 240/250/184
f 240/250/184 242/252/186 245/255/189
f 246/256/146 247/257/150 244/254/188
f 244/254/188 243/253/187 246/256/146
f 248/258/147 246/256/146 243/253/187
f 243/253/187 245/255/189 248/258/147
