# Blender 4.4.3
# www.blender.org
mtllib ROADGRID.mtl
o ROADGRID
v 92.854546 -1.696764 5.816916
v 95.365372 -1.696764 5.816916
v 95.365372 -1.699357 3.270967
v 95.365433 -1.696764 -4.366974
v 92.854546 -1.696764 -4.366974
v 92.854546 -1.673551 -1.820982
v 97.876213 -1.696764 5.816916
v 100.387047 -1.696764 5.816916
v 100.387062 -1.713286 3.270967
v 100.387085 -1.696764 -4.366974
v 97.876205 -1.696764 -4.366974
v 97.876205 -1.686411 -1.820982
v 92.854546 -1.696769 6.265744
v 95.365372 -1.696769 6.265744
v 102.897873 -1.696763 -4.366974
v 105.408752 -1.696763 -4.366974
v 105.408752 -1.696763 -4.815807
v 102.897919 -1.696763 -4.815807
v 102.897881 -1.696763 5.816916
v 105.408691 -1.696763 5.816916
v 105.408707 -1.718582 3.270967
v 102.897873 -1.694221 -1.820982
v 107.919525 -1.696763 5.816916
v 110.430374 -1.696763 5.816916
v 110.430374 -1.724587 3.270967
v 110.430405 -1.696763 -4.366974
v 107.919525 -1.696763 -4.366974
v 107.919525 -1.709234 -1.820982
v 117.962860 -1.696762 -4.366974
v 120.473740 -1.696762 -4.366974
v 120.473740 -1.696761 -4.815807
v 117.962906 -1.696761 -4.815807
v 112.941193 -1.696761 5.816916
v 115.452042 -1.696761 5.816916
v 115.452049 -1.720371 3.270967
v 115.452072 -1.696762 -4.366974
v 112.941193 -1.696762 -4.366974
v 112.941193 -1.719782 -1.820982
v 117.962860 -1.696761 5.816916
v 120.473679 -1.696761 5.816916
v 120.473694 -1.705046 3.270967
v 117.962860 -1.715792 -1.820982
v 117.962860 -1.713747 3.270967
v 120.473694 -1.705232 0.724993
v 117.962860 -1.713927 0.724993
v 120.473724 -1.708512 -1.820982
v 112.941193 -1.724056 3.270967
v 115.452049 -1.719923 0.724993
v 112.941193 -1.722329 0.724993
v 115.452065 -1.719760 -1.820982
v 107.919525 -1.722401 3.270967
v 110.430374 -1.721014 0.724993
v 107.919525 -1.716602 0.724993
v 110.430397 -1.715980 -1.820982
v 102.897873 -1.714868 3.270967
v 105.408707 -1.710476 0.724993
v 102.897873 -1.704774 0.724993
v 105.408730 -1.701182 -1.820982
v 97.876205 -1.708207 3.270967
v 100.387062 -1.702018 0.724993
v 97.876205 -1.696560 0.724993
v 100.387070 -1.691132 -1.820982
v 92.854546 -1.689678 3.270967
v 95.365395 -1.688168 0.724993
v 92.854546 -1.679890 0.724993
v 95.365402 -1.679622 -1.820982
v 122.984573 -1.696761 -4.815807
v 107.919571 -1.696762 -4.815807
v 100.387085 -1.696763 -4.815807
v 220.907074 -2.254913 5.816920
v 223.417877 -2.303314 5.816918
v 220.907043 -2.230548 3.270970
v 223.417877 -2.303315 -4.366970
v 220.907013 -2.254913 -4.366970
v 223.417877 -2.281746 -1.820980
v 215.885391 -2.160868 5.816920
v 218.396225 -2.207372 5.816923
v 215.885376 -2.136074 3.270970
v 218.396225 -2.207374 -4.366966
v 215.885345 -2.160869 -4.366966
v 218.396225 -2.191753 -1.820980
v 210.863724 -2.071661 5.816920
v 213.374573 -2.115573 5.816923
v 210.863724 -2.056606 3.270970
v 213.374573 -2.115575 -4.366966
v 210.863693 -2.071661 -4.366970
v 213.374573 -2.114493 -1.820980
v 205.842087 -1.988675 5.816920
v 208.352921 -2.029304 5.816918
v 205.842072 -1.982609 3.270970
v 208.352921 -2.029305 -4.366975
v 205.842026 -1.988675 -4.366975
v 208.352936 -2.039023 -1.820995
v 200.820404 -1.913300 5.816920
v 203.331253 -1.949950 5.816920
v 200.820389 -1.909513 3.270970
v 203.331253 -1.949951 -4.366970
v 200.820374 -1.913300 -4.366970
v 203.331268 -1.964642 -1.820980
v 195.798767 -1.846920 5.816918
v 198.309586 -1.878899 5.816920
v 195.798752 -1.838634 3.270970
v 198.309586 -1.878900 -4.366966
v 195.798706 -1.846921 -4.366970
v 198.309586 -1.891557 -1.820980
v 180.733780 -1.715636 5.816918
v 183.244583 -1.729437 5.816914
v 180.733765 -1.715607 3.270970
v 183.244598 -1.729439 -4.366970
v 180.733719 -1.715638 -4.366970
v 183.244598 -1.734743 -1.820980
v 175.712112 -1.699116 5.816914
v 178.222946 -1.705472 5.816918
v 175.712097 -1.710502 3.270970
v 178.222961 -1.705473 -4.366970
v 175.712067 -1.699118 -4.366975
v 178.222946 -1.711449 -1.820980
v 190.777115 -1.790926 5.816920
v 193.287918 -1.817538 5.816918
v 190.777100 -1.776881 3.270970
v 193.287918 -1.817540 -4.366975
v 190.777054 -1.790927 -4.366970
v 193.287918 -1.823781 -1.820995
v 185.755447 -1.746703 5.816918
v 188.266251 -1.767256 5.816920
v 185.755432 -1.735561 3.270970
v 188.266266 -1.767257 -4.366975
v 185.755386 -1.746703 -4.366975
v 188.266266 -1.770451 -1.820995
v 175.712097 -1.707502 0.724995
v 178.222946 -1.711514 3.270970
v 178.222946 -1.712156 0.724995
v 175.712082 -1.704043 -1.820980
v 180.733749 -1.719679 0.724980
v 183.244583 -1.723370 3.270970
v 183.244583 -1.730354 0.724980
v 180.733734 -1.721680 -1.820980
v 185.755417 -1.744675 0.724995
v 188.266266 -1.753104 3.270970
v 188.266266 -1.763337 0.724980
v 185.755417 -1.750857 -1.820980
v 190.777084 -1.787301 0.724995
v 193.287918 -1.805967 3.270970
v 193.287918 -1.816332 0.724980
v 190.777084 -1.794566 -1.820995
v 195.798752 -1.848834 0.724995
v 198.309586 -1.873496 3.270970
v 198.309586 -1.883499 0.724995
v 195.798737 -1.856550 -1.820995
v 200.820404 -1.919350 0.724995
v 203.331253 -1.945997 3.270970
v 203.331253 -1.955751 0.724995
v 200.820389 -1.927808 -1.820980
v 205.842056 -1.992394 0.724995
v 208.352921 -2.019359 3.270970
v 208.352921 -2.029316 0.724980
v 205.842056 -2.001716 -1.820980
v 210.863724 -2.066880 0.724980
v 213.374557 -2.095028 3.270970
v 213.374573 -2.104975 0.724995
v 210.863708 -2.076872 -1.820995
v 215.885376 -2.144346 0.724995
v 218.396225 -2.181050 3.270970
v 218.396225 -2.186669 0.724995
v 215.885361 -2.152112 -1.820980
v 220.907043 -2.232917 0.724995
v 223.417877 -2.284456 3.270970
v 223.417877 -2.283367 0.724980
v 220.907028 -2.234751 -1.820980
v 173.201279 -1.696745 5.816916
v 173.201279 -1.712154 3.270970
v 173.201279 -1.705641 0.724980
v 173.201279 -1.699662 -1.820995
v 173.201294 -1.696746 -4.366970
v 122.984528 -1.696761 5.816916
v 125.495338 -1.696761 5.816916
v 125.495346 -1.690102 3.270967
v 125.495399 -1.696761 -4.366975
v 122.984528 -1.696761 -4.366974
v 122.984528 -1.699318 -1.820982
v 128.006165 -1.696761 5.816916
v 130.517014 -1.696761 5.816916
v 130.517029 -1.692909 3.270967
v 130.517059 -1.696761 -4.366975
v 128.006165 -1.696761 -4.366975
v 128.006165 -1.690453 -1.820982
v 133.027832 -1.696760 5.816916
v 135.538666 -1.696760 5.816916
v 135.538681 -1.703870 3.270967
v 135.538712 -1.696760 -4.366975
v 133.027832 -1.696760 -4.366975
v 133.027832 -1.694924 -1.820982
v 138.049484 -1.696760 5.816916
v 140.560318 -1.696760 5.816916
v 140.560333 -1.710498 3.270967
v 140.560379 -1.696760 -4.366975
v 138.049484 -1.696760 -4.366975
v 138.049484 -1.702064 -1.820982
v 143.071152 -1.696759 5.816916
v 145.582001 -1.696759 5.816916
v 145.582001 -1.700938 3.270967
v 145.582031 -1.696759 -4.366975
v 143.071152 -1.696759 -4.366975
v 143.071136 -1.700673 -1.820982
v 148.092819 -1.696759 5.816916
v 150.603638 -1.696759 5.816916
v 150.603653 -1.685670 3.270967
v 150.603699 -1.696759 -4.366975
v 148.092819 -1.696759 -4.366975
v 148.092819 -1.683652 -1.820982
v 163.157822 -1.696758 5.816915
v 165.668625 -1.696756 5.816915
v 165.668640 -1.712299 3.270967
v 165.668686 -1.696757 -4.366976
v 163.157806 -1.696757 -4.366975
v 163.157806 -1.683909 -1.820982
v 168.179459 -1.696756 5.816915
v 170.690292 -1.696756 5.816915
v 170.690308 -1.714441 3.270967
v 170.690338 -1.696757 -4.366976
v 168.179443 -1.696757 -4.366976
v 168.179459 -1.693956 -1.820982
v 153.114487 -1.696759 5.816916
v 155.625290 -1.696758 5.816916
v 155.625305 -1.683948 3.270967
v 155.625351 -1.696758 -4.366975
v 153.114487 -1.696759 -4.366975
v 153.114487 -1.669859 -1.820982
v 158.136154 -1.696758 5.816916
v 160.646957 -1.696758 5.816916
v 160.646957 -1.696715 3.270967
v 160.647018 -1.696758 -4.366975
v 158.136139 -1.696758 -4.366975
v 158.136139 -1.670827 -1.820982
v 168.179459 -1.714715 3.270967
v 170.690308 -1.704928 0.724993
v 168.179459 -1.703129 0.724993
v 170.690323 -1.696949 -1.820982
v 163.157822 -1.705377 3.270967
v 165.668655 -1.699890 0.724993
v 163.157822 -1.692907 0.724993
v 165.668671 -1.690519 -1.820982
v 158.136139 -1.688954 3.270967
v 160.646988 -1.684796 0.724993
v 158.136139 -1.678105 0.724993
v 160.646988 -1.676540 -1.820982
v 153.114487 -1.682761 3.270967
v 155.625320 -1.674545 0.724993
v 153.114487 -1.674995 0.724993
v 155.625336 -1.668350 -1.820982
v 148.092819 -1.692163 3.270967
v 150.603668 -1.679495 0.724993
v 148.092819 -1.687254 0.724993
v 150.603668 -1.675266 -1.820982
v 143.071136 -1.708405 3.270967
v 145.582001 -1.696645 0.724993
v 143.071136 -1.704030 0.724993
v 145.582016 -1.693263 -1.820982
v 138.049484 -1.708490 3.270967
v 140.560333 -1.706015 0.724993
v 138.049484 -1.704036 0.724993
v 140.560349 -1.703156 -1.820982
v 133.027832 -1.698162 3.270967
v 135.538681 -1.699670 0.724993
v 133.027832 -1.694471 0.724993
v 135.538681 -1.698848 -1.820982
v 128.006165 -1.689689 3.270967
v 130.517029 -1.689963 0.724993
v 128.006165 -1.687650 0.724993
v 130.517029 -1.691676 -1.820982
v 122.984528 -1.695781 3.270967
v 125.495361 -1.689006 0.724993
v 122.984528 -1.695485 0.724993
v 125.495361 -1.692573 -1.820982
v 173.201126 -1.696756 5.816915
v 173.201126 -1.712165 3.270967
v 173.201126 -1.705652 0.724993
v 173.201126 -1.699673 -1.820982
v 173.201111 -1.696756 -4.366976
v -102.990234 -1.656736 5.817059
v -100.479378 -1.669307 5.817064
v -100.479439 -1.652590 3.271114
v -100.479332 -1.669308 -4.366835
v -102.990250 -1.656737 -4.366824
v -102.990273 -1.626110 -1.820821
v -97.968559 -1.679541 5.817067
v -95.457687 -1.687420 5.817067
v -95.457748 -1.690439 3.271114
v -95.457687 -1.687420 -4.366824
v -97.968597 -1.679542 -4.366834
v -97.968605 -1.674319 -1.820836
v -92.946854 -1.692919 5.817066
v -90.436066 -1.696020 5.817066
v -90.436081 -1.707462 3.271114
v -90.436058 -1.696020 -4.366831
v -92.946930 -1.692919 -4.366832
v -92.946938 -1.703373 -1.820836
v -77.881912 -1.696758 5.817061
v -75.371117 -1.696756 5.817061
v -75.371101 -1.711273 3.271114
v -75.371040 -1.696758 -4.366830
v -77.881935 -1.696758 -4.366822
v -77.881935 -1.688482 -1.820836
v -72.860283 -1.696756 5.817061
v -70.349434 -1.696756 5.817060
v -70.349449 -1.723758 3.271114
v -70.349411 -1.696757 -4.366830
v -72.860283 -1.696757 -4.366827
v -72.860291 -1.698561 -1.820836
v -87.925247 -1.696759 5.817057
v -85.414452 -1.696759 5.817069
v -85.414436 -1.707755 3.271114
v -85.414375 -1.696759 -4.366834
v -87.925262 -1.696759 -4.366830
v -87.925247 -1.705615 -1.820836
v -82.903580 -1.696759 5.817060
v -80.392784 -1.696758 5.817060
v -80.392769 -1.705587 3.271114
v -80.392708 -1.696758 -4.366832
v -82.903603 -1.696758 -4.366823
v -82.903603 -1.695172 -1.820836
v -72.860283 -1.718271 3.271114
v -70.349426 -1.712940 0.725139
v -72.860291 -1.707566 0.725139
v -70.349426 -1.703823 -1.820821
v -77.881927 -1.706754 3.271114
v -75.371078 -1.700537 0.725123
v -77.881927 -1.696979 0.725139
v -75.371078 -1.691597 -1.820836
v -82.903603 -1.706345 3.271114
v -80.392746 -1.697969 0.725139
v -82.903603 -1.701475 0.725139
v -80.392746 -1.690411 -1.820836
v -87.925270 -1.708698 3.271114
v -85.414436 -1.705712 0.725139
v -87.925247 -1.709137 0.725139
v -85.414413 -1.700807 -1.820836
v -92.946938 -1.701608 3.271114
v -90.436104 -1.709715 0.725139
v -92.947006 -1.704765 0.725139
v -90.436081 -1.707409 -1.820836
v -97.968605 -1.673530 3.271114
v -95.457809 -1.693440 0.725139
v -97.968674 -1.675251 0.725139
v -95.457726 -1.692537 -1.820836
v -102.990273 -1.630924 3.271114
v -100.479439 -1.652039 0.725139
v -102.990341 -1.627766 0.725139
v -100.479378 -1.650805 -1.820836
v -67.838615 -1.696756 5.817063
v -67.838615 -1.726933 3.271114
v -67.838623 -1.715920 0.725139
v -67.838623 -1.706648 -1.820836
v -67.838615 -1.696757 -4.366825
v -105.500999 -1.641850 5.817066
v -105.501083 -1.610850 3.271114
v -105.501106 -1.605328 0.725139
v -105.501045 -1.603204 -1.820836
v -105.500984 -1.641851 -4.366826
v 15.018700 -1.696768 5.816917
v 15.018713 -1.679089 3.270968
v 15.018763 -1.696768 -4.366974
v 12.507891 -1.696768 -4.366974
v 17.529533 -1.696768 5.816917
v 20.040367 -1.696766 5.816917
v 20.040380 -1.686494 3.270968
v 20.040430 -1.696767 -4.366974
v 17.529533 -1.696768 -4.366974
v 17.529533 -1.704766 -1.820981
v 22.551201 -1.696766 5.816917
v 25.062023 -1.696766 5.816917
v 25.062035 -1.693873 3.270968
v 25.062084 -1.696767 -4.366974
v 22.551201 -1.696767 -4.366974
v 22.551201 -1.701353 -1.820981
v 22.551201 -1.690231 3.270968
v 25.062048 -1.696488 0.724994
v 22.551201 -1.696330 0.724994
v 25.062048 -1.698542 -1.820981
v 17.529533 -1.682743 3.270968
v 20.040380 -1.695846 0.724994
v 17.529533 -1.694784 0.724994
v 20.040417 -1.703609 -1.820981
v 15.018713 -1.692930 0.724994
v 15.018738 -1.704325 -1.820981
v -37.708710 -1.696773 5.816916
v -35.197876 -1.696773 5.816916
v -35.197865 -1.717859 3.270967
v -35.197838 -1.696773 -4.366974
v -37.708710 -1.696773 -4.366973
v -37.708710 -1.708797 -1.820982
v -32.687065 -1.696772 5.816916
v -30.176231 -1.696772 5.816916
v -30.176220 -1.703535 3.270967
v -30.176170 -1.696772 -4.366974
v -32.687065 -1.696772 -4.366974
v -32.687054 -1.697806 -1.820982
v -27.665398 -1.696772 5.816916
v -25.154577 -1.696772 5.816916
v -25.154552 -1.690083 3.270967
v -25.154514 -1.696772 -4.366974
v -27.665398 -1.696772 -4.366974
v -27.665386 -1.685826 -1.820982
v -22.643744 -1.696772 5.816916
v -20.132923 -1.696771 5.816916
v -20.132910 -1.683084 3.270967
v -20.132860 -1.696771 -4.366974
v -22.643744 -1.696772 -4.366974
v -22.643744 -1.683143 -1.820982
v -17.622076 -1.696771 5.816916
v -15.111255 -1.696771 5.816916
v -15.111242 -1.683978 3.270967
v -15.111193 -1.696771 -4.366974
v -17.622076 -1.696771 -4.366974
v -17.622076 -1.690040 -1.820982
v -12.600421 -1.696771 5.816916
v -10.089600 -1.696769 5.816916
v -10.089587 -1.687175 3.270967
v -10.089537 -1.696770 -4.366974
v -12.600421 -1.696771 -4.366974
v -12.600421 -1.700213 -1.820982
v 2.464582 -1.696769 5.816916
v 4.975390 -1.696769 5.816916
v 4.975404 -1.670697 3.270967
v 4.975453 -1.696769 -4.366975
v 2.464582 -1.696769 -4.366974
v 2.464582 -1.692710 -1.820982
v 7.486224 -1.696769 5.816916
v 9.997046 -1.696768 5.816916
v 9.997046 -1.672757 3.270967
v 9.997109 -1.696768 -4.366975
v 7.486224 -1.696769 -4.366975
v 7.486213 -1.695292 -1.820982
v -7.578753 -1.696769 5.816916
v -5.067932 -1.696769 5.816916
v -5.067919 -1.682892 3.270967
v -5.067870 -1.696770 -4.366974
v -7.578753 -1.696770 -4.366974
v -7.578753 -1.701679 -1.820982
v -2.557085 -1.696769 5.816916
v -0.046264 -1.696769 5.816916
v -0.046251 -1.674948 3.270967
v -0.046202 -1.696769 -4.366974
v -2.557085 -1.696770 -4.366974
v -2.557085 -1.695938 -1.820982
v 7.486213 -1.670961 3.270967
v 9.997071 -1.686751 0.724993
v 7.486213 -1.683818 0.724993
v 9.997083 -1.698393 -1.820982
v 2.464582 -1.672086 3.270967
v 4.975415 -1.681986 0.724993
v 2.464582 -1.681613 0.724993
v 4.975440 -1.693269 -1.820982
v -2.557085 -1.678809 3.270967
v -0.046239 -1.682743 0.724993
v -2.557085 -1.685109 0.724993
v -0.046227 -1.693684 -1.820982
v -7.578753 -1.686128 3.270967
v -5.067907 -1.688130 0.724993
v -7.578753 -1.690913 0.724993
v -5.067894 -1.698901 -1.820982
v -12.600421 -1.685912 3.270967
v -10.089575 -1.692130 0.724993
v -12.600421 -1.690570 0.724993
v -10.089562 -1.702824 -1.820982
v -17.622076 -1.682730 3.270967
v -15.111230 -1.687704 0.724993
v -17.622076 -1.685027 0.724993
v -15.111204 -1.695358 -1.820982
v -22.643744 -1.685523 3.270967
v -20.132896 -1.683621 0.724993
v -22.643744 -1.684163 0.724993
v -20.132896 -1.685639 -1.820982
v -27.665386 -1.696368 3.270967
v -25.154552 -1.686920 0.724993
v -27.665386 -1.691749 0.724993
v -25.154541 -1.683141 -1.820982
v -32.687054 -1.710762 3.270967
v -30.176208 -1.698101 0.724993
v -32.687054 -1.705166 0.724993
v -30.176182 -1.690993 -1.820982
v -35.197865 -1.711941 0.724993
v -37.708710 -1.716997 0.724993
v -35.197849 -1.704220 -1.820982
v 12.507892 -1.696768 5.816916
v 12.507880 -1.675670 3.270967
v 12.507880 -1.690113 0.724993
v 12.507880 -1.701864 -1.820982
v -67.838669 -1.696776 5.816919
v -65.327850 -1.696776 5.816919
v -65.327827 -1.727529 3.270968
v -65.327789 -1.696776 -4.366973
v -67.838661 -1.696776 -4.366973
v -67.838661 -1.706666 -1.820981
v -62.817005 -1.696774 5.816919
v -60.306183 -1.696774 5.816919
v -60.306164 -1.722035 3.270968
v -60.306126 -1.696775 -4.366973
v -62.817009 -1.696775 -4.366973
v -62.817017 -1.704624 -1.820981
v -57.795338 -1.696774 5.816919
v -55.284527 -1.696774 5.816919
v -55.284515 -1.714149 3.270968
v -55.284473 -1.696775 -4.366973
v -57.795341 -1.696775 -4.366973
v -57.795349 -1.696156 -1.820981
v -52.773693 -1.696774 5.816919
v -50.262867 -1.696774 5.816919
v -50.262848 -1.716379 3.270968
v -50.262798 -1.696774 -4.366973
v -52.773689 -1.696774 -4.366973
v -52.773682 -1.692101 -1.820981
v -47.752022 -1.696774 5.816919
v -45.241207 -1.696774 5.816919
v -45.241192 -1.724790 3.270968
v -45.241150 -1.696774 -4.366973
v -47.752022 -1.696774 -4.366973
v -47.752014 -1.700970 -1.820981
v -42.730377 -1.696773 5.816919
v -40.219555 -1.696773 5.816919
v -40.219543 -1.726615 3.270968
v -40.219494 -1.696773 -4.366973
v -42.730377 -1.696773 -4.366973
v -42.730377 -1.709732 -1.820981
v -42.730377 -1.726990 3.270968
v -40.219532 -1.719439 0.724994
v -42.730377 -1.718962 0.724994
v -40.219517 -1.710715 -1.820981
v -47.752014 -1.720802 3.270968
v -45.241180 -1.715846 0.724994
v -47.752014 -1.710966 0.724994
v -45.241161 -1.706180 -1.820981
v -52.773682 -1.713449 3.270968
v -50.262829 -1.705779 0.724994
v -52.773682 -1.702337 0.724994
v -50.262817 -1.695589 -1.820981
v -57.795330 -1.717677 3.270968
v -55.284496 -1.702783 0.724994
v -57.795349 -1.706182 0.724994
v -55.284485 -1.692622 -1.820981
v -62.816998 -1.725682 3.270968
v -60.306152 -1.710534 0.724994
v -62.816998 -1.714280 0.724994
v -60.306133 -1.700683 -1.820981
v -67.838661 -1.726951 3.270968
v -65.327820 -1.716304 0.724994
v -67.838661 -1.715938 0.724994
v -65.327797 -1.706847 -1.820981
v -37.708710 -1.723453 3.270968
vn 0.0010 1.0000 0.0004
vn 0.0006 1.0000 -0.0013
vn 0.0032 1.0000 0.0022
vn 0.0006 1.0000 -0.0073
vn -0.0000 1.0000 -0.0091
vn 0.0018 1.0000 -0.0027
vn 0.0005 1.0000 -0.0050
vn 0.0002 1.0000 -0.0066
vn 0.0011 1.0000 -0.0008
vn 0.0003 1.0000 -0.0018
vn 0.0007 1.0000 -0.0047
vn 0.0021 1.0000 0.0001
vn -0.0000 1.0000 -0.0000
vn 0.0002 1.0000 -0.0007
vn 0.0003 1.0000 0.0005
vn 0.0004 1.0000 -0.0075
vn 0.0004 1.0000 -0.0089
vn 0.0014 1.0000 -0.0026
vn 0.0016 1.0000 0.0019
vn 0.0002 0.9999 -0.0103
vn -0.0001 0.9999 -0.0109
vn 0.0003 1.0000 -0.0047
vn 0.0007 1.0000 0.0069
vn 0.0005 1.0000 0.0027
vn 0.0025 1.0000 0.0043
vn -0.0003 1.0000 0.0052
vn -0.0004 1.0000 0.0027
vn -0.0004 0.9999 -0.0104
vn -0.0007 1.0000 -0.0086
vn -0.0018 1.0000 -0.0048
vn -0.0000 1.0000 0.0090
vn 0.0004 1.0000 0.0087
vn 0.0006 1.0000 0.0051
vn -0.0009 1.0000 -0.0058
vn -0.0009 1.0000 -0.0023
vn -0.0032 1.0000 -0.0021
vn -0.0020 1.0000 0.0031
vn -0.0027 1.0000 -0.0037
vn -0.0036 1.0000 -0.0007
vn -0.0029 1.0000 -0.0004
vn -0.0029 1.0000 0.0013
vn -0.0008 1.0000 -0.0051
vn -0.0016 1.0000 0.0001
vn -0.0002 1.0000 0.0008
vn -0.0007 1.0000 0.0045
vn 0.0011 1.0000 -0.0038
vn 0.0012 1.0000 0.0017
vn 0.0021 1.0000 0.0026
vn 0.0018 1.0000 0.0051
vn 0.0011 1.0000 -0.0016
vn 0.0024 1.0000 0.0034
vn 0.0017 1.0000 0.0041
vn 0.0025 1.0000 0.0032
vn 0.0024 1.0000 0.0005
vn 0.0016 1.0000 0.0044
vn 0.0027 1.0000 0.0043
vn 0.0014 1.0000 0.0011
vn 0.0037 1.0000 0.0035
vn 0.0033 1.0000 0.0039
vn 0.0031 1.0000 0.0034
vn 0.0023 1.0000 -0.0015
vn -0.0010 1.0000 0.0014
vn -0.0026 1.0000 -0.0002
vn -0.0032 1.0000 -0.0007
vn -0.0029 1.0000 -0.0006
vn -0.0006 1.0000 0.0013
vn 0.0193 0.9998 0.0098
vn 0.0204 0.9998 0.0085
vn 0.0202 0.9998 0.0039
vn 0.0193 0.9998 -0.0085
vn 0.0190 0.9998 -0.0081
vn 0.0189 0.9998 -0.0038
vn 0.0179 0.9998 0.0093
vn 0.0186 0.9998 0.0102
vn 0.0171 0.9998 0.0032
vn 0.0183 0.9998 -0.0066
vn 0.0176 0.9998 -0.0041
vn 0.0170 0.9998 -0.0036
vn 0.0167 0.9998 0.0054
vn 0.0172 0.9998 0.0075
vn 0.0154 0.9999 0.0012
vn 0.0170 0.9999 -0.0012
vn 0.0166 0.9999 0.0014
vn 0.0154 0.9999 -0.0017
vn 0.0156 0.9999 0.0022
vn 0.0161 0.9999 0.0035
vn 0.0148 0.9999 -0.0005
vn 0.0161 0.9999 0.0034
vn 0.0155 0.9999 0.0048
vn 0.0151 0.9999 0.0002
vn 0.0143 0.9999 0.0016
vn 0.0150 0.9999 0.0015
vn 0.0144 0.9999 -0.0012
vn 0.0148 0.9999 0.0056
vn 0.0142 0.9999 0.0057
vn 0.0147 0.9999 0.0011
vn 0.0125 0.9999 0.0036
vn 0.0135 0.9999 0.0024
vn 0.0133 0.9999 -0.0005
vn 0.0134 0.9999 0.0052
vn 0.0125 0.9999 0.0041
vn 0.0140 0.9999 0.0007
vn 0.0042 1.0000 -0.0006
vn 0.0056 1.0000 0.0018
vn 0.0028 1.0000 -0.0003
vn 0.0061 1.0000 0.0020
vn 0.0047 1.0000 0.0023
vn 0.0058 1.0000 0.0001
vn 0.0013 1.0000 -0.0049
vn 0.0028 1.0000 -0.0029
vn 0.0003 1.0000 -0.0012
vn 0.0033 1.0000 0.0024
vn 0.0018 1.0000 0.0020
vn 0.0033 1.0000 0.0011
vn 0.0100 0.9999 0.0055
vn 0.0114 0.9999 0.0048
vn 0.0104 0.9999 0.0006
vn 0.0115 0.9999 0.0028
vn 0.0103 0.9999 0.0017
vn 0.0122 0.9999 -0.0004
vn 0.0070 1.0000 0.0039
vn 0.0085 0.9999 0.0053
vn 0.0062 1.0000 0.0007
vn 0.0089 1.0000 0.0013
vn 0.0074 1.0000 0.0015
vn 0.0087 1.0000 -0.0007
vn 0.0012 1.0000 0.0012
vn 0.0015 1.0000 -0.0008
vn 0.0024 1.0000 -0.0000
vn 0.0021 1.0000 0.0014
vn 0.0036 1.0000 -0.0012
vn 0.0044 1.0000 0.0002
vn 0.0050 1.0000 -0.0022
vn 0.0045 1.0000 0.0007
vn 0.0066 1.0000 -0.0030
vn 0.0083 1.0000 0.0008
vn 0.0085 1.0000 -0.0034
vn 0.0071 1.0000 -0.0004
vn 0.0106 0.9999 -0.0035
vn 0.0121 0.9999 0.0001
vn 0.0123 0.9999 -0.0035
vn 0.0106 0.9999 -0.0007
vn 0.0134 0.9999 -0.0035
vn 0.0140 0.9999 -0.0010
vn 0.0141 0.9999 -0.0035
vn 0.0133 0.9999 0.0002
vn 0.0144 0.9999 -0.0036
vn 0.0147 0.9999 -0.0010
vn 0.0146 0.9999 -0.0036
vn 0.0144 0.9999 0.0011
vn 0.0147 0.9999 -0.0037
vn 0.0150 0.9999 0.0003
vn 0.0148 0.9999 -0.0039
vn 0.0149 0.9999 0.0008
vn 0.0151 0.9999 -0.0039
vn 0.0160 0.9999 0.0023
vn 0.0155 0.9999 -0.0038
vn 0.0153 0.9999 -0.0007
vn 0.0163 0.9999 -0.0031
vn 0.0186 0.9998 0.0038
vn 0.0177 0.9998 -0.0021
vn 0.0159 0.9999 -0.0027
vn 0.0193 0.9998 -0.0008
vn 0.0211 0.9998 0.0036
vn 0.0197 0.9998 0.0002
vn 0.0183 0.9998 -0.0039
vn 0.0009 1.0000 -0.0061
vn -0.0003 1.0000 -0.0013
vn 0.0004 1.0000 0.0021
vn 0.0015 1.0000 0.0015
vn 0.0013 1.0000 0.0015
vn -0.0000 1.0000 0.0027
vn -0.0010 1.0000 0.0013
vn -0.0007 1.0000 -0.0010
vn 0.0003 1.0000 0.0025
vn 0.0005 1.0000 0.0010
vn 0.0001 1.0000 -0.0021
vn -0.0002 1.0000 -0.0023
vn -0.0002 1.0000 -0.0018
vn 0.0006 1.0000 -0.0011
vn 0.0005 1.0000 -0.0033
vn 0.0018 1.0000 -0.0003
vn 0.0004 1.0000 0.0004
vn 0.0003 1.0000 -0.0010
vn 0.0013 1.0000 -0.0003
vn 0.0002 1.0000 -0.0048
vn -0.0002 1.0000 -0.0052
vn -0.0001 1.0000 -0.0017
vn 0.0001 1.0000 0.0024
vn 0.0003 1.0000 0.0018
vn 0.0009 1.0000 0.0014
vn -0.0007 1.0000 -0.0038
vn -0.0009 1.0000 -0.0008
vn -0.0029 1.0000 -0.0003
vn -0.0007 1.0000 -0.0006
vn -0.0002 1.0000 0.0018
vn -0.0016 1.0000 0.0010
vn -0.0006 1.0000 0.0024
vn -0.0003 1.0000 0.0046
vn -0.0016 1.0000 0.0031
vn -0.0008 1.0000 -0.0076
vn -0.0009 1.0000 -0.0042
vn -0.0032 1.0000 -0.0023
vn 0.0007 1.0000 -0.0041
vn 0.0002 1.0000 -0.0063
vn 0.0016 1.0000 -0.0003
vn 0.0007 1.0000 -0.0031
vn 0.0007 1.0000 -0.0058
vn 0.0025 1.0000 -0.0005
vn -0.0000 1.0000 -0.0070
vn -0.0002 1.0000 -0.0067
vn -0.0003 1.0000 -0.0018
vn 0.0003 1.0000 -0.0002
vn 0.0003 1.0000 -0.0014
vn 0.0011 1.0000 0.0014
vn 0.0001 1.0000 0.0054
vn 0.0005 1.0000 0.0045
vn 0.0011 1.0000 0.0045
vn -0.0001 0.9999 -0.0110
vn -0.0005 0.9999 -0.0100
vn -0.0013 1.0000 -0.0044
vn 0.0008 1.0000 0.0023
vn 0.0009 1.0000 -0.0008
vn 0.0029 1.0000 0.0028
vn 0.0006 1.0000 -0.0085
vn 0.0002 0.9999 -0.0104
vn 0.0014 1.0000 -0.0034
vn 0.0004 1.0000 -0.0012
vn 0.0005 1.0000 0.0034
vn 0.0010 1.0000 0.0041
vn 0.0009 1.0000 0.0018
vn 0.0027 1.0000 0.0012
vn 0.0020 1.0000 0.0043
vn 0.0030 1.0000 0.0042
vn 0.0018 1.0000 0.0008
vn 0.0022 1.0000 0.0040
vn 0.0030 1.0000 0.0039
vn 0.0021 1.0000 0.0035
vn 0.0023 1.0000 -0.0020
vn -0.0003 1.0000 0.0042
vn 0.0006 1.0000 0.0030
vn -0.0010 1.0000 0.0025
vn 0.0001 1.0000 -0.0043
vn -0.0027 1.0000 0.0015
vn -0.0024 1.0000 0.0020
vn -0.0034 1.0000 0.0017
vn -0.0024 1.0000 -0.0037
vn -0.0018 1.0000 -0.0015
vn -0.0034 1.0000 0.0015
vn -0.0019 1.0000 0.0015
vn -0.0029 1.0000 -0.0005
vn 0.0011 1.0000 -0.0012
vn -0.0000 1.0000 0.0015
vn 0.0012 1.0000 0.0013
vn -0.0001 1.0000 0.0017
vn 0.0019 1.0000 0.0007
vn 0.0019 1.0000 0.0010
vn 0.0013 1.0000 0.0007
vn 0.0005 1.0000 0.0018
vn 0.0013 1.0000 0.0003
vn 0.0002 1.0000 -0.0001
vn 0.0008 1.0000 -0.0012
vn -0.0016 1.0000 -0.0005
vn -0.0016 1.0000 -0.0016
vn -0.0000 1.0000 -0.0061
vn -0.0007 1.0000 -0.0020
vn -0.0000 1.0000 0.0028
vn 0.0009 1.0000 0.0019
vn 0.0005 1.0000 0.0006
vn 0.0064 0.9999 0.0092
vn 0.0056 1.0000 0.0055
vn 0.0081 1.0000 0.0037
vn 0.0057 0.9999 -0.0085
vn 0.0063 0.9999 -0.0128
vn 0.0089 0.9999 -0.0051
vn 0.0045 1.0000 0.0015
vn 0.0032 1.0000 -0.0017
vn 0.0052 1.0000 -0.0007
vn 0.0037 1.0000 0.0010
vn 0.0049 1.0000 -0.0034
vn 0.0078 1.0000 -0.0003
vn 0.0020 1.0000 -0.0037
vn 0.0008 1.0000 -0.0045
vn 0.0012 1.0000 -0.0025
vn 0.0009 1.0000 0.0044
vn 0.0022 1.0000 0.0036
vn 0.0029 1.0000 0.0023
vn 0.0004 1.0000 -0.0044
vn 0.0007 1.0000 -0.0064
vn 0.0021 1.0000 -0.0005
vn 0.0003 1.0000 -0.0023
vn -0.0002 1.0000 -0.0031
vn 0.0001 1.0000 0.0002
vn 0.0005 1.0000 -0.0090
vn 0.0003 0.9999 -0.0109
vn 0.0014 1.0000 -0.0029
vn 0.0005 1.0000 0.0023
vn 0.0007 1.0000 -0.0000
vn 0.0022 1.0000 0.0024
vn 0.0001 1.0000 -0.0046
vn -0.0001 1.0000 -0.0042
vn -0.0006 1.0000 -0.0017
vn -0.0005 1.0000 0.0021
vn -0.0001 1.0000 0.0037
vn -0.0010 1.0000 0.0021
vn -0.0001 1.0000 -0.0037
vn 0.0001 1.0000 -0.0036
vn -0.0000 1.0000 -0.0002
vn -0.0005 1.0000 -0.0020
vn -0.0006 1.0000 -0.0001
vn -0.0018 1.0000 0.0006
vn 0.0021 1.0000 -0.0018
vn 0.0017 1.0000 0.0039
vn 0.0025 1.0000 0.0039
vn 0.0015 1.0000 0.0033
vn 0.0010 1.0000 0.0001
vn 0.0022 1.0000 0.0038
vn 0.0006 1.0000 0.0035
vn 0.0017 1.0000 0.0011
vn -0.0005 1.0000 -0.0009
vn -0.0008 1.0000 0.0029
vn -0.0015 1.0000 0.0021
vn -0.0012 1.0000 0.0001
vn -0.0001 1.0000 -0.0023
vn -0.0015 1.0000 0.0013
vn -0.0008 1.0000 0.0006
vn -0.0017 1.0000 0.0014
vn 0.0031 1.0000 -0.0020
vn 0.0009 1.0000 -0.0000
vn 0.0032 1.0000 -0.0003
vn 0.0006 1.0000 0.0025
vn 0.0071 1.0000 0.0013
vn 0.0058 1.0000 -0.0003
vn 0.0081 1.0000 -0.0000
vn 0.0055 1.0000 0.0014
vn 0.0082 0.9999 0.0058
vn 0.0093 1.0000 0.0005
vn 0.0092 1.0000 0.0010
vn 0.0089 1.0000 -0.0027
vn -0.0000 0.9999 -0.0119
vn 0.0010 1.0000 -0.0034
vn 0.0012 1.0000 0.0040
vn 0.0011 1.0000 0.0037
vn 0.0006 1.0000 0.0033
vn 0.0070 0.9999 0.0111
vn 0.0082 0.9999 0.0069
vn 0.0090 1.0000 0.0015
vn 0.0083 0.9999 -0.0064
vn 0.0059 0.9999 -0.0152
vn 0.0003 1.0000 0.0079
vn 0.0004 1.0000 0.0066
vn 0.0012 1.0000 0.0010
vn 0.0002 1.0000 0.0027
vn 0.0003 1.0000 0.0017
vn 0.0004 1.0000 0.0051
vn 0.0004 1.0000 0.0037
vn 0.0011 1.0000 0.0005
vn -0.0001 1.0000 0.0028
vn -0.0000 1.0000 0.0031
vn -0.0000 1.0000 -0.0005
vn 0.0004 1.0000 0.0022
vn -0.0000 1.0000 0.0011
vn 0.0011 1.0000 0.0004
vn -0.0002 1.0000 0.0020
vn -0.0007 1.0000 -0.0004
vn 0.0004 1.0000 -0.0013
vn 0.0001 1.0000 -0.0022
vn -0.0008 1.0000 -0.0003
vn 0.0012 1.0000 0.0007
vn 0.0003 1.0000 -0.0034
vn 0.0006 1.0000 -0.0043
vn -0.0005 1.0000 -0.0004
vn 0.0011 1.0000 0.0015
vn 0.0009 1.0000 -0.0049
vn 0.0012 1.0000 -0.0051
vn 0.0006 1.0000 -0.0007
vn -0.0006 1.0000 -0.0099
vn -0.0007 1.0000 -0.0076
vn -0.0022 1.0000 -0.0033
vn -0.0005 1.0000 0.0034
vn -0.0002 1.0000 0.0049
vn -0.0011 1.0000 0.0038
vn -0.0007 1.0000 -0.0048
vn -0.0007 1.0000 -0.0019
vn -0.0025 1.0000 -0.0007
vn -0.0007 1.0000 -0.0016
vn -0.0006 1.0000 0.0010
vn -0.0023 1.0000 0.0013
vn -0.0006 1.0000 0.0008
vn -0.0005 1.0000 0.0031
vn -0.0018 1.0000 0.0015
vn -0.0003 1.0000 -0.0051
vn -0.0005 1.0000 -0.0038
vn -0.0015 1.0000 -0.0011
vn -0.0002 1.0000 0.0047
vn -0.0000 1.0000 0.0054
vn -0.0003 1.0000 0.0024
vn 0.0002 1.0000 -0.0046
vn -0.0000 1.0000 -0.0054
vn 0.0002 1.0000 -0.0022
vn 0.0002 1.0000 0.0048
vn 0.0006 1.0000 0.0018
vn 0.0005 1.0000 -0.0011
vn 0.0004 1.0000 -0.0031
vn 0.0015 1.0000 -0.0019
vn 0.0001 1.0000 0.0041
vn -0.0001 1.0000 0.0039
vn -0.0000 1.0000 0.0010
vn 0.0003 1.0000 0.0021
vn 0.0005 1.0000 0.0009
vn 0.0013 1.0000 -0.0010
vn -0.0001 1.0000 0.0098
vn -0.0000 0.9999 0.0102
vn 0.0001 1.0000 -0.0014
vn -0.0001 1.0000 -0.0015
vn -0.0001 1.0000 -0.0029
vn 0.0002 1.0000 0.0100
vn 0.0003 1.0000 0.0091
vn 0.0009 1.0000 0.0020
vn 0.0003 1.0000 0.0003
vn 0.0002 1.0000 -0.0008
vn 0.0009 1.0000 -0.0024
vn -0.0003 1.0000 0.0045
vn -0.0004 1.0000 0.0059
vn -0.0012 1.0000 0.0015
vn -0.0003 1.0000 0.0011
vn -0.0001 1.0000 0.0020
vn -0.0006 1.0000 -0.0013
vn -0.0004 1.0000 0.0074
vn -0.0003 1.0000 0.0089
vn -0.0011 1.0000 0.0025
vn -0.0002 1.0000 -0.0010
vn -0.0003 1.0000 -0.0000
vn -0.0009 1.0000 -0.0024
vn 0.0005 1.0000 0.0025
vn 0.0012 1.0000 -0.0050
vn 0.0009 1.0000 -0.0047
vn 0.0011 1.0000 -0.0018
vn -0.0006 1.0000 0.0027
vn -0.0002 1.0000 -0.0040
vn 0.0004 1.0000 -0.0028
vn -0.0013 1.0000 0.0020
vn -0.0008 1.0000 -0.0036
vn -0.0011 1.0000 -0.0033
vn -0.0006 1.0000 -0.0028
vn -0.0008 1.0000 0.0011
vn -0.0012 1.0000 -0.0031
vn -0.0008 1.0000 -0.0031
vn -0.0010 1.0000 -0.0018
vn 0.0006 1.0000 0.0013
vn 0.0001 1.0000 -0.0031
vn 0.0009 1.0000 -0.0028
vn 0.0003 1.0000 -0.0009
vn 0.0003 1.0000 0.0022
vn 0.0011 1.0000 -0.0023
vn 0.0009 1.0000 -0.0015
vn 0.0017 1.0000 -0.0014
vn -0.0011 1.0000 0.0022
vn 0.0002 1.0000 -0.0006
vn -0.0006 1.0000 0.0004
vn 0.0010 1.0000 -0.0022
vn -0.0023 1.0000 0.0006
vn -0.0014 1.0000 0.0013
vn -0.0022 1.0000 0.0020
vn -0.0006 1.0000 -0.0018
vn -0.0025 1.0000 -0.0020
vn -0.0026 1.0000 0.0024
vn -0.0028 1.0000 0.0025
vn -0.0021 1.0000 -0.0000
vn -0.0016 1.0000 -0.0042
vn -0.0024 1.0000 0.0027
vn -0.0015 1.0000 0.0029
vn -0.0019 1.0000 0.0027
vn 0.0001 0.9999 -0.0120
vn -0.0002 0.9999 -0.0119
vn -0.0003 1.0000 -0.0038
vn -0.0000 1.0000 0.0039
vn 0.0001 1.0000 0.0038
vn -0.0004 0.9999 -0.0110
vn -0.0004 1.0000 -0.0095
vn -0.0014 1.0000 -0.0029
vn -0.0004 1.0000 0.0019
vn -0.0002 1.0000 0.0033
vn -0.0010 1.0000 0.0032
vn -0.0003 1.0000 -0.0079
vn -0.0001 1.0000 -0.0068
vn -0.0007 1.0000 -0.0014
vn -0.0004 1.0000 0.0002
vn -0.0014 1.0000 0.0017
vn 0.0003 1.0000 -0.0068
vn 0.0004 1.0000 -0.0081
vn 0.0014 1.0000 -0.0017
vn 0.0003 1.0000 -0.0008
vn -0.0001 1.0000 -0.0018
vn 0.0004 1.0000 0.0013
vn 0.0004 1.0000 -0.0098
vn 0.0002 0.9999 -0.0112
vn 0.0011 1.0000 -0.0036
vn 0.0005 1.0000 0.0032
vn 0.0005 1.0000 0.0011
vn 0.0018 1.0000 0.0031
vn -0.0000 0.9999 -0.0118
vn -0.0003 0.9999 -0.0114
vn -0.0007 1.0000 -0.0045
vn 0.0004 1.0000 0.0047
vn 0.0008 1.0000 0.0044
vn 0.0003 1.0000 -0.0043
vn -0.0004 1.0000 0.0031
vn 0.0007 1.0000 0.0034
vn -0.0001 1.0000 0.0044
vn 0.0015 1.0000 -0.0026
vn 0.0016 1.0000 0.0037
vn 0.0020 1.0000 0.0039
vn 0.0016 1.0000 0.0039
vn 0.0005 1.0000 -0.0012
vn 0.0006 1.0000 0.0042
vn 0.0015 1.0000 0.0020
vn -0.0013 1.0000 -0.0021
vn -0.0008 1.0000 0.0042
vn -0.0016 1.0000 0.0042
vn -0.0010 1.0000 -0.0035
vn -0.0011 1.0000 0.0041
vn -0.0015 1.0000 0.0025
vn 0.0002 1.0000 -0.0037
vn -0.0003 1.0000 0.0041
vn 0.0001 1.0000 0.0040
vn -0.0003 1.0000 0.0037
vt 0.000500 1.059266
vt 0.062937 1.059266
vt 0.062937 1.279633
vt 0.062938 1.940734
vt 0.000500 1.940735
vt 0.000500 1.720367
vt 0.125374 1.059266
vt 0.187812 1.059266
vt 0.187812 1.279633
vt 0.187813 1.940734
vt 0.125375 1.940734
vt 0.125375 1.720367
vt 0.000500 1.002118
vt 0.062937 1.002117
vt 0.250250 1.940734
vt 0.312688 1.940734
vt 0.312688 1.997883
vt 0.250251 1.997883
vt 0.250250 1.059266
vt 0.312687 1.059266
vt 0.312687 1.279633
vt 0.250250 1.720367
vt 0.375124 1.059266
vt 0.437562 1.059266
vt 0.437563 1.279633
vt 0.437563 1.940734
vt 0.375125 1.940734
vt 0.375125 1.720367
vt 0.624875 1.940734
vt 0.687313 1.940734
vt 0.687313 1.997883
vt 0.624876 1.997883
vt 0.500000 1.059265
vt 0.562437 1.059265
vt 0.562438 1.279633
vt 0.562438 1.940734
vt 0.500000 1.940734
vt 0.500000 1.720367
vt 0.624875 1.059265
vt 0.687312 1.059265
vt 0.687312 1.279633
vt 0.624875 1.720367
vt 0.624875 1.279633
vt 0.687313 1.500000
vt 0.624875 1.500000
vt 0.687313 1.720367
vt 0.500000 1.279633
vt 0.562438 1.500000
vt 0.500000 1.500000
vt 0.562438 1.720367
vt 0.375124 1.279633
vt 0.437563 1.500000
vt 0.375124 1.500000
vt 0.437563 1.720367
vt 0.250250 1.279633
vt 0.312688 1.500000
vt 0.250250 1.500000
vt 0.312688 1.720367
vt 0.125375 1.279633
vt 0.187813 1.500000
vt 0.125375 1.500000
vt 0.187813 1.720367
vt 0.000500 1.279633
vt 0.062938 1.500000
vt 0.000500 1.500000
vt 0.062938 1.720367
vt 0.749750 1.059265
vt 0.749750 1.279633
vt 0.749750 1.500000
vt 0.749750 1.720366
vt 0.749750 1.940734
vt 0.749751 1.997883
vt 0.375126 1.997883
vt 0.187813 1.997883
vt 0.187813 1.059265
vt 0.250250 1.059265
vt 0.187813 1.279632
vt 0.187812 1.940734
vt 0.250250 1.720366
vt 0.062938 1.059265
vt 0.125376 1.059265
vt 0.062938 1.279632
vt 0.125376 1.940733
vt 0.062937 1.940733
vt 0.125376 1.720366
vt 0.937063 1.059266
vt 0.999500 1.059266
vt 0.937062 1.279633
vt 0.999500 1.940735
vt 0.937062 1.940734
vt 0.999500 1.720367
vt 0.812188 1.059266
vt 0.874626 1.059266
vt 0.812188 1.279633
vt 0.874625 1.940734
vt 0.812186 1.940734
vt 0.874625 1.720367
vt 0.687313 1.059266
vt 0.749750 1.059266
vt 0.687312 1.940734
vt 0.749750 1.720367
vt 0.562438 1.059266
vt 0.624876 1.059266
vt 0.562437 1.940734
vt 0.437563 1.059265
vt 0.437562 1.940734
vt 0.312688 1.059265
vt 0.375125 1.059265
vt 0.312688 1.279633
vt 0.312687 1.940734
vt 0.062938 1.499999
vt 0.125376 1.279632
vt 0.125376 1.499999
vt 0.062937 1.720366
vt 0.187813 1.499999
vt 0.250250 1.279632
vt 0.187812 1.720366
vt 0.375125 1.279633
vt 0.375125 1.500000
vt 0.312687 1.720367
vt 0.437562 1.720367
vt 0.562437 1.500000
vt 0.624876 1.279633
vt 0.562437 1.720367
vt 0.687312 1.500000
vt 0.687312 1.720367
vt 0.812187 1.500000
vt 0.874626 1.279633
vt 0.874625 1.500000
vt 0.812187 1.720367
vt 0.937062 1.500000
vt 0.999500 1.279633
vt 0.999500 1.500000
vt 0.937062 1.720367
vt 0.062937 1.499999
vt 0.000501 1.059265
vt 0.000501 1.279632
vt 0.000501 1.499999
vt 0.000501 1.720366
vt 0.000501 1.940733
vt 0.812187 1.059265
vt 0.812187 1.279632
vt 0.812188 1.940734
vt 0.874624 1.059265
vt 0.937062 1.059265
vt 0.937062 1.279632
vt 0.937063 1.940733
vt 0.874624 1.940733
vt 0.874624 1.720366
vt 0.062938 1.279633
vt 0.187814 1.940734
vt 0.437562 1.279633
vt 0.562437 1.279633
vt 0.874624 1.279632
vt 0.937062 1.499999
vt 0.874624 1.499999
vt 0.937063 1.720366
vt 0.749750 1.279632
vt 0.812187 1.499999
vt 0.812188 1.720366
vt 0.937063 1.499999
vt 0.999499 1.059265
vt 0.999499 1.279632
vt 0.999499 1.499999
vt 0.999499 1.720366
vt 0.999499 1.940733
vt 3.196211 1.057607
vt 3.133562 1.057606
vt 3.133563 1.278799
vt 3.133560 1.942383
vt 3.196211 1.942382
vt 3.196212 1.721186
vt 3.070913 1.057606
vt 3.008264 1.057606
vt 3.008265 1.278798
vt 3.008264 1.942382
vt 3.070914 1.942383
vt 3.070915 1.721187
vt 2.945615 1.057606
vt 2.882968 1.057606
vt 2.882968 1.278798
vt 2.882967 1.942383
vt 2.945617 1.942383
vt 2.945617 1.721187
vt 2.569726 1.057606
vt 2.507078 1.057606
vt 2.507078 1.278798
vt 2.507076 1.942382
vt 2.569726 1.942382
vt 2.569726 1.721186
vt 2.444429 1.057606
vt 2.381781 1.057606
vt 2.381781 1.278798
vt 2.381780 1.942382
vt 2.444429 1.942382
vt 2.444430 1.721186
vt 2.820320 1.057607
vt 2.757672 1.057606
vt 2.757672 1.278798
vt 2.757670 1.942383
vt 2.820320 1.942383
vt 2.820320 1.721187
vt 2.695023 1.057606
vt 2.632375 1.057606
vt 2.632375 1.278798
vt 2.632373 1.942383
vt 2.695023 1.942382
vt 2.695023 1.721187
vt 2.444429 1.278798
vt 2.381780 1.499992
vt 2.444430 1.499992
vt 2.381780 1.721185
vt 2.569726 1.278798
vt 2.507077 1.499994
vt 2.569726 1.499992
vt 2.507077 1.721186
vt 2.695023 1.278798
vt 2.632374 1.499992
vt 2.695023 1.499992
vt 2.632374 1.721187
vt 2.820320 1.278798
vt 2.757672 1.499992
vt 2.820320 1.499992
vt 2.757671 1.721187
vt 2.945617 1.278798
vt 2.882969 1.499992
vt 2.945619 1.499993
vt 2.882968 1.721187
vt 3.070915 1.278798
vt 3.008267 1.499993
vt 3.070916 1.499993
vt 3.008265 1.721187
vt 3.196212 1.278799
vt 3.133563 1.499993
vt 3.196213 1.499993
vt 3.133561 1.721187
vt 2.319132 1.057606
vt 2.319132 1.278798
vt 2.319133 1.499992
vt 2.319133 1.721186
vt 2.319132 1.942382
vt 3.258857 1.057606
vt 3.258859 1.278799
vt 3.258860 1.499993
vt 3.258858 1.721187
vt 3.258857 1.942383
vt 0.314383 1.057617
vt 0.251735 1.057617
vt 0.251735 1.278809
vt 0.251734 1.942393
vt 0.314383 1.942393
vt 0.314383 1.721197
vt 0.189086 1.057617
vt 0.126438 1.057617
vt 0.126438 1.278809
vt 0.126437 1.942393
vt 0.189086 1.942393
vt 0.189086 1.721197
vt 0.063790 1.057617
vt 0.001141 1.057616
vt 0.001141 1.278808
vt 0.001140 1.942393
vt 0.063789 1.942393
vt 0.063790 1.721197
vt 0.063790 1.278809
vt 0.001141 1.500003
vt 0.063790 1.500003
vt 0.001141 1.721197
vt 0.189086 1.278809
vt 0.126438 1.500003
vt 0.189086 1.500003
vt 0.126437 1.721197
vt 0.314383 1.278809
vt 0.251735 1.500003
vt 0.314383 1.500003
vt 0.251734 1.721197
vt 1.567352 1.057618
vt 1.504704 1.057618
vt 1.504703 1.278810
vt 1.504703 1.942394
vt 1.567352 1.942394
vt 1.567352 1.721198
vt 1.442056 1.057618
vt 1.379407 1.057618
vt 1.379407 1.278810
vt 1.379405 1.942394
vt 1.442055 1.942394
vt 1.442055 1.721198
vt 1.316758 1.057618
vt 1.254110 1.057618
vt 1.254110 1.278810
vt 1.254109 1.942394
vt 1.316758 1.942394
vt 1.316758 1.721198
vt 1.191462 1.057618
vt 1.128814 1.057618
vt 1.128813 1.278810
vt 1.128812 1.942394
vt 1.191462 1.942394
vt 1.191462 1.721198
vt 1.066165 1.057618
vt 1.003516 1.057617
vt 1.003516 1.278809
vt 1.003515 1.942394
vt 1.066165 1.942394
vt 1.066165 1.721198
vt 0.940868 1.057617
vt 0.878220 1.057617
vt 0.878219 1.278809
vt 0.878218 1.942393
vt 0.940868 1.942393
vt 0.940868 1.721198
vt 0.564977 1.057617
vt 0.502329 1.057617
vt 0.502329 1.278809
vt 0.502327 1.942393
vt 0.564977 1.942393
vt 0.564977 1.721197
vt 0.439680 1.057617
vt 0.377032 1.057617
vt 0.377032 1.278809
vt 0.377030 1.942393
vt 0.439680 1.942393
vt 0.439680 1.721197
vt 0.815571 1.057617
vt 0.752923 1.057617
vt 0.752922 1.278809
vt 0.752921 1.942393
vt 0.815571 1.942393
vt 0.815571 1.721198
vt 0.690274 1.057617
vt 0.627625 1.057617
vt 0.627625 1.278809
vt 0.627624 1.942393
vt 0.690274 1.942393
vt 0.690274 1.721197
vt 0.439680 1.278809
vt 0.377031 1.500003
vt 0.439680 1.500003
vt 0.377031 1.721197
vt 0.564977 1.278809
vt 0.502328 1.500003
vt 0.564977 1.500003
vt 0.502327 1.721197
vt 0.690274 1.278809
vt 0.627625 1.500003
vt 0.690274 1.500003
vt 0.627625 1.721197
vt 0.815571 1.278809
vt 0.752922 1.500003
vt 0.815571 1.500003
vt 0.752921 1.721198
vt 0.940868 1.278809
vt 0.878219 1.500003
vt 0.940868 1.500003
vt 0.878219 1.721198
vt 1.066165 1.278810
vt 1.003516 1.500004
vt 1.066165 1.500004
vt 1.003515 1.721198
vt 1.191462 1.278810
vt 1.128813 1.500004
vt 1.191462 1.500004
vt 1.128813 1.721198
vt 1.316758 1.278810
vt 1.254110 1.500004
vt 1.316758 1.500004
vt 1.254109 1.721198
vt 1.442055 1.278810
vt 1.379406 1.500004
vt 1.442055 1.500004
vt 1.379406 1.721198
vt 1.567352 1.278810
vt 1.504703 1.500004
vt 1.567352 1.500004
vt 1.504703 1.721198
vt 2.319134 1.057618
vt 2.256485 1.057618
vt 2.256485 1.278810
vt 2.256484 1.942394
vt 2.319133 1.942394
vt 2.319133 1.721199
vt 2.193836 1.057618
vt 2.131188 1.057618
vt 2.131188 1.278810
vt 2.131187 1.942394
vt 2.193837 1.942394
vt 2.193837 1.721199
vt 2.068539 1.057618
vt 2.005892 1.057618
vt 2.005891 1.278810
vt 2.005890 1.942394
vt 2.068540 1.942394
vt 2.068540 1.721199
vt 1.943243 1.057618
vt 1.880595 1.057618
vt 1.880594 1.278810
vt 1.880593 1.942394
vt 1.943243 1.942394
vt 1.943243 1.721198
vt 1.817946 1.057618
vt 1.755298 1.057618
vt 1.755297 1.278810
vt 1.755296 1.942394
vt 1.817946 1.942394
vt 1.817945 1.721198
vt 1.692649 1.057618
vt 1.630001 1.057618
vt 1.630001 1.278810
vt 1.629999 1.942394
vt 1.692649 1.942394
vt 1.692649 1.721198
vt 1.692649 1.278810
vt 1.630000 1.500004
vt 1.692649 1.500004
vt 1.630000 1.721198
vt 1.817946 1.278810
vt 1.755297 1.500004
vt 1.817945 1.500004
vt 1.755296 1.721198
vt 1.943243 1.278810
vt 1.880594 1.500004
vt 1.943243 1.500004
vt 1.880593 1.721198
vt 2.068539 1.278810
vt 2.005891 1.500004
vt 2.068540 1.500004
vt 2.005890 1.721199
vt 2.193836 1.278810
vt 2.131187 1.500004
vt 2.193836 1.500005
vt 2.131187 1.721199
vt 2.319133 1.278810
vt 2.256485 1.500005
vt 2.319133 1.500005
vt 2.256484 1.721199
s 1
usemtl ROADGRID
f 1/1/1 2/2/2 3/3/3
f 4/4/4 5/5/5 6/6/6
f 7/7/7 8/8/8 9/9/9
f 10/10/10 11/11/11 12/12/12
f 13/13/13 14/14/13 2/2/2
f 2/2/2 1/1/1 13/13/13
f 15/15/14 16/16/15 17/17/13
f 17/17/13 18/18/13 15/15/14
f 19/19/16 20/20/17 21/21/18
f 16/16/15 15/15/14 22/22/19
f 23/23/20 24/24/21 25/25/22
f 26/26/23 27/27/24 28/28/25
f 29/29/26 30/30/27 31/31/13
f 31/31/13 32/32/13 29/29/26
f 33/33/28 34/34/29 35/35/30
f 36/36/31 37/37/32 38/38/33
f 39/39/34 40/40/35 41/41/36
f 30/30/27 29/29/26 42/42/37
f 43/43/38 44/44/39 45/45/40
f 45/45/40 44/44/39 46/46/41
f 47/47/42 48/48/43 49/49/44
f 49/49/44 48/48/43 50/50/45
f 51/51/46 52/52/47 53/53/48
f 53/53/48 52/52/47 54/54/49
f 55/55/50 56/56/51 57/57/52
f 57/57/52 56/56/51 58/58/53
f 59/59/54 60/60/55 61/61/56
f 61/61/56 60/60/55 62/62/57
f 63/63/58 64/64/59 65/65/60
f 65/65/60 64/64/59 66/66/61
f 45/45/40 46/46/41 42/42/37
f 42/42/37 46/46/41 30/30/27
f 49/49/44 50/50/45 38/38/33
f 38/38/33 50/50/45 36/36/31
f 53/53/48 54/54/49 28/28/25
f 28/28/25 54/54/49 26/26/23
f 57/57/52 58/58/53 22/22/19
f 22/22/19 58/58/53 16/16/15
f 61/61/56 62/62/57 12/12/12
f 12/12/12 62/62/57 10/10/10
f 65/65/60 66/66/61 6/6/6
f 6/6/6 66/66/61 4/4/4
f 39/39/34 41/41/36 43/43/38
f 43/43/38 41/41/36 44/44/39
f 33/33/28 35/35/30 47/47/42
f 47/47/42 35/35/30 48/48/43
f 23/23/20 25/25/22 51/51/46
f 51/51/46 25/25/22 52/52/47
f 19/19/16 21/21/18 55/55/50
f 55/55/50 21/21/18 56/56/51
f 7/7/7 9/9/9 59/59/54
f 59/59/54 9/9/9 60/60/55
f 1/1/1 3/3/3 63/63/58
f 63/63/58 3/3/3 64/64/59
f 40/40/35 175/67/62 271/68/63
f 40/40/35 271/68/63 41/41/36
f 41/41/36 271/68/63 273/69/64
f 41/41/36 273/69/64 44/44/39
f 44/44/39 273/69/64 180/70/65
f 44/44/39 180/70/65 46/46/41
f 46/46/41 180/70/65 179/71/66
f 179/71/66 30/30/27 46/46/41
f 30/30/27 179/71/66 67/72/13
f 67/72/13 31/31/13 30/30/27
f 34/34/29 39/39/34 43/43/38
f 34/34/29 43/43/38 35/35/30
f 35/35/30 43/43/38 45/45/40
f 35/35/30 45/45/40 48/48/43
f 48/48/43 45/45/40 42/42/37
f 48/48/43 42/42/37 50/50/45
f 50/50/45 42/42/37 29/29/26
f 29/29/26 36/36/31 50/50/45
f 24/24/21 33/33/28 47/47/42
f 24/24/21 47/47/42 25/25/22
f 25/25/22 47/47/42 49/49/44
f 25/25/22 49/49/44 52/52/47
f 52/52/47 49/49/44 38/38/33
f 52/52/47 38/38/33 54/54/49
f 54/54/49 38/38/33 37/37/32
f 37/37/32 26/26/23 54/54/49
f 20/20/17 23/23/20 51/51/46
f 20/20/17 51/51/46 21/21/18
f 21/21/18 51/51/46 53/53/48
f 21/21/18 53/53/48 56/56/51
f 56/56/51 53/53/48 28/28/25
f 56/56/51 28/28/25 58/58/53
f 58/58/53 28/28/25 27/27/24
f 27/27/24 16/16/15 58/58/53
f 16/16/15 27/27/24 68/73/13
f 68/73/13 17/17/13 16/16/15
f 8/8/8 19/19/16 55/55/50
f 8/8/8 55/55/50 9/9/9
f 9/9/9 55/55/50 57/57/52
f 9/9/9 57/57/52 60/60/55
f 60/60/55 57/57/52 22/22/19
f 60/60/55 22/22/19 62/62/57
f 62/62/57 22/22/19 15/15/14
f 15/15/14 10/10/10 62/62/57
f 10/10/10 15/15/14 18/18/13
f 18/18/13 69/74/13 10/10/10
f 2/2/2 7/7/7 59/59/54
f 2/2/2 59/59/54 3/3/3
f 3/3/3 59/59/54 61/61/56
f 3/3/3 61/61/56 64/64/59
f 64/64/59 61/61/56 12/12/12
f 64/64/59 12/12/12 66/66/61
f 66/66/61 12/12/12 11/11/11
f 11/11/11 4/4/4 66/66/61
f 70/75/67 71/76/68 72/77/69
f 73/15/70 74/78/71 75/79/72
f 76/80/73 77/81/74 78/82/75
f 79/83/76 80/84/77 81/85/78
f 82/86/79 83/87/80 84/88/81
f 85/89/82 86/90/83 87/91/84
f 88/92/85 89/93/86 90/94/87
f 91/95/88 92/96/89 93/97/90
f 94/98/91 95/99/92 96/41/93
f 97/71/94 98/100/95 99/101/96
f 100/102/97 101/103/98 102/35/99
f 103/29/100 104/104/101 105/42/102
f 106/75/103 107/76/104 108/77/105
f 109/15/106 110/78/107 111/22/108
f 112/80/109 113/81/110 114/82/111
f 115/83/112 116/84/113 117/85/114
f 118/105/115 119/33/116 120/25/117
f 121/37/118 122/106/119 123/38/120
f 124/107/121 125/108/122 126/109/123
f 127/27/124 128/110/125 129/28/126
f 130/111/127 131/112/128 132/113/129
f 130/111/127 132/113/129 133/114/130
f 134/115/131 135/116/132 136/57/133
f 134/115/131 136/57/133 137/117/134
f 138/56/135 139/118/136 140/119/137
f 138/56/135 140/119/137 141/120/138
f 142/52/139 143/47/140 144/49/141
f 142/52/139 144/49/141 145/121/142
f 146/122/143 147/123/144 148/45/145
f 146/122/143 148/45/145 149/124/146
f 150/125/147 151/68/148 152/69/149
f 150/125/147 152/69/149 153/126/150
f 154/127/151 155/128/152 156/129/153
f 154/127/151 156/129/153 157/130/154
f 158/131/155 159/132/156 160/133/157
f 158/131/155 160/133/157 161/134/158
f 162/135/159 163/112/160 164/113/161
f 162/135/159 164/113/161 165/114/162
f 166/60/163 167/55/164 168/57/165
f 166/60/163 168/57/165 169/117/166
f 133/114/130 132/113/129 117/85/114
f 133/114/130 117/85/114 116/84/113
f 137/117/134 136/57/133 111/22/108
f 137/117/134 111/22/108 110/78/107
f 141/120/138 140/119/137 129/28/126
f 141/120/138 129/28/126 128/110/125
f 145/121/142 144/49/141 123/38/120
f 145/121/142 123/38/120 122/106/119
f 149/124/146 148/45/145 105/42/102
f 149/124/146 105/42/102 104/104/101
f 153/126/150 152/69/149 99/101/96
f 153/126/150 99/101/96 98/100/95
f 157/130/154 156/129/153 93/97/90
f 157/130/154 93/97/90 92/96/89
f 161/134/158 160/133/157 87/91/84
f 161/134/158 87/91/84 86/90/83
f 165/114/162 164/113/161 81/85/78
f 165/114/162 81/85/78 80/84/77
f 169/117/166 168/57/165 75/79/72
f 169/117/166 75/79/72 74/78/71
f 114/82/111 113/81/110 131/112/128
f 114/82/111 131/112/128 130/111/127
f 108/77/105 107/76/104 135/116/132
f 108/77/105 135/116/132 134/115/131
f 126/109/123 125/108/122 139/118/136
f 126/109/123 139/118/136 138/56/135
f 120/25/117 119/33/116 143/47/140
f 120/25/117 143/47/140 142/52/139
f 102/35/99 101/103/98 147/123/144
f 102/35/99 147/123/144 146/122/143
f 96/41/93 95/99/92 151/68/148
f 96/41/93 151/68/148 150/125/147
f 90/94/87 89/93/86 155/128/152
f 90/94/87 155/128/152 154/127/151
f 84/88/81 83/87/80 159/132/156
f 84/88/81 159/132/156 158/131/155
f 78/82/75 77/81/74 163/112/160
f 78/82/75 163/112/160 162/135/159
f 72/77/69 71/76/68 167/55/164
f 72/77/69 167/55/164 166/60/163
f 170/136/167 112/80/109 171/137/168
f 171/137/168 112/80/109 114/82/111
f 171/137/168 114/82/111 172/138/169
f 172/138/169 114/82/111 130/111/127
f 172/138/169 130/111/127 173/139/170
f 173/139/170 130/111/127 133/114/130
f 173/139/170 133/114/130 174/140/171
f 116/84/113 174/140/171 133/114/130
f 113/81/110 106/75/103 131/112/128
f 131/112/128 106/75/103 108/77/105
f 131/112/128 108/77/105 132/113/129
f 132/113/129 108/77/105 134/115/131
f 132/113/129 134/115/131 117/85/114
f 117/85/114 134/115/131 137/117/134
f 117/85/114 137/117/134 115/83/112
f 110/78/107 115/83/112 137/117/134
f 107/76/104 124/107/121 135/116/132
f 135/116/132 124/107/121 126/109/123
f 135/116/132 126/109/123 136/57/133
f 136/57/133 126/109/123 138/56/135
f 136/57/133 138/56/135 111/22/108
f 111/22/108 138/56/135 141/120/138
f 111/22/108 141/120/138 109/15/106
f 128/110/125 109/15/106 141/120/138
f 125/108/122 118/105/115 139/118/136
f 139/118/136 118/105/115 120/25/117
f 139/118/136 120/25/117 140/119/137
f 140/119/137 120/25/117 142/52/139
f 140/119/137 142/52/139 129/28/126
f 129/28/126 142/52/139 145/121/142
f 129/28/126 145/121/142 127/27/124
f 122/106/119 127/27/124 145/121/142
f 119/33/116 100/102/97 143/47/140
f 143/47/140 100/102/97 102/35/99
f 143/47/140 102/35/99 144/49/141
f 144/49/141 102/35/99 146/122/143
f 144/49/141 146/122/143 123/38/120
f 123/38/120 146/122/143 149/124/146
f 123/38/120 149/124/146 121/37/118
f 104/104/101 121/37/118 149/124/146
f 101/103/98 94/98/91 147/123/144
f 147/123/144 94/98/91 96/41/93
f 147/123/144 96/41/93 148/45/145
f 148/45/145 96/41/93 150/125/147
f 148/45/145 150/125/147 105/42/102
f 105/42/102 150/125/147 153/126/150
f 105/42/102 153/126/150 103/29/100
f 98/100/95 103/29/100 153/126/150
f 95/99/92 88/92/85 151/68/148
f 151/68/148 88/92/85 90/94/87
f 151/68/148 90/94/87 152/69/149
f 152/69/149 90/94/87 154/127/151
f 152/69/149 154/127/151 99/101/96
f 99/101/96 154/127/151 157/130/154
f 99/101/96 157/130/154 97/71/94
f 92/96/89 97/71/94 157/130/154
f 89/93/86 82/86/79 155/128/152
f 155/128/152 82/86/79 84/88/81
f 155/128/152 84/88/81 156/129/153
f 156/129/153 84/88/81 158/131/155
f 156/129/153 158/131/155 93/97/90
f 93/97/90 158/131/155 161/134/158
f 93/97/90 161/134/158 91/95/88
f 86/90/83 91/95/88 161/134/158
f 83/136/80 76/80/73 159/137/156
f 159/137/156 76/80/73 78/82/75
f 159/137/156 78/82/75 160/138/157
f 160/138/157 78/82/75 162/135/159
f 160/138/157 162/135/159 87/139/84
f 87/139/84 162/135/159 165/114/162
f 87/139/84 165/114/162 85/140/82
f 80/84/77 85/140/82 165/114/162
f 77/81/74 70/75/67 163/112/160
f 163/112/160 70/75/67 72/77/69
f 163/112/160 72/77/69 164/113/161
f 164/113/161 72/77/69 166/60/163
f 164/113/161 166/60/163 81/85/78
f 81/85/78 166/60/163 169/117/166
f 81/85/78 169/117/166 79/83/76
f 74/78/71 79/83/76 169/117/166
f 175/67/62 176/141/172 177/142/173
f 178/143/174 179/71/66 180/70/65
f 181/144/175 182/145/176 183/146/170
f 184/147/177 185/148/178 186/149/179
f 187/1/180 188/2/181 189/150/182
f 190/4/183 191/5/184 192/6/185
f 193/7/186 194/8/187 195/9/188
f 196/151/189 197/11/190 198/12/191
f 199/19/192 200/20/193 201/109/194
f 202/16/195 203/15/196 204/22/197
f 205/23/198 206/24/199 207/152/200
f 208/26/201 209/27/202 210/28/203
f 211/67/204 212/141/205 213/142/206
f 214/143/207 215/71/208 216/101/209
f 217/144/210 218/145/211 219/146/212
f 220/147/213 221/148/214 222/149/215
f 223/33/216 224/34/217 225/153/218
f 226/36/219 227/37/220 228/38/221
f 229/39/222 230/40/223 231/41/224
f 232/30/225 233/29/226 234/42/227
f 235/154/228 236/155/229 237/156/230
f 237/156/230 236/155/229 238/157/231
f 239/158/232 240/159/233 241/69/234
f 241/69/234 240/159/233 242/160/235
f 243/43/236 244/125/237 245/45/238
f 245/45/238 244/125/237 246/46/239
f 247/47/240 248/122/241 249/49/242
f 249/49/242 248/122/241 250/50/243
f 251/51/244 252/52/245 253/119/246
f 253/119/246 252/52/245 254/54/247
f 255/55/248 256/56/249 257/57/250
f 257/57/250 256/56/249 258/58/251
f 259/59/252 260/60/253 261/61/254
f 261/61/254 260/60/253 262/62/255
f 263/63/256 264/64/257 265/65/256
f 265/65/256 264/64/257 266/66/258
f 267/154/259 268/161/260 269/156/261
f 269/156/261 268/161/260 270/157/262
f 271/68/63 272/127/263 273/69/64
f 273/69/64 272/127/263 274/160/264
f 237/156/230 238/157/231 222/149/215
f 222/149/215 238/157/231 220/147/213
f 241/69/234 242/160/235 216/101/209
f 216/101/209 242/160/235 214/143/207
f 245/45/238 246/46/239 234/42/227
f 234/42/227 246/46/239 232/30/225
f 249/49/242 250/50/243 228/38/221
f 228/38/221 250/50/243 226/36/219
f 253/119/246 254/54/247 210/28/203
f 210/28/203 254/54/247 208/26/201
f 257/57/250 258/58/251 204/22/197
f 204/22/197 258/58/251 202/16/195
f 261/61/254 262/62/255 198/12/191
f 198/12/191 262/62/255 196/151/189
f 265/65/256 266/66/258 192/6/185
f 192/6/185 266/66/258 190/4/183
f 269/156/261 270/157/262 186/149/179
f 186/149/179 270/157/262 184/147/177
f 273/69/64 274/160/264 180/70/65
f 180/70/65 274/160/264 178/143/174
f 217/144/210 219/146/212 235/154/228
f 235/154/228 219/146/212 236/155/229
f 211/67/204 213/142/206 239/158/232
f 239/158/232 213/142/206 240/159/233
f 229/39/222 231/41/224 243/43/236
f 243/43/236 231/41/224 244/125/237
f 223/33/216 225/153/218 247/47/240
f 247/47/240 225/153/218 248/122/241
f 205/23/198 207/152/200 251/51/244
f 251/51/244 207/152/200 252/52/245
f 199/19/192 201/109/194 255/55/248
f 255/55/248 201/109/194 256/56/249
f 193/7/186 195/9/188 259/59/252
f 259/59/252 195/9/188 260/60/253
f 187/1/180 189/150/182 263/63/256
f 263/63/256 189/150/182 264/64/257
f 181/144/175 183/146/170 267/154/259
f 267/154/259 183/146/170 268/161/260
f 175/67/62 177/142/173 271/68/63
f 271/68/63 177/142/173 272/127/263
f 218/145/211 275/162/265 276/163/266
f 218/145/211 276/163/266 219/146/212
f 219/146/212 276/163/266 277/164/267
f 219/146/212 277/164/267 236/155/229
f 236/155/229 277/164/267 278/165/268
f 236/155/229 278/165/268 238/157/231
f 238/157/231 278/165/268 279/166/269
f 279/166/269 220/147/213 238/157/231
f 212/141/205 217/144/210 235/154/228
f 212/141/205 235/154/228 213/142/206
f 213/142/206 235/154/228 237/156/230
f 213/142/206 237/156/230 240/159/233
f 240/159/233 237/156/230 222/149/215
f 240/159/233 222/149/215 242/160/235
f 242/160/235 222/149/215 221/148/214
f 221/148/214 214/143/207 242/160/235
f 230/40/223 211/67/204 239/158/232
f 230/40/223 239/158/232 231/41/224
f 231/41/224 239/158/232 241/69/234
f 231/41/224 241/69/234 244/125/237
f 244/125/237 241/69/234 216/101/209
f 244/125/237 216/101/209 246/46/239
f 246/46/239 216/101/209 215/71/208
f 215/71/208 232/30/225 246/46/239
f 224/34/217 229/39/222 243/43/236
f 224/34/217 243/43/236 225/153/218
f 225/153/218 243/43/236 245/45/238
f 225/153/218 245/45/238 248/122/241
f 248/122/241 245/45/238 234/42/227
f 248/122/241 234/42/227 250/50/243
f 250/50/243 234/42/227 233/29/226
f 233/29/226 226/36/219 250/50/243
f 206/24/199 223/33/216 247/47/240
f 206/24/199 247/47/240 207/152/200
f 207/152/200 247/47/240 249/49/242
f 207/152/200 249/49/242 252/52/245
f 252/52/245 249/49/242 228/38/221
f 252/52/245 228/38/221 254/54/247
f 254/54/247 228/38/221 227/37/220
f 227/37/220 208/26/201 254/54/247
f 200/20/193 205/23/198 251/51/244
f 200/20/193 251/51/244 201/109/194
f 201/109/194 251/51/244 253/119/246
f 201/109/194 253/119/246 256/56/249
f 256/56/249 253/119/246 210/28/203
f 256/56/249 210/28/203 258/58/251
f 258/58/251 210/28/203 209/27/202
f 209/27/202 202/16/195 258/58/251
f 194/8/187 199/19/192 255/55/248
f 194/8/187 255/55/248 195/9/188
f 195/9/188 255/55/248 257/57/250
f 195/9/188 257/57/250 260/60/253
f 260/60/253 257/57/250 204/22/197
f 260/60/253 204/22/197 262/62/255
f 262/62/255 204/22/197 203/15/196
f 203/15/196 196/151/189 262/62/255
f 188/2/181 193/7/186 259/59/252
f 188/2/181 259/59/252 189/150/182
f 189/150/182 259/59/252 261/61/254
f 189/150/182 261/61/254 264/64/257
f 264/64/257 261/61/254 198/12/191
f 264/64/257 198/12/191 266/66/258
f 266/66/258 198/12/191 197/11/190
f 197/11/190 190/4/183 266/66/258
f 182/145/176 187/162/180 263/163/256
f 182/145/176 263/163/256 183/146/170
f 183/146/170 263/163/256 265/164/256
f 183/146/170 265/164/256 268/161/260
f 268/161/260 265/164/256 192/165/185
f 268/161/260 192/165/185 270/157/262
f 270/157/262 192/165/185 191/166/184
f 191/166/184 184/147/177 270/157/262
f 176/141/172 181/144/175 267/154/259
f 176/141/172 267/154/259 177/142/173
f 177/142/173 267/154/259 269/156/261
f 177/142/173 269/156/261 272/127/263
f 272/127/263 269/156/261 186/149/179
f 272/127/263 186/149/179 274/160/264
f 274/160/264 186/149/179 185/148/178
f 185/148/178 178/143/174 274/160/264
f 280/167/270 281/168/271 282/169/272
f 283/170/273 284/171/274 285/172/275
f 286/173/276 287/174/277 288/175/278
f 289/176/279 290/177/280 291/178/281
f 292/179/282 293/180/283 294/181/284
f 295/182/285 296/183/286 297/184/287
f 298/185/288 299/186/289 300/187/290
f 301/188/291 302/189/292 303/190/293
f 304/191/294 305/192/295 306/193/296
f 307/194/297 308/195/298 309/196/299
f 310/197/300 311/198/301 312/199/302
f 313/200/303 314/201/304 315/202/305
f 316/203/306 317/204/307 318/205/308
f 319/206/309 320/207/310 321/208/311
f 322/209/312 323/210/313 324/211/314
f 324/211/314 323/210/313 325/212/315
f 326/213/316 327/214/317 328/215/318
f 328/215/318 327/214/317 329/216/319
f 330/217/320 331/218/321 332/219/322
f 332/219/322 331/218/321 333/220/323
f 334/221/324 335/222/325 336/223/326
f 336/223/326 335/222/325 337/224/327
f 338/225/328 339/226/329 340/227/330
f 340/227/330 339/226/329 341/228/331
f 342/229/332 343/230/333 344/231/334
f 344/231/334 343/230/333 345/232/335
f 346/233/336 347/234/337 348/235/338
f 348/235/338 347/234/337 349/236/339
f 324/211/314 325/212/315 309/196/299
f 309/196/299 325/212/315 307/194/297
f 328/215/318 329/216/319 303/190/293
f 303/190/293 329/216/319 301/188/291
f 332/219/322 333/220/323 321/208/311
f 321/208/311 333/220/323 319/206/309
f 336/223/326 337/224/327 315/202/305
f 315/202/305 337/224/327 313/200/303
f 340/227/330 341/228/331 297/184/287
f 297/184/287 341/228/331 295/182/285
f 344/231/334 345/232/335 291/178/281
f 291/178/281 345/232/335 289/176/279
f 348/235/338 349/236/339 285/172/275
f 285/172/275 349/236/339 283/170/273
f 304/191/294 306/193/296 322/209/312
f 322/209/312 306/193/296 323/210/313
f 298/185/288 300/187/290 326/213/316
f 326/213/316 300/187/290 327/214/317
f 316/203/306 318/205/308 330/217/320
f 330/217/320 318/205/308 331/218/321
f 310/197/300 312/199/302 334/221/324
f 334/221/324 312/199/302 335/222/325
f 292/179/282 294/181/284 338/225/328
f 338/225/328 294/181/284 339/226/329
f 286/173/276 288/175/278 342/229/332
f 342/229/332 288/175/278 343/230/333
f 280/167/270 282/169/272 346/233/336
f 346/233/336 282/169/272 347/234/337
f 305/192/295 350/237/340 351/238/341
f 305/192/295 351/238/341 306/193/296
f 306/193/296 351/238/341 352/239/342
f 306/193/296 352/239/342 323/210/313
f 323/210/313 352/239/342 353/240/343
f 323/210/313 353/240/343 325/212/315
f 325/212/315 353/240/343 354/241/344
f 354/241/344 307/194/297 325/212/315
f 299/186/289 304/191/294 322/209/312
f 299/186/289 322/209/312 300/187/290
f 300/187/290 322/209/312 324/211/314
f 300/187/290 324/211/314 327/214/317
f 327/214/317 324/211/314 309/196/299
f 327/214/317 309/196/299 329/216/319
f 329/216/319 309/196/299 308/195/298
f 308/195/298 301/188/291 329/216/319
f 317/204/307 298/185/288 326/213/316
f 317/204/307 326/213/316 318/205/308
f 318/205/308 326/213/316 328/215/318
f 318/205/308 328/215/318 331/218/321
f 331/218/321 328/215/318 303/190/293
f 331/218/321 303/190/293 333/220/323
f 333/220/323 303/190/293 302/189/292
f 302/189/292 319/206/309 333/220/323
f 311/198/301 316/203/306 330/217/320
f 311/198/301 330/217/320 312/199/302
f 312/199/302 330/217/320 332/219/322
f 312/199/302 332/219/322 335/222/325
f 335/222/325 332/219/322 321/208/311
f 335/222/325 321/208/311 337/224/327
f 337/224/327 321/208/311 320/207/310
f 320/207/310 313/200/303 337/224/327
f 293/180/283 310/197/300 334/221/324
f 293/180/283 334/221/324 294/181/284
f 294/181/284 334/221/324 336/223/326
f 294/181/284 336/223/326 339/226/329
f 339/226/329 336/223/326 315/202/305
f 339/226/329 315/202/305 341/228/331
f 341/228/331 315/202/305 314/201/304
f 314/201/304 295/182/285 341/228/331
f 287/174/277 292/179/282 338/225/328
f 287/174/277 338/225/328 288/175/278
f 288/175/278 338/225/328 340/227/330
f 288/175/278 340/227/330 343/230/333
f 343/230/333 340/227/330 297/184/287
f 343/230/333 297/184/287 345/232/335
f 345/232/335 297/184/287 296/183/286
f 296/183/286 289/176/279 345/232/335
f 281/168/271 286/173/276 342/229/332
f 281/168/271 342/229/332 282/169/272
f 282/169/272 342/229/332 344/231/334
f 282/169/272 344/231/334 347/234/337
f 347/234/337 344/231/334 291/178/281
f 347/234/337 291/178/281 349/236/339
f 349/236/339 291/178/281 290/177/280
f 290/177/280 283/170/273 349/236/339
f 355/242/345 280/167/270 346/233/336
f 355/242/345 346/233/336 356/243/346
f 356/243/346 346/233/336 348/235/338
f 356/243/346 348/235/338 357/244/347
f 357/244/347 348/235/338 285/172/275
f 357/244/347 285/172/275 358/245/348
f 358/245/348 285/172/275 284/171/274
f 284/171/274 359/246/349 358/245/348
f 485/247/350 360/248/351 361/249/352
f 362/250/353 363/251/354 488/252/252
f 364/253/355 365/254/356 366/255/357
f 367/256/358 368/257/359 369/258/360
f 370/259/361 371/260/362 372/261/363
f 373/262/66 374/263/364 375/264/365
f 376/265/363 377/266/366 378/267/367
f 378/267/367 377/266/366 379/268/368
f 380/269/369 381/270/370 382/271/371
f 382/271/371 381/270/370 383/272/372
f 486/273/373 384/274/374 487/275/375
f 487/275/375 384/274/374 385/276/376
f 378/267/367 379/268/368 375/264/365
f 375/264/365 379/268/368 373/262/66
f 382/271/371 383/272/372 369/258/360
f 369/258/360 383/272/372 367/256/358
f 487/275/375 385/276/376 488/252/252
f 488/252/252 385/276/376 362/250/353
f 370/259/361 372/261/363 376/265/363
f 376/265/363 372/261/363 377/266/366
f 364/253/355 366/255/357 380/269/369
f 380/269/369 366/255/357 381/270/370
f 485/247/350 361/249/352 486/273/373
f 486/273/373 361/249/352 384/274/374
f 365/254/356 370/259/361 376/265/363
f 365/254/356 376/265/363 366/255/357
f 366/255/357 376/265/363 378/267/367
f 366/255/357 378/267/367 381/270/370
f 381/270/370 378/267/367 375/264/365
f 381/270/370 375/264/365 383/272/372
f 383/272/372 375/264/365 374/263/364
f 374/263/364 367/256/358 383/272/372
f 360/248/351 364/253/355 380/269/369
f 360/248/351 380/269/369 361/249/352
f 361/249/352 380/269/369 382/271/371
f 361/249/352 382/271/371 384/274/374
f 384/274/374 382/271/371 369/258/360
f 384/274/374 369/258/360 385/276/376
f 385/276/376 369/258/360 368/257/359
f 368/257/359 362/250/353 385/276/376
f 386/277/377 387/278/378 388/279/379
f 389/280/380 390/281/381 391/282/382
f 392/283/383 393/284/384 394/285/385
f 395/286/386 396/287/387 397/288/388
f 398/289/389 399/290/390 400/291/391
f 401/292/392 402/293/393 403/294/394
f 404/295/395 405/296/396 406/297/397
f 407/298/398 408/299/399 409/300/400
f 410/301/216 411/302/401 412/303/402
f 413/304/403 414/305/404 415/306/405
f 416/307/406 417/308/407 418/309/408
f 419/310/409 420/311/410 421/312/411
f 422/313/412 423/314/413 424/315/358
f 425/316/414 426/317/415 427/318/416
f 428/319/417 429/320/418 430/321/419
f 431/322/420 432/323/421 433/324/422
f 434/325/423 435/326/424 436/327/425
f 437/328/426 438/329/427 439/330/428
f 440/331/429 441/332/430 442/333/431
f 443/334/432 444/335/433 445/336/434
f 446/337/435 447/338/436 448/339/437
f 448/339/437 447/338/436 449/340/438
f 450/341/439 451/342/288 452/343/440
f 452/343/440 451/342/288 453/344/441
f 454/345/442 455/346/443 456/347/444
f 456/347/444 455/346/443 457/348/445
f 458/349/446 459/350/447 460/351/448
f 460/351/448 459/350/447 461/352/449
f 462/353/450 463/354/451 464/355/452
f 464/355/452 463/354/451 465/356/453
f 466/357/454 467/358/455 468/359/456
f 468/359/456 467/358/455 469/360/457
f 470/361/458 471/362/459 472/363/460
f 472/363/460 471/362/459 473/364/461
f 474/365/462 475/366/463 476/367/464
f 476/367/464 475/366/463 477/368/465
f 478/369/466 479/370/467 480/371/468
f 480/371/468 479/370/467 481/372/469
f 549/373/470 482/374/471 483/375/472
f 483/375/472 482/374/471 484/376/473
f 448/339/437 449/340/438 433/324/422
f 433/324/422 449/340/438 431/322/420
f 452/343/440 453/344/441 427/318/416
f 427/318/416 453/344/441 425/316/414
f 456/347/444 457/348/445 445/336/434
f 445/336/434 457/348/445 443/334/432
f 460/351/448 461/352/449 439/330/428
f 439/330/428 461/352/449 437/328/426
f 464/355/452 465/356/453 421/312/411
f 421/312/411 465/356/453 419/310/409
f 468/359/456 469/360/457 415/306/405
f 415/306/405 469/360/457 413/304/403
f 472/363/460 473/364/461 409/300/400
f 409/300/400 473/364/461 407/298/398
f 476/367/464 477/368/465 403/294/394
f 403/294/394 477/368/465 401/292/392
f 480/371/468 481/372/469 397/288/388
f 397/288/388 481/372/469 395/286/386
f 483/375/472 484/376/473 391/282/382
f 391/282/382 484/376/473 389/280/380
f 428/319/417 430/321/419 446/337/435
f 446/337/435 430/321/419 447/338/436
f 422/313/412 424/315/358 450/341/439
f 450/341/439 424/315/358 451/342/288
f 440/331/429 442/333/431 454/345/442
f 454/345/442 442/333/431 455/346/443
f 434/325/423 436/327/425 458/349/446
f 458/349/446 436/327/425 459/350/447
f 416/307/406 418/309/408 462/353/450
f 462/353/450 418/309/408 463/354/451
f 410/301/216 412/303/402 466/357/454
f 466/357/454 412/303/402 467/358/455
f 404/295/395 406/297/397 470/361/458
f 470/361/458 406/297/397 471/362/459
f 398/289/389 400/291/391 474/365/462
f 474/365/462 400/291/391 475/366/463
f 392/283/383 394/285/385 478/369/466
f 478/369/466 394/285/385 479/370/467
f 386/277/377 388/279/379 549/373/470
f 549/373/470 388/279/379 482/374/471
f 429/320/418 485/247/350 486/273/373
f 429/320/418 486/273/373 430/321/419
f 430/321/419 486/273/373 487/275/375
f 430/321/419 487/275/375 447/338/436
f 447/338/436 487/275/375 488/252/252
f 447/338/436 488/252/252 449/340/438
f 449/340/438 488/252/252 363/251/354
f 363/251/354 431/322/420 449/340/438
f 423/314/413 428/319/417 446/337/435
f 423/314/413 446/337/435 424/315/358
f 424/315/358 446/337/435 448/339/437
f 424/315/358 448/339/437 451/342/288
f 451/342/288 448/339/437 433/324/422
f 451/342/288 433/324/422 453/344/441
f 453/344/441 433/324/422 432/323/421
f 432/323/421 425/316/414 453/344/441
f 441/332/430 422/313/412 450/341/439
f 441/332/430 450/341/439 442/333/431
f 442/333/431 450/341/439 452/343/440
f 442/333/431 452/343/440 455/346/443
f 455/346/443 452/343/440 427/318/416
f 455/346/443 427/318/416 457/348/445
f 457/348/445 427/318/416 426/317/415
f 426/317/415 443/334/432 457/348/445
f 435/326/424 440/331/429 454/345/442
f 435/326/424 454/345/442 436/327/425
f 436/327/425 454/345/442 456/347/444
f 436/327/425 456/347/444 459/350/447
f 459/350/447 456/347/444 445/336/434
f 459/350/447 445/336/434 461/352/449
f 461/352/449 445/336/434 444/335/433
f 444/335/433 437/328/426 461/352/449
f 417/308/407 434/325/423 458/349/446
f 417/308/407 458/349/446 418/309/408
f 418/309/408 458/349/446 460/351/448
f 418/309/408 460/351/448 463/354/451
f 463/354/451 460/351/448 439/330/428
f 463/354/451 439/330/428 465/356/453
f 465/356/453 439/330/428 438/329/427
f 438/329/427 419/310/409 465/356/453
f 411/302/401 416/307/406 462/353/450
f 411/302/401 462/353/450 412/303/402
f 412/303/402 462/353/450 464/355/452
f 412/303/402 464/355/452 467/358/455
f 467/358/455 464/355/452 421/312/411
f 467/358/455 421/312/411 469/360/457
f 469/360/457 421/312/411 420/311/410
f 420/311/410 413/304/403 469/360/457
f 405/296/396 410/301/216 466/357/454
f 405/296/396 466/357/454 406/297/397
f 406/297/397 466/357/454 468/359/456
f 406/297/397 468/359/456 471/362/459
f 471/362/459 468/359/456 415/306/405
f 471/362/459 415/306/405 473/364/461
f 473/364/461 415/306/405 414/305/404
f 414/305/404 407/298/398 473/364/461
f 399/290/390 404/295/395 470/361/458
f 399/290/390 470/361/458 400/291/391
f 400/291/391 470/361/458 472/363/460
f 400/291/391 472/363/460 475/366/463
f 475/366/463 472/363/460 409/300/400
f 475/366/463 409/300/400 477/368/465
f 477/368/465 409/300/400 408/299/399
f 408/299/399 401/292/392 477/368/465
f 393/284/384 398/289/389 474/365/462
f 393/284/384 474/365/462 394/285/385
f 394/285/385 474/365/462 476/367/464
f 394/285/385 476/367/464 479/370/467
f 479/370/467 476/367/464 403/294/394
f 479/370/467 403/294/394 481/372/469
f 481/372/469 403/294/394 402/293/393
f 402/293/393 395/286/386 481/372/469
f 387/278/378 392/283/383 478/369/466
f 387/278/378 478/369/466 388/279/379
f 388/279/379 478/369/466 480/371/468
f 388/279/379 480/371/468 482/374/471
f 482/374/471 480/371/468 397/288/388
f 482/374/471 397/288/388 484/376/473
f 484/376/473 397/288/388 396/287/387
f 396/287/387 389/280/380 484/376/473
f 489/377/474 490/378/475 491/379/476
f 492/380/477 493/381/477 494/382/478
f 495/383/479 496/384/480 497/385/481
f 498/386/482 499/387/483 500/388/484
f 501/389/485 502/390/486 503/391/487
f 504/392/168 505/393/488 506/394/489
f 507/395/490 508/396/491 509/397/492
f 510/398/493 511/399/494 512/400/495
f 513/401/496 514/402/497 515/403/498
f 516/404/499 517/405/500 518/406/501
f 519/407/502 520/408/503 521/409/504
f 522/410/216 523/411/505 524/412/506
f 525/413/507 526/414/508 527/415/509
f 527/415/509 526/414/508 528/416/510
f 529/417/511 530/418/512 531/419/513
f 531/419/513 530/418/512 532/420/514
f 533/421/515 534/422/52 535/423/516
f 535/423/516 534/422/52 536/424/517
f 537/425/518 538/426/519 539/427/520
f 539/427/520 538/426/519 540/428/446
f 541/429/521 542/430/520 543/431/522
f 543/431/522 542/430/520 544/432/523
f 545/433/524 546/434/525 547/435/526
f 547/435/526 546/434/525 548/436/527
f 527/415/509 528/416/510 524/412/506
f 524/412/506 528/416/510 522/410/216
f 531/419/513 532/420/514 518/406/501
f 518/406/501 532/420/514 516/404/499
f 535/423/516 536/424/517 512/400/495
f 512/400/495 536/424/517 510/398/493
f 539/427/520 540/428/446 506/394/489
f 506/394/489 540/428/446 504/392/168
f 543/431/522 544/432/523 500/388/484
f 500/388/484 544/432/523 498/386/482
f 547/435/526 548/436/527 494/382/478
f 494/382/478 548/436/527 492/380/477
f 519/407/502 521/409/504 525/413/507
f 525/413/507 521/409/504 526/414/508
f 513/401/496 515/403/498 529/417/511
f 529/417/511 515/403/498 530/418/512
f 507/395/490 509/397/492 533/421/515
f 533/421/515 509/397/492 534/422/52
f 501/389/485 503/391/487 537/425/518
f 537/425/518 503/391/487 538/426/519
f 495/383/479 497/385/481 541/429/521
f 541/429/521 497/385/481 542/430/520
f 489/377/474 491/379/476 545/433/524
f 545/433/524 491/379/476 546/434/525
f 520/408/503 386/277/377 549/373/470
f 520/408/503 549/373/470 521/409/504
f 521/409/504 549/373/470 483/375/472
f 521/409/504 483/375/472 526/414/508
f 526/414/508 483/375/472 391/282/382
f 526/414/508 391/282/382 528/416/510
f 528/416/510 391/282/382 390/281/381
f 390/281/381 522/410/216 528/416/510
f 514/402/497 519/407/502 525/413/507
f 514/402/497 525/413/507 515/403/498
f 515/403/498 525/413/507 527/415/509
f 515/403/498 527/415/509 530/418/512
f 530/418/512 527/415/509 524/412/506
f 530/418/512 524/412/506 532/420/514
f 532/420/514 524/412/506 523/411/505
f 523/411/505 516/404/499 532/420/514
f 508/396/491 513/401/496 529/417/511
f 508/396/491 529/417/511 509/397/492
f 509/397/492 529/417/511 531/419/513
f 509/397/492 531/419/513 534/422/52
f 534/422/52 531/419/513 518/406/501
f 534/422/52 518/406/501 536/424/517
f 536/424/517 518/406/501 517/405/500
f 517/405/500 510/398/493 536/424/517
f 502/390/486 507/395/490 533/421/515
f 502/390/486 533/421/515 503/391/487
f 503/391/487 533/421/515 535/423/516
f 503/391/487 535/423/516 538/426/519
f 538/426/519 535/423/516 512/400/495
f 538/426/519 512/400/495 540/428/446
f 540/428/446 512/400/495 511/399/494
f 511/399/494 504/392/168 540/428/446
f 496/384/480 501/389/485 537/425/518
f 496/384/480 537/425/518 497/385/481
f 497/385/481 537/425/518 539/427/520
f 497/385/481 539/427/520 542/430/520
f 542/430/520 539/427/520 506/394/489
f 542/430/520 506/394/489 544/432/523
f 544/432/523 506/394/489 505/393/488
f 505/393/488 498/386/482 544/432/523
f 490/378/475 495/383/479 541/429/521
f 490/378/475 541/429/521 491/379/476
f 491/379/476 541/429/521 543/431/522
f 491/379/476 543/431/522 546/434/525
f 546/434/525 543/431/522 500/388/484
f 546/434/525 500/388/484 548/436/527
f 548/436/527 500/388/484 499/387/483
f 499/387/483 492/380/477 548/436/527
