# Blender 4.4.3
# www.blender.org
mtllib ROOFTOP.mtl
o ROOFTOP
v -104.565842 16.770327 -690.154480
v -105.405548 16.770330 -639.376892
v -103.095016 14.976376 -691.264526
v -103.972229 14.976379 -638.218811
v -191.143524 16.770327 -691.586243
v -192.576843 14.976376 -692.744324
v -191.983246 16.770330 -640.808655
v -193.454056 14.976379 -639.698608
v -232.650711 18.052773 -653.869568
v -265.769043 18.052771 -683.278992
v -232.515350 15.941908 -652.539124
v -267.112976 15.941906 -683.262146
v -196.620605 18.052771 -694.035889
v -195.276657 15.941905 -694.052734
v -229.738922 18.052767 -723.445312
v -229.874298 15.941903 -724.775818
v -229.421417 15.895766 -723.962708
v -266.249756 15.895769 -682.906494
v 128.677841 2.786312 -39.322613
v 133.862152 2.786312 -39.322613
v 133.344452 3.582449 -40.213589
v 129.195526 3.582449 -40.213589
v 133.862152 2.786311 -70.803085
v 128.677841 2.786311 -70.803085
v 129.195526 3.582448 -69.912109
v 133.344452 3.582448 -69.912109
v 143.199203 2.786312 -39.322613
v 148.383499 2.786312 -39.322613
v 147.865814 3.582449 -40.213589
v 143.716904 3.582449 -40.213589
v 148.383499 2.786311 -70.803085
v 143.199203 2.786311 -70.803085
v 143.716904 3.582448 -69.912109
v 147.865814 3.582448 -69.912109
v 211.325378 2.786312 -39.322613
v 216.509674 2.786312 -39.322613
v 215.991974 3.582449 -40.213589
v 211.843079 3.582449 -40.213589
v 216.509674 2.786311 -70.803085
v 211.325378 2.786311 -70.803085
v 211.843079 3.582448 -69.912109
v 215.991974 3.582448 -69.912109
v 182.019318 2.786312 -39.322613
v 187.203613 2.786312 -39.322613
v 186.685928 3.582449 -40.213589
v 182.537018 3.582449 -40.213589
v 187.203613 2.786311 -70.803085
v 182.019318 2.786311 -70.803085
v 182.537018 3.582448 -69.912109
v 186.685928 3.582448 -69.912109
v 196.540680 2.786312 -39.322613
v 201.724976 2.786312 -39.322613
v 201.207275 3.582449 -40.213589
v 197.058350 3.582449 -40.213589
v 201.724976 2.786311 -70.803085
v 196.540680 2.786311 -70.803085
v 197.058350 3.582448 -69.912109
v 201.207275 3.582448 -69.912109
v -36.388031 4.813960 -19.896868
v -16.819469 4.813960 -19.896870
v -16.043518 6.320457 -20.510929
v -35.749989 6.320457 -20.510929
v -16.819469 4.813959 -30.961020
v -36.388031 4.813959 -30.961018
v -35.749989 6.320457 -30.346958
v -16.043518 6.320457 -30.346958
v 4.731692 4.813959 -30.961020
v 3.955742 6.320457 -30.346958
v 4.731692 4.813960 -19.896870
v 24.377729 4.813960 -19.896872
v 23.739689 6.320457 -20.510931
v 3.955742 6.320457 -20.510929
v 24.377729 4.813959 -30.961021
v 23.739689 6.320457 -30.346962
v 28.134712 4.813960 -19.896868
v 47.703274 4.813960 -19.896870
v 48.479225 6.320457 -20.510929
v 28.772755 6.320457 -20.510929
v 47.703274 4.813959 -30.961020
v 28.134712 4.813959 -30.961018
v 28.772755 6.320457 -30.346958
v 48.479225 6.320457 -30.346958
v 47.703274 4.813960 -14.422828
v 69.254433 4.813960 -14.422827
v 68.478485 6.320458 -15.036888
v 48.479225 6.320458 -15.036888
v 69.254433 4.813959 -30.961020
v 68.478485 6.320457 -30.346958
v 69.254433 4.813960 -19.896870
v 88.900475 4.813960 -19.896872
v 88.262436 6.320457 -20.510931
v 68.478485 6.320457 -20.510929
v 88.900475 4.813959 -30.961021
v 88.262436 6.320457 -30.346962
v 93.165199 4.813960 -19.896868
v 112.733765 4.813960 -19.896870
v 113.509712 6.320457 -20.510929
v 93.803238 6.320457 -20.510929
v 112.733765 4.813959 -30.961020
v 93.165199 4.813959 -30.961018
v 93.803238 6.320457 -30.346958
v 113.509712 6.320457 -30.346958
v 134.284927 4.813960 -19.896873
v 133.508972 6.320457 -20.510933
v 134.284927 4.813959 -30.961020
v 133.508972 6.320457 -30.346958
v 153.930954 4.813960 -19.896872
v 153.292923 6.320457 -20.510931
v 153.930954 4.813959 -30.961021
v 153.292923 6.320457 -30.346962
v 537.000732 14.428435 -155.131989
v 537.359741 14.428435 -156.471924
v 535.062256 15.392812 -156.471924
v 535.011047 15.392812 -156.331665
v 536.019775 14.428435 -154.151093
v 534.871033 15.392812 -156.228989
v 534.679871 14.428435 -153.792053
v 534.679871 15.392812 -156.191406
v 533.339966 14.428435 -154.151093
v 534.488708 15.392812 -156.228989
v 532.359009 14.428435 -155.131989
v 534.348694 15.392812 -156.331665
v 532.000000 14.428435 -156.471924
v 534.297485 15.392812 -156.471924
v 532.359009 14.428435 -157.811859
v 534.348694 15.392812 -156.612183
v 533.339966 14.428434 -158.792755
v 534.488708 15.392812 -156.714859
v 534.679871 14.428434 -159.151794
v 534.679871 15.392812 -156.752441
v 536.019775 14.428434 -158.792755
v 534.871033 15.392812 -156.714859
v 537.000732 14.428435 -157.811859
v 535.011047 15.392812 -156.612183
v 524.004089 3.518494 -193.491470
v 475.337585 3.518495 -178.978012
v 525.506042 1.724544 -192.423920
v 474.665710 1.724546 -177.262177
v 499.258118 3.518488 -276.469666
v 499.929993 1.724538 -278.185516
v 450.591614 3.518489 -261.956238
v 449.089661 1.724539 -263.023773
vn 0.7771 0.6292 0.0129
vn 0.0140 0.5344 -0.8451
vn -0.7771 0.6292 -0.0129
vn -0.0140 0.5344 0.8451
vn -0.6103 0.3940 0.6872
vn 0.6741 0.4243 0.6046
vn 0.6103 0.3940 -0.6872
vn -0.6741 0.4243 -0.6046
vn -0.6740 0.4244 -0.6046
vn -0.0390 -0.9986 -0.0350
vn -0.0000 0.7457 0.6663
vn -0.0000 0.7457 -0.6663
vn 0.8383 0.5451 -0.0000
vn 0.8383 0.5452 -0.0000
vn -0.8383 0.5451 -0.0000
vn -0.8384 0.5451 -0.0000
vn -0.8383 0.5452 -0.0000
vn 0.8384 0.5451 -0.0000
vn -0.0000 0.3775 0.9260
vn -0.0000 0.3775 -0.9260
vn -0.9208 0.3900 -0.0000
vn 0.9208 0.3900 -0.0000
vn -0.8890 0.4579 -0.0000
vn 0.8890 0.4579 -0.0000
vn 0.3321 0.9232 0.1934
vn 0.3861 0.9225 -0.0005
vn 0.3807 0.9247 -0.0077
vn 0.3011 0.9276 0.2211
vn 0.1874 0.9258 0.3284
vn 0.1497 0.9278 0.3416
vn -0.0005 0.9275 0.3738
vn -0.0049 0.9260 0.3775
vn -0.1865 0.9268 0.3259
vn -0.1610 0.9219 0.3524
vn -0.3295 0.9243 0.1925
vn -0.3118 0.9203 0.2364
vn -0.3861 0.9225 0.0005
vn -0.3808 0.9246 0.0077
vn -0.3321 0.9232 -0.1934
vn -0.3012 0.9276 -0.2211
vn -0.1874 0.9258 -0.3284
vn -0.1496 0.9278 -0.3417
vn 0.0005 0.9275 -0.3738
vn 0.0049 0.9260 -0.3776
vn 0.1865 0.9268 -0.3258
vn 0.1610 0.9219 -0.3524
vn 0.3295 0.9243 -0.1925
vn 0.3118 0.9203 -0.2364
vn 0.2221 0.6292 0.7448
vn 0.8100 0.5344 -0.2416
vn -0.2221 0.6292 -0.7448
vn -0.8100 0.5344 0.2416
vt 9.781426 1.999501
vt 0.218570 1.999501
vt 9.995001 1.000501
vt 0.004995 1.000501
vt 9.832891 1.999501
vt 0.167110 1.999501
vt 9.995004 1.000501
vt 0.004997 1.000501
vt 0.218574 1.999499
vt 9.781429 1.999499
vt 0.004999 1.000498
vt 0.167110 1.999500
vt 9.832890 1.999499
vt 9.995004 1.000499
vt 0.004996 1.000499
vt 0.000500 1.000501
vt 0.999500 1.000499
vt 0.899743 1.999499
vt 0.100257 1.999500
vt 4.997502 1.000500
vt 0.002498 1.000500
vt 0.143868 1.999500
vt 4.856132 1.999500
vt 0.002498 1.000501
vt 4.997502 1.000501
vt 4.856132 1.999501
vt 0.143868 1.999501
vt 0.004995 1.000499
vt 3.222104 1.000499
vt 3.349672 1.999500
vt 0.109890 1.999500
vt 3.222105 1.000499
vt 3.349673 1.999500
vt 4.997497 1.000507
vt 1.655811 1.000508
vt 1.841275 1.999500
vt 4.812033 1.999499
vt 6.765158 1.000500
vt 6.637590 1.999501
vt 6.765158 1.000499
vt 6.637590 1.999500
vt 9.995005 1.000499
vt 9.890110 1.999500
vt 1.655816 1.000502
vt 4.997501 1.000500
vt 4.812037 1.999493
vt 1.841279 1.999494
vt 3.222104 1.000500
vt 3.349672 1.999501
vt 1.841276 1.999498
vt 1.655813 1.000506
vt 0.002498 1.000507
vt 0.187961 1.999499
vt 1.655814 1.000504
vt 1.841277 1.999496
vt 0.187962 1.999496
vt 0.002498 1.000504
vt 6.666666 1.000499
vt 7.500000 1.000499
vt 7.500000 1.999501
vt 6.666666 1.999501
vt 5.833333 1.000499
vt 5.833333 1.999501
vt 5.000000 1.000499
vt 5.000000 1.999501
vt 4.166666 1.000499
vt 4.166666 1.999501
vt 3.333333 1.000499
vt 3.333333 1.999501
vt 2.500000 1.000499
vt 2.500000 1.999501
vt 1.666666 1.000499
vt 1.666666 1.999501
vt 0.833333 1.000499
vt 0.833333 1.999501
vt 9.999999 1.000499
vt 10.833332 1.000499
vt 10.833332 1.999501
vt 9.999999 1.999501
vt 9.166666 1.000499
vt 9.166666 1.999501
vt 8.333332 1.000499
vt 8.333332 1.999501
s 1
usemtl ROOFTOP.004
f 1/1/1 2/2/1 3/3/1
f 4/4/1 3/3/1 2/2/1
f 5/5/2 1/6/2 6/7/2
f 3/8/2 6/7/2 1/6/2
f 7/9/3 5/10/3 8/11/3
f 6/7/3 8/11/3 5/10/3
f 2/12/4 7/13/4 4/4/4
f 8/14/4 4/4/4 7/13/4
f 9/1/5 10/2/5 11/3/5
f 12/4/5 11/3/5 10/2/5
f 13/5/6 9/6/6 14/7/6
f 11/8/6 14/7/6 9/6/6
f 15/9/7 13/10/7 16/11/7
f 14/7/7 16/11/7 13/10/7
f 10/12/8 15/13/8 12/4/8
f 16/14/9 12/4/9 15/13/9
f 17/14/10 18/15/10 12/4/10
f 12/4/10 16/14/10 17/14/10
f 19/16/11 20/17/11 21/18/11
f 21/18/11 22/19/11 19/16/11
f 23/17/12 24/16/12 25/19/12
f 25/19/12 26/18/12 23/17/12
f 20/20/13 23/21/14 26/22/14
f 26/22/14 21/23/13 20/20/13
f 24/24/15 19/25/16 22/26/16
f 22/26/16 25/27/17 24/24/15
f 27/16/11 28/17/11 29/18/11
f 29/18/11 30/19/11 27/16/11
f 31/17/12 32/16/12 33/19/12
f 33/19/12 34/18/12 31/17/12
f 28/20/13 31/21/18 34/22/18
f 34/22/18 29/23/14 28/20/13
f 32/24/15 27/25/15 30/26/15
f 30/26/15 33/27/15 32/24/15
f 35/16/11 36/17/11 37/18/11
f 37/18/11 38/19/11 35/16/11
f 39/17/12 40/16/12 41/19/12
f 41/19/12 42/18/12 39/17/12
f 36/20/13 39/21/13 42/22/13
f 42/22/13 37/23/13 36/20/13
f 40/24/17 35/25/15 38/26/15
f 38/26/15 41/27/17 40/24/17
f 43/16/11 44/17/11 45/18/11
f 45/18/11 46/19/11 43/16/11
f 47/17/12 48/16/12 49/19/12
f 49/19/12 50/18/12 47/17/12
f 44/20/18 47/21/13 50/22/13
f 50/22/13 45/23/18 44/20/18
f 48/24/17 43/25/15 46/26/15
f 46/26/15 49/27/17 48/24/17
f 51/16/11 52/17/11 53/18/11
f 53/18/11 54/19/11 51/16/11
f 55/17/12 56/16/12 57/19/12
f 57/19/12 58/18/12 55/17/12
f 52/20/13 55/21/18 58/22/18
f 58/22/18 53/23/13 52/20/13
f 56/24/16 51/25/16 54/26/16
f 54/26/16 57/27/16 56/24/16
f 59/28/19 60/29/19 61/30/19
f 61/30/19 62/31/19 59/28/19
f 63/32/20 64/28/20 65/31/20
f 65/31/20 66/33/20 63/32/20
f 64/34/21 59/35/21 62/36/21
f 62/36/21 65/37/21 64/34/21
f 60/29/19 69/38/19 72/39/19
f 72/39/19 61/30/19 60/29/19
f 67/40/20 63/32/20 66/33/20
f 66/33/20 68/41/20 67/40/20
f 69/38/19 70/42/19 71/43/19
f 71/43/19 72/39/19 69/38/19
f 70/44/22 73/45/22 74/46/22
f 74/46/22 71/47/22 70/44/22
f 73/42/20 67/40/20 68/41/20
f 68/41/20 74/43/20 73/42/20
f 75/28/19 76/29/19 77/30/19
f 77/30/19 78/31/19 75/28/19
f 79/32/20 80/28/20 81/31/20
f 81/31/20 82/33/20 79/32/20
f 80/34/21 75/35/21 78/36/21
f 78/36/21 81/37/21 80/34/21
f 83/48/19 84/38/19 85/39/19
f 85/39/19 86/49/19 83/48/19
f 87/40/20 79/32/20 82/33/20
f 82/33/20 88/41/20 87/40/20
f 89/40/19 90/42/19 91/43/19
f 91/43/19 92/41/19 89/40/19
f 90/44/22 93/45/22 94/46/22
f 94/46/22 91/47/22 90/44/22
f 93/42/20 87/40/20 88/41/20
f 88/41/20 94/43/20 93/42/20
f 77/50/23 76/51/23 83/52/23
f 83/52/23 86/53/23 77/50/23
f 89/54/24 92/55/24 85/56/24
f 85/56/24 84/57/24 89/54/24
f 95/28/19 96/29/19 97/30/19
f 97/30/19 98/31/19 95/28/19
f 99/32/20 100/28/20 101/31/20
f 101/31/20 102/33/20 99/32/20
f 100/34/21 95/35/21 98/36/21
f 98/36/21 101/37/21 100/34/21
f 96/29/19 103/38/19 104/39/19
f 104/39/19 97/30/19 96/29/19
f 105/40/20 99/32/20 102/33/20
f 102/33/20 106/41/20 105/40/20
f 103/38/19 107/42/19 108/43/19
f 108/43/19 104/39/19 103/38/19
f 107/44/22 109/45/22 110/46/22
f 110/46/22 108/47/22 107/44/22
f 109/42/20 105/40/20 106/41/20
f 106/41/20 110/43/20 109/42/20
f 111/58/25 112/59/26 113/60/27
f 113/60/27 114/61/28 111/58/25
f 115/62/29 111/58/25 114/61/28
f 114/61/28 116/63/30 115/62/29
f 117/64/31 115/62/29 116/63/30
f 116/63/30 118/65/32 117/64/31
f 119/66/33 117/64/31 118/65/32
f 118/65/32 120/67/34 119/66/33
f 121/68/35 119/66/33 120/67/34
f 120/67/34 122/69/36 121/68/35
f 123/70/37 121/68/35 122/69/36
f 122/69/36 124/71/38 123/70/37
f 125/72/39 123/70/37 124/71/38
f 124/71/38 126/73/40 125/72/39
f 127/74/41 125/72/39 126/73/40
f 126/73/40 128/75/42 127/74/41
f 129/76/43 127/77/41 128/78/42
f 128/78/42 130/79/44 129/76/43
f 131/80/45 129/76/43 130/79/44
f 130/79/44 132/81/46 131/80/45
f 133/82/47 131/80/45 132/81/46
f 132/81/46 134/83/48 133/82/47
f 112/59/26 133/82/47 134/83/48
f 134/83/48 113/60/27 112/59/26
f 135/1/49 136/2/49 137/3/49
f 138/4/49 137/3/49 136/2/49
f 139/5/50 135/6/50 140/7/50
f 137/8/50 140/7/50 135/6/50
f 141/9/51 139/10/51 142/11/51
f 140/7/51 142/11/51 139/10/51
f 136/12/52 141/13/52 138/4/52
f 142/14/52 138/4/52 141/13/52
