# Blender 4.4.3
# www.blender.org
mtllib RVA.mtl
o RVA
v -187.417816 3.394326 37.186607
v -187.470169 3.394326 45.645233
v -184.260208 3.394326 45.665100
v -184.207870 3.394326 37.206474
v -187.407684 0.254181 35.548943
v -184.197739 0.254181 35.568806
v -184.260208 0.254181 45.665100
v -187.470169 0.254181 45.645233
v -187.407684 1.490708 35.548943
v -184.197739 1.537627 35.568806
v -181.201950 3.394326 43.475826
v -181.254303 3.394327 51.934456
v -178.044342 3.394327 51.954315
v -177.992004 3.394326 43.495689
v -181.191818 0.254181 41.838161
v -177.981873 0.254181 41.858025
v -178.044342 0.254182 51.954315
v -181.254303 0.254182 51.934456
v -181.191818 1.490708 41.838161
v -177.981873 1.537627 41.858025
v -174.643555 3.394326 36.984623
v -174.695908 3.394326 45.443253
v -171.485947 3.394326 45.463116
v -171.433609 3.394326 37.004486
v -174.633423 0.254181 35.346958
v -171.423477 0.254181 35.366821
v -171.485947 0.254181 45.463116
v -174.695908 0.254181 45.443253
v -174.633423 1.490708 35.346958
v -171.423477 1.537627 35.366821
v -161.536102 3.394326 36.292992
v -167.301392 3.394326 42.482704
v -164.952469 3.394326 44.670567
v -159.187180 3.394326 38.480854
v -160.419891 0.254181 35.094608
v -158.070969 0.254181 37.282471
v -164.952469 0.254181 44.670567
v -167.301392 0.254181 42.482704
v -160.419891 1.490708 35.094608
v -158.070969 1.537627 37.282471
v -200.138580 3.394327 47.608711
v -191.679932 3.394327 47.561302
v -191.697922 3.394326 44.351337
v -200.156570 3.394326 44.398750
v -201.776245 0.254182 47.617893
v -201.794250 0.254181 44.407928
v -191.697922 0.254181 44.351337
v -191.679932 0.254182 47.561302
v -201.776245 1.490709 47.617893
v -201.794250 1.537627 44.407928
v -118.065872 4.471587 73.902176
v -118.145035 4.471588 86.698181
v -113.289093 4.471588 86.728226
v -113.209930 4.471587 73.932220
v -118.050522 -0.278747 71.424759
v -113.194580 -0.278747 71.454803
v -113.289093 -0.278745 86.728226
v -118.145035 -0.278745 86.698181
v -118.050522 1.591841 71.424759
v -113.194580 1.662819 71.454803
v -108.662674 4.471587 83.416351
v -108.741829 4.471588 96.212357
v -103.885895 4.471588 96.242401
v -103.806725 4.471587 83.446404
v -108.647308 -0.278746 80.938934
v -103.791382 -0.278746 80.968987
v -103.885895 -0.278745 96.242401
v -108.741829 -0.278745 96.212357
v -108.647308 1.591842 80.938934
v -103.791382 1.662820 80.968987
v -98.741264 4.471587 73.596619
v -98.820450 4.471588 86.392609
v -93.964493 4.471588 86.422661
v -93.885338 4.471587 73.626663
v -98.725937 -0.278747 71.119202
v -93.869980 -0.278747 71.149246
v -93.964493 -0.278745 86.422661
v -98.820450 -0.278745 86.392609
v -98.725937 1.591841 71.119202
v -93.869980 1.662819 71.149246
v -78.912666 4.471586 72.550339
v -87.634254 4.471587 81.913979
v -84.080849 4.471587 85.223724
v -75.359253 4.471587 75.860077
v -77.224091 -0.278747 70.737457
v -73.670685 -0.278746 74.047195
v -84.080849 -0.278746 85.223724
v -87.634254 -0.278746 81.913979
v -77.224091 1.591841 70.737457
v -73.670685 1.662820 74.047195
v -137.309509 4.471588 89.668472
v -124.513466 4.471588 89.596756
v -124.540680 4.471587 84.740799
v -137.336700 4.471587 84.812531
v -139.786926 -0.278745 89.682365
v -139.814148 -0.278746 84.826416
v -124.540680 -0.278746 84.740799
v -124.513466 -0.278745 89.596756
v -139.786926 1.591843 89.682365
v -139.814148 1.662820 84.826416
v 567.704590 -0.153078 -42.462021
v 576.161560 -0.153078 -42.636627
v 576.095276 -0.153078 -45.845909
v 567.638306 -0.153078 -45.671364
v 566.067200 -3.293224 -42.428230
v 566.000977 -3.293223 -45.637573
v 576.095276 -3.293224 -45.845909
v 576.161560 -3.293224 -42.636627
v 566.067200 -2.056696 -42.428230
v 566.000977 -2.009777 -45.637573
v 573.824829 -0.153079 -48.844368
v 582.281799 -0.153079 -49.018852
v 582.215515 -0.153079 -52.228195
v 573.758545 -0.153079 -52.053711
v 572.187500 -3.293225 -48.810577
v 572.121216 -3.293224 -52.019920
v 582.215515 -3.293224 -52.228195
v 582.281799 -3.293225 -49.018852
v 572.187500 -2.056697 -48.810577
v 572.121216 -2.009778 -52.019920
v 567.160034 -0.153079 -55.226280
v 575.617004 -0.153079 -55.400826
v 575.550781 -0.153079 -58.610168
v 567.093811 -0.153079 -58.435623
v 565.522705 -3.293225 -55.192490
v 565.456421 -3.293224 -58.401825
v 575.550781 -3.293225 -58.610168
v 575.617004 -3.293225 -55.400826
v 565.522705 -2.056697 -55.192490
v 565.456421 -2.009778 -58.401825
v 566.117249 -0.153080 -68.310440
v 572.459290 -0.153080 -62.713318
v 574.583374 -0.153080 -65.120026
v 568.241272 -0.153080 -70.717216
v 564.889343 -3.293225 -69.394104
v 567.013428 -3.293226 -71.800873
v 574.583374 -3.293226 -65.120026
v 572.459290 -3.293226 -62.713318
v 564.889343 -2.056698 -69.394104
v 567.013428 -2.009779 -71.800873
v 578.464233 -0.153077 -30.025330
v 578.189941 -0.153078 -38.479721
v 574.981689 -0.153078 -38.375595
v 575.255920 -0.153077 -29.921265
v 578.517334 -3.293222 -28.388565
v 575.309021 -3.293222 -28.284431
v 574.981689 -3.293223 -38.375595
v 578.189941 -3.293223 -38.479721
v 578.517334 -2.056695 -28.388565
v 575.309021 -2.009776 -28.284431
v 423.605042 4.471590 114.499245
v 423.525940 4.471591 127.295250
v 428.381836 4.471591 127.325302
v 428.461060 4.471590 114.529297
v 423.620422 -0.278744 112.021835
v 428.476440 -0.278744 112.051880
v 428.381836 -0.278742 127.325302
v 423.525940 -0.278742 127.295250
v 423.620422 1.591844 112.021835
v 428.476440 1.662822 112.051880
v 433.008301 4.471591 124.013435
v 432.929016 4.471591 136.809433
v 437.785034 4.471591 136.839478
v 437.864197 4.471591 124.043480
v 433.023621 -0.278743 121.536018
v 437.879517 -0.278743 121.566071
v 437.785034 -0.278742 136.839478
v 432.929016 -0.278742 136.809433
v 433.023621 1.591845 121.536018
v 437.879517 1.662823 121.566071
v 442.929688 4.471590 114.193695
v 442.850586 4.471591 126.989693
v 447.706421 4.471591 127.019737
v 447.785645 4.471590 114.223747
v 442.945007 -0.278744 111.716278
v 447.801025 -0.278744 111.746330
v 447.706421 -0.278742 127.019737
v 442.850586 -0.278742 126.989693
v 442.945007 1.591844 111.716278
v 447.801025 1.662822 111.746330
v 462.758301 4.471590 113.147423
v 454.036682 4.471590 122.511055
v 457.590088 4.471591 125.820801
v 466.311707 4.471590 116.457161
v 464.446777 -0.278744 111.334534
v 468.000183 -0.278743 114.644279
v 457.590088 -0.278742 125.820801
v 454.036682 -0.278743 122.511055
v 464.446777 1.591844 111.334534
v 468.000183 1.662823 114.644279
v 404.361450 4.471591 130.265564
v 417.157471 4.471591 130.193832
v 417.130310 4.471591 125.337883
v 404.334229 4.471591 125.409607
v 401.884155 -0.278742 130.279449
v 401.856812 -0.278743 125.423500
v 417.130310 -0.278743 125.337883
v 417.157471 -0.278742 130.193832
v 401.884155 1.591846 130.279449
v 401.856812 1.662823 125.423500
v 353.762878 16.215492 -393.344238
v 358.619507 16.215494 -386.418610
v 361.247681 16.215494 -388.261688
v 356.391113 16.215492 -395.187286
v 352.822632 13.075348 -394.685150
v 355.450806 13.075348 -396.528137
v 361.247681 13.075348 -388.261688
v 358.619507 13.075348 -386.418610
v 352.822632 14.311873 -394.685150
v 355.450806 14.358794 -396.528137
v 362.472717 16.215492 -391.817657
v 367.329285 16.215494 -384.891998
v 369.957458 16.215494 -386.735077
v 365.100952 16.215492 -393.660706
v 361.532471 13.075349 -393.158508
v 364.160583 13.075348 -395.001526
v 369.957458 13.075348 -386.735077
v 367.329285 13.075349 -384.891998
v 361.532471 14.311875 -393.158508
v 364.160583 14.358794 -395.001526
v 364.059204 16.215490 -400.907837
v 368.915833 16.215492 -393.982208
v 371.544067 16.215492 -395.825256
v 366.687439 16.215490 -402.750854
v 363.118958 13.075347 -402.248688
v 365.747131 13.075347 -404.091736
v 371.544067 13.075348 -395.825256
v 368.915833 13.075348 -393.982208
v 363.118958 14.311872 -402.248688
v 365.747131 14.358793 -404.091736
v 374.343445 16.215492 -409.063507
v 373.228882 16.215490 -400.678558
v 376.410828 16.215490 -400.255554
v 377.525452 16.215492 -408.640533
v 374.559265 13.075346 -410.686920
v 377.741333 13.075347 -410.263916
v 376.410828 13.075347 -400.255554
v 373.228882 13.075347 -400.678558
v 374.559265 14.311873 -410.686920
v 377.741333 14.358793 -410.263916
v 349.429565 16.215492 -377.480347
v 356.297485 16.215492 -382.418365
v 354.423523 16.215492 -385.024536
v 347.555664 16.215492 -380.086639
v 348.099915 13.075349 -376.524353
v 346.226013 13.075349 -379.130615
v 354.423523 13.075349 -385.024536
v 356.297485 13.075349 -382.418365
v 348.099915 14.311874 -376.524353
v 346.226013 14.358793 -379.130615
v 340.852295 16.215487 -474.529572
v 336.785461 16.215487 -481.946625
v 333.970825 16.215487 -480.403351
v 338.037476 16.215487 -472.986298
v 341.639587 13.075342 -473.093475
v 338.824890 13.075342 -471.550262
v 333.970825 13.075341 -480.403351
v 336.785461 13.075341 -481.946625
v 341.639587 14.311868 -473.093475
v 338.824890 14.358788 -471.550262
v 330.416016 16.215487 -477.413849
v 326.349365 16.215487 -484.830963
v 323.534729 16.215487 -483.287689
v 327.601318 16.215487 -475.870575
v 331.203308 13.075342 -475.977875
v 328.388733 13.075341 -474.434601
v 323.534729 13.075341 -483.287689
v 326.349365 13.075341 -484.830963
v 331.203308 14.311869 -475.977875
v 328.388733 14.358788 -474.434601
v 327.840881 16.215485 -468.552917
v 323.774170 16.215487 -475.970001
v 320.959473 16.215487 -474.426727
v 325.026184 16.215487 -467.009705
v 328.628235 13.075342 -467.116913
v 325.813538 13.075342 -465.573608
v 320.959473 13.075341 -474.426727
v 323.774170 13.075341 -475.970001
v 328.628235 14.311868 -467.116913
v 325.813538 14.358788 -465.573608
v 316.463135 16.215488 -467.299927
v 318.491760 16.215485 -475.511749
v 315.375549 16.215485 -476.281708
v 313.346802 16.215487 -468.069824
v 316.070374 13.075342 -465.710083
v 312.954041 13.075342 -466.479950
v 315.375549 13.075341 -476.281708
v 318.491760 13.075341 -475.511749
v 316.070374 14.311870 -465.710083
v 312.954041 14.358788 -466.479950
v 347.868652 16.215485 -483.688629
v 340.500061 16.215485 -479.534637
v 342.076416 16.215485 -476.738495
v 349.445068 16.215485 -480.892303
v 349.295288 13.075341 -484.492767
v 350.871643 13.075341 -481.696564
v 342.076416 13.075341 -476.738495
v 340.500061 13.075341 -479.534637
v 349.295288 14.311867 -484.492767
v 350.871643 14.358786 -481.696564
v -24.932373 14.350482 -362.676575
v -24.860855 14.843780 -371.135101
v -28.070709 14.843780 -371.162170
v -28.142273 14.350482 -362.703705
v -24.946289 11.210336 -361.038910
v -28.156204 11.210336 -361.066101
v -28.070709 11.703633 -371.162170
v -24.860855 11.703633 -371.135101
v -24.946289 12.446862 -361.038910
v -28.156204 12.493783 -361.066101
v -31.133911 14.350482 -368.979889
v -31.062332 14.843779 -377.438416
v -34.272186 14.843779 -377.465515
v -34.343811 14.350482 -369.007019
v -31.147781 11.210338 -367.342255
v -34.357620 11.210336 -367.369385
v -34.272186 11.703632 -377.465515
v -31.062332 11.703632 -377.438416
v -31.147781 12.446864 -367.342255
v -34.357620 12.493783 -367.369385
v -37.707016 14.350480 -362.503571
v -37.635498 14.350482 -370.962067
v -40.845383 14.350482 -370.989227
v -40.916916 14.350480 -362.530731
v -37.720886 11.210336 -360.865936
v -40.930832 11.210336 -360.893127
v -40.845383 11.210336 -370.989227
v -37.635498 11.210336 -370.962067
v -37.720886 12.446862 -360.865936
v -40.930832 12.493783 -360.893127
v -49.211502 14.450302 -374.326477
v -48.814697 14.806089 -382.775879
v -52.021088 14.806089 -382.926514
v -52.417969 14.450302 -374.477081
v -49.288330 11.310155 -372.690613
v -52.494873 11.310155 -372.841217
v -52.021088 11.665945 -382.926514
v -48.814697 11.665945 -382.775879
v -49.288330 12.546684 -372.690613
v -52.494873 12.593603 -372.841217
v -22.237183 15.295668 -374.693268
v -21.897583 15.295670 -383.145294
v -25.104996 15.295670 -383.274048
v -25.444641 15.295670 -374.822113
v -22.302963 12.155523 -373.056915
v -25.510376 12.155523 -373.185791
v -25.104996 12.155523 -383.274048
v -21.897583 12.155523 -383.145294
v -22.302963 13.392050 -373.056915
v -25.510376 13.438971 -373.185791
v -376.780304 23.178541 -253.704742
v -388.801331 23.178543 -249.318604
v -387.136932 23.178543 -244.756775
v -375.115784 23.178543 -249.142792
v -374.452881 18.428211 -254.553864
v -372.788391 18.428211 -249.991882
v -387.136932 18.428211 -244.756775
v -388.801331 18.428211 -249.318604
v -374.452881 20.298796 -254.553864
v -372.788391 20.369774 -249.991882
v -328.031006 23.842062 -280.287354
v -340.052124 23.842062 -275.901398
v -338.387634 23.842062 -271.339478
v -326.366577 23.842062 -275.725494
v -325.708862 18.428209 -281.136536
v -324.044434 18.428209 -276.574677
v -338.392944 18.428209 -271.339478
v -340.057434 18.428209 -275.901398
v -325.708862 20.298796 -281.136536
v -324.044434 20.369774 -276.574677
v -315.374176 23.178539 -274.411163
v -327.395203 23.178539 -270.025024
v -325.730804 23.178539 -265.463257
v -313.709686 23.178539 -269.849243
v -313.046783 18.428205 -275.260345
v -311.382324 18.428205 -270.698334
v -325.730804 18.428205 -265.463257
v -327.395203 18.428205 -270.025024
v -313.046783 20.298794 -275.260345
v -311.382324 20.369772 -270.698334
v -340.852600 22.808569 -264.347687
v -352.669067 22.808567 -269.258484
v -354.532623 22.808569 -264.774231
v -342.716156 22.808569 -259.863434
v -338.564819 18.428207 -263.396973
v -340.428436 18.428211 -258.912720
v -354.532593 18.428207 -264.774231
v -352.669067 18.428205 -269.258484
v -338.564819 20.298796 -263.396973
v -340.428436 20.369774 -258.912720
v -361.454651 23.908520 -257.906830
v -364.387573 23.908518 -270.362427
v -369.114349 23.908518 -269.249481
v -366.181427 23.908520 -256.793823
v -360.886841 18.428211 -255.495453
v -365.613586 18.428211 -254.382294
v -369.114349 18.428205 -269.249481
v -364.387573 18.428205 -270.362427
v -360.886841 21.028774 -255.495453
v -365.613586 21.099752 -254.382294
v -561.408569 26.130821 -218.310730
v -574.098206 26.130823 -216.662262
v -573.472717 26.130825 -211.846771
v -560.783020 26.130825 -213.495087
v -558.951782 21.380491 -218.629822
v -558.326172 21.380493 -213.814117
v -573.472717 21.380493 -211.846771
v -574.098206 21.380491 -216.662262
v -558.951782 23.251076 -218.629822
v -558.326172 23.322056 -213.814117
v -508.022827 25.565067 -233.577942
v -520.712524 25.565067 -231.929657
v -520.086975 25.565067 -227.114044
v -507.397339 25.565067 -228.762360
v -505.571228 20.151215 -233.898224
v -504.945679 20.151215 -229.082672
v -520.092163 20.151215 -227.115173
v -520.717712 20.151215 -231.930817
v -505.571228 22.021801 -233.898224
v -504.945679 22.092779 -229.082672
v -496.959167 24.901545 -225.073761
v -509.648804 24.901545 -223.425262
v -509.023254 24.901545 -218.609833
v -496.333618 24.901545 -220.258118
v -494.502319 20.151211 -225.392883
v -493.876831 20.151211 -220.577209
v -509.023254 20.151211 -218.609833
v -509.648804 20.151211 -223.425262
v -494.502319 22.021799 -225.392883
v -493.876831 22.092777 -220.577209
v -524.022583 24.531572 -220.831299
v -534.477600 24.531572 -228.209534
v -537.277527 24.531572 -224.241913
v -526.822510 24.531572 -216.863678
v -521.998352 20.151211 -219.402893
v -524.798401 20.151215 -215.435272
v -537.277466 20.151211 -224.241882
v -534.477539 20.151211 -228.209534
v -521.998352 22.021799 -219.402893
v -524.798401 22.092777 -215.435272
v -545.534790 25.631523 -219.056213
v -545.670227 25.631523 -231.851715
v -550.525940 25.631523 -231.800446
v -550.390625 25.631523 -219.004852
v -545.508667 20.151215 -216.579010
v -550.364380 20.151215 -216.527496
v -550.525940 20.151211 -231.800446
v -545.670227 20.151211 -231.851715
v -545.508667 22.751778 -216.579010
v -550.364380 22.822756 -216.527496
v 668.067566 8.728912 -474.719208
v 677.866089 8.728222 -482.949188
v 674.742981 8.770598 -486.667511
v 664.944519 8.771290 -478.437653
v 666.143494 3.978899 -473.157501
v 663.020508 4.021270 -476.875885
v 674.716187 4.020443 -486.699066
v 677.839172 3.978072 -482.980804
v 666.154053 5.849413 -473.145050
v 663.031433 5.962763 -476.862946
v 676.899109 9.617442 -491.262054
v 686.697693 9.616751 -499.491791
v 683.574585 9.659128 -503.210236
v 673.776062 9.659820 -494.980255
v 674.975220 4.867422 -489.700165
v 671.852173 4.909799 -493.418427
v 683.547791 4.908972 -503.241791
v 686.670837 4.866595 -499.523285
v 674.985779 6.737942 -489.687775
v 671.863098 6.851292 -493.405548
v 668.260132 9.704025 -495.531830
v 678.058655 9.703335 -503.761749
v 674.935608 9.745705 -507.479950
v 665.137146 9.746395 -499.250031
v 666.336121 4.954004 -493.970062
v 663.213135 4.996381 -497.688385
v 674.908813 4.995555 -507.511627
v 678.031799 4.953179 -503.793304
v 666.346802 6.824518 -493.957611
v 663.223999 6.937874 -497.675446
v 667.554749 11.187961 -519.245911
v 680.337769 11.111852 -518.669006
v 680.556824 11.142861 -523.520081
v 667.773804 11.218970 -524.096985
v 665.053040 6.452542 -519.389099
v 665.272095 6.483551 -524.240112
v 680.530029 6.392705 -523.551636
v 680.310913 6.361696 -518.700562
v 665.063599 8.323062 -519.376709
v 665.283081 8.425043 -524.227295
v 667.964783 7.854338 -451.925018
v 674.781433 7.966003 -462.753937
v 670.671936 7.965765 -465.340912
v 663.855225 7.854100 -454.512115
v 666.667358 3.082564 -449.863525
v 662.557739 3.082326 -452.450409
v 670.694275 3.215610 -465.375885
v 674.803650 3.215847 -462.788818
v 666.658569 4.953078 -449.849731
v 662.548584 5.023818 -452.436188
v -361.881439 26.499472 -612.059448
v -361.487000 26.499474 -599.269287
v -356.633301 26.499474 -599.418823
v -357.027588 26.499474 -612.209045
v -361.957764 21.749142 -614.535706
v -357.103851 21.749142 -614.685364
v -356.633301 21.749142 -599.418823
v -361.487000 21.749142 -599.269287
v -361.957764 23.619726 -614.535706
v -357.103851 23.690704 -614.685364
v -362.213806 26.032890 -661.664673
v -372.843994 26.032890 -654.541199
v -370.140625 26.032890 -650.507202
v -359.510529 26.032890 -657.630676
v -360.160828 20.619038 -663.042542
v -357.457581 20.619038 -659.008606
v -370.145752 20.619038 -650.505859
v -372.849121 20.619038 -654.539978
v -360.160828 22.489624 -663.042542
v -357.457581 22.560602 -659.008606
v -361.716370 25.369366 -673.985168
v -374.512543 25.369366 -673.982483
v -374.511536 25.369368 -669.126526
v -361.715302 25.369368 -669.129028
v -359.238831 20.619032 -673.985657
v -359.237915 20.619034 -669.129456
v -374.511536 20.619034 -669.126526
v -374.512543 20.619032 -673.982483
v -359.238831 22.489620 -673.985657
v -359.237915 22.560600 -669.129456
v -362.644958 26.129498 -644.088501
v -371.014191 26.129498 -634.408569
v -367.340759 26.129498 -631.232605
v -358.971527 26.129498 -640.912537
v -361.024689 21.749134 -645.962646
v -357.351257 21.749140 -642.786621
v -367.340729 21.749136 -631.232605
v -371.014191 21.749136 -634.408569
v -361.024689 23.619722 -645.962646
v -357.351257 23.690702 -642.786621
v -356.299988 27.229448 -626.321228
v -369.046997 27.229448 -627.442993
v -369.472778 27.229448 -622.605591
v -356.725708 27.229448 -621.483887
v -353.832214 21.749140 -626.104004
v -354.257751 21.749140 -621.266724
v -369.472778 21.749136 -622.605591
v -369.046997 21.749136 -627.442993
v -353.832214 24.349703 -626.104004
v -354.257751 24.420681 -621.266724
v -367.848999 15.717509 -800.790649
v -369.541382 15.717512 -788.106750
v -364.728088 15.717512 -787.464478
v -363.035522 15.717511 -800.148376
v -367.521301 10.967178 -803.246277
v -362.707764 10.967178 -802.604004
v -364.728088 10.967180 -787.464478
v -369.541382 10.967180 -788.106750
v -367.521301 12.837763 -803.246277
v -362.707764 12.908741 -802.604004
v -360.103943 15.250928 -849.788635
v -371.751678 15.250928 -844.490173
v -369.740906 15.250928 -840.069946
v -358.093201 15.250928 -845.368530
v -357.854065 9.837075 -850.814026
v -355.843323 9.837075 -846.393921
v -369.746155 9.837075 -840.069458
v -371.756958 9.837075 -844.489807
v -357.854065 11.707662 -850.814026
v -355.843323 11.778640 -846.393921
v -357.607971 14.587404 -861.863892
v -370.234009 14.587404 -863.943665
v -371.023285 14.587404 -859.152405
v -358.397278 14.587404 -857.072266
v -355.163391 9.837070 -861.461121
v -355.952820 9.837070 -856.669495
v -371.023285 9.837070 -859.152405
v -370.234009 9.837070 -863.943665
v -355.163391 11.707659 -861.461121
v -355.952820 11.778637 -856.669495
v -363.389771 15.347532 -832.517029
v -373.222778 15.347533 -824.328247
v -370.115173 15.347533 -820.596741
v -360.282166 15.347532 -828.785522
v -361.486053 10.967171 -834.102478
v -358.378479 10.967175 -830.370972
v -370.115173 10.967172 -820.596741
v -373.222778 10.967172 -824.328247
v -361.486053 12.837759 -834.102478
v -358.378479 12.908737 -830.370972
v -360.020935 16.447487 -813.953857
v -372.415405 16.447487 -817.135132
v -373.622803 16.447487 -812.431580
v -361.228210 16.447487 -809.250183
v -357.621399 10.967178 -813.337891
v -358.828522 10.967178 -808.634277
v -373.622803 10.967175 -812.431580
v -372.415405 10.967174 -817.135132
v -357.621399 13.567741 -813.337891
v -358.828522 13.638720 -808.634277
v -137.074921 17.617304 -857.199463
v -145.768356 17.617306 -847.809570
v -142.205093 17.617308 -844.510498
v -133.511536 17.617306 -853.900269
v -135.391785 12.866974 -859.017334
v -131.828339 12.866974 -855.718140
v -142.205093 12.866975 -844.510498
v -145.768356 12.866975 -847.809570
v -135.391785 14.737558 -859.017334
v -131.828339 14.808537 -855.718140
v -102.505356 22.811270 -892.776733
v -115.077682 22.811270 -895.160156
v -115.982101 22.811270 -890.389038
v -103.409744 22.811270 -888.005859
v -100.075783 17.397417 -892.318054
v -100.980179 17.397417 -887.546997
v -115.986656 17.397417 -890.391724
v -115.082214 17.397417 -895.162842
v -100.075783 19.268003 -892.318054
v -100.980179 19.338980 -887.546997
v -93.506035 22.775417 -901.206116
v -102.625290 22.775417 -910.182861
v -106.031784 22.775417 -906.722290
v -96.912697 22.775417 -897.745361
v -91.740479 18.025085 -899.468018
v -95.147217 18.025087 -896.007324
v -106.031784 18.025085 -906.722290
v -102.625290 18.025085 -910.182861
v -91.740479 19.895672 -899.468018
v -95.147217 19.966654 -896.007324
v -115.145126 21.192665 -880.556213
v -127.900299 21.192665 -879.531677
v -127.511475 21.192665 -874.691223
v -114.756287 21.192665 -875.715759
v -112.675636 16.812304 -880.754639
v -112.286804 16.812307 -875.914185
v -127.511475 16.812304 -874.691162
v -127.900299 16.812304 -879.531677
v -112.675636 18.682892 -880.754639
v -112.286804 18.753870 -875.914185
v -123.091110 20.706472 -863.444702
v -131.386337 20.706470 -873.188049
v -135.083923 20.706472 -870.040222
v -126.788681 20.706472 -860.296753
v -121.485275 15.226164 -861.558350
v -125.182663 15.226164 -858.410339
v -135.083923 15.226159 -870.040222
v -131.386337 15.226159 -873.188049
v -121.485275 17.826727 -861.558350
v -125.182663 17.897705 -858.410339
v 365.055298 35.089458 -876.830994
v 360.218323 35.089458 -869.891602
v 362.851746 35.089458 -868.056091
v 367.688721 35.089458 -874.995422
v 365.991821 31.949306 -878.174500
v 368.625244 31.949308 -876.338928
v 362.851746 31.949310 -868.056091
v 360.218323 31.949308 -869.891602
v 365.991821 33.185837 -878.174500
v 368.625244 33.232758 -876.338928
v 366.612244 35.089458 -868.126404
v 361.775269 35.089458 -861.187073
v 364.408691 35.089458 -859.351562
v 369.245667 35.089458 -866.290833
v 367.548706 31.949312 -869.469910
v 370.182129 31.949310 -867.634338
v 364.408691 31.949310 -859.351562
v 361.775269 31.949308 -861.187073
v 367.548706 33.185841 -869.469910
v 370.182129 33.232758 -867.634338
v 375.694641 35.089451 -869.757751
v 370.857666 35.089458 -862.818359
v 373.491089 35.089458 -860.982727
v 378.328064 35.089451 -867.922119
v 376.631104 31.949308 -871.101196
v 379.264526 31.949310 -869.265625
v 373.491089 31.949310 -860.982727
v 370.857666 31.949308 -862.818359
v 376.631104 33.185837 -871.101196
v 379.264526 33.232758 -869.265625
v 386.885620 35.089458 -862.899170
v 378.627686 35.089455 -861.066895
v 379.322998 35.089455 -857.933167
v 387.580933 35.089458 -859.765381
v 388.484375 31.949308 -863.253906
v 389.179749 31.949308 -860.119995
v 379.322998 31.949308 -857.933167
v 378.627686 31.949308 -861.066895
v 388.484375 33.185841 -863.253906
v 389.179749 33.232758 -860.119995
v 348.668152 35.089451 -875.453918
v 355.664062 35.089455 -870.699097
v 357.468445 35.089455 -873.354004
v 350.472595 35.089455 -878.108826
v 347.313721 31.949306 -876.374451
v 349.118103 31.949306 -879.029358
v 357.468445 31.949306 -873.354004
v 355.664062 31.949308 -870.699097
v 347.313721 33.185837 -876.374451
v 349.118103 33.232758 -879.029358
v 392.537415 34.706902 -857.479492
v 387.700439 34.706902 -850.540161
v 390.333923 34.706902 -848.704651
v 395.170898 34.706902 -855.643982
v 393.473999 31.566751 -858.823059
v 396.107422 31.566753 -856.987427
v 390.333923 31.566753 -848.704651
v 387.700439 31.566751 -850.540161
v 393.473999 32.803280 -858.823059
v 396.107422 32.850201 -856.987427
v 394.094421 34.706902 -848.774963
v 389.257446 34.706902 -841.835632
v 391.890930 34.706902 -840.000061
v 396.727905 34.706902 -846.939331
v 395.030945 31.566755 -850.118408
v 397.664368 31.566753 -848.282898
v 391.890930 31.566755 -840.000061
v 389.257446 31.566753 -841.835632
v 395.030945 32.803284 -850.118408
v 397.664368 32.850201 -848.282898
v 403.176880 34.706894 -850.406311
v 398.339905 34.706902 -843.466919
v 400.973267 34.706902 -841.631287
v 405.810242 34.706894 -848.570679
v 404.113342 31.566751 -851.749756
v 406.746765 31.566753 -849.914124
v 400.973267 31.566755 -841.631287
v 398.339905 31.566753 -843.466919
v 404.113342 32.803280 -851.749756
v 406.746765 32.850201 -849.914124
v 414.367798 34.706902 -843.547791
v 406.109863 34.706898 -841.715454
v 406.805176 34.706898 -838.581787
v 415.063049 34.706902 -840.413940
v 415.966492 31.566753 -843.902527
v 416.661926 31.566753 -840.768555
v 406.805176 31.566753 -838.581787
v 406.109863 31.566753 -841.715454
v 415.966492 32.803284 -843.902527
v 416.661926 32.850201 -840.768555
v 376.150330 34.706894 -856.102417
v 383.146240 34.706898 -851.347656
v 384.950623 34.706898 -854.002502
v 377.954712 34.706898 -858.757324
v 374.795898 31.566751 -857.023010
v 376.600220 31.566751 -859.677917
v 384.950623 31.566751 -854.002502
v 383.146240 31.566751 -851.347656
v 374.795898 32.803280 -857.023010
v 376.600220 32.850201 -859.677917
v 428.428528 36.686008 -699.156921
v 432.095520 36.686008 -691.534302
v 434.988159 36.686008 -692.925964
v 431.321228 36.686008 -700.548584
v 427.718567 33.545860 -700.632812
v 430.611328 33.545860 -702.024414
v 434.988159 33.545860 -692.925964
v 432.095520 33.545860 -691.534302
v 427.718567 34.782387 -700.632812
v 430.611328 34.829308 -702.024414
v 436.774780 36.686008 -696.235657
v 440.441650 36.686008 -688.613037
v 443.334351 36.686008 -690.004700
v 439.667480 36.686008 -697.627258
v 436.064819 33.545864 -697.711426
v 438.957520 33.545860 -699.102966
v 443.334351 33.545860 -690.004700
v 440.441650 33.545860 -688.613037
v 436.064819 34.782387 -697.711426
v 438.957520 34.829308 -699.102966
v 439.816895 36.686001 -704.947510
v 443.483948 36.686008 -697.324890
v 446.376648 36.686008 -698.716431
v 442.709656 36.686001 -706.339050
v 439.107056 33.545860 -706.423340
v 441.999756 33.545860 -707.814880
v 446.376648 33.545860 -698.716431
v 443.483948 33.545860 -697.324890
v 439.107056 34.782387 -706.423340
v 441.999756 34.829308 -707.814880
v 451.289429 36.686008 -711.323975
v 448.827393 36.686005 -703.231445
v 451.898376 36.686005 -702.297241
v 454.360413 36.686008 -710.389587
v 451.766052 33.545860 -712.890686
v 454.837219 33.545860 -711.956421
v 451.898376 33.545860 -702.297241
v 448.827393 33.545860 -703.231445
v 451.766052 34.782387 -712.890686
v 454.837219 34.829308 -711.956421
v 421.575562 36.051476 -684.208008
v 429.154358 36.051479 -687.964600
v 427.728760 36.051479 -690.840698
v 420.149963 36.051479 -687.084106
v 420.108215 32.911335 -683.480774
v 418.682617 32.911335 -686.356812
v 427.728760 32.911335 -690.840698
v 429.154358 32.911335 -687.964600
v 420.108215 34.147861 -683.480774
v 418.682617 34.194782 -686.356812
v 458.786926 36.303452 -713.583252
v 462.453857 36.303452 -705.960632
v 465.346497 36.303452 -707.352295
v 461.679626 36.303452 -714.974915
v 458.076965 33.163303 -715.059143
v 460.969666 33.163303 -716.450684
v 465.346497 33.163303 -707.352295
v 462.453857 33.163303 -705.960632
v 458.076965 34.399826 -715.059143
v 460.969666 34.446747 -716.450684
v 467.133118 36.303452 -710.662048
v 470.800049 36.303452 -703.039368
v 473.692749 36.303452 -704.431091
v 470.025879 36.303452 -712.053650
v 466.423218 33.163307 -712.137817
v 469.315857 33.163303 -713.529358
v 473.692749 33.163303 -704.431091
v 470.800049 33.163303 -703.039368
v 466.423218 34.399834 -712.137817
v 469.315857 34.446747 -713.529358
v 470.175293 36.303444 -719.373901
v 473.842285 36.303452 -711.751282
v 476.735046 36.303452 -713.142822
v 473.068054 36.303444 -720.765442
v 469.465454 33.163303 -720.849670
v 472.358154 33.163303 -722.241211
v 476.735046 33.163303 -713.142822
v 473.842285 33.163303 -711.751282
v 469.465454 34.399826 -720.849670
v 472.358154 34.446747 -722.241211
v 481.647705 36.303452 -725.750366
v 479.185730 36.303448 -717.657776
v 482.256653 36.303448 -716.723511
v 484.718811 36.303452 -724.815979
v 482.124329 33.163303 -727.317078
v 485.195618 33.163303 -726.382751
v 482.256653 33.163303 -716.723511
v 479.185730 33.163303 -717.657776
v 482.124329 34.399834 -727.317078
v 485.195618 34.446747 -726.382751
v 451.933838 36.303444 -698.634338
v 459.512695 36.303448 -702.390991
v 458.087036 36.303448 -705.267029
v 450.508240 36.303448 -701.510437
v 450.466492 33.163303 -697.907043
v 449.040894 33.163303 -700.783142
v 458.087036 33.163303 -705.267029
v 459.512695 33.163303 -702.390991
v 450.466492 34.399826 -697.907043
v 449.040894 34.446747 -700.783142
v -87.820610 26.829519 -645.803101
v -92.475449 22.717178 -646.580505
v -88.467224 22.717182 -647.848022
v -88.488724 22.717180 -633.973389
v -88.488724 26.829521 -633.973389
v -91.828850 26.829519 -644.535461
v -84.480553 22.717184 -635.241089
v -84.480553 26.829521 -635.241089
v -88.467224 24.397982 -647.848022
v -92.475449 24.336535 -646.580505
v -81.550591 27.654604 -639.200378
v -78.210533 27.654604 -628.638306
v -74.202316 27.654604 -629.905945
v -77.542305 27.654604 -640.467957
v -82.197205 23.542269 -641.245178
v -78.189026 23.542267 -642.512878
v -74.202316 23.542267 -629.905945
v -78.210533 23.542263 -628.638306
v -82.197205 25.161623 -641.245178
v -78.189026 25.223066 -642.512878
v -75.990929 27.654593 -649.930298
v -72.650803 27.654604 -639.368164
v -68.642609 27.654604 -640.635620
v -71.982727 27.654593 -651.197693
v -76.637535 23.542261 -651.975098
v -72.629341 23.542265 -653.242554
v -68.642609 23.542267 -640.635620
v -72.650803 23.542263 -639.368164
v -76.637535 25.161617 -651.975098
v -72.629341 25.223064 -653.242554
v -59.935349 28.332113 -656.068970
v -64.627998 28.332109 -646.034424
v -60.820084 28.332109 -644.253662
v -56.127365 28.332113 -654.288086
v -59.026871 24.219772 -658.011719
v -55.218658 24.219772 -656.230713
v -60.820084 24.219772 -644.253662
v -64.627998 24.219772 -646.034424
v -59.026871 25.839132 -658.011719
v -55.218658 25.900576 -656.230713
v -103.485664 26.010389 -626.426697
v -92.963737 26.010395 -629.891113
v -94.278458 26.010395 -633.884094
v -104.800415 26.010395 -630.419800
v -105.522758 21.898058 -625.756042
v -106.837547 21.898058 -629.748962
v -94.278458 21.898058 -633.884094
v -92.963737 21.898058 -629.891113
v -105.522758 23.517414 -625.756042
v -106.837547 23.578861 -629.748962
v -49.796661 28.654654 -657.607361
v -46.456543 28.654654 -647.045288
v -42.448425 28.654654 -648.312927
v -45.788483 28.654654 -658.874939
v -50.443283 24.542313 -659.652405
v -46.435089 24.542315 -660.919861
v -42.448425 24.542315 -648.312927
v -46.456543 24.542313 -647.045288
v -50.443283 26.161667 -659.652405
v -46.435089 26.223114 -660.919861
v -39.518356 28.654654 -652.272339
v -36.178329 28.654655 -641.710205
v -32.170151 28.654655 -642.977844
v -35.510132 28.654654 -653.539795
v -40.164978 24.542316 -654.317139
v -36.156845 24.542315 -655.584717
v -32.170151 24.542316 -642.977844
v -36.178329 24.542315 -641.710205
v -40.164978 26.161673 -654.317139
v -36.156845 26.223114 -655.584717
v -33.958740 28.654642 -663.002136
v -30.618622 28.654654 -652.440063
v -26.610367 28.654654 -653.707520
v -29.950516 28.654642 -664.269714
v -34.605362 24.542313 -665.046997
v -30.597107 24.542315 -666.314514
v -26.610367 24.542315 -653.707520
v -30.618622 24.542313 -652.440063
v -34.605362 26.161667 -665.046997
v -30.597107 26.223114 -666.314514
v -17.903244 29.624132 -669.140808
v -22.595947 29.624126 -659.106262
v -18.788025 29.624126 -657.325500
v -14.095245 29.624132 -667.359924
v -16.994766 25.511789 -671.083496
v -13.186554 25.511791 -669.302673
v -18.788025 25.511791 -657.325500
v -22.595947 25.511791 -659.106262
v -16.994766 27.131149 -671.083496
v -13.186554 27.192593 -669.302673
v -61.453499 27.831108 -639.498535
v -50.931549 27.831114 -642.963013
v -52.246323 27.831112 -646.955933
v -62.768188 27.831114 -643.491577
v -63.490608 23.718779 -638.827881
v -64.805344 23.718779 -642.820862
v -52.246323 23.718777 -646.955933
v -50.931549 23.718779 -642.963013
v -63.490608 25.338133 -638.827881
v -64.805344 25.399580 -642.820862
vn -0.0000 1.0000 -0.0000
vn -0.0000 -1.0000 -0.0000
vn -1.0000 -0.0000 -0.0062
vn -0.0062 -0.0000 1.0000
vn 1.0000 -0.0000 0.0062
vn 0.0062 -0.0000 -1.0000
vn 0.0006 0.6561 -0.7547
vn 0.0047 0.6522 -0.7581
vn -0.0009 0.6576 -0.7534
vn -0.0050 0.6615 -0.7500
vn -0.7317 -0.0000 -0.6816
vn -0.6816 -0.0000 0.7317
vn 0.7317 -0.0000 0.6816
vn 0.6816 -0.0000 -0.7317
vn 0.5114 0.6561 -0.5550
vn 0.5167 0.6522 -0.5547
vn 0.5094 0.6576 -0.5551
vn 0.5040 0.6615 -0.5553
vn 0.0056 -0.0000 1.0000
vn 1.0000 -0.0000 -0.0056
vn -0.0056 -0.0000 -1.0000
vn -1.0000 -0.0000 0.0056
vn -0.7547 0.6561 0.0083
vn -0.7581 0.6522 0.0042
vn -0.7533 0.6576 0.0098
vn -0.7498 0.6615 0.0139
vn -0.6816 -0.0000 0.7318
vn 0.6816 -0.0000 -0.7318
vn -0.7546 0.6561 0.0083
vn 0.0206 -0.0000 0.9998
vn 0.9998 -0.0000 -0.0206
vn -0.0206 -0.0000 -0.9998
vn -0.9998 -0.0000 0.0206
vn -0.7544 0.6561 0.0196
vn -0.7579 0.6522 0.0157
vn -0.7531 0.6576 0.0211
vn -0.7495 0.6615 0.0251
vn -0.7496 0.6615 0.0252
vn -0.7579 0.6522 0.0156
vn -0.6617 -0.0000 0.7498
vn 0.7498 -0.0000 0.6617
vn 0.6617 -0.0000 -0.7498
vn -0.7498 -0.0000 -0.6617
vn -0.5685 0.6561 -0.4963
vn -0.5684 0.6522 -0.5016
vn -0.5686 0.6575 -0.4943
vn -0.5687 0.6614 -0.4890
vn 0.9995 -0.0000 -0.0324
vn -0.0324 -0.0000 -0.9995
vn -0.9995 -0.0000 0.0324
vn 0.0324 -0.0000 0.9995
vn 0.0285 0.6561 0.7542
vn 0.0246 0.6522 0.7577
vn 0.0300 0.6576 0.7528
vn -0.9995 -0.0001 0.0324
vn 0.0340 0.6615 0.7492
vn -0.7318 -0.0000 -0.6816
vn 0.7318 -0.0000 0.6816
vn 0.5094 0.6575 -0.5551
vn 0.7317 -0.0001 0.6816
vn 0.5041 0.6615 -0.5553
vn -0.7534 0.6575 0.0098
vn -0.7499 0.6615 0.0139
vn -0.8188 -0.0000 0.5741
vn -0.8188 -0.0000 0.5742
vn 0.5742 -0.0000 0.8187
vn 0.8187 -0.0000 -0.5742
vn 0.8188 -0.0000 -0.5741
vn -0.5741 -0.0000 -0.8188
vn -0.5742 -0.0000 -0.8187
vn -0.4366 0.6561 -0.6156
vn -0.4352 0.6522 -0.6207
vn -0.4371 0.6576 -0.6136
vn -0.4385 0.6615 -0.6084
vn 0.8188 -0.0001 -0.5741
vn -0.8187 -0.0000 0.5742
vn 0.5741 -0.0000 0.8188
vn -0.9913 -0.0000 -0.1318
vn -0.1318 -0.0000 0.9913
vn 0.9913 -0.0000 0.1318
vn 0.1318 -0.0000 -0.9913
vn 0.0954 0.6561 -0.7486
vn 0.0999 0.6522 -0.7515
vn 0.0938 0.6576 -0.7476
vn 0.0893 0.6615 -0.7447
vn 0.5838 -0.0000 0.8119
vn 0.8119 -0.0000 -0.5838
vn -0.5838 -0.0000 -0.8119
vn -0.8119 -0.0000 0.5838
vn -0.6104 0.6561 0.4438
vn -0.6155 0.6522 0.4425
vn -0.6084 0.6575 0.4443
vn -0.6032 0.6615 0.4456
vn 0.8768 -0.0000 -0.4808
vn -0.4808 -0.0000 -0.8768
vn -0.8768 -0.0000 0.4808
vn 0.4807 -0.0000 0.8769
vn 0.3664 0.6561 0.6598
vn 0.3644 0.6522 0.6647
vn 0.3671 0.6576 0.6579
vn -0.8769 -0.0000 0.4808
vn 0.3690 0.6615 0.6529
vn 0.8769 -0.0000 -0.4808
vn 0.4808 -0.0000 0.8768
vn 0.3645 0.6522 0.6647
vn -0.8769 -0.0001 0.4808
vn 0.9708 -0.0000 0.2398
vn 0.2399 -0.0000 -0.9708
vn -0.9708 -0.0000 -0.2398
vn -0.2398 -0.0000 0.9708
vn -0.1771 0.6561 0.7336
vn -0.1818 0.6522 0.7360
vn -0.1753 0.6575 0.7327
vn -0.1705 0.6615 0.7304
vn -0.4911 -0.0000 -0.8711
vn -0.8711 -0.0000 0.4911
vn 0.4911 -0.0000 0.8711
vn 0.8711 -0.0000 -0.4911
vn 0.6554 0.6561 -0.3741
vn 0.6604 0.6522 -0.3723
vn 0.6535 0.6575 -0.3748
vn 0.6485 0.6615 -0.3767
vn -0.0005 0.9983 0.0582
vn 0.0004 -0.9988 -0.0488
vn 1.0000 -0.0000 0.0085
vn 0.0084 -0.0000 -1.0000
vn 0.0085 -0.0000 -1.0000
vn -1.0000 -0.0000 -0.0085
vn -0.0085 -0.0000 1.0000
vn -0.0023 0.6561 0.7547
vn -0.0064 0.6522 0.7580
vn -0.0008 0.6576 0.7534
vn 0.0033 0.6615 0.7500
vn -0.0084 -0.0000 1.0000
vn -0.0020 0.9991 0.0420
vn 0.0017 -0.9994 -0.0352
vn 0.9989 -0.0000 0.0469
vn 0.0469 -0.0000 -0.9989
vn -0.9989 -0.0000 -0.0469
vn -0.0469 -0.0000 0.9989
vn -0.0314 0.6561 0.7540
vn -0.0356 0.6522 0.7572
vn -0.0298 0.6575 0.7528
vn -0.0255 0.6615 0.7495
vn 0.9992 -0.0000 0.0402
vn 0.9992 -0.0000 0.0401
vn 0.0401 -0.0000 -0.9992
vn -0.9992 -0.0000 -0.0402
vn -0.0402 -0.0000 0.9992
vn -0.0401 -0.0000 0.9992
vn -0.0263 0.6561 0.7542
vn -0.0304 0.6522 0.7575
vn -0.0247 0.6575 0.7530
vn -0.0205 0.6614 0.7497
vn -0.3428 -0.0000 -0.9394
vn -0.9394 -0.0000 0.3428
vn 0.3428 -0.0000 0.9394
vn 0.9394 -0.0000 -0.3428
vn 0.7076 0.6561 -0.2625
vn 0.7121 0.6522 -0.2598
vn 0.7058 0.6576 -0.2635
vn 0.7012 0.6615 -0.2661
vn -0.3428 0.0004 -0.9394
vn -0.3428 0.0002 -0.9394
vn -0.3428 0.0003 -0.9394
vn -0.3427 0.0003 -0.9394
vn -0.9394 0.0009 0.3428
vn 0.3428 -0.0003 0.9394
vn 0.3428 -0.0001 0.9394
vn 0.7667 0.5758 -0.2839
vn 0.7704 0.5723 -0.2811
vn 0.7661 0.5764 -0.2844
vn 0.3428 -0.0005 0.9394
vn 0.7623 0.5800 -0.2872
vn 0.3427 -0.0000 0.9394
vn 0.3838 -0.0000 -0.9234
vn -0.9234 -0.0000 -0.3838
vn -0.3838 -0.0000 0.9234
vn 0.9234 -0.0000 0.3838
vn 0.6551 0.7065 0.2678
vn 0.6572 0.7025 0.2731
vn 0.6540 0.7086 0.2650
vn 0.6518 0.7126 0.2596
vn 0.9734 -0.0000 -0.2292
vn -0.2292 -0.0000 -0.9734
vn -0.9734 -0.0000 0.2292
vn 0.2292 -0.0000 0.9734
vn 0.1769 0.6561 0.7337
vn 0.1737 0.6522 0.7379
vn 0.1781 0.6575 0.7321
vn 0.1813 0.6615 0.7277
vn -0.1288 -0.0000 -0.9917
vn -0.9917 -0.0000 0.1288
vn 0.1288 -0.0000 0.9917
vn 0.9917 -0.0000 -0.1288
vn 0.7479 0.6561 -0.1012
vn 0.7518 0.6522 -0.0977
vn 0.7464 0.6576 -0.1026
vn 0.7424 0.6615 -0.1062
vn -0.1289 0.0004 -0.9917
vn -0.1288 0.0002 -0.9917
vn -0.1288 0.0003 -0.9917
vn -0.9917 0.0009 0.1288
vn 0.1288 -0.0003 0.9917
vn 0.1289 -0.0001 0.9917
vn 0.1289 -0.0002 0.9917
vn 0.8103 0.5758 -0.1092
vn 0.8133 0.5722 -0.1056
vn 0.8097 0.5764 -0.1098
vn 0.1288 -0.0005 0.9917
vn 0.8067 0.5800 -0.1133
vn 0.5766 -0.0000 -0.8170
vn -0.8170 -0.0000 -0.5766
vn -0.5766 -0.0000 0.8170
vn 0.8170 -0.0000 0.5766
vn 0.5806 0.7065 0.4047
vn 0.5815 0.7025 0.4103
vn 0.5801 0.7086 0.4017
vn 0.5792 0.7126 0.3960
vn 0.9999 -0.0000 -0.0106
vn -0.0106 -0.0000 -0.9999
vn -0.9999 -0.0000 0.0106
vn 0.0106 -0.0000 0.9999
vn 0.0120 0.6561 0.7546
vn 0.0080 0.6522 0.7580
vn 0.0136 0.6576 0.7533
vn -0.9999 0.0001 0.0106
vn 0.0176 0.6615 0.7498
vn 0.0057 1.0000 0.0066
vn -0.0057 -1.0000 -0.0066
vn 0.6431 -0.0088 0.7657
vn 0.6431 -0.0087 0.7657
vn 0.7657 -0.0001 -0.6432
vn 0.7657 -0.0000 -0.6431
vn -0.6431 0.0087 -0.7657
vn -0.6431 0.0088 -0.7657
vn -0.7657 -0.0000 0.6431
vn -0.7657 -0.0001 0.6431
vn -0.5716 0.6561 0.4928
vn -0.5768 0.6522 0.4919
vn -0.5696 0.6575 0.4932
vn -0.7657 0.0001 0.6431
vn -0.5643 0.6614 0.4941
vn 0.7657 -0.0001 -0.6431
vn 0.7658 -0.0001 -0.6431
vn -0.7657 -0.0000 0.6432
vn -0.7657 0.0001 0.6432
vn 0.7657 -0.0000 -0.6432
vn -0.0451 -0.0064 0.9990
vn 0.9990 -0.0059 0.0451
vn 0.0451 0.0064 -0.9990
vn 0.0451 0.0063 -0.9990
vn -0.9990 0.0059 -0.0451
vn -0.7504 0.6605 -0.0256
vn -0.7536 0.6567 -0.0298
vn -0.7491 0.6620 -0.0240
vn -0.7458 0.6658 -0.0197
vn -0.0047 1.0000 0.0074
vn 0.0047 -1.0000 -0.0074
vn 0.8463 -0.0000 0.5327
vn 0.8463 0.0001 0.5327
vn 0.5327 0.0087 -0.8462
vn 0.5327 0.0087 -0.8463
vn -0.8463 -0.0000 -0.5327
vn -0.8463 -0.0001 -0.5327
vn -0.5327 -0.0087 0.8463
vn -0.4017 0.6495 0.6456
vn -0.4069 0.6455 0.6463
vn -0.3997 0.6509 0.6454
vn -0.3944 0.6549 0.6446
vn -0.9995 -0.0000 0.0308
vn 0.0308 -0.0000 0.9995
vn 0.9995 -0.0000 -0.0308
vn -0.0308 -0.0000 -0.9995
vn -0.0273 0.6561 -0.7542
vn -0.0234 0.6522 -0.7577
vn -0.0288 0.6576 -0.7529
vn -0.0328 0.6615 -0.7493
vn -0.5567 0.0004 -0.8307
vn -0.5567 0.0002 -0.8307
vn -0.5567 0.0003 -0.8307
vn -0.8307 0.0009 0.5567
vn 0.5567 -0.0003 0.8307
vn 0.5568 -0.0001 0.8307
vn 0.5568 -0.0002 0.8307
vn 0.8307 -0.0000 -0.5567
vn 0.6770 0.5758 -0.4584
vn 0.6813 0.5722 -0.4565
vn 0.6763 0.5764 -0.4587
vn 0.5567 -0.0005 0.8307
vn 0.6719 0.5800 -0.4605
vn -0.5567 -0.0000 -0.8307
vn -0.0002 -0.0000 -1.0000
vn -1.0000 -0.0000 0.0002
vn 0.0002 -0.0000 1.0000
vn 1.0000 -0.0000 -0.0002
vn 0.7547 0.6561 -0.0042
vn 0.7581 0.6522 -0.0002
vn 0.7534 0.6576 -0.0057
vn 0.7499 0.6614 -0.0098
vn -0.7565 -0.0000 -0.6540
vn -0.6540 -0.0000 0.7565
vn 0.7565 -0.0000 0.6540
vn 0.6540 -0.0000 -0.7565
vn 0.4597 0.7065 -0.5380
vn 0.4654 0.7025 -0.5384
vn 0.4567 0.7086 -0.5379
vn 0.4509 0.7126 -0.5375
vn 0.0877 -0.0000 -0.9962
vn 0.0877 -0.0000 -0.9961
vn -0.9961 -0.0000 -0.0877
vn -0.0877 -0.0000 0.9962
vn 0.9962 -0.0000 0.0876
vn 0.7521 0.6561 0.0621
vn 0.7552 0.6522 0.0665
vn 0.7510 0.6575 0.0605
vn 0.7479 0.6615 0.0561
vn -0.9912 -0.0000 -0.1323
vn -0.1323 -0.0000 0.9912
vn 0.9912 -0.0000 0.1323
vn 0.1323 -0.0000 -0.9912
vn 0.1322 -0.0000 -0.9912
vn 0.0958 0.6561 -0.7486
vn 0.1002 0.6522 -0.7514
vn 0.0941 0.6575 -0.7475
vn 0.0896 0.6615 -0.7446
vn -0.4141 0.0004 -0.9102
vn -0.4141 0.0002 -0.9102
vn -0.4141 0.0003 -0.9102
vn -0.9102 0.0009 0.4141
vn 0.4141 -0.0003 0.9102
vn 0.4142 -0.0001 0.9102
vn 0.9102 -0.0000 -0.4141
vn 0.7426 0.5758 -0.3421
vn 0.7465 0.5723 -0.3396
vn 0.7419 0.5764 -0.3425
vn 0.4141 -0.0005 0.9102
vn 0.7379 0.5800 -0.3450
vn -0.4141 -0.0000 -0.9103
vn 0.1625 -0.0000 -0.9867
vn -0.9867 -0.0000 -0.1625
vn -0.1626 -0.0000 0.9867
vn 0.9867 -0.0000 0.1626
vn 0.7453 0.6561 0.1187
vn 0.7480 0.6522 0.1232
vn 0.7443 0.6576 0.1170
vn 0.7415 0.6614 0.1124
vn -0.6399 -0.0000 -0.7684
vn -0.7684 -0.0000 0.6399
vn 0.6399 -0.0000 0.7684
vn 0.7684 -0.0000 -0.6399
vn 0.5411 0.7065 -0.4560
vn 0.5469 0.7025 -0.4554
vn 0.5382 0.7086 -0.4563
vn 0.5324 0.7126 -0.4569
vn 0.2486 -0.0000 -0.9686
vn -0.9686 -0.0000 -0.2486
vn -0.2486 -0.0000 0.9686
vn 0.9686 -0.0000 0.2486
vn 0.7320 0.6561 0.1837
vn 0.7343 0.6521 0.1885
vn 0.7311 0.6575 0.1819
vn 0.7288 0.6615 0.1771
vn -0.7338 -0.0000 -0.6794
vn -0.6794 -0.0000 0.7338
vn 0.7338 -0.0000 0.6794
vn 0.6794 -0.0000 -0.7338
vn 0.5097 0.6561 -0.5565
vn 0.5150 0.6522 -0.5563
vn 0.5077 0.6576 -0.5566
vn 0.5024 0.6615 -0.5569
vn 0.1862 0.0005 -0.9825
vn 0.1862 0.0002 -0.9825
vn 0.1862 0.0003 -0.9825
vn 0.1863 0.0003 -0.9825
vn -0.9825 0.0009 -0.1862
vn -0.1862 -0.0003 0.9825
vn -0.1863 -0.0003 0.9825
vn -0.1861 -0.0001 0.9825
vn -0.1862 -0.0001 0.9825
vn 0.9825 -0.0000 0.1862
vn 0.8040 0.5758 0.1484
vn 0.8057 0.5723 0.1527
vn 0.8037 0.5764 0.1477
vn -0.1862 -0.0005 0.9825
vn 0.8019 0.5800 0.1434
vn 0.1863 -0.0000 -0.9825
vn 0.7015 -0.0000 -0.7126
vn -0.7127 -0.0000 -0.7015
vn -0.7126 -0.0000 -0.7015
vn -0.7015 -0.0000 0.7126
vn 0.7126 -0.0000 0.7015
vn 0.5407 0.6561 0.5265
vn 0.5402 0.6522 0.5318
vn 0.5408 0.6576 0.5245
vn 0.5412 0.6615 0.5192
vn -0.0801 -0.0000 -0.9968
vn -0.9968 -0.0000 0.0801
vn 0.0801 -0.0000 0.9968
vn 0.9968 -0.0000 -0.0801
vn 0.7051 0.7065 -0.0608
vn 0.7094 0.7025 -0.0570
vn 0.7028 0.7086 -0.0627
vn 0.0800 -0.0000 0.9968
vn 0.6984 0.7126 -0.0665
vn 0.7614 -0.0000 -0.6482
vn 0.7614 -0.0000 -0.6483
vn -0.6482 -0.0000 -0.7614
vn -0.7614 -0.0000 0.6482
vn -0.7614 -0.0000 0.6483
vn 0.6483 -0.0000 0.7614
vn 0.4923 0.6561 0.5720
vn 0.4914 0.6521 0.5772
vn 0.4927 0.6575 0.5700
vn 0.4935 0.6615 0.5647
vn -0.8204 -0.0000 -0.5718
vn -0.5718 -0.0000 0.8204
vn 0.8204 -0.0000 0.5718
vn 0.5718 -0.0000 -0.8204
vn 0.5719 -0.0000 -0.8204
vn 0.4282 0.6561 -0.6214
vn 0.4335 0.6522 -0.6219
vn 0.4262 0.6576 -0.6213
vn 0.4209 0.6615 -0.6207
vn 0.5719 -0.0000 -0.8203
vn -0.2166 -0.0000 -0.9763
vn -0.9763 -0.0000 0.2166
vn 0.2166 -0.0000 0.9763
vn 0.9763 -0.0000 -0.2166
vn 0.7359 0.6561 -0.1674
vn 0.7401 0.6521 -0.1642
vn 0.7343 0.6576 -0.1686
vn 0.2166 0.0001 0.9763
vn 0.7300 0.6615 -0.1719
vn -0.5621 -0.0000 0.8271
vn 0.8271 -0.0000 0.5621
vn 0.5621 -0.0000 -0.8271
vn -0.8271 -0.0000 -0.5621
vn -0.8270 -0.0000 -0.5621
vn -0.6264 0.6561 -0.4209
vn -0.6270 0.6522 -0.4261
vn -0.6262 0.6575 -0.4189
vn -0.6257 0.6615 -0.4135
vn 0.8204 0.0001 0.5718
vn 0.4209 0.6614 -0.6207
vn -0.5719 -0.0000 0.8204
vn 0.4262 0.6575 -0.6213
vn -0.6262 0.6576 -0.4189
vn -0.9012 -0.0000 0.4335
vn -0.9011 -0.0000 0.4335
vn 0.4335 -0.0000 0.9011
vn 0.9012 -0.0000 -0.4335
vn 0.9011 -0.0000 -0.4335
vn -0.4335 -0.0000 -0.9011
vn -0.4335 -0.0000 -0.9012
vn -0.3308 0.6561 -0.6783
vn -0.3286 0.6522 -0.6831
vn -0.3316 0.6576 -0.6765
vn -0.3338 0.6615 -0.6716
vn -0.3316 0.6575 -0.6765
vn 0.9012 -0.0001 -0.4335
vn -0.3338 0.6614 -0.6716
vn 0.4335 -0.0000 0.9012
vn -0.3286 0.6521 -0.6831
vn 0.9012 0.0001 -0.4335
vn -0.9567 -0.0000 -0.2911
vn -0.2910 -0.0000 0.9567
vn 0.9567 -0.0000 0.2911
vn 0.2910 -0.0000 -0.9567
vn 0.2158 0.6561 -0.7232
vn 0.2207 0.6522 -0.7253
vn 0.2139 0.6576 -0.7224
vn 0.9567 0.0001 0.2911
vn 0.2090 0.6615 -0.7203
vn 0.4441 -0.0000 0.8960
vn 0.8960 -0.0000 -0.4441
vn -0.4441 -0.0000 -0.8960
vn -0.8960 -0.0000 0.4441
vn -0.6744 0.6561 0.3388
vn -0.6792 0.6521 0.3367
vn -0.6725 0.6576 0.3396
vn -0.6676 0.6615 0.3417
vn -0.3287 0.6522 -0.6831
vn 0.4336 -0.0000 0.9011
vn -0.3286 0.6522 -0.6832
vn -0.2911 -0.0000 0.9567
vn 0.2911 -0.0000 -0.9567
vn 0.2206 0.6522 -0.7253
vn -0.6792 0.6522 0.3367
vn -0.1211 0.9040 0.4100
vn 0.1234 0.1769 0.9765
vn 0.6349 0.7353 -0.2371
vn -0.1473 0.8310 -0.5363
vn -0.0886 -0.7648 -0.6382
vn 0.7937 -0.2770 -0.5415
vn -0.0715 -0.8697 0.4883
vn -0.9534 -0.0000 0.3016
vn -0.6398 0.5896 -0.4929
vn 0.3016 -0.0000 0.9534
vn 0.3015 -0.0000 0.9535
vn 0.9535 -0.0000 -0.3015
vn -0.3015 -0.0000 -0.9535
vn -0.2353 0.6615 -0.7121
vn -0.2314 0.6561 -0.7183
vn -0.2325 0.6576 -0.7166
vn -0.9535 -0.0000 0.3015
vn -0.3016 -0.0000 -0.9534
vn -0.2286 0.6522 -0.7228
vn -0.2325 0.6575 -0.7166
vn -0.2354 0.6615 -0.7121
vn -0.2314 0.6561 -0.7184
vn -0.2286 0.6521 -0.7228
vn -0.2325 0.6575 -0.7167
vn -0.9058 -0.0000 -0.4236
vn -0.4236 -0.0000 0.9058
vn 0.9058 -0.0000 0.4236
vn 0.4236 -0.0000 -0.9058
vn 0.3160 0.6561 -0.6853
vn 0.3211 0.6522 -0.6867
vn 0.3141 0.6575 -0.6848
vn 0.4237 -0.0000 -0.9058
vn 0.9058 0.0001 0.4236
vn 0.3089 0.6614 -0.6834
vn 0.3127 -0.0000 0.9498
vn 0.9498 -0.0000 -0.3127
vn 0.9498 -0.0000 -0.3128
vn -0.3127 -0.0000 -0.9498
vn -0.9498 -0.0000 0.3128
vn -0.7156 0.6561 0.2399
vn -0.7200 0.6522 0.2371
vn -0.7138 0.6576 0.2409
vn -0.7093 0.6615 0.2437
vn -0.2354 0.6614 -0.7121
vn -0.4236 -0.0000 0.9059
vn 0.4236 -0.0000 -0.9059
vn 0.3212 0.6521 -0.6867
vn 0.3089 0.6615 -0.6834
vn -0.9498 -0.0000 0.3127
vn -0.7201 0.6522 0.2371
vn -0.7139 0.6576 0.2409
vt 0.346587 1.999501
vt 0.994762 1.999501
vt 0.257220 1.000499
vt 0.994762 1.000499
vt 0.257220 1.393886
vt 0.257220 1.408813
vt -0.003030 1.413161
vt -0.003030 1.000404
vt 0.255332 1.000470
vt 0.255332 1.398138
vt 0.255738 1.999405
vt -0.002624 1.999339
s 1
usemtl RVA
f 1/1/1 2/2/1 3/2/1
f 3/2/1 4/1/1 1/1/1
f 5/3/2 6/3/2 7/4/2
f 7/4/2 8/4/2 5/3/2
f 1/1/3 9/5/3 8/4/3
f 8/4/3 2/2/3 1/1/3
f 2/2/4 8/4/4 7/4/4
f 7/4/4 3/2/4 2/2/4
f 3/2/5 7/4/5 6/3/5
f 6/3/5 10/6/5 3/2/5
f 10/7/6 6/8/6 5/9/6
f 9/10/7 1/11/8 4/12/9
f 9/10/6 10/7/6 5/9/6
f 10/6/5 4/1/5 3/2/5
f 10/7/10 9/10/7 4/12/9
f 9/5/3 5/3/3 8/4/3
f 11/1/1 12/2/1 13/2/1
f 13/2/1 14/1/1 11/1/1
f 15/3/2 16/3/2 17/4/2
f 17/4/2 18/4/2 15/3/2
f 11/1/3 19/5/3 18/4/3
f 18/4/3 12/2/3 11/1/3
f 12/2/4 18/4/4 17/4/4
f 17/4/4 13/2/4 12/2/4
f 13/2/5 17/4/5 16/3/5
f 16/3/5 20/6/5 13/2/5
f 20/7/6 16/8/6 15/9/6
f 19/10/7 11/11/8 14/12/9
f 19/10/6 20/7/6 15/9/6
f 20/6/5 14/1/5 13/2/5
f 20/7/10 19/10/7 14/12/9
f 19/5/3 15/3/3 18/4/3
f 21/1/1 22/2/1 23/2/1
f 23/2/1 24/1/1 21/1/1
f 25/3/2 26/3/2 27/4/2
f 27/4/2 28/4/2 25/3/2
f 21/1/3 29/5/3 28/4/3
f 28/4/3 22/2/3 21/1/3
f 22/2/4 28/4/4 27/4/4
f 27/4/4 23/2/4 22/2/4
f 23/2/5 27/4/5 26/3/5
f 26/3/5 30/6/5 23/2/5
f 30/7/6 26/8/6 25/9/6
f 29/10/7 21/11/8 24/12/9
f 29/10/6 30/7/6 25/9/6
f 30/6/5 24/1/5 23/2/5
f 30/7/10 29/10/7 24/12/9
f 29/5/3 25/3/3 28/4/3
f 31/1/1 32/2/1 33/2/1
f 33/2/1 34/1/1 31/1/1
f 35/3/2 36/3/2 37/4/2
f 37/4/2 38/4/2 35/3/2
f 31/1/11 39/5/11 38/4/11
f 38/4/11 32/2/11 31/1/11
f 32/2/12 38/4/12 37/4/12
f 37/4/12 33/2/12 32/2/12
f 33/2/13 37/4/13 36/3/13
f 36/3/13 40/6/13 33/2/13
f 40/7/14 36/8/14 35/9/14
f 39/10/15 31/11/16 34/12/17
f 39/10/14 40/7/14 35/9/14
f 40/6/13 34/1/13 33/2/13
f 40/7/18 39/10/15 34/12/17
f 39/5/11 35/3/11 38/4/11
f 41/1/1 42/2/1 43/2/1
f 43/2/1 44/1/1 41/1/1
f 45/3/2 46/3/2 47/4/2
f 47/4/2 48/4/2 45/3/2
f 41/1/19 49/5/19 48/4/19
f 48/4/19 42/2/19 41/1/19
f 42/2/20 48/4/20 47/4/20
f 47/4/20 43/2/20 42/2/20
f 43/2/21 47/4/21 46/3/21
f 46/3/21 50/6/21 43/2/21
f 50/7/22 46/8/22 45/9/22
f 49/10/23 41/11/24 44/12/25
f 49/10/22 50/7/22 45/9/22
f 50/6/21 44/1/21 43/2/21
f 50/7/26 49/10/23 44/12/25
f 49/5/19 45/3/19 48/4/19
f 51/1/1 52/2/1 53/2/1
f 53/2/1 54/1/1 51/1/1
f 55/3/2 56/3/2 57/4/2
f 57/4/2 58/4/2 55/3/2
f 51/1/3 59/5/3 58/4/3
f 58/4/3 52/2/3 51/1/3
f 52/2/4 58/4/4 57/4/4
f 57/4/4 53/2/4 52/2/4
f 53/2/5 57/4/5 56/3/5
f 56/3/5 60/6/5 53/2/5
f 60/7/6 56/8/6 55/9/6
f 59/10/7 51/11/8 54/12/9
f 59/10/6 60/7/6 55/9/6
f 60/6/5 54/1/5 53/2/5
f 60/7/10 59/10/7 54/12/9
f 59/5/3 55/3/3 58/4/3
f 61/1/1 62/2/1 63/2/1
f 63/2/1 64/1/1 61/1/1
f 65/3/2 66/3/2 67/4/2
f 67/4/2 68/4/2 65/3/2
f 61/1/3 69/5/3 68/4/3
f 68/4/3 62/2/3 61/1/3
f 62/2/4 68/4/4 67/4/4
f 67/4/4 63/2/4 62/2/4
f 63/2/5 67/4/5 66/3/5
f 66/3/5 70/6/5 63/2/5
f 70/7/6 66/8/6 65/9/6
f 69/10/7 61/11/8 64/12/9
f 69/10/6 70/7/6 65/9/6
f 70/6/5 64/1/5 63/2/5
f 70/7/10 69/10/7 64/12/9
f 69/5/3 65/3/3 68/4/3
f 71/1/1 72/2/1 73/2/1
f 73/2/1 74/1/1 71/1/1
f 75/3/2 76/3/2 77/4/2
f 77/4/2 78/4/2 75/3/2
f 71/1/3 79/5/3 78/4/3
f 78/4/3 72/2/3 71/1/3
f 72/2/4 78/4/4 77/4/4
f 77/4/4 73/2/4 72/2/4
f 73/2/5 77/4/5 76/3/5
f 76/3/5 80/6/5 73/2/5
f 80/7/6 76/8/6 75/9/6
f 79/10/7 71/11/8 74/12/9
f 79/10/6 80/7/6 75/9/6
f 80/6/5 74/1/5 73/2/5
f 80/7/10 79/10/7 74/12/9
f 79/5/3 75/3/3 78/4/3
f 81/1/1 82/2/1 83/2/1
f 83/2/1 84/1/1 81/1/1
f 85/3/2 86/3/2 87/4/2
f 87/4/2 88/4/2 85/3/2
f 81/1/11 89/5/11 88/4/11
f 88/4/11 82/2/11 81/1/11
f 82/2/12 88/4/27 87/4/12
f 87/4/12 83/2/12 82/2/12
f 83/2/13 87/4/13 86/3/13
f 86/3/13 90/6/13 83/2/13
f 90/7/28 86/8/28 85/9/28
f 89/10/15 81/11/16 84/12/17
f 89/10/28 90/7/28 85/9/28
f 90/6/13 84/1/13 83/2/13
f 90/7/18 89/10/15 84/12/17
f 89/5/11 85/3/11 88/4/11
f 91/1/1 92/2/1 93/2/1
f 93/2/1 94/1/1 91/1/1
f 95/3/2 96/3/2 97/4/2
f 97/4/2 98/4/2 95/3/2
f 91/1/19 99/5/19 98/4/19
f 98/4/19 92/2/19 91/1/19
f 92/2/20 98/4/20 97/4/20
f 97/4/20 93/2/20 92/2/20
f 93/2/21 97/4/21 96/3/21
f 96/3/21 100/6/21 93/2/21
f 100/7/22 96/8/22 95/9/22
f 99/10/29 91/11/24 94/12/25
f 99/10/22 100/7/22 95/9/22
f 100/6/21 94/1/21 93/2/21
f 100/7/26 99/10/29 94/12/25
f 99/5/19 95/3/19 98/4/19
f 101/1/1 102/2/1 103/2/1
f 103/2/1 104/1/1 101/1/1
f 105/3/2 106/3/2 107/4/2
f 107/4/2 108/4/2 105/3/2
f 101/1/30 109/5/30 108/4/30
f 108/4/30 102/2/30 101/1/30
f 102/2/31 108/4/31 107/4/31
f 107/4/31 103/2/31 102/2/31
f 103/2/32 107/4/32 106/3/32
f 106/3/32 110/6/32 103/2/32
f 110/7/33 106/8/33 105/9/33
f 109/10/34 101/11/35 104/12/36
f 109/10/33 110/7/33 105/9/33
f 110/6/32 104/1/32 103/2/32
f 110/7/37 109/10/34 104/12/36
f 109/5/30 105/3/30 108/4/30
f 111/1/1 112/2/1 113/2/1
f 113/2/1 114/1/1 111/1/1
f 115/3/2 116/3/2 117/4/2
f 117/4/2 118/4/2 115/3/2
f 111/1/30 119/5/30 118/4/30
f 118/4/30 112/2/30 111/1/30
f 112/2/31 118/4/31 117/4/31
f 117/4/31 113/2/31 112/2/31
f 113/2/32 117/4/32 116/3/32
f 116/3/32 120/6/32 113/2/32
f 120/7/33 116/8/33 115/9/33
f 119/10/34 111/11/35 114/12/36
f 119/10/33 120/7/33 115/9/33
f 120/6/32 114/1/32 113/2/32
f 120/7/38 119/10/34 114/12/36
f 119/5/30 115/3/30 118/4/30
f 121/1/1 122/2/1 123/2/1
f 123/2/1 124/1/1 121/1/1
f 125/3/2 126/3/2 127/4/2
f 127/4/2 128/4/2 125/3/2
f 121/1/30 129/5/30 128/4/30
f 128/4/30 122/2/30 121/1/30
f 122/2/31 128/4/31 127/4/31
f 127/4/31 123/2/31 122/2/31
f 123/2/32 127/4/32 126/3/32
f 126/3/32 130/6/32 123/2/32
f 130/7/33 126/8/33 125/9/33
f 129/10/34 121/11/39 124/12/36
f 129/10/33 130/7/33 125/9/33
f 130/6/32 124/1/32 123/2/32
f 130/7/38 129/10/34 124/12/36
f 129/5/30 125/3/30 128/4/30
f 131/1/1 132/2/1 133/2/1
f 133/2/1 134/1/1 131/1/1
f 135/3/2 136/3/2 137/4/2
f 137/4/2 138/4/2 135/3/2
f 131/1/40 139/5/40 138/4/40
f 138/4/40 132/2/40 131/1/40
f 132/2/41 138/4/41 137/4/41
f 137/4/41 133/2/41 132/2/41
f 133/2/42 137/4/42 136/3/42
f 136/3/42 140/6/42 133/2/42
f 140/7/43 136/8/43 135/9/43
f 139/10/44 131/11/45 134/12/46
f 139/10/43 140/7/43 135/9/43
f 140/6/42 134/1/42 133/2/42
f 140/7/47 139/10/44 134/12/46
f 139/5/40 135/3/40 138/4/40
f 141/1/1 142/2/1 143/2/1
f 143/2/1 144/1/1 141/1/1
f 145/3/2 146/3/2 147/4/2
f 147/4/2 148/4/2 145/3/2
f 141/1/48 149/5/48 148/4/48
f 148/4/48 142/2/48 141/1/48
f 142/2/49 148/4/49 147/4/49
f 147/4/49 143/2/49 142/2/49
f 143/2/50 147/4/50 146/3/50
f 146/3/50 150/6/50 143/2/50
f 150/7/51 146/8/51 145/9/51
f 149/10/52 141/11/53 144/12/54
f 149/10/51 150/7/51 145/9/51
f 150/6/50 144/1/55 143/2/50
f 150/7/56 149/10/52 144/12/54
f 149/5/48 145/3/48 148/4/48
f 151/1/1 152/2/1 153/2/1
f 153/2/1 154/1/1 151/1/1
f 155/3/2 156/3/2 157/4/2
f 157/4/2 158/4/2 155/3/2
f 151/1/3 159/5/3 158/4/3
f 158/4/3 152/2/3 151/1/3
f 152/2/4 158/4/4 157/4/4
f 157/4/4 153/2/4 152/2/4
f 153/2/5 157/4/5 156/3/5
f 156/3/5 160/6/5 153/2/5
f 160/7/6 156/8/6 155/9/6
f 159/10/7 151/11/8 154/12/9
f 159/10/6 160/7/6 155/9/6
f 160/6/5 154/1/5 153/2/5
f 160/7/10 159/10/7 154/12/9
f 159/5/3 155/3/3 158/4/3
f 161/1/1 162/2/1 163/2/1
f 163/2/1 164/1/1 161/1/1
f 165/3/2 166/3/2 167/4/2
f 167/4/2 168/4/2 165/3/2
f 161/1/3 169/5/3 168/4/3
f 168/4/3 162/2/3 161/1/3
f 162/2/4 168/4/4 167/4/4
f 167/4/4 163/2/4 162/2/4
f 163/2/5 167/4/5 166/3/5
f 166/3/5 170/6/5 163/2/5
f 170/7/6 166/8/6 165/9/6
f 169/10/7 161/11/8 164/12/9
f 169/10/6 170/7/6 165/9/6
f 170/6/5 164/1/5 163/2/5
f 170/7/10 169/10/7 164/12/9
f 169/5/3 165/3/3 168/4/3
f 171/1/1 172/2/1 173/2/1
f 173/2/1 174/1/1 171/1/1
f 175/3/2 176/3/2 177/4/2
f 177/4/2 178/4/2 175/3/2
f 171/1/3 179/5/3 178/4/3
f 178/4/3 172/2/3 171/1/3
f 172/2/4 178/4/4 177/4/4
f 177/4/4 173/2/4 172/2/4
f 173/2/5 177/4/5 176/3/5
f 176/3/5 180/6/5 173/2/5
f 180/7/6 176/8/6 175/9/6
f 179/10/7 171/11/8 174/12/9
f 179/10/6 180/7/6 175/9/6
f 180/6/5 174/1/5 173/2/5
f 180/7/10 179/10/7 174/12/9
f 179/5/3 175/3/3 178/4/3
f 181/1/1 182/2/1 183/2/1
f 183/2/1 184/1/1 181/1/1
f 185/3/2 186/3/2 187/4/2
f 187/4/2 188/4/2 185/3/2
f 181/1/57 189/5/57 188/4/11
f 188/4/11 182/2/11 181/1/57
f 182/2/12 188/4/12 187/4/12
f 187/4/12 183/2/12 182/2/12
f 183/2/58 187/4/58 186/3/58
f 186/3/58 190/6/58 183/2/58
f 190/7/28 186/8/28 185/9/14
f 189/10/15 181/11/16 184/12/59
f 189/10/14 190/7/28 185/9/14
f 190/6/58 184/1/60 183/2/58
f 190/7/61 189/10/15 184/12/59
f 189/5/57 185/3/57 188/4/11
f 191/1/1 192/2/1 193/2/1
f 193/2/1 194/1/1 191/1/1
f 195/3/2 196/3/2 197/4/2
f 197/4/2 198/4/2 195/3/2
f 191/1/19 199/5/19 198/4/19
f 198/4/19 192/2/19 191/1/19
f 192/2/20 198/4/20 197/4/20
f 197/4/20 193/2/20 192/2/20
f 193/2/21 197/4/21 196/3/21
f 196/3/21 200/6/21 193/2/21
f 200/7/22 196/8/22 195/9/22
f 199/10/23 191/11/24 194/12/62
f 199/10/22 200/7/22 195/9/22
f 200/6/21 194/1/21 193/2/21
f 200/7/63 199/10/23 194/12/62
f 199/5/19 195/3/19 198/4/19
f 201/1/1 202/2/1 203/2/1
f 203/2/1 204/1/1 201/1/1
f 205/3/2 206/3/2 207/4/2
f 207/4/2 208/4/2 205/3/2
f 201/1/64 209/5/64 208/4/64
f 208/4/64 202/2/65 201/1/64
f 202/2/66 208/4/66 207/4/66
f 207/4/66 203/2/66 202/2/66
f 203/2/67 207/4/67 206/3/68
f 206/3/68 210/6/68 203/2/67
f 210/7/69 206/8/70 205/9/69
f 209/10/71 201/11/72 204/12/73
f 209/10/69 210/7/69 205/9/69
f 210/6/68 204/1/68 203/2/67
f 210/7/74 209/10/71 204/12/73
f 209/5/64 205/3/64 208/4/64
f 211/1/1 212/2/1 213/2/1
f 213/2/1 214/1/1 211/1/1
f 215/3/2 216/3/2 217/4/2
f 217/4/2 218/4/2 215/3/2
f 211/1/64 219/5/64 218/4/64
f 218/4/64 212/2/64 211/1/64
f 212/2/66 218/4/66 217/4/66
f 217/4/66 213/2/66 212/2/66
f 213/2/67 217/4/67 216/3/68
f 216/3/68 220/6/68 213/2/67
f 220/7/70 216/8/70 215/9/70
f 219/10/71 211/11/72 214/12/73
f 219/10/70 220/7/70 215/9/70
f 220/6/68 214/1/75 213/2/67
f 220/7/74 219/10/71 214/12/73
f 219/5/64 215/3/64 218/4/64
f 221/1/1 222/2/1 223/2/1
f 223/2/1 224/1/1 221/1/1
f 225/3/2 226/3/2 227/4/2
f 227/4/2 228/4/2 225/3/2
f 221/1/64 229/5/64 228/4/76
f 228/4/76 222/2/76 221/1/64
f 222/2/66 228/4/66 227/4/66
f 227/4/66 223/2/77 222/2/66
f 223/2/67 227/4/67 226/3/68
f 226/3/68 230/6/68 223/2/67
f 230/7/70 226/8/70 225/9/70
f 229/10/71 221/11/72 224/12/73
f 229/10/69 230/7/70 225/9/70
f 230/6/68 224/1/67 223/2/67
f 230/7/74 229/10/71 224/12/73
f 229/5/64 225/3/64 228/4/76
f 231/1/1 232/2/1 233/2/1
f 233/2/1 234/1/1 231/1/1
f 235/3/2 236/3/2 237/4/2
f 237/4/2 238/4/2 235/3/2
f 231/1/78 239/5/78 238/4/78
f 238/4/78 232/2/78 231/1/78
f 232/2/79 238/4/79 237/4/79
f 237/4/79 233/2/79 232/2/79
f 233/2/80 237/4/80 236/3/80
f 236/3/80 240/6/80 233/2/80
f 240/7/81 236/8/81 235/9/81
f 239/10/82 231/11/83 234/12/84
f 239/10/81 240/7/81 235/9/81
f 240/6/80 234/1/80 233/2/80
f 240/7/85 239/10/82 234/12/84
f 239/5/78 235/3/78 238/4/78
f 241/1/1 242/2/1 243/2/1
f 243/2/1 244/1/1 241/1/1
f 245/3/2 246/3/2 247/4/2
f 247/4/2 248/4/2 245/3/2
f 241/1/86 249/5/86 248/4/86
f 248/4/86 242/2/86 241/1/86
f 242/2/87 248/4/87 247/4/87
f 247/4/87 243/2/87 242/2/87
f 243/2/88 247/4/88 246/3/88
f 246/3/88 250/6/88 243/2/88
f 250/7/89 246/8/89 245/9/89
f 249/10/90 241/11/91 244/12/92
f 249/10/89 250/7/89 245/9/89
f 250/6/88 244/1/88 243/2/88
f 250/7/93 249/10/90 244/12/92
f 249/5/86 245/3/86 248/4/86
f 251/1/1 252/2/1 253/2/1
f 253/2/1 254/1/1 251/1/1
f 255/3/2 256/3/2 257/4/2
f 257/4/2 258/4/2 255/3/2
f 251/1/94 259/5/94 258/4/94
f 258/4/94 252/2/94 251/1/94
f 252/2/95 258/4/95 257/4/95
f 257/4/95 253/2/95 252/2/95
f 253/2/96 257/4/96 256/3/96
f 256/3/96 260/6/96 253/2/96
f 260/7/97 256/8/97 255/9/97
f 259/10/98 251/11/99 254/12/100
f 259/10/97 260/7/97 255/9/97
f 260/6/96 254/1/101 253/2/96
f 260/7/102 259/10/98 254/12/100
f 259/5/94 255/3/94 258/4/94
f 261/1/1 262/2/1 263/2/1
f 263/2/1 264/1/1 261/1/1
f 265/3/2 266/3/2 267/4/2
f 267/4/2 268/4/2 265/3/2
f 261/1/103 269/5/103 268/4/103
f 268/4/103 262/2/103 261/1/103
f 262/2/95 268/4/95 267/4/95
f 267/4/95 263/2/95 262/2/95
f 263/2/101 267/4/96 266/3/101
f 266/3/101 270/6/101 263/2/101
f 270/7/104 266/8/104 265/9/104
f 269/10/98 261/11/105 264/12/100
f 269/10/104 270/7/104 265/9/104
f 270/6/101 264/1/106 263/2/101
f 270/7/102 269/10/98 264/12/100
f 269/5/103 265/3/103 268/4/103
f 271/1/1 272/2/1 273/2/1
f 273/2/1 274/1/1 271/1/1
f 275/3/2 276/3/2 277/4/2
f 277/4/2 278/4/2 275/3/2
f 271/1/94 279/5/94 278/4/94
f 278/4/94 272/2/94 271/1/94
f 272/2/95 278/4/95 277/4/95
f 277/4/95 273/2/95 272/2/95
f 273/2/96 277/4/96 276/3/96
f 276/3/96 280/6/96 273/2/96
f 280/7/104 276/8/104 275/9/104
f 279/10/98 271/11/99 274/12/100
f 279/10/104 280/7/104 275/9/104
f 280/6/96 274/1/96 273/2/96
f 280/7/102 279/10/98 274/12/100
f 279/5/94 275/3/94 278/4/94
f 281/1/1 282/2/1 283/2/1
f 283/2/1 284/1/1 281/1/1
f 285/3/2 286/3/2 287/4/2
f 287/4/2 288/4/2 285/3/2
f 281/1/107 289/5/107 288/4/107
f 288/4/107 282/2/107 281/1/107
f 282/2/108 288/4/108 287/4/108
f 287/4/108 283/2/108 282/2/108
f 283/2/109 287/4/109 286/3/109
f 286/3/109 290/6/109 283/2/109
f 290/7/110 286/8/110 285/9/110
f 289/10/111 281/11/112 284/12/113
f 289/10/110 290/7/110 285/9/110
f 290/6/109 284/1/109 283/2/109
f 290/7/114 289/10/111 284/12/113
f 289/5/107 285/3/107 288/4/107
f 291/1/1 292/2/1 293/2/1
f 293/2/1 294/1/1 291/1/1
f 295/3/2 296/3/2 297/4/2
f 297/4/2 298/4/2 295/3/2
f 291/1/115 299/5/115 298/4/115
f 298/4/115 292/2/115 291/1/115
f 292/2/116 298/4/116 297/4/116
f 297/4/116 293/2/116 292/2/116
f 293/2/117 297/4/117 296/3/117
f 296/3/117 300/6/117 293/2/117
f 300/7/118 296/8/118 295/9/118
f 299/10/119 291/11/120 294/12/121
f 299/10/118 300/7/118 295/9/118
f 300/6/117 294/1/117 293/2/117
f 300/7/122 299/10/119 294/12/121
f 299/5/115 295/3/115 298/4/115
f 301/1/123 302/2/123 303/2/123
f 303/2/123 304/1/123 301/1/123
f 305/3/124 306/3/124 307/4/124
f 307/4/124 308/4/124 305/3/124
f 301/1/125 309/5/125 308/4/125
f 308/4/125 302/2/125 301/1/125
f 302/2/126 308/4/126 307/4/126
f 307/4/126 303/2/127 302/2/126
f 303/2/128 307/4/128 306/3/128
f 306/3/128 310/6/128 303/2/128
f 310/7/129 306/8/129 305/9/129
f 309/10/130 301/11/131 304/12/132
f 309/10/129 310/7/129 305/9/129
f 310/6/128 304/1/128 303/2/128
f 310/7/133 309/10/130 304/12/132
f 309/5/125 305/3/125 308/4/125
f 311/1/123 312/2/123 313/2/123
f 313/2/123 314/1/123 311/1/123
f 315/3/124 316/3/124 317/4/124
f 317/4/124 318/4/124 315/3/124
f 311/1/125 319/5/125 318/4/125
f 318/4/125 312/2/125 311/1/125
f 312/2/126 318/4/127 317/4/126
f 317/4/126 313/2/126 312/2/126
f 313/2/128 317/4/128 316/3/128
f 316/3/128 320/6/128 313/2/128
f 320/7/134 316/8/134 315/9/129
f 319/10/130 311/11/131 314/12/132
f 319/10/129 320/7/134 315/9/129
f 320/6/128 314/1/128 313/2/128
f 320/7/133 319/10/130 314/12/132
f 319/5/125 315/3/125 318/4/125
f 321/1/1 322/2/1 323/2/1
f 323/2/1 324/1/1 321/1/1
f 325/3/2 326/3/2 327/4/2
f 327/4/2 328/4/2 325/3/2
f 321/1/125 329/5/125 328/4/125
f 328/4/125 322/2/125 321/1/125
f 322/2/127 328/4/127 327/4/127
f 327/4/127 323/2/127 322/2/127
f 323/2/128 327/4/128 326/3/128
f 326/3/128 330/6/128 323/2/128
f 330/7/129 326/8/129 325/9/129
f 329/10/130 321/11/131 324/12/132
f 329/10/129 330/7/129 325/9/129
f 330/6/128 324/1/128 323/2/128
f 330/7/133 329/10/130 324/12/132
f 329/5/125 325/3/125 328/4/125
f 331/1/135 332/2/135 333/2/135
f 333/2/135 334/1/135 331/1/135
f 335/3/136 336/3/136 337/4/136
f 337/4/136 338/4/136 335/3/136
f 331/1/137 339/5/137 338/4/137
f 338/4/137 332/2/137 331/1/137
f 332/2/138 338/4/138 337/4/138
f 337/4/138 333/2/138 332/2/138
f 333/2/139 337/4/139 336/3/139
f 336/3/139 340/6/139 333/2/139
f 340/7/140 336/8/140 335/9/140
f 339/10/141 331/11/142 334/12/143
f 339/10/140 340/7/140 335/9/140
f 340/6/139 334/1/139 333/2/139
f 340/7/144 339/10/141 334/12/143
f 339/5/137 335/3/137 338/4/137
f 341/1/1 342/2/1 343/2/1
f 343/2/1 344/1/1 341/1/1
f 345/3/2 346/3/2 347/4/2
f 347/4/2 348/4/2 345/3/2
f 341/1/145 349/5/145 348/4/146
f 348/4/146 342/2/146 341/1/145
f 342/2/147 348/4/147 347/4/147
f 347/4/147 343/2/147 342/2/147
f 343/2/148 347/4/148 346/3/148
f 346/3/148 350/6/148 343/2/148
f 350/7/149 346/8/149 345/9/150
f 349/10/151 341/11/152 344/12/153
f 349/10/150 350/7/149 345/9/150
f 350/6/148 344/1/148 343/2/148
f 350/7/154 349/10/151 344/12/153
f 349/5/145 345/3/145 348/4/146
f 351/1/1 352/2/1 353/2/1
f 353/2/1 354/1/1 351/1/1
f 355/3/2 356/3/2 357/4/2
f 357/4/2 358/4/2 355/3/2
f 351/1/155 359/5/155 358/4/155
f 358/4/155 352/2/155 351/1/155
f 352/2/156 358/4/156 357/4/156
f 357/4/156 353/2/156 352/2/156
f 353/2/157 357/4/157 356/3/157
f 356/3/157 360/6/157 353/2/157
f 360/7/158 356/8/158 355/9/158
f 359/10/159 351/11/160 354/12/161
f 359/10/158 360/7/158 355/9/158
f 360/6/157 354/1/157 353/2/157
f 360/7/162 359/10/159 354/12/161
f 359/5/155 355/3/155 358/4/155
f 361/1/1 362/2/1 363/2/1
f 363/2/1 364/1/1 361/1/1
f 365/3/2 366/3/2 367/4/2
f 367/4/2 368/4/2 365/3/2
f 361/1/163 369/5/164 368/4/165
f 368/4/165 362/2/166 361/1/163
f 362/2/167 368/4/167 367/4/167
f 367/4/167 363/2/167 362/2/167
f 363/2/168 367/4/168 366/3/169
f 366/3/169 370/6/169 363/2/168
f 370/7/158 366/8/158 365/9/158
f 369/10/170 361/11/171 364/12/172
f 369/10/158 370/7/158 365/9/158
f 370/6/169 364/1/173 363/2/168
f 370/7/174 369/10/170 364/12/172
f 369/5/164 365/3/155 368/4/165
f 371/1/1 372/2/1 373/2/1
f 373/2/1 374/1/1 371/1/1
f 375/3/2 376/3/2 377/4/2
f 377/4/2 378/4/2 375/3/2
f 371/1/155 379/5/155 378/4/155
f 378/4/155 372/2/155 371/1/155
f 372/2/156 378/4/156 377/4/156
f 377/4/156 373/2/156 372/2/156
f 373/2/157 377/4/157 376/3/175
f 376/3/175 380/6/175 373/2/157
f 380/7/158 376/8/158 375/9/158
f 379/10/159 371/11/160 374/12/161
f 379/10/158 380/7/158 375/9/158
f 380/6/175 374/1/157 373/2/157
f 380/7/162 379/10/159 374/12/161
f 379/5/155 375/3/155 378/4/155
f 381/1/1 382/2/1 383/2/1
f 383/2/1 384/1/1 381/1/1
f 385/3/2 386/3/2 387/4/2
f 387/4/2 388/4/2 385/3/2
f 381/1/176 389/5/176 388/4/176
f 388/4/176 382/2/176 381/1/176
f 382/2/177 388/4/177 387/4/177
f 387/4/177 383/2/177 382/2/177
f 383/2/178 387/4/178 386/3/178
f 386/3/178 390/6/178 383/2/178
f 390/7/179 386/8/179 385/9/179
f 389/10/180 381/11/181 384/12/182
f 389/10/179 390/7/179 385/9/179
f 390/6/178 384/1/178 383/2/178
f 390/7/183 389/10/180 384/12/182
f 389/5/176 385/3/176 388/4/176
f 391/1/1 392/2/1 393/2/1
f 393/2/1 394/1/1 391/1/1
f 395/3/2 396/3/2 397/4/2
f 397/4/2 398/4/2 395/3/2
f 391/1/184 399/5/184 398/4/184
f 398/4/184 392/2/184 391/1/184
f 392/2/185 398/4/185 397/4/185
f 397/4/185 393/2/185 392/2/185
f 393/2/186 397/4/186 396/3/186
f 396/3/186 400/6/186 393/2/186
f 400/7/187 396/8/187 395/9/187
f 399/10/188 391/11/189 394/12/190
f 399/10/187 400/7/187 395/9/187
f 400/6/186 394/1/186 393/2/186
f 400/7/191 399/10/188 394/12/190
f 399/5/184 395/3/184 398/4/184
f 401/1/1 402/2/1 403/2/1
f 403/2/1 404/1/1 401/1/1
f 405/3/2 406/3/2 407/4/2
f 407/4/2 408/4/2 405/3/2
f 401/1/192 409/5/192 408/4/192
f 408/4/192 402/2/192 401/1/192
f 402/2/193 408/4/193 407/4/193
f 407/4/193 403/2/193 402/2/193
f 403/2/194 407/4/194 406/3/194
f 406/3/194 410/6/194 403/2/194
f 410/7/195 406/8/195 405/9/195
f 409/10/196 401/11/197 404/12/198
f 409/10/195 410/7/195 405/9/195
f 410/6/194 404/1/194 403/2/194
f 410/7/199 409/10/196 404/12/198
f 409/5/192 405/3/192 408/4/192
f 411/1/1 412/2/1 413/2/1
f 413/2/1 414/1/1 411/1/1
f 415/3/2 416/3/2 417/4/2
f 417/4/2 418/4/2 415/3/2
f 411/1/200 419/5/201 418/4/202
f 418/4/202 412/2/202 411/1/200
f 412/2/203 418/4/203 417/4/203
f 417/4/203 413/2/203 412/2/203
f 413/2/204 417/4/204 416/3/205
f 416/3/205 420/6/206 413/2/204
f 420/7/195 416/8/195 415/9/195
f 419/10/207 411/11/208 414/12/209
f 419/10/195 420/7/195 415/9/195
f 420/6/206 414/1/210 413/2/204
f 420/7/211 419/10/207 414/12/209
f 419/5/201 415/3/192 418/4/202
f 421/1/1 422/2/1 423/2/1
f 423/2/1 424/1/1 421/1/1
f 425/3/2 426/3/2 427/4/2
f 427/4/2 428/4/2 425/3/2
f 421/1/192 429/5/192 428/4/192
f 428/4/192 422/2/192 421/1/192
f 422/2/193 428/4/193 427/4/193
f 427/4/193 423/2/193 422/2/193
f 423/2/194 427/4/194 426/3/194
f 426/3/194 430/6/194 423/2/194
f 430/7/195 426/8/195 425/9/195
f 429/10/196 421/11/197 424/12/198
f 429/10/195 430/7/195 425/9/195
f 430/6/194 424/1/194 423/2/194
f 430/7/199 429/10/196 424/12/198
f 429/5/192 425/3/192 428/4/192
f 431/1/1 432/2/1 433/2/1
f 433/2/1 434/1/1 431/1/1
f 435/3/2 436/3/2 437/4/2
f 437/4/2 438/4/2 435/3/2
f 431/1/212 439/5/212 438/4/212
f 438/4/212 432/2/212 431/1/212
f 432/2/213 438/4/213 437/4/213
f 437/4/213 433/2/213 432/2/213
f 433/2/214 437/4/214 436/3/214
f 436/3/214 440/6/214 433/2/214
f 440/7/215 436/8/215 435/9/215
f 439/10/216 431/11/217 434/12/218
f 439/10/215 440/7/215 435/9/215
f 440/6/214 434/1/214 433/2/214
f 440/7/219 439/10/216 434/12/218
f 439/5/212 435/3/212 438/4/212
f 441/1/1 442/2/1 443/2/1
f 443/2/1 444/1/1 441/1/1
f 445/3/2 446/3/2 447/4/2
f 447/4/2 448/4/2 445/3/2
f 441/1/220 449/5/220 448/4/220
f 448/4/220 442/2/220 441/1/220
f 442/2/221 448/4/221 447/4/221
f 447/4/221 443/2/221 442/2/221
f 443/2/222 447/4/222 446/3/222
f 446/3/222 450/6/222 443/2/222
f 450/7/223 446/8/223 445/9/223
f 449/10/224 441/11/225 444/12/226
f 449/10/223 450/7/223 445/9/223
f 450/6/222 444/1/227 443/2/222
f 450/7/228 449/10/224 444/12/226
f 449/5/220 445/3/220 448/4/220
f 451/1/229 452/2/229 453/2/229
f 453/2/229 454/1/229 451/1/229
f 455/3/230 456/3/230 457/4/230
f 457/4/230 458/4/230 455/3/230
f 451/1/231 459/5/232 458/4/232
f 458/4/232 452/2/232 451/1/231
f 452/2/233 458/4/234 457/4/233
f 457/4/233 453/2/233 452/2/233
f 453/2/235 457/4/235 456/3/235
f 456/3/235 460/6/236 453/2/235
f 460/7/237 456/8/238 455/9/237
f 459/10/239 451/11/240 454/12/241
f 459/10/242 460/7/237 455/9/237
f 460/6/236 454/1/235 453/2/235
f 460/7/243 459/10/239 454/12/241
f 459/5/232 455/3/232 458/4/232
f 461/1/229 462/2/229 463/2/229
f 463/2/229 464/1/229 461/1/229
f 465/3/230 466/3/230 467/4/230
f 467/4/230 468/4/230 465/3/230
f 461/1/232 469/5/232 468/4/232
f 468/4/232 462/2/232 461/1/232
f 462/2/244 468/4/245 467/4/244
f 467/4/244 463/2/234 462/2/244
f 463/2/235 467/4/235 466/3/235
f 466/3/235 470/6/235 463/2/235
f 470/7/246 466/8/246 465/9/246
f 469/10/239 461/11/240 464/12/241
f 469/10/247 470/7/246 465/9/246
f 470/6/235 464/1/235 463/2/235
f 470/7/243 469/10/239 464/12/241
f 469/5/232 465/3/232 468/4/232
f 471/1/229 472/2/229 473/2/229
f 473/2/229 474/1/229 471/1/229
f 475/3/230 476/3/230 477/4/230
f 477/4/230 478/4/230 475/3/230
f 471/1/232 479/5/231 478/4/232
f 478/4/232 472/2/232 471/1/232
f 472/2/248 478/4/244 477/4/248
f 477/4/248 473/2/248 472/2/248
f 473/2/235 477/4/235 476/3/236
f 476/3/236 480/6/236 473/2/235
f 480/7/237 476/8/237 475/9/247
f 479/10/239 471/11/240 474/12/241
f 479/10/247 480/7/237 475/9/247
f 480/6/236 474/1/236 473/2/235
f 480/7/243 479/10/239 474/12/241
f 479/5/231 475/3/231 478/4/232
f 481/1/229 482/2/229 483/2/229
f 483/2/229 484/1/229 481/1/229
f 485/3/230 486/3/230 487/4/230
f 487/4/230 488/4/230 485/3/230
f 481/1/249 489/5/249 488/4/249
f 488/4/249 482/2/249 481/1/249
f 482/2/250 488/4/250 487/4/250
f 487/4/250 483/2/250 482/2/250
f 483/2/251 487/4/251 486/3/252
f 486/3/252 490/6/252 483/2/251
f 490/7/253 486/8/253 485/9/253
f 489/10/254 481/11/255 484/12/256
f 489/10/253 490/7/253 485/9/253
f 490/6/252 484/1/251 483/2/251
f 490/7/257 489/10/254 484/12/256
f 489/5/249 485/3/249 488/4/249
f 491/1/258 492/2/258 493/2/258
f 493/2/258 494/1/258 491/1/258
f 495/3/259 496/3/259 497/4/259
f 497/4/259 498/4/259 495/3/259
f 491/1/260 499/5/261 498/4/260
f 498/4/260 492/2/260 491/1/260
f 492/2/262 498/4/262 497/4/262
f 497/4/262 493/2/263 492/2/262
f 493/2/264 497/4/264 496/3/265
f 496/3/265 500/6/265 493/2/264
f 500/7/266 496/8/266 495/9/266
f 499/10/267 491/11/268 494/12/269
f 499/10/266 500/7/266 495/9/266
f 500/6/265 494/1/264 493/2/264
f 500/7/270 499/10/267 494/12/269
f 499/5/261 495/3/261 498/4/260
f 501/1/1 502/2/1 503/2/1
f 503/2/1 504/1/1 501/1/1
f 505/3/2 506/3/2 507/4/2
f 507/4/2 508/4/2 505/3/2
f 501/1/271 509/5/271 508/4/271
f 508/4/271 502/2/271 501/1/271
f 502/2/272 508/4/272 507/4/272
f 507/4/272 503/2/272 502/2/272
f 503/2/273 507/4/273 506/3/273
f 506/3/273 510/6/273 503/2/273
f 510/7/274 506/8/274 505/9/274
f 509/10/275 501/11/276 504/12/277
f 509/10/274 510/7/274 505/9/274
f 510/6/273 504/1/273 503/2/273
f 510/7/278 509/10/275 504/12/277
f 509/5/271 505/3/271 508/4/271
f 511/1/1 512/2/1 513/2/1
f 513/2/1 514/1/1 511/1/1
f 515/3/2 516/3/2 517/4/2
f 517/4/2 518/4/2 515/3/2
f 511/1/279 519/5/280 518/4/281
f 518/4/281 512/2/281 511/1/279
f 512/2/282 518/4/282 517/4/282
f 517/4/282 513/2/282 512/2/282
f 513/2/283 517/4/283 516/3/284
f 516/3/284 520/6/285 513/2/283
f 520/7/286 516/8/286 515/9/286
f 519/10/287 511/11/288 514/12/289
f 519/10/286 520/7/286 515/9/286
f 520/6/285 514/1/290 513/2/283
f 520/7/291 519/10/287 514/12/289
f 519/5/280 515/3/292 518/4/281
f 521/1/1 522/2/1 523/2/1
f 523/2/1 524/1/1 521/1/1
f 525/3/2 526/3/2 527/4/2
f 527/4/2 528/4/2 525/3/2
f 521/1/293 529/5/293 528/4/293
f 528/4/293 522/2/293 521/1/293
f 522/2/294 528/4/294 527/4/294
f 527/4/294 523/2/294 522/2/294
f 523/2/295 527/4/295 526/3/295
f 526/3/295 530/6/295 523/2/295
f 530/7/296 526/8/296 525/9/296
f 529/10/297 521/11/298 524/12/299
f 529/10/296 530/7/296 525/9/296
f 530/6/295 524/1/295 523/2/295
f 530/7/300 529/10/297 524/12/299
f 529/5/293 525/3/293 528/4/293
f 531/1/1 532/2/1 533/2/1
f 533/2/1 534/1/1 531/1/1
f 535/3/2 536/3/2 537/4/2
f 537/4/2 538/4/2 535/3/2
f 531/1/301 539/5/301 538/4/301
f 538/4/301 532/2/301 531/1/301
f 532/2/302 538/4/302 537/4/302
f 537/4/302 533/2/302 532/2/302
f 533/2/303 537/4/303 536/3/303
f 536/3/303 540/6/303 533/2/303
f 540/7/304 536/8/304 535/9/304
f 539/10/305 531/11/306 534/12/307
f 539/10/304 540/7/304 535/9/304
f 540/6/303 534/1/303 533/2/303
f 540/7/308 539/10/305 534/12/307
f 539/5/301 535/3/301 538/4/301
f 541/1/1 542/2/1 543/2/1
f 543/2/1 544/1/1 541/1/1
f 545/3/2 546/3/2 547/4/2
f 547/4/2 548/4/2 545/3/2
f 541/1/309 549/5/309 548/4/310
f 548/4/310 542/2/310 541/1/309
f 542/2/311 548/4/311 547/4/311
f 547/4/311 543/2/311 542/2/311
f 543/2/312 547/4/312 546/3/312
f 546/3/312 550/6/312 543/2/312
f 550/7/313 546/8/313 545/9/313
f 549/10/314 541/11/315 544/12/316
f 549/10/313 550/7/313 545/9/313
f 550/6/312 544/1/312 543/2/312
f 550/7/317 549/10/314 544/12/316
f 549/5/309 545/3/310 548/4/310
f 551/1/1 552/2/1 553/2/1
f 553/2/1 554/1/1 551/1/1
f 555/3/2 556/3/2 557/4/2
f 557/4/2 558/4/2 555/3/2
f 551/1/318 559/5/318 558/4/318
f 558/4/318 552/2/318 551/1/318
f 552/2/319 558/4/319 557/4/319
f 557/4/319 553/2/319 552/2/319
f 553/2/320 557/4/320 556/3/320
f 556/3/320 560/6/320 553/2/320
f 560/7/321 556/8/321 555/9/322
f 559/10/323 551/11/324 554/12/325
f 559/10/322 560/7/321 555/9/322
f 560/6/320 554/1/320 553/2/320
f 560/7/326 559/10/323 554/12/325
f 559/5/318 555/3/318 558/4/318
f 561/1/1 562/2/1 563/2/1
f 563/2/1 564/1/1 561/1/1
f 565/3/2 566/3/2 567/4/2
f 567/4/2 568/4/2 565/3/2
f 561/1/327 569/5/328 568/4/329
f 568/4/329 562/2/329 561/1/327
f 562/2/330 568/4/330 567/4/330
f 567/4/330 563/2/330 562/2/330
f 563/2/331 567/4/331 566/3/332
f 566/3/332 570/6/332 563/2/331
f 570/7/333 566/8/333 565/9/333
f 569/10/334 561/11/335 564/12/336
f 569/10/333 570/7/333 565/9/333
f 570/6/332 564/1/337 563/2/331
f 570/7/338 569/10/334 564/12/336
f 569/5/328 565/3/339 568/4/329
f 571/1/1 572/2/1 573/2/1
f 573/2/1 574/1/1 571/1/1
f 575/3/2 576/3/2 577/4/2
f 577/4/2 578/4/2 575/3/2
f 571/1/340 579/5/340 578/4/340
f 578/4/340 572/2/340 571/1/340
f 572/2/341 578/4/341 577/4/341
f 577/4/341 573/2/341 572/2/341
f 573/2/342 577/4/342 576/3/342
f 576/3/342 580/6/342 573/2/342
f 580/7/343 576/8/343 575/9/343
f 579/10/344 571/11/345 574/12/346
f 579/10/343 580/7/343 575/9/343
f 580/6/342 574/1/342 573/2/342
f 580/7/347 579/10/344 574/12/346
f 579/5/340 575/3/340 578/4/340
f 581/1/1 582/2/1 583/2/1
f 583/2/1 584/1/1 581/1/1
f 585/3/2 586/3/2 587/4/2
f 587/4/2 588/4/2 585/3/2
f 581/1/348 589/5/348 588/4/348
f 588/4/348 582/2/348 581/1/348
f 582/2/349 588/4/349 587/4/349
f 587/4/349 583/2/349 582/2/349
f 583/2/350 587/4/350 586/3/350
f 586/3/350 590/6/350 583/2/350
f 590/7/351 586/8/351 585/9/351
f 589/10/352 581/11/353 584/12/354
f 589/10/351 590/7/351 585/9/351
f 590/6/350 584/1/350 583/2/350
f 590/7/355 589/10/352 584/12/354
f 589/5/348 585/3/348 588/4/348
f 591/1/1 592/2/1 593/2/1
f 593/2/1 594/1/1 591/1/1
f 595/3/2 596/3/2 597/4/2
f 597/4/2 598/4/2 595/3/2
f 591/1/356 599/5/356 598/4/356
f 598/4/356 592/2/356 591/1/356
f 592/2/357 598/4/357 597/4/357
f 597/4/357 593/2/357 592/2/357
f 593/2/358 597/4/358 596/3/358
f 596/3/358 600/6/358 593/2/358
f 600/7/359 596/8/359 595/9/359
f 599/10/360 591/11/361 594/12/362
f 599/10/359 600/7/359 595/9/359
f 600/6/358 594/1/358 593/2/358
f 600/7/363 599/10/360 594/12/362
f 599/5/356 595/3/356 598/4/356
f 601/1/1 602/2/1 603/2/1
f 603/2/1 604/1/1 601/1/1
f 605/3/2 606/3/2 607/4/2
f 607/4/2 608/4/2 605/3/2
f 601/1/364 609/5/364 608/4/364
f 608/4/364 602/2/364 601/1/364
f 602/2/365 608/4/365 607/4/365
f 607/4/365 603/2/365 602/2/365
f 603/2/366 607/4/366 606/3/366
f 606/3/366 610/6/366 603/2/366
f 610/7/367 606/8/367 605/9/367
f 609/10/368 601/11/369 604/12/370
f 609/10/367 610/7/367 605/9/367
f 610/6/366 604/1/366 603/2/366
f 610/7/371 609/10/368 604/12/370
f 609/5/364 605/3/364 608/4/364
f 611/1/1 612/2/1 613/2/1
f 613/2/1 614/1/1 611/1/1
f 615/3/2 616/3/2 617/4/2
f 617/4/2 618/4/2 615/3/2
f 611/1/372 619/5/373 618/4/374
f 618/4/374 612/2/375 611/1/372
f 612/2/376 618/4/376 617/4/376
f 617/4/376 613/2/376 612/2/376
f 613/2/377 617/4/378 616/3/379
f 616/3/379 620/6/380 613/2/377
f 620/7/381 616/8/381 615/9/381
f 619/10/382 611/11/383 614/12/384
f 619/10/381 620/7/381 615/9/381
f 620/6/380 614/1/385 613/2/377
f 620/7/386 619/10/382 614/12/384
f 619/5/373 615/3/387 618/4/374
f 621/1/1 622/2/1 623/2/1
f 623/2/1 624/1/1 621/1/1
f 625/3/2 626/3/2 627/4/2
f 627/4/2 628/4/2 625/3/2
f 621/1/388 629/5/388 628/4/388
f 628/4/388 622/2/388 621/1/388
f 622/2/389 628/4/389 627/4/389
f 627/4/389 623/2/390 622/2/389
f 623/2/391 627/4/391 626/3/391
f 626/3/391 630/6/391 623/2/391
f 630/7/392 626/8/392 625/9/392
f 629/10/393 621/11/394 624/12/395
f 629/10/392 630/7/392 625/9/392
f 630/6/391 624/1/391 623/2/391
f 630/7/396 629/10/393 624/12/395
f 629/5/388 625/3/388 628/4/388
f 631/1/1 632/2/1 633/2/1
f 633/2/1 634/1/1 631/1/1
f 635/3/2 636/3/2 637/4/2
f 637/4/2 638/4/2 635/3/2
f 631/1/397 639/5/397 638/4/397
f 638/4/397 632/2/397 631/1/397
f 632/2/398 638/4/398 637/4/398
f 637/4/398 633/2/398 632/2/398
f 633/2/399 637/4/399 636/3/399
f 636/3/399 640/6/399 633/2/399
f 640/7/400 636/8/400 635/9/400
f 639/10/401 631/11/402 634/12/403
f 639/10/400 640/7/400 635/9/400
f 640/6/399 634/1/404 633/2/399
f 640/7/405 639/10/401 634/12/403
f 639/5/397 635/3/397 638/4/397
f 641/1/1 642/2/1 643/2/1
f 643/2/1 644/1/1 641/1/1
f 645/3/2 646/3/2 647/4/2
f 647/4/2 648/4/2 645/3/2
f 641/1/406 649/5/406 648/4/407
f 648/4/407 642/2/407 641/1/406
f 642/2/408 648/4/408 647/4/408
f 647/4/408 643/2/408 642/2/408
f 643/2/409 647/4/409 646/3/410
f 646/3/410 650/6/410 643/2/409
f 650/7/411 646/8/411 645/9/411
f 649/10/412 641/11/413 644/12/414
f 649/10/411 650/7/411 645/9/411
f 650/6/410 644/1/410 643/2/409
f 650/7/415 649/10/412 644/12/414
f 649/5/406 645/3/407 648/4/407
f 651/1/1 652/2/1 653/2/1
f 653/2/1 654/1/1 651/1/1
f 655/3/2 656/3/2 657/4/2
f 657/4/2 658/4/2 655/3/2
f 651/1/416 659/5/416 658/4/416
f 658/4/416 652/2/416 651/1/416
f 652/2/417 658/4/417 657/4/417
f 657/4/417 653/2/417 652/2/417
f 653/2/418 657/4/418 656/3/418
f 656/3/418 660/6/418 653/2/418
f 660/7/419 656/8/420 655/9/419
f 659/10/421 651/11/422 654/12/423
f 659/10/419 660/7/419 655/9/419
f 660/6/418 654/1/418 653/2/418
f 660/7/424 659/10/421 654/12/423
f 659/5/416 655/3/416 658/4/416
f 661/1/1 662/2/1 663/2/1
f 663/2/1 664/1/1 661/1/1
f 665/3/2 666/3/2 667/4/2
f 667/4/2 668/4/2 665/3/2
f 661/1/416 669/5/416 668/4/416
f 668/4/416 662/2/416 661/1/416
f 662/2/417 668/4/417 667/4/417
f 667/4/417 663/2/417 662/2/417
f 663/2/418 667/4/418 666/3/418
f 666/3/418 670/6/418 663/2/418
f 670/7/419 666/8/419 665/9/420
f 669/10/421 661/11/422 664/12/423
f 669/10/425 670/7/419 665/9/420
f 670/6/418 664/1/418 663/2/418
f 670/7/424 669/10/421 664/12/423
f 669/5/416 665/3/416 668/4/416
f 671/1/1 672/2/1 673/2/1
f 673/2/1 674/1/1 671/1/1
f 675/3/2 676/3/2 677/4/2
f 677/4/2 678/4/2 675/3/2
f 671/1/416 679/5/416 678/4/416
f 678/4/416 672/2/416 671/1/416
f 672/2/417 678/4/417 677/4/417
f 677/4/417 673/2/417 672/2/417
f 673/2/418 677/4/418 676/3/418
f 676/3/418 680/6/418 673/2/418
f 680/7/419 676/8/419 675/9/419
f 679/10/421 671/11/422 674/12/423
f 679/10/419 680/7/419 675/9/419
f 680/6/418 674/1/418 673/2/418
f 680/7/424 679/10/421 674/12/423
f 679/5/416 675/3/416 678/4/416
f 681/1/1 682/2/1 683/2/1
f 683/2/1 684/1/1 681/1/1
f 685/3/2 686/3/2 687/4/2
f 687/4/2 688/4/2 685/3/2
f 681/1/426 689/5/426 688/4/426
f 688/4/426 682/2/426 681/1/426
f 682/2/427 688/4/427 687/4/427
f 687/4/427 683/2/427 682/2/427
f 683/2/428 687/4/428 686/3/428
f 686/3/428 690/6/428 683/2/428
f 690/7/429 686/8/429 685/9/429
f 689/10/430 681/11/431 684/12/432
f 689/10/429 690/7/429 685/9/429
f 690/6/428 684/1/433 683/2/428
f 690/7/434 689/10/430 684/12/432
f 689/5/426 685/3/426 688/4/426
f 691/1/1 692/2/1 693/2/1
f 693/2/1 694/1/1 691/1/1
f 695/3/2 696/3/2 697/4/2
f 697/4/2 698/4/2 695/3/2
f 691/1/435 699/5/435 698/4/435
f 698/4/435 692/2/435 691/1/435
f 692/2/436 698/4/436 697/4/436
f 697/4/436 693/2/436 692/2/436
f 693/2/437 697/4/437 696/3/437
f 696/3/437 700/6/437 693/2/437
f 700/7/438 696/8/439 695/9/438
f 699/10/440 691/11/441 694/12/442
f 699/10/438 700/7/438 695/9/438
f 700/6/437 694/1/437 693/2/437
f 700/7/443 699/10/440 694/12/442
f 699/5/435 695/3/435 698/4/435
f 701/1/1 702/2/1 703/2/1
f 703/2/1 704/1/1 701/1/1
f 705/3/2 706/3/2 707/4/2
f 707/4/2 708/4/2 705/3/2
f 701/1/416 709/5/416 708/4/416
f 708/4/416 702/2/416 701/1/416
f 702/2/417 708/4/417 707/4/417
f 707/4/417 703/2/417 702/2/417
f 703/2/418 707/4/418 706/3/418
f 706/3/418 710/6/418 703/2/418
f 710/7/419 706/8/419 705/9/419
f 709/10/421 701/11/422 704/12/423
f 709/10/419 710/7/419 705/9/419
f 710/6/418 704/1/444 703/2/418
f 710/7/445 709/10/421 704/12/423
f 709/5/416 705/3/416 708/4/416
f 711/1/1 712/2/1 713/2/1
f 713/2/1 714/1/1 711/1/1
f 715/3/2 716/3/2 717/4/2
f 717/4/2 718/4/2 715/3/2
f 711/1/416 719/5/416 718/4/416
f 718/4/416 712/2/416 711/1/416
f 712/2/417 718/4/417 717/4/417
f 717/4/417 713/2/417 712/2/417
f 713/2/418 717/4/418 716/3/418
f 716/3/418 720/6/418 713/2/418
f 720/7/419 716/8/420 715/9/419
f 719/10/421 711/11/422 714/12/423
f 719/10/419 720/7/419 715/9/419
f 720/6/418 714/1/418 713/2/418
f 720/7/424 719/10/421 714/12/423
f 719/5/416 715/3/416 718/4/416
f 721/1/1 722/2/1 723/2/1
f 723/2/1 724/1/1 721/1/1
f 725/3/2 726/3/2 727/4/2
f 727/4/2 728/4/2 725/3/2
f 721/1/416 729/5/416 728/4/416
f 728/4/416 722/2/416 721/1/416
f 722/2/446 728/4/446 727/4/446
f 727/4/446 723/2/417 722/2/446
f 723/2/418 727/4/418 726/3/418
f 726/3/418 730/6/418 723/2/418
f 730/7/419 726/8/419 725/9/425
f 729/10/421 721/11/422 724/12/447
f 729/10/425 730/7/419 725/9/425
f 730/6/418 724/1/444 723/2/418
f 730/7/445 729/10/421 724/12/447
f 729/5/416 725/3/416 728/4/416
f 731/1/1 732/2/1 733/2/1
f 733/2/1 734/1/1 731/1/1
f 735/3/2 736/3/2 737/4/2
f 737/4/2 738/4/2 735/3/2
f 731/1/426 739/5/426 738/4/426
f 738/4/426 732/2/426 731/1/426
f 732/2/427 738/4/427 737/4/427
f 737/4/427 733/2/427 732/2/427
f 733/2/428 737/4/428 736/3/428
f 736/3/428 740/6/428 733/2/428
f 740/7/429 736/8/429 735/9/429
f 739/10/430 731/11/431 734/12/432
f 739/10/429 740/7/429 735/9/429
f 740/6/428 734/1/433 733/2/428
f 740/7/434 739/10/430 734/12/432
f 739/5/426 735/3/426 738/4/426
f 741/1/1 742/2/1 743/2/1
f 743/2/1 744/1/1 741/1/1
f 745/3/2 746/3/2 747/4/2
f 747/4/2 748/4/2 745/3/2
f 741/1/435 749/5/435 748/4/435
f 748/4/435 742/2/435 741/1/435
f 742/2/436 748/4/436 747/4/436
f 747/4/436 743/2/436 742/2/436
f 743/2/437 747/4/437 746/3/437
f 746/3/437 750/6/437 743/2/437
f 750/7/438 746/8/438 745/9/438
f 749/10/440 741/11/441 744/12/448
f 749/10/438 750/7/438 745/9/438
f 750/6/437 744/1/437 743/2/437
f 750/7/443 749/10/440 744/12/448
f 749/5/435 745/3/435 748/4/435
f 751/1/1 752/2/1 753/2/1
f 753/2/1 754/1/1 751/1/1
f 755/3/2 756/3/2 757/4/2
f 757/4/2 758/4/2 755/3/2
f 751/1/449 759/5/449 758/4/450
f 758/4/450 752/2/450 751/1/449
f 752/2/451 758/4/451 757/4/451
f 757/4/451 753/2/451 752/2/451
f 753/2/452 757/4/452 756/3/453
f 756/3/453 760/6/453 753/2/452
f 760/7/454 756/8/455 755/9/454
f 759/10/456 751/11/457 754/12/458
f 759/10/454 760/7/454 755/9/454
f 760/6/453 754/1/453 753/2/452
f 760/7/459 759/10/456 754/12/458
f 759/5/449 755/3/450 758/4/450
f 761/1/1 762/2/1 763/2/1
f 763/2/1 764/1/1 761/1/1
f 765/3/2 766/3/2 767/4/2
f 767/4/2 768/4/2 765/3/2
f 761/1/449 769/5/449 768/4/449
f 768/4/449 762/2/449 761/1/449
f 762/2/451 768/4/451 767/4/451
f 767/4/451 763/2/451 762/2/451
f 763/2/453 767/4/453 766/3/453
f 766/3/453 770/6/453 763/2/453
f 770/7/455 766/8/455 765/9/455
f 769/10/456 761/11/457 764/12/460
f 769/10/455 770/7/455 765/9/455
f 770/6/453 764/1/461 763/2/453
f 770/7/462 769/10/456 764/12/460
f 769/5/449 765/3/449 768/4/449
f 771/1/1 772/2/1 773/2/1
f 773/2/1 774/1/1 771/1/1
f 775/3/2 776/3/2 777/4/2
f 777/4/2 778/4/2 775/3/2
f 771/1/449 779/5/449 778/4/450
f 778/4/450 772/2/450 771/1/449
f 772/2/463 778/4/463 777/4/463
f 777/4/463 773/2/463 772/2/463
f 773/2/453 777/4/453 776/3/452
f 776/3/452 780/6/452 773/2/453
f 780/7/455 776/8/455 775/9/455
f 779/10/456 771/11/464 774/12/460
f 779/10/455 780/7/455 775/9/455
f 780/6/452 774/1/465 773/2/453
f 780/7/459 779/10/456 774/12/460
f 779/5/449 775/3/450 778/4/450
f 781/1/1 782/2/1 783/2/1
f 783/2/1 784/1/1 781/1/1
f 785/3/2 786/3/2 787/4/2
f 787/4/2 788/4/2 785/3/2
f 781/1/466 789/5/466 788/4/466
f 788/4/466 782/2/466 781/1/466
f 782/2/467 788/4/467 787/4/467
f 787/4/467 783/2/467 782/2/467
f 783/2/468 787/4/468 786/3/468
f 786/3/468 790/6/468 783/2/468
f 790/7/469 786/8/469 785/9/469
f 789/10/470 781/11/471 784/12/472
f 789/10/469 790/7/469 785/9/469
f 790/6/468 784/1/473 783/2/468
f 790/7/474 789/10/470 784/12/472
f 789/5/466 785/3/466 788/4/466
f 791/1/1 792/2/1 793/2/1
f 793/2/1 794/1/1 791/1/1
f 795/3/2 796/3/2 797/4/2
f 797/4/2 798/4/2 795/3/2
f 791/1/475 799/5/475 798/4/475
f 798/4/475 792/2/475 791/1/475
f 792/2/476 798/4/476 797/4/476
f 797/4/476 793/2/476 792/2/476
f 793/2/477 797/4/477 796/3/477
f 796/3/477 800/6/477 793/2/477
f 800/7/478 796/8/478 795/9/478
f 799/10/479 791/11/480 794/12/481
f 799/10/478 800/7/478 795/9/478
f 800/6/477 794/1/477 793/2/477
f 800/7/482 799/10/479 794/12/481
f 799/5/475 795/3/475 798/4/475
f 801/1/1 802/2/1 803/2/1
f 803/2/1 804/1/1 801/1/1
f 805/3/2 806/3/2 807/4/2
f 807/4/2 808/4/2 805/3/2
f 801/1/449 809/5/449 808/4/450
f 808/4/450 802/2/450 801/1/449
f 802/2/451 808/4/451 807/4/451
f 807/4/451 803/2/451 802/2/451
f 803/2/452 807/4/452 806/3/452
f 806/3/452 810/6/452 803/2/452
f 810/7/455 806/8/454 805/9/455
f 809/10/456 801/11/483 804/12/458
f 809/10/455 810/7/455 805/9/455
f 810/6/452 804/1/452 803/2/452
f 810/7/459 809/10/456 804/12/458
f 809/5/449 805/3/449 808/4/450
f 811/1/1 812/2/1 813/2/1
f 813/2/1 814/1/1 811/1/1
f 815/3/2 816/3/2 817/4/2
f 817/4/2 818/4/2 815/3/2
f 811/1/449 819/5/449 818/4/449
f 818/4/449 812/2/449 811/1/449
f 812/2/484 818/4/484 817/4/484
f 817/4/484 813/2/451 812/2/484
f 813/2/453 817/4/453 816/3/453
f 816/3/453 820/6/453 813/2/453
f 820/7/454 816/8/455 815/9/454
f 819/10/456 811/11/457 814/12/460
f 819/10/454 820/7/454 815/9/454
f 820/6/453 814/1/461 813/2/453
f 820/7/462 819/10/456 814/12/460
f 819/5/449 815/3/449 818/4/449
f 821/1/1 822/2/1 823/2/1
f 823/2/1 824/1/1 821/1/1
f 825/3/2 826/3/2 827/4/2
f 827/4/2 828/4/2 825/3/2
f 821/1/449 829/5/449 828/4/449
f 828/4/449 822/2/449 821/1/449
f 822/2/463 828/4/463 827/4/463
f 827/4/463 823/2/463 822/2/463
f 823/2/453 827/4/453 826/3/452
f 826/3/452 830/6/452 823/2/453
f 830/7/455 826/8/454 825/9/455
f 829/10/456 821/11/485 824/12/460
f 829/10/455 830/7/455 825/9/455
f 830/6/452 824/1/453 823/2/453
f 830/7/459 829/10/456 824/12/460
f 829/5/449 825/3/449 828/4/449
f 831/1/1 832/2/1 833/2/1
f 833/2/1 834/1/1 831/1/1
f 835/3/2 836/3/2 837/4/2
f 837/4/2 838/4/2 835/3/2
f 831/1/466 839/5/466 838/4/466
f 838/4/466 832/2/466 831/1/466
f 832/2/486 838/4/467 837/4/486
f 837/4/486 833/2/486 832/2/486
f 833/2/468 837/4/468 836/3/468
f 836/3/468 840/6/468 833/2/468
f 840/7/487 836/8/487 835/9/469
f 839/10/470 831/11/488 834/12/472
f 839/10/469 840/7/487 835/9/469
f 840/6/468 834/1/473 833/2/468
f 840/7/474 839/10/470 834/12/472
f 839/5/466 835/3/466 838/4/466
f 841/1/1 842/2/1 843/2/1
f 843/2/1 844/1/1 841/1/1
f 845/3/2 846/3/2 847/4/2
f 847/4/2 848/4/2 845/3/2
f 841/1/475 849/5/475 848/4/475
f 848/4/475 842/2/475 841/1/475
f 842/2/476 848/4/476 847/4/476
f 847/4/476 843/2/476 842/2/476
f 843/2/477 847/4/477 846/3/477
f 846/3/477 850/6/477 843/2/477
f 850/7/478 846/8/478 845/9/478
f 849/10/479 841/11/489 844/12/481
f 849/10/478 850/7/478 845/9/478
f 850/6/477 844/1/477 843/2/477
f 850/7/482 849/10/479 844/12/481
f 849/5/475 845/3/475 848/4/475
f 856/1/490 855/2/491 858/2/492
f 858/2/492 851/1/493 856/1/490
f 852/3/494 853/3/495 857/4/496
f 857/4/496 854/4/497 852/3/494
f 856/1/490 860/5/498 854/4/497
f 854/4/497 855/2/491 856/1/490
f 855/2/499 854/4/497 857/4/496
f 857/4/500 858/2/492 855/2/491
f 858/2/501 857/4/496 853/3/495
f 853/3/501 859/6/501 858/2/501
f 859/7/502 853/8/495 852/9/494
f 860/10/498 856/11/490 851/12/493
f 860/10/502 859/7/502 852/9/502
f 859/6/501 851/1/493 858/2/492
f 859/7/503 860/10/504 851/12/505
f 860/5/498 852/3/494 854/4/497
f 861/1/1 862/2/1 863/2/1
f 863/2/1 864/1/1 861/1/1
f 865/3/2 866/3/2 867/4/2
f 867/4/2 868/4/2 865/3/2
f 861/1/506 869/5/506 868/4/506
f 868/4/506 862/2/506 861/1/506
f 862/2/500 868/4/500 867/4/500
f 867/4/500 863/2/500 862/2/500
f 863/2/501 867/4/501 866/3/501
f 866/3/501 870/6/501 863/2/501
f 870/7/502 866/8/502 865/9/507
f 869/10/504 861/11/508 864/12/509
f 869/10/507 870/7/502 865/9/507
f 870/6/501 864/1/501 863/2/501
f 870/7/510 869/10/504 864/12/509
f 869/5/506 865/3/506 868/4/506
f 871/1/1 872/2/1 873/2/1
f 873/2/1 874/1/1 871/1/1
f 875/3/2 876/3/2 877/4/2
f 877/4/2 878/4/2 875/3/2
f 871/1/506 879/5/506 878/4/506
f 878/4/506 872/2/506 871/1/506
f 872/2/500 878/4/500 877/4/500
f 877/4/500 873/2/500 872/2/500
f 873/2/501 877/4/501 876/3/501
f 876/3/501 880/6/501 873/2/501
f 880/7/502 876/8/502 875/9/502
f 879/10/511 871/11/512 874/12/513
f 879/10/502 880/7/502 875/9/502
f 880/6/501 874/1/501 873/2/501
f 880/7/503 879/10/511 874/12/513
f 879/5/506 875/3/506 878/4/506
f 881/1/1 882/2/1 883/2/1
f 883/2/1 884/1/1 881/1/1
f 885/3/2 886/3/2 887/4/2
f 887/4/2 888/4/2 885/3/2
f 881/1/514 889/5/514 888/4/514
f 888/4/514 882/2/514 881/1/514
f 882/2/515 888/4/515 887/4/515
f 887/4/515 883/2/515 882/2/515
f 883/2/516 887/4/516 886/3/516
f 886/3/516 890/6/516 883/2/516
f 890/7/517 886/8/517 885/9/517
f 889/10/518 881/11/519 884/12/520
f 889/10/521 890/7/517 885/9/517
f 890/6/516 884/1/522 883/2/516
f 890/7/523 889/10/518 884/12/520
f 889/5/514 885/3/514 888/4/514
f 891/1/1 892/2/1 893/2/1
f 893/2/1 894/1/1 891/1/1
f 895/3/2 896/3/2 897/4/2
f 897/4/2 898/4/2 895/3/2
f 891/1/524 899/5/524 898/4/524
f 898/4/524 892/2/524 891/1/524
f 892/2/525 898/4/526 897/4/525
f 897/4/525 893/2/525 892/2/525
f 893/2/527 897/4/527 896/3/527
f 896/3/527 900/6/527 893/2/527
f 900/7/528 896/8/528 895/9/528
f 899/10/529 891/11/530 894/12/531
f 899/10/528 900/7/528 895/9/528
f 900/6/527 894/1/527 893/2/527
f 900/7/532 899/10/529 894/12/531
f 899/5/524 895/3/524 898/4/524
f 901/1/1 902/2/1 903/2/1
f 903/2/1 904/1/1 901/1/1
f 905/3/2 906/3/2 907/4/2
f 907/4/2 908/4/2 905/3/2
f 901/1/506 909/5/506 908/4/506
f 908/4/506 902/2/506 901/1/506
f 902/2/500 908/4/500 907/4/500
f 907/4/500 903/2/499 902/2/500
f 903/2/501 907/4/501 906/3/501
f 906/3/501 910/6/501 903/2/501
f 910/7/502 906/8/502 905/9/502
f 909/10/504 901/11/508 904/12/505
f 909/10/502 910/7/502 905/9/502
f 910/6/501 904/1/501 903/2/501
f 910/7/503 909/10/504 904/12/505
f 909/5/506 905/3/506 908/4/506
f 911/1/1 912/2/1 913/2/1
f 913/2/1 914/1/1 911/1/1
f 915/3/2 916/3/2 917/4/2
f 917/4/2 918/4/2 915/3/2
f 911/1/506 919/5/506 918/4/506
f 918/4/506 912/2/506 911/1/506
f 912/2/500 918/4/500 917/4/500
f 917/4/500 913/2/500 912/2/500
f 913/2/501 917/4/501 916/3/501
f 916/3/501 920/6/501 913/2/501
f 920/7/502 916/8/502 915/9/502
f 919/10/504 911/11/508 914/12/509
f 919/10/502 920/7/502 915/9/502
f 920/6/501 914/1/501 913/2/501
f 920/7/503 919/10/504 914/12/509
f 919/5/506 915/3/506 918/4/506
f 921/1/1 922/2/1 923/2/1
f 923/2/1 924/1/1 921/1/1
f 925/3/2 926/3/2 927/4/2
f 927/4/2 928/4/2 925/3/2
f 921/1/506 929/5/506 928/4/506
f 928/4/506 922/2/506 921/1/506
f 922/2/500 928/4/500 927/4/500
f 927/4/500 923/2/500 922/2/500
f 923/2/501 927/4/501 926/3/501
f 926/3/501 930/6/501 923/2/501
f 930/7/502 926/8/502 925/9/502
f 929/10/504 921/11/508 924/12/513
f 929/10/502 930/7/502 925/9/502
f 930/6/501 924/1/501 923/2/501
f 930/7/533 929/10/504 924/12/513
f 929/5/506 925/3/506 928/4/506
f 931/1/1 932/2/1 933/2/1
f 933/2/1 934/1/1 931/1/1
f 935/3/2 936/3/2 937/4/2
f 937/4/2 938/4/2 935/3/2
f 931/1/514 939/5/514 938/4/514
f 938/4/514 932/2/514 931/1/514
f 932/2/515 938/4/534 937/4/515
f 937/4/515 933/2/515 932/2/515
f 933/2/516 937/4/516 936/3/516
f 936/3/516 940/6/516 933/2/516
f 940/7/517 936/8/517 935/9/535
f 939/10/518 931/11/536 934/12/520
f 939/10/535 940/7/517 935/9/535
f 940/6/516 934/1/516 933/2/516
f 940/7/537 939/10/518 934/12/520
f 939/5/514 935/3/514 938/4/514
f 941/1/1 942/2/1 943/2/1
f 943/2/1 944/1/1 941/1/1
f 945/3/2 946/3/2 947/4/2
f 947/4/2 948/4/2 945/3/2
f 941/1/524 949/5/524 948/4/524
f 948/4/524 942/2/524 941/1/524
f 942/2/526 948/4/526 947/4/526
f 947/4/526 943/2/526 942/2/526
f 943/2/527 947/4/527 946/3/527
f 946/3/527 950/6/527 943/2/527
f 950/7/538 946/8/538 945/9/538
f 949/10/529 941/11/539 944/12/540
f 949/10/528 950/7/538 945/9/538
f 950/6/527 944/1/527 943/2/527
f 950/7/532 949/10/529 944/12/540
f 949/5/524 945/3/524 948/4/524
