# Blender 4.4.3
# www.blender.org
mtllib SIGN_150.mtl
o SIGN_150
v -61.125080 1.295383 12.379083
v -61.125080 0.858631 12.379083
v -61.125080 1.295383 10.742491
v -61.125080 0.858631 10.742491
v -61.296913 1.295383 10.742491
v -61.296913 0.858631 10.742491
v -61.296913 1.295383 12.379083
v -61.296913 0.858631 12.379083
v -273.094147 20.175840 -277.339905
v -273.094147 19.739090 -277.339905
v -271.457611 20.175840 -277.325623
v -271.457611 19.739090 -277.325623
v -271.456116 20.175840 -277.497437
v -271.456116 19.739090 -277.497437
v -273.092651 20.175840 -277.511719
v -273.092651 19.739090 -277.511719
v 521.726929 -0.301911 -304.476166
v 521.726929 -0.738663 -304.476166
v 520.158997 -0.301911 -304.007111
v 520.158997 -0.738663 -304.007111
v 520.208252 -0.301911 -303.842468
v 520.208252 -0.738663 -303.842468
v 521.776184 -0.301911 -304.311554
v 521.776184 -0.738663 -304.311554
v -319.238831 16.709368 -665.936523
v -319.238831 16.272617 -665.936523
v -317.602234 16.709368 -665.936523
v -317.602234 16.272617 -665.936523
v -317.602234 16.709368 -666.108337
v -317.602234 16.272617 -666.108337
v -319.238831 16.709368 -666.108337
v -319.238831 16.272617 -666.108337
vn 1.0000 -0.0000 -0.0000
vn -1.0000 -0.0000 -0.0000
vn -0.0087 -0.0000 1.0000
vn 0.0087 -0.0000 -1.0000
vn -0.2866 -0.0000 -0.9580
vn -0.2866 -0.0000 -0.9581
vn 0.2866 -0.0000 0.9580
vn -0.0000 -0.0000 1.0000
vn -0.0000 -0.0000 -1.0000
vt 0.000500 1.999501
vt 0.000500 1.000500
vt 0.999501 1.999500
vt 0.999500 1.000499
s 1
usemtl SIGN150
f 1/1/1 2/2/1 3/3/1
f 4/4/1 3/3/1 2/2/1
f 5/1/2 6/2/2 7/3/2
f 8/4/2 7/3/2 6/2/2
f 9/1/3 10/2/3 11/3/3
f 12/4/3 11/3/3 10/2/3
f 13/1/4 14/2/4 15/3/4
f 16/4/4 15/3/4 14/2/4
f 17/1/5 18/2/5 19/3/6
f 20/4/6 19/3/6 18/2/5
f 21/1/7 22/2/7 23/3/7
f 24/4/7 23/3/7 22/2/7
f 25/1/8 26/2/8 27/3/8
f 28/4/8 27/3/8 26/2/8
f 29/1/9 30/2/9 31/3/9
f 32/4/9 31/3/9 30/2/9
