# Blender 4.4.3
# www.blender.org
mtllib SIGN_100.mtl
o SIGN_100
v -111.060783 1.489730 12.418445
v -111.060783 1.052978 12.418445
v -111.060783 1.489730 10.781853
v -111.060783 1.052978 10.781853
v -111.232620 1.489730 10.781853
v -111.232620 1.052978 10.781853
v -111.232620 1.489730 12.418445
v -111.232620 1.052978 12.418445
v -272.997437 22.338684 -327.273682
v -272.997437 21.901934 -327.273682
v -271.360901 22.338684 -327.259399
v -271.360901 21.901934 -327.259399
v -271.359406 22.338684 -327.431213
v -271.359406 21.901934 -327.431213
v -272.995941 22.338684 -327.445496
v -272.995941 21.901934 -327.445496
v 371.315521 15.846251 -465.597565
v 371.315521 15.409500 -465.597565
v 372.207886 15.846251 -464.225647
v 372.207886 15.409500 -464.225647
v 372.351929 15.846251 -464.319336
v 372.351929 15.409500 -464.319336
v 371.459564 15.846251 -465.691254
v 371.459564 15.409500 -465.691254
v 535.820129 -0.301907 -256.519867
v 535.820129 -0.738659 -256.519867
v 534.252197 -0.301907 -256.050812
v 534.252197 -0.738659 -256.050812
v 534.301453 -0.301907 -255.886169
v 534.301453 -0.738659 -255.886169
v 535.869385 -0.301907 -256.355255
v 535.869385 -0.738659 -256.355255
v -319.278137 10.238127 -715.872192
v -319.278137 9.801375 -715.872192
v -317.641541 10.238127 -715.872192
v -317.641541 9.801375 -715.872192
v -317.641541 10.238127 -716.044006
v -317.641541 9.801375 -716.044006
v -319.278137 10.238127 -716.044006
v -319.278137 9.801375 -716.044006
vn 1.0000 -0.0000 -0.0000
vn -1.0000 -0.0000 -0.0000
vn -0.0088 -0.0000 1.0000
vn -0.0087 -0.0000 1.0000
vn 0.0087 -0.0000 -1.0000
vn -0.8383 -0.0000 0.5453
vn 0.8383 -0.0000 -0.5452
vn 0.8383 -0.0000 -0.5453
vn -0.2866 -0.0000 -0.9581
vn -0.2866 -0.0000 -0.9580
vn 0.2866 -0.0000 0.9580
vn -0.0000 -0.0000 1.0000
vn -0.0000 -0.0000 -1.0000
vt 0.000500 1.999501
vt 0.000500 1.000500
vt 0.999501 1.999500
vt 0.999500 1.000499
s 1
usemtl SIGN100
f 1/1/1 2/2/1 3/3/1
f 4/4/1 3/3/1 2/2/1
f 5/1/2 6/2/2 7/3/2
f 8/4/2 7/3/2 6/2/2
f 9/1/3 10/2/4 11/3/4
f 12/4/4 11/3/4 10/2/4
f 13/1/5 14/2/5 15/3/5
f 16/4/5 15/3/5 14/2/5
f 17/1/6 18/2/6 19/3/6
f 20/4/6 19/3/6 18/2/6
f 21/1/7 22/2/7 23/3/8
f 24/4/8 23/3/8 22/2/7
f 25/1/9 26/2/9 27/3/10
f 28/4/10 27/3/10 26/2/9
f 29/1/11 30/2/11 31/3/11
f 32/4/11 31/3/11 30/2/11
f 33/1/12 34/2/12 35/3/12
f 36/4/12 35/3/12 34/2/12
f 37/1/13 38/2/13 39/3/13
f 40/4/13 39/3/13 38/2/13
