# Blender 4.4.3
# www.blender.org
mtllib SIGN_50.mtl
o SIGN_50
v -160.577866 1.962400 12.410243
v -160.577866 1.525649 12.410243
v -160.577866 1.962400 10.773651
v -160.577866 1.525649 10.773651
v -160.749710 1.962400 10.773651
v -160.749710 1.525649 10.773651
v -160.749710 1.962400 12.410243
v -160.749710 1.525649 12.410243
v -272.972443 22.975620 -376.788879
v -272.972443 22.538870 -376.788879
v -271.335907 22.975620 -376.774597
v -271.335907 22.538870 -376.774597
v -271.334412 22.975620 -376.946411
v -271.334412 22.538870 -376.946411
v -272.970947 22.975620 -376.960693
v -272.970947 22.538870 -376.960693
v 411.322357 14.598989 -494.839355
v 411.322357 14.162238 -494.839355
v 412.214722 14.598989 -493.467468
v 412.214722 14.162238 -493.467468
v 412.358765 14.598989 -493.561157
v 412.358765 14.162238 -493.561157
v 411.466400 14.598989 -494.933044
v 411.466400 14.162238 -494.933044
v 525.652405 1.322588 -404.140961
v 525.652405 0.885837 -404.140961
v 527.149963 1.322588 -403.480774
v 527.149963 0.885838 -403.480774
v 527.219238 1.322588 -403.638000
v 527.219238 0.885838 -403.638000
v 525.721741 1.322588 -404.298187
v 525.721741 0.885837 -404.298187
v 545.573425 -0.301905 -207.498856
v 545.573425 -0.738656 -207.498856
v 544.005493 -0.301905 -207.029770
v 544.005493 -0.738656 -207.029770
v 544.054749 -0.301905 -206.865143
v 544.054749 -0.738656 -206.865143
v 545.622681 -0.301905 -207.334229
v 545.622681 -0.738656 -207.334229
v -319.269958 3.213481 -765.389282
v -319.269958 2.776729 -765.389282
v -317.633362 3.213481 -765.389282
v -317.633362 2.776729 -765.389282
v -317.633362 3.213481 -765.561096
v -317.633362 2.776729 -765.561096
v -319.269958 3.213481 -765.561096
v -319.269958 2.776729 -765.561096
vn 1.0000 -0.0000 -0.0000
vn -1.0000 -0.0000 -0.0000
vn -0.0087 -0.0000 1.0000
vn -0.0088 -0.0000 1.0000
vn 0.0087 -0.0000 -1.0000
vn 0.0088 -0.0000 -1.0000
vn -0.8383 -0.0000 0.5453
vn 0.8383 -0.0000 -0.5453
vn -0.4034 -0.0000 0.9150
vn 0.4034 -0.0000 -0.9150
vn -0.2866 -0.0000 -0.9580
vn 0.2866 -0.0000 0.9580
vn -0.0000 -0.0000 1.0000
vn -0.0000 -0.0000 -1.0000
vt 0.000500 1.999501
vt 0.000500 1.000500
vt 0.999501 1.999500
vt 0.999500 1.000499
s 1
usemtl SIGN50
f 1/1/1 2/2/1 3/3/1
f 4/4/1 3/3/1 2/2/1
f 5/1/2 6/2/2 7/3/2
f 8/4/2 7/3/2 6/2/2
f 9/1/3 10/2/3 11/3/3
f 12/4/4 11/3/3 10/2/3
f 13/1/5 14/2/5 15/3/5
f 16/4/6 15/3/5 14/2/5
f 17/1/7 18/2/7 19/3/7
f 20/4/7 19/3/7 18/2/7
f 21/1/8 22/2/8 23/3/8
f 24/4/8 23/3/8 22/2/8
f 25/1/9 26/2/9 27/3/9
f 28/4/9 27/3/9 26/2/9
f 29/1/10 30/2/10 31/3/10
f 32/4/10 31/3/10 30/2/10
f 33/1/11 34/2/11 35/3/11
f 36/4/11 35/3/11 34/2/11
f 37/1/12 38/2/12 39/3/12
f 40/4/12 39/3/12 38/2/12
f 41/1/13 42/2/13 43/3/13
f 44/4/13 43/3/13 42/2/13
f 45/1/14 46/2/14 47/3/14
f 48/4/14 47/3/14 46/2/14
