# Blender 4.4.3
# www.blender.org
mtllib STAIRSA.mtl
o STAIRSA
v 559.853699 -1.291815 -185.969650
v 562.313904 -2.879667 -186.703415
v 559.412720 -1.291815 -187.448135
v 561.872925 -2.879667 -188.181900
v 554.892212 0.543537 -184.489853
v 557.666748 -1.291815 -185.317368
v 554.451294 0.543537 -185.968353
v 557.225769 -1.291815 -186.795868
v 561.872925 -3.047191 -188.181900
v 562.313904 -3.047191 -186.703415
v 559.412720 -1.459340 -187.448135
v 559.853699 -1.459340 -185.969650
v 557.225769 -1.459340 -186.795868
v 557.666748 -1.459340 -185.317368
v 554.451294 0.376013 -185.968353
v 554.892212 0.376013 -184.489853
v 530.958069 -1.291814 -179.153214
v 528.497864 -2.879665 -178.419449
v 531.399048 -1.291814 -177.674713
v 528.938843 -2.879665 -176.940948
v 535.919556 0.543537 -180.632996
v 533.145020 -1.291815 -179.805481
v 536.360535 0.543537 -179.154495
v 533.585999 -1.291814 -178.326996
v 528.938843 -3.047190 -176.940948
v 528.497864 -3.047190 -178.419449
v 531.399048 -1.459338 -177.674713
v 530.958069 -1.459338 -179.153214
v 533.585999 -1.459339 -178.326996
v 533.145020 -1.459340 -179.805481
v 536.360535 0.376013 -179.154495
v 535.919556 0.376013 -180.632996
v -191.699188 2.064031 -18.605499
v -191.692825 0.476179 -21.172773
v -193.242035 2.064031 -18.609325
v -193.235672 0.476179 -21.176601
v -191.712036 3.899383 -13.428059
v -191.704849 2.064031 -16.323338
v -193.254883 3.899383 -13.431886
v -193.247696 2.064031 -16.327166
v -193.235672 0.308655 -21.176601
v -191.692825 0.308655 -21.172773
v -193.242035 1.896507 -18.609325
v -191.699188 1.896507 -18.605499
v -193.247696 1.896507 -16.327164
v -191.704849 1.896507 -16.323338
v -193.254883 3.731859 -13.431886
v -191.712036 3.731859 -13.428059
v -193.257538 2.064034 14.597620
v -193.263901 0.476183 17.164896
v -191.714691 2.064034 14.601446
v -191.721054 0.476183 17.168720
v -193.244690 3.899385 9.420180
v -193.251877 2.064033 12.315457
v -191.701843 3.899385 9.424007
v -191.709030 2.064033 12.319285
v -191.721054 0.308658 17.168720
v -193.263901 0.308658 17.164894
v -191.714691 1.896510 14.601446
v -193.257538 1.896510 14.597620
v -191.709030 1.896509 12.319285
v -193.251877 1.896509 12.315457
v -191.701843 3.731861 9.424007
v -193.244690 3.731861 9.420180
v -294.208191 21.298666 -595.659058
v -291.640930 19.710814 -595.667786
v -294.213409 21.298666 -597.201904
v -291.646149 19.710814 -597.210632
v -299.385620 23.134018 -595.641602
v -296.490356 21.298666 -595.651367
v -299.390839 23.134018 -597.184448
v -296.495575 21.298666 -597.194214
v -291.646149 19.543289 -597.210632
v -291.640930 19.543289 -595.667786
v -294.213409 21.131142 -597.201904
v -294.208191 21.131142 -595.659058
v -296.495575 21.131142 -597.194214
v -296.490356 21.131142 -595.651367
v -299.390839 22.966494 -597.184448
v -299.385620 22.966494 -595.641602
v -327.419891 21.298666 -597.022888
v -329.987152 19.710815 -597.014160
v -327.414673 21.298666 -595.480042
v -329.981934 19.710815 -595.471313
v -322.242462 23.134018 -597.040344
v -325.137726 21.298666 -597.030579
v -322.237244 23.134018 -595.497498
v -325.132507 21.298666 -595.487732
v -329.981934 19.543289 -595.471313
v -329.987152 19.543291 -597.014160
v -327.414673 21.131142 -595.480042
v -327.419891 21.131142 -597.022888
v -325.132507 21.131142 -595.487732
v -325.137726 21.131142 -597.030579
v -322.237244 22.966494 -595.497498
v -322.242462 22.966494 -597.040344
v -184.235962 -3.215988 -780.982361
v -178.264374 -2.863349 -783.133240
v -185.050140 -3.215987 -782.815247
v -180.661041 -2.863349 -784.840332
v -189.871170 -2.775780 -778.641296
v -186.719894 -3.215988 -779.950439
v -190.685349 -2.775779 -780.474182
v -187.534088 -3.215988 -781.783325
v -180.661041 -3.081118 -784.840332
v -178.264374 -3.081118 -783.133240
v -185.050140 -3.433757 -782.815247
v -184.235962 -3.433756 -780.982361
v -187.534088 -3.433757 -781.783325
v -186.719894 -3.433756 -779.950439
v -190.685349 -2.993549 -780.474182
v -189.871170 -2.993550 -778.641296
v -225.221420 -1.302618 -765.899231
v -240.528427 7.647996 -759.079163
v -224.407242 -1.302618 -764.066345
v -239.714249 7.647996 -757.246277
v -215.522385 -2.775779 -770.061890
v -218.673645 -2.624911 -768.752686
v -214.708191 -2.775779 -768.228943
v -217.859451 -2.624911 -766.919800
v -239.714249 7.430226 -757.246277
v -240.528427 7.430226 -759.079163
v -224.407242 -1.520387 -764.066345
v -225.221420 -1.520387 -765.899231
v -217.859451 -2.842680 -766.919800
v -218.673645 -2.842680 -768.752686
v -214.708191 -2.993548 -768.228943
v -215.522385 -2.993548 -770.061890
v 542.690125 34.998516 -818.726013
v 549.460022 33.250294 -819.217957
v 542.110596 34.998516 -820.538025
v 546.828979 33.250294 -821.974915
v 546.828979 33.043869 -821.974915
v 549.460022 33.043869 -819.217957
v 542.110596 34.792095 -820.538025
v 542.690125 34.792095 -818.726013
v 495.092590 32.736996 -811.235168
v 491.978851 30.780447 -810.676880
v 495.428131 32.736996 -809.363892
v 492.314362 30.780447 -808.805603
v 501.645233 34.998516 -812.427429
v 497.860535 32.736996 -811.731445
v 502.224731 34.998516 -810.615479
v 498.196075 32.736996 -809.860168
v 492.314362 30.574022 -808.805603
v 491.978851 30.574022 -810.676880
v 495.428131 32.530575 -809.363892
v 495.092590 32.530575 -811.235168
v 498.196075 32.530571 -809.860168
v 497.860535 32.530571 -811.731445
v 502.224731 34.792095 -810.615479
v 501.645233 34.792095 -812.427429
v 550.455566 33.186111 -819.393311
v 554.503174 31.154480 -814.344421
v 553.115601 33.171455 -821.425415
v 556.908508 30.992226 -816.710632
v 556.908508 30.785803 -816.710632
v 554.503174 30.948057 -814.344421
v 553.115601 32.965031 -821.425415
v 550.455566 32.979691 -819.393311
v 550.131165 33.246536 -824.282654
v 546.282288 31.214903 -829.484619
v 547.394287 33.231880 -822.355164
v 543.787048 31.052649 -827.213440
v 543.787048 30.846226 -827.213440
v 546.282288 31.008480 -829.484619
v 547.394287 33.025455 -822.355164
v 550.131165 33.040115 -824.282654
v 489.095093 -0.459040 -274.933624
v 493.962463 3.407638 -276.385986
v 488.603058 -0.459040 -276.582581
v 493.470428 3.407638 -278.034943
v 493.470428 3.281446 -278.034943
v 493.962463 3.281447 -276.385986
v 488.603058 -0.585232 -276.582581
v 489.095093 -0.585232 -274.933624
v 481.628876 -3.606755 -272.705811
v 487.257782 -0.459040 -274.385406
v 481.136841 -3.606756 -274.354767
v 486.765747 -0.459040 -276.034363
v 486.765747 -0.585232 -276.034363
v 487.257782 -0.585231 -274.385406
v 481.136841 -3.732947 -274.354767
v 481.628876 -3.732946 -272.705811
v 514.243713 3.407645 -188.705963
v 509.375885 -0.459033 -187.255096
v 509.867432 -0.459033 -185.605988
v 514.735229 3.407645 -187.056854
v 514.243713 3.281454 -188.705963
v 514.735229 3.281453 -187.056854
v 509.867432 -0.585225 -185.605988
v 509.375885 -0.585225 -187.255096
v 507.538391 -0.459033 -186.707413
v 501.908997 -3.606749 -185.029526
v 502.400513 -3.606749 -183.380417
v 508.029938 -0.459033 -185.058304
v 507.538391 -0.585225 -186.707413
v 508.029938 -0.585225 -185.058304
v 502.400513 -3.732941 -183.380417
v 501.908997 -3.732940 -185.029526
v -192.744080 12.792798 -681.433167
v -192.660858 16.659477 -686.511902
v -194.464645 12.792798 -681.461365
v -194.381439 16.659477 -686.540100
v -194.381439 16.533285 -686.540100
v -192.660858 16.533285 -686.511902
v -194.464645 12.666607 -681.461365
v -192.744080 12.666607 -681.433167
v -192.871719 9.645083 -673.642700
v -192.775482 12.792798 -679.516052
v -194.592300 9.645083 -673.670898
v -194.496063 12.792798 -679.544250
v -194.496063 12.666607 -679.544250
v -192.775482 12.666607 -679.516052
v -194.592300 9.518892 -673.670898
v -192.871719 9.518892 -673.642700
v -102.946808 16.659477 -679.405273
v -103.031570 12.792799 -674.326599
v -101.311005 12.792799 -674.297852
v -101.226250 16.659475 -679.376587
v -102.946808 16.533285 -679.405273
v -101.226250 16.533285 -679.376587
v -101.311005 12.666608 -674.297852
v -103.031570 12.666608 -674.326599
v -103.063568 12.792799 -672.409485
v -103.161583 9.645083 -666.536133
v -101.441025 9.645083 -666.507446
v -101.343002 12.792799 -672.380737
v -103.063568 12.666608 -672.409485
v -101.343002 12.666608 -672.380737
v -101.441025 9.518891 -666.507446
v -103.161583 9.518892 -666.536133
v -202.662064 13.372584 -700.594543
v -199.349274 17.922337 -697.653381
v -201.946213 13.372583 -701.392944
v -198.633423 17.922335 -698.451782
v -207.743668 9.668802 -705.106079
v -203.912582 13.372583 -701.704773
v -207.027802 9.668802 -705.904480
v -203.196716 13.372583 -702.503174
v -240.389771 17.922340 -659.244751
v -243.701904 13.372587 -662.186584
v -244.418106 13.372587 -661.388550
v -241.105957 17.922338 -658.446655
v -244.952164 13.372586 -663.297119
v -248.782516 9.668805 -666.699219
v -249.498718 9.668805 -665.901184
v -245.668365 13.372587 -662.499023
v 58.966904 1.286784 -9.587225
v 55.536327 -1.180164 -9.587225
v 55.536324 -1.180164 -8.852239
v 58.966904 1.286784 -8.852239
v 58.966904 1.201555 -9.587225
v 58.966904 1.201555 -8.852239
v 55.536324 -1.265392 -8.852239
v 55.536327 -1.265392 -9.587225
v 402.266113 13.286551 -449.663177
v 403.626282 14.199656 -447.785675
v 403.161346 13.286551 -450.306519
v 404.523560 14.199182 -448.431946
v 408.845856 17.095018 -442.483734
v 407.939270 17.095020 -441.832245
v 381.930481 13.833370 -435.428131
v 383.290649 14.746475 -433.550629
v 382.825714 13.833369 -436.071472
v 384.187927 14.746001 -434.196899
v 388.510223 17.641838 -428.248688
v 387.603638 17.641838 -427.597198
v 431.663879 12.738002 -470.761688
v 433.024048 13.651107 -468.884186
v 432.559113 12.738002 -471.405029
v 433.921326 13.650633 -469.530457
v 438.243622 16.546471 -463.582245
v 437.337036 16.546471 -462.930756
v 535.837585 -2.375488 -284.615479
v 538.058167 -1.462383 -285.282043
v 535.524658 -2.375488 -285.672577
v 537.743164 -1.462857 -286.342010
v 544.782410 1.432981 -288.466125
v 545.099304 1.432981 -287.395630
v 542.907471 -2.414983 -259.598083
v 545.128052 -1.501878 -260.264648
v 542.594543 -2.414983 -260.655182
v 544.813049 -1.502351 -261.324615
v 551.852295 1.393486 -263.448730
v 552.169189 1.393486 -262.378235
v 555.229858 -2.414979 -204.392975
v 557.450439 -1.501873 -205.059525
v 554.916931 -2.414979 -205.450058
v 557.135437 -1.502347 -206.119476
v 564.174683 1.393490 -208.243591
v 564.491577 1.393490 -207.173096
v -280.407715 20.940853 -287.430481
v -282.726166 21.853958 -287.424591
v -280.409149 20.940853 -286.328064
v -282.726379 21.853485 -286.318817
v -290.079102 24.749321 -286.289520
v -290.077667 24.749321 -287.405914
v -280.852509 20.940851 -313.386597
v -283.170959 21.853956 -313.380707
v -280.853943 20.940851 -312.284180
v -283.171173 21.853483 -312.274933
v -290.523895 24.749319 -312.245636
v -290.522461 24.749319 -313.362030
v -280.661407 20.940845 -369.852295
v -282.979858 21.853951 -369.846405
v -280.662842 20.940845 -368.749878
v -282.980072 21.853477 -368.740631
v -290.332794 24.749313 -368.711334
v -290.331360 24.749313 -369.827728
v 386.709259 -2.414961 22.805878
v 386.715149 -1.501856 25.124310
v 387.811676 -2.414961 22.807301
v 387.820923 -1.502330 25.124537
v 387.850220 1.393509 32.477264
v 386.733826 1.393509 32.475822
v 360.751434 -2.414961 23.131226
v 360.757324 -1.501856 25.449657
v 361.853851 -2.414961 23.132648
v 361.863098 -1.502330 25.449884
v 361.892395 1.393509 32.802612
v 360.776001 1.393509 32.801170
v 304.301605 -2.414962 19.544537
v 304.307495 -1.501856 21.862968
v 305.404022 -2.414962 19.545959
v 305.413269 -1.502330 21.863195
v 305.442566 1.393508 29.215925
v 304.326172 1.393508 29.214479
v -167.982315 0.027388 22.964844
v -167.976410 0.940493 25.283278
v -166.879883 0.027388 22.966269
v -166.870636 0.940019 25.283504
v -166.841324 3.835857 32.636234
v -167.957733 3.835857 32.634789
v -111.532478 -0.742343 19.688766
v -111.526588 0.170763 22.007198
v -110.430054 -0.742343 19.690189
v -110.420815 0.170289 22.007425
v -110.391495 3.066127 29.360155
v -111.507904 3.066127 29.358709
v -85.574654 -0.742343 19.363415
v -85.568764 0.170763 21.681849
v -84.472229 -0.742343 19.364840
v -84.462990 0.170289 21.682076
v -84.433670 3.066127 29.034805
v -85.550079 3.066127 29.033360
v 60.232159 -0.436831 19.604961
v 60.240673 0.882653 22.955212
v 61.825222 -0.436831 19.607018
v 61.838573 0.881968 22.955540
v 61.880932 5.066598 33.580601
v 60.267673 5.066598 33.578514
v 29.155083 -0.436834 19.567905
v 29.163597 0.165588 22.918154
v 30.748142 -0.436834 19.569962
v 30.761496 0.164903 22.918480
v 30.803856 2.401126 33.010521
v 29.190598 2.401125 33.008434
v 88.878586 -0.436828 19.642021
v 88.887100 0.165594 22.992271
v 90.471649 -0.436828 19.644077
v 90.485001 0.164909 22.992596
v 90.527359 2.401132 33.084637
v 88.914108 2.401131 33.082550
v -324.291229 21.065779 -520.487183
v -326.609375 21.978884 -520.451111
v -324.278290 21.065779 -519.384827
v -326.595184 21.978411 -519.345398
v -333.946930 24.874247 -519.220215
v -333.960022 24.874247 -520.336548
v -324.291229 21.065777 -545.701538
v -326.609375 21.978882 -545.665405
v -324.278290 21.065777 -544.599182
v -326.595184 21.978409 -544.559753
v -333.946930 24.874247 -544.434570
v -333.960022 24.874247 -545.550903
v -324.291229 21.065775 -570.386902
v -326.609375 21.978880 -570.350769
v -324.278290 21.065775 -569.284546
v -326.595184 21.978407 -569.245117
v -333.946930 24.874245 -569.119934
v -333.960022 24.874245 -570.236267
v 382.576355 35.647274 -971.951904
v 384.767609 36.966759 -974.486206
v 381.375275 35.647274 -972.998474
v 383.561768 36.966072 -975.534668
v 390.499603 41.150703 -983.582031
v 391.715881 41.150703 -982.522217
v 406.008392 35.735786 -951.538086
v 408.199677 36.338207 -954.072388
v 404.807343 35.735786 -952.584656
v 406.993835 36.337524 -955.120789
v 413.582001 38.573746 -962.765869
v 414.798279 38.573746 -961.706055
v 360.978912 35.647274 -990.771301
v 363.170166 36.249695 -993.305603
v 359.777832 35.647274 -991.817871
v 361.964325 36.249012 -994.354065
v 368.552490 38.485233 -1001.999084
v 369.768768 38.485233 -1000.939270
v 495.550476 32.168598 -870.902588
v 497.772461 33.488083 -873.410034
v 494.362244 32.168598 -871.963745
v 496.579468 33.487396 -874.473083
v 503.614899 37.672028 -882.435242
v 504.818176 37.672028 -881.360657
v 518.731934 32.168598 -850.204651
v 520.953918 32.771019 -852.712036
v 517.543762 32.168598 -851.265808
v 519.760986 32.770332 -853.775146
v 526.441833 35.006554 -861.339294
v 527.645142 35.006554 -860.264709
v 474.184021 32.168598 -889.983887
v 476.406006 32.771019 -892.491272
v 472.995789 32.168598 -891.044983
v 475.213013 32.770336 -893.554321
v 481.893890 35.006557 -901.118469
v 483.097168 35.006557 -900.043884
v 370.671753 30.376122 -744.256531
v 369.680908 31.289225 -746.352539
v 369.673279 30.376122 -743.789185
v 368.679932 31.288752 -745.882751
v 365.527893 34.184589 -752.525635
v 366.539032 34.184589 -752.998901
v 348.192749 29.945007 -734.055481
v 347.201874 30.858112 -736.151550
v 347.194275 29.945007 -733.588135
v 346.200897 30.857639 -735.681702
v 343.048859 33.753475 -742.324585
v 344.059998 33.753475 -742.797852
v 325.231995 29.313660 -723.635803
v 324.241150 30.226765 -725.731873
v 324.233521 29.313660 -723.168457
v 323.240173 30.226292 -725.262024
v 320.088135 33.122131 -731.904907
v 321.099274 33.122131 -732.378174
v 552.179749 -3.228301 -228.138672
v 548.858032 -1.713060 -227.281143
v 552.470215 -3.228301 -227.013367
v 549.148560 -1.713060 -226.155838
v 549.148560 -1.798288 -226.155838
v 548.858032 -1.798288 -227.281143
v 552.470215 -3.313529 -227.013367
v 552.179749 -3.313529 -228.138672
v 553.688538 0.757895 -229.446136
v 553.688538 0.692366 -229.446136
v 549.177185 0.757893 -246.921097
v 549.177185 0.692364 -246.921097
v 553.434753 0.757895 -229.380615
v 548.923401 0.757893 -246.855576
v 553.434753 0.692366 -229.380615
v 548.923401 0.692364 -246.855576
v 553.143982 0.555215 -229.305542
v 553.143982 0.489686 -229.305542
v 548.632629 0.555213 -246.780518
v 548.632629 0.489684 -246.780518
v 552.890198 0.555215 -229.240021
v 548.378784 0.555213 -246.714996
v 552.890198 0.489686 -229.240021
v 548.378784 0.489684 -246.714996
v 552.614685 0.376805 -229.168900
v 552.614685 0.311276 -229.168900
v 548.103333 0.376803 -246.643875
v 548.103333 0.311274 -246.643875
v 552.360901 0.376805 -229.103378
v 547.849487 0.376803 -246.578354
v 552.360901 0.311276 -229.103378
v 547.849487 0.311274 -246.578354
v 552.070129 0.174125 -229.028320
v 552.070129 0.108596 -229.028320
v 547.558716 0.174123 -246.503281
v 547.558716 0.108594 -246.503281
v 551.816284 0.174125 -228.962799
v 547.304932 0.174123 -246.437759
v 551.816284 0.108596 -228.962799
v 547.304932 0.108594 -246.437759
v 551.540161 -0.044473 -228.891495
v 551.540161 -0.110002 -228.891495
v 547.028748 -0.044475 -246.366470
v 547.028748 -0.110004 -246.366470
v 551.286377 -0.044473 -228.825974
v 546.774963 -0.044475 -246.300949
v 551.286377 -0.110002 -228.825974
v 546.774963 -0.110004 -246.300949
v 550.995544 -0.247154 -228.750916
v 550.995544 -0.312682 -228.750916
v 546.484192 -0.247156 -246.225876
v 546.484192 -0.312684 -246.225876
v 550.741760 -0.247154 -228.685394
v 546.230408 -0.247156 -246.160355
v 550.741760 -0.312682 -228.685394
v 546.230408 -0.312684 -246.160355
v 550.466309 -0.425563 -228.614258
v 550.466309 -0.491092 -228.614258
v 545.954895 -0.425565 -246.089233
v 545.954895 -0.491094 -246.089233
v 550.212463 -0.425564 -228.548752
v 545.701111 -0.425565 -246.023712
v 550.212463 -0.491092 -228.548752
v 545.701111 -0.491094 -246.023712
v 549.921692 -0.628244 -228.473679
v 549.921692 -0.693772 -228.473679
v 545.410339 -0.628246 -245.948639
v 545.410339 -0.693774 -245.948639
v 549.667908 -0.628244 -228.408157
v 545.156555 -0.628246 -245.883118
v 549.667908 -0.693773 -228.408157
v 545.156555 -0.693775 -245.883118
v 549.417175 -0.819086 -228.343414
v 549.417175 -0.884615 -228.343414
v 544.905762 -0.819088 -245.818390
v 544.905762 -0.884617 -245.818390
v 549.163330 -0.819086 -228.277893
v 544.651978 -0.819088 -245.752869
v 549.163330 -0.884615 -228.277893
v 544.651978 -0.884617 -245.752869
v 548.872559 -1.021766 -228.202835
v 548.872559 -1.087295 -228.202835
v 544.361206 -1.021768 -245.677795
v 544.361206 -1.087297 -245.677795
v 548.618774 -1.021766 -228.137314
v 544.107422 -1.021768 -245.612274
v 548.618774 -1.087295 -228.137314
v 544.107422 -1.087297 -245.612274
v 531.535828 -3.228307 -299.097107
v 528.245361 -1.713066 -298.126801
v 531.864563 -3.228306 -297.982361
v 528.574036 -1.713065 -297.012054
v 528.574036 -1.798293 -297.012054
v 528.245361 -1.798293 -298.126801
v 531.864563 -3.313534 -297.982361
v 531.535828 -3.313535 -299.097107
v 532.999207 0.757889 -300.455261
v 532.999207 0.692360 -300.455261
v 527.894592 0.757888 -317.766235
v 527.894592 0.692359 -317.766235
v 532.747803 0.757889 -300.381104
v 527.643188 0.757888 -317.692078
v 532.747803 0.692360 -300.381104
v 527.643188 0.692359 -317.692078
v 532.459717 0.555209 -300.296173
v 532.459717 0.489680 -300.296173
v 527.355164 0.555208 -317.607147
v 527.355164 0.489679 -317.607147
v 532.208313 0.555209 -300.222046
v 527.103699 0.555208 -317.533020
v 532.208313 0.489680 -300.222046
v 527.103699 0.489679 -317.533020
v 531.935425 0.376799 -300.141571
v 531.935425 0.311270 -300.141571
v 526.830811 0.376798 -317.452545
v 526.830811 0.311269 -317.452545
v 531.684021 0.376799 -300.067413
v 526.579407 0.376798 -317.378418
v 531.684021 0.311270 -300.067413
v 526.579407 0.311269 -317.378418
v 531.395935 0.174119 -299.982483
v 531.395935 0.108590 -299.982483
v 526.291321 0.174118 -317.293457
v 526.291321 0.108589 -317.293457
v 531.144531 0.174119 -299.908356
v 526.039917 0.174118 -317.219330
v 531.144531 0.108590 -299.908356
v 526.039917 0.108589 -317.219330
v 530.870972 -0.044479 -299.827667
v 530.870972 -0.110008 -299.827667
v 525.766357 -0.044480 -317.138672
v 525.766357 -0.110009 -317.138672
v 530.619568 -0.044479 -299.753540
v 525.514954 -0.044480 -317.064514
v 530.619568 -0.110008 -299.753540
v 525.514954 -0.110009 -317.064514
v 530.331482 -0.247160 -299.668610
v 530.331482 -0.312688 -299.668610
v 525.226868 -0.247161 -316.979584
v 525.226868 -0.312689 -316.979584
v 530.080078 -0.247160 -299.594452
v 524.975464 -0.247161 -316.905457
v 530.080078 -0.312688 -299.594452
v 524.975464 -0.312689 -316.905457
v 529.807190 -0.425569 -299.513977
v 529.807190 -0.491098 -299.513977
v 524.702576 -0.425570 -316.824982
v 524.702576 -0.491099 -316.824982
v 529.555786 -0.425570 -299.439850
v 524.451172 -0.425570 -316.750824
v 529.555786 -0.491098 -299.439850
v 524.451172 -0.491099 -316.750824
v 529.267700 -0.628250 -299.354919
v 529.267700 -0.693778 -299.354919
v 524.163086 -0.628251 -316.665894
v 524.163086 -0.693779 -316.665894
v 529.016296 -0.628250 -299.280792
v 523.911682 -0.628251 -316.591766
v 529.016296 -0.693779 -299.280792
v 523.911682 -0.693780 -316.591766
v 528.767883 -0.819092 -299.207520
v 528.767883 -0.884621 -299.207520
v 523.663269 -0.819093 -316.518494
v 523.663269 -0.884622 -316.518494
v 528.516479 -0.819092 -299.133392
v 523.411865 -0.819093 -316.444366
v 528.516479 -0.884621 -299.133392
v 523.411865 -0.884622 -316.444366
v 528.228455 -1.021772 -299.048462
v 528.228455 -1.087301 -299.048462
v 523.123840 -1.021773 -316.359436
v 523.123840 -1.087302 -316.359436
v 527.976990 -1.021772 -298.974304
v 522.872375 -1.021773 -316.285309
v 527.976990 -1.087301 -298.974304
v 522.872375 -1.087302 -316.285309
v 557.279053 -3.228285 -25.622452
v 553.848511 -1.713045 -25.622452
v 557.279053 -3.228285 -24.460249
v 553.848511 -1.713045 -24.460249
v 553.848511 -1.798273 -24.460249
v 553.848511 -1.798273 -25.622452
v 557.279053 -3.313514 -24.460249
v 557.279053 -3.313514 -25.622452
v 559.066833 0.757911 -26.511250
v 559.066833 0.692381 -26.511250
v 559.066833 0.757910 -44.559158
v 559.066833 0.692380 -44.559158
v 558.804688 0.757911 -26.511250
v 558.804749 0.757910 -44.559158
v 558.804688 0.692381 -26.511250
v 558.804749 0.692380 -44.559158
v 558.504395 0.555230 -26.511250
v 558.504395 0.489702 -26.511250
v 558.504395 0.555229 -44.559158
v 558.504395 0.489701 -44.559158
v 558.242310 0.555230 -26.511250
v 558.242310 0.555229 -44.559158
v 558.242310 0.489702 -26.511250
v 558.242310 0.489701 -44.559158
v 557.957764 0.376820 -26.511250
v 557.957764 0.311292 -26.511250
v 557.957764 0.376819 -44.559158
v 557.957764 0.311291 -44.559158
v 557.695618 0.376820 -26.511248
v 557.695618 0.376819 -44.559155
v 557.695618 0.311292 -26.511248
v 557.695618 0.311291 -44.559155
v 557.395325 0.174140 -26.511248
v 557.395325 0.108611 -26.511248
v 557.395325 0.174139 -44.559158
v 557.395325 0.108610 -44.559158
v 557.133179 0.174140 -26.511248
v 557.133179 0.174139 -44.559158
v 557.133179 0.108611 -26.511248
v 557.133179 0.108610 -44.559158
v 556.847961 -0.044458 -26.511248
v 556.847961 -0.109987 -26.511248
v 556.847961 -0.044459 -44.559158
v 556.847961 -0.109988 -44.559158
v 556.585876 -0.044458 -26.511248
v 556.585876 -0.044459 -44.559158
v 556.585876 -0.109987 -26.511248
v 556.585876 -0.109988 -44.559158
v 556.285583 -0.247138 -26.511248
v 556.285583 -0.312667 -26.511248
v 556.285583 -0.247139 -44.559158
v 556.285583 -0.312668 -44.559158
v 556.023438 -0.247138 -26.511248
v 556.023438 -0.247139 -44.559158
v 556.023438 -0.312667 -26.511248
v 556.023438 -0.312668 -44.559158
v 555.738892 -0.425548 -26.511248
v 555.738892 -0.491077 -26.511248
v 555.738892 -0.425549 -44.559158
v 555.738892 -0.491078 -44.559158
v 555.476807 -0.425548 -26.511248
v 555.476807 -0.425549 -44.559158
v 555.476807 -0.491077 -26.511248
v 555.476807 -0.491078 -44.559158
v 555.176453 -0.628229 -26.511248
v 555.176453 -0.693757 -26.511248
v 555.176453 -0.628230 -44.559158
v 555.176453 -0.693758 -44.559158
v 554.914368 -0.628229 -26.511248
v 554.914368 -0.628230 -44.559158
v 554.914368 -0.693758 -26.511248
v 554.914368 -0.693759 -44.559158
v 554.655396 -0.819071 -26.511248
v 554.655396 -0.884600 -26.511248
v 554.655396 -0.819072 -44.559158
v 554.655396 -0.884601 -44.559158
v 554.393250 -0.819071 -26.511248
v 554.393250 -0.819072 -44.559158
v 554.393250 -0.884600 -26.511248
v 554.393250 -0.884601 -44.559158
v 554.092957 -1.021751 -26.511248
v 554.092957 -1.087280 -26.511248
v 554.092957 -1.021752 -44.559158
v 554.092957 -1.087281 -44.559158
v 553.830811 -1.021751 -26.511248
v 553.830811 -1.021752 -44.559158
v 553.830811 -1.087280 -26.511248
v 553.830811 -1.087281 -44.559158
v -1.435444 -1.538776 -27.136032
v -1.435444 -1.659546 -27.136032
v -0.588096 -1.538776 -27.136030
v -0.588096 -1.659546 -27.136030
v -1.435444 -1.418005 -27.336897
v -1.435444 -1.538776 -27.336897
v -0.588096 -1.418005 -27.336897
v -0.588096 -1.538776 -27.336897
v -1.435444 -1.418005 -27.598524
v -0.588096 -1.418005 -27.598524
v 5.467380 -1.538776 -27.136030
v 5.467380 -1.659546 -27.136030
v 6.314730 -1.538776 -27.136030
v 6.314730 -1.659546 -27.136030
v 5.467380 -1.418005 -27.336897
v 5.467380 -1.538776 -27.336897
v 6.314730 -1.418005 -27.336897
v 6.314730 -1.538776 -27.336897
v 5.467380 -1.418005 -27.598522
v 6.314730 -1.418005 -27.598522
v 21.954269 -1.538776 -27.136028
v 21.954269 -1.659546 -27.136028
v 22.801620 -1.538776 -27.136026
v 22.801620 -1.659546 -27.136026
v 21.954273 -1.418005 -27.336893
v 21.954273 -1.538776 -27.336893
v 22.801620 -1.418005 -27.336893
v 22.801620 -1.538776 -27.336893
v 21.954273 -1.418005 -27.598520
v 22.801620 -1.418005 -27.598520
v -30.878841 -1.538776 -27.136032
v -30.878841 -1.659546 -27.136032
v -30.031492 -1.538776 -27.136030
v -30.031492 -1.659546 -27.136030
v -30.878841 -1.418005 -27.336897
v -30.878841 -1.538776 -27.336897
v -30.031492 -1.418005 -27.336897
v -30.031492 -1.538776 -27.336897
v -30.878841 -1.418005 -27.598524
v -30.031492 -1.418005 -27.598524
v -23.976017 -1.538776 -27.136030
v -23.976017 -1.659546 -27.136030
v -23.128668 -1.538776 -27.136030
v -23.128668 -1.659546 -27.136030
v -23.976017 -1.418005 -27.336897
v -23.976017 -1.538776 -27.336897
v -23.128668 -1.418005 -27.336897
v -23.128668 -1.538776 -27.336897
v -23.976017 -1.418005 -27.598522
v -23.128668 -1.418005 -27.598522
v -7.489125 -1.538776 -27.136028
v -7.489125 -1.659546 -27.136028
v -6.641774 -1.538776 -27.136026
v -6.641774 -1.659546 -27.136026
v -7.489125 -1.418005 -27.336893
v -7.489125 -1.538776 -27.336893
v -6.641774 -1.418005 -27.336893
v -6.641774 -1.538776 -27.336893
v -7.489125 -1.418005 -27.598520
v -6.641774 -1.418005 -27.598520
v 63.087288 -1.538776 -27.136032
v 63.087288 -1.659546 -27.136032
v 63.934635 -1.538776 -27.136030
v 63.934635 -1.659546 -27.136030
v 63.087288 -1.418005 -27.336897
v 63.087288 -1.538776 -27.336897
v 63.934635 -1.418005 -27.336897
v 63.934635 -1.538776 -27.336897
v 63.087288 -1.418005 -27.598524
v 63.934635 -1.418005 -27.598524
v 69.990112 -1.538776 -27.136030
v 69.990112 -1.659546 -27.136030
v 70.837463 -1.538776 -27.136030
v 70.837463 -1.659546 -27.136030
v 69.990112 -1.418005 -27.336897
v 69.990112 -1.538776 -27.336897
v 70.837463 -1.418005 -27.336897
v 70.837463 -1.538776 -27.336897
v 69.990112 -1.418005 -27.598522
v 70.837463 -1.418005 -27.598522
v 86.477005 -1.538776 -27.136028
v 86.477005 -1.659546 -27.136028
v 87.324356 -1.538776 -27.136026
v 87.324356 -1.659546 -27.136026
v 86.477005 -1.418005 -27.336893
v 86.477005 -1.538776 -27.336893
v 87.324356 -1.418005 -27.336893
v 87.324356 -1.538776 -27.336893
v 86.477005 -1.418005 -27.598520
v 87.324356 -1.418005 -27.598520
v 33.643917 -1.538776 -27.136032
v 33.643917 -1.659546 -27.136032
v 34.491264 -1.538776 -27.136030
v 34.491264 -1.659546 -27.136030
v 33.643917 -1.418005 -27.336897
v 33.643917 -1.538776 -27.336897
v 34.491264 -1.418005 -27.336897
v 34.491264 -1.538776 -27.336897
v 33.643921 -1.418005 -27.598524
v 34.491264 -1.418005 -27.598524
v 40.546741 -1.538776 -27.136030
v 40.546741 -1.659546 -27.136030
v 41.394089 -1.538776 -27.136030
v 41.394089 -1.659546 -27.136030
v 40.546741 -1.418005 -27.336897
v 40.546741 -1.538776 -27.336897
v 41.394089 -1.418005 -27.336897
v 41.394089 -1.538776 -27.336897
v 40.546741 -1.418005 -27.598522
v 41.394089 -1.418005 -27.598522
v 57.033634 -1.538776 -27.136028
v 57.033634 -1.659546 -27.136028
v 57.880985 -1.538776 -27.136026
v 57.880985 -1.659546 -27.136026
v 57.033634 -1.418005 -27.336893
v 57.033634 -1.538776 -27.336893
v 57.880985 -1.418005 -27.336893
v 57.880985 -1.538776 -27.336893
v 57.033634 -1.418005 -27.598520
v 57.880985 -1.418005 -27.598520
v 98.674400 -1.538776 -27.136032
v 98.674400 -1.659546 -27.136032
v 99.521751 -1.538776 -27.136030
v 99.521751 -1.659546 -27.136030
v 98.674400 -1.418005 -27.336897
v 98.674400 -1.538776 -27.336897
v 99.521751 -1.418005 -27.336897
v 99.521751 -1.538776 -27.336897
v 98.674400 -1.418005 -27.598524
v 99.521751 -1.418005 -27.598524
v 105.577225 -1.538776 -27.136030
v 105.577225 -1.659546 -27.136030
v 106.424576 -1.538776 -27.136030
v 106.424576 -1.659546 -27.136030
v 105.577225 -1.418005 -27.336897
v 105.577225 -1.538776 -27.336897
v 106.424576 -1.418005 -27.336897
v 106.424576 -1.538776 -27.336897
v 105.577225 -1.418005 -27.598522
v 106.424576 -1.418005 -27.598522
v 122.064117 -1.538776 -27.136028
v 122.064117 -1.659546 -27.136028
v 122.911469 -1.538776 -27.136026
v 122.911469 -1.659546 -27.136026
v 122.064117 -1.418005 -27.336893
v 122.064117 -1.538776 -27.336893
v 122.911469 -1.418005 -27.336893
v 122.911469 -1.538776 -27.336893
v 122.064117 -1.418005 -27.598520
v 122.911469 -1.418005 -27.598520
v 128.117783 -1.538776 -27.136032
v 128.117783 -1.659546 -27.136032
v 128.965134 -1.538776 -27.136030
v 128.965134 -1.659546 -27.136030
v 128.117783 -1.418005 -27.336897
v 128.117783 -1.538776 -27.336897
v 128.965134 -1.418005 -27.336897
v 128.965134 -1.538776 -27.336897
v 128.117783 -1.418005 -27.598524
v 128.965134 -1.418005 -27.598524
v 135.020599 -1.538776 -27.136030
v 135.020599 -1.659546 -27.136030
v 135.867950 -1.538776 -27.136030
v 135.867950 -1.659546 -27.136030
v 135.020599 -1.418005 -27.336897
v 135.020599 -1.538776 -27.336897
v 135.867950 -1.418005 -27.336897
v 135.867950 -1.538776 -27.336897
v 135.020599 -1.418005 -27.598522
v 135.867950 -1.418005 -27.598522
v 151.507492 -1.538776 -27.136028
v 151.507492 -1.659546 -27.136028
v 152.354843 -1.538776 -27.136026
v 152.354843 -1.659546 -27.136026
v 151.507492 -1.418005 -27.336893
v 151.507492 -1.538776 -27.336893
v 152.354843 -1.418005 -27.336893
v 152.354843 -1.538776 -27.336893
v 151.507492 -1.418005 -27.598520
v 152.354843 -1.418005 -27.598520
v 154.348892 0.557815 -24.823158
v 154.348907 3.169320 -21.392582
v 155.511108 0.557815 -24.823158
v 155.511108 3.169320 -21.392582
v 155.511108 3.084092 -21.392582
v 154.348907 3.084092 -21.392582
v 155.511108 0.472587 -24.823158
v 154.348892 0.472587 -24.823158
v 154.348892 -1.568112 -30.085447
v 154.348892 0.557815 -26.118128
v 155.511108 -1.568112 -30.085447
v 155.511108 0.557815 -26.118128
v 155.511108 0.472587 -26.118128
v 154.348892 0.472587 -26.118128
v 155.511108 -1.653340 -30.085447
v 154.348892 -1.653340 -30.085447
v 89.318398 0.557815 -24.823158
v 89.318398 3.169320 -21.392582
v 90.480606 0.557815 -24.823158
v 90.480606 3.169320 -21.392582
v 90.480606 3.084092 -21.392582
v 89.318398 3.084092 -21.392582
v 90.480606 0.472587 -24.823158
v 89.318398 0.472587 -24.823158
v 89.318398 -1.568112 -30.085447
v 89.318398 0.557815 -26.118128
v 90.480606 -1.568112 -30.085447
v 90.480606 0.557815 -26.118128
v 90.480606 0.472587 -26.118128
v 89.318398 0.472587 -26.118128
v 90.480606 -1.653340 -30.085447
v 89.318398 -1.653340 -30.085447
v 27.874451 3.169322 -21.392586
v 27.874454 0.557818 -24.823162
v 26.712246 0.557818 -24.823160
v 26.712246 3.169322 -21.392584
v 27.874451 3.084094 -21.392586
v 26.712246 3.084094 -21.392584
v 26.712246 0.472590 -24.823160
v 27.874454 0.472590 -24.823162
v 27.874454 0.557818 -26.118132
v 27.874451 -1.568108 -30.085451
v 26.712246 -1.568108 -30.085451
v 26.712246 0.557818 -26.118132
v 27.874454 0.472590 -26.118132
v 26.712246 0.472590 -26.118132
v 26.712246 -1.653336 -30.085451
v 27.874451 -1.653336 -30.085451
v -36.648331 3.169321 -21.392582
v -36.648331 0.557817 -24.823158
v -37.810539 0.557817 -24.823158
v -37.810539 3.169321 -21.392582
v -36.648331 3.084093 -21.392582
v -37.810539 3.084093 -21.392582
v -37.810539 0.472589 -24.823158
v -36.648331 0.472589 -24.823158
v -36.648331 0.557817 -26.118128
v -36.648331 -1.568109 -30.085447
v -37.810539 -1.568109 -30.085447
v -37.810539 0.557817 -26.118128
v -36.648331 0.472589 -26.118128
v -37.810539 0.472589 -26.118128
v -37.810539 -1.653337 -30.085447
v -36.648331 -1.653337 -30.085447
v 537.534546 10.283853 -154.823776
v 537.976196 10.283853 -156.471924
v 537.976196 11.377157 -156.471924
v 537.534546 11.377157 -154.823776
v 536.328003 10.283853 -153.617249
v 536.328003 11.377157 -153.617249
v 534.679871 10.283853 -153.175629
v 534.679871 11.377157 -153.175629
v 533.031738 10.283853 -153.617249
v 533.031738 11.377157 -153.617249
v 531.825195 10.283853 -154.823776
v 531.825195 11.377157 -154.823776
v 531.383606 10.283853 -156.471924
v 531.383606 11.377157 -156.471924
v 531.825195 10.283852 -158.120071
v 531.825195 11.377156 -158.120071
v 533.031738 10.283852 -159.326584
v 533.031738 11.377156 -159.326584
v 534.679871 10.283852 -159.768204
v 534.679871 11.377156 -159.768204
v 536.328003 10.283852 -159.326584
v 536.328003 11.377156 -159.326584
v 537.534546 10.283852 -158.120056
v 537.534546 11.377156 -158.120056
v 275.662872 15.312479 -405.388916
v 272.756042 17.923985 -403.567078
v 276.280090 15.312479 -404.404144
v 273.373230 17.923985 -402.582306
v 273.373230 17.838757 -402.582306
v 272.756042 17.838757 -403.567078
v 276.280090 15.227251 -404.404144
v 275.662872 15.227251 -405.388916
v 280.121796 13.186554 -408.183502
v 276.760162 15.312479 -406.076630
v 280.738983 13.186554 -407.198730
v 277.377350 15.312479 -405.091858
v 277.377350 15.227251 -405.091858
v 276.760162 15.227251 -406.076630
v 280.738983 13.101325 -407.198730
v 280.121796 13.101325 -408.183502
v 267.468201 21.869059 -413.246246
v 269.899078 19.685162 -414.769775
v 269.382935 19.685162 -415.593292
v 266.952057 21.869059 -414.069763
v 267.468201 21.797785 -413.246246
v 266.952057 21.797785 -414.069763
v 269.382935 19.613890 -415.593292
v 269.899078 19.613890 -414.769775
v 270.816681 19.685162 -415.344879
v 273.627869 17.907333 -417.106781
v 273.111755 17.907333 -417.930298
v 270.300537 19.685162 -416.168396
v 270.816681 19.613890 -415.344879
v 270.300537 19.613890 -416.168396
v 273.111755 17.836061 -417.930298
v 273.627869 17.836061 -417.106781
vn 0.5041 0.8505 -0.1503
vn 0.5131 0.8446 -0.1530
vn -0.5041 -0.8505 0.1503
vn -0.5131 -0.8446 0.1530
vn -0.5041 0.8505 0.1503
vn -0.5131 0.8446 0.1530
vn -0.5130 0.8446 0.1530
vn 0.5041 -0.8505 -0.1503
vn 0.5130 -0.8446 -0.1530
vn 0.5131 -0.8446 -0.1530
vn 0.0013 0.8505 -0.5260
vn 0.0013 0.8446 -0.5354
vn -0.0013 -0.8505 0.5260
vn -0.0013 -0.8446 0.5354
vn -0.0013 0.8505 0.5260
vn -0.0013 0.8446 0.5354
vn 0.0013 -0.8505 -0.5260
vn 0.0013 -0.8446 -0.5354
vn 0.5260 0.8505 -0.0018
vn 0.5261 0.8504 -0.0018
vn 0.5354 0.8446 -0.0018
vn -0.5261 -0.8504 0.0018
vn -0.5260 -0.8505 0.0018
vn -0.5354 -0.8446 0.0018
vn -0.5261 0.8504 0.0018
vn -0.5260 0.8505 0.0018
vn -0.5354 0.8446 0.0018
vn 0.5260 -0.8505 -0.0018
vn 0.5261 -0.8504 -0.0018
vn 0.5354 -0.8446 -0.0018
vn -0.0508 0.9985 0.0226
vn -0.0493 0.9973 0.0541
vn -0.0503 0.9982 0.0337
vn -0.0486 0.9965 0.0682
vn 0.1170 0.9918 -0.0520
vn 0.0486 -0.9965 -0.0682
vn 0.0493 -0.9973 -0.0541
vn 0.0503 -0.9982 -0.0337
vn 0.0508 -0.9985 -0.0226
vn -0.1170 -0.9918 0.0520
vn 0.4306 0.8821 -0.1913
vn 0.0404 0.9990 -0.0179
vn -0.4306 -0.8821 0.1913
vn -0.0404 -0.9990 0.0179
vn 0.2440 0.9666 -0.0780
vn 0.2616 0.9425 -0.2080
vn 0.2517 0.9589 -0.1312
vn 0.2668 0.9295 -0.2546
vn -0.2668 -0.9295 0.2546
vn -0.2616 -0.9425 0.2080
vn -0.2517 -0.9589 0.1312
vn -0.2440 -0.9666 0.0780
vn -0.5178 0.8505 0.0928
vn -0.4855 0.8603 0.1553
vn -0.4782 0.8723 0.1024
vn -0.4831 0.8648 0.1368
vn -0.4755 0.8756 0.0853
vn 0.5178 -0.8505 -0.0928
vn 0.4755 -0.8756 -0.0853
vn 0.4782 -0.8723 -0.1024
vn 0.4831 -0.8648 -0.1368
vn 0.4855 -0.8603 -0.1553
vn 0.1851 0.9541 0.2355
vn 0.2462 0.9438 0.2206
vn 0.2111 0.9502 0.2293
vn 0.2734 0.9379 0.2136
vn -0.2734 -0.9379 -0.2136
vn -0.2462 -0.9438 -0.2206
vn -0.2111 -0.9502 -0.2293
vn -0.1851 -0.9541 -0.2355
vn -0.1759 0.9541 -0.2425
vn -0.2375 0.9438 -0.2300
vn -0.2020 0.9502 -0.2373
vn -0.2649 0.9379 -0.2240
vn 0.2649 -0.9379 0.2240
vn 0.2375 -0.9438 0.2300
vn 0.2020 -0.9502 0.2373
vn 0.1759 -0.9541 0.2425
vn -0.5804 0.7957 0.1732
vn 0.5804 -0.7957 -0.1732
vn -0.4526 0.8814 0.1351
vn 0.4526 -0.8814 -0.1351
vn -0.5805 0.7957 0.1730
vn 0.5805 -0.7957 -0.1730
vn -0.4526 0.8814 0.1349
vn 0.4526 -0.8814 -0.1349
vn -0.0099 0.7957 0.6056
vn 0.0099 -0.7957 -0.6056
vn 0.0100 -0.7957 -0.6056
vn -0.0077 0.8814 0.4723
vn 0.0077 -0.8814 -0.4723
vn -0.0101 0.7957 0.6056
vn 0.0101 -0.7957 -0.6056
vn -0.0079 0.8814 0.4723
vn -0.0078 0.8814 0.4723
vn 0.0079 -0.8814 -0.4723
vn 0.0078 -0.8814 -0.4723
vn -0.5335 0.6976 -0.4783
vn -0.5334 0.6976 -0.4783
vn -0.4363 0.8104 -0.3911
vn -0.5333 0.6976 -0.4785
vn -0.5332 0.6976 -0.4785
vn -0.4361 0.8104 -0.3913
vn -0.4360 0.8104 -0.3913
vn -0.5838 0.8119 -0.0000
vn 0.5838 -0.8119 -0.0000
vn -0.2138 0.9304 -0.2976
vn -0.2139 0.9304 -0.2976
vn -0.3514 0.9304 0.1040
vn 0.3665 0.9304 0.0005
vn 0.3664 0.9304 0.0005
vn 0.0005 0.9304 -0.3664
vn 0.0005 0.9304 -0.3665
vn 0.0002 0.9842 -0.1770
vn 0.0004 0.9805 -0.1966
vn 0.0003 0.9842 -0.1769
vn 0.0005 0.9805 -0.1967
vn 0.0003 0.9763 -0.2163
vn 0.3664 0.9304 -0.0043
vn 0.3664 0.9305 -0.0043
vn 0.3665 0.9304 -0.0043
vn -0.2407 0.9304 0.2763
vn -0.2408 0.9304 0.2763
vn -0.1163 0.9842 0.1334
vn -0.1293 0.9805 0.1481
vn -0.1294 0.9805 0.1482
vn -0.1421 0.9763 0.1631
vn -0.2441 0.9304 0.2733
vn -0.1179 0.9842 0.1320
vn -0.1311 0.9805 0.1465
vn -0.1179 0.9842 0.1319
vn -0.1312 0.9805 0.1466
vn -0.1441 0.9763 0.1614
vn -0.1441 0.9763 0.1613
vn 0.1554 0.9304 0.3319
vn 0.1553 0.9304 0.3319
vn 0.1553 0.9305 0.3319
vn 0.3912 0.9147 -0.1010
vn -0.3912 -0.9147 0.1010
vn 0.9683 -0.0000 -0.2500
vn -0.0000 1.0000 -0.0000
vn -0.9683 -0.0000 0.2500
vn 0.3875 0.9147 -0.1143
vn -0.3875 -0.9148 0.1143
vn -0.3875 -0.9147 0.1143
vn 0.9592 -0.0000 -0.2828
vn -0.9592 -0.0000 0.2828
vn 0.4040 0.9147 -0.0000
vn -0.4040 -0.9147 -0.0000
vn 1.0000 -0.0000 -0.0000
vn -1.0000 -0.0000 -0.0000
vn -0.0000 -0.0000 1.0000
vn -0.0000 0.7957 -0.6057
vn -0.0000 -0.7957 0.6057
vn -0.0000 0.8814 -0.4723
vn -0.0000 -0.8814 0.4723
vn 0.9659 -0.0000 0.2588
vn 0.5000 -0.0000 0.8660
vn 0.7071 -0.0000 0.7071
vn 0.2588 -0.0000 0.9659
vn -0.5000 -0.0000 0.8660
vn -0.2588 -0.0000 0.9659
vn -0.7071 -0.0000 0.7071
vn -0.9659 -0.0000 0.2588
vn -0.9659 -0.0000 -0.2588
vn -0.5000 -0.0000 -0.8660
vn -0.7071 -0.0000 -0.7071
vn -0.2588 -0.0000 -0.9659
vn 0.5000 -0.0000 -0.8660
vn 0.2588 -0.0000 -0.9659
vn 0.8660 -0.0000 -0.5000
vn 0.9659 -0.0000 -0.2588
vn 0.5132 0.7957 -0.3217
vn -0.5132 -0.7957 0.3217
vn 0.4002 0.8814 -0.2508
vn -0.4002 -0.8814 0.2508
vn 0.5133 0.7957 -0.3217
vn -0.5133 -0.7957 0.3217
vt 0.000500 7.996503
vt 0.000500 1.003499
vt 0.999500 7.996502
vt 0.999500 1.003497
vt 0.000500 8.996004
vt 0.000500 1.003998
vt 0.999500 8.996002
vt 0.999500 1.003996
vt 0.000500 1.004995
vt 0.000500 10.995005
vt 0.999500 1.004996
vt 0.999500 10.995005
vt 0.999501 1.009990
vt 0.991799 5.800331
vt 0.044727 1.009990
vt 0.034128 5.797845
vt 0.000500 20.990011
vt 0.967378 20.990011
vt 9.995005 1.999497
vt 0.000000 1.000000
vt 0.004995 1.999503
vt 9.995005 1.499574
vt 0.004995 1.499580
vt 9.995005 1.361410
vt 9.995005 1.502823
vt 0.004995 1.361395
vt 0.004995 1.502807
vt 0.999501 1.546607
vt 0.999501 1.349596
vt 0.000500 1.546607
vt 0.000500 1.349596
vt 0.999501 1.543593
vt 0.999501 1.349758
vt 0.000499 1.543593
vt 0.000499 1.349758
vt 0.999501 1.884695
vt 0.999501 1.541062
vt 0.000500 1.884695
vt 0.000499 1.541062
vt 0.999501 1.883169
vt 0.000500 1.883169
vt 0.000500 1.538460
vt 0.999501 1.538460
vt 6.666666 2.388865
vt 7.500000 2.388865
vt 7.500000 1.941043
vt 6.666666 1.941043
vt 5.833333 2.388865
vt 5.833333 1.941043
vt 5.000000 2.388865
vt 5.000000 1.941043
vt 4.166667 2.388865
vt 4.166667 1.941043
vt 3.333333 2.388865
vt 3.333333 1.941043
vt 2.500000 2.388865
vt 2.500000 1.941043
vt 1.666666 2.388865
vt 1.666666 1.941043
vt 0.833333 2.388865
vt 0.833333 1.941043
vt 9.999999 2.388865
vt 10.833332 2.388865
vt 10.833332 1.941043
vt 9.999999 1.941043
vt 9.166666 2.388865
vt 9.166666 1.941043
vt 8.333332 2.388865
vt 8.333332 1.941043
s 1
usemtl STAIRS.033
f 1/1/1 2/2/1 3/3/1
f 4/4/1 3/3/1 2/2/1
f 5/5/2 6/6/2 7/7/2
f 8/8/2 7/7/2 6/6/2
f 9/4/3 10/2/3 11/3/3
f 12/1/3 11/3/3 10/2/3
f 13/8/4 14/6/4 15/7/4
f 16/5/4 15/7/4 14/6/4
f 17/1/5 18/2/5 19/3/5
f 20/4/5 19/3/5 18/2/5
f 21/5/6 22/6/6 23/7/6
f 24/8/7 23/7/6 22/6/6
f 25/4/8 26/2/8 27/3/8
f 28/1/8 27/3/8 26/2/8
f 29/8/9 30/6/10 31/7/10
f 32/5/10 31/7/10 30/6/10
f 33/1/11 34/2/11 35/3/11
f 36/4/11 35/3/11 34/2/11
f 37/5/12 38/6/12 39/7/12
f 40/8/12 39/7/12 38/6/12
f 41/4/13 42/2/13 43/3/13
f 44/1/13 43/3/13 42/2/13
f 45/8/14 46/6/14 47/7/14
f 48/5/14 47/7/14 46/6/14
f 49/1/15 50/2/15 51/3/15
f 52/4/15 51/3/15 50/2/15
f 53/5/16 54/6/16 55/7/16
f 56/8/16 55/7/16 54/6/16
f 57/4/17 58/2/17 59/3/17
f 60/1/17 59/3/17 58/2/17
f 61/8/18 62/6/18 63/7/18
f 64/5/18 63/7/18 62/6/18
f 65/1/19 66/2/19 67/3/19
f 68/4/20 67/3/19 66/2/19
f 69/5/21 70/6/21 71/7/21
f 72/8/21 71/7/21 70/6/21
f 73/4/22 74/2/23 75/3/23
f 76/1/23 75/3/23 74/2/23
f 77/8/24 78/6/24 79/7/24
f 80/5/24 79/7/24 78/6/24
f 81/1/25 82/2/26 83/3/26
f 84/4/26 83/3/26 82/2/26
f 85/5/27 86/6/27 87/7/27
f 88/8/27 87/7/27 86/6/27
f 89/4/28 90/2/28 91/3/28
f 92/1/29 91/3/28 90/2/28
f 93/8/30 94/6/30 95/7/30
f 96/5/30 95/7/30 94/6/30
f 97/1/31 98/2/32 99/3/33
f 100/4/34 99/3/33 98/2/32
f 101/5/35 102/6/35 103/7/35
f 104/8/35 103/7/35 102/6/35
f 105/4/36 106/2/37 107/3/38
f 108/1/39 107/3/38 106/2/37
f 109/8/40 110/6/40 111/7/40
f 112/5/40 111/7/40 110/6/40
f 113/1/41 114/2/41 115/3/41
f 116/4/41 115/3/41 114/2/41
f 117/5/42 118/6/42 119/7/42
f 120/8/42 119/7/42 118/6/42
f 121/4/43 122/2/43 123/3/43
f 124/1/43 123/3/43 122/2/43
f 125/8/44 126/6/44 127/7/44
f 128/5/44 127/7/44 126/6/44
f 129/5/45 130/6/46 131/7/47
f 132/8/48 131/7/47 130/6/46
f 133/8/49 134/6/50 135/7/51
f 136/5/52 135/7/51 134/6/50
f 137/1/53 138/2/53 139/3/53
f 140/4/53 139/3/53 138/2/53
f 141/5/54 142/6/55 143/7/56
f 144/8/57 143/7/56 142/6/55
f 145/4/58 146/2/58 147/3/58
f 148/1/58 147/3/58 146/2/58
f 149/8/59 150/6/60 151/7/61
f 152/5/62 151/7/61 150/6/60
f 153/1/63 154/2/64 155/3/65
f 156/4/66 155/3/65 154/2/64
f 157/4/67 158/2/68 159/3/69
f 160/1/70 159/3/69 158/2/68
f 161/1/71 162/2/72 163/3/73
f 164/4/74 163/3/73 162/2/72
f 165/4/75 166/2/76 167/3/77
f 168/1/78 167/3/77 166/2/76
f 169/9/79 170/10/79 171/11/79
f 172/12/79 171/11/79 170/10/79
f 173/12/80 174/10/80 175/11/80
f 176/9/80 175/11/80 174/10/80
f 177/9/81 178/10/81 179/11/81
f 180/12/81 179/11/81 178/10/81
f 181/12/82 182/10/82 183/11/82
f 184/9/82 183/11/82 182/10/82
f 185/10/83 186/9/83 187/11/83
f 187/11/83 188/12/83 185/10/83
f 189/10/84 190/12/84 191/11/84
f 191/11/84 192/9/84 189/10/84
f 193/10/85 194/9/85 195/11/85
f 195/11/85 196/12/85 193/10/85
f 197/10/86 198/12/86 199/11/86
f 199/11/86 200/9/86 197/10/86
f 201/9/87 202/10/87 203/11/87
f 204/12/87 203/11/87 202/10/87
f 205/12/88 206/10/88 207/11/88
f 208/9/89 207/11/88 206/10/88
f 209/9/90 210/10/90 211/11/90
f 212/12/90 211/11/90 210/10/90
f 213/12/91 214/10/91 215/11/91
f 216/9/91 215/11/91 214/10/91
f 217/10/92 218/9/92 219/11/92
f 219/11/92 220/12/92 217/10/92
f 221/10/93 222/12/93 223/11/93
f 223/11/93 224/9/93 221/10/93
f 225/10/94 226/9/95 227/11/95
f 227/11/95 228/12/94 225/10/94
f 229/10/96 230/12/96 231/11/97
f 231/11/97 232/9/97 229/10/96
f 233/9/98 234/10/99 235/11/98
f 236/12/99 235/11/98 234/10/99
f 237/9/100 238/10/100 239/11/100
f 240/12/100 239/11/100 238/10/100
f 241/10/101 242/9/102 243/11/102
f 243/11/102 244/12/101 241/10/101
f 245/10/103 246/9/104 247/11/104
f 247/11/104 248/12/103 245/10/103
f 249/10/105 250/9/105 251/11/105
f 251/11/105 252/12/105 249/10/105
f 253/10/106 254/12/106 255/11/106
f 255/11/106 256/9/106 253/10/106
f 257/13/107 258/14/107 259/15/107
f 260/16/107 259/15/107 258/14/107
f 261/17/107 260/16/107 262/18/107
f 260/16/107 258/14/107 262/18/107
f 263/13/107 264/14/107 265/15/108
f 266/16/107 265/15/108 264/14/107
f 267/17/108 266/16/107 268/18/108
f 266/16/107 264/14/107 268/18/108
f 269/13/108 270/14/107 271/15/107
f 272/16/107 271/15/107 270/14/107
f 273/17/108 272/16/107 274/18/108
f 272/16/107 270/14/107 274/18/108
f 275/13/109 276/14/109 277/15/109
f 278/16/109 277/15/109 276/14/109
f 279/17/109 278/16/109 280/18/109
f 278/16/109 276/14/109 280/18/109
f 281/13/109 282/14/109 283/15/109
f 284/16/109 283/15/109 282/14/109
f 285/17/109 284/16/109 286/18/109
f 284/16/109 282/14/109 286/18/109
f 287/13/109 288/14/109 289/15/109
f 290/16/109 289/15/109 288/14/109
f 291/17/109 290/16/109 292/18/109
f 290/16/109 288/14/109 292/18/109
f 293/13/110 294/14/111 295/15/110
f 296/16/111 295/15/110 294/14/111
f 297/17/110 296/16/111 298/18/110
f 296/16/111 294/14/111 298/18/110
f 299/13/111 300/14/111 301/15/111
f 302/16/110 301/15/111 300/14/111
f 303/17/110 302/16/110 304/18/110
f 302/16/110 300/14/111 304/18/110
f 305/13/111 306/14/110 307/15/111
f 308/16/110 307/15/111 306/14/110
f 309/17/111 308/16/110 310/18/111
f 308/16/110 306/14/110 310/18/111
f 311/13/112 312/14/113 313/15/113
f 314/16/113 313/15/113 312/14/113
f 315/17/113 314/16/113 316/18/112
f 314/16/113 312/14/113 316/18/112
f 317/13/112 318/14/113 319/15/113
f 320/16/113 319/15/113 318/14/113
f 321/17/113 320/16/113 322/18/112
f 320/16/113 318/14/113 322/18/112
f 323/13/112 324/14/113 325/15/113
f 326/16/113 325/15/113 324/14/113
f 327/17/112 326/16/113 328/18/112
f 326/16/113 324/14/113 328/18/112
f 329/13/112 330/14/113 331/15/113
f 332/16/113 331/15/113 330/14/113
f 333/17/113 332/16/113 334/18/113
f 332/16/113 330/14/113 334/18/113
f 335/13/113 336/14/112 337/15/113
f 338/16/112 337/15/113 336/14/112
f 339/17/113 338/16/112 340/18/113
f 338/16/112 336/14/112 340/18/113
f 341/13/112 342/14/112 343/15/112
f 344/16/112 343/15/112 342/14/112
f 345/17/113 344/16/112 346/18/113
f 344/16/112 342/14/112 346/18/113
f 347/13/112 348/14/112 349/15/112
f 350/16/112 349/15/112 348/14/112
f 351/17/113 350/16/112 352/18/113
f 350/16/112 348/14/112 352/18/113
f 353/13/114 354/14/115 355/15/116
f 356/16/117 355/15/116 354/14/115
f 357/17/118 356/16/117 358/18/118
f 356/16/117 354/14/115 358/18/118
f 359/13/114 360/14/115 361/15/116
f 362/16/117 361/15/116 360/14/115
f 363/17/118 362/16/117 364/18/118
f 362/16/117 360/14/115 364/18/118
f 365/13/119 366/14/119 367/15/119
f 368/16/119 367/15/119 366/14/119
f 369/17/120 368/16/119 370/18/119
f 368/16/119 366/14/119 370/18/119
f 371/13/119 372/14/119 373/15/119
f 374/16/119 373/15/119 372/14/119
f 375/17/120 374/16/119 376/18/119
f 374/16/119 372/14/119 376/18/119
f 377/13/119 378/14/119 379/15/119
f 380/16/119 379/15/119 378/14/119
f 381/17/121 380/16/119 382/18/121
f 380/16/119 378/14/119 382/18/121
f 383/13/122 384/14/122 385/15/122
f 386/16/122 385/15/122 384/14/122
f 387/17/123 386/16/122 388/18/123
f 386/16/122 384/14/122 388/18/123
f 389/13/124 390/14/125 391/15/124
f 392/16/126 391/15/124 390/14/125
f 393/17/127 392/16/126 394/18/127
f 392/16/126 390/14/125 394/18/127
f 395/13/124 396/14/125 397/15/124
f 398/16/125 397/15/124 396/14/125
f 399/17/127 398/16/125 400/18/127
f 398/16/125 396/14/125 400/18/127
f 401/13/128 402/14/128 403/15/128
f 404/16/128 403/15/128 402/14/128
f 405/17/128 404/16/128 406/18/128
f 404/16/128 402/14/128 406/18/128
f 407/13/129 408/14/130 409/15/131
f 410/16/132 409/15/131 408/14/130
f 411/17/133 410/16/132 412/18/133
f 410/16/132 408/14/130 412/18/133
f 413/13/129 414/14/130 415/15/131
f 416/16/132 415/15/131 414/14/130
f 417/17/133 416/16/132 418/18/134
f 416/16/132 414/14/130 418/18/134
f 419/13/135 420/14/135 421/15/135
f 422/16/135 421/15/135 420/14/135
f 423/17/136 422/16/135 424/18/136
f 422/16/135 420/14/135 424/18/136
f 425/13/137 426/14/135 427/15/136
f 428/16/135 427/15/136 426/14/135
f 429/17/135 428/16/135 430/18/135
f 428/16/135 426/14/135 430/18/135
f 431/13/135 432/14/135 433/15/135
f 434/16/135 433/15/135 432/14/135
f 435/17/136 434/16/135 436/18/136
f 434/16/135 432/14/135 436/18/136
f 437/9/138 438/10/138 439/11/138
f 440/12/138 439/11/138 438/10/138
f 441/12/139 442/10/139 443/11/139
f 444/9/139 443/11/139 442/10/139
f 445/19/140 446/20/140 447/21/140
f 448/20/140 447/21/140 446/20/140
f 449/22/141 445/19/141 450/23/141
f 447/21/141 450/23/141 445/19/141
f 451/24/142 449/25/142 452/26/142
f 450/27/142 452/26/142 449/25/142
f 453/19/140 454/20/140 455/21/140
f 456/20/140 455/21/140 454/20/140
f 457/22/141 453/19/141 458/23/141
f 455/21/141 458/23/141 453/19/141
f 459/24/142 457/25/142 460/26/142
f 458/27/142 460/26/142 457/25/142
f 461/19/140 462/20/140 463/21/140
f 464/20/140 463/21/140 462/20/140
f 465/22/141 461/19/141 466/23/141
f 463/21/141 466/23/141 461/19/141
f 467/24/142 465/25/142 468/26/142
f 466/27/142 468/26/142 465/25/142
f 469/19/140 470/20/140 471/21/140
f 472/20/140 471/21/140 470/20/140
f 473/22/141 469/19/141 474/23/141
f 471/21/141 474/23/141 469/19/141
f 475/24/142 473/25/142 476/26/142
f 474/27/142 476/26/142 473/25/142
f 477/19/140 478/20/140 479/21/140
f 480/20/140 479/21/140 478/20/140
f 481/22/141 477/19/141 482/23/141
f 479/21/141 482/23/141 477/19/141
f 483/24/142 481/25/142 484/26/142
f 482/27/142 484/26/142 481/25/142
f 485/19/140 486/20/140 487/21/140
f 488/20/140 487/21/140 486/20/140
f 489/22/141 485/19/141 490/23/141
f 487/21/141 490/23/141 485/19/141
f 491/24/142 489/25/142 492/26/142
f 490/27/142 492/26/142 489/25/142
f 493/19/140 494/20/140 495/21/140
f 496/20/140 495/21/140 494/20/140
f 497/22/141 493/19/141 498/23/141
f 495/21/141 498/23/141 493/19/141
f 499/24/142 497/25/142 500/26/142
f 498/27/142 500/26/142 497/25/142
f 501/19/140 502/20/140 503/21/140
f 504/20/140 503/21/140 502/20/140
f 505/22/141 501/19/141 506/23/141
f 503/21/141 506/23/141 501/19/141
f 507/24/142 505/25/142 508/26/142
f 506/27/142 508/26/142 505/25/142
f 509/19/140 510/20/140 511/21/140
f 512/20/140 511/21/140 510/20/140
f 513/22/141 509/19/141 514/23/141
f 511/21/141 514/23/141 509/19/141
f 515/24/142 513/25/142 516/26/142
f 514/27/142 516/26/142 513/25/142
f 517/19/140 518/20/140 519/21/140
f 520/20/140 519/21/140 518/20/140
f 521/22/141 517/19/141 522/23/141
f 519/21/141 522/23/141 517/19/141
f 523/24/142 521/25/142 524/26/142
f 522/27/142 524/26/142 521/25/142
f 525/9/143 526/10/143 527/11/143
f 528/12/143 527/11/143 526/10/143
f 529/12/144 530/10/145 531/11/145
f 532/9/145 531/11/145 530/10/145
f 533/19/146 534/20/146 535/21/146
f 536/20/146 535/21/146 534/20/146
f 537/22/141 533/19/141 538/23/141
f 535/21/141 538/23/141 533/19/141
f 539/24/147 537/25/147 540/26/147
f 538/27/147 540/26/147 537/25/147
f 541/19/146 542/20/146 543/21/146
f 544/20/146 543/21/146 542/20/146
f 545/22/141 541/19/141 546/23/141
f 543/21/141 546/23/141 541/19/141
f 547/24/147 545/25/147 548/26/147
f 546/27/147 548/26/147 545/25/147
f 549/19/146 550/20/146 551/21/146
f 552/20/146 551/21/146 550/20/146
f 553/22/141 549/19/141 554/23/141
f 551/21/141 554/23/141 549/19/141
f 555/24/147 553/25/147 556/26/147
f 554/27/147 556/26/147 553/25/147
f 557/19/146 558/20/146 559/21/146
f 560/20/146 559/21/146 558/20/146
f 561/22/141 557/19/141 562/23/141
f 559/21/141 562/23/141 557/19/141
f 563/24/147 561/25/147 564/26/147
f 562/27/147 564/26/147 561/25/147
f 565/19/146 566/20/146 567/21/146
f 568/20/146 567/21/146 566/20/146
f 569/22/141 565/19/141 570/23/141
f 567/21/141 570/23/141 565/19/141
f 571/24/147 569/25/147 572/26/147
f 570/27/147 572/26/147 569/25/147
f 573/19/146 574/20/146 575/21/146
f 576/20/146 575/21/146 574/20/146
f 577/22/141 573/19/141 578/23/141
f 575/21/141 578/23/141 573/19/141
f 579/24/147 577/25/147 580/26/147
f 578/27/147 580/26/147 577/25/147
f 581/19/146 582/20/146 583/21/146
f 584/20/146 583/21/146 582/20/146
f 585/22/141 581/19/141 586/23/141
f 583/21/141 586/23/141 581/19/141
f 587/24/147 585/25/147 588/26/147
f 586/27/147 588/26/147 585/25/147
f 589/19/146 590/20/146 591/21/146
f 592/20/146 591/21/146 590/20/146
f 593/22/141 589/19/141 594/23/141
f 591/21/141 594/23/141 589/19/141
f 595/24/147 593/25/147 596/26/147
f 594/27/147 596/26/147 593/25/147
f 597/19/146 598/20/146 599/21/146
f 600/20/146 599/21/146 598/20/146
f 601/22/141 597/19/141 602/23/141
f 599/21/141 602/23/141 597/19/141
f 603/24/147 601/25/147 604/26/147
f 602/27/147 604/26/147 601/25/147
f 605/19/146 606/20/146 607/21/146
f 608/20/146 607/21/146 606/20/146
f 609/22/141 605/19/141 610/23/141
f 607/21/141 610/23/141 605/19/141
f 611/24/147 609/25/147 612/26/147
f 610/27/147 612/26/147 609/25/147
f 613/9/148 614/10/148 615/11/148
f 616/12/148 615/11/148 614/10/148
f 617/12/149 618/10/149 619/11/149
f 620/9/149 619/11/149 618/10/149
f 621/19/150 622/20/150 623/21/150
f 624/20/150 623/21/150 622/20/150
f 625/22/141 621/19/141 626/23/141
f 623/21/141 626/23/141 621/19/141
f 627/24/151 625/25/151 628/26/151
f 626/27/151 628/26/151 625/25/151
f 629/19/150 630/20/150 631/21/150
f 632/20/150 631/21/150 630/20/150
f 633/22/141 629/19/141 634/23/141
f 631/21/141 634/23/141 629/19/141
f 635/24/151 633/25/151 636/26/151
f 634/27/151 636/26/151 633/25/151
f 637/19/150 638/20/150 639/21/150
f 640/20/150 639/21/150 638/20/150
f 641/22/141 637/19/141 642/23/141
f 639/21/141 642/23/141 637/19/141
f 643/24/151 641/25/151 644/26/151
f 642/27/151 644/26/151 641/25/151
f 645/19/150 646/20/150 647/21/150
f 648/20/150 647/21/150 646/20/150
f 649/22/141 645/19/141 650/23/141
f 647/21/141 650/23/141 645/19/141
f 651/24/151 649/25/151 652/26/151
f 650/27/151 652/26/151 649/25/151
f 653/19/150 654/20/150 655/21/150
f 656/20/150 655/21/150 654/20/150
f 657/22/141 653/19/141 658/23/141
f 655/21/141 658/23/141 653/19/141
f 659/24/151 657/25/151 660/26/151
f 658/27/151 660/26/151 657/25/151
f 661/19/150 662/20/150 663/21/150
f 664/20/150 663/21/150 662/20/150
f 665/22/141 661/19/141 666/23/141
f 663/21/141 666/23/141 661/19/141
f 667/24/151 665/25/151 668/26/151
f 666/27/151 668/26/151 665/25/151
f 669/19/150 670/20/150 671/21/150
f 672/20/150 671/21/150 670/20/150
f 673/22/141 669/19/141 674/23/141
f 671/21/141 674/23/141 669/19/141
f 675/24/151 673/25/151 676/26/151
f 674/27/151 676/26/151 673/25/151
f 677/19/150 678/20/150 679/21/150
f 680/20/150 679/21/150 678/20/150
f 681/22/141 677/19/141 682/23/141
f 679/21/141 682/23/141 677/19/141
f 683/24/151 681/25/151 684/26/151
f 682/27/151 684/26/151 681/25/151
f 685/19/150 686/20/150 687/21/150
f 688/20/150 687/21/150 686/20/150
f 689/22/141 685/19/141 690/23/141
f 687/21/141 690/23/141 685/19/141
f 691/24/151 689/25/151 692/26/151
f 690/27/151 692/26/151 689/25/151
f 693/19/150 694/20/150 695/21/150
f 696/20/150 695/21/150 694/20/150
f 697/22/141 693/19/141 698/23/141
f 695/21/141 698/23/141 693/19/141
f 699/24/151 697/25/151 700/26/151
f 698/27/151 700/26/151 697/25/151
f 701/28/152 702/29/152 703/30/152
f 704/31/152 703/30/152 702/29/152
f 705/32/152 706/33/152 707/34/152
f 708/35/152 707/34/152 706/33/152
f 709/36/141 705/37/141 710/38/141
f 707/39/141 710/38/141 705/37/141
f 708/40/141 706/41/141 701/42/141
f 701/42/141 703/43/141 708/40/141
f 711/28/152 712/29/152 713/30/152
f 714/31/152 713/30/152 712/29/152
f 715/32/152 716/33/152 717/34/152
f 718/35/152 717/34/152 716/33/152
f 719/36/141 715/37/141 720/38/141
f 717/39/141 720/38/141 715/37/141
f 718/40/141 716/41/141 711/42/141
f 711/42/141 713/43/141 718/40/141
f 721/28/152 722/29/152 723/30/152
f 724/31/152 723/30/152 722/29/152
f 725/32/152 726/33/152 727/34/152
f 728/35/152 727/34/152 726/33/152
f 729/36/141 725/37/141 730/38/141
f 727/39/141 730/38/141 725/37/141
f 728/40/141 726/41/141 721/42/141
f 721/42/141 723/43/141 728/40/141
f 731/28/152 732/29/152 733/30/152
f 734/31/152 733/30/152 732/29/152
f 735/32/152 736/33/152 737/34/152
f 738/35/152 737/34/152 736/33/152
f 739/36/141 735/37/141 740/38/141
f 737/39/141 740/38/141 735/37/141
f 738/40/141 736/41/141 731/42/141
f 731/42/141 733/43/141 738/40/141
f 741/28/152 742/29/152 743/30/152
f 744/31/152 743/30/152 742/29/152
f 745/32/152 746/33/152 747/34/152
f 748/35/152 747/34/152 746/33/152
f 749/36/141 745/37/141 750/38/141
f 747/39/141 750/38/141 745/37/141
f 748/40/141 746/41/141 741/42/141
f 741/42/141 743/43/141 748/40/141
f 751/28/152 752/29/152 753/30/152
f 754/31/152 753/30/152 752/29/152
f 755/32/152 756/33/152 757/34/152
f 758/35/152 757/34/152 756/33/152
f 759/36/141 755/37/141 760/38/141
f 757/39/141 760/38/141 755/37/141
f 758/40/141 756/41/141 751/42/141
f 751/42/141 753/43/141 758/40/141
f 761/28/152 762/29/152 763/30/152
f 764/31/152 763/30/152 762/29/152
f 765/32/152 766/33/152 767/34/152
f 768/35/152 767/34/152 766/33/152
f 769/36/141 765/37/141 770/38/141
f 767/39/141 770/38/141 765/37/141
f 768/40/141 766/41/141 761/42/141
f 761/42/141 763/43/141 768/40/141
f 771/28/152 772/29/152 773/30/152
f 774/31/152 773/30/152 772/29/152
f 775/32/152 776/33/152 777/34/152
f 778/35/152 777/34/152 776/33/152
f 779/36/141 775/37/141 780/38/141
f 777/39/141 780/38/141 775/37/141
f 778/40/141 776/41/141 771/42/141
f 771/42/141 773/43/141 778/40/141
f 781/28/152 782/29/152 783/30/152
f 784/31/152 783/30/152 782/29/152
f 785/32/152 786/33/152 787/34/152
f 788/35/152 787/34/152 786/33/152
f 789/36/141 785/37/141 790/38/141
f 787/39/141 790/38/141 785/37/141
f 788/40/141 786/41/141 781/42/141
f 781/42/141 783/43/141 788/40/141
f 791/28/152 792/29/152 793/30/152
f 794/31/152 793/30/152 792/29/152
f 795/32/152 796/33/152 797/34/152
f 798/35/152 797/34/152 796/33/152
f 799/36/141 795/37/141 800/38/141
f 797/39/141 800/38/141 795/37/141
f 798/40/141 796/41/141 791/42/141
f 791/42/141 793/43/141 798/40/141
f 801/28/152 802/29/152 803/30/152
f 804/31/152 803/30/152 802/29/152
f 805/32/152 806/33/152 807/34/152
f 808/35/152 807/34/152 806/33/152
f 809/36/141 805/37/141 810/38/141
f 807/39/141 810/38/141 805/37/141
f 808/40/141 806/41/141 801/42/141
f 801/42/141 803/43/141 808/40/141
f 811/28/152 812/29/152 813/30/152
f 814/31/152 813/30/152 812/29/152
f 815/32/152 816/33/152 817/34/152
f 818/35/152 817/34/152 816/33/152
f 819/36/141 815/37/141 820/38/141
f 817/39/141 820/38/141 815/37/141
f 818/40/141 816/41/141 811/42/141
f 811/42/141 813/43/141 818/40/141
f 821/28/152 822/29/152 823/30/152
f 824/31/152 823/30/152 822/29/152
f 825/32/152 826/33/152 827/34/152
f 828/35/152 827/34/152 826/33/152
f 829/36/141 825/37/141 830/38/141
f 827/39/141 830/38/141 825/37/141
f 828/40/141 826/41/141 821/42/141
f 821/42/141 823/43/141 828/40/141
f 831/28/152 832/29/152 833/30/152
f 834/31/152 833/30/152 832/29/152
f 835/32/152 836/33/152 837/34/152
f 838/35/152 837/34/152 836/33/152
f 839/36/141 835/37/141 840/38/141
f 837/39/141 840/38/141 835/37/141
f 838/40/141 836/41/141 831/42/141
f 831/42/141 833/43/141 838/40/141
f 841/28/152 842/29/152 843/30/152
f 844/31/152 843/30/152 842/29/152
f 845/32/152 846/33/152 847/34/152
f 848/35/152 847/34/152 846/33/152
f 849/36/141 845/37/141 850/38/141
f 847/39/141 850/38/141 845/37/141
f 848/40/141 846/41/141 841/42/141
f 841/42/141 843/43/141 848/40/141
f 851/28/152 852/29/152 853/30/152
f 854/31/152 853/30/152 852/29/152
f 855/32/152 856/33/152 857/34/152
f 858/35/152 857/34/152 856/33/152
f 859/36/141 855/37/141 860/38/141
f 857/39/141 860/38/141 855/37/141
f 858/40/141 856/41/141 851/42/141
f 851/42/141 853/43/141 858/40/141
f 861/28/152 862/29/152 863/30/152
f 864/31/152 863/30/152 862/29/152
f 865/32/152 866/33/152 867/34/152
f 868/35/152 867/34/152 866/33/152
f 869/36/141 865/37/141 870/38/141
f 867/39/141 870/38/141 865/37/141
f 868/40/141 866/41/141 861/42/141
f 861/42/141 863/43/141 868/40/141
f 871/28/152 872/29/152 873/30/152
f 874/31/152 873/30/152 872/29/152
f 875/32/152 876/33/152 877/34/152
f 878/35/152 877/34/152 876/33/152
f 879/36/141 875/37/141 880/38/141
f 877/39/141 880/38/141 875/37/141
f 878/40/141 876/41/141 871/42/141
f 871/42/141 873/43/141 878/40/141
f 881/9/153 882/10/153 883/11/153
f 884/12/153 883/11/153 882/10/153
f 885/12/154 886/10/154 887/11/154
f 888/9/154 887/11/154 886/10/154
f 889/9/155 890/10/155 891/11/155
f 892/12/155 891/11/155 890/10/155
f 893/12/156 894/10/156 895/11/156
f 896/9/156 895/11/156 894/10/156
f 897/9/153 898/10/153 899/11/153
f 900/12/153 899/11/153 898/10/153
f 901/12/154 902/10/154 903/11/154
f 904/9/154 903/11/154 902/10/154
f 905/9/155 906/10/155 907/11/155
f 908/12/155 907/11/155 906/10/155
f 909/12/156 910/10/156 911/11/156
f 912/9/156 911/11/156 910/10/156
f 913/10/153 914/9/153 915/11/153
f 915/11/153 916/12/153 913/10/153
f 917/10/154 918/12/154 919/11/154
f 919/11/154 920/9/154 917/10/154
f 921/10/155 922/9/155 923/11/155
f 923/11/155 924/12/155 921/10/155
f 925/10/156 926/12/156 927/11/156
f 927/11/156 928/9/156 925/10/156
f 929/10/153 930/9/153 931/11/153
f 931/11/153 932/12/153 929/10/153
f 933/10/154 934/12/154 935/11/154
f 935/11/154 936/9/154 933/10/154
f 937/10/155 938/9/155 939/11/155
f 939/11/155 940/12/155 937/10/155
f 941/10/156 942/12/156 943/11/156
f 943/11/156 944/9/156 941/10/156
f 945/44/157 946/45/157 947/46/157
f 947/46/157 948/47/157 945/44/157
f 949/48/158 945/44/159 948/47/159
f 948/47/159 950/49/158 949/48/158
f 951/50/160 949/48/158 950/49/158
f 950/49/158 952/51/160 951/50/160
f 953/52/161 951/50/162 952/51/162
f 952/51/162 954/53/161 953/52/161
f 955/54/163 953/52/161 954/53/161
f 954/53/161 956/55/163 955/54/163
f 957/56/151 955/54/164 956/55/164
f 956/55/164 958/57/151 957/56/151
f 959/58/165 957/56/151 958/57/151
f 958/57/151 960/59/165 959/58/165
f 961/60/166 959/58/167 960/59/167
f 960/59/167 962/61/166 961/60/166
f 963/62/168 961/63/166 962/64/166
f 962/64/166 964/65/168 963/62/168
f 965/66/169 963/62/170 964/65/170
f 964/65/170 966/67/169 965/66/169
f 967/68/171 965/66/169 966/67/169
f 966/67/169 968/69/171 967/68/171
f 946/45/172 967/68/171 968/69/171
f 968/69/171 947/46/172 946/45/172
f 969/9/173 970/10/173 971/11/173
f 972/12/173 971/11/173 970/10/173
f 973/12/174 974/10/174 975/11/174
f 976/9/174 975/11/174 974/10/174
f 977/9/175 978/10/175 979/11/175
f 980/12/175 979/11/175 978/10/175
f 981/12/176 982/10/176 983/11/176
f 984/9/176 983/11/176 982/10/176
f 985/10/173 986/9/177 987/11/177
f 987/11/177 988/12/173 985/10/173
f 989/10/178 990/12/178 991/11/178
f 991/11/178 992/9/178 989/10/178
f 993/10/175 994/9/175 995/11/175
f 995/11/175 996/12/175 993/10/175
f 997/10/176 998/12/176 999/11/176
f 999/11/176 1000/9/176 997/10/176
