# Blender 4.4.3
# www.blender.org
mtllib STARTLINE.mtl
o STARTLINE
v 59.060596 -1.652659 5.816997
v 60.843349 -1.652658 5.816997
v 60.843349 -1.652658 -4.366895
v 59.060596 -1.652659 -4.366895
v 59.060596 -1.652660 -10.781620
v 60.843349 -1.652659 -10.781620
v 60.843349 -1.652660 -19.744053
v 59.060596 -1.652661 -19.744053
vn -0.0000 1.0000 -0.0000
vt 0.000500 1.999500
vt 0.000500 1.000500
vt 0.999500 1.000500
vt 0.999500 1.999501
s 1
usemtl STARTLINE
f 1/1/1 2/2/1 3/3/1
f 3/3/1 4/4/1 1/1/1
f 5/1/1 6/2/1 7/3/1
f 7/3/1 8/4/1 5/1/1
