# Blender 4.4.3
# www.blender.org
mtllib TBOOTH.mtl
o TBOOTH
v -279.351440 22.445732 -457.310394
v -280.227264 22.445732 -456.810638
v -279.103271 22.581650 -456.875488
v -279.979095 22.581650 -456.375702
v -278.824921 22.445732 -456.387634
v -279.700745 22.445732 -455.887878
v -279.979095 20.042126 -456.375702
v -280.227264 20.042126 -456.810638
v -279.103271 20.042126 -456.875488
v -279.351440 20.042126 -457.310394
v -279.700745 20.042126 -455.887878
v -278.824921 20.042126 -456.387634
v -68.018425 0.704835 -25.034969
v -69.026802 0.704835 -25.036602
v -68.019234 0.840753 -24.534229
v -69.027618 0.840753 -24.535862
v -68.020149 0.704835 -23.972557
v -69.028526 0.704835 -23.974190
v -69.027618 -1.698771 -24.535862
v -69.026802 -1.698771 -25.036602
v -68.019234 -1.698771 -24.534229
v -68.018425 -1.698771 -25.034969
v -69.028526 -1.698771 -23.974190
v -68.020149 -1.698771 -23.972557
v 563.717407 -0.871461 -92.569748
v 562.708984 -0.871461 -92.571381
v 563.716553 -0.735544 -92.069008
v 562.708191 -0.735544 -92.070641
v 563.715698 -0.871461 -91.507339
v 562.707275 -0.871461 -91.508972
v 562.708191 -3.275067 -92.070641
v 562.708984 -3.275067 -92.571381
v 563.716553 -3.275067 -92.069008
v 563.717407 -3.275067 -92.569748
v 562.707275 -3.275067 -91.508972
v 563.715698 -3.275067 -91.507339
v -306.205627 10.298450 -117.675224
v -305.945679 10.298450 -116.700935
v -305.721832 10.434367 -117.804321
v -305.461853 10.434367 -116.830025
v -305.461853 7.894845 -116.830025
v -305.945679 7.894845 -116.700935
v -305.721832 7.894844 -117.804321
v -306.205627 7.894844 -117.675224
v -305.179169 10.298450 -117.949112
v -304.919220 10.298450 -116.974823
v -304.919220 7.894844 -116.974823
v -305.179169 7.894844 -117.949112
v 112.676308 0.704838 16.820061
v 111.667931 0.704838 16.818428
v 112.675499 0.840756 17.320801
v 111.667122 0.840756 17.319170
v 112.674591 0.704838 17.882473
v 111.666214 0.704838 17.880842
v 111.667122 -1.698768 17.319170
v 111.667931 -1.698768 16.818428
v 112.675499 -1.698768 17.320801
v 112.676308 -1.698768 16.820061
v 111.666214 -1.698768 17.880842
v 112.674591 -1.698768 17.882473
vn -0.1298 0.9651 -0.2275
vn -0.0068 0.9999 -0.0120
vn 0.1166 0.9719 0.2043
vn -0.0000 -1.0000 -0.0000
vn -0.8686 -0.0000 0.4956
vn -0.8685 -0.0000 0.4956
vn 0.8685 -0.0000 -0.4956
vn 0.8686 -0.0000 -0.4955
vn 0.8686 -0.0000 -0.4956
vn 0.8685 -0.0000 -0.4957
vn -0.4957 -0.0000 -0.8685
vn -0.4956 -0.0000 -0.8685
vn -0.4956 -0.0000 -0.8686
vn 0.4956 -0.0000 0.8686
vn 0.0004 0.9651 -0.2620
vn -0.0000 0.9999 -0.0138
vn -0.0004 0.9719 0.2352
vn -1.0000 -0.0000 -0.0016
vn 1.0000 -0.0000 0.0016
vn 0.0016 -0.0000 -1.0000
vn -0.0016 -0.0000 1.0000
vn 1.0000 -0.0000 0.0015
vn 1.0000 -0.0000 0.0017
vn -0.2531 0.9651 0.0675
vn -0.0134 0.9999 0.0036
vn -0.0133 0.9999 0.0036
vn 0.2273 0.9719 -0.0606
vn 0.2578 -0.0000 0.9662
vn -0.2578 -0.0000 -0.9662
vn -0.9662 -0.0000 0.2578
vn 0.9662 -0.0000 -0.2578
vt 0.000500 1.895301
vt 0.471353 1.993890
vt 0.471352 1.993890
vt 0.999501 1.895301
vt 0.999500 1.895301
vt 0.132994 1.516484
vt 0.407719 1.516484
vt 0.132994 1.998144
vt 0.407719 1.998144
vt -0.141731 1.516484
vt -0.141732 1.998144
vt 0.734963 1.947177
vt 0.485729 1.896510
vt 0.734963 1.000500
vt 0.485729 1.000499
vt 1.014525 1.896510
vt 1.014525 1.000499
vt 0.248778 1.946558
vt 0.001980 1.896046
vt 0.248778 1.002776
vt 0.001980 1.002776
vt 0.468803 1.896046
vt 0.468803 1.002776
vt 0.489582 1.902794
vt 0.006274 1.902794
vt 0.489582 1.000772
vt 0.006274 1.000772
s 1
usemtl TBOOTH
f 1/1/1 2/1/1 3/2/2
f 4/3/2 3/2/2 2/1/1
f 3/2/2 4/3/2 5/4/3
f 6/5/3 5/4/3 4/3/2
f 7/6/4 8/7/4 9/8/4
f 10/9/4 9/8/4 8/7/4
f 11/10/4 7/6/4 12/11/4
f 9/8/4 12/11/4 7/6/4
f 4/12/5 2/13/5 7/14/6
f 8/15/5 7/14/6 2/13/5
f 6/16/5 4/12/5 11/17/6
f 7/14/6 11/17/6 4/12/5
f 3/18/7 5/19/8 9/20/9
f 12/21/9 9/20/9 5/19/8
f 1/22/10 3/18/7 10/23/7
f 9/20/9 10/23/7 3/18/7
f 2/24/11 1/25/12 8/26/12
f 10/27/13 8/26/12 1/25/12
f 5/25/14 6/24/14 11/26/14
f 11/26/14 12/27/14 5/25/14
f 13/1/15 14/1/15 15/2/16
f 16/3/16 15/2/16 14/1/15
f 15/2/16 16/3/16 17/4/17
f 18/5/17 17/4/17 16/3/16
f 19/6/4 20/7/4 21/8/4
f 22/9/4 21/8/4 20/7/4
f 23/10/4 19/6/4 24/11/4
f 21/8/4 24/11/4 19/6/4
f 16/12/18 14/13/18 19/14/18
f 20/15/18 19/14/18 14/13/18
f 18/16/18 16/12/18 23/17/18
f 19/14/18 23/17/18 16/12/18
f 15/18/19 17/19/19 21/20/19
f 24/21/19 21/20/19 17/19/19
f 13/22/19 15/18/19 22/23/19
f 21/20/19 22/23/19 15/18/19
f 14/24/20 13/25/20 20/26/20
f 22/27/20 20/26/20 13/25/20
f 17/25/21 18/24/21 23/26/21
f 23/26/21 24/27/21 17/25/21
f 25/1/15 26/1/15 27/2/16
f 28/3/16 27/2/16 26/1/15
f 27/2/16 28/3/16 29/4/17
f 30/5/17 29/4/17 28/3/16
f 31/6/4 32/7/4 33/8/4
f 34/9/4 33/8/4 32/7/4
f 35/10/4 31/6/4 36/11/4
f 33/8/4 36/11/4 31/6/4
f 28/12/18 26/13/18 31/14/18
f 32/15/18 31/14/18 26/13/18
f 30/16/18 28/12/18 35/17/18
f 31/14/18 35/17/18 28/12/18
f 27/18/19 29/19/22 33/20/19
f 36/21/22 33/20/19 29/19/22
f 25/22/23 27/18/19 34/23/23
f 33/20/19 34/23/23 27/18/19
f 26/24/20 25/25/20 32/26/20
f 34/27/20 32/26/20 25/25/20
f 29/25/21 30/24/21 35/26/21
f 35/26/21 36/27/21 29/25/21
f 37/1/24 38/1/24 39/2/25
f 40/3/26 39/2/25 38/1/24
f 39/2/25 40/3/26 45/4/27
f 46/5/27 45/4/27 40/3/26
f 41/6/4 42/7/4 43/8/4
f 44/9/4 43/8/4 42/7/4
f 47/10/4 41/6/4 48/11/4
f 43/8/4 48/11/4 41/6/4
f 40/12/28 38/13/28 41/14/28
f 42/15/28 41/14/28 38/13/28
f 46/16/28 40/12/28 47/17/28
f 41/14/28 47/17/28 40/12/28
f 39/18/29 45/19/29 43/20/29
f 48/21/29 43/20/29 45/19/29
f 37/22/29 39/18/29 44/23/29
f 43/20/29 44/23/29 39/18/29
f 38/24/30 37/25/30 42/26/30
f 44/27/30 42/26/30 37/25/30
f 45/25/31 46/24/31 47/26/31
f 47/26/31 48/27/31 45/25/31
f 49/1/15 50/1/15 51/2/16
f 52/3/16 51/2/16 50/1/15
f 51/2/16 52/3/16 53/4/17
f 54/5/17 53/4/17 52/3/16
f 55/6/4 56/7/4 57/8/4
f 58/9/4 57/8/4 56/7/4
f 59/10/4 55/6/4 60/11/4
f 57/8/4 60/11/4 55/6/4
f 52/12/18 50/13/18 55/14/18
f 56/15/18 55/14/18 50/13/18
f 54/16/18 52/12/18 59/17/18
f 55/14/18 59/17/18 52/12/18
f 51/18/19 53/19/19 57/20/19
f 60/21/19 57/20/19 53/19/19
f 49/22/19 51/18/19 58/23/19
f 57/20/19 58/23/19 51/18/19
f 50/24/20 49/25/20 56/26/20
f 58/27/20 56/26/20 49/25/20
f 53/25/21 54/24/21 59/26/21
f 59/26/21 60/27/21 53/25/21
