# Blender 4.4.3
# www.blender.org
mtllib TCAN.mtl
o TCAN
v 88.744446 -1.668879 -21.273167
v 88.968102 -1.668892 -21.358639
v 89.192833 -1.668894 -21.196537
v 89.118958 -1.668882 -21.005917
v 88.955139 -1.668869 -20.882481
v 88.737793 -1.668868 -21.039261
v 88.955154 -0.985769 -20.882504
v 88.955154 -0.827267 -20.882507
v 88.737808 -0.827266 -21.039288
v 88.968124 -0.827291 -21.358665
v 89.192856 -0.827292 -21.196560
v 89.192856 -0.991348 -21.196556
v 89.180229 -0.827280 -20.961750
v 88.744461 -0.827277 -21.273193
v 89.180222 -0.985549 -20.961746
v 89.118980 -0.985549 -21.005936
v 88.620193 -1.668879 -21.004700
v 88.820389 -1.668893 -20.873348
v 88.820435 -1.668894 -20.596256
v 88.622635 -1.668882 -20.544617
v 88.426674 -1.668869 -20.605232
v 88.426620 -1.668868 -20.873222
v 88.426697 -0.985769 -20.605228
v 88.426712 -0.827267 -20.605225
v 88.426666 -0.827266 -20.873219
v 88.820419 -0.827291 -20.873344
v 88.820473 -0.827292 -20.596249
v 88.820465 -0.991348 -20.596252
v 88.622665 -0.827280 -20.469093
v 88.620224 -0.827277 -21.004696
v 88.622658 -0.985549 -20.469093
v 88.622658 -0.985549 -20.544613
v 23.933792 -1.668879 -21.712242
v 24.157455 -1.668893 -21.797718
v 24.382187 -1.668894 -21.635612
v 24.308310 -1.668882 -21.444992
v 24.144487 -1.668869 -21.321556
v 23.927141 -1.668868 -21.478336
v 24.144501 -0.985769 -21.321579
v 24.144512 -0.827267 -21.321583
v 23.927166 -0.827266 -21.478363
v 24.157478 -0.827291 -21.797741
v 24.382198 -0.827292 -21.635635
v 24.382198 -0.991348 -21.635632
v 24.369568 -0.827280 -21.400826
v 23.933819 -0.827277 -21.712269
v 24.369568 -0.985549 -21.400818
v 24.308323 -0.985549 -21.445011
v -52.143616 -1.668879 -24.366711
v -51.919960 -1.668893 -24.452183
v -51.695229 -1.668894 -24.290077
v -51.769104 -1.668882 -24.099457
v -51.932922 -1.668869 -23.976021
v -52.150269 -1.668868 -24.132801
v -51.932907 -0.985769 -23.976044
v -51.932907 -0.827267 -23.976048
v -52.150246 -0.827266 -24.132828
v -51.919937 -0.827291 -24.452209
v -51.695206 -0.827292 -24.290104
v -51.695213 -0.991348 -24.290096
v -51.707840 -0.827280 -24.055290
v -52.143593 -0.827277 -24.366734
v -51.707840 -0.985549 -24.055286
v -51.769089 -0.985549 -24.099480
v 153.664230 -1.668879 -21.004702
v 153.864426 -1.668893 -20.873350
v 153.864471 -1.668894 -20.596256
v 153.666672 -1.668882 -20.544619
v 153.470718 -1.668869 -20.605232
v 153.470657 -1.668868 -20.873224
v 153.470734 -0.985769 -20.605228
v 153.470749 -0.827267 -20.605228
v 153.470703 -0.827266 -20.873219
v 153.864456 -0.827291 -20.873346
v 153.864502 -0.827292 -20.596252
v 153.864502 -0.991348 -20.596252
v 153.666702 -0.827280 -20.469093
v 153.664276 -0.827277 -21.004698
v 153.666702 -0.985549 -20.469093
v 153.666702 -0.985549 -20.544615
vn -0.0000 -1.0000 -0.0000
vn -0.0000 -1.0000 0.0001
vn -0.5850 -0.0000 0.8110
vn 0.5850 -0.0000 -0.8110
vn -0.0000 1.0000 -0.0000
vn -0.0000 1.0000 -0.0001
vn 0.3321 -0.0000 0.9432
vn -0.9996 -0.0000 -0.0284
vn 0.9986 -0.0000 0.0537
vn -0.3570 -0.0000 -0.9341
vn 0.6018 -0.0000 0.7987
vn 0.9324 -0.0000 0.3614
vn -0.0084 -0.9999 0.0117
vn 0.0007 -1.0000 -0.0009
vn -0.0081 -0.9999 0.0113
vn -0.0171 -0.9996 0.0238
vn -0.0001 -1.0000 -0.0000
vn -1.0000 -0.0000 0.0002
vn -1.0000 0.0001 0.0001
vn 1.0000 -0.0000 -0.0002
vn 0.0001 1.0000 -0.0000
vn -0.5705 -0.0000 0.8213
vn -0.5705 0.0001 0.8213
vn -0.5619 -0.0000 -0.8272
vn 0.5407 -0.0000 0.8412
vn 0.5407 -0.0001 0.8412
vn 0.5486 -0.0000 -0.8361
vn -0.5706 -0.0000 0.8213
vn -0.2955 -0.0000 0.9553
vn 0.2526 -0.0000 0.9676
vn -0.0144 -0.9999 -0.0000
vn 0.0011 -1.0000 -0.0000
vn -0.0139 -0.9999 -0.0000
vn -0.0293 -0.9996 -0.0000
vn -0.5851 0.0001 0.8110
vn 0.5850 -0.0001 -0.8110
vn -1.0000 0.0001 0.0002
vn -1.0000 -0.0000 0.0001
vn 1.0000 -0.0001 -0.0002
vn 0.5408 -0.0000 0.8412
vt 0.000500 1.000500
vt 0.245615 1.000500
vt 0.762445 1.000500
vt 0.999500 1.000499
vt 0.745466 1.000499
vt 0.245615 1.000499
vt 0.745466 1.811355
vt 0.745466 1.999501
vt 0.245615 1.999501
vt 0.245616 1.999501
vt 0.762445 1.999501
vt 0.762445 1.804763
vt 0.269269 1.418488
vt 0.408808 1.418488
vt 0.479724 1.557782
vt 0.413548 1.698424
vt 0.269270 1.698424
vt 0.200843 1.556121
vt 0.999500 1.811631
vt 0.000500 1.999501
vt 0.999500 1.999501
vt 0.971781 1.221897
vt 0.723187 1.098199
vt 0.833937 1.221906
vt 0.739802 1.346793
s 1
usemtl TCAN.001
f 1/1/1 2/2/1 3/3/1
f 4/4/1 5/5/2 6/6/1
f 6/6/3 5/5/3 7/7/3
f 8/8/3 9/9/3 6/6/3
f 3/3/4 2/2/4 10/10/4
f 10/10/4 11/11/4 12/12/4
f 9/13/5 8/14/5 13/15/5
f 11/16/5 10/17/6 14/18/5
f 6/6/1 1/1/1 4/4/1
f 3/3/1 4/4/1 1/1/1
f 14/18/5 9/13/5 11/16/5
f 13/15/5 11/16/5 9/13/5
f 15/19/7 8/8/7 7/7/7
f 1/1/8 6/6/8 14/20/8
f 9/9/8 14/20/8 6/6/8
f 11/11/9 13/21/9 12/12/9
f 2/2/10 1/1/10 10/10/10
f 14/20/10 10/10/10 1/1/10
f 13/21/7 8/8/7 15/19/7
f 6/6/3 7/7/3 8/8/3
f 12/12/9 13/21/9 15/19/9
f 10/10/4 12/12/4 3/3/4
f 5/5/11 4/4/11 7/7/11
f 4/4/12 3/3/12 16/19/12
f 16/19/12 3/3/12 12/12/12
f 7/7/11 4/4/11 16/19/11
f 15/22/13 7/23/14 16/24/15
f 15/22/13 16/24/15 12/25/16
f 17/1/17 18/2/17 19/3/17
f 20/4/17 21/5/17 22/6/17
f 22/6/18 21/5/18 23/7/19
f 24/8/19 25/9/18 22/6/18
f 19/3/20 18/2/20 26/10/20
f 26/10/20 27/11/20 28/12/20
f 25/13/21 24/14/21 29/15/21
f 27/16/21 26/17/21 30/18/21
f 22/6/17 17/1/17 20/4/17
f 19/3/17 20/4/17 17/1/17
f 30/18/21 25/13/21 27/16/21
f 29/15/21 27/16/21 25/13/21
f 31/19/22 24/8/23 23/7/23
f 17/1/24 22/6/24 30/20/24
f 25/9/24 30/20/24 22/6/24
f 27/11/25 29/21/26 28/12/26
f 18/2/27 17/1/27 26/10/27
f 30/20/27 26/10/27 17/1/27
f 29/21/28 24/8/23 31/19/22
f 22/6/18 23/7/19 24/8/19
f 28/12/26 29/21/26 31/19/26
f 26/10/20 28/12/20 19/3/20
f 21/5/29 20/4/29 23/7/29
f 20/4/30 19/3/30 32/19/30
f 32/19/30 19/3/30 28/12/30
f 23/7/29 20/4/29 32/19/29
f 31/22/31 23/23/32 32/24/33
f 31/22/31 32/24/33 28/25/34
f 33/1/1 34/2/2 35/3/1
f 36/4/1 37/5/2 38/6/1
f 38/6/3 37/5/3 39/7/35
f 40/8/3 41/9/3 38/6/3
f 35/3/4 34/2/4 42/10/4
f 42/10/4 43/11/4 44/12/4
f 41/13/5 40/14/5 45/15/5
f 43/16/5 42/17/6 46/18/5
f 38/6/1 33/1/1 36/4/1
f 35/3/1 36/4/1 33/1/1
f 46/18/5 41/13/5 43/16/5
f 45/15/5 43/16/5 41/13/5
f 47/19/7 40/8/7 39/7/7
f 33/1/8 38/6/8 46/20/8
f 41/9/8 46/20/8 38/6/8
f 43/11/9 45/21/9 44/12/9
f 34/2/10 33/1/10 42/10/10
f 46/20/10 42/10/10 33/1/10
f 45/21/7 40/8/7 47/19/7
f 38/6/3 39/7/35 40/8/3
f 44/12/9 45/21/9 47/19/9
f 42/10/4 44/12/4 35/3/4
f 37/5/11 36/4/11 39/7/11
f 36/4/12 35/3/12 48/19/12
f 48/19/12 35/3/12 44/12/12
f 39/7/11 36/4/11 48/19/11
f 47/22/13 39/23/14 48/24/15
f 47/22/13 48/24/15 44/25/16
f 49/1/1 50/2/2 51/3/1
f 52/4/1 53/5/2 54/6/1
f 54/6/3 53/5/3 55/7/3
f 56/8/3 57/9/3 54/6/3
f 51/3/4 50/2/4 58/10/4
f 58/10/4 59/11/36 60/12/4
f 57/13/5 56/14/5 61/15/5
f 59/16/5 58/17/6 62/18/5
f 54/6/1 49/1/1 52/4/1
f 51/3/1 52/4/1 49/1/1
f 62/18/5 57/13/5 59/16/5
f 61/15/5 59/16/5 57/13/5
f 63/19/7 56/8/7 55/7/7
f 49/1/8 54/6/8 62/20/8
f 57/9/8 62/20/8 54/6/8
f 59/11/9 61/21/9 60/12/9
f 50/2/10 49/1/10 58/10/10
f 62/20/10 58/10/10 49/1/10
f 61/21/7 56/8/7 63/19/7
f 54/6/3 55/7/3 56/8/3
f 60/12/9 61/21/9 63/19/9
f 58/10/4 60/12/4 51/3/4
f 53/5/11 52/4/11 55/7/11
f 52/4/12 51/3/12 64/19/12
f 64/19/12 51/3/12 60/12/12
f 55/7/11 52/4/11 64/19/11
f 63/22/13 55/23/14 64/24/15
f 63/22/13 64/24/15 60/25/16
f 65/1/17 66/2/17 67/3/17
f 68/4/17 69/5/17 70/6/17
f 70/6/37 69/5/37 71/7/38
f 72/8/19 73/9/37 70/6/37
f 67/3/39 66/2/39 74/10/20
f 74/10/20 75/11/20 76/12/20
f 73/13/21 72/14/21 77/15/21
f 75/16/21 74/17/21 78/18/21
f 70/6/17 65/1/17 68/4/17
f 67/3/17 68/4/17 65/1/17
f 78/18/21 73/13/21 75/16/21
f 77/15/21 75/16/21 73/13/21
f 79/19/22 72/8/22 71/7/22
f 65/1/24 70/6/24 78/20/24
f 73/9/24 78/20/24 70/6/24
f 75/11/40 77/21/40 76/12/40
f 66/2/27 65/1/27 74/10/27
f 78/20/27 74/10/27 65/1/27
f 77/21/28 72/8/22 79/19/22
f 70/6/37 71/7/38 72/8/19
f 76/12/40 77/21/40 79/19/40
f 74/10/20 76/12/20 67/3/39
f 69/5/29 68/4/29 71/7/29
f 68/4/30 67/3/30 80/19/30
f 80/19/30 67/3/30 76/12/30
f 71/7/29 68/4/29 80/19/29
f 79/22/31 71/23/32 80/24/33
f 79/22/31 80/24/33 76/25/34
