# Blender 4.4.3
# www.blender.org
mtllib TENTB.mtl
o TENTB
v 118.086021 0.767081 30.988876
v 123.778290 0.767081 30.988876
v 120.932159 3.205933 28.283144
v 123.778290 -1.671771 30.988876
v 118.086021 -1.671771 30.988876
v 123.778290 0.767081 25.577412
v 123.778290 -1.671771 25.577412
v 118.086021 0.767081 25.577412
v 118.086021 -1.671771 25.577412
v -100.452148 0.836871 -25.693428
v -94.759880 0.836871 -25.693428
v -97.606010 3.275722 -28.399160
v -94.759880 -1.601981 -25.693428
v -100.452148 -1.601981 -25.693428
v -94.759880 0.836871 -31.104893
v -94.759880 -1.601981 -31.104893
v -100.452148 0.836871 -31.104893
v -100.452148 -1.601981 -31.104893
v 553.505249 -0.869757 6.596537
v 559.197510 -0.869757 6.596537
v 556.351379 1.569095 3.890804
v 559.197510 -3.308609 6.596538
v 553.505249 -3.308609 6.596538
v 559.197510 -0.869757 1.185071
v 559.197510 -3.308609 1.185071
v 553.505249 -0.869757 1.185071
v 553.505249 -3.308609 1.185071
v 26.634729 26.182955 -923.162048
v 34.970482 26.182955 -923.162048
v 30.802605 29.754410 -927.124329
v 34.970482 22.611500 -923.162048
v 26.634729 22.611500 -923.162048
v 34.970482 26.182955 -931.086609
v 34.970482 22.611500 -931.086609
v 26.634729 26.182955 -931.086609
v 26.634729 22.611500 -931.086609
v 322.568878 37.392727 -1018.889038
v 327.338867 37.392727 -1015.782715
v 326.430420 39.831577 -1019.603210
v 327.338867 34.953873 -1015.782715
v 322.568878 34.953873 -1018.889038
v 330.291931 37.392727 -1020.317383
v 330.291931 34.953873 -1020.317383
v 325.521942 37.392727 -1023.423706
v 325.521942 34.953873 -1023.423706
v 558.376770 34.648064 -836.058228
v 562.115540 34.648067 -831.765930
v 562.286377 37.086914 -835.689270
v 562.115540 32.209213 -831.765930
v 558.376770 32.209209 -836.058228
v 566.196045 34.648064 -835.320312
v 566.196045 32.209209 -835.320312
v 562.457275 34.648064 -839.612549
v 562.457275 32.209209 -839.612549
v 400.344391 32.098930 -765.060791
v 405.382141 32.098930 -767.710938
v 401.603577 34.537785 -768.780457
v 405.382141 29.660080 -767.710938
v 400.344391 29.660080 -765.060791
v 402.862762 32.098930 -772.500122
v 402.862762 29.660078 -772.500122
v 397.825012 32.098930 -769.850037
v 397.825012 29.660080 -769.850037
v -230.261551 22.132399 -419.850098
v -224.973816 22.132399 -421.957642
v -228.619476 24.571251 -423.417328
v -224.973816 19.693548 -421.957642
v -230.261551 19.693548 -419.850098
v -226.977386 22.132399 -426.984528
v -226.977386 19.693548 -426.984528
v -232.265121 22.132399 -424.876984
v -232.265121 19.693548 -424.876984
v -288.922729 22.548403 -486.117737
v -283.230499 22.548403 -486.099640
v -286.068024 24.987253 -488.814392
v -283.230499 20.109550 -486.099640
v -288.922729 20.109550 -486.117737
v -283.213318 22.548403 -491.511078
v -283.213318 20.109550 -491.511078
v -288.905548 22.548403 -491.529175
v -288.905548 20.109550 -491.529175
v 42.567284 36.128288 -493.828552
v 48.258141 36.128288 -493.954987
v 45.352612 38.567139 -496.596832
v 48.258141 33.689438 -493.954987
v 42.567284 33.689438 -493.828552
v 48.137939 36.128288 -499.365112
v 48.137939 33.689438 -499.365112
v 42.447083 36.128288 -499.238678
v 42.447083 33.689438 -499.238678
v 551.487000 -0.805534 -218.714401
v 557.030701 -0.805534 -220.006393
v 553.644775 1.633317 -221.995514
v 557.030701 -3.244386 -220.006393
v 551.487000 -3.244385 -218.714401
v 555.802490 -0.805534 -225.276627
v 555.802490 -3.244386 -225.276627
v 550.258789 -0.805534 -223.984634
v 550.258789 -3.244386 -223.984634
v -266.643219 22.236012 -497.574738
v -260.952240 22.236012 -497.454926
v -263.740784 24.674864 -500.219971
v -260.952240 19.797161 -497.454926
v -266.643219 19.797161 -497.574738
v -260.838348 22.236012 -502.865204
v -260.838348 19.797161 -502.865204
v -266.529358 22.236012 -502.985016
v -266.529358 19.797161 -502.985016
v -143.080170 1.363643 30.988876
v -137.387909 1.363643 30.988876
v -140.234039 3.802494 28.283144
v -137.387909 -1.075209 30.988876
v -143.080170 -1.075209 30.988876
v -137.387909 1.363643 25.577412
v -137.387909 -1.075209 25.577412
v -143.080170 1.363643 25.577412
v -143.080170 -1.075209 25.577412
v -180.659790 2.161105 -18.811598
v -174.967529 2.161105 -18.811598
v -177.813660 4.599956 -21.517330
v -174.967529 -0.277747 -18.811598
v -180.659790 -0.277747 -18.811598
v -174.967529 2.161104 -24.223063
v -174.967529 -0.277748 -24.223063
v -180.659790 2.161104 -24.223063
v -180.659790 -0.277748 -24.223063
v 554.609436 -0.869763 -81.070221
v 560.301697 -0.869763 -81.070221
v 557.455566 1.569089 -83.775955
v 560.301697 -3.308614 -81.070221
v 554.609436 -3.308614 -81.070221
v 560.301697 -0.869764 -86.481689
v 560.301697 -3.308614 -86.481689
v 554.609436 -0.869764 -86.481689
v 554.609436 -3.308614 -86.481689
v -76.883247 24.352264 -908.429810
v -70.440742 24.352264 -911.956116
v -75.338173 27.498993 -913.255310
v -70.440742 21.205536 -911.956116
v -76.883247 21.205536 -908.429810
v -73.793098 24.352264 -918.080872
v -73.793098 21.205536 -918.080872
v -80.235611 24.352264 -914.554504
v -80.235611 21.205536 -914.554504
v 424.817047 33.236797 -931.750366
v 428.988068 33.236797 -927.876770
v 428.743805 35.675648 -931.796204
v 428.988068 30.797943 -927.876770
v 424.817047 30.797943 -931.750366
v 432.670563 33.236797 -931.842041
v 432.670563 30.797943 -931.842041
v 428.499542 33.236794 -935.715637
v 428.499542 30.797943 -935.715637
v 503.659241 0.522120 -399.028412
v 506.678589 0.522119 -403.853912
v 502.875183 2.960972 -402.876373
v 506.678589 -1.916731 -403.853912
v 503.659241 -1.916731 -399.028412
v 502.091125 0.522119 -406.724304
v 502.091125 -1.916732 -406.724304
v 499.071777 0.522120 -401.898804
v 499.071777 -1.916731 -401.898804
v -231.419342 22.236025 -351.253662
v -225.750916 22.236025 -351.774048
v -228.832489 24.674877 -354.208252
v -225.750916 19.797173 -351.774048
v -231.419342 19.797173 -351.253662
v -226.245621 22.236025 -357.162872
v -226.245621 19.797173 -357.162872
v -231.914047 22.236025 -356.642487
v -231.914047 19.797173 -356.642487
v -24.224300 13.584390 -336.378906
v -18.533442 13.584390 -336.505341
v -21.438969 16.023243 -339.147186
v -18.533442 11.145537 -336.505341
v -24.224300 11.145537 -336.378906
v -18.653639 13.584390 -341.915466
v -18.653639 11.145537 -341.915466
v -24.344498 13.584390 -341.789032
v -24.344498 11.145537 -341.789032
v -184.245209 22.236013 -498.291748
v -178.554199 22.236013 -498.171936
v -181.342758 24.674866 -500.936981
v -178.554199 19.797163 -498.171936
v -184.245209 19.797163 -498.291748
v -178.440323 22.236013 -503.582214
v -178.440323 19.797163 -503.582214
v -184.131317 22.236013 -503.702026
v -184.131317 19.797163 -503.702026
v -288.080383 22.236010 -553.285583
v -282.411957 22.236010 -553.805969
v -285.493500 24.674862 -556.240173
v -282.411957 19.797157 -553.805969
v -288.080383 19.797157 -553.285583
v -282.906647 22.236010 -559.194763
v -282.906647 19.797157 -559.194763
v -288.575073 22.236010 -558.674377
v -288.575073 19.797157 -558.674377
v -340.138641 12.316342 -901.886230
v -339.684326 12.316342 -895.328491
v -336.794373 15.132728 -898.823364
v -339.684326 9.499956 -895.328491
v -340.138641 9.499956 -901.886230
v -333.450073 12.316342 -895.760437
v -333.450073 9.499956 -895.760437
v -333.904449 12.316342 -902.318115
v -333.904449 9.499956 -902.318115
v 183.085327 15.791018 -453.872894
v 186.870560 15.791018 -458.124237
v 182.957138 18.229870 -457.797821
v 186.870560 13.352167 -458.124237
v 183.085327 13.352167 -453.872894
v 182.828949 15.791018 -461.722748
v 182.828949 13.352166 -461.722748
v 179.043701 15.791018 -457.471436
v 179.043701 13.352167 -457.471436
vn -0.0000 0.7428 0.6695
vn -0.0000 -0.0000 1.0000
vn 0.6507 0.7593 -0.0000
vn 1.0000 -0.0000 -0.0000
vn -0.0000 0.7428 -0.6695
vn -0.0000 -0.0000 -1.0000
vn -0.6507 0.7594 -0.0000
vn -1.0000 -0.0000 -0.0000
vn -0.6507 0.7593 -0.0000
vn -0.3654 0.7428 0.5610
vn -0.5457 -0.0000 0.8380
vn 0.5453 0.7593 0.3551
vn 0.8380 -0.0000 0.5457
vn 0.3653 0.7428 -0.5611
vn 0.5457 -0.0000 -0.8380
vn -0.5452 0.7594 -0.3551
vn -0.8380 -0.0000 -0.5457
vn -0.5049 0.7428 0.4398
vn -0.7541 -0.0000 0.6568
vn 0.4274 0.7594 0.4906
vn 0.6568 -0.0000 0.7540
vn 0.5048 0.7428 -0.4398
vn 0.7541 -0.0000 -0.6568
vn 0.7540 -0.0000 -0.6568
vn -0.4274 0.7594 -0.4907
vn -0.6568 -0.0000 -0.7541
vn 0.3117 0.7428 0.5925
vn 0.4656 -0.0000 0.8850
vn 0.5759 0.7594 -0.3029
vn 0.8850 -0.0000 -0.4656
vn -0.3117 0.7428 -0.5925
vn -0.4655 -0.0000 -0.8850
vn -0.4656 -0.0000 -0.8850
vn -0.5759 0.7594 0.3029
vn -0.8850 -0.0000 0.4656
vn 0.2479 0.7428 0.6219
vn 0.3702 -0.0000 0.9289
vn 0.6044 0.7593 -0.2409
vn 0.9289 -0.0000 -0.3702
vn -0.2479 0.7428 -0.6219
vn -0.3702 -0.0000 -0.9289
vn -0.3703 -0.0000 -0.9289
vn -0.6044 0.7593 0.2409
vn -0.9289 -0.0000 0.3703
vn -0.9289 -0.0000 0.3702
vn -0.0021 0.7428 0.6695
vn -0.0032 -0.0000 1.0000
vn 0.6507 0.7593 0.0021
vn 1.0000 -0.0000 0.0032
vn 0.0021 0.7428 -0.6695
vn 0.0032 -0.0000 -1.0000
vn -0.6507 0.7593 -0.0021
vn -1.0000 -0.0000 -0.0032
vn 0.0149 0.7428 0.6694
vn 0.0222 -0.0000 0.9998
vn 0.6505 0.7593 -0.0145
vn 0.9998 -0.0000 -0.0222
vn -0.0149 0.7428 -0.6694
vn -0.0222 -0.0000 -0.9998
vn -0.6505 0.7594 0.0145
vn -0.9998 -0.0000 0.0222
vn 0.1520 0.7428 0.6520
vn 0.2270 -0.0000 0.9739
vn 0.6337 0.7593 -0.1477
vn 0.9739 -0.0000 -0.2270
vn -0.1520 0.7428 -0.6521
vn -0.2270 -0.0000 -0.9739
vn -0.6337 0.7593 0.1477
vn -0.9739 -0.0000 0.2270
vn -0.0141 0.7428 0.6694
vn -0.0211 -0.0000 0.9998
vn 0.6505 0.7593 0.0137
vn 0.9998 -0.0000 0.0210
vn 0.0141 0.7428 -0.6694
vn 0.0211 -0.0000 -0.9998
vn -0.6505 0.7594 -0.0137
vn -0.9998 -0.0000 -0.0210
vn 0.3215 0.7428 0.5873
vn 0.4801 -0.0000 0.8772
vn 0.5708 0.7593 -0.3124
vn 0.8772 -0.0000 -0.4801
vn -0.3215 0.7428 -0.5873
vn -0.4801 -0.0000 -0.8772
vn -0.5708 0.7593 0.3124
vn -0.8772 -0.0000 0.4801
vn -0.4556 0.7428 0.4906
vn -0.6805 -0.0000 0.7327
vn 0.4768 0.7594 0.4428
vn 0.7327 -0.0000 0.6805
vn 0.7328 -0.0000 0.6805
vn 0.4556 0.7428 -0.4906
vn 0.6805 -0.0000 -0.7327
vn -0.4768 0.7594 -0.4428
vn -0.7328 -0.0000 -0.6805
vn -0.7327 -0.0000 -0.6805
vn 0.5676 0.7428 0.3551
vn 0.8477 -0.0000 0.5304
vn 0.3451 0.7593 -0.5516
vn 0.5304 -0.0000 -0.8477
vn -0.5676 0.7428 -0.3551
vn -0.8477 -0.0000 -0.5304
vn -0.3451 0.7594 0.5516
vn -0.5304 -0.0000 0.8477
vn 0.0612 0.7428 0.6667
vn 0.0914 -0.0000 0.9958
vn 0.6480 0.7594 -0.0595
vn 0.9958 -0.0000 -0.0914
vn -0.0612 0.7428 -0.6667
vn -0.0914 -0.0000 -0.9958
vn -0.6480 0.7593 0.0595
vn -0.9958 -0.0000 0.0914
vn 0.6505 0.7594 -0.0145
vn -0.6505 0.7593 0.0145
vn 0.6505 0.7594 0.0137
vn 0.0210 -0.0000 -0.9998
vn 0.6480 0.7593 -0.0595
vn -0.6480 0.7594 0.0595
vn -0.6679 0.7428 0.0463
vn -0.9976 -0.0000 0.0691
vn 0.0450 0.7594 0.6491
vn 0.0691 -0.0000 0.9976
vn 0.6679 0.7428 -0.0463
vn 0.9976 -0.0000 -0.0691
vn -0.0450 0.7593 -0.6491
vn -0.0691 -0.0000 -0.9976
vn 0.5000 0.7428 0.4452
vn 0.7469 -0.0000 0.6650
vn 0.4327 0.7593 -0.4860
vn 0.6650 -0.0000 -0.7469
vn -0.5000 0.7428 -0.4452
vn -0.7469 -0.0000 -0.6650
vn -0.4327 0.7593 0.4860
vn -0.6650 -0.0000 0.7468
vn -0.6650 -0.0000 0.7469
vt 0.000500 1.500000
vt 0.999500 1.500000
vt 0.496993 1.997655
vt 0.979500 1.500000
vt 0.030000 1.500000
vt 0.979500 1.000500
vt 0.030000 1.000500
vt 0.000499 1.500000
vt 0.493301 1.995809
vt 0.969405 1.500000
vt 0.969405 1.000500
vt 0.498838 1.901678
vt 0.969500 1.500000
vt 0.020499 1.500000
vt 0.969500 1.000500
vt 0.020499 1.000500
vt 0.498838 1.997655
vt 0.030499 1.500000
vt 0.030499 1.000500
s 1
usemtl TENTB.002
f 1/1/1 2/2/1 3/3/1
f 2/4/2 1/5/2 4/6/2
f 5/7/2 4/6/2 1/5/2
f 2/8/3 6/2/3 3/9/3
f 6/10/4 2/5/4 7/11/4
f 4/7/4 7/11/4 2/5/4
f 6/8/5 8/2/5 3/12/5
f 8/13/6 6/14/6 9/15/6
f 7/16/6 9/15/6 6/14/6
f 8/8/7 1/2/7 3/17/7
f 1/4/8 8/18/8 5/6/8
f 9/19/8 5/6/8 8/18/8
f 10/1/1 11/2/1 12/3/1
f 11/4/2 10/5/2 13/6/2
f 14/7/2 13/6/2 10/5/2
f 11/8/3 15/2/3 12/9/3
f 15/10/4 11/5/4 16/11/4
f 13/7/4 16/11/4 11/5/4
f 15/8/5 17/2/5 12/12/5
f 17/13/6 15/14/6 18/15/6
f 16/16/6 18/15/6 15/14/6
f 17/8/9 10/2/9 12/17/9
f 10/4/8 17/18/8 14/6/8
f 18/19/8 14/6/8 17/18/8
f 19/1/1 20/2/1 21/3/1
f 20/4/2 19/5/2 22/6/2
f 23/7/2 22/6/2 19/5/2
f 20/8/3 24/2/3 21/9/3
f 24/10/4 20/5/4 25/11/4
f 22/7/4 25/11/4 20/5/4
f 24/8/5 26/2/5 21/12/5
f 26/13/6 24/14/6 27/15/6
f 25/16/6 27/15/6 24/14/6
f 26/8/9 19/2/9 21/17/9
f 19/4/8 26/18/8 23/6/8
f 27/19/8 23/6/8 26/18/8
f 28/1/1 29/2/1 30/3/1
f 29/4/2 28/5/2 31/6/2
f 32/7/2 31/6/2 28/5/2
f 29/8/3 33/2/3 30/9/3
f 33/10/4 29/5/4 34/11/4
f 31/7/4 34/11/4 29/5/4
f 33/8/5 35/2/5 30/12/5
f 35/13/6 33/14/6 36/15/6
f 34/16/6 36/15/6 33/14/6
f 35/8/9 28/2/9 30/17/9
f 28/4/8 35/18/8 32/6/8
f 36/19/8 32/6/8 35/18/8
f 37/1/10 38/2/10 39/3/10
f 38/4/11 37/5/11 40/6/11
f 41/7/11 40/6/11 37/5/11
f 38/8/12 42/2/12 39/9/12
f 42/10/13 38/5/13 43/11/13
f 40/7/13 43/11/13 38/5/13
f 42/8/14 44/2/14 39/12/14
f 44/13/15 42/14/15 45/15/15
f 43/16/15 45/15/15 42/14/15
f 44/8/16 37/2/16 39/17/16
f 37/4/17 44/18/17 41/6/17
f 45/19/17 41/6/17 44/18/17
f 46/1/18 47/2/18 48/3/18
f 47/4/19 46/5/19 49/6/19
f 50/7/19 49/6/19 46/5/19
f 47/8/20 51/2/20 48/9/20
f 51/10/21 47/5/21 52/11/21
f 49/7/21 52/11/21 47/5/21
f 51/8/22 53/2/22 48/12/22
f 53/13/23 51/14/23 54/15/23
f 52/16/24 54/15/24 51/14/24
f 53/8/25 46/2/25 48/17/25
f 46/4/26 53/18/26 50/6/26
f 54/19/26 50/6/26 53/18/26
f 55/1/27 56/2/27 57/3/27
f 56/4/28 55/5/28 58/6/28
f 59/7/28 58/6/28 55/5/28
f 56/8/29 60/2/29 57/9/29
f 60/10/30 56/5/30 61/11/30
f 58/7/30 61/11/30 56/5/30
f 60/8/31 62/2/31 57/12/31
f 62/13/32 60/14/32 63/15/32
f 61/16/33 63/15/33 60/14/33
f 62/8/34 55/2/34 57/17/34
f 55/4/35 62/18/35 59/6/35
f 63/19/35 59/6/35 62/18/35
f 64/1/36 65/2/36 66/3/36
f 65/4/37 64/5/37 67/6/37
f 68/7/37 67/6/37 64/5/37
f 65/8/38 69/2/38 66/9/38
f 69/10/39 65/5/39 70/11/39
f 67/7/39 70/11/39 65/5/39
f 69/8/40 71/2/40 66/12/40
f 71/13/41 69/14/41 72/15/41
f 70/16/42 72/15/42 69/14/42
f 71/8/43 64/2/43 66/17/43
f 64/4/44 71/18/44 68/6/44
f 72/19/45 68/6/45 71/18/45
f 73/1/46 74/2/46 75/3/46
f 74/4/47 73/5/47 76/6/47
f 77/7/47 76/6/47 73/5/47
f 74/8/48 78/2/48 75/9/48
f 78/10/49 74/5/49 79/11/49
f 76/7/49 79/11/49 74/5/49
f 78/8/50 80/2/50 75/12/50
f 80/13/51 78/14/51 81/15/51
f 79/16/51 81/15/51 78/14/51
f 80/8/52 73/2/52 75/17/52
f 73/4/53 80/18/53 77/6/53
f 81/19/53 77/6/53 80/18/53
f 82/1/54 83/2/54 84/3/54
f 83/4/55 82/5/55 85/6/55
f 86/7/55 85/6/55 82/5/55
f 83/8/56 87/2/56 84/9/56
f 87/10/57 83/5/57 88/11/57
f 85/7/57 88/11/57 83/5/57
f 87/8/58 89/2/58 84/12/58
f 89/13/59 87/14/59 90/15/59
f 88/16/59 90/15/59 87/14/59
f 89/8/60 82/2/60 84/17/60
f 82/4/61 89/18/61 86/6/61
f 90/19/61 86/6/61 89/18/61
f 91/1/62 92/2/62 93/3/62
f 92/4/63 91/5/63 94/6/63
f 95/7/63 94/6/63 91/5/63
f 92/8/64 96/2/64 93/9/64
f 96/10/65 92/5/65 97/11/65
f 94/7/65 97/11/65 92/5/65
f 96/8/66 98/2/66 93/12/66
f 98/13/67 96/14/67 99/15/67
f 97/16/67 99/15/67 96/14/67
f 98/8/68 91/2/68 93/17/68
f 91/4/69 98/18/69 95/6/69
f 99/19/69 95/6/69 98/18/69
f 100/1/70 101/2/70 102/3/70
f 101/4/71 100/5/71 103/6/71
f 104/7/71 103/6/71 100/5/71
f 101/8/72 105/2/72 102/9/72
f 105/10/73 101/5/73 106/11/73
f 103/7/73 106/11/73 101/5/73
f 105/8/74 107/2/74 102/12/74
f 107/13/75 105/14/75 108/15/75
f 106/16/75 108/15/75 105/14/75
f 107/8/76 100/2/76 102/17/76
f 100/4/77 107/18/77 104/6/77
f 108/19/77 104/6/77 107/18/77
f 109/1/1 110/2/1 111/3/1
f 110/4/2 109/5/2 112/6/2
f 113/7/2 112/6/2 109/5/2
f 110/8/3 114/2/3 111/9/3
f 114/10/4 110/5/4 115/11/4
f 112/7/4 115/11/4 110/5/4
f 114/8/5 116/2/5 111/12/5
f 116/13/6 114/14/6 117/15/6
f 115/16/6 117/15/6 114/14/6
f 116/8/9 109/2/9 111/17/9
f 109/4/8 116/18/8 113/6/8
f 117/19/8 113/6/8 116/18/8
f 118/1/1 119/2/1 120/3/1
f 119/4/2 118/5/2 121/6/2
f 122/7/2 121/6/2 118/5/2
f 119/8/3 123/2/3 120/9/3
f 123/10/4 119/5/4 124/11/4
f 121/7/4 124/11/4 119/5/4
f 123/8/5 125/2/5 120/12/5
f 125/13/6 123/14/6 126/15/6
f 124/16/6 126/15/6 123/14/6
f 125/8/9 118/2/9 120/17/9
f 118/4/8 125/18/8 122/6/8
f 126/19/8 122/6/8 125/18/8
f 127/1/1 128/2/1 129/3/1
f 128/4/2 127/5/2 130/6/2
f 131/7/2 130/6/2 127/5/2
f 128/8/3 132/2/3 129/9/3
f 132/10/4 128/5/4 133/11/4
f 130/7/4 133/11/4 128/5/4
f 132/8/5 134/2/5 129/12/5
f 134/13/6 132/14/6 135/15/6
f 133/16/6 135/15/6 132/14/6
f 134/8/9 127/2/9 129/17/9
f 127/4/8 134/18/8 131/6/8
f 135/19/8 131/6/8 134/18/8
f 136/1/78 137/2/78 138/3/78
f 137/4/79 136/5/79 139/6/79
f 140/7/79 139/6/79 136/5/79
f 137/8/80 141/2/80 138/9/80
f 141/10/81 137/5/81 142/11/81
f 139/7/81 142/11/81 137/5/81
f 141/8/82 143/2/82 138/12/82
f 143/13/83 141/14/83 144/15/83
f 142/16/83 144/15/83 141/14/83
f 143/8/84 136/2/84 138/17/84
f 136/4/85 143/18/85 140/6/85
f 144/19/85 140/6/85 143/18/85
f 145/1/86 146/2/86 147/3/86
f 146/4/87 145/5/87 148/6/87
f 149/7/87 148/6/87 145/5/87
f 146/8/88 150/2/88 147/9/88
f 150/10/89 146/5/89 151/11/89
f 148/7/90 151/11/90 146/5/90
f 150/8/91 152/2/91 147/12/91
f 152/13/92 150/14/92 153/15/92
f 151/16/92 153/15/92 150/14/92
f 152/8/93 145/2/93 147/17/93
f 145/4/94 152/18/94 149/6/94
f 153/19/95 149/6/95 152/18/95
f 154/1/96 155/2/96 156/3/96
f 155/4/97 154/5/97 157/6/97
f 158/7/97 157/6/97 154/5/97
f 155/8/98 159/2/98 156/9/98
f 159/10/99 155/5/99 160/11/99
f 157/7/99 160/11/99 155/5/99
f 159/8/100 161/2/100 156/12/100
f 161/13/101 159/14/101 162/15/101
f 160/16/101 162/15/101 159/14/101
f 161/8/102 154/2/102 156/17/102
f 154/4/103 161/18/103 158/6/103
f 162/19/103 158/6/103 161/18/103
f 163/1/104 164/2/104 165/3/104
f 164/4/105 163/5/105 166/6/105
f 167/7/105 166/6/105 163/5/105
f 164/8/106 168/2/106 165/9/106
f 168/10/107 164/5/107 169/11/107
f 166/7/107 169/11/107 164/5/107
f 168/8/108 170/2/108 165/12/108
f 170/13/109 168/14/109 171/15/109
f 169/16/109 171/15/109 168/14/109
f 170/8/110 163/2/110 165/17/110
f 163/4/111 170/18/111 167/6/111
f 171/19/111 167/6/111 170/18/111
f 172/1/54 173/2/54 174/3/54
f 173/4/55 172/5/55 175/6/55
f 176/7/55 175/6/55 172/5/55
f 173/8/112 177/2/112 174/9/112
f 177/10/57 173/5/57 178/11/57
f 175/7/57 178/11/57 173/5/57
f 177/8/58 179/2/58 174/12/58
f 179/13/59 177/14/59 180/15/59
f 178/16/59 180/15/59 177/14/59
f 179/8/113 172/2/113 174/17/113
f 172/4/61 179/18/61 176/6/61
f 180/19/61 176/6/61 179/18/61
f 181/1/70 182/2/70 183/3/70
f 182/4/71 181/5/71 184/6/71
f 185/7/71 184/6/71 181/5/71
f 182/8/114 186/2/114 183/9/114
f 186/10/73 182/5/73 187/11/73
f 184/7/73 187/11/73 182/5/73
f 186/8/74 188/2/74 183/12/74
f 188/13/75 186/14/75 189/15/75
f 187/16/115 189/15/115 186/14/115
f 188/8/76 181/2/76 183/17/76
f 181/4/77 188/18/77 185/6/77
f 189/19/77 185/6/77 188/18/77
f 190/1/104 191/2/104 192/3/104
f 191/4/105 190/5/105 193/6/105
f 194/7/105 193/6/105 190/5/105
f 191/8/116 195/2/116 192/9/116
f 195/10/107 191/5/107 196/11/107
f 193/7/107 196/11/107 191/5/107
f 195/8/108 197/2/108 192/12/108
f 197/13/109 195/14/109 198/15/109
f 196/16/109 198/15/109 195/14/109
f 197/8/117 190/2/117 192/17/117
f 190/4/111 197/18/111 194/6/111
f 198/19/111 194/6/111 197/18/111
f 199/1/118 200/2/118 201/3/118
f 200/4/119 199/5/119 202/6/119
f 203/7/119 202/6/119 199/5/119
f 200/8/120 204/2/120 201/9/120
f 204/10/121 200/5/121 205/11/121
f 202/7/121 205/11/121 200/5/121
f 204/8/122 206/2/122 201/12/122
f 206/13/123 204/14/123 207/15/123
f 205/16/123 207/15/123 204/14/123
f 206/8/124 199/2/124 201/17/124
f 199/4/125 206/18/125 203/6/125
f 207/19/125 203/6/125 206/18/125
f 208/1/126 209/2/126 210/3/126
f 209/4/127 208/5/127 211/6/127
f 212/7/127 211/6/127 208/5/127
f 209/8/128 213/2/128 210/9/128
f 213/10/129 209/5/129 214/11/129
f 211/7/129 214/11/129 209/5/129
f 213/8/130 215/2/130 210/12/130
f 215/13/131 213/14/131 216/15/131
f 214/16/131 216/15/131 213/14/131
f 215/8/132 208/2/132 210/17/132
f 208/4/133 215/18/133 212/6/133
f 216/19/134 212/6/134 215/18/134
