# Blender 4.4.3
# www.blender.org
mtllib TENTA.mtl
o TENTA
v 596.978271 -1.548965 -100.163765
v 600.891235 -1.548965 -100.163765
v 598.934753 0.127538 -102.023727
v 600.891235 -3.225469 -100.163765
v 596.978271 -3.225469 -100.163765
v 600.891235 -1.548965 -103.883690
v 600.891235 -3.225469 -103.883690
v 596.978271 -1.548965 -103.883690
v 596.978271 -3.225469 -103.883690
v 395.473022 -1.548961 -58.452450
v 397.591003 -1.548962 -61.742634
v 394.968079 0.127541 -61.104294
v 397.591003 -3.225466 -61.742634
v 395.473022 -3.225466 -58.452450
v 394.463135 -1.548962 -63.756138
v 394.463135 -3.225466 -63.756138
v 392.345154 -1.548962 -60.465954
v 392.345154 -3.225466 -60.465954
v 428.447540 -1.548964 -94.598358
v 430.565521 -1.548964 -97.888535
v 427.942596 0.127539 -97.250198
v 430.565521 -3.225468 -97.888535
v 428.447540 -3.225468 -94.598358
v 427.437653 -1.548965 -99.902046
v 427.437653 -3.225469 -99.902046
v 425.319672 -1.548964 -96.611862
v 425.319672 -3.225468 -96.611862
v 220.319046 14.702785 -421.580261
v 221.801758 14.702784 -425.201416
v 219.339142 16.379288 -424.095612
v 221.801758 13.026280 -425.201416
v 220.319046 13.026281 -421.580261
v 218.359238 14.702784 -426.610962
v 218.359238 13.026280 -426.610962
v 216.876526 14.702785 -422.989807
v 216.876526 13.026281 -422.989807
v 155.198029 16.190039 -476.427979
v 158.542389 16.190039 -478.459351
v 155.904633 17.866541 -479.033356
v 158.542389 14.513535 -478.459351
v 155.198029 14.513535 -476.427979
v 156.611237 16.190039 -481.638733
v 156.611237 14.513535 -481.638733
v 153.266876 16.190039 -479.607391
v 153.266876 14.513535 -479.607391
v 108.497734 0.006556 32.699192
v 112.410683 0.006556 32.699192
v 110.454208 1.683060 30.839230
v 112.410683 -1.669948 32.699192
v 108.497734 -1.669948 32.699192
v 112.410683 0.006556 28.979271
v 112.410683 -1.669948 28.979271
v 108.497734 0.006556 28.979271
v 108.497734 -1.669948 28.979271
v -123.731644 0.006552 -29.016937
v -119.818695 0.006552 -29.016937
v -121.775169 1.683056 -30.876898
v -119.818695 -1.669952 -29.016937
v -123.731644 -1.669952 -29.016937
v -119.818695 0.006552 -32.736858
v -119.818695 -1.669953 -32.736858
v -123.731644 0.006552 -32.736858
v -123.731644 -1.669953 -32.736858
v 553.620972 -1.548957 -3.181741
v 557.533936 -1.548957 -3.181741
v 555.577454 0.127546 -5.041702
v 557.533936 -3.225461 -3.181741
v 553.620972 -3.225461 -3.181741
v 557.533936 -1.548957 -6.901664
v 557.533936 -3.225461 -6.901663
v 553.620972 -1.548957 -6.901664
v 553.620972 -3.225461 -6.901663
v -7.297734 24.967035 -924.982056
v -1.567614 24.967035 -924.982056
v -4.432674 27.422108 -927.705811
v -1.567614 22.511963 -924.982056
v -7.297734 22.511963 -924.982056
v -1.567614 24.967035 -930.429565
v -1.567614 22.511963 -930.429565
v -7.297734 24.967035 -930.429565
v -7.297734 22.511963 -930.429565
v 291.090302 36.562405 -1029.949829
v 294.587738 36.562405 -1028.195068
v 293.673096 38.238911 -1030.734863
v 294.587738 34.885902 -1028.195068
v 291.090302 34.885902 -1029.949829
v 296.255890 36.562405 -1031.520020
v 296.255890 34.885902 -1031.520020
v 292.758453 36.562405 -1033.274780
v 292.758453 34.885902 -1033.274780
v 533.264038 34.016899 -755.585571
v 536.792725 34.016899 -757.276672
v 534.224548 35.693401 -758.108398
v 536.792725 32.340397 -757.276672
v 533.264038 32.340397 -755.585571
v 535.185059 34.016899 -760.631226
v 535.185059 32.340397 -760.631226
v 531.656372 34.016899 -758.940186
v 531.656372 32.340397 -758.940186
v 384.062439 31.184275 -756.455688
v 387.299683 31.184275 -758.653687
v 384.636230 32.860779 -759.093445
v 387.299683 29.507771 -758.653687
v 384.062439 29.507771 -756.455688
v 385.210052 31.184275 -761.731262
v 385.210052 29.507771 -761.731262
v 381.972809 31.184275 -759.533203
v 381.972809 29.507771 -759.533203
v 465.883972 32.253819 -811.760986
v 468.154694 32.253819 -814.947693
v 465.504578 33.930325 -814.433716
v 468.154694 30.577316 -814.947693
v 465.883972 30.577316 -811.760986
v 465.125214 32.253819 -817.106384
v 465.125214 30.577316 -817.106384
v 462.854492 32.253819 -813.919678
v 462.854492 30.577316 -813.919678
v 58.440109 36.030830 -495.602600
v 63.723133 36.030830 -497.001587
v 60.416634 38.372360 -498.813293
v 63.723133 33.689301 -497.001587
v 58.440109 33.689301 -495.602600
v 62.393162 36.030830 -502.024017
v 62.393162 33.689301 -502.024017
v 57.110138 36.030830 -500.625031
v 57.110138 33.689301 -500.625031
v -229.439545 21.475487 -505.270752
v -225.546371 21.475487 -505.663666
v -227.679733 23.151991 -507.317749
v -225.546371 19.798985 -505.663666
v -229.439545 19.798985 -505.270752
v -225.919922 21.475487 -509.364777
v -225.919922 19.798985 -509.364777
v -229.813080 21.475487 -508.971863
v -229.813080 19.798985 -508.971863
v -229.439545 21.475487 -497.122253
v -225.546371 21.475487 -497.515167
v -227.679733 23.151991 -499.169250
v -225.546371 19.798985 -497.515167
v -229.439545 19.798985 -497.122253
v -225.919922 21.475487 -501.216278
v -225.919922 19.798985 -501.216278
v -229.813080 21.475487 -500.823364
v -229.813080 19.798985 -500.823364
v -146.832901 0.607605 -19.514912
v -142.919952 0.607605 -19.514912
v -144.876434 2.284108 -21.374872
v -142.919952 -1.068899 -19.514912
v -146.832901 -1.068899 -19.514912
v -142.919952 0.607604 -23.234833
v -142.919952 -1.068900 -23.234833
v -146.832901 0.607604 -23.234833
v -146.832901 -1.068900 -23.234833
v -34.294666 24.482237 -923.351868
v -29.245987 24.482237 -923.351868
v -31.770329 26.645346 -925.751709
v -29.245987 22.319128 -923.351868
v -34.294666 22.319128 -923.351868
v -29.245987 24.482237 -928.151489
v -29.245987 22.319128 -928.151489
v -34.294666 24.482237 -928.151489
v -34.294666 22.319128 -928.151489
v 450.082367 32.793613 -909.246643
v 452.949585 32.793613 -906.583862
v 452.781647 34.470116 -909.278137
v 452.949585 31.117109 -906.583862
v 450.082367 31.117109 -909.246643
v 455.480957 32.793613 -909.309631
v 455.480957 31.117109 -909.309631
v 452.613739 32.793613 -911.972412
v 452.613739 31.117109 -911.972412
v 510.785309 -0.155074 -395.515594
v 512.979004 -0.155074 -398.755768
v 510.341980 1.521429 -398.178436
v 512.979004 -1.831578 -398.755768
v 510.785309 -1.831578 -395.515594
v 509.898651 -0.155074 -400.841278
v 509.898651 -1.831578 -400.841278
v 507.704956 -0.155074 -397.601074
v 507.704956 -1.831578 -397.601074
v 435.308411 -1.548955 21.990046
v 439.221344 -1.548955 21.990046
v 437.264862 0.127548 20.130083
v 439.221344 -3.225459 21.990046
v 435.308411 -3.225459 21.990046
v 439.221344 -1.548956 18.270123
v 439.221344 -3.225460 18.270123
v 435.308411 -1.548956 18.270123
v 435.308411 -3.225460 18.270123
v -205.820770 21.475500 -354.399109
v -201.927597 21.475500 -354.792023
v -204.060959 23.152004 -356.446106
v -201.927597 19.798996 -354.792023
v -205.820770 19.798996 -354.399109
v -202.301147 21.475500 -358.493134
v -202.301147 19.798996 -358.493134
v -206.194305 21.475500 -358.100220
v -206.194305 19.798996 -358.100220
v 0.431751 13.786405 -338.550934
v 6.101788 13.786405 -340.102783
v 2.672462 14.897397 -341.479340
v 6.101784 11.147361 -340.102783
v 0.431747 11.147361 -338.550934
v 4.904488 13.786405 -344.332550
v 4.904480 11.147361 -344.332550
v -0.765549 13.786405 -342.780701
v -0.765556 11.147361 -342.780701
v -294.653381 21.475487 -532.212280
v -290.740662 21.475487 -532.171875
v -292.677795 23.151991 -534.051941
v -290.740662 19.798983 -532.171875
v -294.653381 19.798983 -532.212280
v -290.702209 21.475487 -535.891602
v -290.702209 19.798983 -535.891602
v -294.614929 21.475487 -535.932007
v -294.614929 19.798983 -535.932007
v -329.065674 21.475491 -476.875092
v -325.152954 21.475491 -476.834656
v -327.090088 23.151995 -478.714752
v -325.152954 19.798986 -476.834656
v -329.065674 19.798986 -476.875092
v -325.114502 21.475491 -480.554382
v -325.114502 19.798986 -480.554382
v -329.027222 21.475491 -480.594818
v -329.027222 19.798986 -480.594818
v -273.712830 9.783665 -900.020325
v -273.909180 9.783665 -894.018433
v -270.958099 12.356545 -896.926025
v -273.909180 7.210781 -894.018433
v -273.712830 7.210781 -900.020325
v -268.203369 9.783665 -893.831787
v -268.203369 7.210781 -893.831787
v -268.007019 9.783665 -899.833618
v -268.007019 7.210781 -899.833618
v -253.123764 8.484437 -899.964905
v -253.320145 8.484437 -893.963013
v -250.369049 11.057318 -896.870605
v -253.320145 5.911553 -893.963013
v -253.123764 5.911553 -899.964905
v -247.614334 8.484437 -893.776367
v -247.614334 5.911553 -893.776367
v -247.417984 8.484437 -899.778198
v -247.417984 5.911553 -899.778198
v -255.372467 13.057347 -86.484665
v -251.459518 13.057347 -86.484665
v -253.416000 14.733851 -88.344627
v -251.459518 11.380845 -86.484665
v -255.372467 11.380845 -86.484665
v -251.459518 13.057347 -90.204590
v -251.459518 11.380845 -90.204590
v -255.372467 13.057347 -90.204590
v -255.372467 11.380845 -90.204590
vn -0.0000 0.7428 0.6695
vn -0.0000 -0.0000 1.0000
vn 0.6507 0.7594 -0.0000
vn 1.0000 -0.0000 -0.0000
vn -0.0000 0.7428 -0.6695
vn -0.0000 -0.0000 -1.0000
vn -0.6507 0.7594 -0.0000
vn -1.0000 -0.0000 -0.0000
vn 0.5630 0.7428 0.3624
vn 0.8408 -0.0000 0.5413
vn 0.3522 0.7593 -0.5471
vn 0.5413 -0.0000 -0.8408
vn -0.5630 0.7428 -0.3624
vn -0.8408 -0.0000 -0.5413
vn -0.3522 0.7593 0.5471
vn -0.5413 -0.0000 0.8408
vn 0.6196 0.7428 0.2537
vn 0.9254 -0.0000 0.3789
vn 0.2465 0.7594 -0.6022
vn 0.3789 -0.0000 -0.9254
vn -0.6196 0.7428 -0.2537
vn -0.9254 -0.0000 -0.3789
vn -0.2465 0.7594 0.6022
vn -0.3789 -0.0000 0.9254
vn 0.3476 0.7428 0.5722
vn 0.5191 -0.0000 0.8547
vn 0.5561 0.7593 -0.3378
vn 0.8547 -0.0000 -0.5191
vn -0.3476 0.7428 -0.5722
vn -0.5191 -0.0000 -0.8547
vn -0.5561 0.7593 0.3378
vn -0.8547 -0.0000 0.5191
vn 0.6507 0.7593 -0.0000
vn -0.6507 0.7593 -0.0000
vn -0.3003 0.7428 0.5984
vn -0.4485 -0.0000 0.8938
vn -0.4484 -0.0000 0.8938
vn 0.5816 0.7593 0.2918
vn 0.8938 -0.0000 0.4484
vn 0.3003 0.7428 -0.5984
vn 0.4484 -0.0000 -0.8938
vn 0.4485 -0.0000 -0.8938
vn -0.5816 0.7593 -0.2918
vn -0.8938 -0.0000 -0.4484
vn 0.2893 0.7428 0.6038
vn 0.4322 -0.0000 0.9018
vn 0.5868 0.7593 -0.2812
vn 0.9018 -0.0000 -0.4322
vn -0.2893 0.7428 -0.6038
vn -0.4322 -0.0000 -0.9018
vn -0.5868 0.7593 0.2812
vn -0.9018 -0.0000 0.4322
vn 0.3761 0.7428 0.5539
vn 0.5617 -0.0000 0.8273
vn 0.5383 0.7593 -0.3655
vn 0.8273 -0.0000 -0.5617
vn -0.3761 0.7428 -0.5539
vn -0.5617 -0.0000 -0.8273
vn -0.5618 -0.0000 -0.8273
vn -0.5383 0.7593 0.3655
vn -0.8273 -0.0000 0.5617
vn 0.5452 0.7428 0.3885
vn 0.8144 -0.0000 0.5803
vn 0.3776 0.7593 -0.5299
vn 0.5803 -0.0000 -0.8144
vn -0.5453 0.7428 -0.3885
vn -0.8144 -0.0000 -0.5803
vn -0.3776 0.7593 0.5299
vn -0.5803 -0.0000 0.8144
vn 0.1714 0.7428 0.6472
vn 0.2560 -0.0000 0.9667
vn 0.6290 0.7593 -0.1666
vn 0.9667 -0.0000 -0.2560
vn -0.1714 0.7428 -0.6472
vn -0.2560 -0.0000 -0.9667
vn -0.6290 0.7593 0.1666
vn -0.9667 -0.0000 0.2560
vn 0.0672 0.7428 0.6661
vn 0.1004 -0.0000 0.9949
vn 0.6474 0.7594 -0.0653
vn 0.9949 -0.0000 -0.1004
vn -0.0672 0.7428 -0.6661
vn -0.1004 -0.0000 -0.9949
vn -0.6474 0.7593 0.0653
vn -0.9949 -0.0000 0.1004
vn -0.6474 0.7594 0.0653
vn -0.4556 0.7428 0.4906
vn -0.6805 -0.0000 0.7327
vn -0.6805 -0.0000 0.7328
vn 0.4768 0.7594 0.4428
vn 0.7327 -0.0000 0.6805
vn 0.7328 -0.0000 0.6805
vn 0.4556 0.7428 -0.4906
vn 0.6805 -0.0000 -0.7327
vn 0.6805 -0.0000 -0.7328
vn -0.4768 0.7593 -0.4428
vn -0.7328 -0.0000 -0.6805
vn 0.5544 0.7428 0.3754
vn 0.8281 -0.0000 0.5606
vn 0.3648 0.7593 -0.5388
vn 0.5606 -0.0000 -0.8281
vn -0.5544 0.7428 -0.3754
vn -0.8281 -0.0000 -0.5606
vn -0.3648 0.7594 0.5388
vn -0.5606 -0.0000 0.8281
vn 0.1176 0.8953 0.4296
vn 0.2640 -0.0000 0.9645
vn 0.3417 0.9348 -0.0967
vn 0.9622 -0.0000 -0.2724
vn -0.1206 0.8895 -0.4407
vn -0.2640 -0.0000 -0.9645
vn -0.3388 0.9360 0.0959
vn -0.9622 -0.0000 0.2724
vn -0.0069 0.7428 0.6695
vn -0.0103 -0.0000 0.9999
vn 0.6507 0.7593 0.0067
vn 0.9999 -0.0000 0.0103
vn 0.0069 0.7428 -0.6695
vn 0.0103 -0.0000 -0.9999
vn -0.6506 0.7594 -0.0067
vn -0.9999 -0.0000 -0.0103
vn -0.6507 0.7593 -0.0067
vn -0.6692 0.7428 -0.0219
vn -0.9995 -0.0000 -0.0327
vn -0.0213 0.7593 0.6503
vn -0.0327 -0.0000 0.9995
vn 0.6692 0.7428 0.0219
vn 0.9995 -0.0000 0.0327
vn 0.0213 0.7593 -0.6503
vn 0.0327 -0.0000 -0.9995
vt 0.000500 1.500000
vt 0.999500 1.500000
vt 0.496993 1.997655
vt 0.979500 1.500000
vt 0.030000 1.500000
vt 0.979500 1.000500
vt 0.030000 1.000500
vt 0.000499 1.500000
vt 0.493301 1.995809
vt 0.969405 1.500000
vt 0.969405 1.000500
vt 0.498838 1.901678
vt 0.969500 1.500000
vt 0.020499 1.500000
vt 0.969500 1.000500
vt 0.020499 1.000500
vt 0.498838 1.997655
vt 0.030499 1.500000
vt 0.030499 1.000500
s 1
usemtl TENTA.005
f 1/1/1 2/2/1 3/3/1
f 2/4/2 1/5/2 4/6/2
f 5/7/2 4/6/2 1/5/2
f 2/8/3 6/2/3 3/9/3
f 6/10/4 2/5/4 7/11/4
f 4/7/4 7/11/4 2/5/4
f 6/8/5 8/2/5 3/12/5
f 8/13/6 6/14/6 9/15/6
f 7/16/6 9/15/6 6/14/6
f 8/8/7 1/2/7 3/17/7
f 1/4/8 8/18/8 5/6/8
f 9/19/8 5/6/8 8/18/8
f 10/1/9 11/2/9 12/3/9
f 11/4/10 10/5/10 13/6/10
f 14/7/10 13/6/10 10/5/10
f 11/8/11 15/2/11 12/9/11
f 15/10/12 11/5/12 16/11/12
f 13/7/12 16/11/12 11/5/12
f 15/8/13 17/2/13 12/12/13
f 17/13/14 15/14/14 18/15/14
f 16/16/14 18/15/14 15/14/14
f 17/8/15 10/2/15 12/17/15
f 10/4/16 17/18/16 14/6/16
f 18/19/16 14/6/16 17/18/16
f 19/1/9 20/2/9 21/3/9
f 20/4/10 19/5/10 22/6/10
f 23/7/10 22/6/10 19/5/10
f 20/8/11 24/2/11 21/9/11
f 24/10/12 20/5/12 25/11/12
f 22/7/12 25/11/12 20/5/12
f 24/8/13 26/2/13 21/12/13
f 26/13/14 24/14/14 27/15/14
f 25/16/14 27/15/14 24/14/14
f 26/8/15 19/2/15 21/17/15
f 19/4/16 26/18/16 23/6/16
f 27/19/16 23/6/16 26/18/16
f 28/1/17 29/2/17 30/3/17
f 29/4/18 28/5/18 31/6/18
f 32/7/18 31/6/18 28/5/18
f 29/8/19 33/2/19 30/9/19
f 33/10/20 29/5/20 34/11/20
f 31/7/20 34/11/20 29/5/20
f 33/8/21 35/2/21 30/12/21
f 35/13/22 33/14/22 36/15/22
f 34/16/22 36/15/22 33/14/22
f 35/8/23 28/2/23 30/17/23
f 28/4/24 35/18/24 32/6/24
f 36/19/24 32/6/24 35/18/24
f 37/1/25 38/2/25 39/3/25
f 38/4/26 37/5/26 40/6/26
f 41/7/26 40/6/26 37/5/26
f 38/8/27 42/2/27 39/9/27
f 42/10/28 38/5/28 43/11/28
f 40/7/28 43/11/28 38/5/28
f 42/8/29 44/2/29 39/12/29
f 44/13/30 42/14/30 45/15/30
f 43/16/30 45/15/30 42/14/30
f 44/8/31 37/2/31 39/17/31
f 37/4/32 44/18/32 41/6/32
f 45/19/32 41/6/32 44/18/32
f 46/1/1 47/2/1 48/3/1
f 47/4/2 46/5/2 49/6/2
f 50/7/2 49/6/2 46/5/2
f 47/8/33 51/2/33 48/9/33
f 51/10/4 47/5/4 52/11/4
f 49/7/4 52/11/4 47/5/4
f 51/8/5 53/2/5 48/12/5
f 53/13/6 51/14/6 54/15/6
f 52/16/6 54/15/6 51/14/6
f 53/8/34 46/2/34 48/17/34
f 46/4/8 53/18/8 50/6/8
f 54/19/8 50/6/8 53/18/8
f 55/1/1 56/2/1 57/3/1
f 56/4/2 55/5/2 58/6/2
f 59/7/2 58/6/2 55/5/2
f 56/8/33 60/2/33 57/9/33
f 60/10/4 56/5/4 61/11/4
f 58/7/4 61/11/4 56/5/4
f 60/8/5 62/2/5 57/12/5
f 62/13/6 60/14/6 63/15/6
f 61/16/6 63/15/6 60/14/6
f 62/8/34 55/2/34 57/17/34
f 55/4/8 62/18/8 59/6/8
f 63/19/8 59/6/8 62/18/8
f 64/1/1 65/2/1 66/3/1
f 65/4/2 64/5/2 67/6/2
f 68/7/2 67/6/2 64/5/2
f 65/8/3 69/2/3 66/9/3
f 69/10/4 65/5/4 70/11/4
f 67/7/4 70/11/4 65/5/4
f 69/8/5 71/2/5 66/12/5
f 71/13/6 69/14/6 72/15/6
f 70/16/6 72/15/6 69/14/6
f 71/8/7 64/2/7 66/17/7
f 64/4/8 71/18/8 68/6/8
f 72/19/8 68/6/8 71/18/8
f 73/1/1 74/2/1 75/3/1
f 74/4/2 73/5/2 76/6/2
f 77/7/2 76/6/2 73/5/2
f 74/8/33 78/2/33 75/9/33
f 78/10/4 74/5/4 79/11/4
f 76/7/4 79/11/4 74/5/4
f 78/8/5 80/2/5 75/12/5
f 80/13/6 78/14/6 81/15/6
f 79/16/6 81/15/6 78/14/6
f 80/8/34 73/2/34 75/17/34
f 73/4/8 80/18/8 77/6/8
f 81/19/8 77/6/8 80/18/8
f 82/1/35 83/2/35 84/3/35
f 83/4/36 82/5/36 85/6/36
f 86/7/37 85/6/37 82/5/37
f 83/8/38 87/2/38 84/9/38
f 87/10/39 83/5/39 88/11/39
f 85/7/39 88/11/39 83/5/39
f 87/8/40 89/2/40 84/12/40
f 89/13/41 87/14/41 90/15/41
f 88/16/42 90/15/42 87/14/42
f 89/8/43 82/2/43 84/17/43
f 82/4/44 89/18/44 86/6/44
f 90/19/44 86/6/44 89/18/44
f 91/1/45 92/2/45 93/3/45
f 92/4/46 91/5/46 94/6/46
f 95/7/46 94/6/46 91/5/46
f 92/8/47 96/2/47 93/9/47
f 96/10/48 92/5/48 97/11/48
f 94/7/48 97/11/48 92/5/48
f 96/8/49 98/2/49 93/12/49
f 98/13/50 96/14/50 99/15/50
f 97/16/50 99/15/50 96/14/50
f 98/8/51 91/2/51 93/17/51
f 91/4/52 98/18/52 95/6/52
f 99/19/52 95/6/52 98/18/52
f 100/1/53 101/2/53 102/3/53
f 101/4/54 100/5/54 103/6/54
f 104/7/54 103/6/54 100/5/54
f 101/8/55 105/2/55 102/9/55
f 105/10/56 101/5/56 106/11/56
f 103/7/56 106/11/56 101/5/56
f 105/8/57 107/2/57 102/12/57
f 107/13/58 105/14/58 108/15/58
f 106/16/59 108/15/59 105/14/59
f 107/8/60 100/2/60 102/17/60
f 100/4/61 107/18/61 104/6/61
f 108/19/61 104/6/61 107/18/61
f 109/1/62 110/2/62 111/3/62
f 110/4/63 109/5/63 112/6/63
f 113/7/63 112/6/63 109/5/63
f 110/8/64 114/2/64 111/9/64
f 114/10/65 110/5/65 115/11/65
f 112/7/65 115/11/65 110/5/65
f 114/8/66 116/2/66 111/12/66
f 116/13/67 114/14/67 117/15/67
f 115/16/67 117/15/67 114/14/67
f 116/8/68 109/2/68 111/17/68
f 109/4/69 116/18/69 113/6/69
f 117/19/69 113/6/69 116/18/69
f 118/1/70 119/2/70 120/3/70
f 119/4/71 118/5/71 121/6/71
f 122/7/71 121/6/71 118/5/71
f 119/8/72 123/2/72 120/9/72
f 123/10/73 119/5/73 124/11/73
f 121/7/73 124/11/73 119/5/73
f 123/8/74 125/2/74 120/12/74
f 125/13/75 123/14/75 126/15/75
f 124/16/75 126/15/75 123/14/75
f 125/8/76 118/2/76 120/17/76
f 118/4/77 125/18/77 122/6/77
f 126/19/77 122/6/77 125/18/77
f 127/1/78 128/2/78 129/3/78
f 128/4/79 127/5/79 130/6/79
f 131/7/79 130/6/79 127/5/79
f 128/8/80 132/2/80 129/9/80
f 132/10/81 128/5/81 133/11/81
f 130/7/81 133/11/81 128/5/81
f 132/8/82 134/2/82 129/12/82
f 134/13/83 132/14/83 135/15/83
f 133/16/83 135/15/83 132/14/83
f 134/8/84 127/2/84 129/17/84
f 127/4/85 134/18/85 131/6/85
f 135/19/85 131/6/85 134/18/85
f 136/1/78 137/2/78 138/3/78
f 137/4/79 136/5/79 139/6/79
f 140/7/79 139/6/79 136/5/79
f 137/8/80 141/2/80 138/9/80
f 141/10/81 137/5/81 142/11/81
f 139/7/81 142/11/81 137/5/81
f 141/8/82 143/2/82 138/12/82
f 143/13/83 141/14/83 144/15/83
f 142/16/83 144/15/83 141/14/83
f 143/8/86 136/2/86 138/17/86
f 136/4/85 143/18/85 140/6/85
f 144/19/85 140/6/85 143/18/85
f 145/1/1 146/2/1 147/3/1
f 146/4/2 145/5/2 148/6/2
f 149/7/2 148/6/2 145/5/2
f 146/8/33 150/2/33 147/9/33
f 150/10/4 146/5/4 151/11/4
f 148/7/4 151/11/4 146/5/4
f 150/8/5 152/2/5 147/12/5
f 152/13/6 150/14/6 153/15/6
f 151/16/6 153/15/6 150/14/6
f 152/8/34 145/2/34 147/17/34
f 145/4/8 152/18/8 149/6/8
f 153/19/8 149/6/8 152/18/8
f 154/1/1 155/2/1 156/3/1
f 155/4/2 154/5/2 157/6/2
f 158/7/2 157/6/2 154/5/2
f 155/8/33 159/2/33 156/9/33
f 159/10/4 155/5/4 160/11/4
f 157/7/4 160/11/4 155/5/4
f 159/8/5 161/2/5 156/12/5
f 161/13/6 159/14/6 162/15/6
f 160/16/6 162/15/6 159/14/6
f 161/8/34 154/2/34 156/17/34
f 154/4/8 161/18/8 158/6/8
f 162/19/8 158/6/8 161/18/8
f 163/1/87 164/2/87 165/3/87
f 164/4/88 163/5/88 166/6/88
f 167/7/89 166/6/89 163/5/89
f 164/8/90 168/2/90 165/9/90
f 168/10/91 164/5/91 169/11/91
f 166/7/92 169/11/92 164/5/92
f 168/8/93 170/2/93 165/12/93
f 170/13/94 168/14/94 171/15/94
f 169/16/95 171/15/95 168/14/95
f 170/8/96 163/2/96 165/17/96
f 163/4/97 170/18/97 167/6/97
f 171/19/97 167/6/97 170/18/97
f 172/1/98 173/2/98 174/3/98
f 173/4/99 172/5/99 175/6/99
f 176/7/99 175/6/99 172/5/99
f 173/8/100 177/2/100 174/9/100
f 177/10/101 173/5/101 178/11/101
f 175/7/101 178/11/101 173/5/101
f 177/8/102 179/2/102 174/12/102
f 179/13/103 177/14/103 180/15/103
f 178/16/103 180/15/103 177/14/103
f 179/8/104 172/2/104 174/17/104
f 172/4/105 179/18/105 176/6/105
f 180/19/105 176/6/105 179/18/105
f 181/1/1 182/2/1 183/3/1
f 182/4/2 181/5/2 184/6/2
f 185/7/2 184/6/2 181/5/2
f 182/8/3 186/2/3 183/9/3
f 186/10/4 182/5/4 187/11/4
f 184/7/4 187/11/4 182/5/4
f 186/8/5 188/2/5 183/12/5
f 188/13/6 186/14/6 189/15/6
f 187/16/6 189/15/6 186/14/6
f 188/8/34 181/2/34 183/17/34
f 181/4/8 188/18/8 185/6/8
f 189/19/8 185/6/8 188/18/8
f 190/1/78 191/2/78 192/3/78
f 191/4/79 190/5/79 193/6/79
f 194/7/79 193/6/79 190/5/79
f 191/8/80 195/2/80 192/9/80
f 195/10/81 191/5/81 196/11/81
f 193/7/81 196/11/81 191/5/81
f 195/8/82 197/2/82 192/12/82
f 197/13/83 195/14/83 198/15/83
f 196/16/83 198/15/83 195/14/83
f 197/8/86 190/2/86 192/17/86
f 190/4/85 197/18/85 194/6/85
f 198/19/85 194/6/85 197/18/85
f 199/1/106 200/2/106 201/3/106
f 200/4/107 199/5/107 202/6/107
f 203/7/107 202/6/107 199/5/107
f 200/8/108 204/2/108 201/9/108
f 204/10/109 200/5/109 205/11/109
f 202/7/109 205/11/109 200/5/109
f 204/8/110 206/2/110 201/12/110
f 206/13/111 204/14/111 207/15/111
f 205/16/111 207/15/111 204/14/111
f 206/8/112 199/2/112 201/17/112
f 199/4/113 206/18/113 203/6/113
f 207/19/113 203/6/113 206/18/113
f 208/1/114 209/2/114 210/3/114
f 209/4/115 208/5/115 211/6/115
f 212/7/115 211/6/115 208/5/115
f 209/8/116 213/2/116 210/9/116
f 213/10/117 209/5/117 214/11/117
f 211/7/117 214/11/117 209/5/117
f 213/8/118 215/2/118 210/12/118
f 215/13/119 213/14/119 216/15/119
f 214/16/119 216/15/119 213/14/119
f 215/8/120 208/2/120 210/17/120
f 208/4/121 215/18/121 212/6/121
f 216/19/121 212/6/121 215/18/121
f 217/1/114 218/2/114 219/3/114
f 218/4/115 217/5/115 220/6/115
f 221/7/115 220/6/115 217/5/115
f 218/8/116 222/2/116 219/9/116
f 222/10/117 218/5/117 223/11/117
f 220/7/117 223/11/117 218/5/117
f 222/8/118 224/2/118 219/12/118
f 224/13/119 222/14/119 225/15/119
f 223/16/119 225/15/119 222/14/119
f 224/8/122 217/2/122 219/17/122
f 217/4/121 224/18/121 221/6/121
f 225/19/121 221/6/121 224/18/121
f 226/1/123 227/2/123 228/3/123
f 227/4/124 226/5/124 229/6/124
f 230/7/124 229/6/124 226/5/124
f 227/8/125 231/2/125 228/9/125
f 231/10/126 227/5/126 232/11/126
f 229/7/126 232/11/126 227/5/126
f 231/8/127 233/2/127 228/12/127
f 233/13/128 231/14/128 234/15/128
f 232/16/128 234/15/128 231/14/128
f 233/8/129 226/2/129 228/17/129
f 226/4/130 233/18/130 230/6/130
f 234/19/130 230/6/130 233/18/130
f 235/1/123 236/2/123 237/3/123
f 236/4/124 235/5/124 238/6/124
f 239/7/124 238/6/124 235/5/124
f 236/8/125 240/2/125 237/9/125
f 240/10/126 236/5/126 241/11/126
f 238/7/126 241/11/126 236/5/126
f 240/8/127 242/2/127 237/12/127
f 242/13/128 240/14/128 243/15/128
f 241/16/128 243/15/128 240/14/128
f 242/8/129 235/2/129 237/17/129
f 235/4/130 242/18/130 239/6/130
f 243/19/130 239/6/130 242/18/130
f 244/1/1 245/2/1 246/3/1
f 245/4/2 244/5/2 247/6/2
f 248/7/2 247/6/2 244/5/2
f 245/8/33 249/2/33 246/9/33
f 249/10/4 245/5/4 250/11/4
f 247/7/4 250/11/4 245/5/4
f 249/8/5 251/2/5 246/12/5
f 251/13/6 249/14/6 252/15/6
f 250/16/6 252/15/6 249/14/6
f 251/8/7 244/2/7 246/17/7
f 244/4/8 251/18/8 248/6/8
f 252/19/8 248/6/8 251/18/8
