# Blender 4.4.3
# www.blender.org
mtllib TENTC.mtl
o TENTC
v 605.938721 -1.537889 -100.537979
v 609.825806 -1.537889 -100.537979
v 607.882263 0.127538 -102.385651
v 609.825806 -3.203317 -100.537979
v 605.938721 -3.203317 -100.537979
v 609.825806 -1.537889 -104.233330
v 609.825806 -3.203317 -104.233330
v 605.938721 -1.537889 -104.233330
v 605.938721 -3.203317 -104.233330
v 400.008423 -1.537886 -66.189323
v 402.112427 -1.537886 -69.457771
v 399.506805 0.127541 -68.823647
v 402.112427 -3.203314 -69.457771
v 400.008423 -3.203314 -66.189323
v 399.005188 -1.537886 -71.457970
v 399.005188 -3.203315 -71.457970
v 396.901215 -1.537886 -68.189522
v 396.901215 -3.203314 -68.189522
v 432.982941 -1.537889 -102.335236
v 435.086914 -1.537889 -105.603683
v 432.481323 0.127538 -104.969559
v 435.086914 -3.203317 -105.603683
v 432.982941 -3.203317 -102.335236
v 431.979706 -1.537889 -107.603882
v 431.979706 -3.203317 -107.603882
v 429.875732 -1.537889 -104.335434
v 429.875732 -3.203317 -104.335434
v 223.368042 14.713861 -430.014282
v 224.840958 14.713861 -433.611511
v 222.394608 16.379288 -432.513000
v 224.840958 13.048433 -433.611511
v 223.368042 13.048433 -430.014282
v 221.421173 14.713861 -435.011749
v 221.421173 13.048433 -435.011749
v 219.948273 14.713861 -431.414520
v 219.948273 13.048433 -431.414520
v 162.662140 16.201115 -481.399536
v 165.984406 16.201115 -483.417450
v 163.364075 17.866541 -483.987671
v 165.984406 14.535686 -483.417450
v 162.662140 14.535686 -481.399536
v 164.066010 16.201115 -486.575836
v 164.066010 14.535686 -486.575836
v 160.743759 16.201115 -484.557892
v 160.743759 14.535686 -484.557892
v 198.350983 14.826410 -442.613647
v 200.935822 14.826410 -445.516754
v 198.263443 16.491837 -445.293854
v 200.935822 13.160983 -445.516754
v 198.350983 13.160983 -442.613647
v 198.175903 14.826410 -447.974091
v 198.175903 13.160983 -447.974091
v 195.591064 14.826410 -445.070953
v 195.591064 13.160983 -445.070953
v 108.631111 0.017632 22.577803
v 112.518204 0.017632 22.577803
v 110.574654 1.683060 20.730129
v 112.518204 -1.647795 22.577803
v 108.631111 -1.647795 22.577803
v 112.518204 0.017631 18.882458
v 112.518204 -1.647796 18.882458
v 108.631111 0.017631 18.882458
v 108.631111 -1.647796 18.882458
v -114.795456 0.017628 -29.164684
v -110.908363 0.017628 -29.164684
v -112.851906 1.683056 -31.012358
v -110.908363 -1.647799 -29.164684
v -114.795456 -1.647799 -29.164684
v -110.908363 0.017628 -32.860031
v -110.908363 -1.647799 -32.860031
v -114.795456 0.017628 -32.860031
v -114.795456 -1.647799 -32.860031
v 5.788418 24.983255 -925.198425
v 11.480680 24.983255 -925.198425
v 8.634548 27.422108 -927.904175
v 11.480680 22.544403 -925.198425
v 5.788418 22.544403 -925.198425
v 11.480680 24.983255 -930.609924
v 11.480680 22.544403 -930.609924
v 5.788418 24.983255 -930.609924
v 5.788418 22.544403 -930.609924
v 299.143829 36.573483 -1026.074585
v 302.618164 36.573483 -1024.331421
v 301.709564 38.238911 -1026.854492
v 302.618164 34.908054 -1024.331421
v 299.143829 34.908054 -1026.074585
v 304.275299 36.573483 -1027.634399
v 304.275299 34.908054 -1027.634399
v 300.800964 36.573483 -1029.377441
v 300.800964 34.908054 -1029.377441
v 541.258728 34.027973 -759.580872
v 544.764099 34.027973 -761.260803
v 542.212891 35.693401 -762.087036
v 544.764099 32.362549 -761.260803
v 541.258728 32.362549 -759.580872
v 543.166992 34.027973 -764.593201
v 543.166992 32.362549 -764.593201
v 539.661682 34.027973 -762.913269
v 539.661682 32.362549 -762.913269
v 392.165955 31.215500 -761.350830
v 395.381805 31.215500 -763.534363
v 392.735962 32.880928 -763.971191
v 395.381805 29.550072 -763.534363
v 392.165955 29.550072 -761.350830
v 393.306000 31.215500 -766.591614
v 393.306000 29.550072 -766.591614
v 390.090118 31.215500 -764.408081
v 390.090118 29.550072 -764.408081
v 471.779175 32.264896 -819.168823
v 474.034912 32.264896 -822.334473
v 471.402313 33.930325 -821.823853
v 474.034912 30.599466 -822.334473
v 471.779175 30.599468 -819.168823
v 471.025452 32.264896 -824.478943
v 471.025452 30.599466 -824.478943
v 468.769714 32.264896 -821.313293
v 468.769714 30.599466 -821.313293
v 33.930603 36.046295 -495.320770
v 39.340622 36.046295 -495.774445
v 36.419968 38.372356 -498.119171
v 39.340622 33.720234 -495.774445
v 33.930603 33.720234 -495.320770
v 38.909336 36.046295 -500.917603
v 38.909336 33.720234 -500.917603
v 33.499313 36.046295 -500.463928
v 33.499313 33.720234 -500.463928
v -238.820618 21.486563 -502.089203
v -234.947113 21.486563 -502.414001
v -237.038269 23.151991 -504.092804
v -234.947113 19.821136 -502.414001
v -238.820618 19.821136 -502.089203
v -235.255920 21.486563 -506.096436
v -235.255920 19.821136 -506.096436
v -239.129410 21.486563 -505.771606
v -239.129410 19.821136 -505.771606
v 556.351685 -1.537886 -62.181709
v 560.238770 -1.537886 -62.181709
v 558.295227 0.127541 -64.029381
v 560.238770 -3.203314 -62.181709
v 556.351685 -3.203314 -62.181709
v 560.238770 -1.537886 -65.877060
v 560.238770 -3.203314 -65.877060
v 556.351685 -1.537886 -65.877060
v 556.351685 -3.203314 -65.877060
v 472.620239 -1.284416 -351.092834
v 473.323029 -1.284417 -354.915863
v 471.154419 0.381010 -353.338409
v 473.323029 -2.949845 -354.915863
v 472.620239 -2.949844 -351.092834
v 469.688568 -1.284417 -355.583984
v 469.688568 -2.949845 -355.583984
v 468.985779 -1.284417 -351.760925
v 468.985779 -2.949844 -351.760925
v 444.244598 -1.537879 21.842297
v 448.131683 -1.537879 21.842297
v 446.188141 0.127548 19.994623
v 448.131683 -3.203307 21.842297
v 444.244598 -3.203307 21.842297
v 448.131683 -1.537880 18.146950
v 448.131683 -3.203308 18.146950
v 444.244598 -1.537880 18.146950
v 444.244598 -3.203308 18.146950
v -218.039642 21.486576 -353.517273
v -214.166138 21.486576 -353.842102
v -216.257294 23.152004 -355.520874
v -214.166138 19.821148 -353.842102
v -218.039642 19.821148 -353.517273
v -214.474945 21.486576 -357.524506
v -214.474945 19.821148 -357.524506
v -218.348434 21.486576 -357.199677
v -218.348434 19.821148 -357.199677
v -22.176771 12.834939 -351.532043
v -18.303270 12.834939 -351.856842
v -20.394419 14.500366 -353.535645
v -18.303270 11.169511 -351.856842
v -22.176771 11.169511 -351.532043
v -18.612066 12.834939 -355.539276
v -18.612066 11.169511 -355.539276
v -22.485567 12.834939 -355.214447
v -22.485567 11.169511 -355.214447
v -288.106537 21.486563 -541.938965
v -284.233032 21.486563 -542.263794
v -286.324158 23.151989 -543.942566
v -284.233032 19.821136 -542.263794
v -288.106537 19.821136 -541.938965
v -284.541809 21.486561 -545.946228
v -284.541809 19.821135 -545.946228
v -288.415314 21.486561 -545.621399
v -288.415314 19.821135 -545.621399
v -289.797089 9.800665 -897.455811
v -289.431641 9.800665 -891.501587
v -286.784119 12.356546 -894.652405
v -289.431641 7.244781 -891.501587
v -289.797089 7.244780 -897.455811
v -283.771179 9.800665 -891.848999
v -283.771179 7.244781 -891.848999
v -284.136536 9.800665 -897.803162
v -284.136536 7.244780 -897.803162
v 157.755615 13.147106 -211.628845
v 164.726532 13.147106 -211.628845
v 161.241058 16.133801 -214.942383
v 164.726532 10.160413 -211.628845
v 157.755615 10.160413 -211.628845
v 164.726532 13.147106 -218.255905
v 164.726532 10.160413 -218.255905
v 157.755615 13.147106 -218.255905
v 157.755615 10.160413 -218.255905
v 179.901367 13.147106 -217.631836
v 186.872284 13.147106 -217.631836
v 183.386841 16.133801 -220.945358
v 186.872284 10.160413 -217.631836
v 179.901367 10.160413 -217.631836
v 186.872284 13.147105 -224.258881
v 186.872284 10.160412 -224.258881
v 179.901367 13.147105 -224.258881
v 179.901367 10.160412 -224.258881
v 202.067535 13.147105 -223.642197
v 209.038483 13.147105 -223.642197
v 205.553009 16.133801 -226.955719
v 209.038483 10.160412 -223.642197
v 202.067535 10.160412 -223.642197
v 209.038483 13.147105 -230.269226
v 209.038483 10.160412 -230.269226
v 202.067535 13.147105 -230.269226
v 202.067535 10.160412 -230.269226
v -246.436249 13.068424 -86.632416
v -242.549164 13.068424 -86.632416
v -244.492706 14.733851 -88.480087
v -242.549164 11.402997 -86.632416
v -246.436249 11.402997 -86.632416
v -242.549164 13.068424 -90.327759
v -242.549164 11.402997 -90.327759
v -246.436249 13.068424 -90.327759
v -246.436249 11.402997 -90.327759
vn -0.0000 0.7428 0.6695
vn -0.0000 -0.0000 1.0000
vn 0.6507 0.7594 -0.0000
vn 1.0000 -0.0000 -0.0000
vn -0.0000 0.7428 -0.6695
vn -0.0000 -0.0000 -1.0000
vn -0.6507 0.7594 -0.0000
vn -1.0000 -0.0000 -0.0000
vn 0.5630 0.7428 0.3624
vn 0.8408 -0.0000 0.5413
vn 0.3522 0.7593 -0.5471
vn 0.5413 -0.0000 -0.8408
vn -0.5630 0.7428 -0.3624
vn -0.8408 -0.0000 -0.5413
vn -0.3522 0.7594 0.5471
vn -0.5413 -0.0000 0.8408
vn -0.3522 0.7593 0.5471
vn 0.6196 0.7428 0.2537
vn 0.9254 -0.0000 0.3789
vn 0.2466 0.7593 -0.6022
vn 0.3789 -0.0000 -0.9254
vn -0.6196 0.7428 -0.2537
vn -0.9254 -0.0000 -0.3789
vn -0.2466 0.7593 0.6022
vn -0.3789 -0.0000 0.9254
vn 0.3476 0.7428 0.5722
vn 0.5191 -0.0000 0.8547
vn 0.5561 0.7594 -0.3378
vn 0.8547 -0.0000 -0.5191
vn -0.3476 0.7428 -0.5722
vn -0.5192 -0.0000 -0.8547
vn -0.5191 -0.0000 -0.8547
vn -0.5561 0.7594 0.3378
vn -0.8547 -0.0000 0.5191
vn 0.5000 0.7428 0.4452
vn 0.7469 -0.0000 0.6650
vn 0.4327 0.7593 -0.4860
vn 0.6650 -0.0000 -0.7469
vn -0.5000 0.7428 -0.4452
vn -0.7469 -0.0000 -0.6650
vn -0.4327 0.7593 0.4860
vn -0.6650 -0.0000 0.7469
vn 0.6507 0.7593 -0.0000
vn -0.6507 0.7593 -0.0000
vn -0.3002 0.7428 0.5984
vn -0.4484 -0.0000 0.8938
vn 0.5816 0.7594 0.2918
vn 0.8938 -0.0000 0.4484
vn 0.3002 0.7428 -0.5984
vn 0.4484 -0.0000 -0.8938
vn -0.5816 0.7593 -0.2918
vn -0.8938 -0.0000 -0.4484
vn -0.8938 -0.0000 -0.4485
vn 0.2894 0.7428 0.6038
vn 0.4322 -0.0000 0.9018
vn 0.5868 0.7594 -0.2812
vn 0.9018 -0.0000 -0.4322
vn -0.2894 0.7428 -0.6038
vn -0.4322 -0.0000 -0.9018
vn -0.5867 0.7594 0.2812
vn -0.9018 -0.0000 0.4322
vn 0.3761 0.7428 0.5539
vn 0.5617 -0.0000 0.8273
vn 0.5618 -0.0000 0.8273
vn 0.5383 0.7594 -0.3655
vn 0.8273 -0.0000 -0.5617
vn -0.3761 0.7428 -0.5539
vn -0.5617 -0.0000 -0.8273
vn -0.5383 0.7593 0.3655
vn -0.8273 -0.0000 0.5617
vn 0.5453 0.7428 0.3885
vn 0.8144 -0.0000 0.5803
vn 0.3776 0.7594 -0.5299
vn 0.5803 -0.0000 -0.8144
vn 0.5804 -0.0000 -0.8144
vn -0.5452 0.7428 -0.3885
vn -0.8144 -0.0000 -0.5803
vn -0.3776 0.7593 0.5299
vn -0.5803 -0.0000 0.8144
vn 0.0559 0.7428 0.6672
vn 0.0836 -0.0000 0.9965
vn 0.6484 0.7594 -0.0544
vn 0.9965 -0.0000 -0.0836
vn -0.0559 0.7428 -0.6672
vn -0.0836 -0.0000 -0.9965
vn -0.6484 0.7593 0.0544
vn -0.9965 -0.0000 0.0836
vn 0.0835 -0.0000 0.9965
vn 0.6484 0.7593 -0.0544
vn -0.0560 0.7428 -0.6672
vn -0.6484 0.7594 0.0544
vn 0.6585 0.7428 0.1211
vn 0.9835 -0.0000 0.1808
vn 0.1176 0.7593 -0.6400
vn 0.1808 -0.0000 -0.9835
vn -0.6585 0.7428 -0.1210
vn -0.9835 -0.0000 -0.1808
vn -0.1176 0.7593 0.6400
vn -0.1808 -0.0000 0.9835
vn 0.0560 0.7428 0.6672
vn -0.6682 0.7428 0.0410
vn -0.9981 -0.0000 0.0613
vn 0.0398 0.7593 0.6495
vn 0.0613 -0.0000 0.9981
vn 0.0612 -0.0000 0.9981
vn 0.6683 0.7428 -0.0410
vn 0.9981 -0.0000 -0.0612
vn -0.0399 0.7593 -0.6495
vn -0.0613 -0.0000 -0.9981
vn -0.0612 -0.0000 -0.9981
vt 0.000500 1.500000
vt 0.999500 1.500000
vt 0.496993 1.997655
vt 0.979500 1.500000
vt 0.030000 1.500000
vt 0.979500 1.000500
vt 0.030000 1.000500
vt 0.000499 1.500000
vt 0.493301 1.995809
vt 0.969405 1.500000
vt 0.969405 1.000500
vt 0.498838 1.901678
vt 0.969500 1.500000
vt 0.020499 1.500000
vt 0.969500 1.000500
vt 0.020499 1.000500
vt 0.498838 1.997655
vt 0.030499 1.500000
vt 0.030499 1.000500
s 1
usemtl TENTC.005
f 1/1/1 2/2/1 3/3/1
f 2/4/2 1/5/2 4/6/2
f 5/7/2 4/6/2 1/5/2
f 2/8/3 6/2/3 3/9/3
f 6/10/4 2/5/4 7/11/4
f 4/7/4 7/11/4 2/5/4
f 6/8/5 8/2/5 3/12/5
f 8/13/6 6/14/6 9/15/6
f 7/16/6 9/15/6 6/14/6
f 8/8/7 1/2/7 3/17/7
f 1/4/8 8/18/8 5/6/8
f 9/19/8 5/6/8 8/18/8
f 10/1/9 11/2/9 12/3/9
f 11/4/10 10/5/10 13/6/10
f 14/7/10 13/6/10 10/5/10
f 11/8/11 15/2/11 12/9/11
f 15/10/12 11/5/12 16/11/12
f 13/7/12 16/11/12 11/5/12
f 15/8/13 17/2/13 12/12/13
f 17/13/14 15/14/14 18/15/14
f 16/16/14 18/15/14 15/14/14
f 17/8/15 10/2/15 12/17/15
f 10/4/16 17/18/16 14/6/16
f 18/19/16 14/6/16 17/18/16
f 19/1/9 20/2/9 21/3/9
f 20/4/10 19/5/10 22/6/10
f 23/7/10 22/6/10 19/5/10
f 20/8/11 24/2/11 21/9/11
f 24/10/12 20/5/12 25/11/12
f 22/7/12 25/11/12 20/5/12
f 24/8/13 26/2/13 21/12/13
f 26/13/14 24/14/14 27/15/14
f 25/16/14 27/15/14 24/14/14
f 26/8/17 19/2/17 21/17/17
f 19/4/16 26/18/16 23/6/16
f 27/19/16 23/6/16 26/18/16
f 28/1/18 29/2/18 30/3/18
f 29/4/19 28/5/19 31/6/19
f 32/7/19 31/6/19 28/5/19
f 29/8/20 33/2/20 30/9/20
f 33/10/21 29/5/21 34/11/21
f 31/7/21 34/11/21 29/5/21
f 33/8/22 35/2/22 30/12/22
f 35/13/23 33/14/23 36/15/23
f 34/16/23 36/15/23 33/14/23
f 35/8/24 28/2/24 30/17/24
f 28/4/25 35/18/25 32/6/25
f 36/19/25 32/6/25 35/18/25
f 37/1/26 38/2/26 39/3/26
f 38/4/27 37/5/27 40/6/27
f 41/7/27 40/6/27 37/5/27
f 38/8/28 42/2/28 39/9/28
f 42/10/29 38/5/29 43/11/29
f 40/7/29 43/11/29 38/5/29
f 42/8/30 44/2/30 39/12/30
f 44/13/31 42/14/31 45/15/31
f 43/16/32 45/15/32 42/14/32
f 44/8/33 37/2/33 39/17/33
f 37/4/34 44/18/34 41/6/34
f 45/19/34 41/6/34 44/18/34
f 46/1/35 47/2/35 48/3/35
f 47/4/36 46/5/36 49/6/36
f 50/7/36 49/6/36 46/5/36
f 47/8/37 51/2/37 48/9/37
f 51/10/38 47/5/38 52/11/38
f 49/7/38 52/11/38 47/5/38
f 51/8/39 53/2/39 48/12/39
f 53/13/40 51/14/40 54/15/40
f 52/16/40 54/15/40 51/14/40
f 53/8/41 46/2/41 48/17/41
f 46/4/42 53/18/42 50/6/42
f 54/19/42 50/6/42 53/18/42
f 55/1/1 56/2/1 57/3/1
f 56/4/2 55/5/2 58/6/2
f 59/7/2 58/6/2 55/5/2
f 56/8/43 60/2/43 57/9/43
f 60/10/4 56/5/4 61/11/4
f 58/7/4 61/11/4 56/5/4
f 60/8/5 62/2/5 57/12/5
f 62/13/6 60/14/6 63/15/6
f 61/16/6 63/15/6 60/14/6
f 62/8/44 55/2/44 57/17/44
f 55/4/8 62/18/8 59/6/8
f 63/19/8 59/6/8 62/18/8
f 64/1/1 65/2/1 66/3/1
f 65/4/2 64/5/2 67/6/2
f 68/7/2 67/6/2 64/5/2
f 65/8/43 69/2/43 66/9/43
f 69/10/4 65/5/4 70/11/4
f 67/7/4 70/11/4 65/5/4
f 69/8/5 71/2/5 66/12/5
f 71/13/6 69/14/6 72/15/6
f 70/16/6 72/15/6 69/14/6
f 71/8/44 64/2/44 66/17/44
f 64/4/8 71/18/8 68/6/8
f 72/19/8 68/6/8 71/18/8
f 73/1/1 74/2/1 75/3/1
f 74/4/2 73/5/2 76/6/2
f 77/7/2 76/6/2 73/5/2
f 74/8/43 78/2/43 75/9/43
f 78/10/4 74/5/4 79/11/4
f 76/7/4 79/11/4 74/5/4
f 78/8/5 80/2/5 75/12/5
f 80/13/6 78/14/6 81/15/6
f 79/16/6 81/15/6 78/14/6
f 80/8/44 73/2/44 75/17/44
f 73/4/8 80/18/8 77/6/8
f 81/19/8 77/6/8 80/18/8
f 82/1/45 83/2/45 84/3/45
f 83/4/46 82/5/46 85/6/46
f 86/7/46 85/6/46 82/5/46
f 83/8/47 87/2/47 84/9/47
f 87/10/48 83/5/48 88/11/48
f 85/7/48 88/11/48 83/5/48
f 87/8/49 89/2/49 84/12/49
f 89/13/50 87/14/50 90/15/50
f 88/16/50 90/15/50 87/14/50
f 89/8/51 82/2/51 84/17/51
f 82/4/52 89/18/52 86/6/52
f 90/19/53 86/6/53 89/18/53
f 91/1/54 92/2/54 93/3/54
f 92/4/55 91/5/55 94/6/55
f 95/7/55 94/6/55 91/5/55
f 92/8/56 96/2/56 93/9/56
f 96/10/57 92/5/57 97/11/57
f 94/7/57 97/11/57 92/5/57
f 96/8/58 98/2/58 93/12/58
f 98/13/59 96/14/59 99/15/59
f 97/16/59 99/15/59 96/14/59
f 98/8/60 91/2/60 93/17/60
f 91/4/61 98/18/61 95/6/61
f 99/19/61 95/6/61 98/18/61
f 100/1/62 101/2/62 102/3/62
f 101/4/63 100/5/63 103/6/63
f 104/7/64 103/6/64 100/5/64
f 101/8/65 105/2/65 102/9/65
f 105/10/66 101/5/66 106/11/66
f 103/7/66 106/11/66 101/5/66
f 105/8/67 107/2/67 102/12/67
f 107/13/68 105/14/68 108/15/68
f 106/16/68 108/15/68 105/14/68
f 107/8/69 100/2/69 102/17/69
f 100/4/70 107/18/70 104/6/70
f 108/19/70 104/6/70 107/18/70
f 109/1/71 110/2/71 111/3/71
f 110/4/72 109/5/72 112/6/72
f 113/7/72 112/6/72 109/5/72
f 110/8/73 114/2/73 111/9/73
f 114/10/74 110/5/74 115/11/74
f 112/7/75 115/11/75 110/5/75
f 114/8/76 116/2/76 111/12/76
f 116/13/77 114/14/77 117/15/77
f 115/16/77 117/15/77 114/14/77
f 116/8/78 109/2/78 111/17/78
f 109/4/79 116/18/79 113/6/79
f 117/19/79 113/6/79 116/18/79
f 118/1/80 119/2/80 120/3/80
f 119/4/81 118/5/81 121/6/81
f 122/7/81 121/6/81 118/5/81
f 119/8/82 123/2/82 120/9/82
f 123/10/83 119/5/83 124/11/83
f 121/7/83 124/11/83 119/5/83
f 123/8/84 125/2/84 120/12/84
f 125/13/85 123/14/85 126/15/85
f 124/16/85 126/15/85 123/14/85
f 125/8/86 118/2/86 120/17/86
f 118/4/87 125/18/87 122/6/87
f 126/19/87 122/6/87 125/18/87
f 127/1/80 128/2/80 129/3/80
f 128/4/81 127/5/81 130/6/81
f 131/7/88 130/6/88 127/5/88
f 128/8/89 132/2/89 129/9/89
f 132/10/83 128/5/83 133/11/83
f 130/7/83 133/11/83 128/5/83
f 132/8/90 134/2/90 129/12/90
f 134/13/85 132/14/85 135/15/85
f 133/16/85 135/15/85 132/14/85
f 134/8/91 127/2/91 129/17/91
f 127/4/87 134/18/87 131/6/87
f 135/19/87 131/6/87 134/18/87
f 136/1/1 137/2/1 138/3/1
f 137/4/2 136/5/2 139/6/2
f 140/7/2 139/6/2 136/5/2
f 137/8/3 141/2/3 138/9/3
f 141/10/4 137/5/4 142/11/4
f 139/7/4 142/11/4 137/5/4
f 141/8/5 143/2/5 138/12/5
f 143/13/6 141/14/6 144/15/6
f 142/16/6 144/15/6 141/14/6
f 143/8/7 136/2/7 138/17/7
f 136/4/8 143/18/8 140/6/8
f 144/19/8 140/6/8 143/18/8
f 145/1/92 146/2/92 147/3/92
f 146/4/93 145/5/93 148/6/93
f 149/7/93 148/6/93 145/5/93
f 146/8/94 150/2/94 147/9/94
f 150/10/95 146/5/95 151/11/95
f 148/7/95 151/11/95 146/5/95
f 150/8/96 152/2/96 147/12/96
f 152/13/97 150/14/97 153/15/97
f 151/16/97 153/15/97 150/14/97
f 152/8/98 145/2/98 147/17/98
f 145/4/99 152/18/99 149/6/99
f 153/19/99 149/6/99 152/18/99
f 154/1/1 155/2/1 156/3/1
f 155/4/2 154/5/2 157/6/2
f 158/7/2 157/6/2 154/5/2
f 155/8/43 159/2/43 156/9/43
f 159/10/4 155/5/4 160/11/4
f 157/7/4 160/11/4 155/5/4
f 159/8/5 161/2/5 156/12/5
f 161/13/6 159/14/6 162/15/6
f 160/16/6 162/15/6 159/14/6
f 161/8/44 154/2/44 156/17/44
f 154/4/8 161/18/8 158/6/8
f 162/19/8 158/6/8 161/18/8
f 163/1/100 164/2/100 165/3/100
f 164/4/81 163/5/81 166/6/81
f 167/7/81 166/6/81 163/5/81
f 164/8/89 168/2/89 165/9/89
f 168/10/83 164/5/83 169/11/83
f 166/7/83 169/11/83 164/5/83
f 168/8/84 170/2/84 165/12/84
f 170/13/85 168/14/85 171/15/85
f 169/16/85 171/15/85 168/14/85
f 170/8/86 163/2/86 165/17/86
f 163/4/87 170/18/87 167/6/87
f 171/19/87 167/6/87 170/18/87
f 172/1/80 173/2/80 174/3/80
f 173/4/81 172/5/81 175/6/81
f 176/7/81 175/6/81 172/5/81
f 173/8/89 177/2/89 174/9/89
f 177/10/83 173/5/83 178/11/83
f 175/7/83 178/11/83 173/5/83
f 177/8/90 179/2/90 174/12/90
f 179/13/85 177/14/85 180/15/85
f 178/16/85 180/15/85 177/14/85
f 179/8/86 172/2/86 174/17/86
f 172/4/87 179/18/87 176/6/87
f 180/19/87 176/6/87 179/18/87
f 181/1/80 182/2/80 183/3/80
f 182/4/81 181/5/81 184/6/81
f 185/7/81 184/6/81 181/5/81
f 182/8/89 186/2/89 183/9/89
f 186/10/83 182/5/83 187/11/83
f 184/7/83 187/11/83 182/5/83
f 186/8/90 188/2/90 183/12/90
f 188/13/85 186/14/85 189/15/85
f 187/16/85 189/15/85 186/14/85
f 188/8/91 181/2/91 183/17/91
f 181/4/87 188/18/87 185/6/87
f 189/19/87 185/6/87 188/18/87
f 190/1/101 191/2/101 192/3/101
f 191/4/102 190/5/102 193/6/102
f 194/7/102 193/6/102 190/5/102
f 191/8/103 195/2/103 192/9/103
f 195/10/104 191/5/104 196/11/104
f 193/7/105 196/11/105 191/5/105
f 195/8/106 197/2/106 192/12/106
f 197/13/107 195/14/107 198/15/107
f 196/16/107 198/15/107 195/14/107
f 197/8/108 190/2/108 192/17/108
f 190/4/109 197/18/109 194/6/109
f 198/19/110 194/6/110 197/18/110
f 199/1/1 200/2/1 201/3/1
f 200/4/2 199/5/2 202/6/2
f 203/7/2 202/6/2 199/5/2
f 200/8/43 204/2/43 201/9/43
f 204/10/4 200/5/4 205/11/4
f 202/7/4 205/11/4 200/5/4
f 204/8/5 206/2/5 201/12/5
f 206/13/6 204/14/6 207/15/6
f 205/16/6 207/15/6 204/14/6
f 206/8/44 199/2/44 201/17/44
f 199/4/8 206/18/8 203/6/8
f 207/19/8 203/6/8 206/18/8
f 208/1/1 209/2/1 210/3/1
f 209/4/2 208/5/2 211/6/2
f 212/7/2 211/6/2 208/5/2
f 209/8/43 213/2/43 210/9/43
f 213/10/4 209/5/4 214/11/4
f 211/7/4 214/11/4 209/5/4
f 213/8/5 215/2/5 210/12/5
f 215/13/6 213/14/6 216/15/6
f 214/16/6 216/15/6 213/14/6
f 215/8/7 208/2/7 210/17/7
f 208/4/8 215/18/8 212/6/8
f 216/19/8 212/6/8 215/18/8
f 217/1/1 218/2/1 219/3/1
f 218/4/2 217/5/2 220/6/2
f 221/7/2 220/6/2 217/5/2
f 218/8/43 222/2/43 219/9/43
f 222/10/4 218/5/4 223/11/4
f 220/7/4 223/11/4 218/5/4
f 222/8/5 224/2/5 219/12/5
f 224/13/6 222/14/6 225/15/6
f 223/16/6 225/15/6 222/14/6
f 224/8/44 217/2/44 219/17/44
f 217/4/8 224/18/8 221/6/8
f 225/19/8 221/6/8 224/18/8
f 226/1/1 227/2/1 228/3/1
f 227/4/2 226/5/2 229/6/2
f 230/7/2 229/6/2 226/5/2
f 227/8/43 231/2/43 228/9/43
f 231/10/4 227/5/4 232/11/4
f 229/7/4 232/11/4 227/5/4
f 231/8/5 233/2/5 228/12/5
f 233/13/6 231/14/6 234/15/6
f 232/16/6 234/15/6 231/14/6
f 233/8/44 226/2/44 228/17/44
f 226/4/8 233/18/8 230/6/8
f 234/19/8 230/6/8 233/18/8
