# Blender 4.4.3
# www.blender.org
mtllib TENTD.mtl
o TENTD
v 321.398773 12.959115 -227.538956
v 327.329376 12.981471 -233.953278
v 320.342316 15.406464 -232.323959
v 327.363556 10.543139 -233.990234
v 321.432953 10.520783 -227.575928
v 321.381256 12.981471 -239.452805
v 315.450714 12.959115 -233.038467
v 315.484894 10.520783 -233.075439
v 321.415436 10.543139 -239.489761
v 333.032928 12.991858 -240.122009
v 328.111481 15.427479 -240.726776
v 333.067108 10.553525 -240.158981
v 327.084808 12.991858 -245.621552
v 327.118988 10.553525 -245.658524
v 276.446136 12.384765 -335.928436
v 280.775360 12.407123 -328.340759
v 281.327057 14.832112 -335.494019
v 280.800323 9.968790 -328.296997
v 276.471100 9.946433 -335.884705
v 287.811554 12.407123 -332.355286
v 283.482330 12.384765 -339.943024
v 283.507294 9.946433 -339.899292
v 287.836517 9.968790 -332.311584
v 284.938873 12.417510 -321.043518
v 286.998444 14.853130 -325.554077
v 284.963837 9.979177 -320.999817
v 291.975067 12.417509 -325.058105
v 291.999969 9.979177 -325.014374
v 130.773956 12.959124 -113.200493
v 139.030151 12.981481 -116.055481
v 132.101471 15.406472 -117.917503
v 139.077728 10.543148 -116.071938
v 130.821533 10.520792 -113.216957
v 136.382660 12.981480 -123.711563
v 128.126495 12.959123 -120.856567
v 128.174072 10.520791 -120.873032
v 136.430267 10.543147 -123.728020
v 146.970245 12.991868 -118.801163
v 142.917145 15.427487 -121.657555
v 147.017822 10.553535 -118.817619
v 144.322784 12.991867 -126.457245
v 144.370361 10.553534 -126.473694
v -98.177353 12.120498 -238.677658
v -89.441681 12.142855 -238.620911
v -95.355072 14.567845 -242.683563
v -89.391296 9.704522 -238.620590
v -98.126999 9.682166 -238.677338
v -89.389069 12.142854 -246.721649
v -98.124725 12.120497 -246.778366
v -98.074387 9.682165 -246.778046
v -89.338684 9.704521 -246.721313
v -81.040405 12.153241 -238.566330
v -83.911224 14.588862 -242.609222
v -80.990082 9.714910 -238.565994
v -80.987793 12.153240 -246.667053
v -80.937408 9.714909 -246.666733
v -98.133774 11.986349 -254.060791
v -89.398087 12.008707 -254.004044
v -95.311508 14.433698 -258.066681
v -89.347702 9.570374 -254.003708
v -98.083435 9.548018 -254.060471
v -89.345459 12.008706 -262.104767
v -98.081161 11.986348 -262.161499
v -98.030792 9.548017 -262.161194
v -89.295090 9.570374 -262.104431
v -80.996811 12.019094 -253.949463
v -83.867676 14.454714 -257.992371
v -80.946487 9.580761 -253.949127
v -80.944183 12.019093 -262.050171
v -80.893860 9.580760 -262.049866
v -118.053665 11.986362 -87.679321
v -109.317795 12.008719 -87.679321
v -115.257462 14.433710 -91.703476
v -109.267441 9.570387 -87.679321
v -118.003311 9.548030 -87.679321
v -109.317795 12.008718 -95.780228
v -118.053665 11.986361 -95.780220
v -118.003311 9.548029 -95.780220
v -109.267441 9.570386 -95.780228
v -100.916367 12.019106 -87.679321
v -103.813400 14.454726 -91.703476
v -100.866013 9.580773 -87.679321
v -100.916367 12.019105 -95.780220
v -100.866013 9.580772 -95.780220
v -221.857254 13.928266 -87.679230
v -213.121384 13.950624 -87.679230
v -219.061066 16.375612 -91.703377
v -213.071014 11.512290 -87.679230
v -221.806915 11.489933 -87.679230
v -213.121384 13.950623 -95.780136
v -221.857254 13.928265 -95.780128
v -221.806915 11.489932 -95.780128
v -213.071045 11.512289 -95.780136
v -204.719940 13.961008 -87.679230
v -207.616989 16.396629 -91.703377
v -204.669586 11.522676 -87.679230
v -204.719955 13.961007 -95.780128
v -204.669586 11.522676 -95.780128
v -195.742981 13.928266 -87.679230
v -187.007111 13.950624 -87.679230
v -192.946793 16.375612 -91.703377
v -186.956772 11.512290 -87.679230
v -195.692642 11.489933 -87.679230
v -187.007111 13.950623 -95.780136
v -195.742981 13.928265 -95.780136
v -195.692642 11.489932 -95.780136
v -186.956772 11.512289 -95.780136
v -178.605698 13.961008 -87.679230
v -181.502731 16.396629 -91.703377
v -178.555344 11.522676 -87.679230
v -178.605698 13.961007 -95.780128
v -178.555344 11.522676 -95.780128
v 1017.654175 16.663078 -315.785492
v 1015.085327 17.922003 -329.139343
v 1010.664673 20.650904 -318.953369
v 1015.085327 14.124964 -329.139343
v 1017.654175 12.866038 -315.785492
v 1002.700073 17.922003 -326.756897
v 1005.268921 16.663078 -313.403046
v 1005.268921 12.866038 -313.403015
v 1002.700073 14.124964 -326.756866
v 1012.614990 19.296667 -341.981598
v 1007.299561 22.685102 -336.446747
v 1012.614990 15.499626 -341.981598
v 1000.229736 19.296669 -339.599152
v 1000.229736 15.499626 -339.599152
v -6.267395 7.343144 197.233002
v 3.735657 7.368744 197.233002
v -3.065552 10.145468 192.625183
v 3.793274 4.576741 197.233002
v -6.209656 4.551142 197.233002
v 3.735657 7.368743 187.957092
v -6.267395 7.343143 187.957092
v -6.209656 4.551141 187.957092
v 3.793274 4.576740 187.957092
v 13.355652 7.011121 197.233002
v 10.038452 9.800018 192.625183
v 13.413330 4.219120 197.233002
v 13.355652 7.011120 187.957092
v 13.413330 4.219119 187.957092
v 37.132141 6.569103 197.233002
v 47.135132 6.594702 197.233002
v 40.333923 9.371427 192.625183
v 47.192749 3.802700 197.233002
v 37.189758 3.777100 197.233002
v 47.135132 6.594701 187.957092
v 37.132141 6.569101 187.957092
v 37.189758 3.777099 187.957092
v 47.192749 3.802698 187.957092
v 56.755127 6.237079 197.233002
v 53.437866 9.025976 192.625183
v 56.812805 3.445078 197.233002
v 56.755127 6.237078 187.957092
v 56.812805 3.445077 187.957092
v -26.085938 7.886156 189.492767
v -21.468750 10.688481 192.681030
v -26.085754 5.094154 189.550415
v -16.780823 7.911757 199.468567
v -16.810059 7.886155 189.465607
v -16.809875 5.094154 189.523254
v -26.056641 7.911756 199.495728
v -26.028503 7.554134 209.115662
v -21.430420 10.343032 205.784973
v -26.028320 4.762133 209.173340
v -26.056519 5.119754 199.553375
v -16.752625 7.554134 209.088501
v -16.752441 4.762133 209.146179
v -16.780579 5.119754 199.526245
v 594.636963 -0.815496 -89.861893
v 603.372681 -0.884078 -89.861893
v 597.457336 1.599483 -93.886040
v 603.398926 -3.322789 -89.861893
v 594.663208 -3.254207 -89.861893
v 603.372681 -0.884078 -97.962799
v 594.636963 -0.815496 -97.962799
v 594.663208 -3.254207 -97.962799
v 603.398926 -3.322789 -97.962799
v 611.773560 -0.934388 -89.861893
v 608.900879 1.519239 -93.886040
v 611.799805 -3.373099 -89.861893
v 611.773560 -0.934388 -97.962799
v 611.799805 -3.373099 -97.962799
v 402.868011 -0.815493 -50.907639
v 407.596466 -0.884075 -58.253025
v 401.010925 1.599486 -55.457268
v 407.610657 -3.322786 -58.275070
v 402.882202 -3.254204 -50.929688
v 400.784851 -0.884076 -62.637844
v 396.056427 -0.815493 -55.292458
v 396.070618 -3.254204 -55.314499
v 400.799042 -3.322787 -62.659885
v 412.143646 -0.934386 -65.316864
v 407.205048 1.519241 -65.079552
v 412.157837 -3.373097 -65.338913
v 405.332031 -0.934386 -69.701683
v 405.346222 -3.373097 -69.723732
v 439.171753 -0.815497 -111.702766
v 443.900177 -0.884080 -119.048149
v 437.314636 1.599481 -116.252396
v 443.914368 -3.322791 -119.070198
v 439.185944 -3.254208 -111.724815
v 437.088562 -0.884080 -123.432968
v 432.360138 -0.815498 -116.087585
v 432.374329 -3.254209 -116.109627
v 437.102753 -3.322791 -123.455017
v 448.447357 -0.934391 -126.111992
v 443.508759 1.519236 -125.874680
v 448.461548 -3.373101 -126.134033
v 441.635742 -0.934391 -130.496811
v 441.649963 -3.373102 -130.518860
v 228.965530 15.436254 -415.509949
v 232.275696 15.367669 -423.594208
v 226.310150 17.851231 -419.644806
v 232.285629 12.928960 -423.618500
v 228.975464 12.997542 -415.534210
v 224.778885 15.367669 -426.663849
v 221.468719 15.436254 -418.579559
v 221.478653 12.997542 -418.603821
v 224.788818 12.928960 -426.688110
v 235.458969 15.317360 -431.368622
v 230.646393 17.770987 -430.235016
v 235.468903 12.878649 -431.392883
v 227.962173 15.317360 -434.438263
v 227.972107 12.878649 -434.462524
v 158.545044 16.378040 -466.407623
v 166.011383 16.309456 -470.942657
v 158.866455 18.793016 -471.311157
v 166.033798 13.870746 -470.956268
v 158.567459 13.939327 -466.421234
v 161.805908 16.309456 -477.866425
v 154.339569 16.378038 -473.331390
v 154.361969 13.939327 -473.345001
v 161.828308 13.870745 -477.880035
v 173.191544 16.259146 -475.303864
v 168.647202 18.712772 -477.251953
v 173.213959 13.820435 -475.317474
v 168.986053 16.259146 -482.227631
v 169.008469 13.820435 -482.241241
v -86.771576 0.302599 -30.794624
v -79.683052 0.302599 -30.794624
v -84.461777 2.281864 -34.060448
v -79.683052 -1.676667 -30.794624
v -86.771576 -1.676667 -30.794624
v -79.683052 0.302598 -37.368965
v -86.771576 0.302598 -37.368965
v -86.771576 -1.676668 -37.368965
v -79.683052 -1.676668 -37.368965
v -72.866096 0.302599 -30.794624
v -75.175896 2.281864 -34.060448
v -72.866096 -1.676667 -30.794624
v -72.866096 0.302598 -37.368965
v -72.866096 -1.676668 -37.368965
v 51.521820 25.220566 -921.709106
v 61.902248 25.220566 -921.709106
v 54.904285 28.119001 -926.491577
v 61.902248 22.322128 -921.709106
v 51.521820 22.322128 -921.709106
v 61.902248 25.220564 -931.336548
v 51.521820 25.220564 -931.336548
v 51.521820 22.322126 -931.336548
v 61.902248 22.322126 -931.336548
v 71.885010 25.220566 -921.709106
v 68.502533 28.119001 -926.491577
v 71.885010 22.322128 -921.709106
v 71.885010 25.220564 -931.336548
v 71.885010 22.322126 -931.336548
v 332.828888 36.858456 -1015.066528
v 338.508453 36.858456 -1010.825134
v 336.633667 38.837719 -1016.301208
v 338.508453 34.879189 -1010.825134
v 332.828888 34.879189 -1015.066528
v 342.442200 36.858456 -1016.092773
v 336.762634 36.858456 -1020.334167
v 336.762634 34.879189 -1020.334167
v 342.442200 34.879189 -1016.092773
v 343.970459 36.858456 -1006.746216
v 344.073853 38.837719 -1010.744995
v 343.970459 34.879189 -1006.746216
v 347.904205 36.858456 -1012.013855
v 347.904205 34.879189 -1012.013855
v 567.200439 34.113792 -829.575867
v 571.503784 34.113792 -823.943054
v 571.197876 36.093060 -829.723022
v 571.503784 32.134529 -823.943054
v 567.200439 32.134529 -829.575867
v 576.728027 34.113792 -827.934204
v 572.424683 34.113792 -833.567017
v 572.424683 32.134529 -833.567017
v 576.728027 32.134529 -827.934204
v 575.642212 34.113792 -818.526001
v 576.835144 36.093060 -822.344116
v 575.642212 32.134529 -818.526001
v 580.866455 34.113792 -822.517151
v 580.866455 32.134529 -822.517151
v 545.106995 34.113789 -857.042908
v 549.104431 36.093056 -857.190063
v 545.106995 32.134525 -857.042908
v 554.634583 34.113789 -855.401245
v 550.331238 34.113789 -861.034058
v 550.331238 32.134525 -861.034058
v 554.634583 32.134525 -855.401245
v 549.410339 34.113789 -851.410034
v 553.548767 34.113789 -845.993042
v 554.741699 36.093056 -849.811096
v 553.548767 32.134525 -845.993042
v 549.410339 32.134525 -851.410034
v 558.773010 34.113789 -849.984192
v 558.773010 32.134525 -849.984192
v 518.529968 34.880508 -884.365784
v 522.527405 36.859776 -884.512939
v 518.529968 32.901241 -884.365784
v 528.057556 34.880512 -882.724121
v 523.754211 34.880508 -888.356934
v 523.754211 32.901241 -888.356934
v 528.057556 32.901245 -882.724121
v 522.833313 34.880512 -878.732910
v 526.971741 34.880512 -873.315918
v 528.164673 36.859779 -877.134033
v 526.971741 32.901245 -873.315918
v 522.833313 32.901245 -878.732910
v 532.195984 34.880512 -877.307068
v 532.195984 32.901245 -877.307068
v 451.491272 32.148781 -790.986206
v 457.963531 32.148781 -793.877014
v 452.268372 34.128044 -794.910095
v 457.963531 30.169516 -793.877014
v 451.491272 30.169516 -790.986206
v 455.282379 32.148781 -799.879822
v 448.810120 32.148781 -796.988953
v 448.810120 30.169514 -796.988953
v 455.282379 30.169514 -799.879822
v 464.187836 32.148781 -796.657104
v 460.746979 34.128044 -798.697021
v 464.187836 30.169514 -796.657104
v 461.506683 32.148781 -802.659912
v 461.506683 30.169514 -802.659912
v 446.657532 32.148781 -801.260742
v 453.129791 32.148781 -804.151550
v 447.434662 34.128044 -805.184631
v 453.129791 30.169514 -804.151550
v 446.657532 30.169514 -801.260742
v 450.448639 32.148781 -810.154358
v 443.976379 32.148781 -807.263489
v 443.976379 30.169514 -807.263489
v 450.448639 30.169514 -810.154358
v 459.354095 32.148781 -806.931641
v 455.913239 34.128044 -808.971558
v 459.354095 30.169514 -806.931641
v 456.672943 32.148781 -812.934448
v 456.672943 30.169514 -812.934448
v 433.050110 31.584452 -781.991516
v 439.522369 31.584452 -784.882324
v 433.827209 33.563717 -785.915405
v 439.522369 29.605185 -784.882324
v 433.050110 29.605185 -781.991516
v 436.841217 31.584452 -790.885132
v 430.368958 31.584452 -787.994263
v 430.368958 29.605185 -787.994263
v 436.841217 29.605185 -790.885132
v 445.746674 31.584452 -787.662415
v 442.305817 33.563717 -789.702332
v 445.746674 29.605185 -787.662415
v 443.065521 31.584452 -793.665222
v 443.065521 29.605185 -793.665222
v 427.299103 32.092369 -791.194702
v 434.961121 32.092369 -794.616943
v 428.219055 34.435471 -795.839905
v 434.961121 29.749266 -794.616943
v 427.299103 29.749266 -791.194702
v 431.787109 32.092369 -801.723206
v 424.125092 32.092369 -798.300964
v 424.125092 29.749264 -798.300964
v 431.787109 29.749264 -801.723206
v 442.329620 32.092369 -797.908081
v 438.256226 34.435471 -800.322998
v 442.329620 29.749264 -797.908081
v 439.155609 32.092369 -805.014343
v 439.155609 29.749264 -805.014343
v 404.315033 31.526020 -785.294800
v 407.637024 31.526020 -779.032898
v 408.282501 33.505283 -784.784851
v 407.637024 29.546753 -779.032898
v 404.315033 29.546753 -785.294800
v 413.444733 31.526020 -782.113892
v 410.122742 31.526020 -788.375854
v 410.122742 29.546753 -788.375854
v 413.444733 29.546753 -782.113892
v 410.831757 31.526020 -773.010864
v 412.634277 33.505287 -776.581848
v 410.831757 29.546753 -773.010864
v 416.639435 31.526020 -776.091919
v 416.639435 29.546753 -776.091919
v 414.239105 31.526020 -790.812439
v 417.561096 31.526020 -784.550537
v 418.206573 33.505283 -790.302490
v 417.561096 29.546753 -784.550537
v 414.239105 29.546753 -790.812439
v 423.368805 31.526020 -787.631531
v 420.046814 31.526020 -793.893433
v 420.046814 29.546753 -793.893433
v 423.368805 29.546753 -787.631531
v 420.755829 31.526020 -778.528503
v 422.558350 33.505287 -782.099426
v 420.755829 29.546753 -778.528503
v 426.563507 31.526020 -781.609497
v 426.563507 29.546753 -781.609497
v -158.041824 1.226661 -33.233131
v -154.716568 3.205928 -31.009750
v -158.041824 -0.752604 -33.233131
v -151.469742 1.226661 -33.405487
v -151.469742 -0.752604 -33.405487
v -157.855988 1.226662 -26.147032
v -157.677261 1.226663 -19.332432
v -154.473114 3.205928 -21.727055
v -157.677261 -0.752603 -19.332432
v -157.855988 -0.752604 -26.147032
v -151.105194 1.226663 -19.504787
v -151.105194 -0.752603 -19.504787
v -151.283905 1.226662 -26.319389
v -151.283905 -0.752604 -26.319389
v -50.291550 25.280977 -940.869690
v -46.001141 27.834726 -938.000977
v -50.291550 22.727230 -940.869690
v -41.572147 25.280977 -931.949219
v -41.811924 25.280977 -941.092041
v -41.811924 22.727230 -941.092041
v -41.572147 22.727230 -931.949219
v -50.051777 25.280977 -931.726807
v -49.821190 25.280977 -922.934265
v -45.687035 27.834726 -926.023926
v -49.821190 22.727230 -922.934265
v -50.051777 22.727230 -931.726807
v -41.341564 25.280977 -923.156677
v -41.341564 22.727230 -923.156677
v 451.204224 33.412670 -926.926331
v 446.518311 33.412670 -921.607483
v 452.127777 35.391937 -923.034302
v 446.518311 31.433405 -921.607483
v 451.204224 31.433403 -926.926331
v 451.451324 33.412670 -917.261536
v 456.137207 33.412670 -922.580322
v 456.137207 31.433403 -922.580322
v 451.451324 31.433405 -917.261536
v 442.011963 33.412670 -916.492493
v 445.989319 35.391937 -916.066711
v 442.011963 31.433405 -916.492493
v 446.944946 33.412670 -912.146484
v 446.944946 31.433405 -912.146484
v 478.528290 0.122299 -356.233063
v 482.644775 -0.035710 -363.936676
v 476.320435 2.511395 -360.639832
v 482.644775 -2.474562 -363.936676
v 478.528290 -2.316552 -356.233063
v 475.499939 -0.035711 -367.754547
v 471.383484 0.122299 -360.050934
v 471.383484 -2.316552 -360.050934
v 475.499939 -2.474563 -367.754547
v 486.603546 -0.198782 -371.345154
v 481.712982 2.296132 -370.731476
v 486.603546 -2.637634 -371.345154
v 479.458740 -0.198783 -375.163025
v 479.458740 -2.637634 -375.163025
v 490.736267 -0.173086 -378.344818
v 496.242279 -0.063905 -385.125305
v 489.406494 2.702746 -383.090973
v 496.242279 -2.502757 -385.125305
v 490.736267 -2.611938 -378.344818
v 489.953613 -0.063905 -390.231903
v 484.447632 -0.173087 -383.451416
v 484.447632 -2.611938 -383.451416
v 489.953613 -2.502758 -390.231903
v 501.537354 0.254540 -391.646027
v 496.619293 3.236192 -391.973328
v 501.537354 -2.184312 -391.646027
v 495.248718 0.254540 -396.752625
v 495.248718 -2.184312 -396.752625
v 411.533203 -0.258460 32.164574
v 420.267670 -0.420960 32.164574
v 414.379333 2.126056 28.140427
v 420.267670 -2.859812 32.164574
v 411.533203 -2.697312 32.164574
v 420.267670 -0.420960 24.063673
v 411.533203 -0.258460 24.063673
v 411.533203 -2.697312 24.063673
v 420.267670 -2.859812 24.063673
v 428.667542 -0.561589 32.164574
v 425.821381 1.922781 28.140427
v 428.667542 -3.000441 32.164574
v 428.667542 -0.561589 24.063673
v 428.667542 -3.000441 24.063673
v 140.885254 0.767082 33.766705
v 149.619736 0.767082 33.766705
v 143.731384 3.205932 29.742556
v 149.619736 -1.671770 33.766705
v 140.885254 -1.671770 33.766705
v 149.619736 0.767081 25.665802
v 140.885254 0.767081 25.665802
v 140.885254 -1.671771 25.665802
v 149.619736 -1.671771 25.665802
v 158.019592 0.767082 33.766705
v 155.173462 3.205932 29.742556
v 158.019592 -1.671770 33.766705
v 158.019592 0.767081 25.665802
v 158.019592 -1.671771 25.665802
v -30.371391 0.767082 33.766705
v -21.636917 0.767082 33.766705
v -27.525261 3.205932 29.742556
v -21.636917 -1.671770 33.766705
v -30.371391 -1.671770 33.766705
v -21.636917 0.767081 25.665802
v -30.371391 0.767081 25.665802
v -30.371391 -1.671771 25.665802
v -21.636917 -1.671771 25.665802
v -13.237059 0.767082 33.766705
v -16.083191 3.205932 29.742556
v -13.237059 -1.671770 33.766705
v -13.237059 0.767081 25.665802
v -13.237059 -1.671771 25.665802
v 1.814590 -0.188380 26.912258
v 7.145206 -0.188380 26.912258
v 3.551571 1.300041 24.456339
v 7.145206 -1.676801 26.912258
v 1.814590 -1.676801 26.912258
v 7.145206 -0.188380 21.968311
v 1.814590 -0.188380 21.968311
v 1.814590 -1.676801 21.968311
v 7.145206 -1.676801 21.968311
v 12.271599 -0.188380 26.912258
v 10.534615 1.300041 24.456339
v 12.271599 -1.676801 26.912258
v 12.271599 -0.188380 21.968311
v 12.271599 -1.676801 21.968311
v 210.668060 0.395515 33.766636
v 219.402542 0.237506 33.766636
v 213.514191 2.784609 29.742489
v 219.402542 -2.201346 33.766636
v 210.668060 -2.043337 33.766636
v 219.402527 0.237505 25.665733
v 210.668045 0.395514 25.665733
v 210.668045 -2.043338 25.665733
v 219.402527 -2.201347 25.665733
v 227.802383 0.074434 33.766636
v 224.956253 2.569347 29.742489
v 227.802383 -2.364418 33.766636
v 227.802383 0.074433 25.665735
v 227.802383 -2.364419 25.665735
v 244.616791 -0.258459 33.766636
v 253.351257 -0.420959 33.766636
v 247.462921 2.126056 29.742491
v 253.351257 -2.859811 33.766636
v 244.616791 -2.697311 33.766636
v 253.351257 -0.420960 25.665737
v 244.616791 -0.258460 25.665737
v 244.616791 -2.697312 25.665737
v 253.351257 -2.859812 25.665737
v 261.751129 -0.561588 33.766636
v 258.904968 1.922782 29.742491
v 261.751129 -3.000440 33.766636
v 261.751129 -0.561589 25.665737
v 261.751129 -3.000441 25.665737
v -228.683380 22.780273 -360.478668
v -219.993286 22.622265 -361.358093
v -226.256897 25.169369 -364.768921
v -219.993286 20.183413 -361.358093
v -228.683380 20.341421 -360.478668
v -220.808929 22.622263 -369.417816
v -229.499023 22.780272 -368.538391
v -229.499023 20.341419 -368.538391
v -220.808929 20.183411 -369.417816
v -211.636124 22.459192 -362.203827
v -214.872971 24.954105 -365.920959
v -211.636124 20.020340 -362.203827
v -212.451752 22.459190 -370.263550
v -212.451752 20.020338 -370.263550
v -49.164227 14.128637 -353.162720
v -40.832798 13.970627 -350.540039
v -45.241112 16.517733 -356.146576
v -40.832798 11.531775 -350.540039
v -49.164227 11.689785 -353.162720
v -46.731796 14.128635 -360.889801
v -46.731796 11.689784 -360.889801
v -32.820557 13.807556 -348.017853
v -34.327042 16.302469 -352.710907
v -32.820557 11.368704 -348.017853
v -30.388124 13.807556 -355.744934
v -30.388124 11.368704 -355.744934
v -38.400349 13.970627 -358.267120
v -38.400349 11.531775 -358.267120
v -11.193338 14.128637 -348.303314
v -2.642258 13.970627 -350.083801
v -9.227276 16.517733 -352.823120
v -2.642258 11.531776 -350.083801
v -11.193338 11.689785 -348.303314
v -4.293594 13.970627 -358.014587
v -12.844675 14.128637 -356.234100
v -12.844675 11.689785 -356.234100
v -4.293594 11.531776 -358.014587
v 5.581226 13.807556 -351.796051
v 1.974541 16.302471 -355.155548
v 5.581226 11.368704 -351.796051
v 3.929890 13.807556 -359.726868
v 3.929890 11.368704 -359.726868
v 141.754501 17.422697 -425.988647
v 155.305771 17.177549 -426.031921
v 146.150238 21.129318 -432.246063
v 155.305771 13.393731 -426.031921
v 141.754501 13.638880 -425.988647
v 155.265610 17.177549 -438.600220
v 141.714355 17.422697 -438.556915
v 141.714355 13.638879 -438.556915
v 155.265610 13.393730 -438.600220
v 168.337860 16.924549 -426.073547
v 163.902222 20.795345 -432.302765
v 168.337860 13.140732 -426.073547
v 168.297714 16.924549 -438.641846
v 168.297714 13.140731 -438.641846
v 522.249817 -1.437624 -323.600525
v 528.793823 -1.412734 -325.523651
v 523.496155 0.524126 -327.242126
v 528.793823 -3.317232 -325.523651
v 522.249817 -3.342121 -323.600525
v 527.010193 -1.412734 -331.592987
v 520.466187 -1.437625 -329.669861
v 520.466187 -3.342122 -329.669861
v 527.010193 -3.317232 -331.592987
v 535.087097 -1.419348 -327.373108
v 532.068726 0.528928 -329.761414
v 535.087097 -3.323846 -327.373108
v 533.303467 -1.419349 -333.442413
v 533.303467 -3.323846 -333.442413
v -291.674866 22.254698 -350.587830
v -287.669373 24.643793 -347.715485
v -291.674866 20.242365 -350.587830
v -283.574127 22.254698 -350.534943
v -283.574127 19.815845 -350.534943
v -291.731903 22.437159 -341.853516
v -291.786713 22.635408 -333.453857
v -287.744080 24.769003 -336.273682
v -291.786713 20.196556 -333.453857
v -291.731903 19.998306 -341.853516
v -283.686005 22.635406 -333.401001
v -283.686005 20.196556 -333.401001
v -283.631165 22.437159 -341.800629
v -283.631165 19.998306 -341.800629
v -217.676437 22.780262 -501.070099
v -208.942169 22.622253 -501.007935
v -214.801727 25.169357 -505.073883
v -208.942169 20.183401 -501.007935
v -217.676437 20.341410 -501.070099
v -208.884521 22.622253 -509.108643
v -217.618774 22.780262 -509.170807
v -217.618774 20.341410 -509.170807
v -208.884521 20.183401 -509.108643
v -200.542526 22.459181 -500.948151
v -203.359955 24.954094 -504.992462
v -200.542526 20.020329 -500.948151
v -200.484879 22.459181 -509.048828
v -200.484879 20.020329 -509.048828
v -166.232895 22.780262 -501.070129
v -157.498642 22.622253 -501.007965
v -163.358200 25.169357 -505.073914
v -157.498642 20.183401 -501.007965
v -166.232895 20.341412 -501.070129
v -157.440979 22.622253 -509.108643
v -166.175232 22.780262 -509.170837
v -166.175232 20.341412 -509.170837
v -157.440979 20.183401 -509.108643
v -149.098999 22.459181 -500.948151
v -151.916412 24.954096 -504.992462
v -149.098999 20.020330 -500.948151
v -149.041336 22.459181 -509.048859
v -149.041336 20.020330 -509.048859
v -143.598694 22.780266 -490.799500
v -139.544586 25.169359 -487.996216
v -143.598694 20.341413 -490.799500
v -135.498245 22.780264 -490.885437
v -135.498245 20.341413 -490.885437
v -143.506042 22.622255 -482.065491
v -143.416962 22.459185 -473.666138
v -139.423218 24.954098 -476.554779
v -143.416962 20.020334 -473.666138
v -143.506042 20.183405 -482.065491
v -135.316513 22.459185 -473.752045
v -135.316513 20.020334 -473.752045
v -135.405609 22.622255 -482.151428
v -135.405609 20.183405 -482.151428
v 323.887909 -0.258460 31.326544
v 332.622375 -0.420960 31.326544
v 326.734039 2.126056 27.302397
v 332.622375 -2.859812 31.326544
v 323.887909 -2.697312 31.326544
v 332.622375 -0.420960 23.225643
v 323.887909 -0.258460 23.225643
v 323.887909 -2.697312 23.225643
v 332.622375 -2.859812 23.225643
v 341.022217 -0.561589 31.326544
v 338.176086 1.922782 27.302397
v 341.022217 -3.000441 31.326544
v 341.022217 -0.561589 23.225643
v 341.022217 -3.000441 23.225643
v 320.424530 17.226126 -493.975128
v 326.727875 17.063034 -487.529266
v 325.448212 19.692112 -494.778809
v 326.727875 14.545690 -487.529266
v 320.424530 14.708784 -493.975128
v 332.706146 17.063032 -493.375366
v 326.402832 17.226126 -499.821228
v 326.402832 14.708783 -499.821228
v 332.706146 14.545690 -493.375366
v 332.789703 16.894714 -481.330383
v 333.705475 19.469923 -486.334839
v 332.789703 14.377371 -481.330383
v 338.767975 16.894714 -487.176483
v 338.767975 14.377370 -487.176483
v -281.331024 22.780258 -567.896423
v -281.520599 22.622248 -576.628845
v -285.415985 25.169352 -570.654541
v -281.520599 20.183395 -576.628845
v -281.331024 20.341406 -567.896423
v -289.619568 22.622248 -576.453003
v -289.430023 22.780258 -567.720581
v -289.430023 20.341406 -567.720581
v -289.619568 20.183395 -576.453003
v -281.702881 22.459175 -585.026733
v -285.664337 24.954088 -582.093933
v -281.702881 20.020323 -585.026733
v -289.801880 22.459175 -584.850891
v -289.801880 20.020323 -584.850891
v -325.719635 22.780264 -487.079559
v -325.909210 22.622253 -495.811981
v -329.804596 25.169359 -489.837677
v -325.909210 20.183401 -495.811981
v -325.719635 20.341412 -487.079559
v -334.008179 22.622253 -495.636169
v -333.818634 22.780264 -486.903748
v -333.818634 20.341412 -486.903748
v -334.008179 20.183401 -495.636169
v -326.091492 22.459181 -504.209869
v -330.052917 24.954094 -501.277069
v -326.091492 20.020329 -504.209869
v -334.190491 22.459181 -504.034058
v -334.190491 20.020329 -504.034058
v -323.444672 12.268123 -893.716553
v -313.358063 12.085652 -893.709839
v -320.154846 15.027048 -898.361450
v -313.358063 9.269266 -893.709839
v -323.444672 9.451737 -893.716553
v -313.351837 12.085652 -903.064758
v -323.438416 12.268122 -903.071472
v -323.438416 9.451737 -903.071472
v -313.351837 9.269266 -903.064758
v -303.657898 11.897337 -893.703369
v -306.941559 14.778464 -898.352661
v -303.657898 9.080953 -893.703369
v -303.651642 11.897337 -903.058350
v -303.651642 9.080953 -903.058350
v -240.779526 7.754630 -889.609131
v -231.682556 7.572160 -885.252075
v -235.807877 10.513555 -892.380554
v -231.682556 4.755775 -885.252075
v -240.779526 4.938246 -889.609131
v -227.641510 7.572160 -893.689148
v -236.738495 7.754629 -898.046265
v -236.738495 4.938245 -898.046265
v -227.641510 4.755775 -893.689148
v -222.934067 7.383846 -881.061890
v -223.890945 10.264971 -886.672852
v -222.934067 4.567461 -881.061890
v -218.893021 7.383845 -889.499023
v -218.893021 4.567461 -889.499023
v 681.988464 4.323721 -416.600586
v 694.031311 4.070733 -422.916992
v 683.002625 8.036168 -424.207031
v 694.031311 0.273690 -422.916992
v 681.988464 0.526687 -416.600586
v 688.173340 4.070732 -434.085938
v 676.130493 4.323720 -427.770020
v 676.130493 0.526686 -427.770020
v 688.173340 0.273689 -434.085938
v 705.612793 3.851782 -428.991211
v 698.778564 7.719691 -432.481445
v 705.612793 0.054747 -428.991211
v 699.754761 3.851779 -440.160156
v 699.754761 0.054746 -440.160156
vn 0.3792 0.8551 0.3536
vn 0.3793 0.8553 0.3529
vn 0.3792 0.8552 0.3533
vn 0.7342 -0.0000 0.6789
vn 0.7343 -0.0000 0.6789
vn -0.3779 0.8583 -0.3472
vn -0.3786 0.8580 -0.3470
vn -0.3783 0.8582 -0.3471
vn -0.7343 -0.0000 -0.6789
vn -0.4471 0.7525 0.4836
vn -0.6787 -0.0206 0.7341
vn 0.3799 0.8552 0.3527
vn 0.3796 0.8553 0.3527
vn 0.4369 0.7654 -0.4725
vn 0.6787 0.0206 -0.7341
vn 0.6787 0.0207 -0.7341
vn -0.3777 0.8581 -0.3478
vn -0.3777 0.8582 -0.3475
vn -0.7342 -0.0000 -0.6789
vn -0.4514 0.8551 0.2551
vn -0.4508 0.8553 0.2554
vn -0.4512 0.8552 0.2551
vn -0.8686 -0.0000 0.4956
vn 0.4449 0.8583 -0.2557
vn 0.4450 0.8580 -0.2564
vn 0.4449 0.8582 -0.2561
vn 0.8686 -0.0000 -0.4956
vn -0.3264 0.7525 -0.5721
vn -0.4955 -0.0206 -0.8684
vn -0.4507 0.8552 0.2560
vn -0.4507 0.8553 0.2557
vn 0.3189 0.7654 0.5589
vn 0.4955 0.0206 0.8684
vn 0.4454 0.8581 -0.2554
vn 0.4452 0.8582 -0.2554
vn 0.1674 0.8551 0.4907
vn 0.1678 0.8553 0.4902
vn 0.1675 0.8552 0.4905
vn 0.3268 -0.0000 0.9451
vn -0.1692 0.8583 -0.4845
vn -0.1699 0.8580 -0.4847
vn -0.1697 0.8582 -0.4845
vn -0.3268 -0.0000 -0.9451
vn -0.6224 0.7525 0.2152
vn -0.9449 -0.0206 0.3267
vn 0.1684 0.8552 0.4902
vn 0.1682 0.8553 0.4901
vn 0.6082 0.7654 -0.2103
vn 0.9449 0.0206 -0.3267
vn -0.1688 0.8581 -0.4849
vn -0.1689 0.8582 -0.4847
vn -0.0056 0.8551 0.5185
vn -0.0050 0.8553 0.5181
vn -0.0054 0.8552 0.5183
vn -0.0065 -0.0000 1.0000
vn 0.0017 0.8583 -0.5132
vn 0.0011 0.8580 -0.5136
vn 0.0013 0.8582 -0.5134
vn 0.0065 -0.0000 -1.0000
vn -0.6586 0.7525 -0.0043
vn -0.9998 -0.0206 -0.0065
vn -0.0044 0.8552 0.5183
vn -0.0046 0.8553 0.5182
vn 0.6435 0.7654 0.0042
vn 0.9998 0.0207 0.0065
vn 0.9998 0.0206 0.0065
vn 0.0023 0.8581 -0.5134
vn 0.0021 0.8582 -0.5133
vn -0.9998 -0.0207 -0.0065
vn -0.0022 0.8551 0.5185
vn -0.0016 0.8553 0.5181
vn -0.0020 0.8552 0.5183
vn -0.0000 -0.0000 1.0000
vn -0.0016 0.8583 -0.5132
vn -0.0022 0.8580 -0.5136
vn -0.0020 0.8582 -0.5134
vn -0.0000 -0.0000 -1.0000
vn -0.6586 0.7525 -0.0000
vn -0.9998 -0.0206 -0.0000
vn -0.0011 0.8552 0.5184
vn -0.0012 0.8553 0.5182
vn 0.6435 0.7654 -0.0000
vn 0.9998 0.0206 -0.0000
vn -0.0011 0.8581 -0.5134
vn -0.0012 0.8582 -0.5133
vn 0.5005 0.8656 -0.0147
vn 0.5194 0.8545 -0.0064
vn 0.5077 0.8615 -0.0105
vn 0.9820 -0.0000 -0.1889
vn -0.4799 0.8574 0.1861
vn -0.4654 0.8683 0.1714
vn -0.4706 0.8642 0.1781
vn -0.9820 -0.0000 0.1889
vn 0.1264 0.7433 0.6569
vn 0.1889 -0.0000 0.9820
vn 0.5293 0.8483 -0.0110
vn 0.5272 0.8497 -0.0079
vn -0.1147 0.7944 -0.5965
vn -0.1889 -0.0000 -0.9820
vn -0.4908 0.8513 0.1855
vn -0.4876 0.8526 0.1877
vn 0.0197 0.8664 0.4990
vn 0.0057 0.8602 0.5100
vn 0.0197 0.8691 -0.4942
vn 0.0058 0.8631 -0.5050
vn -0.9998 -0.0207 -0.0000
vn 0.0322 0.8651 0.5005
vn 0.0291 0.8671 0.4973
vn 0.9998 0.0207 -0.0000
vn 0.0323 0.8679 -0.4956
vn 0.0292 0.8698 -0.4925
vn -0.5185 0.8551 -0.0007
vn -0.4989 0.8664 0.0212
vn -0.5099 0.8602 0.0072
vn -1.0000 -0.0000 0.0029
vn 0.4942 0.8691 0.0183
vn 0.5136 0.8580 -0.0037
vn 0.5050 0.8631 0.0043
vn 1.0000 -0.0000 -0.0029
vn -0.0019 0.7525 -0.6586
vn -0.0029 -0.0206 -0.9998
vn -0.5004 0.8651 0.0336
vn -0.4973 0.8671 0.0306
vn 0.0019 0.7654 0.6435
vn 0.0029 0.0207 0.9998
vn 0.4957 0.8679 0.0308
vn 0.4925 0.8698 0.0278
vn 0.0067 0.8553 0.5180
vn 0.0060 0.8551 0.5184
vn 0.0065 0.8552 0.5183
vn 0.0060 0.8581 -0.5135
vn 0.0067 0.8583 -0.5131
vn 0.0065 0.8582 -0.5133
vn -0.6504 0.7596 -0.0000
vn -0.9999 -0.0108 -0.0000
vn 0.0051 0.8554 0.5179
vn 0.0054 0.8552 0.5182
vn 0.6495 0.7604 -0.0000
vn 0.9999 0.0108 -0.0000
vn 0.9999 0.0107 -0.0000
vn 0.0051 0.8584 -0.5130
vn 0.0054 0.8582 -0.5133
vn 0.4392 0.8553 0.2747
vn 0.4391 0.8551 0.2756
vn 0.4393 0.8552 0.2751
vn 0.8408 -0.0000 0.5413
vn -0.4285 0.8581 -0.2830
vn -0.4278 0.8583 -0.2834
vn -0.4281 0.8582 -0.2833
vn -0.8408 -0.0000 -0.5413
vn -0.3521 0.7596 0.5469
vn -0.5412 -0.0107 0.8408
vn -0.5412 -0.0108 0.8408
vn 0.4383 0.8554 0.2760
vn 0.4387 0.8552 0.2759
vn 0.3515 0.7604 -0.5461
vn 0.5412 0.0107 -0.8408
vn 0.5412 0.0108 -0.8408
vn -0.4286 0.8584 -0.2820
vn -0.4287 0.8582 -0.2824
vn 0.4819 0.8553 0.1901
vn 0.4820 0.8551 0.1909
vn 0.4821 0.8552 0.1904
vn 0.9254 -0.0000 0.3789
vn -0.4730 0.8581 -0.2001
vn -0.4723 0.8583 -0.2007
vn -0.4726 0.8582 -0.2005
vn -0.9254 -0.0000 -0.3789
vn -0.2465 0.7596 0.6019
vn -0.3789 -0.0107 0.9254
vn 0.4812 0.8554 0.1915
vn 0.4816 0.8552 0.1913
vn 0.2461 0.7604 -0.6010
vn 0.3789 0.0108 -0.9254
vn 0.3789 0.0107 -0.9254
vn -0.4728 0.8584 -0.1991
vn -0.4730 0.8582 -0.1995
vn 0.2747 0.8553 0.4393
vn 0.2742 0.8551 0.4400
vn 0.2746 0.8552 0.4396
vn 0.5191 -0.0000 0.8547
vn -0.2615 0.8581 -0.4420
vn -0.2606 0.8583 -0.4420
vn -0.2609 0.8582 -0.4421
vn -0.5191 -0.0000 -0.8547
vn -0.5559 0.7596 0.3377
vn -0.8546 -0.0108 0.5191
vn 0.2732 0.8554 0.4400
vn 0.2736 0.8552 0.4401
vn 0.5551 0.7604 -0.3372
vn 0.8546 0.0107 -0.5191
vn 0.8546 0.0108 -0.5191
vn -0.2619 0.8584 -0.4411
vn -0.2618 0.8582 -0.4415
vn -0.0000 0.8552 0.5183
vn -0.0000 0.8582 -0.5134
vn -0.6507 0.7593 -0.0000
vn -1.0000 -0.0000 -0.0000
vn 0.6507 0.7593 -0.0000
vn 1.0000 -0.0000 -0.0000
vn -0.3101 0.8552 0.4153
vn -0.5983 -0.0000 0.8012
vn -0.5984 -0.0000 0.8012
vn 0.3072 0.8582 -0.4113
vn 0.5983 -0.0000 -0.8012
vn 0.5984 -0.0000 -0.8012
vn -0.5214 0.7593 -0.3893
vn -0.8012 -0.0000 -0.5983
vn 0.5214 0.7593 0.3893
vn 0.8012 -0.0000 0.5983
vn -0.4119 0.8552 0.3147
vn -0.7946 -0.0000 0.6071
vn 0.4079 0.8582 -0.3117
vn 0.7946 -0.0000 -0.6071
vn -0.3950 0.7594 -0.5170
vn -0.6071 -0.0000 -0.7946
vn -0.4119 0.8552 0.3146
vn 0.3950 0.7594 0.5171
vn 0.6071 -0.0000 0.7946
vn 0.4080 0.8582 -0.3117
vn -0.3950 0.7593 -0.5171
vn 0.3950 0.7593 0.5171
vn -0.4118 0.8552 0.3146
vn 0.2114 0.8552 0.4732
vn 0.4078 -0.0000 0.9131
vn -0.2094 0.8582 -0.4687
vn -0.2094 0.8582 -0.4688
vn -0.4078 -0.0000 -0.9131
vn -0.5941 0.7593 0.2654
vn -0.9131 -0.0000 0.4078
vn 0.5941 0.7594 -0.2654
vn 0.9131 -0.0000 -0.4078
vn -0.5941 0.7594 0.2654
vn 0.5941 0.7593 -0.2654
vn -0.4579 0.8552 0.2429
vn -0.8834 -0.0000 0.4686
vn 0.4535 0.8582 -0.2406
vn 0.8834 -0.0000 -0.4686
vn -0.3049 0.7594 -0.5748
vn -0.4686 -0.0000 -0.8834
vn -0.4578 0.8552 0.2429
vn 0.3049 0.7593 0.5748
vn 0.4687 -0.0000 0.8834
vn 0.4686 -0.0000 0.8834
vn 0.3050 0.7593 0.5748
vn -0.5181 0.8552 0.0136
vn -0.9997 -0.0000 0.0262
vn 0.5132 0.8582 -0.0135
vn 0.9997 -0.0000 -0.0262
vn -0.0171 0.7593 -0.6505
vn -0.0262 -0.0000 -0.9997
vn 0.0171 0.7593 0.6505
vn 0.0262 -0.0000 0.9997
vn -0.3889 0.8552 -0.3426
vn -0.7503 -0.0000 -0.6611
vn 0.3852 0.8582 0.3394
vn 0.7503 -0.0000 0.6611
vn 0.4301 0.7593 -0.4882
vn 0.6611 -0.0000 -0.7503
vn -0.4301 0.7593 0.4882
vn -0.6611 -0.0000 0.7503
vn 0.4646 0.8549 0.2307
vn 0.4645 0.8552 0.2300
vn 0.4645 0.8551 0.2305
vn 0.8820 -0.0000 0.4713
vn -0.4450 0.8581 -0.2561
vn -0.4457 0.8579 -0.2557
vn -0.4454 0.8580 -0.2558
vn -0.8820 -0.0000 -0.4713
vn -0.3030 0.7659 0.5670
vn -0.4713 -0.0000 0.8820
vn 0.4650 0.8550 0.2297
vn 0.4648 0.8551 0.2297
vn 0.3107 0.7520 -0.5814
vn 0.4713 -0.0000 -0.8820
vn -0.4450 0.8580 -0.2567
vn -0.4449 0.8581 -0.2564
vn 0.4412 0.8170 0.3714
vn 0.4458 0.8008 0.4000
vn 0.4423 0.8104 0.3841
vn 0.7763 -0.0000 0.6304
vn -0.4792 0.8045 -0.3510
vn -0.4502 0.8205 -0.3524
vn -0.4630 0.8140 -0.3508
vn -0.7763 -0.0000 -0.6304
vn -0.4480 0.7034 0.5518
vn -0.6304 -0.0000 0.7763
vn 0.4536 0.7928 0.4070
vn 0.4503 0.7944 0.4076
vn 0.4560 0.6905 -0.5615
vn 0.6304 -0.0000 -0.7763
vn -0.4877 0.7966 -0.3571
vn -0.4876 0.7982 -0.3538
vn 0.0159 0.8552 0.5180
vn 0.0151 0.8550 0.5184
vn 0.0157 0.8551 0.5183
vn 0.0152 0.8579 -0.5135
vn 0.0160 0.8582 -0.5131
vn 0.0157 0.8580 -0.5133
vn -0.6422 0.7665 -0.0000
vn 0.0143 0.8553 0.5179
vn 0.0146 0.8551 0.5182
vn 0.6576 0.7534 -0.0000
vn 0.0144 0.8583 -0.5130
vn 0.0147 0.8581 -0.5133
vn 0.0155 0.8549 0.5185
vn 0.0161 0.8552 0.5181
vn 0.0161 0.8581 -0.5132
vn 0.0155 0.8579 -0.5136
vn 0.0157 0.8580 -0.5134
vn -0.6429 0.7659 -0.0000
vn 0.0166 0.8550 0.5184
vn 0.0164 0.8551 0.5182
vn 0.6592 0.7520 -0.0000
vn 0.0167 0.8580 -0.5134
vn 0.0165 0.8581 -0.5133
vn 0.0152 0.8580 -0.5135
vn 0.0676 0.8549 0.5143
vn 0.0682 0.8552 0.5138
vn 0.0678 0.8551 0.5141
vn 0.1007 -0.0000 0.9949
vn -0.0356 0.8581 -0.5122
vn -0.0363 0.8579 -0.5125
vn -0.0360 0.8580 -0.5123
vn -0.1007 -0.0000 -0.9949
vn -0.6397 0.7659 0.0647
vn -0.9949 -0.0000 0.1007
vn 0.0687 0.8550 0.5140
vn 0.0685 0.8551 0.5139
vn 0.6558 0.7520 -0.0664
vn 0.9949 -0.0000 -0.1007
vn -0.0351 0.8580 -0.5125
vn -0.0353 0.8581 -0.5123
vn -0.1409 0.8549 0.4992
vn -0.1402 0.8552 0.4990
vn -0.1407 0.8551 0.4991
vn -0.3003 -0.0000 0.9539
vn 0.1695 0.8581 -0.4847
vn 0.1690 0.8579 -0.4852
vn 0.1691 0.8580 -0.4850
vn 0.3003 -0.0000 -0.9539
vn -0.6133 0.7659 -0.1931
vn -0.9539 -0.0000 -0.3003
vn -0.1398 0.8550 0.4994
vn -0.1399 0.8551 0.4992
vn 0.6288 0.7520 0.1979
vn 0.9539 -0.0000 0.3003
vn 0.1701 0.8580 -0.4847
vn 0.1698 0.8581 -0.4846
vn 0.1208 0.8549 0.5045
vn 0.1213 0.8552 0.5039
vn 0.1210 0.8551 0.5042
vn 0.2038 -0.0000 0.9790
vn -0.0888 0.8581 -0.5057
vn -0.0895 0.8579 -0.5060
vn -0.0893 0.8580 -0.5058
vn -0.2038 -0.0000 -0.9790
vn -0.6294 0.7659 0.1311
vn -0.9790 -0.0000 0.2038
vn 0.1219 0.8550 0.5041
vn 0.1217 0.8551 0.5040
vn 0.6453 0.7520 -0.1344
vn 0.9790 -0.0000 -0.2038
vn -0.0884 0.8580 -0.5061
vn -0.0885 0.8581 -0.5058
vn 0.0171 0.8549 0.5185
vn 0.0177 0.8552 0.5180
vn 0.0173 0.8551 0.5182
vn 0.0032 -0.0000 1.0000
vn 0.0145 0.8581 -0.5132
vn 0.0139 0.8579 -0.5136
vn 0.0141 0.8580 -0.5134
vn -0.0032 -0.0000 -1.0000
vn -0.6429 0.7659 0.0021
vn -1.0000 -0.0000 0.0032
vn 0.0183 0.8550 0.5183
vn 0.0181 0.8551 0.5181
vn 0.6592 0.7520 -0.0021
vn 1.0000 -0.0000 -0.0032
vn 0.0150 0.8580 -0.5135
vn 0.0148 0.8581 -0.5133
vn 0.1459 0.8493 0.5074
vn 0.1476 0.8504 0.5049
vn 0.1464 0.8498 0.5063
vn 0.2820 -0.0000 0.9594
vn 0.2819 -0.0000 0.9594
vn -0.1476 0.8535 -0.4998
vn -0.1505 0.8523 -0.5009
vn -0.1494 0.8529 -0.5003
vn -0.2819 -0.0000 -0.9594
vn -0.2820 -0.0000 -0.9594
vn -0.6349 0.7497 0.1866
vn -0.9594 -0.0000 0.2820
vn 0.1493 0.8502 0.5049
vn 0.1487 0.8504 0.5046
vn 0.6324 0.7520 -0.1859
vn 0.9594 -0.0000 -0.2820
vn -0.1462 0.8532 -0.5006
vn -0.1465 0.8535 -0.5001
vn -0.5008 0.8653 -0.0213
vn -0.4909 0.8711 -0.0170
vn -0.4979 0.8671 -0.0186
vn -1.0000 -0.0000 -0.0065
vn 0.4862 0.8738 -0.0107
vn 0.4962 0.8681 -0.0149
vn 0.4932 0.8698 -0.0122
vn 1.0000 -0.0000 0.0065
vn 0.0042 0.7659 -0.6429
vn -0.4796 0.8772 -0.0238
vn -0.4834 0.8751 -0.0202
vn -0.0039 0.8001 0.5998
vn 0.4751 0.8798 -0.0177
vn 0.4789 0.8778 -0.0140
vn 0.0118 0.8549 0.5186
vn 0.0124 0.8552 0.5182
vn 0.0120 0.8551 0.5184
vn -0.0071 -0.0000 1.0000
vn 0.0198 0.8581 -0.5131
vn 0.0192 0.8579 -0.5135
vn 0.0194 0.8580 -0.5132
vn 0.0071 -0.0000 -1.0000
vn -0.6429 0.7659 -0.0046
vn -1.0000 -0.0000 -0.0071
vn 0.0129 0.8550 0.5185
vn 0.0127 0.8551 0.5183
vn 0.6592 0.7520 0.0047
vn 1.0000 -0.0000 0.0071
vn 0.0203 0.8580 -0.5133
vn 0.0201 0.8581 -0.5131
vn -0.5183 0.8549 0.0210
vn -0.5179 0.8552 0.0216
vn -0.5181 0.8551 0.0212
vn -0.9999 -0.0000 0.0106
vn 0.5133 0.8581 0.0107
vn 0.5137 0.8579 0.0101
vn 0.5135 0.8580 0.0103
vn 0.9999 -0.0000 -0.0106
vn -0.0068 0.7659 -0.6429
vn -0.0106 -0.0000 -0.9999
vn -0.5181 0.8550 0.0221
vn -0.5180 0.8551 0.0219
vn 0.0070 0.7520 0.6591
vn 0.0106 -0.0000 0.9999
vn 0.5136 0.8580 0.0112
vn 0.5134 0.8581 0.0110
vn -0.3599 0.8549 0.3736
vn -0.3592 0.8552 0.3737
vn -0.3596 0.8551 0.3736
vn -0.7150 -0.0000 0.6992
vn 0.3782 0.8581 -0.3473
vn 0.3780 0.8579 -0.3480
vn 0.3780 0.8580 -0.3477
vn 0.7150 -0.0000 -0.6992
vn -0.4495 0.7659 -0.4597
vn -0.6992 -0.0000 -0.7150
vn -0.3590 0.8550 0.3743
vn -0.3590 0.8551 0.3740
vn 0.4609 0.7520 0.4713
vn 0.6992 -0.0000 0.7150
vn 0.3787 0.8580 -0.3471
vn 0.3785 0.8581 -0.3471
vn 0.5181 0.8549 -0.0267
vn 0.5176 0.8552 -0.0273
vn 0.5178 0.8551 -0.0269
vn 0.9998 -0.0000 -0.0217
vn -0.5134 0.8581 -0.0050
vn -0.5138 0.8579 -0.0044
vn -0.5136 0.8580 -0.0046
vn -0.9998 -0.0000 0.0217
vn 0.0140 0.7659 0.6428
vn 0.0217 -0.0000 0.9998
vn 0.5179 0.8550 -0.0278
vn 0.5177 0.8551 -0.0277
vn -0.0143 0.7520 -0.6590
vn -0.0217 -0.0000 -0.9998
vn -0.5137 0.8580 -0.0055
vn -0.5135 0.8581 -0.0053
vn 0.5180 0.8549 -0.0267
vn 0.0151 0.8549 0.5185
vn 0.0157 0.8552 0.5181
vn 0.0153 0.8551 0.5183
vn -0.0007 -0.0000 1.0000
vn 0.0165 0.8581 -0.5132
vn 0.0159 0.8579 -0.5136
vn 0.0161 0.8580 -0.5134
vn 0.0007 -0.0000 -1.0000
vn -0.6429 0.7659 -0.0004
vn -1.0000 -0.0000 -0.0007
vn 0.0162 0.8550 0.5184
vn 0.0161 0.8551 0.5182
vn 0.6592 0.7520 0.0004
vn 1.0000 -0.0000 0.0007
vn 0.0170 0.8580 -0.5134
vn 0.0168 0.8581 -0.5133
vn 0.0006 -0.0000 -1.0000
vn -0.2100 0.8549 0.4743
vn -0.2093 0.8552 0.4742
vn -0.2098 0.8551 0.4742
vn -0.4320 -0.0000 0.9019
vn 0.2362 0.8581 -0.4559
vn 0.2358 0.8579 -0.4565
vn 0.2359 0.8580 -0.4562
vn 0.4320 -0.0000 -0.9019
vn -0.5798 0.7659 -0.2777
vn -0.9019 -0.0000 -0.4320
vn -0.2089 0.8550 0.4747
vn -0.2090 0.8551 0.4744
vn 0.5945 0.7520 0.2847
vn 0.9019 -0.0000 0.4320
vn 0.2368 0.8580 -0.4559
vn 0.2366 0.8581 -0.4558
vn 0.2547 0.8552 0.4514
vn 0.2542 0.8550 0.4521
vn 0.2546 0.8551 0.4517
vn 0.4645 -0.0000 0.8856
vn -0.2251 0.8579 -0.4618
vn -0.2242 0.8582 -0.4618
vn -0.2245 0.8580 -0.4619
vn -0.4645 -0.0000 -0.8856
vn -0.5687 0.7665 0.2983
vn -0.8856 -0.0000 0.4645
vn 0.2532 0.8553 0.4520
vn 0.2536 0.8551 0.4521
vn 0.5824 0.7534 -0.3054
vn 0.8856 -0.0000 -0.4645
vn -0.2256 0.8583 -0.4610
vn -0.2254 0.8581 -0.4614
vt 0.467467 1.498005
vt 2.504488 1.498004
vt 1.131231 1.999500
vt 2.504488 1.000500
vt 0.467467 1.000500
vt 2.504488 1.505987
vt 0.467468 1.505987
vt 0.467468 1.008482
vt 2.504488 1.008482
vt 0.000499 1.500000
vt 0.999500 1.500000
vt 0.498838 1.997655
vt 0.979500 1.500000
vt -0.970000 1.500000
vt 0.979500 1.000500
vt -0.970000 1.000500
vt 4.463471 1.498004
vt 3.799707 1.999500
vt 4.463471 1.000500
vt 0.493301 1.995809
vt 0.969405 1.500000
vt 0.969405 1.000500
vt 4.463471 1.505987
vt 4.463471 1.008482
s 1
usemtl TENTD.007
f 1/1/1 2/2/2 3/3/3
f 2/2/4 1/1/5 4/4/4
f 5/5/5 4/4/4 1/1/5
f 6/6/6 7/7/7 3/3/8
f 7/7/9 6/6/9 8/8/9
f 9/9/9 8/8/9 6/6/9
f 7/10/10 1/11/10 3/12/10
f 1/13/11 7/14/11 5/15/11
f 8/16/11 5/15/11 7/14/11
f 2/2/2 10/17/12 11/18/13
f 10/17/5 2/2/5 12/19/5
f 4/4/4 12/19/4 2/2/4
f 10/10/14 13/11/14 11/20/14
f 13/21/15 10/14/15 14/22/15
f 12/16/16 14/22/16 10/14/16
f 13/23/17 6/6/6 11/18/18
f 6/6/9 13/23/19 9/9/9
f 14/24/19 9/9/9 13/23/19
f 11/18/13 3/3/3 2/2/2
f 3/3/8 11/18/18 6/6/6
f 15/1/20 16/2/21 17/3/22
f 16/2/23 15/1/23 18/4/23
f 19/5/23 18/4/23 15/1/23
f 20/6/24 21/7/25 17/3/26
f 21/7/27 20/6/27 22/8/27
f 23/9/27 22/8/27 20/6/27
f 21/10/28 15/11/28 17/12/28
f 15/13/29 21/14/29 19/15/29
f 22/16/29 19/15/29 21/14/29
f 16/2/21 24/17/30 25/18/31
f 24/17/23 16/2/23 26/19/23
f 18/4/23 26/19/23 16/2/23
f 24/10/32 27/11/32 25/20/32
f 27/21/33 24/14/33 28/22/33
f 26/16/33 28/22/33 24/14/33
f 27/23/34 20/6/24 25/18/35
f 20/6/27 27/23/27 23/9/27
f 28/24/27 23/9/27 27/23/27
f 25/18/31 17/3/22 16/2/21
f 17/3/26 25/18/35 20/6/24
f 29/1/36 30/2/37 31/3/38
f 30/2/39 29/1/39 32/4/39
f 33/5/39 32/4/39 29/1/39
f 34/6/40 35/7/41 31/3/42
f 35/7/43 34/6/43 36/8/43
f 37/9/43 36/8/43 34/6/43
f 35/10/44 29/11/44 31/12/44
f 29/13/45 35/14/45 33/15/45
f 36/16/45 33/15/45 35/14/45
f 30/2/37 38/17/46 39/18/47
f 38/17/39 30/2/39 40/19/39
f 32/4/39 40/19/39 30/2/39
f 38/10/48 41/11/48 39/20/48
f 41/21/49 38/14/49 42/22/49
f 40/16/49 42/22/49 38/14/49
f 41/23/50 34/6/40 39/18/51
f 34/6/43 41/23/43 37/9/43
f 42/24/43 37/9/43 41/23/43
f 39/18/47 31/3/38 30/2/37
f 31/3/42 39/18/51 34/6/40
f 43/1/52 44/2/53 45/3/54
f 44/2/55 43/1/55 46/4/55
f 47/5/55 46/4/55 43/1/55
f 48/6/56 49/7/57 45/3/58
f 49/7/59 48/6/59 50/8/59
f 51/9/59 50/8/59 48/6/59
f 49/10/60 43/11/60 45/12/60
f 43/13/61 49/14/61 47/15/61
f 50/16/61 47/15/61 49/14/61
f 44/2/53 52/17/62 53/18/63
f 52/17/55 44/2/55 54/19/55
f 46/4/55 54/19/55 44/2/55
f 52/10/64 55/11/64 53/20/64
f 55/21/65 52/14/65 56/22/65
f 54/16/66 56/22/66 52/14/66
f 55/23/67 48/6/56 53/18/68
f 48/6/59 55/23/59 51/9/59
f 56/24/59 51/9/59 55/23/59
f 53/18/63 45/3/54 44/2/53
f 45/3/58 53/18/68 48/6/56
f 57/1/52 58/2/53 59/3/54
f 58/2/55 57/1/55 60/4/55
f 61/5/55 60/4/55 57/1/55
f 62/6/56 63/7/57 59/3/58
f 63/7/59 62/6/59 64/8/59
f 65/9/59 64/8/59 62/6/59
f 63/10/60 57/11/60 59/12/60
f 57/13/61 63/14/61 61/15/61
f 64/16/69 61/15/69 63/14/69
f 58/2/53 66/17/62 67/18/63
f 66/17/55 58/2/55 68/19/55
f 60/4/55 68/19/55 58/2/55
f 66/10/64 69/11/64 67/20/64
f 69/21/66 66/14/66 70/22/66
f 68/16/66 70/22/66 66/14/66
f 69/23/67 62/6/56 67/18/68
f 62/6/59 69/23/59 65/9/59
f 70/24/59 65/9/59 69/23/59
f 67/18/63 59/3/54 58/2/53
f 59/3/58 67/18/68 62/6/56
f 71/1/70 72/2/71 73/3/72
f 72/2/73 71/1/73 74/4/73
f 75/5/73 74/4/73 71/1/73
f 76/6/74 77/7/75 73/3/76
f 77/7/77 76/6/77 78/8/77
f 79/9/77 78/8/77 76/6/77
f 77/10/78 71/11/78 73/12/78
f 71/13/79 77/14/79 75/15/79
f 78/16/79 75/15/79 77/14/79
f 72/2/71 80/17/80 81/18/81
f 80/17/73 72/2/73 82/19/73
f 74/4/73 82/19/73 72/2/73
f 80/10/82 83/11/82 81/20/82
f 83/21/83 80/14/83 84/22/83
f 82/16/83 84/22/83 80/14/83
f 83/23/84 76/6/74 81/18/85
f 76/6/77 83/23/77 79/9/77
f 84/24/77 79/9/77 83/23/77
f 81/18/81 73/3/72 72/2/71
f 73/3/76 81/18/85 76/6/74
f 85/1/70 86/2/71 87/3/72
f 86/2/73 85/1/73 88/4/73
f 89/5/73 88/4/73 85/1/73
f 90/6/74 91/7/75 87/3/76
f 91/7/77 90/6/77 92/8/77
f 93/9/77 92/8/77 90/6/77
f 91/10/78 85/11/78 87/12/78
f 85/13/79 91/14/79 89/15/79
f 92/16/79 89/15/79 91/14/79
f 86/2/71 94/17/80 95/18/81
f 94/17/73 86/2/73 96/19/73
f 88/4/73 96/19/73 86/2/73
f 94/10/82 97/11/82 95/20/82
f 97/21/83 94/14/83 98/22/83
f 96/16/83 98/22/83 94/14/83
f 97/23/84 90/6/74 95/18/85
f 90/6/77 97/23/77 93/9/77
f 98/24/77 93/9/77 97/23/77
f 95/18/81 87/3/72 86/2/71
f 87/3/76 95/18/85 90/6/74
f 99/1/70 100/2/71 101/3/72
f 100/2/73 99/1/73 102/4/73
f 103/5/73 102/4/73 99/1/73
f 104/6/74 105/7/75 101/3/76
f 105/7/77 104/6/77 106/8/77
f 107/9/77 106/8/77 104/6/77
f 105/10/78 99/11/78 101/12/78
f 99/13/79 105/14/79 103/15/79
f 106/16/79 103/15/79 105/14/79
f 100/2/71 108/17/80 109/18/81
f 108/17/73 100/2/73 110/19/73
f 102/4/73 110/19/73 100/2/73
f 108/10/82 111/11/82 109/20/82
f 111/21/83 108/14/83 112/22/83
f 110/16/83 112/22/83 108/14/83
f 111/23/84 104/6/74 109/18/85
f 104/6/77 111/23/77 107/9/77
f 112/24/77 107/9/77 111/23/77
f 109/18/81 101/3/72 100/2/71
f 101/3/76 109/18/85 104/6/74
f 113/1/86 114/2/87 115/3/88
f 114/2/89 113/1/89 116/4/89
f 117/5/89 116/4/89 113/1/89
f 118/6/90 119/7/91 115/3/92
f 119/7/93 118/6/93 120/8/93
f 121/9/93 120/8/93 118/6/93
f 119/10/94 113/11/94 115/12/94
f 113/13/95 119/14/95 117/15/95
f 120/16/95 117/15/95 119/14/95
f 114/2/87 122/17/96 123/18/97
f 122/17/89 114/2/89 124/19/89
f 116/4/89 124/19/89 114/2/89
f 122/10/98 125/11/98 123/20/98
f 125/21/99 122/14/99 126/22/99
f 124/16/99 126/22/99 122/14/99
f 125/23/100 118/6/90 123/18/101
f 118/6/93 125/23/93 121/9/93
f 126/24/93 121/9/93 125/23/93
f 123/18/97 115/3/88 114/2/87
f 115/3/92 123/18/101 118/6/90
f 127/1/70 128/2/102 129/3/103
f 128/2/73 127/1/73 130/4/73
f 131/5/73 130/4/73 127/1/73
f 132/6/104 133/7/75 129/3/105
f 133/7/77 132/6/77 134/8/77
f 135/9/77 134/8/77 132/6/77
f 133/10/78 127/11/78 129/12/78
f 127/13/106 133/14/106 131/15/106
f 134/16/106 131/15/106 133/14/106
f 128/2/102 136/17/107 137/18/108
f 136/17/73 128/2/73 138/19/73
f 130/4/73 138/19/73 128/2/73
f 136/10/82 139/11/82 137/20/82
f 139/21/109 136/14/109 140/22/109
f 138/16/109 140/22/109 136/14/109
f 139/23/110 132/6/104 137/18/111
f 132/6/77 139/23/77 135/9/77
f 140/24/77 135/9/77 139/23/77
f 137/18/108 129/3/103 128/2/102
f 129/3/105 137/18/111 132/6/104
f 141/1/70 142/2/102 143/3/103
f 142/2/73 141/1/73 144/4/73
f 145/5/73 144/4/73 141/1/73
f 146/6/104 147/7/75 143/3/105
f 147/7/77 146/6/77 148/8/77
f 149/9/77 148/8/77 146/6/77
f 147/10/78 141/11/78 143/12/78
f 141/13/79 147/14/79 145/15/79
f 148/16/79 145/15/79 147/14/79
f 142/2/102 150/17/107 151/18/108
f 150/17/73 142/2/73 152/19/73
f 144/4/73 152/19/73 142/2/73
f 150/10/82 153/11/82 151/20/82
f 153/21/83 150/14/83 154/22/83
f 152/16/109 154/22/109 150/14/109
f 153/23/110 146/6/104 151/18/111
f 146/6/77 153/23/77 149/9/77
f 154/24/77 149/9/77 153/23/77
f 151/18/108 143/3/103 142/2/102
f 143/3/105 151/18/111 146/6/104
f 155/1/112 161/2/113 156/3/114
f 161/2/115 155/1/115 165/4/115
f 157/5/115 165/4/115 155/1/115
f 158/6/116 159/7/117 156/3/118
f 159/7/119 158/6/119 160/8/119
f 168/9/119 160/8/119 158/6/119
f 159/10/120 155/11/120 156/12/120
f 155/13/121 159/14/121 157/15/121
f 160/16/121 157/15/121 159/14/121
f 161/2/113 162/17/122 163/18/123
f 162/17/115 161/2/115 164/19/115
f 165/4/115 164/19/115 161/2/115
f 162/10/124 166/11/124 163/20/124
f 166/21/125 162/14/125 167/22/125
f 164/16/125 167/22/125 162/14/125
f 166/23/126 158/6/116 163/18/127
f 158/6/119 166/23/119 168/9/119
f 167/24/119 168/9/119 166/23/119
f 163/18/123 156/3/114 161/2/113
f 156/3/118 163/18/127 158/6/116
f 169/1/128 170/2/129 171/3/130
f 170/2/73 169/1/73 172/4/73
f 173/5/73 172/4/73 169/1/73
f 174/6/131 175/7/132 171/3/133
f 175/7/77 174/6/77 176/8/77
f 177/9/77 176/8/77 174/6/77
f 175/10/134 169/11/134 171/12/134
f 169/13/135 175/14/135 173/15/135
f 176/16/135 173/15/135 175/14/135
f 170/2/129 178/17/136 179/18/137
f 178/17/73 170/2/73 180/19/73
f 172/4/73 180/19/73 170/2/73
f 178/10/138 181/11/138 179/20/138
f 181/21/139 178/14/139 182/22/139
f 180/16/140 182/22/140 178/14/140
f 181/23/141 174/6/131 179/18/142
f 174/6/77 181/23/77 177/9/77
f 182/24/77 177/9/77 181/23/77
f 179/18/137 171/3/130 170/2/129
f 171/3/133 179/18/142 174/6/131
f 183/1/143 184/2/144 185/3/145
f 184/2/146 183/1/146 186/4/146
f 187/5/146 186/4/146 183/1/146
f 188/6/147 189/7/148 185/3/149
f 189/7/150 188/6/150 190/8/150
f 191/9/150 190/8/150 188/6/150
f 189/10/151 183/11/151 185/12/151
f 183/13/152 189/14/152 187/15/152
f 190/16/153 187/15/153 189/14/153
f 184/2/144 192/17/154 193/18/155
f 192/17/146 184/2/146 194/19/146
f 186/4/146 194/19/146 184/2/146
f 192/10/156 195/11/156 193/20/156
f 195/21/157 192/14/157 196/22/157
f 194/16/158 196/22/158 192/14/158
f 195/23/159 188/6/147 193/18/160
f 188/6/150 195/23/150 191/9/150
f 196/24/150 191/9/150 195/23/150
f 193/18/155 185/3/145 184/2/144
f 185/3/149 193/18/160 188/6/147
f 197/1/143 198/2/144 199/3/145
f 198/2/146 197/1/146 200/4/146
f 201/5/146 200/4/146 197/1/146
f 202/6/147 203/7/148 199/3/149
f 203/7/150 202/6/150 204/8/150
f 205/9/150 204/8/150 202/6/150
f 203/10/151 197/11/151 199/12/151
f 197/13/153 203/14/153 201/15/153
f 204/16/153 201/15/153 203/14/153
f 198/2/144 206/17/154 207/18/155
f 206/17/146 198/2/146 208/19/146
f 200/4/146 208/19/146 198/2/146
f 206/10/156 209/11/156 207/20/156
f 209/21/157 206/14/157 210/22/157
f 208/16/158 210/22/158 206/14/158
f 209/23/159 202/6/147 207/18/160
f 202/6/150 209/23/150 205/9/150
f 210/24/150 205/9/150 209/23/150
f 207/18/155 199/3/145 198/2/144
f 199/3/149 207/18/160 202/6/147
f 211/1/161 212/2/162 213/3/163
f 212/2/164 211/1/164 214/4/164
f 215/5/164 214/4/164 211/1/164
f 216/6/165 217/7/166 213/3/167
f 217/7/168 216/6/168 218/8/168
f 219/9/168 218/8/168 216/6/168
f 217/10/169 211/11/169 213/12/169
f 211/13/170 217/14/170 215/15/170
f 218/16/170 215/15/170 217/14/170
f 212/2/162 220/17/171 221/18/172
f 220/17/164 212/2/164 222/19/164
f 214/4/164 222/19/164 212/2/164
f 220/10/173 223/11/173 221/20/173
f 223/21/174 220/14/174 224/22/174
f 222/16/175 224/22/175 220/14/175
f 223/23/176 216/6/165 221/18/177
f 216/6/168 223/23/168 219/9/168
f 224/24/168 219/9/168 223/23/168
f 221/18/172 213/3/163 212/2/162
f 213/3/167 221/18/177 216/6/165
f 225/1/178 226/2/179 227/3/180
f 226/2/181 225/1/181 228/4/181
f 229/5/181 228/4/181 225/1/181
f 230/6/182 231/7/183 227/3/184
f 231/7/185 230/6/185 232/8/185
f 233/9/185 232/8/185 230/6/185
f 231/10/186 225/11/186 227/12/186
f 225/13/187 231/14/187 229/15/187
f 232/16/187 229/15/187 231/14/187
f 226/2/179 234/17/188 235/18/189
f 234/17/181 226/2/181 236/19/181
f 228/4/181 236/19/181 226/2/181
f 234/10/190 237/11/190 235/20/190
f 237/21/191 234/14/191 238/22/191
f 236/16/192 238/22/192 234/14/192
f 237/23/193 230/6/182 235/18/194
f 230/6/185 237/23/185 233/9/185
f 238/24/185 233/9/185 237/23/185
f 235/18/189 227/3/180 226/2/179
f 227/3/184 235/18/194 230/6/182
f 239/1/195 240/2/195 241/3/195
f 240/2/73 239/1/73 242/4/73
f 243/5/73 242/4/73 239/1/73
f 244/6/196 245/7/196 241/3/196
f 245/7/77 244/6/77 246/8/77
f 247/9/77 246/8/77 244/6/77
f 245/10/197 239/11/197 241/12/197
f 239/13/198 245/14/198 243/15/198
f 246/16/198 243/15/198 245/14/198
f 240/2/195 248/17/195 249/18/195
f 248/17/73 240/2/73 250/19/73
f 242/4/73 250/19/73 240/2/73
f 248/10/199 251/11/199 249/20/199
f 251/21/200 248/14/200 252/22/200
f 250/16/200 252/22/200 248/14/200
f 251/23/196 244/6/196 249/18/196
f 244/6/77 251/23/77 247/9/77
f 252/24/77 247/9/77 251/23/77
f 249/18/195 241/3/195 240/2/195
f 241/3/196 249/18/196 244/6/196
f 253/1/195 254/2/195 255/3/195
f 254/2/73 253/1/73 256/4/73
f 257/5/73 256/4/73 253/1/73
f 258/6/196 259/7/196 255/3/196
f 259/7/77 258/6/77 260/8/77
f 261/9/77 260/8/77 258/6/77
f 259/10/197 253/11/197 255/12/197
f 253/13/198 259/14/198 257/15/198
f 260/16/198 257/15/198 259/14/198
f 254/2/195 262/17/195 263/18/195
f 262/17/73 254/2/73 264/19/73
f 256/4/73 264/19/73 254/2/73
f 262/10/199 265/11/199 263/20/199
f 265/21/200 262/14/200 266/22/200
f 264/16/200 266/22/200 262/14/200
f 265/23/196 258/6/196 263/18/196
f 258/6/77 265/23/77 261/9/77
f 266/24/77 261/9/77 265/23/77
f 263/18/195 255/3/195 254/2/195
f 255/3/196 263/18/196 258/6/196
f 267/1/201 268/2/201 269/3/201
f 268/2/202 267/1/203 270/4/202
f 271/5/203 270/4/202 267/1/203
f 272/6/204 273/7/204 269/3/204
f 273/7/205 272/6/205 274/8/205
f 275/9/206 274/8/206 272/6/206
f 273/10/207 267/11/207 269/12/207
f 267/13/208 273/14/208 271/15/208
f 274/16/208 271/15/208 273/14/208
f 268/2/201 276/17/201 277/18/201
f 276/17/202 268/2/202 278/19/202
f 270/4/202 278/19/203 268/2/202
f 276/10/209 279/11/209 277/20/209
f 279/21/210 276/14/210 280/22/210
f 278/16/210 280/22/210 276/14/210
f 279/23/204 272/6/204 277/18/204
f 272/6/206 279/23/205 275/9/206
f 280/24/205 275/9/206 279/23/205
f 277/18/201 269/3/201 268/2/201
f 269/3/204 277/18/204 272/6/204
f 281/1/211 282/2/211 283/3/211
f 282/2/212 281/1/212 284/4/212
f 285/5/212 284/4/212 281/1/212
f 286/6/213 287/7/213 283/3/213
f 287/7/214 286/6/214 288/8/214
f 289/9/214 288/8/214 286/6/214
f 287/10/215 281/11/215 283/12/215
f 281/13/216 287/14/216 285/15/216
f 288/16/216 285/15/216 287/14/216
f 282/2/211 290/17/217 291/18/211
f 290/17/212 282/2/212 292/19/212
f 284/4/212 292/19/212 282/2/212
f 290/10/218 293/11/218 291/20/218
f 293/21/219 290/14/219 294/22/219
f 292/16/219 294/22/219 290/14/219
f 293/23/220 286/6/213 291/18/220
f 286/6/214 293/23/214 289/9/214
f 294/24/214 289/9/214 293/23/214
f 291/18/211 283/3/211 282/2/211
f 283/3/213 291/18/220 286/6/213
f 295/1/217 302/2/217 296/3/217
f 302/2/212 295/1/212 306/4/212
f 297/5/212 306/4/212 295/1/212
f 298/6/220 299/7/213 296/3/220
f 299/7/214 298/6/214 300/8/214
f 301/9/214 300/8/214 298/6/214
f 299/10/221 295/11/221 296/12/221
f 295/13/216 299/14/216 297/15/216
f 300/16/216 297/15/216 299/14/216
f 302/2/217 303/17/217 304/18/217
f 303/17/212 302/2/212 305/19/212
f 306/4/212 305/19/212 302/2/212
f 303/10/222 307/11/222 304/20/222
f 307/21/219 303/14/219 308/22/219
f 305/16/219 308/22/219 303/14/219
f 307/23/220 298/6/220 304/18/220
f 298/6/214 307/23/214 301/9/214
f 308/24/214 301/9/214 307/23/214
f 304/18/217 296/3/217 302/2/217
f 296/3/220 304/18/220 298/6/220
f 309/1/211 316/2/217 310/3/217
f 316/2/212 309/1/212 320/4/212
f 311/5/212 320/4/212 309/1/212
f 312/6/220 313/7/220 310/3/220
f 313/7/214 312/6/214 314/8/214
f 315/9/214 314/8/214 312/6/214
f 313/10/221 309/11/221 310/12/221
f 309/13/216 313/14/216 311/15/216
f 314/16/216 311/15/216 313/14/216
f 316/2/217 317/17/223 318/18/223
f 317/17/212 316/2/212 319/19/212
f 320/4/212 319/19/212 316/2/212
f 317/10/218 321/11/218 318/20/218
f 321/21/219 317/14/219 322/22/219
f 319/16/219 322/22/219 317/14/219
f 321/23/213 312/6/220 318/18/220
f 312/6/214 321/23/214 315/9/214
f 322/24/214 315/9/214 321/23/214
f 318/18/223 310/3/217 316/2/217
f 310/3/220 318/18/220 312/6/220
f 323/1/224 324/2/224 325/3/224
f 324/2/225 323/1/225 326/4/225
f 327/5/225 326/4/225 323/1/225
f 328/6/226 329/7/227 325/3/227
f 329/7/228 328/6/228 330/8/228
f 331/9/228 330/8/228 328/6/228
f 329/10/229 323/11/229 325/12/229
f 323/13/230 329/14/230 327/15/230
f 330/16/230 327/15/230 329/14/230
f 324/2/224 332/17/224 333/18/224
f 332/17/225 324/2/225 334/19/225
f 326/4/225 334/19/225 324/2/225
f 332/10/231 335/11/231 333/20/231
f 335/21/232 332/14/232 336/22/232
f 334/16/232 336/22/232 332/14/232
f 335/23/226 328/6/226 333/18/226
f 328/6/228 335/23/228 331/9/228
f 336/24/228 331/9/228 335/23/228
f 333/18/224 325/3/224 324/2/224
f 325/3/227 333/18/226 328/6/226
f 337/1/224 338/2/224 339/3/224
f 338/2/225 337/1/225 340/4/225
f 341/5/225 340/4/225 337/1/225
f 342/6/226 343/7/227 339/3/227
f 343/7/228 342/6/228 344/8/228
f 345/9/228 344/8/228 342/6/228
f 343/10/233 337/11/233 339/12/233
f 337/13/230 343/14/230 341/15/230
f 344/16/230 341/15/230 343/14/230
f 338/2/224 346/17/224 347/18/224
f 346/17/225 338/2/225 348/19/225
f 340/4/225 348/19/225 338/2/225
f 346/10/234 349/11/234 347/20/234
f 349/21/232 346/14/232 350/22/232
f 348/16/232 350/22/232 346/14/232
f 349/23/226 342/6/226 347/18/226
f 342/6/228 349/23/228 345/9/228
f 350/24/228 345/9/228 349/23/228
f 347/18/224 339/3/224 338/2/224
f 339/3/227 347/18/226 342/6/226
f 351/1/224 352/2/224 353/3/224
f 352/2/225 351/1/225 354/4/225
f 355/5/225 354/4/225 351/1/225
f 356/6/226 357/7/226 353/3/226
f 357/7/228 356/6/228 358/8/228
f 359/9/228 358/8/228 356/6/228
f 357/10/229 351/11/229 353/12/229
f 351/13/230 357/14/230 355/15/230
f 358/16/230 355/15/230 357/14/230
f 352/2/224 360/17/224 361/18/224
f 360/17/225 352/2/225 362/19/225
f 354/4/225 362/19/225 352/2/225
f 360/10/231 363/11/231 361/20/231
f 363/21/232 360/14/232 364/22/232
f 362/16/232 364/22/232 360/14/232
f 363/23/226 356/6/226 361/18/226
f 356/6/228 363/23/228 359/9/228
f 364/24/228 359/9/228 363/23/228
f 361/18/224 353/3/224 352/2/224
f 353/3/226 361/18/226 356/6/226
f 365/1/224 366/2/224 367/3/224
f 366/2/225 365/1/225 368/4/225
f 369/5/225 368/4/225 365/1/225
f 370/6/226 371/7/227 367/3/227
f 371/7/228 370/6/228 372/8/228
f 373/9/228 372/8/228 370/6/228
f 371/10/233 365/11/233 367/12/233
f 365/13/230 371/14/230 369/15/230
f 372/16/230 369/15/230 371/14/230
f 366/2/224 374/17/224 375/18/224
f 374/17/225 366/2/225 376/19/225
f 368/4/225 376/19/225 366/2/225
f 374/10/234 377/11/234 375/20/234
f 377/21/232 374/14/232 378/22/232
f 376/16/232 378/22/232 374/14/232
f 377/23/226 370/6/226 375/18/226
f 370/6/228 377/23/228 373/9/228
f 378/24/228 373/9/228 377/23/228
f 375/18/224 367/3/224 366/2/224
f 367/3/227 375/18/226 370/6/226
f 379/1/235 380/2/235 381/3/235
f 380/2/236 379/1/236 382/4/236
f 383/5/236 382/4/236 379/1/236
f 384/6/237 385/7/237 381/3/237
f 385/7/238 384/6/238 386/8/238
f 387/9/238 386/8/238 384/6/238
f 385/10/239 379/11/239 381/12/239
f 379/13/240 385/14/240 383/15/240
f 386/16/240 383/15/240 385/14/240
f 380/2/235 388/17/241 389/18/241
f 388/17/236 380/2/236 390/19/236
f 382/4/236 390/19/236 380/2/236
f 388/10/242 391/11/242 389/20/242
f 391/21/243 388/14/243 392/22/243
f 390/16/244 392/22/244 388/14/244
f 391/23/237 384/6/237 389/18/237
f 384/6/238 391/23/238 387/9/238
f 392/24/238 387/9/238 391/23/238
f 389/18/241 381/3/235 380/2/235
f 381/3/237 389/18/237 384/6/237
f 393/1/235 394/2/235 395/3/235
f 394/2/236 393/1/236 396/4/236
f 397/5/236 396/4/236 393/1/236
f 398/6/237 399/7/237 395/3/237
f 399/7/238 398/6/238 400/8/238
f 401/9/238 400/8/238 398/6/238
f 399/10/239 393/11/239 395/12/239
f 393/13/240 399/14/240 397/15/240
f 400/16/240 397/15/240 399/14/240
f 394/2/235 402/17/235 403/18/235
f 402/17/236 394/2/236 404/19/236
f 396/4/236 404/19/236 394/2/236
f 402/10/245 405/11/245 403/20/245
f 405/21/243 402/14/243 406/22/243
f 404/16/244 406/22/244 402/14/244
f 405/23/237 398/6/237 403/18/237
f 398/6/238 405/23/238 401/9/238
f 406/24/238 401/9/238 405/23/238
f 403/18/235 395/3/235 394/2/235
f 395/3/237 403/18/237 398/6/237
f 407/1/246 412/2/246 408/3/246
f 412/2/247 407/1/247 416/4/247
f 409/5/247 416/4/247 407/1/247
f 419/6/248 410/7/248 408/3/248
f 410/7/249 419/6/249 411/8/249
f 420/9/249 411/8/249 419/6/249
f 410/10/250 407/11/250 408/12/250
f 407/13/251 410/14/251 409/15/251
f 411/16/251 409/15/251 410/14/251
f 412/2/246 413/17/246 414/18/246
f 413/17/247 412/2/247 415/19/247
f 416/4/247 415/19/247 412/2/247
f 413/10/252 417/11/252 414/20/252
f 417/21/253 413/14/253 418/22/253
f 415/16/253 418/22/253 413/14/253
f 417/23/248 419/6/248 414/18/248
f 419/6/249 417/23/249 420/9/249
f 418/24/249 420/9/249 417/23/249
f 414/18/246 408/3/246 412/2/246
f 408/3/248 414/18/248 419/6/248
f 421/1/246 428/2/246 422/3/246
f 428/2/247 421/1/247 432/4/247
f 423/5/247 432/4/247 421/1/247
f 424/6/248 425/7/248 422/3/248
f 425/7/249 424/6/249 426/8/249
f 427/9/249 426/8/249 424/6/249
f 425/10/250 421/11/250 422/12/250
f 421/13/251 425/14/251 423/15/251
f 426/16/251 423/15/251 425/14/251
f 428/2/246 429/17/246 430/18/246
f 429/17/247 428/2/247 431/19/247
f 432/4/247 431/19/247 428/2/247
f 429/10/252 433/11/252 430/20/252
f 433/21/253 429/14/253 434/22/253
f 431/16/253 434/22/253 429/14/253
f 433/23/248 424/6/248 430/18/248
f 424/6/249 433/23/249 427/9/249
f 434/24/249 427/9/249 433/23/249
f 430/18/246 422/3/246 428/2/246
f 422/3/248 430/18/248 424/6/248
f 435/1/254 436/2/254 437/3/254
f 436/2/255 435/1/255 438/4/255
f 439/5/255 438/4/255 435/1/255
f 440/6/256 441/7/256 437/3/256
f 441/7/257 440/6/257 442/8/257
f 443/9/257 442/8/257 440/6/257
f 441/10/258 435/11/258 437/12/258
f 435/13/259 441/14/259 439/15/259
f 442/16/259 439/15/259 441/14/259
f 436/2/254 444/17/254 445/18/254
f 444/17/255 436/2/255 446/19/255
f 438/4/255 446/19/255 436/2/255
f 444/10/260 447/11/260 445/20/260
f 447/21/261 444/14/261 448/22/261
f 446/16/261 448/22/261 444/14/261
f 447/23/256 440/6/256 445/18/256
f 440/6/257 447/23/257 443/9/257
f 448/24/257 443/9/257 447/23/257
f 445/18/254 437/3/254 436/2/254
f 437/3/256 445/18/256 440/6/256
f 449/1/262 450/2/263 451/3/264
f 450/2/265 449/1/265 452/4/265
f 453/5/265 452/4/265 449/1/265
f 454/6/266 455/7/267 451/3/268
f 455/7/269 454/6/269 456/8/269
f 457/9/269 456/8/269 454/6/269
f 455/10/270 449/11/270 451/12/270
f 449/13/271 455/14/271 453/15/271
f 456/16/271 453/15/271 455/14/271
f 450/2/263 458/17/272 459/18/273
f 458/17/265 450/2/265 460/19/265
f 452/4/265 460/19/265 450/2/265
f 458/10/274 461/11/274 459/20/274
f 461/21/275 458/14/275 462/22/275
f 460/16/275 462/22/275 458/14/275
f 461/23/276 454/6/266 459/18/277
f 454/6/269 461/23/269 457/9/269
f 462/24/269 457/9/269 461/23/269
f 459/18/273 451/3/264 450/2/263
f 451/3/268 459/18/277 454/6/266
f 463/1/278 464/2/279 465/3/280
f 464/2/281 463/1/281 466/4/281
f 467/5/281 466/4/281 463/1/281
f 468/6/282 469/7/283 465/3/284
f 469/7/285 468/6/285 470/8/285
f 471/9/285 470/8/285 468/6/285
f 469/10/286 463/11/286 465/12/286
f 463/13/287 469/14/287 467/15/287
f 470/16/287 467/15/287 469/14/287
f 464/2/279 472/17/288 473/18/289
f 472/17/281 464/2/281 474/19/281
f 466/4/281 474/19/281 464/2/281
f 472/10/290 475/11/290 473/20/290
f 475/21/291 472/14/291 476/22/291
f 474/16/291 476/22/291 472/14/291
f 475/23/292 468/6/282 473/18/293
f 468/6/285 475/23/285 471/9/285
f 476/24/285 471/9/285 475/23/285
f 473/18/289 465/3/280 464/2/279
f 465/3/284 473/18/293 468/6/282
f 477/1/294 478/2/295 479/3/296
f 478/2/73 477/1/73 480/4/73
f 481/5/73 480/4/73 477/1/73
f 482/6/297 483/7/298 479/3/299
f 483/7/77 482/6/77 484/8/77
f 485/9/77 484/8/77 482/6/77
f 483/10/300 477/11/300 479/12/300
f 477/13/198 483/14/198 481/15/198
f 484/16/198 481/15/198 483/14/198
f 478/2/295 486/17/301 487/18/302
f 486/17/73 478/2/73 488/19/73
f 480/4/73 488/19/73 478/2/73
f 486/10/303 489/11/303 487/20/303
f 489/21/200 486/14/200 490/22/200
f 488/16/200 490/22/200 486/14/200
f 489/23/304 482/6/297 487/18/305
f 482/6/77 489/23/77 485/9/77
f 490/24/77 485/9/77 489/23/77
f 487/18/302 479/3/296 478/2/295
f 479/3/299 487/18/305 482/6/297
f 491/1/195 492/2/195 493/3/195
f 492/2/73 491/1/73 494/4/73
f 495/5/73 494/4/73 491/1/73
f 496/6/196 497/7/196 493/3/196
f 497/7/77 496/6/77 498/8/77
f 499/9/77 498/8/77 496/6/77
f 497/10/197 491/11/197 493/12/197
f 491/13/198 497/14/198 495/15/198
f 498/16/198 495/15/198 497/14/198
f 492/2/195 500/17/195 501/18/195
f 500/17/73 492/2/73 502/19/73
f 494/4/73 502/19/73 492/2/73
f 500/10/199 503/11/199 501/20/199
f 503/21/200 500/14/200 504/22/200
f 502/16/200 504/22/200 500/14/200
f 503/23/196 496/6/196 501/18/196
f 496/6/77 503/23/77 499/9/77
f 504/24/77 499/9/77 503/23/77
f 501/18/195 493/3/195 492/2/195
f 493/3/196 501/18/196 496/6/196
f 505/1/195 506/2/195 507/3/195
f 506/2/73 505/1/73 508/4/73
f 509/5/73 508/4/73 505/1/73
f 510/6/196 511/7/196 507/3/196
f 511/7/77 510/6/77 512/8/77
f 513/9/77 512/8/77 510/6/77
f 511/10/197 505/11/197 507/12/197
f 505/13/198 511/14/198 509/15/198
f 512/16/198 509/15/198 511/14/198
f 506/2/195 514/17/195 515/18/195
f 514/17/73 506/2/73 516/19/73
f 508/4/73 516/19/73 506/2/73
f 514/10/199 517/11/199 515/20/199
f 517/21/200 514/14/200 518/22/200
f 516/16/200 518/22/200 514/14/200
f 517/23/196 510/6/196 515/18/196
f 510/6/77 517/23/77 513/9/77
f 518/24/77 513/9/77 517/23/77
f 515/18/195 507/3/195 506/2/195
f 507/3/196 515/18/196 510/6/196
f 519/1/195 520/2/195 521/3/195
f 520/2/73 519/1/73 522/4/73
f 523/5/73 522/4/73 519/1/73
f 524/6/196 525/7/196 521/3/196
f 525/7/77 524/6/77 526/8/77
f 527/9/77 526/8/77 524/6/77
f 525/10/197 519/11/197 521/12/197
f 519/13/198 525/14/198 523/15/198
f 526/16/198 523/15/198 525/14/198
f 520/2/195 528/17/195 529/18/195
f 528/17/73 520/2/73 530/19/73
f 522/4/73 530/19/73 520/2/73
f 528/10/199 531/11/199 529/20/199
f 531/21/200 528/14/200 532/22/200
f 530/16/200 532/22/200 528/14/200
f 531/23/196 524/6/196 529/18/196
f 524/6/77 531/23/77 527/9/77
f 532/24/77 527/9/77 531/23/77
f 529/18/195 521/3/195 520/2/195
f 521/3/196 529/18/196 524/6/196
f 533/1/306 534/2/307 535/3/296
f 534/2/73 533/1/73 536/4/73
f 537/5/73 536/4/73 533/1/73
f 538/6/308 539/7/309 535/3/310
f 539/7/77 538/6/77 540/8/77
f 541/9/77 540/8/77 538/6/77
f 539/10/311 533/11/311 535/12/311
f 533/13/198 539/14/198 537/15/198
f 540/16/198 537/15/198 539/14/198
f 534/2/307 542/17/312 543/18/313
f 542/17/73 534/2/73 544/19/73
f 536/4/73 544/19/73 534/2/73
f 542/10/314 545/11/314 543/20/314
f 545/21/200 542/14/200 546/22/200
f 544/16/200 546/22/200 542/14/200
f 545/23/315 538/6/308 543/18/316
f 538/6/77 545/23/77 541/9/77
f 546/24/77 541/9/77 545/23/77
f 543/18/313 535/3/296 534/2/307
f 535/3/310 543/18/316 538/6/308
f 547/1/294 548/2/295 549/3/296
f 548/2/73 547/1/73 550/4/73
f 551/5/73 550/4/73 547/1/73
f 552/6/317 553/7/298 549/3/299
f 553/7/77 552/6/77 554/8/77
f 555/9/77 554/8/77 552/6/77
f 553/10/300 547/11/300 549/12/300
f 547/13/198 553/14/198 551/15/198
f 554/16/198 551/15/198 553/14/198
f 548/2/295 556/17/301 557/18/302
f 556/17/73 548/2/73 558/19/73
f 550/4/73 558/19/73 548/2/73
f 556/10/303 559/11/303 557/20/303
f 559/21/200 556/14/200 560/22/200
f 558/16/200 560/22/200 556/14/200
f 559/23/304 552/6/317 557/18/305
f 552/6/77 559/23/77 555/9/77
f 560/24/77 555/9/77 559/23/77
f 557/18/302 549/3/296 548/2/295
f 549/3/299 557/18/305 552/6/317
f 561/1/318 562/2/319 563/3/320
f 562/2/321 561/1/321 564/4/321
f 565/5/321 564/4/321 561/1/321
f 566/6/322 567/7/323 563/3/324
f 567/7/325 566/6/325 568/8/325
f 569/9/325 568/8/325 566/6/325
f 567/10/326 561/11/326 563/12/326
f 561/13/327 567/14/327 565/15/327
f 568/16/327 565/15/327 567/14/327
f 562/2/319 570/17/328 571/18/329
f 570/17/321 562/2/321 572/19/321
f 564/4/321 572/19/321 562/2/321
f 570/10/330 573/11/330 571/20/330
f 573/21/331 570/14/331 574/22/331
f 572/16/331 574/22/331 570/14/331
f 573/23/332 566/6/322 571/18/333
f 566/6/325 573/23/325 569/9/325
f 574/24/325 569/9/325 573/23/325
f 571/18/329 563/3/320 562/2/319
f 563/3/324 571/18/333 566/6/322
f 575/1/334 576/2/335 577/3/336
f 576/2/337 575/1/337 578/4/337
f 579/5/337 578/4/337 575/1/337
f 587/6/338 580/7/339 577/3/340
f 580/7/341 587/6/341 581/8/341
f 588/9/341 581/8/341 587/6/341
f 580/10/342 575/11/342 577/12/342
f 575/13/343 580/14/343 579/15/343
f 581/16/343 579/15/343 580/14/343
f 576/2/335 582/17/344 583/18/345
f 582/17/337 576/2/337 584/19/337
f 578/4/337 584/19/337 576/2/337
f 582/10/346 585/11/346 583/20/346
f 585/21/347 582/14/347 586/22/347
f 584/16/347 586/22/347 582/14/347
f 585/23/348 587/6/338 583/18/349
f 587/6/341 585/23/341 588/9/341
f 586/24/341 588/9/341 585/23/341
f 583/18/345 577/3/336 576/2/335
f 577/3/340 583/18/349 587/6/338
f 589/1/350 590/2/351 591/3/352
f 590/2/353 589/1/353 592/4/353
f 593/5/353 592/4/353 589/1/353
f 594/6/354 595/7/355 591/3/356
f 595/7/357 594/6/357 596/8/357
f 597/9/357 596/8/357 594/6/357
f 595/10/358 589/11/358 591/12/358
f 589/13/359 595/14/359 593/15/359
f 596/16/359 593/15/359 595/14/359
f 590/2/351 598/17/360 599/18/361
f 598/17/353 590/2/353 600/19/353
f 592/4/353 600/19/353 590/2/353
f 598/10/362 601/11/362 599/20/362
f 601/21/363 598/14/363 602/22/363
f 600/16/363 602/22/363 598/14/363
f 601/23/364 594/6/354 599/18/365
f 594/6/357 601/23/357 597/9/357
f 602/24/357 597/9/357 601/23/357
f 599/18/361 591/3/352 590/2/351
f 591/3/356 599/18/365 594/6/354
f 603/1/366 604/2/367 605/3/368
f 604/2/369 603/1/369 606/4/369
f 607/5/369 606/4/369 603/1/369
f 608/6/370 609/7/371 605/3/372
f 609/7/373 608/6/373 610/8/373
f 611/9/373 610/8/373 608/6/373
f 609/10/374 603/11/374 605/12/374
f 603/13/375 609/14/375 607/15/375
f 610/16/375 607/15/375 609/14/375
f 604/2/367 612/17/376 613/18/377
f 612/17/369 604/2/369 614/19/369
f 606/4/369 614/19/369 604/2/369
f 612/10/378 615/11/378 613/20/378
f 615/21/379 612/14/379 616/22/379
f 614/16/379 616/22/379 612/14/379
f 615/23/380 608/6/370 613/18/381
f 608/6/373 615/23/373 611/9/373
f 616/24/373 611/9/373 615/23/373
f 613/18/377 605/3/368 604/2/367
f 605/3/372 613/18/381 608/6/370
f 617/1/382 618/2/383 619/3/384
f 618/2/385 617/1/386 620/4/385
f 621/5/386 620/4/385 617/1/386
f 622/6/387 623/7/388 619/3/389
f 623/7/390 622/6/390 624/8/390
f 625/9/391 624/8/391 622/6/391
f 623/10/392 617/11/392 619/12/392
f 617/13/393 623/14/393 621/15/393
f 624/16/393 621/15/393 623/14/393
f 618/2/383 626/17/394 627/18/395
f 626/17/385 618/2/385 628/19/385
f 620/4/385 628/19/386 618/2/385
f 626/10/396 629/11/396 627/20/396
f 629/21/397 626/14/397 630/22/397
f 628/16/397 630/22/397 626/14/397
f 629/23/398 622/6/387 627/18/399
f 622/6/391 629/23/391 625/9/391
f 630/24/390 625/9/391 629/23/391
f 627/18/395 619/3/384 618/2/383
f 619/3/389 627/18/399 622/6/387
f 631/1/400 636/2/401 632/3/402
f 636/2/403 631/1/403 640/4/403
f 633/5/403 640/4/403 631/1/403
f 643/6/404 634/7/405 632/3/406
f 634/7/407 643/6/407 635/8/407
f 644/9/407 635/8/407 643/6/407
f 634/10/408 631/11/408 632/12/408
f 631/13/59 634/14/59 633/15/59
f 635/16/59 633/15/59 634/14/59
f 636/2/401 637/17/409 638/18/410
f 637/17/403 636/2/403 639/19/403
f 640/4/403 639/19/403 636/2/403
f 637/10/411 641/11/411 638/20/411
f 641/21/55 637/14/55 642/22/55
f 639/16/55 642/22/55 637/14/55
f 641/23/412 643/6/404 638/18/413
f 643/6/407 641/23/407 644/9/407
f 642/24/407 644/9/407 641/23/407
f 638/18/410 632/3/402 636/2/401
f 632/3/406 638/18/413 643/6/404
f 645/1/414 646/2/415 647/3/416
f 646/2/417 645/1/417 648/4/417
f 649/5/417 648/4/417 645/1/417
f 650/6/418 651/7/419 647/3/420
f 651/7/421 650/6/421 652/8/421
f 653/9/421 652/8/421 650/6/421
f 651/10/422 645/11/422 647/12/422
f 645/13/423 651/14/423 649/15/423
f 652/16/423 649/15/423 651/14/423
f 646/2/415 654/17/424 655/18/425
f 654/17/417 646/2/417 656/19/417
f 648/4/417 656/19/417 646/2/417
f 654/10/426 657/11/426 655/20/426
f 657/21/427 654/14/427 658/22/427
f 656/16/427 658/22/427 654/14/427
f 657/23/428 650/6/418 655/18/429
f 650/6/421 657/23/421 653/9/421
f 658/24/421 653/9/421 657/23/421
f 655/18/425 647/3/416 646/2/415
f 647/3/420 655/18/429 650/6/418
f 659/1/414 660/2/415 661/3/416
f 660/2/417 659/1/417 662/4/417
f 663/5/417 662/4/417 659/1/417
f 664/6/418 665/7/419 661/3/420
f 665/7/421 664/6/421 666/8/421
f 667/9/421 666/8/421 664/6/421
f 665/10/422 659/11/422 661/12/422
f 659/13/423 665/14/423 663/15/423
f 666/16/423 663/15/423 665/14/423
f 660/2/415 668/17/424 669/18/425
f 668/17/417 660/2/417 670/19/417
f 662/4/417 670/19/417 660/2/417
f 668/10/426 671/11/426 669/20/426
f 671/21/427 668/14/427 672/22/427
f 670/16/427 672/22/427 668/14/427
f 671/23/428 664/6/418 669/18/429
f 664/6/421 671/23/421 667/9/421
f 672/24/421 667/9/421 671/23/421
f 669/18/425 661/3/416 660/2/415
f 661/3/420 669/18/429 664/6/418
f 673/1/430 678/2/431 674/3/432
f 678/2/433 673/1/433 682/4/433
f 675/5/433 682/4/433 673/1/433
f 685/6/434 676/7/435 674/3/436
f 676/7/437 685/6/437 677/8/437
f 686/9/437 677/8/437 685/6/437
f 676/10/438 673/11/438 674/12/438
f 673/13/439 676/14/439 675/15/439
f 677/16/439 675/15/439 676/14/439
f 678/2/431 679/17/440 680/18/441
f 679/17/433 678/2/433 681/19/433
f 682/4/433 681/19/433 678/2/433
f 679/10/442 683/11/442 680/20/442
f 683/21/443 679/14/443 684/22/443
f 681/16/443 684/22/443 679/14/443
f 683/23/444 685/6/434 680/18/445
f 685/6/437 683/23/437 686/9/437
f 684/24/437 686/9/437 683/23/437
f 680/18/441 674/3/432 678/2/431
f 674/3/436 680/18/445 685/6/434
f 687/1/294 688/2/295 689/3/296
f 688/2/73 687/1/73 690/4/73
f 691/5/73 690/4/73 687/1/73
f 692/6/317 693/7/298 689/3/299
f 693/7/77 692/6/77 694/8/77
f 695/9/77 694/8/77 692/6/77
f 693/10/300 687/11/300 689/12/300
f 687/13/198 693/14/198 691/15/198
f 694/16/198 691/15/198 693/14/198
f 688/2/295 696/17/301 697/18/302
f 696/17/73 688/2/73 698/19/73
f 690/4/73 698/19/73 688/2/73
f 696/10/303 699/11/303 697/20/303
f 699/21/200 696/14/200 700/22/200
f 698/16/200 700/22/200 696/14/200
f 699/23/304 692/6/317 697/18/305
f 692/6/77 699/23/77 695/9/77
f 700/24/77 695/9/77 699/23/77
f 697/18/302 689/3/296 688/2/295
f 689/3/299 697/18/305 692/6/317
f 701/1/446 702/2/447 703/3/448
f 702/2/449 701/1/449 704/4/449
f 705/5/449 704/4/449 701/1/449
f 706/6/450 707/7/451 703/3/452
f 707/7/453 706/6/453 708/8/453
f 709/9/453 708/8/453 706/6/453
f 707/10/454 701/11/454 703/12/454
f 701/13/455 707/14/455 705/15/455
f 708/16/455 705/15/455 707/14/455
f 702/2/447 710/17/456 711/18/457
f 710/17/449 702/2/449 712/19/449
f 704/4/449 712/19/449 702/2/449
f 710/10/458 713/11/458 711/20/458
f 713/21/459 710/14/459 714/22/459
f 712/16/459 714/22/459 710/14/459
f 713/23/460 706/6/450 711/18/461
f 706/6/453 713/23/453 709/9/453
f 714/24/453 709/9/453 713/23/453
f 711/18/457 703/3/448 702/2/447
f 703/3/452 711/18/461 706/6/450
f 715/1/462 716/2/463 717/3/464
f 716/2/465 715/1/465 718/4/465
f 719/5/465 718/4/465 715/1/465
f 720/6/466 721/7/467 717/3/468
f 721/7/469 720/6/469 722/8/469
f 723/9/469 722/8/469 720/6/469
f 721/10/470 715/11/470 717/12/470
f 715/13/471 721/14/471 719/15/471
f 722/16/471 719/15/471 721/14/471
f 716/2/463 724/17/472 725/18/473
f 724/17/465 716/2/465 726/19/465
f 718/4/465 726/19/465 716/2/465
f 724/10/474 727/11/474 725/20/474
f 727/21/475 724/14/475 728/22/475
f 726/16/475 728/22/475 724/14/475
f 727/23/476 720/6/466 725/18/477
f 720/6/469 727/23/469 723/9/469
f 728/24/469 723/9/469 727/23/469
f 725/18/473 717/3/464 716/2/463
f 717/3/468 725/18/477 720/6/466
f 729/1/478 730/2/463 731/3/464
f 730/2/465 729/1/465 732/4/465
f 733/5/465 732/4/465 729/1/465
f 734/6/466 735/7/467 731/3/468
f 735/7/469 734/6/469 736/8/469
f 737/9/469 736/8/469 734/6/469
f 735/10/470 729/11/470 731/12/470
f 729/13/471 735/14/471 733/15/471
f 736/16/471 733/15/471 735/14/471
f 730/2/463 738/17/472 739/18/473
f 738/17/465 730/2/465 740/19/465
f 732/4/465 740/19/465 730/2/465
f 738/10/474 741/11/474 739/20/474
f 741/21/475 738/14/475 742/22/475
f 740/16/475 742/22/475 738/14/475
f 741/23/476 734/6/466 739/18/477
f 734/6/469 741/23/469 737/9/469
f 742/24/469 737/9/469 741/23/469
f 739/18/473 731/3/464 730/2/463
f 731/3/468 739/18/477 734/6/466
f 743/1/479 744/2/480 745/3/481
f 744/2/482 743/1/482 746/4/482
f 747/5/482 746/4/482 743/1/482
f 748/6/483 749/7/484 745/3/485
f 749/7/486 748/6/486 750/8/486
f 751/9/486 750/8/486 748/6/486
f 749/10/487 743/11/487 745/12/487
f 743/13/488 749/14/488 747/15/488
f 750/16/488 747/15/488 749/14/488
f 744/2/480 752/17/489 753/18/490
f 752/17/482 744/2/482 754/19/482
f 746/4/482 754/19/482 744/2/482
f 752/10/491 755/11/491 753/20/491
f 755/21/492 752/14/492 756/22/492
f 754/16/492 756/22/492 752/14/492
f 755/23/493 748/6/483 753/18/494
f 748/6/486 755/23/495 751/9/486
f 756/24/495 751/9/486 755/23/495
f 753/18/490 745/3/481 744/2/480
f 745/3/485 753/18/494 748/6/483
f 757/1/496 758/2/497 759/3/498
f 758/2/499 757/1/499 760/4/499
f 761/5/499 760/4/499 757/1/499
f 762/6/500 763/7/501 759/3/502
f 763/7/503 762/6/503 764/8/503
f 765/9/503 764/8/503 762/6/503
f 763/10/504 757/11/504 759/12/504
f 757/13/505 763/14/505 761/15/505
f 764/16/505 761/15/505 763/14/505
f 758/2/497 766/17/506 767/18/507
f 766/17/499 758/2/499 768/19/499
f 760/4/499 768/19/499 758/2/499
f 766/10/508 769/11/508 767/20/508
f 769/21/509 766/14/509 770/22/509
f 768/16/509 770/22/509 766/14/509
f 769/23/510 762/6/500 767/18/511
f 762/6/503 769/23/503 765/9/503
f 770/24/503 765/9/503 769/23/503
f 767/18/507 759/3/498 758/2/497
f 759/3/502 767/18/511 762/6/500
f 771/1/512 772/2/513 773/3/514
f 772/2/515 771/1/515 774/4/515
f 775/5/515 774/4/515 771/1/515
f 776/6/516 777/7/517 773/3/518
f 777/7/519 776/6/519 778/8/519
f 779/9/519 778/8/519 776/6/519
f 777/10/520 771/11/520 773/12/520
f 771/13/521 777/14/521 775/15/521
f 778/16/521 775/15/521 777/14/521
f 772/2/513 780/17/522 781/18/523
f 780/17/515 772/2/515 782/19/515
f 774/4/515 782/19/515 772/2/515
f 780/10/524 783/11/524 781/20/524
f 783/21/525 780/14/525 784/22/525
f 782/16/525 784/22/525 780/14/525
f 783/23/526 776/6/516 781/18/527
f 776/6/519 783/23/519 779/9/519
f 784/24/519 779/9/519 783/23/519
f 781/18/523 773/3/514 772/2/513
f 773/3/518 781/18/527 776/6/516
