# Blender 4.4.3
# www.blender.org
mtllib TREELRGB.mtl
o TREELRGB
v -237.114639 39.457001 -379.991882
v -237.114639 19.984739 -379.991882
v -237.274124 39.457005 -392.894287
v -237.274139 19.984737 -392.894287
v -243.895020 38.088406 -387.454132
v -243.895020 19.984741 -387.454132
v -230.493744 38.088402 -385.432037
v -230.493744 19.984739 -385.432037
v -243.120605 40.257912 -398.245941
v -243.120605 19.965479 -398.245941
v -230.733200 40.257912 -412.754272
v -230.733200 19.965479 -412.754272
v -244.872955 38.379715 -410.776947
v -244.872955 19.965481 -410.776947
v -228.980850 38.379715 -400.223267
v -228.980850 19.965479 -400.223267
v -247.456039 39.245426 -417.964264
v -247.456039 19.969032 -417.964264
v -229.421829 39.245426 -419.660675
v -229.421829 19.969032 -419.660675
v -240.371857 37.461273 -427.662689
v -240.371857 19.969032 -427.662689
v -236.506012 37.461273 -409.962250
v -236.506012 19.969034 -409.962250
v 327.891449 37.116737 -493.851318
v 327.891449 14.613832 -493.851318
v 343.962921 37.116737 -507.593597
v 343.962921 14.613830 -507.593597
v 328.132996 35.033947 -507.869751
v 328.132996 14.613831 -507.869781
v 343.721375 35.033943 -493.575165
v 343.721375 14.613832 -493.575195
v 363.763245 34.181988 -473.176819
v 363.763245 11.679083 -473.176819
v 379.834747 34.181984 -486.919098
v 379.834747 11.679080 -486.919098
v 364.004822 32.099197 -487.195251
v 364.004822 11.679082 -487.195251
v 379.593201 32.099201 -472.900665
v 379.593201 11.679083 -472.900665
v 364.710510 31.178339 -480.046112
v 364.710510 11.706072 -480.046112
v 357.150330 31.178341 -490.502747
v 357.150299 11.706073 -490.502747
v 354.870056 29.809744 -482.242462
v 354.870056 11.706074 -482.242462
v 366.990784 29.809740 -488.306396
v 366.990784 11.706071 -488.306396
v 394.410187 31.979248 -487.366882
v 394.410187 11.686812 -487.366882
v 396.183014 31.979246 -506.361511
v 396.183044 11.686810 -506.361542
v 385.761597 30.101049 -496.602631
v 385.761597 11.686812 -496.602631
v 404.831604 30.101048 -497.125793
v 404.831604 11.686812 -497.125793
v 413.803070 31.594933 -503.086395
v 413.803070 11.302496 -503.086395
v 415.575897 31.594931 -522.081055
v 415.575897 11.302495 -522.081055
v 405.154480 29.716736 -512.322144
v 405.154480 11.302495 -512.322144
v 424.224487 29.716736 -512.845276
v 424.224487 11.302495 -512.845276
v 430.053436 29.517712 -507.314728
v 430.053436 10.045443 -507.314728
v 422.493256 29.517714 -517.771362
v 422.493225 10.045444 -517.771362
v 420.212982 28.149117 -509.511078
v 420.212982 10.045444 -509.511078
v 432.333710 28.149113 -515.575012
v 432.333710 10.045442 -515.575012
v 431.805206 29.925911 -513.903198
v 431.805206 9.633472 -513.903198
v 433.578064 29.925909 -532.897888
v 433.578064 9.633471 -532.897888
v 423.156616 28.047712 -523.138977
v 423.156616 9.633474 -523.138977
v 442.226624 28.047712 -523.662109
v 442.226624 9.633472 -523.662109
v 464.450928 28.049864 -530.297241
v 464.450928 8.577598 -530.297241
v 456.890717 28.049868 -540.753845
v 456.890717 8.577597 -540.753845
v 454.610474 26.681269 -532.493591
v 454.610443 8.577600 -532.493591
v 466.731201 26.681265 -538.557495
v 466.731201 8.577597 -538.557495
v 461.729828 31.992035 -536.614563
v 461.729828 8.547314 -536.614563
v 478.473969 31.992031 -550.932007
v 478.473969 8.547310 -550.932007
v 461.981506 29.822071 -551.219727
v 461.981506 8.547312 -551.219727
v 478.222290 29.822073 -536.326843
v 478.222290 8.547314 -536.326843
v 482.580139 28.246220 -542.879028
v 482.580139 8.773952 -542.879028
v 475.019958 28.246220 -553.335632
v 475.019928 8.773952 -553.335632
v 472.739685 26.877621 -545.075378
v 472.739685 8.773953 -545.075378
v 484.860413 26.877621 -551.139282
v 484.860413 8.773951 -551.139282
v 504.720703 26.773308 -560.640930
v 504.720703 7.301041 -560.640930
v 497.160492 26.773308 -571.097534
v 497.160492 7.301040 -571.097534
v 494.880249 25.404713 -562.837280
v 494.880249 7.301043 -562.837280
v 507.000977 25.404707 -568.901184
v 507.000977 7.301040 -568.901184
v 521.653137 26.478775 -566.000793
v 521.653137 7.006505 -566.000793
v 514.092957 26.478773 -576.457397
v 514.092957 7.006505 -576.457397
v 511.812683 25.110178 -568.197144
v 511.812683 7.006507 -568.197144
v 523.933411 25.110174 -574.261047
v 523.933411 7.006505 -574.261047
v 544.859009 25.594934 -574.942383
v 544.859009 6.122668 -574.942383
v 536.980286 25.594936 -585.161133
v 536.980286 6.122669 -585.161133
v 534.955566 24.226339 -576.834595
v 534.955566 6.122670 -576.834595
v 546.883789 24.226336 -583.268982
v 546.883789 6.122667 -583.268982
v 551.354858 25.693115 -564.939941
v 551.354858 6.220846 -564.939941
v 538.654419 25.693115 -562.660400
v 538.654419 6.220848 -562.660400
v 545.109497 24.324516 -557.024536
v 545.109497 6.220848 -557.024536
v 544.899780 24.324514 -570.575867
v 544.899780 6.220845 -570.575867
v 319.290314 52.831020 -812.326416
v 319.290314 33.554623 -812.326416
v 306.036407 52.831020 -799.979553
v 306.036407 33.554623 -799.979553
v 319.594391 51.046864 -800.320007
v 319.594391 33.554623 -800.320007
v 305.732330 51.046864 -811.985901
v 305.732330 33.554623 -811.985901
v 307.234985 51.573868 -792.607300
v 307.234985 32.101593 -792.607300
v 307.575256 51.573875 -779.708435
v 307.575256 32.101597 -779.708374
v 314.119293 50.205276 -785.240845
v 314.119263 32.101597 -785.240845
v 300.690979 50.205269 -787.074890
v 300.690979 32.101593 -787.074951
v 121.355301 44.011364 -963.460632
v 121.355301 24.539095 -963.460632
v 121.195816 44.011364 -976.363037
v 121.195816 24.539095 -976.363037
v 114.574905 42.642765 -970.922913
v 114.574905 24.539097 -970.922913
v 127.976196 42.642765 -968.900818
v 127.976196 24.539095 -968.900818
v 97.007767 39.245388 -960.705505
v 97.007767 19.968992 -960.705505
v 115.041977 39.245388 -962.401978
v 115.041977 19.968990 -962.401978
v 104.091934 37.461231 -970.403931
v 104.091965 19.968990 -970.403931
v 107.957779 37.461231 -952.703491
v 107.957779 19.968992 -952.703491
v 236.979172 48.281731 -924.681396
v 236.979172 29.005335 -924.681396
v 255.013397 48.281731 -926.377808
v 255.013397 29.005335 -926.377808
v 244.063354 46.497574 -934.379761
v 244.063354 29.005335 -934.379761
v 247.929199 46.497574 -916.679321
v 247.929199 29.005337 -916.679382
v 282.906006 51.696075 -930.612122
v 282.906006 32.223804 -930.612122
v 282.746521 51.696072 -943.514526
v 282.746521 32.223801 -943.514526
v 276.125610 50.327473 -938.074402
v 276.125610 32.223801 -938.074402
v 289.526886 50.327473 -936.052307
v 289.526886 32.223801 -936.052307
v 147.202713 39.170410 -557.170349
v 147.202713 19.894009 -557.170349
v 142.882553 39.170406 -574.761475
v 142.882553 19.894007 -574.761475
v 136.571091 37.386253 -562.757263
v 136.571075 19.894012 -562.757263
v 153.514175 37.386253 -569.174561
v 153.514175 19.894007 -569.174561
v 134.566437 37.913254 -619.719910
v 134.566437 18.440975 -619.719910
v 121.826599 37.913258 -617.671875
v 121.826584 18.440977 -617.671875
v 128.178024 36.544659 -611.919434
v 128.178024 18.440979 -611.919434
v 128.214996 36.544655 -625.472351
v 128.214996 18.440973 -625.472351
v 116.281174 39.170410 -564.819763
v 116.281174 19.894005 -564.819763
v 119.169098 39.170406 -546.937622
v 119.169098 19.894005 -546.937561
v 126.427780 37.386253 -558.393860
v 126.427795 19.894007 -558.393860
v 109.022476 37.386253 -553.363403
v 109.022476 19.894005 -553.363403
v 135.403503 37.913254 -591.634766
v 135.403503 18.440977 -591.634766
v 148.266968 37.913258 -592.649048
v 148.266968 18.440977 -592.649048
v 142.399979 36.544659 -598.894775
v 142.399979 18.440975 -598.894775
v 141.270523 36.544655 -585.388977
v 141.270523 18.440973 -585.388977
v -277.564423 38.326267 -655.539490
v -277.564423 10.573318 -655.539490
v -260.622833 38.326267 -675.381836
v -260.622833 10.573318 -675.381836
v -279.961090 35.757553 -672.677551
v -279.961090 10.573319 -672.677551
v -258.226227 35.757553 -658.243774
v -258.226227 10.573318 -658.243774
v -271.805511 32.120808 -722.099915
v -271.805511 5.489559 -722.099915
v -272.023651 32.120808 -739.745850
v -272.023651 5.489560 -739.745850
v -281.078705 30.249046 -732.305664
v -281.078705 5.489561 -732.305664
v -262.750458 30.249044 -729.540161
v -262.750458 5.489558 -729.540161
v -278.325897 33.216171 -745.339111
v -278.325897 5.463220 -745.339111
v -261.384247 33.216167 -765.181458
v -261.384247 5.463216 -765.181458
v -280.722443 30.647453 -762.477173
v -280.722443 5.463216 -762.477173
v -258.987640 30.647451 -748.043396
v -258.987640 5.463220 -748.043396
v -280.526459 31.831440 -772.962158
v -280.526459 5.468080 -772.962158
v -255.861969 31.831440 -775.282288
v -255.861969 5.468080 -775.282288
v -270.837738 29.391340 -786.226196
v -270.837738 5.468079 -786.226196
v -265.550568 29.391340 -762.018188
v -265.550568 5.468081 -762.018188
v -352.513641 38.055542 -687.653137
v -352.513641 17.323111 -687.653137
v -339.857635 38.055542 -702.476074
v -339.857635 17.323111 -702.476074
v -354.303986 35.811722 -700.455872
v -354.303986 16.998215 -700.455872
v -338.067291 35.811726 -689.673340
v -338.067291 16.998217 -689.673340
v -335.474640 30.850533 -751.269592
v -335.474640 4.219284 -751.269592
v -335.692719 30.850534 -768.915527
v -335.692719 4.219285 -768.915527
v -344.747772 28.978771 -761.475342
v -344.747833 4.219285 -761.475342
v -326.419586 28.978769 -758.709839
v -326.419586 4.219282 -758.709839
v -344.873077 23.602188 -837.541748
v -344.873077 -1.174175 -837.541748
v -327.931488 23.602186 -857.384033
v -327.931488 -1.174174 -857.384033
v -347.269745 21.033470 -854.679749
v -347.269745 -1.174173 -854.679749
v -325.534882 21.033470 -840.245972
v -325.534882 -1.174175 -840.245972
v -327.334320 24.109200 -855.028198
v -327.334320 -2.522047 -855.028198
v -327.552460 24.109201 -872.674194
v -327.552460 -2.522044 -872.674194
v -336.607452 22.237440 -865.233948
v -336.607452 -2.522047 -865.233948
v -318.279205 22.237438 -862.468445
v -318.279205 -2.522047 -862.468445
v -268.075897 20.168924 -854.548523
v -268.075897 -4.607436 -854.548462
v -251.134247 20.168924 -874.390808
v -251.134247 -4.607438 -874.390808
v -270.472504 17.600206 -871.686523
v -270.472504 -4.607438 -871.686523
v -248.737701 17.600208 -857.252808
v -248.737701 -4.607441 -857.252808
v -289.071869 30.166357 -725.431458
v -289.071869 3.535107 -725.431458
v -289.289948 30.166359 -743.077393
v -289.289948 3.535110 -743.077393
v -298.345001 28.294596 -735.637207
v -298.345001 3.535110 -735.637207
v -280.016754 28.294594 -732.871704
v -280.016754 3.535107 -732.871704
v -293.591095 28.214378 -777.046387
v -293.591095 0.461430 -777.046387
v -276.649445 28.214376 -796.888733
v -276.649445 0.461427 -796.888733
v -295.987701 25.645664 -794.184448
v -295.987701 0.461427 -794.184448
v -274.252899 25.645662 -779.750671
v -274.252899 0.461428 -779.750671
v -260.387054 33.216175 -730.254333
v -260.387054 5.463221 -730.254333
v -243.445404 33.216167 -750.096680
v -243.445404 5.463219 -750.096680
v -262.783600 30.647453 -747.392395
v -262.783600 5.463220 -747.392395
v -241.048737 30.647453 -732.958618
v -241.048737 5.463221 -732.958618
v -163.327606 33.216167 -790.833740
v -163.327606 5.463218 -790.833679
v -146.385956 33.216164 -810.676025
v -146.385956 5.463213 -810.676025
v -165.724243 30.647449 -807.971741
v -165.724243 5.463217 -807.971741
v -143.989380 30.647449 -793.537964
v -143.989380 5.463218 -793.538025
v -214.646576 30.137791 -872.875793
v -214.646576 2.384841 -872.875793
v -197.704926 30.137787 -892.718140
v -197.704926 2.384835 -892.718140
v -217.043121 27.569073 -890.013855
v -217.043121 2.384838 -890.013855
v -195.308319 27.569073 -875.580078
v -195.308319 2.384841 -875.580139
v -236.173737 37.667870 -631.592346
v -236.173737 11.036625 -631.592346
v -236.391876 37.667873 -649.238342
v -236.391876 11.036624 -649.238403
v -245.446991 35.796108 -641.798157
v -245.446991 11.036625 -641.798157
v -227.118744 35.796108 -639.032593
v -227.118744 11.036622 -639.032593
v -203.460663 32.120811 -649.247314
v -203.460663 5.489565 -649.247314
v -203.678802 32.120815 -666.893311
v -203.678802 5.489563 -666.893250
v -212.733856 30.249052 -659.453064
v -212.733856 5.489564 -659.453064
v -194.405609 30.249050 -656.687500
v -194.405609 5.489564 -656.687500
v -242.283051 40.189430 -383.622681
v -242.283051 19.984739 -383.622681
v -232.105728 40.189430 -389.263489
v -232.105728 19.984739 -389.263519
v -242.223404 38.820835 -392.134705
v -242.223404 19.984739 -392.134705
v -232.165375 38.820831 -380.751465
v -232.165375 19.984739 -380.751495
v -246.465500 41.263062 -405.500122
v -246.465500 19.965481 -405.500122
v -227.388306 41.263062 -405.500122
v -227.388306 19.965481 -405.500122
v -238.073441 39.384865 -414.969543
v -238.073441 19.965481 -414.969543
v -235.780365 39.384865 -396.030670
v -235.780365 19.965479 -396.030670
v -244.944458 40.200249 -425.119598
v -244.944458 19.969032 -425.119598
v -231.933411 40.200249 -412.505341
v -231.933411 19.969034 -412.505341
v -232.964371 38.416092 -426.023895
v -232.964371 19.969032 -426.023895
v -243.913498 38.416092 -411.601044
v -243.913498 19.969034 -411.601044
v 325.478455 38.231377 -502.368774
v 325.478455 14.613831 -502.368774
v 346.375916 38.231377 -499.076172
v 346.375916 14.613831 -499.076172
v 336.304352 36.148586 -511.285248
v 336.304352 14.613831 -511.285278
v 335.550018 36.148590 -490.159668
v 335.550018 14.613832 -490.159668
v 361.350250 35.296631 -481.694275
v 361.350250 11.679082 -481.694275
v 382.247742 35.296635 -478.401642
v 382.247742 11.679082 -478.401642
v 372.176178 33.213837 -490.610748
v 372.176178 11.679080 -490.610748
v 371.421844 33.213840 -469.485168
v 371.421844 11.679083 -469.485168
v 358.394287 31.910770 -480.038300
v 358.394257 11.706074 -480.038300
v 363.466553 31.910770 -490.510559
v 363.466553 11.706071 -490.510559
v 353.541412 30.542171 -487.031708
v 353.541412 11.706073 -487.031708
v 368.319427 30.542170 -483.517151
v 368.319427 11.706072 -483.517151
v 387.498260 32.984398 -491.371429
v 387.498260 11.686812 -491.371429
v 403.094971 32.984398 -502.356995
v 403.094971 11.686811 -502.356995
v 388.906281 31.106197 -503.945801
v 388.906281 11.686810 -503.945801
v 401.686920 31.106199 -489.782623
v 401.686920 11.686812 -489.782623
v 406.891144 32.600082 -507.090942
v 406.891144 11.302497 -507.090942
v 422.487854 32.600082 -518.076477
v 422.487854 11.302495 -518.076477
v 408.299164 30.721882 -519.665283
v 408.299164 11.302495 -519.665283
v 421.079803 30.721886 -505.502136
v 421.079803 11.302496 -505.502136
v 423.737183 30.250143 -507.306915
v 423.737183 10.045444 -507.306915
v 428.809479 30.250141 -517.779175
v 428.809479 10.045444 -517.779175
v 418.884338 28.881546 -514.300293
v 418.884338 10.045444 -514.300293
v 433.662354 28.881542 -510.785767
v 433.662354 10.045443 -510.785767
v 424.893280 30.931059 -517.907776
v 424.893280 9.633472 -517.907776
v 440.489990 30.931059 -528.893311
v 440.489990 9.633471 -528.893311
v 426.301300 29.052860 -530.482117
v 426.301300 9.633471 -530.482117
v 439.081940 29.052864 -516.318970
v 439.081940 9.633472 -516.318970
v 458.134674 28.782295 -530.289429
v 458.134674 8.577598 -530.289429
v 463.206970 28.782293 -540.761658
v 463.206970 8.577597 -540.761658
v 453.281799 27.413698 -537.282837
v 453.281799 8.577599 -537.282837
v 468.059814 27.413694 -533.768250
v 468.059814 8.577598 -533.768250
v 459.215820 33.153324 -545.488525
v 459.215820 8.547313 -545.488525
v 480.987946 33.153324 -542.058044
v 480.987946 8.547313 -542.058044
v 470.494843 30.983362 -554.778137
v 470.494843 8.547310 -554.778137
v 469.708923 30.983364 -532.768433
v 469.708954 8.547314 -532.768433
v 476.263916 28.978651 -542.871216
v 476.263916 8.773953 -542.871216
v 481.336182 28.978649 -553.343445
v 481.336182 8.773951 -553.343445
v 471.411011 27.610050 -549.864624
v 471.411011 8.773952 -549.864624
v 486.189056 27.610048 -546.350037
v 486.189026 8.773951 -546.350037
v 498.404480 27.505737 -560.633118
v 498.404480 7.301043 -560.633118
v 503.476746 27.505735 -571.105347
v 503.476746 7.301040 -571.105347
v 493.551575 26.137140 -567.626526
v 493.551575 7.301042 -567.626526
v 508.329620 26.137138 -564.111938
v 508.329620 7.301041 -564.111938
v 515.336914 27.211205 -565.992981
v 515.336914 7.006507 -565.992981
v 520.409180 27.211203 -576.465210
v 520.409180 7.006505 -576.465271
v 510.484039 25.842604 -572.986389
v 510.484039 7.006507 -572.986389
v 525.262085 25.842604 -569.471802
v 525.262085 7.006505 -569.471802
v 538.546021 26.327366 -574.739990
v 538.546021 6.122670 -574.739990
v 543.293335 26.327364 -585.363525
v 543.293335 6.122669 -585.363525
v 533.480042 24.958769 -581.580627
v 533.480042 6.122669 -581.580627
v 548.359314 24.958765 -578.522949
v 548.359314 6.122667 -578.522949
v 548.623657 26.425545 -559.244751
v 548.623657 6.220848 -559.244751
v 541.385681 26.425545 -568.355591
v 541.385681 6.220845 -568.355591
v 540.217773 25.056946 -557.903442
v 540.217773 6.220848 -557.903442
v 549.791565 25.056944 -569.696899
v 549.791565 6.220845 -569.696899
v 321.665833 53.785843 -805.124756
v 321.665833 33.554623 -805.124756
v 303.660889 53.785843 -807.181213
v 303.660889 33.554623 -807.181213
v 312.725464 52.001686 -797.099121
v 312.725464 33.554623 -797.099121
v 312.601257 52.001686 -815.206787
v 312.601257 33.554623 -815.206787
v 312.453766 52.306305 -789.049316
v 312.453766 32.101597 -789.049316
v 302.356506 52.306301 -783.266479
v 302.356506 32.101593 -783.266418
v 312.513428 50.937706 -780.537292
v 312.513428 32.101601 -780.537292
v 302.296844 50.937702 -791.778442
v 302.296844 32.101593 -791.778442
v 116.186905 44.743793 -967.091431
v 116.186905 24.539097 -967.091431
v 126.364212 44.743793 -972.732300
v 126.364212 24.539093 -972.732300
v 116.246536 43.375195 -975.603516
v 116.246536 24.539095 -975.603516
v 126.304581 43.375195 -964.220215
v 126.304550 24.539095 -964.220215
v 99.519348 40.200207 -967.860901
v 99.519348 19.968990 -967.860901
v 112.530396 40.200207 -955.246582
v 112.530396 19.968992 -955.246582
v 111.499420 38.416050 -968.765137
v 111.499420 19.968990 -968.765137
v 100.550293 38.416050 -954.342285
v 100.550293 19.968992 -954.342285
v 239.490768 49.236553 -931.836670
v 239.490768 29.005335 -931.836670
v 252.501801 49.236553 -919.222412
v 252.501801 29.005337 -919.222412
v 251.470856 47.452396 -932.741028
v 251.470856 29.005335 -932.741028
v 240.521729 47.452396 -918.318115
v 240.521729 29.005337 -918.318115
v 277.737610 52.428505 -934.242920
v 277.737610 32.223804 -934.242920
v 287.914917 52.428501 -939.883789
v 287.914917 32.223801 -939.883789
v 277.797241 51.059902 -942.755005
v 277.797241 32.223801 -942.755005
v 287.855286 51.059906 -931.371704
v 287.855255 32.223801 -931.371704
v 139.756607 40.125233 -558.606567
v 139.756622 19.894012 -558.606567
v 150.328659 40.125233 -573.325195
v 150.328659 19.894007 -573.325195
v 137.106964 38.341072 -570.324890
v 137.106979 19.894011 -570.324890
v 152.978287 38.341076 -561.606873
v 152.978287 19.894012 -561.606934
v 131.731964 38.645687 -614.075317
v 131.731964 18.440979 -614.075317
v 124.661041 38.645683 -623.316467
v 124.661026 18.440975 -623.316467
v 123.303070 37.277088 -612.887329
v 123.303070 18.440979 -612.887268
v 133.089951 37.277084 -624.504456
v 133.089951 18.440973 -624.504456
v 123.587250 40.125233 -562.787903
v 123.587234 19.894005 -562.787903
v 111.863007 40.125233 -548.969421
v 111.863007 19.894005 -548.969421
v 125.283554 38.341072 -550.894104
v 125.283539 19.894005 -550.894043
v 110.166733 38.341076 -560.863220
v 110.166718 19.894007 -560.863220
v 138.683777 38.645687 -597.032471
v 138.683792 18.440975 -597.032410
v 144.986710 38.645683 -587.251343
v 144.986710 18.440973 -587.251343
v 147.181030 37.277088 -597.537048
v 147.181030 18.440975 -597.537109
v 136.489456 37.277084 -586.746704
v 136.489456 18.440973 -586.746704
v -282.139130 39.700962 -665.460693
v -282.139130 10.573319 -665.460693
v -256.048187 39.700962 -665.460693
v -256.048187 10.573319 -665.460693
v -270.661713 37.132244 -678.411560
v -270.661713 10.573317 -678.411560
v -267.525543 37.132244 -652.509766
v -267.525543 10.573318 -652.509766
v -278.874115 33.122517 -727.065552
v -278.874115 5.489561 -727.065552
v -264.955048 33.122513 -734.780212
v -264.955048 5.489561 -734.780212
v -278.792511 31.250753 -738.707031
v -278.792511 5.489560 -738.707031
v -265.036652 31.250750 -723.138733
v -265.036652 5.489559 -723.138794
v -282.900482 34.590862 -755.260254
v -282.900482 5.463219 -755.260254
v -256.809601 34.590862 -755.260254
v -256.809601 5.463219 -755.260254
v -271.423126 32.022144 -768.211182
v -271.423126 5.463216 -768.211182
v -268.287018 32.022144 -742.309387
v -268.287018 5.463220 -742.309387
v -277.091461 33.137306 -782.748169
v -277.091461 5.468079 -782.748169
v -259.296906 33.137306 -765.496277
v -259.296906 5.468081 -765.496277
v -260.706879 30.697201 -783.984924
v -260.706879 5.468079 -783.984924
v -275.681427 30.697203 -764.259521
v -275.681427 5.468081 -764.259521
v -355.931061 39.256363 -695.064575
v -355.931061 17.496986 -695.064575
v -336.440216 39.256363 -695.064575
v -336.440155 17.496986 -695.064575
v -347.357025 37.012539 -704.739380
v -347.357025 17.172089 -704.739380
v -345.014191 37.012539 -685.389832
v -345.014191 17.172089 -685.389832
v -342.543182 31.852242 -756.235229
v -342.543182 4.219286 -756.235229
v -328.624176 31.852240 -763.949951
v -328.624176 4.219285 -763.949951
v -342.461578 29.980478 -767.876709
v -342.461578 4.219285 -767.876709
v -328.705780 29.980476 -752.308472
v -328.705780 4.219284 -752.308472
v -349.447784 24.976879 -847.462891
v -349.447784 -1.174173 -847.462891
v -323.356842 24.976879 -847.462891
v -323.356842 -1.174173 -847.462891
v -337.970367 22.408161 -860.413757
v -337.970367 -1.174174 -860.413757
v -334.834198 22.408163 -834.511963
v -334.834198 -1.174175 -834.511963
v -334.402863 25.110909 -859.993835
v -334.402863 -2.522047 -859.993835
v -320.483856 25.110909 -867.708496
v -320.483856 -2.522048 -867.708496
v -334.321320 23.239143 -871.635315
v -334.321320 -2.522044 -871.635315
v -320.565460 23.239143 -856.067017
v -320.565460 -2.522047 -856.067078
v -272.650543 21.543617 -864.469666
v -272.650543 -4.607437 -864.469666
v -246.559662 21.543617 -864.469666
v -246.559662 -4.607437 -864.469666
v -261.173187 18.974897 -877.420532
v -261.173187 -4.607438 -877.420532
v -258.037018 18.974899 -851.518799
v -258.037018 -4.607436 -851.518799
v -296.140411 31.168064 -730.397095
v -296.140411 3.535107 -730.397095
v -282.221344 31.168062 -738.111755
v -282.221344 3.535106 -738.111755
v -296.058807 29.296303 -742.038574
v -296.058807 3.535110 -742.038574
v -282.302948 29.296299 -726.470337
v -282.302948 3.535107 -726.470337
v -298.165802 29.589073 -786.967529
v -298.165802 0.461428 -786.967529
v -272.074799 29.589073 -786.967529
v -272.074799 0.461428 -786.967529
v -286.688324 27.020353 -799.918457
v -286.688324 0.461427 -799.918457
v -283.552216 27.020355 -774.016663
v -283.552216 0.461431 -774.016663
v -264.961639 34.590862 -740.175537
v -264.961639 5.463220 -740.175537
v -238.870697 34.590862 -740.175537
v -238.870697 5.463220 -740.175537
v -253.484283 32.022144 -753.126404
v -253.484283 5.463219 -753.126404
v -250.348175 32.022148 -727.224609
v -250.348175 5.463221 -727.224609
v -167.902222 34.590858 -800.754883
v -167.902222 5.463213 -800.754883
v -141.811340 34.590858 -800.754883
v -141.811340 5.463213 -800.754883
v -156.424835 32.022141 -813.705750
v -156.424835 5.463212 -813.705750
v -153.288727 32.022141 -787.803955
v -153.288727 5.463214 -787.804016
v -219.221161 31.512484 -882.796997
v -219.221161 2.384836 -882.796997
v -193.130280 31.512484 -882.796997
v -193.130280 2.384836 -882.796997
v -207.743805 28.943766 -895.747864
v -207.743805 2.384837 -895.747864
v -204.607697 28.943769 -869.846069
v -204.607697 2.384837 -869.846069
v -243.242279 38.669575 -636.558044
v -243.242340 11.036626 -636.558044
v -229.323334 38.669575 -644.272705
v -229.323334 11.036625 -644.272705
v -243.160736 36.797817 -648.199524
v -243.160736 11.036625 -648.199524
v -229.404877 36.797813 -632.631226
v -229.404877 11.036623 -632.631226
v -210.529266 33.122524 -654.212952
v -210.529266 5.489568 -654.212952
v -196.610260 33.122520 -661.927612
v -196.610260 5.489564 -661.927612
v -210.447723 31.250759 -665.854431
v -210.447723 5.489564 -665.854431
v -196.691803 31.250755 -650.286133
v -196.691803 5.489565 -650.286133
vn 0.9999 -0.0000 -0.0124
vn -0.1492 -0.0000 0.9888
vn 0.7605 -0.0000 0.6493
vn -0.5532 -0.0000 0.8330
vn 0.0937 -0.0000 0.9956
vn -0.9770 -0.0000 0.2134
vn 0.6499 -0.0000 0.7600
vn -0.6759 -0.0000 0.7370
vn 0.8104 -0.0000 -0.5859
vn 0.4474 -0.0000 0.8943
vn 0.9957 -0.0000 0.0929
vn 0.0274 -0.0000 0.9996
vn 0.7919 -0.0000 -0.6106
vn 0.4748 -0.0000 0.8801
vn -0.1767 -0.0000 -0.9843
vn 0.9999 -0.0000 -0.0155
vn -0.6816 -0.0000 -0.7317
vn 0.6439 -0.0000 -0.7651
vn -0.9997 -0.0000 0.0264
vn 0.1353 -0.0000 -0.9908
vn 0.0936 -0.0000 0.9956
vn 0.9711 -0.0000 -0.2385
vn 0.3542 -0.0000 0.9352
vn -0.1587 -0.0000 -0.9873
vn 1.0000 -0.0000 0.0027
vn -0.9872 -0.0000 0.1594
vn -0.2777 -0.0000 -0.9607
vn 0.0786 -0.0000 0.9969
vn -0.9965 -0.0000 -0.0833
vn 0.4848 -0.0000 0.8746
vn -0.7494 -0.0000 0.6621
vn -0.0000 -0.0000 1.0000
vn -0.9927 -0.0000 0.1202
vn -0.6961 -0.0000 0.7180
vn -0.7965 -0.0000 -0.6047
vn -0.1556 -0.0000 0.9878
vn -0.9994 -0.0000 -0.0357
vn 0.9000 -0.0000 0.4359
vn -0.2314 -0.0000 0.9729
vn 0.5758 -0.0000 0.8176
vn -0.7424 -0.0000 0.6699
vn 0.9130 -0.0000 0.4080
vn -0.2013 -0.0000 0.9795
vn 0.7830 -0.0000 -0.6220
vn 0.7764 -0.0000 0.6303
vn 0.1135 -0.0000 -0.9935
vn 1.0000 -0.0000 -0.0069
vn -0.4970 -0.0000 -0.8678
vn 0.7400 -0.0000 -0.6726
vn -0.7965 -0.0000 -0.6046
vn 0.8122 -0.0000 0.5834
vn -0.4814 -0.0000 0.8765
vn 0.7942 -0.0000 -0.6077
vn 0.7648 -0.0000 0.6443
vn -0.7625 -0.0000 -0.6470
vn 0.5505 -0.0000 -0.8348
vn -0.8406 -0.0000 0.5417
vn -0.7104 -0.0000 -0.7038
vt 0.000000 2.000000
vt 0.000000 1.000000
vt 1.000000 2.000000
vt 1.000000 1.000000
s 1
usemtl TREELRGB
f 1/1/1 2/2/1 3/3/1
f 4/4/1 3/3/1 2/2/1
f 5/1/2 6/2/2 7/3/2
f 8/4/2 7/3/2 6/2/2
f 9/1/3 10/2/3 11/3/3
f 12/4/3 11/3/3 10/2/3
f 13/1/4 14/2/4 15/3/4
f 16/4/4 15/3/4 14/2/4
f 17/1/5 18/2/5 19/3/5
f 20/4/5 19/3/5 18/2/5
f 21/1/6 22/2/6 23/3/6
f 24/4/6 23/3/6 22/2/6
f 25/1/7 26/2/7 27/3/7
f 28/4/7 27/3/7 26/2/7
f 29/1/8 30/2/8 31/3/8
f 32/4/8 31/3/8 30/2/8
f 33/1/7 34/2/7 35/3/7
f 36/4/7 35/3/7 34/2/7
f 37/1/8 38/2/8 39/3/8
f 40/4/8 39/3/8 38/2/8
f 41/1/9 42/2/9 43/3/9
f 44/4/9 43/3/9 42/2/9
f 45/1/10 46/2/10 47/3/10
f 48/4/10 47/3/10 46/2/10
f 49/1/11 50/2/11 51/3/11
f 52/4/11 51/3/11 50/2/11
f 53/1/12 54/2/12 55/3/12
f 56/4/12 55/3/12 54/2/12
f 57/1/11 58/2/11 59/3/11
f 60/4/11 59/3/11 58/2/11
f 61/1/12 62/2/12 63/3/12
f 64/4/12 63/3/12 62/2/12
f 65/1/9 66/2/9 67/3/9
f 68/4/9 67/3/9 66/2/9
f 69/1/10 70/2/10 71/3/10
f 72/4/10 71/3/10 70/2/10
f 73/1/11 74/2/11 75/3/11
f 76/4/11 75/3/11 74/2/11
f 77/1/12 78/2/12 79/3/12
f 80/4/12 79/3/12 78/2/12
f 81/1/9 82/2/9 83/3/9
f 84/4/9 83/3/9 82/2/9
f 85/1/10 86/2/10 87/3/10
f 88/4/10 87/3/10 86/2/10
f 89/1/7 90/2/7 91/3/7
f 92/4/7 91/3/7 90/2/7
f 93/1/8 94/2/8 95/3/8
f 96/4/8 95/3/8 94/2/8
f 97/1/9 98/2/9 99/3/9
f 100/4/9 99/3/9 98/2/9
f 101/1/10 102/2/10 103/3/10
f 104/4/10 103/3/10 102/2/10
f 105/1/9 106/2/9 107/3/9
f 108/4/9 107/3/9 106/2/9
f 109/1/10 110/2/10 111/3/10
f 112/4/10 111/3/10 110/2/10
f 113/1/9 114/2/9 115/3/9
f 116/4/9 115/3/9 114/2/9
f 117/1/10 118/2/10 119/3/10
f 120/4/10 119/3/10 118/2/10
f 121/1/13 122/2/13 123/3/13
f 124/4/13 123/3/13 122/2/13
f 125/1/14 126/2/14 127/3/14
f 128/4/14 127/3/14 126/2/14
f 129/1/15 130/2/15 131/3/15
f 132/4/15 131/3/15 130/2/15
f 133/1/16 134/2/16 135/3/16
f 136/4/16 135/3/16 134/2/16
f 137/1/17 138/2/17 139/3/17
f 140/4/17 139/3/17 138/2/17
f 141/1/18 142/2/18 143/3/18
f 144/4/18 143/3/18 142/2/18
f 145/1/19 146/2/19 147/3/19
f 148/4/19 147/3/19 146/2/19
f 149/1/20 150/2/20 151/3/20
f 152/4/20 151/3/20 150/2/20
f 153/1/1 154/2/1 155/3/1
f 156/4/1 155/3/1 154/2/1
f 157/1/2 158/2/2 159/3/2
f 160/4/2 159/3/2 158/2/2
f 161/1/21 162/2/5 163/3/5
f 164/4/5 163/3/5 162/2/5
f 165/1/6 166/2/6 167/3/6
f 168/4/6 167/3/6 166/2/6
f 169/1/21 170/2/21 171/3/21
f 172/4/21 171/3/21 170/2/21
f 173/1/6 174/2/6 175/3/6
f 176/4/6 175/3/6 174/2/6
f 177/1/1 178/2/1 179/3/1
f 180/4/1 179/3/1 178/2/1
f 181/1/2 182/2/2 183/3/2
f 184/4/2 183/3/2 182/2/2
f 185/1/22 186/2/22 187/3/22
f 188/4/22 187/3/22 186/2/22
f 189/1/23 190/2/23 191/3/23
f 192/4/23 191/3/23 190/2/23
f 193/1/24 194/2/24 195/3/24
f 196/4/24 195/3/24 194/2/24
f 197/1/25 198/2/25 199/3/25
f 200/4/25 199/3/25 198/2/25
f 201/1/26 202/2/26 203/3/26
f 204/4/26 203/3/26 202/2/26
f 205/1/27 206/2/27 207/3/27
f 208/4/27 207/3/27 206/2/27
f 209/1/28 210/2/28 211/3/28
f 212/4/28 211/3/28 210/2/28
f 213/1/29 214/2/29 215/3/29
f 216/4/29 215/3/29 214/2/29
f 217/1/3 218/2/3 219/3/3
f 220/4/3 219/3/3 218/2/3
f 221/1/4 222/2/4 223/3/4
f 224/4/4 223/3/4 222/2/4
f 225/1/1 226/2/1 227/3/1
f 228/4/1 227/3/1 226/2/1
f 229/1/2 230/2/2 231/3/2
f 232/4/2 231/3/2 230/2/2
f 233/1/3 234/2/3 235/3/3
f 236/4/3 235/3/3 234/2/3
f 237/1/4 238/2/4 239/3/4
f 240/4/4 239/3/4 238/2/4
f 241/1/5 242/2/5 243/3/5
f 244/4/5 243/3/5 242/2/5
f 245/1/6 246/2/6 247/3/6
f 248/4/6 247/3/6 246/2/6
f 249/1/3 250/2/3 251/3/3
f 252/4/3 251/3/3 250/2/3
f 253/1/4 254/2/4 255/3/4
f 256/4/4 255/3/4 254/2/4
f 257/1/1 258/2/1 259/3/1
f 260/4/1 259/3/1 258/2/1
f 261/1/2 262/2/2 263/3/2
f 264/4/2 263/3/2 262/2/2
f 265/1/3 266/2/3 267/3/3
f 268/4/3 267/3/3 266/2/3
f 269/1/4 270/2/4 271/3/4
f 272/4/4 271/3/4 270/2/4
f 273/1/1 274/2/1 275/3/1
f 276/4/1 275/3/1 274/2/1
f 277/1/2 278/2/2 279/3/2
f 280/4/2 279/3/2 278/2/2
f 281/1/3 282/2/3 283/3/3
f 284/4/3 283/3/3 282/2/3
f 285/1/4 286/2/4 287/3/4
f 288/4/4 287/3/4 286/2/4
f 289/1/1 290/2/1 291/3/1
f 292/4/1 291/3/1 290/2/1
f 293/1/2 294/2/2 295/3/2
f 296/4/2 295/3/2 294/2/2
f 297/1/3 298/2/3 299/3/3
f 300/4/3 299/3/3 298/2/3
f 301/1/4 302/2/4 303/3/4
f 304/4/4 303/3/4 302/2/4
f 305/1/3 306/2/3 307/3/3
f 308/4/3 307/3/3 306/2/3
f 309/1/4 310/2/4 311/3/4
f 312/4/4 311/3/4 310/2/4
f 313/1/3 314/2/3 315/3/3
f 316/4/3 315/3/3 314/2/3
f 317/1/4 318/2/4 319/3/4
f 320/4/4 319/3/4 318/2/4
f 321/1/3 322/2/3 323/3/3
f 324/4/3 323/3/3 322/2/3
f 325/1/4 326/2/4 327/3/4
f 328/4/4 327/3/4 326/2/4
f 329/1/1 330/2/1 331/3/1
f 332/4/1 331/3/1 330/2/1
f 333/1/2 334/2/2 335/3/2
f 336/4/2 335/3/2 334/2/2
f 337/1/1 338/2/1 339/3/1
f 340/4/1 339/3/1 338/2/1
f 341/1/2 342/2/2 343/3/2
f 344/4/2 343/3/2 342/2/2
f 345/1/30 346/2/30 347/3/30
f 348/4/30 347/3/30 346/2/30
f 349/3/31 350/4/31 351/1/31
f 352/2/31 351/1/31 350/4/31
f 353/1/32 354/2/32 355/3/32
f 356/4/32 355/3/32 354/2/32
f 357/3/33 358/4/33 359/1/33
f 360/2/33 359/1/33 358/4/33
f 361/1/34 362/2/34 363/3/34
f 364/4/34 363/3/34 362/2/34
f 365/3/35 366/4/35 367/1/35
f 368/2/35 367/1/35 366/4/35
f 369/1/36 370/2/36 371/3/36
f 372/4/36 371/3/36 370/2/36
f 373/3/37 374/4/37 375/1/37
f 376/2/37 375/1/37 374/4/37
f 377/1/36 378/2/36 379/3/36
f 380/4/36 379/3/36 378/2/36
f 381/3/37 382/4/37 383/1/37
f 384/2/37 383/1/37 382/4/37
f 385/1/38 386/2/38 387/3/38
f 388/4/38 387/3/38 386/2/38
f 389/3/39 390/4/39 391/1/39
f 392/2/39 391/1/39 390/4/39
f 393/1/40 394/2/40 395/3/40
f 396/4/40 395/3/40 394/2/40
f 397/3/41 398/4/41 399/1/41
f 400/2/41 399/1/41 398/4/41
f 401/1/40 402/2/40 403/3/40
f 404/4/40 403/3/40 402/2/40
f 405/3/41 406/4/41 407/1/41
f 408/2/41 407/1/41 406/4/41
f 409/1/38 410/2/38 411/3/38
f 412/4/38 411/3/38 410/2/38
f 413/3/39 414/4/39 415/1/39
f 416/2/39 415/1/39 414/4/39
f 417/1/40 418/2/40 419/3/40
f 420/4/40 419/3/40 418/2/40
f 421/3/41 422/4/41 423/1/41
f 424/2/41 423/1/41 422/4/41
f 425/1/38 426/2/38 427/3/38
f 428/4/38 427/3/38 426/2/38
f 429/3/39 430/4/39 431/1/39
f 432/2/39 431/1/39 430/4/39
f 433/1/36 434/2/36 435/3/36
f 436/4/36 435/3/36 434/2/36
f 437/3/37 438/4/37 439/1/37
f 440/2/37 439/1/37 438/4/37
f 441/1/38 442/2/38 443/3/38
f 444/4/38 443/3/38 442/2/38
f 445/3/39 446/4/39 447/1/39
f 448/2/39 447/1/39 446/4/39
f 449/1/38 450/2/38 451/3/38
f 452/4/38 451/3/38 450/2/38
f 453/3/39 454/4/39 455/1/39
f 456/2/39 455/1/39 454/4/39
f 457/1/38 458/2/38 459/3/38
f 460/4/38 459/3/38 458/2/38
f 461/3/39 462/4/39 463/1/39
f 464/2/39 463/1/39 462/4/39
f 465/1/42 466/2/42 467/3/42
f 468/4/42 467/3/42 466/2/42
f 469/3/43 470/4/43 471/1/43
f 472/2/43 471/1/43 470/4/43
f 473/1/44 474/2/44 475/3/44
f 476/4/44 475/3/44 474/2/44
f 477/3/45 478/4/45 479/1/45
f 480/2/45 479/1/45 478/4/45
f 481/1/46 482/2/46 483/3/46
f 484/4/46 483/3/46 482/2/46
f 485/3/47 486/4/47 487/1/47
f 488/2/47 487/1/47 486/4/47
f 489/1/48 490/2/48 491/3/48
f 492/4/48 491/3/48 490/2/48
f 493/3/49 494/4/49 495/1/49
f 496/2/49 495/1/49 494/4/49
f 497/1/30 498/2/30 499/3/30
f 500/4/30 499/3/30 498/2/30
f 501/3/31 502/4/31 503/1/31
f 504/2/31 503/1/31 502/4/31
f 505/1/34 506/2/34 507/3/34
f 508/4/34 507/3/34 506/2/34
f 509/3/50 510/4/35 511/1/35
f 512/2/35 511/1/35 510/4/35
f 513/1/34 514/2/34 515/3/34
f 516/4/34 515/3/34 514/2/34
f 517/3/50 518/4/35 519/1/35
f 520/2/35 519/1/35 518/4/35
f 521/1/30 522/2/30 523/3/30
f 524/4/30 523/3/30 522/2/30
f 525/3/31 526/4/31 527/1/31
f 528/2/31 527/1/31 526/4/31
f 529/1/51 530/2/51 531/3/51
f 532/4/51 531/3/51 530/2/51
f 533/3/52 534/4/52 535/1/52
f 536/2/52 535/1/52 534/4/52
f 537/1/53 538/2/53 539/3/53
f 540/4/53 539/3/53 538/2/53
f 541/3/54 542/4/54 543/1/54
f 544/2/54 543/1/54 542/4/54
f 545/1/55 546/2/55 547/3/55
f 548/4/55 547/3/55 546/2/55
f 549/3/56 550/4/56 551/1/56
f 552/2/56 551/1/56 550/4/56
f 553/1/57 554/2/57 555/3/57
f 556/4/57 555/3/57 554/2/57
f 557/3/58 558/4/58 559/1/58
f 560/2/58 559/1/58 558/4/58
f 561/1/32 562/2/32 563/3/32
f 564/4/32 563/3/32 562/2/32
f 565/3/33 566/4/33 567/1/33
f 568/2/33 567/1/33 566/4/33
f 569/1/30 570/2/30 571/3/30
f 572/4/30 571/3/30 570/2/30
f 573/3/31 574/4/31 575/1/31
f 576/2/31 575/1/31 574/4/31
f 577/1/32 578/2/32 579/3/32
f 580/4/32 579/3/32 578/2/32
f 581/3/33 582/4/33 583/1/33
f 584/2/33 583/1/33 582/4/33
f 585/1/34 586/2/34 587/3/34
f 588/4/34 587/3/34 586/2/34
f 589/3/35 590/4/35 591/1/35
f 592/2/35 591/1/35 590/4/35
f 593/1/32 594/2/32 595/3/32
f 596/4/32 595/3/32 594/2/32
f 597/3/33 598/4/33 599/1/33
f 600/2/33 599/1/33 598/4/33
f 601/1/30 602/2/30 603/3/30
f 604/4/30 603/3/30 602/2/30
f 605/3/31 606/4/31 607/1/31
f 608/2/31 607/1/31 606/4/31
f 609/1/32 610/2/32 611/3/32
f 612/4/32 611/3/32 610/2/32
f 613/3/33 614/4/33 615/1/33
f 616/2/33 615/1/33 614/4/33
f 617/1/30 618/2/30 619/3/30
f 620/4/30 619/3/30 618/2/30
f 621/3/31 622/4/31 623/1/31
f 624/2/31 623/1/31 622/4/31
f 625/1/32 626/2/32 627/3/32
f 628/4/32 627/3/32 626/2/32
f 629/3/33 630/4/33 631/1/33
f 632/2/33 631/1/33 630/4/33
f 633/1/30 634/2/30 635/3/30
f 636/4/30 635/3/30 634/2/30
f 637/3/31 638/4/31 639/1/31
f 640/2/31 639/1/31 638/4/31
f 641/1/32 642/2/32 643/3/32
f 644/4/32 643/3/32 642/2/32
f 645/3/33 646/4/33 647/1/33
f 648/2/33 647/1/33 646/4/33
f 649/1/32 650/2/32 651/3/32
f 652/4/32 651/3/32 650/2/32
f 653/3/33 654/4/33 655/1/33
f 656/2/33 655/1/33 654/4/33
f 657/1/32 658/2/32 659/3/32
f 660/4/32 659/3/32 658/2/32
f 661/3/33 662/4/33 663/1/33
f 664/2/33 663/1/33 662/4/33
f 665/1/32 666/2/32 667/3/32
f 668/4/32 667/3/32 666/2/32
f 669/3/33 670/4/33 671/1/33
f 672/2/33 671/1/33 670/4/33
f 673/1/30 674/2/30 675/3/30
f 676/4/30 675/3/30 674/2/30
f 677/3/31 678/4/31 679/1/31
f 680/2/31 679/1/31 678/4/31
f 681/1/30 682/2/30 683/3/30
f 684/4/30 683/3/30 682/2/30
f 685/3/31 686/4/31 687/1/31
f 688/2/31 687/1/31 686/4/31
