# Blender 4.4.3
# www.blender.org
mtllib TRETRNKA.mtl
o TRETRNKA
v -203.217041 19.730547 -376.249054
v -204.813110 19.730547 -375.981476
v -204.313141 19.730547 -376.568298
v -204.135681 19.730547 -375.784149
v -203.326706 19.730547 -376.733673
v -204.439865 22.346788 -376.126587
v -204.266830 22.346788 -376.587524
v -203.951309 22.346788 -375.854614
v -203.476334 22.346788 -376.147491
v -203.671341 22.346788 -376.600433
v -204.156616 29.178301 -375.826172
v -203.983582 29.178301 -376.287140
v -203.668060 29.178301 -375.554199
v -203.193085 29.178301 -375.847076
v -203.388092 29.178301 -376.300049
v -204.116501 35.529743 -376.221436
v -204.065125 35.529743 -376.373596
v -203.953171 35.529743 -376.127136
v -203.800858 35.529743 -376.221069
v -203.870056 35.529743 -376.373383
v -227.207275 19.623062 -404.307739
v -228.654053 19.623062 -404.065186
v -228.200836 19.623062 -404.597137
v -228.039993 19.623062 -403.886322
v -227.306686 19.623062 -404.747040
v -228.315704 21.994583 -404.196716
v -228.158859 21.994583 -404.614563
v -227.872864 21.994583 -403.950195
v -227.442322 21.994583 -404.215668
v -227.619080 21.994583 -404.626282
v -228.058960 26.327133 -403.924438
v -227.902100 26.327133 -404.342255
v -227.616104 26.327133 -403.677917
v -227.185562 26.327133 -403.943359
v -227.362320 26.327133 -404.353973
v -228.022598 32.084457 -404.282715
v -227.976028 32.084457 -404.420654
v -227.874542 32.084457 -404.197235
v -227.736481 32.084457 -404.282379
v -227.799194 32.084457 -404.420441
v -261.628143 19.521648 -513.844055
v -263.368866 19.521648 -513.552185
v -262.823578 19.521648 -514.192261
v -262.630035 19.521648 -513.337036
v -261.747742 19.521648 -514.372620
v -262.961792 22.374992 -513.710449
v -262.773071 22.374992 -514.213196
v -262.428955 22.374992 -513.413879
v -261.910919 22.374992 -513.733276
v -262.123596 22.374992 -514.227295
v -262.652863 29.825668 -513.382874
v -262.464142 29.825668 -513.885559
v -262.120026 29.825668 -513.086243
v -261.601990 29.825668 -513.405640
v -261.814667 29.825668 -513.899658
v -262.609100 36.752720 -513.813904
v -262.553070 36.752720 -513.979919
v -262.430969 36.752720 -513.711121
v -262.264862 36.752720 -513.813538
v -262.340332 36.752720 -513.979675
v -277.688873 19.077040 -514.794067
v -276.884308 19.066164 -515.220947
v -277.036530 19.068890 -514.752991
v -277.287476 19.071159 -515.246338
v -277.533783 19.075621 -514.489136
v -277.056061 22.862406 -515.066284
v -277.057617 22.863014 -514.733032
v -277.372589 22.866192 -515.170715
v -277.569702 22.869160 -514.901978
v -277.375031 22.867184 -514.631470
v -277.267883 32.771259 -515.221680
v -277.269409 32.771873 -514.888367
v -277.584381 32.775063 -515.326111
v -277.781525 32.778046 -515.057373
v -277.586853 32.776058 -514.786865
v -277.211029 38.307537 -514.952759
v -277.208435 38.307701 -514.843628
v -277.317505 38.308811 -514.989929
v -277.380707 38.309761 -514.903748
v -277.313293 38.309071 -514.813354
v -273.559052 19.023960 -516.783081
v -274.473511 19.033344 -517.464539
v -273.931152 19.027046 -517.496399
v -274.243561 19.031406 -517.023682
v -273.365967 19.021309 -517.075195
v -274.217682 20.874281 -517.345459
v -273.898804 20.870399 -517.482178
v -274.117798 20.873753 -516.964294
v -273.737183 20.869553 -516.865479
v -273.601807 20.867496 -517.185547
v -274.232361 25.689213 -517.054871
v -273.913483 25.685326 -517.191589
v -274.132477 25.688683 -516.673706
v -273.751862 25.684477 -516.574890
v -273.616516 25.682419 -516.894958
v -274.011719 30.162338 -517.227173
v -273.909271 30.161087 -517.275269
v -273.980042 30.162186 -517.098145
v -273.858002 30.160839 -517.066406
v -273.814240 30.160164 -517.175903
v -279.964722 19.110256 -512.914429
v -281.158112 19.125662 -513.334045
v -280.594299 19.117550 -513.546875
v -280.768982 19.121090 -512.943176
v -279.856750 19.108101 -513.287537
v -280.847870 21.166531 -513.292419
v -280.555359 21.162066 -513.542542
v -280.616211 21.164087 -512.921753
v -280.180542 21.158146 -512.942810
v -280.142944 21.156906 -513.326477
v -280.767426 26.506058 -512.979858
v -280.474945 26.501596 -513.229980
v -280.535767 26.503616 -512.609192
v -280.100098 26.497679 -512.630249
v -280.062500 26.496441 -513.013916
v -280.590729 31.467890 -513.235168
v -280.498108 31.466469 -513.319946
v -280.514557 31.467098 -513.109009
v -280.374817 31.465193 -513.115723
v -280.364685 31.464804 -513.246094
v -281.076874 19.521646 -522.817688
v -282.817596 19.521646 -522.525879
v -282.272308 19.521646 -523.165894
v -282.078766 19.521646 -522.310669
v -281.196472 19.521646 -523.346252
v -282.410522 22.374990 -522.684143
v -282.221802 22.374990 -523.186829
v -281.877686 22.374990 -522.387512
v -281.359680 22.374990 -522.706909
v -281.572357 22.374990 -523.200928
v -282.101593 29.825666 -522.356506
v -281.912872 29.825666 -522.859192
v -281.568756 29.825666 -522.059875
v -281.050751 29.825666 -522.379272
v -281.263428 29.825666 -522.873291
v -282.057861 36.752720 -522.787537
v -282.001831 36.752720 -522.953552
v -281.879730 36.752720 -522.684753
v -281.713593 36.752720 -522.787170
v -281.789062 36.752720 -522.953308
v 526.810974 -0.997906 -345.061554
v 526.012329 -0.997906 -345.393158
v 526.405212 -0.997906 -345.517059
v 526.263123 -0.997906 -345.111664
v 526.898804 -0.997906 -345.312134
v 526.222534 0.400007 -345.352997
v 526.431641 0.400007 -345.512634
v 526.366577 0.400007 -345.091248
v 526.664734 0.400007 -345.089142
v 526.704956 0.400007 -345.349548
v 526.265564 4.050250 -345.136627
v 526.474670 4.050250 -345.296265
v 526.409668 4.050250 -344.874878
v 526.707764 4.050250 -344.872772
v 526.747986 4.050250 -345.133179
v 526.395874 7.443959 -345.304199
v 526.462280 7.443959 -345.358551
v 526.443054 7.443959 -345.215179
v 526.538696 7.443959 -345.214508
v 526.550537 7.443959 -345.303101
v 210.375031 13.192019 -244.802246
v 208.957977 13.192019 -243.675995
v 209.129456 13.192019 -244.521057
v 209.727783 13.192019 -243.849762
v 210.005249 13.192019 -245.217133
v 209.244659 16.118235 -244.020142
v 209.164368 16.118235 -244.564941
v 209.870056 16.118235 -244.018585
v 210.176270 16.118235 -244.562424
v 209.740128 16.118235 -244.900085
v 209.684555 23.759197 -243.879578
v 209.604248 23.759197 -244.424377
v 210.309952 23.759197 -243.878006
v 210.616165 23.759197 -244.421844
v 210.180023 23.759197 -244.759521
v 209.509750 30.863163 -244.288101
v 209.477600 30.863163 -244.464844
v 209.720642 30.863163 -244.284286
v 209.818848 30.863163 -244.458679
v 209.668640 30.863163 -244.570282
v 43.335121 9.603521 -179.551208
v 42.281364 9.603521 -181.022964
v 43.116776 9.603521 -180.809326
v 42.416313 9.603521 -180.245407
v 43.768028 9.603521 -179.899719
v 42.610710 12.529736 -180.719376
v 43.158852 12.529736 -180.772247
v 42.577774 12.529736 -180.094849
v 43.105568 12.529736 -179.761749
v 43.464691 12.529736 -180.180405
v 42.448242 20.170698 -180.287094
v 42.996391 20.170698 -180.339966
v 42.415314 20.170698 -179.662567
v 42.943108 20.170698 -179.329453
v 43.302231 20.170698 -179.748123
v 42.865021 27.274666 -180.441193
v 43.043159 27.274666 -180.464417
v 42.850639 27.274666 -180.230743
v 43.019890 27.274666 -180.123932
v 43.138878 27.274666 -180.268341
v -90.634857 9.874708 -227.199142
v -92.647263 9.874708 -225.787628
v -92.346146 9.874708 -226.919235
v -91.589630 9.874708 -225.960632
v -91.102417 9.874708 -227.791580
v -92.230682 13.848437 -226.230850
v -92.295258 13.848437 -226.975876
v -91.383057 13.848437 -226.177902
v -90.923767 13.848437 -226.890198
v -91.487549 13.848437 -227.383377
v -91.645813 24.224672 -226.004547
v -91.710388 24.224672 -226.749573
v -90.798203 24.224672 -225.951599
v -90.338913 24.224672 -226.663895
v -90.902679 24.224672 -227.157074
v -91.849564 33.871681 -226.572525
v -91.878769 33.871681 -226.814728
v -91.563995 33.871681 -226.550217
v -91.416718 33.871681 -226.778641
v -91.611252 33.871681 -226.942108
v -73.448318 9.603528 -91.791161
v -74.502060 9.603528 -93.262917
v -73.666672 9.603528 -93.049278
v -74.367111 9.603528 -92.485359
v -73.015396 9.603528 -92.139679
v -74.172714 12.529742 -92.959328
v -73.624588 12.529742 -93.012207
v -74.205673 12.529742 -92.334801
v -73.677872 12.529742 -92.001694
v -73.318741 12.529742 -92.420357
v -74.335190 20.170704 -92.527046
v -73.787033 20.170704 -92.579918
v -74.368118 20.170704 -91.902519
v -73.840317 20.170704 -91.569412
v -73.481216 20.170704 -91.988068
v -73.918411 27.274672 -92.681137
v -73.740280 27.274672 -92.704376
v -73.932785 27.274672 -92.470695
v -73.763535 27.274672 -92.363876
v -73.644547 27.274672 -92.508301
v -234.214157 9.603528 -91.092384
v -235.267868 9.603528 -92.564140
v -234.432480 9.603528 -92.350502
v -235.132919 9.603528 -91.786583
v -233.781235 9.603528 -91.440903
v -234.938522 12.529742 -92.260551
v -234.390427 12.529742 -92.313431
v -234.971481 12.529742 -91.636024
v -234.443710 12.529742 -91.302917
v -234.084579 12.529742 -91.721581
v -235.100998 20.170704 -91.828270
v -234.552841 20.170704 -91.881142
v -235.133957 20.170704 -91.203743
v -234.606125 20.170704 -90.870636
v -234.247055 20.170704 -91.289291
v -234.684250 27.274672 -91.982361
v -234.506088 27.274672 -92.005600
v -234.698593 27.274672 -91.771919
v -234.529343 27.274672 -91.665100
v -234.410385 27.274672 -91.809525
vn -0.0000 -1.0000 -0.0000
vn -0.7848 0.0660 -0.6162
vn -0.9245 0.0389 -0.3793
vn -0.9357 0.0340 -0.3512
vn -0.7592 0.0724 -0.6468
vn -0.3087 0.0557 0.9495
vn -0.4699 0.0416 0.8817
vn -0.4857 0.0528 0.8725
vn -0.2792 0.0455 0.9591
vn 0.4618 0.0068 0.8870
vn 0.5161 -0.0331 0.8559
vn 0.5245 -0.0360 0.8506
vn 0.4515 0.0101 0.8922
vn 0.9615 0.1348 -0.2393
vn 0.9218 0.0458 -0.3849
vn 0.9177 0.0416 -0.3951
vn 0.9660 0.1384 -0.2186
vn -0.1442 0.0035 -0.9895
vn -0.0386 0.0403 -0.9984
vn -0.0217 0.0465 -0.9987
vn -0.1653 -0.0043 -0.9862
vn -0.9360 0.0195 -0.3514
vn -0.9361 0.0193 -0.3511
vn -0.4863 0.0190 0.8736
vn -0.4864 0.0189 0.8735
vn 0.5247 0.0195 0.8511
vn 0.5247 0.0199 0.8511
vn 0.9183 0.0220 -0.3953
vn 0.9182 0.0217 -0.3955
vn -0.0217 0.0157 -0.9996
vn -0.0215 0.0158 -0.9996
vn -0.9468 -0.0165 -0.3213
vn -0.9474 -0.0165 -0.3198
vn -0.4983 0.0570 0.8651
vn -0.4990 0.0570 0.8647
vn 0.5223 0.0998 0.8469
vn 0.9091 0.0627 -0.4118
vn 0.9087 0.0626 -0.4127
vn -0.0002 -0.0116 -0.9999
vn 0.0012 -0.0115 -0.9999
vn -0.0000 1.0000 -0.0000
vn -0.7847 0.0660 -0.6163
vn -0.9240 0.0503 -0.3790
vn -0.9353 0.0454 -0.3511
vn -0.3088 0.0557 0.9495
vn -0.4701 0.0370 0.8818
vn -0.4858 0.0497 0.8727
vn -0.2793 0.0455 0.9591
vn 0.4618 0.0068 0.8869
vn 0.5158 -0.0454 0.8555
vn 0.5242 -0.0482 0.8502
vn 0.4516 0.0101 0.8922
vn 0.9615 0.1348 -0.2394
vn 0.9220 0.0420 -0.3849
vn 0.9179 0.0366 -0.3952
vn -0.0387 0.0497 -0.9980
vn -0.0217 0.0558 -0.9982
vn -0.9357 0.0311 -0.3513
vn -0.9358 0.0312 -0.3511
vn -0.4864 0.0154 0.8736
vn -0.4865 0.0147 0.8736
vn 0.5248 0.0068 0.8512
vn 0.5248 0.0070 0.8512
vn 0.9184 0.0171 -0.3953
vn 0.9183 0.0175 -0.3955
vn -0.0217 0.0256 -0.9994
vn -0.0215 0.0253 -0.9994
vn -0.9469 -0.0165 -0.3212
vn -0.9474 -0.0165 -0.3197
vn -0.4985 0.0570 0.8650
vn -0.4992 0.0570 0.8646
vn 0.9091 0.0628 -0.4118
vn 0.0001 -0.0116 -0.9999
vn 0.0014 -0.0115 -0.9999
vn -0.7848 0.0660 -0.6163
vn 0.5160 -0.0331 0.8559
vn 0.5245 -0.0360 0.8507
vn -0.1441 0.0035 -0.9896
vn -0.0385 0.0403 -0.9984
vn -0.0216 0.0465 -0.9987
vn -0.4864 0.0190 0.8735
vn 0.5248 0.0195 0.8510
vn 0.5248 0.0199 0.8510
vn 0.9183 0.0219 -0.3953
vn 0.9182 0.0216 -0.3955
vn -0.0218 0.0157 -0.9996
vn -0.0216 0.0158 -0.9996
vn -0.4982 0.0570 0.8652
vn -0.4989 0.0570 0.8648
vn 0.5222 0.0999 0.8469
vn 0.9090 0.0628 -0.4121
vn 0.9085 0.0627 -0.4131
vn -0.0001 -0.0116 -0.9999
vn 0.0013 -0.0115 -0.9999
vn -0.0126 -0.9999 0.0018
vn -0.0126 -0.9999 0.0017
vn -0.0125 -0.9999 0.0019
vn 0.9557 0.0291 0.2930
vn 0.9998 0.0144 0.0170
vn 0.9999 0.0135 0.0046
vn 0.9506 0.0304 0.3091
vn 0.0775 0.0231 -0.9967
vn 0.3053 0.0207 -0.9520
vn 0.3134 0.0231 -0.9493
vn 0.0631 0.0213 -0.9978
vn -0.7514 0.0040 -0.6598
vn -0.8036 -0.0158 -0.5950
vn -0.8063 -0.0162 -0.5913
vn -0.7479 0.0046 -0.6638
vn -0.8861 0.0536 0.4604
vn -0.8140 0.0177 0.5806
vn -0.8115 0.0166 0.5841
vn -0.8899 0.0543 0.4529
vn 0.4599 -0.0006 0.8880
vn 0.3128 0.0211 0.9496
vn 0.3049 0.0222 0.9521
vn 0.4688 -0.0020 0.8833
vn 1.0000 0.0057 0.0046
vn 1.0000 0.0055 0.0044
vn 0.3133 0.0170 -0.9495
vn 0.3134 0.0170 -0.9495
vn -0.8059 0.0241 -0.5915
vn -0.8059 0.0235 -0.5915
vn -0.8115 0.0173 0.5841
vn -0.8115 0.0171 0.5842
vn 0.3044 0.0054 0.9525
vn 0.3042 0.0053 0.9526
vn 0.9997 -0.0108 -0.0227
vn 0.9997 -0.0108 -0.0238
vn 0.3294 0.0424 -0.9432
vn 0.3300 0.0424 -0.9430
vn -0.8036 0.0747 -0.5905
vn -0.8013 0.0415 0.5968
vn -0.8010 0.0414 0.5973
vn 0.2781 -0.0092 0.9605
vn 0.2771 -0.0091 0.9608
vn 0.0126 0.9999 -0.0018
vn 0.0126 0.9999 -0.0017
vn 0.0125 0.9999 -0.0018
vn -0.0114 -0.9999 0.0016
vn -0.0115 -0.9999 0.0016
vn -0.0115 -0.9999 0.0017
vn -0.0113 -0.9999 0.0016
vn -0.0974 0.0660 -0.9931
vn -0.3654 0.0391 -0.9300
vn -0.3935 0.0339 -0.9187
vn -0.0574 0.0724 -0.9957
vn -0.8991 0.0557 0.4342
vn -0.9617 0.0417 0.2709
vn -0.9660 0.0528 0.2532
vn -0.8856 0.0455 0.4621
vn -0.3207 0.0068 0.9472
vn -0.2611 -0.0329 0.9647
vn -0.2515 -0.0361 0.9672
vn -0.3315 0.0101 0.9434
vn 0.8386 0.1347 0.5278
vn 0.9158 0.0460 0.3990
vn 0.9203 0.0413 0.3890
vn 0.8268 0.1382 0.5453
vn 0.6146 0.0035 -0.7888
vn 0.6942 0.0403 -0.7187
vn 0.7061 0.0464 -0.7066
vn 0.5975 -0.0043 -0.8018
vn -0.3936 0.0193 -0.9191
vn -0.3939 0.0196 -0.9190
vn -0.9672 0.0190 0.2534
vn -0.9672 0.0190 0.2533
vn -0.2508 0.0189 0.9679
vn -0.2508 0.0205 0.9678
vn 0.9209 0.0218 0.3893
vn 0.9209 0.0218 0.3891
vn 0.7067 0.0156 -0.7074
vn 0.7068 0.0160 -0.7072
vn -0.4235 -0.0165 -0.9058
vn -0.4249 -0.0165 -0.9051
vn -0.9693 0.0570 0.2391
vn -0.9695 0.0570 0.2383
vn -0.2496 0.0999 0.9632
vn -0.2497 0.0999 0.9632
vn 0.9264 0.0628 0.3714
vn 0.9267 0.0626 0.3705
vn 0.7218 -0.0116 -0.6920
vn 0.7228 -0.0114 -0.6910
vn 0.0114 0.9999 -0.0016
vn 0.0115 0.9999 -0.0016
vn -0.0135 -0.9999 0.0019
vn -0.0136 -0.9999 0.0019
vn -0.0136 -0.9999 0.0020
vn -0.0135 -0.9999 0.0018
vn -0.3888 0.0660 -0.9190
vn -0.6258 0.0391 -0.7790
vn -0.6492 0.0339 -0.7599
vn -0.3514 0.0725 -0.9334
vn -0.7288 0.0557 0.6824
vn -0.8372 0.0419 0.5452
vn -0.8466 0.0526 0.5296
vn -0.7078 0.0455 0.7050
vn -0.0242 0.0068 0.9997
vn 0.0377 -0.0329 0.9987
vn 0.0476 -0.0362 0.9982
vn -0.0356 0.0101 0.9993
vn 0.9577 0.1346 0.2543
vn 0.9931 0.0458 0.1082
vn 0.9944 0.0414 0.0973
vn 0.9516 0.1381 0.2745
vn 0.3518 0.0035 -0.9361
vn 0.4490 0.0403 -0.8926
vn 0.4640 0.0465 -0.8846
vn 0.3315 -0.0043 -0.9434
vn -0.6495 0.0193 -0.7601
vn -0.6497 0.0196 -0.7599
vn -0.8478 0.0189 0.5300
vn -0.8478 0.0191 0.5299
vn 0.0486 0.0188 0.9986
vn 0.0486 0.0206 0.9986
vn 0.9950 0.0218 0.0974
vn 0.9950 0.0217 0.0972
vn 0.4642 0.0155 -0.8856
vn 0.4644 0.0160 -0.8855
vn -0.6745 -0.0165 -0.7381
vn -0.6757 -0.0165 -0.7370
vn -0.8542 0.0570 0.5168
vn -0.8546 0.0570 0.5161
vn 0.0488 0.0999 0.9938
vn 0.0487 0.0999 0.9938
vn 0.9950 0.0627 0.0782
vn 0.9950 0.0626 0.0772
vn 0.4827 -0.0116 -0.8757
vn 0.4839 -0.0114 -0.8750
vn 0.0136 0.9999 -0.0019
vn 0.0135 0.9999 -0.0019
vn -0.9244 0.0389 -0.3793
vn -0.9357 0.0340 -0.3513
vn -0.7593 0.0724 -0.6467
vn -0.3086 0.0557 0.9495
vn -0.4700 0.0416 0.8817
vn -0.4858 0.0528 0.8725
vn -0.2791 0.0455 0.9592
vn 0.5244 -0.0360 0.8507
vn -0.4982 0.0569 0.8652
vn -0.4989 0.0569 0.8648
vn 0.5222 0.0998 0.8470
vn -0.3379 0.0660 -0.9389
vn -0.5820 0.0389 -0.8122
vn -0.6064 0.0340 -0.7944
vn -0.3000 0.0724 -0.9512
vn -0.7657 0.0557 0.6407
vn -0.8664 0.0416 0.4976
vn -0.8749 0.0528 0.4814
vn -0.7459 0.0456 0.6645
vn -0.0795 0.0068 0.9968
vn -0.0169 -0.0331 0.9993
vn -0.0070 -0.0360 0.9993
vn -0.0910 0.0101 0.9958
vn 0.9419 0.1348 0.3077
vn 0.9855 0.0458 0.1633
vn 0.9874 0.0416 0.1525
vn 0.9346 0.1384 0.3277
vn 0.4031 0.0035 -0.9151
vn 0.4973 0.0404 -0.8666
vn 0.5118 0.0465 -0.8578
vn 0.3834 -0.0043 -0.9236
vn -0.6066 0.0195 -0.7947
vn -0.6068 0.0193 -0.7946
vn -0.8758 0.0190 0.4822
vn -0.8759 0.0189 0.4821
vn -0.0071 0.0195 0.9998
vn -0.0071 0.0199 0.9998
vn 0.9880 0.0220 0.1526
vn 0.9881 0.0217 0.1525
vn 0.5123 0.0157 -0.8587
vn 0.5125 0.0158 -0.8585
vn -0.6323 -0.0165 -0.7746
vn -0.6335 -0.0165 -0.7735
vn -0.8817 0.0570 0.4684
vn -0.8821 0.0570 0.4677
vn -0.0075 0.0998 0.9950
vn 0.9891 0.0627 0.1332
vn 0.9893 0.0625 0.1322
vn 0.5309 -0.0116 -0.8474
vn 0.5321 -0.0115 -0.8466
vn -0.9850 0.0660 -0.1592
vn -0.9925 0.0389 0.1157
vn -0.9887 0.0340 0.1457
vn -0.9775 0.0724 -0.1983
vn 0.1896 0.0557 0.9803
vn 0.0158 0.0416 0.9990
vn -0.0025 0.0528 0.9986
vn 0.2200 0.0455 0.9744
vn 0.8335 0.0068 0.5524
vn 0.8660 -0.0331 0.4990
vn 0.8708 -0.0360 0.4903
vn 0.8271 0.0101 0.5620
vn 0.7254 0.1348 -0.6750
vn 0.6202 0.0458 -0.7831
vn 0.6116 0.0416 -0.7901
vn 0.7394 0.1384 -0.6589
vn -0.6053 0.0035 -0.7960
vn -0.5172 0.0403 -0.8549
vn -0.5025 0.0464 -0.8633
vn -0.6222 -0.0043 -0.7828
vn -0.9891 0.0195 0.1458
vn -0.9891 0.0193 0.1461
vn -0.0025 0.0190 0.9998
vn -0.0027 0.0190 0.9998
vn 0.8712 0.0195 0.4905
vn 0.8712 0.0199 0.4905
vn 0.6121 0.0220 -0.7905
vn 0.6119 0.0217 -0.7906
vn -0.5030 0.0157 -0.8641
vn -0.5028 0.0158 -0.8643
vn -0.9840 -0.0165 0.1774
vn -0.9837 -0.0165 0.1789
vn -0.0171 0.0570 0.9982
vn -0.0179 0.0570 0.9982
vn 0.8670 0.0998 0.4883
vn 0.5960 0.0628 -0.8005
vn 0.5952 0.0627 -0.8012
vn -0.4844 -0.0116 -0.8748
vn -0.4832 -0.0115 -0.8755
vn 0.2084 0.0660 -0.9758
vn -0.0658 0.0389 -0.9971
vn -0.0960 0.0340 -0.9948
vn 0.2471 0.0724 -0.9663
vn -0.9886 0.0557 0.1402
vn -0.9985 0.0416 -0.0344
vn -0.9972 0.0528 -0.0526
vn -0.9842 0.0455 0.1708
vn -0.5936 0.0068 0.8048
vn -0.5418 -0.0331 0.8398
vn -0.5334 -0.0360 0.8451
vn -0.6028 0.0101 0.7978
vn 0.6377 0.1348 0.7584
vn 0.7510 0.0458 0.6587
vn 0.7584 0.0416 0.6505
vn 0.6210 0.1384 0.7715
vn 0.8254 0.0035 -0.5646
vn 0.8798 0.0403 -0.4737
vn 0.8874 0.0465 -0.4586
vn 0.8131 -0.0043 -0.5821
vn -0.0960 0.0195 -0.9952
vn -0.0963 0.0193 -0.9952
vn -0.9984 0.0190 -0.0526
vn -0.9984 0.0190 -0.0528
vn -0.5336 0.0195 0.8455
vn -0.5336 0.0199 0.8455
vn 0.7589 0.0220 0.6509
vn 0.7590 0.0217 0.6507
vn 0.8883 0.0157 -0.4590
vn 0.8884 0.0158 -0.4588
vn -0.1275 -0.0165 -0.9917
vn -0.1291 -0.0165 -0.9915
vn -0.9961 0.0570 -0.0672
vn -0.9961 0.0570 -0.0681
vn -0.5310 0.0998 0.8414
vn -0.5310 0.0998 0.8415
vn 0.7696 0.0628 0.6354
vn 0.7702 0.0626 0.6347
vn 0.8980 -0.0116 -0.4399
vn 0.8986 -0.0115 -0.4387
vn -0.9737 0.0660 -0.2179
vn -0.9977 0.0389 0.0561
vn -0.9957 0.0340 0.0863
vn -0.9638 0.0724 -0.2565
vn 0.1306 0.0557 0.9899
vn -0.0440 0.0416 0.9982
vn -0.0623 0.0528 0.9967
vn 0.1613 0.0455 0.9859
vn 0.7990 0.0068 0.6013
vn 0.8345 -0.0331 0.5499
vn 0.8399 -0.0360 0.5416
vn 0.7919 0.0101 0.6105
vn 0.7645 0.1348 -0.6304
vn 0.6659 0.0458 -0.7446
vn 0.6578 0.0416 -0.7520
vn 0.7774 0.1384 -0.6136
vn -0.5565 0.0035 -0.8308
vn -0.4651 0.0403 -0.8843
vn -0.4499 0.0465 -0.8919
vn -0.5742 -0.0043 -0.8187
vn -0.9961 0.0195 0.0863
vn -0.9961 0.0193 0.0866
vn -0.0624 0.0190 0.9979
vn -0.0625 0.0190 0.9979
vn 0.8403 0.0195 0.5418
vn 0.8403 0.0199 0.5418
vn 0.6583 0.0220 -0.7525
vn 0.6581 0.0217 -0.7526
vn -0.4504 0.0157 -0.8927
vn -0.4502 0.0158 -0.8928
vn -0.9929 -0.0165 0.1181
vn -0.9927 -0.0165 0.1197
vn -0.0770 0.0570 0.9954
vn -0.0778 0.0570 0.9953
vn 0.8363 0.0998 0.5392
vn 0.6429 0.0628 -0.7634
vn 0.6421 0.0626 -0.7641
vn -0.4310 -0.0116 -0.9023
vn -0.4298 -0.0115 -0.9029
vn -0.9886 0.0557 0.1401
vn -0.9843 0.0455 0.1708
vn -0.5418 -0.0331 0.8399
vn 0.6211 0.1384 0.7715
vn 0.7588 0.0220 0.6509
vn 0.7590 0.0217 0.6508
vn -0.1278 -0.0165 -0.9917
vn -0.1294 -0.0165 -0.9915
vn -0.9961 0.0570 -0.0680
vn -0.5311 0.0998 0.8414
vn 0.7703 0.0626 0.6346
vn -0.5936 0.0068 0.8047
vn 0.7583 0.0416 0.6505
vn -0.9984 0.0190 -0.0527
vn 0.7590 0.0216 0.6507
vn 0.8884 0.0158 -0.4587
vn -0.1279 -0.0165 -0.9917
vn -0.1295 -0.0165 -0.9914
vn -0.9961 0.0570 -0.0671
vn -0.9961 0.0570 -0.0679
vn 0.7697 0.0628 0.6353
vn 0.7703 0.0627 0.6346
vn 0.8980 -0.0116 -0.4398
vn 0.8986 -0.0115 -0.4386
vt 0.341715 1.000499
vt -0.035150 1.000499
vt 0.750000 1.000499
vt 0.158285 1.000499
vt 0.535150 1.000499
vt 0.964850 1.103637
vt 0.750000 1.103637
vt 0.964850 1.000499
vt 0.158285 1.103637
vt -0.035150 1.103637
vt 0.341715 1.103637
vt 0.535150 1.103637
vt 0.964850 1.372949
vt 0.750000 1.372949
vt 0.158285 1.372949
vt -0.035150 1.372949
vt 0.341715 1.372949
vt 0.535150 1.372949
vt 0.964850 1.999501
vt 0.750000 1.999501
vt 0.158285 1.999501
vt -0.035150 1.999501
vt 0.341715 1.999501
vt 0.535150 1.999501
s 1
usemtl TRETRNKA
f 1/1/1 2/2/1 3/3/1
f 1/1/1 4/4/1 2/2/1
f 1/1/1 3/3/1 5/5/1
f 3/3/2 6/6/3 7/7/4
f 3/3/2 2/8/5 6/6/3
f 2/2/6 8/9/7 6/10/8
f 2/2/6 4/4/9 8/9/7
f 4/4/10 9/11/11 8/9/12
f 4/4/10 1/1/13 9/11/11
f 1/1/14 10/12/15 9/11/16
f 1/1/14 5/5/17 10/12/15
f 5/5/18 7/7/19 10/12/20
f 5/5/18 3/3/21 7/7/19
f 7/7/4 11/13/22 12/14/23
f 7/7/4 6/6/3 11/13/22
f 6/10/8 13/15/24 11/16/25
f 6/10/8 8/9/7 13/15/24
f 8/9/12 14/17/26 13/15/27
f 8/9/12 9/11/11 14/17/26
f 9/11/16 15/18/28 14/17/29
f 9/11/16 10/12/15 15/18/28
f 10/12/20 12/14/30 15/18/31
f 10/12/20 7/7/19 12/14/30
f 12/14/23 16/19/32 17/20/33
f 12/14/23 11/13/22 16/19/32
f 11/16/25 18/21/34 16/22/35
f 11/16/25 13/15/24 18/21/34
f 13/15/27 19/23/36 18/21/36
f 13/15/27 14/17/26 19/23/36
f 14/17/29 20/24/37 19/23/38
f 14/17/29 15/18/28 20/24/37
f 15/18/31 17/20/39 20/24/40
f 15/18/31 12/14/30 17/20/39
f 16/22/41 18/21/41 19/23/41
f 16/22/41 19/23/41 20/24/41
f 16/19/41 20/24/41 17/20/41
f 21/1/1 22/2/1 23/3/1
f 21/1/1 24/4/1 22/2/1
f 21/1/1 23/3/1 25/5/1
f 23/3/42 26/6/43 27/7/44
f 23/3/42 22/8/5 26/6/43
f 22/2/45 28/9/46 26/10/47
f 22/2/45 24/4/48 28/9/46
f 24/4/49 29/11/50 28/9/51
f 24/4/49 21/1/52 29/11/50
f 21/1/53 30/12/54 29/11/55
f 21/1/53 25/5/17 30/12/54
f 25/5/18 27/7/56 30/12/57
f 25/5/18 23/3/21 27/7/56
f 27/7/44 31/13/58 32/14/59
f 27/7/44 26/6/43 31/13/58
f 26/10/47 33/15/60 31/16/61
f 26/10/47 28/9/46 33/15/60
f 28/9/51 34/17/62 33/15/63
f 28/9/51 29/11/50 34/17/62
f 29/11/55 35/18/64 34/17/65
f 29/11/55 30/12/54 35/18/64
f 30/12/57 32/14/66 35/18/67
f 30/12/57 27/7/56 32/14/66
f 32/14/59 36/19/68 37/20/69
f 32/14/59 31/13/58 36/19/68
f 31/16/61 38/21/70 36/22/71
f 31/16/61 33/15/60 38/21/70
f 33/15/63 39/23/36 38/21/36
f 33/15/63 34/17/62 39/23/36
f 34/17/65 40/24/72 39/23/38
f 34/17/65 35/18/64 40/24/72
f 35/18/67 37/20/73 40/24/74
f 35/18/67 32/14/66 37/20/73
f 36/22/41 38/21/41 39/23/41
f 36/22/41 39/23/41 40/24/41
f 36/19/41 40/24/41 37/20/41
f 41/1/1 42/2/1 43/3/1
f 41/1/1 44/4/1 42/2/1
f 41/1/1 43/3/1 45/5/1
f 43/3/75 46/6/3 47/7/4
f 43/3/75 42/8/5 46/6/3
f 42/2/6 48/9/7 46/10/8
f 42/2/6 44/4/9 48/9/7
f 44/4/10 49/11/76 48/9/77
f 44/4/10 41/1/13 49/11/76
f 41/1/14 50/12/15 49/11/16
f 41/1/14 45/5/17 50/12/15
f 45/5/78 47/7/79 50/12/80
f 45/5/78 43/3/21 47/7/79
f 47/7/4 51/13/22 52/14/23
f 47/7/4 46/6/3 51/13/22
f 46/10/8 53/15/24 51/16/81
f 46/10/8 48/9/7 53/15/24
f 48/9/77 54/17/82 53/15/83
f 48/9/77 49/11/76 54/17/82
f 49/11/16 55/18/84 54/17/85
f 49/11/16 50/12/15 55/18/84
f 50/12/80 52/14/86 55/18/87
f 50/12/80 47/7/79 52/14/86
f 52/14/23 56/19/32 57/20/33
f 52/14/23 51/13/22 56/19/32
f 51/16/81 58/21/88 56/22/89
f 51/16/81 53/15/24 58/21/88
f 53/15/83 59/23/90 58/21/90
f 53/15/83 54/17/82 59/23/90
f 54/17/85 60/24/91 59/23/92
f 54/17/85 55/18/84 60/24/91
f 55/18/87 57/20/93 60/24/94
f 55/18/87 52/14/86 57/20/93
f 56/22/41 58/21/41 59/23/41
f 56/22/41 59/23/41 60/24/41
f 56/19/41 60/24/41 57/20/41
f 61/1/95 62/2/95 63/3/96
f 61/1/95 64/4/97 62/2/95
f 61/1/95 63/3/96 65/5/95
f 63/3/98 66/6/99 67/7/100
f 63/3/98 62/8/101 66/6/99
f 62/2/102 68/9/103 66/10/104
f 62/2/102 64/4/105 68/9/103
f 64/4/106 69/11/107 68/9/108
f 64/4/106 61/1/109 69/11/107
f 61/1/110 70/12/111 69/11/112
f 61/1/110 65/5/113 70/12/111
f 65/5/114 67/7/115 70/12/116
f 65/5/114 63/3/117 67/7/115
f 67/7/100 71/13/118 72/14/119
f 67/7/100 66/6/99 71/13/118
f 66/10/104 73/15/120 71/16/121
f 66/10/104 68/9/103 73/15/120
f 68/9/108 74/17/122 73/15/123
f 68/9/108 69/11/107 74/17/122
f 69/11/112 75/18/124 74/17/125
f 69/11/112 70/12/111 75/18/124
f 70/12/116 72/14/126 75/18/127
f 70/12/116 67/7/115 72/14/126
f 72/14/119 76/19/128 77/20/129
f 72/14/119 71/13/118 76/19/128
f 71/16/121 78/21/130 76/22/131
f 71/16/121 73/15/120 78/21/130
f 73/15/123 79/23/132 78/21/132
f 73/15/123 74/17/122 79/23/132
f 74/17/125 80/24/133 79/23/134
f 74/17/125 75/18/124 80/24/133
f 75/18/127 77/20/135 80/24/136
f 75/18/127 72/14/126 77/20/135
f 76/22/137 78/21/138 79/23/137
f 76/22/137 79/23/137 80/24/137
f 76/19/137 80/24/137 77/20/139
f 81/1/140 82/2/141 83/3/142
f 81/1/140 84/4/140 82/2/141
f 81/1/140 83/3/142 85/5/143
f 83/3/144 86/6/145 87/7/146
f 83/3/144 82/8/147 86/6/145
f 82/2/148 88/9/149 86/10/150
f 82/2/148 84/4/151 88/9/149
f 84/4/152 89/11/153 88/9/154
f 84/4/152 81/1/155 89/11/153
f 81/1/156 90/12/157 89/11/158
f 81/1/156 85/5/159 90/12/157
f 85/5/160 87/7/161 90/12/162
f 85/5/160 83/3/163 87/7/161
f 87/7/146 91/13/164 92/14/165
f 87/7/146 86/6/145 91/13/164
f 86/10/150 93/15/166 91/16/167
f 86/10/150 88/9/149 93/15/166
f 88/9/154 94/17/168 93/15/169
f 88/9/154 89/11/153 94/17/168
f 89/11/158 95/18/170 94/17/171
f 89/11/158 90/12/157 95/18/170
f 90/12/162 92/14/172 95/18/173
f 90/12/162 87/7/161 92/14/172
f 92/14/165 96/19/174 97/20/175
f 92/14/165 91/13/164 96/19/174
f 91/16/167 98/21/176 96/22/177
f 91/16/167 93/15/166 98/21/176
f 93/15/169 99/23/178 98/21/179
f 93/15/169 94/17/168 99/23/178
f 94/17/171 100/24/180 99/23/181
f 94/17/171 95/18/170 100/24/180
f 95/18/173 97/20/182 100/24/183
f 95/18/173 92/14/172 97/20/182
f 96/22/184 98/21/185 99/23/184
f 96/22/184 99/23/184 100/24/184
f 96/19/184 100/24/184 97/20/184
f 101/1/186 102/2/187 103/3/188
f 101/1/186 104/4/189 102/2/187
f 101/1/186 103/3/188 105/5/186
f 103/3/190 106/6/191 107/7/192
f 103/3/190 102/8/193 106/6/191
f 102/2/194 108/9/195 106/10/196
f 102/2/194 104/4/197 108/9/195
f 104/4/198 109/11/199 108/9/200
f 104/4/198 101/1/201 109/11/199
f 101/1/202 110/12/203 109/11/204
f 101/1/202 105/5/205 110/12/203
f 105/5/206 107/7/207 110/12/208
f 105/5/206 103/3/209 107/7/207
f 107/7/192 111/13/210 112/14/211
f 107/7/192 106/6/191 111/13/210
f 106/10/196 113/15/212 111/16/213
f 106/10/196 108/9/195 113/15/212
f 108/9/200 114/17/214 113/15/215
f 108/9/200 109/11/199 114/17/214
f 109/11/204 115/18/216 114/17/217
f 109/11/204 110/12/203 115/18/216
f 110/12/208 112/14/218 115/18/219
f 110/12/208 107/7/207 112/14/218
f 112/14/211 116/19/220 117/20/221
f 112/14/211 111/13/210 116/19/220
f 111/16/213 118/21/222 116/22/223
f 111/16/213 113/15/212 118/21/222
f 113/15/215 119/23/224 118/21/225
f 113/15/215 114/17/214 119/23/224
f 114/17/217 120/24/226 119/23/227
f 114/17/217 115/18/216 120/24/226
f 115/18/219 117/20/228 120/24/229
f 115/18/219 112/14/218 117/20/228
f 116/22/230 118/21/231 119/23/230
f 116/22/230 119/23/230 120/24/230
f 116/19/230 120/24/230 117/20/230
f 121/1/1 122/2/1 123/3/1
f 121/1/1 124/4/1 122/2/1
f 121/1/1 123/3/1 125/5/1
f 123/3/2 126/6/232 127/7/233
f 123/3/2 122/8/234 126/6/232
f 122/2/235 128/9/236 126/10/237
f 122/2/235 124/4/238 128/9/236
f 124/4/10 129/11/76 128/9/239
f 124/4/10 121/1/13 129/11/76
f 121/1/14 130/12/15 129/11/16
f 121/1/14 125/5/17 130/12/15
f 125/5/78 127/7/79 130/12/80
f 125/5/78 123/3/21 127/7/79
f 127/7/233 131/13/22 132/14/23
f 127/7/233 126/6/232 131/13/22
f 126/10/237 133/15/24 131/16/25
f 126/10/237 128/9/236 133/15/24
f 128/9/239 134/17/82 133/15/83
f 128/9/239 129/11/76 134/17/82
f 129/11/16 135/18/28 134/17/85
f 129/11/16 130/12/15 135/18/28
f 130/12/80 132/14/86 135/18/87
f 130/12/80 127/7/79 132/14/86
f 132/14/23 136/19/32 137/20/33
f 132/14/23 131/13/22 136/19/32
f 131/16/25 138/21/240 136/22/241
f 131/16/25 133/15/24 138/21/240
f 133/15/83 139/23/242 138/21/242
f 133/15/83 134/17/82 139/23/242
f 134/17/85 140/24/91 139/23/92
f 134/17/85 135/18/28 140/24/91
f 135/18/87 137/20/93 140/24/94
f 135/18/87 132/14/86 137/20/93
f 136/22/41 138/21/41 139/23/41
f 136/22/41 139/23/41 140/24/41
f 136/19/41 140/24/41 137/20/41
f 141/1/1 142/2/1 143/3/1
f 141/1/1 144/4/1 142/2/1
f 141/1/1 143/3/1 145/5/1
f 143/3/243 146/6/244 147/7/245
f 143/3/243 142/8/246 146/6/244
f 142/2/247 148/9/248 146/10/249
f 142/2/247 144/4/250 148/9/248
f 144/4/251 149/11/252 148/9/253
f 144/4/251 141/1/254 149/11/252
f 141/1/255 150/12/256 149/11/257
f 141/1/255 145/5/258 150/12/256
f 145/5/259 147/7/260 150/12/261
f 145/5/259 143/3/262 147/7/260
f 147/7/245 151/13/263 152/14/264
f 147/7/245 146/6/244 151/13/263
f 146/10/249 153/15/265 151/16/266
f 146/10/249 148/9/248 153/15/265
f 148/9/253 154/17/267 153/15/268
f 148/9/253 149/11/252 154/17/267
f 149/11/257 155/18/269 154/17/270
f 149/11/257 150/12/256 155/18/269
f 150/12/261 152/14/271 155/18/272
f 150/12/261 147/7/260 152/14/271
f 152/14/264 156/19/273 157/20/274
f 152/14/264 151/13/263 156/19/273
f 151/16/266 158/21/275 156/22/276
f 151/16/266 153/15/265 158/21/275
f 153/15/268 159/23/277 158/21/277
f 153/15/268 154/17/267 159/23/277
f 154/17/270 160/24/278 159/23/279
f 154/17/270 155/18/269 160/24/278
f 155/18/272 157/20/280 160/24/281
f 155/18/272 152/14/271 157/20/280
f 156/22/41 158/21/41 159/23/41
f 156/22/41 159/23/41 160/24/41
f 156/19/41 160/24/41 157/20/41
f 161/1/1 162/2/1 163/3/1
f 161/1/1 164/4/1 162/2/1
f 161/1/1 163/3/1 165/5/1
f 163/3/282 166/6/283 167/7/284
f 163/3/282 162/8/285 166/6/283
f 162/2/286 168/9/287 166/10/288
f 162/2/286 164/4/289 168/9/287
f 164/4/290 169/11/291 168/9/292
f 164/4/290 161/1/293 169/11/291
f 161/1/294 170/12/295 169/11/296
f 161/1/294 165/5/297 170/12/295
f 165/5/298 167/7/299 170/12/300
f 165/5/298 163/3/301 167/7/299
f 167/7/284 171/13/302 172/14/303
f 167/7/284 166/6/283 171/13/302
f 166/10/288 173/15/304 171/16/305
f 166/10/288 168/9/287 173/15/304
f 168/9/292 174/17/306 173/15/307
f 168/9/292 169/11/291 174/17/306
f 169/11/296 175/18/308 174/17/309
f 169/11/296 170/12/295 175/18/308
f 170/12/300 172/14/310 175/18/311
f 170/12/300 167/7/299 172/14/310
f 172/14/303 176/19/312 177/20/313
f 172/14/303 171/13/302 176/19/312
f 171/16/305 178/21/314 176/22/315
f 171/16/305 173/15/304 178/21/314
f 173/15/307 179/23/316 178/21/316
f 173/15/307 174/17/306 179/23/316
f 174/17/309 180/24/317 179/23/318
f 174/17/309 175/18/308 180/24/317
f 175/18/311 177/20/319 180/24/320
f 175/18/311 172/14/310 177/20/319
f 176/22/41 178/21/41 179/23/41
f 176/22/41 179/23/41 180/24/41
f 176/19/41 180/24/41 177/20/41
f 181/1/1 182/2/1 183/3/1
f 181/1/1 184/4/1 182/2/1
f 181/1/1 183/3/1 185/5/1
f 183/3/321 186/6/322 187/7/323
f 183/3/321 182/8/324 186/6/322
f 182/2/325 188/9/326 186/10/327
f 182/2/325 184/4/328 188/9/326
f 184/4/329 189/11/330 188/9/331
f 184/4/329 181/1/332 189/11/330
f 181/1/333 190/12/334 189/11/335
f 181/1/333 185/5/336 190/12/334
f 185/5/337 187/7/338 190/12/339
f 185/5/337 183/3/340 187/7/338
f 187/7/323 191/13/341 192/14/342
f 187/7/323 186/6/322 191/13/341
f 186/10/327 193/15/343 191/16/344
f 186/10/327 188/9/326 193/15/343
f 188/9/331 194/17/345 193/15/346
f 188/9/331 189/11/330 194/17/345
f 189/11/335 195/18/347 194/17/348
f 189/11/335 190/12/334 195/18/347
f 190/12/339 192/14/349 195/18/350
f 190/12/339 187/7/338 192/14/349
f 192/14/342 196/19/351 197/20/352
f 192/14/342 191/13/341 196/19/351
f 191/16/344 198/21/353 196/22/354
f 191/16/344 193/15/343 198/21/353
f 193/15/346 199/23/355 198/21/356
f 193/15/346 194/17/345 199/23/355
f 194/17/348 200/24/357 199/23/358
f 194/17/348 195/18/347 200/24/357
f 195/18/350 197/20/359 200/24/360
f 195/18/350 192/14/349 197/20/359
f 196/22/41 198/21/41 199/23/41
f 196/22/41 199/23/41 200/24/41
f 196/19/41 200/24/41 197/20/41
f 201/1/1 202/2/1 203/3/1
f 201/1/1 204/4/1 202/2/1
f 201/1/1 203/3/1 205/5/1
f 203/3/361 206/6/362 207/7/363
f 203/3/361 202/8/364 206/6/362
f 202/2/365 208/9/366 206/10/367
f 202/2/365 204/4/368 208/9/366
f 204/4/369 209/11/370 208/9/371
f 204/4/369 201/1/372 209/11/370
f 201/1/373 210/12/374 209/11/375
f 201/1/373 205/5/376 210/12/374
f 205/5/377 207/7/378 210/12/379
f 205/5/377 203/3/380 207/7/378
f 207/7/363 211/13/381 212/14/382
f 207/7/363 206/6/362 211/13/381
f 206/10/367 213/15/383 211/16/384
f 206/10/367 208/9/366 213/15/383
f 208/9/371 214/17/385 213/15/386
f 208/9/371 209/11/370 214/17/385
f 209/11/375 215/18/387 214/17/388
f 209/11/375 210/12/374 215/18/387
f 210/12/379 212/14/389 215/18/390
f 210/12/379 207/7/378 212/14/389
f 212/14/382 216/19/391 217/20/392
f 212/14/382 211/13/381 216/19/391
f 211/16/384 218/21/393 216/22/394
f 211/16/384 213/15/383 218/21/393
f 213/15/386 219/23/395 218/21/395
f 213/15/386 214/17/385 219/23/395
f 214/17/388 220/24/396 219/23/397
f 214/17/388 215/18/387 220/24/396
f 215/18/390 217/20/398 220/24/399
f 215/18/390 212/14/389 217/20/398
f 216/22/41 218/21/41 219/23/41
f 216/22/41 219/23/41 220/24/41
f 216/19/41 220/24/41 217/20/41
f 221/1/1 222/2/1 223/3/1
f 221/1/1 224/4/1 222/2/1
f 221/1/1 223/3/1 225/5/1
f 223/3/321 226/6/322 227/7/323
f 223/3/321 222/8/324 226/6/322
f 222/2/400 228/9/326 226/10/327
f 222/2/400 224/4/401 228/9/326
f 224/4/329 229/11/402 228/9/331
f 224/4/329 221/1/332 229/11/402
f 221/1/333 230/12/334 229/11/335
f 221/1/333 225/5/403 230/12/334
f 225/5/337 227/7/338 230/12/339
f 225/5/337 223/3/340 227/7/338
f 227/7/323 231/13/341 232/14/342
f 227/7/323 226/6/322 231/13/341
f 226/10/327 233/15/343 231/16/344
f 226/10/327 228/9/326 233/15/343
f 228/9/331 234/17/345 233/15/346
f 228/9/331 229/11/402 234/17/345
f 229/11/335 235/18/404 234/17/405
f 229/11/335 230/12/334 235/18/404
f 230/12/339 232/14/349 235/18/350
f 230/12/339 227/7/338 232/14/349
f 232/14/342 236/19/406 237/20/407
f 232/14/342 231/13/341 236/19/406
f 231/16/344 238/21/353 236/22/408
f 231/16/344 233/15/343 238/21/353
f 233/15/346 239/23/409 238/21/409
f 233/15/346 234/17/345 239/23/409
f 234/17/405 240/24/357 239/23/410
f 234/17/405 235/18/404 240/24/357
f 235/18/350 237/20/359 240/24/360
f 235/18/350 232/14/349 237/20/359
f 236/22/41 238/21/41 239/23/41
f 236/22/41 239/23/41 240/24/41
f 236/19/41 240/24/41 237/20/41
f 241/1/1 242/2/1 243/3/1
f 241/1/1 244/4/1 242/2/1
f 241/1/1 243/3/1 245/5/1
f 243/3/321 246/6/322 247/7/323
f 243/3/321 242/8/324 246/6/322
f 242/2/400 248/9/326 246/10/327
f 242/2/400 244/4/401 248/9/326
f 244/4/411 249/11/330 248/9/331
f 244/4/411 241/1/332 249/11/330
f 241/1/333 250/12/334 249/11/412
f 241/1/333 245/5/403 250/12/334
f 245/5/337 247/7/338 250/12/339
f 245/5/337 243/3/340 247/7/338
f 247/7/323 251/13/341 252/14/342
f 247/7/323 246/6/322 251/13/341
f 246/10/327 253/15/413 251/16/344
f 246/10/327 248/9/326 253/15/413
f 248/9/331 254/17/345 253/15/346
f 248/9/331 249/11/330 254/17/345
f 249/11/412 255/18/347 254/17/414
f 249/11/412 250/12/334 255/18/347
f 250/12/339 252/14/349 255/18/415
f 250/12/339 247/7/338 252/14/349
f 252/14/342 256/19/416 257/20/417
f 252/14/342 251/13/341 256/19/416
f 251/16/344 258/21/418 256/22/419
f 251/16/344 253/15/413 258/21/418
f 253/15/346 259/23/409 258/21/409
f 253/15/346 254/17/345 259/23/409
f 254/17/414 260/24/420 259/23/421
f 254/17/414 255/18/347 260/24/420
f 255/18/415 257/20/422 260/24/423
f 255/18/415 252/14/349 257/20/422
f 256/22/41 258/21/41 259/23/41
f 256/22/41 259/23/41 260/24/41
f 256/19/41 260/24/41 257/20/41
