# Blender 4.4.3
# www.blender.org
mtllib UNDERA.mtl
o UNDERA
v 246.054504 16.628468 -408.367279
v 240.227310 16.628466 -417.664917
v 240.905182 16.628466 -418.089752
v 246.732376 16.628468 -408.792145
v 224.975128 16.628468 -408.105743
v 230.802322 16.628468 -398.808136
v 228.201599 16.628468 -397.178131
v 222.374390 16.628468 -406.475769
v 246.054504 17.826069 -408.367279
v 242.007339 17.826069 -414.824768
v 241.851440 17.826069 -414.727783
v 245.861420 17.826069 -408.329651
v 239.591263 17.826069 -404.316498
v 239.554306 17.826069 -404.376709
v -77.047234 13.686562 -689.097412
v -77.017212 13.686563 -700.070190
v -76.217216 13.686563 -700.067993
v -76.247238 13.686562 -689.095215
v -95.017326 13.686563 -700.119446
v -95.047348 13.686562 -689.146667
v -98.116646 13.686562 -689.155090
v -98.086617 13.686563 -700.127808
v -77.047234 14.884165 -689.097412
v -77.026382 14.884165 -696.718323
v -77.209984 14.884165 -696.719421
v -77.230644 14.884165 -689.168579
v -84.674942 14.884165 -689.118286
v -84.674088 14.884165 -689.188904
v 564.533325 -3.047191 -188.975388
v 564.974304 -3.047192 -187.496887
v 561.872925 -3.047191 -188.181900
v 562.313904 -3.047191 -186.703415
v 559.412720 -1.459340 -187.448135
v 559.853699 -1.459340 -185.969650
v 557.225769 -1.459340 -186.795868
v 557.666748 -1.459340 -185.317368
v 554.451294 0.376013 -185.968353
v 554.892212 0.376013 -184.489853
v 536.360535 0.376013 -179.154495
v 535.919556 0.376013 -180.632996
v 526.278442 -3.047190 -176.147461
v 525.837463 -3.047190 -177.625961
v 528.938843 -3.047190 -176.940948
v 528.497864 -3.047190 -178.419449
v 531.399048 -1.459338 -177.674713
v 530.958069 -1.459338 -179.153214
v 533.585999 -1.459339 -178.326996
v 533.145020 -1.459340 -179.805481
v -193.228790 0.308654 -23.952816
v -191.685928 0.308654 -23.948990
v -193.235672 0.308655 -21.176601
v -191.692825 0.308655 -21.172773
v -193.242035 1.896507 -18.609325
v -191.699188 1.896507 -18.605499
v -193.247696 1.896507 -16.327164
v -191.704849 1.896507 -16.323338
v -193.254883 3.731859 -13.431886
v -191.712036 3.731859 -13.428059
v -191.701843 3.731861 9.424007
v -193.244690 3.731861 9.420180
v -191.727936 0.308659 19.944937
v -193.270798 0.308659 19.941111
v -191.721054 0.308658 17.168720
v -193.263901 0.308658 17.164894
v -191.714691 1.896510 14.601446
v -193.257538 1.896510 14.597620
v -191.709030 1.896509 12.319285
v -193.251877 1.896509 12.315457
v -288.869934 19.543289 -597.219971
v -288.864716 19.543289 -595.677124
v -291.646149 19.543289 -597.210632
v -291.640930 19.543289 -595.667786
v -294.213409 21.131142 -597.201904
v -294.208191 21.131142 -595.659058
v -296.495575 21.131142 -597.194214
v -296.490356 21.131142 -595.651367
v -299.390839 22.966494 -597.184448
v -299.385620 22.966494 -595.641602
v -322.237244 22.966494 -595.497498
v -322.242462 22.966494 -597.040344
v -332.758148 19.543289 -595.461975
v -332.763367 19.543291 -597.004822
v -329.981934 19.543289 -595.471313
v -329.987152 19.543291 -597.014160
v -327.414673 21.131142 -595.480042
v -327.419891 21.131142 -597.022888
v -325.132507 21.131142 -595.487732
v -325.137726 21.131142 -597.030579
v -181.744751 -3.081119 -787.927734
v -179.869034 -3.081119 -788.637695
v -180.661041 -3.081118 -784.840332
v -178.264374 -3.081118 -783.133240
v -185.050140 -3.433757 -782.815247
v -184.235962 -3.433756 -780.982361
v -187.534088 -3.433757 -781.783325
v -186.719894 -3.433756 -779.950439
v -190.685349 -2.993549 -780.474182
v -189.871170 -2.993550 -778.641296
v -214.708191 -2.993548 -768.228943
v -215.522385 -2.993548 -770.061890
v -242.735916 7.430226 -755.990967
v -243.550095 7.430226 -757.823853
v -239.714249 7.430226 -757.246277
v -240.528427 7.430226 -759.079163
v -224.407242 -1.520387 -764.066345
v -225.221420 -1.520387 -765.899231
v -217.859451 -2.842680 -766.919800
v -218.673645 -2.842680 -768.752686
v 550.812012 33.043869 -824.796753
v 553.443054 33.043869 -822.039795
v 546.828979 33.043869 -821.974915
v 549.460022 33.043869 -819.217957
v 542.110596 34.792095 -820.538025
v 542.690125 34.792095 -818.726013
v 502.224731 34.792095 -810.615479
v 501.645233 34.792095 -812.427429
v 488.947205 30.574022 -808.201843
v 488.611694 30.574022 -810.073120
v 492.314362 30.574022 -808.805603
v 491.978851 30.574022 -810.676880
v 495.428131 32.530575 -809.363892
v 495.092590 32.530575 -811.235168
v 498.196075 32.530571 -809.860168
v 497.860535 32.530571 -811.731445
v 560.685303 30.785803 -812.076233
v 558.186279 30.948055 -809.756897
v 556.908508 30.785803 -816.710632
v 554.503174 30.948057 -814.344421
v 540.192749 30.846226 -831.990784
v 542.779785 31.008478 -834.211487
v 543.787048 30.846226 -827.213440
v 546.282288 31.008480 -829.484619
v 525.506042 1.724544 -192.423920
v 474.665710 1.724546 -177.262177
v 524.398132 1.685334 -192.608063
v 475.491791 1.685336 -178.023102
v 499.929993 1.724538 -278.185516
v 499.103912 1.685328 -277.424591
v 449.089661 1.724539 -263.023773
v 450.197601 1.685329 -262.839630
v 475.436005 -1.094090 -270.366302
v 475.324371 -3.696522 -270.333008
v 475.387573 -3.696522 -270.121063
v 475.499207 -1.094090 -270.154358
v 467.675690 -3.696521 -268.052002
v 467.756439 -1.094090 -268.076080
v 467.819641 -1.094090 -267.864136
v 467.738892 -3.696521 -267.840057
v 465.890106 -1.094090 -267.519501
v 465.701630 -3.696521 -267.463287
v 465.764832 -3.696521 -267.251343
v 465.953308 -1.094090 -267.307556
v 460.769592 -3.696521 -265.992432
v 460.756439 -1.094090 -265.988525
v 460.819641 -1.094090 -265.776581
v 460.832794 -3.696521 -265.780487
v 495.307739 3.281445 -278.583191
v 495.799774 3.281446 -276.934235
v 493.470428 3.281446 -278.034943
v 493.962463 3.281447 -276.385986
v 488.603058 -0.585232 -276.582581
v 489.095093 -0.585232 -274.933624
v 486.765747 -0.585232 -276.034363
v 487.257782 -0.585231 -274.385406
v 496.340973 3.281446 -275.119537
v 494.503632 3.281447 -274.571320
v 516.081177 3.281453 -189.253647
v 516.572693 3.281452 -187.604538
v 514.735229 3.281453 -187.056854
v 514.243713 3.281454 -188.705963
v 509.375885 -0.585225 -187.255096
v 509.867432 -0.585225 -185.605972
v 508.029938 -0.585225 -185.058304
v 507.538391 -0.585225 -186.707413
v 513.702515 3.281454 -190.520660
v 515.539978 3.281452 -191.068329
v -103.095016 14.976376 -691.264526
v -103.972229 14.976379 -638.218811
v -103.604736 14.937165 -690.263733
v -104.448586 14.937169 -639.235962
v -192.576843 14.976376 -692.744324
v -192.100494 14.937165 -691.727173
v -193.454056 14.976379 -639.698608
v -192.944336 14.937169 -640.699402
v -192.508865 12.157748 -667.032593
v -192.510788 9.555318 -666.916138
v -192.289658 9.555318 -666.912476
v -192.287735 12.157748 -667.028931
v -192.642761 9.555319 -658.935669
v -192.641373 12.157749 -659.019958
v -192.420242 12.157749 -659.016296
v -192.421631 9.555319 -658.932007
v -192.673569 12.157749 -657.072632
v -192.676819 9.555319 -656.875977
v -192.455688 9.555319 -656.872314
v -192.452438 12.157749 -657.068970
v -192.761932 9.555319 -651.729980
v -192.762146 12.157749 -651.716309
v -192.541016 12.157749 -651.712646
v -192.540802 9.555319 -651.726318
v -194.350021 16.533285 -688.457214
v -192.629456 16.533285 -688.429016
v -194.381439 16.533285 -686.540100
v -192.660858 16.533285 -686.511902
v -194.464645 12.666607 -681.461365
v -192.744080 12.666607 -681.433167
v -194.496063 12.666607 -679.544250
v -192.775482 12.666607 -679.516052
v -190.736038 16.533285 -688.397705
v -190.767456 16.533285 -686.480591
v -102.914810 16.533285 -681.322388
v -101.194252 16.533283 -681.293701
v -101.226250 16.533285 -679.376587
v -102.946808 16.533285 -679.405273
v -103.031570 12.666608 -674.326599
v -101.311005 12.666608 -674.297852
v -101.343002 12.666608 -672.380737
v -103.063568 12.666608 -672.409485
v -104.840210 16.533285 -679.436584
v -104.808228 16.533285 -681.353699
v -229.874298 15.941903 -724.775818
v -195.276657 15.941905 -694.052734
v -229.421417 15.895766 -723.962708
v -196.139908 15.895768 -694.408386
v -212.246292 12.625346 -708.710999
v -212.322266 9.563180 -708.778503
v -212.414276 9.563180 -708.675903
v -212.338318 12.625346 -708.608398
v -217.527298 9.563180 -713.400635
v -217.472336 12.625346 -713.351807
v -217.564362 12.625346 -713.249207
v -217.619324 9.563180 -713.298035
v -218.742401 12.625345 -714.479614
v -218.870667 9.563179 -714.593506
v -218.962708 9.563179 -714.490967
v -218.834427 12.625345 -714.377075
v -222.227020 9.563179 -717.574036
v -222.235962 12.625345 -717.581970
v -222.327972 12.625345 -717.479370
v -222.319031 9.563179 -717.471436
v 60.261871 1.201555 -8.852239
v 60.261871 1.201555 -5.764763
v 58.966900 1.201555 -5.764763
v 58.966904 1.201555 -8.852239
v 29.535892 1.730772 -20.042252
v 29.535892 -1.667713 -20.042252
v 29.535892 -1.667713 -20.148691
v 29.535892 1.730772 -20.148691
v 38.423203 -1.667713 -20.042252
v 38.423203 1.730772 -20.042252
v 38.423203 1.730772 -20.148691
v 38.423203 -1.667713 -20.148691
v 39.349346 1.730772 -20.042252
v 39.349342 -1.667713 -20.042252
v 39.349342 -1.667713 -20.148691
v 39.349346 1.730772 -20.148691
v 48.236652 -1.667713 -20.042252
v 48.236656 1.730772 -20.042252
v 48.236656 1.730772 -20.148691
v 48.236652 -1.667713 -20.148691
v 49.162521 1.730772 -20.042252
v 49.162521 -1.667713 -20.042252
v 49.162521 -1.667713 -20.148691
v 49.162521 1.730772 -20.148691
v 58.049831 -1.667713 -20.042252
v 58.049831 1.730772 -20.042252
v 58.049831 1.730772 -20.148691
v 58.049831 -1.667713 -20.148691
v 58.979263 1.730772 -20.042252
v 58.979263 -1.667713 -20.042252
v 58.979263 -1.667713 -20.148691
v 58.979263 1.730772 -20.148691
v 67.866577 -1.667713 -20.042252
v 67.866577 1.730772 -20.042252
v 67.866577 1.730772 -20.148691
v 67.866577 -1.667713 -20.148691
v 68.792717 1.730772 -20.042252
v 68.792717 -1.667713 -20.042252
v 68.792717 -1.667713 -20.148691
v 68.792717 1.730772 -20.148691
v 77.680023 -1.667713 -20.042252
v 77.680023 1.730772 -20.042252
v 77.680023 1.730772 -20.148691
v 77.680023 -1.667713 -20.148691
v 78.605888 1.730772 -20.042252
v 78.605888 -1.667713 -20.042252
v 78.605888 -1.667713 -20.148691
v 78.605888 1.730772 -20.148691
v 87.493202 -1.667713 -20.042252
v 87.493202 1.730772 -20.042252
v 87.493202 1.730772 -20.148691
v 87.493202 -1.667713 -20.148691
v 124.009766 1.730772 -20.042252
v 124.009766 -1.667713 -20.042252
v 124.009766 -1.667713 -20.148691
v 124.009766 1.730772 -20.148691
v 132.897079 -1.667713 -20.042252
v 132.897079 1.730772 -20.042252
v 132.897079 1.730772 -20.148691
v 132.897079 -1.667713 -20.148691
v 133.823212 1.730772 -20.042252
v 133.823212 -1.667713 -20.042252
v 133.823212 -1.667713 -20.148691
v 133.823212 1.730772 -20.148691
v 142.710526 -1.667713 -20.042252
v 142.710526 1.730772 -20.042252
v 142.710526 1.730772 -20.148691
v 142.710526 -1.667713 -20.148691
v 143.636398 1.730772 -20.042252
v 143.636398 -1.667713 -20.042252
v 143.636398 -1.667713 -20.148691
v 143.636398 1.730772 -20.148691
v 152.523712 -1.667713 -20.042252
v 152.523712 1.730772 -20.042252
v 152.523712 1.730772 -20.148691
v 152.523712 -1.667713 -20.148691
v 94.566383 1.730772 -20.042252
v 94.566383 -1.667713 -20.042252
v 94.566383 -1.667713 -20.148691
v 94.566383 1.730772 -20.148691
v 103.453690 -1.667713 -20.042252
v 103.453697 1.730772 -20.042252
v 103.453697 1.730772 -20.148691
v 103.453690 -1.667713 -20.148691
v 104.379837 1.730772 -20.042252
v 104.379837 -1.667713 -20.042252
v 104.379837 -1.667713 -20.148691
v 104.379837 1.730772 -20.148691
v 113.267143 -1.667713 -20.042252
v 113.267143 1.730772 -20.042252
v 113.267143 1.730772 -20.148691
v 113.267143 -1.667713 -20.148691
v 114.193008 1.730772 -20.042252
v 114.193008 -1.667713 -20.042252
v 114.193008 -1.667713 -20.148691
v 114.193008 1.730772 -20.148691
v 123.080322 -1.667713 -20.042252
v 123.080322 1.730772 -20.042252
v 123.080322 1.730772 -20.148691
v 123.080322 -1.667713 -20.148691
v -5.543465 1.730772 -20.042252
v -5.543466 -1.667713 -20.042252
v -5.543466 -1.667713 -20.148691
v -5.543465 1.730772 -20.148691
v 3.343845 -1.667713 -20.042252
v 3.343846 1.730772 -20.042252
v 3.343846 1.730772 -20.148691
v 3.343845 -1.667713 -20.148691
v 4.269988 1.730772 -20.042252
v 4.269987 -1.667713 -20.042252
v 4.269987 -1.667713 -20.148691
v 4.269988 1.730772 -20.148691
v 13.157297 -1.667713 -20.042252
v 13.157299 1.730772 -20.042252
v 13.157299 1.730772 -20.148691
v 13.157297 -1.667713 -20.148691
v 14.083163 1.730772 -20.042252
v 14.083163 -1.667713 -20.042252
v 14.083163 -1.667713 -20.148691
v 14.083163 1.730772 -20.148691
v 22.970474 -1.667713 -20.042252
v 22.970474 1.730772 -20.042252
v 22.970474 1.730772 -20.148691
v 22.970474 -1.667713 -20.148691
v -34.986862 1.730772 -20.042252
v -34.986862 -1.667713 -20.042252
v -34.986862 -1.667713 -20.148691
v -34.986862 1.730772 -20.148691
v -26.099552 -1.667713 -20.042252
v -26.099552 1.730772 -20.042252
v -26.099552 1.730772 -20.148691
v -26.099552 -1.667713 -20.148691
v -25.173410 1.730772 -20.042252
v -25.173410 -1.667713 -20.042252
v -25.173410 -1.667713 -20.148691
v -25.173410 1.730772 -20.148691
v -16.286100 -1.667713 -20.042252
v -16.286098 1.730772 -20.042252
v -16.286098 1.730772 -20.148691
v -16.286100 -1.667713 -20.148691
v -15.360234 1.730772 -20.042252
v -15.360234 -1.667713 -20.042252
v -15.360234 -1.667713 -20.148691
v -15.360234 1.730772 -20.148691
v -6.472922 -1.667713 -20.042252
v -6.472922 1.730772 -20.042252
v -6.472922 1.730772 -20.148691
v -6.472922 -1.667713 -20.148691
v 547.577271 -1.440017 -227.047287
v 542.818237 -1.440019 -245.481750
v 548.309082 -1.440017 -227.236206
v 543.550049 -1.440019 -245.670670
v 547.894714 -1.798288 -225.832138
v 547.604187 -1.798288 -226.957443
v 549.148560 -1.798288 -226.155838
v 548.858032 -1.798288 -227.281143
v 526.973328 -1.440023 -297.849426
v 521.588440 -1.440024 -316.110870
v 527.698242 -1.440023 -298.063171
v 522.313354 -1.440024 -316.324646
v 527.331970 -1.798293 -296.645782
v 527.003235 -1.798293 -297.760529
v 528.574036 -1.798293 -297.012054
v 528.245361 -1.798293 -298.126801
v 552.549927 -1.440002 -25.716160
v 552.549927 -1.440003 -44.755020
v 553.305725 -1.440002 -25.716160
v 553.305725 -1.440003 -44.755020
v 552.553528 -1.798273 -24.460249
v 552.553528 -1.798273 -25.622452
v 553.848511 -1.798273 -24.460249
v 553.848511 -1.798273 -25.622452
v -165.058090 1.069968 -29.782312
v -165.425171 1.069968 -28.652563
v -166.120560 1.069968 -29.157793
v -165.917633 1.069968 -29.782312
v -166.386185 1.069968 -27.954340
v -166.651810 1.069968 -28.771820
v -167.574081 1.069968 -27.954340
v -167.308456 1.069968 -28.771820
v -168.535095 1.069968 -28.652563
v -167.839706 1.069968 -29.157793
v -168.902176 1.069968 -29.782312
v -168.042633 1.069968 -29.782312
v -168.535095 1.069968 -30.912062
v -167.839706 1.069968 -30.406832
v -167.574081 1.069968 -31.610285
v -167.308456 1.069968 -30.792805
v -166.386185 1.069968 -31.610285
v -166.651810 1.069968 -30.792805
v -165.425171 1.069968 -30.912062
v -166.120560 1.069968 -30.406830
v -166.120560 -0.534690 -29.157793
v -165.917633 -0.534690 -29.782312
v -166.651810 -0.534690 -28.771820
v -167.308456 -0.534690 -28.771820
v -167.839706 -0.534690 -29.157793
v -168.042633 -0.534690 -29.782312
v -167.839706 -0.534690 -30.406832
v -167.308456 -0.534690 -30.792805
v -166.651810 -0.534690 -30.792805
v -166.120560 -0.534690 -30.406830
v -281.654480 21.810286 -476.850525
v -282.021576 21.810286 -475.720764
v -282.716949 21.810286 -476.226013
v -282.514038 21.810286 -476.850525
v -282.982605 21.810286 -475.022552
v -283.248199 21.810286 -475.840027
v -284.170471 21.810286 -475.022552
v -283.904877 21.810286 -475.840027
v -285.131500 21.810286 -475.720764
v -284.436127 21.810286 -476.226013
v -285.498596 21.810286 -476.850525
v -284.639038 21.810286 -476.850525
v -285.131500 21.810286 -477.980286
v -284.436127 21.810286 -477.475037
v -284.170471 21.810286 -478.678497
v -283.904877 21.810286 -477.861023
v -282.982605 21.810286 -478.678497
v -283.248199 21.810286 -477.861023
v -282.021576 21.810286 -477.980286
v -282.716949 21.810286 -477.475037
v -282.716949 20.205626 -476.226013
v -282.514038 20.205626 -476.850525
v -283.248199 20.205626 -475.840027
v -283.904877 20.205626 -475.840027
v -284.436127 20.205626 -476.226013
v -284.639038 20.205626 -476.850525
v -284.436127 20.205626 -477.475037
v -283.904877 20.205626 -477.861023
v -283.248199 20.205626 -477.861023
v -282.716949 20.205626 -477.475037
v 258.523102 14.613711 -399.118805
v 258.156006 14.613711 -397.989044
v 257.460632 14.613711 -398.494293
v 257.663544 14.613711 -399.118805
v 257.194977 14.613712 -397.290833
v 256.929382 14.613711 -398.108307
v 256.007111 14.613712 -397.290833
v 256.272705 14.613711 -398.108307
v 255.046082 14.613711 -397.989044
v 255.741470 14.613711 -398.494293
v 254.679001 14.613711 -399.118805
v 255.538544 14.613711 -399.118805
v 255.046082 14.613711 -400.248566
v 255.741470 14.613711 -399.743317
v 256.007111 14.613711 -400.946777
v 256.272705 14.613711 -400.129303
v 257.194977 14.613711 -400.946777
v 256.929382 14.613711 -400.129303
v 258.156006 14.613711 -400.248566
v 257.460632 14.613711 -399.743317
v 257.460632 13.009053 -398.494293
v 257.663544 13.009053 -399.118805
v 256.929382 13.009053 -398.108307
v 256.272705 13.009053 -398.108307
v 255.741470 13.009053 -398.494293
v 255.538544 13.009053 -399.118805
v 255.741470 13.009053 -399.743317
v 256.272705 13.009053 -400.129303
v 256.929382 13.009053 -400.129303
v 257.460632 13.009053 -399.743317
v 479.521362 -1.622441 -324.733154
v 479.154266 -1.622440 -323.603394
v 478.458893 -1.622440 -324.108643
v 478.661804 -1.622441 -324.733154
v 478.193237 -1.622440 -322.905182
v 477.927643 -1.622440 -323.722656
v 477.005371 -1.622440 -322.905182
v 477.270966 -1.622440 -323.722656
v 476.044342 -1.622440 -323.603394
v 476.739716 -1.622440 -324.108643
v 475.677246 -1.622441 -324.733154
v 476.536804 -1.622441 -324.733154
v 476.044342 -1.622441 -325.862915
v 476.739716 -1.622441 -325.357666
v 477.005371 -1.622441 -326.561127
v 477.270966 -1.622441 -325.743652
v 478.193237 -1.622441 -326.561127
v 477.927643 -1.622441 -325.743652
v 479.154266 -1.622441 -325.862915
v 478.458893 -1.622441 -325.357666
v 478.458893 -3.227100 -324.108643
v 478.661804 -3.227100 -324.733154
v 477.927643 -3.227100 -323.722656
v 477.270966 -3.227100 -323.722656
v 476.739716 -3.227100 -324.108643
v 476.536804 -3.227100 -324.733154
v 476.739716 -3.227100 -325.357666
v 477.270966 -3.227100 -325.743652
v 477.927643 -3.227100 -325.743652
v 478.458893 -3.227100 -325.357666
v 243.881821 -1.497045 31.723661
v 243.514740 -1.497044 32.853409
v 242.819351 -1.497045 32.348179
v 243.022278 -1.497045 31.723661
v 242.553726 -1.497044 33.551632
v 242.288101 -1.497044 32.734154
v 241.365829 -1.497044 33.551632
v 241.631454 -1.497044 32.734154
v 240.404816 -1.497044 32.853409
v 241.100204 -1.497045 32.348179
v 240.037735 -1.497045 31.723661
v 240.897278 -1.497045 31.723661
v 240.404816 -1.497045 30.593912
v 241.100204 -1.497045 31.099142
v 241.365829 -1.497045 29.895689
v 241.631454 -1.497045 30.713169
v 242.553726 -1.497045 29.895689
v 242.288101 -1.497045 30.713169
v 243.514740 -1.497045 30.593912
v 242.819351 -1.497045 31.099144
v 242.819351 -3.101703 32.348179
v 243.022278 -3.101703 31.723661
v 242.288101 -3.101703 32.734154
v 241.631454 -3.101703 32.734154
v 241.100204 -3.101703 32.348179
v 240.897278 -3.101703 31.723661
v 241.100204 -3.101703 31.099142
v 241.631454 -3.101703 30.713169
v 242.288101 -3.101703 30.713169
v 242.819351 -3.101703 31.099144
v 419.407440 -1.497053 -78.175560
v 419.040344 -1.497053 -77.045815
v 418.344971 -1.497053 -77.551041
v 418.547882 -1.497053 -78.175560
v 418.079315 -1.497053 -76.347588
v 417.813721 -1.497053 -77.165070
v 416.891449 -1.497053 -76.347588
v 417.157043 -1.497053 -77.165070
v 415.930420 -1.497053 -77.045815
v 416.625793 -1.497053 -77.551041
v 415.563324 -1.497053 -78.175560
v 416.422882 -1.497053 -78.175560
v 415.930420 -1.497053 -79.305305
v 416.625793 -1.497053 -78.800079
v 416.891449 -1.497053 -80.003532
v 417.157043 -1.497053 -79.186050
v 418.079315 -1.497053 -80.003532
v 417.813721 -1.497053 -79.186050
v 419.040344 -1.497053 -79.305305
v 418.344971 -1.497053 -78.800079
v 418.344971 -3.101711 -77.551041
v 418.547882 -3.101711 -78.175560
v 417.813721 -3.101711 -77.165070
v 417.157043 -3.101711 -77.165070
v 416.625793 -3.101711 -77.551041
v 416.422882 -3.101711 -78.175560
v 416.625793 -3.101711 -78.800079
v 417.157043 -3.101711 -79.186050
v 417.813721 -3.101711 -79.186050
v 418.344971 -3.101711 -78.800079
v -19.095322 12.779924 -345.226471
v -19.462399 12.779924 -344.096710
v -20.157789 12.779924 -344.601959
v -19.954870 12.779924 -345.226471
v -20.423420 12.779924 -343.398499
v -20.689035 12.779924 -344.215973
v -21.611309 12.779924 -343.398499
v -21.345694 12.779924 -344.215973
v -22.572330 12.779924 -344.096710
v -21.876940 12.779924 -344.601959
v -22.939407 12.779924 -345.226471
v -22.079859 12.779924 -345.226471
v -22.572330 12.779924 -346.356232
v -21.876940 12.779924 -345.850983
v -21.611309 12.779924 -347.054443
v -21.345694 12.779924 -346.236969
v -20.423420 12.779924 -347.054443
v -20.689035 12.779924 -346.236969
v -19.462399 12.779924 -346.356232
v -20.157787 12.779924 -345.850983
v -20.157789 11.175266 -344.601959
v -19.954870 11.175266 -345.226471
v -20.689035 11.175266 -344.215973
v -21.345694 11.175266 -344.215973
v -21.876940 11.175266 -344.601959
v -22.079859 11.175266 -345.226471
v -21.876940 11.175266 -345.850983
v -21.345694 11.175266 -346.236969
v -20.689035 11.175266 -346.236969
v -20.157787 11.175266 -345.850983
v -82.628502 23.439636 -903.124634
v -82.995575 23.439636 -901.994873
v -83.690971 23.439636 -902.500122
v -83.488052 23.439636 -903.124634
v -83.956604 23.439636 -901.296692
v -84.222214 23.439636 -902.114136
v -85.144485 23.439636 -901.296692
v -84.878876 23.439636 -902.114136
v -86.105515 23.439636 -901.994873
v -85.410118 23.439636 -902.500122
v -86.472588 23.439636 -903.124634
v -85.613037 23.439636 -903.124634
v -86.105507 23.439636 -904.254395
v -85.410118 23.439636 -903.749146
v -85.144485 23.439636 -904.952576
v -84.878876 23.439636 -904.135132
v -83.956604 23.439636 -904.952576
v -84.222214 23.439636 -904.135132
v -82.995575 23.439636 -904.254395
v -83.690971 23.439636 -903.749146
v -83.690971 21.834976 -902.500122
v -83.488052 21.834976 -903.124634
v -84.222214 21.834976 -902.114136
v -84.878876 21.834976 -902.114136
v -85.410118 21.834976 -902.500122
v -85.613037 21.834976 -903.124634
v -85.410118 21.834976 -903.749146
v -84.878876 21.834976 -904.135132
v -84.222214 21.834976 -904.135132
v -83.690971 21.834976 -903.749146
v 342.844635 35.876209 -1002.290955
v 342.477539 35.876209 -1001.161194
v 341.782166 35.876209 -1001.666443
v 341.985077 35.876209 -1002.290955
v 341.516510 35.876209 -1000.463013
v 341.250916 35.876209 -1001.280457
v 340.328644 35.876209 -1000.463013
v 340.594238 35.876209 -1001.280457
v 339.367615 35.876209 -1001.161194
v 340.062988 35.876209 -1001.666443
v 339.000519 35.876209 -1002.290955
v 339.860077 35.876209 -1002.290955
v 339.367615 35.876209 -1003.420715
v 340.062988 35.876209 -1002.915466
v 340.328644 35.876209 -1004.118896
v 340.594238 35.876209 -1003.301453
v 341.516510 35.876209 -1004.118896
v 341.250916 35.876209 -1003.301453
v 342.477539 35.876209 -1003.420715
v 341.782166 35.876209 -1002.915466
v 341.782166 34.271549 -1001.666443
v 341.985077 34.271549 -1002.290955
v 341.250916 34.271549 -1001.280457
v 340.594238 34.271549 -1001.280457
v 340.062988 34.271549 -1001.666443
v 339.860077 34.271549 -1002.290955
v 340.062988 34.271549 -1002.915466
v 340.594238 34.271549 -1003.301453
v 341.250916 34.271549 -1003.301453
v 341.782166 34.271549 -1002.915466
v 547.351624 32.386860 -773.171570
v 546.984558 32.386860 -772.041809
v 546.289124 32.386860 -772.547058
v 546.492065 32.386860 -773.171570
v 546.023499 32.386860 -771.343628
v 545.757874 32.386860 -772.161072
v 544.835632 32.386860 -771.343628
v 545.101257 32.386860 -772.161072
v 543.874573 32.386860 -772.041809
v 544.570007 32.386860 -772.547058
v 543.507507 32.386860 -773.171570
v 544.367065 32.386860 -773.171570
v 543.874573 32.386860 -774.301331
v 544.570007 32.386860 -773.796082
v 544.835632 32.386860 -774.999512
v 545.101257 32.386860 -774.182068
v 546.023499 32.386860 -774.999512
v 545.757874 32.386860 -774.182068
v 546.984558 32.386860 -774.301331
v 546.289124 32.386860 -773.796082
v 546.289124 30.782198 -772.547058
v 546.492065 30.782198 -773.171570
v 545.757874 30.782198 -772.161072
v 545.101257 30.782198 -772.161072
v 544.570007 30.782198 -772.547058
v 544.367065 30.782198 -773.171570
v 544.570007 30.782198 -773.796082
v 545.101257 30.782198 -774.182068
v 545.757874 30.782198 -774.182068
v 546.289124 30.782198 -773.796082
v 408.349152 31.618547 -775.604675
v 409.617432 31.618547 -774.235962
v 408.391937 31.618547 -773.669189
v 407.690826 31.618547 -774.425781
v 409.838989 31.618547 -772.383240
v 408.514435 31.618547 -772.645020
v 408.929230 31.618547 -770.754028
v 408.011505 31.618547 -771.744446
v 407.235626 31.618549 -769.970825
v 407.075287 31.618547 -771.311462
v 405.405060 31.618549 -770.332581
v 406.063385 31.618547 -771.511475
v 404.136780 31.618547 -771.701294
v 405.362274 31.618547 -772.268066
v 403.915222 31.618547 -773.554016
v 405.239777 31.618547 -773.292236
v 404.824982 31.618547 -775.183228
v 405.742706 31.618547 -774.192810
v 406.518585 31.618547 -775.966492
v 406.678925 31.618547 -774.625793
v 408.391937 29.097910 -773.669189
v 407.690826 29.097910 -774.425781
v 408.514435 29.097910 -772.645020
v 408.011505 29.097910 -771.744446
v 407.075287 29.097910 -771.311462
v 406.063385 29.097910 -771.511475
v 405.362274 29.097910 -772.268066
v 405.239777 29.097910 -773.292236
v 405.742706 29.097910 -774.192810
v 406.678925 29.097910 -774.625793
v -36.648254 1.683423 -19.180433
v -36.648254 1.683422 -20.097706
v -35.966846 1.683422 -20.097706
v -35.966846 1.683423 -19.180433
v -16.669785 1.683422 -20.097706
v -16.669785 1.683423 -19.180433
v 4.582371 1.683422 -20.097706
v 4.582371 1.683423 -19.180433
v 23.955832 1.683422 -20.097704
v 23.955832 1.683423 -19.180433
v 24.795675 1.683422 -20.097706
v 24.795675 1.683423 -19.180433
v -36.648254 1.683422 -30.760189
v -35.966846 1.683422 -30.760189
v 23.955832 1.683422 -30.760189
v 24.795675 1.683422 -30.760189
v -35.966846 4.813960 -20.097706
v -16.669785 4.813960 -20.097706
v -16.819469 4.813960 -19.896870
v -36.388031 4.813960 -19.896868
v -35.966846 4.813959 -30.760189
v -36.388031 4.813959 -30.961018
v 4.582371 4.813960 -20.097706
v 23.955832 4.813960 -20.097706
v 24.377729 4.813960 -19.896872
v 4.731692 4.813960 -19.896870
v 23.955832 4.813959 -30.760189
v 24.377729 4.813959 -30.961021
v 27.874491 1.683423 -19.180433
v 27.874491 1.683422 -20.097706
v 28.555897 1.683422 -20.097706
v 28.555897 1.683423 -19.180433
v 47.852959 1.683422 -20.097706
v 47.852959 1.683423 -19.180433
v 69.105118 1.683422 -20.097706
v 69.105118 1.683423 -19.180433
v 88.478577 1.683422 -20.097704
v 88.478577 1.683423 -19.180433
v 89.318420 1.683422 -20.097706
v 89.318420 1.683423 -19.180433
v 27.874491 1.683422 -30.760189
v 28.555897 1.683422 -30.760189
v 88.478577 1.683422 -30.760189
v 89.318420 1.683422 -30.760189
v 28.555897 4.813960 -20.097706
v 47.852959 4.813960 -20.097706
v 47.703274 4.813960 -19.896870
v 28.134712 4.813960 -19.896868
v 28.555897 4.813959 -30.760189
v 28.134712 4.813959 -30.961018
v 69.105118 4.813960 -20.097706
v 88.478577 4.813960 -20.097706
v 88.900475 4.813960 -19.896872
v 69.254433 4.813960 -19.896870
v 88.478577 4.813959 -30.760189
v 88.900475 4.813959 -30.961021
v 92.904976 1.683423 -19.180433
v 92.904976 1.683422 -20.097706
v 93.586380 1.683422 -20.097706
v 93.586380 1.683423 -19.180433
v 112.883446 1.683422 -20.097706
v 112.883446 1.683423 -19.180433
v 134.135605 1.683422 -20.097706
v 134.135605 1.683423 -19.180433
v 153.509064 1.683422 -20.097704
v 153.509064 1.683423 -19.180433
v 154.348907 1.683422 -20.097706
v 154.348907 1.683423 -19.180433
v 92.904976 1.683422 -30.760189
v 93.586380 1.683422 -30.760189
v 153.509064 1.683422 -30.760189
v 154.348907 1.683422 -30.760189
v 93.586380 4.813960 -20.097706
v 112.883446 4.813960 -20.097706
v 112.733765 4.813960 -19.896870
v 93.165199 4.813960 -19.896868
v 93.586380 4.813959 -30.760189
v 93.165199 4.813959 -30.961018
v 134.135605 4.813960 -20.097706
v 153.509064 4.813960 -20.097706
v 153.930954 4.813960 -19.896872
v 134.284927 4.813960 -19.896870
v 153.509064 4.813959 -30.760189
v 153.930954 4.813959 -30.961021
v 155.511108 3.084093 -20.097612
v 154.348907 3.084093 -20.097612
v 155.511108 3.084092 -21.392582
v 154.348907 3.084092 -21.392582
v 155.511108 0.472587 -24.823160
v 154.348892 0.472587 -24.823160
v 155.511108 0.472587 -26.118128
v 154.348892 0.472587 -26.118128
v 90.480606 3.084093 -20.097612
v 89.318398 3.084093 -20.097612
v 90.480606 3.084092 -21.392582
v 89.318398 3.084092 -21.392582
v 90.480606 0.472587 -24.823160
v 89.318398 0.472587 -24.823160
v 90.480606 0.472587 -26.118128
v 89.318398 0.472587 -26.118128
v 27.874451 3.084094 -20.097614
v 26.712246 3.084094 -20.097614
v 26.712246 3.084094 -21.392584
v 27.874451 3.084094 -21.392586
v 27.874454 0.472590 -24.823162
v 26.712246 0.472590 -24.823162
v 26.712246 0.472590 -26.118132
v 27.874454 0.472590 -26.118132
v -36.648331 3.084093 -20.097610
v -37.810539 3.084093 -20.097610
v -37.810539 3.084093 -21.392582
v -36.648331 3.084093 -21.392582
v -36.648331 0.472589 -24.823160
v -37.810539 0.472589 -24.823160
v -37.810539 0.472589 -26.118128
v -36.648331 0.472589 -26.118128
v -105.294678 2.938108 -34.946266
v -105.069870 3.284156 -34.946266
v -105.069870 3.422911 -34.336372
v -105.294678 3.111132 -34.185741
v -105.294678 3.111132 -35.706791
v -105.069870 3.422911 -35.556160
v -105.479347 2.790060 -34.946266
v -105.359520 2.790060 -34.946266
v -105.359520 2.977745 -34.121296
v -105.479347 2.977745 -34.121296
v -105.479347 2.977745 -35.771236
v -105.359520 2.977745 -35.771236
v -105.768997 3.284156 -34.946266
v -105.544189 2.938108 -34.946266
v -105.544189 3.111132 -34.185741
v -105.768997 3.422911 -34.336372
v -105.768997 3.422911 -35.556160
v -105.544189 3.111132 -35.706791
v 158.206024 2.478354 -8.608524
v 158.297684 2.573662 -8.608524
v 158.297684 2.611878 -8.440547
v 158.206024 2.526008 -8.399060
v 158.206024 2.526008 -8.817988
v 158.297684 2.611878 -8.776502
v 158.130722 2.437578 -8.608524
v 158.179581 2.437578 -8.608524
v 158.179581 2.489271 -8.381310
v 158.130722 2.489271 -8.381310
v 158.130722 2.489271 -8.835738
v 158.179581 2.489271 -8.835738
v 158.012619 2.573662 -8.608524
v 158.104279 2.478354 -8.608524
v 158.104279 2.526008 -8.399060
v 158.012619 2.611878 -8.440547
v 158.012619 2.611878 -8.776502
v 158.104279 2.526008 -8.817988
v -62.720673 2.478354 -8.608524
v -62.629013 2.573662 -8.608524
v -62.629013 2.611878 -8.440547
v -62.720673 2.526008 -8.399060
v -62.720673 2.526008 -8.817988
v -62.629013 2.611878 -8.776502
v -62.795975 2.437578 -8.608524
v -62.747116 2.437578 -8.608524
v -62.747116 2.489271 -8.381311
v -62.795975 2.489271 -8.381311
v -62.795975 2.489271 -8.835737
v -62.747116 2.489271 -8.835737
v -62.914078 2.573662 -8.608524
v -62.822418 2.478354 -8.608524
v -62.822418 2.526008 -8.399060
v -62.914078 2.611878 -8.440547
v -62.914078 2.611878 -8.776502
v -62.822418 2.526008 -8.817988
v -237.399338 24.364847 -353.362183
v -237.375458 24.710896 -353.138641
v -237.981903 24.849649 -353.073853
v -238.155563 24.537870 -353.281403
v -236.643127 24.537872 -353.442993
v -236.769012 24.849649 -353.203430
v -237.418961 24.216799 -353.545807
v -237.406235 24.216799 -353.426666
v -238.226532 24.404484 -353.339020
v -238.239258 24.404484 -353.458160
v -236.598663 24.404484 -353.633453
v -236.585938 24.404484 -353.514313
v -237.449738 24.710896 -353.833832
v -237.425858 24.364847 -353.610291
v -238.182068 24.537870 -353.529480
v -238.056183 24.849649 -353.769043
v -236.843292 24.849649 -353.898621
v -236.669632 24.537872 -353.691071
v 7.298947 16.054888 -343.354706
v 7.085198 16.400936 -343.285065
v 6.896281 16.539690 -343.864960
v 7.063371 16.227911 -344.077820
v 7.534523 16.227913 -342.631561
v 7.274116 16.539690 -342.705170
v 7.474537 15.906840 -343.411896
v 7.360601 15.906840 -343.374786
v 7.105064 16.094524 -344.159180
v 7.218999 16.094524 -344.196289
v 7.730075 16.094524 -342.627502
v 7.616139 16.094524 -342.590393
v 7.749940 16.400936 -343.501617
v 7.536191 16.054888 -343.431976
v 7.300615 16.227911 -344.155121
v 7.561023 16.539690 -344.081512
v 7.938858 16.539690 -342.921722
v 7.771767 16.227913 -342.708862
v 360.598114 17.608120 -426.243805
v 360.409363 17.954168 -426.121704
v 360.078064 18.092922 -426.633789
v 360.184998 17.781143 -426.882355
v 361.011200 17.781145 -425.605286
v 360.740631 18.092922 -425.609619
v 360.753143 17.460072 -426.344116
v 360.652557 17.460072 -426.279053
v 360.204437 17.647757 -426.971680
v 360.305054 17.647757 -427.036774
v 361.201263 17.647757 -425.651459
v 361.100647 17.647757 -425.586395
v 360.996338 17.954168 -426.501465
v 360.807587 17.608120 -426.379364
v 360.394501 17.781143 -427.017883
v 360.665070 18.092922 -427.013550
v 361.327637 18.092922 -425.989380
v 361.220703 17.781145 -425.740814
v 545.401550 1.296066 -216.583420
v 545.450623 1.642114 -216.364059
v 544.855469 1.780868 -216.230789
v 544.659363 1.469089 -216.417252
v 546.143677 1.469090 -216.749603
v 546.045776 1.780868 -216.497314
v 545.361206 1.148017 -216.763641
v 545.387329 1.148017 -216.646698
v 544.582336 1.335702 -216.466446
v 544.556152 1.335702 -216.583389
v 546.166199 1.335702 -216.943893
v 546.192383 1.335702 -216.826950
v 545.297913 1.642114 -217.046280
v 545.346985 1.296066 -216.826920
v 544.604858 1.469089 -216.660736
v 544.702759 1.780868 -216.913025
v 545.893066 1.780868 -217.179550
v 546.089172 1.469090 -216.993088
v 366.790253 1.296083 15.066245
v 367.014832 1.642131 15.056172
v 367.042145 1.780885 15.665455
v 366.824341 1.469106 15.826008
v 366.756165 1.469107 14.306482
v 366.987518 1.780885 14.446891
v 366.605774 1.148034 15.074519
v 366.725464 1.148034 15.069150
v 366.762421 1.335719 15.893292
v 366.642731 1.335719 15.898661
v 366.568817 1.335719 14.250377
v 366.688507 1.335719 14.245008
v 366.316406 1.642131 15.087496
v 366.540985 1.296083 15.077424
v 366.575073 1.469106 15.837187
v 366.343719 1.780885 15.696778
v 366.289093 1.780885 14.478213
v 366.506897 1.469107 14.317661
v 2.202874 27.833910 -921.881226
v 2.427680 28.179958 -921.881226
v 2.427680 28.318712 -921.271301
v 2.202874 28.006933 -921.120728
v 2.202874 28.006933 -922.641724
v 2.427680 28.318710 -922.491150
v 2.018202 27.685862 -921.881226
v 2.138031 27.685862 -921.881226
v 2.138031 27.873547 -921.056274
v 2.018202 27.873547 -921.056274
v 2.018202 27.873545 -922.706177
v 2.138031 27.873545 -922.706177
v 1.728552 28.179958 -921.881226
v 1.953358 27.833910 -921.881226
v 1.953358 28.006933 -921.120728
v 1.728553 28.318712 -921.271301
v 1.728552 28.318710 -922.491150
v 1.953358 28.006933 -922.641724
v 432.931488 35.124123 -918.069397
v 433.096802 35.470169 -917.916992
v 432.683441 35.608925 -917.468567
v 432.416046 35.297146 -917.510132
v 433.446930 35.297146 -918.628601
v 433.510132 35.608925 -918.365479
v 432.795685 34.976070 -918.194519
v 432.883820 34.976070 -918.113342
v 432.324677 35.163757 -917.506714
v 432.236572 35.163757 -917.587952
v 433.354828 35.163757 -918.801147
v 433.442932 35.163757 -918.719910
v 432.582703 35.470169 -918.390869
v 432.748016 35.124123 -918.238464
v 432.232574 35.297146 -917.679260
v 432.169373 35.608925 -917.942383
v 432.996063 35.608925 -918.839294
v 433.263458 35.297146 -918.797729
v 527.600525 34.720348 -835.693604
v 527.768311 35.066395 -835.543945
v 527.362305 35.205151 -835.088867
v 527.094299 34.893372 -835.126099
v 528.106812 34.893372 -836.261169
v 528.174316 35.205151 -835.999084
v 527.462708 34.572296 -835.816528
v 527.552185 34.572296 -835.736816
v 527.002991 34.759983 -835.121155
v 526.913574 34.759983 -835.200928
v 528.011902 34.759983 -836.432190
v 528.101318 34.759983 -836.352417
v 527.246582 35.066395 -836.009399
v 527.414368 34.720348 -835.859741
v 526.908081 34.893372 -835.292175
v 526.840576 35.205151 -835.554260
v 527.652588 35.205151 -836.464478
v 527.920593 34.893372 -836.427246
v 484.252258 38.880810 -812.012695
v 484.555084 39.514786 -811.733582
v 483.797821 39.768993 -810.911987
v 483.307953 39.197800 -810.988159
v 485.196564 39.197800 -813.037231
v 485.312378 39.768993 -812.555176
v 484.003479 38.609577 -812.242004
v 484.164917 38.609577 -812.093201
v 483.140594 38.953426 -810.981873
v 482.979156 38.953426 -811.130676
v 485.027802 38.953426 -813.353333
v 485.189240 38.953426 -813.204529
v 483.613312 39.514786 -812.601624
v 483.916138 38.880810 -812.322510
v 482.971832 39.197800 -811.297974
v 482.856018 39.768993 -811.780029
v 484.370575 39.768993 -813.423218
v 484.860443 39.197800 -813.347046
v 537.359741 14.269639 -156.471924
v 537.000732 14.269639 -155.131989
v 536.793762 14.269639 -155.251465
v 537.120789 14.269639 -156.471924
v 536.019775 14.269639 -154.151093
v 535.900330 14.269639 -154.358017
v 534.679871 14.269639 -153.792053
v 534.679871 14.269639 -154.031006
v 533.339966 14.269639 -154.151093
v 533.459412 14.269639 -154.358017
v 532.359009 14.269639 -155.131989
v 532.565979 14.269639 -155.251465
v 532.000000 14.269639 -156.471924
v 532.238953 14.269639 -156.471924
v 532.359009 14.269639 -157.811859
v 532.565979 14.269639 -157.692383
v 533.339966 14.269638 -158.792755
v 533.459412 14.269638 -158.585831
v 534.679871 14.269638 -159.151794
v 534.679871 14.269638 -158.912842
v 536.019775 14.269638 -158.792755
v 535.900330 14.269638 -158.585831
v 537.000732 14.269639 -157.811859
v 536.793762 14.269639 -157.692383
v 536.793762 9.775705 -155.251465
v 537.120789 9.775705 -156.471924
v 537.976135 9.775705 -156.471924
v 537.534546 9.775705 -154.823776
v 536.793762 9.775705 -157.692383
v 537.534546 9.775704 -158.120071
v 535.900330 9.775704 -158.585831
v 536.328003 9.775704 -159.326584
v 534.679871 9.775704 -158.912842
v 534.679871 9.775704 -159.768204
v 533.459412 9.775704 -158.585831
v 533.031738 9.775704 -159.326599
v 532.565979 9.775705 -157.692383
v 531.825195 9.775704 -158.120071
v 532.238953 9.775705 -156.471924
v 531.383606 9.775705 -156.471924
v 532.565979 9.775705 -155.251465
v 531.825195 9.775705 -154.823776
v 533.459412 9.775705 -154.358017
v 533.031738 9.775705 -153.617264
v 534.679871 9.775705 -154.031006
v 534.679871 9.775705 -153.175644
v 535.900330 9.775705 -154.358017
v 536.328003 9.775705 -153.617249
v 536.793762 9.124447 -155.251465
v 537.120789 9.124447 -156.471924
v 535.900330 9.124447 -154.358017
v 534.679871 9.124447 -154.030991
v 533.459412 9.124447 -154.358017
v 532.565979 9.124447 -155.251465
v 532.238953 9.124447 -156.471924
v 532.565979 9.124447 -157.692383
v 533.459412 9.124446 -158.585815
v 534.679871 9.124446 -158.912842
v 535.900330 9.124446 -158.585815
v 536.793762 9.124447 -157.692383
v 271.004944 16.628468 -403.415161
v 280.302582 16.628468 -409.242371
v 280.727417 16.628468 -408.564484
v 271.429810 16.628468 -402.737305
v 270.743408 16.628466 -424.494537
v 261.445801 16.628466 -418.667328
v 259.815796 16.628466 -421.268066
v 269.113434 16.628466 -427.095276
v 271.004944 17.826069 -403.415161
v 277.462433 17.826069 -407.462341
v 277.365448 17.826069 -407.618225
v 270.967316 17.826069 -403.608246
v 277.488098 19.426069 -407.478394
v 277.391113 19.426069 -407.634308
v 271.004944 19.426069 -403.415161
v 270.967316 19.426069 -403.608246
v 266.961029 19.426069 -409.867493
v 266.954163 17.826069 -409.878418
v 267.014374 17.826069 -409.915344
v 267.021240 19.426069 -409.904419
v 271.004944 20.126070 -403.415161
v 278.007446 20.126070 -407.803925
v 277.906555 20.126070 -407.960632
v 270.963409 20.126070 -403.609070
v 277.985596 21.526070 -407.790222
v 277.884705 21.526070 -407.946930
v 271.004944 21.526070 -403.415161
v 270.963409 21.526070 -403.609070
v 266.970001 21.526070 -409.853149
v 266.964020 20.126070 -409.862701
v 267.020325 20.126070 -409.900452
v 267.026306 21.526070 -409.890900
v 278.941467 21.526070 -411.414062
v 278.940643 20.126070 -411.415405
v 278.775940 20.126070 -411.312164
v 278.776764 21.526070 -411.310852
v 276.219788 20.126070 -415.756683
v 276.214294 21.526070 -415.765472
v 276.049591 21.526070 -415.662231
v 276.055084 20.126070 -415.653442
v 272.275970 17.838757 -401.894592
v 271.658752 17.838757 -402.879395
v 273.373230 17.838757 -402.582306
v 272.756042 17.838757 -403.567078
v 276.280090 15.227251 -404.404144
v 275.662872 15.227251 -405.388916
v 277.377350 15.227251 -405.091858
v 276.760162 15.227251 -406.076630
v 266.550568 21.797785 -412.671143
v 266.034454 21.797785 -413.494690
v 266.952057 21.797785 -414.069763
v 267.468201 21.797785 -413.246246
v 269.899078 19.613890 -414.769775
v 269.382935 19.613890 -415.593323
v 270.300537 19.613890 -416.168396
v 270.816681 19.613890 -415.344879
vn -0.0000 -1.0000 -0.0000
vn -0.0000 1.0000 -0.0000
vn -0.1664 -0.9833 0.0739
vn -0.0369 -0.9989 0.0301
vn -0.0372 -0.9989 0.0301
vn -0.0374 -0.9988 0.0302
vn -0.0376 -0.9988 0.0302
vn 0.0381 -0.9989 -0.0286
vn 0.0383 -0.9989 -0.0287
vn 0.0385 -0.9988 -0.0287
vn 0.0388 -0.9988 -0.0287
vn 0.0330 -0.9994 0.0142
vn -0.0199 -0.9994 0.0299
vn 0.0289 -0.9988 0.0386
vn -0.0031 -0.9988 0.0481
vn 0.0199 -0.9994 -0.0299
vn 0.0031 -0.9988 -0.0481
vn -0.0330 -0.9994 -0.0142
vn -0.0289 -0.9988 -0.0386
vn -0.9574 0.0447 0.2854
vn 0.9578 -0.0324 -0.2856
vn 0.9578 -0.0323 -0.2856
vn -0.9556 0.0754 0.2849
vn -0.9556 0.0753 0.2850
vn 0.9583 0.0053 -0.2857
vn 0.9583 0.0053 -0.2858
vn 0.0234 -0.9994 -0.0272
vn 0.0225 -0.9994 0.0280
vn 0.0455 -0.9988 -0.0160
vn 0.0450 -0.9988 0.0175
vn -0.0225 -0.9994 -0.0280
vn -0.0450 -0.9988 -0.0175
vn -0.0234 -0.9994 0.0272
vn -0.0455 -0.9988 0.0160
vn -0.0165 0.0447 0.9989
vn 0.0165 -0.0324 -0.9993
vn -0.0165 0.0754 0.9970
vn 0.0165 0.0053 -0.9998
vn 0.0986 -0.9889 -0.1110
vn -0.7443 0.0332 -0.6670
vn -0.7438 0.0332 -0.6675
vn -0.7439 0.0332 -0.6675
vn 0.7445 -0.0240 0.6672
vn 0.7440 -0.0240 0.6678
vn 0.7440 -0.0240 0.6677
vn -0.7430 0.0559 -0.6669
vn -0.7430 0.0559 -0.6670
vn 0.7443 0.0039 0.6679
vn 1.0000 -0.0000 -0.0000
vn -1.0000 -0.0000 -0.0000
vn 0.9511 -0.0000 0.3090
vn 0.5878 -0.0000 0.8090
vn -0.0000 -0.0000 1.0000
vn -0.5878 -0.0000 0.8090
vn -0.9511 -0.0000 0.3090
vn -0.9511 -0.0000 -0.3090
vn -0.5878 -0.0000 -0.8090
vn -0.0000 -0.0000 -1.0000
vn 0.5878 -0.0000 -0.8090
vn 0.9511 -0.0000 -0.3090
vn 0.5877 -0.0000 0.8090
vn 0.5877 -0.0000 0.8091
vn -0.5877 -0.0000 0.8091
vn -0.9510 -0.0000 0.3090
vn -0.9510 -0.0000 -0.3090
vn 0.9510 -0.0000 0.3091
vn -0.9510 -0.0000 0.3091
vn -0.9510 -0.0000 -0.3091
vn 0.9510 -0.0000 -0.3091
vn 0.9510 -0.0000 0.3090
vn 0.7335 -0.0000 -0.6797
vn 0.9929 -0.0000 -0.1188
vn 0.8731 -0.0000 0.4876
vn 0.4197 -0.0000 0.9076
vn -0.1939 -0.0000 0.9810
vn -0.7335 -0.0000 0.6797
vn -0.9929 -0.0000 0.1188
vn -0.8731 -0.0000 -0.4876
vn -0.4197 -0.0000 -0.9076
vn 0.1939 -0.0000 -0.9810
vn 0.8850 -0.4655 -0.0000
vn 0.8386 -0.5448 -0.0000
vn 0.8322 -0.5406 0.1230
vn 0.8802 -0.4628 0.1053
vn 0.8802 -0.4628 -0.1053
vn 0.8322 -0.5407 -0.1230
vn -0.0000 -0.9751 0.2218
vn -0.0000 -0.9751 -0.2218
vn -0.0000 -0.9751 -0.2219
vn -0.8386 -0.5448 -0.0000
vn -0.8851 -0.4655 -0.0000
vn -0.8802 -0.4628 0.1053
vn -0.8322 -0.5407 0.1230
vn -0.8322 -0.5406 -0.1230
vn -0.8802 -0.4628 -0.1053
vn 0.9160 -0.4012 -0.0000
vn 0.9122 -0.3996 -0.0909
vn 0.9122 -0.3995 0.0909
vn 0.9122 -0.3996 0.0909
vn -0.9160 -0.4012 -0.0000
vn -0.9122 -0.3995 0.0909
vn -0.9122 -0.3995 -0.0909
vn 0.7901 -0.6130 -0.0000
vn 0.7208 -0.6932 -0.0000
vn 0.7119 -0.6848 0.1558
vn 0.7827 -0.6069 0.1381
vn 0.7825 -0.6072 -0.1381
vn 0.7120 -0.6847 -0.1558
vn -0.0000 -0.9751 0.2219
vn -0.7208 -0.6932 -0.0000
vn -0.7900 -0.6131 -0.0000
vn -0.7824 -0.6072 0.1381
vn -0.7121 -0.6846 0.1558
vn -0.7120 -0.6847 -0.1558
vn -0.7825 -0.6071 -0.1381
vn 0.8391 -0.5440 -0.0000
vn 0.8325 -0.5403 -0.1228
vn 0.8329 -0.5395 0.1229
vn 0.8328 -0.5398 0.1229
vn -0.8389 -0.5443 -0.0000
vn -0.8324 -0.5404 0.1228
vn -0.8325 -0.5402 -0.1228
vn 0.7207 -0.6932 -0.0000
vn 0.7120 -0.6847 0.1558
vn 0.7826 -0.6070 0.1381
vn 0.7826 -0.6070 -0.1381
vn 0.7119 -0.6847 -0.1558
vn -0.7901 -0.6130 -0.0000
vn -0.7826 -0.6071 0.1381
vn -0.7119 -0.6847 0.1558
vn 0.8390 -0.5441 -0.0000
vn 0.8327 -0.5399 -0.1229
vn 0.8327 -0.5399 0.1229
vn 0.8327 -0.5400 0.1229
vn -0.8390 -0.5441 -0.0000
vn -0.8327 -0.5400 0.1229
vn -0.8327 -0.5400 -0.1229
vn 0.0940 -0.4655 0.8800
vn 0.0891 -0.5448 0.8338
vn -0.0339 -0.5407 0.8406
vn -0.0112 -0.4628 0.8864
vn 0.1982 -0.4628 0.8640
vn 0.2107 -0.5407 0.8144
vn -0.0001 -1.0000 -0.0000
vn -0.2205 -0.9751 0.0236
vn 0.2207 -0.9751 -0.0236
vn -0.0891 -0.5448 -0.8338
vn -0.0940 -0.4655 -0.8800
vn -0.1982 -0.4628 -0.8640
vn -0.2107 -0.5407 -0.8144
vn 0.0339 -0.5407 -0.8406
vn 0.0112 -0.4628 -0.8864
vn 0.0973 -0.4012 0.9108
vn 0.1874 -0.3995 0.8974
vn 0.0066 -0.3994 0.9167
vn 0.0065 -0.3996 0.9167
vn -0.0973 -0.4012 -0.9108
vn -0.1874 -0.3995 -0.8974
vn -0.0065 -0.3995 -0.9167
vn -0.0064 -0.3996 -0.9167
vn -0.8415 -0.4655 0.2741
vn -0.7973 -0.5448 0.2597
vn -0.8294 -0.5407 0.1408
vn -0.8695 -0.4628 0.1725
vn -0.8043 -0.4628 0.3728
vn -0.7532 -0.5406 0.3747
vn -0.0686 -0.9751 -0.2109
vn 0.0686 -0.9751 0.2109
vn 0.7973 -0.5448 -0.2598
vn 0.8415 -0.4655 -0.2742
vn 0.8043 -0.4628 -0.3728
vn 0.7532 -0.5406 -0.3747
vn 0.8294 -0.5406 -0.1408
vn 0.8695 -0.4628 -0.1725
vn -0.8709 -0.4012 0.2837
vn -0.8392 -0.3996 0.3690
vn -0.8955 -0.3995 0.1961
vn -0.8955 -0.3996 0.1962
vn 0.8709 -0.4012 -0.2837
vn 0.8391 -0.3996 -0.3690
vn 0.8955 -0.3995 -0.1961
vn 0.8955 -0.3996 -0.1962
vn -0.7431 -0.4655 0.4808
vn -0.7041 -0.5448 0.4555
vn -0.7655 -0.5406 0.3488
vn -0.7961 -0.4630 0.3897
vn -0.6819 -0.4628 0.5665
vn -0.6320 -0.5406 0.5553
vn -0.1204 -0.9751 -0.1862
vn 0.1204 -0.9751 0.1862
vn 0.7041 -0.5448 -0.4555
vn 0.7431 -0.4655 -0.4807
vn 0.6818 -0.4627 -0.5665
vn 0.6319 -0.5406 -0.5554
vn 0.7656 -0.5405 -0.3488
vn 0.7962 -0.4628 -0.3897
vn -0.7691 -0.4011 0.4976
vn -0.7166 -0.3995 0.5718
vn -0.8151 -0.3998 0.4191
vn -0.8153 -0.3994 0.4192
vn 0.7691 -0.4013 -0.4975
vn 0.7166 -0.3994 -0.5718
vn 0.8152 -0.3996 -0.4192
vn 0.8152 -0.3998 -0.4191
vn 0.1934 -0.4655 0.8637
vn 0.1832 -0.5447 0.8184
vn 0.0618 -0.5407 0.8390
vn 0.0896 -0.4628 0.8819
vn 0.2950 -0.4628 0.8359
vn 0.3019 -0.5407 0.7852
vn 0.0001 -1.0000 -0.0000
vn -0.2164 -0.9751 0.0484
vn -0.2164 -0.9751 0.0485
vn 0.2164 -0.9751 -0.0484
vn 0.2164 -0.9751 -0.0485
vn -0.1832 -0.5447 -0.8183
vn -0.1934 -0.4655 -0.8637
vn -0.2951 -0.4628 -0.8359
vn -0.3019 -0.5406 -0.7852
vn -0.0618 -0.5406 -0.8390
vn -0.0896 -0.4628 -0.8819
vn 0.2001 -0.4012 0.8939
vn 0.2880 -0.3995 0.8703
vn 0.1106 -0.3995 0.9101
vn 0.1105 -0.3995 0.9100
vn -0.2001 -0.4012 -0.8939
vn -0.2880 -0.3996 -0.8703
vn -0.1106 -0.3995 -0.9101
vn -0.1105 -0.3995 -0.9100
vn 0.8842 -0.4655 -0.0397
vn 0.8377 -0.5448 -0.0376
vn 0.8369 -0.5406 0.0856
vn 0.8840 -0.4628 0.0657
vn 0.8746 -0.4628 -0.1446
vn 0.8259 -0.5406 -0.1602
vn -0.0000 -1.0000 -0.0001
vn 0.0099 -0.9751 0.2218
vn 0.0099 -0.9750 0.2218
vn -0.0099 -0.9751 -0.2217
vn -0.8377 -0.5449 0.0376
vn -0.8842 -0.4655 0.0397
vn -0.8746 -0.4628 0.1446
vn -0.8259 -0.5406 0.1602
vn -0.8369 -0.5406 -0.0856
vn -0.8839 -0.4630 -0.0657
vn 0.9151 -0.4011 -0.0410
vn 0.9072 -0.3995 -0.1317
vn 0.9153 -0.3996 0.0500
vn 0.9154 -0.3995 0.0500
vn -0.9151 -0.4011 0.0410
vn -0.9072 -0.3995 0.1317
vn -0.9151 -0.4001 -0.0499
vn -0.9154 -0.3994 -0.0500
vn 0.8322 -0.5406 -0.1230
vn -0.8850 -0.4655 -0.0000
vn -0.8322 -0.5406 0.1230
vn 0.9122 -0.3995 -0.0909
vn -0.9122 -0.3996 -0.0909
vn 0.6508 -0.4655 0.5998
vn 0.6165 -0.5449 0.5683
vn 0.5285 -0.5407 0.6545
vn 0.5758 -0.4629 0.6740
vn 0.7187 -0.4626 0.5192
vn 0.6954 -0.5406 0.4735
vn 0.0001 -1.0000 -0.0001
vn -0.1504 -0.9751 0.1631
vn -0.1505 -0.9751 0.1631
vn 0.1504 -0.9751 -0.1630
vn -0.6166 -0.5448 -0.5683
vn -0.6508 -0.4655 -0.5998
vn -0.7186 -0.4627 -0.5192
vn -0.6953 -0.5407 -0.4735
vn -0.5285 -0.5407 -0.6545
vn -0.5758 -0.4629 -0.6739
vn 0.6736 -0.4012 0.6208
vn 0.7325 -0.3991 0.5516
vn 0.6091 -0.3997 0.6850
vn 0.6092 -0.3995 0.6850
vn -0.6736 -0.4012 -0.6208
vn -0.7324 -0.3993 -0.5515
vn -0.6091 -0.3997 -0.6850
vn -0.6092 -0.3995 -0.6850
vn 0.6605 -0.4654 0.5892
vn 0.6257 -0.5448 0.5582
vn 0.5391 -0.5407 0.6457
vn 0.5867 -0.4628 0.6645
vn 0.7270 -0.4626 0.5075
vn 0.7030 -0.5405 0.4622
vn -0.0000 -1.0000 0.0001
vn -0.1475 -0.9751 0.1655
vn 0.1475 -0.9751 -0.1655
vn -0.6257 -0.5449 -0.5582
vn -0.6605 -0.4655 -0.5892
vn -0.7269 -0.4627 -0.5074
vn -0.7029 -0.5406 -0.4622
vn -0.5392 -0.5406 -0.6458
vn -0.5867 -0.4629 -0.6645
vn 0.6837 -0.4010 0.6097
vn 0.7413 -0.3991 0.5396
vn 0.6202 -0.3995 0.6751
vn 0.6203 -0.3994 0.6750
vn -0.6836 -0.4011 -0.6097
vn -0.7412 -0.3993 -0.5395
vn -0.6201 -0.3998 -0.6750
vn -0.6203 -0.3994 -0.6750
vn 0.6508 -0.4654 0.5999
vn 0.6166 -0.5448 0.5683
vn 0.5286 -0.5406 0.6545
vn 0.5759 -0.4628 0.6740
vn 0.7186 -0.4628 0.5191
vn 0.6953 -0.5406 0.4736
vn -0.1503 -0.9751 0.1632
vn 0.1503 -0.9751 -0.1631
vn 0.1503 -0.9751 -0.1632
vn -0.6508 -0.4655 -0.5999
vn -0.7186 -0.4627 -0.5191
vn -0.6953 -0.5406 -0.4736
vn -0.5286 -0.5406 -0.6545
vn -0.5759 -0.4628 -0.6739
vn 0.6736 -0.4010 0.6209
vn 0.7324 -0.3995 0.5514
vn 0.6091 -0.3996 0.6851
vn 0.6093 -0.3992 0.6851
vn -0.6735 -0.4011 -0.6209
vn -0.7324 -0.3994 -0.5514
vn -0.6092 -0.3996 -0.6850
vn 0.9659 -0.0000 0.2588
vn 0.8660 -0.0000 0.5000
vn 0.7071 -0.0000 0.7071
vn 0.2588 -0.0000 0.9659
vn -0.2588 -0.0000 0.9659
vn -0.7071 -0.0000 0.7071
vn -0.8660 -0.0000 0.5000
vn -0.9659 -0.0000 0.2588
vn -0.9659 -0.0000 -0.2588
vn -0.8660 -0.0000 -0.5000
vn -0.7071 -0.0001 -0.7071
vn -0.7071 -0.0000 -0.7071
vn -0.2588 -0.0000 -0.9659
vn -0.2588 -0.0001 -0.9659
vn 0.2588 -0.0000 -0.9659
vn 0.7071 -0.0000 -0.7071
vn 0.9659 -0.0000 -0.2588
vn -0.8489 0.0189 0.5282
vn -0.8490 0.0190 0.5280
vn -0.8490 0.0189 0.5280
vn 0.5228 -0.0081 0.8524
vn -0.8406 -0.0184 0.5413
vn -0.8408 -0.0184 0.5411
vn 0.5569 -0.0080 0.8305
vn 0.5578 -0.0081 0.8299
vn 0.5578 -0.0081 0.8300
vn -0.5308 0.0011 -0.8475
vn -0.5311 0.0011 -0.8473
vn 0.5311 0.0074 0.8473
vt 0.000499 -2.067860
vt 0.000502 5.067861
vt 0.999500 5.067860
vt 0.999496 -2.067860
vt 0.999501 2.499001
vt 0.999500 0.500999
vt 0.000499 0.500999
vt 0.000500 2.499001
vt 0.999500 1.000499
vt 0.999501 1.921746
vt 0.975454 1.921819
vt 0.975454 1.009039
vt 0.000500 1.000500
vt 0.000586 1.009039
vt 0.999500 1.999500
vt 0.000500 1.999500
vt 0.999500 1.000500
vt 0.999501 1.999500
vt 0.000500 1.999501
vt 0.999500 1.002497
vt 0.000500 1.002498
vt 0.000500 5.997502
vt 0.999501 5.997502
vt 9.995001 1.004995
vt 0.004995 1.004997
vt 9.804986 1.060039
vt 0.195010 1.060040
vt 9.995005 10.995004
vt 9.804991 10.939960
vt 0.004999 10.995005
vt 0.195014 10.939960
vt 0.000522 1.999501
vt 0.000522 1.000500
vt 0.999507 1.000500
vt 0.999507 1.999501
vt 0.999487 1.000500
vt 0.999487 1.999501
vt 0.000502 1.999501
vt 0.000502 1.000500
vt 0.523123 1.999486
vt 0.000499 1.000493
vt 0.523123 1.000502
vt 0.000511 1.999501
vt 0.000511 1.000500
vt 0.999496 1.000500
vt 0.999496 1.999501
vt 0.999494 1.000500
vt 0.999494 1.999501
vt 0.000510 1.999501
vt 0.000510 1.000500
vt 0.650134 1.999489
vt 0.650134 1.000504
vt 0.999501 1.000510
vt 0.999364 1.999501
vt 0.999501 1.523927
vt 0.000500 1.999420
vt 0.000635 1.523847
vt 0.999500 1.000580
vt 0.000635 1.000499
vt 0.000519 20.990009
vt 0.000519 1.009990
vt 0.999500 1.009990
vt 0.999500 20.990009
vt 0.000502 1.008991
vt 0.000501 18.991009
vt 0.999499 1.008991
vt 0.999498 18.991009
vt 0.000000 1.000000
vt 1.000000 1.000000
vt 1.000000 2.000000
vt 0.000000 2.000000
vt 2.250000 1.999501
vt 1.961301 1.999501
vt 1.961301 1.000500
vt 2.250000 1.000500
vt 1.657185 1.999501
vt 1.657185 1.000500
vt 1.342814 1.999501
vt 1.342814 1.000500
vt 1.038698 1.999501
vt 1.038698 1.000500
vt 0.750000 1.999501
vt 0.750000 1.000500
vt 0.461301 1.999501
vt 0.461301 1.000500
vt 0.157185 1.999501
vt 0.157185 1.000500
vt -0.157186 1.999501
vt -0.157186 1.000500
vt 2.842814 1.999501
vt 2.538698 1.999501
vt 2.538698 1.000500
vt 2.842814 1.000500
vt 0.009990 1.918580
vt 0.009991 2.084805
vt 0.231568 2.084805
vt 0.231567 1.918580
vt 6.506486 2.084804
vt 6.506486 1.918579
vt 13.417150 2.084803
vt 13.417150 1.918578
vt 19.716913 2.084802
vt 19.716913 1.918577
vt 19.990009 2.084802
vt 19.990009 1.918577
vt 0.009992 4.017028
vt 0.231568 4.017028
vt 19.716913 4.017025
vt 19.990009 4.017025
vt 6.457812 2.048409
vt 0.094609 2.048410
vt 0.094610 4.053422
vt 19.854103 2.048408
vt 13.465708 2.048409
vt 19.716913 4.017026
vt 19.854105 4.053420
vt 0.500000 1.234205
vt 0.500000 1.780467
vt 0.130723 1.999501
vt 0.039519 1.507336
vt 0.960481 1.507336
vt 0.869277 1.999500
vt 0.500000 1.000500
vt 0.000500 1.296775
vt 0.999500 1.296774
vt 1.500000 1.587325
vt 1.333333 1.587325
vt 1.333333 1.412675
vt 1.500000 1.412675
vt 1.166667 1.587325
vt 1.166667 1.412675
vt 1.000000 1.587325
vt 1.000000 1.412675
vt 0.833333 1.587325
vt 0.833333 1.412675
vt 0.666667 1.587325
vt 0.666667 1.412675
vt 0.500000 1.587325
vt 0.500000 1.412675
vt 0.333333 1.587325
vt 0.333333 1.412675
vt 0.166667 1.587325
vt 0.166667 1.412675
vt -0.000000 1.587325
vt -0.000000 1.412675
vt 2.000000 1.587325
vt 1.833333 1.587325
vt 1.833333 1.412675
vt 2.000000 1.412675
vt 1.666667 1.587325
vt 1.666667 1.412675
vt 0.999501 1.000499
vt 0.999501 1.432500
vt 0.975454 1.432500
vt 0.975454 1.000499
vt 0.000500 1.925406
vt 0.000500 1.000499
vt 0.024546 1.009039
vt 0.024546 1.925479
vt 0.000500 1.432500
vt 0.009039 1.000499
vt 0.009039 1.432500
vt 0.999501 1.999501
vt 0.975093 1.999226
vt 0.975093 1.008691
vt 0.999501 1.621500
vt 0.975093 1.999500
vt 0.975093 1.621500
vt 0.000499 1.996383
vt 0.024907 1.008691
vt 0.024907 1.996108
vt 0.000500 1.621500
vt 0.008691 1.621500
vt 0.008691 1.999500
vt 0.997812 1.000500
vt 0.997725 1.009039
vt 0.002927 1.000500
vt 0.002652 1.008691
vt 0.995596 1.000500
vt 0.995870 1.008691
vt 0.000500 1.452696
vt 0.999500 1.452696
vt 0.999500 1.547305
vt 0.000500 1.547305
vt 0.000500 1.452695
vt 0.999501 1.452695
vt 0.999501 1.547304
vt 0.000500 1.547304
vt 0.000803 1.452696
vt 0.997483 1.452695
vt 0.997483 1.547304
vt 0.000803 1.547305
s 1
usemtl UNDERA.032
f 1/1/1 2/2/1 3/3/1
f 3/3/1 4/4/1 1/1/1
f 5/5/1 6/6/1 7/7/1
f 7/7/1 8/8/1 5/5/1
f 9/9/2 10/10/2 11/11/2
f 11/11/2 12/12/2 9/9/2
f 13/13/2 9/9/2 12/12/2
f 12/12/2 14/14/2 13/13/2
f 15/1/1 16/2/1 17/3/1
f 17/3/1 18/4/1 15/1/1
f 19/5/1 20/6/1 21/7/1
f 21/7/1 22/8/1 19/5/1
f 23/9/2 24/10/2 25/11/2
f 25/11/2 26/12/2 23/9/2
f 27/13/2 23/9/2 26/12/2
f 26/12/2 28/14/2 27/13/2
f 29/9/1 30/13/1 31/15/1
f 32/16/1 31/15/1 30/13/1
f 33/17/1 34/13/1 35/18/1
f 36/19/1 35/18/1 34/13/1
f 37/20/1 38/21/1 39/22/1
f 39/22/1 40/23/1 37/20/1
f 41/9/1 42/13/1 43/15/1
f 44/16/1 43/15/1 42/13/1
f 45/17/1 46/13/1 47/18/1
f 48/19/1 47/18/1 46/13/1
f 49/9/1 50/13/1 51/15/1
f 52/16/1 51/15/1 50/13/1
f 53/17/1 54/13/1 55/18/1
f 56/19/1 55/18/1 54/13/1
f 57/20/1 58/21/1 59/22/1
f 59/22/1 60/23/1 57/20/1
f 61/9/1 62/13/1 63/15/1
f 64/16/1 63/15/1 62/13/1
f 65/17/1 66/13/1 67/18/1
f 68/19/1 67/18/1 66/13/1
f 69/9/1 70/13/1 71/15/1
f 72/16/1 71/15/1 70/13/1
f 73/17/1 74/13/1 75/18/1
f 76/19/1 75/18/1 74/13/1
f 77/20/1 78/21/1 79/22/1
f 79/22/1 80/23/1 77/20/1
f 81/9/1 82/13/1 83/15/1
f 84/16/1 83/15/1 82/13/1
f 85/17/1 86/13/1 87/18/1
f 88/19/1 87/18/1 86/13/1
f 89/9/1 90/13/1 91/15/1
f 92/16/1 91/15/1 90/13/1
f 93/17/1 94/13/1 95/18/1
f 96/19/1 95/18/1 94/13/1
f 97/20/1 98/21/1 99/22/1
f 99/22/1 100/23/1 97/20/1
f 101/9/1 102/13/1 103/15/1
f 104/16/1 103/15/1 102/13/1
f 105/17/3 106/13/3 107/18/3
f 108/19/3 107/18/3 106/13/3
f 109/17/1 110/13/1 111/18/1
f 112/19/1 111/18/1 110/13/1
f 113/20/1 114/21/1 115/22/1
f 115/22/1 116/23/1 113/20/1
f 117/9/1 118/13/1 119/15/1
f 120/16/1 119/15/1 118/13/1
f 121/17/1 122/13/1 123/18/1
f 124/19/1 123/18/1 122/13/1
f 125/9/4 126/13/5 127/15/6
f 128/16/7 127/15/6 126/13/5
f 129/9/8 130/13/9 131/15/10
f 132/16/11 131/15/10 130/13/9
f 133/24/12 134/25/13 135/26/14
f 136/27/15 135/26/14 134/25/13
f 137/28/16 133/24/12 138/29/17
f 135/26/14 138/29/17 133/24/12
f 139/30/18 137/28/16 140/31/19
f 138/29/17 140/31/19 137/28/16
f 134/25/13 139/30/18 136/27/15
f 140/31/19 136/27/15 139/30/18
f 141/32/20 142/33/20 143/34/20
f 143/34/20 144/35/20 141/32/20
f 145/36/21 146/37/22 147/38/22
f 147/38/22 148/39/21 145/36/21
f 146/40/1 141/32/1 144/41/1
f 144/41/1 147/42/1 146/40/1
f 149/43/23 150/44/24 151/45/24
f 151/45/24 152/46/23 149/43/23
f 153/47/25 154/48/26 155/49/26
f 155/49/26 156/50/25 153/47/25
f 154/48/1 149/51/1 152/52/1
f 152/52/1 155/53/1 154/48/1
f 157/54/1 158/55/1 159/56/1
f 160/57/1 159/56/1 158/55/1
f 161/9/1 162/13/1 163/15/1
f 164/19/1 163/15/1 162/13/1
f 165/58/1 166/59/1 158/55/1
f 160/57/1 158/55/1 166/59/1
f 167/55/1 168/54/1 169/56/1
f 169/56/1 170/57/1 167/55/1
f 171/13/1 172/9/1 173/15/1
f 173/15/1 174/19/1 171/13/1
f 175/59/1 176/58/1 167/55/1
f 167/55/1 170/57/1 175/59/1
f 177/24/27 178/25/28 179/26/29
f 180/27/30 179/26/29 178/25/28
f 181/28/31 177/24/27 182/29/32
f 179/26/29 182/29/32 177/24/27
f 183/30/33 181/28/31 184/31/34
f 182/29/32 184/31/34 181/28/31
f 178/25/28 183/30/33 180/27/30
f 184/31/34 180/27/30 183/30/33
f 185/32/35 186/33/35 187/34/35
f 187/34/35 188/35/35 185/32/35
f 189/36/36 190/37/36 191/38/36
f 191/38/36 192/39/36 189/36/36
f 190/40/1 185/32/1 188/41/1
f 188/41/1 191/42/1 190/40/1
f 193/43/37 194/44/37 195/45/37
f 195/45/37 196/46/37 193/43/37
f 197/47/38 198/48/38 199/49/38
f 199/49/38 200/50/38 197/47/38
f 198/48/1 193/51/1 196/52/1
f 196/52/1 199/53/1 198/48/1
f 201/54/1 202/55/1 203/56/1
f 204/57/1 203/56/1 202/55/1
f 205/9/1 206/13/1 207/15/1
f 208/19/1 207/15/1 206/13/1
f 209/58/1 210/59/1 202/55/1
f 204/57/1 202/55/1 210/59/1
f 211/55/1 212/54/1 213/56/1
f 213/56/1 214/57/1 211/55/1
f 215/13/1 216/9/1 217/15/1
f 217/15/1 218/19/1 215/13/1
f 219/59/1 220/58/1 211/55/1
f 211/55/1 214/57/1 219/59/1
f 221/30/39 222/28/39 223/31/39
f 224/29/39 223/31/39 222/28/39
f 225/32/40 226/33/41 227/34/42
f 227/34/42 228/35/40 225/32/40
f 229/36/43 230/37/44 231/38/45
f 231/38/45 232/39/43 229/36/43
f 230/40/1 225/32/1 228/41/1
f 228/41/1 231/42/1 230/40/1
f 233/43/46 234/44/47 235/45/47
f 235/45/47 236/46/46 233/43/46
f 237/47/48 238/48/48 239/49/48
f 239/49/48 240/50/48 237/47/48
f 238/48/1 233/51/1 236/52/1
f 236/52/1 239/53/1 238/48/1
f 241/13/1 242/9/1 243/15/1
f 243/15/1 244/19/1 241/13/1
f 245/60/49 246/61/49 247/62/49
f 247/62/49 248/63/49 245/60/49
f 249/62/50 250/63/50 251/60/50
f 251/60/50 252/61/50 249/62/50
f 253/60/49 254/61/49 255/62/49
f 255/62/49 256/63/49 253/60/49
f 257/62/50 258/63/50 259/60/50
f 259/60/50 260/61/50 257/62/50
f 261/60/49 262/61/49 263/62/49
f 263/62/49 264/63/49 261/60/49
f 265/62/50 266/63/50 267/60/50
f 267/60/50 268/61/50 265/62/50
f 269/60/49 270/61/49 271/62/49
f 271/62/49 272/63/49 269/60/49
f 273/62/50 274/63/50 275/60/50
f 275/60/50 276/61/50 273/62/50
f 277/60/49 278/61/49 279/62/49
f 279/62/49 280/63/49 277/60/49
f 281/62/50 282/63/50 283/60/50
f 283/60/50 284/61/50 281/62/50
f 285/60/49 286/61/49 287/62/49
f 287/62/49 288/63/49 285/60/49
f 289/62/50 290/63/50 291/60/50
f 291/60/50 292/61/50 289/62/50
f 293/60/49 294/61/49 295/62/49
f 295/62/49 296/63/49 293/60/49
f 297/62/50 298/63/50 299/60/50
f 299/60/50 300/61/50 297/62/50
f 301/60/49 302/61/49 303/62/49
f 303/62/49 304/63/49 301/60/49
f 305/62/50 306/63/50 307/60/50
f 307/60/50 308/61/50 305/62/50
f 309/60/49 310/61/49 311/62/49
f 311/62/49 312/63/49 309/60/49
f 313/62/50 314/63/50 315/60/50
f 315/60/50 316/61/50 313/62/50
f 317/60/49 318/61/49 319/62/49
f 319/62/49 320/63/49 317/60/49
f 321/62/50 322/63/50 323/60/50
f 323/60/50 324/61/50 321/62/50
f 325/60/49 326/61/49 327/62/49
f 327/62/49 328/63/49 325/60/49
f 329/62/50 330/63/50 331/60/50
f 331/60/50 332/61/50 329/62/50
f 333/60/49 334/61/49 335/62/49
f 335/62/49 336/63/49 333/60/49
f 337/62/50 338/63/50 339/60/50
f 339/60/50 340/61/50 337/62/50
f 341/60/49 342/61/49 343/62/49
f 343/62/49 344/63/49 341/60/49
f 345/62/50 346/63/50 347/60/50
f 347/60/50 348/61/50 345/62/50
f 349/60/49 350/61/49 351/62/49
f 351/62/49 352/63/49 349/60/49
f 353/62/50 354/63/50 355/60/50
f 355/60/50 356/61/50 353/62/50
f 357/60/49 358/61/49 359/62/49
f 359/62/49 360/63/49 357/60/49
f 361/62/50 362/63/50 363/60/50
f 363/60/50 364/61/50 361/62/50
f 365/60/49 366/61/49 367/62/49
f 367/62/49 368/63/49 365/60/49
f 369/62/50 370/63/50 371/60/50
f 371/60/50 372/61/50 369/62/50
f 373/60/49 374/61/49 375/62/49
f 375/62/49 376/63/49 373/60/49
f 377/62/50 378/63/50 379/60/50
f 379/60/50 380/61/50 377/62/50
f 381/60/49 382/61/49 383/62/49
f 383/62/49 384/63/49 381/60/49
f 385/62/50 386/63/50 387/60/50
f 387/60/50 388/61/50 385/62/50
f 389/64/1 390/65/1 391/66/1
f 392/67/1 391/66/1 390/65/1
f 393/9/1 394/13/1 395/15/1
f 396/19/1 395/15/1 394/13/1
f 397/64/1 398/65/1 399/66/1
f 400/67/1 399/66/1 398/65/1
f 401/9/1 402/13/1 403/15/1
f 404/19/1 403/15/1 402/13/1
f 405/64/1 406/65/1 407/66/1
f 408/67/1 407/66/1 406/65/1
f 409/9/1 410/13/1 411/15/1
f 412/19/1 411/15/1 410/13/1
f 413/68/1 414/69/1 415/70/1
f 415/70/1 416/71/1 413/68/1
f 414/68/1 417/69/1 418/70/1
f 418/70/1 415/71/1 414/68/1
f 417/68/1 419/69/1 420/70/1
f 420/70/1 418/71/1 417/68/1
f 419/68/1 421/69/1 422/70/1
f 422/70/1 420/71/1 419/68/1
f 421/68/1 423/69/1 424/70/1
f 424/70/1 422/71/1 421/68/1
f 423/68/1 425/69/1 426/70/1
f 426/70/1 424/71/1 423/68/1
f 425/68/1 427/69/1 428/70/1
f 428/70/1 426/71/1 425/68/1
f 427/68/1 429/69/1 430/70/1
f 430/70/1 428/71/1 427/68/1
f 429/68/1 431/69/1 432/70/1
f 432/70/1 430/71/1 429/68/1
f 431/68/1 413/69/1 416/70/1
f 416/70/1 432/71/1 431/68/1
f 416/72/51 415/73/51 433/74/51
f 433/74/51 434/75/51 416/72/51
f 415/73/52 418/76/52 435/77/52
f 435/77/52 433/74/52 415/73/52
f 418/76/53 420/78/53 436/79/53
f 436/79/53 435/77/53 418/76/53
f 420/78/54 422/80/54 437/81/54
f 437/81/54 436/79/54 420/78/54
f 422/80/55 424/82/55 438/83/55
f 438/83/55 437/81/55 422/80/55
f 424/82/56 426/84/56 439/85/56
f 439/85/56 438/83/56 424/82/56
f 426/84/57 428/86/57 440/87/57
f 440/87/57 439/85/57 426/84/57
f 428/86/58 430/88/58 441/89/58
f 441/89/58 440/87/58 428/86/58
f 430/90/59 432/91/59 442/92/59
f 442/92/59 441/93/59 430/90/59
f 432/91/60 416/72/60 434/75/60
f 434/75/60 442/92/60 432/91/60
f 443/68/1 444/69/1 445/70/1
f 445/70/1 446/71/1 443/68/1
f 444/68/1 447/69/1 448/70/1
f 448/70/1 445/71/1 444/68/1
f 447/68/1 449/69/1 450/70/1
f 450/70/1 448/71/1 447/68/1
f 449/68/1 451/69/1 452/70/1
f 452/70/1 450/71/1 449/68/1
f 451/68/1 453/69/1 454/70/1
f 454/70/1 452/71/1 451/68/1
f 453/68/1 455/69/1 456/70/1
f 456/70/1 454/71/1 453/68/1
f 455/68/1 457/69/1 458/70/1
f 458/70/1 456/71/1 455/68/1
f 457/68/1 459/69/1 460/70/1
f 460/70/1 458/71/1 457/68/1
f 459/68/1 461/69/1 462/70/1
f 462/70/1 460/71/1 459/68/1
f 461/68/1 443/69/1 446/70/1
f 446/70/1 462/71/1 461/68/1
f 446/72/51 445/73/51 463/74/51
f 463/74/51 464/75/51 446/72/51
f 445/73/52 448/76/52 465/77/52
f 465/77/52 463/74/52 445/73/52
f 448/76/53 450/78/53 466/79/53
f 466/79/53 465/77/53 448/76/53
f 450/78/54 452/80/54 467/81/54
f 467/81/54 466/79/54 450/78/54
f 452/80/55 454/82/55 468/83/55
f 468/83/55 467/81/55 452/80/55
f 454/82/56 456/84/56 469/85/56
f 469/85/56 468/83/56 454/82/56
f 456/84/57 458/86/57 470/87/57
f 470/87/57 469/85/57 456/84/57
f 458/86/58 460/88/58 471/89/58
f 471/89/58 470/87/58 458/86/58
f 460/90/59 462/91/59 472/92/59
f 472/92/59 471/93/59 460/90/59
f 462/91/60 446/72/60 464/75/60
f 464/75/60 472/92/60 462/91/60
f 473/68/1 474/69/1 475/70/1
f 475/70/1 476/71/1 473/68/1
f 474/68/1 477/69/1 478/70/1
f 478/70/1 475/71/1 474/68/1
f 477/68/1 479/69/1 480/70/1
f 480/70/1 478/71/1 477/68/1
f 479/68/1 481/69/1 482/70/1
f 482/70/1 480/71/1 479/68/1
f 481/68/1 483/69/1 484/70/1
f 484/70/1 482/71/1 481/68/1
f 483/68/1 485/69/1 486/70/1
f 486/70/1 484/71/1 483/68/1
f 485/68/1 487/69/1 488/70/1
f 488/70/1 486/71/1 485/68/1
f 487/68/1 489/69/1 490/70/1
f 490/70/1 488/71/1 487/68/1
f 489/68/1 491/69/1 492/70/1
f 492/70/1 490/71/1 489/68/1
f 491/68/1 473/69/1 476/70/1
f 476/70/1 492/71/1 491/68/1
f 476/72/51 475/73/51 493/74/51
f 493/74/51 494/75/51 476/72/51
f 475/73/61 478/76/62 495/77/52
f 495/77/52 493/74/52 475/73/61
f 478/76/53 480/78/53 496/79/53
f 496/79/53 495/77/53 478/76/53
f 480/78/54 482/80/54 497/81/54
f 497/81/54 496/79/63 480/78/54
f 482/80/64 484/82/64 498/83/55
f 498/83/55 497/81/55 482/80/64
f 484/82/65 486/84/65 499/85/56
f 499/85/56 498/83/56 484/82/65
f 486/84/57 488/86/57 500/87/57
f 500/87/57 499/85/57 486/84/57
f 488/86/58 490/88/58 501/89/58
f 501/89/58 500/87/58 488/86/58
f 490/90/59 492/91/59 502/92/59
f 502/92/59 501/93/59 490/90/59
f 492/91/60 476/72/60 494/75/60
f 494/75/60 502/92/60 492/91/60
f 503/68/1 504/69/1 505/70/1
f 505/70/1 506/71/1 503/68/1
f 504/68/1 507/69/1 508/70/1
f 508/70/1 505/71/1 504/68/1
f 507/68/1 509/69/1 510/70/1
f 510/70/1 508/71/1 507/68/1
f 509/68/1 511/69/1 512/70/1
f 512/70/1 510/71/1 509/68/1
f 511/68/1 513/69/1 514/70/1
f 514/70/1 512/71/1 511/68/1
f 513/68/1 515/69/1 516/70/1
f 516/70/1 514/71/1 513/68/1
f 515/68/1 517/69/1 518/70/1
f 518/70/1 516/71/1 515/68/1
f 517/68/1 519/69/1 520/70/1
f 520/70/1 518/71/1 517/68/1
f 519/68/1 521/69/1 522/70/1
f 522/70/1 520/71/1 519/68/1
f 521/68/1 503/69/1 506/70/1
f 506/70/1 522/71/1 521/68/1
f 506/72/51 505/73/51 523/74/51
f 523/74/51 524/75/51 506/72/51
f 505/73/52 508/76/52 525/77/52
f 525/77/52 523/74/52 505/73/52
f 508/76/53 510/78/53 526/79/53
f 526/79/53 525/77/53 508/76/53
f 510/78/54 512/80/54 527/81/54
f 527/81/54 526/79/54 510/78/54
f 512/80/55 514/82/55 528/83/55
f 528/83/55 527/81/55 512/80/55
f 514/82/56 516/84/56 529/85/56
f 529/85/56 528/83/56 514/82/56
f 516/84/57 518/86/57 530/87/57
f 530/87/57 529/85/57 516/84/57
f 518/86/58 520/88/58 531/89/58
f 531/89/58 530/87/58 518/86/58
f 520/90/59 522/91/59 532/92/59
f 532/92/59 531/93/59 520/90/59
f 522/91/60 506/72/60 524/75/60
f 524/75/60 532/92/60 522/91/60
f 533/68/1 534/69/1 535/70/1
f 535/70/1 536/71/1 533/68/1
f 534/68/1 537/69/1 538/70/1
f 538/70/1 535/71/1 534/68/1
f 537/68/1 539/69/1 540/70/1
f 540/70/1 538/71/1 537/68/1
f 539/68/1 541/69/1 542/70/1
f 542/70/1 540/71/1 539/68/1
f 541/68/1 543/69/1 544/70/1
f 544/70/1 542/71/1 541/68/1
f 543/68/1 545/69/1 546/70/1
f 546/70/1 544/71/1 543/68/1
f 545/68/1 547/69/1 548/70/1
f 548/70/1 546/71/1 545/68/1
f 547/68/1 549/69/1 550/70/1
f 550/70/1 548/71/1 547/68/1
f 549/68/1 551/69/1 552/70/1
f 552/70/1 550/71/1 549/68/1
f 551/68/1 533/69/1 536/70/1
f 536/70/1 552/71/1 551/68/1
f 536/72/51 535/73/51 553/74/51
f 553/74/51 554/75/51 536/72/51
f 535/73/52 538/76/52 555/77/52
f 555/77/52 553/74/52 535/73/52
f 538/76/53 540/78/53 556/79/53
f 556/79/53 555/77/53 538/76/53
f 540/78/54 542/80/54 557/81/54
f 557/81/54 556/79/54 540/78/54
f 542/80/55 544/82/55 558/83/55
f 558/83/55 557/81/55 542/80/55
f 544/82/56 546/84/56 559/85/56
f 559/85/56 558/83/56 544/82/56
f 546/84/57 548/86/57 560/87/57
f 560/87/57 559/85/57 546/84/57
f 548/86/58 550/88/58 561/89/58
f 561/89/58 560/87/58 548/86/58
f 550/90/59 552/91/59 562/92/59
f 562/92/59 561/93/59 550/90/59
f 552/91/60 536/72/60 554/75/60
f 554/75/60 562/92/60 552/91/60
f 563/68/1 564/69/1 565/70/1
f 565/70/1 566/71/1 563/68/1
f 564/68/1 567/69/1 568/70/1
f 568/70/1 565/71/1 564/68/1
f 567/68/1 569/69/1 570/70/1
f 570/70/1 568/71/1 567/68/1
f 569/68/1 571/69/1 572/70/1
f 572/70/1 570/71/1 569/68/1
f 571/68/1 573/69/1 574/70/1
f 574/70/1 572/71/1 571/68/1
f 573/68/1 575/69/1 576/70/1
f 576/70/1 574/71/1 573/68/1
f 575/68/1 577/69/1 578/70/1
f 578/70/1 576/71/1 575/68/1
f 577/68/1 579/69/1 580/70/1
f 580/70/1 578/71/1 577/68/1
f 579/68/1 581/69/1 582/70/1
f 582/70/1 580/71/1 579/68/1
f 581/68/1 563/69/1 566/70/1
f 566/70/1 582/71/1 581/68/1
f 566/72/51 565/73/51 583/74/51
f 583/74/51 584/75/51 566/72/51
f 565/73/52 568/76/52 585/77/52
f 585/77/52 583/74/52 565/73/52
f 568/76/53 570/78/53 586/79/53
f 586/79/53 585/77/53 568/76/53
f 570/78/54 572/80/54 587/81/54
f 587/81/54 586/79/54 570/78/54
f 572/80/55 574/82/55 588/83/55
f 588/83/55 587/81/55 572/80/55
f 574/82/56 576/84/56 589/85/56
f 589/85/56 588/83/56 574/82/56
f 576/84/57 578/86/57 590/87/57
f 590/87/57 589/85/57 576/84/57
f 578/86/58 580/88/58 591/89/58
f 591/89/58 590/87/58 578/86/58
f 580/90/59 582/91/59 592/92/59
f 592/92/59 591/93/59 580/90/59
f 582/91/60 566/72/60 584/75/60
f 584/75/60 592/92/60 582/91/60
f 593/68/1 594/69/1 595/70/1
f 595/70/1 596/71/1 593/68/1
f 594/68/1 597/69/1 598/70/1
f 598/70/1 595/71/1 594/68/1
f 597/68/1 599/69/1 600/70/1
f 600/70/1 598/71/1 597/68/1
f 599/68/1 601/69/1 602/70/1
f 602/70/1 600/71/1 599/68/1
f 601/68/1 603/69/1 604/70/1
f 604/70/1 602/71/1 601/68/1
f 603/68/1 605/69/1 606/70/1
f 606/70/1 604/71/1 603/68/1
f 605/68/1 607/69/1 608/70/1
f 608/70/1 606/71/1 605/68/1
f 607/68/1 609/69/1 610/70/1
f 610/70/1 608/71/1 607/68/1
f 609/68/1 611/69/1 612/70/1
f 612/70/1 610/71/1 609/68/1
f 611/68/1 593/69/1 596/70/1
f 596/70/1 612/71/1 611/68/1
f 596/72/51 595/73/51 613/74/51
f 613/74/51 614/75/51 596/72/51
f 595/73/52 598/76/52 615/77/52
f 615/77/52 613/74/52 595/73/52
f 598/76/53 600/78/53 616/79/53
f 616/79/53 615/77/53 598/76/53
f 600/78/54 602/80/54 617/81/54
f 617/81/54 616/79/54 600/78/54
f 602/80/55 604/82/55 618/83/55
f 618/83/55 617/81/55 602/80/55
f 604/82/56 606/84/56 619/85/56
f 619/85/56 618/83/56 604/82/56
f 606/84/57 608/86/57 620/87/57
f 620/87/57 619/85/57 606/84/57
f 608/86/58 610/88/58 621/89/58
f 621/89/58 620/87/58 608/86/58
f 610/90/59 612/91/59 622/92/59
f 622/92/59 621/93/59 610/90/59
f 612/91/60 596/72/60 614/75/60
f 614/75/60 622/92/60 612/91/60
f 623/68/1 624/69/1 625/70/1
f 625/70/1 626/71/1 623/68/1
f 624/68/1 627/69/1 628/70/1
f 628/70/1 625/71/1 624/68/1
f 627/68/1 629/69/1 630/70/1
f 630/70/1 628/71/1 627/68/1
f 629/68/1 631/69/1 632/70/1
f 632/70/1 630/71/1 629/68/1
f 631/68/1 633/69/1 634/70/1
f 634/70/1 632/71/1 631/68/1
f 633/68/1 635/69/1 636/70/1
f 636/70/1 634/71/1 633/68/1
f 635/68/1 637/69/1 638/70/1
f 638/70/1 636/71/1 635/68/1
f 637/68/1 639/69/1 640/70/1
f 640/70/1 638/71/1 637/68/1
f 639/68/1 641/69/1 642/70/1
f 642/70/1 640/71/1 639/68/1
f 641/68/1 623/69/1 626/70/1
f 626/70/1 642/71/1 641/68/1
f 626/72/66 625/73/66 643/74/51
f 643/74/51 644/75/51 626/72/66
f 625/73/52 628/76/52 645/77/52
f 645/77/52 643/74/52 625/73/52
f 628/76/53 630/78/53 646/79/53
f 646/79/53 645/77/53 628/76/53
f 630/78/54 632/80/54 647/81/54
f 647/81/54 646/79/54 630/78/54
f 632/80/55 634/82/55 648/83/67
f 648/83/67 647/81/67 632/80/55
f 634/82/68 636/84/68 649/85/56
f 649/85/56 648/83/56 634/82/68
f 636/84/57 638/86/57 650/87/57
f 650/87/57 649/85/57 636/84/57
f 638/86/58 640/88/58 651/89/58
f 651/89/58 650/87/58 638/86/58
f 640/90/59 642/91/59 652/92/59
f 652/92/59 651/93/59 640/90/59
f 642/91/60 626/72/60 644/75/69
f 644/75/69 652/92/69 642/91/60
f 653/68/1 654/69/1 655/70/1
f 655/70/1 656/71/1 653/68/1
f 654/68/1 657/69/1 658/70/1
f 658/70/1 655/71/1 654/68/1
f 657/68/1 659/69/1 660/70/1
f 660/70/1 658/71/1 657/68/1
f 659/68/1 661/69/1 662/70/1
f 662/70/1 660/71/1 659/68/1
f 661/68/1 663/69/1 664/70/1
f 664/70/1 662/71/1 661/68/1
f 663/68/1 665/69/1 666/70/1
f 666/70/1 664/71/1 663/68/1
f 665/68/1 667/69/1 668/70/1
f 668/70/1 666/71/1 665/68/1
f 667/68/1 669/69/1 670/70/1
f 670/70/1 668/71/1 667/68/1
f 669/68/1 671/69/1 672/70/1
f 672/70/1 670/71/1 669/68/1
f 671/68/1 653/69/1 656/70/1
f 656/70/1 672/71/1 671/68/1
f 656/72/51 655/73/51 673/74/70
f 673/74/70 674/75/66 656/72/51
f 655/73/52 658/76/52 675/77/52
f 675/77/52 673/74/52 655/73/52
f 658/76/53 660/78/53 676/79/53
f 676/79/53 675/77/53 658/76/53
f 660/78/54 662/80/54 677/81/54
f 677/81/54 676/79/54 660/78/54
f 662/80/64 664/82/67 678/83/55
f 678/83/55 677/81/55 662/80/64
f 664/82/56 666/84/56 679/85/56
f 679/85/56 678/83/56 664/82/56
f 666/84/57 668/86/57 680/87/57
f 680/87/57 679/85/57 666/84/57
f 668/86/58 670/88/58 681/89/58
f 681/89/58 680/87/58 668/86/58
f 670/90/59 672/91/59 682/92/59
f 682/92/59 681/93/59 670/90/59
f 672/91/60 656/72/60 674/75/60
f 674/75/60 682/92/60 672/91/60
f 683/68/1 684/69/1 685/70/1
f 685/70/1 686/71/1 683/68/1
f 684/68/1 687/69/1 688/70/1
f 688/70/1 685/71/1 684/68/1
f 687/68/1 689/69/1 690/70/1
f 690/70/1 688/71/1 687/68/1
f 689/68/1 691/69/1 692/70/1
f 692/70/1 690/71/1 689/68/1
f 691/68/1 693/69/1 694/70/1
f 694/70/1 692/71/1 691/68/1
f 693/68/1 695/69/1 696/70/1
f 696/70/1 694/71/1 693/68/1
f 695/68/1 697/69/1 698/70/1
f 698/70/1 696/71/1 695/68/1
f 697/68/1 699/69/1 700/70/1
f 700/70/1 698/71/1 697/68/1
f 699/68/1 701/69/1 702/70/1
f 702/70/1 700/71/1 699/68/1
f 701/68/1 683/69/1 686/70/1
f 686/70/1 702/71/1 701/68/1
f 686/72/66 685/73/51 703/74/66
f 703/74/66 704/75/66 686/72/66
f 685/73/52 688/76/52 705/77/52
f 705/77/52 703/74/52 685/73/52
f 688/76/53 690/78/53 706/79/53
f 706/79/53 705/77/53 688/76/53
f 690/78/54 692/80/54 707/81/54
f 707/81/54 706/79/54 690/78/54
f 692/80/67 694/82/67 708/83/64
f 708/83/64 707/81/55 692/80/67
f 694/82/56 696/84/56 709/85/56
f 709/85/56 708/83/56 694/82/56
f 696/84/57 698/86/57 710/87/57
f 710/87/57 709/85/57 696/84/57
f 698/86/58 700/88/58 711/89/58
f 711/89/58 710/87/58 698/86/58
f 700/90/59 702/91/59 712/92/59
f 712/92/59 711/93/59 700/90/59
f 702/91/60 686/72/60 704/75/60
f 704/75/60 712/92/60 702/91/60
f 713/68/1 714/69/1 715/70/1
f 715/70/1 716/71/1 713/68/1
f 714/68/1 717/69/1 718/70/1
f 718/70/1 715/71/1 714/68/1
f 717/68/1 719/69/1 720/70/1
f 720/70/1 718/71/1 717/68/1
f 719/68/1 721/69/1 722/70/1
f 722/70/1 720/71/1 719/68/1
f 721/68/1 723/69/1 724/70/1
f 724/70/1 722/71/1 721/68/1
f 723/68/1 725/69/1 726/70/1
f 726/70/1 724/71/1 723/68/1
f 725/68/1 727/69/1 728/70/1
f 728/70/1 726/71/1 725/68/1
f 727/68/1 729/69/1 730/70/1
f 730/70/1 728/71/1 727/68/1
f 729/68/1 731/69/1 732/70/1
f 732/70/1 730/71/1 729/68/1
f 731/68/1 713/69/1 716/70/1
f 716/70/1 732/71/1 731/68/1
f 716/72/71 715/73/71 733/74/71
f 733/74/71 734/75/71 716/72/71
f 715/73/72 718/76/72 735/77/72
f 735/77/72 733/74/72 715/73/72
f 718/76/73 720/78/73 736/79/73
f 736/79/73 735/77/73 718/76/73
f 720/78/74 722/80/74 737/81/74
f 737/81/74 736/79/74 720/78/74
f 722/80/75 724/82/75 738/83/75
f 738/83/75 737/81/75 722/80/75
f 724/82/76 726/84/76 739/85/76
f 739/85/76 738/83/76 724/82/76
f 726/84/77 728/86/77 740/87/77
f 740/87/77 739/85/77 726/84/77
f 728/86/78 730/88/78 741/89/78
f 741/89/78 740/87/78 728/86/78
f 730/90/79 732/91/79 742/92/79
f 742/92/79 741/93/79 730/90/79
f 732/91/80 716/72/80 734/75/80
f 734/75/80 742/92/80 732/91/80
f 743/94/1 744/95/1 745/96/1
f 745/96/1 746/97/1 743/94/1
f 746/97/1 745/96/1 747/98/1
f 747/98/1 748/99/1 746/97/1
f 748/99/1 747/98/1 749/100/1
f 749/100/1 750/101/1 748/99/1
f 750/101/1 749/100/1 751/102/1
f 751/102/1 752/103/1 750/101/1
f 752/103/1 751/102/1 753/104/1
f 753/104/1 754/105/1 752/103/1
f 744/95/1 755/106/1 756/107/1
f 756/107/1 745/96/1 744/95/1
f 751/102/1 757/108/1 758/109/1
f 758/109/1 753/104/1 751/102/1
f 759/96/1 760/98/1 761/110/1
f 761/110/1 762/111/1 759/96/1
f 763/107/1 759/96/1 762/111/1
f 762/111/1 764/112/1 763/107/1
f 765/100/1 766/102/1 767/113/1
f 767/113/1 768/114/1 765/100/1
f 766/102/1 769/115/1 770/116/1
f 770/116/1 767/113/1 766/102/1
f 771/94/1 772/95/1 773/96/1
f 773/96/1 774/97/1 771/94/1
f 774/97/1 773/96/1 775/98/1
f 775/98/1 776/99/1 774/97/1
f 776/99/1 775/98/1 777/100/1
f 777/100/1 778/101/1 776/99/1
f 778/101/1 777/100/1 779/102/1
f 779/102/1 780/103/1 778/101/1
f 780/103/1 779/102/1 781/104/1
f 781/104/1 782/105/1 780/103/1
f 772/95/1 783/106/1 784/107/1
f 784/107/1 773/96/1 772/95/1
f 779/102/1 785/108/1 786/109/1
f 786/109/1 781/104/1 779/102/1
f 787/96/1 788/98/1 789/110/1
f 789/110/1 790/111/1 787/96/1
f 791/107/1 787/96/1 790/111/1
f 790/111/1 792/112/1 791/107/1
f 793/100/1 794/102/1 795/113/1
f 795/113/1 796/114/1 793/100/1
f 794/102/1 797/115/1 798/116/1
f 798/116/1 795/113/1 794/102/1
f 799/94/1 800/95/1 801/96/1
f 801/96/1 802/97/1 799/94/1
f 802/97/1 801/96/1 803/98/1
f 803/98/1 804/99/1 802/97/1
f 804/99/1 803/98/1 805/100/1
f 805/100/1 806/101/1 804/99/1
f 806/101/1 805/100/1 807/102/1
f 807/102/1 808/103/1 806/101/1
f 808/103/1 807/102/1 809/104/1
f 809/104/1 810/105/1 808/103/1
f 800/95/1 811/106/1 812/107/1
f 812/107/1 801/96/1 800/95/1
f 807/102/1 813/108/1 814/109/1
f 814/109/1 809/104/1 807/102/1
f 815/96/1 816/98/1 817/110/1
f 817/110/1 818/111/1 815/96/1
f 819/107/1 815/96/1 818/111/1
f 818/111/1 820/112/1 819/107/1
f 821/100/1 822/102/1 823/113/1
f 823/113/1 824/114/1 821/100/1
f 822/102/1 825/115/1 826/116/1
f 826/116/1 823/113/1 822/102/1
f 827/9/1 828/13/1 829/15/1
f 830/19/1 829/15/1 828/13/1
f 831/9/1 832/13/1 833/15/1
f 834/19/1 833/15/1 832/13/1
f 835/9/1 836/13/1 837/15/1
f 838/19/1 837/15/1 836/13/1
f 839/9/1 840/13/1 841/15/1
f 842/19/1 841/15/1 840/13/1
f 843/13/1 844/9/1 845/15/1
f 845/15/1 846/19/1 843/13/1
f 847/13/1 848/9/1 849/15/1
f 849/15/1 850/19/1 847/13/1
f 851/13/1 852/9/1 853/15/1
f 853/15/1 854/19/1 851/13/1
f 855/13/1 856/9/1 857/15/1
f 857/15/1 858/19/1 855/13/1
f 859/117/81 860/118/82 861/119/83
f 861/119/83 862/120/84 859/117/81
f 863/121/85 864/122/86 860/118/82
f 860/118/82 859/117/81 863/121/85
f 865/123/1 866/123/1 867/124/87
f 867/124/87 868/124/87 865/123/1
f 869/125/88 870/125/89 866/123/1
f 866/123/1 865/123/1 869/125/88
f 871/118/90 872/117/91 873/120/92
f 873/120/92 874/119/93 871/118/90
f 875/122/94 876/121/95 872/117/91
f 872/117/91 871/118/90 875/122/94
f 863/121/85 859/117/81 866/123/96
f 866/123/96 870/125/97 863/121/85
f 859/117/81 862/120/84 867/124/98
f 867/124/99 866/123/96 859/117/81
f 873/120/92 872/117/91 865/123/100
f 865/123/100 868/124/101 873/120/92
f 872/117/91 876/121/95 869/125/102
f 869/125/102 865/123/100 872/117/91
f 877/117/103 878/118/104 879/119/105
f 879/119/105 880/120/106 877/117/103
f 881/121/107 882/122/108 878/118/104
f 878/118/104 877/117/103 881/121/107
f 883/123/1 884/123/1 885/124/109
f 885/124/109 886/124/109 883/123/1
f 887/125/89 888/125/89 884/123/1
f 884/123/1 883/123/1 887/125/89
f 889/118/110 890/117/111 891/120/112
f 891/120/112 892/119/113 889/118/110
f 893/122/114 894/121/115 890/117/111
f 890/117/111 889/118/110 893/122/114
f 881/121/107 877/117/103 884/123/116
f 884/123/116 888/125/117 881/121/107
f 877/117/103 880/120/106 885/124/118
f 885/124/119 884/123/116 877/117/103
f 891/120/112 890/117/111 883/123/120
f 883/123/120 886/124/121 891/120/112
f 890/117/111 894/121/115 887/125/122
f 887/125/122 883/123/120 890/117/111
f 895/117/103 896/118/123 897/119/124
f 897/119/124 898/120/125 895/117/103
f 899/121/126 900/122/127 896/118/123
f 896/118/123 895/117/103 899/121/126
f 901/123/1 902/123/1 903/124/87
f 903/124/87 904/124/109 901/123/1
f 905/125/88 906/125/88 902/123/1
f 902/123/1 901/123/1 905/125/88
f 907/118/110 908/117/128 909/120/129
f 909/120/129 910/119/130 907/118/110
f 911/122/114 912/121/115 908/117/128
f 908/117/128 907/118/110 911/122/114
f 899/121/126 895/117/103 902/123/131
f 902/123/131 906/125/132 899/121/126
f 895/117/103 898/120/125 903/124/133
f 903/124/134 902/123/131 895/117/103
f 909/120/129 908/117/128 901/123/135
f 901/123/135 904/124/136 909/120/129
f 908/117/128 912/121/115 905/125/137
f 905/125/137 901/123/135 908/117/128
f 913/117/138 914/118/139 915/119/140
f 915/119/140 916/120/141 913/117/138
f 917/121/142 918/122/143 914/118/139
f 914/118/139 913/117/138 917/121/142
f 919/123/144 920/123/144 921/124/145
f 921/124/145 922/124/145 919/123/144
f 923/125/146 924/125/146 920/123/144
f 920/123/144 919/123/144 923/125/146
f 925/118/147 926/117/148 927/120/149
f 927/120/149 928/119/150 925/118/147
f 929/122/151 930/121/152 926/117/148
f 926/117/148 925/118/147 929/122/151
f 917/121/142 913/117/138 920/123/153
f 920/123/153 924/125/154 917/121/142
f 913/117/138 916/120/141 921/124/155
f 921/124/156 920/123/153 913/117/138
f 927/120/149 926/117/148 919/123/157
f 919/123/157 922/124/158 927/120/149
f 926/117/148 930/121/152 923/125/159
f 923/125/160 919/123/157 926/117/148
f 931/117/161 932/118/162 933/119/163
f 933/119/163 934/120/164 931/117/161
f 935/121/165 936/122/166 932/118/162
f 932/118/162 931/117/161 935/121/165
f 937/123/1 938/123/1 939/124/167
f 939/124/167 940/124/167 937/123/1
f 941/125/168 942/125/168 938/123/1
f 938/123/1 937/123/1 941/125/168
f 943/118/169 944/117/170 945/120/171
f 945/120/171 946/119/172 943/118/169
f 947/122/173 948/121/174 944/117/170
f 944/117/170 943/118/169 947/122/173
f 935/121/165 931/117/161 938/123/175
f 938/123/175 942/125/176 935/121/165
f 931/117/161 934/120/164 939/124/177
f 939/124/178 938/123/175 931/117/161
f 945/120/171 944/117/170 937/123/179
f 937/123/179 940/124/180 945/120/171
f 944/117/170 948/121/174 941/125/181
f 941/125/182 937/123/179 944/117/170
f 949/117/183 950/118/184 951/119/185
f 951/119/185 952/120/186 949/117/183
f 953/121/187 954/122/188 950/118/184
f 950/118/184 949/117/183 953/121/187
f 955/123/1 956/123/1 957/124/189
f 957/124/189 958/124/189 955/123/1
f 959/125/190 960/125/190 956/123/1
f 956/123/1 955/123/1 959/125/190
f 961/118/191 962/117/192 963/120/193
f 963/120/193 964/119/194 961/118/191
f 965/122/195 966/121/196 962/117/192
f 962/117/192 961/118/191 965/122/195
f 953/121/187 949/117/183 956/123/197
f 956/123/197 960/125/198 953/121/187
f 949/117/183 952/120/186 957/124/199
f 957/124/200 956/123/197 949/117/183
f 963/120/193 962/117/192 955/123/201
f 955/123/201 958/124/202 963/120/193
f 962/117/192 966/121/196 959/125/203
f 959/125/204 955/123/201 962/117/192
f 967/117/205 968/118/206 969/119/207
f 969/119/207 970/120/208 967/117/205
f 971/121/209 972/122/210 968/118/206
f 968/118/206 967/117/205 971/121/209
f 973/123/211 974/123/144 975/124/212
f 975/124/212 976/124/213 973/123/211
f 977/125/214 978/125/215 974/123/144
f 974/123/144 973/123/211 977/125/214
f 979/118/216 980/117/217 981/120/218
f 981/120/218 982/119/219 979/118/216
f 983/122/220 984/121/221 980/117/217
f 980/117/217 979/118/216 983/122/220
f 971/121/209 967/117/205 974/123/222
f 974/123/222 978/125/223 971/121/209
f 967/117/205 970/120/208 975/124/224
f 975/124/225 974/123/222 967/117/205
f 981/120/218 980/117/217 973/123/226
f 973/123/226 976/124/227 981/120/218
f 980/117/217 984/121/221 977/125/228
f 977/125/229 973/123/226 980/117/217
f 985/117/230 986/118/231 987/119/232
f 987/119/232 988/120/233 985/117/230
f 989/121/234 990/122/235 986/118/231
f 986/118/231 985/117/230 989/121/234
f 991/123/1 992/123/236 993/124/237
f 993/124/237 994/124/238 991/123/1
f 995/125/239 996/125/239 992/123/236
f 992/123/236 991/123/1 995/125/239
f 997/118/240 998/117/241 999/120/242
f 999/120/242 1000/119/243 997/118/240
f 1001/122/244 1002/121/245 998/117/241
f 998/117/241 997/118/240 1001/122/244
f 989/121/234 985/117/230 992/123/246
f 992/123/246 996/125/247 989/121/234
f 985/117/230 988/120/233 993/124/248
f 993/124/249 992/123/246 985/117/230
f 999/120/242 998/117/241 991/123/250
f 991/123/250 994/124/251 999/120/242
f 998/117/241 1002/121/245 995/125/252
f 995/125/253 991/123/250 998/117/241
f 1003/117/81 1004/118/82 1005/119/83
f 1005/119/83 1006/120/84 1003/117/81
f 1007/121/85 1008/122/254 1004/118/82
f 1004/118/82 1003/117/81 1007/121/85
f 1009/123/1 1010/123/1 1011/124/87
f 1011/124/87 1012/124/87 1009/123/1
f 1013/125/88 1014/125/88 1010/123/1
f 1010/123/1 1009/123/1 1013/125/88
f 1015/118/90 1016/117/255 1017/120/92
f 1017/120/92 1018/119/256 1015/118/90
f 1019/122/94 1020/121/95 1016/117/255
f 1016/117/255 1015/118/90 1019/122/94
f 1007/121/85 1003/117/81 1010/123/96
f 1010/123/96 1014/125/257 1007/121/85
f 1003/117/81 1006/120/84 1011/124/98
f 1011/124/98 1010/123/96 1003/117/81
f 1017/120/92 1016/117/255 1009/123/100
f 1009/123/100 1012/124/101 1017/120/92
f 1016/117/255 1020/121/95 1013/125/258
f 1013/125/102 1009/123/100 1016/117/255
f 1021/117/259 1022/118/260 1023/119/261
f 1023/119/261 1024/120/262 1021/117/259
f 1025/121/263 1026/122/264 1022/118/260
f 1022/118/260 1021/117/259 1025/121/263
f 1027/123/1 1028/123/265 1029/124/266
f 1029/124/266 1030/124/267 1027/123/1
f 1031/125/268 1032/125/268 1028/123/265
f 1028/123/265 1027/123/1 1031/125/268
f 1033/118/269 1034/117/270 1035/120/271
f 1035/120/271 1036/119/272 1033/118/269
f 1037/122/273 1038/121/274 1034/117/270
f 1034/117/270 1033/118/269 1037/122/273
f 1025/121/263 1021/117/259 1028/123/275
f 1028/123/275 1032/125/276 1025/121/263
f 1021/117/259 1024/120/262 1029/124/277
f 1029/124/278 1028/123/275 1021/117/259
f 1035/120/271 1034/117/270 1027/123/279
f 1027/123/279 1030/124/280 1035/120/271
f 1034/117/270 1038/121/274 1031/125/281
f 1031/125/282 1027/123/279 1034/117/270
f 1039/117/283 1040/118/284 1041/119/285
f 1041/119/285 1042/120/286 1039/117/283
f 1043/121/287 1044/122/288 1040/118/284
f 1040/118/284 1039/117/283 1043/121/287
f 1045/123/289 1046/123/236 1047/124/290
f 1047/124/290 1048/124/290 1045/123/289
f 1049/125/291 1050/125/291 1046/123/236
f 1046/123/236 1045/123/289 1049/125/291
f 1051/118/292 1052/117/293 1053/120/294
f 1053/120/294 1054/119/295 1051/118/292
f 1055/122/296 1056/121/297 1052/117/293
f 1052/117/293 1051/118/292 1055/122/296
f 1043/121/287 1039/117/283 1046/123/298
f 1046/123/298 1050/125/299 1043/121/287
f 1039/117/283 1042/120/286 1047/124/300
f 1047/124/301 1046/123/298 1039/117/283
f 1053/120/294 1052/117/293 1045/123/302
f 1045/123/302 1048/124/303 1053/120/294
f 1052/117/293 1056/121/297 1049/125/304
f 1049/125/305 1045/123/302 1052/117/293
f 1057/117/306 1058/118/307 1059/119/308
f 1059/119/308 1060/120/309 1057/117/306
f 1061/121/310 1062/122/311 1058/118/307
f 1058/118/307 1057/117/306 1061/121/310
f 1063/123/1 1064/123/1 1065/124/312
f 1065/124/312 1066/124/312 1063/123/1
f 1067/125/313 1068/125/314 1064/123/1
f 1064/123/1 1063/123/1 1067/125/313
f 1069/118/269 1070/117/315 1071/120/316
f 1071/120/316 1072/119/317 1069/118/269
f 1073/122/318 1074/121/319 1070/117/315
f 1070/117/315 1069/118/269 1073/122/318
f 1061/121/310 1057/117/306 1064/123/320
f 1064/123/320 1068/125/321 1061/121/310
f 1057/117/306 1060/120/309 1065/124/322
f 1065/124/323 1064/123/320 1057/117/306
f 1071/120/316 1070/117/315 1063/123/324
f 1063/123/324 1066/124/325 1071/120/316
f 1070/117/315 1074/121/319 1067/125/326
f 1067/125/326 1063/123/324 1070/117/315
f 1075/68/1 1076/69/1 1077/70/1
f 1077/70/1 1078/71/1 1075/68/1
f 1076/68/1 1079/69/1 1080/70/1
f 1080/70/1 1077/71/1 1076/68/1
f 1079/68/1 1081/69/1 1082/70/1
f 1082/70/1 1080/71/1 1079/68/1
f 1081/68/1 1083/69/1 1084/70/1
f 1084/70/1 1082/71/1 1081/68/1
f 1083/68/1 1085/69/1 1086/70/1
f 1086/70/1 1084/71/1 1083/68/1
f 1085/68/1 1087/69/1 1088/70/1
f 1088/70/1 1086/71/1 1085/68/1
f 1087/68/1 1089/69/1 1090/70/1
f 1090/70/1 1088/71/1 1087/68/1
f 1089/68/1 1091/69/1 1092/70/1
f 1092/70/1 1090/71/1 1089/68/1
f 1091/68/1 1093/69/1 1094/70/1
f 1094/70/1 1092/71/1 1091/68/1
f 1093/68/1 1095/69/1 1096/70/1
f 1096/70/1 1094/71/1 1093/68/1
f 1095/68/1 1097/69/1 1098/70/1
f 1098/70/1 1096/71/1 1095/68/1
f 1097/68/1 1075/69/1 1078/70/1
f 1078/70/1 1098/71/1 1097/68/1
f 1099/68/1 1100/69/1 1101/70/1
f 1101/70/1 1102/71/1 1099/68/1
f 1100/68/1 1103/69/1 1104/70/1
f 1104/70/1 1101/71/1 1100/68/1
f 1103/68/1 1105/69/1 1106/70/1
f 1106/70/1 1104/71/1 1103/68/1
f 1105/68/1 1107/69/1 1108/70/1
f 1108/70/1 1106/71/1 1105/68/1
f 1107/68/1 1109/69/1 1110/70/1
f 1110/70/1 1108/71/1 1107/68/1
f 1109/68/1 1111/69/1 1112/70/1
f 1112/70/1 1110/71/1 1109/68/1
f 1111/68/1 1113/69/1 1114/70/1
f 1114/70/1 1112/71/1 1111/68/1
f 1113/68/1 1115/69/1 1116/70/1
f 1116/70/1 1114/71/1 1113/68/1
f 1115/68/1 1117/69/1 1118/70/1
f 1118/70/1 1116/71/1 1115/68/1
f 1117/68/1 1119/69/1 1120/70/1
f 1120/70/1 1118/71/1 1117/68/1
f 1119/68/1 1121/69/1 1122/70/1
f 1122/70/1 1120/71/1 1119/68/1
f 1121/68/1 1099/69/1 1102/70/1
f 1102/70/1 1122/71/1 1121/68/1
f 1100/126/327 1099/127/328 1123/128/328
f 1123/128/328 1124/129/327 1100/126/327
f 1099/127/328 1121/130/329 1125/131/329
f 1125/131/329 1123/128/328 1099/127/328
f 1121/130/330 1119/132/53 1126/133/53
f 1126/133/53 1125/131/330 1121/130/330
f 1119/132/53 1117/134/331 1127/135/331
f 1127/135/331 1126/133/53 1119/132/53
f 1117/134/332 1115/136/333 1128/137/333
f 1128/137/333 1127/135/332 1117/134/332
f 1115/136/333 1113/138/334 1129/139/334
f 1129/139/334 1128/137/333 1115/136/333
f 1113/138/335 1111/140/336 1130/141/336
f 1130/141/336 1129/139/335 1113/138/335
f 1111/140/336 1109/142/337 1131/143/338
f 1131/143/338 1130/141/336 1111/140/336
f 1109/142/339 1107/144/58 1132/145/58
f 1132/145/58 1131/143/340 1109/142/339
f 1107/146/58 1105/147/341 1133/148/341
f 1133/148/341 1132/149/58 1107/146/58
f 1105/147/342 1103/150/342 1134/151/342
f 1134/151/342 1133/148/342 1105/147/342
f 1103/150/343 1100/126/343 1124/129/343
f 1124/129/343 1134/151/343 1103/150/343
f 1135/1/1 1136/2/1 1137/3/1
f 1137/3/1 1138/4/1 1135/1/1
f 1139/5/1 1140/6/1 1141/7/1
f 1141/7/1 1142/8/1 1139/5/1
f 1143/9/2 1144/10/2 1145/11/2
f 1145/11/2 1146/12/2 1143/9/2
f 1144/152/344 1147/153/345 1148/154/346
f 1148/154/346 1145/155/344 1144/152/344
f 1147/156/1 1149/157/1 1150/158/1
f 1150/158/1 1148/159/1 1147/156/1
f 1151/160/347 1152/157/347 1153/161/347
f 1153/161/347 1154/162/347 1151/160/347
f 1155/9/2 1156/163/2 1157/164/2
f 1157/164/2 1158/165/2 1155/9/2
f 1156/166/348 1159/18/349 1160/167/349
f 1160/167/349 1157/168/348 1156/166/348
f 1159/169/1 1161/157/1 1162/170/1
f 1162/170/1 1160/171/1 1159/169/1
f 1163/16/350 1164/172/351 1165/173/352
f 1165/173/352 1166/174/350 1163/16/350
f 1152/157/2 1143/9/2 1146/12/2
f 1146/12/2 1153/14/2 1152/157/2
f 1149/157/1 1151/175/1 1154/176/1
f 1154/176/1 1150/158/1 1149/157/1
f 1164/177/2 1155/9/2 1158/165/2
f 1158/165/2 1165/178/2 1164/177/2
f 1161/157/1 1163/179/1 1166/180/1
f 1166/180/1 1162/170/1 1161/157/1
f 1167/181/353 1168/182/354 1169/183/354
f 1169/183/354 1170/184/353 1167/181/353
f 1171/185/355 1172/186/355 1173/187/355
f 1173/187/355 1174/188/355 1171/185/355
f 1168/189/2 1171/190/2 1174/191/2
f 1174/191/2 1169/192/2 1168/189/2
f 1175/9/1 1176/13/1 1177/15/1
f 1178/19/1 1177/15/1 1176/13/1
f 1179/9/1 1180/13/1 1181/15/1
f 1182/19/1 1181/15/1 1180/13/1
f 1183/13/1 1184/9/1 1185/15/1
f 1185/15/1 1186/19/1 1183/13/1
f 1187/13/1 1188/9/1 1189/15/1
f 1189/15/1 1190/19/1 1187/13/1
