# Blender 4.4.3
# www.blender.org
mtllib WALGGG.mtl
o WALGGG
v 388.510223 19.232279 -428.248688
v 396.111359 19.232281 -433.711029
v 388.510223 17.641838 -428.248688
v 396.111389 17.641840 -433.711029
v 380.156067 19.232277 -422.245209
v 387.603638 19.232279 -427.597198
v 387.603638 17.641838 -427.597198
v 380.156067 17.641836 -422.245209
v 438.243622 18.136911 -463.582245
v 445.844757 18.136911 -469.044586
v 438.243622 16.546471 -463.582245
v 445.844788 16.546471 -469.044586
v 429.889465 18.136909 -457.578766
v 437.337036 18.136911 -462.930756
v 437.337036 16.546471 -462.930756
v 429.889465 16.546469 -457.578766
v 544.782410 3.023421 -288.466125
v 542.125732 3.023422 -297.441437
v 544.782410 1.432980 -288.466125
v 542.125732 1.432982 -297.441437
v 547.702332 3.023420 -278.601624
v 545.099304 3.023421 -287.395630
v 545.099304 1.432980 -287.395630
v 547.702332 1.432980 -278.601624
v 551.852295 2.983926 -263.448730
v 549.195618 2.983927 -272.424042
v 551.852295 1.393486 -263.448730
v 549.195618 1.393486 -272.424042
v 554.772217 2.983925 -253.584229
v 552.169189 2.983926 -262.378235
v 552.169189 1.393486 -262.378235
v 554.772217 1.393485 -253.584229
v 564.174683 2.983930 -208.243591
v 561.518005 2.983932 -217.218933
v 564.174683 1.393490 -208.243591
v 561.518005 1.393491 -217.218933
v 567.094604 2.983929 -198.379105
v 564.491577 2.983930 -207.173096
v 564.491577 1.393490 -207.173096
v 567.094604 1.393489 -198.379105
v -290.079102 26.339762 -286.289520
v -290.091217 26.339764 -276.929260
v -290.079102 24.749321 -286.289520
v -290.091217 24.749323 -276.929230
v -290.065796 26.339758 -296.577057
v -290.077667 26.339762 -287.405914
v -290.077667 24.749321 -287.405914
v -290.065796 24.749317 -296.577057
v -290.523895 26.339760 -312.245636
v -290.536011 26.339762 -302.885376
v -290.523895 24.749319 -312.245636
v -290.536011 24.749321 -302.885345
v -290.510590 26.339756 -322.533173
v -290.522461 26.339760 -313.362030
v -290.522461 24.749319 -313.362030
v -290.510590 24.749315 -322.533173
v -290.332794 26.339754 -368.711334
v -290.344910 26.339758 -359.351074
v -290.332794 24.749313 -368.711334
v -290.344910 24.749317 -359.351044
v -290.319489 26.339752 -378.998871
v -290.331360 26.339754 -369.827728
v -290.331360 24.749313 -369.827728
v -290.319489 24.749311 -378.998871
v 387.850220 2.983948 32.477268
v 397.210510 2.983949 32.489372
v 387.850220 1.393507 32.477264
v 397.210510 1.393510 32.489372
v 377.562683 2.983946 32.463955
v 386.733826 2.983948 32.475822
v 386.733826 1.393507 32.475822
v 377.562683 1.393507 32.463955
v 361.892395 2.983948 32.802616
v 371.252686 2.983949 32.814720
v 361.892395 1.393507 32.802612
v 371.252686 1.393510 32.814720
v 351.604858 2.983946 32.789303
v 360.776001 2.983948 32.801170
v 360.776001 1.393507 32.801170
v 351.604858 1.393507 32.789303
v 305.442566 2.983948 29.215927
v 314.802856 2.983949 29.228031
v 305.442566 1.393507 29.215925
v 314.802856 1.393509 29.228031
v 295.155029 2.983946 29.202614
v 304.326172 2.983948 29.214483
v 304.326172 1.393507 29.214479
v 295.155029 1.393506 29.202614
v -166.841324 5.426296 32.636238
v -157.481064 5.426299 32.648342
v -166.841324 3.835856 32.636234
v -157.481064 3.835858 32.648342
v -177.128876 5.426295 32.622925
v -167.957733 5.426296 32.634792
v -167.957733 3.835856 32.634789
v -177.128876 3.835855 32.622925
v -110.391495 4.656568 29.360157
v -101.031235 4.656569 29.372261
v -110.391495 3.066126 29.360155
v -101.031235 3.066128 29.372261
v -120.679047 4.656565 29.346844
v -111.507904 4.656568 29.358713
v -111.507904 3.066126 29.358709
v -120.679047 3.066125 29.346844
v -84.433670 4.656568 29.034807
v -75.073410 4.656569 29.046911
v -84.433670 3.066126 29.034805
v -75.073410 3.066128 29.046911
v -94.721222 4.656565 29.021494
v -85.550079 4.656568 29.033363
v -85.550079 3.066126 29.033360
v -94.721222 3.066125 29.021494
v -333.946930 26.464687 -519.220215
v -333.837006 26.464691 -509.860626
v -333.946930 24.874247 -519.220215
v -333.837006 24.874250 -509.860626
v -334.067719 26.464685 -529.507080
v -333.960022 26.464687 -520.336548
v -333.960022 24.874247 -520.336548
v -334.067719 24.874245 -529.507080
v -333.946930 26.464685 -544.434570
v -333.837006 26.464689 -535.074951
v -333.946930 24.874245 -544.434570
v -333.837006 24.874249 -535.074951
v -334.067719 26.464684 -554.721436
v -333.960022 26.464685 -545.550903
v -333.960022 24.874245 -545.550903
v -334.067719 24.874245 -554.721436
v -333.946930 26.464684 -569.119934
v -333.837006 26.464687 -559.760315
v -333.946930 24.874243 -569.119934
v -333.837006 24.874247 -559.760315
v -334.067719 26.464682 -579.406799
v -333.960022 26.464684 -570.236267
v -333.960022 24.874243 -570.236267
v -334.067719 24.874243 -579.406799
v 365.527893 35.775028 -752.525635
v 357.050232 35.775028 -748.557739
v 365.527893 34.184589 -752.525635
v 357.050232 34.184589 -748.557739
v 374.845367 35.775028 -756.886597
v 366.539001 35.775028 -752.998901
v 366.539032 34.184589 -752.998901
v 374.845367 34.184586 -756.886597
v 343.048859 35.343914 -742.324585
v 334.571198 35.343918 -738.356689
v 343.048859 33.753475 -742.324585
v 334.571198 33.753475 -738.356689
v 352.366333 35.343914 -746.685608
v 344.059998 35.343914 -742.797852
v 344.059998 33.753475 -742.797852
v 352.366333 33.753471 -746.685608
v 320.088135 34.712570 -731.904907
v 311.610474 34.712574 -727.937012
v 320.088135 33.122131 -731.904907
v 311.610474 33.122131 -727.937012
v 329.405609 34.712566 -736.265930
v 321.099274 34.712570 -732.378174
v 321.099274 33.122131 -732.378174
v 329.405609 33.122124 -736.265930
v 408.845856 18.685459 -442.483734
v 416.446991 18.685461 -447.946075
v 408.845856 17.095018 -442.483734
v 416.447021 17.095020 -447.946075
v 400.491699 18.685459 -436.480255
v 407.939270 18.685461 -441.832245
v 407.939270 17.095020 -441.832245
v 400.491699 17.095018 -436.480255
vn -0.5836 -0.0000 -0.8121
vn -0.9589 -0.0000 0.2838
vn 1.0000 -0.0000 0.0013
vn 0.0013 -0.0000 -1.0000
vn 0.9999 -0.0000 -0.0117
vn 0.4239 -0.0000 0.9057
vt 2.094296 1.000501
vt 3.998002 1.000501
vt 2.094297 1.999499
vt 3.998002 1.999498
vt 0.001998 1.000502
vt 1.867241 1.000501
vt 1.867241 1.999499
vt 0.001998 1.999499
s 1
usemtl WALGGG.018
f 1/1/1 2/2/1 3/3/1
f 4/4/1 3/3/1 2/2/1
f 5/5/1 6/6/1 7/7/1
f 7/7/1 8/8/1 5/5/1
f 9/1/1 10/2/1 11/3/1
f 12/4/1 11/3/1 10/2/1
f 13/5/1 14/6/1 15/7/1
f 15/7/1 16/8/1 13/5/1
f 17/1/2 18/2/2 19/3/2
f 20/4/2 19/3/2 18/2/2
f 21/5/2 22/6/2 23/7/2
f 23/7/2 24/8/2 21/5/2
f 25/1/2 26/2/2 27/3/2
f 28/4/2 27/3/2 26/2/2
f 29/5/2 30/6/2 31/7/2
f 31/7/2 32/8/2 29/5/2
f 33/1/2 34/2/2 35/3/2
f 36/4/2 35/3/2 34/2/2
f 37/5/2 38/6/2 39/7/2
f 39/7/2 40/8/2 37/5/2
f 41/1/3 42/2/3 43/3/3
f 44/4/3 43/3/3 42/2/3
f 45/5/3 46/6/3 47/7/3
f 47/7/3 48/8/3 45/5/3
f 49/1/3 50/2/3 51/3/3
f 52/4/3 51/3/3 50/2/3
f 53/5/3 54/6/3 55/7/3
f 55/7/3 56/8/3 53/5/3
f 57/1/3 58/2/3 59/3/3
f 60/4/3 59/3/3 58/2/3
f 61/5/3 62/6/3 63/7/3
f 63/7/3 64/8/3 61/5/3
f 65/1/4 66/2/4 67/3/4
f 68/4/4 67/3/4 66/2/4
f 69/5/4 70/6/4 71/7/4
f 71/7/4 72/8/4 69/5/4
f 73/1/4 74/2/4 75/3/4
f 76/4/4 75/3/4 74/2/4
f 77/5/4 78/6/4 79/7/4
f 79/7/4 80/8/4 77/5/4
f 81/1/4 82/2/4 83/3/4
f 84/4/4 83/3/4 82/2/4
f 85/5/4 86/6/4 87/7/4
f 87/7/4 88/8/4 85/5/4
f 89/1/4 90/2/4 91/3/4
f 92/4/4 91/3/4 90/2/4
f 93/5/4 94/6/4 95/7/4
f 95/7/4 96/8/4 93/5/4
f 97/1/4 98/2/4 99/3/4
f 100/4/4 99/3/4 98/2/4
f 101/5/4 102/6/4 103/7/4
f 103/7/4 104/8/4 101/5/4
f 105/1/4 106/2/4 107/3/4
f 108/4/4 107/3/4 106/2/4
f 109/5/4 110/6/4 111/7/4
f 111/7/4 112/8/4 109/5/4
f 113/1/5 114/2/5 115/3/5
f 116/4/5 115/3/5 114/2/5
f 117/5/5 118/6/5 119/7/5
f 119/7/5 120/8/5 117/5/5
f 121/1/5 122/2/5 123/3/5
f 124/4/5 123/3/5 122/2/5
f 125/5/5 126/6/5 127/7/5
f 127/7/5 128/8/5 125/5/5
f 129/1/5 130/2/5 131/3/5
f 132/4/5 131/3/5 130/2/5
f 133/5/5 134/6/5 135/7/5
f 135/7/5 136/8/5 133/5/5
f 137/1/6 138/2/6 139/3/6
f 140/4/6 139/3/6 138/2/6
f 141/5/6 142/6/6 143/7/6
f 143/7/6 144/8/6 141/5/6
f 145/1/6 146/2/6 147/3/6
f 148/4/6 147/3/6 146/2/6
f 149/5/6 150/6/6 151/7/6
f 151/7/6 152/8/6 149/5/6
f 153/1/6 154/2/6 155/3/6
f 156/4/6 155/3/6 154/2/6
f 157/5/6 158/6/6 159/7/6
f 159/7/6 160/8/6 157/5/6
f 161/1/1 162/2/1 163/3/1
f 164/4/1 163/3/1 162/2/1
f 165/5/1 166/6/1 167/7/1
f 167/7/1 168/8/1 165/5/1
