# Blender 4.4.3
# www.blender.org
mtllib WALL_WHTA.mtl
o WALL_WHTA
v 396.662781 20.357782 -440.804443
v 400.058472 18.919825 -436.079193
v 413.728058 20.357779 -453.067902
v 417.123718 18.919825 -448.342621
v 392.602478 18.919823 -446.454590
v 409.667725 18.919825 -458.718048
v 376.327148 20.904600 -426.569397
v 379.722839 19.466642 -421.844147
v 393.392426 20.904598 -438.832855
v 396.788086 19.466644 -434.107574
v 372.266846 19.466642 -432.219543
v 389.332092 19.466642 -444.483002
v 426.060547 19.809233 -461.902954
v 429.456238 18.371275 -457.177704
v 443.125824 19.809229 -474.166412
v 446.521484 18.371275 -469.441132
v 422.000244 18.371273 -467.553101
v 439.065491 18.371275 -479.816559
v 542.358948 4.695743 -276.408997
v 547.938477 3.257786 -278.060547
v 536.394409 4.695741 -296.559448
v 541.973999 3.257786 -298.210968
v 535.687317 3.257786 -274.434204
v 529.722839 3.257785 -294.584656
v 549.428833 4.656248 -251.391602
v 555.008362 3.218291 -253.043137
v 543.464294 4.656244 -271.542053
v 549.043884 3.218290 -273.193573
v 542.757202 3.218291 -249.416809
v 536.792725 3.218291 -269.567261
v 561.751221 4.656252 -196.186478
v 567.330750 3.218295 -197.838013
v 555.786682 4.656249 -216.336929
v 561.366272 3.218295 -217.988464
v 555.079590 3.218296 -194.211685
v 549.115112 3.218295 -214.362137
v -284.319092 28.012081 -297.155487
v -290.137909 26.574123 -297.163025
v -284.346283 28.012081 -276.140839
v -290.165100 26.574127 -276.148376
v -277.361328 26.574123 -297.146484
v -277.388550 26.574127 -276.131836
v -284.763885 28.012079 -323.111603
v -290.582703 26.574121 -323.119141
v -284.791077 28.012079 -302.096954
v -290.609894 26.574125 -302.104492
v -277.806122 26.574121 -323.102600
v -277.833344 26.574125 -302.087952
v -284.572784 28.012075 -379.577301
v -290.391602 26.574118 -379.584839
v -284.599976 28.012075 -358.562653
v -290.418793 26.574121 -358.570190
v -277.615021 26.574118 -379.568298
v -277.642242 26.574121 -358.553650
v 376.984253 4.656269 26.717243
v 376.976715 3.218313 32.536076
v 397.998901 4.656267 26.744429
v 397.991364 3.218313 32.563263
v 376.993256 3.218310 19.759499
v 398.007904 3.218312 19.786690
v 351.026428 4.656269 27.042591
v 351.018890 3.218313 32.861423
v 372.041077 4.656267 27.069777
v 372.033539 3.218313 32.888611
v 351.035431 3.218310 20.084846
v 372.050079 3.218312 20.112038
v 294.576599 4.656269 23.455902
v 294.569061 3.218312 29.274736
v 315.591248 4.656267 23.483088
v 315.583710 3.218313 29.301922
v 294.585602 3.218310 16.498158
v 315.600250 3.218311 16.525349
v -177.707306 7.098618 26.876211
v -177.714828 5.660661 32.695045
v -156.692673 7.098616 26.903397
v -156.700195 5.660662 32.722229
v -177.698303 5.660659 19.918468
v -156.683670 5.660660 19.945656
v -121.257477 6.328888 23.600132
v -121.265007 4.890932 29.418966
v -100.242844 6.328886 23.627317
v -100.250366 4.890933 29.446152
v -121.248474 4.890929 16.642387
v -100.233833 4.890931 16.669579
v -95.299652 6.328888 23.274782
v -95.307182 4.890932 29.093616
v -74.285019 6.328886 23.301968
v -74.292542 4.890933 29.120802
v -95.290649 4.890929 16.317039
v -74.276009 4.890931 16.344227
v 46.168171 7.703531 33.665585
v 46.192055 7.703529 15.202794
v 15.811848 9.781442 25.217791
v 15.800972 7.703522 33.626297
v 46.179047 9.781443 25.257076
v 15.824852 7.703521 15.163505
v 76.546249 9.781448 25.296366
v 76.535370 7.703528 33.704872
v 106.913452 9.781448 25.335651
v 106.902573 7.703533 33.744156
v 76.559250 7.703527 15.242078
v 106.926460 7.703532 15.281368
v -328.329041 28.137009 -530.160400
v -334.147491 26.699051 -530.092041
v -328.082275 28.137009 -509.147186
v -333.900696 26.699055 -509.078857
v -321.371765 26.699051 -530.242065
v -321.125000 26.699055 -509.228882
v -328.329041 28.137007 -555.374756
v -334.147491 26.699049 -555.306396
v -328.082275 28.137007 -534.361511
v -333.900696 26.699053 -534.293213
v -321.371765 26.699049 -555.456421
v -321.125000 26.699053 -534.443237
v -328.329041 28.137005 -580.060120
v -334.147491 26.699047 -579.991760
v -328.082275 28.137005 -559.046875
v -333.900696 26.699051 -558.978577
v -321.371765 26.699047 -580.141785
v -321.125000 26.699051 -559.128601
v 396.891022 45.865555 -966.999512
v 402.415039 43.787636 -973.338928
v 373.996216 45.865551 -986.949341
v 379.520233 43.787632 -993.288818
v 390.285828 43.787636 -959.419250
v 367.391022 43.787636 -979.369141
v 419.785828 45.865547 -947.049622
v 425.309814 43.787628 -953.389099
v 413.180603 43.787628 -939.469421
v 351.101440 45.865551 -1006.899231
v 356.625427 43.787636 -1013.238647
v 344.496216 43.787636 -999.318970
v 509.803711 42.386879 -865.776062
v 515.404602 40.308960 -872.047729
v 487.153778 42.386875 -886.003540
v 492.754639 40.308956 -892.275146
v 503.106598 40.308960 -858.276917
v 480.456665 40.308960 -878.504333
v 532.453613 42.386871 -845.548645
v 538.054504 40.308952 -851.820251
v 525.756531 40.308952 -838.049438
v 464.503876 42.386875 -906.230957
v 470.104736 40.308960 -912.502625
v 457.806763 40.308960 -898.731812
v 377.811768 37.447350 -751.930847
v 375.345093 36.009392 -757.200989
v 358.778687 37.447350 -743.022522
v 356.312012 36.009392 -748.292664
v 380.761200 36.009392 -745.629150
v 361.728119 36.009392 -736.720886
v 355.332733 37.016235 -741.729797
v 352.866089 35.578278 -746.999939
v 336.299652 37.016235 -732.821472
v 333.833008 35.578281 -738.091675
v 358.282166 35.578278 -735.428101
v 339.249115 35.578281 -726.519836
v 332.372009 36.384892 -731.310120
v 329.905334 34.946930 -736.580261
v 313.338928 36.384892 -722.401794
v 310.872284 34.946934 -727.671997
v 335.321442 34.946934 -725.008423
v 316.288391 34.946934 -716.100159
v -36.648254 1.683423 -19.180433
v -35.966846 1.683423 -19.180433
v -35.966846 3.169321 -19.180433
v -36.648254 3.169321 -19.180433
v 23.955832 1.683423 -19.180433
v 24.795675 1.683423 -19.180433
v 24.795675 3.169321 -19.180433
v 23.955832 3.169321 -19.180433
v 24.795675 1.683422 -20.097706
v 24.795675 3.169321 -20.097706
v 24.795675 1.683422 -30.760189
v 24.795675 3.169320 -30.760189
v 23.955832 1.683422 -30.760189
v 23.955832 3.169320 -30.760189
v 4.582371 1.683422 -30.760189
v 4.582371 3.169320 -30.760189
v -16.669785 1.683422 -30.760189
v -16.669785 3.169320 -30.760189
v -35.966846 1.683422 -30.760189
v -35.966846 3.169320 -30.760189
v -36.648254 1.683422 -30.760189
v -36.648254 3.169320 -30.760189
v -36.648254 1.683422 -20.097706
v -36.648254 3.169321 -20.097706
v 27.874491 1.683423 -19.180433
v 28.555897 1.683423 -19.180433
v 28.555897 3.169321 -19.180433
v 27.874491 3.169321 -19.180433
v 88.478577 1.683423 -19.180433
v 89.318420 1.683423 -19.180433
v 89.318420 3.169321 -19.180433
v 88.478577 3.169321 -19.180433
v 89.318420 1.683422 -20.097706
v 89.318420 3.169321 -20.097706
v 89.318420 1.683422 -30.760189
v 89.318420 3.169320 -30.760189
v 88.478577 1.683422 -30.760189
v 88.478577 3.169320 -30.760189
v 69.105118 1.683422 -30.760189
v 69.105118 3.169320 -30.760189
v 47.852959 1.683422 -30.760189
v 47.852959 3.169320 -30.760189
v 28.555897 1.683422 -30.760189
v 28.555897 3.169320 -30.760189
v 27.874491 1.683422 -30.760189
v 27.874491 3.169320 -30.760189
v 27.874491 1.683422 -20.097706
v 27.874491 3.169321 -20.097706
v 92.904976 1.683423 -19.180433
v 93.586380 1.683423 -19.180433
v 93.586380 3.169321 -19.180433
v 92.904976 3.169321 -19.180433
v 153.509064 1.683423 -19.180433
v 154.348907 1.683423 -19.180433
v 154.348907 3.169321 -19.180433
v 153.509064 3.169321 -19.180433
v 154.348907 1.683422 -20.097706
v 154.348907 3.169321 -20.097706
v 154.348907 1.683422 -30.760189
v 154.348907 3.169320 -30.760189
v 153.509064 1.683422 -30.760189
v 153.509064 3.169320 -30.760189
v 134.135605 1.683422 -30.760189
v 134.135605 3.169320 -30.760189
v 112.883446 1.683422 -30.760189
v 112.883446 3.169320 -30.760189
v 93.586380 1.683422 -30.760189
v 93.586380 3.169320 -30.760189
v 92.904976 1.683422 -30.760189
v 92.904976 3.169320 -30.760189
v 92.904976 1.683422 -20.097706
v 92.904976 3.169321 -20.097706
v 541.123840 34.702354 -820.736755
v 541.123840 37.978455 -820.736755
v 502.152313 37.978455 -812.934082
v 502.152313 34.702354 -812.934082
v 541.473450 37.978455 -818.107605
v 541.473450 34.702354 -818.107605
v 502.501892 37.978455 -810.304993
v 502.501892 34.702354 -810.304993
vn 0.0112 0.9998 0.0156
vn 0.1400 0.9708 0.1948
vn -0.1181 0.9793 -0.1644
vn 0.0184 0.9998 -0.0055
vn 0.2300 0.9708 -0.0681
vn -0.1941 0.9793 0.0574
vn -0.0192 0.9998 -0.0000
vn -0.2399 0.9708 -0.0003
vn 0.2024 0.9793 0.0003
vn -0.0000 0.9998 0.0192
vn -0.0003 0.9708 0.2399
vn 0.0003 0.9793 -0.2024
vn -0.0192 0.9998 0.0002
vn -0.2399 0.9708 0.0028
vn 0.2024 0.9793 -0.0024
vn 0.0126 0.9998 -0.0145
vn 0.1576 0.9708 -0.1809
vn -0.1330 0.9793 0.1526
vn 0.0128 0.9998 -0.0143
vn 0.1598 0.9708 -0.1789
vn -0.1348 0.9793 0.1510
vn -0.0082 0.9998 -0.0174
vn -0.1017 0.9708 -0.2173
vn 0.0858 0.9793 0.1833
vn -0.0081 0.9998 -0.0174
vn -0.0000 -0.0000 1.0000
vn 1.0000 -0.0000 -0.0000
vn -0.0000 -0.0000 -1.0000
vn -1.0000 -0.0000 -0.0000
vn 0.1963 -0.0000 0.9805
vn -0.1963 -0.0000 -0.9805
vt 4.997502 1.999501
vt 4.997502 1.000500
vt 0.002498 1.999499
vt 0.002497 1.000500
vt 4.997502 1.000501
vt 0.002498 1.000501
vt -28.487011 1.000499
vt -28.124718 1.000499
vt -28.124718 1.999501
vt -28.487011 1.999501
vt 3.734985 1.000500
vt 4.181514 1.000500
vt 4.181514 1.999501
vt 3.734985 1.999501
vt 0.021956 1.000500
vt 0.810612 1.000499
vt 0.810612 1.999501
vt 0.021956 1.999501
vt 9.978046 1.000500
vt 9.978046 1.999501
vt 5.818485 1.000500
vt 6.265014 1.000500
vt 6.265014 1.999501
vt 5.818485 1.999501
vt 16.565500 1.000500
vt 16.565500 1.999501
vt 27.864853 1.000500
vt 27.864853 1.999501
vt 38.124718 1.000500
vt 38.124718 1.999501
vt 38.487007 1.000500
vt 38.487007 1.999501
vt 0.021915 1.000500
vt 9.189349 1.000499
vt 9.189349 1.999501
vt 0.021915 1.999501
vt 9.978005 1.000499
vt 9.978005 1.999501
vt 5.818486 1.000499
vt 6.180777 1.000499
vt 6.180777 1.999501
vt 5.818486 1.999501
vt 38.040482 1.000500
vt 38.487011 1.000500
vt 38.487011 1.999501
vt 38.040482 1.999501
vt 0.810570 1.000499
vt 0.810570 1.999501
vt 9.978006 1.000500
vt 9.978006 1.999501
vt -28.487013 1.000500
vt -28.040483 1.000500
vt -28.040483 1.999501
vt -28.487013 1.999501
vt -17.739998 1.000500
vt -17.739998 1.999501
vt -6.440645 1.000500
vt -6.440645 1.999501
vt 3.819222 1.000500
vt 3.819222 1.999501
vt 4.181513 1.000500
vt 4.181513 1.999501
vt 0.021955 1.000500
vt 9.189390 1.000499
vt 9.189390 1.999501
vt 0.021955 1.999501
vt 9.978046 1.000499
vt -11.537839 1.000499
vt -11.171034 1.000499
vt -11.171034 1.999500
vt -11.537839 1.999500
vt 21.085743 1.000500
vt 21.537838 1.000500
vt 21.537838 1.999501
vt 21.085743 1.999501
vt 0.004990 1.000500
vt 0.796331 1.000499
vt 0.796331 1.999500
vt 0.004990 1.999501
vt 9.994987 1.000500
vt 9.994987 1.999501
vt -11.537840 1.000500
vt -11.085747 1.000500
vt -11.085747 1.999501
vt -11.537840 1.999501
vt -0.656883 1.000500
vt -0.656883 1.999501
vt 10.783295 1.000500
vt 10.783295 1.999501
vt 21.171032 1.000500
vt 21.171032 1.999501
vt 9.203645 1.000499
vt 9.203645 1.999500
vt 9.994987 1.000499
vt 9.994987 1.999500
vt 0.004995 1.000501
vt 0.004996 1.999501
vt 9.995005 1.999499
vt 9.995004 1.000499
s 1
usemtl WALL_WHTA.022
f 1/1/1 2/2/2 3/3/1
f 4/4/2 3/3/1 2/2/2
f 5/5/3 1/1/1 6/6/3
f 3/3/1 6/6/3 1/1/1
f 7/1/1 8/2/2 9/3/1
f 10/4/2 9/3/1 8/2/2
f 11/5/3 7/1/1 12/6/3
f 9/3/1 12/6/3 7/1/1
f 13/1/1 14/2/2 15/3/1
f 16/4/2 15/3/1 14/2/2
f 17/5/3 13/1/1 18/6/3
f 15/3/1 18/6/3 13/1/1
f 19/1/4 20/2/5 21/3/4
f 22/4/5 21/3/4 20/2/5
f 23/5/6 19/1/4 24/6/6
f 21/3/4 24/6/6 19/1/4
f 25/1/4 26/2/5 27/3/4
f 28/4/5 27/3/4 26/2/5
f 29/5/6 25/1/4 30/6/6
f 27/3/4 30/6/6 25/1/4
f 31/1/4 32/2/5 33/3/4
f 34/4/5 33/3/4 32/2/5
f 35/5/6 31/1/4 36/6/6
f 33/3/4 36/6/6 31/1/4
f 37/1/7 38/2/8 39/3/7
f 40/4/8 39/3/7 38/2/8
f 41/5/9 37/1/7 42/6/9
f 39/3/7 42/6/9 37/1/7
f 43/1/7 44/2/8 45/3/7
f 46/4/8 45/3/7 44/2/8
f 47/5/9 43/1/7 48/6/9
f 45/3/7 48/6/9 43/1/7
f 49/1/7 50/2/8 51/3/7
f 52/4/8 51/3/7 50/2/8
f 53/5/9 49/1/7 54/6/9
f 51/3/7 54/6/9 49/1/7
f 55/1/10 56/2/11 57/3/10
f 58/4/11 57/3/10 56/2/11
f 59/5/12 55/1/10 60/6/12
f 57/3/10 60/6/12 55/1/10
f 61/1/10 62/2/11 63/3/10
f 64/4/11 63/3/10 62/2/11
f 65/5/12 61/1/10 66/6/12
f 63/3/10 66/6/12 61/1/10
f 67/1/10 68/2/11 69/3/10
f 70/4/11 69/3/10 68/2/11
f 71/5/12 67/1/10 72/6/12
f 69/3/10 72/6/12 67/1/10
f 73/1/10 74/2/11 75/3/10
f 76/4/11 75/3/10 74/2/11
f 77/5/12 73/1/10 78/6/12
f 75/3/10 78/6/12 73/1/10
f 79/1/10 80/2/11 81/3/10
f 82/4/11 81/3/10 80/2/11
f 83/5/12 79/1/10 84/6/12
f 81/3/10 84/6/12 79/1/10
f 85/1/10 86/2/11 87/3/10
f 88/4/11 87/3/10 86/2/11
f 89/5/12 85/1/10 90/6/12
f 87/3/10 90/6/12 85/1/10
f 95/1/10 91/2/11 97/3/10
f 98/4/11 97/3/10 91/2/11
f 92/5/12 95/1/10 101/6/12
f 97/3/10 101/6/12 95/1/10
f 93/1/10 94/2/11 95/3/10
f 91/4/11 95/3/10 94/2/11
f 96/5/12 93/1/10 92/6/12
f 95/3/10 92/6/12 93/1/10
f 97/1/10 98/2/11 99/3/10
f 100/4/11 99/3/10 98/2/11
f 101/5/12 97/1/10 102/6/12
f 99/3/10 102/6/12 97/1/10
f 103/1/13 104/2/14 105/3/13
f 106/4/14 105/3/13 104/2/14
f 107/5/15 103/1/13 108/6/15
f 105/3/13 108/6/15 103/1/13
f 109/1/13 110/2/14 111/3/13
f 112/4/14 111/3/13 110/2/14
f 113/5/15 109/1/13 114/6/15
f 111/3/13 114/6/15 109/1/13
f 115/1/13 116/2/14 117/3/13
f 118/4/14 117/3/13 116/2/14
f 119/5/15 115/1/13 120/6/15
f 117/3/13 120/6/15 115/1/13
f 121/1/16 122/2/17 123/3/16
f 124/4/17 123/3/16 122/2/17
f 125/5/18 121/1/16 126/6/18
f 123/3/16 126/6/18 121/1/16
f 127/1/16 128/2/17 121/3/16
f 122/4/17 121/3/16 128/2/17
f 129/5/18 127/1/16 125/6/18
f 121/3/16 125/6/18 127/1/16
f 123/1/16 124/2/17 130/3/16
f 131/4/17 130/3/16 124/2/17
f 126/5/18 123/1/16 132/6/18
f 130/3/16 132/6/18 123/1/16
f 133/1/19 134/2/20 135/3/19
f 136/4/20 135/3/19 134/2/20
f 137/5/21 133/1/19 138/6/21
f 135/3/19 138/6/21 133/1/19
f 139/1/19 140/2/20 133/3/19
f 134/4/20 133/3/19 140/2/20
f 141/5/21 139/1/19 137/6/21
f 133/3/19 137/6/21 139/1/19
f 135/1/19 136/2/20 142/3/19
f 143/4/20 142/3/19 136/2/20
f 138/5/21 135/1/19 144/6/21
f 142/3/19 144/6/21 135/1/19
f 145/1/22 146/2/23 147/3/22
f 148/4/23 147/3/22 146/2/23
f 149/5/24 145/1/22 150/6/24
f 147/3/22 150/6/24 145/1/22
f 151/1/22 152/2/23 153/3/25
f 154/4/23 153/3/25 152/2/23
f 155/5/24 151/1/22 156/6/24
f 153/3/25 156/6/24 151/1/22
f 157/1/22 158/2/23 159/3/25
f 160/4/23 159/3/25 158/2/23
f 161/5/24 157/1/22 162/6/24
f 159/3/25 162/6/24 157/1/22
f 163/7/26 164/8/26 165/9/26
f 165/9/26 166/10/26 163/7/26
f 167/11/26 168/12/26 169/13/26
f 169/13/26 170/14/26 167/11/26
f 168/15/27 171/16/27 172/17/27
f 172/17/27 169/18/27 168/15/27
f 171/16/27 173/19/27 174/20/27
f 174/20/27 172/17/27 171/16/27
f 173/21/28 175/22/28 176/23/28
f 176/23/28 174/24/28 173/21/28
f 175/22/28 177/25/28 178/26/28
f 178/26/28 176/23/28 175/22/28
f 177/25/28 179/27/28 180/28/28
f 180/28/28 178/26/28 177/25/28
f 179/27/28 181/29/28 182/30/28
f 182/30/28 180/28/28 179/27/28
f 181/29/28 183/31/28 184/32/28
f 184/32/28 182/30/28 181/29/28
f 183/33/29 185/34/29 186/35/29
f 186/35/29 184/36/29 183/33/29
f 185/34/29 163/37/29 166/38/29
f 166/38/29 186/35/29 185/34/29
f 187/39/26 188/40/26 189/41/26
f 189/41/26 190/42/26 187/39/26
f 191/43/26 192/44/26 193/45/26
f 193/45/26 194/46/26 191/43/26
f 192/33/27 195/47/27 196/48/27
f 196/48/27 193/36/27 192/33/27
f 195/47/27 197/49/27 198/50/27
f 198/50/27 196/48/27 195/47/27
f 197/51/28 199/52/28 200/53/28
f 200/53/28 198/54/28 197/51/28
f 199/52/28 201/55/28 202/56/28
f 202/56/28 200/53/28 199/52/28
f 201/55/28 203/57/28 204/58/28
f 204/58/28 202/56/28 201/55/28
f 203/57/28 205/59/28 206/60/28
f 206/60/28 204/58/28 203/57/28
f 205/59/28 207/61/28 208/62/28
f 208/62/28 206/60/28 205/59/28
f 207/63/29 209/64/29 210/65/29
f 210/65/29 208/66/29 207/63/29
f 209/64/29 187/67/29 190/20/29
f 190/20/29 210/65/29 209/64/29
f 211/68/26 212/69/26 213/70/26
f 213/70/26 214/71/26 211/68/26
f 215/72/26 216/73/26 217/74/26
f 217/74/26 218/75/26 215/72/26
f 216/76/27 219/77/27 220/78/27
f 220/78/27 217/79/27 216/76/27
f 219/77/27 221/80/27 222/81/27
f 222/81/27 220/78/27 219/77/27
f 221/82/28 223/83/28 224/84/28
f 224/84/28 222/85/28 221/82/28
f 223/83/28 225/86/28 226/87/28
f 226/87/28 224/84/28 223/83/28
f 225/86/28 227/88/28 228/89/28
f 228/89/28 226/87/28 225/86/28
f 227/88/28 229/90/28 230/91/28
f 230/91/28 228/89/28 227/88/28
f 229/90/28 231/73/28 232/74/28
f 232/74/28 230/91/28 229/90/28
f 231/76/29 233/92/29 234/93/29
f 234/93/29 232/79/29 231/76/29
f 233/92/29 211/94/29 214/95/29
f 214/95/29 234/93/29 233/92/29
f 235/96/30 236/97/30 237/98/30
f 237/98/30 238/99/30 235/96/30
f 239/97/31 240/96/31 241/98/31
f 242/99/31 241/98/31 240/96/31
