# Blender 4.4.3
# www.blender.org
mtllib WALL_BLUEA.mtl
o WALL_BLUEA
v 231.571365 17.826069 -399.290131
v 230.802322 17.826069 -398.808136
v 231.571365 16.628468 -399.290131
v 230.802322 16.628468 -398.808136
v 237.414032 17.826069 -402.951965
v 236.797089 17.826069 -402.565277
v 237.414032 16.628468 -402.951965
v 236.797089 16.628468 -402.565277
v 239.591263 17.826069 -404.316498
v 246.054504 16.628468 -408.367279
v 242.685211 17.826069 -415.249634
v 246.732376 17.826069 -408.792145
v 240.905182 16.628466 -418.089752
v 246.732376 16.628468 -408.792145
v 231.586823 17.826069 -412.249573
v 240.227310 17.826067 -417.664917
v 231.586823 16.628468 -412.249573
v 240.227310 16.628466 -417.664917
v 230.969894 17.826069 -411.862915
v 230.969894 16.628468 -411.862915
v 225.744171 17.826069 -408.587738
v 225.744171 16.628468 -408.587738
v 224.975128 17.826069 -408.105743
v 224.975128 16.628468 -408.105743
v 228.201599 17.826069 -397.178131
v 222.374390 17.826069 -406.475769
v 228.201599 16.628468 -397.178131
v 222.374390 16.628468 -406.475769
v 240.905182 17.826067 -418.089752
v 246.054504 17.826069 -408.367279
v -94.139755 14.884165 -689.144165
v -95.047348 14.884165 -689.146667
v -94.139755 13.686562 -689.144165
v -95.047348 13.686562 -689.146667
v -87.244438 14.884165 -689.125305
v -87.972534 14.884165 -689.127319
v -87.244438 13.686562 -689.125305
v -87.972534 13.686562 -689.127319
v -84.674942 14.884165 -689.118286
v -77.047234 13.686562 -689.097412
v -76.226387 14.884165 -696.716125
v -76.247238 14.884165 -689.095215
v -76.217216 13.686563 -700.067993
v -76.247238 13.686562 -689.095215
v -87.214417 14.884165 -700.098083
v -77.017212 14.884165 -700.070190
v -87.214417 13.686563 -700.098083
v -77.017212 13.686563 -700.070190
v -87.942505 14.884165 -700.100037
v -87.942505 13.686563 -700.100037
v -94.109726 14.884165 -700.116943
v -94.109726 13.686563 -700.116943
v -95.017326 14.884165 -700.119446
v -95.017326 13.686563 -700.119446
v -98.116646 14.884165 -689.155090
v -98.086617 14.884165 -700.127808
v -98.116646 13.686562 -689.155090
v -98.086617 13.686563 -700.127808
v -76.217216 14.884165 -700.067993
v -77.047234 14.884165 -689.097412
v 559.165100 1.335181 -187.657181
v 559.165100 -1.461232 -187.657166
v 557.322083 1.335181 -187.107483
v 557.322083 -1.461232 -187.107483
v 557.251831 1.227672 -187.086533
v 557.251831 -1.527111 -187.086533
v 554.245544 3.194174 -186.189896
v 554.245544 0.439392 -186.189896
v 561.909912 -0.400898 -188.475830
v 561.909912 -3.149251 -188.475830
v 559.170349 1.351104 -187.658752
v 559.170349 -1.397250 -187.658752
v 559.771729 -1.461232 -185.623260
v 559.771729 1.335181 -185.623260
v 557.928711 1.335181 -185.073578
v 557.928711 -1.461232 -185.073578
v 557.858459 -1.527110 -185.052628
v 557.858459 1.227671 -185.052628
v 554.852173 3.194174 -184.155975
v 554.852173 0.439392 -184.155975
v 562.516541 -3.149252 -186.441925
v 562.516541 -0.400898 -186.441925
v 559.776978 1.351104 -185.624847
v 559.776978 -1.397249 -185.624832
v 531.632874 1.335183 -177.513107
v 531.632874 -1.461231 -177.513107
v 533.475891 1.335183 -178.062805
v 533.475891 -1.461231 -178.062805
v 533.559875 1.227672 -178.037643
v 533.559875 -1.527110 -178.037643
v 536.566162 3.194175 -178.934280
v 536.566162 0.439393 -178.934280
v 528.888062 -0.400896 -176.694443
v 528.888062 -3.149250 -176.694443
v 531.627625 1.351106 -177.511536
v 531.627625 -1.397248 -177.511536
v 531.040039 -1.461232 -179.500900
v 531.040039 1.335182 -179.500900
v 532.883057 1.335182 -180.050598
v 532.883057 -1.461232 -180.050598
v 532.953247 -1.527110 -180.071548
v 532.953247 1.227672 -180.071548
v 535.959595 3.194175 -180.968185
v 535.959595 0.439392 -180.968185
v 528.295166 -3.149252 -178.682236
v 528.295166 -0.400896 -178.682236
v 531.034729 1.351104 -179.499329
v 531.034729 -1.397249 -179.499329
v 559.164124 -1.461232 -187.560715
v 559.164124 1.335181 -187.560715
v 557.321106 1.335181 -187.011017
v 557.321106 -1.461232 -187.011017
v 557.250854 -1.527111 -186.990067
v 557.250854 1.227672 -186.990067
v 554.244568 3.194174 -186.093430
v 554.244568 0.439392 -186.093430
v 561.908936 -3.149251 -188.379364
v 561.908936 -0.400898 -188.379364
v 559.169373 1.351104 -187.562286
v 559.169373 -1.397250 -187.562286
v 531.039062 1.335182 -179.404434
v 531.039062 -1.461232 -179.404434
v 532.882080 1.335182 -179.954132
v 532.882080 -1.461232 -179.954132
v 532.952271 1.227672 -179.975082
v 532.952271 -1.527110 -179.975082
v 535.958618 3.194175 -180.871719
v 535.958618 0.439392 -180.871719
v 528.294189 -0.400896 -178.585770
v 528.294189 -3.149252 -178.585770
v 531.033752 1.351104 -179.402863
v 531.033752 -1.397249 -179.402863
v 559.570007 1.335182 -185.430099
v 559.570007 -1.461232 -185.430099
v 557.726990 1.335182 -184.880402
v 557.726990 -1.461232 -184.880402
v 557.656738 1.227672 -184.859451
v 557.656738 -1.527111 -184.859451
v 554.650452 3.194174 -183.962814
v 554.650452 0.439392 -183.962814
v 562.314819 -0.400898 -186.248749
v 562.314819 -3.149252 -186.248749
v 559.575256 1.351104 -185.431671
v 559.575256 -1.397250 -185.431671
v 531.444946 -1.461231 -177.273819
v 531.444946 1.335183 -177.273819
v 533.287964 1.335183 -177.823517
v 533.287964 -1.461231 -177.823517
v 533.358154 -1.527110 -177.844467
v 533.358154 1.227673 -177.844467
v 536.364502 3.194175 -178.741104
v 536.364502 0.439393 -178.741104
v 528.700073 -3.149251 -176.455154
v 528.700073 -0.400896 -176.455154
v 531.439636 1.351105 -177.272247
v 531.439636 -1.397248 -177.272247
v -193.513565 4.691028 -18.432428
v -193.513565 1.894614 -18.432428
v -193.518341 4.691028 -16.509184
v -193.518341 1.894614 -16.509184
v -193.518524 4.583518 -16.435883
v -193.518524 1.828736 -16.435883
v -193.526306 6.550020 -13.298734
v -193.526306 3.795238 -13.298733
v -193.506470 2.954948 -21.296741
v -193.506470 0.206594 -21.296741
v -193.513550 4.706950 -18.437929
v -193.513550 1.958597 -18.437929
v -191.391129 1.894614 -18.427166
v -191.391129 4.691028 -18.427166
v -191.395905 4.691028 -16.503922
v -191.395905 1.894614 -16.503922
v -191.396088 1.828736 -16.430614
v -191.396088 4.583518 -16.430618
v -191.403870 6.550020 -13.293469
v -191.403870 3.795238 -13.293468
v -191.384018 0.206593 -21.291477
v -191.384018 2.954948 -21.291475
v -191.391113 4.706950 -18.432665
v -191.391113 1.958597 -18.432665
v -191.492554 4.691030 14.424112
v -191.492554 1.894617 14.424112
v -191.487793 4.691030 12.500868
v -191.487793 1.894617 12.500868
v -191.439484 4.583519 12.427684
v -191.439484 1.828739 12.427684
v -191.431702 6.550022 9.290536
v -191.431702 3.795240 9.290537
v -191.499664 2.954951 17.288425
v -191.499664 0.206597 17.288425
v -191.492569 4.706953 14.429613
v -191.492569 1.958599 14.429613
v -193.566864 1.894616 14.418968
v -193.566864 4.691030 14.418968
v -193.562103 4.691030 12.495722
v -193.562103 1.894616 12.495722
v -193.561920 1.828739 12.422419
v -193.561920 4.583520 12.422419
v -193.554138 6.550022 9.285270
v -193.554138 3.795240 9.285271
v -193.573975 0.206597 17.283281
v -193.573975 2.954951 17.283281
v -193.566879 4.706953 14.424467
v -193.566879 1.958599 14.424467
v -191.434937 4.691028 -18.427166
v -191.434937 1.894614 -18.427166
v -191.439713 4.691028 -16.503922
v -191.439713 1.894614 -16.503922
v -191.439896 4.583518 -16.430618
v -191.439896 1.828736 -16.430614
v -191.447678 6.550019 -13.293469
v -191.447678 3.795238 -13.293468
v -191.427826 2.954948 -21.291475
v -191.427826 0.206593 -21.291477
v -191.434921 4.706950 -18.432665
v -191.434921 1.958597 -18.432665
v -191.536362 1.894617 14.424112
v -191.536362 4.691030 14.424112
v -191.531601 4.691030 12.500868
v -191.531601 1.894617 12.500868
v -191.483292 1.828739 12.427684
v -191.483292 4.583519 12.427684
v -191.475510 6.550022 9.290536
v -191.475510 3.795240 9.290537
v -191.543472 0.206597 17.288425
v -191.543472 2.954951 17.288425
v -191.536377 4.706953 14.429613
v -191.536377 1.958599 14.429613
v -193.625229 1.894614 -18.427166
v -193.625229 4.691028 -18.427166
v -193.630005 4.691028 -16.503922
v -193.630005 1.894614 -16.503922
v -193.630188 1.828736 -16.430614
v -193.630188 4.583517 -16.430618
v -193.637970 6.550019 -13.293469
v -193.637970 3.795238 -13.293468
v -193.618134 0.206594 -21.291477
v -193.618134 2.954948 -21.291475
v -193.625214 4.706950 -18.432665
v -193.625214 1.958597 -18.432665
v -193.726654 4.691030 14.424112
v -193.726654 1.894617 14.424112
v -193.721893 4.691030 12.500868
v -193.721893 1.894617 12.500868
v -193.673584 4.583519 12.427684
v -193.673584 1.828739 12.427684
v -193.665802 6.550022 9.290536
v -193.665802 3.795240 9.290537
v -193.733765 2.954951 17.288425
v -193.733765 0.206598 17.288425
v -193.726669 4.706953 14.429613
v -193.726669 1.958599 14.429613
v -294.391907 23.925661 -597.472412
v -294.391907 21.129248 -597.472412
v -296.315125 23.925661 -597.465942
v -296.315125 21.129248 -597.465942
v -296.388428 23.818151 -597.465698
v -296.388428 21.063370 -597.465698
v -299.525574 25.784655 -597.455078
v -299.525574 23.029873 -597.455078
v -291.527588 22.189583 -597.482117
v -291.527588 19.441229 -597.482117
v -294.386414 23.941584 -597.472412
v -294.386414 21.193232 -597.472412
v -294.384735 21.129248 -595.349976
v -294.384735 23.925661 -595.349976
v -296.307953 23.925661 -595.343506
v -296.307953 21.129248 -595.343506
v -296.381287 21.063370 -595.343262
v -296.381256 23.818151 -595.343262
v -299.518402 25.784655 -595.332642
v -299.518402 23.029873 -595.332642
v -291.520416 19.441229 -595.359680
v -291.520416 22.189583 -595.359680
v -294.379211 23.941584 -595.350037
v -294.379211 21.193232 -595.350037
v -327.236023 23.925663 -595.258911
v -327.236023 21.129250 -595.258911
v -325.312805 23.925663 -595.265442
v -325.312805 21.129250 -595.265442
v -325.239319 23.818151 -595.217529
v -325.239319 21.063372 -595.217529
v -322.102203 25.784655 -595.228149
v -322.102203 23.029873 -595.228149
v -330.100342 22.189583 -595.249268
v -330.100342 19.441229 -595.249268
v -327.241547 23.941586 -595.258911
v -327.241547 21.193232 -595.258911
v -327.243042 21.129250 -597.333252
v -327.243042 23.925663 -597.333252
v -325.319794 23.925663 -597.339722
v -325.319794 21.129250 -597.339722
v -325.246490 21.063372 -597.339966
v -325.246490 23.818151 -597.339966
v -322.109375 25.784655 -597.350586
v -322.109375 23.029873 -597.350586
v -330.107361 19.441229 -597.323547
v -330.107361 22.189583 -597.323547
v -327.248535 23.941586 -597.333191
v -327.248535 21.193232 -597.333191
v -294.384979 23.925661 -595.393799
v -294.384979 21.129248 -595.393799
v -296.308228 23.925661 -595.387329
v -296.308228 21.129248 -595.387329
v -296.381531 23.818151 -595.387024
v -296.381531 21.063370 -595.387024
v -299.518677 25.784653 -595.376465
v -299.518677 23.029873 -595.376465
v -291.520691 22.189583 -595.403503
v -291.520691 19.441229 -595.403503
v -294.379486 23.941584 -595.393799
v -294.379486 21.193232 -595.393799
v -327.236298 21.129250 -595.302734
v -327.236298 23.925663 -595.302734
v -325.313049 23.925663 -595.309204
v -325.313049 21.129250 -595.309204
v -325.239594 21.063372 -595.261353
v -325.239594 23.818151 -595.261353
v -322.102448 25.784655 -595.271973
v -322.102448 23.029873 -595.271973
v -330.100586 19.441229 -595.293030
v -330.100586 22.189583 -595.293030
v -327.241791 23.941586 -595.302734
v -327.241791 21.193232 -595.302734
v -294.397827 21.129248 -597.584045
v -294.397827 23.925661 -597.584045
v -296.321045 23.925661 -597.577576
v -296.321045 21.129248 -597.577576
v -296.394348 21.063370 -597.577332
v -296.394348 23.818151 -597.577332
v -299.531494 25.784653 -597.566711
v -299.531494 23.029873 -597.566711
v -291.533508 19.441229 -597.593750
v -291.533508 22.189583 -597.593750
v -294.392303 23.941584 -597.584045
v -294.392303 21.193232 -597.584045
v -327.249115 23.925663 -597.492981
v -327.249115 21.129250 -597.492981
v -325.325897 23.925663 -597.499512
v -325.325897 21.129250 -597.499512
v -325.252411 23.818151 -597.451599
v -325.252411 21.063372 -597.451599
v -322.115295 25.784655 -597.462219
v -322.115295 23.029873 -597.462219
v -330.113434 22.189583 -597.483337
v -330.113434 19.441231 -597.483337
v -327.254639 23.941586 -597.492981
v -327.254639 21.193232 -597.492981
v -185.386475 0.198910 -783.057007
v -185.386475 -3.436217 -783.057007
v -187.479752 0.198911 -782.187378
v -187.479767 -3.436217 -782.187378
v -187.559540 0.059155 -782.154236
v -187.559540 -3.521854 -782.154236
v -190.974060 0.669849 -780.735718
v -190.974060 -2.911161 -780.735718
v -181.037262 0.358863 -784.848450
v -181.037262 -3.213788 -784.848450
v -185.380493 0.219609 -783.059509
v -185.380493 -3.353044 -783.059509
v -184.266434 -3.436217 -780.535583
v -184.266434 0.198910 -780.535583
v -186.359726 0.198910 -779.665955
v -186.359726 -3.436217 -779.665955
v -186.439514 -3.521853 -779.632812
v -186.439514 0.059155 -779.632812
v -189.854019 0.669848 -778.214294
v -189.854019 -2.911161 -778.214294
v -177.935959 -3.213790 -783.408081
v -177.935959 0.358863 -783.408081
v -184.260452 0.219608 -780.538086
v -184.260452 -3.353044 -780.538086
v -224.096634 2.112280 -763.883423
v -224.096634 -1.522847 -763.883423
v -217.939514 0.789988 -766.574585
v -217.939514 -2.845139 -766.574585
v -217.834320 0.650232 -766.550537
v -217.834320 -2.930776 -766.550537
v -214.419815 0.669851 -767.969055
v -214.419815 -2.911159 -767.969055
v -239.726959 10.870209 -756.929016
v -239.726959 7.297555 -756.929016
v -224.102615 2.132978 -763.880920
v -224.102631 -1.439675 -763.880920
v -225.191269 -1.522848 -766.347717
v -225.191269 2.112280 -766.347717
v -219.034149 0.789987 -769.038879
v -219.034149 -2.845140 -769.038879
v -218.954361 -2.930776 -769.072021
v -218.954361 0.650232 -769.072021
v -215.539841 0.669850 -770.490540
v -215.539841 -2.911160 -770.490540
v -240.821579 7.297555 -759.393311
v -240.821579 10.870207 -759.393311
v -225.197266 2.132977 -766.345215
v -225.197266 -1.439675 -766.345215
v -184.289673 0.198909 -780.587585
v -184.289673 -3.436217 -780.587585
v -186.382965 0.198910 -779.717957
v -186.382965 -3.436217 -779.717957
v -186.462738 0.059155 -779.684814
v -186.462738 -3.521853 -779.684814
v -189.877258 0.669848 -778.266296
v -189.877258 -2.911161 -778.266296
v -177.989166 0.358863 -783.387756
v -177.989166 -3.213789 -783.387756
v -184.283691 0.219607 -780.590088
v -184.283691 -3.353044 -780.590088
v -224.119873 -1.522847 -763.935425
v -224.119873 2.112279 -763.935425
v -217.962738 0.789988 -766.626587
v -217.962738 -2.845139 -766.626587
v -217.857559 -2.930776 -766.602539
v -217.857559 0.650232 -766.602539
v -214.443054 0.669849 -768.021057
v -214.443054 -2.911159 -768.021057
v -239.750183 7.297555 -756.981018
v -239.750183 10.870209 -756.981018
v -224.125854 2.132977 -763.932922
v -224.125854 -1.439675 -763.932922
v -185.451416 -3.436217 -783.187195
v -185.451416 0.198911 -783.187195
v -187.544708 0.198910 -782.317566
v -187.544708 -3.436217 -782.317566
v -187.624496 -3.521853 -782.284363
v -187.624496 0.059155 -782.284363
v -191.039017 0.669848 -780.865845
v -191.039017 -2.911161 -780.865845
v -181.170822 -3.213789 -784.790894
v -181.170822 0.358863 -784.790894
v -185.445435 0.219608 -783.189636
v -185.445435 -3.353044 -783.189636
v -225.281631 2.112278 -766.535034
v -225.281616 -1.522847 -766.535034
v -219.124496 0.789987 -769.226196
v -219.124496 -2.845139 -769.226196
v -219.019318 0.650231 -769.202148
v -219.019318 -2.930776 -769.202148
v -215.604797 0.669850 -770.620667
v -215.604797 -2.911159 -770.620667
v -240.911942 10.870207 -759.580627
v -240.911942 7.297556 -759.580627
v -225.287613 2.132977 -766.532532
v -225.287613 -1.439675 -766.532532
v 546.821899 32.960361 -822.238770
v 546.821838 36.354805 -822.238770
v 541.703308 38.264633 -820.678040
v 541.703308 34.870190 -820.678040
v 495.226440 35.973984 -811.531555
v 495.226440 32.528240 -811.531555
v 497.559082 35.973984 -811.949829
v 497.559082 32.528240 -811.949829
v 497.647980 35.841507 -811.965759
v 497.647980 32.447067 -811.965759
v 501.784790 38.264633 -812.728638
v 501.784790 34.870190 -812.728638
v 491.752441 33.834785 -810.908691
v 491.752441 30.448263 -810.908691
v 495.219788 35.993603 -811.530396
v 495.219788 32.607082 -811.530396
v 550.426025 36.487278 -824.902527
v 550.426025 33.041538 -824.902527
v 553.527954 36.487278 -821.468506
v 553.527954 33.041538 -821.468506
v 549.570374 36.354805 -818.641052
v 549.570374 32.960361 -818.641052
v 542.052917 38.264633 -818.048950
v 542.052917 34.870190 -818.048950
v 495.428833 32.528240 -808.866699
v 495.428833 35.973984 -808.866699
v 497.761475 35.973984 -809.284912
v 497.761475 32.528240 -809.284912
v 497.850403 32.447067 -809.300903
v 497.850403 35.841507 -809.300903
v 502.134369 38.264633 -810.099487
v 502.134369 34.870190 -810.099487
v 491.954834 30.448263 -808.243835
v 491.954834 33.834785 -808.243835
v 495.422180 35.993603 -808.865479
v 495.422180 32.607082 -808.865479
v 557.218506 30.660044 -816.719482
v 557.218506 34.046566 -816.719482
v 553.456116 36.205379 -821.428345
v 553.456116 33.041538 -821.428345
v 553.871399 34.208820 -814.169495
v 553.871399 30.822298 -814.169495
v 550.064148 36.367634 -819.033752
v 550.064148 32.981113 -819.033752
v 543.476929 30.720467 -827.216614
v 543.476929 34.106991 -827.216614
v 547.053955 36.265804 -822.365417
v 547.053955 33.101963 -822.365417
v 546.920349 34.269245 -829.634888
v 546.920349 30.882721 -829.634888
v 550.354248 36.428059 -824.862366
v 550.354248 33.041538 -824.862366
v 261.927795 17.826067 -417.898285
v 261.445801 17.826067 -418.667328
v 261.927795 16.628466 -417.898285
v 261.445801 16.628466 -418.667328
v 265.589600 17.826069 -412.055634
v 265.202942 17.826069 -412.672577
v 265.589600 16.628468 -412.055634
v 265.202942 16.628468 -412.672577
v 266.954163 17.826069 -409.878418
v 271.004944 16.628468 -403.415161
v 277.887299 17.826069 -406.784454
v 271.429810 17.826069 -402.737305
v 280.727417 16.628468 -408.564484
v 271.429810 16.628468 -402.737305
v 274.887238 17.826067 -417.882843
v 280.302582 17.826069 -409.242371
v 274.887238 16.628466 -417.882843
v 280.302582 16.628468 -409.242371
v 274.500580 17.826067 -418.499786
v 274.500580 16.628466 -418.499786
v 271.225403 17.826067 -423.725494
v 271.225403 16.628466 -423.725494
v 270.743408 17.826067 -424.494537
v 270.743408 16.628466 -424.494537
v 259.815796 17.826067 -421.268066
v 269.113434 17.826067 -427.095276
v 259.815796 16.628466 -421.268066
v 269.113434 16.628466 -427.095276
v 280.727417 17.826069 -408.564484
v 271.004944 17.826069 -403.415161
vn 0.5311 -0.0000 0.8473
vn 0.5311 -0.0001 0.8473
vn 0.8473 -0.0000 -0.5311
vn -0.5311 -0.0000 -0.8473
vn -0.5310 -0.0000 -0.8473
vn -0.8473 -0.0000 0.5311
vn -0.0027 -0.0000 1.0000
vn -0.0028 -0.0000 1.0000
vn 1.0000 -0.0000 0.0027
vn 0.0027 -0.0000 -1.0000
vn 0.0028 -0.0000 -1.0000
vn -1.0000 -0.0000 -0.0027
vn -0.2858 -0.0000 -0.9583
vn 0.2858 -0.0000 0.9583
vn -1.0000 -0.0000 -0.0025
vn 1.0000 -0.0000 0.0025
vn -0.0034 -0.0000 -1.0000
vn 0.0034 -0.0000 1.0000
vn 0.0035 -0.0000 1.0000
vn -0.0033 -0.0000 -1.0000
vn -0.3836 -0.0000 -0.9235
vn -0.3837 -0.0000 -0.9235
vn -0.3809 -0.0000 -0.9246
vn -0.3808 -0.0000 -0.9246
vn 0.3836 -0.0000 0.9235
vn 0.3837 -0.0000 0.9235
vn 0.4132 -0.0000 0.9106
vn 0.4005 -0.0000 0.9163
vn 0.4065 -0.0000 0.9136
vn -0.4005 -0.0000 -0.9163
vn -0.4065 -0.0000 -0.9136
vn -0.4062 -0.0000 -0.9138
vn 0.3508 -0.0000 0.9365
vn 0.3508 -0.0000 0.9364
vn 0.2917 -0.0000 0.9565
vn 0.2916 -0.0000 0.9565
vn 0.1765 -0.0000 0.9843
vn 0.1814 -0.0000 0.9834
vn -0.7421 -0.0000 0.6703
vn -0.0785 -0.0000 -0.9969
vn -0.1765 -0.0000 -0.9843
vn -0.1833 -0.0000 -0.9831
vn -0.1832 -0.0000 -0.9831
vn -0.7813 -0.0000 0.6242
vn -0.7812 -0.0000 0.6242
vn 0.7875 -0.0000 -0.6164
vn 0.8049 -0.0000 -0.5935
vn -0.8117 -0.0000 0.5840
vn -0.8473 -0.0000 0.5310
vn 0.8473 -0.0000 -0.5310
vn 0.8474 -0.0000 -0.5310
vt -4.012725 1.999501
vt -4.495004 1.999501
vt -4.012725 1.000499
vt -4.495004 1.000499
vt -0.348692 1.999501
vt -0.735586 1.999501
vt -0.348692 1.000499
vt -0.735586 1.000499
vt 1.016688 1.999501
vt 5.069900 1.000499
vt 1.277343 1.999501
vt -1.498002 1.999501
vt 2.498000 1.000500
vt -1.498002 1.000499
vt 1.348690 1.999501
vt -4.069901 1.999501
vt 1.348690 1.000500
vt -4.069901 1.000500
vt 1.735585 1.999501
vt 1.735585 1.000500
vt 5.012723 1.999501
vt 5.012723 1.000500
vt 5.495002 1.999501
vt 5.495002 1.000500
vt 2.498000 1.999501
vt 2.498000 1.000499
vt -1.498002 1.000500
vt 5.069900 1.999501
vt 5.495002 1.000499
vt -4.495004 1.000500
vt 0.999500 1.000500
vt 0.999500 1.999501
vt 0.000499 1.999501
vt 0.000499 1.000500
vt 0.999501 1.999501
vt 0.999501 1.000500
vt 0.000500 1.000500
vt 0.000500 1.999501
vt 0.000000 2.000000
vt 0.000000 1.000000
vt 1.200000 2.000000
vt 1.200000 1.000000
vt 0.001200 1.999500
vt 0.001199 1.000500
vt 1.200000 1.999500
vt 1.200000 1.000500
vt -1.816176 2.000000
vt -1.816176 1.000000
vt 3.016176 2.000000
vt 3.016176 1.000000
s 1
usemtl WALL_BLUEA.009
f 1/1/1 2/2/1 3/3/1
f 4/4/1 3/3/1 2/2/1
f 5/5/1 6/6/1 7/7/1
f 8/8/1 7/7/1 6/6/1
f 9/9/2 5/5/1 10/10/1
f 7/7/1 10/10/1 5/5/1
f 11/11/3 12/12/3 13/13/3
f 14/14/3 13/13/3 12/12/3
f 15/15/4 16/16/4 17/17/4
f 18/18/4 17/17/4 16/16/4
f 19/19/4 15/15/4 20/20/4
f 17/17/4 20/20/4 15/15/4
f 21/21/4 19/19/4 22/22/4
f 20/20/4 22/22/4 19/19/4
f 23/23/5 21/21/4 24/24/4
f 22/22/4 24/24/4 21/21/4
f 25/25/6 26/12/6 27/26/6
f 28/27/6 27/26/6 26/12/6
f 29/25/3 11/11/3 13/13/3
f 30/28/1 10/10/1 14/29/1
f 14/29/1 12/23/1 30/28/1
f 18/18/4 16/16/4 29/2/4
f 29/2/4 13/30/4 18/18/4
f 4/31/1 2/32/1 25/33/1
f 25/33/1 27/34/1 4/31/1
f 23/35/5 24/36/4 28/37/5
f 28/37/4 26/38/4 23/35/4
f 30/28/1 9/9/2 10/10/1
f 31/1/7 32/2/7 33/3/8
f 34/4/8 33/3/8 32/2/7
f 35/5/8 36/6/8 37/7/7
f 38/8/7 37/7/7 36/6/8
f 39/9/7 35/5/8 40/10/7
f 37/7/7 40/10/7 35/5/8
f 41/11/9 42/12/9 43/13/9
f 44/14/9 43/13/9 42/12/9
f 45/15/10 46/16/10 47/17/11
f 48/18/10 47/17/11 46/16/10
f 49/19/10 45/15/10 50/20/10
f 47/17/11 50/20/10 45/15/10
f 51/21/11 49/19/10 52/22/10
f 50/20/10 52/22/10 49/19/10
f 53/23/11 51/21/11 54/24/10
f 52/22/10 54/24/10 51/21/11
f 55/25/12 56/12/12 57/26/12
f 58/27/12 57/26/12 56/12/12
f 59/25/9 41/11/9 43/13/9
f 60/28/7 40/10/7 44/29/7
f 44/29/8 42/23/8 60/28/8
f 48/18/10 46/16/10 59/2/10
f 59/2/11 43/30/11 48/18/11
f 34/31/8 32/32/7 55/33/8
f 55/33/7 57/34/7 34/31/7
f 53/35/11 54/36/10 58/37/10
f 58/37/10 56/38/10 53/35/10
f 60/28/7 39/9/7 40/10/7
f 61/39/13 62/40/13 63/41/13
f 64/42/13 63/41/13 62/40/13
f 65/43/13 66/44/13 67/45/13
f 68/46/13 67/45/13 66/44/13
f 69/39/13 70/40/13 71/41/13
f 72/42/13 71/41/13 70/40/13
f 73/40/14 74/39/14 75/41/14
f 75/41/14 76/42/14 73/40/14
f 77/44/14 78/43/14 79/45/14
f 79/45/14 80/46/14 77/44/14
f 81/40/14 82/39/14 83/41/14
f 83/41/14 84/42/14 81/40/14
f 85/39/14 86/40/14 87/41/14
f 88/42/14 87/41/14 86/40/14
f 89/43/14 90/44/14 91/45/14
f 92/46/14 91/45/14 90/44/14
f 93/39/14 94/40/14 95/41/14
f 96/42/14 95/41/14 94/40/14
f 97/40/13 98/39/13 99/41/13
f 99/41/13 100/42/13 97/40/13
f 101/44/13 102/43/13 103/45/13
f 103/45/13 104/46/13 101/44/13
f 105/40/13 106/39/13 107/41/13
f 107/41/13 108/42/13 105/40/13
f 109/40/14 110/39/14 111/41/14
f 111/41/14 112/42/14 109/40/14
f 113/44/14 114/43/14 115/45/14
f 115/45/14 116/46/14 113/44/14
f 117/40/14 118/39/14 119/41/14
f 119/41/14 120/42/14 117/40/14
f 121/39/14 122/40/14 123/41/14
f 124/42/14 123/41/14 122/40/14
f 125/43/14 126/44/14 127/45/14
f 128/46/14 127/45/14 126/44/14
f 129/39/14 130/40/14 131/41/14
f 132/42/14 131/41/14 130/40/14
f 133/39/13 134/40/13 135/41/13
f 136/42/13 135/41/13 134/40/13
f 137/43/13 138/44/13 139/45/13
f 140/46/13 139/45/13 138/44/13
f 141/39/13 142/40/13 143/41/13
f 144/42/13 143/41/13 142/40/13
f 145/40/13 146/39/13 147/41/13
f 147/41/13 148/42/13 145/40/13
f 149/44/13 150/43/13 151/45/13
f 151/45/13 152/46/13 149/44/13
f 153/40/13 154/39/13 155/41/13
f 155/41/13 156/42/13 153/40/13
f 157/39/15 158/40/15 159/41/15
f 160/42/15 159/41/15 158/40/15
f 161/43/15 162/44/15 163/45/15
f 164/46/15 163/45/15 162/44/15
f 165/39/15 166/40/15 167/41/15
f 168/42/15 167/41/15 166/40/15
f 169/40/16 170/39/16 171/41/16
f 171/41/16 172/42/16 169/40/16
f 173/44/16 174/43/16 175/45/16
f 175/45/16 176/46/16 173/44/16
f 177/40/16 178/39/16 179/41/16
f 179/41/16 180/42/16 177/40/16
f 181/39/16 182/40/16 183/41/16
f 184/42/16 183/41/16 182/40/16
f 185/43/16 186/44/16 187/45/16
f 188/46/16 187/45/16 186/44/16
f 189/39/16 190/40/16 191/41/16
f 192/42/16 191/41/16 190/40/16
f 193/40/15 194/39/15 195/41/15
f 195/41/15 196/42/15 193/40/15
f 197/44/15 198/43/15 199/45/15
f 199/45/15 200/46/15 197/44/15
f 201/40/15 202/39/15 203/41/15
f 203/41/15 204/42/15 201/40/15
f 205/39/15 206/40/15 207/41/15
f 208/42/15 207/41/15 206/40/15
f 209/43/15 210/44/15 211/45/15
f 212/46/15 211/45/15 210/44/15
f 213/39/15 214/40/15 215/41/15
f 216/42/15 215/41/15 214/40/15
f 217/40/15 218/39/15 219/41/15
f 219/41/15 220/42/15 217/40/15
f 221/44/15 222/43/15 223/45/15
f 223/45/15 224/46/15 221/44/15
f 225/40/15 226/39/15 227/41/15
f 227/41/15 228/42/15 225/40/15
f 229/40/16 230/39/16 231/41/16
f 231/41/16 232/42/16 229/40/16
f 233/44/16 234/43/16 235/45/16
f 235/45/16 236/46/16 233/44/16
f 237/40/16 238/39/16 239/41/16
f 239/41/16 240/42/16 237/40/16
f 241/39/16 242/40/16 243/41/16
f 244/42/16 243/41/16 242/40/16
f 245/43/16 246/44/16 247/45/16
f 248/46/16 247/45/16 246/44/16
f 249/39/16 250/40/16 251/41/16
f 252/42/16 251/41/16 250/40/16
f 253/39/17 254/40/17 255/41/17
f 256/42/17 255/41/17 254/40/17
f 257/43/17 258/44/17 259/45/17
f 260/46/17 259/45/17 258/44/17
f 261/39/17 262/40/17 263/41/17
f 264/42/17 263/41/17 262/40/17
f 265/40/18 266/39/18 267/41/18
f 267/41/18 268/42/18 265/40/18
f 269/44/18 270/43/18 271/45/18
f 271/45/18 272/46/18 269/44/18
f 273/40/18 274/39/18 275/41/18
f 275/41/18 276/42/18 273/40/18
f 277/39/19 278/40/18 279/41/18
f 280/42/18 279/41/18 278/40/18
f 281/43/18 282/44/18 283/45/18
f 284/46/18 283/45/18 282/44/18
f 285/39/18 286/40/18 287/41/18
f 288/42/18 287/41/18 286/40/18
f 289/40/17 290/39/17 291/41/17
f 291/41/17 292/42/17 289/40/17
f 293/44/17 294/43/17 295/45/17
f 295/45/17 296/46/17 293/44/17
f 297/40/17 298/39/17 299/41/17
f 299/41/17 300/42/17 297/40/17
f 301/39/17 302/40/17 303/41/17
f 304/42/17 303/41/17 302/40/17
f 305/43/20 306/44/20 307/45/20
f 308/46/20 307/45/20 306/44/20
f 309/39/17 310/40/17 311/41/17
f 312/42/17 311/41/17 310/40/17
f 313/40/17 314/39/17 315/41/17
f 315/41/17 316/42/17 313/40/17
f 317/44/17 318/43/17 319/45/17
f 319/45/17 320/46/17 317/44/17
f 321/40/17 322/39/17 323/41/17
f 323/41/17 324/42/17 321/40/17
f 325/40/18 326/39/18 327/41/18
f 327/41/18 328/42/18 325/40/18
f 329/44/18 330/43/18 331/45/18
f 331/45/18 332/46/18 329/44/18
f 333/40/18 334/39/18 335/41/18
f 335/41/18 336/42/18 333/40/18
f 337/39/18 338/40/18 339/41/18
f 340/42/19 339/41/18 338/40/18
f 341/43/18 342/44/18 343/45/18
f 344/46/18 343/45/18 342/44/18
f 345/39/18 346/40/18 347/41/18
f 348/42/18 347/41/18 346/40/18
f 349/39/21 350/40/21 351/41/21
f 352/42/21 351/41/21 350/40/21
f 353/43/22 354/44/21 355/45/21
f 356/46/21 355/45/21 354/44/21
f 357/39/23 358/40/23 359/41/23
f 360/42/24 359/41/23 358/40/23
f 361/40/25 362/39/25 363/41/25
f 363/41/25 364/42/25 361/40/25
f 365/44/26 366/43/26 367/45/26
f 367/45/26 368/46/26 365/44/26
f 369/40/27 370/39/27 371/41/27
f 371/41/27 372/42/27 369/40/27
f 373/39/28 374/40/28 375/41/28
f 376/42/28 375/41/28 374/40/28
f 377/43/25 378/44/25 379/45/25
f 380/46/26 379/45/25 378/44/25
f 381/47/29 382/48/29 383/49/29
f 384/50/29 383/49/29 382/48/29
f 385/40/30 386/39/30 387/41/30
f 387/41/30 388/42/30 385/40/30
f 389/44/22 390/43/21 391/45/22
f 391/45/22 392/46/22 389/44/22
f 393/48/31 394/47/31 395/49/31
f 395/49/31 396/50/31 393/48/31
f 397/39/21 398/40/21 399/41/21
f 400/42/21 399/41/21 398/40/21
f 401/43/21 402/44/22 403/45/22
f 404/46/22 403/45/22 402/44/22
f 405/39/32 406/40/32 407/41/32
f 408/42/32 407/41/32 406/40/32
f 409/40/30 410/39/30 411/41/30
f 411/41/30 412/42/30 409/40/30
f 413/44/22 414/43/22 415/45/22
f 415/45/22 416/46/21 413/44/22
f 417/48/31 418/47/31 419/49/31
f 419/49/31 420/50/31 417/48/31
f 421/40/26 422/39/26 423/41/26
f 423/41/26 424/42/25 421/40/26
f 425/44/26 426/43/26 427/45/26
f 427/45/26 428/46/25 425/44/26
f 429/40/33 430/39/34 431/41/33
f 431/41/33 432/42/33 429/40/33
f 433/39/28 434/40/28 435/41/28
f 436/42/28 435/41/28 434/40/28
f 437/43/25 438/44/25 439/45/25
f 440/46/26 439/45/25 438/44/25
f 441/47/29 442/48/29 443/49/29
f 444/50/29 443/49/29 442/48/29
f 445/44/35 446/43/35 447/45/36
f 447/45/36 448/46/36 445/44/35
f 449/39/37 450/40/37 451/41/37
f 452/42/37 451/41/37 450/40/37
f 453/43/38 454/44/38 455/45/38
f 456/46/38 455/45/38 454/44/38
f 457/39/37 458/40/37 459/41/37
f 460/42/37 459/41/37 458/40/37
f 461/39/39 462/40/39 463/41/39
f 464/42/39 463/41/39 462/40/39
f 465/43/40 466/44/40 467/45/40
f 468/46/40 467/45/40 466/44/40
f 469/40/41 470/39/41 471/41/41
f 471/41/41 472/42/41 469/40/41
f 473/44/42 474/43/42 475/45/42
f 475/45/42 476/46/43 473/44/42
f 477/40/41 478/39/41 479/41/41
f 479/41/41 480/42/41 477/40/41
f 481/40/44 482/39/44 483/41/45
f 483/41/45 484/42/45 481/40/44
f 485/39/46 486/40/46 487/41/46
f 488/42/46 487/41/46 486/40/46
f 489/40/47 490/39/47 491/41/47
f 491/41/47 492/42/47 489/40/47
f 493/39/48 494/40/48 495/41/48
f 496/42/48 495/41/48 494/40/48
f 497/1/6 498/2/6 499/3/6
f 500/4/6 499/3/6 498/2/6
f 501/5/49 502/6/49 503/7/6
f 504/8/6 503/7/6 502/6/49
f 505/9/6 501/5/49 506/10/6
f 503/7/6 506/10/6 501/5/49
f 507/11/1 508/12/1 509/13/1
f 510/14/1 509/13/1 508/12/1
f 511/15/3 512/16/3 513/17/50
f 514/18/3 513/17/50 512/16/3
f 515/19/3 511/15/3 516/20/3
f 513/17/50 516/20/3 511/15/3
f 517/21/3 515/19/3 518/22/3
f 516/20/3 518/22/3 515/19/3
f 519/23/3 517/21/3 520/24/3
f 518/22/3 520/24/3 517/21/3
f 521/25/4 522/12/4 523/26/4
f 524/27/4 523/26/4 522/12/4
f 525/25/1 507/11/1 509/13/1
f 526/28/6 506/10/6 510/29/6
f 510/29/6 508/23/6 526/28/6
f 514/18/3 512/16/3 525/2/3
f 525/2/51 509/30/51 514/18/51
f 500/31/6 498/32/6 521/33/6
f 521/33/6 523/34/6 500/31/6
f 519/35/3 520/36/3 524/37/3
f 524/37/3 522/38/3 519/35/3
f 526/28/6 505/9/6 506/10/6
