# Blender 4.4.3
# www.blender.org
mtllib WALLGA.mtl
o WALLGA
v 231.571365 16.628468 -399.290131
v 230.802322 16.628468 -398.808136
v 231.571365 13.087837 -399.290131
v 230.802322 13.087837 -398.808136
v 237.414032 16.628468 -402.951965
v 236.797089 16.628468 -402.565277
v 237.414032 13.087837 -402.951965
v 236.797089 13.087837 -402.565277
v 246.054504 16.628468 -408.367279
v 246.054504 13.087837 -408.367279
v 240.227310 16.628466 -417.664917
v 240.227310 13.087836 -417.664917
v 231.586823 16.628468 -412.249573
v 231.586823 13.087836 -412.249573
v 230.969894 16.628468 -411.862915
v 230.969894 13.087836 -411.862915
v 225.744171 16.628468 -408.587738
v 225.744171 13.087837 -408.587738
v 224.975128 16.628468 -408.105743
v 224.975128 13.087837 -408.105743
v -94.139755 13.686562 -689.144165
v -95.047348 13.686562 -689.146667
v -94.139755 10.145932 -689.144165
v -95.047348 10.145932 -689.146667
v -87.244438 13.686562 -689.125305
v -87.972534 13.686562 -689.127319
v -87.244438 10.145932 -689.125305
v -87.972534 10.145932 -689.127319
v -77.047234 13.686562 -689.097412
v -77.047234 10.145932 -689.097412
v -77.017212 13.686563 -700.070190
v -77.017212 10.145932 -700.070190
v -87.214417 13.686563 -700.098083
v -87.214417 10.145932 -700.098083
v -87.942505 13.686563 -700.100037
v -87.942505 10.145932 -700.100037
v -94.109726 13.686563 -700.116943
v -94.109726 10.145932 -700.116943
v -95.017326 13.686563 -700.119446
v -95.017326 10.145932 -700.119446
v 524.398132 1.685334 -192.608063
v 475.491791 1.685336 -178.023102
v 524.398132 0.215465 -192.608063
v 475.491791 0.215467 -178.023102
v 524.398132 -1.094085 -192.608063
v 475.491791 -1.094083 -178.023102
v 524.398132 -3.696516 -192.608063
v 475.491791 -3.696514 -178.023102
v 499.103912 1.685328 -277.424591
v 499.103912 0.215459 -277.424591
v 504.234314 0.215460 -260.221344
v 499.103912 -1.094091 -277.424591
v 522.989746 -1.094085 -197.330658
v 499.103912 -3.696522 -277.424591
v 450.197601 1.685329 -262.839630
v 450.197601 0.215460 -262.839630
v 450.197601 -1.094090 -262.839630
v 460.756439 -1.094090 -265.988525
v 450.197601 -3.696521 -262.839630
v 475.324371 -3.696522 -270.333008
v 522.989746 0.215465 -197.330658
v 519.876343 -1.094086 -207.770386
v 512.737183 -1.094087 -231.709518
v 519.876343 0.215464 -207.770386
v 512.723389 0.215463 -231.755661
v 509.104736 -1.094088 -243.889832
v 508.203827 -1.094089 -246.910706
v 509.118500 0.215462 -243.843689
v 508.203827 0.215461 -246.910706
v 504.195374 -1.094090 -260.351837
v 475.436005 -1.094090 -270.366302
v 467.675690 -3.696521 -268.052002
v 465.701630 -3.696521 -267.463287
v 467.756439 -1.094090 -268.076080
v 465.890106 -1.094090 -267.519501
v 460.769592 -3.696521 -265.992432
v -103.604736 14.937165 -690.263733
v -104.448586 14.937169 -639.235962
v -103.604736 13.467298 -690.263733
v -104.448586 13.467301 -639.235962
v -103.604736 12.157746 -690.263733
v -104.448586 12.157750 -639.235962
v -103.604736 9.555316 -690.263733
v -104.448586 9.555320 -639.235962
v -192.100494 14.937165 -691.727173
v -192.100494 13.467298 -691.727173
v -174.150986 13.467298 -691.430359
v -192.100494 12.157746 -691.727173
v -108.532181 12.157746 -690.345215
v -192.100494 9.555316 -691.727173
v -192.944336 14.937169 -640.699402
v -192.944336 13.467301 -640.699402
v -192.944336 12.157750 -640.699402
v -192.762146 12.157749 -651.716309
v -192.944336 9.555320 -640.699402
v -192.510788 9.555318 -666.916138
v -108.532181 13.467298 -690.345215
v -119.424767 12.157746 -690.525330
v -144.402359 12.157746 -690.938416
v -119.424774 13.467298 -690.525330
v -144.450500 13.467298 -690.939209
v -157.111023 12.157746 -691.148560
v -160.262939 12.157746 -691.200684
v -157.062897 13.467298 -691.147766
v -160.262939 13.467298 -691.200684
v -174.287140 12.157746 -691.432617
v -192.508865 12.157748 -667.032593
v -192.642761 9.555319 -658.935669
v -192.676819 9.555319 -656.875977
v -192.641373 12.157749 -659.019958
v -192.673569 12.157749 -657.072632
v -192.761932 9.555319 -651.729980
v -232.968231 15.895771 -653.352173
v -266.249756 15.895769 -682.906494
v -232.968231 14.166242 -653.352173
v -266.249756 14.166240 -682.906494
v -232.968231 12.625350 -653.352173
v -266.249756 12.625348 -682.906494
v -232.968231 9.563184 -653.352173
v -266.249756 9.563182 -682.906494
v -196.139908 15.895768 -694.408386
v -196.139908 14.166239 -694.408386
v -203.609756 14.166240 -686.080994
v -196.139908 12.625347 -694.408386
v -230.917633 12.625350 -655.638184
v -196.139908 9.563181 -694.408386
v -229.421417 15.895766 -723.962708
v -229.421417 14.166237 -723.962708
v -229.421417 12.625345 -723.962708
v -222.235962 12.625345 -717.581970
v -229.421417 9.563179 -723.962708
v -212.322266 9.563180 -708.778503
v -230.917633 14.166242 -655.638184
v -226.384567 12.625350 -660.691650
v -215.989929 12.625349 -672.279602
v -226.384567 14.166242 -660.691650
v -215.969879 14.166241 -672.301941
v -210.701096 12.625348 -678.175598
v -209.389389 12.625348 -679.637878
v -210.721115 14.166240 -678.153259
v -209.389389 14.166240 -679.637878
v -203.553101 12.625348 -686.144165
v -212.246292 12.625346 -708.710999
v -217.527298 9.563180 -713.400635
v -218.870667 9.563179 -714.593506
v -217.472336 12.625346 -713.351807
v -218.742401 12.625345 -714.479614
v -222.227020 9.563179 -717.574036
v 29.535892 -1.667713 -20.148691
v 29.535892 -1.667713 -27.604071
v 29.535892 1.730772 -20.148691
v 29.535892 1.730772 -27.604071
v 38.423203 -1.667713 -27.604071
v 38.423203 -1.667713 -20.148691
v 38.423203 1.730772 -27.604071
v 38.423203 1.730772 -20.148691
v 39.349342 -1.667713 -20.148691
v 39.349342 -1.667713 -27.604071
v 39.349346 1.730772 -20.148691
v 39.349342 1.730772 -27.604071
v 48.236652 -1.667713 -27.604071
v 48.236652 -1.667713 -20.148691
v 48.236656 1.730772 -27.604071
v 48.236656 1.730772 -20.148691
v 49.162521 -1.667713 -20.148691
v 49.162518 -1.667713 -27.604071
v 49.162521 1.730772 -20.148691
v 49.162521 1.730772 -27.604071
v 58.049831 -1.667713 -27.604073
v 58.049831 -1.667713 -20.148691
v 58.049831 1.730772 -27.604073
v 58.049831 1.730772 -20.148691
v 58.979263 -1.667713 -20.148691
v 58.979263 -1.667713 -27.604071
v 58.979263 1.730772 -20.148691
v 58.979263 1.730772 -27.604071
v 67.866577 -1.667713 -27.604071
v 67.866577 -1.667713 -20.148691
v 67.866577 1.730772 -27.604071
v 67.866577 1.730772 -20.148691
v 68.792717 -1.667713 -20.148691
v 68.792717 -1.667713 -27.604071
v 68.792717 1.730772 -20.148691
v 68.792717 1.730772 -27.604071
v 77.680023 -1.667713 -27.604071
v 77.680023 -1.667713 -20.148691
v 77.680023 1.730772 -27.604071
v 77.680023 1.730772 -20.148691
v 78.605888 -1.667713 -20.148691
v 78.605888 -1.667713 -27.604071
v 78.605888 1.730772 -20.148691
v 78.605888 1.730772 -27.604071
v 87.493202 -1.667713 -27.604073
v 87.493202 -1.667713 -20.148691
v 87.493202 1.730772 -27.604073
v 87.493202 1.730772 -20.148691
v 124.009766 -1.667713 -20.148691
v 124.009766 -1.667713 -27.604071
v 124.009766 1.730772 -20.148691
v 124.009766 1.730772 -27.604071
v 132.897079 -1.667713 -27.604071
v 132.897079 -1.667713 -20.148691
v 132.897079 1.730772 -27.604071
v 132.897079 1.730772 -20.148691
v 133.823212 -1.667713 -20.148691
v 133.823212 -1.667713 -27.604071
v 133.823212 1.730772 -20.148691
v 133.823212 1.730772 -27.604071
v 142.710526 -1.667713 -27.604071
v 142.710526 -1.667713 -20.148691
v 142.710526 1.730772 -27.604071
v 142.710526 1.730772 -20.148691
v 143.636398 -1.667713 -20.148691
v 143.636398 -1.667713 -27.604071
v 143.636398 1.730772 -20.148691
v 143.636398 1.730772 -27.604071
v 152.523712 -1.667713 -27.604073
v 152.523712 -1.667713 -20.148691
v 152.523712 1.730772 -27.604073
v 152.523712 1.730772 -20.148691
v 94.566383 -1.667713 -20.148691
v 94.566383 -1.667713 -27.604071
v 94.566383 1.730772 -20.148691
v 94.566383 1.730772 -27.604071
v 103.453690 -1.667713 -27.604071
v 103.453690 -1.667713 -20.148691
v 103.453697 1.730772 -27.604071
v 103.453697 1.730772 -20.148691
v 104.379837 -1.667713 -20.148691
v 104.379837 -1.667713 -27.604071
v 104.379837 1.730772 -20.148691
v 104.379837 1.730772 -27.604071
v 113.267143 -1.667713 -27.604071
v 113.267143 -1.667713 -20.148691
v 113.267143 1.730772 -27.604071
v 113.267143 1.730772 -20.148691
v 114.193008 -1.667713 -20.148691
v 114.193008 -1.667713 -27.604071
v 114.193008 1.730772 -20.148691
v 114.193008 1.730772 -27.604071
v 123.080322 -1.667713 -27.604073
v 123.080322 -1.667713 -20.148691
v 123.080322 1.730772 -27.604073
v 123.080322 1.730772 -20.148691
v -5.543466 -1.667713 -20.148691
v -5.543466 -1.667713 -27.604071
v -5.543465 1.730772 -20.148691
v -5.543465 1.730772 -27.604071
v 3.343845 -1.667713 -27.604071
v 3.343845 -1.667713 -20.148691
v 3.343846 1.730772 -27.604071
v 3.343846 1.730772 -20.148691
v 4.269987 -1.667713 -20.148691
v 4.269987 -1.667713 -27.604071
v 4.269988 1.730772 -20.148691
v 4.269987 1.730772 -27.604071
v 13.157297 -1.667713 -27.604071
v 13.157297 -1.667713 -20.148691
v 13.157298 1.730772 -27.604071
v 13.157299 1.730772 -20.148691
v 14.083163 -1.667713 -20.148691
v 14.083162 -1.667713 -27.604071
v 14.083163 1.730772 -20.148691
v 14.083163 1.730772 -27.604071
v 22.970474 -1.667713 -27.604073
v 22.970474 -1.667713 -20.148691
v 22.970474 1.730772 -27.604073
v 22.970474 1.730772 -20.148691
v -34.986862 -1.667713 -20.148691
v -34.986862 -1.667713 -27.604071
v -34.986862 1.730772 -20.148691
v -34.986862 1.730772 -27.604071
v -26.099552 -1.667713 -27.604071
v -26.099552 -1.667713 -20.148691
v -26.099552 1.730772 -27.604071
v -26.099552 1.730772 -20.148691
v -25.173410 -1.667713 -20.148691
v -25.173410 -1.667713 -27.604071
v -25.173410 1.730772 -20.148691
v -25.173410 1.730772 -27.604071
v -16.286100 -1.667713 -27.604071
v -16.286100 -1.667713 -20.148691
v -16.286098 1.730772 -27.604071
v -16.286098 1.730772 -20.148691
v -15.360234 -1.667713 -20.148691
v -15.360235 -1.667713 -27.604071
v -15.360234 1.730772 -20.148691
v -15.360234 1.730772 -27.604071
v -6.472922 -1.667713 -27.604073
v -6.472922 -1.667713 -20.148691
v -6.472922 1.730772 -27.604073
v -6.472922 1.730772 -20.148691
v 261.927795 16.628466 -417.898285
v 261.445801 16.628466 -418.667328
v 261.927795 13.087836 -417.898285
v 261.445801 13.087836 -418.667328
v 265.589600 16.628468 -412.055634
v 265.202942 16.628468 -412.672577
v 265.589600 13.087836 -412.055634
v 265.202942 13.087836 -412.672577
v 271.004944 16.628468 -403.415161
v 271.004944 13.087837 -403.415161
v 280.302582 16.628468 -409.242371
v 280.302582 13.087837 -409.242371
v 274.887238 16.628466 -417.882843
v 274.887238 13.087836 -417.882843
v 274.500580 16.628466 -418.499786
v 274.500580 13.087836 -418.499786
v 271.225403 16.628466 -423.725494
v 271.225403 13.087835 -423.725494
v 270.743408 16.628466 -424.494537
v 270.743408 13.087835 -424.494537
vn 0.5311 -0.0000 0.8473
vn 0.5310 -0.0000 0.8473
vn 0.5310 -0.0000 0.8474
vn 0.8473 -0.0000 -0.5311
vn -0.5311 -0.0000 -0.8473
vn -0.5310 -0.0000 -0.8473
vn -0.8473 -0.0000 0.5311
vn -0.0026 -0.0000 1.0000
vn -0.0029 -0.0000 1.0000
vn -0.0028 -0.0000 1.0000
vn -0.0027 -0.0000 1.0000
vn 1.0000 -0.0000 0.0027
vn 0.0027 -0.0000 -1.0000
vn 0.0029 -0.0000 -1.0000
vn -1.0000 -0.0000 -0.0027
vn 0.2858 -0.0000 0.9583
vn 0.9583 -0.0000 -0.2858
vn -0.2858 -0.0000 -0.9583
vn -0.9583 -0.0000 0.2858
vn 0.9583 0.0001 -0.2858
vn 0.9999 -0.0000 0.0165
vn 0.0165 -0.0000 -0.9999
vn -0.9999 -0.0000 -0.0165
vn -0.0165 -0.0000 0.9999
vn 0.0166 -0.0000 -0.9999
vn -0.6640 -0.0000 0.7477
vn 0.7444 -0.0000 0.6677
vn 0.6640 -0.0000 -0.7477
vn -0.7444 -0.0000 -0.6677
vn 1.0000 -0.0000 -0.0000
vn -1.0000 -0.0000 -0.0000
vn -0.0000 -0.0000 1.0000
vn -0.8473 -0.0000 0.5310
vn -0.8474 -0.0000 0.5310
vt 0.254354 1.999500
vt 0.002498 1.999500
vt 0.254354 1.000499
vt 0.002498 1.000499
vt 2.167793 1.999500
vt 1.965749 1.999500
vt 2.167793 1.000499
vt 1.965749 1.000499
vt 4.997501 1.999500
vt 4.997501 1.000499
vt 4.997500 1.999501
vt 0.002497 1.999500
vt 4.997500 1.000499
vt 0.002497 1.000499
vt 2.832206 1.999501
vt 0.002498 1.999501
vt 2.832206 1.000499
vt 3.034251 1.999501
vt 3.034251 1.000499
vt 4.745645 1.999501
vt 4.745645 1.000499
vt 4.997502 1.999501
vt 4.997502 1.000499
vt 3.621875 1.999501
vt -2.621878 1.999501
vt 3.621875 1.726657
vt -2.621878 1.726657
vt 3.621875 1.483573
vt -2.621878 1.483573
vt 3.621875 1.000499
vt -2.621878 1.000499
vt 3.275001 1.999501
vt -2.275002 1.999501
vt 3.275001 1.726657
vt -2.275002 1.726657
vt 2.149300 1.726657
vt 3.275001 1.483573
vt -2.275002 1.483573
vt -1.965978 1.483573
vt 3.275001 1.000499
vt -2.275002 1.000499
vt 2.273851 1.483573
vt 0.414000 1.000499
vt -1.965978 1.726657
vt -1.282850 1.483573
vt 0.283617 1.483573
vt -1.282850 1.726657
vt 0.286636 1.726657
vt 1.080640 1.483573
vt 1.278312 1.483573
vt 1.077621 1.726657
vt 1.278312 1.726657
vt 2.157839 1.483573
vt 0.399748 1.483573
vt 1.390489 1.000499
vt 1.642511 1.000499
vt 1.380178 1.483573
vt 1.618447 1.483573
vt 2.272175 1.000499
vt 0.000500 1.000500
vt 0.999500 1.000500
vt 0.000500 1.999501
vt 0.999500 1.999501
vt 0.000500 1.000499
vt 0.999500 1.000499
s 1
usemtl WALLGA.012
f 1/1/1 2/2/1 3/3/1
f 4/4/1 3/3/1 2/2/1
f 5/5/1 6/6/1 7/7/2
f 8/8/3 7/7/2 6/6/1
f 9/9/1 5/5/1 10/10/1
f 7/7/2 10/10/1 5/5/1
f 11/11/4 9/12/4 12/13/4
f 10/14/4 12/13/4 9/12/4
f 13/15/5 11/16/5 14/17/6
f 12/4/5 14/17/5 11/16/5
f 15/18/5 13/15/5 16/19/6
f 14/17/6 16/19/6 13/15/5
f 17/20/5 15/18/5 18/21/5
f 16/19/6 18/21/5 15/18/5
f 19/22/5 17/20/5 20/23/5
f 18/21/5 20/23/5 17/20/5
f 2/9/7 19/16/7 4/10/7
f 20/4/7 4/10/7 19/16/7
f 21/1/8 22/2/8 23/3/8
f 24/4/9 23/3/9 22/2/9
f 25/5/10 26/6/10 27/7/11
f 28/8/11 27/7/11 26/6/10
f 29/9/11 25/5/11 30/10/11
f 27/7/11 30/10/11 25/5/10
f 31/11/12 29/12/12 32/13/12
f 30/14/12 32/13/12 29/12/12
f 33/15/13 31/16/13 34/17/13
f 32/4/13 34/17/13 31/16/13
f 35/18/13 33/15/13 36/19/13
f 34/17/13 36/19/13 33/15/13
f 37/20/13 35/18/13 38/21/13
f 36/19/13 38/21/13 35/18/13
f 39/22/14 37/20/14 40/23/14
f 38/21/13 40/23/13 37/20/13
f 22/9/15 39/16/15 24/10/15
f 40/4/15 24/10/15 39/16/15
f 41/24/16 42/25/16 43/26/16
f 44/27/16 43/26/16 42/25/16
f 43/26/16 44/27/16 45/28/16
f 46/29/16 45/28/16 44/27/16
f 45/28/16 46/29/16 47/30/16
f 48/31/16 47/30/16 46/29/16
f 49/32/17 41/33/17 50/34/17
f 43/35/17 50/34/17 41/33/17
f 50/34/17 51/36/17 52/37/17
f 45/38/17 53/39/17 43/35/17
f 52/37/17 45/38/17 54/40/17
f 47/41/17 54/40/17 45/38/17
f 55/24/18 49/25/18 56/26/18
f 50/27/18 56/26/18 49/25/18
f 56/26/18 50/27/18 57/28/18
f 52/29/18 57/28/18 50/27/18
f 57/28/18 58/42/18 59/30/18
f 54/31/18 60/43/18 52/29/18
f 42/32/19 55/33/19 44/34/19
f 56/35/19 44/34/19 55/33/19
f 44/34/19 56/35/19 46/37/19
f 57/38/19 46/37/19 56/35/19
f 46/37/19 57/38/19 48/40/19
f 59/41/19 48/40/19 57/38/19
f 53/39/17 61/44/17 43/35/17
f 62/45/17 63/46/20 64/47/17
f 63/46/20 65/48/20 64/47/17
f 66/49/17 67/50/17 68/51/17
f 67/50/17 69/52/17 68/51/17
f 70/53/17 52/37/17 51/36/17
f 60/43/18 71/54/18 52/29/18
f 72/55/18 73/56/18 74/57/18
f 73/56/18 75/58/18 74/57/18
f 76/59/18 59/30/18 58/42/18
f 77/24/21 78/25/21 79/26/21
f 80/27/21 79/26/21 78/25/21
f 79/26/21 80/27/21 81/28/21
f 82/29/21 81/28/21 80/27/21
f 81/28/21 82/29/21 83/30/21
f 84/31/21 83/30/21 82/29/21
f 85/32/22 77/33/22 86/34/22
f 79/35/22 86/34/22 77/33/22
f 86/34/22 87/36/22 88/37/22
f 81/38/22 89/39/22 79/35/22
f 88/37/22 81/38/22 90/40/22
f 83/41/22 90/40/22 81/38/22
f 91/24/23 85/25/23 92/26/23
f 86/27/23 92/26/23 85/25/23
f 92/26/23 86/27/23 93/28/23
f 88/29/23 93/28/23 86/27/23
f 93/28/23 94/42/23 95/30/23
f 90/31/23 96/43/23 88/29/23
f 78/32/24 91/33/24 80/34/24
f 92/35/24 80/34/24 91/33/24
f 80/34/24 92/35/24 82/37/24
f 93/38/24 82/37/24 92/35/24
f 82/37/24 93/38/24 84/40/24
f 95/41/24 84/40/24 93/38/24
f 89/39/22 97/44/25 79/35/22
f 98/45/22 99/46/22 100/47/22
f 99/46/22 101/48/22 100/47/22
f 102/49/22 103/50/22 104/51/22
f 103/50/22 105/52/22 104/51/22
f 106/53/22 88/37/22 87/36/22
f 96/43/23 107/54/23 88/29/23
f 108/55/23 109/56/23 110/57/23
f 109/56/23 111/58/23 110/57/23
f 112/59/23 95/30/23 94/42/23
f 113/24/26 114/25/26 115/26/26
f 116/27/26 115/26/26 114/25/26
f 115/26/26 116/27/26 117/28/26
f 118/29/26 117/28/26 116/27/26
f 117/28/26 118/29/26 119/30/26
f 120/31/26 119/30/26 118/29/26
f 121/32/27 113/33/27 122/34/27
f 115/35/27 122/34/27 113/33/27
f 122/34/27 123/36/27 124/37/27
f 117/38/27 125/39/27 115/35/27
f 124/37/27 117/38/27 126/40/27
f 119/41/27 126/40/27 117/38/27
f 127/24/28 121/25/28 128/26/28
f 122/27/28 128/26/28 121/25/28
f 128/26/28 122/27/28 129/28/28
f 124/29/28 129/28/28 122/27/28
f 129/28/28 130/42/28 131/30/28
f 126/31/28 132/43/28 124/29/28
f 114/32/29 127/33/29 116/34/29
f 128/35/29 116/34/29 127/33/29
f 116/34/29 128/35/29 118/37/29
f 129/38/29 118/37/29 128/35/29
f 118/37/29 129/38/29 120/40/29
f 131/41/29 120/40/29 129/38/29
f 125/39/27 133/44/27 115/35/27
f 134/45/27 135/46/27 136/47/27
f 135/46/27 137/48/27 136/47/27
f 138/49/27 139/50/27 140/51/27
f 139/50/27 141/52/27 140/51/27
f 142/53/27 124/37/27 123/36/27
f 132/43/28 143/54/28 124/29/28
f 144/55/28 145/56/28 146/57/28
f 145/56/28 147/58/28 146/57/28
f 148/59/28 131/30/28 130/42/28
f 149/60/30 150/61/30 151/62/30
f 152/63/30 151/62/30 150/61/30
f 153/64/31 154/65/31 155/62/31
f 156/63/31 155/62/31 154/65/31
f 150/60/32 153/65/32 152/62/32
f 155/63/32 152/62/32 153/65/32
f 157/60/30 158/61/30 159/62/30
f 160/63/30 159/62/30 158/61/30
f 161/64/31 162/65/31 163/62/31
f 164/63/31 163/62/31 162/65/31
f 158/60/32 161/65/32 160/62/32
f 163/63/32 160/62/32 161/65/32
f 165/60/30 166/61/30 167/62/30
f 168/63/30 167/62/30 166/61/30
f 169/64/31 170/65/31 171/62/31
f 172/63/31 171/62/31 170/65/31
f 166/60/32 169/65/32 168/62/32
f 171/63/32 168/62/32 169/65/32
f 173/60/30 174/61/30 175/62/30
f 176/63/30 175/62/30 174/61/30
f 177/64/31 178/65/31 179/62/31
f 180/63/31 179/62/31 178/65/31
f 174/60/32 177/65/32 176/62/32
f 179/63/32 176/62/32 177/65/32
f 181/60/30 182/61/30 183/62/30
f 184/63/30 183/62/30 182/61/30
f 185/64/31 186/65/31 187/62/31
f 188/63/31 187/62/31 186/65/31
f 182/60/32 185/65/32 184/62/32
f 187/63/32 184/62/32 185/65/32
f 189/60/30 190/61/30 191/62/30
f 192/63/30 191/62/30 190/61/30
f 193/64/31 194/65/31 195/62/31
f 196/63/31 195/62/31 194/65/31
f 190/60/32 193/65/32 192/62/32
f 195/63/32 192/62/32 193/65/32
f 197/60/30 198/61/30 199/62/30
f 200/63/30 199/62/30 198/61/30
f 201/64/31 202/65/31 203/62/31
f 204/63/31 203/62/31 202/65/31
f 198/60/32 201/65/32 200/62/32
f 203/63/32 200/62/32 201/65/32
f 205/60/30 206/61/30 207/62/30
f 208/63/30 207/62/30 206/61/30
f 209/64/31 210/65/31 211/62/31
f 212/63/31 211/62/31 210/65/31
f 206/60/32 209/65/32 208/62/32
f 211/63/32 208/62/32 209/65/32
f 213/60/30 214/61/30 215/62/30
f 216/63/30 215/62/30 214/61/30
f 217/64/31 218/65/31 219/62/31
f 220/63/31 219/62/31 218/65/31
f 214/60/32 217/65/32 216/62/32
f 219/63/32 216/62/32 217/65/32
f 221/60/30 222/61/30 223/62/30
f 224/63/30 223/62/30 222/61/30
f 225/64/31 226/65/31 227/62/31
f 228/63/31 227/62/31 226/65/31
f 222/60/32 225/65/32 224/62/32
f 227/63/32 224/62/32 225/65/32
f 229/60/30 230/61/30 231/62/30
f 232/63/30 231/62/30 230/61/30
f 233/64/31 234/65/31 235/62/31
f 236/63/31 235/62/31 234/65/31
f 230/60/32 233/65/32 232/62/32
f 235/63/32 232/62/32 233/65/32
f 237/60/30 238/61/30 239/62/30
f 240/63/30 239/62/30 238/61/30
f 241/64/31 242/65/31 243/62/31
f 244/63/31 243/62/31 242/65/31
f 238/60/32 241/65/32 240/62/32
f 243/63/32 240/62/32 241/65/32
f 245/60/30 246/61/30 247/62/30
f 248/63/30 247/62/30 246/61/30
f 249/64/31 250/65/31 251/62/31
f 252/63/31 251/62/31 250/65/31
f 246/60/32 249/65/32 248/62/32
f 251/63/32 248/62/32 249/65/32
f 253/60/30 254/61/30 255/62/30
f 256/63/30 255/62/30 254/61/30
f 257/64/31 258/65/31 259/62/31
f 260/63/31 259/62/31 258/65/31
f 254/60/32 257/65/32 256/62/32
f 259/63/32 256/62/32 257/65/32
f 261/60/30 262/61/30 263/62/30
f 264/63/30 263/62/30 262/61/30
f 265/64/31 266/65/31 267/62/31
f 268/63/31 267/62/31 266/65/31
f 262/60/32 265/65/32 264/62/32
f 267/63/32 264/62/32 265/65/32
f 269/60/30 270/61/30 271/62/30
f 272/63/30 271/62/30 270/61/30
f 273/64/31 274/65/31 275/62/31
f 276/63/31 275/62/31 274/65/31
f 270/60/32 273/65/32 272/62/32
f 275/63/32 272/62/32 273/65/32
f 277/60/30 278/61/30 279/62/30
f 280/63/30 279/62/30 278/61/30
f 281/64/31 282/65/31 283/62/31
f 284/63/31 283/62/31 282/65/31
f 278/60/32 281/65/32 280/62/32
f 283/63/32 280/62/32 281/65/32
f 285/60/30 286/61/30 287/62/30
f 288/63/30 287/62/30 286/61/30
f 289/64/31 290/65/31 291/62/31
f 292/63/31 291/62/31 290/65/31
f 286/60/32 289/65/32 288/62/32
f 291/63/32 288/62/32 289/65/32
f 293/1/7 294/2/7 295/3/7
f 296/4/7 295/3/7 294/2/7
f 297/5/7 298/6/7 299/7/33
f 300/8/34 299/7/33 298/6/7
f 301/9/7 297/5/7 302/10/7
f 299/7/33 302/10/7 297/5/7
f 303/11/1 301/12/1 304/13/1
f 302/14/1 304/13/1 301/12/1
f 305/15/4 303/16/4 306/17/4
f 304/4/4 306/17/4 303/16/4
f 307/18/4 305/15/4 308/19/4
f 306/17/4 308/19/4 305/15/4
f 309/20/4 307/18/4 310/21/4
f 308/19/4 310/21/4 307/18/4
f 311/22/4 309/20/4 312/23/4
f 310/21/4 312/23/4 309/20/4
f 294/9/5 311/16/5 296/10/5
f 312/4/5 296/10/5 311/16/5
