# Blender 4.4.3
# www.blender.org
mtllib WALL_BAIG.mtl
o WALL_BAIG
v 58.966900 2.256972 -5.764762
v 58.966904 2.256973 -7.395514
v 58.966900 1.286785 -5.764763
v 58.966904 1.286784 -7.395514
v 60.261875 2.256972 -7.395515
v 60.261871 2.256972 -5.764762
v 60.261871 1.286785 -5.764763
v 60.261875 1.286784 -7.395515
v 103.453659 -1.457220 -20.042313
v 103.453659 -1.457219 -19.729563
v 103.453659 1.730763 -20.042313
v 104.379799 -1.457220 -20.042313
v 104.379799 1.730763 -20.042313
v 104.379799 1.730764 -19.729563
v 104.379799 -1.457219 -19.729563
v 103.453659 1.730764 -19.729563
v 113.266991 -1.457220 -20.042313
v 113.266991 -1.457219 -19.729563
v 113.266991 1.730763 -20.042313
v 114.192978 -1.457220 -20.042313
v 114.192978 1.730763 -20.042313
v 114.192978 1.730764 -19.729563
v 114.192978 -1.457219 -19.729563
v 113.266991 1.730764 -19.729563
v 123.080292 -1.457220 -20.042313
v 123.080292 -1.457219 -19.729563
v 123.080292 1.730763 -20.042313
v 124.009727 -1.457220 -20.042313
v 124.009727 1.730763 -20.042313
v 124.009727 1.730764 -19.729563
v 124.009727 -1.457219 -19.729563
v 123.080292 1.730764 -19.729563
v 93.640213 -1.457219 -30.662745
v 93.640213 -1.457219 -19.729563
v 93.640213 1.730764 -30.662745
v 94.566353 -1.457220 -20.042313
v 94.566353 1.730763 -20.042313
v 94.566353 1.730764 -19.729563
v 94.566353 -1.457219 -19.729563
v 93.640213 1.730764 -19.729563
v 132.897034 -1.457220 -20.042313
v 132.897034 -1.457219 -19.729563
v 132.897034 1.730763 -20.042313
v 133.823181 -1.457220 -20.042313
v 133.823181 1.730763 -20.042313
v 133.823181 1.730764 -19.729563
v 133.823181 -1.457219 -19.729563
v 132.897034 1.730764 -19.729563
v 142.710373 -1.457220 -20.042313
v 142.710373 -1.457219 -19.729563
v 142.710358 1.730763 -20.042313
v 143.636353 -1.457220 -20.042313
v 143.636353 1.730763 -20.042313
v 143.636353 1.730764 -19.729563
v 143.636353 -1.457219 -19.729563
v 142.710373 1.730764 -19.729563
v 152.523666 -1.457220 -20.042313
v 152.523666 -1.457219 -19.729563
v 152.523651 1.730763 -20.042313
v 153.449677 -1.457219 -30.662745
v 153.449677 1.730764 -30.662745
v 153.449677 1.730764 -19.729563
v 153.449677 -1.457219 -19.729563
v 152.523666 1.730764 -19.729563
v 38.423210 -1.457220 -20.042313
v 38.423210 -1.457219 -19.729563
v 38.423210 1.730763 -20.042313
v 39.349350 -1.457220 -20.042313
v 39.349350 1.730763 -20.042313
v 39.349350 1.730764 -19.729563
v 39.349350 -1.457219 -19.729563
v 38.423210 1.730764 -19.729563
v 48.236542 -1.457220 -20.042313
v 48.236542 -1.457219 -19.729563
v 48.236538 1.730763 -20.042313
v 49.162521 -1.457220 -20.042313
v 49.162521 1.730763 -20.042313
v 49.162521 1.730764 -19.729563
v 49.162521 -1.457219 -19.729563
v 48.236542 1.730764 -19.729563
v 58.049839 -1.457220 -20.042313
v 58.049839 -1.457219 -19.729563
v 58.049839 1.730763 -20.042313
v 58.979275 -1.457220 -20.042313
v 58.979275 1.730763 -20.042313
v 58.979275 1.730764 -19.729563
v 58.979275 -1.457219 -19.729563
v 58.049839 1.730764 -19.729563
v 28.609756 -1.457219 -30.662745
v 28.609756 -1.457219 -19.729563
v 28.609756 1.730764 -30.662745
v 29.535896 -1.457220 -20.042313
v 29.535896 1.730763 -20.042313
v 29.535896 1.730764 -19.729563
v 29.535896 -1.457219 -19.729563
v 28.609756 1.730764 -19.729563
v 67.866592 -1.457220 -20.042313
v 67.866592 -1.457219 -19.729563
v 67.866577 1.730763 -20.042313
v 68.792725 -1.457220 -20.042313
v 68.792725 1.730763 -20.042313
v 68.792725 1.730764 -19.729563
v 68.792725 -1.457219 -19.729563
v 67.866592 1.730764 -19.729563
v 77.679916 -1.457220 -20.042313
v 77.679916 -1.457219 -19.729563
v 77.679909 1.730763 -20.042313
v 78.605896 -1.457220 -20.042313
v 78.605896 1.730763 -20.042313
v 78.605896 1.730764 -19.729563
v 78.605896 -1.457219 -19.729563
v 77.679916 1.730764 -19.729563
v 87.493217 -1.457220 -20.042313
v 87.493217 -1.457219 -19.729563
v 87.493202 1.730763 -20.042313
v 88.419228 -1.457219 -30.662745
v 88.419228 1.730764 -30.662745
v 88.419228 1.730764 -19.729563
v 88.419228 -1.457219 -19.729563
v 87.493217 1.730764 -19.729563
v -26.099579 -1.457220 -20.042313
v -26.099579 -1.457219 -19.729563
v -26.099579 1.730763 -20.042313
v -25.173447 -1.457220 -20.042313
v -25.173447 1.730763 -20.042313
v -25.173447 1.730764 -19.729563
v -25.173447 -1.457219 -19.729563
v -26.099579 1.730764 -19.729563
v -16.286255 -1.457220 -20.042313
v -16.286255 -1.457219 -19.729563
v -16.286255 1.730763 -20.042313
v -15.360268 -1.457220 -20.042313
v -15.360268 1.730763 -20.042313
v -15.360268 1.730764 -19.729563
v -15.360268 -1.457219 -19.729563
v -16.286255 1.730764 -19.729563
v -6.472954 -1.457220 -20.042313
v -6.472954 -1.457219 -19.729563
v -6.472961 1.730763 -20.042313
v -5.543518 -1.457220 -20.042313
v -5.543518 1.730763 -20.042313
v -5.543518 1.730764 -19.729563
v -5.543518 -1.457219 -19.729563
v -6.472954 1.730764 -19.729563
v -35.913040 -1.457219 -30.662745
v -35.913040 -1.457219 -19.729563
v -35.913040 1.730764 -30.662745
v -34.986893 -1.457220 -20.042313
v -34.986893 1.730763 -20.042313
v -34.986893 1.730764 -19.729563
v -34.986893 -1.457219 -19.729563
v -35.913040 1.730764 -19.729563
v 3.343796 -1.457220 -20.042313
v 3.343796 -1.457219 -19.729563
v 3.343788 1.730763 -20.042313
v 4.269928 -1.457220 -20.042313
v 4.269928 1.730763 -20.042313
v 4.269928 1.730764 -19.729563
v 4.269928 -1.457219 -19.729563
v 3.343796 1.730764 -19.729563
v 13.157120 -1.457220 -20.042313
v 13.157120 -1.457219 -19.729563
v 13.157120 1.730763 -20.042313
v 14.083107 -1.457220 -20.042313
v 14.083107 1.730763 -20.042313
v 14.083107 1.730764 -19.729563
v 14.083107 -1.457219 -19.729563
v 13.157120 1.730764 -19.729563
v 22.970428 -1.457220 -20.042313
v 22.970428 -1.457219 -19.729563
v 22.970413 1.730763 -20.042313
v 23.896431 -1.457219 -30.662745
v 23.896431 1.730764 -30.662745
v 23.896431 1.730764 -19.729563
v 23.896431 -1.457219 -19.729563
v 22.970428 1.730764 -19.729563
v -35.966846 3.169320 -30.760189
v -35.966846 3.169321 -20.097706
v -35.966846 4.813960 -20.097706
v -35.966846 4.813959 -30.760189
v -16.669785 3.169320 -30.760189
v -16.669785 4.813959 -30.760189
v 4.582371 3.169320 -30.760189
v 4.582371 4.813959 -30.760189
v 23.955832 3.169321 -20.097704
v 23.955832 3.169320 -30.760189
v 23.955832 4.813959 -30.760189
v 23.955832 4.813960 -20.097706
v 28.555897 3.169320 -30.760189
v 28.555897 3.169321 -20.097706
v 28.555897 4.813960 -20.097706
v 28.555897 4.813959 -30.760189
v 47.852959 3.169320 -30.760189
v 47.852959 4.813959 -30.760189
v 69.105118 3.169320 -30.760189
v 69.105118 4.813959 -30.760189
v 88.478577 3.169321 -20.097704
v 88.478577 3.169320 -30.760189
v 88.478577 4.813959 -30.760189
v 88.478577 4.813960 -20.097706
v 93.586380 3.169320 -30.760189
v 93.586380 3.169321 -20.097706
v 93.586380 4.813960 -20.097706
v 93.586380 4.813959 -30.760189
v 112.883446 3.169320 -30.760189
v 112.883446 4.813959 -30.760189
v 134.135605 3.169320 -30.760189
v 134.135605 4.813959 -30.760189
v 153.509064 3.169321 -20.097704
v 153.509064 3.169320 -30.760189
v 153.509064 4.813959 -30.760189
v 153.509064 4.813960 -20.097706
v 274.887238 17.826067 -417.882843
v 265.589600 17.826069 -412.055634
v 265.589600 19.426069 -412.055634
v 274.887238 19.426067 -417.882843
v 280.302582 17.826069 -409.242371
v 280.302582 19.426069 -409.242371
v 266.954163 17.826069 -409.878418
v 266.961029 19.426069 -409.867493
v 274.887238 20.126068 -417.882843
v 265.589600 20.126070 -412.055634
v 265.589600 21.526070 -412.055634
v 274.887238 21.526068 -417.882843
v 280.302582 20.126070 -409.242371
v 278.940643 20.126070 -411.415405
v 278.941467 21.526070 -411.414062
v 280.302582 21.526070 -409.242371
v 266.964020 20.126070 -409.862701
v 266.970001 21.526070 -409.853149
v 277.462433 17.826069 -407.462341
v 277.488098 19.426069 -407.478394
v 278.007446 20.126070 -407.803925
v 277.985596 21.526070 -407.790222
v 276.219788 20.126070 -415.756683
v 276.214294 21.526070 -415.765472
vn -1.0000 -0.0000 -0.0000
vn 1.0000 -0.0000 -0.0000
vn -0.0000 -0.0000 1.0000
vn -0.0000 -0.0000 -1.0000
vn -0.5311 -0.0000 -0.8473
vn 0.8473 -0.0000 -0.5311
vn -0.8473 -0.0000 0.5311
vn 0.5311 -0.0000 0.8473
vt 0.000499 1.000499
vt 0.999499 1.000499
vt 0.000500 1.999500
vt 0.999499 1.999500
vt 0.000500 1.000500
vt 0.999501 1.000500
vt 0.999500 1.999500
vt 0.000500 1.999501
vt 0.000503 1.000500
vt 0.999501 1.000499
vt 0.999501 1.999500
vt 0.000503 1.999500
vt 0.523674 1.000500
vt 0.756177 1.000500
vt 0.523674 1.994812
vt 0.689748 1.000499
vt 0.689748 1.999501
vt 0.432755 1.999501
vt 0.999500 1.999501
vt 0.756177 1.994812
vt 0.432755 1.000499
vt 0.004995 1.000500
vt 9.994991 1.000500
vt 0.004995 1.999501
vt 9.994991 1.999501
vt 0.005009 1.000499
vt 0.005009 1.999500
vt 9.995005 1.999500
vt 9.995005 1.000499
vt 9.994989 1.000500
vt 0.005012 1.000500
vt 9.994989 1.999501
vt 0.005012 1.999500
vt 9.994993 1.000501
vt 9.994993 1.999501
vt 0.005016 1.999501
vt 0.005016 1.000500
vt 9.994985 1.000499
vt 0.005007 1.000499
vt 9.994985 1.999500
vt 0.005007 1.999499
vt 9.994988 1.000500
vt 9.994988 1.999500
vt 0.005011 1.999500
vt 0.005011 1.000499
vt -0.069578 1.474671
vt 2.820911 1.474671
vt 2.820911 1.999524
vt -0.069579 1.999524
vt 4.833158 1.000499
vt 0.007493 1.000499
vt 0.007493 1.999500
vt 4.833158 1.999500
vt 10.147738 1.000499
vt 10.147738 1.999500
vt 0.179085 1.474671
vt 3.069574 1.474671
vt 3.069574 1.999524
vt 0.179085 1.999524
vt 14.992507 1.000499
vt 14.992507 1.999500
vt 0.002498 1.000499
vt 4.997502 1.000499
vt 4.997502 1.999500
vt 0.002498 1.999500
vt 0.002497 1.000499
vt 4.997501 1.000499
vt 4.997501 1.999500
vt 0.002497 1.999500
vt 0.000999 1.000499
vt 1.976085 1.000499
vt 1.985995 1.432500
vt 0.000999 1.432500
vt 0.000000 1.000000
vt 5.000000 1.000000
vt 5.000000 2.000000
vt 0.000000 2.000000
vt 3.741283 1.000499
vt 3.742046 1.999501
vt 4.997502 1.999501
vt 0.000999 1.621500
vt 1.990331 1.621500
vt 1.999001 1.999501
vt 0.000999 1.999501
vt 3.471679 1.000499
vt 3.485463 1.999500
vt -1.834714 1.000500
vt -0.845136 1.000499
vt -0.845136 1.999501
vt -1.844137 1.999501
vt 1.231618 1.000499
vt 0.002498 1.999501
vt 1.226538 1.999501
s 1
usemtl WALL_BAIG.003
f 1/1/1 2/2/1 3/3/1
f 4/4/1 3/3/1 2/2/1
f 5/5/2 6/6/2 7/7/2
f 7/7/2 8/8/2 5/5/2
f 6/9/3 1/10/3 3/11/3
f 3/11/3 7/12/3 6/9/3
f 9/13/1 10/14/1 11/15/1
f 12/16/2 13/17/2 14/18/2
f 15/2/3 14/19/3 16/8/3
f 10/14/1 16/20/1 11/15/1
f 10/1/3 15/2/3 16/8/3
f 15/21/2 12/16/2 14/18/2
f 17/13/1 18/14/1 19/15/1
f 20/16/2 21/17/2 22/18/2
f 23/2/3 22/19/3 24/8/3
f 18/14/1 24/20/1 19/15/1
f 18/1/3 23/2/3 24/8/3
f 23/21/2 20/16/2 22/18/2
f 25/13/1 26/14/1 27/15/1
f 28/16/2 29/17/2 30/18/2
f 31/2/3 30/19/3 32/8/3
f 26/14/1 32/20/1 27/15/1
f 26/1/3 31/2/3 32/8/3
f 31/21/2 28/16/2 30/18/2
f 33/22/1 34/23/1 35/24/1
f 36/16/2 37/17/2 38/18/2
f 39/2/3 38/19/3 40/8/3
f 34/23/1 40/25/1 35/24/1
f 34/1/3 39/2/3 40/8/3
f 39/21/2 36/16/2 38/18/2
f 41/13/1 42/14/1 43/15/1
f 44/16/2 45/17/2 46/18/2
f 47/2/3 46/19/3 48/8/3
f 42/14/1 48/20/1 43/15/1
f 42/1/3 47/2/3 48/8/3
f 47/21/2 44/16/2 46/18/2
f 49/13/1 50/14/1 51/15/1
f 52/16/2 53/17/2 54/18/2
f 55/2/3 54/19/3 56/8/3
f 50/14/1 56/20/1 51/15/1
f 50/1/3 55/2/3 56/8/3
f 55/21/2 52/16/2 54/18/2
f 57/13/1 58/14/1 59/15/1
f 60/26/2 61/27/2 62/28/2
f 63/2/3 62/19/3 64/8/3
f 58/14/1 64/20/1 59/15/1
f 58/1/3 63/2/3 64/8/3
f 63/29/2 60/26/2 62/28/2
f 65/13/1 66/14/1 67/15/1
f 68/16/2 69/17/2 70/18/2
f 71/2/3 70/19/3 72/8/3
f 66/14/1 72/20/1 67/15/1
f 66/1/3 71/2/3 72/8/3
f 71/21/2 68/16/2 70/18/2
f 73/13/1 74/14/1 75/15/1
f 76/16/2 77/17/2 78/18/2
f 79/2/3 78/19/3 80/8/3
f 74/14/1 80/20/1 75/15/1
f 74/1/3 79/2/3 80/8/3
f 79/21/2 76/16/2 78/18/2
f 81/13/1 82/14/1 83/15/1
f 84/16/2 85/17/2 86/18/2
f 87/2/3 86/19/3 88/8/3
f 82/14/1 88/20/1 83/15/1
f 82/1/3 87/2/3 88/8/3
f 87/21/2 84/16/2 86/18/2
f 89/30/1 90/31/1 91/32/1
f 92/16/2 93/17/2 94/18/2
f 95/2/3 94/19/3 96/8/3
f 90/31/1 96/33/1 91/32/1
f 90/1/3 95/2/3 96/8/3
f 95/21/2 92/16/2 94/18/2
f 97/13/1 98/14/1 99/15/1
f 100/16/2 101/17/2 102/18/2
f 103/2/3 102/19/3 104/8/3
f 98/14/1 104/20/1 99/15/1
f 98/1/3 103/2/3 104/8/3
f 103/21/2 100/16/2 102/18/2
f 105/13/1 106/14/1 107/15/1
f 108/16/2 109/17/2 110/18/2
f 111/2/3 110/19/3 112/8/3
f 106/14/1 112/20/1 107/15/1
f 106/1/3 111/2/3 112/8/3
f 111/21/2 108/16/2 110/18/2
f 113/13/1 114/14/1 115/15/1
f 116/34/2 117/35/2 118/36/2
f 119/2/3 118/19/3 120/8/3
f 114/14/1 120/20/1 115/15/1
f 114/1/3 119/2/3 120/8/3
f 119/37/2 116/34/2 118/36/2
f 121/13/1 122/14/1 123/15/1
f 124/16/2 125/17/2 126/18/2
f 127/2/3 126/19/3 128/8/3
f 122/14/1 128/20/1 123/15/1
f 122/1/3 127/2/3 128/8/3
f 127/21/2 124/16/2 126/18/2
f 129/13/1 130/14/1 131/15/1
f 132/16/2 133/17/2 134/18/2
f 135/2/3 134/19/3 136/8/3
f 130/14/1 136/20/1 131/15/1
f 130/1/3 135/2/3 136/8/3
f 135/21/2 132/16/2 134/18/2
f 137/13/1 138/14/1 139/15/1
f 140/16/2 141/17/2 142/18/2
f 143/2/3 142/19/3 144/8/3
f 138/14/1 144/20/1 139/15/1
f 138/1/3 143/2/3 144/8/3
f 143/21/2 140/16/2 142/18/2
f 145/38/1 146/39/1 147/40/1
f 148/16/2 149/17/2 150/18/2
f 151/2/3 150/19/3 152/8/3
f 146/39/1 152/41/1 147/40/1
f 146/1/3 151/2/3 152/8/3
f 151/21/2 148/16/2 150/18/2
f 153/13/1 154/14/1 155/15/1
f 156/16/2 157/17/2 158/18/2
f 159/2/3 158/19/3 160/8/3
f 154/14/1 160/20/1 155/15/1
f 154/1/3 159/2/3 160/8/3
f 159/21/2 156/16/2 158/18/2
f 161/13/1 162/14/1 163/15/1
f 164/16/2 165/17/2 166/18/2
f 167/2/3 166/19/3 168/8/3
f 162/14/1 168/20/1 163/15/1
f 162/1/3 167/2/3 168/8/3
f 167/21/2 164/16/2 166/18/2
f 169/13/1 170/14/1 171/15/1
f 172/42/2 173/43/2 174/44/2
f 175/2/3 174/19/3 176/8/3
f 170/14/1 176/20/1 171/15/1
f 170/1/3 175/2/3 176/8/3
f 175/45/2 172/42/2 174/44/2
f 177/46/1 178/47/1 179/48/1
f 179/48/1 180/49/1 177/46/1
f 181/50/4 177/51/4 180/52/4
f 180/52/4 182/53/4 181/50/4
f 183/54/4 181/50/4 182/53/4
f 182/53/4 184/55/4 183/54/4
f 185/56/2 186/57/2 187/58/2
f 187/58/2 188/59/2 185/56/2
f 186/60/4 183/54/4 184/55/4
f 184/55/4 187/61/4 186/60/4
f 189/46/1 190/47/1 191/48/1
f 191/48/1 192/49/1 189/46/1
f 193/50/4 189/51/4 192/52/4
f 192/52/4 194/53/4 193/50/4
f 195/54/4 193/50/4 194/53/4
f 194/53/4 196/55/4 195/54/4
f 197/56/2 198/57/2 199/58/2
f 199/58/2 200/59/2 197/56/2
f 198/60/4 195/54/4 196/55/4
f 196/55/4 199/61/4 198/60/4
f 201/46/1 202/47/1 203/48/1
f 203/48/1 204/49/1 201/46/1
f 205/50/4 201/51/4 204/52/4
f 204/52/4 206/53/4 205/50/4
f 207/54/4 205/50/4 206/53/4
f 206/53/4 208/55/4 207/54/4
f 209/56/2 210/57/2 211/58/2
f 211/58/2 212/59/2 209/56/2
f 210/60/4 207/54/4 208/55/4
f 208/55/4 211/61/4 210/60/4
f 213/62/5 214/63/5 215/64/5
f 215/64/5 216/65/5 213/62/5
f 217/66/6 213/67/6 216/68/6
f 216/68/6 218/69/6 217/66/6
f 214/70/7 219/71/7 220/72/7
f 220/72/7 215/73/7 214/70/7
f 221/74/5 222/75/5 223/76/5
f 223/76/5 224/77/5 221/74/5
f 225/63/6 226/78/6 227/79/6
f 227/79/6 228/80/6 225/63/6
f 222/81/7 229/82/7 230/83/7
f 230/83/7 223/84/7 222/81/7
f 231/85/8 217/67/8 218/68/8
f 218/68/8 232/86/8 231/85/8
f 233/87/8 225/88/8 228/89/8
f 228/89/8 234/90/8 233/87/8
f 235/91/6 221/62/6 224/92/6
f 224/92/6 236/93/6 235/91/6
