# Blender 4.4.3
# www.blender.org
mtllib WDFENCE.mtl
o WDFENCE
v -328.725281 20.146296 -552.548218
v -347.301178 20.146296 -552.548218
v -347.301178 21.348572 -552.548218
v -328.725281 21.348572 -552.548218
v -277.453552 21.092115 -576.295166
v -290.240356 21.092113 -589.769653
v -290.240356 20.146301 -589.769653
v -277.453552 20.146303 -576.295166
v 241.428787 23.826130 -662.772644
v 233.578293 23.826128 -679.608154
v 233.578293 25.028406 -679.608154
v -128.099228 -0.171875 34.761372
v -128.099228 -0.171877 16.104994
v -128.099228 -1.379362 16.104994
v -128.099228 -1.379360 34.761372
v -188.357681 0.988045 -33.311176
v -188.357681 0.988046 -14.654784
v -188.357681 0.038136 -14.654784
v -188.357635 0.038135 -33.311180
v -362.568634 9.867053 -92.726761
v -344.904510 9.867054 -98.730263
v -344.904510 8.659569 -98.730263
v -362.568634 8.659569 -92.726761
v -286.852753 18.513073 -162.322601
v -304.521362 12.375072 -168.312637
v -304.521362 11.425161 -168.312637
v -286.852753 17.563160 -162.322601
v -277.844330 10.291878 -776.104065
v -298.400940 -0.871122 -781.129883
v -298.400940 -1.816934 -781.129883
v -277.844330 9.346066 -776.104065
v -357.600006 17.359142 -735.582214
v -325.415741 7.497482 -722.548157
v -325.415741 6.295205 -722.548157
v -357.600006 16.156868 -735.582214
v -295.310608 21.666168 -327.123199
v -276.654175 21.666174 -327.123199
v -276.654175 20.458687 -327.123199
v -295.310547 20.458685 -327.123199
v -116.698013 12.028494 -329.079865
v -105.340721 12.028493 -343.880981
v -105.340729 11.078584 -343.880981
v -116.698029 11.078585 -329.079895
v 81.766075 16.674437 -386.707520
v 82.687744 13.249166 -368.073914
v 82.687744 12.041680 -368.073914
v 81.766075 15.466950 -386.707520
v 141.684448 13.459571 -293.891144
v 141.532898 13.460241 -310.823547
v 141.532898 12.510332 -310.823517
v 141.684448 12.509662 -293.891144
v -138.554245 12.530453 -816.725342
v -116.667542 5.571928 -802.434021
v -116.667542 4.369652 -802.434021
v -138.554245 11.328176 -816.725342
v -8.997406 20.564875 -767.895691
v -38.653870 11.407526 -806.374512
v -38.653870 10.461715 -806.374512
v -8.997406 19.619062 -767.895691
v 549.909058 34.371441 -762.482178
v 538.770569 31.784937 -777.527588
v 538.770569 30.582661 -777.527588
v 549.909058 33.169170 -762.482178
v 439.608704 30.946323 -808.879150
v 450.040405 30.946329 -787.418091
v 450.040405 30.000517 -787.418091
v 439.608582 30.000513 -808.879150
v 199.352539 35.671516 -1018.421753
v 207.401123 32.046833 -1000.031067
v 207.401123 30.844555 -1000.031067
v 199.352539 34.469238 -1018.421753
v 271.340942 36.474792 -925.048950
v 270.655365 34.293240 -954.583313
v 270.655365 33.347427 -954.583313
v 271.340942 35.528976 -925.048950
v 434.777100 10.607844 -538.923401
v 445.595428 10.607847 -523.723938
v 445.595428 9.657937 -523.723938
v 434.777100 9.657934 -538.923401
v 492.821991 6.300180 -489.004150
v 502.372681 6.417703 -505.029846
v 502.372681 5.210217 -505.029846
v 492.821991 5.092694 -489.004150
v 218.747925 25.028400 -697.854492
v 226.598404 25.028400 -681.019043
v 226.598404 23.826124 -681.019043
v 218.747925 23.826122 -697.854492
v 325.257324 30.030785 -654.509766
v 314.359131 27.671005 -664.674377
v 314.359131 26.725193 -664.674377
v 325.257263 29.084972 -654.509766
v 220.358276 15.900063 -425.976776
v 230.669510 15.861287 -422.043549
v 230.669510 13.013501 -422.043549
v 220.358276 13.052278 -425.976776
v 240.036240 15.858867 -418.541473
v 240.036240 13.011081 -418.541473
v 208.520630 15.984481 -431.562561
v 208.520630 13.136696 -431.562561
v 197.296524 16.112404 -438.296906
v 197.296524 13.264618 -438.296906
v 186.797089 16.281691 -446.113159
v 186.797089 13.433906 -446.113159
v 249.402985 15.858865 -415.039368
v 249.402985 13.011080 -415.039368
v 211.357132 15.771740 -523.744568
v 189.077011 15.771563 -514.709595
v 189.077011 14.825751 -514.709595
v 211.357132 14.825928 -523.744568
v 418.892151 -2.070453 34.842773
v 419.185730 -2.070457 16.177944
v 419.185730 -3.277943 16.177944
v 418.892151 -3.277939 34.842773
v 353.980591 -2.328039 -33.316353
v 353.981476 -2.328036 -20.621550
v 353.981476 -3.277946 -20.621550
v 353.980591 -3.277949 -33.316353
v 293.720276 -2.327125 -14.654919
v 293.720886 -1.381594 -30.498978
v 293.720276 -3.277035 -14.654922
v 293.720886 -2.331504 -30.498974
v 233.461853 -1.266806 16.104853
v 233.461853 -1.266803 34.761230
v 233.461853 -2.474292 16.104853
v 233.461853 -2.474288 34.761230
v 112.940544 -0.461479 34.761227
v 112.940544 -0.461481 16.104851
v 112.940544 -1.668966 16.104851
v 112.940544 -1.668964 34.761227
v 577.295349 -2.070467 -194.483078
v 555.660461 -2.070466 -188.144226
v 555.660461 -3.277952 -188.144226
v 577.295349 -3.277953 -194.483078
v 517.032043 -2.328038 -169.079193
v 523.345581 -2.328034 -151.523544
v 523.345581 -3.277944 -151.523544
v 517.032043 -3.277947 -169.079193
v 477.928009 -2.070475 -290.841064
v 495.821503 -2.070475 -296.121521
v 495.821503 -3.277960 -296.121521
v 477.928009 -3.277960 -290.841064
v -99.628204 15.788320 -434.479431
v -114.856354 15.788321 -423.701508
v -114.862976 14.580835 -423.747742
v -99.628204 14.580834 -434.479431
vn -0.0000 -0.0000 -1.0000
vn -0.7254 -0.0000 0.6884
vn 0.9063 -0.0000 -0.4226
vn -1.0000 -0.0000 -0.0000
vn 1.0000 -0.0000 -0.0000
vn -0.3218 -0.0000 -0.9468
vn -0.3211 -0.0000 0.9471
vn -0.2375 -0.0000 0.9714
vn 0.3754 -0.0000 -0.9269
vn 0.3753 -0.0000 -0.9269
vn -0.7934 -0.0000 -0.6088
vn 0.9988 -0.0000 -0.0494
vn -1.0000 -0.0000 0.0089
vn 0.5467 -0.0000 -0.8373
vn -0.7921 -0.0000 0.6104
vn -0.7920 -0.0000 0.6105
vn -0.8037 -0.0000 0.5950
vn 0.8994 -0.0001 -0.4372
vn 0.8994 -0.0000 -0.4372
vn 0.9161 -0.0000 -0.4009
vn -0.9997 -0.0000 0.0232
vn 0.8147 -0.0000 -0.5799
vn -0.8590 -0.0000 -0.5119
vn -0.6821 0.0001 0.7313
vn -0.6821 -0.0000 0.7313
vn 0.3920 -0.0000 -0.9200
vn 0.3533 -0.0000 -0.9355
vn 0.3917 -0.0000 -0.9201
vn 0.3502 -0.0000 -0.9367
vn 0.4714 -0.0000 -0.8819
vn 0.4710 -0.0000 -0.8821
vn 0.5568 -0.0000 -0.8306
vn 0.5562 -0.0000 -0.8310
vn 0.5971 -0.0000 -0.8021
vn 0.3758 -0.0000 0.9267
vn -0.9999 -0.0000 -0.0157
vn 1.0000 -0.0000 -0.0001
vn -1.0000 -0.0001 -0.0000
vn -1.0000 0.0001 -0.0000
vn 0.2812 -0.0000 0.9597
vn 0.9410 -0.0000 -0.3384
vn -0.2830 -0.0000 -0.9591
vn 0.5760 -0.0014 0.8175
vn 0.5774 -0.0344 0.8158
vn 0.5773 -0.0330 0.8159
vn 0.5759 -0.0000 0.8175
vt -14.407799 1.000499
vt -22.399805 1.000500
vt -22.399805 1.999501
vt -14.407799 1.999500
vt -9.231666 1.999500
vt -16.224672 1.999501
vt -16.224672 1.000500
vt -9.231666 1.000499
vt 2.000000 2.000000
vt 0.000000 2.000000
vt 0.000000 1.000000
vt 2.000000 1.000000
s 1
usemtl WDFENCE.002
f 1/1/1 2/2/1 3/3/1
f 3/3/1 4/4/1 1/1/1
f 5/5/2 6/6/2 7/7/2
f 7/7/2 8/8/2 5/5/2
f 9/1/3 10/2/3 11/3/3
f 12/3/4 13/4/4 14/1/4
f 14/1/4 15/2/4 12/3/4
f 16/5/5 17/6/5 18/7/5
f 18/7/5 19/8/5 16/5/5
f 20/3/6 21/4/6 22/1/6
f 22/1/6 23/2/6 20/3/6
f 24/5/7 25/6/7 26/7/7
f 26/7/7 27/8/7 24/5/7
f 28/5/8 29/6/8 30/7/8
f 30/7/8 31/8/8 28/5/8
f 32/3/9 33/4/10 34/1/10
f 34/1/10 35/2/9 32/3/9
f 36/3/1 37/4/1 38/1/1
f 38/1/1 39/2/1 36/3/1
f 40/5/11 41/6/11 42/7/11
f 42/7/11 43/8/11 40/5/11
f 44/3/12 45/4/12 46/1/12
f 46/1/12 47/2/12 44/3/12
f 48/5/13 49/6/13 50/7/13
f 50/7/13 51/8/13 48/5/13
f 52/3/14 53/4/14 54/1/14
f 54/1/14 55/2/14 52/3/14
f 56/5/15 57/6/16 58/7/16
f 58/7/16 59/8/15 56/5/15
f 60/3/17 61/4/17 62/1/17
f 62/1/17 63/2/17 60/3/17
f 64/5/18 65/6/19 66/7/19
f 66/7/19 67/8/18 64/5/18
f 68/3/20 69/4/20 70/1/20
f 70/1/20 71/2/20 68/3/20
f 72/5/21 73/6/21 74/7/21
f 74/7/21 75/8/21 72/5/21
f 76/5/22 77/6/22 78/7/22
f 78/7/22 79/8/22 76/5/22
f 80/3/23 81/4/23 82/1/23
f 82/1/23 83/2/23 80/3/23
f 84/3/3 85/4/3 86/1/3
f 86/1/3 87/2/3 84/3/3
f 88/5/24 89/6/25 90/7/25
f 90/7/25 91/8/24 88/5/24
f 92/9/26 93/10/27 94/11/27
f 94/11/27 95/12/28 92/9/26
f 93/9/27 96/10/29 97/11/29
f 97/11/29 94/12/27 93/9/27
f 98/9/30 92/10/26 95/11/28
f 95/11/28 99/12/31 98/9/30
f 100/9/32 98/10/30 99/11/31
f 99/11/31 101/12/33 100/9/32
f 102/9/34 100/10/32 101/11/33
f 101/11/33 103/12/34 102/9/34
f 96/9/29 104/10/29 105/11/29
f 105/11/29 97/12/29 96/9/29
f 106/5/35 107/6/35 108/7/35
f 108/7/35 109/8/35 106/5/35
f 110/3/36 111/4/36 112/1/36
f 112/1/36 113/2/36 110/3/36
f 114/5/37 115/6/37 116/7/37
f 116/7/37 117/8/37 114/5/37
f 118/6/38 119/5/39 120/7/38
f 121/8/39 120/7/38 119/5/39
f 122/4/5 123/3/5 124/1/5
f 125/2/5 124/1/5 123/3/5
f 126/3/4 127/4/4 128/1/4
f 128/1/4 129/2/4 126/3/4
f 130/3/40 131/4/40 132/1/40
f 132/1/40 133/2/40 130/3/40
f 134/5/41 135/6/41 136/7/41
f 136/7/41 137/8/41 134/5/41
f 138/3/42 139/4/42 140/1/42
f 140/1/42 141/2/42 138/3/42
f 142/3/43 143/4/44 144/1/45
f 144/1/45 145/2/46 142/3/43
