# Blender 4.4.3
# www.blender.org
mtllib WINDA.mtl
o WINDA
v 522.565613 -1.094085 -197.204178
v 519.452271 -1.094086 -207.643890
v 522.565613 0.215465 -197.204178
v 519.452271 0.215464 -207.643906
v 512.313049 -1.094087 -231.583038
v 508.680603 -1.094088 -243.763351
v 512.299316 0.215463 -231.629181
v 508.694366 0.215462 -243.717209
v 507.779724 -1.094089 -246.784225
v 503.771271 -1.094090 -260.225342
v 507.779724 0.215461 -246.784225
v 503.810181 0.215460 -260.094879
v -108.539497 12.157746 -689.902710
v -119.432083 12.157746 -690.082825
v -108.539505 13.467298 -689.902710
v -119.432091 13.467298 -690.082825
v -144.409668 12.157746 -690.495911
v -157.118347 12.157746 -690.706055
v -144.457809 13.467298 -690.496704
v -157.070206 13.467298 -690.705261
v -160.270264 12.157746 -690.758179
v -174.294449 12.157746 -690.990112
v -160.270264 13.467298 -690.758179
v -174.158295 13.467298 -690.987854
v -231.206238 12.625350 -655.894470
v -226.673187 12.625350 -660.947937
v -231.206238 14.166242 -655.894470
v -226.673187 14.166242 -660.947937
v -216.278534 12.625349 -672.535889
v -210.989700 12.625348 -678.431885
v -216.258499 14.166241 -672.558228
v -211.009735 14.166240 -678.409546
v -209.678009 12.625348 -679.894165
v -203.841705 12.625348 -686.400452
v -209.678009 14.166240 -679.894165
v -203.898376 14.166240 -686.337280
v -35.966846 3.169321 -20.097706
v -16.669785 3.169321 -20.097706
v -16.669785 4.813960 -20.097706
v -35.966846 4.813960 -20.097706
v 4.582371 3.169321 -20.097706
v 23.955832 3.169321 -20.097704
v 23.955832 4.813960 -20.097706
v 4.582371 4.813960 -20.097706
v 28.555897 3.169321 -20.097706
v 47.852959 3.169321 -20.097706
v 47.852959 4.813960 -20.097706
v 28.555897 4.813960 -20.097706
v 69.105118 3.169321 -20.097706
v 88.478577 3.169321 -20.097704
v 88.478577 4.813960 -20.097706
v 69.105118 4.813960 -20.097706
v 93.586380 3.169321 -20.097706
v 112.883446 3.169321 -20.097706
v 112.883446 4.813960 -20.097706
v 93.586380 4.813960 -20.097706
v 134.135605 3.169321 -20.097706
v 153.509064 3.169321 -20.097704
v 153.509064 4.813960 -20.097706
v 134.135605 4.813960 -20.097706
v 270.967316 17.826069 -403.608246
v 277.365448 17.826069 -407.618225
v 277.391113 19.426069 -407.634308
v 270.967316 19.426069 -403.608246
v 270.963409 20.126070 -403.609070
v 277.906555 20.126070 -407.960632
v 277.884705 21.526070 -407.946930
v 270.963409 21.526070 -403.609070
v 265.727173 17.826069 -411.941956
v 265.752838 19.426069 -411.958038
v 272.162689 19.426069 -415.975372
v 272.137054 17.826069 -415.959290
v 267.014374 17.826069 -409.915344
v 267.021240 19.426069 -409.904419
v 267.020325 20.126070 -409.900452
v 267.026306 21.526070 -409.890900
v 278.775940 20.126070 -411.312164
v 276.055084 20.126070 -415.653442
v 276.049591 21.526070 -415.662231
v 278.776764 21.526070 -411.310852
vn 0.9583 -0.0000 -0.2858
vn 0.9583 -0.0001 -0.2858
vn 0.0165 -0.0000 -0.9999
vn 0.7444 -0.0000 0.6677
vn -0.0000 -0.0000 1.0000
vn 0.5311 -0.0000 0.8473
vn -0.5311 -0.0000 -0.8473
vn -0.8473 -0.0000 0.5311
vn 0.8473 -0.0000 -0.5311
vt 0.000999 1.000501
vt 1.999000 1.000499
vt 0.001000 1.999500
vt 1.999001 1.999498
vt 0.000999 1.000502
vt 1.999001 1.000500
vt 0.008567 1.999500
vt 1.991433 1.999498
vt 0.000999 1.999500
vt 1.979604 1.999498
vt 0.004995 1.000499
vt 3.222105 1.000499
vt 3.222105 1.999500
vt 0.004995 1.999500
vt 6.765158 1.000499
vt 9.995005 1.000499
vt 9.995005 1.999500
vt 6.765158 1.999500
vt 0.000000 1.000000
vt 2.000000 1.000000
vt 2.000000 2.000000
vt 0.000000 2.000000
vt 1.506300 1.000000
vt 1.501599 2.000000
vt 0.503961 1.000000
vt 0.506490 2.000000
vt 0.507596 1.000000
vt 0.509808 2.000000
vt 0.502990 1.000000
vt 1.507860 1.000000
vt 1.509894 2.000000
vt 0.502685 2.000000
s 1
usemtl WINDA.003
f 1/1/1 2/2/2 3/3/1
f 2/2/2 4/4/2 3/3/1
f 5/5/1 6/6/1 7/7/1
f 6/6/1 8/8/1 7/7/1
f 9/5/1 10/6/1 11/9/1
f 10/6/1 12/10/1 11/9/1
f 13/1/3 14/2/3 15/3/3
f 14/2/3 16/4/3 15/3/3
f 17/5/3 18/6/3 19/7/3
f 18/6/3 20/8/3 19/7/3
f 21/5/3 22/6/3 23/9/3
f 22/6/3 24/10/3 23/9/3
f 25/1/4 26/2/4 27/3/4
f 26/2/4 28/4/4 27/3/4
f 29/5/4 30/6/4 31/7/4
f 30/6/4 32/8/4 31/7/4
f 33/5/4 34/6/4 35/9/4
f 34/6/4 36/10/4 35/9/4
f 37/11/5 38/12/5 39/13/5
f 39/13/5 40/14/5 37/11/5
f 41/15/5 42/16/5 43/17/5
f 43/17/5 44/18/5 41/15/5
f 44/18/5 39/13/5 38/12/5
f 44/18/5 38/12/5 41/15/5
f 45/11/5 46/12/5 47/13/5
f 47/13/5 48/14/5 45/11/5
f 49/15/5 50/16/5 51/17/5
f 51/17/5 52/18/5 49/15/5
f 52/18/5 47/13/5 46/12/5
f 52/18/5 46/12/5 49/15/5
f 53/11/5 54/12/5 55/13/5
f 55/13/5 56/14/5 53/11/5
f 57/15/5 58/16/5 59/17/5
f 59/17/5 60/18/5 57/15/5
f 60/18/5 55/13/5 54/12/5
f 60/18/5 54/12/5 57/15/5
f 61/19/6 62/20/6 63/21/6
f 63/21/6 64/22/6 61/19/6
f 65/19/6 66/23/6 67/24/6
f 67/24/6 68/22/6 65/19/6
f 69/20/7 70/21/7 71/21/7
f 71/21/7 72/20/7 69/20/7
f 73/25/8 61/20/8 64/21/8
f 64/21/8 74/26/8 73/25/8
f 75/27/8 65/20/8 68/21/8
f 68/21/8 76/28/8 75/27/8
f 77/29/9 78/30/9 79/31/9
f 79/31/9 80/32/9 77/29/9
