# Blender 4.4.3
# www.blender.org
mtllib YLOGLOW.mtl
o YLOGLOW
v -66.568558 1.120688 -9.674765
v -66.568558 -0.010803 -9.674767
v -66.568558 1.120688 -10.789284
v -66.568558 -0.010803 -10.789286
v -66.976212 0.517797 -10.232027
v -66.531097 0.153651 -10.232027
v -66.617523 0.956235 -10.232025
v -65.755707 0.592088 -10.232027
v -66.754318 0.720059 -10.563517
v -66.652283 0.184197 -10.381395
v -66.496338 0.925690 -10.103039
v -65.977585 0.389828 -9.920916
v -66.699341 0.515251 -9.836166
v -66.560074 0.153933 -10.261354
v -66.588562 0.955954 -10.174383
v -66.032578 0.594636 -10.599573
v -66.568558 1.299895 -10.306715
v -66.568558 0.268666 -9.841057
v -66.568558 0.841220 -11.322475
v -66.568558 -0.190010 -10.856817
v -66.976212 0.521088 -10.566481
v -66.531097 0.189209 -10.416618
v -66.617523 0.920676 -10.746916
v -65.755707 0.588796 -10.597055
v -66.754333 0.569004 -10.951838
v -66.652283 0.155577 -10.565323
v -66.496338 0.945921 -10.616789
v -65.977585 0.532495 -10.230272
v -66.699341 0.681682 -10.204651
v -66.560074 0.177397 -10.443464
v -66.588562 0.944142 -10.694267
v -66.032578 0.439856 -10.933081
vn 1.0000 -0.0000 -0.0000
vn -0.0000 -0.0000 1.0000
vn -0.8724 -0.0000 0.4888
vn -0.5076 -0.2072 0.8363
vn 0.9503 -0.0000 0.3113
vn 0.5780 -0.0677 0.8133
vn -0.0000 0.4115 0.9114
vn -0.8724 0.2011 0.4455
vn -0.5076 0.1553 0.8475
vn 0.9503 0.1281 0.2837
vn 0.5780 0.2730 0.7690
vt 0.000500 1.999501
vt 0.000500 1.000500
vt 0.999500 1.999500
vt 0.999500 1.000499
s 1
usemtl YLOPITGLOWA
f 1/1/1 2/2/1 3/3/1
f 4/4/1 3/3/1 2/2/1
f 5/1/2 6/2/2 7/3/2
f 8/4/2 7/3/2 6/2/2
f 9/1/3 10/2/3 11/3/3
f 12/4/4 11/3/4 10/2/4
f 13/1/5 14/2/5 15/3/5
f 16/4/6 15/3/6 14/2/6
f 17/1/1 18/2/1 19/3/1
f 20/4/1 19/3/1 18/2/1
f 21/1/7 22/2/7 23/3/7
f 24/4/7 23/3/7 22/2/7
f 25/1/8 26/2/8 27/3/8
f 28/4/9 27/3/9 26/2/9
f 29/1/10 30/2/10 31/3/10
f 32/4/11 31/3/11 30/2/11
