# Blender 4.4.3
# www.blender.org
mtllib YLOLT.mtl
o YLOLT
v -66.657028 0.711484 -10.436508
v -66.657028 0.434361 -10.436508
v -66.657028 0.434361 -10.723341
v -66.657028 0.711484 -10.723341
v -66.657028 0.711484 -10.081666
v -66.657028 0.434361 -10.081666
v -66.657028 0.434361 -10.368499
v -66.657028 0.711484 -10.368499
vn 1.0000 -0.0000 -0.0000
vt 0.000500 1.000500
vt 0.999500 1.000499
vt 0.999501 1.999500
vt 0.000500 1.999501
s 1
usemtl YLOPITLTA
f 1/1/1 2/2/1 3/3/1
f 3/3/1 4/4/1 1/1/1
f 5/1/1 6/2/1 7/3/1
f 7/3/1 8/4/1 5/1/1
